<svg width="24" height="24" viewBox="0 0 24 24" fill="none" xmlns="http://www.w3.org/2000/svg">
<path d="M11.9644 2.00439L12.1118 2.06494L12.1177 2.0708C12.174 2.10944 12.2073 2.15403 12.2134 2.1626C12.2241 2.17796 12.2321 2.19087 12.2358 2.19775C12.2432 2.2114 12.2482 2.22363 12.2505 2.229C12.2549 2.23925 12.2573 2.24995 12.2593 2.25537C12.2634 2.2666 12.2698 2.28019 12.2739 2.29248C12.2827 2.31902 12.2935 2.35913 12.3081 2.40576L12.395 2.68311C12.4147 2.74562 12.442 2.80037 12.4731 2.8501L12.5454 2.96924L12.6206 3.0874C12.6466 3.1285 12.68 3.16747 12.7241 3.20264L12.8374 3.29248L12.9526 3.38232C13.0798 3.48388 13.1733 3.61578 13.23 3.76904L13.2817 3.90186L13.3306 4.03467C13.3523 4.09353 13.3806 4.14699 13.4146 4.19385L13.5767 4.41846C13.6224 4.48162 13.6726 4.54273 13.7261 4.60107L13.8188 4.70459L13.9146 4.80908C13.9986 4.90095 14.0707 5.00158 14.1284 5.11182L14.1948 5.23584L14.2583 5.36084C14.2788 5.39997 14.3068 5.43511 14.3442 5.46729L14.4546 5.56299L14.564 5.65479C14.6464 5.72533 14.7252 5.79946 14.7983 5.87744L14.8931 5.98096L14.9888 6.08252C15.0963 6.19717 15.171 6.3335 15.2114 6.48389L15.2866 6.76709C15.2931 6.79119 15.3034 6.80643 15.3179 6.81885L15.4282 6.91162L15.5347 7.00342C15.6511 7.1028 15.7428 7.22628 15.8062 7.36475L15.9331 7.64209C15.9347 7.6456 15.935 7.64899 15.936 7.65088L16.0601 7.70557L16.1899 7.75732C16.237 7.77734 16.2865 7.79138 16.3403 7.79541L16.4819 7.80713L16.6235 7.81592C16.7214 7.82298 16.8213 7.83145 16.9185 7.84131L17.0571 7.85596L17.1987 7.87061C17.3408 7.88512 17.4774 7.92666 17.603 7.99463L17.8511 8.12744C17.8598 8.13216 17.8716 8.13715 17.8999 8.1333L18.2007 8.09326C18.3633 8.07084 18.5265 8.09102 18.6802 8.15967L18.8101 8.21436L18.937 8.27197C19.0258 8.3117 19.1149 8.35308 19.2026 8.396L19.3267 8.45947L19.4546 8.52002C19.5378 8.56071 19.6221 8.60114 19.7056 8.64111L19.9595 8.76318C20.0052 8.78493 20.0529 8.79786 20.104 8.80322L20.2427 8.81787L20.3843 8.83252C20.5633 8.8513 20.7206 8.92964 20.8491 9.04639L20.9614 9.1499L21.0776 9.25146C21.1089 9.27977 21.1318 9.29081 21.1499 9.29443L21.2856 9.3208L21.4243 9.34619C21.5094 9.36296 21.5995 9.38092 21.6929 9.39502L21.8403 9.41553L21.9868 9.43896C22.0314 9.44569 22.0936 9.45795 22.1548 9.48779C22.2162 9.51789 22.3049 9.58078 22.3569 9.6958C22.4115 9.81667 22.3966 9.93244 22.3687 10.0103C22.3426 10.0824 22.3 10.1373 22.27 10.1724L22.1812 10.2788L22.0913 10.3833C22.0438 10.439 22.0001 10.4992 21.9614 10.562L21.8169 10.7993C21.7246 10.9495 21.5902 11.0562 21.436 11.1255L21.2915 11.189L21.1499 11.2554L21.103 11.3794L21.0571 11.5181C21.0167 11.6318 20.9649 11.7406 20.9038 11.8423L20.8315 11.9604L20.7593 12.0815C20.717 12.152 20.678 12.2261 20.6411 12.3013L20.5776 12.4282L20.5171 12.5552C20.4534 12.6846 20.3639 12.7963 20.2544 12.8901L20.0405 13.0757C19.9687 13.1372 19.8957 13.1989 19.8237 13.2603L19.7173 13.3521L19.6069 13.4448C19.5407 13.5013 19.4761 13.5595 19.4136 13.6187L19.2085 13.812C19.1569 13.861 19.1109 13.9142 19.0698 13.9702L18.9858 14.0835L18.9058 14.1958C18.8672 14.2486 18.8325 14.3063 18.8042 14.3696L18.689 14.6294C18.6478 14.7216 18.6064 14.8092 18.5649 14.8892L18.5063 14.9985L18.4517 15.106C18.4513 15.1079 18.4498 15.1153 18.4517 15.1284L18.4927 15.4058C18.5206 15.5932 18.4765 15.7699 18.3882 15.9233L18.3042 16.0649L18.2241 16.2065C18.2198 16.2141 18.2167 16.2195 18.2153 16.2231L18.2437 16.3589L18.2729 16.4976C18.3038 16.6401 18.3052 16.7855 18.2759 16.9282L18.2466 17.0669L18.2212 17.1763C18.2224 17.1781 18.2251 17.1796 18.2271 17.1821L18.3276 17.3179L18.4321 17.4536C18.4973 17.5393 18.5497 17.6478 18.5649 17.772C18.5801 17.8976 18.5538 18.0161 18.5034 18.1187L18.3657 18.4009C18.3449 18.4431 18.3412 18.4713 18.3423 18.4907L18.3599 18.7681C18.3622 18.8042 18.3712 18.8475 18.397 18.8979L18.4692 19.0366L18.5386 19.1724C18.6538 19.3962 18.6223 19.6309 18.4956 19.8228L18.4028 19.9644L18.3628 20.019L18.4146 20.0825L18.5239 20.2183C18.6394 20.3613 18.7188 20.5406 18.7065 20.7466L18.689 21.0239C18.6814 21.1495 18.6532 21.2942 18.5728 21.4194L18.5239 21.4946L18.4751 21.5728C18.3189 21.8157 18.0521 21.8137 17.9028 21.7837L17.7671 21.7573L17.6284 21.729C17.5331 21.7099 17.4365 21.6907 17.3423 21.6685L17.2065 21.6362L17.0708 21.6021C16.9662 21.5773 16.8626 21.5466 16.7622 21.5093L16.6323 21.4604L16.5024 21.4136C16.4625 21.3988 16.4161 21.39 16.3608 21.3911L16.0659 21.397C15.9041 21.4002 15.7464 21.3624 15.604 21.2808L15.48 21.2085L15.3589 21.1392C15.2803 21.0939 15.2009 21.0493 15.1216 21.0063L14.8735 20.8735C14.8039 20.8359 14.7318 20.8019 14.6597 20.7729L14.5327 20.7212L14.4028 20.6685C14.3236 20.6367 14.2433 20.6071 14.1626 20.5796L14.0298 20.5356L13.8999 20.4927C13.8184 20.4649 13.7348 20.4385 13.6519 20.4146L13.519 20.3745L13.3833 20.3364C13.2762 20.3055 13.1719 20.2656 13.0708 20.2183L12.9438 20.1577L12.8169 20.1001C12.7097 20.0497 12.6067 19.9864 12.5103 19.9146L12.395 19.8286L12.3052 19.7622L12.2017 19.7905L12.063 19.8257C11.9181 19.8639 11.7686 19.8699 11.6206 19.8481L11.3091 19.8022C11.2772 19.7977 11.2651 19.8027 11.2603 19.8052L11.0112 19.938C10.9084 19.9931 10.8019 20.0394 10.6909 20.0737L10.4253 20.1548C10.3284 20.1848 10.2296 20.2129 10.1304 20.2358L9.85889 20.2993C9.85785 20.2996 9.85592 20.3003 9.85303 20.3022C9.84864 20.3053 9.84006 20.3123 9.82764 20.3276L9.72314 20.4546L9.62256 20.5825C9.49424 20.7417 9.31079 20.845 9.09033 20.8481L8.94385 20.8511H8.79639C8.72169 20.8521 8.64938 20.8597 8.58252 20.8735L8.31104 20.9312C8.22935 20.9481 8.14708 20.9695 8.06787 20.9927L7.93506 21.0298L7.80225 21.0698C7.78545 21.0748 7.76107 21.0862 7.72998 21.1196L7.51611 21.3501C7.38463 21.4917 7.21041 21.5792 7.0083 21.5874L6.71924 21.5991C6.71781 21.6003 6.7142 21.6042 6.71045 21.6079L6.49072 21.8208C6.30417 22.0048 6.0628 22.0337 5.84424 21.9653L5.50928 21.8618C5.41497 21.8323 5.27862 21.7685 5.19189 21.6274C5.09526 21.4699 5.11339 21.305 5.15674 21.189L5.2085 21.0532L5.2583 20.9146C5.27438 20.8716 5.27788 20.8337 5.2749 20.7983L5.25244 20.521C5.24382 20.4184 5.2409 20.3149 5.24072 20.2124V19.9351C5.24055 19.8272 5.24499 19.7191 5.2583 19.6118L5.2749 19.4731L5.29248 19.3374C5.29869 19.2874 5.29812 19.2347 5.28662 19.1812L5.25537 19.0425L5.22607 18.9009C5.18646 18.715 5.21807 18.5333 5.3042 18.3726L5.37939 18.2368L5.43115 18.1353L5.37646 18.0259L5.3042 17.8843C5.21488 17.7104 5.19179 17.5133 5.2583 17.3179L5.3042 17.1821L5.3501 17.0435C5.376 16.9673 5.39587 16.8909 5.41064 16.8159L5.43994 16.6802L5.46533 16.5415C5.48347 16.4494 5.50271 16.3563 5.521 16.2642L5.54639 16.1255L5.57568 15.9897C5.58936 15.9209 5.59599 15.85 5.59619 15.7817V15.5044C5.59619 15.4631 5.58763 15.4229 5.56982 15.3804L5.51514 15.2476L5.46045 15.1177C5.45175 15.0971 5.43924 15.0809 5.4165 15.0649L5.29834 14.9819L5.17725 14.8979C5.07091 14.8241 4.9752 14.7376 4.89404 14.6382L4.72021 14.4243C4.59763 14.2741 4.54757 14.0926 4.54443 13.9155L4.53857 13.5688C4.53847 13.563 4.53897 13.5578 4.53857 13.5542L4.44873 13.4712L4.34521 13.3726C4.294 13.3249 4.23548 13.2811 4.17139 13.2397L3.92334 13.0776C3.77886 12.9843 3.66833 12.8546 3.60303 12.6938L3.54834 12.561L3.49561 12.4282C3.48509 12.4024 3.46951 12.3846 3.44678 12.3677L3.21533 12.1938C3.13184 12.1319 3.05113 12.0672 2.97314 12.0005L2.8667 11.9087L2.75635 11.8159C2.65346 11.7277 2.56714 11.6237 2.49951 11.5063L2.36084 11.2642C2.29468 11.1493 2.24684 11.025 2.21631 10.894L2.18213 10.7476L2.14697 10.5972C2.13291 10.537 2.11105 10.4905 2.08643 10.4526L2.01123 10.3345L1.93311 10.2183C1.87887 10.1353 1.82937 10.0536 1.78564 9.97607L1.72803 9.87158L1.66748 9.76807C1.64727 9.73223 1.61434 9.66139 1.60693 9.57178C1.59803 9.46162 1.6334 9.31954 1.76025 9.22217C1.86031 9.14557 1.96744 9.13627 2.01416 9.13525L2.16162 9.1499L2.31494 9.18213L2.46729 9.21631C2.50868 9.22491 2.53139 9.21771 2.54248 9.21338L2.67236 9.16455L2.80029 9.11279C2.92551 9.06361 3.0582 9.03479 3.19287 9.02881L3.33447 9.02295L3.4585 9.01709L3.46143 9.01416L3.56787 8.88721L3.67822 8.76318L3.80518 8.64404C3.85471 8.6099 3.91206 8.58249 3.9751 8.56396C4.10039 8.52741 4.22303 8.53736 4.33057 8.56982L4.48975 8.61865L4.64795 8.66455C4.65632 8.66709 4.66442 8.66691 4.66846 8.66748L4.78662 8.61279L4.91455 8.54932C4.98637 8.5135 5.05728 8.47286 5.12744 8.42822L5.37061 8.27197C5.48697 8.19789 5.6139 8.14486 5.74854 8.11572L6.02002 8.05811C6.1083 8.03909 6.19778 8.01796 6.28564 7.99756L6.55713 7.93408C6.6509 7.91231 6.74572 7.89236 6.84033 7.87354L6.97607 7.84717L7.11475 7.8208C7.18931 7.80593 7.26293 7.78481 7.33447 7.76025L7.46436 7.71436L7.59717 7.67139C7.68502 7.64123 7.77857 7.60898 7.87744 7.57568L8.0249 7.52393L8.15479 7.47998L8.1958 7.37646L8.24756 7.24365C8.27468 7.17229 8.29601 7.0956 8.31396 7.01514L8.34814 6.87061L8.38037 6.72412C8.42108 6.54243 8.52143 6.38802 8.67236 6.27588L8.7876 6.18604L8.90576 6.1001L8.90869 6.09717V6.09131L8.93799 5.94092L8.96631 5.79346C8.99588 5.64157 9.05879 5.50019 9.15674 5.37744L9.33057 5.15869C9.40826 5.06165 9.49888 4.97423 9.59912 4.89795L9.71436 4.81201L9.8335 4.72217C9.88277 4.68449 9.92327 4.64445 9.95459 4.60107L10.1157 4.37549C10.1757 4.29224 10.2402 4.21163 10.3071 4.1333L10.4858 3.91943C10.4989 3.90417 10.513 3.88209 10.52 3.84131L10.5728 3.54053L10.6187 3.37939C10.6852 3.23042 10.8053 3.11785 10.9565 3.04932L11.104 2.98291L11.188 2.93994L11.1938 2.84424L11.1987 2.68018C11.203 2.54657 11.2387 2.27906 11.4907 2.15479L11.5747 2.1167L11.6558 2.07666C11.6837 2.06291 11.7103 2.0507 11.731 2.0415C11.7403 2.03733 11.755 2.02972 11.771 2.02393C11.7779 2.02142 11.795 2.01534 11.8169 2.01025C11.8275 2.00785 11.8542 2.00282 11.8862 2.00146C11.8925 2.00121 11.9231 1.99727 11.9644 2.00439Z" fill="#010820"/>
</svg>
