<svg width="82" height="82" viewBox="0 0 82 82" fill="none" xmlns="http://www.w3.org/2000/svg">
<circle cx="40.7212" cy="40.6929" r="40" fill="#303A4B" fill-opacity="0.04"/>
<path d="M39.1938 0.00537109L39.3813 0.0249023L39.5728 0.0405273C39.7672 0.0597574 39.9527 0.119624 40.1274 0.208496L40.3149 0.306152L40.4634 0.380371L40.6157 0.302246L40.8032 0.20459C40.9794 0.113242 41.168 0.0542522 41.3657 0.0366211L41.5571 0.0209961L41.7446 0.00537109C41.9511 -0.0128535 42.1545 0.01619 42.3462 0.0913086L42.5298 0.165527L42.7134 0.23584C42.8369 0.284256 42.9618 0.331871 43.0845 0.380371L43.2681 0.45459L43.397 0.509277L43.5845 0.395996L43.7798 0.278809C43.9859 0.153079 44.2293 0.0764059 44.4907 0.11084L44.6782 0.138184L44.8657 0.161621C44.9808 0.176848 45.097 0.187868 45.2134 0.196777L45.5884 0.228027C45.8161 0.245468 46.0255 0.329489 46.2056 0.458496L46.3774 0.57959L46.5493 0.70459L46.5767 0.720215H46.5806L46.9634 0.688965C47.196 0.668911 47.4196 0.719094 47.6196 0.833496L47.7954 0.935059L47.9673 1.03271C47.9967 1.04955 48.0176 1.05401 48.0415 1.05225L48.2368 1.03662L48.4282 1.021C48.6467 1.00295 48.8602 1.04153 49.0571 1.13818L49.229 1.22412L49.4048 1.31006C49.4799 1.34675 49.5562 1.37058 49.6313 1.38428L49.8149 1.41553L49.9985 1.45068C50.1139 1.47169 50.2295 1.49273 50.3462 1.50928L50.5337 1.53271L50.7212 1.56006C50.8532 1.5788 50.9848 1.60049 51.1157 1.62646L51.2993 1.66553L51.4868 1.70068C51.6121 1.72558 51.7372 1.75136 51.8618 1.77881L52.0454 1.82178L52.229 1.86084C52.4321 1.90559 52.6161 1.99702 52.7759 2.12646L52.9321 2.25537L53.0884 2.38037C53.0973 2.38762 53.1026 2.39157 53.104 2.39209C53.1043 2.39218 53.1091 2.39228 53.1196 2.39209L53.3188 2.38818L53.5142 2.38428C53.7542 2.37983 53.9835 2.45168 54.1782 2.59521L54.3345 2.7124L54.4907 2.82568C54.5424 2.86378 54.5935 2.88698 54.647 2.8999L54.8306 2.94287L55.0142 2.98975C55.0882 3.00725 55.1728 3.01315 55.2681 3.00928L55.4751 3.00146L55.6782 2.99365L55.8853 3.00537C56.02 3.02873 56.1448 3.08268 56.2563 3.16162L56.4126 3.29834L56.5493 3.45068L56.6899 3.59912C56.7262 3.63847 56.7556 3.65478 56.7798 3.66162L56.9634 3.7124L57.1431 3.76318C57.335 3.81729 57.5109 3.91186 57.6626 4.04053L57.8071 4.16553L57.9204 4.25928L58.1509 4.22021L58.3774 4.18115C58.6321 4.13535 58.9068 4.16691 59.1431 4.3374L59.2993 4.45068L59.4517 4.56396C59.5371 4.62577 59.6267 4.67881 59.7173 4.72803L59.8853 4.81787L60.0493 4.90771C60.1368 4.95517 60.2302 4.99814 60.3267 5.03271L60.5063 5.09521L60.686 5.16162C60.8744 5.22932 61.0431 5.33435 61.186 5.47412L61.3228 5.61084L61.4634 5.74756C61.5026 5.78558 61.546 5.81249 61.5962 5.82959L61.7798 5.89209L61.9595 5.95459C62.2346 6.04827 62.4219 6.24909 62.5298 6.48975L62.6235 6.69287L62.7134 6.8999C62.7457 6.972 62.7756 7.00169 62.7915 7.01318L62.9438 7.11865L63.0962 7.22803C63.1843 7.29131 63.2755 7.35273 63.3696 7.40771L63.5298 7.50146L63.6938 7.59521C63.7949 7.65419 63.8979 7.71205 64.0024 7.76709L64.1704 7.85303L64.3345 7.94287C64.5098 8.03522 64.6619 8.16215 64.7837 8.31787L64.9009 8.47021L65.022 8.62256C65.0492 8.65698 65.08 8.67966 65.1196 8.69678L65.2993 8.7749L65.4751 8.84912C65.594 8.9 65.7148 8.95352 65.8345 9.00537L66.0103 9.07959L66.1899 9.15771C66.4069 9.25172 66.5811 9.40571 66.7017 9.60693L66.8032 9.77881L66.9009 9.94287L66.9087 9.94678L67.1079 10.0015L67.311 10.0562C67.5135 10.1104 67.6854 10.2201 67.811 10.3804L67.9204 10.5601L68.0103 10.7397L68.0962 10.9233C68.1256 10.9847 68.1622 11.0271 68.1978 11.0562L68.3423 11.1733L68.4868 11.2944C68.6196 11.4032 68.7361 11.5282 68.8345 11.6694L69.0532 11.9819C69.0825 12.0237 69.1176 12.0593 69.1665 12.0874L69.3345 12.1812L69.5063 12.2788C69.6217 12.3449 69.7362 12.4127 69.8501 12.4819L70.0181 12.5835L70.1821 12.6851C70.3626 12.7947 70.5121 12.9441 70.6196 13.1265L70.7173 13.2905L70.8149 13.4585C70.859 13.5331 70.9095 13.5994 70.9673 13.6577L71.1001 13.7905L71.2329 13.9272C71.3732 14.0686 71.4791 14.234 71.5493 14.4194L71.6196 14.6069L71.6821 14.7788L72.0728 14.9429C72.2151 15.0031 72.348 15.1008 72.4438 15.2437C72.4913 15.3146 72.5227 15.3913 72.5454 15.4663L72.5845 15.689L72.6001 15.9155L72.6118 16.146C72.6135 16.1741 72.6173 16.1899 72.6196 16.1968L72.7446 16.3335L72.8735 16.4741C72.9379 16.5433 73.0114 16.6076 73.0923 16.6694L73.2485 16.7905L73.4048 16.9077C73.5848 17.0456 73.7166 17.2286 73.7915 17.4429L73.854 17.6265L73.9087 17.7788L74.1196 17.8647L74.3267 17.9507C74.5242 18.0312 74.6944 18.1655 74.7993 18.3569L74.8813 18.5679L74.9282 18.7593L74.979 18.9546C74.9967 19.0237 75.0232 19.0796 75.0571 19.1265L75.1704 19.2788L75.2798 19.4312C75.3959 19.591 75.4759 19.7701 75.5181 19.9624L75.5571 20.1577L75.6001 20.3491L75.604 20.3569V20.3608C75.6057 20.3626 75.6103 20.3645 75.6157 20.3687L75.7798 20.4897L75.9478 20.6147C76.1617 20.7741 76.2974 20.9995 76.3345 21.2671L76.3892 21.6655C76.4023 21.761 76.4254 21.8468 76.4556 21.9233L76.5259 22.0991L76.5923 22.271C76.616 22.3309 76.6534 22.3887 76.7017 22.4429L76.9595 22.7319C77.0685 22.8544 77.1611 22.989 77.2407 23.1304L77.3345 23.2944L77.4243 23.4546C77.4742 23.543 77.5323 23.6317 77.5962 23.7163L77.7134 23.8726L77.8306 24.0249C77.9969 24.2447 78.0497 24.5041 78.0181 24.7593L77.9907 24.9741L77.9673 25.1499L78.0845 25.2593L78.2368 25.3999C78.3994 25.551 78.521 25.7385 78.5806 25.9585L78.6274 26.1421L78.6782 26.3218C78.7175 26.4668 78.7458 26.6167 78.7642 26.7671L78.7876 26.9585L78.811 27.146C78.8243 27.2541 78.8449 27.3605 78.8696 27.4624L78.9556 27.8296C78.974 27.905 79.0051 27.977 79.0454 28.0483L79.1392 28.2163L79.2329 28.3804C79.3404 28.5706 79.3925 28.7805 79.3892 28.9976L79.3813 29.3882C79.3804 29.4482 79.3923 29.499 79.4126 29.5444L79.5688 29.8882C79.6301 30.0252 79.681 30.1662 79.7212 30.3101L79.7681 30.4897L79.8188 30.6694C79.8594 30.8148 79.8913 30.9645 79.9087 31.1147L79.9282 31.3022L79.9517 31.4897C79.9537 31.5046 79.9601 31.5308 79.9946 31.5718L80.1313 31.7319L80.2681 31.896C80.4496 32.1117 80.5282 32.382 80.4751 32.6694L80.4048 33.0679C80.3915 33.1409 80.3899 33.202 80.4009 33.2554L80.479 33.6226C80.5024 33.7354 80.5275 33.8498 80.5571 33.9624L80.604 34.1421L80.6548 34.3257C80.6823 34.4301 80.7138 34.5345 80.7524 34.6382L80.8188 34.8179L80.8892 34.9976C80.9389 35.131 80.9804 35.2671 81.0181 35.4038L81.1196 35.771C81.1656 35.9379 81.1875 36.1097 81.186 36.2827V36.4702L81.1821 36.6616C81.1811 36.7815 81.1825 36.9024 81.186 37.021L81.1938 37.2085L81.1978 37.396C81.2012 37.5104 81.2105 37.6255 81.2212 37.7397L81.2368 37.9272L81.2563 38.1147C81.2666 38.2238 81.2786 38.334 81.2993 38.4429L81.3384 38.6265L81.3735 38.814C81.4066 38.9882 81.4099 39.1651 81.3892 39.3413L81.3696 39.5327L81.3462 39.7202C81.3367 39.801 81.3378 39.8813 81.3501 39.9624L81.3774 40.1538L81.4087 40.3413C81.4206 40.4196 81.4295 40.5233 81.4165 40.6265C81.4094 40.6821 81.3793 40.8488 81.2446 40.978L81.2485 41.0288L81.2642 41.2163C81.2787 41.394 81.2654 41.5737 81.2251 41.7476L81.1821 41.9312L81.1392 42.1187C81.1125 42.2338 81.0887 42.3483 81.0688 42.4624L81.0376 42.6499L81.0063 42.8335C81.0058 42.8364 81.005 42.8414 81.0063 42.8491C81.008 42.8579 81.0129 42.8745 81.0259 42.8999L81.1274 43.0952L81.2251 43.2905C81.2933 43.4238 81.3367 43.5816 81.3228 43.7515C81.3085 43.9204 81.239 44.0653 81.1509 44.1851L81.022 44.3647L80.9321 44.4819L80.9946 44.6108L81.0806 44.8101C81.1921 45.0578 81.2072 45.3348 81.0884 45.5991L81.0103 45.7788L80.9282 45.9585C80.9175 45.9827 80.9148 46.004 80.9204 46.0327L80.9595 46.2241L80.9985 46.4194C81.0359 46.6097 81.0358 46.8032 80.9985 46.9937L80.9634 47.1812L80.9282 47.3647C80.8998 47.5099 80.8622 47.6537 80.8149 47.7944L80.6899 48.1538C80.6655 48.2265 80.6527 48.3031 80.6509 48.3804L80.6431 48.7632C80.6383 48.954 80.5975 49.1386 80.522 49.314L80.4438 49.4937L80.3696 49.6694C80.3003 49.8298 80.2065 49.9793 80.0962 50.1187L79.9712 50.2788L79.8423 50.4429C79.7949 50.5027 79.7689 50.556 79.7563 50.603L79.6626 50.9624C79.6358 51.0631 79.6152 51.1663 79.6001 51.271L79.5454 51.646C79.5256 51.7836 79.4984 51.9213 79.4673 52.0562L79.4282 52.2358L79.3853 52.4194C79.3725 52.4747 79.3656 52.5423 79.3774 52.6265L79.4087 52.8335L79.436 53.0405C79.4749 53.3187 79.3987 53.5841 79.2095 53.7983L79.0767 53.9507L78.9399 54.1069C78.8602 54.1973 78.7882 54.2891 78.7212 54.3804L78.604 54.5366L78.4907 54.6929C78.4907 54.696 78.49 54.702 78.4907 54.7085L78.5142 54.9155L78.5376 55.1265C78.5589 55.3133 78.5557 55.4995 78.5181 55.6812L78.4399 56.0562C78.392 56.2863 78.2773 56.4868 78.1118 56.646L77.8149 56.9272C77.7839 56.9571 77.7765 56.9804 77.772 57.0015L77.729 57.189L77.6899 57.3765C77.6558 57.5359 77.6045 57.69 77.5376 57.8374L77.4595 58.0093L77.3853 58.1812C77.3391 58.2828 77.2947 58.3873 77.2563 58.4937L77.1938 58.6694L77.1274 58.8491C77.0407 59.0893 76.8745 59.2695 76.6704 59.396L76.4868 59.5132L76.3032 59.6187L76.2798 59.7905L76.2485 59.9858C76.2171 60.1734 76.1505 60.3499 76.0532 60.5132L75.9595 60.6772L75.8618 60.8374C75.7832 60.9692 75.6925 61.0952 75.5923 61.2124L75.4712 61.3569L75.3462 61.5015C75.3054 61.5494 75.274 61.6034 75.2524 61.6655L75.1899 61.8452L75.1274 62.0288C75.0692 62.196 74.9864 62.3518 74.8813 62.4937L74.7681 62.6421L74.6587 62.7944C74.6017 62.8714 74.5496 62.9536 74.5063 63.0405L74.4243 63.2085L74.3384 63.3804C74.2663 63.525 74.1778 63.6609 74.0767 63.7866L73.9595 63.9312L73.8423 64.0796C73.7506 64.1937 73.6514 64.3016 73.5454 64.4038L73.272 64.6694C73.1701 64.7677 73.0627 64.8611 72.9517 64.9507L72.8032 65.0718L72.6509 65.1929C72.5934 65.2394 72.5463 65.2917 72.5103 65.3491L72.4126 65.5054L72.311 65.6655C72.2742 65.7244 72.2446 65.7968 72.2212 65.8843L72.1665 66.0835L72.1157 66.2827C72.0695 66.4567 71.9996 66.6227 71.9087 66.7749L71.7134 67.103C71.6023 67.2886 71.4501 67.4378 71.2642 67.5444L71.0923 67.6421L70.9165 67.7397C70.8431 67.782 70.7855 67.8319 70.7368 67.8843L70.479 68.1577C70.3679 68.277 70.2438 68.3822 70.1079 68.4741L69.9478 68.5835L69.7876 68.689C69.7319 68.7267 69.6882 68.773 69.6509 68.8257L69.5415 68.9819L69.4321 69.1343C69.3081 69.3101 69.1439 69.4483 68.9517 69.5405L68.7759 69.6226L68.5962 69.7085C68.539 69.736 68.4993 69.7718 68.4673 69.8101L68.3462 69.9507L68.2251 70.0952C68.1707 70.1603 68.1212 70.238 68.0767 70.3257L67.9868 70.5015L67.897 70.6812C67.8212 70.8303 67.7312 70.9715 67.6274 71.0991L67.5063 71.2476L67.3853 71.3921C67.2395 71.5715 67.0502 71.6947 66.8345 71.7632L66.6392 71.8257L66.4478 71.8882C66.3421 71.9217 66.2437 71.9608 66.1548 72.0054L65.9829 72.0913L65.8228 72.1694C65.8209 72.1735 65.8214 72.1816 65.8188 72.189L65.7485 72.3999L65.6743 72.6108C65.5931 72.8483 65.4421 73.062 65.2017 73.1929L64.8657 73.3726C64.7527 73.434 64.6391 73.4962 64.5259 73.5562L64.3579 73.646L64.1938 73.7319C64.0865 73.7888 63.9784 73.8483 63.8735 73.9077L63.5454 74.0952C63.4245 74.1638 63.3011 74.2283 63.1743 74.2866L62.8306 74.4429C62.7983 74.4577 62.7649 74.4812 62.7329 74.5249L62.6157 74.689L62.4946 74.8491C62.346 75.0524 62.1406 75.1904 61.8931 75.2476L61.7017 75.2944L61.5063 75.3374C61.4325 75.3546 61.3715 75.3818 61.3188 75.4155L61.1587 75.5171L61.0024 75.6187C60.8929 75.6894 60.7825 75.7588 60.6704 75.8257L60.5103 75.9233L60.3501 76.0171C60.2861 76.0552 60.222 76.1054 60.1626 76.1694L60.0298 76.314L59.8931 76.4585C59.6956 76.6712 59.4332 76.7688 59.1587 76.7593L58.9478 76.7515L58.8188 76.7437L58.7446 76.8765L58.6353 77.0757C58.4884 77.3359 58.2385 77.5207 57.9087 77.5366L57.7056 77.5483L57.5024 77.5562C57.4867 77.5569 57.4775 77.5591 57.4751 77.5601C57.4727 77.5611 57.47 77.5659 57.4634 77.5718L57.3149 77.7046L57.1665 77.8335C56.9879 77.9932 56.7724 78.0861 56.5337 78.1069L56.3384 78.1265L56.1392 78.1421C56.0479 78.1501 55.9652 78.1701 55.8892 78.1968L55.7134 78.2593L55.5337 78.3179C55.3961 78.3661 55.2552 78.4083 55.1118 78.439L54.7446 78.5171H54.7407C54.737 78.5195 54.7231 78.5302 54.7056 78.5522L54.5688 78.7241L54.4321 78.8999C54.2756 79.0966 54.06 79.2407 53.7915 79.2827L53.604 79.314L53.4126 79.3413C53.2952 79.3597 53.1798 79.3842 53.0649 79.4077L52.8774 79.4429L52.6938 79.4819C52.6324 79.4946 52.5706 79.5177 52.5103 79.5562L52.1821 79.7671C51.9353 79.9244 51.6564 79.9474 51.397 79.8726L51.1821 79.8101L50.9712 79.7476C50.8808 79.7214 50.8105 79.7158 50.7563 79.7202L50.5649 79.7358L50.3774 79.7515H50.3813C50.379 79.7527 50.3656 79.7591 50.3462 79.7788L50.1938 79.939L50.0376 80.0952C49.8564 80.2789 49.6188 80.4013 49.3384 80.4038H49.147L48.9517 80.4077C48.7894 80.4089 48.6255 80.3921 48.4634 80.3608L48.2681 80.3218L48.0688 80.2827C48.0564 80.2805 48.0505 80.2825 48.0493 80.2827C48.0482 80.2829 48.0429 80.2855 48.0337 80.2905L47.6899 80.478C47.5525 80.5533 47.4094 80.6176 47.2642 80.6694L47.0806 80.7358L46.9009 80.7983C46.7034 80.8685 46.4982 80.8866 46.2915 80.8569L46.0962 80.8296L45.9048 80.8022C45.8094 80.7885 45.7161 80.7847 45.6274 80.7905L45.2524 80.814C45.1794 80.8189 45.1052 80.8361 45.0298 80.8647L44.8501 80.9351L44.6665 81.0015C44.4468 81.0846 44.2163 81.0953 43.9907 81.0366L43.7993 80.9897L43.6079 80.939C43.578 80.9312 43.5556 80.9334 43.5298 80.9429L43.1626 81.0757C42.9692 81.1468 42.767 81.1739 42.561 81.1499L42.3735 81.1304L42.186 81.1069C42.1708 81.1052 42.1449 81.1032 42.1001 81.1265L41.9165 81.2241L41.729 81.3218C41.4536 81.4652 41.1527 81.4582 40.8853 81.314L40.6978 81.2124L40.5063 81.1108C40.4207 81.0646 40.3456 81.0367 40.2798 81.0249L40.0923 80.9937L39.9087 80.9585C39.797 80.9385 39.6831 80.9225 39.5728 80.9116L39.3892 80.896L39.2017 80.8765C39.1996 80.8764 39.1939 80.8745 39.186 80.8765C39.1753 80.8793 39.1558 80.887 39.1274 80.9038L38.936 81.021L38.7407 81.1343C38.4768 81.2903 38.1645 81.3154 37.8735 81.1577L37.6938 81.0601L37.5103 80.9624C37.4942 80.9537 37.4851 80.951 37.4829 80.9507C37.481 80.9504 37.4773 80.9495 37.4712 80.9507L37.2798 80.9897L37.0884 81.0249C36.8902 81.0632 36.6906 81.0602 36.4946 81.0093L36.311 80.9624L36.1274 80.9116C36.021 80.8839 35.9137 80.8617 35.8071 80.8452L35.6235 80.8179L35.436 80.7905C35.3587 80.7786 35.2786 80.777 35.1938 80.7866L34.9985 80.8062L34.8071 80.8296C34.5681 80.8569 34.34 80.8038 34.1353 80.6851L33.9595 80.5835L33.7876 80.4858C33.7664 80.4735 33.7534 80.4721 33.7368 80.4741L33.5415 80.4976L33.3462 80.5249C33.1312 80.554 32.9154 80.5307 32.7134 80.4468L32.3618 80.2983C32.3409 80.2896 32.3137 80.2858 32.2681 80.2944L32.0688 80.3296L31.8657 80.3687C31.5834 80.4222 31.312 80.3494 31.0923 80.1694L30.9321 80.0405L30.772 79.9077C30.6868 79.838 30.6012 79.7815 30.5181 79.7358L30.3501 79.6421L30.1782 79.5483C30.1546 79.5357 30.1301 79.5298 30.0923 79.5327L29.6938 79.564C29.5024 79.5788 29.3109 79.5588 29.1274 79.5015L28.9517 79.4468L28.772 79.3882C28.5999 79.3343 28.4388 79.2554 28.2915 79.1499L28.1313 79.0327L27.9712 78.9194C27.9095 78.8753 27.8486 78.8471 27.7876 78.8296L27.4282 78.728C27.3667 78.7105 27.2948 78.6999 27.2095 78.7046L26.8032 78.728C26.6317 78.7374 26.4614 78.7261 26.2954 78.6968L26.1079 78.6655L25.9165 78.6304C25.7415 78.5994 25.5738 78.5443 25.4165 78.4624L25.2485 78.3726L25.0806 78.2866C24.9467 78.2168 24.8173 78.1379 24.6938 78.0483L24.3813 77.8218C24.3525 77.8009 24.3214 77.7871 24.2759 77.7827L23.8774 77.7437C23.6278 77.7201 23.4046 77.6133 23.229 77.4351L23.0884 77.2944L22.9478 77.1499C22.9278 77.1301 22.9117 77.1226 22.8892 77.1187L22.6938 77.0874L22.4985 77.0522C22.2566 77.0112 22.0486 76.893 21.8853 76.7124L21.7485 76.564L21.6157 76.4155C21.5442 76.3365 21.4689 76.2688 21.3931 76.2085L21.2446 76.0874L21.0962 75.9702C21.0639 75.9446 21.0242 75.9257 20.9712 75.9155L20.7759 75.8804L20.5806 75.8413C20.3607 75.7999 20.1598 75.7028 19.9946 75.5483L19.854 75.4194L19.7134 75.2866C19.6349 75.2134 19.5549 75.1449 19.4712 75.0835L19.3188 74.9741L19.1665 74.8608C19.1147 74.823 19.0546 74.7918 18.9829 74.771L18.6079 74.6616C18.4299 74.6098 18.2618 74.5317 18.1118 74.4233L17.8071 74.2046C17.6435 74.0863 17.5133 73.9328 17.4126 73.7593L17.311 73.5835L17.2095 73.4116L17.0259 73.3726L16.8267 73.3257C16.6243 73.2788 16.437 73.1876 16.2759 73.0522L16.1313 72.9312L15.9868 72.814C15.9195 72.7574 15.8454 72.7077 15.7642 72.6655L15.5962 72.5757L15.4243 72.4858C15.2712 72.4062 15.1315 72.3072 15.0063 72.189L14.7329 71.9312C14.6338 71.8375 14.537 71.7382 14.4438 71.6382L14.186 71.3647C14.1332 71.308 14.0717 71.2572 14.0024 71.2163L13.6743 71.021C13.4682 70.8991 13.3151 70.7227 13.2212 70.5093L13.0571 70.1343C13.0428 70.1015 13.0307 70.0907 13.0181 70.0835L12.8501 69.9858L12.6821 69.8921C12.5407 69.8114 12.408 69.7182 12.2876 69.6108L12.1509 69.4858L12.0103 69.3608C11.9196 69.2799 11.8259 69.1978 11.7329 69.1187L11.5884 68.9976L11.4438 68.8726C11.3257 68.7718 11.2178 68.6606 11.1196 68.5405L10.9985 68.396L10.8813 68.2476C10.8148 68.1662 10.7423 68.0901 10.6665 68.0171L10.5298 67.8843L10.3931 67.7554C10.3 67.6658 10.207 67.5735 10.1157 67.4819L9.8501 67.2163C9.74658 67.1124 9.65076 67.0001 9.56104 66.8843L9.44385 66.7358L9.33057 66.5874C9.24977 66.4831 9.16899 66.3783 9.09229 66.271L8.98291 66.1147L8.87354 65.9624C8.76375 65.8086 8.68522 65.6375 8.63525 65.4546L8.58057 65.2593L8.52979 65.0757L8.35791 64.9819L8.17432 64.8843C7.92037 64.749 7.74923 64.5234 7.69385 64.2397L7.65479 64.0366L7.61963 63.853L7.45557 63.7593L7.27588 63.6577C6.99031 63.4923 6.8492 63.2095 6.84619 62.8999L6.84229 62.6772V62.4546C6.84211 62.4428 6.83913 62.4353 6.83838 62.4312L6.71338 62.3101L6.58057 62.1733C6.49831 62.0903 6.41237 62.0078 6.32275 61.9272L6.17432 61.7944L6.02979 61.6655C5.87061 61.5226 5.75163 61.3457 5.68213 61.1421L5.61963 60.9624L5.56104 60.7788C5.53347 60.6982 5.49674 60.6242 5.45166 60.5562L5.24072 60.2437C5.16022 60.1222 5.08689 59.9948 5.02197 59.8647L4.85791 59.5288C4.81095 59.4347 4.75606 59.3443 4.69775 59.2554L4.59619 59.0952L4.49072 58.939C4.42773 58.8429 4.36174 58.7476 4.2915 58.6538L4.17432 58.5015L4.06104 58.3452C3.94113 58.185 3.85658 58.0057 3.81494 57.8101L3.77588 57.6187L3.73682 57.4312C3.72397 57.3705 3.70089 57.3169 3.6665 57.2671L3.55713 57.1069L3.44775 56.9507C3.34711 56.8057 3.26706 56.6496 3.21338 56.4819L3.15869 56.3022L3.1001 56.1187C3.0406 55.9316 3.0225 55.7362 3.0376 55.5405L3.06885 55.1265C3.06924 55.1212 3.06895 55.1173 3.06885 55.1147L2.94775 54.9585L2.82275 54.8062C2.72046 54.6768 2.63284 54.538 2.56104 54.3921L2.479 54.2241L2.39697 54.0522C2.31743 53.8906 2.26514 53.7192 2.24072 53.5405L2.21338 53.353L2.18994 53.1616C2.17534 53.055 2.15378 52.9502 2.12744 52.8491L2.08057 52.6694L2.03369 52.4858C2.0212 52.4386 1.99543 52.3886 1.95166 52.3335L1.82275 52.1733L1.69775 52.0171C1.49498 51.7625 1.46681 51.4556 1.56104 51.1733L1.63135 50.9585L1.68213 50.7905L1.6001 50.6851L1.46729 50.5249C1.28637 50.3024 1.21775 50.0291 1.27588 49.7476L1.31885 49.5444L1.36182 49.3452V49.3335L1.26025 49.1655L1.15479 48.9976C1.04399 48.8165 0.980742 48.6144 0.971191 48.3999L0.959473 48.2085L0.95166 48.021C0.947745 47.9318 0.935597 47.8448 0.912598 47.7593L0.861816 47.5757L0.814941 47.396C0.792259 47.3118 0.758769 47.2251 0.713379 47.1382L0.619629 46.9624L0.529785 46.7866C0.40758 46.5525 0.384879 46.2945 0.455566 46.0444L0.564941 45.6538C0.596913 45.5407 0.622182 45.4291 0.63916 45.3218L0.70166 44.939V44.9351L0.697754 44.9312C0.696338 44.9279 0.69434 44.9226 0.689941 44.9155L0.580566 44.7358L0.467285 44.5601C0.352158 44.377 0.281424 44.1721 0.271973 43.9507L0.256348 43.5757C0.247777 43.3749 0.285155 43.1798 0.35791 42.9937L0.432129 42.7983L0.479004 42.6851L0.365723 42.5483L0.221191 42.3687C0.0474946 42.1527 -0.0495406 41.8717 0.0258789 41.564L0.0688477 41.3726L0.115723 41.1851C0.142323 41.0765 0.164568 40.9674 0.178223 40.8608L0.225098 40.4858C0.24578 40.3245 0.283669 40.1648 0.338379 40.0093L0.471191 39.6343C0.470806 39.6326 0.469796 39.6287 0.467285 39.6226L0.38916 39.4312L0.307129 39.2437C0.213624 39.0225 0.19183 38.7799 0.256348 38.5405L0.303223 38.3569L0.354004 38.1733C0.389505 38.0416 0.42846 37.9087 0.471191 37.7788L0.533691 37.5952L0.592285 37.4116C0.603399 37.3779 0.605126 37.3461 0.596191 37.3062L0.510254 36.9233C0.461611 36.7097 0.468946 36.4922 0.537598 36.2827L0.600098 36.0991L0.658691 35.9194L0.646973 35.8882L0.561035 35.689L0.479004 35.4858C0.391515 35.2796 0.352027 35.056 0.38916 34.8257L0.42041 34.6382L0.447754 34.4546C0.471044 34.3101 0.504357 34.1661 0.54541 34.0249L0.600098 33.8413L0.650879 33.6616C0.674901 33.579 0.690273 33.4939 0.693848 33.4077L0.70166 33.2163L0.709473 33.0288C0.719232 32.7901 0.804003 32.5721 0.943848 32.3882L1.06885 32.2241L1.19775 32.0562C1.2533 31.9829 1.2882 31.9134 1.31104 31.8491L1.37354 31.6733L1.43994 31.4937C1.47196 31.4031 1.49469 31.3098 1.51025 31.2163L1.57275 30.8491C1.58685 30.7645 1.58986 30.6726 1.58447 30.5757L1.57275 30.3804L1.56494 30.1812C1.55229 29.9512 1.60522 29.731 1.7251 29.5327L1.82275 29.3647L1.92432 29.2007C1.9491 29.1597 1.9609 29.118 1.96338 29.0718L1.9751 28.8804L1.98682 28.6851C1.99491 28.5353 2.01027 28.3858 2.0376 28.2397L2.07275 28.0562L2.10791 27.8687C2.13649 27.7159 2.17863 27.5643 2.23291 27.4194L2.36572 27.0679C2.40253 26.9695 2.43435 26.8667 2.45947 26.7632L2.54541 26.396C2.60342 26.1569 2.74078 25.9614 2.92041 25.8101L3.08447 25.6694L3.23682 25.5366L3.24072 25.3647L3.24463 25.1655C3.2503 24.9129 3.34299 24.6781 3.51416 24.4897L3.64697 24.3452L3.77979 24.1968L3.7876 24.189C3.78762 24.1889 3.79099 24.1829 3.7915 24.1694L3.79541 23.9624L3.80322 23.7593C3.8104 23.5265 3.88153 23.3046 4.02588 23.1147L4.26025 22.8101C4.32806 22.7208 4.38989 22.6292 4.44775 22.5366L4.54932 22.3765L4.64697 22.2163C4.67503 22.1714 4.69557 22.1158 4.70557 22.0483L4.73682 21.853L4.76416 21.6538C4.80228 21.3984 4.9297 21.1801 5.12744 21.0171L5.43994 20.7593C5.52833 20.6865 5.61011 20.6096 5.68213 20.5327L5.81104 20.396L5.94385 20.2554C5.96288 20.235 5.97527 20.2102 5.98291 20.1694L6.01807 19.9702L6.05713 19.7749C6.0915 19.5891 6.15531 19.4131 6.25244 19.2515L6.3501 19.0874L6.44775 18.9272C6.51351 18.818 6.5796 18.7073 6.64697 18.5991L6.74463 18.4429L6.84619 18.2827C6.91055 18.1794 6.97502 18.0751 7.0376 17.9702L7.13525 17.8062L7.229 17.646C7.33795 17.4634 7.48785 17.3145 7.6665 17.2046L7.84229 17.0991L8.01416 16.9937C8.06263 16.9639 8.08807 16.9325 8.104 16.9038L8.19775 16.7397L8.2876 16.5757C8.36633 16.4337 8.46114 16.3023 8.56885 16.1812L8.69385 16.0405L8.81494 15.8999C8.85942 15.8499 8.89898 15.7909 8.92822 15.7202L9.07666 15.3608C9.13621 15.2169 9.20714 15.0779 9.2876 14.9468L9.38525 14.7827L9.48682 14.6226C9.59489 14.4465 9.73844 14.302 9.9126 14.1929L10.0806 14.0874L10.2446 13.9858C10.2584 13.9772 10.2704 13.9685 10.2798 13.9429L10.3462 13.7515L10.4165 13.5601C10.5028 13.3236 10.6627 13.133 10.8853 13.0093L11.061 12.9116L11.2329 12.8179C11.3252 12.7667 11.411 12.7103 11.4868 12.6499L11.6313 12.5327L11.7798 12.4116C11.8675 12.3418 11.9533 12.2688 12.0337 12.1929L12.1704 12.0679L12.3071 11.939C12.3458 11.9024 12.3785 11.8509 12.4087 11.7827L12.4907 11.5991L12.5767 11.4116C12.6756 11.1895 12.8372 11.0101 13.0571 10.896L13.229 10.8062L13.4048 10.7163C13.4876 10.6732 13.5623 10.6232 13.6274 10.5679L13.7681 10.4468L13.9126 10.3257C14.0353 10.2214 14.1682 10.129 14.311 10.0522L14.647 9.87256C14.6618 9.86457 14.6795 9.85069 14.6978 9.81396L14.7876 9.63037L14.8813 9.44678C14.9884 9.23258 15.1556 9.06155 15.3774 8.95459L15.5493 8.86865L15.7251 8.78662C15.7574 8.7708 15.7856 8.74648 15.811 8.7085L16.0298 8.38037C16.1414 8.21372 16.2839 8.07188 16.4556 7.96631L16.7759 7.771C16.8772 7.70866 16.9784 7.64192 17.0767 7.57568L17.3892 7.36475C17.5813 7.23516 17.7996 7.17558 18.022 7.16553L18.2446 7.15381L18.4634 7.146C18.5203 7.14349 18.5401 7.13035 18.5454 7.12646L18.6938 7.01318L18.8423 6.896C18.9265 6.83068 19.0089 6.76085 19.0884 6.68506L19.229 6.55225L19.3657 6.41943C19.4763 6.31404 19.5963 6.22013 19.7212 6.13428L19.8735 6.02881L20.0298 5.91943C20.1037 5.8685 20.1767 5.81005 20.2446 5.73975L20.3774 5.59912L20.5142 5.4585C20.6387 5.32968 20.7794 5.21942 20.936 5.13428L21.104 5.04443L21.2681 4.95459C21.3604 4.90441 21.4508 4.84852 21.5376 4.78662L21.6899 4.67725L21.8462 4.56787C21.985 4.46883 22.1355 4.38867 22.2954 4.32959L22.6548 4.19678C22.8575 4.12233 23.0692 4.10641 23.2798 4.13037L23.5024 4.15381L23.6079 4.16162L23.6704 4.05225L23.7837 3.84521C23.9261 3.58764 24.1716 3.39179 24.5063 3.37256L24.7095 3.36084L24.9087 3.35303C24.921 3.35234 24.9274 3.34947 24.9282 3.34912C24.9299 3.3483 24.9329 3.34388 24.9399 3.3374L25.0884 3.20068L25.2329 3.06006C25.4304 2.8744 25.6805 2.78788 25.9478 2.79834L26.1548 2.80615L26.3579 2.81396C26.3935 2.81539 26.4083 2.80652 26.4204 2.79834L26.7407 2.57959C26.8721 2.48976 27.0105 2.41233 27.1548 2.34912L27.3306 2.2749L27.5024 2.20068C27.6656 2.1293 27.8367 2.08286 28.0142 2.06396L28.397 2.0249C28.4815 2.01591 28.5606 1.9953 28.6353 1.96631L28.811 1.896L28.9868 1.82959C29.1014 1.785 29.2158 1.73896 29.3306 1.69287L29.6821 1.55225C29.8237 1.49536 29.971 1.44922 30.1196 1.41553L30.3032 1.37256L30.4868 1.3335C30.6407 1.29862 30.797 1.27634 30.9556 1.271L31.147 1.26709L31.3384 1.25928C31.4213 1.25649 31.5009 1.24367 31.5767 1.22021L31.7563 1.16162L31.9399 1.10693C32.1459 1.04303 32.357 1.03731 32.5649 1.07959L32.7642 1.11865L32.9634 1.16162C32.9983 1.16875 33.0155 1.16039 33.0298 1.15381L33.2056 1.07568L33.3774 0.993652C33.5547 0.91205 33.7446 0.869151 33.9399 0.864746L34.1313 0.86084L34.3188 0.856934C34.3991 0.855196 34.477 0.840879 34.5532 0.817871L34.7368 0.763184L34.9165 0.708496C35.0965 0.65398 35.2837 0.635755 35.4712 0.649902L35.6587 0.661621L35.8501 0.677246C35.924 0.682804 35.9952 0.678759 36.0649 0.661621L36.4321 0.567871C36.6052 0.52508 36.7817 0.511928 36.9595 0.524902L37.147 0.536621L37.3384 0.552246C37.4345 0.559216 37.5295 0.557582 37.6235 0.54834L37.811 0.528809L37.9946 0.513184C38.0187 0.510803 38.0638 0.499057 38.1274 0.45459L38.3071 0.325684L38.4868 0.200684C38.6882 0.0598701 38.9301 -0.0204925 39.1938 0.00537109ZM41.6431 1.01709L41.4556 1.03271C41.402 1.03744 41.3387 1.05653 41.2642 1.09521L41.0767 1.19287L40.8853 1.29053C40.6175 1.42868 40.322 1.43066 40.0532 1.29443L39.8618 1.19678L39.6743 1.09912C39.5977 1.06019 39.5317 1.04234 39.4751 1.03662L39.2837 1.01709L39.0962 1.00146C39.0912 1.00332 39.079 1.00846 39.061 1.021L38.8813 1.146L38.6978 1.2749C38.5204 1.3986 38.3187 1.48305 38.0962 1.50537L37.9087 1.5249L37.7251 1.54443C37.5726 1.55953 37.4177 1.55958 37.2642 1.54834L37.0767 1.53662L36.8853 1.521C36.8137 1.51592 36.7442 1.52342 36.6743 1.54053L36.4907 1.5835L36.3071 1.63037C36.1332 1.6734 35.9547 1.68671 35.7759 1.67334L35.5845 1.66162L35.3931 1.646C35.3277 1.64121 35.2657 1.64727 35.2056 1.66553L34.8462 1.7749C34.6824 1.82459 34.5135 1.85313 34.3423 1.85693L34.1509 1.86084L33.9634 1.86475C33.907 1.86597 33.8508 1.87833 33.7954 1.90381L33.6235 1.98193L33.4478 2.06396C33.229 2.16465 32.9948 2.18521 32.7642 2.13818L32.3657 2.06006C32.3096 2.04863 32.2696 2.05006 32.2368 2.06006L32.0571 2.11865L31.8774 2.17334C31.7143 2.2242 31.5449 2.25344 31.3735 2.25928L31.1821 2.26318L30.9907 2.271C30.8948 2.27422 30.8003 2.28569 30.7095 2.30615L30.522 2.34912L30.3384 2.39209C30.2427 2.41387 30.1487 2.44134 30.0571 2.47803L29.7056 2.61865C29.5874 2.66612 29.4682 2.71334 29.3501 2.75928L29.1743 2.82959L28.9985 2.896C28.8394 2.95789 28.673 2.99893 28.5024 3.01709L28.311 3.03662L28.1196 3.06006C28.0427 3.06831 27.9716 3.08567 27.9048 3.11475L27.729 3.18896L27.5571 3.26709C27.4713 3.30469 27.3885 3.35208 27.3071 3.40771L26.9868 3.62646C26.786 3.76354 26.556 3.82345 26.3188 3.81396L26.1157 3.80615L25.9126 3.79443L25.772 3.92725L25.6274 4.06396C25.4441 4.23627 25.2147 4.33512 24.9634 4.34912L24.7642 4.36084L24.6353 4.36475L24.5493 4.53271L24.436 4.73975C24.3632 4.87153 24.2532 4.99855 24.0962 5.0835C23.9364 5.16951 23.7646 5.19122 23.6079 5.17334L23.3892 5.146L23.1665 5.12256C23.0854 5.11338 23.0326 5.12172 22.9985 5.13428L22.8228 5.20068L22.6431 5.26709C22.5663 5.29536 22.4951 5.33274 22.4282 5.38037L22.272 5.48975L22.1196 5.59912C22 5.68447 21.8731 5.7637 21.7446 5.8335L21.5806 5.92334L21.4126 6.01318C21.349 6.04792 21.2891 6.09568 21.2329 6.15381L21.0962 6.29443L20.9634 6.43506C20.8509 6.55137 20.7274 6.65335 20.5962 6.74365L20.4399 6.85303L20.2876 6.9585C20.207 7.0139 20.1301 7.07641 20.0571 7.146L19.9165 7.2749L19.7798 7.40771C19.6757 7.507 19.5678 7.60199 19.4556 7.68896L19.1587 7.91553C18.9647 8.06584 18.7373 8.13584 18.5063 8.146L18.2876 8.15381L18.0688 8.16553C17.9985 8.16862 17.9634 8.18231 17.9478 8.19287L17.6353 8.40381C17.5255 8.47781 17.4163 8.553 17.3032 8.62256L17.1392 8.72021L16.979 8.81787C16.936 8.84429 16.8975 8.88204 16.8618 8.93506L16.7524 9.09912L16.6392 9.26709C16.5179 9.4477 16.3561 9.58955 16.1587 9.68506L15.9829 9.771L15.811 9.85303C15.8021 9.85733 15.7904 9.8634 15.7759 9.89209L15.686 10.0796L15.5923 10.2632C15.489 10.4698 15.3321 10.6388 15.1235 10.7515L14.9517 10.8452L14.7837 10.9351C14.7021 10.9789 14.6285 11.0302 14.561 11.0874L14.272 11.3296C14.1476 11.4352 14.0123 11.5268 13.8657 11.603L13.6899 11.6929L13.5181 11.7827C13.5078 11.788 13.5013 11.7945 13.4907 11.8179L13.4048 12.0054L13.3228 12.189C13.2433 12.368 13.1334 12.5307 12.9907 12.6655L12.8579 12.7944L12.7212 12.9194C12.6201 13.015 12.5143 13.1095 12.4048 13.1968L12.1079 13.4312C11.9866 13.5277 11.8559 13.6161 11.7173 13.6929L11.5454 13.7866L11.3696 13.8843L11.3657 13.8882H11.3618V13.8921C11.3607 13.8942 11.36 13.8981 11.3579 13.9038L11.2876 14.0952L11.2173 14.2827C11.1342 14.5109 10.9844 14.7028 10.7759 14.8335L10.6118 14.9351L10.4438 15.0405C10.3957 15.0707 10.363 15.1059 10.3384 15.146L10.2368 15.3062L10.1392 15.4702C10.0875 15.5545 10.0421 15.6442 10.0024 15.7397L9.92822 15.9233L9.8501 16.103C9.77997 16.2721 9.68622 16.4275 9.56494 16.564L9.31494 16.8452C9.25649 16.911 9.20575 16.9822 9.1626 17.0601L9.06885 17.2241L8.979 17.3882C8.87298 17.5793 8.72054 17.7328 8.5376 17.8452L8.36572 17.9507L8.18994 18.0562C8.13754 18.0884 8.10814 18.1246 8.08838 18.1577L7.99072 18.3179L7.89697 18.4819C7.831 18.5925 7.76173 18.7011 7.69385 18.8101L7.59619 18.9702L7.49463 19.1304C7.43007 19.234 7.36623 19.3382 7.30322 19.4429L7.20557 19.603L7.10791 19.7671C7.0766 19.8195 7.05149 19.8833 7.0376 19.9585L6.96729 20.3491C6.92651 20.5699 6.82981 20.7728 6.67432 20.939L6.40869 21.2202C6.30614 21.3295 6.1959 21.4345 6.07666 21.5327L5.92041 21.6616L5.76416 21.7866L5.75635 21.7944C5.75623 21.7948 5.75705 21.7975 5.75635 21.8022L5.7251 21.9976L5.69775 22.1968C5.6688 22.3922 5.5996 22.5755 5.49463 22.7437L5.39697 22.9038L5.29541 23.064C5.22057 23.1838 5.13984 23.3016 5.05322 23.4155L4.93994 23.5679L4.82275 23.7202C4.81234 23.7339 4.80437 23.752 4.80322 23.7905L4.7876 24.1968C4.78012 24.4474 4.69256 24.6802 4.52197 24.8687L4.38525 25.0171L4.25244 25.1616L4.24854 25.1694L4.24463 25.1733C4.24429 25.1751 4.24481 25.1792 4.24463 25.1851L4.24072 25.3882L4.23682 25.5874C4.23036 25.8749 4.10011 26.1207 3.88916 26.2983L3.729 26.4351L3.56494 26.5718C3.52755 26.6033 3.51987 26.623 3.51807 26.6304L3.4751 26.814L3.42822 27.0015C3.39371 27.1435 3.35031 27.2833 3.29932 27.4194L3.23682 27.5952L3.17041 27.771C3.13662 27.8612 3.11033 27.9558 3.09229 28.0522L3.05713 28.2397L3.02197 28.4233C3.00276 28.526 2.98867 28.6326 2.98291 28.7397L2.9751 28.9312L2.96338 29.1265C2.95194 29.3372 2.88888 29.5358 2.77979 29.7163L2.67822 29.8843L2.58057 30.0483C2.56658 30.0715 2.5592 30.0935 2.56104 30.1265L2.57275 30.3257L2.58447 30.521C2.59372 30.6872 2.58399 30.8519 2.55713 31.0132L2.49463 31.3804C2.4693 31.5324 2.43302 31.6839 2.38135 31.8296L2.31885 32.0054L2.25635 32.1851C2.1954 32.3566 2.10255 32.5146 1.99072 32.6616L1.86572 32.8296L1.74072 32.9937C1.71239 33.0309 1.71007 33.0532 1.70947 33.0679L1.70166 33.2593L1.69385 33.4468C1.68703 33.6136 1.65838 33.7786 1.61182 33.939L1.55713 34.1226L1.50635 34.3062C1.47684 34.4078 1.45267 34.5116 1.43604 34.6147L1.40479 34.7983L1.37744 34.9858C1.37471 35.0032 1.37209 35.0361 1.39697 35.0952L1.48291 35.2983L1.56885 35.4976C1.66579 35.7261 1.69044 35.9802 1.60791 36.2319L1.54932 36.4116L1.49072 36.5952C1.47989 36.6284 1.47749 36.6597 1.48682 36.7007L1.57275 37.0835C1.62138 37.2976 1.6105 37.5145 1.5415 37.7241L1.42432 38.0913C1.38715 38.2043 1.34967 38.3168 1.31885 38.4312L1.27197 38.6187L1.22119 38.8022C1.21912 38.8099 1.21563 38.8214 1.229 38.853L1.30713 39.0405L1.38916 39.2319C1.48866 39.4675 1.4997 39.7233 1.4126 39.9702L1.3501 40.1538L1.28369 40.3413C1.25151 40.4327 1.22876 40.5221 1.21729 40.6108L1.19385 40.8022L1.17041 40.9897C1.15185 41.1345 1.12368 41.2793 1.08838 41.4233L1.0415 41.6108L1.00635 41.7476L1.14697 41.9233L1.2915 42.103C1.48358 42.3418 1.56512 42.6546 1.43994 42.9741L1.36182 43.1655L1.2876 43.3569C1.26048 43.4263 1.25425 43.4836 1.25635 43.5327L1.27197 43.9077C1.2732 43.9365 1.28174 43.9761 1.31494 44.0288L1.42432 44.2046L1.5376 44.3804C1.67099 44.5922 1.73061 44.8382 1.68994 45.0952L1.62744 45.478C1.60405 45.6259 1.57175 45.7747 1.52979 45.9233L1.47119 46.1226L1.4165 46.3179V46.3218L1.50635 46.5015L1.6001 46.6772C1.67684 46.8245 1.73731 46.9768 1.77979 47.1343L1.83057 47.3179L1.87744 47.4976C1.91964 47.6543 1.94458 47.8157 1.95166 47.978L1.95947 48.1655L1.96729 48.3569C1.9691 48.3931 1.9798 48.4305 2.00635 48.4741L2.11182 48.6421L2.21338 48.814C2.35142 49.0396 2.39093 49.2945 2.33838 49.5483L2.29932 49.7476L2.26025 49.9155L2.37354 50.0522L2.50635 50.2124C2.71311 50.4656 2.74683 50.7765 2.65088 51.064L2.58057 51.2749L2.51807 51.4429L2.60791 51.5522L2.73291 51.7085C2.85713 51.8644 2.94798 52.0418 2.99854 52.2358L3.04541 52.4155L3.09619 52.5991C3.13263 52.7392 3.15841 52.8838 3.17822 53.0288L3.20557 53.2163L3.229 53.4077C3.23908 53.4802 3.26043 53.5474 3.2915 53.6108L3.37744 53.7827L3.45947 53.9507C3.49879 54.0306 3.54771 54.1089 3.60791 54.1851L3.729 54.3374L3.854 54.4937C4.01784 54.7012 4.08465 54.9492 4.06494 55.2046L4.03369 55.6187C4.02746 55.6994 4.03649 55.7655 4.05322 55.8179L4.10791 55.9976L4.1665 56.1772C4.18941 56.2486 4.22332 56.3159 4.26807 56.3804L4.37744 56.5366L4.48682 56.6968C4.59778 56.8567 4.67306 57.0337 4.71338 57.2241L4.75635 57.4116L4.79541 57.5991C4.80708 57.6542 4.82899 57.7038 4.86182 57.7476L4.9751 57.8999L5.09229 58.0522C5.17515 58.1628 5.2518 58.2779 5.32666 58.3921L5.43213 58.5483L5.53369 58.7085C5.6132 58.8299 5.68795 58.9543 5.75244 59.0835L5.83447 59.2515L5.92041 59.4194C5.96681 59.5123 6.01898 59.6019 6.07666 59.689L6.17822 59.8491L6.28369 60.0054C6.37678 60.146 6.45165 60.2983 6.50635 60.4585L6.63135 60.8179C6.6442 60.8555 6.66306 60.8881 6.69775 60.9194L6.84229 61.0522L6.99072 61.1812C7.09484 61.2747 7.19489 61.3727 7.2915 61.4702L7.56104 61.7397C7.75724 61.9379 7.83981 62.1915 7.84229 62.4468V62.8257L7.95947 62.896L8.13916 62.9976C8.38262 63.1385 8.54186 63.3646 8.59619 63.6421L8.63525 63.8452L8.67041 64.0132L8.82666 64.0991L9.01025 64.1968C9.19024 64.2928 9.33052 64.4342 9.42041 64.6108L9.49463 64.7983L9.54541 64.9937L9.6001 65.1929C9.62111 65.2692 9.65055 65.3303 9.68604 65.3804L9.79541 65.5366L9.90869 65.689C9.97745 65.7852 10.0472 65.8806 10.1196 65.9741L10.2368 66.1226L10.3501 66.2749C10.4143 66.3578 10.4869 66.4349 10.561 66.5093L10.6938 66.6421L10.8267 66.7788C10.9125 66.865 11.0009 66.9485 11.0884 67.0327L11.2251 67.1655L11.3579 67.2944C11.4625 67.3951 11.5629 67.5024 11.6548 67.6147L11.7759 67.7632L11.8931 67.9077C11.9531 67.9811 12.0199 68.049 12.0923 68.1108L12.2368 68.2358L12.3813 68.3569C12.4801 68.4411 12.5779 68.5287 12.6743 68.6147L12.9556 68.8647C13.0219 68.9237 13.0967 68.9745 13.1782 69.021L13.3462 69.1187L13.5142 69.2124C13.7251 69.3327 13.8798 69.515 13.9751 69.7319L14.1392 70.1069C14.1548 70.1418 14.1689 70.1538 14.1821 70.1616L14.5103 70.3569C14.6607 70.4459 14.7976 70.5536 14.9165 70.6812L15.0454 70.8218L15.1743 70.9585C15.2529 71.0428 15.333 71.1257 15.4165 71.2046L15.5571 71.3335L15.6938 71.4624C15.7504 71.5158 15.8133 71.5617 15.8853 71.5991L16.0571 71.689L16.2251 71.7749C16.3704 71.8503 16.5067 71.9436 16.6313 72.0483L16.7759 72.1655L16.9204 72.2866C16.951 72.3123 16.9915 72.3349 17.0532 72.3491L17.2524 72.396L17.4478 72.4429C17.6498 72.4895 17.8243 72.591 17.9556 72.7397L18.0728 72.9038L18.1743 73.0796L18.2759 73.2593C18.3127 73.3227 18.3538 73.3635 18.3931 73.3921L18.5454 73.5015L18.6978 73.6147C18.7509 73.6531 18.8128 73.6835 18.8853 73.7046L19.2603 73.814C19.4391 73.866 19.6063 73.9463 19.7563 74.0562L20.061 74.2749C20.1783 74.3607 20.2895 74.4557 20.397 74.5562L20.5376 74.689L20.6782 74.8179C20.6998 74.8381 20.7241 74.8533 20.7642 74.8608L21.1548 74.9312C21.3608 74.9699 21.5517 75.0575 21.7173 75.189L22.0142 75.4233C22.1359 75.52 22.251 75.6293 22.3579 75.7476L22.6235 76.0444C22.639 76.0615 22.6501 76.0651 22.6665 76.0679L22.8618 76.0991L23.0532 76.1343C23.2881 76.1739 23.4965 76.2821 23.6626 76.4507L23.8032 76.5913L23.9438 76.7358C23.9517 76.7436 23.9552 76.7474 23.9556 76.7476C23.9568 76.7481 23.9618 76.7466 23.9712 76.7476L24.3696 76.7866C24.5874 76.8073 24.7926 76.8798 24.9712 77.0093L25.1274 77.1226L25.2798 77.2358C25.3641 77.297 25.4522 77.3533 25.5415 77.3999L25.7095 77.4858L25.8774 77.5757C25.9432 77.61 26.0157 77.6325 26.0923 77.646L26.2798 77.6812L26.4712 77.7124C26.5571 77.7274 26.6493 77.7335 26.7485 77.728L27.1548 77.7046C27.3403 77.6945 27.5243 77.7128 27.7017 77.7632L27.8813 77.814L28.061 77.8687C28.2384 77.9192 28.4029 77.9993 28.5532 78.1069L28.7134 78.2202L28.8735 78.3374C28.9382 78.3838 29.0036 78.4145 29.0688 78.4351L29.2485 78.4897L29.4282 78.5483C29.4823 78.5651 29.5436 78.5734 29.6157 78.5679L30.0142 78.5366C30.24 78.519 30.4617 78.5632 30.6626 78.6733L30.8306 78.7632L30.9985 78.8569C31.1402 78.9346 31.2755 79.0283 31.4048 79.1343L31.5649 79.2671L31.7056 79.3804L31.8813 79.3491L32.0806 79.3101C32.3033 79.2678 32.5303 79.2875 32.7446 79.3765L32.9204 79.4468L33.0962 79.521C33.1292 79.5347 33.1647 79.5425 33.2095 79.5366L33.6001 79.4819C33.8426 79.4491 34.0779 79.497 34.2876 79.6187L34.4634 79.7202L34.6353 79.8218C34.6619 79.8372 34.6769 79.8393 34.6938 79.8374L35.0767 79.7905C35.2476 79.7709 35.4196 79.7762 35.5884 79.8022L35.7759 79.8296L35.9595 79.8569C36.0997 79.8786 36.2389 79.9107 36.3774 79.9468L36.7446 80.0405C36.7931 80.0531 36.8452 80.0552 36.9009 80.0444L37.0884 80.0093L37.2798 79.9702C37.5282 79.922 37.7707 79.9664 37.9868 80.0835L38.1704 80.1812L38.2837 80.2397L38.4243 80.1577L38.6196 80.0444C38.8201 79.9258 39.0505 79.8562 39.2993 79.8804L39.4868 79.8999L39.6704 79.9155C39.8074 79.929 39.9472 79.9495 40.0845 79.9741L40.2681 80.0093L40.4556 80.0405C40.6387 80.0733 40.8162 80.1381 40.9829 80.228L41.1704 80.3296L41.3149 80.4077L41.4517 80.3374L41.6392 80.2397C41.8411 80.1348 42.0651 80.0878 42.2993 80.1147L42.4907 80.1343L42.6782 80.1577C42.7221 80.1626 42.7676 80.157 42.8188 80.1382L43.0024 80.0718L43.186 80.0015C43.4053 79.9209 43.6366 79.9116 43.8618 79.9702L44.2446 80.0718C44.2736 80.0791 44.2935 80.076 44.3149 80.0679L44.4946 79.9976L44.6743 79.9312C44.84 79.8683 45.014 79.8294 45.1899 79.8179L45.5649 79.7944C45.7253 79.7841 45.8882 79.7907 46.0493 79.814L46.4321 79.8687C46.4811 79.8757 46.5235 79.8714 46.5649 79.8569L46.7485 79.7905L46.9282 79.728C47.0221 79.6945 47.1169 79.6537 47.2095 79.603L47.3813 79.5054L47.5532 79.4116C47.7727 79.2913 48.0166 79.2553 48.2603 79.3022L48.4556 79.3413L48.6548 79.3804C48.7545 79.3995 48.8509 79.4084 48.9438 79.4077L49.1392 79.4038H49.311C49.3141 79.4013 49.3208 79.398 49.3267 79.3921L49.479 79.2358L49.6353 79.0757C49.8069 78.9019 50.0285 78.7783 50.2915 78.7554L50.479 78.7397L50.6704 78.7241C50.8659 78.7075 51.0625 78.7315 51.2524 78.7866L51.4634 78.8491L51.6626 78.9077L51.8071 78.8218L51.9751 78.7163C52.1344 78.6148 52.3058 78.5395 52.4907 78.5015L52.6782 78.4663L52.8618 78.4272C52.9931 78.4003 53.1266 78.3779 53.2603 78.3569L53.4478 78.3257L53.6274 78.2944C53.631 78.2914 53.6417 78.2865 53.6509 78.2749L53.9243 77.9312C54.0753 77.7408 54.2784 77.5952 54.5337 77.5405L54.7173 77.5015L54.9048 77.4624C55.0075 77.4404 55.1081 77.4107 55.2056 77.3765L55.5571 77.2515C55.7164 77.1956 55.8828 77.1608 56.0532 77.146L56.2485 77.1304L56.4478 77.1108C56.4706 77.1088 56.4851 77.1029 56.5024 77.0874L56.647 76.9585L56.7954 76.8257C56.9817 76.6592 57.2093 76.5678 57.4556 76.5562L57.6587 76.5483L57.7876 76.5405L57.8735 76.3882L57.9868 76.189L58.1196 76.0054C58.1724 75.949 58.2351 75.8992 58.3071 75.8569C58.4532 75.7715 58.6119 75.7387 58.7642 75.7437L58.979 75.7515L59.1743 75.7554L59.2954 75.6343L59.4282 75.4897C59.5484 75.3603 59.6844 75.2473 59.8345 75.1577L59.9985 75.064L60.1587 74.9663C60.2602 74.9057 60.3602 74.8428 60.4595 74.7788L60.6157 74.6772L60.7759 74.5757C60.9317 74.4753 61.1025 74.4065 61.2837 74.3647L61.4751 74.3179L61.6704 74.2749L61.6782 74.271C61.6797 74.2696 61.686 74.2646 61.6899 74.2593L61.8071 74.0991L61.9243 73.9351C62.0505 73.7625 62.2157 73.6232 62.4126 73.5327L62.7563 73.3765C62.8577 73.3298 62.9569 73.2788 63.0532 73.2241L63.3813 73.0366C63.4942 72.9727 63.6098 72.9102 63.7251 72.8491L63.8931 72.7593L64.0571 72.6733C64.1672 72.6151 64.2793 72.5534 64.3892 72.4937L64.5571 72.4038L64.7134 72.3179C64.7159 72.3138 64.7232 72.3037 64.729 72.2866L64.7993 72.0757L64.8735 71.8647C64.9564 71.6225 65.1148 71.4086 65.3657 71.2827L65.5376 71.1968L65.7056 71.1108C65.8438 71.0416 65.9911 70.9833 66.1431 70.9351L66.5337 70.8101C66.5744 70.7969 66.5935 70.7807 66.6079 70.7632L66.8501 70.4663C66.9068 70.3964 66.9573 70.3169 67.0024 70.228L67.0962 70.0522L67.186 69.8726C67.2624 69.722 67.3534 69.5815 67.4595 69.4546L67.5767 69.3101L67.6978 69.1655C67.8259 69.0123 67.9834 68.8922 68.1626 68.8062L68.3423 68.7241L68.5181 68.6382C68.5628 68.6167 68.5941 68.5907 68.6157 68.5601L68.7251 68.4038L68.8345 68.2515C68.9425 68.0983 69.0736 67.9658 69.229 67.8608L69.3892 67.7554L69.5493 67.646C69.6235 67.5957 69.6904 67.5405 69.7485 67.478L69.8774 67.3374L70.0024 67.2007C70.1237 67.0704 70.2647 66.9619 70.4204 66.8726L70.5923 66.7749L70.7642 66.6733C70.8069 66.6488 70.8346 66.6232 70.854 66.5913L70.9517 66.4272L71.0532 66.2632C71.0929 66.1967 71.1228 66.1158 71.147 66.0249L71.2017 65.8296L71.2524 65.6304C71.2993 65.4541 71.3718 65.2865 71.4673 65.1343L71.5649 64.9741L71.6665 64.8179C71.7631 64.6639 71.8841 64.5299 72.0259 64.4155L72.3228 64.1733C72.4109 64.1023 72.4964 64.028 72.5767 63.9507L72.8501 63.6851C72.9263 63.6116 72.9997 63.5358 73.0649 63.4546L73.2993 63.1577C73.3547 63.0886 73.4039 63.0152 73.4438 62.9351L73.5259 62.7632L73.6118 62.5952C73.6809 62.4564 73.762 62.3249 73.854 62.2007L73.9673 62.0483L74.0767 61.896C74.1199 61.8375 74.1565 61.7739 74.1821 61.7007L74.2446 61.5171L74.3071 61.3374C74.3694 61.1583 74.4651 60.9932 74.5884 60.8491L74.7095 60.7046L74.8345 60.5601C74.8978 60.4858 74.9535 60.4076 75.0024 60.3257L75.1001 60.1616L75.1938 60.0015C75.2241 59.9508 75.2482 59.8929 75.2603 59.8218L75.2915 59.6265L75.3267 59.4312L75.3813 59.228C75.4593 59.0374 75.5983 58.8868 75.772 58.7788L75.9595 58.6616L76.1431 58.5483C76.1665 58.5338 76.1783 58.5216 76.1821 58.5171C76.1852 58.5135 76.1853 58.5113 76.186 58.5093L76.2524 58.3296L76.3149 58.1538C76.3622 58.023 76.4141 57.8929 76.4712 57.7671L76.6274 57.4233C76.6639 57.3428 76.694 57.2561 76.7134 57.1655L76.7915 56.7905C76.8407 56.562 76.9587 56.367 77.1235 56.2085L77.2681 56.064L77.4165 55.9233C77.4472 55.8938 77.4554 55.8725 77.4595 55.853L77.5376 55.478C77.5516 55.4105 77.5559 55.3319 77.5454 55.2397L77.522 55.0288L77.4985 54.8218C77.4697 54.569 77.525 54.3178 77.6821 54.103L77.7993 53.9429L77.9126 53.7866C77.9984 53.6698 78.0909 53.5551 78.1899 53.4429L78.3267 53.2905L78.4438 53.1577L78.4165 52.9702L78.3892 52.7671C78.3623 52.5757 78.3654 52.3805 78.4087 52.1929L78.4517 52.0132L78.4946 51.8296C78.5194 51.722 78.5374 51.6118 78.5532 51.5015L78.5806 51.3179L78.6079 51.1304C78.6285 50.987 78.6569 50.8438 78.6938 50.7046L78.7446 50.5249L78.7915 50.3452C78.8428 50.1525 78.934 49.9774 79.0571 49.8218L79.186 49.6616L79.3149 49.4976C79.3749 49.4217 79.4195 49.3455 79.4517 49.271L79.5259 49.0952L79.604 48.9194C79.6296 48.8602 79.6416 48.7985 79.6431 48.7358L79.647 48.5483L79.6509 48.3569C79.6551 48.1797 79.6882 48.0054 79.7446 47.8374L79.8032 47.6577L79.8657 47.4741C79.8989 47.3751 79.924 47.2747 79.9438 47.1733L79.9829 46.9858L80.0181 46.8022C80.0292 46.7454 80.0277 46.6841 80.0142 46.6147L79.979 46.4194L79.9399 46.2241C79.8946 45.9934 79.9214 45.7634 80.0181 45.5483L80.0962 45.3687L80.1665 45.2124L80.0806 45.021L79.9907 44.8257C79.8559 44.5264 79.8964 44.2077 80.0884 43.9468L80.2173 43.771L80.2915 43.6655L80.2368 43.5522L80.1353 43.3569C80.0278 43.1469 79.9789 42.909 80.022 42.6616L80.0532 42.478L80.0845 42.2905C80.1075 42.158 80.1358 42.0248 80.1665 41.8921L80.2095 41.7085L80.2524 41.521C80.2697 41.4465 80.2741 41.372 80.2681 41.2983L80.2368 40.9233C80.2304 40.8444 80.2296 40.7424 80.2485 40.6421C80.2577 40.5938 80.2887 40.4602 80.3931 40.3452L80.3892 40.3022L80.3618 40.1147C80.3359 39.9448 80.3339 39.7736 80.354 39.603L80.3735 39.4155L80.397 39.2241C80.4057 39.1491 80.4032 39.0754 80.3892 39.0015L80.3188 38.6265C80.2925 38.4877 80.2734 38.3484 80.2603 38.2085L80.2407 38.021L80.2251 37.8335C80.2124 37.6979 80.2018 37.5593 80.1978 37.4233L80.1938 37.2358L80.186 37.0483C80.1822 36.9174 80.181 36.7858 80.1821 36.6538L80.186 36.4624V36.271C80.1866 36.1916 80.1761 36.114 80.1548 36.0366L80.0532 35.6694C80.0236 35.5618 79.991 35.4546 79.9517 35.3491L79.8853 35.1694L79.8149 34.9897C79.7646 34.8547 79.7223 34.7175 79.686 34.5796L79.6392 34.396L79.5923 34.2163C79.5582 34.0868 79.5255 33.9559 79.4985 33.8257L79.4595 33.6421L79.4243 33.4585C79.385 33.2683 79.3852 33.075 79.4204 32.8843L79.4556 32.6851L79.4868 32.521L79.3657 32.3765L79.229 32.2163C79.0831 32.0432 78.9827 31.8371 78.9556 31.603L78.936 31.4155L78.9126 31.228C78.9012 31.1302 78.8842 31.0331 78.8579 30.939L78.7563 30.5796C78.7296 30.4841 78.6959 30.3903 78.6548 30.2983L78.4985 29.9546C78.4162 29.7706 78.3782 29.5732 78.3813 29.3726L78.3892 28.9819C78.3898 28.9382 78.3797 28.9043 78.3618 28.8726L78.2681 28.7085L78.1743 28.5405C78.0895 28.3903 78.0274 28.231 77.9868 28.064L77.9399 27.8804L77.897 27.7007C77.8629 27.5604 77.8367 27.4164 77.8188 27.271L77.772 26.8882C77.7593 26.7842 77.74 26.6819 77.7134 26.5835L77.6626 26.3999L77.6157 26.2202C77.6095 26.1972 77.5959 26.1663 77.5571 26.1304L77.4048 25.9897L77.2524 25.853C77.0268 25.6438 76.9352 25.3609 76.9712 25.0679L76.9985 24.853L77.0259 24.6343C77.0267 24.6273 77.0259 24.6221 77.0259 24.6187L76.9165 24.4741L76.7993 24.3218C76.7086 24.2019 76.626 24.0759 76.5532 23.9468L76.4634 23.7827L76.3696 23.6187C76.3264 23.5421 76.2721 23.4702 76.2095 23.3999L76.0806 23.2554L75.9517 23.1069C75.8289 22.9688 75.7306 22.8137 75.6626 22.6421L75.5962 22.4663L75.5259 22.2905C75.4644 22.1347 75.4241 21.9714 75.4009 21.8022L75.3735 21.603L75.3462 21.4116L75.186 21.2944L75.022 21.1733C74.8194 21.0231 74.6786 20.8151 74.6235 20.564L74.5806 20.3687L74.5415 20.1772C74.5276 20.1136 74.502 20.0637 74.4712 20.021L74.3618 19.8687L74.2485 19.7163C74.1353 19.5605 74.0575 19.3834 74.0103 19.1968L73.9595 19.0054L73.9243 18.8647L73.7407 18.7905L73.5298 18.7046C73.282 18.6031 73.0728 18.4176 72.9751 18.1382L72.9126 17.9546L72.8462 17.771C72.8358 17.7414 72.8211 17.7203 72.7954 17.7007L72.6431 17.5835L72.4868 17.4663C72.3619 17.3709 72.2442 17.2669 72.1392 17.1538L72.0142 17.0171L71.8853 16.8765C71.7054 16.6821 71.6254 16.4419 71.6118 16.2007L71.6001 15.9702L71.5923 15.8257L71.4868 15.7827L71.2915 15.7007C71.045 15.5961 70.8547 15.4067 70.7563 15.146L70.686 14.9585L70.6157 14.7749C70.5924 14.7132 70.5614 14.6664 70.5259 14.6304L70.2603 14.3647C70.1419 14.2456 70.0375 14.1118 69.9517 13.9663L69.854 13.7983L69.7563 13.6343C69.7336 13.5958 69.7039 13.5657 69.6626 13.5405L69.4985 13.439L69.3306 13.3374C69.2236 13.2724 69.1146 13.208 69.0063 13.146L68.8384 13.0522L68.6704 12.9546C68.4952 12.8542 68.3486 12.7183 68.2329 12.5522L68.0142 12.2397C67.9679 12.1734 67.9141 12.1171 67.854 12.0679L67.7095 11.9468L67.5649 11.8296C67.4071 11.7005 67.2853 11.5392 67.1978 11.3569L67.1079 11.1733L67.0337 11.0132L66.8501 10.9663L66.6509 10.9116C66.3983 10.844 66.1838 10.6936 66.0454 10.4624L65.9438 10.2905L65.8423 10.1226C65.8269 10.0969 65.8125 10.0848 65.7915 10.0757L65.6118 9.99756L65.436 9.92334C65.3178 9.87208 65.1981 9.82128 65.0806 9.771L64.9048 9.69287L64.7251 9.61865C64.5296 9.53484 64.3639 9.40327 64.2329 9.23584L64.1157 9.0835L63.9946 8.93115C63.9578 8.88445 63.9164 8.8503 63.8696 8.82568L63.7017 8.73975L63.5376 8.6499C63.4203 8.58814 63.3036 8.52485 63.1899 8.4585L63.0259 8.36475L62.8657 8.271C62.7447 8.20033 62.6277 8.12206 62.5142 8.04053L62.2095 7.82178C62.0247 7.68867 61.893 7.50953 61.8032 7.31006L61.7095 7.10303L61.6196 6.896L61.6157 6.89209L61.4556 6.8374L61.272 6.7749C61.08 6.70935 60.9092 6.60397 60.7642 6.4624L60.6235 6.32568L60.4868 6.18896C60.4449 6.148 60.3975 6.12142 60.3462 6.10303L60.1665 6.03662L59.9868 5.97412C59.8432 5.92264 59.7057 5.85876 59.5728 5.78662L59.4087 5.69678L59.2407 5.60693C59.1117 5.53685 58.9856 5.45931 58.8657 5.37256L58.7134 5.25928L58.5728 5.16162C58.5684 5.16206 58.5634 5.16443 58.5571 5.16553L58.3267 5.20459L58.0962 5.24756C57.8301 5.29501 57.5458 5.25101 57.311 5.05225L57.0142 4.80225C56.9693 4.76424 56.9239 4.73836 56.8735 4.72412L56.6899 4.67334L56.5103 4.62256C56.2922 4.5611 56.1054 4.44122 55.9556 4.27881L55.8149 4.12646L55.6899 3.99365L55.5142 4.00146L55.3071 4.00928C55.1296 4.01637 54.9534 4.00253 54.7837 3.9624L54.6001 3.91943L54.4204 3.87646C54.2303 3.83151 54.0539 3.74606 53.897 3.63037L53.7407 3.51709L53.5845 3.3999C53.5699 3.38917 53.5578 3.38383 53.5337 3.38428L53.3345 3.38818L53.1392 3.39209C52.8874 3.39675 52.6536 3.31518 52.4595 3.15771L52.3032 3.03271L52.147 2.90381C52.0989 2.86476 52.0549 2.84639 52.0142 2.8374L51.8306 2.79834L51.647 2.75537C51.5288 2.72935 51.4103 2.70475 51.2915 2.68115L51.1079 2.646L50.9204 2.60693C50.8076 2.58456 50.6943 2.56448 50.5806 2.54834L50.3931 2.5249L50.2056 2.49756C50.076 2.47918 49.9471 2.45842 49.8188 2.43506L49.6353 2.3999L49.4517 2.36865C49.2823 2.33778 49.1189 2.28093 48.9634 2.20459L48.7915 2.12256L48.6157 2.03662C48.5815 2.01983 48.5491 2.01388 48.5103 2.01709L48.3188 2.03271L48.1235 2.04834C47.8919 2.06712 47.6708 2.01408 47.4712 1.8999L47.2954 1.80225L47.1235 1.70068C47.0936 1.68362 47.072 1.6831 47.0493 1.68506L46.6665 1.71631C46.4074 1.73865 46.1687 1.66133 45.9673 1.51709L45.7954 1.396L45.6235 1.271C45.5736 1.23525 45.5379 1.226 45.5142 1.22412L45.3267 1.2085L45.1353 1.19678C45.0007 1.18645 44.8662 1.17147 44.7329 1.15381L44.5454 1.13037L44.3618 1.10303H44.3579C44.3507 1.10483 44.3321 1.11289 44.3032 1.13037L44.104 1.25146L43.9087 1.37256C43.6699 1.51819 43.378 1.57372 43.0845 1.4585L42.9009 1.38428L42.7173 1.31396C42.5959 1.26599 42.4723 1.21733 42.3501 1.16943L42.1665 1.09521L41.979 1.0249C41.9252 1.00385 41.8794 0.99772 41.8345 1.00146L41.6431 1.01709Z" fill="#010820"/>
</svg>
