<svg width="82" height="82" viewBox="0 0 82 82" fill="none" xmlns="http://www.w3.org/2000/svg">
<path d="M5.69629 59.5083C5.69625 59.5083 5.70241 59.5176 5.71973 59.5278L6.09473 59.7466C6.30162 59.8689 6.46885 60.0502 6.55957 60.2896L6.62598 60.4653L6.8291 60.9731L6.90332 61.1489L6.97754 61.3208C7.00515 61.3857 7.04299 61.4435 7.09082 61.4966L7.21582 61.6411L7.34473 61.7817C7.47212 61.9235 7.56821 62.0871 7.63379 62.2661L7.7666 62.6255C7.79968 62.7157 7.83983 62.801 7.8877 62.8794L8.08301 63.1997C8.11022 63.2443 8.14899 63.2863 8.2041 63.3247L8.53223 63.5513C8.73529 63.693 8.87422 63.8921 8.94238 64.1294L8.99707 64.3208L9.05566 64.5161C9.07548 64.5844 9.10347 64.6371 9.1377 64.6802L9.25488 64.8286L9.37207 64.9731C9.47461 65.1021 9.55875 65.2448 9.62988 65.395L9.71582 65.5708L9.79004 65.7271C9.793 65.7285 9.79596 65.7328 9.80176 65.7349L10.0049 65.8091L10.2119 65.8833C10.4057 65.9527 10.5832 66.0575 10.7314 66.2036L10.8643 66.3325L10.9971 66.4653C11.1223 66.5888 11.2297 66.7279 11.3135 66.8833L11.4033 67.0513L11.4932 67.2231C11.5135 67.2608 11.5422 67.2894 11.5791 67.313L11.7393 67.4146L11.9033 67.52C12.0459 67.6112 12.1759 67.7172 12.29 67.8403L12.415 67.9771L12.5439 68.1138C12.631 68.2076 12.7168 68.3028 12.8018 68.3989L12.9268 68.5396L13.0479 68.6802C13.1841 68.8345 13.2811 69.0164 13.3408 69.2114L13.4033 69.4146L13.4658 69.6216C13.4861 69.6879 13.5113 69.7223 13.5322 69.7427L13.6689 69.8755L13.8057 70.0044C13.89 70.0853 13.975 70.1664 14.0635 70.2427L14.208 70.3638L14.3486 70.4888C14.3569 70.4959 14.3846 70.5149 14.4541 70.5239L14.6729 70.5513L14.8955 70.5786C15.1204 70.6078 15.3388 70.6916 15.5205 70.8481L15.665 70.9692L15.8057 71.0942C15.9831 71.2482 16.0984 71.4474 16.165 71.6606L16.2314 71.8755L16.2744 72.0239L16.3994 72.0513L16.6025 72.0903C16.8001 72.1299 16.9762 72.2227 17.1143 72.3638L17.2393 72.5239L17.458 72.8599C17.4862 72.9038 17.5135 72.9295 17.5439 72.9458L17.8799 73.1255C17.9474 73.1611 18.0252 73.189 18.1143 73.2075L18.3135 73.2466L18.5127 73.2896C18.7294 73.3344 18.927 73.4314 19.0908 73.5864L19.2275 73.7153L19.3682 73.8481C19.4898 73.9634 19.5974 74.0951 19.6924 74.2388L19.8057 74.4106L19.8682 74.5044L20.0361 74.4927L20.2666 74.4771C20.5132 74.4567 20.7702 74.5031 20.9893 74.6685L21.1377 74.7817L21.29 74.895C21.4263 74.998 21.549 75.1216 21.6572 75.2583L21.7822 75.4185L21.8955 75.563L22.0869 75.5747L22.29 75.5903C22.4737 75.6032 22.6526 75.6429 22.8213 75.7114L22.9932 75.7817L23.1689 75.8521C23.315 75.9115 23.4552 75.9835 23.5869 76.0708L23.8994 76.2817C23.9598 76.3217 24.0244 76.3519 24.0947 76.3716L24.2783 76.4224L24.4619 76.4692C24.6049 76.509 24.7447 76.559 24.8799 76.6177L25.0518 76.6919L25.2197 76.7661C25.3881 76.8391 25.5409 76.9421 25.6768 77.0669L25.8252 77.2036L25.9697 77.3364C26.0031 77.3671 26.0335 77.3809 26.0635 77.3872L26.251 77.4263L26.4385 77.4614C26.5745 77.4889 26.7087 77.5216 26.8408 77.5591L27.0244 77.6099L27.2041 77.6646C27.3977 77.7199 27.5715 77.8159 27.7236 77.9458L27.876 78.0747L28.0283 78.2075H28.0322L28.2354 78.1958L28.4346 78.188C28.6013 78.1792 28.7658 78.1857 28.9268 78.2114L29.1104 78.2427L29.2979 78.27C29.4526 78.2948 29.604 78.3339 29.751 78.3872L29.9268 78.4497L30.1025 78.5161C30.2601 78.5733 30.4104 78.6515 30.5518 78.7466L30.8799 78.9653C30.9798 79.0326 31.0818 79.0979 31.1846 79.1567L31.3525 79.2544L31.4814 79.3286L31.6846 79.2505L31.8955 79.1685L32.1221 79.1099C32.2032 79.1003 32.2885 79.1 32.376 79.1177C32.4635 79.1354 32.5431 79.167 32.6143 79.2075L32.8018 79.3521L32.9619 79.5083L33.1182 79.6685C33.1402 79.6903 33.1552 79.7006 33.1611 79.7036H33.1689L33.5439 79.7427C33.6635 79.7555 33.7831 79.7691 33.9033 79.7778L34.0908 79.7896L34.2822 79.8052C34.3677 79.8113 34.4562 79.8084 34.5479 79.7935L34.7393 79.7583L34.9346 79.7271C35.1662 79.6893 35.3959 79.723 35.6064 79.8247L35.7822 79.9146L35.9619 80.0005C36.0413 80.0388 36.1194 80.0645 36.1963 80.0786L36.3838 80.1099L36.5713 80.145C36.6158 80.1529 36.6644 80.1499 36.7236 80.1333L36.9189 80.0825L37.1104 80.0278C37.3323 79.9655 37.5612 79.9654 37.7822 80.0396L37.9658 80.1021L38.1377 80.1606L38.1455 80.1567L38.3408 80.063L38.5322 79.9692L38.7393 79.895C38.882 79.8627 39.0277 79.8663 39.1689 79.9067L39.376 79.9927L39.7432 80.2036C39.8135 80.2434 39.8748 80.2599 39.9268 80.2661L40.3018 80.313C40.4249 80.3277 40.5489 80.3429 40.6729 80.356L40.8643 80.3755L41.0518 80.395C41.1613 80.4066 41.2711 80.4139 41.3799 80.4146H41.7588C41.8163 80.4149 41.8767 80.4054 41.9424 80.3794L42.1299 80.3052L42.3135 80.231C42.4539 80.1748 42.5965 80.1251 42.7393 80.0864L42.9229 80.0396L43.1104 79.9888C43.2623 79.9476 43.416 79.9192 43.5713 79.9067L43.7588 79.8911L43.9424 79.8755C44.1229 79.8611 44.3043 79.8791 44.4814 79.9224L44.6729 79.9692L44.8564 80.0122L45.0322 79.9067L45.208 79.7974C45.3904 79.6855 45.595 79.6188 45.8135 79.6099L46.001 79.6021L46.1846 79.5942C46.2669 79.5909 46.3504 79.5755 46.4307 79.5513L46.79 79.4419C46.9502 79.3935 47.1151 79.3669 47.2822 79.3599L47.4697 79.3521L47.6611 79.3442C47.7983 79.3386 47.9363 79.3399 48.0752 79.3442L48.2666 79.3481L48.458 79.356C48.6043 79.3606 48.754 79.3703 48.9033 79.3911L49.1025 79.4224L49.3018 79.4497C49.3397 79.4547 49.3645 79.4491 49.3877 79.438L49.5596 79.3521L49.7354 79.27C49.8758 79.2025 50.021 79.1486 50.1689 79.106L50.3486 79.0513L50.5283 79.0005C50.5867 78.9837 50.6491 78.9536 50.7119 78.9067L51.0322 78.6646C51.2548 78.4983 51.5191 78.4418 51.7861 78.4888L51.9932 78.5278L52.2002 78.563C52.2667 78.5746 52.3134 78.5701 52.3486 78.5591L52.5283 78.5005L52.708 78.4458C52.7242 78.4407 52.7546 78.4263 52.7979 78.3755L52.9385 78.2114L53.083 78.0435L53.251 77.8872C53.3143 77.8427 53.3869 77.808 53.4658 77.7817C53.6243 77.7291 53.7825 77.7267 53.9268 77.7583L54.1416 77.8091L54.2744 77.8364L54.3564 77.7388L54.4971 77.5747L54.6533 77.4185C54.8263 77.2876 55.0394 77.2262 55.2705 77.2466L55.4814 77.2661L55.626 77.2778L55.7236 77.1567L55.8564 76.9888C55.9949 76.8124 56.1748 76.6709 56.3955 76.5942L56.5752 76.5317L56.751 76.4731C56.8861 76.4264 57.0239 76.3845 57.165 76.3521L57.3525 76.3091L57.5361 76.2661C57.6436 76.2414 57.7495 76.2112 57.8525 76.1763L58.0322 76.1177L58.2119 76.0552C58.3213 76.018 58.4297 75.9778 58.5361 75.9341L58.7119 75.8638L58.8838 75.7896C58.934 75.7689 58.9828 75.7384 59.0283 75.6919L59.3018 75.4106C59.4611 75.2472 59.6608 75.1357 59.8838 75.0864L60.0752 75.0435L60.2666 75.0044C60.2679 75.0031 60.2704 74.9983 60.2744 74.9927L60.3955 74.8247L60.5127 74.6567L60.6689 74.4849C60.8416 74.3412 61.058 74.2776 61.2822 74.2856L61.5088 74.2935H61.6143L61.6611 74.1958L61.751 73.9888L61.8643 73.7896C61.9994 73.6098 62.1978 73.488 62.4463 73.4575L62.6533 73.4302L62.8604 73.4067C62.955 73.3951 63.0375 73.3706 63.1064 73.3403L63.2822 73.2622L63.458 73.188V73.1841C63.4591 73.183 63.468 73.1763 63.4775 73.1567L63.665 72.7739C63.7753 72.5477 63.9513 72.3623 64.1963 72.2622L64.376 72.1919L64.5557 72.1177C64.6128 72.0944 64.6615 72.0638 64.7002 72.0239L64.8291 71.8872L64.9619 71.7505C65.0958 71.6127 65.255 71.5039 65.4307 71.4263L65.6064 71.3481L65.7861 71.27C65.8442 71.2442 65.892 71.2099 65.9307 71.1685L66.0596 71.0317L66.1885 70.8911C66.2941 70.7781 66.409 70.6754 66.5322 70.5825L66.6846 70.4692L66.833 70.356C66.8406 70.3502 66.8585 70.3339 66.876 70.2817L66.9463 70.0747L67.0127 69.8716C67.0856 69.6497 67.2151 69.4488 67.415 69.3052L67.7197 69.0864C67.8098 69.0217 67.8976 68.9548 67.9814 68.8833L68.126 68.7622L68.2666 68.6372C68.3655 68.5529 68.4692 68.4728 68.5713 68.3911L68.7158 68.2739L68.8643 68.1528C68.9613 68.0752 69.0602 67.9969 69.1572 67.9185L69.3018 67.8013L69.4502 67.6802C69.4739 67.6608 69.4949 67.634 69.5127 67.5864L69.583 67.3989L69.6572 67.2075C69.7264 67.0234 69.8286 66.8575 69.9658 66.7153L70.0947 66.5786L70.2236 66.4458C70.3578 66.3068 70.5165 66.1981 70.6924 66.1177L70.8838 66.0317L71.0713 65.9458L71.083 65.938L71.2393 65.5786C71.2951 65.4489 71.3553 65.3228 71.4189 65.1997L71.5049 65.0317L71.5947 64.8599C71.6689 64.7167 71.7582 64.581 71.8604 64.4575L71.9775 64.3169L72.0947 64.1724C72.1943 64.052 72.3091 63.9418 72.4307 63.8403L72.5752 63.7153L72.7236 63.5903C72.8113 63.5172 72.8976 63.4431 72.9775 63.3638L73.1104 63.2271L73.2471 63.0942C73.2495 63.0918 73.2579 63.0828 73.2627 63.0435L73.29 62.8364L73.3135 62.6294C73.3444 62.3743 73.4599 62.1408 73.665 61.9692L73.8174 61.8442L73.9658 61.7192C74.0006 61.6902 74.023 61.6607 74.0361 61.6255L74.1689 61.2661C74.2206 61.1267 74.2801 60.9897 74.3486 60.8599L74.5205 60.5317C74.6136 60.3554 74.7439 60.2054 74.8994 60.0825L75.2197 59.8325C75.2772 59.7872 75.3142 59.7391 75.3408 59.6919L75.4346 59.5278L75.5244 59.3638C75.5465 59.3241 75.5627 59.2723 75.5674 59.2036L75.583 59.0005L75.5947 58.7974C75.6072 58.6138 75.6476 58.4349 75.7158 58.2661L75.7861 58.0903L75.8564 57.9185C75.9067 57.7944 75.9598 57.6718 76.0166 57.5513L76.0947 57.3833L76.1768 57.2153C76.2661 57.0259 76.3987 56.8678 76.5596 56.7388L76.7236 56.606L76.8721 56.481L76.8838 56.3091L76.8916 56.1099C76.9017 55.8982 76.96 55.6954 77.0713 55.5122L77.1689 55.3521L77.2705 55.188C77.3285 55.0925 77.3811 54.9944 77.4307 54.895L77.5166 54.7271L77.5986 54.5591C77.6512 54.4538 77.7034 54.346 77.751 54.2388L77.8252 54.0669L77.9033 53.8911C77.9536 53.7778 78.0056 53.6651 78.0557 53.5513L78.1299 53.3755L78.208 53.2036C78.2182 53.1801 78.223 53.1453 78.2158 53.0903L78.1924 52.8872L78.165 52.6802C78.1382 52.4741 78.1534 52.2661 78.2236 52.0669L78.3486 51.7153C78.4164 51.5239 78.5265 51.354 78.665 51.2075L78.8096 51.0552L78.9541 50.8989C78.9662 50.8861 78.9698 50.8793 78.9697 50.8794V50.8833L78.9736 50.6919L78.9775 50.4966C78.9795 50.4083 78.9743 50.3146 78.9541 50.2153L78.8682 49.8091C78.8083 49.5125 78.896 49.2341 79.0908 49.0161L79.2314 48.856L79.3525 48.7153L79.3252 48.5669L79.2861 48.3677C79.2377 48.1174 79.2811 47.8699 79.4111 47.6489L79.5127 47.4731L79.6143 47.3013C79.6653 47.2145 79.7045 47.127 79.7354 47.0396L79.8018 46.856L79.8643 46.6763C79.8862 46.6136 79.8937 46.5499 79.8916 46.4849L79.8877 46.2974L79.8799 46.106L79.8564 45.5435L79.8486 45.3521C79.8418 45.2114 79.8399 45.0694 79.8447 44.9302L79.8525 44.7427L79.8564 44.5552C79.8612 44.4184 79.8731 44.2808 79.8877 44.145L79.9072 43.9614L79.9268 43.7739C79.941 43.6415 79.9602 43.508 79.9814 43.3755L80.0088 43.1919L80.04 43.0044C80.064 42.8547 80.0986 42.7057 80.1455 42.5591L80.2041 42.3716L80.2666 42.188C80.2947 42.1002 80.3105 42.0122 80.3174 41.9263L80.3486 41.5513C80.3528 41.4989 80.3438 41.4405 80.3213 41.3755L80.2588 41.188L80.1924 40.9966C80.1686 40.9277 80.1437 40.8559 80.1299 40.7896C80.1234 40.7582 80.1145 40.7044 80.1143 40.645C80.1142 40.6152 80.1163 40.5676 80.1299 40.5122V40.5044L80.0752 40.356L80.0088 40.1685C79.9297 39.9556 79.9104 39.732 79.9619 39.5083L80.0049 39.3208L80.0479 39.1294C80.0524 39.1087 80.0517 39.0911 80.04 39.063L79.8916 38.6958C79.8034 38.4827 79.7774 38.2552 79.8252 38.0278L79.8682 37.8403L79.9072 37.6489C79.9256 37.5612 79.934 37.4767 79.9307 37.395L79.915 37.02C79.9094 36.8827 79.9061 36.7447 79.9111 36.606L79.9189 36.4146L79.9268 36.2271C79.9294 36.1547 79.9201 36.0824 79.8994 36.0122L79.8447 35.8286L79.7939 35.6489C79.7492 35.4968 79.7183 35.341 79.7041 35.1841L79.6885 34.9966L79.6689 34.8091C79.6627 34.7406 79.6451 34.6723 79.6143 34.6021L79.5361 34.4263L79.458 34.2466C79.3571 34.0158 79.3467 33.7708 79.4111 33.5356L79.4658 33.3364L79.5244 33.1372C79.5346 33.1 79.5278 33.0835 79.5244 33.0747L79.4541 32.895L79.3838 32.7192C79.3363 32.5989 79.2888 32.4763 79.2432 32.356L79.1768 32.1802L79.1104 32.0005C79.0401 31.8145 79.0127 31.6203 79.0244 31.4224L79.0479 31.0317C79.0526 30.9515 79.0423 30.8779 79.0244 30.8091L78.9775 30.6255L78.9307 30.4458C78.9038 30.3423 78.8714 30.2376 78.833 30.1372L78.7666 29.9614L78.6963 29.7856C78.6523 29.6707 78.609 29.5557 78.5635 29.4419L78.4229 29.0903C78.3958 29.0231 78.3561 28.955 78.3018 28.8872L78.0518 28.5747C77.9366 28.4312 77.8631 28.2674 77.833 28.0903L77.8174 27.9067V27.5122L77.79 27.4146L77.6924 27.2505L77.5908 27.0864C77.4879 26.9173 77.424 26.7319 77.3994 26.5356L77.376 26.3403L77.3525 26.1489C77.3395 26.0443 77.3204 25.9426 77.2939 25.8442L77.2432 25.6606L77.1963 25.481C77.1653 25.3656 77.1304 25.2475 77.0947 25.1333L77.04 24.9536L76.9814 24.7739C76.977 24.7596 76.9675 24.7361 76.9268 24.7036L76.7627 24.5708L76.5947 24.4419C76.4495 24.3263 76.3247 24.1917 76.2236 24.0396L76.1182 23.8794L76.0127 23.7231C75.9261 23.5923 75.8535 23.4539 75.7939 23.3091L75.7236 23.1372L75.6533 22.9614C75.6066 22.8476 75.5563 22.7352 75.5088 22.6216L75.4385 22.4458L75.3643 22.2739C75.3132 22.152 75.2654 22.0281 75.2197 21.9028L75.1533 21.7231L75.0908 21.5474C75.0455 21.4229 75.0026 21.2962 74.9619 21.1685L74.6104 20.0669V20.063L74.6064 20.0591C74.6033 20.0564 74.5954 20.0526 74.5869 20.0474L74.2275 19.8286C74.0802 19.7387 73.9456 19.6356 73.8252 19.52L73.6885 19.3872L73.5479 19.2544C73.3771 19.0904 73.272 18.884 73.2275 18.6567L73.1494 18.2583C73.1375 18.1972 73.1152 18.1568 73.0908 18.1255L72.9736 17.9771L72.8604 17.8286C72.7683 17.7114 72.6851 17.5869 72.6104 17.4575L72.5166 17.2935L72.4189 17.1333C72.4033 17.1063 72.3799 17.0784 72.333 17.0513L71.9814 16.8481C71.7133 16.6935 71.5647 16.437 71.5322 16.1489L71.5088 15.9302L71.4893 15.7544L71.3643 15.6919L71.1807 15.5981C71.0142 15.5127 70.8633 15.4048 70.7354 15.27L70.4775 14.9966C70.3957 14.9104 70.3119 14.8263 70.2275 14.7427L69.9619 14.4771C69.8637 14.3797 69.7667 14.2772 69.6768 14.1724L69.4346 13.8911C69.3084 13.744 69.2165 13.5745 69.1533 13.3911L69.0205 13.0005C68.9993 12.9388 68.9699 12.9017 68.9424 12.8755L68.8057 12.7466L68.6689 12.6138C68.6088 12.5567 68.5394 12.5054 68.4619 12.4614L68.2939 12.3677L68.126 12.27C68.0285 12.2147 67.9266 12.1643 67.8213 12.1177L67.6377 12.0356L67.458 11.9575C67.1964 11.8418 67.0238 11.6284 66.9385 11.3716L66.8682 11.1685L66.8096 10.9888L66.6572 10.9341L66.4697 10.8638C66.2267 10.7736 66.0377 10.6039 65.9189 10.3755L65.7314 10.0161C65.7166 9.98763 65.7047 9.97896 65.6924 9.97314L65.5205 9.89111L65.3447 9.80908C65.144 9.71428 64.9787 9.57058 64.8564 9.38721L64.7471 9.21924L64.6377 9.05518C64.6246 9.03556 64.6113 9.02714 64.5908 9.02002L64.4072 8.95752L64.2197 8.89111C64.1072 8.85198 63.9925 8.81744 63.876 8.78564L63.6807 8.73096L63.4893 8.68018C63.2727 8.62105 63.0828 8.50525 62.9307 8.33643L62.8018 8.1958L62.6729 8.05127C62.6094 7.98072 62.5422 7.91732 62.4697 7.86377L62.3174 7.75439L62.165 7.64111C62.0953 7.58986 62.0196 7.5478 61.9385 7.51221L61.7666 7.43408L61.5908 7.35986C61.3505 7.25401 61.1833 7.06624 61.0752 6.84814L60.9736 6.64893L60.9072 6.52002L60.7822 6.51611L60.5713 6.51221C60.3076 6.50495 60.0575 6.40664 59.8682 6.20361L59.6025 5.91455C59.5977 5.9094 59.5924 5.90773 59.5908 5.90674C59.5904 5.9065 59.5847 5.90059 59.5713 5.89893L59.1729 5.85205C58.8959 5.81766 58.6684 5.67247 58.5088 5.45361L58.3838 5.28564L58.2861 5.14893H57.9111C57.7346 5.14821 57.5619 5.1263 57.3955 5.08252L57.0283 4.98877C56.8294 4.93632 56.6509 4.83849 56.4971 4.70361L56.3486 4.5708L56.2041 4.44189C56.1842 4.42442 56.1666 4.41713 56.1416 4.41455L55.751 4.37549C55.4929 4.34916 55.2694 4.23189 55.0986 4.04736L54.8174 3.74268C54.7783 3.70085 54.7464 3.68442 54.7197 3.67627L54.3604 3.56689C54.3023 3.54925 54.233 3.5382 54.1533 3.54346L53.9502 3.55908L53.751 3.5708C53.5496 3.5841 53.3471 3.5586 53.1572 3.48486L52.9854 3.41846L52.8096 3.34814C52.619 3.27382 52.4511 3.15726 52.3096 3.01221L52.1611 2.85986L52.0518 2.74658L51.9033 2.77783L51.6963 2.81689C51.4445 2.86407 51.1906 2.82266 50.9658 2.68018L50.7979 2.57471L50.6338 2.46924C50.5602 2.42244 50.4852 2.39006 50.4111 2.36768L50.0518 2.2583C49.9658 2.23242 49.8774 2.21544 49.7861 2.20752L49.5986 2.19189L49.4111 2.17236C49.2858 2.16148 49.1572 2.15166 49.0322 2.14111L48.6572 2.10986C48.4116 2.08896 48.197 1.98562 48.0205 1.83252L47.8564 1.68799L47.7236 1.57471L47.5791 1.60986L47.3799 1.66064C47.1748 1.71091 46.9629 1.71366 46.7549 1.66064L46.3877 1.56689C46.3198 1.5497 46.2501 1.54195 46.1768 1.54736L45.7939 1.57861C45.6426 1.58972 45.4906 1.58661 45.3408 1.57471L45.1533 1.56299L44.9697 1.54736C44.8609 1.53872 44.7507 1.53446 44.6416 1.53564L44.4541 1.53955H44.2666C44.03 1.54223 43.8121 1.46762 43.6221 1.34424L43.4424 1.22705L43.2627 1.11377C43.2542 1.10827 43.2499 1.10323 43.2471 1.10205L43.0635 1.13721L42.8721 1.17236C42.6862 1.20533 42.4987 1.20479 42.3135 1.16846L42.126 1.12939L41.9385 1.09424C41.8885 1.08455 41.8384 1.08461 41.7822 1.09814L41.5908 1.14502L41.4033 1.18799C41.2482 1.2258 41.092 1.25028 40.9346 1.2583L40.7471 1.27002L40.5596 1.27783C40.3612 1.28789 40.1667 1.2534 39.9814 1.18408L39.79 1.11377L39.6025 1.04346C39.5315 1.01693 39.4685 1.0072 39.4111 1.0083L39.0361 1.01611C38.9014 1.01877 38.7653 1.01716 38.6299 1.01221L38.4424 1.00439L38.251 1.00049C38.2408 1.00019 38.2174 0.998898 38.1729 1.02783L37.8135 1.26221C37.6032 1.3989 37.3574 1.46334 37.0947 1.42236L36.9033 1.39502L36.7119 1.36377C36.6913 1.36079 36.6712 1.36486 36.6416 1.37939L36.4619 1.46533L36.2861 1.55127C36.0789 1.65296 35.8526 1.69068 35.6221 1.65674L35.4268 1.62939L35.2354 1.60205C35.0879 1.5801 34.9388 1.54827 34.79 1.5083L34.5947 1.45361L34.3955 1.40283C34.3911 1.40167 34.3889 1.39907 34.3877 1.39893L34.2158 1.49658L34.04 1.59033C33.8695 1.68273 33.6864 1.74156 33.4932 1.76221L33.1182 1.80127C32.9849 1.81549 32.851 1.82964 32.7158 1.83643L32.333 1.85205C32.3246 1.85253 32.3073 1.85621 32.2744 1.8833L32.1143 2.01611L31.9502 2.15283C31.7609 2.30853 31.5304 2.40043 31.2744 2.39893L31.083 2.39502H30.8916C30.7676 2.39429 30.6414 2.39647 30.5166 2.39893L30.3213 2.40283L30.1299 2.40674C30.0246 2.40881 29.9216 2.41752 29.8213 2.43408L29.4463 2.49658C29.35 2.51251 29.2561 2.53503 29.165 2.56689L28.9854 2.62939L28.8096 2.69189C28.7581 2.70991 28.703 2.74206 28.6455 2.79346L28.3408 3.06689C28.1513 3.23625 27.9161 3.33148 27.6572 3.33252H27.2783L27.1377 3.48096L26.9932 3.6333C26.8206 3.8166 26.5975 3.93422 26.3369 3.95752L26.1416 3.97705L25.9463 3.99268C25.8533 4.00107 25.7667 4.02096 25.6846 4.04736L25.5049 4.10205L25.3252 4.16064C25.2169 4.19546 25.1107 4.23597 25.0049 4.27783L24.8291 4.34424L24.6533 4.41455C24.5098 4.47135 24.3608 4.5152 24.208 4.54736L24.0205 4.58643L23.8604 4.61768L23.8643 4.62158L23.6377 5.02002C23.5038 5.25884 23.2878 5.45142 22.9854 5.50439L22.7939 5.53564L22.5986 5.5708C22.5281 5.58336 22.4682 5.60607 22.415 5.63721L22.251 5.73096L22.0908 5.82861C21.9235 5.92682 21.7396 5.98851 21.5479 6.01611L21.3486 6.04346L21.2119 6.05908L21.126 6.23096L21.0244 6.43018C20.8815 6.71141 20.6213 6.89681 20.29 6.91455L19.8682 6.93799C19.8095 6.9412 19.7779 6.95282 19.7588 6.96533L19.6025 7.07471L18.8213 7.60205C18.7756 7.63312 18.7335 7.67759 18.6924 7.73877L18.4658 8.07471C18.2907 8.33696 18.0208 8.46317 17.7314 8.47314L17.5049 8.48096L17.2822 8.48877C17.2135 8.4911 17.1904 8.50791 17.1846 8.51221L17.0322 8.62158L16.8799 8.73486C16.8483 8.75815 16.8132 8.79481 16.7822 8.85596L16.6885 9.03955L16.5947 9.22705C16.4846 9.44376 16.3125 9.61567 16.083 9.71924L15.9072 9.80127L15.7314 9.87939C15.6158 9.93158 15.4996 9.98556 15.3838 10.0396L15.208 10.1216L15.0596 10.188L14.9424 10.6177C14.8772 10.848 14.7498 11.0636 14.54 11.2153L14.2354 11.4341C14.0737 11.5509 13.8902 11.6299 13.6963 11.6763L13.4854 11.7271L13.3252 11.7622L13.2783 11.9028L13.208 12.1021C13.1286 12.3197 12.9911 12.5082 12.7939 12.645L12.6338 12.7544L12.4775 12.8638C12.4678 12.8706 12.4551 12.882 12.4424 12.9185L12.376 13.1138L12.3057 13.3091C12.2239 13.5433 12.0727 13.7386 11.8525 13.8677L11.6846 13.9653L11.5166 14.0669C11.4543 14.1033 11.4034 14.1436 11.3643 14.1919L11.2471 14.3364L11.1299 14.4849C11.0417 14.5937 10.9465 14.697 10.8486 14.7974L10.7197 14.9341L10.5869 15.0669C10.4552 15.2018 10.3009 15.309 10.1299 15.3911L9.75488 15.5708C9.71007 15.5924 9.69231 15.6147 9.68066 15.6333L9.5791 15.7935L9.48145 15.9575C9.45495 16.0005 9.43138 16.0586 9.41895 16.1411L9.38379 16.356L9.35254 16.5669C9.32217 16.7712 9.25496 16.9675 9.1377 17.1411L9.03223 17.2935L8.93066 17.4497C8.80797 17.6314 8.64041 17.7667 8.4502 17.8638L8.25879 17.9614L8.07129 18.0591C8.0534 18.0684 8.04512 18.0735 8.04395 18.0747V18.0786L7.96582 18.2544L7.8916 18.4302C7.81604 18.6079 7.70893 18.7674 7.57129 18.9028L7.43457 19.0396L7.29785 19.1724C7.29781 19.1725 7.29493 19.1761 7.29395 19.1802C7.29305 19.1844 7.2946 19.191 7.29395 19.1997L7.27832 19.4106L7.25879 19.6216C7.23669 19.9178 7.09058 20.1719 6.83691 20.3325L6.66113 20.4419L6.48535 20.5552C6.407 20.6048 6.34392 20.6567 6.29785 20.7114L6.17676 20.8599L6.05176 21.0044C5.98764 21.0806 5.93312 21.1626 5.88379 21.2466L5.78613 21.4106L5.69238 21.5708C5.67292 21.6039 5.65679 21.6496 5.65332 21.7153L5.62988 22.1294C5.61714 22.3685 5.53653 22.5943 5.37598 22.7817L5.24707 22.9263L5.12207 23.0747C5.06926 23.1363 5.02736 23.2014 4.99707 23.27L4.84863 23.6138C4.79672 23.7314 4.7426 23.8489 4.68848 23.9653L4.60645 24.1372L4.52832 24.3052C4.478 24.4134 4.43074 24.5234 4.38379 24.6333L4.30957 24.8091L4.23535 24.981C4.17687 25.1179 4.10963 25.2512 4.03223 25.3794L3.93457 25.5396L3.83301 25.7036C3.83119 25.7064 3.8241 25.7195 3.8291 25.7622L3.85254 25.9731L3.87988 26.1841C3.90748 26.4201 3.8669 26.6575 3.73926 26.8716L3.54395 27.1997C3.46796 27.3267 3.38313 27.4512 3.29004 27.5708L3.04785 27.8833C3.02322 27.915 3.01187 27.9419 3.00879 27.9731L2.96973 28.356C2.94874 28.5676 2.87705 28.7661 2.75879 28.9419L2.64941 29.1021L2.55566 29.2388L2.61035 29.4458L2.66504 29.6567C2.71765 29.8557 2.73662 30.0611 2.7002 30.2661L2.66504 30.4536L2.63379 30.6372C2.58886 30.8875 2.45618 31.0943 2.28223 31.2544L2.11426 31.4028L2.00879 31.4966L2.04395 31.6177L2.10254 31.8208C2.18819 32.1249 2.1145 32.4238 1.90723 32.6567L1.7627 32.8208L1.66113 32.9302L1.7041 33.0708L1.7627 33.2739C1.84287 33.539 1.81451 33.8126 1.66504 34.0552L1.4541 34.3989C1.40593 34.4771 1.3733 34.5553 1.35254 34.6294L1.30176 34.813L1.24707 34.9927L1.25098 34.9849V34.9888C1.25299 34.9949 1.26008 35.0034 1.2666 35.0161L1.36816 35.2192L1.47363 35.4224C1.57506 35.6207 1.6349 35.8417 1.61816 36.0747L1.60254 36.2622L1.59082 36.4458C1.58139 36.5771 1.56666 36.7102 1.55176 36.8403L1.5127 37.2075C1.48765 37.4262 1.40065 37.6259 1.27832 37.8013L1.15332 37.981L1.02832 38.1567C0.998831 38.199 1.00081 38.2178 1.00098 38.2192L1.00879 38.4067L1.0166 38.5981C1.01938 38.662 1.03585 38.7318 1.06738 38.8091L1.14551 38.9966L1.21973 39.188C1.31349 39.4179 1.32883 39.665 1.25098 39.9067L1.19238 40.0942L1.12988 40.2778C1.11415 40.3267 1.11448 40.3713 1.12207 40.4146L1.15332 40.6021L1.18848 40.7896C1.21143 40.9202 1.23268 41.0504 1.25098 41.1802L1.27441 41.3677L1.30176 41.5552C1.32715 41.7362 1.32233 41.9187 1.28613 42.0981L1.20801 42.4731C1.18454 42.5895 1.16661 42.7071 1.14941 42.8247L1.12207 43.0161L1.09473 43.2036C1.09396 43.2088 1.08873 43.2198 1.10645 43.2505L1.31738 43.6099C1.45871 43.8532 1.48821 44.1301 1.39551 44.3989L1.3291 44.5903L1.25879 44.7856C1.24303 44.8315 1.24557 44.8612 1.25098 44.8833L1.29785 45.0669L1.34082 45.2505C1.36885 45.3652 1.40088 45.4813 1.43457 45.5942L1.54395 45.9536C1.60999 46.1751 1.60301 46.4021 1.54004 46.6177L1.42285 47.0161C1.40462 47.0782 1.40379 47.1243 1.41113 47.1606L1.4502 47.3442L1.48535 47.5317C1.50959 47.6517 1.53703 47.7721 1.56348 47.8911L1.60254 48.0747L1.64551 48.2583C1.65617 48.3055 1.67957 48.359 1.72363 48.4185L1.84473 48.5825L1.96973 48.7505C2.10052 48.9273 2.18369 49.1313 2.2041 49.356L2.21973 49.5435L2.23926 49.731C2.24698 49.8164 2.26257 49.9012 2.29004 49.981L2.41504 50.3325C2.46598 50.4805 2.50234 50.6341 2.52441 50.7896L2.54785 50.9771L2.5752 51.1646C2.59463 51.302 2.60915 51.4422 2.61816 51.5825L2.6416 51.9653C2.64282 51.9843 2.64994 52.0035 2.67285 52.0317L2.79785 52.188L2.92676 52.3442C3.05801 52.5061 3.14977 52.6923 3.19238 52.8989L3.23145 53.0864L3.2666 53.27C3.30252 53.4453 3.31091 53.6242 3.29395 53.8052L3.27441 54.0122L3.25488 54.1802L3.3877 54.3052L3.53613 54.4497C3.66526 54.5736 3.77834 54.7099 3.86816 54.8599L3.96582 55.0239L4.06348 55.1841C4.14112 55.3138 4.20609 55.4514 4.2627 55.5903L4.40332 55.9341C4.45448 56.0597 4.50136 56.1874 4.54395 56.3169L4.60254 56.4966L4.66113 56.6724C4.69234 56.7673 4.72968 56.8613 4.77441 56.9497L4.86035 57.1177L4.94629 57.2817C4.99213 57.3723 5.04379 57.4625 5.10254 57.5474L5.20801 57.6997L5.31738 57.856C5.44582 58.0418 5.51265 58.2528 5.52441 58.4731L5.53223 58.6763L5.54395 58.8833C5.54927 58.9817 5.56634 59.0717 5.59082 59.1528L5.69629 59.5083ZM78.8174 27.9302L79.083 28.2622C79.1952 28.4021 79.2865 28.5545 79.3525 28.7192L79.4932 29.0708C79.5404 29.1889 79.5881 29.307 79.6338 29.4263L79.7002 29.606L79.7666 29.7817C79.8181 29.9163 79.8632 30.0527 79.8994 30.1919L79.9463 30.3755L79.9932 30.5552C80.0385 30.7294 80.0547 30.9098 80.0439 31.0903L80.0205 31.481C80.0168 31.5433 80.025 31.5989 80.0439 31.6489L80.1143 31.8247L80.3135 32.3521L80.3838 32.5278L80.4541 32.7075C80.5437 32.9352 80.5477 33.1712 80.4854 33.3989L80.4307 33.6021L80.376 33.8013C80.3681 33.8305 80.3735 33.8389 80.376 33.8442L80.4541 34.0239L80.5322 34.1997C80.6049 34.3654 80.6488 34.5396 80.665 34.7192L80.6846 34.9067L80.7002 35.0942C80.7085 35.185 80.7244 35.2773 80.751 35.3677L80.8057 35.5474L80.8604 35.731C80.9112 35.904 80.9333 36.082 80.9268 36.2622L80.9189 36.4536L80.9111 36.6411C80.907 36.7548 80.9066 36.8694 80.9111 36.981L80.9189 37.1685L80.9268 37.3521C80.9336 37.5197 80.9186 37.6902 80.8838 37.856L80.8447 38.0435L80.8057 38.2349C80.8003 38.2606 80.8011 38.2825 80.8135 38.313L80.8916 38.4966L80.9658 38.6802C81.055 38.8957 81.0773 39.1263 81.0244 39.356L80.9385 39.731C80.9323 39.7576 80.9292 39.7851 80.9424 39.8208L81.083 40.1958C81.1085 40.2641 81.134 40.3362 81.1494 40.4028C81.1566 40.4341 81.1677 40.4869 81.1689 40.5474C81.1696 40.5779 81.1672 40.6296 81.1533 40.688C81.1523 40.6921 81.1467 40.6952 81.1455 40.6997L81.2041 40.8599L81.2666 41.0513C81.3311 41.238 81.3604 41.4317 81.3447 41.6294L81.3291 41.8208L81.3135 42.0083C81.3002 42.1727 81.2666 42.3341 81.2158 42.4927L81.1572 42.6802L81.0986 42.8638C81.0667 42.9635 81.0441 43.0625 81.0283 43.1606L80.9658 43.5356C80.9474 43.6505 80.9313 43.765 80.9189 43.8794L80.8799 44.2544C80.8679 44.3658 80.8604 44.4778 80.8564 44.5903L80.8486 44.7778L80.8447 44.9653C80.8409 45.0759 80.8393 45.1884 80.8447 45.3013L80.8564 45.4927L80.8643 45.6841C80.8706 45.8136 80.8757 45.945 80.8799 46.0747L80.8877 46.2622L80.8916 46.4536C80.8976 46.6427 80.8683 46.8298 80.8057 47.0083L80.6807 47.3677C80.6272 47.52 80.5569 47.6677 80.4736 47.8091L80.3721 47.981L80.2705 48.1567L80.2666 48.1646C80.2666 48.1661 80.2655 48.1704 80.2666 48.1763L80.3447 48.5747C80.4017 48.871 80.3133 49.1456 80.1221 49.3599L79.9775 49.52L79.8564 49.6528L79.8916 49.813L79.9307 50.0161C79.9649 50.1842 79.9814 50.3522 79.9775 50.52L79.9736 50.7153L79.9697 50.9067C79.9635 51.1719 79.8539 51.4033 79.6807 51.5864L79.5361 51.7427L79.3916 51.895C79.3362 51.9536 79.3052 52.0048 79.29 52.0474L79.165 52.3989C79.1526 52.4342 79.1483 52.4833 79.1572 52.5513L79.1807 52.7583L79.208 52.9614C79.2365 53.1796 79.2128 53.3993 79.1221 53.606L79.0479 53.7778L78.9697 53.9536C78.9192 54.0685 78.8681 54.183 78.8174 54.2974L78.7393 54.4692L78.665 54.6411C78.6111 54.7627 78.5527 54.8852 78.4932 55.0044L78.4111 55.1724L78.3252 55.3403C78.2629 55.4653 78.1948 55.5878 78.1221 55.7075L78.0244 55.8716L77.9268 56.0317C77.9071 56.0641 77.8943 56.1025 77.8916 56.1567L77.8799 56.356L77.8721 56.5552C77.8585 56.8394 77.727 57.0822 77.5127 57.2544L77.3486 57.3872L77.1846 57.5161C77.1268 57.5624 77.0956 57.6061 77.0791 57.6411L76.9229 57.9771C76.8739 58.0808 76.8255 58.1864 76.7822 58.2935L76.7119 58.4653L76.6416 58.6411C76.6166 58.7032 76.6007 58.7764 76.5947 58.8638L76.5791 59.0669L76.5674 59.27C76.5536 59.4726 76.499 59.6692 76.3994 59.8481L76.3057 60.0122L76.2158 60.1763C76.1203 60.3475 75.9906 60.4965 75.8369 60.6177L75.6807 60.7427L75.5205 60.8677C75.4656 60.911 75.4301 60.9537 75.4072 60.9966L75.3213 61.1646L75.2314 61.3286C75.1838 61.4189 75.1432 61.5145 75.1064 61.6138L74.9736 61.9731C74.8983 62.1759 74.7714 62.347 74.6064 62.4849L74.3096 62.7349C74.309 62.7373 74.3103 62.7413 74.3096 62.7466L74.2822 62.9575L74.2588 63.1646C74.2299 63.4026 74.1313 63.6246 73.9541 63.8013L73.8174 63.938L73.6807 64.0708C73.58 64.1707 73.4739 64.2683 73.3643 64.3599L73.2158 64.481L73.0713 64.606C72.9955 64.6692 72.9273 64.7376 72.8682 64.8091L72.7471 64.9536L72.6299 65.0981C72.5739 65.1659 72.5235 65.2395 72.4814 65.3208L72.3955 65.4888L72.3057 65.6567C72.2532 65.7583 72.204 65.8646 72.1572 65.9731L72.001 66.3325C71.8972 66.5733 71.7163 66.7506 71.4854 66.856L71.1104 67.0278C71.0356 67.0619 70.9808 67.1014 70.9424 67.1411L70.6846 67.4067C70.6495 67.4431 70.6159 67.4921 70.5908 67.5591L70.5205 67.7466L70.4502 67.938C70.374 68.1413 70.2507 68.3185 70.0791 68.4575L69.9307 68.5786L69.7861 68.6958C69.6877 68.7754 69.5877 68.8553 69.4893 68.9341L69.3408 69.0513L69.1963 69.1724C69.1023 69.2476 69.006 69.3213 68.915 69.3989L68.6338 69.6411C68.5287 69.7308 68.4182 69.818 68.3057 69.8989L68.1494 70.0083L67.9971 70.1177C67.9932 70.1205 67.9785 70.1337 67.9619 70.1841L67.8955 70.3872L67.8252 70.5942C67.7531 70.8124 67.627 71.0078 67.4346 71.1528L67.2861 71.2661L67.1338 71.3794C67.0567 71.4374 66.9854 71.5035 66.9189 71.5747L66.79 71.7114L66.6611 71.8521C66.5276 71.9952 66.3672 72.1051 66.1885 72.1841L66.0127 72.2622L65.833 72.3442C65.7718 72.3714 65.7225 72.4066 65.6807 72.4497L65.5479 72.5825L65.415 72.7192C65.2779 72.8605 65.1166 72.9693 64.9346 73.0435L64.5752 73.1919V73.188C64.5736 73.1899 64.5701 73.1978 64.5635 73.2114L64.376 73.5942C64.2681 73.8155 64.0975 73.9976 63.8604 74.1021L63.6807 74.1802L63.5049 74.2583C63.3398 74.3305 63.1632 74.3766 62.9814 74.3989L62.7744 74.4224L62.6416 74.438L62.5791 74.5903L62.4893 74.8013C62.4283 74.9425 62.3266 75.0824 62.1729 75.1802C62.0191 75.2775 61.8505 75.3068 61.6963 75.3013L61.4697 75.2935L61.29 75.2856L61.2119 75.4028L61.0908 75.5708C60.9437 75.7783 60.7363 75.9246 60.4814 75.981L60.29 76.02L60.0986 76.063C60.067 76.07 60.0436 76.0827 60.0205 76.106L59.8838 76.2505L59.7471 76.3911C59.6102 76.5315 59.4484 76.6405 59.2666 76.7153L59.0908 76.7856L58.915 76.8599C58.7897 76.9113 58.6609 76.9568 58.5322 77.0005L58.3564 77.063L58.1768 77.1255C58.0415 77.1714 57.9027 77.2104 57.7627 77.2427L57.3877 77.3286C57.2819 77.353 57.1787 77.3802 57.0791 77.4146L56.8994 77.4771L56.7236 77.5396C56.7089 77.5447 56.6828 77.5584 56.6455 77.606L56.3799 77.9419C56.1901 78.1835 55.9136 78.309 55.6025 78.2817L55.3916 78.2622L55.2354 78.2466L55.126 78.3794L54.9893 78.5435C54.8935 78.6588 54.7666 78.7592 54.6064 78.813C54.4471 78.8664 54.2854 78.8642 54.1416 78.8325L53.9268 78.7856L53.79 78.7505L53.7002 78.8599L53.5596 79.0239C53.4139 79.195 53.2286 79.329 53.0049 79.3989L52.8252 79.4575L52.6455 79.5122C52.4414 79.5758 52.2314 79.584 52.0244 79.5474L51.8174 79.5122L51.6182 79.4731L51.4697 79.5864L51.3096 79.7075C51.1571 79.8214 50.9881 79.9088 50.8057 79.9614L50.626 80.0122L50.4463 80.0669C50.3534 80.0937 50.2605 80.1284 50.1689 80.1724L49.9932 80.2544L49.8213 80.3364C49.6129 80.4366 49.3871 80.4695 49.1611 80.438L48.7627 80.3833C48.6475 80.3673 48.5353 80.3555 48.4268 80.3521L48.2354 80.3481L48.0439 80.3403C47.9284 80.3367 47.8131 80.3396 47.7002 80.3442L47.3252 80.3599C47.2418 80.3633 47.1592 80.3747 47.0791 80.3989L46.7197 80.5083C46.5594 80.5567 46.3946 80.5874 46.2275 80.5942L45.8525 80.6099C45.8221 80.6113 45.7829 80.6176 45.7314 80.6489L45.3799 80.8677C45.1543 81.006 44.8936 81.0529 44.6299 80.9888L44.4346 80.9419L44.2432 80.8911C44.1641 80.8719 44.0915 80.8664 44.0244 80.8716L43.6494 80.9028C43.5577 80.9102 43.4657 80.9283 43.3721 80.9536L43.1846 81.0044L43.001 81.0513C42.8968 81.0795 42.7904 81.1183 42.6846 81.1606L42.501 81.231L42.3174 81.3052C42.138 81.3769 41.9482 81.4154 41.7549 81.4146H41.376C41.2332 81.4138 41.0891 81.4062 40.9463 81.3911L40.7588 81.3677L40.5674 81.3481C40.4394 81.3346 40.3118 81.3204 40.1846 81.3052L39.9932 81.2817L39.8057 81.2622C39.6071 81.2383 39.4206 81.1695 39.2471 81.0708L39.0635 80.9692L38.9229 80.8872L38.7783 80.9614L38.5869 81.0552C38.3543 81.1692 38.0932 81.2007 37.833 81.1138L37.6494 81.0513L37.4619 80.9888C37.4382 80.9811 37.4143 80.9791 37.3799 80.9888L36.9971 81.0981C36.7999 81.1536 36.5947 81.1663 36.3916 81.1294L36.2041 81.0942L36.0205 81.0591C35.8504 81.0282 35.6856 80.9748 35.5283 80.8989L35.1689 80.7271C35.142 80.7141 35.1212 80.711 35.0947 80.7153L34.9033 80.7466L34.708 80.7778C34.5418 80.8049 34.3743 80.8134 34.208 80.8013L34.0205 80.7896L33.8291 80.7739C33.6985 80.7644 33.5683 80.7527 33.4385 80.7388L33.251 80.7192L33.0596 80.6997C32.8021 80.6718 32.5857 80.5485 32.415 80.3794L32.2549 80.2192L32.165 80.1333L32.0518 80.1802L31.8408 80.2622C31.5845 80.3633 31.2947 80.3713 31.0283 80.2192L30.8564 80.1216L30.6885 80.0239C30.5647 79.953 30.4409 79.8778 30.3213 79.7974L30.1572 79.6841L29.9932 79.5747C29.9154 79.5224 29.839 79.4814 29.7627 79.4536L29.4111 79.3286C29.3243 79.2972 29.2338 79.2732 29.1416 79.2583L28.9541 79.2271L28.7666 79.1997C28.681 79.1861 28.5889 79.1789 28.4893 79.1841L28.2861 79.1958L28.0869 79.2075C27.8251 79.2214 27.5792 79.1393 27.3799 78.9692L27.2275 78.8364L27.0752 78.7075C27.0242 78.664 26.9762 78.6387 26.9307 78.6255L26.751 78.5747L26.5674 78.5239C26.4601 78.4935 26.3507 78.4644 26.2393 78.4419L26.0518 78.4067L25.8682 78.3677C25.6501 78.3237 25.4556 78.2194 25.2939 78.0708L25.1494 77.938L25.001 77.8013C24.9419 77.7472 24.8804 77.7097 24.8213 77.6841L24.6533 77.6099L24.4814 77.5356C24.3888 77.4955 24.2917 77.4617 24.1924 77.4341L24.0127 77.3833L23.8291 77.3325C23.6576 77.2849 23.497 77.212 23.3486 77.1138L23.1885 77.0083L23.0322 76.9067C22.9552 76.8557 22.8745 76.8122 22.79 76.7778L22.6182 76.7075L22.4424 76.6372C22.3803 76.6121 22.3073 76.5926 22.2197 76.5864L22.0166 76.5747L21.8135 76.5591C21.5381 76.5398 21.2979 76.4129 21.126 76.1958L20.9971 76.0356L20.8721 75.8794C20.812 75.8036 20.7481 75.7398 20.6846 75.6919L20.3877 75.4653L20.3955 75.4731C20.3911 75.4723 20.3767 75.4708 20.3486 75.4731L20.1182 75.4927L19.8877 75.5083C19.5785 75.5337 19.2769 75.4206 19.0869 75.1333L18.9736 74.9614L18.8564 74.7896C18.8001 74.7044 18.742 74.633 18.6807 74.5747L18.54 74.4419L18.4033 74.313C18.3835 74.2942 18.3572 74.2759 18.3096 74.2661L18.1104 74.2271L17.915 74.1841C17.7399 74.1479 17.5712 74.0906 17.415 74.0083L17.2471 73.9185L17.0791 73.8325C16.8864 73.731 16.7303 73.5836 16.6143 73.4028L16.5049 73.231L16.3994 73.0669L16.2002 73.0317L15.9971 72.9888C15.8476 72.9588 15.7004 72.8924 15.5791 72.7778C15.4602 72.6651 15.3874 72.5276 15.3447 72.3911L15.2783 72.1763L15.208 71.9575C15.1847 71.8836 15.1591 71.8565 15.1494 71.8481L14.8682 71.606C14.862 71.6007 14.8373 71.58 14.7666 71.5708L14.5439 71.5435L14.3252 71.5161C14.0989 71.4867 13.8784 71.4033 13.6963 71.2466L13.5518 71.1216L13.4111 71.0005C13.3091 70.9125 13.2075 70.8204 13.1104 70.7271L12.9775 70.5942L12.8408 70.4653C12.6804 70.3113 12.5722 70.1216 12.5088 69.9146L12.4463 69.7075L12.3838 69.5044C12.3596 69.4255 12.3265 69.3767 12.2979 69.3442L12.1768 69.2036L12.0518 69.063C11.9719 68.9726 11.8913 68.8816 11.8096 68.7935L11.6846 68.6567L11.5557 68.52C11.5012 68.4614 11.4377 68.4068 11.3643 68.3599L11.2002 68.2583L11.04 68.1528C10.8603 68.0379 10.7156 67.8837 10.6143 67.6958L10.5244 67.5278L10.4307 67.3599C10.3929 67.2898 10.3502 67.2279 10.2979 67.1763L10.165 67.0435L10.0322 66.9146C10.0031 66.8859 9.9545 66.853 9.87598 66.8247L9.66895 66.7505L9.46582 66.6763C9.22141 66.5888 9.01085 66.4242 8.8916 66.1724L8.72754 65.8208C8.68831 65.7382 8.64016 65.6651 8.58691 65.5981L8.35254 65.3013C8.23184 65.149 8.14426 64.9761 8.09082 64.7896L7.98145 64.4067C7.97772 64.3937 7.97487 64.385 7.97363 64.3833C7.9718 64.381 7.96608 64.3772 7.95801 64.3716L7.79785 64.2583L7.63379 64.145C7.47143 64.032 7.33494 63.8888 7.23145 63.7192L7.03613 63.3989C6.9533 63.2632 6.88426 63.1198 6.8291 62.9692L6.69629 62.6099C6.67385 62.5486 6.64007 62.4957 6.59863 62.4497L6.47363 62.3091L6.34473 62.1685C6.22353 62.0339 6.12667 61.8819 6.05566 61.7153L5.90723 61.3638C5.85557 61.2423 5.8056 61.1201 5.75879 60.9966L5.69238 60.8208L5.62598 60.6411L5.62207 60.6372C5.61877 60.6335 5.60866 60.6229 5.58691 60.6099L5.39941 60.4966L5.21191 60.3872C4.99491 60.2592 4.82148 60.0673 4.74316 59.8091L4.63379 59.4419C4.58454 59.2788 4.55317 59.1076 4.54395 58.9341L4.53613 58.731L4.52441 58.5278C4.52168 58.4765 4.50751 58.4471 4.49316 58.4263L4.3877 58.27L4.27832 58.1138C4.19423 57.9922 4.11818 57.8661 4.05176 57.7349L3.96973 57.5669L3.88379 57.4028C3.81611 57.2692 3.75881 57.1276 3.71191 56.9849L3.65332 56.8091L3.59473 56.6294C3.55941 56.522 3.51977 56.4167 3.47754 56.313L3.40723 56.1372L3.33691 55.9653C3.29991 55.8746 3.25577 55.7861 3.2041 55.6997L3.10645 55.5356L3.00879 55.3755C2.96918 55.3093 2.91601 55.2408 2.84473 55.1724L2.69238 55.0278L2.54395 54.8833C2.33485 54.6827 2.23162 54.416 2.25879 54.1255L2.29785 53.7114C2.30646 53.6193 2.30433 53.5389 2.29004 53.4692L2.21191 53.1021C2.20394 53.0632 2.18734 53.0199 2.14941 52.9731L2.02051 52.8169L1.89551 52.6606C1.74898 52.4799 1.66072 52.2645 1.64551 52.0278L1.62207 51.645C1.61466 51.53 1.60268 51.4167 1.58691 51.3052L1.53223 50.9302C1.51908 50.8377 1.49957 50.7476 1.46973 50.6606L1.40723 50.481L1.34473 50.3052C1.29095 50.1488 1.25807 49.9858 1.24316 49.8208L1.22754 49.6333L1.20801 49.4458C1.20563 49.4208 1.19744 49.3879 1.16504 49.3442L1.04004 49.1802L0.918945 49.0122C0.799431 48.8509 0.712765 48.6704 0.668945 48.4731L0.625977 48.2896L0.586914 48.106C0.559061 47.9806 0.530396 47.8533 0.504883 47.7271L0.469727 47.5435L0.430664 47.3599C0.38817 47.1495 0.402461 46.9374 0.461914 46.7349L0.579102 46.3364C0.592851 46.2891 0.588752 46.2624 0.583008 46.2427L0.52832 46.0591L0.477539 45.8794C0.439145 45.7507 0.404005 45.6194 0.37207 45.4888L0.325195 45.3052L0.282227 45.1177C0.228171 44.8952 0.240992 44.6727 0.313477 44.4614L0.383789 44.2661L0.442383 44.0942L0.348633 43.9341L0.243164 43.7544C0.121854 43.5455 0.0662888 43.3071 0.102539 43.0591L0.129883 42.8716L0.157227 42.6802C0.177034 42.5447 0.20048 42.4081 0.227539 42.2739L0.305664 41.8989C0.319849 41.8283 0.322923 41.7589 0.313477 41.6919L0.286133 41.5083L0.258789 41.3208C0.242065 41.2021 0.225164 41.0813 0.204102 40.9614L0.168945 40.7739L0.137695 40.5864C0.101259 40.379 0.116486 40.1726 0.180664 39.9731L0.239258 39.7856L0.301758 39.5981V39.5903C0.301716 39.5894 0.299977 39.5818 0.293945 39.5669L0.219727 39.3755L0.141602 39.188C0.0702106 39.0129 0.0286343 38.8289 0.0205078 38.6411L0.00878906 38.4497L0.000976562 38.2622C-0.00971154 38.0106 0.07224 37.7812 0.208008 37.5864L0.458008 37.2271C0.501399 37.1645 0.513482 37.1215 0.516602 37.0942L0.540039 36.9106L0.55957 36.7271C0.572852 36.6111 0.582395 36.4928 0.59082 36.3755L0.606445 36.188L0.618164 36.0044C0.619242 35.9894 0.618677 35.9496 0.583008 35.8794L0.477539 35.6763L0.375977 35.4731C0.261449 35.2496 0.211459 34.9896 0.286133 34.7231L0.336914 34.5396L0.387695 34.3599C0.435244 34.1902 0.508867 34.0275 0.602539 33.8755L0.708008 33.7036L0.801758 33.5474L0.74707 33.3599L0.68457 33.1567C0.59213 32.8505 0.664111 32.5504 0.87207 32.3169L1.0166 32.1528L1.12207 32.0356L1.08301 31.8872L1.02441 31.6802C0.983542 31.5343 0.975851 31.3739 1.02441 31.2114C1.07282 31.0499 1.16669 30.9199 1.27441 30.8208L1.60254 30.5161C1.62666 30.4939 1.63694 30.4772 1.6416 30.4692C1.64456 30.4641 1.6491 30.4628 1.64941 30.4614L1.68066 30.2739L1.71582 30.0903C1.72282 30.0502 1.72164 29.9917 1.7002 29.9106L1.64551 29.6997L1.58691 29.4888C1.51774 29.2265 1.54907 28.9496 1.71191 28.7075L1.82129 28.5435L1.93066 28.3833C1.95833 28.3422 1.9731 28.302 1.97754 28.2583L1.99316 28.0669L2.0127 27.8755C2.03488 27.6509 2.12133 27.4427 2.25879 27.2661L2.50098 26.9536C2.56924 26.8658 2.63084 26.7776 2.68457 26.688L2.87988 26.3599C2.88167 26.3569 2.89265 26.3451 2.8877 26.3013L2.86035 26.0903L2.83691 25.8794C2.80913 25.6425 2.84831 25.4025 2.97754 25.188L3.17285 24.8599C3.22632 24.7712 3.27355 24.6799 3.31348 24.5864L3.46191 24.2427C3.51323 24.1225 3.56704 24.0017 3.62207 23.8833L3.7002 23.7153L3.78223 23.5435C3.8333 23.4336 3.88165 23.3224 3.93066 23.2114L4.00879 23.0396L4.08301 22.8677C4.15399 22.7069 4.24932 22.5563 4.36426 22.4224L4.48926 22.2778L4.61426 22.1294C4.62095 22.1216 4.63189 22.1107 4.63379 22.0747L4.6416 21.8677L4.65332 21.6606C4.66462 21.4515 4.72152 21.2503 4.8291 21.0669L4.92285 20.9028L5.02051 20.7388C5.09815 20.6067 5.18706 20.4818 5.28613 20.3638L5.41113 20.2153L5.53223 20.0708C5.65025 19.9304 5.79305 19.8109 5.9502 19.7114L6.12598 19.5981L6.2627 19.5044L6.27832 19.3364L6.29395 19.1255C6.31243 18.8777 6.40861 18.645 6.59473 18.4614L6.73145 18.3247L6.86816 18.1919C6.91286 18.148 6.94938 18.0966 6.97363 18.0396L7.12207 17.688C7.22285 17.4509 7.39939 17.2759 7.61816 17.1646L7.80566 17.0708L7.99707 16.9731C8.05448 16.9436 8.08244 16.9145 8.09863 16.8911L8.30957 16.5786C8.33115 16.5462 8.35273 16.496 8.36426 16.4185L8.42676 15.9966C8.45643 15.7969 8.52378 15.6065 8.62988 15.4341L8.72754 15.27L8.8291 15.1099C8.9503 14.9131 9.12233 14.7657 9.3252 14.6685L9.50879 14.5786L9.69629 14.4888C9.77313 14.4519 9.8298 14.411 9.87207 14.3677L10.0049 14.2349L10.1338 14.0981C10.2099 14.0201 10.284 13.9405 10.3525 13.856L10.4697 13.7075L10.5869 13.563C10.7046 13.4176 10.8474 13.2983 11.0088 13.2036L11.1768 13.1021L11.3486 13.0044L11.3525 13.0005C11.3532 12.9996 11.3593 12.9951 11.3643 12.981L11.4971 12.5903C11.574 12.3689 11.712 12.1771 11.9111 12.0396L12.0674 11.9302L12.2236 11.8247C12.2345 11.8172 12.2506 11.8022 12.2666 11.7583L12.3369 11.563L12.4111 11.3638L12.5127 11.1646C12.6364 10.9817 12.8214 10.8587 13.0439 10.8052L13.4658 10.7036C13.5502 10.6833 13.6085 10.6549 13.6494 10.6255L13.8018 10.5161L13.9541 10.4028L13.958 10.3989C13.9621 10.3924 13.9693 10.3769 13.9775 10.3481L14.04 10.1294L14.1025 9.91455C14.1761 9.65453 14.3397 9.42359 14.6104 9.29736L14.9619 9.1333C15.0814 9.07759 15.2019 9.02313 15.3213 8.96924L15.4971 8.88721L15.6729 8.80908C15.6782 8.80673 15.6888 8.80402 15.7041 8.77393L15.7979 8.58643L15.8916 8.40283C15.9862 8.21637 16.1189 8.05176 16.29 7.92627L16.4385 7.81689L16.5908 7.70361C16.7876 7.55931 17.0167 7.49671 17.2471 7.48877L17.4736 7.48096L17.6611 7.47314L17.7471 7.35205L17.8604 7.18408C17.9682 7.02275 18.1018 6.88289 18.2627 6.77393L18.4189 6.66846L18.5713 6.56299C18.6745 6.49311 18.7807 6.42244 18.8838 6.35205L19.0361 6.24658L19.1924 6.14111C19.3802 6.0129 19.5935 5.95003 19.8135 5.93799L20.0283 5.92627L20.1572 5.91846L20.2314 5.77783L20.333 5.57861L20.4502 5.39893C20.5849 5.23302 20.7731 5.11647 21.0088 5.08252L21.208 5.05518L21.4072 5.02393C21.4791 5.01346 21.5358 4.9929 21.583 4.96533L21.7471 4.87158L21.9072 4.77393C22.068 4.67949 22.2429 4.61877 22.4268 4.58643L22.6221 4.55127L22.7705 4.52002L22.8799 4.33252L22.9893 4.1333L23.1025 3.96924C23.2305 3.81403 23.4051 3.69543 23.626 3.64893L24.001 3.5708C24.0999 3.54997 24.1964 3.52037 24.2861 3.48486L24.4619 3.41455L24.6338 3.34814C24.7606 3.29796 24.8907 3.24923 25.0205 3.20752L25.2002 3.15283L25.3799 3.09424C25.5353 3.04441 25.6959 3.01118 25.8604 2.99658L26.0557 2.98096L26.2471 2.96143C26.247 2.96147 26.2559 2.96107 26.2666 2.94971L26.4072 2.79346L26.5518 2.64111C26.7351 2.44648 26.978 2.33391 27.2549 2.33252H27.6533C27.6575 2.3325 27.6608 2.32868 27.6611 2.32861C27.663 2.32743 27.6674 2.32568 27.6729 2.3208L27.9775 2.04736C28.1239 1.9166 28.2921 1.81561 28.4775 1.75049L28.6572 1.68799L28.833 1.62549C28.9789 1.57441 29.1294 1.53362 29.2822 1.5083L29.6572 1.4458C29.8062 1.42116 29.9578 1.40974 30.1104 1.40674L30.3018 1.40283L30.4971 1.39893C30.6302 1.39631 30.7631 1.39425 30.8955 1.39502H31.0869L31.2822 1.39893H31.2861C31.2879 1.39826 31.2978 1.39224 31.3135 1.37939L31.4775 1.24658L31.6377 1.11377C31.8196 0.963766 32.0408 0.868227 32.2861 0.855957L32.4736 0.844238L32.665 0.836426C32.782 0.830563 32.8979 0.821339 33.0127 0.809082L33.3877 0.77002C33.4433 0.764018 33.5008 0.745295 33.5635 0.711426L33.7393 0.617676L33.915 0.52002C34.1474 0.394275 34.4056 0.370397 34.6572 0.437988L34.8525 0.48877L35.0518 0.543457C35.1653 0.573916 35.2763 0.597809 35.3838 0.61377L35.7666 0.668457C35.7913 0.672131 35.814 0.671816 35.8447 0.656738L36.0244 0.566895L36.2002 0.480957C36.408 0.378969 36.6364 0.339268 36.8682 0.375488L37.0596 0.406738L37.2432 0.437988C37.2432 0.437997 37.2538 0.433206 37.2705 0.422363L37.4502 0.305176L37.6299 0.191895C37.8241 0.0656517 38.0476 -0.00837823 38.29 0.000488281L38.4775 0.00830078L38.665 0.012207C38.7818 0.0164787 38.9008 0.018399 39.0166 0.0161133L39.3916 0.00830078C39.5844 0.00455156 39.7735 0.0383927 39.9541 0.105957L40.1416 0.17627L40.333 0.250488C40.3989 0.274876 40.4572 0.280446 40.5088 0.277832L40.6963 0.27002L40.8838 0.258301C40.9758 0.2536 41.0696 0.242367 41.165 0.219238L41.3564 0.172363L41.5439 0.125488C41.7385 0.0780805 41.9368 0.0748272 42.1338 0.11377L42.3213 0.148926L42.5049 0.184082C42.5661 0.196176 42.6294 0.199717 42.6963 0.187988L43.0791 0.117676L43.2744 0.102051C43.4668 0.106494 43.6491 0.169694 43.8096 0.273926L43.9854 0.391113L44.165 0.508301C44.2133 0.539601 44.2419 0.539698 44.2549 0.539551H44.4424L44.6299 0.535645C44.7693 0.534105 44.9088 0.540226 45.0479 0.55127L45.2354 0.562988L45.4229 0.578613C45.5209 0.586311 45.6221 0.586124 45.7236 0.578613L45.9111 0.566895L46.1025 0.55127C46.2828 0.537936 46.4628 0.553451 46.6377 0.598145L46.8174 0.64502L47.001 0.691895C47.036 0.700835 47.0811 0.702808 47.1416 0.687988L47.3408 0.641113L47.54 0.590332L47.7627 0.562988C47.9068 0.563709 48.0438 0.601618 48.1689 0.668457L48.3486 0.793457L48.6768 1.07471C48.7181 1.11059 48.7387 1.11339 48.7432 1.11377L49.1182 1.14502C49.2439 1.15563 49.371 1.16532 49.4971 1.17627L49.6846 1.1958L49.8721 1.21143C50.0314 1.22526 50.1882 1.25526 50.3408 1.30127L50.7002 1.41064C50.8652 1.46049 51.0222 1.5322 51.1689 1.62549L51.3369 1.73096L51.501 1.83643L51.4971 1.83252C51.4994 1.83246 51.505 1.83397 51.5127 1.83252L51.7197 1.79346L51.9229 1.75439C52.1515 1.71131 52.3704 1.75532 52.5557 1.87158L52.7314 2.0083L53.0283 2.31299C53.0845 2.37056 53.1323 2.40272 53.1729 2.41846L53.3447 2.48486L53.5205 2.55127C53.5625 2.56756 53.6157 2.57925 53.6846 2.57471L53.8877 2.55908L54.0869 2.54736C54.2774 2.53479 54.4672 2.55453 54.6494 2.60986L55.0088 2.71924C55.2215 2.7839 55.4041 2.9039 55.5518 3.06299L55.833 3.36768C55.8388 3.37391 55.8463 3.37762 55.8486 3.37939L55.8525 3.3833L56.0479 3.40283L56.2393 3.42236C56.4724 3.44577 56.6844 3.53771 56.8604 3.69189L57.1572 3.94971C57.1986 3.98605 57.2385 4.00828 57.2822 4.02002L57.4658 4.06689L57.6494 4.11768C57.7263 4.1379 57.8146 4.14851 57.915 4.14893H58.333C58.5586 4.14968 58.7615 4.22739 58.9229 4.36768L59.0674 4.52783L59.1924 4.6958L59.3096 4.85986L59.4971 4.8833L59.6963 4.90674C59.9424 4.9376 60.1622 5.04791 60.333 5.23096L60.4658 5.37549L60.5947 5.51221H60.5986L60.8135 5.51611L61.0244 5.52393C61.1745 5.52806 61.3294 5.56882 61.4697 5.66064C61.5391 5.70611 61.5998 5.7583 61.6494 5.81689L61.7744 6.0083L61.8721 6.20361L61.9697 6.40283C61.9807 6.42498 61.9894 6.43767 61.9932 6.44189L62.1689 6.52002L62.3408 6.59424C62.4898 6.65963 62.6283 6.74403 62.7588 6.84033L63.0635 7.05908C63.1916 7.1537 63.3075 7.26383 63.415 7.3833L63.5439 7.52393L63.6729 7.66846C63.6913 7.68877 63.713 7.70472 63.751 7.71533L63.9463 7.76611L64.1377 7.8208C64.2762 7.85857 64.4133 7.89902 64.5479 7.9458L64.9229 8.07861C65.1495 8.15792 65.3368 8.30119 65.4697 8.50049L65.5791 8.66846L65.6885 8.83252C65.7125 8.86852 65.7391 8.88776 65.7705 8.90283L65.9463 8.98877L66.1221 9.0708C66.3418 9.17505 66.5083 9.34392 66.6182 9.55518L66.8057 9.91455C66.8085 9.91999 66.8128 9.92145 66.8135 9.92236L66.8174 9.92627L67.0049 9.99658L67.1924 10.063C67.4023 10.1406 67.5614 10.2829 67.665 10.4614L67.751 10.6489L67.8174 10.8521L67.8838 11.0513L68.0439 11.1216L68.2236 11.2036C68.3587 11.2633 68.4913 11.327 68.6182 11.3989L68.7861 11.4966L68.958 11.5942C69.1043 11.6775 69.2394 11.776 69.3604 11.8911L69.6338 12.1489C69.7882 12.2959 69.8975 12.4778 69.9658 12.6763L70.0986 13.0669C70.125 13.143 70.1605 13.1971 70.1963 13.2388L70.3174 13.3833L70.4385 13.5239C70.5104 13.6078 70.5863 13.6881 70.665 13.7661L70.9307 14.0317C71.0228 14.123 71.1148 14.215 71.2041 14.3091L71.4619 14.5825C71.5052 14.6279 71.5628 14.669 71.6377 14.7075L71.8213 14.8013L72.001 14.895C72.2141 15.0042 72.3587 15.178 72.4307 15.3833L72.4775 15.5981L72.501 15.8169L72.5244 16.0044L72.6572 16.0825L72.833 16.1841C73.0197 16.2918 73.1761 16.4395 73.2861 16.6294L73.4736 16.9575C73.5248 17.0461 73.5828 17.1316 73.6455 17.2114L73.7627 17.3599L73.8799 17.5044C74.01 17.6701 74.09 17.8628 74.1299 18.0669L74.208 18.4653C74.2153 18.502 74.2264 18.5191 74.2393 18.5317L74.3799 18.6646L74.5166 18.7974C74.5802 18.8585 74.6591 18.9171 74.751 18.9731L75.1104 19.1919C75.3229 19.3217 75.4846 19.5143 75.5635 19.7622L75.915 20.8638C75.9516 20.9785 75.9878 21.0923 76.0283 21.2036L76.0947 21.3833L76.1611 21.5591C76.2014 21.6696 76.2413 21.7801 76.2861 21.8872L76.3604 22.063L76.4307 22.2349C76.4792 22.3507 76.5276 22.4665 76.5752 22.5825L76.6494 22.7544L76.7197 22.9302C76.7544 23.0144 76.7976 23.0954 76.8486 23.1724L76.9502 23.3286L77.0557 23.4849C77.0927 23.5407 77.1461 23.5981 77.2197 23.6567L77.5479 23.9224C77.727 24.0649 77.8677 24.2503 77.9385 24.4771L78.0479 24.8364C78.0874 24.9632 78.1267 25.0911 78.1611 25.2192L78.208 25.4028L78.2588 25.5864C78.2975 25.7307 78.3262 25.878 78.3447 26.0278L78.3916 26.4106C78.3988 26.4687 78.4175 26.5197 78.4463 26.5669L78.5439 26.731L78.6455 26.8911C78.7617 27.0814 78.8179 27.2955 78.8174 27.5161V27.9302Z" fill="#EDF2F7"/>
</svg>
