<svg width="24" height="24" viewBox="0 0 24 24" fill="none" xmlns="http://www.w3.org/2000/svg">
<path d="M13.933 18.5967L13.5708 18.5819L13.2086 18.5598C12.8856 18.5427 12.5634 18.4877 12.2551 18.3898L11.5603 18.168C11.4272 18.126 11.3053 18.1121 11.1907 18.1163L10.8433 18.1237L10.5033 18.1384C10.2921 18.1461 10.0695 18.162 9.838 18.1828L9.46841 18.2124L9.09143 18.2493C8.65161 18.2885 8.22558 18.1918 7.84223 17.961L7.22133 17.5915C7.06882 17.4995 6.90826 17.4221 6.74087 17.3623L6.40085 17.244L6.06083 17.1184C5.80386 17.0266 5.55023 16.9203 5.29948 16.8005L4.95946 16.6379L4.62683 16.4827C4.30447 16.3286 4.01199 16.1169 3.762 15.8618L3.50329 15.6031L3.25197 15.337C2.95348 15.0324 2.75323 14.6652 2.65324 14.2578L2.55715 13.8734L2.46845 13.489C2.43712 13.3611 2.39036 13.279 2.34279 13.2229L2.11365 12.9568L1.8845 12.6833C1.74238 12.5158 1.58406 12.3424 1.41882 12.1659L1.16011 11.885L0.894012 11.6042C0.544843 11.2293 0.37736 10.7561 0.406158 10.2441L0.420942 9.85971L0.443117 9.47534C0.449573 9.3538 0.435381 9.25127 0.398767 9.15749L0.258324 8.81008L0.125273 8.47006C0.0544689 8.29128 -0.0233788 8.03074 0.00700536 7.73828C0.0433431 7.39226 0.226435 7.06126 0.553993 6.85867L0.923579 6.63691C1.19465 6.46955 1.50979 6.38307 1.7958 6.33385L2.15061 6.27472L2.64585 6.18186C2.78713 6.15311 2.93104 6.11643 3.07457 6.06775L3.42937 5.94209L3.78418 5.82382C4.07323 5.72586 4.36708 5.65863 4.66379 5.61686L5.3734 5.51337C5.68634 5.46944 6.00563 5.46522 6.31954 5.49859L7.02914 5.57251C7.19954 5.59039 7.36889 5.58956 7.53917 5.57251L7.89398 5.54294L8.24878 5.50598C8.49954 5.48075 8.7518 5.46009 9.00273 5.44685L9.35754 5.42467L9.71234 5.40989C10.0674 5.39119 10.4225 5.43569 10.762 5.54294L11.1168 5.65382L11.4716 5.77208C11.6767 5.83674 11.8825 5.88558 12.0851 5.92731L12.7947 6.07514C12.8703 6.09053 12.9438 6.08734 13.0312 6.06036L13.7408 5.83861C14.1742 5.70444 14.6236 5.71817 15.0492 5.86818L15.7588 6.11949C15.9123 6.17328 16.0567 6.2016 16.1949 6.2082L16.5497 6.22298L16.9045 6.24515C16.9136 6.24558 16.9642 6.24375 17.0671 6.17863L17.4219 5.95688L17.7767 5.72773C18.1662 5.48231 18.6225 5.35095 19.1146 5.41728L19.4694 5.46163L19.8242 5.51337C20.1506 5.55756 20.4694 5.64836 20.7778 5.77948L21.1326 5.92731L21.4874 6.08254C21.5578 6.11244 21.6 6.11193 21.6352 6.10471L22.3448 5.95688C22.5072 5.92318 22.7452 5.88647 22.9953 5.9347C23.2856 5.99078 23.6802 6.19 23.8379 6.65909L23.8897 6.80693L23.9414 6.96215C24.0483 7.28072 23.9862 7.56944 23.934 7.73828C23.8778 7.91993 23.7926 8.08871 23.7049 8.23353L23.3057 8.89878L23.3057 8.91357L23.4831 9.68231C23.5756 10.0857 23.5731 10.499 23.4536 10.9019L23.3501 11.2567L23.2392 11.6115C23.08 12.1439 22.7089 12.516 22.2561 12.7351L21.8643 12.9199L21.5021 13.0973L21.4356 13.393L21.3469 13.7625C21.2625 14.1307 21.1073 14.4713 20.8812 14.7752L20.6669 15.0709L20.4451 15.3592C20.2215 15.6593 19.9433 15.9072 19.6172 16.0909L19.3068 16.2683L18.989 16.4457C18.8451 16.5268 18.7074 16.6251 18.5824 16.7414L18.0428 17.2514C17.7142 17.5582 17.311 17.7379 16.8675 17.791L16.4905 17.8354L16.121 17.8797C15.987 17.8955 15.8669 17.9329 15.7588 17.9906L15.4409 18.1606L15.1157 18.338C14.7493 18.5336 14.3481 18.6187 13.933 18.5967ZM14.0365 16.7118C14.1042 16.7149 14.1599 16.6999 14.2213 16.6675L14.5465 16.4975L14.8718 16.3201C15.1924 16.1494 15.5383 16.0448 15.8992 16.0022L16.2688 15.9579L16.6458 15.9135C16.6937 15.9074 16.7204 15.8958 16.7493 15.8692L17.2889 15.3592C17.5225 15.1411 17.7803 14.9536 18.0576 14.7974L18.6933 14.4426C18.7893 14.3883 18.8645 14.3159 18.9298 14.2282L19.1442 13.9399L19.3659 13.6443C19.4276 13.5607 19.4781 13.4642 19.5064 13.3412L19.669 12.602C19.7985 12.0371 20.176 11.6356 20.6521 11.4046L21.0439 11.2124L21.4282 11.0276C21.436 11.0238 21.4453 11.0231 21.4504 11.0202L21.5317 10.7171L21.6352 10.3623C21.655 10.2956 21.668 10.2144 21.6426 10.1036L21.4652 9.3349C21.3575 8.86522 21.4264 8.3977 21.6648 7.97482C21.3491 7.98565 21.0413 7.94423 20.7482 7.81959L20.3934 7.67176L20.0386 7.51653C19.8747 7.44687 19.7189 7.4108 19.5729 7.39087L19.2181 7.33913L18.8633 7.29478C18.8567 7.29643 18.8271 7.30317 18.782 7.33174L18.0724 7.77524C17.7025 8.00907 17.2793 8.15193 16.8158 8.13004L16.1062 8.10048C15.7724 8.08465 15.4413 8.01307 15.1231 7.9009L14.7683 7.77524L14.4135 7.65697C14.3676 7.64108 14.3412 7.63777 14.3026 7.64958L13.593 7.87133C13.208 7.99051 12.8072 8.0122 12.4103 7.93047L11.7007 7.78263C11.432 7.72725 11.1612 7.65976 10.895 7.57566L10.5402 7.46479L10.1854 7.34652C10.0541 7.30548 9.93206 7.28891 9.81582 7.29478L9.10622 7.33913C8.88531 7.35076 8.66203 7.36126 8.44096 7.38348L7.73136 7.4574C7.43003 7.48771 7.12339 7.48942 6.82218 7.4574L6.11257 7.38348C5.95482 7.36696 5.7982 7.36868 5.6395 7.39087L5.2847 7.43522L4.92989 7.48696C4.75458 7.51157 4.57333 7.55793 4.3903 7.62001L3.68069 7.85655C3.39992 7.95176 3.11715 8.02909 2.83064 8.0783L2.12104 8.19657C2.09994 8.20018 2.07981 8.21513 2.0619 8.21874L2.158 8.45528C2.30105 8.81649 2.35714 9.19969 2.3354 9.58621L2.31322 9.97058L2.29844 10.3402L2.54237 10.5915L2.80108 10.8724C2.98493 11.0688 3.16283 11.2642 3.32589 11.4563L3.78418 12.0033C4.04088 12.3063 4.20831 12.6583 4.3016 13.0381L4.49378 13.8069C4.51833 13.9065 4.55312 13.9684 4.59727 14.0139L4.85598 14.28L5.11469 14.5387C5.20865 14.6345 5.31573 14.7158 5.43992 14.7752L5.77994 14.9304L6.11257 15.093C6.30709 15.186 6.50166 15.2673 6.69652 15.337L7.03653 15.4626L7.37655 15.5809C7.66257 15.6831 7.93684 15.8158 8.19704 15.9727L8.81794 16.3422C8.84545 16.3587 8.86978 16.3687 8.92142 16.3644L9.2984 16.3275L9.66799 16.2979C9.93058 16.2743 10.1891 16.2551 10.4367 16.2462L10.7767 16.2314L11.1242 16.224C11.4682 16.2117 11.808 16.26 12.1368 16.3644L12.8316 16.5862C12.9859 16.635 13.143 16.6663 13.3047 16.6749L13.6669 16.6897L14.0365 16.7118Z" fill="#EDF2F7"/>
<path d="M19.1143 5.41748L19.4697 5.46143L19.8242 5.51318C20.1506 5.55736 20.4691 5.64872 20.7773 5.77979L21.1328 5.92725L21.4873 6.08252C21.5574 6.11228 21.5997 6.1121 21.6348 6.10498L22.3447 5.95654C22.507 5.92285 22.7451 5.88593 22.9951 5.93408C23.2854 5.99015 23.6802 6.18977 23.8379 6.65869L23.8896 6.80713L23.9414 6.9624C24.0481 7.28072 23.9858 7.56899 23.9336 7.73779C23.8774 7.91927 23.7927 8.08818 23.7051 8.23291L23.3057 8.89893V8.91357L23.4834 9.68213C23.5759 10.0855 23.5727 10.4989 23.4531 10.9019L23.3506 11.2563L23.2393 11.6118C23.08 12.144 22.7085 12.5159 22.2559 12.7349L21.8643 12.9194L21.502 13.0972L21.4355 13.3931L21.3467 13.7622C21.2623 14.1304 21.1069 14.471 20.8809 14.7749L20.667 15.0708L20.4453 15.3589C20.2217 15.659 19.9432 15.9066 19.6172 16.0903L19.3066 16.2681L18.9893 16.4458C18.8454 16.5269 18.707 16.6254 18.582 16.7417L18.043 17.2515C17.7144 17.5583 17.3107 17.7374 16.8672 17.7905L16.4902 17.8354L16.1211 17.8794C15.9872 17.8952 15.8669 17.933 15.7588 17.9907L15.4414 18.1606L15.1162 18.3374C14.7498 18.533 14.3477 18.6181 13.9326 18.5962L13.5713 18.5815L13.209 18.5601C12.886 18.543 12.5632 18.4871 12.2549 18.3892L11.5605 18.1675C11.4275 18.1255 11.305 18.1116 11.1904 18.1157L10.8438 18.1235L10.5029 18.1382C10.2919 18.1458 10.0692 18.1623 9.83789 18.1831L9.46875 18.2124L9.0918 18.2495C8.65198 18.2887 8.22515 18.1912 7.8418 17.9604L7.22168 17.5913C7.06922 17.4994 6.90855 17.4216 6.74121 17.3618L6.40137 17.2437L6.06055 17.1187C5.80369 17.0269 5.55045 16.92 5.2998 16.8003L4.95996 16.6382L4.62695 16.4829C4.30459 16.3288 4.01171 16.1169 3.76172 15.8618L3.50293 15.603L3.25195 15.3364C2.95358 15.0319 2.75328 14.6647 2.65332 14.2573L2.55762 13.8735L2.46875 13.4888C2.43746 13.361 2.39028 13.2792 2.34277 13.2231L2.11328 12.9565L1.88477 12.6831C1.74264 12.5156 1.58418 12.342 1.41895 12.1655L1.16016 11.8853L0.894531 11.604C0.545362 11.2291 0.377451 10.7556 0.40625 10.2437L0.420898 9.85986L0.443359 9.4751C0.4498 9.35369 0.434982 9.25141 0.398438 9.15771L0.258789 8.81006L0.125 8.47021C0.054196 8.29144 -0.0235482 8.03025 0.00683594 7.73779C0.0432324 7.39202 0.2265 7.06144 0.553711 6.85889L0.923828 6.63721C1.1949 6.46984 1.50989 6.38271 1.7959 6.3335L2.15039 6.2749L2.64551 6.18213C2.78664 6.15341 2.93084 6.11648 3.07422 6.06787L3.42969 5.94189L3.78418 5.82373C4.07323 5.72576 4.36735 5.65848 4.66406 5.6167L5.37305 5.51318C5.68592 5.46926 6.0055 5.46519 6.31934 5.49854L7.0293 5.57275C7.19957 5.59062 7.36889 5.58979 7.53906 5.57275L7.89355 5.54248L8.24902 5.50537C8.49971 5.48015 8.75208 5.46002 9.00293 5.44678L9.35742 5.42432L9.71191 5.40967C10.0669 5.39097 10.4223 5.43531 10.7617 5.54248L11.1172 5.65381L11.4717 5.77197C11.6767 5.8366 11.8824 5.88553 12.085 5.92725L12.7949 6.07471C12.8705 6.09006 12.9439 6.08702 13.0312 6.06006L13.7412 5.83838C14.1744 5.70437 14.6235 5.71786 15.0488 5.86768L15.7588 6.11963C15.9122 6.17339 16.0572 6.2019 16.1953 6.2085L16.5498 6.22314L16.9043 6.24463C16.9134 6.24506 16.9644 6.24334 17.0674 6.17822L17.4219 5.95654L17.7764 5.72803C18.1657 5.48266 18.6222 5.35125 19.1143 5.41748Z" fill="#EDF2F7"/>
<path d="M9.71289 5.41016C10.0677 5.39154 10.4234 5.43578 10.7627 5.54297L11.1172 5.6543L11.4717 5.77246C11.6765 5.83701 11.8826 5.88605 12.085 5.92773L12.7949 6.0752C12.8703 6.09047 12.9441 6.08742 13.0312 6.06055L13.7412 5.83887C14.1745 5.70482 14.6243 5.71821 15.0498 5.86816L15.6084 6.06641L15.3291 6.46191C15.2995 6.50352 15.2889 6.5326 15.2852 6.54297L15.3223 6.88379L15.3516 7.23828C15.3807 7.52572 15.3925 7.81462 15.374 8.10254L15.3438 8.45801L15.3223 8.8125C15.3154 8.91871 15.3314 9.03463 15.374 9.16016L15.4922 9.51465L15.6172 9.86914C15.6924 10.0906 15.774 10.313 15.8613 10.5352L16.002 10.8896L16.1348 11.2441C16.2944 11.6501 16.3392 12.0838 16.2383 12.5156L16.1494 12.8711L16.0684 13.2256C16.0192 13.4347 15.9803 13.6458 15.9502 13.8535L15.8467 14.5635C15.8034 14.8622 15.726 15.1596 15.625 15.4502L15.5068 15.8047L15.3809 16.1602C15.3746 16.1783 15.3741 16.1884 15.374 16.1895C15.3744 16.1933 15.3751 16.2032 15.3809 16.2188L15.5215 16.5742L15.6543 16.9287C15.7672 17.2232 15.8503 17.5248 15.8984 17.8301L15.9141 17.9248C15.8596 17.9426 15.808 17.9649 15.7588 17.9912L15.4414 18.1611L15.1162 18.3379C14.75 18.5334 14.3485 18.6185 13.9336 18.5967L13.5713 18.582L13.209 18.5605C12.8861 18.5435 12.563 18.4875 12.2549 18.3896L11.5605 18.168C11.4279 18.1261 11.3057 18.1122 11.1914 18.1162L10.8438 18.124L10.5039 18.1387C10.2928 18.1463 10.0692 18.1628 9.83789 18.1836L9.46875 18.2129L9.0918 18.25C8.69251 18.2856 8.30511 18.2067 7.9502 18.0195L7.98242 17.8301C8.00077 17.7104 7.99303 17.5919 7.9668 17.4688L7.81934 16.7588C7.71809 16.2862 7.79989 15.8233 8.01172 15.4131L8.18945 15.0586L8.34375 14.7559L8.21094 14.4746L8.04102 14.1201C7.87416 13.764 7.78374 13.3808 7.79688 12.9814L7.81152 12.627L7.81934 12.2715C7.83313 11.8694 7.95579 11.4882 8.14453 11.1406L8.48438 10.5127L8.34375 10.2539L8.15918 9.89941C7.867 9.33947 7.92146 8.73877 8.24805 8.23633L8.70605 7.52637C8.7189 7.50662 8.73317 7.49622 8.73633 7.48926L8.66211 7.17188L8.58789 6.81641C8.54129 6.59249 8.48814 6.36874 8.43262 6.14453L8.27246 5.50293C8.51534 5.47882 8.75999 5.46009 9.00293 5.44727L9.35742 5.4248L9.71289 5.41016Z" fill="#010820"/>
</svg>
