<svg width="128" height="128" viewBox="0 0 128 128" fill="none" xmlns="http://www.w3.org/2000/svg">
<path d="M41.272 58.0556L41.4053 58.1167L41.5053 58.2279L41.8609 58.6112C41.8946 58.6477 41.923 58.6718 41.9442 58.689L42.1831 58.639L42.5109 58.5612C42.7802 58.4989 43.0686 58.4994 43.3442 58.6001L43.6109 58.7334L43.8387 58.8834L44.0664 59.0279C44.2717 59.163 44.4545 59.3303 44.622 59.5167L44.8164 59.7334L44.9887 59.9223H45.2553L45.5498 59.9167C45.8824 59.9124 46.1765 60.0298 46.4053 60.2334L46.6164 60.4667L46.7942 60.7223L46.9664 60.9667L47.2109 61.0001L47.4887 61.0279C47.8129 61.0664 48.1074 61.1981 48.3553 61.4112L48.5664 61.5945L48.7387 61.739L49.0442 61.7001L49.3609 61.6556L49.6887 61.6501C49.8011 61.6627 49.9154 61.6892 50.0276 61.739C50.1411 61.7897 50.2422 61.8572 50.3276 61.9334L50.5387 62.1834L50.7164 62.4445L50.872 62.6779L51.0942 62.7001L51.3776 62.7223C51.5755 62.7383 51.7671 62.7656 51.922 62.8056L52.0609 62.839L52.2053 62.8779C52.2701 62.8946 52.4773 62.9536 52.6331 63.1501C52.7239 63.2655 52.7819 63.4134 52.7887 63.5779C52.7948 63.7337 52.7517 63.8622 52.7109 63.9445C52.6372 64.0924 52.53 64.1833 52.4831 64.2223C52.4233 64.272 52.36 64.317 52.3053 64.3501L51.8498 64.6279C51.6704 64.7365 51.4809 64.8332 51.2887 64.9167L50.7998 65.1279C50.7588 65.1459 50.7093 65.1798 50.6553 65.2501L50.4776 65.4834L50.2942 65.7167C50.122 65.941 49.914 66.1334 49.6664 66.2723L49.4331 66.4001L49.2053 66.5334C48.9137 66.6971 48.5913 66.7526 48.272 66.7334L47.9609 66.7167L47.7887 66.7001L47.6998 66.8723L47.5442 67.1556C47.4375 67.3503 47.2743 67.5389 47.0387 67.6556C46.8048 67.771 46.5613 67.7866 46.3442 67.7556L46.022 67.7112L45.8276 67.6779L45.7498 67.8167L45.5831 68.0834C45.3539 68.4496 44.9843 68.6793 44.5331 68.689L43.9442 68.7001C43.8565 68.702 43.8028 68.7229 43.7664 68.7445L43.5387 68.8779L43.3053 69.0167C43.1249 69.1242 42.9379 69.2186 42.7442 69.3001L42.4942 69.4056L42.2498 69.5112C42.1373 69.5585 42.0286 69.6152 41.9276 69.689L41.4942 70.0112C41.4258 70.0612 41.3887 70.0848 41.3776 70.0945C41.3693 70.1018 41.3896 70.0875 41.4164 70.0556C41.4285 70.0413 41.4707 69.9929 41.5053 69.9223C41.5233 69.8855 41.5461 69.8212 41.5609 69.739C41.5752 69.6587 41.5762 69.5414 41.5331 69.4056L41.1331 69.5445L41.2998 70.2779L41.2109 70.3223L40.972 69.8501L40.9664 70.3556L40.8553 70.3501L40.3664 70.3445L40.1998 69.8779L40.1942 69.8556C40.0945 69.5739 40.2035 69.3435 40.2276 69.2945C40.2653 69.2183 40.3077 69.1627 40.3276 69.139C40.3713 69.0869 40.4182 69.045 40.4442 69.0223C40.5028 68.9713 40.5788 68.9171 40.6553 68.8612L40.872 68.7001L41.0887 68.5445C41.2783 68.406 41.4839 68.2908 41.6998 68.2001L41.9442 68.0945L42.1942 67.989C42.3267 67.9332 42.4541 67.8681 42.5776 67.7945L42.8109 67.6556L43.0387 67.5223C43.3079 67.3617 43.6047 67.2847 43.9109 67.2779L44.2109 67.2723L44.4109 67.2667L44.5442 67.0667L44.7053 66.8001C44.8226 66.6125 44.9966 66.442 45.2276 66.339C45.34 66.2892 45.4546 66.2626 45.5664 66.2501L45.8998 66.2556L46.222 66.3001L46.3776 66.3223L46.4553 66.189L46.6109 65.9056L46.7998 65.6445C46.8768 65.5617 46.965 65.4833 47.072 65.4223C47.2873 65.2996 47.5203 65.2646 47.7387 65.2779L48.0498 65.2945L48.3553 65.3112C48.4468 65.3168 48.4873 65.2991 48.5053 65.289L48.7387 65.1612L48.972 65.0279C49.0344 64.9926 49.099 64.9379 49.1664 64.8501L49.3498 64.6167L49.5276 64.3834C49.6844 64.1792 49.8828 64.0173 50.1109 63.8945C49.9508 63.7911 49.8128 63.6563 49.7053 63.4945L49.5331 63.2334L49.4276 63.0779L49.2498 63.1056L48.9387 63.1501C48.5576 63.2055 48.1682 63.1237 47.8498 62.8501L47.6387 62.6723L47.4276 62.489C47.3954 62.4616 47.3654 62.4499 47.322 62.4445L46.7664 62.3779C46.3582 62.3298 46.0325 62.1075 45.8109 61.7945L45.6331 61.5445L45.4887 61.339L45.2776 61.3445L44.9831 61.3501C44.5838 61.3553 44.2233 61.1984 43.9553 60.9001L43.5664 60.4667C43.4739 60.3637 43.3788 60.2797 43.2831 60.2167L43.0553 60.0723L42.8609 59.939C42.8538 59.9399 42.8445 59.9419 42.8331 59.9445L42.1776 60.1001C41.5917 60.2347 41.1211 59.9073 40.8164 59.5779L40.4553 59.189L40.7998 58.8723L40.8887 58.6667L41.1776 58.0167L41.272 58.0556Z" fill="#0C151D"/>
<path d="M86.9057 58.0556L86.7724 58.1167L86.6724 58.2279L86.3168 58.6112C86.2832 58.6477 86.2547 58.6718 86.2335 58.689L85.9946 58.639L85.6668 58.5612C85.3976 58.4989 85.1091 58.4994 84.8335 58.6001L84.5668 58.7334L84.3391 58.8834L84.1113 59.0279C83.9061 59.163 83.7232 59.3303 83.5557 59.5167L83.3613 59.7334L83.1891 59.9223H82.9224L82.628 59.9167C82.2953 59.9124 82.0013 60.0298 81.7724 60.2334L81.5613 60.4667L81.3835 60.7223L81.2113 60.9667L80.9668 61.0001L80.6891 61.0279C80.3649 61.0664 80.0704 61.1981 79.8224 61.4112L79.6113 61.5945L79.4391 61.739L79.1335 61.7001L78.8168 61.6556L78.4891 61.6501C78.3767 61.6627 78.2624 61.6892 78.1502 61.739C78.0366 61.7897 77.9355 61.8572 77.8502 61.9334L77.6391 62.1834L77.4613 62.4445L77.3057 62.6779L77.0835 62.7001L76.8002 62.7223C76.6023 62.7383 76.4107 62.7656 76.2557 62.8056L76.1168 62.839L75.9724 62.8779C75.9077 62.8946 75.7004 62.9536 75.5446 63.1501C75.4538 63.2655 75.3958 63.4134 75.3891 63.5779C75.383 63.7337 75.426 63.8622 75.4668 63.9445C75.5406 64.0924 75.6477 64.1833 75.6946 64.2223C75.7544 64.272 75.8177 64.317 75.8724 64.3501L76.328 64.6279C76.5074 64.7365 76.6968 64.8332 76.8891 64.9167L77.378 65.1279C77.4189 65.1459 77.4684 65.1798 77.5224 65.2501L77.7002 65.4834L77.8835 65.7167C78.0558 65.941 78.2638 66.1334 78.5113 66.2723L78.7446 66.4001L78.9724 66.5334C79.264 66.6971 79.5864 66.7526 79.9057 66.7334L80.2168 66.7167L80.3891 66.7001L80.478 66.8723L80.6335 67.1556C80.7402 67.3503 80.9034 67.5389 81.1391 67.6556C81.3729 67.771 81.6165 67.7866 81.8335 67.7556L82.1557 67.7112L82.3502 67.6779L82.428 67.8167L82.5946 68.0834C82.8238 68.4496 83.1934 68.6793 83.6446 68.689L84.2335 68.7001C84.3212 68.702 84.3749 68.7229 84.4113 68.7445L84.6391 68.8779L84.8724 69.0167C85.0528 69.1242 85.2399 69.2186 85.4335 69.3001L85.6835 69.4056L85.928 69.5112C86.0405 69.5585 86.1492 69.6152 86.2502 69.689L86.6835 70.0112C86.752 70.0612 86.789 70.0848 86.8002 70.0945C86.8085 70.1018 86.7882 70.0875 86.7613 70.0556C86.7493 70.0413 86.707 69.9929 86.6724 69.9223C86.6544 69.8855 86.6316 69.8212 86.6168 69.739C86.6025 69.6587 86.6015 69.5414 86.6446 69.4056L87.0446 69.5445L86.878 70.2779L86.9668 70.3223L87.2057 69.8501L87.2113 70.3556L87.3224 70.3501L87.8113 70.3445L87.978 69.8779L87.9835 69.8556C88.0832 69.5739 87.9742 69.3435 87.9502 69.2945C87.9125 69.2183 87.8701 69.1627 87.8502 69.139C87.8064 69.0869 87.7595 69.045 87.7335 69.0223C87.6749 68.9713 87.5989 68.9171 87.5224 68.8612L87.3057 68.7001L87.0891 68.5445C86.8994 68.406 86.6938 68.2908 86.478 68.2001L86.2335 68.0945L85.9835 67.989C85.851 67.9332 85.7236 67.8681 85.6002 67.7945L85.3668 67.6556L85.1391 67.5223C84.8698 67.3617 84.573 67.2847 84.2668 67.2779L83.9668 67.2723L83.7668 67.2667L83.6335 67.0667L83.4724 66.8001C83.3551 66.6125 83.1811 66.442 82.9502 66.339C82.8377 66.2892 82.7231 66.2626 82.6113 66.2501L82.278 66.2556L81.9557 66.3001L81.8002 66.3223L81.7224 66.189L81.5668 65.9056L81.378 65.6445C81.301 65.5617 81.2127 65.4833 81.1057 65.4223C80.8904 65.2996 80.6574 65.2646 80.4391 65.2779L80.128 65.2945L79.8224 65.3112C79.7309 65.3168 79.6904 65.2991 79.6724 65.289L79.4391 65.1612L79.2057 65.0279C79.1433 64.9926 79.0787 64.9379 79.0113 64.8501L78.828 64.6167L78.6502 64.3834C78.4933 64.1792 78.295 64.0173 78.0668 63.8945C78.227 63.7911 78.365 63.6563 78.4724 63.4945L78.6446 63.2334L78.7502 63.0779L78.928 63.1056L79.2391 63.1501C79.6202 63.2055 80.0095 63.1237 80.328 62.8501L80.5391 62.6723L80.7502 62.489C80.7823 62.4616 80.8123 62.4499 80.8557 62.4445L81.4113 62.3779C81.8195 62.3298 82.1452 62.1075 82.3668 61.7945L82.5446 61.5445L82.6891 61.339L82.9002 61.3445L83.1946 61.3501C83.594 61.3553 83.9544 61.1984 84.2224 60.9001L84.6113 60.4667C84.7039 60.3637 84.799 60.2797 84.8946 60.2167L85.1224 60.0723L85.3168 59.939C85.3239 59.9399 85.3332 59.9419 85.3446 59.9445L86.0002 60.1001C86.586 60.2347 87.0567 59.9073 87.3613 59.5779L87.7224 59.189L87.378 58.8723L87.2891 58.6667L87.0002 58.0167L86.9057 58.0556Z" fill="#0C151D"/>
</svg>
