<svg width="128" height="128" viewBox="0 0 128 128" fill="none" xmlns="http://www.w3.org/2000/svg">
<path d="M41.2694 58.0581L41.4032 58.1177L41.5028 58.2251L41.8592 58.6118C41.8939 58.6494 41.9227 58.6747 41.9442 58.6919L42.1844 58.6372L42.5096 58.561C42.8234 58.4882 43.1645 58.498 43.4793 58.6558L43.6131 58.7329L44.0643 59.0298C44.2696 59.1649 44.4553 59.3286 44.6229 59.5151L44.8182 59.7319L44.992 59.9253L45.2577 59.9224L45.5516 59.9194L45.7147 59.9263C46.0339 59.9612 46.3081 60.1119 46.5155 60.3452L46.6141 60.4683L46.9676 60.9683L47.2088 60.9976L47.4862 61.0298C47.8111 61.068 48.1068 61.1971 48.3553 61.4106L48.7411 61.7427L49.0467 61.6997L49.3592 61.6538L49.5223 61.6401C49.6879 61.6364 49.8613 61.6643 50.0301 61.7397C50.199 61.8152 50.3355 61.9254 50.4432 62.0513L50.5409 62.1821L50.7157 62.4448L50.8739 62.6831L51.3758 62.7231C51.5742 62.7391 51.7645 62.7631 51.9198 62.8032L52.0623 62.8403L52.2039 62.8765C52.267 62.8928 52.4737 62.9501 52.6307 63.1479C52.7228 63.264 52.7844 63.4135 52.7909 63.5796C52.7968 63.7351 52.7535 63.8606 52.7127 63.9429C52.6391 64.0914 52.5325 64.1848 52.4852 64.2241C52.4255 64.2738 52.3621 64.315 52.3075 64.3481L51.8504 64.6255C51.6706 64.7344 51.4836 64.8308 51.2909 64.9146L51.0457 65.021L50.8016 65.1274C50.7603 65.1454 50.7116 65.1785 50.6571 65.2495L50.4764 65.4839L50.2967 65.7183C50.1244 65.9425 49.9154 66.131 49.6678 66.27L49.203 66.5317C48.9107 66.6958 48.5894 66.7525 48.2694 66.7329L47.9608 66.7144L47.7928 66.7036L47.7 66.8745L47.5448 67.1577C47.4381 67.3523 47.2754 67.5371 47.0399 67.6538C46.8048 67.7702 46.5597 67.7878 46.3416 67.7563L46.0194 67.7104L45.8319 67.6831L45.5829 68.0825C45.3538 68.4488 44.9862 68.6772 44.535 68.687L44.2391 68.6929L43.9432 68.6997C43.8555 68.7016 43.8028 68.721 43.7664 68.7427L43.3075 69.0161C43.1261 69.1243 42.9378 69.2194 42.743 69.3013L42.4959 69.4048L42.2498 69.5083C42.1371 69.5557 42.0298 69.616 41.9286 69.6899L41.7108 69.8491L41.493 70.0093C41.4245 70.0593 41.3899 70.0864 41.3788 70.0962C41.3708 70.1032 41.3913 70.087 41.4188 70.0542C41.4309 70.0398 41.4683 69.9935 41.5028 69.9233C41.5207 69.8867 41.5484 69.823 41.5633 69.7397C41.5777 69.6596 41.5829 69.5397 41.5399 69.4038L41.1327 69.5483L41.2997 70.2778L41.2108 70.3228L40.9725 69.855L40.9637 70.354L40.8582 70.3521L40.3661 70.3423L40.201 69.8784L40.1932 69.855C40.0935 69.5733 40.2024 69.3454 40.2264 69.2964C40.2642 69.2195 40.3078 69.1653 40.328 69.1411C40.3719 69.0887 40.4181 69.0467 40.4442 69.0239C40.5029 68.9727 40.5773 68.917 40.6541 68.8608L40.8719 68.7007L41.0897 68.5415C41.2793 68.403 41.4832 68.2884 41.6991 68.1978L42.1913 67.9907C42.325 67.9345 42.4544 67.8687 42.5789 67.7944L43.0379 67.521C43.3075 67.3602 43.6054 67.2845 43.912 67.2778L44.4149 67.2661L44.5418 67.064L44.7069 66.8003C44.8241 66.6127 44.9945 66.4443 45.2254 66.3413C45.3967 66.265 45.5715 66.2376 45.7372 66.2417L45.8993 66.2563L46.2225 66.3022L46.3788 66.3247L46.453 66.1909L46.6082 65.9077L46.6942 65.771C46.7892 65.6376 46.9132 65.5155 47.0731 65.4243C47.2347 65.3322 47.4057 65.287 47.5731 65.2759H47.7391L48.3563 65.313C48.4478 65.3186 48.4887 65.3016 48.5067 65.2915L48.9715 65.0298C49.0342 64.9946 49.1011 64.9402 49.1688 64.8521L49.3485 64.6177L49.5291 64.3833C49.6842 64.1814 49.8737 64.0126 50.0985 63.8901C49.943 63.7875 49.8109 63.6528 49.7059 63.4946L49.4305 63.0806L48.9403 63.1528C48.5589 63.2085 48.1691 63.1259 47.8504 62.8521L47.6395 62.6704L47.4286 62.4897C47.3956 62.4615 47.365 62.4472 47.3202 62.4419L46.7655 62.3774C46.3573 62.3294 46.033 62.1092 45.8114 61.7964L45.6327 61.5435L45.4891 61.3423L44.9823 61.3491C44.5829 61.3543 44.2229 61.1983 43.9549 60.8999L43.7606 60.6821L43.5653 60.4653C43.4727 60.3623 43.3777 60.2812 43.2821 60.2183L43.0565 60.0698L42.8622 59.9409C42.8545 59.9419 42.8439 59.9438 42.8309 59.9468L42.5057 60.022L42.1795 60.0981C41.5914 60.2344 41.1193 59.9062 40.8143 59.5757L40.4569 59.1899L40.7938 58.8794L40.8885 58.6665L41.1786 58.0171L41.2694 58.0581Z" fill="#0C151D"/>
<path d="M86.9079 58.0581L86.7741 58.1177L86.6745 58.2251L86.318 58.6118C86.2834 58.6494 86.2545 58.6747 86.2331 58.6919L85.9928 58.6372L85.6676 58.561C85.3539 58.4882 85.0128 58.498 84.6979 58.6558L84.5641 58.7329L84.1129 59.0298C83.9076 59.1649 83.7219 59.3286 83.5544 59.5151L83.359 59.7319L83.1852 59.9253L82.9196 59.9224L82.6256 59.9194L82.4626 59.9263C82.1433 59.9612 81.8691 60.1119 81.6618 60.3452L81.5631 60.4683L81.2096 60.9683L80.9684 60.9976L80.6911 61.0298C80.3661 61.068 80.0704 61.1971 79.8219 61.4106L79.4362 61.7427L79.1305 61.6997L78.818 61.6538L78.6549 61.6401C78.4894 61.6364 78.316 61.6643 78.1471 61.7397C77.9782 61.8152 77.8418 61.9254 77.734 62.0513L77.6364 62.1821L77.4616 62.4448L77.3034 62.6831L76.8014 62.7231C76.6031 62.7391 76.4128 62.7631 76.2575 62.8032L76.1149 62.8403L75.9733 62.8765C75.9102 62.8928 75.7035 62.9501 75.5465 63.1479C75.4545 63.264 75.3929 63.4135 75.3864 63.5796C75.3804 63.7351 75.4238 63.8606 75.4645 63.9429C75.5381 64.0914 75.6448 64.1848 75.692 64.2241C75.7518 64.2738 75.8151 64.315 75.8698 64.3481L76.3268 64.6255C76.5066 64.7344 76.6937 64.8308 76.8864 64.9146L77.1315 65.021L77.3756 65.1274C77.4169 65.1454 77.4656 65.1785 77.5202 65.2495L77.7008 65.4839L77.8805 65.7183C78.0528 65.9425 78.2618 66.131 78.5094 66.27L78.9743 66.5317C79.2666 66.6958 79.5878 66.7525 79.9079 66.7329L80.2165 66.7144L80.3844 66.7036L80.4772 66.8745L80.6325 67.1577C80.7391 67.3523 80.9018 67.5371 81.1374 67.6538C81.3724 67.7702 81.6176 67.7878 81.8356 67.7563L82.1579 67.7104L82.3454 67.6831L82.5944 68.0825C82.8235 68.4488 83.191 68.6772 83.6422 68.687L83.9381 68.6929L84.234 68.6997C84.3217 68.7016 84.3745 68.721 84.4108 68.7427L84.8698 69.0161C85.0512 69.1243 85.2395 69.2194 85.4342 69.3013L85.6813 69.4048L85.9274 69.5083C86.0402 69.5557 86.1474 69.616 86.2487 69.6899L86.4665 69.8491L86.6842 70.0093C86.7527 70.0593 86.7873 70.0864 86.7985 70.0962C86.8064 70.1032 86.7859 70.087 86.7585 70.0542C86.7464 70.0398 86.709 69.9935 86.6745 69.9233C86.6565 69.8867 86.6289 69.823 86.6139 69.7397C86.5996 69.6596 86.5944 69.5397 86.6374 69.4038L87.0446 69.5483L86.8776 70.2778L86.9665 70.3228L87.2047 69.855L87.2135 70.354L87.319 70.3521L87.8112 70.3423L87.9762 69.8784L87.984 69.855C88.0838 69.5733 87.9749 69.3454 87.9508 69.2964C87.9131 69.2195 87.8695 69.1653 87.8493 69.1411C87.8053 69.0887 87.7592 69.0467 87.7331 69.0239C87.6744 68.9727 87.6 68.917 87.5231 68.8608L87.3053 68.7007L87.0876 68.5415C86.8979 68.403 86.6941 68.2884 86.4782 68.1978L85.986 67.9907C85.8523 67.9345 85.7228 67.8687 85.5983 67.7944L85.1393 67.521C84.8697 67.3602 84.5719 67.2845 84.2653 67.2778L83.7624 67.2661L83.6354 67.064L83.4704 66.8003C83.3531 66.6127 83.1827 66.4443 82.9518 66.3413C82.7806 66.265 82.6057 66.2376 82.4401 66.2417L82.278 66.2563L81.9547 66.3022L81.7985 66.3247L81.7243 66.1909L81.569 65.9077L81.4831 65.771C81.3881 65.6376 81.264 65.5155 81.1042 65.4243C80.9426 65.3322 80.7716 65.287 80.6042 65.2759H80.4381L79.821 65.313C79.7295 65.3186 79.6886 65.3016 79.6706 65.2915L79.2057 65.0298C79.1431 64.9946 79.0762 64.9402 79.0085 64.8521L78.8288 64.6177L78.6481 64.3833C78.493 64.1814 78.3035 64.0126 78.0788 63.8901C78.2343 63.7875 78.3663 63.6528 78.4713 63.4946L78.7467 63.0806L79.237 63.1528C79.6184 63.2085 80.0082 63.1259 80.3268 62.8521L80.5378 62.6704L80.7487 62.4897C80.7816 62.4615 80.8122 62.4472 80.8571 62.4419L81.4118 62.3774C81.8199 62.3294 82.1443 62.1092 82.3659 61.7964L82.5446 61.5435L82.6881 61.3423L83.195 61.3491C83.5943 61.3543 83.9543 61.1983 84.2223 60.8999L84.4167 60.6821L84.612 60.4653C84.7045 60.3623 84.7995 60.2812 84.8952 60.2183L85.1208 60.0698L85.3151 59.9409C85.3228 59.9419 85.3333 59.9438 85.3463 59.9468L85.6715 60.022L85.9977 60.0981C86.5859 60.2344 87.058 59.9062 87.3629 59.5757L87.7204 59.1899L87.3835 58.8794L87.2887 58.6665L86.9987 58.0171L86.9079 58.0581Z" fill="#0C151D"/>
</svg>
