<svg width="128" height="128" viewBox="0 0 128 128" fill="none" xmlns="http://www.w3.org/2000/svg">
<path d="M47.5957 55.2108L48.2871 55.3771L48.3068 55.2951V55.2108H47.5957ZM47.4145 56.4442L46.7161 56.5783L47.4145 56.4442ZM47.4889 57.7775L46.7855 57.673L47.4889 57.7775ZM47.7705 59.5997L47.1081 59.3411L47.7705 59.5997ZM47.6837 59.822L48.3462 60.0806L47.6837 59.822ZM47.553 60.2664V60.9775H48.0224L48.2068 60.5459L47.553 60.2664ZM47.5957 60.1664H48.3068L46.9418 59.8869L47.5957 60.1664ZM47.5957 55.1108H46.8846V55.2108H47.5957H48.3068V55.1108H47.5957ZM47.5957 55.2108L46.9043 55.0446L46.7881 55.5279L47.4795 55.6942L48.1709 55.8604L48.2871 55.3771L47.5957 55.2108ZM47.4795 55.6942L46.7881 55.5279C46.7034 55.8802 46.653 56.2496 46.7161 56.5783L47.4145 56.4442L48.1128 56.31C48.1077 56.2832 48.1006 56.1526 48.1709 55.8604L47.4795 55.6942ZM47.4145 56.4442L46.7161 56.5783L46.7673 56.845L47.4657 56.7108L48.164 56.5767L48.1128 56.31L47.4145 56.4442ZM47.4657 56.7108L46.7673 56.845L46.8186 57.1116L47.5169 56.9775L48.2153 56.8434L48.164 56.5767L47.4657 56.7108ZM47.5169 56.9775L46.8186 57.1116C46.8377 57.2113 46.8397 57.3084 46.8251 57.4063L47.5285 57.5108L48.2319 57.6154C48.2702 57.3577 48.2644 57.0993 48.2153 56.8434L47.5169 56.9775ZM47.5285 57.5108L46.8251 57.4063L46.7855 57.673L47.4889 57.7775L48.1922 57.8821L48.2319 57.6154L47.5285 57.5108ZM47.4889 57.7775L46.7855 57.673L46.7458 57.9396L47.4492 58.0442L48.1526 58.1487L48.1922 57.8821L47.4889 57.7775ZM47.4492 58.0442L46.7458 57.9396C46.6989 58.2553 46.7447 58.5641 46.8658 58.8527L47.5215 58.5775L48.1772 58.3023C48.1491 58.2353 48.1467 58.1886 48.1526 58.1487L47.4492 58.0442ZM47.5215 58.5775L46.8658 58.8527L46.9777 59.1194L47.6334 58.8442L48.2891 58.569L48.1772 58.3023L47.5215 58.5775ZM47.6334 58.8442L46.9777 59.1194L47.0896 59.386L47.7453 59.1108L48.4011 58.8356L48.2891 58.569L47.6334 58.8442ZM47.7453 59.1108L47.0896 59.386C47.1008 59.4126 47.0981 59.4169 47.0974 59.4029C47.0971 59.3959 47.0973 59.386 47.0992 59.3742C47.1011 59.3623 47.1042 59.351 47.1081 59.3411L47.7705 59.5997L48.4329 59.8584C48.5717 59.5029 48.531 59.1454 48.4011 58.8356L47.7453 59.1108ZM47.7705 59.5997L47.1081 59.3411L47.0213 59.5633L47.6837 59.822L48.3462 60.0806L48.4329 59.8584L47.7705 59.5997ZM47.6837 59.822L47.0213 59.5633L46.9346 59.7855L47.597 60.0442L48.2594 60.3028L48.3462 60.0806L47.6837 59.822ZM47.597 60.0442L46.9346 59.7855C46.9043 59.8632 46.875 59.9423 46.8551 60.0101C46.8475 60.0359 46.8282 60.1023 46.8202 60.1804C46.8175 60.2067 46.8052 60.3204 46.8437 60.4564C46.8645 60.5303 46.9147 60.6624 47.0394 60.781C47.1807 60.9152 47.3604 60.9775 47.5316 60.9775V60.2664V59.5553C47.701 59.5553 47.8792 59.617 48.0192 59.7501C48.1427 59.8675 48.192 59.9979 48.2122 60.0694C48.2494 60.2008 48.2368 60.3076 48.2351 60.3246C48.2315 60.3605 48.2257 60.3862 48.2238 60.3946C48.2224 60.4004 48.2213 60.4046 48.2207 60.4072C48.22 60.4097 48.2195 60.4113 48.2194 60.4116C48.2193 60.412 48.22 60.4097 48.2219 60.4041C48.2237 60.3986 48.2263 60.3911 48.2298 60.3813C48.2369 60.3615 48.2466 60.3356 48.2594 60.3028L47.597 60.0442ZM47.5316 60.2664V60.9775H47.553V60.2664V59.5553H47.5316V60.2664ZM47.553 60.2664L48.2068 60.5459L48.2496 60.4459L47.5957 60.1664L46.9418 59.8869L46.8991 59.9869L47.553 60.2664ZM47.5957 60.1664H46.8846V60.2664H47.5957H48.3068V60.1664H47.5957Z" fill="#0C151D"/>
<path d="M42.332 55.2948L41.7072 55.6344L41.667 55.5603L41.6452 55.4789L42.332 55.2948ZM42.8263 56.4392L43.5356 56.3881L42.8263 56.4392ZM43.0995 57.7464L43.7519 57.4634L43.0995 57.7464ZM43.2991 59.5794L43.872 59.1582L43.2991 59.5794ZM43.4404 59.7716L42.8675 60.1929L43.4404 59.7716ZM43.6818 60.1671L43.8658 60.8539L43.4124 60.9754L43.1225 60.6063L43.6818 60.1671ZM43.6146 60.0815L42.9277 60.2656L44.1739 59.6423L43.6146 60.0815ZM42.3062 55.1982L42.993 55.0142L43.0189 55.1108L42.332 55.2948L41.6452 55.4789L41.6193 55.3823L42.3062 55.1982ZM42.332 55.2948L42.9568 54.9553L43.1942 55.3921L42.5694 55.7316L41.9446 56.0712L41.7072 55.6344L42.332 55.2948ZM42.5694 55.7316L43.1942 55.3921C43.3672 55.7104 43.5115 56.0542 43.5356 56.3881L42.8263 56.4392L42.117 56.4904C42.1151 56.4632 42.0881 56.3352 41.9446 56.0712L42.5694 55.7316ZM42.8263 56.4392L43.5356 56.3881L43.5551 56.6589L42.8458 56.7101L42.1366 56.7612L42.117 56.4904L42.8263 56.4392ZM42.8458 56.7101L43.5551 56.6589L43.5747 56.9297L42.8654 56.9809L42.1561 57.0321L42.1366 56.7612L42.8458 56.7101ZM42.8654 56.9809L43.5747 56.9297C43.582 57.0309 43.6052 57.1252 43.6446 57.216L42.9922 57.4991L42.3399 57.7821C42.2362 57.5432 42.1749 57.292 42.1561 57.0321L42.8654 56.9809ZM42.9922 57.4991L43.6446 57.216L43.7519 57.4634L43.0995 57.7464L42.4472 58.0294L42.3399 57.7821L42.9922 57.4991ZM43.0995 57.7464L43.7519 57.4634L43.8592 57.7107L43.2068 57.9937L42.5545 58.2767L42.4472 58.0294L43.0995 57.7464ZM43.2068 57.9937L43.8592 57.7107C43.9862 58.0035 44.0219 58.3136 43.9796 58.6237L43.2751 58.5276L42.5705 58.4315C42.5803 58.3595 42.5705 58.3137 42.5545 58.2767L43.2068 57.9937ZM43.2751 58.5276L43.9796 58.6237L43.9406 58.9102L43.236 58.8141L42.5314 58.718L42.5705 58.4315L43.2751 58.5276ZM43.236 58.8141L43.9406 58.9102L43.9015 59.1968L43.1969 59.1007L42.4923 59.0046L42.5314 58.718L43.236 58.8141ZM43.1969 59.1007L43.9015 59.1968C43.8976 59.2253 43.9013 59.2288 43.8983 59.2151C43.8969 59.2083 43.8941 59.1988 43.8892 59.1878C43.8843 59.1768 43.8783 59.1667 43.872 59.1582L43.2991 59.5794L42.7262 60.0007C42.5002 59.6933 42.4469 59.3374 42.4923 59.0046L43.1969 59.1007ZM43.2991 59.5794L43.872 59.1582L44.0133 59.3504L43.4404 59.7716L42.8675 60.1929L42.7262 60.0007L43.2991 59.5794ZM43.4404 59.7716L44.0133 59.3504L44.1547 59.5425L43.5818 59.9638L43.0089 60.3851L42.8675 60.1929L43.4404 59.7716ZM43.5818 59.9638L44.1547 59.5425C44.204 59.6097 44.2527 59.6785 44.2896 59.7389C44.3036 59.7619 44.3394 59.821 44.3673 59.8944C44.3767 59.9191 44.4181 60.0257 44.4161 60.167C44.4151 60.2438 44.4008 60.3844 44.311 60.5312C44.2093 60.6975 44.0518 60.8041 43.8865 60.8484L43.7024 60.1615L43.5184 59.4747C43.3548 59.5185 43.1986 59.6242 43.0978 59.789C43.0089 59.9344 42.995 60.0731 42.994 60.1474C42.9921 60.2839 43.0319 60.3838 43.038 60.3998C43.0508 60.4335 43.063 60.4569 43.067 60.4645C43.0698 60.4698 43.072 60.4736 43.0733 60.4758C43.0746 60.4782 43.0754 60.4795 43.0756 60.4798C43.0758 60.4802 43.0746 60.4782 43.0713 60.4732C43.0681 60.4684 43.0637 60.4618 43.0578 60.4532C43.0458 60.4359 43.0297 60.4134 43.0089 60.3851L43.5818 59.9638ZM43.7024 60.1615L43.8865 60.8484L43.8658 60.8539L43.6818 60.1671L43.4977 59.4802L43.5184 59.4747L43.7024 60.1615ZM43.6818 60.1671L43.1225 60.6063L43.0554 60.5207L43.6146 60.0815L44.1739 59.6423L44.2411 59.7279L43.6818 60.1671ZM43.6146 60.0815L44.3015 59.8975L44.3274 59.9941L43.6405 60.1781L42.9536 60.3622L42.9277 60.2656L43.6146 60.0815Z" fill="#0C151D"/>
<path d="M52.8589 55.2948L53.4837 55.6344L53.5239 55.5603L53.5458 55.4789L52.8589 55.2948ZM52.3646 56.4392L51.6553 56.3881L52.3646 56.4392ZM52.0914 57.7464L51.439 57.4634L52.0914 57.7464ZM51.8918 59.5794L51.3189 59.1582L51.8918 59.5794ZM51.7505 59.7716L52.3234 60.1929L51.7505 59.7716ZM51.5091 60.1671L51.3251 60.8539L51.7785 60.9754L52.0684 60.6063L51.5091 60.1671ZM51.5763 60.0815L52.2632 60.2656L51.017 59.6423L51.5763 60.0815ZM52.8848 55.1982L52.1979 55.0142L52.172 55.1108L52.8589 55.2948L53.5458 55.4789L53.5716 55.3823L52.8848 55.1982ZM52.8589 55.2948L52.2341 54.9553L51.9967 55.3921L52.6215 55.7316L53.2463 56.0712L53.4837 55.6344L52.8589 55.2948ZM52.6215 55.7316L51.9967 55.3921C51.8237 55.7104 51.6794 56.0542 51.6553 56.3881L52.3646 56.4392L53.0739 56.4904C53.0758 56.4632 53.1028 56.3352 53.2463 56.0712L52.6215 55.7316ZM52.3646 56.4392L51.6553 56.3881L51.6358 56.6589L52.3451 56.7101L53.0543 56.7612L53.0739 56.4904L52.3646 56.4392ZM52.3451 56.7101L51.6358 56.6589L51.6163 56.9297L52.3255 56.9809L53.0348 57.0321L53.0543 56.7612L52.3451 56.7101ZM52.3255 56.9809L51.6163 56.9297C51.609 57.0309 51.5857 57.1252 51.5463 57.216L52.1987 57.4991L52.851 57.7821C52.9547 57.5432 53.016 57.292 53.0348 57.0321L52.3255 56.9809ZM52.1987 57.4991L51.5463 57.216L51.439 57.4634L52.0914 57.7464L52.7437 58.0294L52.851 57.7821L52.1987 57.4991ZM52.0914 57.7464L51.439 57.4634L51.3317 57.7107L51.9841 57.9937L52.6364 58.2767L52.7437 58.0294L52.0914 57.7464ZM51.9841 57.9937L51.3317 57.7107C51.2047 58.0035 51.169 58.3136 51.2113 58.6237L51.9159 58.5276L52.6204 58.4315C52.6106 58.3595 52.6204 58.3137 52.6364 58.2767L51.9841 57.9937ZM51.9159 58.5276L51.2113 58.6237L51.2504 58.9102L51.9549 58.8141L52.6595 58.718L52.6204 58.4315L51.9159 58.5276ZM51.9549 58.8141L51.2504 58.9102L51.2894 59.1968L51.994 59.1007L52.6986 59.0046L52.6595 58.718L51.9549 58.8141ZM51.994 59.1007L51.2894 59.1968C51.2933 59.2253 51.2897 59.2288 51.2926 59.2151C51.2941 59.2083 51.2968 59.1988 51.3017 59.1878C51.3066 59.1768 51.3126 59.1667 51.3189 59.1582L51.8918 59.5794L52.4647 60.0007C52.6907 59.6933 52.744 59.3374 52.6986 59.0046L51.994 59.1007ZM51.8918 59.5794L51.3189 59.1582L51.1776 59.3504L51.7505 59.7716L52.3234 60.1929L52.4647 60.0007L51.8918 59.5794ZM51.7505 59.7716L51.1776 59.3504L51.0363 59.5425L51.6092 59.9638L52.1821 60.3851L52.3234 60.1929L51.7505 59.7716ZM51.6092 59.9638L51.0363 59.5425C50.9869 59.6097 50.9382 59.6785 50.9013 59.7389C50.8873 59.7619 50.8515 59.821 50.8236 59.8944C50.8142 59.9191 50.7729 60.0257 50.7748 60.167C50.7759 60.2438 50.7901 60.3844 50.8799 60.5312C50.9816 60.6975 51.1391 60.8041 51.3044 60.8484L51.4885 60.1615L51.6725 59.4747C51.8362 59.5185 51.9923 59.6242 52.0931 59.789C52.182 59.9344 52.1959 60.0731 52.1969 60.1474C52.1988 60.2839 52.1591 60.3838 52.153 60.3998C52.1402 60.4335 52.1279 60.4569 52.1239 60.4645C52.1211 60.4698 52.1189 60.4736 52.1176 60.4758C52.1163 60.4782 52.1155 60.4795 52.1153 60.4798C52.1151 60.4802 52.1163 60.4782 52.1196 60.4732C52.1228 60.4684 52.1272 60.4618 52.1331 60.4532C52.1451 60.4359 52.1612 60.4134 52.1821 60.3851L51.6092 59.9638ZM51.4885 60.1615L51.3044 60.8484L51.3251 60.8539L51.5091 60.1671L51.6932 59.4802L51.6725 59.4747L51.4885 60.1615ZM51.5091 60.1671L52.0684 60.6063L52.1356 60.5207L51.5763 60.0815L51.017 59.6423L50.9499 59.7279L51.5091 60.1671ZM51.5763 60.0815L50.8894 59.8975L50.8635 59.9941L51.5504 60.1781L52.2373 60.3622L52.2632 60.2656L51.5763 60.0815Z" fill="#0C151D"/>
<path d="M41.9831 69.37L41.4386 68.9126L41.3844 68.9772L41.3468 69.0526L41.9831 69.37ZM42.8421 67.8242L43.5269 68.0159L42.8421 67.8242ZM43.2243 67.1208L43.807 67.5283L43.2243 67.1208ZM43.5671 65.9012L44.2057 65.5884L44.0998 65.3722L43.8844 65.2648L43.5671 65.9012ZM43.6395 66.049L43.0008 66.3617L43.6336 67.654L44.2758 66.3664L43.6395 66.049ZM41.9385 69.4595L42.5748 69.7769L42.6195 69.6874L41.9831 69.37L41.3468 69.0526L41.3021 69.1421L41.9385 69.4595ZM41.9831 69.37L42.5276 69.8274L42.8473 69.4467L42.3028 68.9893L41.7583 68.532L41.4386 68.9126L41.9831 69.37ZM42.3028 68.9893L42.8473 69.4467C43.0804 69.1693 43.2903 68.8612 43.3806 68.5388L42.6958 68.3472L42.011 68.1556C42.0036 68.1819 41.9516 68.3019 41.7583 68.532L42.3028 68.9893ZM42.6958 68.3472L43.3806 68.5388L43.4537 68.2773L42.7689 68.0857L42.0841 67.8941L42.011 68.1556L42.6958 68.3472ZM42.7689 68.0857L43.4537 68.2773L43.5269 68.0159L42.8421 67.8242L42.1573 67.6326L42.0841 67.8941L42.7689 68.0857ZM42.8421 67.8242L43.5269 68.0159C43.5543 67.9181 43.5958 67.8304 43.6526 67.7493L43.0698 67.3418L42.487 66.9343C42.3377 67.1477 42.2275 67.3816 42.1573 67.6326L42.8421 67.8242ZM43.0698 67.3418L43.6526 67.7493L43.807 67.5283L43.2243 67.1208L42.6415 66.7133L42.487 66.9343L43.0698 67.3418ZM43.2243 67.1208L43.807 67.5283L43.9615 67.3074L43.3788 66.8999L42.796 66.4924L42.6415 66.7133L43.2243 67.1208ZM43.3788 66.8999L43.9615 67.3074C44.1337 67.0612 44.2551 66.7513 44.2201 66.3995L43.5124 66.4699L42.8048 66.5403C42.8033 66.5255 42.8035 66.5112 42.8049 66.4984C42.8063 66.4857 42.8087 66.4763 42.8104 66.4708C42.8137 66.4602 42.8135 66.4674 42.796 66.4924L43.3788 66.8999ZM43.5124 66.4699L44.2201 66.3995L44.1992 66.1904L43.4916 66.2609L42.784 66.3313L42.8048 66.5403L43.5124 66.4699ZM43.4916 66.2609L44.1992 66.1904L44.1784 65.9814L43.4708 66.0518L42.7632 66.1223L42.784 66.3313L43.4916 66.2609ZM43.4708 66.0518L44.1784 65.9814C44.1719 65.9153 44.184 65.9616 44.1658 66.0483C44.1608 66.0725 44.1223 66.2754 43.9234 66.4316C43.8052 66.5243 43.658 66.5776 43.5038 66.5795C43.3626 66.5812 43.2541 66.5397 43.1912 66.5083L43.5085 65.872L43.8259 65.2356C43.6661 65.1559 43.3408 65.0808 43.0451 65.3129C42.8332 65.4793 42.7852 65.7023 42.7739 65.7564C42.7431 65.903 42.7559 66.049 42.7632 66.1223L43.4708 66.0518ZM43.5085 65.872L43.1912 66.5083L43.2497 66.5375L43.5671 65.9012L43.8844 65.2648L43.8259 65.2356L43.5085 65.872ZM43.5671 65.9012L42.9284 66.2139L43.0008 66.3617L43.6395 66.049L44.2781 65.7363L44.2057 65.5884L43.5671 65.9012ZM43.6395 66.049L44.2758 66.3664L44.3204 66.2769L43.6841 65.9595L43.0477 65.6421L43.0031 65.7316L43.6395 66.049Z" fill="#0C151D"/>
<path d="M39.1829 67.1846L38.8192 66.5735L38.7468 66.6166L38.6864 66.6755L39.1829 67.1846ZM40.5027 66.0075L41.0863 66.4138L40.5027 66.0075ZM41.5814 64.9492L42.2727 65.1156L41.5814 64.9492ZM41.8201 64.4301L42.5261 64.345L42.4972 64.106L42.3292 63.9336L41.8201 64.4301ZM41.8398 64.5936L41.1338 64.6787L41.3061 66.1073L42.3363 65.1027L41.8398 64.5936ZM39.1113 67.2544L39.6078 67.7635L39.6794 67.6937L39.1829 67.1846L38.6864 66.6755L38.6148 66.7453L39.1113 67.2544ZM39.1829 67.1846L39.5466 67.7956L39.9738 67.5414L39.6101 66.9303L39.2464 66.3193L38.8192 66.5735L39.1829 67.1846ZM39.6101 66.9303L39.9738 67.5414C40.2851 67.3561 40.5848 67.1343 40.776 66.8595L40.1924 66.4532L39.6088 66.0469C39.5932 66.0694 39.5047 66.1656 39.2464 66.3193L39.6101 66.9303ZM40.1924 66.4532L40.776 66.8595L40.9312 66.6367L40.3476 66.2304L39.764 65.8241L39.6088 66.0469L40.1924 66.4532ZM40.3476 66.2304L40.9312 66.6367L41.0863 66.4138L40.5027 66.0075L39.9191 65.6012L39.764 65.8241L40.3476 66.2304ZM40.5027 66.0075L41.0863 66.4138C41.1443 66.3306 41.2124 66.2614 41.2927 66.2034L40.8765 65.6269L40.4602 65.0503C40.249 65.2028 40.068 65.3874 39.9191 65.6012L40.5027 66.0075ZM40.8765 65.6269L41.2927 66.2034L41.5113 66.0456L41.0951 65.4691L40.6788 64.8925L40.4602 65.0503L40.8765 65.6269ZM41.0951 65.4691L41.5113 66.0456L41.7299 65.8878L41.3136 65.3113L40.8974 64.7347L40.6788 64.8925L41.0951 65.4691ZM41.3136 65.3113L41.7299 65.8878C41.9734 65.712 42.1901 65.4593 42.2727 65.1156L41.5814 64.9492L40.89 64.7829C40.8935 64.7684 40.8983 64.755 40.9039 64.7433C40.9094 64.7318 40.9147 64.7237 40.9181 64.7191C40.9247 64.7101 40.9222 64.7168 40.8974 64.7347L41.3136 65.3113ZM41.5814 64.9492L42.2727 65.1156L42.3219 64.9113L41.6305 64.745L40.9391 64.5786L40.89 64.7829L41.5814 64.9492ZM41.6305 64.745L42.3219 64.9113L42.371 64.7071L41.6796 64.5407L40.9883 64.3744L40.9391 64.5786L41.6305 64.745ZM41.6796 64.5407L42.371 64.7071C42.3866 64.6425 42.3828 64.6902 42.3371 64.7661C42.3244 64.7872 42.2213 64.9662 41.982 65.0483C41.84 65.097 41.6834 65.0988 41.5372 65.0498C41.4033 65.005 41.3144 64.9301 41.2653 64.8798L41.7744 64.3833L42.2835 63.8868C42.1589 63.759 41.8764 63.581 41.5208 63.7029C41.266 63.7903 41.1472 63.985 41.1187 64.0324C41.0415 64.1607 41.0055 64.3028 40.9883 64.3744L41.6796 64.5407ZM41.7744 64.3833L41.2653 64.8798L41.311 64.9266L41.8201 64.4301L42.3292 63.9336L42.2835 63.8868L41.7744 64.3833ZM41.8201 64.4301L41.1141 64.5153L41.1338 64.6787L41.8398 64.5936L42.5458 64.5084L42.5261 64.345L41.8201 64.4301ZM41.8398 64.5936L42.3363 65.1027L42.4079 65.0328L41.9114 64.5237L41.4149 64.0146L41.3433 64.0845L41.8398 64.5936Z" fill="#0C151D"/>
<path d="M42.2554 58.7363C42.6267 58.6861 42.9707 58.787 43.2642 58.9727L43.5308 59.1406L43.7974 59.3096C43.8743 59.3582 43.9104 59.3568 43.9175 59.3564L44.4507 59.3311C44.5552 59.3261 44.6646 59.3046 44.7808 59.2637L45.314 59.0762C45.6338 58.9635 45.9688 58.9549 46.2944 59.0557L46.8276 59.2217C46.8938 59.2422 46.9501 59.2432 47.0073 59.2314L47.5405 59.1221C47.6937 59.0905 47.8483 59.05 48.0034 59.001L48.5366 58.833C48.7917 58.7524 49.0549 58.7164 49.3218 58.7305L49.5884 58.7441L49.855 58.7588C50.044 58.7687 50.2335 58.7828 50.4224 58.8018L50.689 58.8291L50.9556 58.8555C51.0845 58.8684 51.2132 58.8682 51.3423 58.8545L51.8755 58.7979C52.1112 58.7728 52.3475 58.7766 52.5825 58.8096L52.8501 58.8477L53.1167 58.8848C53.3402 58.9162 53.5611 58.9692 53.7788 59.043L54.0464 59.1338L54.313 59.2246C54.4567 59.2733 54.5985 59.3091 54.7378 59.333L55.0044 59.3789L55.271 59.4238C55.4865 59.4608 55.7248 59.5252 55.9292 59.6514L56.2046 59.8213C56.4512 59.9735 56.5894 60.2202 56.6167 60.4805C56.6397 60.7003 56.582 60.8958 56.5288 61.0303L56.4263 61.2881L56.3247 61.5459C56.2964 61.6175 56.2824 61.6958 56.2876 61.7891L56.3042 62.0771L56.3198 62.3652C56.3415 62.7512 56.2119 63.1075 55.9478 63.3896L55.5542 63.8105C55.4301 63.9431 55.3143 64.0725 55.2075 64.1982L55.0347 64.4014L54.8628 64.6045C54.8271 64.6466 54.7926 64.7076 54.769 64.8037L54.6284 65.3789C54.5534 65.6859 54.4059 65.964 54.1812 66.1934L53.7935 66.5889C53.6056 66.7806 53.3883 66.9359 53.146 67.0518L52.6421 67.292C52.453 67.3824 52.2617 67.463 52.0679 67.5322L51.812 67.623L51.5562 67.7148C51.4305 67.7598 51.3103 67.8167 51.1958 67.8857L50.9634 68.0254L50.731 68.166C50.4421 68.3401 50.1191 68.4107 49.7876 68.3809L49.23 68.3301C49.0557 68.3144 48.8889 68.3036 48.73 68.2979L48.4702 68.2891L48.2114 68.2793C48.1249 68.2762 48.0327 68.2884 47.9321 68.3203L47.6714 68.4023L47.4097 68.4854C47.1781 68.5589 46.9404 68.6024 46.6978 68.6152L46.1509 68.6445C45.8388 68.661 45.5377 68.5935 45.2622 68.4463L45.02 68.3174L44.7778 68.1875C44.6966 68.1441 44.6079 68.1164 44.5073 68.1045L43.9478 68.0381C43.6134 67.9986 43.3106 67.8602 43.063 67.6289L42.8608 67.4395L42.6577 67.25C42.5633 67.1619 42.4618 67.0877 42.353 67.0264L42.1147 66.8926L41.8765 66.7578C41.6313 66.6196 41.4215 66.4357 41.2534 66.21L40.9272 65.7725C40.7571 65.544 40.6422 65.2867 40.5786 65.0098L40.4624 64.5088L40.188 64.375L39.897 64.2344C39.5988 64.0902 39.3462 63.8599 39.2075 63.5361L39.1548 63.3916L39.0757 63.126L38.9966 62.8613C38.9062 62.558 38.9026 62.2471 38.9722 61.9434L39.0396 61.6523L39.106 61.3613C39.107 61.3567 39.1066 61.353 39.1069 61.3506L38.8062 60.8545C38.74 60.7454 38.6737 60.6184 38.6313 60.4814C38.5921 60.3545 38.548 60.1369 38.6284 59.8975L38.7046 59.6689C38.8231 59.3163 39.1221 59.1671 39.3403 59.125C39.528 59.0889 39.7067 59.1153 39.8286 59.1406L40.0952 59.1953L40.3618 59.251C40.3883 59.2565 40.4189 59.257 40.4722 59.2344L41.0054 59.0078C41.2371 58.9093 41.4769 58.8418 41.7222 58.8086L42.2554 58.7363Z" fill="white"/>
<path d="M49.322 58.731L49.5886 58.7447L49.8552 58.7593C50.0379 58.7689 50.2213 58.7823 50.404 58.8003L50.3513 59.0152L50.2858 59.2818C50.244 59.4508 50.2048 59.6197 50.1696 59.7886L50.1149 60.0552L50.0632 60.2984C50.066 60.304 50.0701 60.3123 50.0769 60.3228L50.2507 60.5894L50.4235 60.856C50.6691 61.2336 50.7115 61.6851 50.4919 62.106L50.3532 62.3726L50.2497 62.5699L50.3591 62.771L50.5036 63.0376C50.6455 63.2989 50.7335 63.584 50.7438 63.8863L50.7614 64.4195C50.7717 64.7213 50.7043 65.0108 50.5778 65.2798L50.4528 65.5464L50.3513 65.7622L50.4655 65.9839L50.6032 66.2505C50.7624 66.5588 50.8237 66.9042 50.7478 67.2593L50.6901 67.5259L50.6335 67.7925C50.6134 67.8862 50.6105 67.977 50.6247 68.0679L50.6472 68.2124C50.3803 68.352 50.0876 68.4084 49.7878 68.3814L49.2302 68.3306C49.056 68.3149 48.8891 68.3041 48.7302 68.2984L48.4704 68.2896L48.2116 68.2798C48.1252 68.2767 48.0328 68.2889 47.9323 68.3208L47.6716 68.4029L47.4099 68.4859C47.1784 68.5593 46.9404 68.6029 46.6979 68.6157L46.1511 68.645C45.8391 68.6615 45.5378 68.5939 45.2624 68.4468L45.0202 68.3179L44.778 68.188C44.7407 68.1681 44.7018 68.1515 44.6608 68.1382L44.6726 68.0669C44.7087 67.8372 44.7702 67.6108 44.8552 67.3892L45.0603 66.856C45.066 66.8409 45.066 66.8333 45.0661 66.8316C45.0662 66.8308 45.0669 66.8246 45.0622 66.8111L44.8767 66.2779C44.8008 66.0595 44.7461 65.8373 44.7136 65.6128L44.6745 65.3462L44.6364 65.0786C44.6137 64.9219 44.5837 64.7647 44.5466 64.607L44.4831 64.3404L44.4206 64.0738C44.3441 63.7484 44.3735 63.4226 44.4938 63.1167L44.7028 62.5835C44.7687 62.4161 44.8307 62.2485 44.8874 62.0816L44.9772 61.815L45.0681 61.5484C45.1 61.4541 45.1103 61.3693 45.1052 61.2896L45.0876 61.023L45.071 60.7564C45.057 60.5393 45.0607 60.3217 45.0827 60.105L45.1101 59.8384L45.1354 59.5816C45.1324 59.5734 45.124 59.5535 45.1022 59.523L44.9118 59.2564L44.8894 59.2251L45.3142 59.0767C45.6339 58.964 45.969 58.9555 46.2946 59.0562L46.8278 59.2222C46.8939 59.2426 46.9504 59.2436 47.0075 59.232L47.5407 59.1226C47.6938 59.0911 47.8486 59.0504 48.0036 59.0015L48.5368 58.8335C48.7918 58.753 49.0552 58.717 49.322 58.731Z" fill="#303A4B"/>
<path d="M80.7109 55.2108L80.0195 55.3771L79.9998 55.2951V55.2108H80.7109ZM80.8922 56.4442L81.5905 56.5783L80.8922 56.4442ZM80.8178 57.7775L81.5212 57.673L80.8178 57.7775ZM80.5361 59.5997L81.1986 59.3411L80.5361 59.5997ZM80.6229 59.822L79.9605 60.0806L80.6229 59.822ZM80.7537 60.2664V60.9775H80.2843L80.0998 60.5459L80.7537 60.2664ZM80.7109 60.1664H79.9998L81.3648 59.8869L80.7109 60.1664ZM80.7109 55.1108H81.422V55.2108H80.7109H79.9998V55.1108H80.7109ZM80.7109 55.2108L81.4023 55.0446L81.5186 55.5279L80.8272 55.6942L80.1358 55.8604L80.0195 55.3771L80.7109 55.2108ZM80.8272 55.6942L81.5186 55.5279C81.6033 55.8802 81.6537 56.2496 81.5905 56.5783L80.8922 56.4442L80.1938 56.31C80.199 56.2832 80.206 56.1526 80.1358 55.8604L80.8272 55.6942ZM80.8922 56.4442L81.5905 56.5783L81.5393 56.845L80.8409 56.7108L80.1426 56.5767L80.1938 56.31L80.8922 56.4442ZM80.8409 56.7108L81.5393 56.845L81.4881 57.1116L80.7897 56.9775L80.0914 56.8434L80.1426 56.5767L80.8409 56.7108ZM80.7897 56.9775L81.4881 57.1116C81.4689 57.2113 81.467 57.3084 81.4815 57.4063L80.7781 57.5108L80.0748 57.6154C80.0365 57.3577 80.0422 57.0993 80.0914 56.8434L80.7897 56.9775ZM80.7781 57.5108L81.4815 57.4063L81.5212 57.673L80.8178 57.7775L80.1144 57.8821L80.0748 57.6154L80.7781 57.5108ZM80.8178 57.7775L81.5212 57.673L81.5608 57.9396L80.8574 58.0442L80.154 58.1487L80.1144 57.8821L80.8178 57.7775ZM80.8574 58.0442L81.5608 57.9396C81.6077 58.2553 81.5619 58.5641 81.4408 58.8527L80.7851 58.5775L80.1294 58.3023C80.1575 58.2353 80.1599 58.1886 80.154 58.1487L80.8574 58.0442ZM80.7851 58.5775L81.4408 58.8527L81.3289 59.1194L80.6732 58.8442L80.0175 58.569L80.1294 58.3023L80.7851 58.5775ZM80.6732 58.8442L81.3289 59.1194L81.217 59.386L80.5613 59.1108L79.9056 58.8356L80.0175 58.569L80.6732 58.8442ZM80.5613 59.1108L81.217 59.386C81.2059 59.4126 81.2085 59.4169 81.2092 59.4029C81.2096 59.3959 81.2093 59.386 81.2075 59.3742C81.2056 59.3623 81.2024 59.351 81.1986 59.3411L80.5361 59.5997L79.8737 59.8584C79.735 59.5029 79.7756 59.1454 79.9056 58.8356L80.5613 59.1108ZM80.5361 59.5997L81.1986 59.3411L81.2853 59.5633L80.6229 59.822L79.9605 60.0806L79.8737 59.8584L80.5361 59.5997ZM80.6229 59.822L81.2853 59.5633L81.3721 59.7855L80.7097 60.0442L80.0472 60.3028L79.9605 60.0806L80.6229 59.822ZM80.7097 60.0442L81.3721 59.7855C81.4024 59.8632 81.4316 59.9423 81.4516 60.0101C81.4592 60.0359 81.4785 60.1023 81.4864 60.1804C81.4891 60.2067 81.5014 60.3204 81.463 60.4564C81.4421 60.5303 81.3919 60.6624 81.2672 60.781C81.1259 60.9152 80.9462 60.9775 80.7751 60.9775V60.2664V59.5553C80.6057 59.5553 80.4275 59.617 80.2874 59.7501C80.1639 59.8675 80.1147 59.9979 80.0944 60.0694C80.0573 60.2008 80.0698 60.3076 80.0715 60.3246C80.0752 60.3605 80.0809 60.3862 80.0829 60.3946C80.0842 60.4004 80.0853 60.4046 80.086 60.4072C80.0867 60.4097 80.0871 60.4113 80.0872 60.4116C80.0873 60.412 80.0867 60.4097 80.0848 60.4041C80.083 60.3986 80.0804 60.3911 80.0769 60.3813C80.0698 60.3615 80.0601 60.3356 80.0472 60.3028L80.7097 60.0442ZM80.7751 60.2664V60.9775H80.7537V60.2664V59.5553H80.7751V60.2664ZM80.7537 60.2664L80.0998 60.5459L80.0571 60.4459L80.7109 60.1664L81.3648 59.8869L81.4076 59.9869L80.7537 60.2664ZM80.7109 60.1664H81.422V60.2664H80.7109H79.9998V60.1664H80.7109Z" fill="#0C151D"/>
<path d="M85.9746 55.2948L86.5994 55.6344L86.6397 55.5603L86.6615 55.4789L85.9746 55.2948ZM85.4803 56.4392L84.7711 56.3881L85.4803 56.4392ZM85.2071 57.7464L84.5547 57.4634L85.2071 57.7464ZM85.0075 59.5794L84.4346 59.1582L85.0075 59.5794ZM84.8662 59.7716L85.4391 60.1929L84.8662 59.7716ZM84.6248 60.1671L84.4408 60.8539L84.8942 60.9754L85.1841 60.6063L84.6248 60.1671ZM84.692 60.0815L85.3789 60.2656L84.1327 59.6423L84.692 60.0815ZM86.0005 55.1982L85.3136 55.0142L85.2877 55.1108L85.9746 55.2948L86.6615 55.4789L86.6874 55.3823L86.0005 55.1982ZM85.9746 55.2948L85.3498 54.9553L85.1124 55.3921L85.7372 55.7316L86.3621 56.0712L86.5994 55.6344L85.9746 55.2948ZM85.7372 55.7316L85.1124 55.3921C84.9394 55.7104 84.7952 56.0542 84.7711 56.3881L85.4803 56.4392L86.1896 56.4904C86.1916 56.4632 86.2186 56.3352 86.3621 56.0712L85.7372 55.7316ZM85.4803 56.4392L84.7711 56.3881L84.7515 56.6589L85.4608 56.7101L86.1701 56.7612L86.1896 56.4904L85.4803 56.4392ZM85.4608 56.7101L84.7515 56.6589L84.732 56.9297L85.4413 56.9809L86.1505 57.0321L86.1701 56.7612L85.4608 56.7101ZM85.4413 56.9809L84.732 56.9297C84.7247 57.0309 84.7015 57.1252 84.6621 57.216L85.3144 57.4991L85.9668 57.7821C86.0704 57.5432 86.1318 57.292 86.1505 57.0321L85.4413 56.9809ZM85.3144 57.4991L84.6621 57.216L84.5547 57.4634L85.2071 57.7464L85.8595 58.0294L85.9668 57.7821L85.3144 57.4991ZM85.2071 57.7464L84.5547 57.4634L84.4474 57.7107L85.0998 57.9937L85.7522 58.2767L85.8595 58.0294L85.2071 57.7464ZM85.0998 57.9937L84.4474 57.7107C84.3204 58.0035 84.2847 58.3136 84.327 58.6237L85.0316 58.5276L85.7362 58.4315C85.7264 58.3595 85.7361 58.3137 85.7522 58.2767L85.0998 57.9937ZM85.0316 58.5276L84.327 58.6237L84.3661 58.9102L85.0707 58.8141L85.7753 58.718L85.7362 58.4315L85.0316 58.5276ZM85.0707 58.8141L84.3661 58.9102L84.4052 59.1968L85.1098 59.1007L85.8143 59.0046L85.7753 58.718L85.0707 58.8141ZM85.1098 59.1007L84.4052 59.1968C84.4091 59.2253 84.4054 59.2288 84.4083 59.2151C84.4098 59.2083 84.4126 59.1988 84.4174 59.1878C84.4223 59.1768 84.4283 59.1667 84.4346 59.1582L85.0075 59.5794L85.5804 60.0007C85.8065 59.6933 85.8597 59.3374 85.8143 59.0046L85.1098 59.1007ZM85.0075 59.5794L84.4346 59.1582L84.2933 59.3504L84.8662 59.7716L85.4391 60.1929L85.5804 60.0007L85.0075 59.5794ZM84.8662 59.7716L84.2933 59.3504L84.152 59.5425L84.7249 59.9638L85.2978 60.3851L85.4391 60.1929L84.8662 59.7716ZM84.7249 59.9638L84.152 59.5425C84.1026 59.6097 84.0539 59.6785 84.0171 59.7389C84.003 59.7619 83.9672 59.821 83.9393 59.8944C83.9299 59.9191 83.8886 60.0257 83.8905 60.167C83.8916 60.2438 83.9059 60.3844 83.9956 60.5312C84.0974 60.6975 84.2548 60.8041 84.4202 60.8484L84.6042 60.1615L84.7883 59.4747C84.9519 59.5185 85.108 59.6242 85.2089 59.789C85.2978 59.9344 85.3116 60.0731 85.3126 60.1474C85.3145 60.2839 85.2748 60.3838 85.2687 60.3998C85.2559 60.4335 85.2437 60.4569 85.2396 60.4645C85.2368 60.4698 85.2347 60.4736 85.2334 60.4758C85.232 60.4782 85.2312 60.4795 85.231 60.4798C85.2308 60.4802 85.232 60.4782 85.2353 60.4732C85.2385 60.4684 85.2429 60.4618 85.2489 60.4532C85.2608 60.4359 85.2769 60.4134 85.2978 60.3851L84.7249 59.9638ZM84.6042 60.1615L84.4202 60.8484L84.4408 60.8539L84.6248 60.1671L84.8089 59.4802L84.7883 59.4747L84.6042 60.1615ZM84.6248 60.1671L85.1841 60.6063L85.2513 60.5207L84.692 60.0815L84.1327 59.6423L84.0656 59.7279L84.6248 60.1671ZM84.692 60.0815L84.0051 59.8975L83.9793 59.9941L84.6661 60.1781L85.353 60.3622L85.3789 60.2656L84.692 60.0815Z" fill="#0C151D"/>
<path d="M75.4478 55.2948L74.8229 55.6344L74.7827 55.5603L74.7609 55.4789L75.4478 55.2948ZM75.942 56.4392L76.6513 56.3881L75.942 56.4392ZM76.2153 57.7464L76.8676 57.4634L76.2153 57.7464ZM76.4148 59.5794L76.9877 59.1582L76.4148 59.5794ZM76.5562 59.7716L75.9833 60.1929L76.5562 59.7716ZM76.7975 60.1671L76.9816 60.8539L76.5282 60.9754L76.2383 60.6063L76.7975 60.1671ZM76.7303 60.0815L76.0435 60.2656L77.2896 59.6423L76.7303 60.0815ZM75.4219 55.1982L76.1088 55.0142L76.1346 55.1108L75.4478 55.2948L74.7609 55.4789L74.735 55.3823L75.4219 55.1982ZM75.4478 55.2948L76.0726 54.9553L76.3099 55.3921L75.6851 55.7316L75.0603 56.0712L74.8229 55.6344L75.4478 55.2948ZM75.6851 55.7316L76.3099 55.3921C76.4829 55.7104 76.6272 56.0542 76.6513 56.3881L75.942 56.4392L75.2328 56.4904C75.2308 56.4632 75.2038 56.3352 75.0603 56.0712L75.6851 55.7316ZM75.942 56.4392L76.6513 56.3881L76.6708 56.6589L75.9616 56.7101L75.2523 56.7612L75.2328 56.4904L75.942 56.4392ZM75.9616 56.7101L76.6708 56.6589L76.6904 56.9297L75.9811 56.9809L75.2718 57.0321L75.2523 56.7612L75.9616 56.7101ZM75.9811 56.9809L76.6904 56.9297C76.6977 57.0309 76.7209 57.1252 76.7603 57.216L76.108 57.4991L75.4556 57.7821C75.3519 57.5432 75.2906 57.292 75.2718 57.0321L75.9811 56.9809ZM76.108 57.4991L76.7603 57.216L76.8676 57.4634L76.2153 57.7464L75.5629 58.0294L75.4556 57.7821L76.108 57.4991ZM76.2153 57.7464L76.8676 57.4634L76.9749 57.7107L76.3226 57.9937L75.6702 58.2767L75.5629 58.0294L76.2153 57.7464ZM76.3226 57.9937L76.9749 57.7107C77.102 58.0035 77.1377 58.3136 77.0954 58.6237L76.3908 58.5276L75.6862 58.4315C75.696 58.3595 75.6862 58.3137 75.6702 58.2767L76.3226 57.9937ZM76.3908 58.5276L77.0954 58.6237L77.0563 58.9102L76.3517 58.8141L75.6471 58.718L75.6862 58.4315L76.3908 58.5276ZM76.3517 58.8141L77.0563 58.9102L77.0172 59.1968L76.3126 59.1007L75.608 59.0046L75.6471 58.718L76.3517 58.8141ZM76.3126 59.1007L77.0172 59.1968C77.0133 59.2253 77.017 59.2288 77.0141 59.2151C77.0126 59.2083 77.0098 59.1988 77.0049 59.1878C77 59.1768 76.9941 59.1667 76.9877 59.1582L76.4148 59.5794L75.8419 60.0007C75.6159 59.6933 75.5626 59.3374 75.608 59.0046L76.3126 59.1007ZM76.4148 59.5794L76.9877 59.1582L77.1291 59.3504L76.5562 59.7716L75.9833 60.1929L75.8419 60.0007L76.4148 59.5794ZM76.5562 59.7716L77.1291 59.3504L77.2704 59.5425L76.6975 59.9638L76.1246 60.3851L75.9833 60.1929L76.5562 59.7716ZM76.6975 59.9638L77.2704 59.5425C77.3197 59.6097 77.3685 59.6785 77.4053 59.7389C77.4193 59.7619 77.4551 59.821 77.483 59.8944C77.4924 59.9191 77.5338 60.0257 77.5318 60.167C77.5308 60.2438 77.5165 60.3844 77.4267 60.5312C77.325 60.6975 77.1676 60.8041 77.0022 60.8484L76.8182 60.1615L76.6341 59.4747C76.4705 59.5185 76.3143 59.6242 76.2135 59.789C76.1246 59.9344 76.1108 60.0731 76.1097 60.1474C76.1079 60.2839 76.1476 60.3838 76.1537 60.3998C76.1665 60.4335 76.1787 60.4569 76.1828 60.4645C76.1855 60.4698 76.1877 60.4736 76.189 60.4758C76.1903 60.4782 76.1911 60.4795 76.1913 60.4798C76.1916 60.4802 76.1903 60.4782 76.1871 60.4732C76.1839 60.4684 76.1794 60.4618 76.1735 60.4532C76.1615 60.4359 76.1454 60.4134 76.1246 60.3851L76.6975 59.9638ZM76.8182 60.1615L77.0022 60.8484L76.9816 60.8539L76.7975 60.1671L76.6135 59.4802L76.6341 59.4747L76.8182 60.1615ZM76.7975 60.1671L76.2383 60.6063L76.1711 60.5207L76.7303 60.0815L77.2896 59.6423L77.3568 59.7279L76.7975 60.1671ZM76.7303 60.0815L77.4172 59.8975L77.4431 59.9941L76.7562 60.1781L76.0694 60.3622L76.0435 60.2656L76.7303 60.0815Z" fill="#0C151D"/>
<path d="M86.323 69.37L86.8676 68.9126L86.9218 68.9772L86.9594 69.0526L86.323 69.37ZM85.464 67.8242L84.7792 68.0159L85.464 67.8242ZM85.0819 67.1208L84.4991 67.5283L85.0819 67.1208ZM84.7391 65.9012L84.1004 65.5884L84.2063 65.3722L84.4217 65.2648L84.7391 65.9012ZM84.6667 66.049L85.3054 66.3617L84.6726 67.654L84.0303 66.3664L84.6667 66.049ZM86.3677 69.4595L85.7313 69.7769L85.6867 69.6874L86.323 69.37L86.9594 69.0526L87.004 69.1421L86.3677 69.4595ZM86.323 69.37L85.7785 69.8274L85.4588 69.4467L86.0033 68.9893L86.5478 68.532L86.8676 68.9126L86.323 69.37ZM86.0033 68.9893L85.4588 69.4467C85.2258 69.1693 85.0158 68.8612 84.9256 68.5388L85.6104 68.3472L86.2952 68.1556C86.3026 68.1819 86.3545 68.3019 86.5478 68.532L86.0033 68.9893ZM85.6104 68.3472L84.9256 68.5388L84.8524 68.2773L85.5372 68.0857L86.222 67.8941L86.2952 68.1556L85.6104 68.3472ZM85.5372 68.0857L84.8524 68.2773L84.7792 68.0159L85.464 67.8242L86.1488 67.6326L86.222 67.8941L85.5372 68.0857ZM85.464 67.8242L84.7792 68.0159C84.7519 67.9181 84.7103 67.8304 84.6536 67.7493L85.2364 67.3418L85.8191 66.9343C85.9684 67.1477 86.0786 67.3816 86.1488 67.6326L85.464 67.8242ZM85.2364 67.3418L84.6536 67.7493L84.4991 67.5283L85.0819 67.1208L85.6647 66.7133L85.8191 66.9343L85.2364 67.3418ZM85.0819 67.1208L84.4991 67.5283L84.3446 67.3074L84.9274 66.8999L85.5102 66.4924L85.6647 66.7133L85.0819 67.1208ZM84.9274 66.8999L84.3446 67.3074C84.1725 67.0612 84.0511 66.7513 84.0861 66.3995L84.7937 66.4699L85.5013 66.5403C85.5028 66.5255 85.5026 66.5112 85.5012 66.4984C85.4998 66.4857 85.4975 66.4763 85.4958 66.4708C85.4925 66.4602 85.4927 66.4674 85.5102 66.4924L84.9274 66.8999ZM84.7937 66.4699L84.0861 66.3995L84.1069 66.1904L84.8145 66.2609L85.5221 66.3313L85.5013 66.5403L84.7937 66.4699ZM84.8145 66.2609L84.1069 66.1904L84.1277 65.9814L84.8353 66.0518L85.5429 66.1223L85.5221 66.3313L84.8145 66.2609ZM84.8353 66.0518L84.1277 65.9814C84.1343 65.9153 84.1222 65.9616 84.1403 66.0483C84.1454 66.0725 84.1838 66.2754 84.3828 66.4316C84.5009 66.5243 84.6481 66.5776 84.8023 66.5795C84.9435 66.5812 85.0521 66.5397 85.115 66.5083L84.7976 65.872L84.4802 65.2356C84.64 65.1559 84.9654 65.0808 85.261 65.3129C85.4729 65.4793 85.5209 65.7023 85.5323 65.7564C85.563 65.903 85.5502 66.049 85.5429 66.1223L84.8353 66.0518ZM84.7976 65.872L85.115 66.5083L85.0565 66.5375L84.7391 65.9012L84.4217 65.2648L84.4802 65.2356L84.7976 65.872ZM84.7391 65.9012L85.3778 66.2139L85.3054 66.3617L84.6667 66.049L84.028 65.7363L84.1004 65.5884L84.7391 65.9012ZM84.6667 66.049L84.0303 66.3664L83.9857 66.2769L84.6221 65.9595L85.2584 65.6421L85.3031 65.7316L84.6667 66.049Z" fill="#0C151D"/>
<path d="M89.1237 67.1846L89.4874 66.5735L89.5598 66.6166L89.6202 66.6755L89.1237 67.1846ZM87.8039 66.0075L87.2203 66.4138L87.8039 66.0075ZM86.7253 64.9492L86.0339 65.1156L86.7253 64.9492ZM86.4866 64.4301L85.7806 64.345L85.8094 64.106L85.9775 63.9336L86.4866 64.4301ZM86.4668 64.5936L87.1728 64.6787L87.0005 66.1073L85.9704 65.1027L86.4668 64.5936ZM89.1953 67.2544L88.6988 67.7635L88.6272 67.6937L89.1237 67.1846L89.6202 66.6755L89.6918 66.7453L89.1953 67.2544ZM89.1237 67.1846L88.76 67.7956L88.3329 67.5414L88.6965 66.9303L89.0602 66.3193L89.4874 66.5735L89.1237 67.1846ZM88.6965 66.9303L88.3329 67.5414C88.0215 67.3561 87.7219 67.1343 87.5306 66.8595L88.1142 66.4532L88.6978 66.0469C88.7134 66.0694 88.802 66.1656 89.0602 66.3193L88.6965 66.9303ZM88.1142 66.4532L87.5306 66.8595L87.3755 66.6367L87.9591 66.2304L88.5427 65.8241L88.6978 66.0469L88.1142 66.4532ZM87.9591 66.2304L87.3755 66.6367L87.2203 66.4138L87.8039 66.0075L88.3875 65.6012L88.5427 65.8241L87.9591 66.2304ZM87.8039 66.0075L87.2203 66.4138C87.1623 66.3306 87.0942 66.2614 87.0139 66.2034L87.4302 65.6269L87.8464 65.0503C88.0576 65.2028 88.2386 65.3874 88.3875 65.6012L87.8039 66.0075ZM87.4302 65.6269L87.0139 66.2034L86.7953 66.0456L87.2116 65.4691L87.6278 64.8925L87.8464 65.0503L87.4302 65.6269ZM87.2116 65.4691L86.7953 66.0456L86.5768 65.8878L86.993 65.3113L87.4092 64.7347L87.6278 64.8925L87.2116 65.4691ZM86.993 65.3113L86.5768 65.8878C86.3332 65.712 86.1166 65.4593 86.0339 65.1156L86.7253 64.9492L87.4167 64.7829C87.4132 64.7684 87.4083 64.755 87.4028 64.7433C87.3973 64.7318 87.392 64.7237 87.3885 64.7191C87.3819 64.7101 87.3845 64.7168 87.4092 64.7347L86.993 65.3113ZM86.7253 64.9492L86.0339 65.1156L85.9848 64.9113L86.6761 64.745L87.3675 64.5786L87.4167 64.7829L86.7253 64.9492ZM86.6761 64.745L85.9848 64.9113L85.9356 64.7071L86.627 64.5407L87.3184 64.3744L87.3675 64.5786L86.6761 64.745ZM86.627 64.5407L85.9356 64.7071C85.9201 64.6425 85.9239 64.6902 85.9695 64.7661C85.9823 64.7872 86.0853 64.9662 86.3246 65.0483C86.4667 65.097 86.6232 65.0988 86.7695 65.0498C86.9034 65.005 86.9922 64.9301 87.0413 64.8798L86.5322 64.3833L86.0231 63.8868C86.1478 63.759 86.4303 63.581 86.7859 63.7029C87.0407 63.7903 87.1594 63.985 87.1879 64.0324C87.2652 64.1607 87.3012 64.3028 87.3184 64.3744L86.627 64.5407ZM86.5322 64.3833L87.0413 64.8798L86.9957 64.9266L86.4866 64.4301L85.9775 63.9336L86.0231 63.8868L86.5322 64.3833ZM86.4866 64.4301L87.1926 64.5153L87.1728 64.6787L86.4668 64.5936L85.7609 64.5084L85.7806 64.345L86.4866 64.4301ZM86.4668 64.5936L85.9704 65.1027L85.8988 65.0328L86.3953 64.5237L86.8917 64.0146L86.9633 64.0845L86.4668 64.5936Z" fill="#0C151D"/>
<path d="M86.0507 58.7365C85.6794 58.6862 85.3354 58.7872 85.0419 58.9728L84.7753 59.1408L84.5087 59.3097C84.4321 59.3582 84.3959 59.3569 84.3886 59.3566L83.8554 59.3312C83.7509 59.3262 83.6415 59.3047 83.5253 59.2638L82.9921 59.0763C82.6723 58.9636 82.3372 58.9551 82.0116 59.0558L81.4784 59.2218C81.4123 59.2423 81.3559 59.2433 81.2987 59.2316L80.7655 59.1222C80.6123 59.0907 80.4577 59.0501 80.3026 59.0011L79.7694 58.8332C79.5144 58.7526 79.2511 58.7166 78.9843 58.7306L78.7177 58.7443L78.4511 58.7589C78.2621 58.7689 78.0726 58.7829 77.8837 58.8019L77.6171 58.8293L77.3505 58.8556C77.2216 58.8686 77.0928 58.8683 76.9638 58.8546L76.4306 58.798C76.1949 58.773 75.9585 58.7768 75.7235 58.8097L75.456 58.8478L75.1894 58.8849C74.9659 58.9163 74.7449 58.9694 74.5273 59.0431L74.2597 59.1339L73.9931 59.2248C73.8495 59.2735 73.7076 59.3093 73.5683 59.3332L73.3017 59.3791L73.0351 59.424C72.8196 59.4609 72.5813 59.5254 72.3769 59.6515L72.1015 59.8214C71.855 59.9736 71.7167 60.2204 71.6894 60.4806C71.6663 60.7004 71.724 60.8959 71.7773 61.0304L71.8798 61.2882L71.9814 61.5461C72.0097 61.6177 72.0237 61.696 72.0185 61.7892L72.0019 62.0773L71.9862 62.3654C71.9646 62.7514 72.0942 63.1076 72.3583 63.3898L72.7519 63.8107C72.8759 63.9432 72.9918 64.0726 73.0985 64.1984L73.2714 64.4015L73.4433 64.6046C73.479 64.6468 73.5135 64.7078 73.537 64.8039L73.6776 65.3791C73.7526 65.686 73.9001 65.9641 74.1249 66.1935L74.5126 66.589C74.7005 66.7807 74.9178 66.9361 75.1601 67.0519L75.664 67.2921C75.8531 67.3825 76.0444 67.4631 76.2382 67.5324L76.494 67.6232L76.7499 67.715C76.8756 67.7599 76.9958 67.8169 77.1103 67.8859L77.3427 68.0255L77.5751 68.1662C77.8639 68.3403 78.187 68.4109 78.5185 68.381L79.0761 68.3302C79.2503 68.3145 79.4171 68.3038 79.5761 68.298L79.8358 68.2892L80.0946 68.2795C80.1811 68.2763 80.2734 68.2885 80.3739 68.3205L80.6347 68.4025L80.8964 68.4855C81.1279 68.559 81.3657 68.6026 81.6083 68.6154L82.1552 68.6447C82.4673 68.6611 82.7684 68.5936 83.0439 68.4464L83.286 68.3175L83.5282 68.1877C83.6094 68.1443 83.6982 68.1165 83.7987 68.1046L84.3583 68.0382C84.6927 67.9987 84.9955 67.8603 85.2431 67.6291L85.4452 67.4396L85.6483 67.2502C85.7427 67.1621 85.8443 67.0878 85.953 67.0265L86.1913 66.8927L86.4296 66.758C86.6747 66.6198 86.8846 66.4358 87.0526 66.2101L87.3788 65.7726C87.5489 65.5442 87.6639 65.2867 87.7274 65.0099L87.8437 64.5089L88.1181 64.3752L88.4091 64.2345C88.7072 64.0904 88.9599 63.86 89.0985 63.5363L89.1513 63.3918L89.2304 63.1261L89.3095 62.8615C89.3999 62.5582 89.4034 62.2472 89.3339 61.9435L89.2665 61.6525L89.2001 61.3615C89.1991 61.3569 89.1994 61.3532 89.1991 61.3507L89.4999 60.8546C89.566 60.7456 89.6324 60.6185 89.6747 60.4816C89.7139 60.3546 89.758 60.137 89.6776 59.8976L89.6015 59.6691C89.4829 59.3166 89.1839 59.1673 88.9657 59.1252C88.7781 59.0891 88.5994 59.1155 88.4774 59.1408L88.2108 59.1955L87.9442 59.2511C87.9177 59.2566 87.8871 59.2571 87.8339 59.2345L87.3007 59.008C87.069 58.9094 86.8292 58.842 86.5839 58.8087L86.0507 58.7365Z" fill="white"/>
<path d="M78.9844 58.73L78.7178 58.7437L78.4512 58.7583C78.2684 58.7679 78.085 58.7813 77.9023 58.7993L77.9551 59.0151L78.0205 59.2817C78.0624 59.4508 78.1016 59.6197 78.1367 59.7886L78.1914 60.0552L78.2432 60.2983C78.2404 60.304 78.2363 60.3123 78.2295 60.3228L78.0557 60.5894L77.8828 60.856C77.6372 61.2336 77.5949 61.685 77.8145 62.106L77.9531 62.3726L78.0566 62.5698L77.9473 62.771L77.8027 63.0376C77.6608 63.2989 77.5728 63.584 77.5625 63.8862L77.5449 64.4194C77.5346 64.7212 77.6021 65.0108 77.7285 65.2798L77.8535 65.5464L77.9551 65.7622L77.8408 65.9839L77.7031 66.2505C77.5439 66.5587 77.4826 66.9042 77.5586 67.2593L77.6162 67.5259L77.6729 67.7925C77.6929 67.8861 77.6958 67.9769 77.6816 68.0679L77.6592 68.2114C77.9261 68.3511 78.2187 68.4074 78.5186 68.3804L79.0762 68.3296C79.2503 68.3139 79.4173 68.3031 79.5762 68.2974L79.8359 68.2886L80.0947 68.2788C80.1812 68.2757 80.2736 68.2879 80.374 68.3198L80.6348 68.4019L80.8965 68.4849C81.128 68.5583 81.3659 68.6019 81.6084 68.6147L82.1553 68.644C82.4673 68.6605 82.7685 68.5929 83.0439 68.4458L83.2861 68.3169L83.5283 68.187C83.5656 68.1671 83.6047 68.1515 83.6455 68.1382L83.6338 68.0669C83.5976 67.8372 83.5361 67.6107 83.4512 67.3892L83.2461 66.856C83.2403 66.8409 83.2403 66.8333 83.2402 66.8315C83.2402 66.8308 83.2395 66.8246 83.2441 66.811L83.4297 66.2778C83.5056 66.0595 83.5603 65.8373 83.5928 65.6128L83.6318 65.3462L83.6699 65.0786C83.6926 64.9219 83.7227 64.7647 83.7598 64.6069L83.8232 64.3403L83.8857 64.0737C83.9623 63.7484 83.9328 63.4226 83.8125 63.1167L83.6035 62.5835C83.5377 62.4161 83.4756 62.2484 83.4189 62.0815L83.3291 61.8149L83.2383 61.5483C83.2063 61.4541 83.196 61.3693 83.2012 61.2896L83.2188 61.0229L83.2354 60.7563C83.2494 60.5393 83.2456 60.3217 83.2236 60.105L83.1963 59.8384L83.1709 59.5815C83.174 59.5734 83.1824 59.5534 83.2041 59.5229L83.3945 59.2563L83.417 59.2241L82.9922 59.0757C82.6725 58.963 82.3373 58.9545 82.0117 59.0552L81.4785 59.2212C81.4124 59.2417 81.3559 59.2427 81.2988 59.231L80.7656 59.1216C80.6125 59.09 80.4578 59.0495 80.3027 59.0005L79.7695 58.8325C79.5145 58.752 79.2511 58.716 78.9844 58.73Z" fill="#303A4B"/>
</svg>
