<svg width="128" height="128" viewBox="0 0 128 128" fill="none" xmlns="http://www.w3.org/2000/svg">
<path d="M86.0513 58.7363C85.68 58.6861 85.336 58.787 85.0425 58.9727L84.7759 59.1406L84.5093 59.3096C84.4323 59.3582 84.3963 59.3568 84.3892 59.3564L83.856 59.3311C83.7514 59.3261 83.6421 59.3046 83.5259 59.2637L82.9927 59.0762C82.6729 58.9635 82.3379 58.9549 82.0122 59.0557L81.479 59.2217C81.4128 59.2422 81.3565 59.2432 81.2993 59.2314L80.7661 59.1221C80.6129 59.0905 80.4583 59.05 80.3032 59.001L79.77 58.833C79.5149 58.7524 79.2517 58.7164 78.9849 58.7305L78.7183 58.7441L78.4517 58.7588C78.2626 58.7687 78.0732 58.7828 77.8843 58.8018L77.6177 58.8291L77.3511 58.8555C77.2221 58.8684 77.0934 58.8682 76.9644 58.8545L76.4312 58.7979C76.1954 58.7728 75.9591 58.7766 75.7241 58.8096L75.4565 58.8477L75.1899 58.8848C74.9665 58.9162 74.7455 58.9692 74.5278 59.043L74.2603 59.1338L73.9937 59.2246C73.85 59.2733 73.7082 59.3091 73.5688 59.333L73.3022 59.3789L73.0356 59.4238C72.8201 59.4608 72.5819 59.5252 72.3774 59.6514L72.1021 59.8213C71.8555 59.9735 71.7173 60.2202 71.6899 60.4805C71.6669 60.7003 71.7246 60.8958 71.7778 61.0303L71.8804 61.2881L71.9819 61.5459C72.0103 61.6175 72.0243 61.6958 72.019 61.7891L72.0024 62.0771L71.9868 62.3652C71.9652 62.7512 72.0947 63.1075 72.3589 63.3896L72.7524 63.8105C72.8765 63.9431 72.9924 64.0725 73.0991 64.1982L73.272 64.4014L73.4438 64.6045C73.4796 64.6466 73.5141 64.7076 73.5376 64.8037L73.6782 65.3789C73.7532 65.6859 73.9007 65.964 74.1255 66.1934L74.5132 66.5889C74.7011 66.7806 74.9184 66.9359 75.1606 67.0518L75.6646 67.292C75.8537 67.3824 76.045 67.463 76.2388 67.5322L76.4946 67.623L76.7505 67.7148C76.8762 67.7598 76.9963 67.8167 77.1108 67.8857L77.3433 68.0254L77.5757 68.166C77.8645 68.3401 78.1876 68.4107 78.519 68.3809L79.0767 68.3301C79.2509 68.3144 79.4177 68.3036 79.5767 68.2979L79.8364 68.2891L80.0952 68.2793C80.1818 68.2762 80.2739 68.2884 80.3745 68.3203L80.6353 68.4023L80.897 68.4854C81.1285 68.5589 81.3663 68.6024 81.6089 68.6152L82.1558 68.6445C82.4679 68.661 82.7689 68.5935 83.0444 68.4463L83.2866 68.3174L83.5288 68.1875C83.61 68.1441 83.6987 68.1164 83.7993 68.1045L84.3589 68.0381C84.6933 67.9986 84.996 67.8602 85.2437 67.6289L85.4458 67.4395L85.6489 67.25C85.7433 67.1619 85.8448 67.0877 85.9536 67.0264L86.1919 66.8926L86.4302 66.7578C86.6753 66.6196 86.8851 66.4357 87.0532 66.21L87.3794 65.7725C87.5495 65.544 87.6645 65.2867 87.728 65.0098L87.8442 64.5088L88.1187 64.375L88.4097 64.2344C88.7078 64.0902 88.9605 63.8599 89.0991 63.5361L89.1519 63.3916L89.231 63.126L89.3101 62.8613C89.4005 62.558 89.404 62.2471 89.3345 61.9434L89.2671 61.6523L89.2007 61.3613C89.1996 61.3567 89.2 61.353 89.1997 61.3506L89.5005 60.8545C89.5666 60.7454 89.6329 60.6184 89.6753 60.4814C89.7145 60.3545 89.7586 60.1369 89.6782 59.8975L89.6021 59.6689C89.4835 59.3163 89.1845 59.1671 88.9663 59.125C88.7786 59.0889 88.6 59.1153 88.478 59.1406L88.2114 59.1953L87.9448 59.251C87.9183 59.2565 87.8877 59.257 87.8345 59.2344L87.3013 59.0078C87.0695 58.9093 86.8298 58.8418 86.5845 58.8086L86.0513 58.7363Z" fill="white"/>
<path d="M78.9849 58.7305L78.7183 58.7441L78.4517 58.7588C78.2689 58.7684 78.0855 58.7818 77.9028 58.7998L77.9556 59.0156L78.021 59.2822C78.0629 59.4513 78.1021 59.6202 78.1372 59.7891L78.1919 60.0557L78.2437 60.2988C78.2409 60.3045 78.2368 60.3128 78.23 60.3232L78.0562 60.5898L77.8833 60.8564C77.6376 61.2342 77.5952 61.6854 77.8149 62.1064L77.9536 62.373L78.0571 62.5703L77.9478 62.7715L77.8032 63.0381C77.6613 63.2994 77.5733 63.5844 77.563 63.8867L77.5454 64.4199C77.5351 64.7218 77.6025 65.0113 77.729 65.2803L77.854 65.5469L77.9556 65.7627L77.8413 65.9844L77.7036 66.251C77.5444 66.5593 77.4831 66.9046 77.5591 67.2598L77.6167 67.5264L77.6733 67.793C77.6934 67.8866 77.6963 67.9774 77.6821 68.0684L77.6597 68.2119C77.9266 68.3516 78.2192 68.4079 78.519 68.3809L79.0767 68.3301C79.2508 68.3144 79.4178 68.3036 79.5767 68.2979L79.8364 68.2891L80.0952 68.2793C80.1817 68.2762 80.2741 68.2884 80.3745 68.3203L80.6353 68.4023L80.897 68.4854C81.1284 68.5588 81.3664 68.6024 81.6089 68.6152L82.1558 68.6445C82.4678 68.6609 82.769 68.5934 83.0444 68.4463L83.2866 68.3174L83.5288 68.1875C83.5661 68.1676 83.6052 68.1519 83.646 68.1387L83.6343 68.0674C83.5981 67.8377 83.5366 67.6112 83.4517 67.3896L83.2466 66.8564C83.2408 66.8413 83.2408 66.8338 83.2407 66.832C83.2407 66.8315 83.2398 66.8254 83.2446 66.8115L83.4302 66.2783C83.5061 66.06 83.5608 65.8378 83.5933 65.6133L83.6323 65.3467L83.6704 65.0791C83.6931 64.9224 83.7232 64.7651 83.7603 64.6074L83.8237 64.3408L83.8862 64.0742C83.9627 63.7489 83.9333 63.423 83.813 63.1172L83.604 62.584C83.5381 62.4165 83.4761 62.249 83.4194 62.082L83.3296 61.8154L83.2388 61.5488C83.2068 61.4546 83.1965 61.3698 83.2017 61.29L83.2192 61.0234L83.2358 60.7568C83.2498 60.5399 83.2461 60.323 83.2241 60.1064L83.1968 59.8389L83.1714 59.582C83.1745 59.5738 83.1829 59.5539 83.2046 59.5234L83.395 59.2568L83.4175 59.2246L82.9927 59.0762C82.673 58.9635 82.3378 58.955 82.0122 59.0557L81.479 59.2217C81.4129 59.2421 81.3564 59.2432 81.2993 59.2314L80.7661 59.1221C80.613 59.0905 80.4583 59.0499 80.3032 59.001L79.77 58.833C79.515 58.7524 79.2516 58.7165 78.9849 58.7305Z" fill="#303A4B"/>
<path d="M41.9488 58.737C42.3202 58.6867 42.6641 58.7877 42.9576 58.9733L43.2242 59.1413L43.4908 59.3102C43.5678 59.3589 43.6038 59.3574 43.6109 59.3571L44.1441 59.3317C44.2487 59.3267 44.358 59.3052 44.4742 59.2643L45.0074 59.0768C45.3272 58.9641 45.6622 58.9555 45.9879 59.0563L46.5211 59.2223C46.5873 59.2428 46.6436 59.2439 46.7008 59.2321L47.234 59.1227C47.3872 59.0912 47.5418 59.0506 47.6969 59.0016L48.2301 58.8337C48.4852 58.7531 48.7484 58.7171 49.0152 58.7311L49.2818 58.7448L49.5484 58.7594C49.7375 58.7694 49.9269 58.7834 50.1158 58.8024L50.3824 58.8298L50.649 58.8561C50.778 58.8691 50.9067 58.8689 51.0358 58.8551L51.569 58.7985C51.8047 58.7734 52.041 58.7773 52.276 58.8102L52.5436 58.8483L52.8102 58.8854C53.0336 58.9168 53.2546 58.9698 53.4723 59.0436L53.7399 59.1344L54.0065 59.2253C54.1501 59.274 54.2919 59.3098 54.4313 59.3337L54.6979 59.3796L54.9645 59.4245C55.18 59.4614 55.4182 59.5258 55.6227 59.652L55.8981 59.8219C56.1446 59.9742 56.2828 60.2209 56.3102 60.4811C56.3332 60.701 56.2755 60.8964 56.2223 61.0309L56.1197 61.2887L56.0182 61.5465C55.9898 61.6182 55.9758 61.6964 55.9811 61.7897L55.9977 62.0778L56.0133 62.3659C56.0349 62.7519 55.9054 63.1081 55.6412 63.3903L55.2477 63.8112C55.1236 63.9437 55.0077 64.0731 54.901 64.1989L54.7281 64.402L54.5563 64.6051C54.5205 64.6473 54.486 64.7083 54.4625 64.8044L54.3219 65.3796C54.2469 65.6865 54.0994 65.9646 53.8746 66.194L53.4869 66.5895C53.299 66.7812 53.0817 66.9366 52.8395 67.0524L52.3356 67.2926C52.1465 67.383 51.9551 67.4636 51.7613 67.5329L51.5055 67.6237L51.2496 67.7155C51.1239 67.7604 51.0038 67.8174 50.8893 67.8864L50.6568 68.026L50.4244 68.1667C50.1356 68.3408 49.8125 68.4114 49.4811 68.3815L48.9234 68.3307C48.7492 68.315 48.5824 68.3043 48.4234 68.2985L48.1637 68.2897L47.9049 68.2799C47.8183 68.2768 47.7262 68.289 47.6256 68.321L47.3649 68.403L47.1031 68.486C46.8716 68.5595 46.6338 68.6031 46.3912 68.6159L45.8443 68.6452C45.5322 68.6617 45.2312 68.5941 44.9557 68.4469L44.7135 68.318L44.4713 68.1882C44.3901 68.1448 44.3014 68.117 44.2008 68.1051L43.6412 68.0387C43.3068 67.9992 43.0041 67.8608 42.7565 67.6296L42.5543 67.4401L42.3512 67.2507C42.2568 67.1625 42.1553 67.0883 42.0465 67.027L41.8082 66.8932L41.5699 66.7585C41.3248 66.6203 41.115 66.4364 40.9469 66.2106L40.6207 65.7731C40.4506 65.5446 40.3356 65.2873 40.2721 65.0104L40.1559 64.5094L39.8815 64.3757L39.5904 64.235C39.2923 64.0909 39.0396 63.8606 38.901 63.5368L38.8483 63.3923L38.7691 63.1266L38.69 62.862C38.5996 62.5586 38.5961 62.2478 38.6656 61.944L38.733 61.653L38.7994 61.362C38.8005 61.3573 38.8001 61.3537 38.8004 61.3512L38.4996 60.8551C38.4335 60.746 38.3672 60.619 38.3248 60.4821C38.2856 60.3551 38.2415 60.1376 38.3219 59.8981L38.3981 59.6696C38.5166 59.317 38.8156 59.1678 39.0338 59.1257C39.2215 59.0896 39.4001 59.116 39.5221 59.1413L39.7887 59.196L40.0553 59.2516C40.0818 59.2571 40.1124 59.2576 40.1656 59.235L40.6988 59.0085C40.9306 58.9099 41.1703 58.8425 41.4156 58.8092L41.9488 58.737Z" fill="white"/>
<path d="M49.0146 58.731L49.2812 58.7446L49.5479 58.7593C49.7306 58.7689 49.914 58.7822 50.0967 58.8003L50.0439 59.0161L49.9785 59.2827C49.9366 59.4518 49.8974 59.6207 49.8623 59.7896L49.8076 60.0562L49.7559 60.2993C49.7587 60.305 49.7628 60.3133 49.7695 60.3237L49.9434 60.5903L50.1162 60.8569C50.3619 61.2347 50.4043 61.6859 50.1846 62.1069L50.0459 62.3735L49.9424 62.5708L50.0518 62.772L50.1963 63.0386C50.3382 63.2999 50.4262 63.5849 50.4365 63.8872L50.4541 64.4204C50.4644 64.7223 50.397 65.0117 50.2705 65.2808L50.1455 65.5474L50.0439 65.7632L50.1582 65.9849L50.2959 66.2515C50.4551 66.5598 50.5164 66.9051 50.4404 67.2603L50.3828 67.5269L50.3262 67.7935C50.3061 67.8871 50.3032 67.9779 50.3174 68.0688L50.3398 68.2124C50.0729 68.352 49.7803 68.4084 49.4805 68.3813L48.9229 68.3306C48.7487 68.3149 48.5817 68.3041 48.4229 68.2983L48.1631 68.2896L47.9043 68.2798C47.8178 68.2767 47.7255 68.2889 47.625 68.3208L47.3643 68.4028L47.1025 68.4858C46.8711 68.5593 46.6332 68.6029 46.3906 68.6157L45.8438 68.645C45.5317 68.6614 45.2305 68.5939 44.9551 68.4468L44.7129 68.3179L44.4707 68.188C44.4335 68.1681 44.3943 68.1524 44.3535 68.1392L44.3652 68.0679C44.4014 67.8381 44.4629 67.6117 44.5479 67.3901L44.7529 66.8569C44.7587 66.8418 44.7587 66.8343 44.7588 66.8325C44.7588 66.832 44.7597 66.8259 44.7549 66.812L44.5693 66.2788C44.4935 66.0605 44.4387 65.8382 44.4062 65.6138L44.3672 65.3472L44.3291 65.0796C44.3064 64.9229 44.2764 64.7656 44.2393 64.6079L44.1758 64.3413L44.1133 64.0747C44.0368 63.7494 44.0662 63.4235 44.1865 63.1177L44.3955 62.5845C44.4614 62.417 44.5234 62.2494 44.5801 62.0825L44.6699 61.8159L44.7607 61.5493C44.7927 61.455 44.803 61.3703 44.7979 61.2905L44.7803 61.0239L44.7637 60.7573C44.7497 60.5404 44.7534 60.3235 44.7754 60.1069L44.8027 59.8394L44.8281 59.5825C44.825 59.5743 44.8166 59.5544 44.7949 59.5239L44.6045 59.2573L44.582 59.2251L45.0068 59.0767C45.3265 58.964 45.6617 58.9555 45.9873 59.0562L46.5205 59.2222C46.5866 59.2426 46.6431 59.2436 46.7002 59.2319L47.2334 59.1226C47.3865 59.091 47.5413 59.0504 47.6963 59.0015L48.2295 58.8335C48.4845 58.7529 48.7479 58.717 49.0146 58.731Z" fill="#303A4B"/>
</svg>
