<svg width="128" height="128" viewBox="0 0 128 128" fill="none" xmlns="http://www.w3.org/2000/svg">
<path d="M50.2892 63.3835L50.5114 63.439C50.7047 63.4854 50.8878 63.5569 51.0614 63.6446H51.2003C51.5026 63.6446 51.7586 63.8342 51.8614 64.1002L51.9114 64.1502V64.4779C51.9114 64.563 51.8975 64.6956 51.8226 64.8335C51.7396 64.9846 51.6065 65.0947 51.4614 65.1557C51.2206 65.2566 51.0057 65.1974 50.9559 65.1835C50.815 65.1436 50.6873 65.0666 50.617 65.0224L50.5448 64.9779L50.467 64.9279C50.4136 64.8948 50.322 64.8568 50.1781 64.8224L49.9559 64.7668C49.948 64.7695 49.9318 64.778 49.9059 64.7946L49.6837 64.939C49.3575 65.1491 48.971 65.2554 48.5614 65.1779L48.3392 65.1335C48.2753 65.1215 48.2065 65.1235 48.1226 65.1557L47.9003 65.2446C47.4285 65.4248 46.9736 65.3033 46.617 65.0335L46.4614 64.9168V64.9224L46.3503 64.9835C46.1463 65.0995 45.9053 65.1689 45.6448 65.1502C45.3889 65.1316 45.166 65.0352 44.9837 64.9057L44.9114 64.8502L44.8114 64.939C44.6463 65.0804 44.4393 65.2033 44.1948 65.2557C43.9422 65.3097 43.6929 65.2797 43.467 65.1835L43.3559 65.1335L43.2448 65.089C43.0777 65.0177 42.9115 64.9619 42.7503 64.9224L42.5503 64.8724C42.5423 64.8768 42.5313 64.8842 42.517 64.8946L42.2948 65.0613C41.9668 65.3017 41.5592 65.432 41.117 65.3335L41.0059 65.3113L40.8948 65.2835C40.7613 65.2536 40.6294 65.2465 40.5003 65.2557L40.3892 65.2613L40.2726 65.2724C39.9715 65.2941 39.6751 65.2487 39.3892 65.1502L39.167 65.0724C39.0568 65.0345 38.9561 65.0247 38.8614 65.0335L38.6392 65.0557C38.4524 65.0731 38.2652 65.0947 38.0781 65.1224L37.967 65.139L37.8503 65.1557C37.5315 65.2026 37.1626 65.1688 36.7837 65.0946L36.6392 65.0668H36.6226C36.2298 65.0668 35.9114 64.7484 35.9114 64.3557C35.9114 63.963 36.2298 63.6446 36.6226 63.6446H36.7892L36.8614 63.6557L37.0559 63.6946C37.3805 63.7583 37.5635 63.7622 37.6448 63.7502L37.867 63.7168C38.0799 63.6852 38.2928 63.6589 38.5059 63.639L38.7281 63.6168C39.0339 63.5884 39.3378 63.6283 39.6281 63.7279L39.8503 63.8057C39.9651 63.8452 40.0731 63.8574 40.1726 63.8502L40.2837 63.8446L40.3948 63.8335C40.6661 63.8137 40.9391 63.8349 41.2059 63.8946L41.317 63.9224L41.4003 63.9446C41.4079 63.9415 41.4234 63.9309 41.4503 63.9113L41.5614 63.8335L41.6726 63.7502C41.9217 63.5675 42.219 63.4464 42.5392 63.4446L42.867 63.4835L43.0892 63.539C43.3289 63.5978 43.5666 63.6783 43.8003 63.7779L43.9114 63.8279L43.917 63.8335L43.9948 63.7613L44.1059 63.6668L44.4226 63.4668C44.5417 63.4114 44.6757 63.3718 44.8226 63.3613C45.1218 63.3403 45.3804 63.4442 45.5837 63.589L45.6948 63.6668L45.7337 63.7002L45.7559 63.6835L45.867 63.6224L46.2059 63.489C46.3267 63.4602 46.4558 63.4487 46.5892 63.4613C46.85 63.4862 47.0709 63.5975 47.2503 63.7335L47.3614 63.8168L47.4559 63.8946L47.5059 63.8724L47.617 63.8279C47.9336 63.707 48.2693 63.6754 48.6059 63.739L48.717 63.7557L48.8281 63.7779H48.8392C48.8479 63.7758 48.8722 63.7697 48.9114 63.7446L49.1337 63.6002C49.3857 63.4379 49.6735 63.3403 49.9781 63.3446L50.2892 63.3835Z" fill="#0C151D"/>
<path d="M90.467 63.3835L90.6892 63.439C90.8825 63.4854 91.0655 63.5569 91.2392 63.6446H91.3781C91.6804 63.6446 91.9363 63.8342 92.0392 64.1002L92.0892 64.1502V64.4779C92.0892 64.563 92.0753 64.6956 92.0003 64.8335C91.9173 64.9846 91.7842 65.0947 91.6392 65.1557C91.3983 65.2566 91.1834 65.1974 91.1336 65.1835C90.9927 65.1436 90.865 65.0666 90.7947 65.0224L90.7225 64.9779L90.6447 64.9279C90.5913 64.8948 90.4997 64.8568 90.3558 64.8224L90.1336 64.7668C90.1257 64.7695 90.1096 64.778 90.0836 64.7946L89.8614 64.939C89.5352 65.1491 89.1487 65.2554 88.7392 65.1779L88.517 65.1335C88.453 65.1215 88.3842 65.1235 88.3003 65.1557L88.0781 65.2446C87.6062 65.4248 87.1513 65.3033 86.7947 65.0335L86.6392 64.9168V64.9224L86.5281 64.9835C86.324 65.0995 86.083 65.1689 85.8225 65.1502C85.5666 65.1316 85.3437 65.0352 85.1614 64.9057L85.0892 64.8502L84.9892 64.939C84.824 65.0804 84.617 65.2033 84.3725 65.2557C84.1199 65.3097 83.8706 65.2797 83.6447 65.1835L83.5336 65.1335L83.4225 65.089C83.2554 65.0177 83.0892 64.9619 82.9281 64.9224L82.7281 64.8724C82.72 64.8768 82.709 64.8842 82.6947 64.8946L82.4725 65.0613C82.1445 65.3017 81.7369 65.432 81.2947 65.3335L81.1836 65.3113L81.0725 65.2835C80.939 65.2536 80.8071 65.2465 80.6781 65.2557L80.567 65.2613L80.4503 65.2724C80.1492 65.2941 79.8528 65.2487 79.567 65.1502L79.3447 65.0724C79.2345 65.0345 79.1339 65.0247 79.0392 65.0335L78.817 65.0557C78.6301 65.0731 78.443 65.0947 78.2558 65.1224L78.1447 65.139L78.0281 65.1557C77.7092 65.2026 77.3403 65.1688 76.9614 65.0946L76.817 65.0668H76.8003C76.4076 65.0668 76.0892 64.7484 76.0892 64.3557C76.0892 63.963 76.4076 63.6446 76.8003 63.6446H76.967L77.0392 63.6557L77.2336 63.6946C77.5582 63.7583 77.7412 63.7622 77.8225 63.7502L78.0447 63.7168C78.2576 63.6852 78.4705 63.6589 78.6836 63.639L78.9058 63.6168C79.2116 63.5884 79.5156 63.6283 79.8058 63.7279L80.0281 63.8057C80.1428 63.8452 80.2509 63.8574 80.3503 63.8502L80.4614 63.8446L80.5725 63.8335C80.8438 63.8137 81.1168 63.8349 81.3836 63.8946L81.4947 63.9224L81.5781 63.9446C81.5856 63.9415 81.6012 63.9309 81.6281 63.9113L81.7392 63.8335L81.8503 63.7502C82.0994 63.5675 82.3968 63.4464 82.717 63.4446L83.0447 63.4835L83.267 63.539C83.5067 63.5978 83.7443 63.6783 83.9781 63.7779L84.0892 63.8279L84.0947 63.8335L84.1725 63.7613L84.2836 63.6668L84.6003 63.4668C84.7194 63.4114 84.8534 63.3718 85.0003 63.3613C85.2995 63.3403 85.5581 63.4442 85.7614 63.589L85.8725 63.6668L85.9114 63.7002L85.9336 63.6835L86.0447 63.6224L86.3836 63.489C86.5045 63.4602 86.6335 63.4487 86.767 63.4613C87.0277 63.4862 87.2487 63.5975 87.4281 63.7335L87.5392 63.8168L87.6336 63.8946L87.6836 63.8724L87.7947 63.8279C88.1113 63.707 88.4471 63.6754 88.7836 63.739L88.8947 63.7557L89.0058 63.7779H89.017C89.0256 63.7758 89.0499 63.7697 89.0892 63.7446L89.3114 63.6002C89.5635 63.4379 89.8513 63.3403 90.1558 63.3446L90.467 63.3835Z" fill="#0C151D"/>
</svg>
