<svg width="128" height="128" viewBox="0 0 128 128" fill="none" xmlns="http://www.w3.org/2000/svg">
<path d="M47.2886 55.2108L47.98 55.3771L47.9997 55.2951V55.2108H47.2886ZM47.2098 56.9775L46.5114 57.1116L47.2098 56.9775ZM47.2899 60.0442L46.6274 59.7855L47.2899 60.0442ZM47.2458 60.2664V60.9775H47.7152L47.8997 60.5459L47.2458 60.2664ZM47.2886 60.1664H47.9997L46.6347 59.8869L47.2886 60.1664ZM47.2886 55.1108H46.5775V55.2108H47.2886H47.9997V55.1108H47.2886ZM47.2886 55.2108L46.5972 55.0446L46.4809 55.5279L47.1723 55.6942L47.8637 55.8604L47.98 55.3771L47.2886 55.2108ZM47.1723 55.6942L46.4809 55.5279C46.3962 55.8802 46.3458 56.2496 46.409 56.5783L47.1073 56.4442L47.8057 56.31C47.8005 56.2832 47.7935 56.1526 47.8637 55.8604L47.1723 55.6942ZM47.1073 56.4442L46.409 56.5783L46.4602 56.845L47.1586 56.7108L47.8569 56.5767L47.8057 56.31L47.1073 56.4442ZM47.1586 56.7108L46.4602 56.845L46.5114 57.1116L47.2098 56.9775L47.9081 56.8434L47.8569 56.5767L47.1586 56.7108ZM47.2098 56.9775L46.5114 57.1116C46.5306 57.2113 46.5325 57.3084 46.518 57.4063L47.2214 57.5108L47.9248 57.6154C47.9631 57.3577 47.9573 57.0993 47.9081 56.8434L47.2098 56.9775ZM47.2214 57.5108L46.518 57.4063L46.4784 57.673L47.1817 57.7775L47.8851 57.8821L47.9248 57.6154L47.2214 57.5108ZM47.1817 57.7775L46.4784 57.673L46.4387 57.9396L47.1421 58.0442L47.8455 58.1487L47.8851 57.8821L47.1817 57.7775ZM47.1421 58.0442L46.4387 57.9396C46.3918 58.2553 46.4376 58.5641 46.5587 58.8527L47.2144 58.5775L47.8701 58.3023C47.842 58.2353 47.8396 58.1886 47.8455 58.1487L47.1421 58.0442ZM47.2144 58.5775L46.5587 58.8527L46.6706 59.1194L47.3263 58.8442L47.982 58.569L47.8701 58.3023L47.2144 58.5775ZM47.3263 58.8442L46.6706 59.1194L46.7825 59.386L47.4382 59.1108L48.0939 58.8356L47.982 58.569L47.3263 58.8442ZM47.4382 59.1108L46.7825 59.386C46.7936 59.4126 46.791 59.417 46.7903 59.4029C46.7899 59.3959 46.7902 59.386 46.792 59.3742C46.7939 59.3623 46.7971 59.351 46.801 59.3411L47.4634 59.5997L48.1258 59.8584C48.2646 59.5029 48.2239 59.1454 48.0939 58.8356L47.4382 59.1108ZM47.4634 59.5997L46.801 59.3411L46.7142 59.5633L47.3766 59.822L48.039 60.0806L48.1258 59.8584L47.4634 59.5997ZM47.3766 59.822L46.7142 59.5633L46.6274 59.7855L47.2899 60.0442L47.9523 60.3028L48.039 60.0806L47.3766 59.822ZM47.2899 60.0442L46.6274 59.7855C46.5971 59.8632 46.5679 59.9423 46.5479 60.0101C46.5403 60.0359 46.521 60.1023 46.5131 60.1804C46.5104 60.2067 46.4981 60.3204 46.5365 60.4564C46.5574 60.5303 46.6076 60.6624 46.7323 60.781C46.8736 60.9152 47.0533 60.9775 47.2245 60.9775V60.2664V59.5553C47.3939 59.5553 47.5721 59.617 47.7121 59.7501C47.8356 59.8675 47.8849 59.9979 47.9051 60.0694C47.9422 60.2008 47.9297 60.3076 47.928 60.3246C47.9243 60.3605 47.9186 60.3862 47.9166 60.3946C47.9153 60.4004 47.9142 60.4046 47.9135 60.4072C47.9129 60.4097 47.9124 60.4113 47.9123 60.4116C47.9122 60.412 47.9129 60.4097 47.9147 60.4041C47.9166 60.3986 47.9191 60.3911 47.9226 60.3813C47.9297 60.3615 47.9395 60.3356 47.9523 60.3028L47.2899 60.0442ZM47.2245 60.2664V60.9775H47.2458V60.2664V59.5553H47.2245V60.2664ZM47.2458 60.2664L47.8997 60.5459L47.9425 60.4459L47.2886 60.1664L46.6347 59.8869L46.5919 59.9869L47.2458 60.2664ZM47.2886 60.1664H46.5775V60.2664H47.2886H47.9997V60.1664H47.2886Z" fill="#0C151D"/>
<path d="M42.0254 55.2948L41.4006 55.6344L41.3603 55.5603L41.3385 55.4789L42.0254 55.2948ZM42.5587 56.9809L43.268 56.9297L42.5587 56.9809ZM43.2751 59.9638L43.848 59.5425L43.2751 59.9638ZM43.3752 60.1671L43.5592 60.8539L43.1058 60.9754L42.8159 60.6063L43.3752 60.1671ZM43.308 60.0815L42.6211 60.2656L43.8673 59.6423L43.308 60.0815ZM41.9995 55.1982L42.6864 55.0142L42.7123 55.1108L42.0254 55.2948L41.3385 55.4789L41.3126 55.3823L41.9995 55.1982ZM42.0254 55.2948L42.6502 54.9553L42.8876 55.3921L42.2628 55.7316L41.6379 56.0712L41.4006 55.6344L42.0254 55.2948ZM42.2628 55.7316L42.8876 55.3921C43.0606 55.7104 43.2048 56.0542 43.2289 56.3881L42.5197 56.4392L41.8104 56.4904C41.8084 56.4632 41.7814 56.3352 41.6379 56.0712L42.2628 55.7316ZM42.5197 56.4392L43.2289 56.3881L43.2485 56.6589L42.5392 56.7101L41.8299 56.7612L41.8104 56.4904L42.5197 56.4392ZM42.5392 56.7101L43.2485 56.6589L43.268 56.9297L42.5587 56.9809L41.8495 57.0321L41.8299 56.7612L42.5392 56.7101ZM42.5587 56.9809L43.268 56.9297C43.2753 57.0309 43.2985 57.1252 43.3379 57.216L42.6856 57.4991L42.0332 57.7821C41.9296 57.5432 41.8682 57.292 41.8495 57.0321L42.5587 56.9809ZM42.6856 57.4991L43.3379 57.216L43.4453 57.4634L42.7929 57.7464L42.1405 58.0294L42.0332 57.7821L42.6856 57.4991ZM42.7929 57.7464L43.4453 57.4634L43.5526 57.7107L42.9002 57.9937L42.2478 58.2767L42.1405 58.0294L42.7929 57.7464ZM42.9002 57.9937L43.5526 57.7107C43.6796 58.0035 43.7153 58.3136 43.673 58.6237L42.9684 58.5276L42.2638 58.4315C42.2736 58.3595 42.2639 58.3137 42.2478 58.2767L42.9002 57.9937ZM42.9684 58.5276L43.673 58.6237L43.6339 58.9102L42.9293 58.8141L42.2247 58.718L42.2638 58.4315L42.9684 58.5276ZM42.9293 58.8141L43.6339 58.9102L43.5948 59.1968L42.8902 59.1007L42.1857 59.0046L42.2247 58.718L42.9293 58.8141ZM42.8902 59.1007L43.5948 59.1968C43.5909 59.2253 43.5946 59.2288 43.5917 59.2151C43.5902 59.2083 43.5874 59.1988 43.5826 59.1878C43.5777 59.1768 43.5717 59.1667 43.5654 59.1582L42.9925 59.5794L42.4196 60.0007C42.1935 59.6933 42.1403 59.3374 42.1857 59.0046L42.8902 59.1007ZM42.9925 59.5794L43.5654 59.1582L43.7067 59.3504L43.1338 59.7716L42.5609 60.1929L42.4196 60.0007L42.9925 59.5794ZM43.1338 59.7716L43.7067 59.3504L43.848 59.5425L43.2751 59.9638L42.7022 60.3851L42.5609 60.1929L43.1338 59.7716ZM43.2751 59.9638L43.848 59.5425C43.8974 59.6097 43.9461 59.6785 43.9829 59.7389C43.997 59.7619 44.0328 59.821 44.0607 59.8944C44.0701 59.9191 44.1114 60.0257 44.1095 60.167C44.1084 60.2438 44.0941 60.3844 44.0044 60.5312C43.9026 60.6975 43.7452 60.8041 43.5798 60.8484L43.3958 60.1615L43.2117 59.4747C43.0481 59.5185 42.892 59.6242 42.7911 59.789C42.7022 59.9344 42.6884 60.0731 42.6874 60.1474C42.6855 60.2839 42.7252 60.3838 42.7313 60.3998C42.7441 60.4335 42.7563 60.4569 42.7604 60.4645C42.7632 60.4698 42.7653 60.4736 42.7666 60.4758C42.768 60.4782 42.7688 60.4795 42.769 60.4798C42.7692 60.4802 42.768 60.4782 42.7647 60.4732C42.7615 60.4684 42.7571 60.4618 42.7511 60.4532C42.7392 60.4359 42.7231 60.4134 42.7022 60.3851L43.2751 59.9638ZM43.3958 60.1615L43.5798 60.8484L43.5592 60.8539L43.3752 60.1671L43.1911 59.4802L43.2117 59.4747L43.3958 60.1615ZM43.3752 60.1671L42.8159 60.6063L42.7487 60.5207L43.308 60.0815L43.8673 59.6423L43.9344 59.7279L43.3752 60.1671ZM43.308 60.0815L43.9949 59.8975L44.0207 59.9941L43.3339 60.1781L42.647 60.3622L42.6211 60.2656L43.308 60.0815Z" fill="#0C151D"/>
<path d="M52.5527 55.2948L53.1775 55.6344L53.2178 55.5603L53.2396 55.4789L52.5527 55.2948ZM52.0194 56.9809L51.3101 56.9297L52.0194 56.9809ZM51.303 59.9638L50.7301 59.5425L51.303 59.9638ZM51.203 60.1671L51.0189 60.8539L51.4723 60.9754L51.7622 60.6063L51.203 60.1671ZM51.2701 60.0815L51.957 60.2656L50.7109 59.6423L51.2701 60.0815ZM52.5786 55.1982L51.8917 55.0142L51.8659 55.1108L52.5527 55.2948L53.2396 55.4789L53.2655 55.3823L52.5786 55.1982ZM52.5527 55.2948L51.9279 54.9553L51.6906 55.3921L52.3154 55.7316L52.9402 56.0712L53.1775 55.6344L52.5527 55.2948ZM52.3154 55.7316L51.6906 55.3921C51.5176 55.7104 51.3733 56.0542 51.3492 56.3881L52.0585 56.4392L52.7677 56.4904C52.7697 56.4632 52.7967 56.3352 52.9402 56.0712L52.3154 55.7316ZM52.0585 56.4392L51.3492 56.3881L51.3297 56.6589L52.0389 56.7101L52.7482 56.7612L52.7677 56.4904L52.0585 56.4392ZM52.0389 56.7101L51.3297 56.6589L51.3101 56.9297L52.0194 56.9809L52.7286 57.0321L52.7482 56.7612L52.0389 56.7101ZM52.0194 56.9809L51.3101 56.9297C51.3028 57.0309 51.2796 57.1252 51.2402 57.216L51.8925 57.4991L52.5449 57.7821C52.6486 57.5432 52.7099 57.292 52.7286 57.0321L52.0194 56.9809ZM51.8925 57.4991L51.2402 57.216L51.1329 57.4634L51.7852 57.7464L52.4376 58.0294L52.5449 57.7821L51.8925 57.4991ZM51.7852 57.7464L51.1329 57.4634L51.0256 57.7107L51.6779 57.9937L52.3303 58.2767L52.4376 58.0294L51.7852 57.7464ZM51.6779 57.9937L51.0256 57.7107C50.8985 58.0035 50.8628 58.3136 50.9051 58.6237L51.6097 58.5276L52.3143 58.4315C52.3045 58.3595 52.3143 58.3137 52.3303 58.2767L51.6779 57.9937ZM51.6097 58.5276L50.9051 58.6237L50.9442 58.9102L51.6488 58.8141L52.3534 58.718L52.3143 58.4315L51.6097 58.5276ZM51.6488 58.8141L50.9442 58.9102L50.9833 59.1968L51.6879 59.1007L52.3925 59.0046L52.3534 58.718L51.6488 58.8141ZM51.6879 59.1007L50.9833 59.1968C50.9872 59.2253 50.9835 59.2288 50.9864 59.2151C50.9879 59.2083 50.9907 59.1988 50.9956 59.1878C51.0005 59.1768 51.0064 59.1667 51.0127 59.1582L51.5856 59.5794L52.1586 60.0007C52.3846 59.6933 52.4379 59.3374 52.3925 59.0046L51.6879 59.1007ZM51.5856 59.5794L51.0127 59.1582L50.8714 59.3504L51.4443 59.7716L52.0172 60.1929L52.1586 60.0007L51.5856 59.5794ZM51.4443 59.7716L50.8714 59.3504L50.7301 59.5425L51.303 59.9638L51.8759 60.3851L52.0172 60.1929L51.4443 59.7716ZM51.303 59.9638L50.7301 59.5425C50.6807 59.6097 50.632 59.6785 50.5952 59.7389C50.5812 59.7619 50.5454 59.821 50.5174 59.8944C50.508 59.9191 50.4667 60.0257 50.4687 60.167C50.4697 60.2438 50.484 60.3844 50.5738 60.5312C50.6755 60.6975 50.8329 60.8041 50.9983 60.8484L51.1823 60.1615L51.3664 59.4747C51.53 59.5185 51.6862 59.6242 51.787 59.789C51.8759 59.9344 51.8897 60.0731 51.8907 60.1474C51.8926 60.2839 51.8529 60.3838 51.8468 60.3998C51.834 60.4335 51.8218 60.4569 51.8177 60.4645C51.815 60.4698 51.8128 60.4736 51.8115 60.4758C51.8102 60.4782 51.8093 60.4795 51.8092 60.4798C51.8089 60.4802 51.8102 60.4782 51.8134 60.4732C51.8166 60.4684 51.8211 60.4618 51.827 60.4532C51.839 60.4359 51.855 60.4134 51.8759 60.3851L51.303 59.9638ZM51.1823 60.1615L50.9983 60.8484L51.0189 60.8539L51.203 60.1671L51.387 59.4802L51.3664 59.4747L51.1823 60.1615ZM51.203 60.1671L51.7622 60.6063L51.8294 60.5207L51.2701 60.0815L50.7109 59.6423L50.6437 59.7279L51.203 60.1671ZM51.2701 60.0815L50.5833 59.8975L50.5574 59.9941L51.2443 60.1781L51.9311 60.3622L51.957 60.2656L51.2701 60.0815Z" fill="#0C151D"/>
<path d="M41.9487 58.7373C42.3201 58.687 42.664 58.7879 42.9575 58.9736L43.2241 59.1416L43.4907 59.3105C43.5675 59.3591 43.6037 59.3578 43.6108 59.3574L44.144 59.332C44.2485 59.3271 44.358 59.3055 44.4741 59.2646L45.0073 59.0771C45.3271 58.9644 45.6621 58.9559 45.9878 59.0566L46.521 59.2227C46.5871 59.2431 46.6435 59.2442 46.7007 59.2324L47.2339 59.123C47.3871 59.0915 47.5417 59.0509 47.6968 59.002L48.23 58.834C48.4851 58.7534 48.7483 58.7174 49.0151 58.7314L49.2817 58.7451L49.5483 58.7598C49.7374 58.7697 49.9268 58.7837 50.1157 58.8027L50.3823 58.8301L50.6489 58.8564C50.7779 58.8694 50.9066 58.8692 51.0356 58.8555L51.5688 58.7988C51.8046 58.7738 52.0409 58.7776 52.2759 58.8105L52.5435 58.8486L52.8101 58.8857C53.0335 58.9171 53.2545 58.9701 53.4722 59.0439L53.7397 59.1348L54.0063 59.2256C54.15 59.2743 54.2918 59.3101 54.4312 59.334L54.6978 59.3799L54.9644 59.4248C55.1799 59.4617 55.4181 59.5261 55.6226 59.6523L55.8979 59.8223C56.1445 59.9745 56.2827 60.2212 56.3101 60.4814C56.333 60.7012 56.2754 60.8968 56.2222 61.0312L56.1196 61.2891L56.0181 61.5469C55.9898 61.6184 55.9757 61.6969 55.981 61.79L55.9976 62.0781L56.0132 62.3662C56.0348 62.7521 55.9052 63.1085 55.6411 63.3906L55.2476 63.8115C55.1235 63.944 55.0076 64.0735 54.9009 64.1992L54.728 64.4023L54.5562 64.6055C54.5205 64.6476 54.4859 64.7088 54.4624 64.8047L54.3218 65.3799C54.2468 65.6867 54.0992 65.965 53.8745 66.1943L53.4868 66.5898C53.299 66.7815 53.0815 66.937 52.8394 67.0527L52.3354 67.293C52.1464 67.3833 51.955 67.464 51.7612 67.5332L51.5054 67.624L51.2495 67.7158C51.1239 67.7607 51.0036 67.8177 50.8892 67.8867L50.6567 68.0264L50.4243 68.167C50.1355 68.341 49.8124 68.4117 49.481 68.3818L48.9233 68.3311C48.7491 68.3154 48.5823 68.3046 48.4233 68.2988L48.1636 68.29L47.9048 68.2803C47.8182 68.2772 47.7261 68.2893 47.6255 68.3213L47.3647 68.4033L47.103 68.4863C46.8715 68.5598 46.6337 68.6034 46.3911 68.6162L45.8442 68.6455C45.5321 68.662 45.231 68.5944 44.9556 68.4473L44.7134 68.3184L44.4712 68.1885C44.3899 68.1451 44.3013 68.1173 44.2007 68.1055L43.6411 68.0391C43.3067 67.9995 43.004 67.8611 42.7563 67.6299L42.5542 67.4404L42.3511 67.251C42.2567 67.1628 42.1552 67.0886 42.0464 67.0273L41.8081 66.8936L41.5698 66.7588C41.3247 66.6206 41.1149 66.4367 40.9468 66.2109L40.6206 65.7734C40.4505 65.545 40.3355 65.2876 40.272 65.0107L40.1558 64.5098L39.8813 64.376L39.5903 64.2354C39.2922 64.0912 39.0396 63.8608 38.9009 63.5371L38.8481 63.3926L38.769 63.127L38.6899 62.8623C38.5995 62.559 38.596 62.248 38.6655 61.9443L38.7329 61.6533L38.7993 61.3623C38.8003 61.3578 38.8 61.354 38.8003 61.3516L38.4995 60.8555C38.4334 60.7464 38.3671 60.6193 38.3247 60.4824C38.2855 60.3555 38.2415 60.1378 38.3218 59.8984L38.3979 59.6699C38.5165 59.3173 38.8155 59.1681 39.0337 59.126C39.2214 59.0899 39.4 59.1163 39.522 59.1416L39.7886 59.1963L40.0552 59.252C40.0817 59.2575 40.1123 59.2579 40.1655 59.2354L40.6987 59.0088C40.9304 58.9103 41.1702 58.8428 41.4155 58.8096L41.9487 58.7373Z" fill="white"/>
<path d="M49.0161 58.7324L49.2827 58.7432L49.5493 58.7598C49.7313 58.7694 49.9152 58.7846 50.0972 58.8027L50.0444 59.0156L49.979 59.2822C49.9371 59.4513 49.8979 59.6203 49.8628 59.7891L49.8081 60.0557L49.7563 60.2988C49.7592 60.3045 49.7632 60.3128 49.77 60.3232L49.9438 60.5898L50.1167 60.8564C50.3623 61.2341 50.4046 61.6855 50.1851 62.1064L50.0464 62.373L49.9429 62.5703L50.0522 62.7715L50.1968 63.0381C50.3387 63.2994 50.4267 63.5845 50.437 63.8867L50.4546 64.4199C50.4649 64.7217 50.3974 65.0113 50.271 65.2803L50.146 65.5469L50.0444 65.7627L50.1587 65.9844L50.2964 66.251C50.4556 66.5592 50.5169 66.9047 50.4409 67.2598L50.3833 67.5264L50.3267 67.793C50.3066 67.8866 50.3037 67.9775 50.3179 68.0684L50.3394 68.21C50.073 68.3499 49.7823 68.4085 49.4829 68.3818L49.1997 68.3545L48.9224 68.332C48.7486 68.3164 48.5809 68.3046 48.4224 68.2988L48.1665 68.2881L47.9058 68.2822C47.8197 68.2791 47.7274 68.2897 47.6274 68.3213L47.105 68.4873C46.8733 68.5609 46.6309 68.6024 46.3882 68.6152L46.1167 68.6318L45.8442 68.6436C45.5324 68.66 45.2308 68.5961 44.9556 68.4492L44.7104 68.3154L44.4722 68.1875C44.4349 68.1676 44.3953 68.152 44.354 68.1387L44.3657 68.0674C44.4019 67.8377 44.4634 67.6112 44.5483 67.3896L44.7534 66.8564C44.7591 66.8415 44.7592 66.8338 44.7593 66.832C44.7594 66.8308 44.7598 66.8244 44.7554 66.8115L44.5698 66.2783C44.4939 66.06 44.4392 65.8378 44.4067 65.6133L44.3677 65.3467L44.3296 65.0791C44.3069 64.9224 44.2768 64.7651 44.2397 64.6074L44.1763 64.3408L44.1138 64.0742C44.0373 63.7489 44.0667 63.423 44.187 63.1172L44.396 62.584C44.4618 62.4166 44.5239 62.2489 44.5806 62.082L44.6704 61.8154L44.7612 61.5488C44.7931 61.4547 44.8035 61.3697 44.7983 61.29L44.7808 61.0234L44.7642 60.7568C44.7502 60.54 44.7539 60.3229 44.7759 60.1064L44.8032 59.8389L44.8286 59.582C44.8255 59.5738 44.8171 59.5539 44.7954 59.5234L44.605 59.2568L44.5825 59.2256L45.0054 59.0762C45.3251 58.9635 45.6632 58.954 45.9888 59.0547L46.522 59.2207C46.5876 59.2409 46.643 59.2439 46.6997 59.2324L47.2329 59.1211C47.385 59.0898 47.5398 59.0534 47.6938 59.0049L47.9604 58.915L48.2271 58.832C48.4821 58.7515 48.7494 58.7184 49.0161 58.7324Z" fill="#303A4B"/>
<path d="M80.7114 55.2108L80.02 55.3771L80.0003 55.2951V55.2108H80.7114ZM80.7902 56.9775L81.4886 57.1116L80.7902 56.9775ZM80.7101 60.0442L81.3726 59.7855L80.7101 60.0442ZM80.7542 60.2664V60.9775H80.2848L80.1003 60.5459L80.7542 60.2664ZM80.7114 60.1664H80.0003L81.3653 59.8869L80.7114 60.1664ZM80.7114 55.1108H81.4225V55.2108H80.7114H80.0003V55.1108H80.7114ZM80.7114 55.2108L81.4028 55.0446L81.5191 55.5279L80.8277 55.6942L80.1363 55.8604L80.02 55.3771L80.7114 55.2108ZM80.8277 55.6942L81.5191 55.5279C81.6038 55.8802 81.6542 56.2496 81.591 56.5783L80.8927 56.4442L80.1943 56.31C80.1995 56.2832 80.2065 56.1526 80.1363 55.8604L80.8277 55.6942ZM80.8927 56.4442L81.591 56.5783L81.5398 56.845L80.8414 56.7108L80.1431 56.5767L80.1943 56.31L80.8927 56.4442ZM80.8414 56.7108L81.5398 56.845L81.4886 57.1116L80.7902 56.9775L80.0919 56.8434L80.1431 56.5767L80.8414 56.7108ZM80.7902 56.9775L81.4886 57.1116C81.4694 57.2113 81.4675 57.3084 81.482 57.4063L80.7786 57.5108L80.0752 57.6154C80.0369 57.3577 80.0427 57.0993 80.0919 56.8434L80.7902 56.9775ZM80.7786 57.5108L81.482 57.4063L81.5216 57.673L80.8183 57.7775L80.1149 57.8821L80.0752 57.6154L80.7786 57.5108ZM80.8183 57.7775L81.5216 57.673L81.5613 57.9396L80.8579 58.0442L80.1545 58.1487L80.1149 57.8821L80.8183 57.7775ZM80.8579 58.0442L81.5613 57.9396C81.6082 58.2553 81.5624 58.5641 81.4413 58.8527L80.7856 58.5775L80.1299 58.3023C80.158 58.2353 80.1604 58.1886 80.1545 58.1487L80.8579 58.0442ZM80.7856 58.5775L81.4413 58.8527L81.3294 59.1194L80.6737 58.8442L80.018 58.569L80.1299 58.3023L80.7856 58.5775ZM80.6737 58.8442L81.3294 59.1194L81.2175 59.386L80.5618 59.1108L79.9061 58.8356L80.018 58.569L80.6737 58.8442ZM80.5618 59.1108L81.2175 59.386C81.2064 59.4126 81.209 59.417 81.2097 59.4029C81.2101 59.3959 81.2098 59.386 81.208 59.3742C81.2061 59.3623 81.2029 59.351 81.199 59.3411L80.5366 59.5997L79.8742 59.8584C79.7354 59.5029 79.7761 59.1454 79.9061 58.8356L80.5618 59.1108ZM80.5366 59.5997L81.199 59.3411L81.2858 59.5633L80.6234 59.822L79.961 60.0806L79.8742 59.8584L80.5366 59.5997ZM80.6234 59.822L81.2858 59.5633L81.3726 59.7855L80.7101 60.0442L80.0477 60.3028L79.961 60.0806L80.6234 59.822ZM80.7101 60.0442L81.3726 59.7855C81.4029 59.8632 81.4321 59.9423 81.4521 60.0101C81.4597 60.0359 81.479 60.1023 81.4869 60.1804C81.4896 60.2067 81.5019 60.3204 81.4635 60.4564C81.4426 60.5303 81.3924 60.6624 81.2677 60.781C81.1264 60.9152 80.9467 60.9775 80.7755 60.9775V60.2664V59.5553C80.6061 59.5553 80.4279 59.617 80.2879 59.7501C80.1644 59.8675 80.1151 59.9979 80.0949 60.0694C80.0578 60.2008 80.0703 60.3076 80.072 60.3246C80.0757 60.3605 80.0814 60.3862 80.0834 60.3946C80.0847 60.4004 80.0858 60.4046 80.0865 60.4072C80.0871 60.4097 80.0876 60.4113 80.0877 60.4116C80.0878 60.412 80.0871 60.4097 80.0853 60.4041C80.0834 60.3986 80.0809 60.3911 80.0774 60.3813C80.0703 60.3615 80.0605 60.3356 80.0477 60.3028L80.7101 60.0442ZM80.7755 60.2664V60.9775H80.7542V60.2664V59.5553H80.7755V60.2664ZM80.7542 60.2664L80.1003 60.5459L80.0575 60.4459L80.7114 60.1664L81.3653 59.8869L81.4081 59.9869L80.7542 60.2664ZM80.7114 60.1664H81.4225V60.2664H80.7114H80.0003V60.1664H80.7114Z" fill="#0C151D"/>
<path d="M85.9746 55.2948L86.5994 55.6344L86.6397 55.5603L86.6615 55.4789L85.9746 55.2948ZM85.4413 56.9809L84.732 56.9297L85.4413 56.9809ZM84.7249 59.9638L84.152 59.5425L84.7249 59.9638ZM84.6248 60.1671L84.4408 60.8539L84.8942 60.9754L85.1841 60.6063L84.6248 60.1671ZM84.692 60.0815L85.3789 60.2656L84.1327 59.6423L84.692 60.0815ZM86.0005 55.1982L85.3136 55.0142L85.2877 55.1108L85.9746 55.2948L86.6615 55.4789L86.6874 55.3823L86.0005 55.1982ZM85.9746 55.2948L85.3498 54.9553L85.1124 55.3921L85.7372 55.7316L86.3621 56.0712L86.5994 55.6344L85.9746 55.2948ZM85.7372 55.7316L85.1124 55.3921C84.9394 55.7104 84.7952 56.0542 84.7711 56.3881L85.4803 56.4392L86.1896 56.4904C86.1916 56.4632 86.2186 56.3352 86.3621 56.0712L85.7372 55.7316ZM85.4803 56.4392L84.7711 56.3881L84.7515 56.6589L85.4608 56.7101L86.1701 56.7612L86.1896 56.4904L85.4803 56.4392ZM85.4608 56.7101L84.7515 56.6589L84.732 56.9297L85.4413 56.9809L86.1505 57.0321L86.1701 56.7612L85.4608 56.7101ZM85.4413 56.9809L84.732 56.9297C84.7247 57.0309 84.7015 57.1252 84.6621 57.216L85.3144 57.4991L85.9668 57.7821C86.0704 57.5432 86.1318 57.292 86.1505 57.0321L85.4413 56.9809ZM85.3144 57.4991L84.6621 57.216L84.5547 57.4634L85.2071 57.7464L85.8595 58.0294L85.9668 57.7821L85.3144 57.4991ZM85.2071 57.7464L84.5547 57.4634L84.4474 57.7107L85.0998 57.9937L85.7522 58.2767L85.8595 58.0294L85.2071 57.7464ZM85.0998 57.9937L84.4474 57.7107C84.3204 58.0035 84.2847 58.3136 84.327 58.6237L85.0316 58.5276L85.7362 58.4315C85.7264 58.3595 85.7361 58.3137 85.7522 58.2767L85.0998 57.9937ZM85.0316 58.5276L84.327 58.6237L84.3661 58.9102L85.0707 58.8141L85.7753 58.718L85.7362 58.4315L85.0316 58.5276ZM85.0707 58.8141L84.3661 58.9102L84.4052 59.1968L85.1098 59.1007L85.8143 59.0046L85.7753 58.718L85.0707 58.8141ZM85.1098 59.1007L84.4052 59.1968C84.4091 59.2253 84.4054 59.2288 84.4083 59.2151C84.4098 59.2083 84.4126 59.1988 84.4174 59.1878C84.4223 59.1768 84.4283 59.1667 84.4346 59.1582L85.0075 59.5794L85.5804 60.0007C85.8065 59.6933 85.8597 59.3374 85.8143 59.0046L85.1098 59.1007ZM85.0075 59.5794L84.4346 59.1582L84.2933 59.3504L84.8662 59.7716L85.4391 60.1929L85.5804 60.0007L85.0075 59.5794ZM84.8662 59.7716L84.2933 59.3504L84.152 59.5425L84.7249 59.9638L85.2978 60.3851L85.4391 60.1929L84.8662 59.7716ZM84.7249 59.9638L84.152 59.5425C84.1026 59.6097 84.0539 59.6785 84.0171 59.7389C84.003 59.7619 83.9672 59.821 83.9393 59.8944C83.9299 59.9191 83.8886 60.0257 83.8905 60.167C83.8916 60.2438 83.9059 60.3844 83.9956 60.5312C84.0974 60.6975 84.2548 60.8041 84.4202 60.8484L84.6042 60.1615L84.7883 59.4747C84.9519 59.5185 85.108 59.6242 85.2089 59.789C85.2978 59.9344 85.3116 60.0731 85.3126 60.1474C85.3145 60.2839 85.2748 60.3838 85.2687 60.3998C85.2559 60.4335 85.2437 60.4569 85.2396 60.4645C85.2368 60.4698 85.2347 60.4736 85.2334 60.4758C85.232 60.4782 85.2312 60.4795 85.231 60.4798C85.2308 60.4802 85.232 60.4782 85.2353 60.4732C85.2385 60.4684 85.2429 60.4618 85.2489 60.4532C85.2608 60.4359 85.2769 60.4134 85.2978 60.3851L84.7249 59.9638ZM84.6042 60.1615L84.4202 60.8484L84.4408 60.8539L84.6248 60.1671L84.8089 59.4802L84.7883 59.4747L84.6042 60.1615ZM84.6248 60.1671L85.1841 60.6063L85.2513 60.5207L84.692 60.0815L84.1327 59.6423L84.0656 59.7279L84.6248 60.1671ZM84.692 60.0815L84.0051 59.8975L83.9793 59.9941L84.6661 60.1781L85.353 60.3622L85.3789 60.2656L84.692 60.0815Z" fill="#0C151D"/>
<path d="M75.4473 55.2948L74.8225 55.6344L74.7822 55.5603L74.7604 55.4789L75.4473 55.2948ZM75.9806 56.9809L76.6899 56.9297L75.9806 56.9809ZM76.697 59.9638L77.2699 59.5425L76.697 59.9638ZM76.797 60.1671L76.9811 60.8539L76.5277 60.9754L76.2378 60.6063L76.797 60.1671ZM76.7299 60.0815L76.043 60.2656L77.2891 59.6423L76.7299 60.0815ZM75.4214 55.1982L76.1083 55.0142L76.1341 55.1108L75.4473 55.2948L74.7604 55.4789L74.7345 55.3823L75.4214 55.1982ZM75.4473 55.2948L76.0721 54.9553L76.3094 55.3921L75.6846 55.7316L75.0598 56.0712L74.8225 55.6344L75.4473 55.2948ZM75.6846 55.7316L76.3094 55.3921C76.4824 55.7104 76.6267 56.0542 76.6508 56.3881L75.9415 56.4392L75.2323 56.4904C75.2303 56.4632 75.2033 56.3352 75.0598 56.0712L75.6846 55.7316ZM75.9415 56.4392L76.6508 56.3881L76.6703 56.6589L75.9611 56.7101L75.2518 56.7612L75.2323 56.4904L75.9415 56.4392ZM75.9611 56.7101L76.6703 56.6589L76.6899 56.9297L75.9806 56.9809L75.2714 57.0321L75.2518 56.7612L75.9611 56.7101ZM75.9806 56.9809L76.6899 56.9297C76.6972 57.0309 76.7204 57.1252 76.7598 57.216L76.1075 57.4991L75.4551 57.7821C75.3514 57.5432 75.2901 57.292 75.2714 57.0321L75.9806 56.9809ZM76.1075 57.4991L76.7598 57.216L76.8671 57.4634L76.2148 57.7464L75.5624 58.0294L75.4551 57.7821L76.1075 57.4991ZM76.2148 57.7464L76.8671 57.4634L76.9744 57.7107L76.3221 57.9937L75.6697 58.2767L75.5624 58.0294L76.2148 57.7464ZM76.3221 57.9937L76.9744 57.7107C77.1015 58.0035 77.1372 58.3136 77.0949 58.6237L76.3903 58.5276L75.6857 58.4315C75.6955 58.3595 75.6857 58.3137 75.6697 58.2767L76.3221 57.9937ZM76.3903 58.5276L77.0949 58.6237L77.0558 58.9102L76.3512 58.8141L75.6466 58.718L75.6857 58.4315L76.3903 58.5276ZM76.3512 58.8141L77.0558 58.9102L77.0167 59.1968L76.3121 59.1007L75.6075 59.0046L75.6466 58.718L76.3512 58.8141ZM76.3121 59.1007L77.0167 59.1968C77.0128 59.2253 77.0165 59.2288 77.0136 59.2151C77.0121 59.2083 77.0093 59.1988 77.0044 59.1878C76.9995 59.1768 76.9936 59.1667 76.9873 59.1582L76.4144 59.5794L75.8414 60.0007C75.6154 59.6933 75.5621 59.3374 75.6075 59.0046L76.3121 59.1007ZM76.4144 59.5794L76.9873 59.1582L77.1286 59.3504L76.5557 59.7716L75.9828 60.1929L75.8414 60.0007L76.4144 59.5794ZM76.5557 59.7716L77.1286 59.3504L77.2699 59.5425L76.697 59.9638L76.1241 60.3851L75.9828 60.1929L76.5557 59.7716ZM76.697 59.9638L77.2699 59.5425C77.3193 59.6097 77.368 59.6785 77.4048 59.7389C77.4188 59.7619 77.4546 59.821 77.4826 59.8944C77.492 59.9191 77.5333 60.0257 77.5313 60.167C77.5303 60.2438 77.516 60.3844 77.4262 60.5312C77.3245 60.6975 77.1671 60.8041 77.0017 60.8484L76.8177 60.1615L76.6336 59.4747C76.47 59.5185 76.3138 59.6242 76.213 59.789C76.1241 59.9344 76.1103 60.0731 76.1093 60.1474C76.1074 60.2839 76.1471 60.3838 76.1532 60.3998C76.166 60.4335 76.1782 60.4569 76.1823 60.4645C76.185 60.4698 76.1872 60.4736 76.1885 60.4758C76.1898 60.4782 76.1907 60.4795 76.1908 60.4798C76.1911 60.4802 76.1898 60.4782 76.1866 60.4732C76.1834 60.4684 76.1789 60.4618 76.173 60.4532C76.161 60.4359 76.145 60.4134 76.1241 60.3851L76.697 59.9638ZM76.8177 60.1615L77.0017 60.8484L76.9811 60.8539L76.797 60.1671L76.613 59.4802L76.6336 59.4747L76.8177 60.1615ZM76.797 60.1671L76.2378 60.6063L76.1706 60.5207L76.7299 60.0815L77.2891 59.6423L77.3563 59.7279L76.797 60.1671ZM76.7299 60.0815L77.4167 59.8975L77.4426 59.9941L76.7557 60.1781L76.0689 60.3622L76.043 60.2656L76.7299 60.0815Z" fill="#0C151D"/>
<path d="M86.0513 58.7373C85.6799 58.687 85.336 58.7879 85.0425 58.9736L84.7759 59.1416L84.5093 59.3105C84.4325 59.3591 84.3963 59.3578 84.3892 59.3574L83.856 59.332C83.7515 59.3271 83.642 59.3055 83.5259 59.2646L82.9927 59.0771C82.6729 58.9644 82.3379 58.9559 82.0122 59.0566L81.479 59.2227C81.4129 59.2431 81.3565 59.2442 81.2993 59.2324L80.7661 59.123C80.6129 59.0915 80.4583 59.0509 80.3032 59.002L79.77 58.834C79.5149 58.7534 79.2517 58.7174 78.9849 58.7314L78.7183 58.7451L78.4517 58.7598C78.2626 58.7697 78.0732 58.7837 77.8843 58.8027L77.6177 58.8301L77.3511 58.8564C77.2221 58.8694 77.0934 58.8692 76.9644 58.8555L76.4312 58.7988C76.1954 58.7738 75.9591 58.7776 75.7241 58.8105L75.4565 58.8486L75.1899 58.8857C74.9665 58.9171 74.7455 58.9701 74.5278 59.0439L74.2603 59.1348L73.9937 59.2256C73.85 59.2743 73.7082 59.3101 73.5688 59.334L73.3022 59.3799L73.0356 59.4248C72.8201 59.4617 72.5819 59.5261 72.3774 59.6523L72.1021 59.8223C71.8555 59.9745 71.7173 60.2212 71.6899 60.4814C71.667 60.7012 71.7246 60.8968 71.7778 61.0312L71.8804 61.2891L71.9819 61.5469C72.0102 61.6184 72.0243 61.6969 72.019 61.79L72.0024 62.0781L71.9868 62.3662C71.9652 62.7521 72.0948 63.1085 72.3589 63.3906L72.7524 63.8115C72.8765 63.944 72.9924 64.0735 73.0991 64.1992L73.272 64.4023L73.4438 64.6055C73.4795 64.6476 73.5141 64.7088 73.5376 64.8047L73.6782 65.3799C73.7532 65.6867 73.9008 65.965 74.1255 66.1943L74.5132 66.5898C74.701 66.7815 74.9185 66.937 75.1606 67.0527L75.6646 67.293C75.8536 67.3833 76.045 67.464 76.2388 67.5332L76.4946 67.624L76.7505 67.7158C76.8761 67.7607 76.9964 67.8177 77.1108 67.8867L77.3433 68.0264L77.5757 68.167C77.8645 68.341 78.1876 68.4117 78.519 68.3818L79.0767 68.3311C79.2509 68.3154 79.4177 68.3046 79.5767 68.2988L79.8364 68.29L80.0952 68.2803C80.1818 68.2772 80.2739 68.2893 80.3745 68.3213L80.6353 68.4033L80.897 68.4863C81.1285 68.5598 81.3663 68.6034 81.6089 68.6162L82.1558 68.6455C82.4679 68.662 82.769 68.5944 83.0444 68.4473L83.2866 68.3184L83.5288 68.1885C83.6101 68.1451 83.6987 68.1173 83.7993 68.1055L84.3589 68.0391C84.6933 67.9995 84.996 67.8611 85.2437 67.6299L85.4458 67.4404L85.6489 67.251C85.7433 67.1628 85.8448 67.0886 85.9536 67.0273L86.1919 66.8936L86.4302 66.7588C86.6753 66.6206 86.8851 66.4367 87.0532 66.2109L87.3794 65.7734C87.5495 65.545 87.6645 65.2876 87.728 65.0107L87.8442 64.5098L88.1187 64.376L88.4097 64.2354C88.7078 64.0912 88.9604 63.8608 89.0991 63.5371L89.1519 63.3926L89.231 63.127L89.3101 62.8623C89.4005 62.559 89.404 62.248 89.3345 61.9443L89.2671 61.6533L89.2007 61.3623C89.1997 61.3578 89.2 61.354 89.1997 61.3516L89.5005 60.8555C89.5666 60.7464 89.6329 60.6193 89.6753 60.4824C89.7145 60.3555 89.7585 60.1378 89.6782 59.8984L89.6021 59.6699C89.4835 59.3173 89.1845 59.1681 88.9663 59.126C88.7786 59.0899 88.6 59.1163 88.478 59.1416L88.2114 59.1963L87.9448 59.252C87.9183 59.2575 87.8877 59.2579 87.8345 59.2354L87.3013 59.0088C87.0696 58.9103 86.8298 58.8428 86.5845 58.8096L86.0513 58.7373Z" fill="white"/>
<path d="M78.985 58.7324L78.7184 58.7461L78.4518 58.7608C78.2691 58.7704 78.0857 58.7837 77.903 58.8018L78.0222 59.2832C78.0639 59.4519 78.1043 59.6206 78.1393 59.7891L78.194 60.0557L78.2497 60.294C78.2474 60.2992 78.2379 60.3074 78.2282 60.3223L77.8835 60.8555C77.6379 61.2331 77.5975 61.6846 77.8171 62.1055L77.9557 62.3721L78.0612 62.5664L77.9499 62.7725L77.8054 63.0391C77.6635 63.3003 77.5716 63.5865 77.5612 63.8887L77.5554 64.1553L77.5446 64.4219C77.5347 64.722 77.6029 65.0097 77.7282 65.2774L77.8552 65.544L77.9557 65.7559L77.8386 65.9834L77.7057 66.25C77.5466 66.5583 77.4852 66.9057 77.5612 67.2608L77.6725 67.794C77.6923 67.8867 77.6971 67.9764 77.6833 68.0664L77.6598 68.2139C77.9267 68.3534 78.2195 68.4098 78.5192 68.3828L79.0768 68.3321C79.251 68.3164 79.418 68.3056 79.5768 68.2998L79.8366 68.291L80.0954 68.2813C80.1818 68.2782 80.2743 68.2904 80.3747 68.3223L80.6354 68.4043L80.8972 68.4873C81.1285 68.5607 81.3666 68.6044 81.6091 68.6172L82.1559 68.6465C82.4679 68.6629 82.7692 68.5954 83.0446 68.4483L83.2868 68.3194L83.529 68.1895C83.5664 68.1695 83.6052 68.153 83.6462 68.1397L83.6335 68.0664C83.5973 67.837 83.5348 67.61 83.4499 67.3887L83.3503 67.1221L83.2448 66.8555C83.2404 66.8435 83.2392 66.8358 83.2389 66.833C83.2391 66.8315 83.2404 66.8243 83.2448 66.8115L83.3386 66.544L83.4274 66.2774C83.5033 66.059 83.5619 65.8359 83.5944 65.6114L83.6725 65.0781C83.6952 64.9219 83.7244 64.7628 83.7614 64.6055L83.822 64.3389L83.8893 64.0723C83.9652 63.7477 83.9312 63.4214 83.8112 63.1162L83.7116 62.8496L83.6052 62.583C83.5396 62.4162 83.479 62.2493 83.4225 62.083L83.3278 61.8164L83.2389 61.5498C83.207 61.4556 83.1948 61.3688 83.1999 61.2891L83.2165 61.0225L83.2389 60.7559C83.2528 60.5393 83.2443 60.3217 83.2223 60.1055L83.1999 59.8389L83.1725 59.583C83.1754 59.5752 83.1835 59.5537 83.2057 59.5225L83.4157 59.2266L82.9929 59.0781C82.6731 58.9655 82.338 58.9569 82.0124 59.0576L81.4792 59.2237C81.4132 59.2441 81.3565 59.2451 81.2995 59.2334L80.7663 59.124C80.6133 59.0925 80.4583 59.0519 80.3034 59.003L79.7702 58.835C79.5152 58.7544 79.2518 58.7185 78.985 58.7324Z" fill="#303A4B"/>
</svg>
