<svg width="128" height="128" viewBox="0 0 128 128" fill="none" xmlns="http://www.w3.org/2000/svg">
<path d="M50.1313 63.3555L50.2876 63.3838L50.5103 63.4365C50.7101 63.4843 50.9029 63.5524 51.0815 63.6446H51.2007C51.505 63.6447 51.7624 63.8366 51.8638 64.1055L51.9116 64.1514V64.4785C51.9116 64.5642 51.8971 64.697 51.8208 64.836C51.7378 64.987 51.6083 65.0963 51.4634 65.1573C51.2224 65.2586 51.0086 65.1986 50.9585 65.1846C50.8165 65.1449 50.6894 65.069 50.6187 65.0244L50.5444 64.9766L50.4692 64.9297C50.4162 64.8963 50.3253 64.8553 50.1792 64.8203L50.0679 64.794L49.9595 64.7666C49.9535 64.7683 49.9356 64.7751 49.9048 64.7949L49.7935 64.8672L49.6821 64.9385C49.356 65.1485 48.9724 65.2532 48.563 65.1758L48.4517 65.1553L48.3403 65.1338C48.2762 65.1217 48.2087 65.125 48.1245 65.1573L47.9019 65.2432C47.429 65.4244 46.9729 65.3038 46.6157 65.0332L46.5044 64.9483L46.4653 64.919L46.4604 64.9219L46.3491 64.9854C46.1451 65.1014 45.9055 65.1701 45.645 65.1514C45.3883 65.1329 45.1656 65.0334 44.9829 64.9033L44.9116 64.8516L44.8101 64.9395C44.645 65.0807 44.4402 65.2024 44.1958 65.2549C43.9426 65.3092 43.6927 65.2783 43.4663 65.1817L43.355 65.1348L43.2437 65.0869C43.0766 65.0156 42.9125 64.9614 42.7515 64.9219L42.6401 64.8946L42.5542 64.8731C42.5458 64.8775 42.5328 64.8843 42.5161 64.8965L42.4048 64.9785L42.2935 65.0596C41.9652 65.3002 41.5583 65.4329 41.1157 65.334L41.0044 65.3086L40.8931 65.2842C40.7588 65.2542 40.6273 65.2444 40.4976 65.2539L40.3862 65.2617L40.2749 65.2705C39.973 65.2926 39.6758 65.2502 39.3892 65.1514L39.1665 65.0752C39.0561 65.0372 38.9567 65.0264 38.8618 65.0352L38.7505 65.0449L38.6392 65.0557C38.4515 65.0731 38.2636 65.0952 38.0757 65.1231L37.853 65.1563C37.533 65.2038 37.1624 65.1665 36.7817 65.0918L36.6509 65.0664H36.6226C36.2298 65.0664 35.9116 64.7482 35.9116 64.3555C35.9116 63.9628 36.2298 63.6446 36.6226 63.6446H36.7915L36.8599 63.6573L37.0552 63.6963C37.3797 63.76 37.5626 63.7621 37.644 63.75L37.8667 63.7168C38.08 63.6852 38.2937 63.6595 38.5073 63.6397L38.6187 63.6289L38.73 63.6192C39.0366 63.5907 39.3393 63.6302 39.6304 63.7305L39.853 63.8067C39.9677 63.8461 40.072 63.8589 40.1714 63.8516L40.2827 63.8438L40.394 63.835C40.6657 63.8151 40.9365 63.8358 41.2036 63.8955L41.4048 63.9414C41.4138 63.9372 41.4301 63.9296 41.4526 63.9131L41.564 63.8311L41.6753 63.75C41.966 63.5369 42.3187 63.4099 42.7017 63.4551L42.8667 63.4854L43.0894 63.5401C43.3297 63.5989 43.5679 63.6793 43.8022 63.7793L43.9136 63.8262L43.9194 63.8291L43.9966 63.7637L44.1079 63.668L44.2544 63.5576C44.4113 63.4542 44.6009 63.3751 44.8208 63.3594C45.0458 63.3433 45.249 63.3971 45.4224 63.4864L45.5854 63.586L45.6968 63.6651L45.7388 63.6963L45.7573 63.6856L45.8687 63.6221L46.0317 63.544C46.201 63.4761 46.3888 63.4421 46.5884 63.461C46.8493 63.4857 47.0719 63.5945 47.2515 63.7305L47.3628 63.8155L47.4595 63.8897L47.5044 63.8721L47.6157 63.8301C47.9328 63.7086 48.2669 63.6726 48.604 63.7364L48.7153 63.7578L48.8267 63.7783C48.8303 63.779 48.8325 63.7797 48.8384 63.7783C48.8463 63.7765 48.8701 63.7689 48.9116 63.7422L49.1343 63.5996C49.4282 63.4104 49.7698 63.3103 50.1313 63.3555Z" fill="#0C151D"/>
<path d="M90.3091 63.3555L90.4653 63.3838L90.688 63.4365C90.8878 63.4843 91.0806 63.5524 91.2593 63.6446H91.3784C91.6827 63.6447 91.9401 63.8366 92.0415 64.1055L92.0894 64.1514V64.4785C92.0894 64.5642 92.0749 64.697 91.9985 64.836C91.9156 64.987 91.7861 65.0963 91.6411 65.1573C91.4001 65.2586 91.1864 65.1986 91.1362 65.1846C90.9942 65.1449 90.8671 65.069 90.7964 65.0244L90.7222 64.9766L90.647 64.9297C90.5939 64.8963 90.5031 64.8553 90.3569 64.8203L90.2456 64.794L90.1372 64.7666C90.1312 64.7683 90.1134 64.7751 90.0825 64.7949L89.9712 64.8672L89.8599 64.9385C89.5337 65.1485 89.1501 65.2532 88.7407 65.1758L88.6294 65.1553L88.5181 65.1338C88.4539 65.1217 88.3864 65.125 88.3022 65.1573L88.0796 65.2432C87.6068 65.4244 87.1506 65.3038 86.7935 65.0332L86.6821 64.9483L86.6431 64.919L86.6382 64.9219L86.5269 64.9854C86.3228 65.1014 86.0832 65.1701 85.8228 65.1514C85.566 65.1329 85.3433 65.0334 85.1606 64.9033L85.0894 64.8516L84.9878 64.9395C84.8227 65.0807 84.6179 65.2024 84.3735 65.2549C84.1203 65.3092 83.8705 65.2783 83.644 65.1817L83.5327 65.1348L83.4214 65.0869C83.2543 65.0156 83.0902 64.9614 82.9292 64.9219L82.8179 64.8946L82.7319 64.8731C82.7235 64.8775 82.7105 64.8843 82.6938 64.8965L82.5825 64.9785L82.4712 65.0596C82.1429 65.3002 81.7361 65.4329 81.2935 65.334L81.1821 65.3086L81.0708 65.2842C80.9365 65.2542 80.8051 65.2444 80.6753 65.2539L80.564 65.2617L80.4526 65.2705C80.1507 65.2926 79.8535 65.2502 79.5669 65.1514L79.3442 65.0752C79.2338 65.0372 79.1344 65.0264 79.0396 65.0352L78.9282 65.0449L78.8169 65.0557C78.6292 65.0731 78.4413 65.0952 78.2534 65.1231L78.0308 65.1563C77.7107 65.2038 77.3401 65.1665 76.9595 65.0918L76.8286 65.0664H76.8003C76.4076 65.0664 76.0894 64.7482 76.0894 64.3555C76.0894 63.9628 76.4076 63.6446 76.8003 63.6446H76.9692L77.0376 63.6573L77.2329 63.6963C77.5574 63.76 77.7404 63.7621 77.8218 63.75L78.0444 63.7168C78.2578 63.6852 78.4715 63.6595 78.6851 63.6397L78.7964 63.6289L78.9077 63.6192C79.2143 63.5907 79.5171 63.6302 79.8081 63.7305L80.0308 63.8067C80.1454 63.8461 80.2498 63.8589 80.3491 63.8516L80.4604 63.8438L80.5718 63.835C80.8434 63.8151 81.1142 63.8358 81.3813 63.8955L81.5825 63.9414C81.5916 63.9372 81.6079 63.9296 81.6304 63.9131L81.7417 63.8311L81.853 63.75C82.1438 63.5369 82.4964 63.4099 82.8794 63.4551L83.0444 63.4854L83.2671 63.5401C83.5074 63.5989 83.7457 63.6793 83.98 63.7793L84.0913 63.8262L84.0972 63.8291L84.1743 63.7637L84.2856 63.668L84.4321 63.5576C84.589 63.4542 84.7786 63.3751 84.9985 63.3594C85.2236 63.3433 85.4267 63.3971 85.6001 63.4864L85.7632 63.586L85.8745 63.6651L85.9165 63.6963L85.9351 63.6856L86.0464 63.6221L86.2095 63.544C86.3787 63.4761 86.5665 63.4421 86.7661 63.461C87.0271 63.4857 87.2497 63.5945 87.4292 63.7305L87.5405 63.8155L87.6372 63.8897L87.6821 63.8721L87.7935 63.8301C88.1105 63.7086 88.4446 63.6726 88.7817 63.7364L88.8931 63.7578L89.0044 63.7783C89.0081 63.779 89.0102 63.7797 89.0161 63.7783C89.024 63.7765 89.0479 63.7689 89.0894 63.7422L89.312 63.5996C89.606 63.4104 89.9475 63.3103 90.3091 63.3555Z" fill="#0C151D"/>
</svg>
