<svg width="128" height="128" viewBox="0 0 128 128" fill="none" xmlns="http://www.w3.org/2000/svg">
<g filter="url(#filter0_f_393_4858)">
<path d="M33.7778 63.8224C33.7778 59.0114 37.6779 55.1113 42.4889 55.1113H50.6667C55.4777 55.1113 59.3778 59.0114 59.3778 63.8224C59.3778 68.6335 55.4777 72.5336 50.6667 72.5336H42.4889C37.6779 72.5336 33.7778 68.6335 33.7778 63.8224Z" fill="black" fill-opacity="0.8"/>
</g>
<g filter="url(#filter1_f_393_4858)">
<path d="M68.6226 63.8224C68.6226 59.0114 72.5227 55.1113 77.3337 55.1113H85.5114C90.3225 55.1113 94.2226 59.0114 94.2226 63.8224C94.2226 68.6335 90.3225 72.5336 85.5115 72.5336H77.3337C72.5227 72.5336 68.6226 68.6335 68.6226 63.8224Z" fill="black" fill-opacity="0.8"/>
</g>
<path d="M43.2889 54.8816L43.0927 54.1981L43.2889 54.8816ZM43.8223 54.8345L43.9003 54.1277L43.8223 54.8345ZM45.4223 54.8069L45.3203 54.1032L45.4223 54.8069ZM45.9556 54.9428L45.5662 55.5378L45.9556 54.9428ZM46.4889 55.2919L46.8784 54.6969L46.4889 55.2919ZM47.0223 55.3537L46.7454 54.6988L47.0223 55.3537ZM47.5556 55.1283L47.8325 55.7833L47.5556 55.1283ZM48.0889 54.9339L47.8807 54.2539L48.0889 54.9339ZM48.3556 54.8522L48.1474 54.1723L48.3556 54.8522ZM48.6223 54.7705L48.8305 55.4505L48.6223 54.7705ZM49.1556 54.868L49.5521 54.2777L49.1556 54.868ZM49.6889 55.2262L49.2925 55.8165L49.6889 55.2262ZM50.2215 55.3555L50.0905 54.6565L50.2215 55.3555ZM51.2714 55.2952L51.5083 54.6247L51.2714 55.2952ZM51.7759 55.4735L51.5389 56.144L51.7759 55.4735ZM52.3011 55.54L52.2423 54.8313L52.3011 55.54ZM52.574 55.5174L52.6328 56.2261L52.574 55.5174ZM52.8469 55.4948L52.7882 54.7861L52.8469 55.4948ZM53.3596 55.5871L53.6671 54.9459L53.3596 55.5871ZM53.5993 55.702L53.2918 56.3432L53.5993 55.702ZM53.839 55.817L53.5315 56.4582L53.839 55.817ZM54.3067 56.0621L53.9541 56.6797L54.3067 56.0621ZM54.5346 56.1922L54.8872 55.5747L54.5346 56.1922ZM54.7626 56.3224L54.41 56.9399L54.7626 56.3224ZM55.2213 56.5803L54.8768 57.2024L55.2213 56.5803ZM55.452 56.7081L55.1076 57.3302L55.452 56.7081ZM55.6828 56.8359L56.0273 56.2137L55.6828 56.8359ZM56.1467 57.1026L55.7826 57.7134L56.1467 57.1026ZM56.6129 57.3804L56.9769 56.7696L56.6129 57.3804ZM57.0688 57.6864L56.6422 58.2554L57.0688 57.6864ZM57.5144 58.0205L57.0878 58.5894L57.5144 58.0205ZM57.7696 58.4917L57.0625 58.5672L57.7696 58.4917ZM57.8021 58.7958L58.5092 58.7203L57.8021 58.7958ZM57.8346 59.0999L57.1275 59.1754L57.8346 59.0999ZM57.9524 59.6486L57.281 59.8828L57.9524 59.6486ZM58.3603 60.5997L57.7774 61.0071L58.3603 60.5997ZM58.6642 61.0344L59.247 60.627L58.6642 61.0344ZM59.0184 62.5415L58.3329 62.7307L59.0184 62.5415ZM59.1758 63.5615L58.4788 63.4208L59.1758 63.5615ZM59.1235 63.821L59.8205 63.9616L59.1235 63.821ZM59.0711 64.0805L58.3741 63.9398L59.0711 64.0805ZM59.0835 64.6118L59.7753 64.4471L59.0835 64.6118ZM59.213 65.1557L58.5212 65.3204L59.213 65.1557ZM59.2889 65.7116L59.9995 65.6835L59.2889 65.7116ZM59.3002 65.9956L58.5896 66.0236L59.3002 65.9956ZM59.1849 66.8055L59.803 67.1571L59.1849 66.8055ZM58.9096 67.2894L59.5277 67.641L58.9096 67.2894ZM58.5984 67.744L59.1494 68.1936L58.5984 67.744ZM58.4249 67.9567L57.8739 67.5071L58.4249 67.9567ZM58.2513 68.1694L58.8023 68.6189L58.2513 68.1694ZM57.9414 68.6132L58.5539 68.9746L57.9414 68.6132ZM57.6687 69.0755L57.0562 68.7142L57.6687 69.0755ZM57.3718 69.5263L57.9459 69.946L57.3718 69.5263ZM57.0507 69.9655L56.4767 69.5458L57.0507 69.9655ZM56.593 70.2439L56.731 70.9415L56.593 70.2439ZM56.2959 70.3026L56.1579 69.605L56.2959 70.3026ZM55.9988 70.3614L56.1367 71.059L55.9988 70.3614ZM55.5622 70.6834L56.1906 71.0163L55.5622 70.6834ZM55.4228 70.9467L56.0512 71.2795L55.4228 70.9467ZM55.2833 71.21L54.6549 70.8772L55.2833 71.21ZM54.8715 71.5251L54.7385 70.8266L54.8715 71.5251ZM54.3266 71.6289L54.4596 72.3274L54.3266 71.6289ZM53.8169 71.7998L53.498 71.1642L53.8169 71.7998ZM53.5796 71.9189L53.8985 72.5545L53.5796 71.9189ZM53.3423 72.038L53.0234 71.4024L53.3423 72.038ZM52.8358 72.1534L52.8261 72.8644L52.8358 72.1534ZM52.5666 72.1497L52.5763 71.4387L52.5666 72.1497ZM52.2974 72.146L52.2877 72.8571L52.2974 72.146ZM51.7729 72.2003L51.9302 72.8938L51.7729 72.2003ZM51.2621 72.3162L51.1047 71.6228L51.2621 72.3162ZM50.7415 72.3141L50.8985 71.6206L50.7415 72.3141ZM50.211 72.194L50.0539 72.8876L50.211 72.194ZM49.679 72.1939L49.5231 71.5001L49.679 72.1939ZM49.1457 72.3137L48.9898 71.6199L49.1457 72.3137ZM48.6123 72.4834L48.883 73.1409L48.6123 72.4834ZM48.079 72.7029L47.8084 72.0453L48.079 72.7029ZM47.5457 72.7865L47.4765 73.4943L47.5457 72.7865ZM47.0123 72.7344L47.0815 72.0267L47.0123 72.7344ZM46.479 72.6486L46.3237 73.3426L46.479 72.6486ZM46.2123 72.589L46.057 73.2829L46.2123 72.589ZM45.9457 72.5293L46.101 71.8353L45.9457 72.5293ZM45.4123 72.462L45.4326 71.7512L45.4123 72.462ZM44.879 72.4468L44.8588 73.1576L44.879 72.4468ZM44.3457 72.4865L44.4699 73.1867L44.3457 72.4865ZM43.8123 72.5812L43.9366 73.2814L43.8123 72.5812ZM42.7455 72.6558L42.7213 71.9451L42.7455 72.6558ZM42.2136 72.6087L42.0662 73.3044L42.2136 72.6087ZM41.9483 72.5525L41.8009 73.2482L41.9483 72.5525ZM41.6831 72.4963L41.8305 71.8006L41.6831 72.4963ZM41.1753 72.3176L41.4958 71.6829L41.1753 72.3176ZM40.9327 72.1951L40.6121 72.8298L40.9327 72.1951ZM40.6901 72.0726L41.0106 71.4378L40.6901 72.0726ZM40.175 71.9454L40.1871 71.2344L40.175 71.9454ZM39.6302 71.9362L39.6182 72.6472L39.6302 71.9362ZM39.1198 71.8139L39.435 71.1765L39.1198 71.8139ZM38.6438 71.5785L38.9591 70.9411L38.6438 71.5785ZM38.1406 71.3781L38.3525 70.6992L38.1406 71.3781ZM37.6102 71.2125L37.3983 71.8913L37.6102 71.2125ZM37.1327 70.9577L36.6849 71.51L37.1327 70.9577ZM36.9204 70.7856L37.3683 70.2332L36.9204 70.7856ZM36.7082 70.6135L36.2604 71.1659L36.7082 70.6135ZM36.4073 70.1576L37.0861 69.9457L36.4073 70.1576ZM36.3187 69.8738L35.6399 70.0857L36.3187 69.8738ZM36.0066 69.0882L35.402 69.4626L36.0066 69.0882ZM35.7366 68.6523L36.3412 68.2778L35.7366 68.6523ZM35.2077 68.0664L34.7223 68.5861L35.2077 68.0664ZM34.6398 67.4821L35.1938 67.0364L34.6398 67.4821ZM34.4657 67.2657L33.9116 67.7115L34.4657 67.2657ZM34.2916 67.0494L34.8457 66.6036L34.2916 67.0494ZM34.1819 66.5401L34.8764 66.6926L34.1819 66.5401ZM34.2462 66.2472L33.5516 66.0947L34.2462 66.2472ZM34.2642 65.417L33.6164 65.7104L34.2642 65.417ZM34.0429 64.9284L33.3952 65.2218L34.0429 64.9284ZM33.9694 64.422L33.2654 64.3223L33.9694 64.422ZM34.1779 62.3417L33.4757 62.4541L34.1779 62.3417ZM34.1956 60.7075L33.4966 60.5768L34.1956 60.7075ZM34.3656 60.1944L33.727 59.8816L34.3656 60.1944ZM34.827 59.1975L35.4901 59.4545L34.827 59.1975ZM35.0307 58.6721L34.3676 58.4151L35.0307 58.6721ZM35.3328 58.2151L35.828 58.7254L35.3328 58.2151ZM35.7334 57.8263L35.2381 57.316L35.7334 57.8263ZM36.2015 57.5236L35.9348 56.8644L36.2015 57.5236ZM36.4693 57.4153L36.7359 58.0746L36.4693 57.4153ZM36.7371 57.307L36.4704 56.6478L36.7371 57.307ZM37.1541 56.945L37.767 57.3055L37.1541 56.945ZM37.4526 56.4375L36.8397 56.077L37.4526 56.4375ZM37.882 56.1273L38.0225 56.8244L37.882 56.1273ZM38.4421 56.0144L38.3017 55.3174L38.4421 56.0144ZM39.3994 55.4663L38.9815 54.8909L39.3994 55.4663ZM41.0095 55.2582L40.8652 54.5619L41.0095 55.2582ZM41.968 55.1739L42.2604 54.5257L41.968 55.1739ZM43.0223 54.9582L43.2185 55.6417L43.4852 55.5651L43.2889 54.8816L43.0927 54.1981L42.826 54.2747L43.0223 54.9582ZM43.2889 54.8816L43.4852 55.5651C43.577 55.5388 43.6617 55.5322 43.7442 55.5413L43.8223 54.8345L43.9003 54.1277C43.6273 54.0976 43.3564 54.1224 43.0927 54.1981L43.2889 54.8816ZM43.8223 54.8345L43.7442 55.5413L44.0109 55.5708L44.0889 54.864L44.167 54.1572L43.9003 54.1277L43.8223 54.8345ZM44.0889 54.864L44.0109 55.5708L44.2776 55.6002L44.3556 54.8934L44.4337 54.1866L44.167 54.1572L44.0889 54.864ZM44.3556 54.8934L44.2776 55.6002C44.5155 55.6265 44.7538 55.6223 44.9909 55.588L44.8889 54.8842L44.787 54.1805C44.6686 54.1976 44.5513 54.1996 44.4337 54.1866L44.3556 54.8934ZM44.8889 54.8842L44.9909 55.588L45.2576 55.5493L45.1556 54.8456L45.0536 54.1418L44.787 54.1805L44.8889 54.8842ZM45.1556 54.8456L45.2576 55.5493L45.5243 55.5107L45.4223 54.8069L45.3203 54.1032L45.0536 54.1418L45.1556 54.8456ZM45.4223 54.8069L45.5243 55.5107C45.5225 55.5109 45.5197 55.5111 45.5166 55.511C45.5136 55.5108 45.5123 55.5104 45.5133 55.5107C45.5153 55.5112 45.5327 55.5159 45.5662 55.5378L45.9556 54.9428L46.3451 54.3478C46.0502 54.1548 45.7001 54.0481 45.3203 54.1032L45.4223 54.8069ZM45.9556 54.9428L45.5662 55.5378L45.8328 55.7124L46.2223 55.1174L46.6117 54.5224L46.3451 54.3478L45.9556 54.9428ZM46.2223 55.1174L45.8328 55.7124L46.0995 55.8869L46.4889 55.2919L46.8784 54.6969L46.6117 54.5224L46.2223 55.1174ZM46.4889 55.2919L46.0995 55.8869C46.452 56.1176 46.8784 56.1866 47.2992 56.0087L47.0223 55.3537L46.7454 54.6988C46.7512 54.6963 46.7634 54.692 46.7811 54.6893C46.7991 54.6865 46.8185 54.6861 46.8375 54.6883C46.8771 54.6929 46.892 54.7058 46.8784 54.6969L46.4889 55.2919ZM47.0223 55.3537L47.2992 56.0087L47.5658 55.896L47.2889 55.241L47.012 54.586L46.7454 54.6988L47.0223 55.3537ZM47.2889 55.241L47.5658 55.896L47.8325 55.7833L47.5556 55.1283L47.2787 54.4733L47.012 54.586L47.2889 55.241ZM47.5556 55.1283L47.8325 55.7833C47.9887 55.7172 48.1436 55.6609 48.2972 55.6138L48.0889 54.9339L47.8807 54.2539C47.6788 54.3158 47.4781 54.389 47.2787 54.4733L47.5556 55.1283ZM48.0889 54.9339L48.2972 55.6138L48.5638 55.5322L48.3556 54.8522L48.1474 54.1723L47.8807 54.2539L48.0889 54.9339ZM48.3556 54.8522L48.5638 55.5322L48.8305 55.4505L48.6223 54.7705L48.4141 54.0906L48.1474 54.1723L48.3556 54.8522ZM48.6223 54.7705L48.8305 55.4505C48.8238 55.4525 48.8132 55.4549 48.7994 55.4558C48.7856 55.4566 48.7724 55.4557 48.7611 55.4536C48.7378 55.4493 48.7366 55.4432 48.7591 55.4583L49.1556 54.868L49.5521 54.2777C49.2268 54.0592 48.8291 53.9635 48.4141 54.0906L48.6223 54.7705ZM49.1556 54.868L48.7591 55.4583L49.0258 55.6374L49.4223 55.0471L49.8188 54.4568L49.5521 54.2777L49.1556 54.868ZM49.4223 55.0471L49.0258 55.6374L49.2925 55.8165L49.6889 55.2262L50.0854 54.6359L49.8188 54.4568L49.4223 55.0471ZM49.6889 55.2262L49.2925 55.8165C49.5939 56.019 49.9582 56.1283 50.3524 56.0544L50.2215 55.3555L50.0905 54.6565C50.0951 54.6557 50.1013 54.6551 50.1083 54.6553C50.1153 54.6555 50.1205 54.6564 50.1232 54.657C50.1287 54.6584 50.1164 54.6567 50.0854 54.6359L49.6889 55.2262ZM50.2215 55.3555L50.3524 56.0544L50.6183 56.0046L50.4874 55.3057L50.3564 54.6067L50.0905 54.6565L50.2215 55.3555ZM50.4874 55.3057L50.6183 56.0046L50.8842 55.9548L50.7532 55.2559L50.6223 54.5569L50.3564 54.6067L50.4874 55.3057ZM50.7532 55.2559L50.8842 55.9548C50.9399 55.9444 50.9856 55.9484 51.0344 55.9657L51.2714 55.2952L51.5083 54.6247C51.2208 54.5231 50.9211 54.5009 50.6223 54.5569L50.7532 55.2559ZM51.2714 55.2952L51.0344 55.9657L51.2867 56.0548L51.5236 55.3843L51.7606 54.7139L51.5083 54.6247L51.2714 55.2952ZM51.5236 55.3843L51.2867 56.0548L51.5389 56.144L51.7759 55.4735L52.0128 54.803L51.7606 54.7139L51.5236 55.3843ZM51.7759 55.4735L51.5389 56.144C51.8041 56.2377 52.0801 56.2719 52.3598 56.2487L52.3011 55.54L52.2423 54.8313C52.1581 54.8383 52.084 54.8282 52.0128 54.803L51.7759 55.4735ZM52.3011 55.54L52.3598 56.2487L52.6328 56.2261L52.574 55.5174L52.5153 54.8087L52.2423 54.8313L52.3011 55.54ZM52.574 55.5174L52.6328 56.2261L52.9057 56.2034L52.8469 55.4948L52.7882 54.7861L52.5153 54.8087L52.574 55.5174ZM52.8469 55.4948L52.9057 56.2034C52.9657 56.1985 53.0098 56.208 53.0521 56.2283L53.3596 55.5871L53.6671 54.9459C53.3898 54.8129 53.0921 54.7609 52.7882 54.7861L52.8469 55.4948ZM53.3596 55.5871L53.0521 56.2283L53.2918 56.3432L53.5993 55.702L53.9068 55.0609L53.6671 54.9459L53.3596 55.5871ZM53.5993 55.702L53.2918 56.3432L53.5315 56.4582L53.839 55.817L54.1465 55.1758L53.9068 55.0609L53.5993 55.702ZM53.839 55.817L53.5315 56.4582C53.6763 56.5276 53.8171 56.6014 53.9541 56.6797L54.3067 56.0621L54.6593 55.4446C54.4924 55.3493 54.3215 55.2597 54.1465 55.1758L53.839 55.817ZM54.3067 56.0621L53.9541 56.6797L54.182 56.8098L54.5346 56.1922L54.8872 55.5747L54.6593 55.4446L54.3067 56.0621ZM54.5346 56.1922L54.182 56.8098L54.41 56.9399L54.7626 56.3224L55.1151 55.7048L54.8872 55.5747L54.5346 56.1922ZM54.7626 56.3224L54.41 56.9399C54.5646 57.0282 54.7202 57.1157 54.8768 57.2024L55.2213 56.5803L55.5657 55.9582C55.4146 55.8745 55.2644 55.79 55.1151 55.7048L54.7626 56.3224ZM55.2213 56.5803L54.8768 57.2024L55.1076 57.3302L55.452 56.7081L55.7965 56.086L55.5657 55.9582L55.2213 56.5803ZM55.452 56.7081L55.1076 57.3302L55.3383 57.458L55.6828 56.8359L56.0273 56.2137L55.7965 56.086L55.452 56.7081ZM55.6828 56.8359L55.3383 57.458C55.4854 57.5394 55.6335 57.6245 55.7826 57.7134L56.1467 57.1026L56.5107 56.4917C56.349 56.3953 56.1879 56.3027 56.0273 56.2137L55.6828 56.8359ZM56.1467 57.1026L55.7826 57.7134L56.0157 57.8523L56.3798 57.2415L56.7438 56.6306L56.5107 56.4917L56.1467 57.1026ZM56.3798 57.2415L56.0157 57.8523L56.2488 57.9913L56.6129 57.3804L56.9769 56.7696L56.7438 56.6306L56.3798 57.2415ZM56.6129 57.3804L56.2488 57.9913C56.3821 58.0707 56.5132 58.1587 56.6422 58.2554L57.0688 57.6864L57.4954 57.1175C57.3273 56.9914 57.1545 56.8754 56.9769 56.7696L56.6129 57.3804ZM57.0688 57.6864L56.6422 58.2554L56.865 58.4224L57.2916 57.8534L57.7182 57.2845L57.4954 57.1175L57.0688 57.6864ZM57.2916 57.8534L56.865 58.4224L57.0878 58.5894L57.5144 58.0205L57.941 57.4515L57.7182 57.2845L57.2916 57.8534ZM57.5144 58.0205L57.0878 58.5894C57.0865 58.5885 57.0826 58.5853 57.0775 58.5794C57.0723 58.5735 57.0678 58.5669 57.0643 58.5606C57.0609 58.5543 57.0598 58.5504 57.0598 58.5504C57.0598 58.5506 57.0613 58.5558 57.0625 58.5672L57.7696 58.4917L58.4767 58.4162C58.4364 58.0386 58.2639 57.6937 57.941 57.4515L57.5144 58.0205ZM57.7696 58.4917L57.0625 58.5672L57.095 58.8713L57.8021 58.7958L58.5092 58.7203L58.4767 58.4162L57.7696 58.4917ZM57.8021 58.7958L57.095 58.8713L57.1275 59.1754L57.8346 59.0999L58.5417 59.0244L58.5092 58.7203L57.8021 58.7958ZM57.8346 59.0999L57.1275 59.1754C57.1539 59.4228 57.2033 59.6602 57.281 59.8828L57.9524 59.6486L58.6238 59.4144C58.5877 59.311 58.5586 59.1825 58.5417 59.0244L57.8346 59.0999ZM57.9524 59.6486L57.281 59.8828L57.3663 60.1274L58.0377 59.8932L58.7091 59.6589L58.6238 59.4144L57.9524 59.6486ZM58.0377 59.8932L57.3663 60.1274L57.4516 60.3719L58.123 60.1377L58.7944 59.9035L58.7091 59.6589L58.0377 59.8932ZM58.123 60.1377L57.4516 60.3719C57.5304 60.598 57.6397 60.81 57.7774 61.0071L58.3603 60.5997L58.9431 60.1923C58.8782 60.0995 58.8293 60.0036 58.7944 59.9035L58.123 60.1377ZM58.3603 60.5997L57.7774 61.0071L57.9294 61.2244L58.5122 60.8171L59.0951 60.4097L58.9431 60.1923L58.3603 60.5997ZM58.5122 60.8171L57.9294 61.2244L58.0813 61.4418L58.6642 61.0344L59.247 60.627L59.0951 60.4097L58.5122 60.8171ZM58.6642 61.0344L58.0813 61.4418C58.1178 61.494 58.1366 61.5442 58.1438 61.601L58.8492 61.5109L59.5546 61.4208C59.5177 61.1321 59.4131 60.8647 59.247 60.627L58.6642 61.0344ZM58.8492 61.5109L58.1438 61.601L58.1769 61.86L58.8823 61.7699L59.5877 61.6799L59.5546 61.4208L58.8492 61.5109ZM58.8823 61.7699L58.1769 61.86L58.21 62.1191L58.9154 62.029L59.6207 61.9389L59.5877 61.6799L58.8823 61.7699ZM58.9154 62.029L58.21 62.1191C58.2363 62.3255 58.2774 62.5294 58.3329 62.7307L59.0184 62.5415L59.7039 62.3524C59.6662 62.2157 59.6385 62.0779 59.6207 61.9389L58.9154 62.029ZM59.0184 62.5415L58.3329 62.7307L58.4028 62.9842L59.0883 62.795L59.7738 62.6059L59.7039 62.3524L59.0184 62.5415ZM59.0883 62.795L58.4028 62.9842L58.4728 63.2376L59.1583 63.0485L59.8438 62.8594L59.7738 62.6059L59.0883 62.795ZM59.1583 63.0485L58.4728 63.2376C58.4895 63.2984 58.4918 63.3564 58.4788 63.4208L59.1758 63.5615L59.8729 63.7021C59.9297 63.4206 59.9202 63.1366 59.8438 62.8594L59.1583 63.0485ZM59.1758 63.5615L58.4788 63.4208L58.4264 63.6803L59.1235 63.821L59.8205 63.9616L59.8729 63.7021L59.1758 63.5615ZM59.1235 63.821L58.4264 63.6803L58.3741 63.9398L59.0711 64.0805L59.7682 64.2211L59.8205 63.9616L59.1235 63.821ZM59.0711 64.0805L58.3741 63.9398C58.3176 64.2194 58.3261 64.5008 58.3917 64.7766L59.0835 64.6118L59.7753 64.4471C59.7546 64.3603 59.7548 64.2875 59.7682 64.2211L59.0711 64.0805ZM59.0835 64.6118L58.3917 64.7766L58.4565 65.0485L59.1482 64.8838L59.84 64.719L59.7753 64.4471L59.0835 64.6118ZM59.1482 64.8838L58.4565 65.0485L58.5212 65.3204L59.213 65.1557L59.9048 64.9909L59.84 64.719L59.1482 64.8838ZM59.213 65.1557L58.5212 65.3204C58.5535 65.4561 58.5727 65.5956 58.5784 65.7396L59.2889 65.7116L59.9995 65.6835C59.9902 65.4489 59.9588 65.2178 59.9048 64.9909L59.213 65.1557ZM59.2889 65.7116L58.5784 65.7396L58.5896 66.0236L59.3002 65.9956L60.0107 65.9675L59.9995 65.6835L59.2889 65.7116ZM59.3002 65.9956L58.5896 66.0236L58.6008 66.3076L59.3114 66.2795L60.0219 66.2515L60.0107 65.9675L59.3002 65.9956ZM59.3114 66.2795L58.6008 66.3076C58.6032 66.3671 58.5915 66.4105 58.5668 66.4538L59.1849 66.8055L59.803 67.1571C59.9619 66.8779 60.0345 66.5706 60.0219 66.2515L59.3114 66.2795ZM59.1849 66.8055L58.5668 66.4538L58.4292 66.6958L59.0473 67.0474L59.6653 67.3991L59.803 67.1571L59.1849 66.8055ZM59.0473 67.0474L58.4292 66.6958L58.2915 66.9377L58.9096 67.2894L59.5277 67.641L59.6653 67.3991L59.0473 67.0474ZM58.9096 67.2894L58.2915 66.9377C58.2191 67.065 58.1377 67.1838 58.0474 67.2944L58.5984 67.744L59.1494 68.1936C59.2905 68.0206 59.4166 67.8363 59.5277 67.641L58.9096 67.2894ZM58.5984 67.744L58.0474 67.2944L57.8739 67.5071L58.4249 67.9567L58.9759 68.4062L59.1494 68.1936L58.5984 67.744ZM58.4249 67.9567L57.8739 67.5071L57.7004 67.7198L58.2513 68.1694L58.8023 68.6189L58.9759 68.4062L58.4249 67.9567ZM58.2513 68.1694L57.7004 67.7198C57.5625 67.8888 57.4385 68.0662 57.329 68.2519L57.9414 68.6132L58.5539 68.9746C58.6262 68.8521 58.7088 68.7335 58.8023 68.6189L58.2513 68.1694ZM57.9414 68.6132L57.329 68.2519L57.1926 68.4831L57.8051 68.8444L58.4175 69.2057L58.5539 68.9746L57.9414 68.6132ZM57.8051 68.8444L57.1926 68.4831L57.0562 68.7142L57.6687 69.0755L58.2812 69.4369L58.4175 69.2057L57.8051 68.8444ZM57.6687 69.0755L57.0562 68.7142C56.9773 68.848 56.8912 68.9788 56.7977 69.1066L57.3718 69.5263L57.9459 69.946C58.0665 69.781 58.1783 69.6113 58.2812 69.4369L57.6687 69.0755ZM57.3718 69.5263L56.7977 69.1066L56.6372 69.3262L57.2113 69.7459L57.7853 70.1656L57.9459 69.946L57.3718 69.5263ZM57.2113 69.7459L56.6372 69.3262L56.4767 69.5458L57.0507 69.9655L57.6248 70.3852L57.7853 70.1656L57.2113 69.7459ZM57.0507 69.9655L56.4767 69.5458C56.4764 69.5461 56.4776 69.5446 56.4801 69.5423C56.4826 69.54 56.485 69.5383 56.4865 69.5373C56.488 69.5364 56.487 69.5372 56.4826 69.5389C56.478 69.5406 56.4692 69.5435 56.4551 69.5463L56.593 70.2439L56.731 70.9415C57.0827 70.8719 57.4002 70.6924 57.6248 70.3852L57.0507 69.9655ZM56.593 70.2439L56.4551 69.5463L56.1579 69.605L56.2959 70.3026L56.4339 71.0002L56.731 70.9415L56.593 70.2439ZM56.2959 70.3026L56.1579 69.605L55.8608 69.6638L55.9988 70.3614L56.1367 71.059L56.4339 71.0002L56.2959 70.3026ZM55.9988 70.3614L55.8608 69.6638C55.4567 69.7437 55.1289 69.9822 54.9338 70.3506L55.5622 70.6834L56.1906 71.0163C56.1919 71.0139 56.1906 71.0169 56.1854 71.023C56.1802 71.0292 56.1727 71.0366 56.1632 71.0436C56.1537 71.0505 56.1451 71.0551 56.139 71.0577C56.1331 71.0602 56.1317 71.06 56.1367 71.059L55.9988 70.3614ZM55.5622 70.6834L54.9338 70.3506L54.7943 70.6139L55.4228 70.9467L56.0512 71.2795L56.1906 71.0163L55.5622 70.6834ZM55.4228 70.9467L54.7943 70.6139L54.6549 70.8772L55.2833 71.21L55.9118 71.5428L56.0512 71.2795L55.4228 70.9467ZM55.2833 71.21L54.6549 70.8772C54.6493 70.8878 54.6545 70.874 54.6785 70.8556C54.6899 70.847 54.7021 70.8398 54.7142 70.8346C54.7261 70.8294 54.7348 70.8273 54.7385 70.8266L54.8715 71.5251L55.0045 72.2237C55.4157 72.1454 55.7264 71.8928 55.9118 71.5428L55.2833 71.21ZM54.8715 71.5251L54.7385 70.8266L54.466 70.8784L54.5991 71.577L54.7321 72.2756L55.0045 72.2237L54.8715 71.5251ZM54.5991 71.577L54.466 70.8784L54.1936 70.9303L54.3266 71.6289L54.4596 72.3274L54.7321 72.2756L54.5991 71.577ZM54.3266 71.6289L54.1936 70.9303C53.9503 70.9766 53.7175 71.0541 53.498 71.1642L53.8169 71.7998L54.1358 72.4354C54.2327 72.3868 54.3397 72.3503 54.4596 72.3274L54.3266 71.6289ZM53.8169 71.7998L53.498 71.1642L53.2607 71.2833L53.5796 71.9189L53.8985 72.5545L54.1358 72.4354L53.8169 71.7998ZM53.5796 71.9189L53.2607 71.2833L53.0234 71.4024L53.3423 72.038L53.6612 72.6735L53.8985 72.5545L53.5796 71.9189ZM53.3423 72.038L53.0234 71.4024C52.9685 71.4299 52.9126 71.4432 52.8454 71.4423L52.8358 72.1534L52.8261 72.8644C53.1179 72.8684 53.3996 72.8048 53.6612 72.6735L53.3423 72.038ZM52.8358 72.1534L52.8454 71.4423L52.5763 71.4387L52.5666 72.1497L52.5569 72.8608L52.8261 72.8644L52.8358 72.1534ZM52.5666 72.1497L52.5763 71.4387L52.3071 71.435L52.2974 72.146L52.2877 72.8571L52.5569 72.8608L52.5666 72.1497ZM52.2974 72.146L52.3071 71.435C52.073 71.4318 51.842 71.4554 51.6155 71.5069L51.7729 72.2003L51.9302 72.8938C52.0442 72.868 52.1629 72.8554 52.2877 72.8571L52.2974 72.146ZM51.7729 72.2003L51.6155 71.5069L51.3601 71.5648L51.5175 72.2583L51.6749 72.9518L51.9302 72.8938L51.7729 72.2003ZM51.5175 72.2583L51.3601 71.5648L51.1047 71.6228L51.2621 72.3162L51.4195 73.0097L51.6749 72.9518L51.5175 72.2583ZM51.2621 72.3162L51.1047 71.6228C51.042 71.637 50.976 71.6381 50.8985 71.6206L50.7415 72.3141L50.5845 73.0077C50.8607 73.0702 51.1418 73.0728 51.4195 73.0097L51.2621 72.3162ZM50.7415 72.3141L50.8985 71.6206L50.6333 71.5605L50.4762 72.2541L50.3192 72.9476L50.5845 73.0077L50.7415 72.3141ZM50.4762 72.2541L50.6333 71.5605L50.368 71.5005L50.211 72.194L50.0539 72.8876L50.3192 72.9476L50.4762 72.2541ZM50.211 72.194L50.368 71.5005C50.0876 71.437 49.8034 71.4371 49.5231 71.5001L49.679 72.1939L49.8349 72.8877C49.9102 72.8708 49.9806 72.871 50.0539 72.8876L50.211 72.194ZM49.679 72.1939L49.5231 71.5001L49.2565 71.56L49.4123 72.2538L49.5682 72.9476L49.8349 72.8877L49.679 72.1939ZM49.4123 72.2538L49.2565 71.56L48.9898 71.6199L49.1457 72.3137L49.3016 73.0075L49.5682 72.9476L49.4123 72.2538ZM49.1457 72.3137L48.9898 71.6199C48.7707 71.6691 48.5546 71.7381 48.3417 71.8258L48.6123 72.4834L48.883 73.1409C49.0256 73.0822 49.1651 73.0382 49.3016 73.0075L49.1457 72.3137ZM48.6123 72.4834L48.3417 71.8258L48.075 71.9355L48.3457 72.5931L48.6163 73.2507L48.883 73.1409L48.6123 72.4834ZM48.3457 72.5931L48.075 71.9355L47.8084 72.0453L48.079 72.7029L48.3497 73.3605L48.6163 73.2507L48.3457 72.5931ZM48.079 72.7029L47.8084 72.0453C47.7297 72.0777 47.6683 72.084 47.6149 72.0788L47.5457 72.7865L47.4765 73.4943C47.7787 73.5238 48.0728 73.4744 48.3497 73.3605L48.079 72.7029ZM47.5457 72.7865L47.6149 72.0788L47.3482 72.0527L47.279 72.7605L47.2098 73.4682L47.4765 73.4943L47.5457 72.7865ZM47.279 72.7605L47.3482 72.0527L47.0815 72.0267L47.0123 72.7344L46.9431 73.4421L47.2098 73.4682L47.279 72.7605ZM47.0123 72.7344L47.0815 72.0267C46.9333 72.0122 46.7843 71.9883 46.6343 71.9547L46.479 72.6486L46.3237 73.3426C46.5293 73.3886 46.7358 73.4219 46.9431 73.4421L47.0123 72.7344ZM46.479 72.6486L46.6343 71.9547L46.3677 71.895L46.2123 72.589L46.057 73.2829L46.3237 73.3426L46.479 72.6486ZM46.2123 72.589L46.3677 71.895L46.101 71.8353L45.9457 72.5293L45.7904 73.2232L46.057 73.2829L46.2123 72.589ZM45.9457 72.5293L46.101 71.8353C45.8799 71.7859 45.6569 71.7576 45.4326 71.7512L45.4123 72.462L45.3921 73.1728C45.5233 73.1766 45.6559 73.1931 45.7904 73.2232L45.9457 72.5293ZM45.4123 72.462L45.4326 71.7512L45.1659 71.7436L45.1457 72.4544L45.1254 73.1652L45.3921 73.1728L45.4123 72.462ZM45.1457 72.4544L45.1659 71.7436L44.8993 71.736L44.879 72.4468L44.8588 73.1576L45.1254 73.1652L45.1457 72.4544ZM44.879 72.4468L44.8993 71.736C44.6724 71.7295 44.4462 71.7465 44.2214 71.7864L44.3457 72.4865L44.4699 73.1867C44.6008 73.1635 44.7301 73.154 44.8588 73.1576L44.879 72.4468ZM44.3457 72.4865L44.2214 71.7864L43.9548 71.8337L44.079 72.5339L44.2033 73.234L44.4699 73.1867L44.3457 72.4865ZM44.079 72.5339L43.9548 71.8337L43.6881 71.881L43.8123 72.5812L43.9366 73.2814L44.2033 73.234L44.079 72.5339ZM43.8123 72.5812L43.6881 71.881C43.5429 71.9068 43.3985 71.922 43.2547 71.9269L43.279 72.6376L43.3032 73.3483C43.5151 73.3411 43.7263 73.3187 43.9366 73.2814L43.8123 72.5812ZM43.279 72.6376L43.2547 71.9269L42.988 71.936L43.0122 72.6467L43.0365 73.3574L43.3032 73.3483L43.279 72.6376ZM43.0122 72.6467L42.988 71.936L42.7213 71.9451L42.7455 72.6558L42.7698 73.3665L43.0365 73.3574L43.0122 72.6467ZM42.7455 72.6558L42.7213 71.9451C42.602 71.9492 42.4823 71.9387 42.361 71.913L42.2136 72.6087L42.0662 73.3044C42.2985 73.3536 42.5334 73.3746 42.7698 73.3665L42.7455 72.6558ZM42.2136 72.6087L42.361 71.913L42.0957 71.8568L41.9483 72.5525L41.8009 73.2482L42.0662 73.3044L42.2136 72.6087ZM41.9483 72.5525L42.0957 71.8568L41.8305 71.8006L41.6831 72.4963L41.5357 73.192L41.8009 73.2482L41.9483 72.5525ZM41.6831 72.4963L41.8305 71.8006C41.7139 71.776 41.6028 71.7369 41.4958 71.6829L41.1753 72.3176L40.8547 72.9524C41.0711 73.0617 41.2986 73.1418 41.5357 73.192L41.6831 72.4963ZM41.1753 72.3176L41.4958 71.6829L41.2532 71.5603L40.9327 72.1951L40.6121 72.8298L40.8547 72.9524L41.1753 72.3176ZM40.9327 72.1951L41.2532 71.5603L41.0106 71.4378L40.6901 72.0726L40.3695 72.7073L40.6121 72.8298L40.9327 72.1951ZM40.6901 72.0726L41.0106 71.4378C40.7529 71.3076 40.4757 71.2393 40.1871 71.2344L40.175 71.9454L40.163 72.6564C40.2376 72.6577 40.3038 72.6741 40.3695 72.7073L40.6901 72.0726ZM40.175 71.9454L40.1871 71.2344L39.9147 71.2298L39.9026 71.9408L39.8906 72.6518L40.163 72.6564L40.175 71.9454ZM39.9026 71.9408L39.9147 71.2298L39.6422 71.2252L39.6302 71.9362L39.6182 72.6472L39.8906 72.6518L39.9026 71.9408ZM39.6302 71.9362L39.6422 71.2252C39.563 71.2238 39.4968 71.207 39.435 71.1765L39.1198 71.8139L38.8046 72.4513C39.0601 72.5777 39.3341 72.6424 39.6182 72.6472L39.6302 71.9362ZM39.1198 71.8139L39.435 71.1765L39.197 71.0588L38.8818 71.6962L38.5666 72.3336L38.8046 72.4513L39.1198 71.8139ZM38.8818 71.6962L39.197 71.0588L38.9591 70.9411L38.6438 71.5785L38.3286 72.2159L38.5666 72.3336L38.8818 71.6962ZM38.6438 71.5785L38.9591 70.9411C38.7656 70.8454 38.5632 70.765 38.3525 70.6992L38.1406 71.3781L37.9288 72.0569C38.0718 72.1015 38.2048 72.1547 38.3286 72.2159L38.6438 71.5785ZM38.1406 71.3781L38.3525 70.6992L38.0873 70.6165L37.8754 71.2953L37.6636 71.9741L37.9288 72.0569L38.1406 71.3781ZM37.8754 71.2953L38.0873 70.6165L37.822 70.5337L37.6102 71.2125L37.3983 71.8913L37.6636 71.9741L37.8754 71.2953ZM37.6102 71.2125L37.822 70.5337C37.7297 70.5049 37.6509 70.4623 37.5805 70.4053L37.1327 70.9577L36.6849 71.51C36.8975 71.6824 37.137 71.8098 37.3983 71.8913L37.6102 71.2125ZM37.1327 70.9577L37.5805 70.4053L37.3683 70.2332L36.9204 70.7856L36.4726 71.338L36.6849 71.51L37.1327 70.9577ZM36.9204 70.7856L37.3683 70.2332L37.156 70.0611L36.7082 70.6135L36.2604 71.1659L36.4726 71.338L36.9204 70.7856ZM36.7082 70.6135L37.156 70.0611C37.133 70.0424 37.1073 70.0135 37.0861 69.9457L36.4073 70.1576L35.7285 70.3695C35.8255 70.6802 36.0004 70.9551 36.2604 71.1659L36.7082 70.6135ZM36.4073 70.1576L37.0861 69.9457L36.9975 69.6619L36.3187 69.8738L35.6399 70.0857L35.7285 70.3695L36.4073 70.1576ZM36.3187 69.8738L36.9975 69.6619L36.909 69.3781L36.2301 69.59L35.5513 69.8018L35.6399 70.0857L36.3187 69.8738ZM36.2301 69.59L36.909 69.3781C36.8348 69.1406 36.7371 68.9172 36.6111 68.7138L36.0066 69.0882L35.402 69.4626C35.456 69.5497 35.5073 69.6608 35.5513 69.8018L36.2301 69.59ZM36.0066 69.0882L36.6111 68.7138L36.4761 68.4958L35.8716 68.8702L35.267 69.2446L35.402 69.4626L36.0066 69.0882ZM35.8716 68.8702L36.4761 68.4958L36.3412 68.2778L35.7366 68.6523L35.132 69.0267L35.267 69.2446L35.8716 68.8702ZM35.7366 68.6523L36.3412 68.2778C36.2164 68.0764 36.065 67.894 35.8901 67.7307L35.4047 68.2503L34.9193 68.77C35.0069 68.8519 35.0768 68.9375 35.132 69.0267L35.7366 68.6523ZM35.4047 68.2503L35.8901 67.7307L35.6931 67.5467L35.2077 68.0664L34.7223 68.5861L34.9193 68.77L35.4047 68.2503ZM35.2077 68.0664L35.6931 67.5467L35.4962 67.3628L35.0108 67.8824L34.5254 68.4021L34.7223 68.5861L35.2077 68.0664ZM35.0108 67.8824L35.4962 67.3628C35.3902 67.2638 35.2894 67.1552 35.1938 67.0364L34.6398 67.4821L34.0857 67.9279C34.2222 68.0975 34.3687 68.2558 34.5254 68.4021L35.0108 67.8824ZM34.6398 67.4821L35.1938 67.0364L35.0198 66.82L34.4657 67.2657L33.9116 67.7115L34.0857 67.9279L34.6398 67.4821ZM34.4657 67.2657L35.0198 66.82L34.8457 66.6036L34.2916 67.0494L33.7376 67.4951L33.9116 67.7115L34.4657 67.2657ZM34.2916 67.0494L34.8457 66.6036C34.8481 66.6067 34.8534 66.614 34.8591 66.6255C34.8648 66.6373 34.8694 66.6505 34.8723 66.6641C34.8785 66.6928 34.8736 66.7057 34.8764 66.6926L34.1819 66.5401L33.4873 66.3876C33.4025 66.774 33.4746 67.1683 33.7376 67.4951L34.2916 67.0494ZM34.1819 66.5401L34.8764 66.6926L34.9408 66.3997L34.2462 66.2472L33.5516 66.0947L33.4873 66.3876L34.1819 66.5401ZM34.2462 66.2472L34.9408 66.3997L35.0051 66.1068L34.3105 65.9543L33.6159 65.8018L33.5516 66.0947L34.2462 66.2472ZM34.3105 65.9543L35.0051 66.1068C35.0768 65.7803 35.0564 65.4427 34.912 65.1237L34.2642 65.417L33.6164 65.7104C33.6195 65.7172 33.63 65.7377 33.6159 65.8018L34.3105 65.9543ZM34.2642 65.417L34.912 65.1237L34.8014 64.8794L34.1536 65.1727L33.5058 65.4661L33.6164 65.7104L34.2642 65.417ZM34.1536 65.1727L34.8014 64.8794L34.6907 64.6351L34.0429 64.9284L33.3952 65.2218L33.5058 65.4661L34.1536 65.1727ZM34.0429 64.9284L34.6907 64.6351C34.6719 64.5935 34.668 64.5609 34.6735 64.5217L33.9694 64.422L33.2654 64.3223C33.2214 64.6326 33.2665 64.9376 33.3952 65.2218L34.0429 64.9284ZM33.9694 64.422L34.6735 64.5217L34.7106 64.2596L34.0066 64.1599L33.3025 64.0602L33.2654 64.3223L33.9694 64.422ZM34.0066 64.1599L34.7106 64.2596L34.7478 63.9975L34.0437 63.8978L33.3396 63.7981L33.3025 64.0602L34.0066 64.1599ZM34.0437 63.8978L34.7478 63.9975C34.7726 63.8222 34.7968 63.6494 34.8205 63.4791L34.1161 63.3813L33.4118 63.2835C33.3883 63.4524 33.3643 63.624 33.3396 63.7981L34.0437 63.8978ZM34.1161 63.3813L34.8205 63.4791L34.8558 63.2247L34.1515 63.1269L33.4471 63.0291L33.4118 63.2835L34.1161 63.3813ZM34.1515 63.1269L34.8558 63.2247L34.8911 62.9704L34.1868 62.8725L33.4824 62.7747L33.4471 63.0291L34.1515 63.1269ZM34.1868 62.8725L34.8911 62.9704C34.9252 62.725 34.9197 62.477 34.88 62.2293L34.1779 62.3417L33.4757 62.4541C33.4951 62.575 33.4955 62.6809 33.4824 62.7747L34.1868 62.8725ZM34.1779 62.3417L34.88 62.2293L34.8358 61.9529L34.1336 62.0653L33.4314 62.1777L33.4757 62.4541L34.1779 62.3417ZM34.1336 62.0653L34.8358 61.9529L34.7915 61.6765L34.0894 61.7889L33.3872 61.9012L33.4314 62.1777L34.1336 62.0653ZM34.0894 61.7889L34.7915 61.6765C34.7746 61.5707 34.7762 61.4713 34.7943 61.3747L34.0953 61.2441L33.3963 61.1135C33.3475 61.3746 33.3451 61.6385 33.3872 61.9012L34.0894 61.7889ZM34.0953 61.2441L34.7943 61.3747L34.8444 61.1064L34.1454 60.9758L33.4464 60.8451L33.3963 61.1135L34.0953 61.2441ZM34.1454 60.9758L34.8444 61.1064L34.8946 60.8381L34.1956 60.7075L33.4966 60.5768L33.4464 60.8451L34.1454 60.9758ZM34.1956 60.7075L34.8946 60.8381C34.9162 60.7223 34.9526 60.6126 35.0042 60.5072L34.3656 60.1944L33.727 59.8816C33.6187 60.1026 33.5418 60.3349 33.4966 60.5768L34.1956 60.7075ZM34.3656 60.1944L35.0042 60.5072L35.1241 60.2625L34.4855 59.9497L33.8468 59.6369L33.727 59.8816L34.3656 60.1944ZM34.4855 59.9497L35.1241 60.2625L35.2439 60.0178L34.6053 59.705L33.9667 59.3922L33.8468 59.6369L34.4855 59.9497ZM34.6053 59.705L35.2439 60.0178C35.3331 59.8358 35.4151 59.648 35.4901 59.4545L34.827 59.1975L34.164 58.9405C34.1032 59.0974 34.0374 59.2479 33.9667 59.3922L34.6053 59.705ZM34.827 59.1975L35.4901 59.4545L35.5919 59.1918L34.9288 58.9348L34.2658 58.6778L34.164 58.9405L34.827 59.1975ZM34.9288 58.9348L35.5919 59.1918L35.6937 58.9291L35.0307 58.6721L34.3676 58.4151L34.2658 58.6778L34.9288 58.9348ZM35.0307 58.6721L35.6937 58.9291C35.7249 58.8486 35.7687 58.7829 35.828 58.7254L35.3328 58.2151L34.8376 57.7047C34.6298 57.9064 34.4722 58.1454 34.3676 58.4151L35.0307 58.6721ZM35.3328 58.2151L35.828 58.7254L36.0283 58.531L35.5331 58.0207L35.0378 57.5104L34.8376 57.7047L35.3328 58.2151ZM35.5331 58.0207L36.0283 58.531L36.2286 58.3366L35.7334 57.8263L35.2381 57.316L35.0378 57.5104L35.5331 58.0207ZM35.7334 57.8263L36.2286 58.3366C36.2939 58.2732 36.3716 58.2219 36.4681 58.1829L36.2015 57.5236L35.9348 56.8644C35.6742 56.9698 35.4399 57.1202 35.2381 57.316L35.7334 57.8263ZM36.2015 57.5236L36.4681 58.1829L36.7359 58.0746L36.4693 57.4153L36.2026 56.7561L35.9348 56.8644L36.2015 57.5236ZM36.4693 57.4153L36.7359 58.0746L37.0037 57.9663L36.7371 57.307L36.4704 56.6478L36.2026 56.7561L36.4693 57.4153ZM36.7371 57.307L37.0037 57.9663C37.3303 57.8342 37.5898 57.6069 37.767 57.3055L37.1541 56.945L36.5412 56.5844C36.5194 56.6214 36.5008 56.6355 36.4704 56.6478L36.7371 57.307ZM37.1541 56.945L37.767 57.3055L37.9163 57.0518L37.3034 56.6913L36.6904 56.3307L36.5412 56.5844L37.1541 56.945ZM37.3034 56.6913L37.9163 57.0518L38.0656 56.7981L37.4526 56.4375L36.8397 56.077L36.6904 56.3307L37.3034 56.6913ZM37.4526 56.4375L38.0656 56.7981C38.0687 56.7928 38.0693 56.7927 38.0666 56.7958C38.0637 56.799 38.0585 56.8041 38.051 56.8095C38.0435 56.815 38.036 56.819 38.0297 56.8217C38.0235 56.8244 38.0206 56.8248 38.0225 56.8244L37.882 56.1273L37.7415 55.4302C37.3499 55.5092 37.0382 55.7396 36.8397 56.077L37.4526 56.4375ZM37.882 56.1273L38.0225 56.8244L38.3025 56.768L38.1621 56.0709L38.0216 55.3738L37.7415 55.4302L37.882 56.1273ZM38.1621 56.0709L38.3025 56.768L38.5826 56.7115L38.4421 56.0144L38.3017 55.3174L38.0216 55.3738L38.1621 56.0709ZM38.4421 56.0144L38.5826 56.7115C38.867 56.6542 39.1306 56.5403 39.3658 56.3695L38.9479 55.7941L38.5301 55.2187C38.4643 55.2665 38.3908 55.2994 38.3017 55.3174L38.4421 56.0144ZM38.9479 55.7941L39.3658 56.3695L39.5915 56.2056L39.1737 55.6302L38.7558 55.0548L38.5301 55.2187L38.9479 55.7941ZM39.1737 55.6302L39.5915 56.2056L39.8172 56.0417L39.3994 55.4663L38.9815 54.8909L38.7558 55.0548L39.1737 55.6302ZM39.3994 55.4663L39.8172 56.0417C39.8436 56.0225 39.8635 56.0157 39.8994 56.016L39.9058 55.3049L39.9121 54.5938C39.5738 54.5908 39.2561 54.6915 38.9815 54.8909L39.3994 55.4663ZM39.9058 55.3049L39.8994 56.016L40.1801 56.0185L40.1864 55.3074L40.1928 54.5963L39.9121 54.5938L39.9058 55.3049ZM40.1864 55.3074L40.1801 56.0185L40.4608 56.021L40.4671 55.3099L40.4735 54.5988L40.1928 54.5963L40.1864 55.3074ZM40.4671 55.3099L40.4608 56.021C40.6959 56.0231 40.9273 56.0014 41.1537 55.9546L41.0095 55.2582L40.8652 54.5619C40.7427 54.5873 40.6126 54.6001 40.4735 54.5988L40.4671 55.3099ZM41.0095 55.2582L41.1537 55.9546L41.4153 55.9004L41.2711 55.204L41.1269 54.5077L40.8652 54.5619L41.0095 55.2582ZM41.2711 55.204L41.4153 55.9004L41.677 55.8462L41.5328 55.1498L41.3885 54.4535L41.1269 54.5077L41.2711 55.204ZM41.5328 55.1498L41.677 55.8462C41.6965 55.8421 41.7108 55.8402 41.7204 55.8394C41.7299 55.8385 41.7339 55.8388 41.7331 55.8388C41.7321 55.8387 41.726 55.8383 41.7157 55.8359C41.7053 55.8335 41.6915 55.8293 41.6757 55.8222L41.968 55.1739L42.2604 54.5257C41.9626 54.3914 41.6524 54.3988 41.3885 54.4535L41.5328 55.1498ZM41.968 55.1739L41.6757 55.8222L41.8493 55.9005L42.1417 55.2523L42.4341 54.604L42.2604 54.5257L41.968 55.1739ZM42.1417 55.2523L41.8493 55.9005L42.0229 55.9788L42.3153 55.3306L42.6077 54.6824L42.4341 54.604L42.1417 55.2523ZM42.3153 55.3306L42.0229 55.9788C42.0885 56.0084 42.2455 56.0775 42.4295 56.0817C42.5274 56.0839 42.7393 56.0703 42.9336 55.9082C43.1506 55.7272 43.2001 55.4866 43.2001 55.3345H42.4889H41.7778C41.7778 55.2073 41.8201 54.985 42.0225 54.8161C42.2024 54.6661 42.3926 54.6582 42.4616 54.6598C42.5877 54.6626 42.6579 54.705 42.6077 54.6824L42.3153 55.3306ZM42.4889 55.3345H43.2001V55.2601H42.4889H41.7778V55.3345H42.4889ZM42.4889 55.2601H43.2001V55.1857H42.4889H41.7778V55.2601H42.4889ZM42.4889 55.1857H43.2001C43.2001 55.4005 43.1008 55.5492 43.0369 55.6211C42.9763 55.6891 42.9197 55.7218 42.9059 55.7296C42.8775 55.7457 42.8809 55.7386 42.9518 55.7183L42.7556 55.0348L42.5594 54.3513C42.4526 54.3819 42.3226 54.4255 42.2053 54.4919C42.1471 54.5249 42.0571 54.5827 41.9743 54.6757C41.8882 54.7726 41.7778 54.9461 41.7778 55.1857H42.4889ZM42.7556 55.0348L42.9518 55.7183L43.2185 55.6417L43.0223 54.9582L42.826 54.2747L42.5594 54.3513L42.7556 55.0348Z" fill="#3D3D3D"/>
<path d="M78.1337 54.9974L78.0334 54.2934L78.1337 54.9974ZM78.667 54.9042L78.8113 55.6005L78.667 54.9042ZM79.7337 54.8486L80.0053 54.1914L79.7337 54.8486ZM80.267 55.069L79.9953 55.7262L80.267 55.069ZM80.8003 55.1027L80.6042 54.4192L80.8003 55.1027ZM81.3337 54.9497L81.5298 55.6332L81.3337 54.9497ZM81.867 54.8264L81.7443 54.126L81.867 54.8264ZM82.4003 54.733L82.523 55.4334L82.4003 54.733ZM83.2003 54.7256L83.148 55.4348L83.2003 54.7256ZM84.0003 54.9456L84.3991 54.3568L84.0003 54.9456ZM84.5337 55.3068L84.1349 55.8956L84.5337 55.3068ZM86.1075 55.455L86.2719 54.7632L86.1075 55.455ZM86.6099 55.5745L86.4455 56.2663L86.6099 55.5745ZM87.449 55.43L87.2157 54.7583L87.449 55.43ZM87.7429 55.328L87.9762 55.9997L87.7429 55.328ZM88.2927 55.3235L88.0392 55.9879L88.2927 55.3235ZM88.8043 55.5187L89.0578 54.8543L88.8043 55.5187ZM89.4669 56.0017L88.9777 56.5179L89.4669 56.0017ZM90.0637 56.5719L89.5681 57.0819L90.0637 56.5719ZM90.4438 56.9413L90.9394 56.4313L90.4438 56.9413ZM90.8607 57.2624L91.2272 56.653L90.8607 57.2624ZM91.0876 57.3989L90.7211 58.0083L91.0876 57.3989ZM91.3145 57.5353L90.948 58.1447L91.3145 57.5353ZM91.6638 57.9105L92.2966 57.586L91.6638 57.9105ZM91.7863 58.1493L91.1535 58.4738L91.7863 58.1493ZM91.9087 58.3882L92.5415 58.0637L91.9087 58.3882ZM92.2424 58.796L92.6868 58.2408L92.2424 58.796ZM92.4536 58.965L92.8979 58.4099L92.4536 58.965ZM92.6648 59.1341L92.2204 59.6892L92.6648 59.1341ZM93.1097 59.4863L92.671 60.046L93.1097 59.4863ZM93.5772 59.8528L94.0159 59.2931L93.5772 59.8528ZM93.8547 60.3143L94.5572 60.2039L93.8547 60.3143ZM93.8985 60.5927L93.196 60.7031L93.8985 60.5927ZM93.9422 60.871L93.2398 60.9815L93.9422 60.871ZM94.0485 61.4137L94.7405 61.25L94.0485 61.4137ZM94.1735 61.9422L93.4815 62.1059L94.1735 61.9422ZM94.2656 62.4762L93.5587 62.5537L94.2656 62.4762ZM94.2952 62.7459L93.5883 62.8233L94.2952 62.7459ZM94.3247 63.0155L95.0316 62.938L94.3247 63.0155ZM94.2377 63.5492L94.8882 63.8365L94.2377 63.5492ZM94.0044 64.0774L93.3539 63.7901L94.0044 64.0774ZM93.9325 64.6104L94.634 64.4937L93.9325 64.6104ZM93.9772 64.8793L94.6787 64.7627L93.9772 64.8793ZM94.022 65.1483L93.3205 65.2649L94.022 65.1483ZM94.0947 65.7047L94.8024 65.6357L94.0947 65.7047ZM94.1507 66.2797L93.443 66.3487L94.1507 66.2797ZM93.9154 66.7519L93.507 66.1698L93.9154 66.7519ZM93.6521 66.9367L94.0605 67.5188L93.6521 66.9367ZM93.3888 67.1214L92.9803 66.5393L93.3888 67.1214ZM93.0367 67.5517L92.3679 67.3098L93.0367 67.5517ZM92.8591 68.0427L93.5278 68.2845L92.8591 68.0427ZM92.6973 68.5631L93.3847 68.7455L92.6973 68.5631ZM92.5515 69.1129L91.8641 68.9306L92.5515 69.1129ZM92.2859 69.5803L91.7833 69.0772L92.2859 69.5803ZM92.0932 69.7727L91.5907 69.2696L92.0932 69.7727ZM91.9006 69.9651L92.4032 70.4682L91.9006 69.9651ZM91.5327 70.3738L90.9803 69.926L91.5327 70.3738ZM91.182 70.8063L91.7344 71.2541L91.182 70.8063ZM90.7814 71.185L90.3655 70.6082L90.7814 71.185ZM90.5561 71.3475L90.9721 71.9243L90.5561 71.3475ZM90.3308 71.51L89.9148 70.9332L90.3308 71.51ZM89.7843 71.6292L89.6894 72.334L89.7843 71.6292ZM89.1419 71.5428L89.0471 72.2475L89.1419 71.5428ZM88.5952 71.6375L88.2241 71.0309L88.5952 71.6375ZM88.1443 71.9134L88.5154 72.52L88.1443 71.9134ZM87.6614 72.099L87.5319 71.3997L87.6614 72.099ZM87.404 72.1466L87.5334 72.8459L87.404 72.1466ZM87.1465 72.1943L87.0171 71.4951L87.1465 72.1943ZM86.6304 72.2932L86.7686 72.9908L86.6304 72.2932ZM86.3717 72.3444L86.2335 71.6469L86.3717 72.3444ZM86.113 72.3957L86.2512 73.0932L86.113 72.3957ZM85.5884 72.37L85.786 71.6869L85.5884 72.37ZM85.3224 72.293L85.1247 72.9761L85.3224 72.293ZM84.5237 72.1653L84.5934 72.873L84.5237 72.1653ZM83.9904 72.2178L83.9208 71.5101L83.9904 72.2178ZM83.4571 72.2971L83.3182 71.5997L83.4571 72.2971ZM82.9237 72.4034L83.0626 73.1008L82.9237 72.4034ZM82.3904 72.4791L82.3303 71.7705L82.3904 72.4791ZM81.8571 72.5243L81.9172 73.2329L81.8571 72.5243ZM81.3237 72.4888L81.1722 73.1836L81.3237 72.4888ZM80.2571 72.4748L80.6238 73.084L80.2571 72.4748ZM79.7237 72.7958L80.0905 73.4051L79.7237 72.7958ZM79.1904 72.9557L79.1922 72.2445L79.1904 72.9557ZM78.9237 72.955L78.9219 73.6661L78.9237 72.955ZM78.6571 72.9543L78.6589 72.2432L78.6571 72.9543ZM78.1237 72.862L77.8926 73.5345L78.1237 72.862ZM77.857 72.7704L77.6259 73.4429L77.857 72.7704ZM77.5903 72.6787L77.8214 72.0062L77.5903 72.6787ZM77.0588 72.5467L76.9517 73.2497L77.0588 72.5467ZM76.0241 72.2955L76.3628 71.6702L76.0241 72.2955ZM75.5437 72.0353L75.205 72.6606L75.5437 72.0353ZM74.102 71.4797L73.8771 72.1543L74.102 71.4797ZM73.8584 71.3985L73.6335 72.0731L73.8584 71.3985ZM73.6147 71.3172L73.8396 70.6426L73.6147 71.3172ZM73.0501 71.2457L73.0287 70.5349L73.0501 71.2457ZM72.4083 71.2651L72.4298 71.9758L72.4083 71.2651ZM71.9926 70.9651L72.6725 70.7568L71.9926 70.9651ZM71.8028 70.3457L71.1229 70.5539L71.8028 70.3457ZM71.4591 69.9127L71.1434 70.5499L71.4591 69.9127ZM70.9614 69.6661L71.2771 69.0289L70.9614 69.6661ZM70.5335 69.3412L70.0019 69.8135L70.5335 69.3412ZM70.1753 68.938L70.7069 68.4657L70.1753 68.938ZM69.9422 68.4615L69.2444 68.5987L69.9422 68.4615ZM69.1725 67.0319L69.6744 66.5281L69.1725 67.0319ZM68.8722 65.4684L68.1758 65.6125L68.8722 65.4684ZM68.7649 64.9499L69.4613 64.8058L68.7649 64.9499ZM68.6086 64.4235L69.2723 64.1684L68.6086 64.4235ZM68.4032 63.8892L67.7394 64.1444L68.4032 63.8892ZM68.3259 63.3471L67.6178 63.2818L68.3259 63.3471ZM69.0823 61.8507L69.5818 62.3568L69.0823 61.8507ZM69.2342 61.0471L68.5289 61.1383L69.2342 61.0471ZM69.4401 59.6968L68.772 59.4533L69.4401 59.6968ZM69.7962 59.294L70.1417 59.9155L69.7962 59.294ZM70.6217 58.5402L69.9157 58.455L70.6217 58.5402ZM70.6598 58.2241L71.3658 58.3093L70.6598 58.2241ZM70.6979 57.908L69.9919 57.8229L70.6979 57.908ZM70.9674 57.4369L70.5715 56.8462L70.9674 57.4369ZM71.1988 57.2819L71.5946 57.8726L71.1988 57.2819ZM72.3349 56.5128L71.9344 55.9252L72.3349 56.5128ZM72.8099 56.2563L72.5384 55.599L72.8099 56.2563ZM74.8652 55.6249L74.4297 55.0628L74.8652 55.6249ZM75.0929 55.4485L75.5285 56.0106L75.0929 55.4485ZM75.3207 55.272L74.8851 54.7099L75.3207 55.272ZM76.8131 55.1526L77.0178 54.4716L76.8131 55.1526ZM76.9866 55.2048L76.7819 55.8858L76.9866 55.2048ZM77.1601 55.2569L76.9554 55.9379L77.1601 55.2569ZM77.867 55.0354L77.9672 55.7394L78.2339 55.7014L78.1337 54.9974L78.0334 54.2934L77.7668 54.3314L77.867 55.0354ZM78.1337 54.9974L78.2339 55.7014C78.4266 55.674 78.6191 55.6403 78.8113 55.6005L78.667 54.9042L78.5227 54.2079C78.3593 54.2417 78.1963 54.2702 78.0334 54.2934L78.1337 54.9974ZM78.667 54.9042L78.8113 55.6005L79.078 55.5452L78.9337 54.8489L78.7893 54.1526L78.5227 54.2079L78.667 54.9042ZM78.9337 54.8489L79.078 55.5452L79.3447 55.4899L79.2003 54.7936L79.056 54.0973L78.7893 54.1526L78.9337 54.8489ZM79.2003 54.7936L79.3447 55.4899C79.3745 55.4837 79.4076 55.4833 79.462 55.5058L79.7337 54.8486L80.0053 54.1914C79.7042 54.0669 79.3817 54.0298 79.056 54.0973L79.2003 54.7936ZM79.7337 54.8486L79.462 55.5058L79.7287 55.616L80.0003 54.9588L80.272 54.3016L80.0053 54.1914L79.7337 54.8486ZM80.0003 54.9588L79.7287 55.616L79.9953 55.7262L80.267 55.069L80.5387 54.4119L80.272 54.3016L80.0003 54.9588ZM80.267 55.069L79.9953 55.7262C80.3152 55.8584 80.6577 55.8835 80.9965 55.7862L80.8003 55.1027L80.6042 54.4192C80.5874 54.424 80.5744 54.4266 80.5387 54.4119L80.267 55.069ZM80.8003 55.1027L80.9965 55.7862L81.2632 55.7097L81.067 55.0262L80.8708 54.3427L80.6042 54.4192L80.8003 55.1027ZM81.067 55.0262L81.2632 55.7097L81.5298 55.6332L81.3337 54.9497L81.1375 54.2661L80.8708 54.3427L81.067 55.0262ZM81.3337 54.9497L81.5298 55.6332C81.684 55.5889 81.8373 55.5536 81.9897 55.5269L81.867 54.8264L81.7443 54.126C81.5412 54.1616 81.3389 54.2084 81.1375 54.2661L81.3337 54.9497ZM81.867 54.8264L81.9897 55.5269L82.2564 55.4802L82.1337 54.7797L82.011 54.0793L81.7443 54.126L81.867 54.8264ZM82.1337 54.7797L82.2564 55.4802L82.523 55.4334L82.4003 54.733L82.2776 54.0325L82.011 54.0793L82.1337 54.7797ZM82.4003 54.733L82.523 55.4334C82.6438 55.4123 82.7628 55.4064 82.8814 55.4151L82.9337 54.7059L82.986 53.9968C82.749 53.9793 82.5124 53.9914 82.2776 54.0325L82.4003 54.733ZM82.9337 54.7059L82.8814 55.4151L83.148 55.4348L83.2003 54.7256L83.2526 54.0164L82.986 53.9968L82.9337 54.7059ZM83.2003 54.7256L83.148 55.4348L83.4147 55.4545L83.467 54.7453L83.5193 54.0361L83.2526 54.0164L83.2003 54.7256ZM83.467 54.7453L83.4147 55.4545C83.4453 55.4567 83.5057 55.4694 83.6015 55.5343L84.0003 54.9456L84.3991 54.3568C84.1394 54.1809 83.8442 54.06 83.5193 54.0361L83.467 54.7453ZM84.0003 54.9456L83.6015 55.5343L83.8682 55.715L84.267 55.1262L84.6658 54.5375L84.3991 54.3568L84.0003 54.9456ZM84.267 55.1262L83.8682 55.715L84.1349 55.8956L84.5337 55.3068L84.9325 54.7181L84.6658 54.5375L84.267 55.1262ZM84.5337 55.3068L84.1349 55.8956C84.4177 56.0872 84.7545 56.2053 85.1261 56.1729L85.0643 55.4644L85.0025 54.756C85.0074 54.7556 85.0088 54.7569 85.0021 54.7549C84.9939 54.7524 84.9707 54.744 84.9325 54.7181L84.5337 55.3068ZM85.0643 55.4644L85.1261 56.1729L85.3901 56.1498L85.3283 55.4414L85.2665 54.733L85.0025 54.756L85.0643 55.4644ZM85.3283 55.4414L85.3901 56.1498L85.6541 56.1268L85.5923 55.4184L85.5304 54.7099L85.2665 54.733L85.3283 55.4414ZM85.5923 55.4184L85.6541 56.1268C85.7562 56.1179 85.8515 56.1251 85.943 56.1469L86.1075 55.455L86.2719 54.7632C86.0284 54.7053 85.7802 54.6881 85.5304 54.7099L85.5923 55.4184ZM86.1075 55.455L85.943 56.1469L86.1943 56.2066L86.3587 55.5147L86.5231 54.8229L86.2719 54.7632L86.1075 55.455ZM86.3587 55.5147L86.1943 56.2066L86.4455 56.2663L86.6099 55.5745L86.7744 54.8826L86.5231 54.8229L86.3587 55.5147ZM86.6099 55.5745L86.4455 56.2663C86.7696 56.3433 87.0909 56.3072 87.3884 56.2039L87.1551 55.5321L86.9218 54.8603C86.8274 54.8931 86.7853 54.8852 86.7744 54.8826L86.6099 55.5745ZM87.1551 55.5321L87.3884 56.2039L87.6823 56.1018L87.449 55.43L87.2157 54.7583L86.9218 54.8603L87.1551 55.5321ZM87.449 55.43L87.6823 56.1018L87.9762 55.9997L87.7429 55.328L87.5096 54.6562L87.2157 54.7583L87.449 55.43ZM87.7429 55.328L87.9762 55.9997C88.0105 55.9878 88.0284 55.987 88.0331 55.9869C88.0365 55.9869 88.037 55.9871 88.0392 55.9879L88.2927 55.3235L88.5461 54.6591C88.198 54.5263 87.8408 54.5412 87.5096 54.6562L87.7429 55.328ZM88.2927 55.3235L88.0392 55.9879L88.2951 56.0855L88.5485 55.4211L88.802 54.7567L88.5461 54.6591L88.2927 55.3235ZM88.5485 55.4211L88.2951 56.0855L88.5509 56.1831L88.8043 55.5187L89.0578 54.8543L88.802 54.7567L88.5485 55.4211ZM88.8043 55.5187L88.5509 56.1831C88.6318 56.214 88.7052 56.2596 88.7744 56.3252L89.2635 55.809L89.7527 55.2929C89.5507 55.1014 89.318 54.9535 89.0578 54.8543L88.8043 55.5187ZM89.2635 55.809L88.7744 56.3252L88.9777 56.5179L89.4669 56.0017L89.9561 55.4856L89.7527 55.2929L89.2635 55.809ZM89.4669 56.0017L88.9777 56.5179L89.1811 56.7106L89.6703 56.1945L90.1594 55.6783L89.9561 55.4856L89.4669 56.0017ZM89.6703 56.1945L89.1811 56.7106C89.3146 56.8372 89.4436 56.9609 89.5681 57.0819L90.0637 56.5719L90.5593 56.0619C90.4303 55.9366 90.297 55.8088 90.1594 55.6783L89.6703 56.1945ZM90.0637 56.5719L89.5681 57.0819L89.7582 57.2666L90.2537 56.7566L90.7493 56.2466L90.5593 56.0619L90.0637 56.5719ZM90.2537 56.7566L89.7582 57.2666L89.9482 57.4513L90.4438 56.9413L90.9394 56.4313L90.7493 56.2466L90.2537 56.7566ZM90.4438 56.9413L89.9482 57.4513C90.114 57.6124 90.2963 57.7528 90.4943 57.8719L90.8607 57.2624L91.2272 56.653C91.1227 56.5902 91.0271 56.5165 90.9394 56.4313L90.4438 56.9413ZM90.8607 57.2624L90.4943 57.8719L90.7211 58.0083L91.0876 57.3989L91.4541 56.7894L91.2272 56.653L90.8607 57.2624ZM91.0876 57.3989L90.7211 58.0083L90.948 58.1447L91.3145 57.5353L91.6809 56.9259L91.4541 56.7894L91.0876 57.3989ZM91.3145 57.5353L90.948 58.1447C90.984 58.1664 91.009 58.192 91.031 58.235L91.6638 57.9105L92.2966 57.586C92.1553 57.3106 91.9474 57.0861 91.6809 56.9259L91.3145 57.5353ZM91.6638 57.9105L91.031 58.235L91.1535 58.4738L91.7863 58.1493L92.419 57.8249L92.2966 57.586L91.6638 57.9105ZM91.7863 58.1493L91.1535 58.4738L91.276 58.7126L91.9087 58.3882L92.5415 58.0637L92.419 57.8249L91.7863 58.1493ZM91.9087 58.3882L91.276 58.7126C91.4038 58.9619 91.5795 59.1763 91.798 59.3512L92.2424 58.796L92.6868 58.2408C92.6237 58.1904 92.577 58.1328 92.5415 58.0637L91.9087 58.3882ZM92.2424 58.796L91.798 59.3512L92.0092 59.5202L92.4536 58.965L92.8979 58.4099L92.6868 58.2408L92.2424 58.796ZM92.4536 58.965L92.0092 59.5202L92.2204 59.6892L92.6648 59.1341L93.1091 58.5789L92.8979 58.4099L92.4536 58.965ZM92.6648 59.1341L92.2204 59.6892C92.3633 59.8036 92.5135 59.9225 92.671 60.046L93.1097 59.4863L93.5484 58.9266C93.3943 58.8059 93.2479 58.6899 93.1091 58.5789L92.6648 59.1341ZM93.1097 59.4863L92.671 60.046L92.9048 60.2292L93.3435 59.6695L93.7821 59.1099L93.5484 58.9266L93.1097 59.4863ZM93.3435 59.6695L92.9048 60.2292L93.1385 60.4124L93.5772 59.8528L94.0159 59.2931L93.7821 59.1099L93.3435 59.6695ZM93.5772 59.8528L93.1385 60.4124C93.1473 60.4193 93.1518 60.424 93.1536 60.426C93.1553 60.4279 93.1551 60.4279 93.154 60.4262C93.1529 60.4244 93.1521 60.4225 93.1516 60.4211C93.1511 60.4197 93.1516 60.4206 93.1522 60.4248L93.8547 60.3143L94.5572 60.2039C94.4985 59.8303 94.3049 59.5196 94.0159 59.2931L93.5772 59.8528ZM93.8547 60.3143L93.1522 60.4248L93.196 60.7031L93.8985 60.5927L94.601 60.4822L94.5572 60.2039L93.8547 60.3143ZM93.8985 60.5927L93.196 60.7031L93.2398 60.9815L93.9422 60.871L94.6447 60.7606L94.601 60.4822L93.8985 60.5927ZM93.9422 60.871L93.2398 60.9815C93.2716 61.1842 93.3105 61.3829 93.3565 61.5773L94.0485 61.4137L94.7405 61.25C94.7032 61.092 94.6712 60.9289 94.6447 60.7606L93.9422 60.871ZM94.0485 61.4137L93.3565 61.5773L93.419 61.8416L94.111 61.678L94.803 61.5143L94.7405 61.25L94.0485 61.4137ZM94.111 61.678L93.419 61.8416L93.4815 62.1059L94.1735 61.9422L94.8655 61.7786L94.803 61.5143L94.111 61.678ZM94.1735 61.9422L93.4815 62.1059C93.5165 62.2537 93.5422 62.403 93.5587 62.5537L94.2656 62.4762L94.9725 62.3987C94.9496 62.1899 94.9139 61.9831 94.8655 61.7786L94.1735 61.9422ZM94.2656 62.4762L93.5587 62.5537L93.5883 62.8233L94.2952 62.7459L95.002 62.6684L94.9725 62.3987L94.2656 62.4762ZM94.2952 62.7459L93.5883 62.8233L93.6178 63.093L94.3247 63.0155L95.0316 62.938L95.002 62.6684L94.2952 62.7459ZM94.3247 63.0155L93.6178 63.093C93.623 63.1403 93.6177 63.1928 93.5872 63.262L94.2377 63.5492L94.8882 63.8365C95.0131 63.5536 95.0658 63.2502 95.0316 62.938L94.3247 63.0155ZM94.2377 63.5492L93.5872 63.262L93.4705 63.526L94.121 63.8133L94.7715 64.1006L94.8882 63.8365L94.2377 63.5492ZM94.121 63.8133L93.4705 63.526L93.3539 63.7901L94.0044 64.0774L94.6549 64.3646L94.7715 64.1006L94.121 63.8133ZM94.0044 64.0774L93.3539 63.7901C93.2236 64.0851 93.1771 64.4028 93.231 64.727L93.9325 64.6104L94.634 64.4937C94.6283 64.4594 94.6297 64.4217 94.6549 64.3646L94.0044 64.0774ZM93.9325 64.6104L93.231 64.727L93.2758 64.996L93.9772 64.8793L94.6787 64.7627L94.634 64.4937L93.9325 64.6104ZM93.9772 64.8793L93.2758 64.996L93.3205 65.2649L94.022 65.1483L94.7234 65.0317L94.6787 64.7627L93.9772 64.8793ZM94.022 65.1483L93.3205 65.2649C93.3475 65.4275 93.3697 65.5971 93.3869 65.7737L94.0947 65.7047L94.8024 65.6357C94.7823 65.4291 94.756 65.2277 94.7234 65.0317L94.022 65.1483ZM94.0947 65.7047L93.3869 65.7737L93.415 66.0612L94.1227 65.9922L94.8305 65.9232L94.8024 65.6357L94.0947 65.7047ZM94.1227 65.9922L93.415 66.0612L93.443 66.3487L94.1507 66.2797L94.8585 66.2107L94.8305 65.9232L94.1227 65.9922ZM94.1507 66.2797L93.443 66.3487C93.4406 66.3247 93.4435 66.2763 93.4694 66.2243C93.4934 66.1762 93.519 66.1614 93.507 66.1698L93.9154 66.7519L94.3239 67.334C94.6803 67.0839 94.9053 66.6908 94.8585 66.2107L94.1507 66.2797ZM93.9154 66.7519L93.507 66.1698L93.2437 66.3545L93.6521 66.9367L94.0605 67.5188L94.3239 67.334L93.9154 66.7519ZM93.6521 66.9367L93.2437 66.3545L92.9803 66.5393L93.3888 67.1214L93.7972 67.7035L94.0605 67.5188L93.6521 66.9367ZM93.3888 67.1214L92.9803 66.5393C92.7132 66.7267 92.4874 66.9796 92.3679 67.3098L93.0367 67.5517L93.7054 67.7935C93.7059 67.7922 93.7084 67.7852 93.7194 67.7717C93.7312 67.7573 93.7544 67.7336 93.7972 67.7035L93.3888 67.1214ZM93.0367 67.5517L92.3679 67.3098L92.2791 67.5553L92.9479 67.7972L93.6166 68.039L93.7054 67.7935L93.0367 67.5517ZM92.9479 67.7972L92.2791 67.5553L92.1904 67.8009L92.8591 68.0427L93.5278 68.2845L93.6166 68.039L92.9479 67.7972ZM92.8591 68.0427L92.1904 67.8009C92.1235 67.9857 92.0635 68.1791 92.01 68.3807L92.6973 68.5631L93.3847 68.7455C93.4284 68.5805 93.4763 68.427 93.5278 68.2845L92.8591 68.0427ZM92.6973 68.5631L92.01 68.3807L91.9371 68.6557L92.6244 68.838L93.3117 69.0204L93.3847 68.7455L92.6973 68.5631ZM92.6244 68.838L91.9371 68.6557L91.8641 68.9306L92.5515 69.1129L93.2388 69.2953L93.3117 69.0204L92.6244 68.838ZM92.5515 69.1129L91.8641 68.9306C91.8462 68.9981 91.8189 69.0416 91.7833 69.0772L92.2859 69.5803L92.7884 70.0834C93.0097 69.8623 93.1595 69.5943 93.2388 69.2953L92.5515 69.1129ZM92.2859 69.5803L91.7833 69.0772L91.5907 69.2696L92.0932 69.7727L92.5958 70.2758L92.7884 70.0834L92.2859 69.5803ZM92.0932 69.7727L91.5907 69.2696L91.398 69.462L91.9006 69.9651L92.4032 70.4682L92.5958 70.2758L92.0932 69.7727ZM91.9006 69.9651L91.398 69.462C91.2517 69.6082 91.1124 69.7629 90.9803 69.926L91.5327 70.3738L92.085 70.8216C92.1866 70.6963 92.2927 70.5786 92.4032 70.4682L91.9006 69.9651ZM91.5327 70.3738L90.9803 69.926L90.805 70.1422L91.3573 70.59L91.9097 71.0378L92.085 70.8216L91.5327 70.3738ZM91.3573 70.59L90.805 70.1422L90.6297 70.3585L91.182 70.8063L91.7344 71.2541L91.9097 71.0378L91.3573 70.59ZM91.182 70.8063L90.6297 70.3585C90.5523 70.4539 90.4646 70.5368 90.3655 70.6082L90.7814 71.185L91.1974 71.7618C91.3987 71.6166 91.5781 71.447 91.7344 71.2541L91.182 70.8063ZM90.7814 71.185L90.3655 70.6082L90.1402 70.7707L90.5561 71.3475L90.9721 71.9243L91.1974 71.7618L90.7814 71.185ZM90.5561 71.3475L90.1402 70.7707L89.9148 70.9332L90.3308 71.51L90.7468 72.0868L90.9721 71.9243L90.5561 71.3475ZM90.3308 71.51L89.9148 70.9332C89.9162 70.9323 89.9189 70.9305 89.9228 70.9288C89.9266 70.9271 89.9293 70.9264 89.9299 70.9263C89.9315 70.9259 89.9169 70.9296 89.8791 70.9245L89.7843 71.6292L89.6894 72.334C90.0518 72.3828 90.4245 72.3191 90.7468 72.0868L90.3308 71.51ZM89.7843 71.6292L89.8791 70.9245L89.558 70.8813L89.4631 71.586L89.3682 72.2908L89.6894 72.334L89.7843 71.6292ZM89.4631 71.586L89.558 70.8813L89.2368 70.838L89.1419 71.5428L89.0471 72.2475L89.3682 72.2908L89.4631 71.586ZM89.1419 71.5428L89.2368 70.838C88.8984 70.7925 88.5433 70.8357 88.2241 71.0309L88.5952 71.6375L88.9663 72.2441C88.9612 72.2472 88.9589 72.2468 88.966 72.2455C88.9748 72.244 89.0001 72.2412 89.0471 72.2475L89.1419 71.5428ZM88.5952 71.6375L88.2241 71.0309L87.9987 71.1688L88.3698 71.7754L88.7409 72.382L88.9663 72.2441L88.5952 71.6375ZM88.3698 71.7754L87.9987 71.1688L87.7732 71.3068L88.1443 71.9134L88.5154 72.52L88.7409 72.382L88.3698 71.7754ZM88.1443 71.9134L87.7732 71.3068C87.6964 71.3538 87.6172 71.384 87.5319 71.3997L87.6614 72.099L87.7909 72.7982C88.0488 72.7504 88.2916 72.6569 88.5154 72.52L88.1443 71.9134ZM87.6614 72.099L87.5319 71.3997L87.2745 71.4474L87.404 72.1466L87.5334 72.8459L87.7909 72.7982L87.6614 72.099ZM87.404 72.1466L87.2745 71.4474L87.0171 71.4951L87.1465 72.1943L87.276 72.8935L87.5334 72.8459L87.404 72.1466ZM87.1465 72.1943L87.0171 71.4951C86.8425 71.5274 86.6676 71.5609 86.4922 71.5956L86.6304 72.2932L86.7686 72.9908C86.9382 72.9572 87.1073 72.9248 87.276 72.8935L87.1465 72.1943ZM86.6304 72.2932L86.4922 71.5956L86.2335 71.6469L86.3717 72.3444L86.5099 73.042L86.7686 72.9908L86.6304 72.2932ZM86.3717 72.3444L86.2335 71.6469L85.9749 71.6981L86.113 72.3957L86.2512 73.0932L86.5099 73.042L86.3717 72.3444ZM86.113 72.3957L85.9749 71.6981C85.9195 71.7091 85.8598 71.7082 85.786 71.6869L85.5884 72.37L85.3907 73.0531C85.6716 73.1343 85.9617 73.1506 86.2512 73.0932L86.113 72.3957ZM85.5884 72.37L85.786 71.6869L85.52 71.6099L85.3224 72.293L85.1247 72.9761L85.3907 73.0531L85.5884 72.37ZM85.3224 72.293L85.52 71.6099L85.254 71.533L85.0564 72.216L84.8587 72.8991L85.1247 72.9761L85.3224 72.293ZM85.0564 72.216L85.254 71.533C84.9929 71.4574 84.7247 71.431 84.4541 71.4576L84.5237 72.1653L84.5934 72.873C84.6783 72.8647 84.7652 72.8721 84.8587 72.8991L85.0564 72.216ZM84.5237 72.1653L84.4541 71.4576L84.1874 71.4839L84.2571 72.1916L84.3267 72.8993L84.5934 72.873L84.5237 72.1653ZM84.2571 72.1916L84.1874 71.4839L83.9208 71.5101L83.9904 72.2178L84.06 72.9255L84.3267 72.8993L84.2571 72.1916ZM83.9904 72.2178L83.9208 71.5101C83.7194 71.5299 83.5185 71.5598 83.3182 71.5997L83.4571 72.2971L83.596 72.9946C83.7512 72.9636 83.9058 72.9407 84.06 72.9255L83.9904 72.2178ZM83.4571 72.2971L83.3182 71.5997L83.0515 71.6528L83.1904 72.3503L83.3293 73.0477L83.596 72.9946L83.4571 72.2971ZM83.1904 72.3503L83.0515 71.6528L82.7848 71.706L82.9237 72.4034L83.0626 73.1008L83.3293 73.0477L83.1904 72.3503ZM82.9237 72.4034L82.7848 71.706C82.6327 71.7363 82.4812 71.7577 82.3303 71.7705L82.3904 72.4791L82.4505 73.1877C82.6552 73.1703 82.8592 73.1413 83.0626 73.1008L82.9237 72.4034ZM82.3904 72.4791L82.3303 71.7705L82.0636 71.7932L82.1237 72.5017L82.1838 73.2103L82.4505 73.1877L82.3904 72.4791ZM82.1237 72.5017L82.0636 71.7932L81.797 71.8158L81.8571 72.5243L81.9172 73.2329L82.1838 73.2103L82.1237 72.5017ZM81.8571 72.5243L81.797 71.8158C81.6915 71.8247 81.585 71.8179 81.4753 71.794L81.3237 72.4888L81.1722 73.1836C81.418 73.2372 81.6671 73.2541 81.9172 73.2329L81.8571 72.5243ZM81.3237 72.4888L81.4753 71.794L81.2087 71.7358L81.0571 72.4306L80.9055 73.1254L81.1722 73.1836L81.3237 72.4888ZM81.0571 72.4306L81.2087 71.7358L80.942 71.6777L80.7904 72.3724L80.6388 73.0672L80.9055 73.1254L81.0571 72.4306ZM80.7904 72.3724L80.942 71.6777C80.5617 71.5947 80.2001 71.6791 79.8903 71.8655L80.2571 72.4748L80.6238 73.084C80.6513 73.0675 80.6622 73.0664 80.6578 73.0673C80.6558 73.0677 80.6522 73.0681 80.6477 73.0681C80.6432 73.068 80.64 73.0675 80.6388 73.0672L80.7904 72.3724ZM80.2571 72.4748L79.8903 71.8655L79.6237 72.026L79.9904 72.6353L80.3571 73.2445L80.6238 73.084L80.2571 72.4748ZM79.9904 72.6353L79.6237 72.026L79.357 72.1866L79.7237 72.7958L80.0905 73.4051L80.3571 73.2445L79.9904 72.6353ZM79.7237 72.7958L79.357 72.1866C79.2716 72.238 79.2198 72.2446 79.1922 72.2445L79.1904 72.9557L79.1886 73.6668C79.5166 73.6676 79.8203 73.5677 80.0905 73.4051L79.7237 72.7958ZM79.1904 72.9557L79.1922 72.2445L78.9255 72.2439L78.9237 72.955L78.9219 73.6661L79.1886 73.6668L79.1904 72.9557ZM78.9237 72.955L78.9255 72.2439L78.6589 72.2432L78.6571 72.9543L78.6553 73.6654L78.9219 73.6661L78.9237 72.955ZM78.6571 72.9543L78.6589 72.2432C78.5635 72.243 78.4631 72.2267 78.3548 72.1895L78.1237 72.862L77.8926 73.5345C78.14 73.6195 78.3951 73.6648 78.6553 73.6654L78.6571 72.9543ZM78.1237 72.862L78.3548 72.1895L78.0881 72.0978L77.857 72.7704L77.6259 73.4429L77.8926 73.5345L78.1237 72.862ZM77.857 72.7704L78.0881 72.0978L77.8214 72.0062L77.5903 72.6787L77.3592 73.3512L77.6259 73.4429L77.857 72.7704ZM77.5903 72.6787L77.8214 72.0062C77.6054 71.932 77.3868 71.8774 77.1659 71.8437L77.0588 72.5467L76.9517 73.2497C77.0839 73.2699 77.2196 73.3033 77.3592 73.3512L77.5903 72.6787ZM77.0588 72.5467L77.1659 71.8437L76.9011 71.8034L76.794 72.5064L76.6868 73.2094L76.9517 73.2497L77.0588 72.5467ZM76.794 72.5064L76.9011 71.8034L76.6363 71.763L76.5292 72.466L76.422 73.169L76.6868 73.2094L76.794 72.5064ZM76.5292 72.466L76.6363 71.763C76.5425 71.7487 76.4523 71.7187 76.3628 71.6702L76.0241 72.2955L75.6855 72.9208C75.9163 73.0458 76.1628 73.1295 76.422 73.169L76.5292 72.466ZM76.0241 72.2955L76.3628 71.6702L76.1225 71.5401L75.7839 72.1654L75.4452 72.7907L75.6855 72.9208L76.0241 72.2955ZM75.7839 72.1654L76.1225 71.5401L75.8823 71.41L75.5437 72.0353L75.205 72.6606L75.4452 72.7907L75.7839 72.1654ZM75.5437 72.0353L75.8823 71.41C75.6929 71.3074 75.5003 71.2203 75.3045 71.15L75.064 71.8191L74.8234 72.4883C74.9469 72.5327 75.0741 72.5897 75.205 72.6606L75.5437 72.0353ZM75.064 71.8191L75.3045 71.15L75.0651 71.0639L74.8246 71.7331L74.584 72.4023L74.8234 72.4883L75.064 71.8191ZM74.8246 71.7331L75.0651 71.0639L74.8257 70.9778L74.5851 71.647L74.3446 72.3162L74.584 72.4023L74.8246 71.7331ZM74.5851 71.647L74.8257 70.9778C74.6608 70.9186 74.4946 70.861 74.327 70.8051L74.102 71.4797L73.8771 72.1543C74.0344 72.2067 74.1902 72.2607 74.3446 72.3162L74.5851 71.647ZM74.102 71.4797L74.327 70.8051L74.0833 70.7239L73.8584 71.3985L73.6335 72.0731L73.8771 72.1543L74.102 71.4797ZM73.8584 71.3985L74.0833 70.7239L73.8396 70.6426L73.6147 71.3172L73.3898 71.9918L73.6335 72.0731L73.8584 71.3985ZM73.6147 71.3172L73.8396 70.6426C73.5808 70.5563 73.3062 70.5265 73.0287 70.5349L73.0501 71.2457L73.0716 71.9564C73.222 71.9519 73.3238 71.9698 73.3898 71.9918L73.6147 71.3172ZM73.0501 71.2457L73.0287 70.5349L72.7077 70.5446L72.7292 71.2554L72.7507 71.9661L73.0716 71.9564L73.0501 71.2457ZM72.7292 71.2554L72.7077 70.5446L72.3868 70.5543L72.4083 71.2651L72.4298 71.9758L72.7507 71.9661L72.7292 71.2554ZM72.4083 71.2651L72.3868 70.5543C72.3963 70.554 72.473 70.5555 72.56 70.6182C72.6464 70.6805 72.6708 70.7513 72.6725 70.7568L71.9926 70.9651L71.3126 71.1733C71.3775 71.3853 71.5029 71.6093 71.7278 71.7716C71.9534 71.9343 72.2064 71.9826 72.4298 71.9758L72.4083 71.2651ZM71.9926 70.9651L72.6725 70.7568L72.5776 70.4471L71.8977 70.6554L71.2178 70.8636L71.3126 71.1733L71.9926 70.9651ZM71.8977 70.6554L72.5776 70.4471L72.4828 70.1374L71.8028 70.3457L71.1229 70.5539L71.2178 70.8636L71.8977 70.6554ZM71.8028 70.3457L72.4828 70.1374C72.3726 69.7779 72.1454 69.4591 71.7748 69.2755L71.4591 69.9127L71.1434 70.5499C71.1395 70.5479 71.1336 70.5445 71.1271 70.5392C71.1206 70.5339 71.1157 70.5287 71.1125 70.5247C71.1059 70.5164 71.1129 70.5213 71.1229 70.5539L71.8028 70.3457ZM71.4591 69.9127L71.7748 69.2755L71.526 69.1522L71.2103 69.7894L70.8946 70.4266L71.1434 70.5499L71.4591 69.9127ZM71.2103 69.7894L71.526 69.1522L71.2771 69.0289L70.9614 69.6661L70.6457 70.3033L70.8946 70.4266L71.2103 69.7894ZM70.9614 69.6661L71.2771 69.0289C71.1907 68.9861 71.122 68.9329 71.0651 68.8689L70.5335 69.3412L70.0019 69.8135C70.1838 70.0183 70.4004 70.1817 70.6457 70.3033L70.9614 69.6661ZM70.5335 69.3412L71.0651 68.8689L70.886 68.6673L70.3544 69.1396L69.8228 69.6118L70.0019 69.8135L70.5335 69.3412ZM70.3544 69.1396L70.886 68.6673L70.7069 68.4657L70.1753 68.938L69.6437 69.4102L69.8228 69.6118L70.3544 69.1396ZM70.1753 68.938L70.7069 68.4657C70.6751 68.4299 70.6524 68.3881 70.6399 68.3243L69.9422 68.4615L69.2444 68.5987C69.3039 68.9014 69.4366 69.1772 69.6437 69.4102L70.1753 68.938ZM69.9422 68.4615L70.6399 68.3243L70.5859 68.0495L69.8881 68.1867L69.1904 68.3239L69.2444 68.5987L69.9422 68.4615ZM69.8881 68.1867L70.5859 68.0495L70.5318 67.7746L69.8341 67.9118L69.1363 68.049L69.1904 68.3239L69.8881 68.1867ZM69.8341 67.9118L70.5318 67.7746C70.4679 67.4494 70.3126 67.1638 70.0794 66.9315L69.5775 67.4353L69.0757 67.9391C69.1125 67.9758 69.1282 68.0078 69.1363 68.049L69.8341 67.9118ZM69.5775 67.4353L70.0794 66.9315L69.8769 66.7298L69.375 67.2336L68.8732 67.7374L69.0757 67.9391L69.5775 67.4353ZM69.375 67.2336L69.8769 66.7298L69.6744 66.5281L69.1725 67.0319L68.6707 67.5357L68.8732 67.7374L69.375 67.2336ZM69.1725 67.0319L69.6744 66.5281C69.6683 66.522 69.6657 66.5184 69.6652 66.5178C69.6648 66.5172 69.6657 66.5185 69.667 66.5214C69.6683 66.5243 69.6692 66.5271 69.6697 66.529C69.6701 66.5308 69.6697 66.5301 69.6695 66.5261L68.959 66.5546L68.2485 66.5831C68.2633 66.9529 68.4138 67.2798 68.6707 67.5357L69.1725 67.0319ZM68.959 66.5546L69.6695 66.5261L69.6585 66.2504L68.948 66.2789L68.2374 66.3074L68.2485 66.5831L68.959 66.5546ZM68.948 66.2789L69.6585 66.2504L69.6474 65.9748L68.9369 66.0033L68.2264 66.0318L68.2374 66.3074L68.948 66.2789ZM68.9369 66.0033L69.6474 65.9748C69.6386 65.7538 69.6125 65.5368 69.5686 65.3243L68.8722 65.4684L68.1758 65.6125C68.2034 65.7457 68.2205 65.8852 68.2264 66.0318L68.9369 66.0033ZM68.8722 65.4684L69.5686 65.3243L69.5149 65.065L68.8186 65.2091L68.1222 65.3532L68.1758 65.6125L68.8722 65.4684ZM68.8186 65.2091L69.5149 65.065L69.4613 64.8058L68.7649 64.9499L68.0686 65.094L68.1222 65.3532L68.8186 65.2091ZM68.7649 64.9499L69.4613 64.8058C69.4171 64.5922 69.3536 64.3797 69.2723 64.1684L68.6086 64.4235L67.9448 64.6787C68.0005 64.8236 68.0412 64.9619 68.0686 65.094L68.7649 64.9499ZM68.6086 64.4235L69.2723 64.1684L69.1697 63.9012L68.5059 64.1564L67.8421 64.4115L67.9448 64.6787L68.6086 64.4235ZM68.5059 64.1564L69.1697 63.9012L69.067 63.6341L68.4032 63.8892L67.7394 64.1444L67.8421 64.4115L68.5059 64.1564ZM68.4032 63.8892L69.067 63.6341C69.0362 63.5542 69.0275 63.4829 69.034 63.4124L68.3259 63.3471L67.6178 63.2818C67.5905 63.5779 67.6333 63.8681 67.7394 64.1444L68.4032 63.8892ZM68.3259 63.3471L69.034 63.4124L69.0594 63.1374L68.3513 63.0721L67.6431 63.0068L67.6178 63.2818L68.3259 63.3471ZM68.3513 63.0721L69.0594 63.1374L69.0847 62.8625L68.3766 62.7972L67.6685 62.7318L67.6431 63.0068L68.3513 63.0721ZM68.3766 62.7972L69.0847 62.8625C69.0849 62.8609 69.0848 62.8601 69.087 62.8558C69.0898 62.8502 69.0999 62.8325 69.1283 62.8044L68.6288 62.2983L68.1292 61.7922C67.8781 62.0401 67.7031 62.3563 67.6685 62.7318L68.3766 62.7972ZM68.6288 62.2983L69.1283 62.8044L69.3551 62.5806L68.8555 62.0745L68.356 61.5684L68.1292 61.7922L68.6288 62.2983ZM68.8555 62.0745L69.3551 62.5806L69.5818 62.3568L69.0823 61.8507L68.5828 61.3446L68.356 61.5684L68.8555 62.0745ZM69.0823 61.8507L69.5818 62.3568C69.8746 62.0678 70.0331 61.6813 69.9769 61.2459L69.2716 61.337L68.5664 61.4281C68.566 61.4251 68.5653 61.4165 68.5666 61.4038C68.5679 61.3908 68.571 61.3773 68.5758 61.3644C68.5858 61.3372 68.5961 61.3314 68.5828 61.3446L69.0823 61.8507ZM69.2716 61.337L69.9769 61.2459L69.9394 60.956L69.2342 61.0471L68.5289 61.1383L68.5664 61.4281L69.2716 61.337ZM69.2342 61.0471L69.9394 60.956L69.902 60.6662L69.1967 60.7573L68.4915 60.8484L68.5289 61.1383L69.2342 61.0471ZM69.1967 60.7573L69.902 60.6662C69.8906 60.5778 69.9002 60.511 69.921 60.454L69.2529 60.2105L68.5848 59.967C68.4807 60.2526 68.4529 60.5503 68.4915 60.8484L69.1967 60.7573ZM69.2529 60.2105L69.921 60.454L70.0146 60.1971L69.3465 59.9536L68.6784 59.7102L68.5848 59.967L69.2529 60.2105ZM69.3465 59.9536L70.0146 60.1971L70.1083 59.9403L69.4401 59.6968L68.772 59.4533L68.6784 59.7102L69.3465 59.9536ZM69.4401 59.6968L70.1083 59.9403C70.1092 59.9377 70.1096 59.9372 70.1092 59.9379C70.1088 59.9386 70.1085 59.9389 70.1087 59.9386C70.1088 59.9386 70.1165 59.9295 70.1417 59.9155L69.7962 59.294L69.4507 58.6724C69.142 58.844 68.8989 59.1051 68.772 59.4533L69.4401 59.6968ZM69.7962 59.294L70.1417 59.9155L70.4042 59.7696L70.0586 59.1481L69.7131 58.5266L69.4507 58.6724L69.7962 59.294ZM70.0586 59.1481L70.4042 59.7696L70.6666 59.6237L70.3211 59.0022L69.9756 58.3807L69.7131 58.5266L70.0586 59.1481ZM70.3211 59.0022L70.6666 59.6237C71.0544 59.4081 71.2769 59.0463 71.3277 58.6253L70.6217 58.5402L69.9157 58.455C69.914 58.4692 69.9136 58.4533 69.9314 58.4259C69.9397 58.4132 69.9493 58.4021 69.9588 58.3935C69.9681 58.385 69.9746 58.3812 69.9756 58.3807L70.3211 59.0022ZM70.6217 58.5402L71.3277 58.6253L71.3658 58.3093L70.6598 58.2241L69.9538 58.139L69.9157 58.455L70.6217 58.5402ZM70.6598 58.2241L71.3658 58.3093L71.4039 57.9932L70.6979 57.908L69.9919 57.8229L69.9538 58.139L70.6598 58.2241ZM70.6979 57.908L71.4039 57.9932C71.4072 57.966 71.4113 57.9683 71.4016 57.9853C71.3969 57.9934 71.3905 58.0023 71.3826 58.0108C71.3748 58.0192 71.3677 58.0247 71.3632 58.0276L70.9674 57.4369L70.5715 56.8462C70.2195 57.082 70.0382 57.4393 69.9919 57.8229L70.6979 57.908ZM70.9674 57.4369L71.3632 58.0276L71.5946 57.8726L71.1988 57.2819L70.8029 56.6911L70.5715 56.8462L70.9674 57.4369ZM71.1988 57.2819L71.5946 57.8726L71.826 57.7176L71.4301 57.1268L71.0343 56.5361L70.8029 56.6911L71.1988 57.2819ZM71.4301 57.1268L71.826 57.7176C71.9817 57.6132 72.1352 57.5095 72.2865 57.4064L71.886 56.8188L71.4855 56.2312C71.3374 56.3321 71.187 56.4337 71.0343 56.5361L71.4301 57.1268ZM71.886 56.8188L72.2865 57.4064L72.511 57.2534L72.1104 56.6658L71.7099 56.0782L71.4855 56.2312L71.886 56.8188ZM72.1104 56.6658L72.511 57.2534L72.7354 57.1003L72.3349 56.5128L71.9344 55.9252L71.7099 56.0782L72.1104 56.6658ZM72.3349 56.5128L72.7354 57.1003C72.8447 57.0259 72.9598 56.9637 73.0814 56.9135L72.8099 56.2563L72.5384 55.599C72.326 55.6868 72.1245 55.7956 71.9344 55.9252L72.3349 56.5128ZM72.8099 56.2563L73.0814 56.9135L73.3318 56.8101L73.0603 56.1528L72.7888 55.4956L72.5384 55.599L72.8099 56.2563ZM73.0603 56.1528L73.3318 56.8101L73.5822 56.7066L73.3107 56.0494L73.0392 55.3921L72.7888 55.4956L73.0603 56.1528ZM73.3107 56.0494L73.5822 56.7066C73.6924 56.6611 73.8061 56.6305 73.9249 56.6146L73.8302 55.9098L73.7356 55.205C73.4956 55.2372 73.2629 55.2997 73.0392 55.3921L73.3107 56.0494ZM73.8302 55.9098L73.9249 56.6146L74.194 56.5784L74.0993 55.8737L74.0047 55.1689L73.7356 55.205L73.8302 55.9098ZM74.0993 55.8737L74.194 56.5784L74.463 56.5423L74.3684 55.8375L74.2738 55.1327L74.0047 55.1689L74.0993 55.8737ZM74.3684 55.8375L74.463 56.5423C74.7743 56.5005 75.0562 56.3766 75.3008 56.1871L74.8652 55.6249L74.4297 55.0628C74.3706 55.1086 74.3213 55.1264 74.2738 55.1327L74.3684 55.8375ZM74.8652 55.6249L75.3008 56.1871L75.5285 56.0106L75.0929 55.4485L74.6574 54.8864L74.4297 55.0628L74.8652 55.6249ZM75.0929 55.4485L75.5285 56.0106L75.7562 55.8341L75.3207 55.272L74.8851 54.7099L74.6574 54.8864L75.0929 55.4485ZM75.3207 55.272L75.7562 55.8341C75.7901 55.8079 75.8042 55.8078 75.818 55.8079L75.8212 55.0968L75.8243 54.3857C75.4744 54.3841 75.1549 54.5009 74.8851 54.7099L75.3207 55.272ZM75.8212 55.0968L75.818 55.8079L76.0908 55.8091L76.094 55.098L76.0971 54.3869L75.8243 54.3857L75.8212 55.0968ZM76.094 55.098L76.0908 55.8091L76.3636 55.8103L76.3667 55.0992L76.3699 54.3881L76.0971 54.3869L76.094 55.098ZM76.3667 55.0992L76.3636 55.8103C76.5079 55.811 76.5821 55.8257 76.6084 55.8336L76.8131 55.1526L77.0178 54.4716C76.8126 54.4099 76.5892 54.3891 76.3699 54.3881L76.3667 55.0992ZM76.8131 55.1526L76.6084 55.8336L76.7819 55.8858L76.9866 55.2048L77.1913 54.5237L77.0178 54.4716L76.8131 55.1526ZM76.9866 55.2048L76.7819 55.8858L76.9554 55.9379L77.1601 55.2569L77.3648 54.5759L77.1913 54.5237L76.9866 55.2048ZM77.1601 55.2569L76.9554 55.9379C77.0233 55.9583 77.146 55.9926 77.2791 55.9947C77.337 55.9956 77.4976 55.9941 77.6674 55.9C77.7637 55.8467 77.8672 55.7608 77.9433 55.632C78.0194 55.503 78.0448 55.3705 78.0448 55.2596H77.3337H76.6226C76.6226 55.157 76.6461 55.0317 76.7186 54.9088C76.7911 54.7861 76.8892 54.7053 76.9782 54.656C77.1336 54.5699 77.2725 54.5722 77.3014 54.5726C77.3767 54.5738 77.4126 54.5903 77.3648 54.5759L77.1601 55.2569ZM77.3337 55.2596H78.0448V55.2102H77.3337H76.6226V55.2596H77.3337ZM77.3337 55.2102H78.0448V55.1608H77.3337H76.6226V55.2102H77.3337ZM77.3337 55.1608H78.0448C78.0448 55.5033 77.8129 55.6811 77.7576 55.7197C77.6849 55.7705 77.6252 55.7888 77.6218 55.7899C77.6057 55.7952 77.6227 55.7885 77.7006 55.7774L77.6003 55.0734L77.5001 54.3693C77.4002 54.3836 77.2839 54.404 77.1789 54.4385C77.131 54.4541 77.038 54.4875 76.9431 54.5538C76.8655 54.608 76.6226 54.8018 76.6226 55.1608H77.3337ZM77.6003 55.0734L77.7006 55.7774L77.9672 55.7394L77.867 55.0354L77.7668 54.3314L77.5001 54.3693L77.6003 55.0734Z" fill="#3D3D3D"/>
<path d="M58.6054 63.7578V64.4691L58.6191 64.4688L58.6054 63.7578ZM59.8387 63.8216L59.6285 64.5009L59.8387 63.8216ZM60.372 63.9867L60.1618 64.666L60.372 63.9867ZM62.5054 63.6074L62.2767 64.2808L62.5054 63.6074ZM63.0387 63.8062L62.7712 64.4651L63.0387 63.8062ZM64.1054 64.1332L64.0995 64.8443L64.1054 64.1332ZM65.172 63.9689L65.5559 64.5675V64.5675L65.172 63.9689ZM65.7054 63.6269L65.3215 63.0283L65.7054 63.6269ZM66.5054 63.4644L66.4941 64.1754L66.5054 63.4644ZM67.3054 63.5142L67.4145 62.8115L67.3054 63.5142ZM67.8387 63.597L67.7296 64.2997L67.8387 63.597ZM68.372 63.65L68.3412 64.3605L68.372 63.65ZM69.2528 63.703L69.4096 63.0094L69.2528 63.703ZM69.3337 63.7213L69.6963 63.1096L69.5998 63.0524L69.4904 63.0277L69.3337 63.7213ZM69.3953 63.7578L69.0326 64.3695L69.2003 64.4689H69.3953V63.7578ZM58.5054 63.7578V64.4689H58.6054V63.7578V63.0467H58.5054V63.7578ZM58.6054 63.7578L58.6191 64.4688L59.1025 64.4594L59.0887 63.7484L59.0749 63.0375L58.5916 63.0468L58.6054 63.7578ZM59.0887 63.7484L59.1025 64.4594C59.3958 64.4537 59.5575 64.479 59.6285 64.5009L59.8387 63.8216L60.0489 63.1423C59.7644 63.0542 59.4261 63.0307 59.0749 63.0375L59.0887 63.7484ZM59.8387 63.8216L59.6285 64.5009L59.8951 64.5835L60.1054 63.9041L60.3156 63.2248L60.0489 63.1423L59.8387 63.8216ZM60.1054 63.9041L59.8951 64.5835L60.1618 64.666L60.372 63.9867L60.5823 63.3074L60.3156 63.2248L60.1054 63.9041ZM60.372 63.9867L60.1618 64.666C60.5821 64.7961 60.9834 64.6952 61.3083 64.4718L60.9054 63.8858L60.5025 63.2999C60.4796 63.3156 60.4815 63.3087 60.5066 63.304C60.5188 63.3017 60.5331 63.3006 60.5481 63.3015C60.563 63.3024 60.5748 63.305 60.5823 63.3074L60.372 63.9867ZM60.9054 63.8858L61.3083 64.4718L61.575 64.2884L61.172 63.7025L60.7691 63.1165L60.5025 63.2999L60.9054 63.8858ZM61.172 63.7025L61.575 64.2884L61.8416 64.1051L61.4387 63.5191L61.0358 62.9332L60.7691 63.1165L61.172 63.7025ZM61.4387 63.5191L61.8416 64.1051C61.8624 64.0907 61.857 64.0996 61.8273 64.1048C61.8128 64.1073 61.7966 64.1082 61.78 64.1068C61.7636 64.1055 61.7511 64.1022 61.7434 64.0996L61.972 63.4263L62.2007 62.7529C61.7767 62.609 61.367 62.7054 61.0358 62.9332L61.4387 63.5191ZM61.972 63.4263L61.7434 64.0996L62.01 64.1902L62.2387 63.5169L62.4674 62.8435L62.2007 62.7529L61.972 63.4263ZM62.2387 63.5169L62.01 64.1902L62.2767 64.2808L62.5054 63.6074L62.734 62.9341L62.4674 62.8435L62.2387 63.5169ZM62.5054 63.6074L62.2767 64.2808C62.4411 64.3366 62.606 64.398 62.7712 64.4651L63.0387 63.8062L63.3062 63.1473C63.1159 63.0701 62.9252 62.999 62.734 62.9341L62.5054 63.6074ZM63.0387 63.8062L62.7712 64.4651L63.0379 64.5734L63.3054 63.9145L63.5729 63.2556L63.3062 63.1473L63.0387 63.8062ZM63.3054 63.9145L63.0379 64.5734L63.3045 64.6816L63.572 64.0227L63.8395 63.3639L63.5729 63.2556L63.3054 63.9145ZM63.572 64.0227L63.3045 64.6816C63.5588 64.7849 63.8251 64.842 64.0995 64.8443L64.1054 64.1332L64.1113 63.4221C64.0301 63.4215 63.9408 63.405 63.8395 63.3639L63.572 64.0227ZM64.1054 64.1332L64.0995 64.8443L64.3661 64.8465L64.372 64.1354L64.378 63.4244L64.1113 63.4221L64.1054 64.1332ZM64.372 64.1354L64.3661 64.8465L64.6328 64.8487L64.6387 64.1377L64.6446 63.4266L64.378 63.4244L64.372 64.1354ZM64.6387 64.1377L64.6328 64.8487C64.9728 64.8516 65.2841 64.7418 65.5559 64.5675L65.172 63.9689L64.7882 63.3703C64.7045 63.424 64.6601 63.4267 64.6446 63.4266L64.6387 64.1377ZM65.172 63.9689L65.5559 64.5675L65.8226 64.3965L65.4387 63.7979L65.0549 63.1993L64.7882 63.3703L65.172 63.9689ZM65.4387 63.7979L65.8226 64.3965L66.0892 64.2255L65.7054 63.6269L65.3215 63.0283L65.0549 63.1993L65.4387 63.7979ZM65.7054 63.6269L66.0892 64.2255C66.1717 64.1726 66.2141 64.1709 66.2274 64.1712L66.2387 63.4601L66.25 62.7491C65.9078 62.7437 65.5946 62.8532 65.3215 63.0283L65.7054 63.6269ZM66.2387 63.4601L66.2274 64.1712L66.4941 64.1754L66.5054 63.4644L66.5167 62.7534L66.25 62.7491L66.2387 63.4601ZM66.5054 63.4644L66.4941 64.1754L66.7607 64.1796L66.772 63.4686L66.7833 62.7576L66.5167 62.7534L66.5054 63.4644ZM66.772 63.4686L66.7607 64.1796C66.9054 64.1819 67.0505 64.1943 67.1963 64.2169L67.3054 63.5142L67.4145 62.8115C67.2047 62.779 66.9942 62.7609 66.7833 62.7576L66.772 63.4686ZM67.3054 63.5142L67.1963 64.2169L67.4629 64.2583L67.572 63.5556L67.6811 62.8529L67.4145 62.8115L67.3054 63.5142ZM67.572 63.5556L67.4629 64.2583L67.7296 64.2997L67.8387 63.597L67.9478 62.8943L67.6811 62.8529L67.572 63.5556ZM67.8387 63.597L67.7296 64.2997C67.933 64.3313 68.1369 64.3516 68.3412 64.3605L68.372 63.65L68.4029 62.9396C68.2516 62.933 68.0999 62.918 67.9478 62.8943L67.8387 63.597ZM68.372 63.65L68.3412 64.3605L68.6079 64.372L68.6387 63.6616L68.6695 62.9512L68.4029 62.9396L68.372 63.65ZM68.6387 63.6616L68.6079 64.372L68.8745 64.3836L68.9054 63.6732L68.9362 62.9627L68.6695 62.9512L68.6387 63.6616ZM68.9054 63.6732L68.8745 64.3836C68.958 64.3872 69.0205 64.3911 69.0647 64.3949C69.0867 64.3968 69.1009 64.3984 69.1089 64.3994C69.1187 64.4007 69.1123 64.4003 69.0961 64.3966L69.2528 63.703L69.4096 63.0094C69.2821 62.9806 69.0998 62.9698 68.9362 62.9627L68.9054 63.6732ZM69.2528 63.703L69.0961 64.3966L69.1769 64.4149L69.3337 63.7213L69.4904 63.0277L69.4096 63.0094L69.2528 63.703ZM69.3337 63.7213L68.971 64.333L69.0326 64.3695L69.3953 63.7578L69.7579 63.1461L69.6963 63.1096L69.3337 63.7213ZM69.3953 63.7578V64.4689H69.4953V63.7578V63.0467H69.3953V63.7578Z" fill="#3D3D3D"/>
<defs>
<filter id="filter0_f_393_4858" x="33.3156" y="54.6491" width="26.5245" height="18.3463" filterUnits="userSpaceOnUse" color-interpolation-filters="sRGB">
<feFlood flood-opacity="0" result="BackgroundImageFix"/>
<feBlend mode="normal" in="SourceGraphic" in2="BackgroundImageFix" result="shape"/>
<feGaussianBlur stdDeviation="0.231111" result="effect1_foregroundBlur_393_4858"/>
</filter>
<filter id="filter1_f_393_4858" x="68.1603" y="54.6491" width="26.5245" height="18.3463" filterUnits="userSpaceOnUse" color-interpolation-filters="sRGB">
<feFlood flood-opacity="0" result="BackgroundImageFix"/>
<feBlend mode="normal" in="SourceGraphic" in2="BackgroundImageFix" result="shape"/>
<feGaussianBlur stdDeviation="0.231111" result="effect1_foregroundBlur_393_4858"/>
</filter>
</defs>
</svg>
