<svg width="128" height="128" viewBox="0 0 128 128" fill="none" xmlns="http://www.w3.org/2000/svg">
<path d="M16.0976 57.4435L16.4814 56.8448L16.3749 56.7766L16.2514 56.7492L16.0976 57.4435ZM18.9062 57.8654L18.8 58.5685L18.9062 57.8654ZM19.3969 58.1164L18.912 58.6365L19.3969 58.1164ZM19.8496 58.5385L19.3647 59.0586L19.8496 58.5385ZM20.9266 58.6085L21.0429 59.3101L20.9266 58.6085ZM21.4516 58.7048L21.8145 58.0933L21.4516 58.7048ZM21.9344 58.9913L21.5714 59.6029L21.9344 58.9913ZM22.7736 58.9017L22.5154 58.2391L22.7736 58.9017ZM23.5953 58.891L24.0963 58.3863L23.5953 58.891ZM23.8193 59.1133L23.3183 59.618L23.8193 59.1133ZM24.0432 59.3355L24.5441 58.8308L24.0432 59.3355ZM24.5216 59.6419L24.7448 58.9668L24.5216 59.6419ZM25.0306 59.8102L24.8073 60.4854L25.0306 59.8102ZM25.5553 59.9074L25.5897 59.1972L25.5553 59.9074ZM26.0957 59.9336L26.0614 60.6439L26.0957 59.9336ZM26.6543 59.8781L26.4898 59.1863L26.6543 59.8781ZM27.2309 59.741L27.3954 60.4328L27.2309 59.741ZM27.7423 59.8984L27.2363 60.398L27.7423 59.8984ZM28.1885 60.3502L27.6825 60.8499L28.1885 60.3502ZM28.7028 60.4947L28.8942 61.1796L28.7028 60.4947ZM29.8363 60.3094L29.6794 61.003L29.8363 60.3094ZM30.0964 60.3682L29.9395 61.0618L30.0964 60.3682ZM30.8569 60.6339L31.23 60.0286L30.8569 60.6339ZM31.0973 60.782L30.7242 61.3874L31.0973 60.782ZM31.3376 60.9301L30.9645 61.5355L31.3376 60.9301ZM32.132 61.0431L32.177 61.7527L32.132 61.0431ZM32.409 61.0255L32.3639 60.3158L32.409 61.0255ZM32.9595 61.0062L32.9551 60.2951L32.9595 61.0062ZM33.233 61.0045L33.2375 61.7156L33.233 61.0045ZM33.999 61.2458L34.5289 60.7716L33.999 61.2458ZM34.2179 61.4905L34.7479 61.0163L34.2179 61.4905ZM34.4368 61.7352L33.9069 62.2093L34.4368 61.7352ZM34.9432 61.9156L34.7879 61.2216L34.9432 61.9156ZM36.0508 61.8474L35.7288 62.4814L36.0508 61.8474ZM36.5418 62.0967L36.8637 61.4626L36.5418 62.0967ZM37.063 62.2098L37.0928 62.9203L37.063 62.2098ZM37.6144 62.1866L37.5846 61.4761V61.4761L37.6144 62.1866ZM38.1329 62.312L37.7835 62.9314L38.1329 62.312ZM38.6185 62.5859L38.9678 61.9665L38.6185 62.5859ZM39.1241 62.7696L38.9996 63.4697L39.1241 62.7696ZM39.6496 62.863L39.5252 63.5631L39.6496 62.863ZM40.1655 62.9653L40.3179 62.2707L40.1655 62.9653ZM40.4186 63.0208L40.571 62.3262L40.4186 63.0208ZM40.6717 63.0763L40.5193 63.7709L40.6717 63.0763ZM42.2697 63.3643L42.8453 62.9468L42.2697 63.3643ZM42.6386 63.8728L42.063 64.2904L42.6386 63.8728ZM43.0914 64.1751L43.2168 63.4751L43.0914 64.1751ZM43.6281 64.2712L43.5027 64.9712L43.6281 64.2712ZM44.1436 64.4195L44.4108 63.7605L44.1436 64.4195ZM44.6378 64.6199L44.3706 65.2789L44.6378 64.6199ZM45.1399 64.801L44.9247 65.4788L45.1399 64.801ZM45.6498 64.9629L45.865 64.2851L45.6498 64.9629ZM46.1252 65.2098L45.6974 65.7778L46.1252 65.2098ZM46.5659 65.5417L46.9937 64.9736L46.5659 65.5417ZM47.0906 65.6674L47.1838 66.3724L47.0906 65.6674ZM47.6991 65.5869L47.6059 64.8819L47.6991 65.5869ZM48.2384 65.6767L48.5828 65.0546L48.2384 65.6767ZM48.4733 65.8068L48.1289 66.4289L48.4733 65.8068ZM48.7083 65.9369L49.0527 65.3147L48.7083 65.9369ZM49.1855 66.1793L48.8862 66.8244L49.1855 66.1793ZM49.6698 66.404L49.3705 67.0491L49.6698 66.404ZM50.7001 66.7022L50.5368 67.3944L50.7001 66.7022ZM51.202 66.8837L51.5198 66.2476L51.202 66.8837ZM51.4413 67.0032L51.1235 67.6394L51.4413 67.0032ZM51.6805 67.1228L51.3627 67.7589L51.6805 67.1228ZM52.1441 67.3985L51.7378 67.9821L52.1441 67.3985ZM52.5928 67.7109L52.9991 67.1273L52.5928 67.7109ZM53.1095 67.856L53.1363 68.5666L53.1095 67.856ZM53.4019 67.845L53.4287 68.5556L53.4019 67.845ZM53.6943 67.834L53.6675 67.1234L53.6943 67.834ZM54.1756 68.0662L53.6139 68.5024L54.1756 68.0662ZM54.3645 68.3095L54.9262 67.8734L54.3645 68.3095ZM54.5534 68.5528L55.1151 68.1166L54.5534 68.5528ZM55.0065 68.8542L55.1595 68.1598L55.0065 68.8542ZM55.2708 68.9124L55.1178 69.6069L55.2708 68.9124ZM55.535 68.9706L55.6879 68.2762L55.535 68.9706ZM56.0171 69.2008L55.5765 69.759L56.0171 69.2008ZM56.4529 69.5449L56.8935 68.9868L56.4529 69.5449ZM56.9605 69.7126L56.9497 69.0015L56.9605 69.7126ZM57.5398 69.7038L57.5505 70.4149L57.5398 69.7038ZM58.0632 69.8325L58.4151 69.2146L58.0632 69.8325ZM58.5307 70.0987L58.1789 70.7167L58.5307 70.0987ZM58.9801 70.4095L58.5276 70.9582L58.9801 70.4095ZM59.1956 70.5873L59.648 70.0386L59.1956 70.5873ZM59.4112 70.765L58.9588 71.3137L59.4112 70.765ZM60.1168 71.1536L59.8358 71.8068L60.1168 71.1536ZM60.3618 71.2589L60.6428 70.6057L60.3618 71.2589ZM60.8509 71.4721L61.1381 70.8216L60.8509 71.4721ZM61.339 71.6876L61.0517 72.3381L61.339 71.6876ZM61.8418 71.8668L62.031 71.1813L61.8418 71.8668ZM62.1007 71.9382L61.9115 72.6237L62.1007 71.9382ZM62.3595 72.0096L62.1704 72.6951L62.3595 72.0096ZM62.8874 72.1275L62.7666 72.8282L62.8874 72.1275ZM63.4254 72.2202L63.3046 72.921L63.4254 72.2202ZM63.9342 72.3849L63.6195 73.0226L63.9342 72.3849ZM64.4137 72.6216L64.7284 71.9839L64.4137 72.6216ZM64.928 72.7728L65.0126 72.0667L64.928 72.7728ZM65.477 72.8386L65.3923 73.5447L65.477 72.8386ZM66.0158 72.9295L66.168 72.2348L66.0158 72.9295ZM66.5445 73.0453L66.3923 73.7399L66.5445 73.0453ZM67.058 73.1984L66.8043 73.8627L67.058 73.1984ZM67.5564 73.3886L67.81 72.7243L67.5564 73.3886ZM68.0204 73.6632L67.5647 74.2091L68.0204 73.6632ZM68.4502 74.022L68.906 73.4761L68.4502 74.022ZM68.9167 74.2908L68.6784 74.9608L68.9167 74.2908ZM69.4197 74.4697L69.1814 75.1397L69.4197 74.4697ZM69.8759 74.7636L70.3785 74.2606L69.8759 74.7636ZM70.0805 74.9681L70.5832 74.4651L70.0805 74.9681ZM70.2852 75.1727L69.7826 75.6757L70.2852 75.1727ZM70.7442 75.4597L70.5246 76.1361L70.7442 75.4597ZM70.9985 75.5423L71.2181 74.8659L70.9985 75.5423ZM71.2528 75.6249L71.0332 76.3012L71.2528 75.6249ZM71.8156 75.6568L71.7004 74.955L71.8156 75.6568ZM72.4326 75.5555L72.5478 76.2572L72.4326 75.5555ZM73.1021 76.0327L72.5151 76.4341L73.1021 76.0327ZM73.2826 76.2967L73.8696 75.8953L73.2826 76.2967ZM73.7071 76.6685L73.4196 77.3189L73.7071 76.6685ZM74.1951 76.8843L74.4826 76.2339L74.1951 76.8843ZM74.7082 77.0383L74.588 77.7392L74.7082 77.0383ZM74.9773 77.0844L75.0975 76.3836L74.9773 77.0844ZM75.2465 77.1306L75.3667 76.4297L75.2465 77.1306ZM75.8129 77.1536L75.7577 76.4446L75.8129 77.1536ZM76.4076 77.1072L76.4628 77.8162L76.4076 77.1072ZM76.8916 77.3328L77.4603 76.9059L76.8916 77.3328ZM77.265 77.8302L76.6963 78.2571L77.265 77.8302ZM77.76 78.0287L77.6457 77.3268L77.76 78.0287ZM78.0683 77.9784L78.1827 78.6803L78.0683 77.9784ZM78.3767 77.9282L78.2624 77.2264L78.3767 77.9282ZM78.9168 78.0159L78.5533 78.6271L78.9168 78.0159ZM79.3804 78.2916L79.7439 77.6804L79.3804 78.2916ZM79.8229 78.6193L79.3468 79.1476L79.8229 78.6193ZM80.0335 78.8091L79.5575 79.3374L80.0335 78.8091ZM80.2442 78.9989L80.7202 78.4707L80.2442 78.9989ZM80.7044 79.2829L80.4535 79.9483L80.7044 79.2829ZM81.2036 79.4712L81.4546 78.8058L81.2036 79.4712ZM81.6917 79.6866L81.3694 80.3205L81.6917 79.6866ZM81.9303 79.8079L82.2526 79.174L81.9303 79.8079ZM82.1688 79.9292L81.8465 80.5631L82.1688 79.9292ZM82.643 80.179L82.3025 80.8033L82.643 80.179ZM83.1142 80.436L83.4547 79.8117L83.1142 80.436ZM83.6323 80.5779L83.6659 79.8676L83.6323 80.5779ZM83.9147 80.5913L83.8811 81.3016L83.9147 80.5913ZM84.1972 80.6046L84.1635 81.315L84.1972 80.6046ZM84.7544 80.6504L84.8375 79.9441L84.7544 80.6504ZM85.0291 80.6827L84.946 81.3889L85.0291 80.6827ZM85.3039 80.715L85.2208 81.4212L85.3039 80.715ZM85.7844 80.9492L86.2824 80.4416L85.7844 80.9492ZM86.1959 81.353L85.6978 81.8605L86.1959 81.353ZM86.6938 81.5444L86.6684 80.8337L86.6938 81.5444ZM87.278 81.5236L87.3034 82.2342L87.278 81.5236ZM87.7696 81.7306L88.2938 81.2501L87.7696 81.7306ZM88.1684 82.1657L88.6925 81.6852L88.1684 82.1657ZM88.6036 82.5112L88.9428 81.8862L88.6036 82.5112ZM89.0752 82.7672L88.736 83.3922L89.0752 82.7672ZM89.55 83.0154L89.2305 83.6506L89.55 83.0154ZM90.028 83.2558L90.3475 82.6205L90.028 83.2558ZM90.5223 83.4559L90.3099 84.1346L90.5223 83.4559ZM91.0331 83.6158L90.8207 84.2944L91.0331 83.6158ZM91.5626 83.7294L91.476 84.4352L91.5626 83.7294ZM91.8368 83.763L91.9235 83.0572L91.8368 83.763ZM92.111 83.7967L92.1977 83.0909L92.111 83.7967ZM92.6115 83.9819L92.2157 84.5727L92.6115 83.9819ZM92.8377 84.1335L93.2335 83.5426L92.8377 84.1335ZM93.0639 84.285L92.6682 84.8758L93.0639 84.285ZM93.5765 84.4405L93.5862 83.7294L93.5765 84.4405ZM93.8628 84.4444L93.8531 85.1554L93.8628 84.4444ZM94.1491 84.4483L94.1394 85.1593L94.1491 84.4483ZM94.646 84.642L94.1699 85.1703L94.646 84.642ZM94.8567 84.8319L95.3328 84.3037L94.8567 84.8319ZM95.0673 85.0218L95.5434 84.4936L95.0673 85.0218ZM95.5006 85.3721L95.9163 84.7952L95.5006 85.3721ZM95.7232 85.5325L95.3074 86.1094L95.7232 85.5325ZM95.9458 85.6929L96.3616 85.116L95.9458 85.6929ZM96.4775 85.8012L96.3593 85.1L96.4775 85.8012ZM96.7867 85.7491L96.9049 86.4503L96.7867 85.7491ZM97.0958 85.697L97.214 86.3982L97.0958 85.697ZM97.5952 85.8847L98.1523 85.4428L97.5952 85.8847ZM97.9757 86.3645L97.4186 86.8064L97.9757 86.3645ZM98.4734 86.5566L98.5827 87.2592L98.4734 86.5566ZM99.0881 86.461L98.9788 85.7583L99.0881 86.461ZM99.6426 86.5133L99.3756 87.1724L99.6426 86.5133ZM100.137 86.7135L100.404 86.0544L100.137 86.7135ZM101.067 87.2585L101.455 86.6627L101.067 87.2585ZM101.532 87.5296L101.858 86.8977L101.532 87.5296ZM102.008 87.7752L101.682 88.4071L102.008 87.7752ZM102.51 87.9562L102.357 88.6507L102.51 87.9562ZM102.774 88.0144L102.927 87.32L102.774 88.0144ZM103.039 88.0727L102.886 88.7671L103.039 88.0727ZM103.51 88.329L104.001 87.8149L103.51 88.329ZM103.925 88.7252L103.433 89.2393L103.925 88.7252ZM104.376 89.0307L104.09 89.6816L104.376 89.0307ZM104.62 89.1382L104.334 89.789L104.62 89.1382ZM104.865 89.2457L105.151 88.5948L104.865 89.2457ZM105.398 89.3497L105.39 88.6387L105.398 89.3497ZM105.687 89.3463L105.679 88.6353L105.687 89.3463ZM105.977 89.3429L105.985 90.054L105.977 89.3429ZM106.463 89.5631L106.996 89.0931L106.463 89.5631ZM106.857 90.0103L106.323 90.4803L106.857 90.0103ZM107.186 90.3003L106.868 90.9361L107.186 90.3003ZM107.319 90.3668L107.637 89.731L107.319 90.3668ZM107.621 90.408L108.28 90.6761L107.621 90.408ZM107.659 90.3164L108.317 90.5844L108.381 90.4275L108.367 90.2586L107.659 90.3164ZM107.641 90.0953L107.909 89.4366L106.838 89.001L106.932 90.153L107.641 90.0953ZM16 57.4219L15.8463 58.1162L15.9439 58.1378L16.0976 57.4435L16.2514 56.7492L16.1537 56.7276L16 57.4219ZM16.0976 57.4435L15.7139 58.0422L16.1474 58.3201L16.5311 57.7214L16.9149 57.1227L16.4814 56.8448L16.0976 57.4435ZM16.5311 57.7214L16.1474 58.3201C16.4849 58.5364 16.9315 58.7348 17.4052 58.6302L17.2518 57.9359L17.0985 57.2415C17.149 57.2303 17.1668 57.2431 17.1309 57.2324C17.0933 57.2212 17.0224 57.1916 16.9149 57.1227L16.5311 57.7214ZM17.2518 57.9359L17.4052 58.6302L17.6923 58.5668L17.539 57.8724L17.3856 57.1781L17.0985 57.2415L17.2518 57.9359ZM17.539 57.8724L17.6923 58.5668L17.9795 58.5034L17.8262 57.809L17.6728 57.1147L17.3856 57.1781L17.539 57.8724ZM17.8262 57.809L17.9795 58.5034C18.0942 58.4781 18.1898 58.4764 18.2714 58.4887L18.3776 57.7855L18.4838 57.0824C18.2131 57.0415 17.941 57.0554 17.6728 57.1147L17.8262 57.809ZM18.3776 57.7855L18.2714 58.4887L18.5357 58.5286L18.6419 57.8255L18.7481 57.1223L18.4838 57.0824L18.3776 57.7855ZM18.6419 57.8255L18.5357 58.5286L18.8 58.5685L18.9062 57.8654L19.0124 57.1623L18.7481 57.1223L18.6419 57.8255ZM18.9062 57.8654L18.8 58.5685C18.8129 58.5705 18.8489 58.5777 18.912 58.6365L19.3969 58.1164L19.8818 57.5962C19.643 57.3736 19.3518 57.2135 19.0124 57.1623L18.9062 57.8654ZM19.3969 58.1164L18.912 58.6365L19.1383 58.8476L19.6232 58.3274L20.1081 57.8073L19.8818 57.5962L19.3969 58.1164ZM19.6232 58.3274L19.1383 58.8476L19.3647 59.0586L19.8496 58.5385L20.3345 58.0183L20.1081 57.8073L19.6232 58.3274ZM19.8496 58.5385L19.3647 59.0586C19.6627 59.3364 20.0505 59.4746 20.4759 59.4041L20.3596 58.7025L20.2433 58.001C20.2462 58.0005 20.2547 57.9995 20.2675 58.0003C20.2806 58.0011 20.2945 58.0037 20.3081 58.0081C20.3369 58.0174 20.3454 58.0285 20.3345 58.0183L19.8496 58.5385ZM20.3596 58.7025L20.4759 59.4041L20.7594 59.3571L20.6431 58.6555L20.5268 57.954L20.2433 58.001L20.3596 58.7025ZM20.6431 58.6555L20.7594 59.3571L21.0429 59.3101L20.9266 58.6085L20.8103 57.907L20.5268 57.954L20.6431 58.6555ZM20.9266 58.6085L21.0429 59.3101C21.0627 59.3068 21.0707 59.3084 21.0714 59.3086C21.0723 59.3087 21.0736 59.309 21.0757 59.3098C21.0779 59.3107 21.0821 59.3125 21.0886 59.3163L21.4516 58.7048L21.8145 58.0933C21.5057 57.91 21.1604 57.849 20.8103 57.907L20.9266 58.6085ZM21.4516 58.7048L21.0886 59.3163L21.33 59.4596L21.693 58.8481L22.0559 58.2366L21.8145 58.0933L21.4516 58.7048ZM21.693 58.8481L21.33 59.4596L21.5714 59.6029L21.9344 58.9913L22.2973 58.3798L22.0559 58.2366L21.693 58.8481ZM21.9344 58.9913L21.5714 59.6029C21.949 59.8269 22.3627 59.825 22.7329 59.6807L22.4747 59.0181L22.2165 58.3556C22.1931 58.3647 22.1985 58.3581 22.2254 58.3594C22.2384 58.3601 22.2527 58.3625 22.2669 58.3668C22.281 58.3711 22.2913 58.3762 22.2973 58.3798L21.9344 58.9913ZM22.4747 59.0181L22.7329 59.6807L23.0318 59.5643L22.7736 58.9017L22.5154 58.2391L22.2165 58.3556L22.4747 59.0181ZM22.7736 58.9017L23.0318 59.5643L23.3307 59.4478L23.0725 58.7852L22.8144 58.1226L22.5154 58.2391L22.7736 58.9017ZM23.0725 58.7852L23.3307 59.4478C23.331 59.4477 23.3194 59.4522 23.2974 59.4547C23.2746 59.4573 23.2449 59.4572 23.2116 59.4504C23.1393 59.4358 23.1 59.4013 23.0944 59.3957L23.5953 58.891L24.0963 58.3863C23.9414 58.2326 23.7404 58.1064 23.4937 58.0564C23.248 58.0067 23.015 58.0445 22.8144 58.1226L23.0725 58.7852ZM23.5953 58.891L23.0944 59.3957L23.3183 59.618L23.8193 59.1133L24.3202 58.6086L24.0963 58.3863L23.5953 58.891ZM23.8193 59.1133L23.3183 59.618L23.5422 59.8402L24.0432 59.3355L24.5441 58.8308L24.3202 58.6086L23.8193 59.1133ZM24.0432 59.3355L23.5422 59.8402C23.7558 60.0523 24.0072 60.2208 24.2983 60.3171L24.5216 59.6419L24.7448 58.9668C24.6966 58.9509 24.629 58.9151 24.5441 58.8308L24.0432 59.3355ZM24.5216 59.6419L24.2983 60.3171L24.5528 60.4012L24.7761 59.7261L24.9993 59.0509L24.7448 58.9668L24.5216 59.6419ZM24.7761 59.7261L24.5528 60.4012L24.8073 60.4854L25.0306 59.8102L25.2538 59.1351L24.9993 59.0509L24.7761 59.7261ZM25.0306 59.8102L24.8073 60.4854C25.0386 60.5619 25.2771 60.6059 25.5209 60.6177L25.5553 59.9074L25.5897 59.1972C25.4731 59.1915 25.3618 59.1708 25.2538 59.1351L25.0306 59.8102ZM25.5553 59.9074L25.5209 60.6177L25.7911 60.6308L25.8255 59.9205L25.8599 59.2102L25.5897 59.1972L25.5553 59.9074ZM25.8255 59.9205L25.7911 60.6308L26.0614 60.6439L26.0957 59.9336L26.1301 59.2233L25.8599 59.2102L25.8255 59.9205ZM26.0957 59.9336L26.0614 60.6439C26.3144 60.6561 26.5676 60.6297 26.8188 60.5699L26.6543 59.8781L26.4898 59.1863C26.3565 59.218 26.2374 59.2285 26.1301 59.2233L26.0957 59.9336ZM26.6543 59.8781L26.8188 60.5699L27.1071 60.5014L26.9426 59.8096L26.7781 59.1177L26.4898 59.1863L26.6543 59.8781ZM26.9426 59.8096L27.1071 60.5014L27.3954 60.4328L27.2309 59.741L27.0664 59.0492L26.7781 59.1177L26.9426 59.8096ZM27.2309 59.741L27.3954 60.4328C27.3817 60.4361 27.3425 60.4407 27.2938 60.4257C27.2475 60.4115 27.2291 60.3907 27.2363 60.398L27.7423 59.8984L28.2483 59.3987C27.94 59.0866 27.5205 58.9412 27.0664 59.0492L27.2309 59.741ZM27.7423 59.8984L27.2363 60.398L27.4594 60.624L27.9654 60.1243L28.4714 59.6246L28.2483 59.3987L27.7423 59.8984ZM27.9654 60.1243L27.4594 60.624L27.6825 60.8499L28.1885 60.3502L28.6945 59.8505L28.4714 59.6246L27.9654 60.1243ZM28.1885 60.3502L27.6825 60.8499C27.8272 60.9964 28.0111 61.1206 28.2362 61.1839C28.4634 61.2477 28.6885 61.2371 28.8942 61.1796L28.7028 60.4947L28.5113 59.8099C28.5229 59.8066 28.5653 59.799 28.621 59.8147C28.6747 59.8298 28.6985 59.8547 28.6945 59.8505L28.1885 60.3502ZM28.7028 60.4947L28.8942 61.1796L29.1854 61.0982L28.9939 60.4133L28.8024 59.7285L28.5113 59.8099L28.7028 60.4947ZM28.9939 60.4133L29.1854 61.0982L29.4765 61.0168L29.285 60.3319L29.0936 59.6471L28.8024 59.7285L28.9939 60.4133ZM29.285 60.3319L29.4765 61.0168C29.5724 60.99 29.6357 60.9931 29.6794 61.003L29.8363 60.3094L29.9932 59.6158C29.6901 59.5472 29.3859 59.5654 29.0936 59.6471L29.285 60.3319ZM29.8363 60.3094L29.6794 61.003L29.9395 61.0618L30.0964 60.3682L30.2533 59.6746L29.9932 59.6158L29.8363 60.3094ZM30.0964 60.3682L29.9395 61.0618L30.1996 61.1206L30.3565 60.427L30.5134 59.7334L30.2533 59.6746L30.0964 60.3682ZM30.3565 60.427L30.1996 61.1206C30.2922 61.1416 30.3864 61.1793 30.4839 61.2393L30.8569 60.6339L31.23 60.0286C31.007 59.8911 30.7676 59.7909 30.5134 59.7334L30.3565 60.427ZM30.8569 60.6339L30.4839 61.2393L30.7242 61.3874L31.0973 60.782L31.4703 60.1767L31.23 60.0286L30.8569 60.6339ZM31.0973 60.782L30.7242 61.3874L30.9645 61.5355L31.3376 60.9301L31.7107 60.3248L31.4703 60.1767L31.0973 60.782ZM31.3376 60.9301L30.9645 61.5355C31.2477 61.71 31.5659 61.7916 31.9 61.7703L31.8549 61.0607L31.8099 60.351C31.7747 60.3532 31.7479 60.3477 31.7107 60.3248L31.3376 60.9301ZM31.8549 61.0607L31.9 61.7703L32.177 61.7527L32.132 61.0431L32.0869 60.3334L31.8099 60.351L31.8549 61.0607ZM32.132 61.0431L32.177 61.7527L32.4541 61.7352L32.409 61.0255L32.3639 60.3158L32.0869 60.3334L32.132 61.0431ZM32.409 61.0255L32.4541 61.7352C32.6254 61.7243 32.7954 61.7183 32.964 61.7173L32.9595 61.0062L32.9551 60.2951C32.759 60.2963 32.5619 60.3032 32.3639 60.3158L32.409 61.0255ZM32.9595 61.0062L32.964 61.7173L33.2375 61.7156L33.233 61.0045L33.2286 60.2934L32.9551 60.2951L32.9595 61.0062ZM33.233 61.0045L33.2375 61.7156L33.511 61.7139L33.5065 61.0028L33.5021 60.2917L33.2286 60.2934L33.233 61.0045ZM33.5065 61.0028L33.511 61.7139C33.5027 61.7139 33.492 61.713 33.4801 61.7103C33.4683 61.7075 33.4586 61.7037 33.4517 61.7004C33.4379 61.6936 33.4451 61.6931 33.469 61.7199L33.999 61.2458L34.5289 60.7716C34.2768 60.4898 33.929 60.289 33.5021 60.2917L33.5065 61.0028ZM33.999 61.2458L33.469 61.7199L33.688 61.9646L34.2179 61.4905L34.7479 61.0163L34.5289 60.7716L33.999 61.2458ZM34.2179 61.4905L33.688 61.9646L33.9069 62.2093L34.4368 61.7352L34.9668 61.261L34.7479 61.0163L34.2179 61.4905ZM34.4368 61.7352L33.9069 62.2093C34.2006 62.5376 34.6222 62.7161 35.0984 62.6095L34.9432 61.9156L34.7879 61.2216C34.8101 61.2167 34.8576 61.2135 34.9116 61.2328C34.9614 61.2505 34.978 61.2735 34.9668 61.261L34.4368 61.7352ZM34.9432 61.9156L35.0984 62.6095L35.3858 62.5452L35.2305 61.8513L35.0753 61.1573L34.7879 61.2216L34.9432 61.9156ZM35.2305 61.8513L35.3858 62.5452L35.6731 62.481L35.5179 61.787L35.3626 61.093L35.0753 61.1573L35.2305 61.8513ZM35.5179 61.787L35.6731 62.481C35.6993 62.4751 35.7118 62.4762 35.7147 62.4765C35.717 62.4768 35.7206 62.4772 35.7288 62.4814L36.0508 61.8474L36.3727 61.2133C36.0511 61.05 35.7033 61.0168 35.3626 61.093L35.5179 61.787ZM36.0508 61.8474L35.7288 62.4814L35.9743 62.6061L36.2963 61.972L36.6182 61.338L36.3727 61.2133L36.0508 61.8474ZM36.2963 61.972L35.9743 62.6061L36.2199 62.7308L36.5418 62.0967L36.8637 61.4626L36.6182 61.338L36.2963 61.972ZM36.5418 62.0967L36.2199 62.7308C36.4926 62.8692 36.7875 62.9331 37.0928 62.9203L37.063 62.2098L37.0332 61.4993C36.971 61.5019 36.9184 61.4904 36.8637 61.4626L36.5418 62.0967ZM37.063 62.2098L37.0928 62.9203L37.3685 62.9087L37.3387 62.1982L37.3089 61.4877L37.0332 61.4993L37.063 62.2098ZM37.3387 62.1982L37.3685 62.9087L37.6442 62.8971L37.6144 62.1866L37.5846 61.4761L37.3089 61.4877L37.3387 62.1982ZM37.6144 62.1866L37.6442 62.8971C37.6942 62.895 37.7358 62.9045 37.7835 62.9314L38.1329 62.312L38.4822 61.6926C38.2062 61.5369 37.9022 61.4628 37.5846 61.4761L37.6144 62.1866ZM38.1329 62.312L37.7835 62.9314L38.0263 63.0683L38.3757 62.449L38.725 61.8296L38.4822 61.6926L38.1329 62.312ZM38.3757 62.449L38.0263 63.0683L38.2691 63.2053L38.6185 62.5859L38.9678 61.9665L38.725 61.8296L38.3757 62.449ZM38.6185 62.5859L38.2691 63.2053C38.4977 63.3342 38.742 63.4239 38.9996 63.4697L39.1241 62.7696L39.2485 62.0694C39.1558 62.053 39.063 62.0202 38.9678 61.9665L38.6185 62.5859ZM39.1241 62.7696L38.9996 63.4697L39.2624 63.5164L39.3869 62.8163L39.5113 62.1162L39.2485 62.0694L39.1241 62.7696ZM39.3869 62.8163L39.2624 63.5164L39.5252 63.5631L39.6496 62.863L39.7741 62.1629L39.5113 62.1162L39.3869 62.8163ZM39.6496 62.863L39.5252 63.5631C39.6913 63.5927 39.8539 63.6249 40.0131 63.6598L40.1655 62.9653L40.3179 62.2707C40.1396 62.2315 39.9584 62.1956 39.7741 62.1629L39.6496 62.863ZM40.1655 62.9653L40.0131 63.6598L40.2662 63.7154L40.4186 63.0208L40.571 62.3262L40.3179 62.2707L40.1655 62.9653ZM40.4186 63.0208L40.2662 63.7154L40.5193 63.7709L40.6717 63.0763L40.8241 62.3818L40.571 62.3262L40.4186 63.0208ZM40.6717 63.0763L40.5193 63.7709C40.7485 63.8212 40.9857 63.842 41.2283 63.8374L41.2149 63.1264L41.2016 62.4155C41.0574 62.4182 40.9324 62.4055 40.8241 62.3818L40.6717 63.0763ZM41.2149 63.1264L41.2283 63.8374L41.5184 63.832L41.5051 63.121L41.4917 62.41L41.2016 62.4155L41.2149 63.1264ZM41.5051 63.121L41.5184 63.832L41.8085 63.8265L41.7952 63.1156L41.7818 62.4046L41.4917 62.41L41.5051 63.121ZM41.7952 63.1156L41.8085 63.8265C41.8039 63.8266 41.7928 63.8263 41.7772 63.8227C41.7612 63.8191 41.7445 63.8131 41.7287 63.8048C41.6953 63.7873 41.686 63.7707 41.6941 63.7819L42.2697 63.3643L42.8453 62.9468C42.599 62.6073 42.2294 62.3962 41.7818 62.4046L41.7952 63.1156ZM42.2697 63.3643L41.6941 63.7819L41.8786 64.0362L42.4542 63.6186L43.0298 63.201L42.8453 62.9468L42.2697 63.3643ZM42.4542 63.6186L41.8786 64.0362L42.063 64.2904L42.6386 63.8728L43.2142 63.4552L43.0298 63.201L42.4542 63.6186ZM42.6386 63.8728L42.063 64.2904C42.2762 64.5843 42.5786 64.8057 42.9661 64.8751L43.0914 64.1751L43.2168 63.4751C43.219 63.4755 43.2231 63.4765 43.2281 63.4785C43.2331 63.4806 43.2368 63.4827 43.2389 63.4841C43.2434 63.4871 43.2337 63.4821 43.2142 63.4552L42.6386 63.8728ZM43.0914 64.1751L42.9661 64.8751L43.2344 64.9231L43.3598 64.2232L43.4851 63.5232L43.2168 63.4751L43.0914 64.1751ZM43.3598 64.2232L43.2344 64.9231L43.5027 64.9712L43.6281 64.2712L43.7535 63.5712L43.4851 63.5232L43.3598 64.2232ZM43.6281 64.2712L43.5027 64.9712C43.6342 64.9947 43.7584 65.0306 43.8764 65.0785L44.1436 64.4195L44.4108 63.7605C44.1993 63.6747 43.9798 63.6118 43.7535 63.5712L43.6281 64.2712ZM44.1436 64.4195L43.8764 65.0785L44.1235 65.1787L44.3907 64.5197L44.6579 63.8607L44.4108 63.7605L44.1436 64.4195ZM44.3907 64.5197L44.1235 65.1787L44.3706 65.2789L44.6378 64.6199L44.905 63.9608L44.6579 63.8607L44.3907 64.5197ZM44.6378 64.6199L44.3706 65.2789C44.5525 65.3526 44.7373 65.4192 44.9247 65.4788L45.1399 64.801L45.3551 64.1232C45.2026 64.0748 45.0526 64.0207 44.905 63.9608L44.6378 64.6199ZM45.1399 64.801L44.9247 65.4788L45.1797 65.5597L45.3949 64.8819L45.6101 64.2042L45.3551 64.1232L45.1399 64.801ZM45.3949 64.8819L45.1797 65.5597L45.4347 65.6407L45.6498 64.9629L45.865 64.2851L45.6101 64.2042L45.3949 64.8819ZM45.6498 64.9629L45.4347 65.6407C45.5257 65.6696 45.6126 65.714 45.6974 65.7778L46.1252 65.2098L46.5529 64.6417C46.3439 64.4843 46.1139 64.3641 45.865 64.2851L45.6498 64.9629ZM46.1252 65.2098L45.6974 65.7778L45.9178 65.9438L46.3455 65.3757L46.7733 64.8077L46.5529 64.6417L46.1252 65.2098ZM46.3455 65.3757L45.9178 65.9438L46.1381 66.1097L46.5659 65.5417L46.9937 64.9736L46.7733 64.8077L46.3455 65.3757ZM46.5659 65.5417L46.1381 66.1097C46.4514 66.3457 46.8188 66.4206 47.1838 66.3724L47.0906 65.6674L46.9973 64.9624C46.9836 64.9642 46.9754 64.9642 46.972 64.9641C46.9687 64.9639 46.9694 64.9637 46.973 64.9645C46.9766 64.9654 46.9812 64.967 46.9859 64.9692C46.9906 64.9714 46.9932 64.9733 46.9937 64.9736L46.5659 65.5417ZM47.0906 65.6674L47.1838 66.3724L47.4881 66.3321L47.3948 65.6271L47.3016 64.9222L46.9973 64.9624L47.0906 65.6674ZM47.3948 65.6271L47.4881 66.3321L47.7924 66.2919L47.6991 65.5869L47.6059 64.8819L47.3016 64.9222L47.3948 65.6271ZM47.6991 65.5869L47.7924 66.2919C47.8667 66.282 47.8891 66.2962 47.894 66.2989L48.2384 65.6767L48.5828 65.0546C48.2743 64.8838 47.9372 64.8381 47.6059 64.8819L47.6991 65.5869ZM48.2384 65.6767L47.894 66.2989L48.1289 66.4289L48.4733 65.8068L48.8177 65.1846L48.5828 65.0546L48.2384 65.6767ZM48.4733 65.8068L48.1289 66.4289L48.3639 66.559L48.7083 65.9369L49.0527 65.3147L48.8177 65.1846L48.4733 65.8068ZM48.7083 65.9369L48.3639 66.559C48.5352 66.6538 48.7093 66.7423 48.8862 66.8244L49.1855 66.1793L49.4847 65.5342C49.3387 65.4665 49.1947 65.3933 49.0527 65.3147L48.7083 65.9369ZM49.1855 66.1793L48.8862 66.8244L49.1284 66.9367L49.4276 66.2916L49.7269 65.6466L49.4847 65.5342L49.1855 66.1793ZM49.4276 66.2916L49.1284 66.9367L49.3705 67.0491L49.6698 66.404L49.9691 65.7589L49.7269 65.6466L49.4276 66.2916ZM49.6698 66.404L49.3705 67.0491C49.5761 67.1444 49.79 67.2182 50.0114 67.2704L50.1747 66.5783L50.3379 65.8862C50.2091 65.8558 50.0864 65.8134 49.9691 65.7589L49.6698 66.404ZM50.1747 66.5783L50.0114 67.2704L50.2741 67.3324L50.4374 66.6403L50.6006 65.9482L50.3379 65.8862L50.1747 66.5783ZM50.4374 66.6403L50.2741 67.3324L50.5368 67.3944L50.7001 66.7022L50.8633 66.0101L50.6006 65.9482L50.4374 66.6403ZM50.7001 66.7022L50.5368 67.3944C50.6589 67.4232 50.7743 67.465 50.8842 67.5199L51.202 66.8837L51.5198 66.2476C51.3106 66.1431 51.0914 66.0639 50.8633 66.0101L50.7001 66.7022ZM51.202 66.8837L50.8842 67.5199L51.1235 67.6394L51.4413 67.0032L51.759 66.3671L51.5198 66.2476L51.202 66.8837ZM51.4413 67.0032L51.1235 67.6394L51.3627 67.7589L51.6805 67.1228L51.9983 66.4866L51.759 66.3671L51.4413 67.0032ZM51.6805 67.1228L51.3627 67.7589C51.4908 67.8229 51.6158 67.8971 51.7378 67.9821L52.1441 67.3985L52.5505 66.8149C52.3733 66.6915 52.1892 66.582 51.9983 66.4866L51.6805 67.1228ZM52.1441 67.3985L51.7378 67.9821L51.9622 68.1383L52.3685 67.5547L52.7748 66.9711L52.5505 66.8149L52.1441 67.3985ZM52.3685 67.5547L51.9622 68.1383L52.1865 68.2945L52.5928 67.7109L52.9991 67.1273L52.7748 66.9711L52.3685 67.5547ZM52.5928 67.7109L52.1865 68.2945C52.472 68.4932 52.7986 68.5794 53.1363 68.5666L53.1095 67.856L53.0828 67.1454C53.0306 67.1474 53.0128 67.1368 52.9991 67.1273L52.5928 67.7109ZM53.1095 67.856L53.1363 68.5666L53.4287 68.5556L53.4019 67.845L53.3751 67.1344L53.0828 67.1454L53.1095 67.856ZM53.4019 67.845L53.4287 68.5556L53.7211 68.5446L53.6943 67.834L53.6675 67.1234L53.3751 67.1344L53.4019 67.845ZM53.6943 67.834L53.7211 68.5446C53.7138 68.5449 53.6858 68.5434 53.6518 68.527C53.6191 68.5112 53.608 68.4947 53.6139 68.5024L54.1756 68.0662L54.7372 67.6301C54.4795 67.2982 54.1052 67.1069 53.6675 67.1234L53.6943 67.834ZM54.1756 68.0662L53.6139 68.5024L53.8029 68.7457L54.3645 68.3095L54.9262 67.8734L54.7372 67.6301L54.1756 68.0662ZM54.3645 68.3095L53.8029 68.7457L53.9918 68.9889L54.5534 68.5528L55.1151 68.1166L54.9262 67.8734L54.3645 68.3095ZM54.5534 68.5528L53.9918 68.9889C54.2047 69.2631 54.4929 69.4693 54.8536 69.5487L55.0065 68.8542L55.1595 68.1598C55.1579 68.1594 55.1577 68.1595 55.155 68.1577C55.1513 68.1552 55.137 68.1449 55.1151 68.1166L54.5534 68.5528ZM55.0065 68.8542L54.8536 69.5487L55.1178 69.6069L55.2708 68.9124L55.4237 68.218L55.1595 68.1598L55.0065 68.8542ZM55.2708 68.9124L55.1178 69.6069L55.382 69.6651L55.535 68.9706L55.6879 68.2762L55.4237 68.218L55.2708 68.9124ZM55.535 68.9706L55.382 69.6651C55.4504 69.6801 55.5133 69.7091 55.5765 69.759L56.0171 69.2008L56.4577 68.6427C56.2304 68.4632 55.9719 68.3387 55.6879 68.2762L55.535 68.9706ZM56.0171 69.2008L55.5765 69.759L55.7943 69.931L56.235 69.3729L56.6756 68.8147L56.4577 68.6427L56.0171 69.2008ZM56.235 69.3729L55.7943 69.931L56.0122 70.103L56.4529 69.5449L56.8935 68.9868L56.6756 68.8147L56.235 69.3729ZM56.4529 69.5449L56.0122 70.103C56.2918 70.3238 56.6222 70.4289 56.9712 70.4236L56.9605 69.7126L56.9497 69.0015C56.9259 69.0019 56.9149 68.9986 56.9118 68.9976C56.909 68.9967 56.9036 68.9947 56.8935 68.9868L56.4529 69.5449ZM56.9605 69.7126L56.9712 70.4236L57.2609 70.4192L57.2501 69.7082L57.2394 68.9972L56.9497 69.0015L56.9605 69.7126ZM57.2501 69.7082L57.2609 70.4192L57.5505 70.4149L57.5398 69.7038L57.5291 68.9928L57.2394 68.9972L57.2501 69.7082ZM57.5398 69.7038L57.5505 70.4149C57.6268 70.4137 57.6744 70.4295 57.7114 70.4505L58.0632 69.8325L58.4151 69.2146C58.1404 69.0582 57.8391 68.9881 57.5291 68.9928L57.5398 69.7038ZM58.0632 69.8325L57.7114 70.4505L57.9452 70.5836L58.297 69.9656L58.6488 69.3476L58.4151 69.2146L58.0632 69.8325ZM58.297 69.9656L57.9452 70.5836L58.1789 70.7167L58.5307 70.0987L58.8826 69.4807L58.6488 69.3476L58.297 69.9656ZM58.5307 70.0987L58.1789 70.7167C58.2979 70.7844 58.4142 70.8646 58.5276 70.9582L58.9801 70.4095L59.4325 69.8609C59.2585 69.7174 59.0752 69.5904 58.8826 69.4807L58.5307 70.0987ZM58.9801 70.4095L58.5276 70.9582L58.7432 71.1359L59.1956 70.5873L59.648 70.0386L59.4325 69.8609L58.9801 70.4095ZM59.1956 70.5873L58.7432 71.1359L58.9588 71.3137L59.4112 70.765L59.8636 70.2164L59.648 70.0386L59.1956 70.5873ZM59.4112 70.765L58.9588 71.3137C59.1519 71.4729 59.3628 71.6034 59.5908 71.7014L59.8718 71.0482L60.1527 70.3949C60.0541 70.3525 59.9579 70.2941 59.8636 70.2164L59.4112 70.765ZM59.8718 71.0482L59.5908 71.7014L59.8358 71.8068L60.1168 71.1536L60.3978 70.5003L60.1527 70.3949L59.8718 71.0482ZM60.1168 71.1536L59.8358 71.8068L60.0808 71.9122L60.3618 71.2589L60.6428 70.6057L60.3978 70.5003L60.1168 71.1536ZM60.3618 71.2589L60.0808 71.9122C60.2421 71.9815 60.403 72.0517 60.5636 72.1226L60.8509 71.4721L61.1381 70.8216C60.9733 70.7488 60.8082 70.6769 60.6428 70.6057L60.3618 71.2589ZM60.8509 71.4721L60.5636 72.1226L60.8077 72.2304L61.0949 71.5799L61.3822 70.9294L61.1381 70.8216L60.8509 71.4721ZM61.0949 71.5799L60.8077 72.2304L61.0517 72.3381L61.339 71.6876L61.6262 71.0371L61.3822 70.9294L61.0949 71.5799ZM61.339 71.6876L61.0517 72.3381C61.2464 72.4241 61.4468 72.4955 61.6527 72.5523L61.8418 71.8668L62.031 71.1813C61.8917 71.1429 61.7569 71.0948 61.6262 71.0371L61.339 71.6876ZM61.8418 71.8668L61.6527 72.5523L61.9115 72.6237L62.1007 71.9382L62.2898 71.2527L62.031 71.1813L61.8418 71.8668ZM62.1007 71.9382L61.9115 72.6237L62.1704 72.6951L62.3595 72.0096L62.5487 71.3242L62.2898 71.2527L62.1007 71.9382ZM62.3595 72.0096L62.1704 72.6951C62.3658 72.7491 62.5646 72.7934 62.7666 72.8282L62.8874 72.1275L63.0082 71.4267C62.8515 71.3997 62.6983 71.3655 62.5487 71.3242L62.3595 72.0096ZM62.8874 72.1275L62.7666 72.8282L63.0356 72.8746L63.1564 72.1738L63.2772 71.4731L63.0082 71.4267L62.8874 72.1275ZM63.1564 72.1738L63.0356 72.8746L63.3046 72.921L63.4254 72.2202L63.5463 71.5195L63.2772 71.4731L63.1564 72.1738ZM63.4254 72.2202L63.3046 72.921C63.4181 72.9406 63.5222 72.9746 63.6195 73.0226L63.9342 72.3849L64.2489 71.7472C64.0265 71.6375 63.7915 71.5617 63.5463 71.5195L63.4254 72.2202ZM63.9342 72.3849L63.6195 73.0226L63.8593 73.1409L64.174 72.5033L64.4887 71.8656L64.2489 71.7472L63.9342 72.3849ZM64.174 72.5033L63.8593 73.1409L64.099 73.2593L64.4137 72.6216L64.7284 71.9839L64.4887 71.8656L64.174 72.5033ZM64.4137 72.6216L64.099 73.2593C64.3336 73.375 64.5831 73.4477 64.8433 73.4789L64.928 72.7728L65.0126 72.0667C64.9069 72.0541 64.8135 72.0259 64.7284 71.9839L64.4137 72.6216ZM64.928 72.7728L64.8433 73.4789L65.1178 73.5118L65.2025 72.8057L65.2871 72.0997L65.0126 72.0667L64.928 72.7728ZM65.2025 72.8057L65.1178 73.5118L65.3923 73.5447L65.477 72.8386L65.5616 72.1326L65.2871 72.0997L65.2025 72.8057ZM65.477 72.8386L65.3923 73.5447C65.5531 73.564 65.7102 73.5905 65.8636 73.6241L66.0158 72.9295L66.168 72.2348C65.969 72.1912 65.7668 72.1572 65.5616 72.1326L65.477 72.8386ZM66.0158 72.9295L65.8636 73.6241L66.1279 73.682L66.2802 72.9874L66.4324 72.2928L66.168 72.2348L66.0158 72.9295ZM66.2802 72.9874L66.1279 73.682L66.3923 73.7399L66.5445 73.0453L66.6967 72.3507L66.4324 72.2928L66.2802 72.9874ZM66.5445 73.0453L66.3923 73.7399C66.5345 73.7711 66.6717 73.8121 66.8043 73.8627L67.058 73.1984L67.3116 72.534C67.112 72.4578 66.9069 72.3967 66.6967 72.3507L66.5445 73.0453ZM67.058 73.1984L66.8043 73.8627L67.0535 73.9578L67.3072 73.2935L67.5608 72.6292L67.3116 72.534L67.058 73.1984ZM67.3072 73.2935L67.0535 73.9578L67.3027 74.053L67.5564 73.3886L67.81 72.7243L67.5608 72.6292L67.3072 73.2935ZM67.5564 73.3886L67.3027 74.053C67.3918 74.087 67.4788 74.1373 67.5647 74.2091L68.0204 73.6632L68.4762 73.1173C68.2756 72.9498 68.0532 72.8171 67.81 72.7243L67.5564 73.3886ZM68.0204 73.6632L67.5647 74.2091L67.7796 74.3885L68.2353 73.8426L68.6911 73.2967L68.4762 73.1173L68.0204 73.6632ZM68.2353 73.8426L67.7796 74.3885L67.9945 74.5679L68.4502 74.022L68.906 73.4761L68.6911 73.2967L68.2353 73.8426ZM68.4502 74.022L67.9945 74.5679C68.1992 74.7387 68.4277 74.8717 68.6784 74.9608L68.9167 74.2908L69.1549 73.6208C69.0703 73.5907 68.9878 73.5444 68.906 73.4761L68.4502 74.022ZM68.9167 74.2908L68.6784 74.9608L68.9299 75.0503L69.1682 74.3802L69.4064 73.7102L69.1549 73.6208L68.9167 74.2908ZM69.1682 74.3802L68.9299 75.0503L69.1814 75.1397L69.4197 74.4697L69.6579 73.7997L69.4064 73.7102L69.1682 74.3802ZM69.4197 74.4697L69.1814 75.1397C69.2415 75.1611 69.305 75.1985 69.3732 75.2666L69.8759 74.7636L70.3785 74.2606C70.1738 74.056 69.9332 73.8975 69.6579 73.7997L69.4197 74.4697ZM69.8759 74.7636L69.3732 75.2666L69.5779 75.4712L70.0805 74.9681L70.5832 74.4651L70.3785 74.2606L69.8759 74.7636ZM70.0805 74.9681L69.5779 75.4712L69.7826 75.6757L70.2852 75.1727L70.7878 74.6696L70.5832 74.4651L70.0805 74.9681ZM70.2852 75.1727L69.7826 75.6757C69.9917 75.8847 70.2398 76.0436 70.5246 76.1361L70.7442 75.4597L70.9638 74.7834C70.9095 74.7658 70.8516 74.7333 70.7878 74.6696L70.2852 75.1727ZM70.7442 75.4597L70.5246 76.1361L70.7789 76.2187L70.9985 75.5423L71.2181 74.8659L70.9638 74.7834L70.7442 75.4597ZM70.9985 75.5423L70.7789 76.2187L71.0332 76.3012L71.2528 75.6249L71.4724 74.9485L71.2181 74.8659L70.9985 75.5423ZM71.2528 75.6249L71.0332 76.3012C71.3276 76.3968 71.6321 76.4075 71.9308 76.3585L71.8156 75.6568L71.7004 74.955C71.5878 74.9735 71.517 74.963 71.4724 74.9485L71.2528 75.6249ZM71.8156 75.6568L71.9308 76.3585L72.2393 76.3078L72.1241 75.6061L72.0089 74.9044L71.7004 74.955L71.8156 75.6568ZM72.1241 75.6061L72.2393 76.3078L72.5478 76.2572L72.4326 75.5555L72.3174 74.8537L72.0089 74.9044L72.1241 75.6061ZM72.4326 75.5555L72.5478 76.2572C72.5392 76.2586 72.4892 76.2634 72.4248 76.2353C72.3953 76.2224 72.3722 76.2065 72.356 76.1924C72.3404 76.1788 72.3341 76.1694 72.3346 76.1701L72.9216 75.7688L73.5086 75.3674C73.3882 75.1913 73.2198 75.0304 72.9935 74.9317C72.766 74.8325 72.5318 74.8186 72.3174 74.8537L72.4326 75.5555ZM72.9216 75.7688L72.3346 76.1701L72.5151 76.4341L73.1021 76.0327L73.6891 75.6314L73.5086 75.3674L72.9216 75.7688ZM73.1021 76.0327L72.5151 76.4341L72.6956 76.6981L73.2826 76.2967L73.8696 75.8953L73.6891 75.6314L73.1021 76.0327ZM73.2826 76.2967L72.6956 76.6981C72.8757 76.9614 73.1137 77.1837 73.4196 77.3189L73.7071 76.6685L73.9946 76.0182C73.9751 76.0095 73.9302 75.9839 73.8696 75.8953L73.2826 76.2967ZM73.7071 76.6685L73.4196 77.3189L73.6636 77.4268L73.9511 76.7764L74.2386 76.126L73.9946 76.0182L73.7071 76.6685ZM73.9511 76.7764L73.6636 77.4268L73.9076 77.5347L74.1951 76.8843L74.4826 76.2339L74.2386 76.126L73.9511 76.7764ZM74.1951 76.8843L73.9076 77.5347C74.125 77.6308 74.3523 77.6988 74.588 77.7392L74.7082 77.0383L74.8284 76.3374C74.7053 76.3163 74.5905 76.2816 74.4826 76.2339L74.1951 76.8843ZM74.7082 77.0383L74.588 77.7392L74.8572 77.7853L74.9773 77.0844L75.0975 76.3836L74.8284 76.3374L74.7082 77.0383ZM74.9773 77.0844L74.8572 77.7853L75.1263 77.8315L75.2465 77.1306L75.3667 76.4297L75.0975 76.3836L74.9773 77.0844ZM75.2465 77.1306L75.1263 77.8315C75.3687 77.873 75.6167 77.8821 75.8681 77.8625L75.8129 77.1536L75.7577 76.4446C75.6127 76.4559 75.4831 76.4497 75.3667 76.4297L75.2465 77.1306ZM75.8129 77.1536L75.8681 77.8625L76.1655 77.8394L76.1102 77.1304L76.055 76.4214L75.7577 76.4446L75.8129 77.1536ZM76.1102 77.1304L76.1655 77.8394L76.4628 77.8162L76.4076 77.1072L76.3523 76.3983L76.055 76.4214L76.1102 77.1304ZM76.4076 77.1072L76.4628 77.8162C76.4544 77.8169 76.4198 77.8166 76.3769 77.7966C76.3353 77.7773 76.3192 77.7549 76.3229 77.7597L76.8916 77.3328L77.4603 76.9059C77.1973 76.5556 76.8053 76.363 76.3523 76.3983L76.4076 77.1072ZM76.8916 77.3328L76.3229 77.7597L76.5096 78.0084L77.0783 77.5815L77.647 77.1546L77.4603 76.9059L76.8916 77.3328ZM77.0783 77.5815L76.5096 78.0084L76.6963 78.2571L77.265 77.8302L77.8337 77.4033L77.647 77.1546L77.0783 77.5815ZM77.265 77.8302L76.6963 78.2571C76.8235 78.4265 76.9953 78.5751 77.2174 78.6642C77.4394 78.7532 77.666 78.7645 77.8743 78.7305L77.76 78.0287L77.6457 77.3268C77.6485 77.3263 77.6898 77.3213 77.7467 77.3441C77.8039 77.367 77.831 77.3996 77.8337 77.4033L77.265 77.8302ZM77.76 78.0287L77.8743 78.7305L78.1827 78.6803L78.0683 77.9784L77.954 77.2766L77.6457 77.3268L77.76 78.0287ZM78.0683 77.9784L78.1827 78.6803L78.491 78.6301L78.3767 77.9282L78.2624 77.2264L77.954 77.2766L78.0683 77.9784ZM78.3767 77.9282L78.491 78.6301C78.5287 78.624 78.5474 78.6262 78.552 78.627C78.5544 78.6274 78.5549 78.6276 78.5541 78.6274C78.5532 78.6271 78.5528 78.6268 78.5533 78.6271L78.9168 78.0159L79.2803 77.4047C78.9598 77.2141 78.6054 77.1705 78.2624 77.2264L78.3767 77.9282ZM78.9168 78.0159L78.5533 78.6271L78.7851 78.7649L79.1486 78.1538L79.5121 77.5426L79.2803 77.4047L78.9168 78.0159ZM79.1486 78.1538L78.7851 78.7649L79.0169 78.9028L79.3804 78.2916L79.7439 77.6804L79.5121 77.5426L79.1486 78.1538ZM79.3804 78.2916L79.0169 78.9028C79.1293 78.9696 79.2393 79.0507 79.3468 79.1476L79.8229 78.6193L80.2989 78.091C80.1255 77.9348 79.9406 77.7974 79.7439 77.6804L79.3804 78.2916ZM79.8229 78.6193L79.3468 79.1476L79.5575 79.3374L80.0335 78.8091L80.5096 78.2808L80.2989 78.091L79.8229 78.6193ZM80.0335 78.8091L79.5575 79.3374L79.7682 79.5272L80.2442 78.9989L80.7202 78.4707L80.5096 78.2808L80.0335 78.8091ZM80.2442 78.9989L79.7682 79.5272C79.9702 79.7093 80.1991 79.8523 80.4535 79.9483L80.7044 79.2829L80.9554 78.6175C80.877 78.588 80.799 78.5417 80.7202 78.4707L80.2442 78.9989ZM80.7044 79.2829L80.4535 79.9483L80.7031 80.0424L80.954 79.377L81.205 78.7117L80.9554 78.6175L80.7044 79.2829ZM80.954 79.377L80.7031 80.0424L80.9527 80.1365L81.2036 79.4712L81.4546 78.8058L81.205 78.7117L80.954 79.377ZM81.2036 79.4712L80.9527 80.1365C81.0946 80.1901 81.2335 80.2514 81.3694 80.3205L81.6917 79.6866L82.0141 79.0527C81.8319 78.9601 81.6454 78.8778 81.4546 78.8058L81.2036 79.4712ZM81.6917 79.6866L81.3694 80.3205L81.608 80.4418L81.9303 79.8079L82.2526 79.174L82.0141 79.0527L81.6917 79.6866ZM81.9303 79.8079L81.608 80.4418L81.8465 80.5631L82.1688 79.9292L82.4911 79.2953L82.2526 79.174L81.9303 79.8079ZM82.1688 79.9292L81.8465 80.5631C81.9994 80.6408 82.1514 80.7209 82.3025 80.8033L82.643 80.179L82.9835 79.5547C82.8204 79.4658 82.6563 79.3793 82.4911 79.2953L82.1688 79.9292ZM82.643 80.179L82.3025 80.8033L82.5381 80.9318L82.8786 80.3075L83.2191 79.6832L82.9835 79.5547L82.643 80.179ZM82.8786 80.3075L82.5381 80.9318L82.7737 81.0603L83.1142 80.436L83.4547 79.8117L83.2191 79.6832L82.8786 80.3075ZM83.1142 80.436L82.7737 81.0603C83.0303 81.2002 83.3088 81.2744 83.5986 81.2882L83.6323 80.5779L83.6659 79.8676C83.5792 79.8634 83.5123 79.8431 83.4547 79.8117L83.1142 80.436ZM83.6323 80.5779L83.5986 81.2882L83.8811 81.3016L83.9147 80.5913L83.9484 79.8809L83.6659 79.8676L83.6323 80.5779ZM83.9147 80.5913L83.8811 81.3016L84.1635 81.315L84.1972 80.6046L84.2308 79.8943L83.9484 79.8809L83.9147 80.5913ZM84.1972 80.6046L84.1635 81.315C84.3357 81.3231 84.5049 81.337 84.6713 81.3566L84.7544 80.6504L84.8375 79.9441C84.6375 79.9206 84.4353 79.904 84.2308 79.8943L84.1972 80.6046ZM84.7544 80.6504L84.6713 81.3566L84.946 81.3889L85.0291 80.6827L85.1122 79.9764L84.8375 79.9441L84.7544 80.6504ZM85.0291 80.6827L84.946 81.3889L85.2208 81.4212L85.3039 80.715L85.3869 80.0088L85.1122 79.9764L85.0291 80.6827ZM85.3039 80.715L85.2208 81.4212C85.2405 81.4236 85.2566 81.4276 85.2863 81.4568L85.7844 80.9492L86.2824 80.4416C86.0378 80.2016 85.7335 80.0495 85.3869 80.0088L85.3039 80.715ZM85.7844 80.9492L85.2863 81.4568L85.4921 81.6587L85.9901 81.1511L86.4882 80.6435L86.2824 80.4416L85.7844 80.9492ZM85.9901 81.1511L85.4921 81.6587L85.6978 81.8605L86.1959 81.353L86.6939 80.8454L86.4882 80.6435L85.9901 81.1511ZM86.1959 81.353L85.6978 81.8605C85.9764 82.1339 86.3326 82.2689 86.7191 82.2551L86.6938 81.5444L86.6684 80.8337C86.6622 80.834 86.661 80.8335 86.6638 80.8339C86.6668 80.8344 86.672 80.8356 86.6784 80.838C86.6849 80.8405 86.6901 80.8433 86.6936 80.8456C86.6969 80.8478 86.697 80.8484 86.6939 80.8454L86.1959 81.353ZM86.6938 81.5444L86.7191 82.2551L87.0113 82.2446L86.9859 81.534L86.9605 80.8233L86.6684 80.8337L86.6938 81.5444ZM86.9859 81.534L87.0113 82.2446L87.3034 82.2342L87.278 81.5236L87.2527 80.8129L86.9605 80.8233L86.9859 81.534ZM87.278 81.5236L87.3034 82.2342C87.3064 82.2341 87.3039 82.2345 87.297 82.2333C87.2899 82.2321 87.2808 82.2296 87.2709 82.2254C87.261 82.2213 87.2533 82.2166 87.2481 82.2129C87.2431 82.2093 87.2424 82.2079 87.2454 82.2112L87.7696 81.7306L88.2938 81.2501C88.0217 80.9533 87.6577 80.7984 87.2527 80.8129L87.278 81.5236ZM87.7696 81.7306L87.2454 82.2112L87.4448 82.4287L87.969 81.9482L88.4932 81.4676L88.2938 81.2501L87.7696 81.7306ZM87.969 81.9482L87.4448 82.4287L87.6441 82.6462L88.1684 82.1657L88.6925 81.6852L88.4932 81.4676L87.969 81.9482ZM88.1684 82.1657L87.6441 82.6462C87.825 82.8435 88.0313 83.0097 88.2643 83.1362L88.6036 82.5112L88.9428 81.8862C88.8614 81.842 88.7775 81.7779 88.6925 81.6852L88.1684 82.1657ZM88.6036 82.5112L88.2643 83.1362L88.5002 83.2642L88.8394 82.6392L89.1786 82.0142L88.9428 81.8862L88.6036 82.5112ZM88.8394 82.6392L88.5002 83.2642L88.736 83.3922L89.0752 82.7672L89.4144 82.1422L89.1786 82.0142L88.8394 82.6392ZM89.0752 82.7672L88.736 83.3922C88.8997 83.481 89.0645 83.5672 89.2305 83.6506L89.55 83.0154L89.8695 82.3801C89.7168 82.3033 89.5651 82.224 89.4144 82.1422L89.0752 82.7672ZM89.55 83.0154L89.2305 83.6506L89.4695 83.7708L89.789 83.1356L90.1085 82.5003L89.8695 82.3801L89.55 83.0154ZM89.789 83.1356L89.4695 83.7708L89.7084 83.891L90.028 83.2558L90.3475 82.6205L90.1085 82.5003L89.789 83.1356ZM90.028 83.2558L89.7084 83.891C89.9022 83.9885 90.1029 84.0697 90.3099 84.1346L90.5223 83.4559L90.7347 82.7773C90.6013 82.7355 90.4723 82.6833 90.3475 82.6205L90.028 83.2558ZM90.5223 83.4559L90.3099 84.1346L90.5653 84.2145L90.7777 83.5358L90.9901 82.8572L90.7347 82.7773L90.5223 83.4559ZM90.7777 83.5358L90.5653 84.2145L90.8207 84.2944L91.0331 83.6158L91.2455 82.9371L90.9901 82.8572L90.7777 83.5358ZM91.0331 83.6158L90.8207 84.2944C91.0332 84.3609 91.2519 84.4077 91.476 84.4352L91.5626 83.7294L91.6493 83.0236C91.5078 83.0062 91.3734 82.9772 91.2455 82.9371L91.0331 83.6158ZM91.5626 83.7294L91.476 84.4352L91.7502 84.4688L91.8368 83.763L91.9235 83.0572L91.6493 83.0236L91.5626 83.7294ZM91.8368 83.763L91.7502 84.4688L92.0244 84.5025L92.111 83.7967L92.1977 83.0909L91.9235 83.0572L91.8368 83.763ZM92.111 83.7967L92.0244 84.5025C92.0982 84.5116 92.1589 84.5347 92.2157 84.5727L92.6115 83.9819L93.0072 83.3911C92.7624 83.2271 92.4895 83.1267 92.1977 83.0909L92.111 83.7967ZM92.6115 83.9819L92.2157 84.5727L92.442 84.7243L92.8377 84.1335L93.2335 83.5426L93.0072 83.3911L92.6115 83.9819ZM92.8377 84.1335L92.442 84.7243L92.6682 84.8758L93.0639 84.285L93.4597 83.6942L93.2335 83.5426L92.8377 84.1335ZM93.0639 84.285L92.6682 84.8758C92.9394 85.0575 93.2458 85.1471 93.5668 85.1515L93.5765 84.4405L93.5862 83.7294C93.5255 83.7286 93.4901 83.7146 93.4597 83.6942L93.0639 84.285ZM93.5765 84.4405L93.5668 85.1515L93.8531 85.1554L93.8628 84.4444L93.8725 83.7333L93.5862 83.7294L93.5765 84.4405ZM93.8628 84.4444L93.8531 85.1554L94.1394 85.1593L94.1491 84.4483L94.1588 83.7372L93.8725 83.7333L93.8628 84.4444ZM94.1491 84.4483L94.1394 85.1593C94.1483 85.1594 94.1535 85.1602 94.1558 85.1607C94.158 85.1611 94.1586 85.1614 94.1581 85.1612C94.1577 85.161 94.158 85.1611 94.1593 85.1619C94.1607 85.1627 94.1642 85.1651 94.1699 85.1703L94.646 84.642L95.1221 84.1138C94.8522 83.8705 94.5203 83.7422 94.1588 83.7372L94.1491 84.4483ZM94.646 84.642L94.1699 85.1703L94.3806 85.3601L94.8567 84.8319L95.3328 84.3037L95.1221 84.1138L94.646 84.642ZM94.8567 84.8319L94.3806 85.3601L94.5912 85.55L95.0673 85.0218L95.5434 84.4936L95.3328 84.3037L94.8567 84.8319ZM95.0673 85.0218L94.5912 85.55C94.7502 85.6933 94.9147 85.8264 95.0848 85.949L95.5006 85.3721L95.9163 84.7952C95.7896 84.7038 95.6653 84.6034 95.5434 84.4936L95.0673 85.0218ZM95.5006 85.3721L95.0848 85.949L95.3074 86.1094L95.7232 85.5325L96.139 84.9556L95.9163 84.7952L95.5006 85.3721ZM95.7232 85.5325L95.3074 86.1094L95.5301 86.2698L95.9458 85.6929L96.3616 85.116L96.139 84.9556L95.7232 85.5325ZM95.9458 85.6929L95.5301 86.2698C95.8551 86.5041 96.2313 86.5639 96.5958 86.5024L96.4775 85.8012L96.3593 85.1C96.3441 85.1026 96.3349 85.1029 96.3309 85.1029C96.327 85.1029 96.3278 85.1026 96.332 85.1034C96.3363 85.1043 96.3422 85.106 96.3485 85.1088C96.3549 85.1116 96.3593 85.1144 96.3616 85.116L95.9458 85.6929ZM96.4775 85.8012L96.5958 86.5024L96.9049 86.4503L96.7867 85.7491L96.6684 85.0479L96.3593 85.1L96.4775 85.8012ZM96.7867 85.7491L96.9049 86.4503L97.214 86.3982L97.0958 85.697L96.9775 84.9958L96.6684 85.0479L96.7867 85.7491ZM97.0958 85.697L97.214 86.3982C97.2151 86.398 97.1784 86.4036 97.1249 86.3835C97.0705 86.363 97.0427 86.3325 97.0381 86.3266L97.5952 85.8847L98.1523 85.4428C98.0208 85.277 97.8463 85.1352 97.6254 85.0522C97.4055 84.9695 97.1825 84.9612 96.9775 84.9958L97.0958 85.697ZM97.5952 85.8847L97.0381 86.3266L97.2283 86.5665L97.7855 86.1246L98.3426 85.6827L98.1523 85.4428L97.5952 85.8847ZM97.7855 86.1246L97.2283 86.5665L97.4186 86.8064L97.9757 86.3645L98.5329 85.9225L98.3426 85.6827L97.7855 86.1246ZM97.9757 86.3645L97.4186 86.8064C97.7076 87.1707 98.1299 87.3296 98.5827 87.2592L98.4734 86.5566L98.3641 85.8539C98.363 85.8541 98.3718 85.8526 98.3885 85.854C98.4057 85.8555 98.4276 85.8598 98.4514 85.869C98.5033 85.8891 98.5293 85.9181 98.5329 85.9225L97.9757 86.3645ZM98.4734 86.5566L98.5827 87.2592L98.89 87.2114L98.7807 86.5088L98.6715 85.8061L98.3641 85.8539L98.4734 86.5566ZM98.7807 86.5088L98.89 87.2114L99.1973 87.1636L99.0881 86.461L98.9788 85.7583L98.6715 85.8061L98.7807 86.5088ZM99.0881 86.461L99.1973 87.1636C99.2966 87.1482 99.3486 87.1614 99.3756 87.1724L99.6426 86.5133L99.9095 85.8542C99.607 85.7316 99.2893 85.71 98.9788 85.7583L99.0881 86.461ZM99.6426 86.5133L99.3756 87.1724L99.6228 87.2725L99.8898 86.6134L100.157 85.9543L99.9095 85.8542L99.6426 86.5133ZM99.8898 86.6134L99.6228 87.2725L99.87 87.3726L100.137 86.7135L100.404 86.0544L100.157 85.9543L99.8898 86.6134ZM100.137 86.7135L99.87 87.3726C99.9916 87.4218 100.109 87.4833 100.223 87.5576L100.612 86.9619L101 86.3661C100.811 86.2427 100.612 86.1386 100.404 86.0544L100.137 86.7135ZM100.612 86.9619L100.223 87.5576L100.451 87.7059L100.839 87.1102L101.227 86.5144L101 86.3661L100.612 86.9619ZM100.839 87.1102L100.451 87.7059L100.679 87.8542L101.067 87.2585L101.455 86.6627L101.227 86.5144L100.839 87.1102ZM101.067 87.2585L100.679 87.8542C100.85 87.966 101.026 88.0684 101.206 88.1615L101.532 87.5296L101.858 86.8977C101.721 86.8269 101.587 86.7487 101.455 86.6627L101.067 87.2585ZM101.532 87.5296L101.206 88.1615L101.444 88.2843L101.77 87.6524L102.096 87.0205L101.858 86.8977L101.532 87.5296ZM101.77 87.6524L101.444 88.2843L101.682 88.4071L102.008 87.7752L102.334 87.1433L102.096 87.0205L101.77 87.6524ZM102.008 87.7752L101.682 88.4071C101.896 88.5175 102.121 88.5987 102.357 88.6507L102.51 87.9562L102.663 87.2618C102.547 87.2361 102.438 87.1966 102.334 87.1433L102.008 87.7752ZM102.51 87.9562L102.357 88.6507L102.621 88.7089L102.774 88.0144L102.927 87.32L102.663 87.2618L102.51 87.9562ZM102.774 88.0144L102.621 88.7089L102.886 88.7671L103.039 88.0727L103.192 87.3782L102.927 87.32L102.774 88.0144ZM103.039 88.0727L102.886 88.7671C102.927 88.7762 102.969 88.7954 103.019 88.8431L103.51 88.329L104.001 87.8149C103.775 87.5985 103.503 87.4467 103.192 87.3782L103.039 88.0727ZM103.51 88.329L103.019 88.8431L103.226 89.0412L103.717 88.5271L104.209 88.013L104.001 87.8149L103.51 88.329ZM103.717 88.5271L103.226 89.0412L103.433 89.2393L103.925 88.7252L104.416 88.211L104.209 88.013L103.717 88.5271ZM103.925 88.7252L103.433 89.2393C103.627 89.4242 103.846 89.5742 104.09 89.6816L104.376 89.0307L104.663 88.3799C104.581 88.344 104.499 88.2903 104.416 88.211L103.925 88.7252ZM104.376 89.0307L104.09 89.6816L104.334 89.789L104.62 89.1382L104.907 88.4873L104.663 88.3799L104.376 89.0307ZM104.62 89.1382L104.334 89.789L104.578 89.8965L104.865 89.2457L105.151 88.5948L104.907 88.4873L104.62 89.1382ZM104.865 89.2457L104.578 89.8965C104.841 90.0124 105.121 90.0642 105.406 90.0608L105.398 89.3497L105.39 88.6387C105.29 88.6398 105.213 88.6222 105.151 88.5948L104.865 89.2457ZM105.398 89.3497L105.406 90.0608L105.696 90.0574L105.687 89.3463L105.679 88.6353L105.39 88.6387L105.398 89.3497ZM105.687 89.3463L105.696 90.0574L105.985 90.054L105.977 89.3429L105.968 88.6318L105.679 88.6353L105.687 89.3463ZM105.977 89.3429L105.985 90.054C105.987 90.054 105.983 90.0541 105.976 90.0526C105.968 90.0511 105.959 90.0483 105.949 90.044C105.94 90.0398 105.933 90.0352 105.929 90.0321C105.925 90.0291 105.925 90.0286 105.929 90.0331L106.463 89.5631L106.996 89.0931C106.733 88.7939 106.375 88.6271 105.968 88.6318L105.977 89.3429ZM106.463 89.5631L105.929 90.0331L106.126 90.2567L106.66 89.7867L107.193 89.3167L106.996 89.0931L106.463 89.5631ZM106.66 89.7867L106.126 90.2567L106.323 90.4803L106.857 90.0103L107.39 89.5403L107.193 89.3167L106.66 89.7867ZM106.857 90.0103L106.323 90.4803C106.466 90.6428 106.651 90.8274 106.868 90.9361L107.186 90.3003L107.505 89.6646C107.534 89.6794 107.536 89.6861 107.507 89.6607C107.481 89.6379 107.442 89.5996 107.39 89.5403L106.857 90.0103ZM107.186 90.3003L106.868 90.9361L107 91.0025L107.319 90.3668L107.637 89.731L107.505 89.6646L107.186 90.3003ZM107.319 90.3668L107 91.0025L107.133 91.069L107.451 90.4333L107.77 89.7975L107.637 89.731L107.319 90.3668ZM107.451 90.4333L107.133 91.069C107.223 91.1143 107.42 91.1999 107.665 91.1636C107.984 91.1163 108.19 90.8974 108.28 90.6761L107.621 90.408L106.963 90.14C106.99 90.0739 107.041 89.9833 107.135 89.9029C107.234 89.8191 107.348 89.7728 107.456 89.7568C107.644 89.7289 107.768 89.7965 107.77 89.7975L107.451 90.4333ZM107.621 90.408L108.28 90.6761L108.317 90.5844L107.659 90.3164L107 90.0483L106.963 90.14L107.621 90.408ZM107.659 90.3164L108.367 90.2586L108.349 90.0376L107.641 90.0953L106.932 90.153L106.95 90.3741L107.659 90.3164ZM107.641 90.0953L107.373 90.754L107.465 90.7917L107.733 90.133L108.001 89.4743L107.909 89.4366L107.641 90.0953Z" fill="#3A3A3A"/>
<path d="M32.7109 60.0887C32.7109 56.1613 35.8947 52.9775 39.822 52.9775H51.5554C55.4827 52.9775 58.6665 56.1613 58.6665 60.0887V67.9109C58.6665 71.8382 55.4827 75.022 51.5554 75.022H39.822C35.8947 75.022 32.7109 71.8382 32.7109 67.9109V60.0887Z" fill="#3A3A3A"/>
<path d="M40.3554 53.1631L40.1217 53.8347L40.3554 53.1631ZM40.622 53.2558L40.3884 53.9275L40.622 53.2558ZM41.1554 53.2218L40.8499 52.5796L41.1554 53.2218ZM44.3554 52.9048L44.1011 53.5689L44.3554 52.9048ZM44.622 53.0069L44.3678 53.671L44.622 53.0069ZM44.8887 53.109L45.143 52.4449L44.8887 53.109ZM45.422 53.1064L45.1621 52.4445L45.422 53.1064ZM45.9554 52.897L46.2153 53.5589L45.9554 52.897ZM46.4887 52.9067L46.2082 53.5602L46.4887 52.9067ZM47.022 53.1357L47.3026 52.4823L47.022 53.1357ZM47.5554 53.1215L47.2462 52.4811L47.5554 53.1215ZM47.8221 52.9927L47.5129 52.3523L47.8221 52.9927ZM48.0887 52.864L48.3979 53.5044L48.0887 52.864ZM48.622 52.8052L48.8024 52.1173L48.622 52.8052ZM49.1554 52.945L48.9751 53.6329L49.1554 52.945ZM50.222 53.2863L50.4505 52.6128L50.222 53.2863ZM50.7554 53.2374L50.4261 52.6071L50.7554 53.2374ZM51.2887 52.9588L51.618 53.589L51.2887 52.9588ZM51.8285 52.8292L51.8032 53.5399L51.8285 52.8292ZM52.8709 53.0624L52.3909 53.587L52.8709 53.0624ZM53.3168 53.4704L53.7968 52.9458L53.3168 53.4704ZM53.7938 53.7248L53.9321 53.0272L53.7938 53.7248ZM54.302 53.8256L54.1636 54.5231L54.302 53.8256ZM55.3185 54.1311L55.0929 54.8055L55.3185 54.1311ZM55.8044 54.3573L56.1744 53.7501L55.8044 54.3573ZM56.0362 54.4985L56.4062 53.8913L56.0362 54.4985ZM56.268 54.6398L55.898 55.247L56.268 54.6398ZM56.7058 54.9633L57.177 54.4307L56.7058 54.9633ZM56.912 55.1456L57.3831 54.613L56.912 55.1456ZM57.1181 55.328L56.6469 55.8606L57.1181 55.328ZM57.3631 55.8053L58.0681 55.7125L57.3631 55.8053ZM57.4408 56.3954L58.1458 56.3025L57.4408 56.3954ZM57.7091 56.8748L58.1546 56.3205L57.7091 56.8748ZM57.9385 57.0592L57.493 57.6135L57.9385 57.0592ZM58.1679 57.2436L57.7224 57.7979L58.1679 57.2436ZM58.3649 57.7163L59.0716 57.7958L58.3649 57.7163ZM58.3001 58.2928L57.5934 58.2133L58.3001 58.2928ZM58.4427 58.8264L59.0215 58.4133L58.4427 58.8264ZM58.7929 59.317L58.2141 59.7301L58.7929 59.317ZM58.8535 60.3792L58.1492 60.2804L58.8535 60.3792ZM58.8402 60.9181L58.1322 60.9844L58.8402 60.9181ZM58.8652 61.1848L59.5732 61.1185L58.8652 61.1848ZM58.8902 61.4514L59.5982 61.3852L58.8902 61.4514ZM58.9045 61.9848L58.1939 61.9564L58.9045 61.9848ZM58.8938 62.2514L58.1833 62.2231L58.8938 62.2514ZM58.8832 62.5181L59.5937 62.5465L58.8832 62.5181ZM58.863 63.0514L59.5737 63.0768L58.863 63.0514ZM58.844 63.5848L59.5547 63.6101L58.844 63.5848ZM58.6966 64.1181L58.065 63.7914L58.6966 64.1181ZM58.5586 64.3848L59.1902 64.7115L58.5586 64.3848ZM58.4666 65.1848L59.052 64.7811L58.4666 65.1848ZM58.8344 65.7181L58.249 66.1218L58.8344 65.7181ZM58.623 66.7848L59.2606 67.0998L58.623 66.7848ZM58.5586 67.3189L57.8689 67.4924L58.5586 67.3189ZM58.6931 67.8539L59.3828 67.6804L58.6931 67.8539ZM58.6775 68.3801L59.3547 68.5971L58.6775 68.3801ZM58.5117 68.8974L57.8345 68.6804L58.5117 68.8974ZM58.3265 69.3968L57.6721 69.1185L58.3265 69.3968ZM58.1217 69.8782L58.7761 70.1565L58.1217 69.8782ZM57.9265 70.3581L58.5895 70.6153L57.9265 70.3581ZM57.8337 70.5974L57.1707 70.3402L57.8337 70.5974ZM57.7409 70.8366L57.078 70.5794L57.7409 70.8366ZM57.5647 71.3323L56.8885 71.1122L57.5647 71.3323ZM57.3977 71.8453L58.0738 72.0654L57.3977 71.8453ZM57.0788 72.2434L56.7123 71.634L57.0788 72.2434ZM56.6081 72.5265L56.9747 73.1359L56.6081 72.5265ZM56.1761 72.8276L56.624 73.3799L56.1761 72.8276ZM55.9794 72.9871L56.4274 73.5394L55.9794 72.9871ZM55.7828 73.1466L55.3348 72.5943L55.7828 73.1466ZM55.2923 73.8229L54.6741 73.4715L55.2923 73.8229ZM55.1455 74.0813L55.7637 74.4327L55.1455 74.0813ZM54.7156 74.3572L54.7593 75.0669L54.7156 74.3572ZM54.1497 74.392L54.106 73.6823L54.1497 74.392ZM53.6427 74.6076L54.1138 75.1403L53.6427 74.6076ZM53.4186 74.8057L52.9476 74.273L53.4186 74.8057ZM53.1946 75.0039L53.6657 75.5366L53.1946 75.0039ZM52.6952 75.2594L52.5502 74.5632L52.6952 75.2594ZM52.42 75.3168L52.565 76.0129L52.42 75.3168ZM52.1447 75.3741L52.2898 76.0703L52.1447 75.3741ZM51.5984 75.3497L51.8039 74.6689L51.5984 75.3497ZM51.3274 75.2679L51.1218 75.9487L51.3274 75.2679ZM51.0564 75.1861L51.2619 74.5053L51.0564 75.1861ZM50.5187 75.045L50.3644 75.7391L50.5187 75.045ZM49.9854 74.9264L50.1397 74.2322L49.9854 74.9264ZM49.452 74.9473L49.2472 74.2663L49.452 74.9473ZM49.1854 75.0275L49.3902 75.7085L49.1854 75.0275ZM48.9187 75.1077L48.7139 74.4268L48.9187 75.1077ZM48.3854 75.1749L48.3507 75.8852L48.3854 75.1749ZM48.1187 75.1619L48.1534 74.4516L48.1187 75.1619ZM47.852 75.1489L47.8867 74.4386L47.852 75.1489ZM47.3187 75.1469L47.3481 75.8574L47.3187 75.1469ZM46.7854 75.169L46.7559 74.4585L46.7854 75.169ZM46.252 75.1892L46.2275 74.4786L46.252 75.1892ZM45.7187 75.2077L45.7433 75.9184L45.7187 75.2077ZM44.652 75.1046L44.5532 75.8089L44.652 75.1046ZM43.5854 74.8694L43.4146 75.5597L43.5854 74.8694ZM43.052 74.9527L42.7047 74.3322L43.052 74.9527ZM42.5187 75.2512L42.866 75.8717L42.5187 75.2512ZM41.9854 75.4046L41.9963 76.1156L41.9854 75.4046ZM41.452 75.4128L41.4411 74.7018L41.452 75.4128ZM40.9187 75.3197L41.1621 74.6516L40.9187 75.3197ZM40.3854 75.1254L40.142 75.7936L40.3854 75.1254ZM39.8636 74.9114L39.5673 75.5578L39.8636 74.9114ZM39.3535 74.6775L39.6499 74.0311L39.3535 74.6775ZM38.8233 74.6243L38.6627 73.9316L38.8233 74.6243ZM38.273 74.7519L38.1124 74.0591L38.273 74.7519ZM37.7121 74.8041L37.6834 75.5146L37.7121 74.8041ZM37.1407 74.781L37.1695 74.0704L37.1407 74.781ZM36.6502 74.5704L37.1458 74.0604L36.6502 74.5704ZM36.2406 74.1724L35.7451 74.6825L36.2406 74.1724ZM35.8425 73.7887L36.3339 73.2746L35.8425 73.7887ZM35.4559 73.4191L34.9645 73.9332L35.4559 73.4191ZM35.0346 73.0853L34.6454 73.6804L35.0346 73.0853ZM34.8067 72.9361L34.4174 73.5312L34.8067 72.9361ZM34.5787 72.787L34.968 72.1919L34.5787 72.787ZM34.2993 72.3509L34.9992 72.2254L34.2993 72.3509ZM34.2478 72.0639L33.5479 72.1894L34.2478 72.0639ZM34.1964 71.7769L34.8963 71.6514L34.1964 71.7769ZM33.9706 71.2926L33.4378 71.7635L33.9706 71.2926ZM33.6219 70.8981L33.0891 71.369L33.6219 70.8981ZM33.4053 70.4431L34.1071 70.3282L33.4053 70.4431ZM33.3631 70.1854L34.0649 70.0705L33.3631 70.1854ZM33.3209 69.9277L32.6192 70.0426L33.3209 69.9277ZM33.1135 69.4338L33.6961 69.0261L33.1135 69.4338ZM32.783 68.9616L32.2004 69.3693L32.783 68.9616ZM32.7454 67.9149L32.0429 67.8044L32.7454 67.9149ZM32.851 67.3781L33.543 67.5419L32.851 67.3781ZM33.0154 65.7781L32.3047 65.8003L33.0154 65.7781ZM32.9214 64.9781L32.2193 65.0909L32.9214 64.9781ZM32.8225 64.1781L32.1123 64.2131L32.8225 64.1781ZM32.4706 60.4447L31.7736 60.5857L32.4706 60.4447ZM32.5136 58.8073L33.1324 59.1577L32.5136 58.8073ZM32.6558 58.5562L32.037 58.2058L32.6558 58.5562ZM32.798 58.3052L33.4167 58.6556L32.798 58.3052ZM33.0257 57.7982L32.3513 57.5727L33.0257 57.7982ZM33.1969 57.2864L32.5225 57.0609L33.1969 57.2864ZM33.5046 56.2062L32.8179 56.0212L33.5046 56.2062ZM34.7711 54.7465L34.1973 54.3266L34.7711 54.7465ZM35.6622 54.1425L35.4771 53.4559L35.6622 54.1425ZM35.942 54.067L35.7568 53.3805L35.942 54.067ZM37.4392 53.4342L36.9455 52.9224L37.4392 53.4342ZM37.6563 53.2247L37.1626 52.713L37.6563 53.2247ZM37.8734 53.0153L38.3671 53.5271L37.8734 53.0153ZM38.666 52.9804L38.4597 53.661L38.666 52.9804ZM39.6769 53.1559L39.6755 53.867L39.6769 53.1559ZM40.0887 53.0703L40.3224 52.3987L40.0887 53.0703ZM40.3554 53.1631L40.1217 53.8347L40.3884 53.9275L40.622 53.2558L40.8557 52.5842L40.589 52.4914L40.3554 53.1631ZM40.622 53.2558L40.3884 53.9275C40.7516 54.0538 41.1229 54.0247 41.4609 53.8639L41.1554 53.2218L40.8499 52.5796C40.8415 52.5836 40.8372 52.5848 40.8368 52.5849C40.8366 52.585 40.839 52.5843 40.8434 52.584C40.8478 52.5838 40.8521 52.584 40.8553 52.5844C40.8585 52.5849 40.8588 52.5853 40.8557 52.5842L40.622 53.2558ZM41.1554 53.2218L41.4609 53.8639L41.7275 53.7371L41.422 53.0949L41.1166 52.4527L40.8499 52.5796L41.1554 53.2218ZM41.422 53.0949L41.7275 53.7371L41.9942 53.6102L41.6887 52.968L41.3832 52.3259L41.1166 52.4527L41.422 53.0949ZM41.6887 52.968L41.9942 53.6102C42.0804 53.5692 42.1457 53.5591 42.198 53.5609L42.222 52.8502L42.2461 52.1395C41.9428 52.1293 41.6526 52.1977 41.3832 52.3259L41.6887 52.968ZM42.222 52.8502L42.198 53.5609L42.4647 53.5699L42.4887 52.8592L42.5127 52.1485L42.2461 52.1395L42.222 52.8502ZM42.4887 52.8592L42.4647 53.5699L42.7314 53.5789L42.7554 52.8682L42.7794 52.1575L42.5127 52.1485L42.4887 52.8592ZM42.7554 52.8682L42.7314 53.5789C42.9337 53.5858 43.136 53.5821 43.3382 53.568L43.2887 52.8586L43.2392 52.1492C43.0858 52.1599 42.9326 52.1627 42.7794 52.1575L42.7554 52.8682ZM43.2887 52.8586L43.3382 53.568L43.6049 53.5494L43.5554 52.84L43.5059 52.1306L43.2392 52.1492L43.2887 52.8586ZM43.5554 52.84L43.6049 53.5494L43.8716 53.5308L43.822 52.8214L43.7725 52.112L43.5059 52.1306L43.5554 52.84ZM43.822 52.8214L43.8716 53.5308C43.9391 53.526 44.0134 53.5354 44.1011 53.5689L44.3554 52.9048L44.6096 52.2407C44.3418 52.1382 44.0606 52.0919 43.7725 52.112L43.822 52.8214ZM44.3554 52.9048L44.1011 53.5689L44.3678 53.671L44.622 53.0069L44.8763 52.3428L44.6096 52.2407L44.3554 52.9048ZM44.622 53.0069L44.3678 53.671L44.6345 53.7731L44.8887 53.109L45.143 52.4449L44.8763 52.3428L44.622 53.0069ZM44.8887 53.109L44.6345 53.7731C44.9785 53.9048 45.3397 53.9027 45.682 53.7683L45.422 53.1064L45.1621 52.4445C45.1549 52.4473 45.151 52.4482 45.1501 52.4484C45.1493 52.4485 45.1501 52.4483 45.1519 52.4483C45.1537 52.4483 45.1546 52.4485 45.1541 52.4484C45.1534 52.4483 45.1498 52.4475 45.143 52.4449L44.8887 53.109ZM45.422 53.1064L45.682 53.7683L45.9486 53.6636L45.6887 53.0017L45.4288 52.3398L45.1621 52.4445L45.422 53.1064ZM45.6887 53.0017L45.9486 53.6636L46.2153 53.5589L45.9554 52.897L45.6955 52.235L45.4288 52.3398L45.6887 53.0017ZM45.9554 52.897L46.2153 53.5589C46.2203 53.5569 46.2216 53.5569 46.2195 53.5573C46.2174 53.5577 46.2136 53.5581 46.209 53.558C46.2044 53.5579 46.2012 53.5574 46.2001 53.5571C46.199 53.5569 46.2016 53.5574 46.2082 53.5602L46.4887 52.9067L46.7693 52.2533C46.422 52.1042 46.05 52.0958 45.6955 52.235L45.9554 52.897ZM46.4887 52.9067L46.2082 53.5602L46.4748 53.6747L46.7554 53.0212L47.0359 52.3678L46.7693 52.2533L46.4887 52.9067ZM46.7554 53.0212L46.4748 53.6747L46.7415 53.7891L47.022 53.1357L47.3026 52.4823L47.0359 52.3678L46.7554 53.0212ZM47.022 53.1357L46.7415 53.7891C47.1128 53.9486 47.5057 53.9351 47.8645 53.7619L47.5554 53.1215L47.2462 52.4811C47.2414 52.4834 47.2416 52.4828 47.2465 52.4815C47.2517 52.4802 47.2597 52.4788 47.2697 52.4785C47.2798 52.4783 47.2888 52.4792 47.2957 52.4806C47.3025 52.482 47.3049 52.4833 47.3026 52.4823L47.022 53.1357ZM47.5554 53.1215L47.8645 53.7619L48.1312 53.6331L47.8221 52.9927L47.5129 52.3523L47.2462 52.4811L47.5554 53.1215ZM47.8221 52.9927L48.1312 53.6331L48.3979 53.5044L48.0887 52.864L47.7796 52.2236L47.5129 52.3523L47.8221 52.9927ZM48.0887 52.864L48.3979 53.5044C48.4215 53.493 48.4326 53.4918 48.4334 53.4918C48.4342 53.4917 48.4345 53.4917 48.4349 53.4917C48.4353 53.4917 48.4375 53.4919 48.4417 53.493L48.622 52.8052L48.8024 52.1173C48.4483 52.0245 48.0975 52.0701 47.7796 52.2236L48.0887 52.864ZM48.622 52.8052L48.4417 53.493L48.7084 53.5629L48.8887 52.8751L49.069 52.1872L48.8024 52.1173L48.622 52.8052ZM48.8887 52.8751L48.7084 53.5629L48.9751 53.6329L49.1554 52.945L49.3357 52.2571L49.069 52.1872L48.8887 52.8751ZM49.1554 52.945L48.9751 53.6329C49.1363 53.6751 49.298 53.7237 49.4603 53.7788L49.6887 53.1053L49.9172 52.4319C49.7238 52.3663 49.53 52.308 49.3357 52.2571L49.1554 52.945ZM49.6887 53.1053L49.4603 53.7788L49.7269 53.8692L49.9554 53.1958L50.1838 52.5224L49.9172 52.4319L49.6887 53.1053ZM49.9554 53.1958L49.7269 53.8692L49.9936 53.9597L50.222 53.2863L50.4505 52.6128L50.1838 52.5224L49.9554 53.1958ZM50.222 53.2863L49.9936 53.9597C50.369 54.087 50.7478 54.0437 51.0847 53.8677L50.7554 53.2374L50.4261 52.6071C50.4173 52.6117 50.4131 52.613 50.4133 52.6129C50.4138 52.6128 50.4175 52.6117 50.4238 52.6111C50.4303 52.6105 50.4369 52.6107 50.4428 52.6114C50.4485 52.6121 50.4513 52.6131 50.4505 52.6128L50.222 53.2863ZM50.7554 53.2374L51.0847 53.8677L51.3513 53.7284L51.022 53.0981L50.6928 52.4678L50.4261 52.6071L50.7554 53.2374ZM51.022 53.0981L51.3513 53.7284L51.618 53.589L51.2887 52.9588L50.9594 52.3285L50.6928 52.4678L51.022 53.0981ZM51.2887 52.9588L51.618 53.589C51.6978 53.5473 51.7564 53.5382 51.8032 53.5399L51.8285 52.8292L51.8539 52.1185C51.5365 52.1072 51.2352 52.1844 50.9594 52.3285L51.2887 52.9588ZM51.8285 52.8292L51.8032 53.5399L52.0764 53.5496L52.1017 52.8389L52.127 52.1283L51.8539 52.1185L51.8285 52.8292ZM52.1017 52.8389L52.0764 53.5496L52.3495 53.5593L52.3749 52.8487L52.4002 52.138L52.127 52.1283L52.1017 52.8389ZM52.3749 52.8487L52.3495 53.5593C52.351 53.5594 52.352 53.5595 52.3524 53.5595C52.3527 53.5596 52.3528 53.5596 52.3529 53.5596C52.353 53.5596 52.353 53.5596 52.353 53.5596C52.353 53.5596 52.353 53.5596 52.353 53.5596C52.353 53.5596 52.353 53.5596 52.353 53.5596C52.353 53.5596 52.353 53.5596 52.353 53.5596C52.353 53.5596 52.353 53.5596 52.353 53.5596C52.3531 53.5597 52.3534 53.5598 52.3541 53.5601C52.3557 53.5608 52.3683 53.5663 52.3909 53.587L52.8709 53.0624L53.351 52.5378C53.0918 52.3006 52.7693 52.1512 52.4002 52.138L52.3749 52.8487ZM52.8709 53.0624L52.3909 53.587L52.6138 53.791L53.0938 53.2664L53.5739 52.7418L53.351 52.5378L52.8709 53.0624ZM53.0938 53.2664L52.6138 53.791L52.8367 53.995L53.3168 53.4704L53.7968 52.9458L53.5739 52.7418L53.0938 53.2664ZM53.3168 53.4704L52.8367 53.995C53.0651 54.2039 53.3385 54.3594 53.6554 54.4223L53.7938 53.7248L53.9321 53.0272C53.9102 53.0229 53.8657 53.0088 53.7968 52.9458L53.3168 53.4704ZM53.7938 53.7248L53.6554 54.4223L53.9095 54.4727L54.0479 53.7752L54.1862 53.0776L53.9321 53.0272L53.7938 53.7248ZM54.0479 53.7752L53.9095 54.4727L54.1636 54.5231L54.302 53.8256L54.4403 53.1281L54.1862 53.0776L54.0479 53.7752ZM54.302 53.8256L54.1636 54.5231C54.3024 54.5506 54.4427 54.5879 54.5846 54.6354L54.8102 53.961L55.0358 53.2867C54.8388 53.2207 54.6403 53.1677 54.4403 53.1281L54.302 53.8256ZM54.8102 53.961L54.5846 54.6354L54.8387 54.7204L55.0644 54.0461L55.29 53.3717L55.0358 53.2867L54.8102 53.961ZM55.0644 54.0461L54.8387 54.7204L55.0929 54.8055L55.3185 54.1311L55.5441 53.4567L55.29 53.3717L55.0644 54.0461ZM55.3185 54.1311L55.0929 54.8055C55.2112 54.845 55.3248 54.8978 55.4344 54.9646L55.8044 54.3573L56.1744 53.7501C55.975 53.6286 55.7647 53.5305 55.5441 53.4567L55.3185 54.1311ZM55.8044 54.3573L55.4344 54.9646L55.6662 55.1058L56.0362 54.4985L56.4062 53.8913L56.1744 53.7501L55.8044 54.3573ZM56.0362 54.4985L55.6662 55.1058L55.898 55.247L56.268 54.6398L56.6379 54.0325L56.4062 53.8913L56.0362 54.4985ZM56.268 54.6398L55.898 55.247C56.0161 55.319 56.1283 55.4018 56.2347 55.4959L56.7058 54.9633L57.177 54.4307C57.0086 54.2817 56.8288 54.1488 56.6379 54.0325L56.268 54.6398ZM56.7058 54.9633L56.2347 55.4959L56.4408 55.6783L56.912 55.1456L57.3831 54.613L57.177 54.4307L56.7058 54.9633ZM56.912 55.1456L56.4408 55.6783L56.6469 55.8606L57.1181 55.328L57.5893 54.7953L57.3831 54.613L56.912 55.1456ZM57.1181 55.328L56.6469 55.8606C56.6496 55.863 56.6504 55.864 56.6501 55.8637C56.6499 55.8634 56.6497 55.863 56.6497 55.8632C56.6499 55.8634 56.651 55.8656 56.6525 55.8706C56.6541 55.8758 56.6563 55.8847 56.6581 55.8982L57.3631 55.8053L58.0681 55.7125C58.0218 55.3607 57.8659 55.0401 57.5893 54.7953L57.1181 55.328ZM57.3631 55.8053L56.6581 55.8982L56.6969 56.1932L57.4019 56.1003L58.107 56.0075L58.0681 55.7125L57.3631 55.8053ZM57.4019 56.1003L56.6969 56.1932L56.7358 56.4882L57.4408 56.3954L58.1458 56.3025L58.107 56.0075L57.4019 56.1003ZM57.4408 56.3954L56.7358 56.4882C56.7853 56.8642 56.9662 57.1901 57.2636 57.4291L57.7091 56.8748L58.1546 56.3205C58.1487 56.3158 58.1464 56.3131 58.1462 56.3129C58.146 56.3127 58.1468 56.3136 58.1478 56.3155C58.1489 56.3173 58.149 56.3181 58.1487 56.3171C58.1483 56.3159 58.147 56.3114 58.1458 56.3025L57.4408 56.3954ZM57.7091 56.8748L57.2636 57.4291L57.493 57.6135L57.9385 57.0592L58.384 56.5049L58.1546 56.3205L57.7091 56.8748ZM57.9385 57.0592L57.493 57.6135L57.7224 57.7979L58.1679 57.2436L58.6134 56.6894L58.384 56.5049L57.9385 57.0592ZM58.1679 57.2436L57.7224 57.7979C57.7202 57.7961 57.6948 57.774 57.6755 57.7276C57.656 57.6807 57.6574 57.6445 57.6583 57.6368L58.3649 57.7163L59.0716 57.7958C59.1209 57.3573 58.9528 56.9622 58.6134 56.6894L58.1679 57.2436ZM58.3649 57.7163L57.6583 57.6368L57.6258 57.9251L58.3325 58.0046L59.0392 58.0841L59.0716 57.7958L58.3649 57.7163ZM58.3325 58.0046L57.6258 57.9251L57.5934 58.2133L58.3001 58.2928L59.0067 58.3723L59.0392 58.0841L58.3325 58.0046ZM58.3001 58.2928L57.5934 58.2133C57.5514 58.5872 57.6496 58.9393 57.8639 59.2395L58.4427 58.8264L59.0215 58.4133C59.0145 58.4035 59.0108 58.3966 59.0089 58.3927C59.0071 58.3889 59.0066 58.387 59.0065 58.3867C59.0064 58.3864 59.0063 58.3859 59.0062 58.3846C59.0061 58.3832 59.0059 58.3793 59.0067 58.3723L58.3001 58.2928ZM58.4427 58.8264L57.8639 59.2395L58.039 59.4848L58.6178 59.0717L59.1966 58.6586L59.0215 58.4133L58.4427 58.8264ZM58.6178 59.0717L58.039 59.4848L58.2141 59.7301L58.7929 59.317L59.3717 58.9039L59.1966 58.6586L58.6178 59.0717ZM58.7929 59.317L58.2141 59.7301C58.2216 59.7407 58.2253 59.7476 58.2268 59.7507C58.2282 59.7537 58.2279 59.7537 58.2272 59.7509C58.2264 59.7481 58.2258 59.7445 58.2256 59.7407C58.2254 59.7369 58.2257 59.7351 58.2256 59.7359L58.9298 59.8346L59.634 59.9333C59.6873 59.5534 59.5831 59.2002 59.3717 58.9039L58.7929 59.317ZM58.9298 59.8346L58.2256 59.7359L58.1874 60.0082L58.8916 60.1069L59.5958 60.2056L59.634 59.9333L58.9298 59.8346ZM58.8916 60.1069L58.1874 60.0082L58.1492 60.2804L58.8535 60.3792L59.5577 60.4779L59.5958 60.2056L58.8916 60.1069ZM58.8535 60.3792L58.1492 60.2804C58.1163 60.5152 58.1103 60.7502 58.1322 60.9844L58.8402 60.9181L59.5483 60.8518C59.5369 60.7305 59.5397 60.6062 59.5577 60.4779L58.8535 60.3792ZM58.8402 60.9181L58.1322 60.9844L58.1572 61.251L58.8652 61.1848L59.5732 61.1185L59.5483 60.8518L58.8402 60.9181ZM58.8652 61.1848L58.1572 61.251L58.1821 61.5177L58.8902 61.4514L59.5982 61.3852L59.5732 61.1185L58.8652 61.1848ZM58.8902 61.4514L58.1821 61.5177C58.1958 61.6641 58.1998 61.8103 58.1939 61.9564L58.9045 61.9848L59.615 62.0131C59.6234 61.8037 59.6177 61.5943 59.5982 61.3852L58.8902 61.4514ZM58.9045 61.9848L58.1939 61.9564L58.1833 62.2231L58.8938 62.2514L59.6044 62.2798L59.615 62.0131L58.9045 61.9848ZM58.8938 62.2514L58.1833 62.2231L58.1726 62.4897L58.8832 62.5181L59.5937 62.5465L59.6044 62.2798L58.8938 62.2514ZM58.8832 62.5181L58.1726 62.4897C58.1655 62.6685 58.1587 62.8473 58.1524 63.0261L58.863 63.0514L59.5737 63.0768C59.58 62.9 59.5867 62.7232 59.5937 62.5465L58.8832 62.5181ZM58.863 63.0514L58.1524 63.0261L58.1429 63.2928L58.8535 63.3181L59.5642 63.3434L59.5737 63.0768L58.863 63.0514ZM58.8535 63.3181L58.1429 63.2928L58.1334 63.5594L58.844 63.5848L59.5547 63.6101L59.5642 63.3434L58.8535 63.3181ZM58.844 63.5848L58.1334 63.5594C58.1312 63.6197 58.1147 63.6952 58.065 63.7914L58.6966 64.1181L59.3282 64.4448C59.4624 64.1854 59.5441 63.9054 59.5547 63.6101L58.844 63.5848ZM58.6966 64.1181L58.065 63.7914L57.927 64.058L58.5586 64.3848L59.1902 64.7115L59.3282 64.4448L58.6966 64.1181ZM58.5586 64.3848L57.927 64.058L57.7891 64.3247L58.4207 64.6514L59.0523 64.9782L59.1902 64.7115L58.5586 64.3848ZM58.4207 64.6514L57.7891 64.3247C57.6891 64.518 57.6341 64.7405 57.6547 64.9791C57.675 65.2144 57.7645 65.4193 57.8812 65.5885L58.4666 65.1848L59.052 64.7811C59.0461 64.7725 59.0667 64.7996 59.0717 64.8571C59.0769 64.9179 59.0603 64.9626 59.0523 64.9782L58.4207 64.6514ZM58.4666 65.1848L57.8812 65.5885L58.0651 65.8551L58.6505 65.4514L59.2359 65.0477L59.052 64.7811L58.4666 65.1848ZM58.6505 65.4514L58.0651 65.8551L58.249 66.1218L58.8344 65.7181L59.4198 65.3144L59.2359 65.0477L58.6505 65.4514ZM58.8344 65.7181L58.249 66.1218C58.256 66.132 58.2369 66.1079 58.2316 66.054C58.226 65.9965 58.2408 65.953 58.249 65.9364L58.8865 66.2514L59.5241 66.5664C59.7381 66.1332 59.6729 65.6814 59.4198 65.3144L58.8344 65.7181ZM58.8865 66.2514L58.249 65.9364L58.1172 66.2031L58.7548 66.5181L59.3923 66.8331L59.5241 66.5664L58.8865 66.2514ZM58.7548 66.5181L58.1172 66.2031L57.9855 66.4698L58.623 66.7848L59.2606 67.0998L59.3923 66.8331L58.7548 66.5181ZM58.623 66.7848L57.9855 66.4698C57.8291 66.7862 57.7795 67.1369 57.8689 67.4924L58.5586 67.3189L59.2482 67.1454C59.2471 67.1413 59.247 67.1392 59.2469 67.1387C59.2469 67.1383 59.2469 67.1378 59.247 67.1368C59.2472 67.1357 59.2486 67.1241 59.2606 67.0998L58.623 66.7848ZM58.5586 67.3189L57.8689 67.4924L57.9362 67.7599L58.6258 67.5864L59.3155 67.4129L59.2482 67.1454L58.5586 67.3189ZM58.6258 67.5864L57.9362 67.7599L58.0035 68.0274L58.6931 67.8539L59.3828 67.6804L59.3155 67.4129L58.6258 67.5864ZM58.6931 67.8539L58.0035 68.0274C58.0165 68.079 58.0144 68.1191 58.0003 68.163L58.6775 68.3801L59.3547 68.5971C59.4512 68.2961 59.4595 67.9854 59.3828 67.6804L58.6931 67.8539ZM58.6775 68.3801L58.0003 68.163L57.9174 68.4217L58.5946 68.6387L59.2718 68.8557L59.3547 68.5971L58.6775 68.3801ZM58.5946 68.6387L57.9174 68.4217L57.8345 68.6804L58.5117 68.8974L59.1889 69.1144L59.2718 68.8557L58.5946 68.6387ZM58.5117 68.8974L57.8345 68.6804C57.7857 68.8329 57.7315 68.9788 57.6721 69.1185L58.3265 69.3968L58.9808 69.6751C59.0579 69.4938 59.1272 69.3069 59.1889 69.1144L58.5117 68.8974ZM58.3265 69.3968L57.6721 69.1185L57.5697 69.3592L58.2241 69.6375L58.8785 69.9158L58.9808 69.6751L58.3265 69.3968ZM58.2241 69.6375L57.5697 69.3592L57.4673 69.5999L58.1217 69.8782L58.7761 70.1565L58.8785 69.9158L58.2241 69.6375ZM58.1217 69.8782L57.4673 69.5999C57.3961 69.7672 57.3282 69.9342 57.2635 70.101L57.9265 70.3581L58.5895 70.6153C58.6486 70.463 58.7107 70.3101 58.7761 70.1565L58.1217 69.8782ZM57.9265 70.3581L57.2635 70.101L57.1707 70.3402L57.8337 70.5974L58.4967 70.8545L58.5895 70.6153L57.9265 70.3581ZM57.8337 70.5974L57.1707 70.3402L57.078 70.5794L57.7409 70.8366L58.4039 71.0937L58.4967 70.8545L57.8337 70.5974ZM57.7409 70.8366L57.078 70.5794C57.0111 70.7517 56.948 70.9294 56.8885 71.1122L57.5647 71.3323L58.2408 71.5524C58.2927 71.3933 58.347 71.2404 58.4039 71.0937L57.7409 70.8366ZM57.5647 71.3323L56.8885 71.1122L56.805 71.3687L57.4812 71.5888L58.1573 71.8089L58.2408 71.5524L57.5647 71.3323ZM57.4812 71.5888L56.805 71.3687L56.7215 71.6252L57.3977 71.8453L58.0738 72.0654L58.1573 71.8089L57.4812 71.5888ZM57.3977 71.8453L56.7215 71.6252C56.7198 71.6302 56.7188 71.6321 56.719 71.6318C56.7192 71.6314 56.7199 71.6301 56.7212 71.6285C56.7224 71.627 56.7231 71.6264 56.7225 71.627C56.7217 71.6276 56.7187 71.6301 56.7123 71.634L57.0788 72.2434L57.4454 72.8527C57.746 72.6719 57.9641 72.4024 58.0738 72.0654L57.3977 71.8453ZM57.0788 72.2434L56.7123 71.634L56.4769 71.7756L56.8435 72.3849L57.21 72.9943L57.4454 72.8527L57.0788 72.2434ZM56.8435 72.3849L56.4769 71.7756L56.2416 71.9171L56.6081 72.5265L56.9747 73.1359L57.21 72.9943L56.8435 72.3849ZM56.6081 72.5265L56.2416 71.9171C56.0586 72.0272 55.8871 72.1464 55.7282 72.2753L56.1761 72.8276L56.624 73.3799C56.7273 73.2961 56.8438 73.2146 56.9747 73.1359L56.6081 72.5265ZM56.1761 72.8276L55.7282 72.2753L55.5315 72.4348L55.9794 72.9871L56.4274 73.5394L56.624 73.3799L56.1761 72.8276ZM55.9794 72.9871L55.5315 72.4348L55.3348 72.5943L55.7828 73.1466L56.2307 73.6989L56.4274 73.5394L55.9794 72.9871ZM55.7828 73.1466L55.3348 72.5943C55.1241 72.7652 54.9552 72.977 54.821 73.2131L55.4392 73.5645L56.0574 73.9159C56.1191 73.8075 56.1792 73.7407 56.2307 73.6989L55.7828 73.1466ZM55.4392 73.5645L54.821 73.2131L54.6741 73.4715L55.2923 73.8229L55.9106 74.1743L56.0574 73.9159L55.4392 73.5645ZM55.2923 73.8229L54.6741 73.4715L54.5272 73.73L55.1455 74.0813L55.7637 74.4327L55.9106 74.1743L55.2923 73.8229ZM55.1455 74.0813L54.5272 73.73C54.5258 73.7324 54.5405 73.7067 54.5805 73.681C54.6219 73.6545 54.6588 73.6482 54.6719 73.6474L54.7156 74.3572L54.7593 75.0669C55.2013 75.0397 55.554 74.8017 55.7637 74.4327L55.1455 74.0813ZM54.7156 74.3572L54.6719 73.6474L54.389 73.6648L54.4327 74.3746L54.4764 75.0844L54.7593 75.0669L54.7156 74.3572ZM54.4327 74.3746L54.389 73.6648L54.106 73.6823L54.1497 74.392L54.1934 75.1018L54.4764 75.0844L54.4327 74.3746ZM54.1497 74.392L54.106 73.6823C53.7501 73.7042 53.4327 73.844 53.1716 74.0749L53.6427 74.6076L54.1138 75.1403C54.1514 75.107 54.1721 75.1031 54.1934 75.1018L54.1497 74.392ZM53.6427 74.6076L53.1716 74.0749L52.9476 74.273L53.4186 74.8057L53.8897 75.3384L54.1138 75.1403L53.6427 74.6076ZM53.4186 74.8057L52.9476 74.273L52.7235 74.4712L53.1946 75.0039L53.6657 75.5366L53.8897 75.3384L53.4186 74.8057ZM53.1946 75.0039L52.7235 74.4712C52.6607 74.5268 52.6049 74.5518 52.5502 74.5632L52.6952 75.2594L52.8403 75.9555C53.1526 75.8904 53.4298 75.7452 53.6657 75.5366L53.1946 75.0039ZM52.6952 75.2594L52.5502 74.5632L52.2749 74.6206L52.42 75.3168L52.565 76.0129L52.8403 75.9555L52.6952 75.2594ZM52.42 75.3168L52.2749 74.6206L51.9996 74.678L52.1447 75.3741L52.2898 76.0703L52.565 76.0129L52.42 75.3168ZM52.1447 75.3741L51.9996 74.678C51.9332 74.6918 51.8716 74.6894 51.8039 74.6689L51.5984 75.3497L51.3928 76.0305C51.6865 76.1191 51.9891 76.1329 52.2898 76.0703L52.1447 75.3741ZM51.5984 75.3497L51.8039 74.6689L51.5329 74.5871L51.3274 75.2679L51.1218 75.9487L51.3928 76.0305L51.5984 75.3497ZM51.3274 75.2679L51.5329 74.5871L51.2619 74.5053L51.0564 75.1861L50.8508 75.8668L51.1218 75.9487L51.3274 75.2679ZM51.0564 75.1861L51.2619 74.5053C51.0649 74.4459 50.8686 74.3943 50.673 74.3508L50.5187 75.045L50.3644 75.7391C50.5243 75.7747 50.6865 75.8172 50.8508 75.8668L51.0564 75.1861ZM50.5187 75.045L50.673 74.3508L50.4064 74.2915L50.252 74.9857L50.0977 75.6798L50.3644 75.7391L50.5187 75.045ZM50.252 74.9857L50.4064 74.2915L50.1397 74.2322L49.9854 74.9264L49.831 75.6206L50.0977 75.6798L50.252 74.9857ZM49.9854 74.9264L50.1397 74.2322C49.8407 74.1658 49.5392 74.1785 49.2472 74.2663L49.452 74.9473L49.6569 75.6283C49.7204 75.6092 49.7745 75.608 49.831 75.6206L49.9854 74.9264ZM49.452 74.9473L49.2472 74.2663L48.9805 74.3466L49.1854 75.0275L49.3902 75.7085L49.6569 75.6283L49.452 74.9473ZM49.1854 75.0275L48.9805 74.3466L48.7139 74.4268L48.9187 75.1077L49.1235 75.7887L49.3902 75.7085L49.1854 75.0275ZM48.9187 75.1077L48.7139 74.4268C48.6103 74.4579 48.5135 74.4692 48.4201 74.4647L48.3854 75.1749L48.3507 75.8852C48.6128 75.898 48.8715 75.8645 49.1235 75.7887L48.9187 75.1077ZM48.3854 75.1749L48.4201 74.4647L48.1534 74.4516L48.1187 75.1619L48.084 75.8722L48.3507 75.8852L48.3854 75.1749ZM48.1187 75.1619L48.1534 74.4516L47.8867 74.4386L47.852 75.1489L47.8173 75.8591L48.084 75.8722L48.1187 75.1619ZM47.852 75.1489L47.8867 74.4386C47.6876 74.4289 47.4884 74.4281 47.2893 74.4364L47.3187 75.1469L47.3481 75.8574C47.5045 75.8509 47.6609 75.8515 47.8173 75.8591L47.852 75.1489ZM47.3187 75.1469L47.2893 74.4364L47.0226 74.4474L47.052 75.1579L47.0815 75.8684L47.3481 75.8574L47.3187 75.1469ZM47.052 75.1579L47.0226 74.4474L46.7559 74.4585L46.7854 75.169L46.8148 75.8795L47.0815 75.8684L47.052 75.1579ZM46.7854 75.169L46.7559 74.4585C46.5798 74.4658 46.4036 74.4725 46.2275 74.4786L46.252 75.1892L46.2766 75.8999C46.456 75.8937 46.6354 75.8869 46.8148 75.8795L46.7854 75.169ZM46.252 75.1892L46.2275 74.4786L45.9608 74.4878L45.9854 75.1985L46.0099 75.9091L46.2766 75.8999L46.252 75.1892ZM45.9854 75.1985L45.9608 74.4878L45.6941 74.497L45.7187 75.2077L45.7433 75.9184L46.0099 75.9091L45.9854 75.1985ZM45.7187 75.2077L45.6941 74.497C45.558 74.5017 45.4215 74.4945 45.2842 74.4753L45.1854 75.1795L45.0866 75.8837C45.3048 75.9143 45.5239 75.9259 45.7433 75.9184L45.7187 75.2077ZM45.1854 75.1795L45.2842 74.4753L45.0175 74.4378L44.9187 75.1421L44.8199 75.8463L45.0866 75.8837L45.1854 75.1795ZM44.9187 75.1421L45.0175 74.4378L44.7508 74.4004L44.652 75.1046L44.5532 75.8089L44.8199 75.8463L44.9187 75.1421ZM44.652 75.1046L44.7508 74.4004C44.5977 74.3789 44.444 74.3492 44.2894 74.311L44.1187 75.0013L43.948 75.6916C44.149 75.7413 44.3508 75.7804 44.5532 75.8089L44.652 75.1046ZM44.1187 75.0013L44.2894 74.311L44.0228 74.245L43.852 74.9353L43.6813 75.6256L43.948 75.6916L44.1187 75.0013ZM43.852 74.9353L44.0228 74.245L43.7561 74.1791L43.5854 74.8694L43.4146 75.5597L43.6813 75.6256L43.852 74.9353ZM43.5854 74.8694L43.7561 74.1791C43.3828 74.0867 43.0208 74.1552 42.7047 74.3322L43.052 74.9527L43.3994 75.5732C43.412 75.5661 43.4206 75.5626 43.425 75.561C43.4294 75.5594 43.4304 75.5595 43.4284 75.5598C43.4264 75.5601 43.4233 75.5604 43.4197 75.5602C43.4161 75.56 43.4142 75.5596 43.4146 75.5597L43.5854 74.8694ZM43.052 74.9527L42.7047 74.3322L42.438 74.4814L42.7854 75.1019L43.1327 75.7225L43.3994 75.5732L43.052 74.9527ZM42.7854 75.1019L42.438 74.4814L42.1714 74.6307L42.5187 75.2512L42.866 75.8717L43.1327 75.7225L42.7854 75.1019ZM42.5187 75.2512L42.1714 74.6307C42.0813 74.6811 42.0181 74.6929 41.9744 74.6935L41.9854 75.4046L41.9963 76.1156C42.3082 76.1108 42.6005 76.0203 42.866 75.8717L42.5187 75.2512ZM41.9854 75.4046L41.9744 74.6935L41.7078 74.6976L41.7187 75.4087L41.7296 76.1197L41.9963 76.1156L41.9854 75.4046ZM41.7187 75.4087L41.7078 74.6976L41.4411 74.7018L41.452 75.4128L41.463 76.1238L41.7296 76.1197L41.7187 75.4087ZM41.452 75.4128L41.4411 74.7018C41.3554 74.7031 41.2637 74.6886 41.1621 74.6516L40.9187 75.3197L40.6753 75.9879C40.9293 76.0804 41.1931 76.128 41.463 76.1238L41.452 75.4128ZM40.9187 75.3197L41.1621 74.6516L40.8954 74.5544L40.652 75.2226L40.4086 75.8907L40.6753 75.9879L40.9187 75.3197ZM40.652 75.2226L40.8954 74.5544L40.6288 74.4573L40.3854 75.1254L40.142 75.7936L40.4086 75.8907L40.652 75.2226ZM40.3854 75.1254L40.6288 74.4573C40.4687 74.399 40.3125 74.3349 40.16 74.2649L39.8636 74.9114L39.5673 75.5578C39.7549 75.6438 39.9464 75.7224 40.142 75.7936L40.3854 75.1254ZM39.8636 74.9114L40.16 74.2649L39.9049 74.148L39.6086 74.7944L39.3122 75.4408L39.5673 75.5578L39.8636 74.9114ZM39.6086 74.7944L39.9049 74.148L39.6499 74.0311L39.3535 74.6775L39.0571 75.3239L39.3122 75.4408L39.6086 74.7944ZM39.3535 74.6775L39.6499 74.0311C39.3358 73.8871 38.9983 73.8538 38.6627 73.9316L38.8233 74.6243L38.9839 75.3171C39.0152 75.3098 39.0311 75.312 39.0571 75.3239L39.3535 74.6775ZM38.8233 74.6243L38.6627 73.9316L38.3875 73.9954L38.5481 74.6881L38.7087 75.3808L38.9839 75.3171L38.8233 74.6243ZM38.5481 74.6881L38.3875 73.9954L38.1124 74.0591L38.273 74.7519L38.4336 75.4446L38.7087 75.3808L38.5481 74.6881ZM38.273 74.7519L38.1124 74.0591C37.9918 74.0871 37.8685 74.0987 37.7409 74.0936L37.7121 74.8041L37.6834 75.5146C37.9367 75.5249 38.1873 75.5017 38.4336 75.4446L38.273 74.7519ZM37.7121 74.8041L37.7409 74.0936L37.4552 74.082L37.4264 74.7925L37.3977 75.5031L37.6834 75.5146L37.7121 74.8041ZM37.4264 74.7925L37.4552 74.082L37.1695 74.0704L37.1407 74.781L37.1119 75.4915L37.3977 75.5031L37.4264 74.7925ZM37.1407 74.781L37.1695 74.0704C37.1615 74.0701 37.1572 74.0693 37.1558 74.069C37.1545 74.0687 37.1547 74.0686 37.1557 74.0691C37.1568 74.0695 37.157 74.0698 37.1559 74.0691C37.1549 74.0683 37.1514 74.0658 37.1458 74.0604L36.6502 74.5704L36.1547 75.0804C36.417 75.3353 36.7468 75.4767 37.1119 75.4915L37.1407 74.781ZM36.6502 74.5704L37.1458 74.0604L36.941 73.8614L36.4454 74.3714L35.9499 74.8815L36.1547 75.0804L36.6502 74.5704ZM36.4454 74.3714L36.941 73.8614L36.7362 73.6624L36.2406 74.1724L35.7451 74.6825L35.9499 74.8815L36.4454 74.3714ZM36.2406 74.1724L36.7362 73.6624C36.5983 73.5285 36.4642 73.3992 36.3339 73.2746L35.8425 73.7887L35.3512 74.3027C35.4785 74.4245 35.6098 74.5511 35.7451 74.6825L36.2406 74.1724ZM35.8425 73.7887L36.3339 73.2746L36.1406 73.0899L35.6492 73.6039L35.1578 74.118L35.3512 74.3027L35.8425 73.7887ZM35.6492 73.6039L36.1406 73.0899L35.9473 72.9051L35.4559 73.4191L34.9645 73.9332L35.1578 74.118L35.6492 73.6039ZM35.4559 73.4191L35.9473 72.9051C35.7863 72.7513 35.6116 72.613 35.4239 72.4902L35.0346 73.0853L34.6454 73.6804C34.7616 73.7564 34.8677 73.8407 34.9645 73.9332L35.4559 73.4191ZM35.0346 73.0853L35.4239 72.4902L35.1959 72.341L34.8067 72.9361L34.4174 73.5312L34.6454 73.6804L35.0346 73.0853ZM34.8067 72.9361L35.1959 72.341L34.968 72.1919L34.5787 72.787L34.1894 73.3821L34.4174 73.5312L34.8067 72.9361ZM34.5787 72.787L34.968 72.1919C34.9688 72.1925 34.9728 72.1952 34.9783 72.2007C34.9838 72.2062 34.9892 72.2128 34.9936 72.2198C35.0034 72.235 35.002 72.2408 34.9992 72.2254L34.2993 72.3509L33.5993 72.4764C33.6655 72.8452 33.8612 73.1674 34.1894 73.3821L34.5787 72.787ZM34.2993 72.3509L34.9992 72.2254L34.9478 71.9384L34.2478 72.0639L33.5479 72.1894L33.5993 72.4764L34.2993 72.3509ZM34.2478 72.0639L34.9478 71.9384L34.8963 71.6514L34.1964 71.7769L33.4964 71.9023L33.5479 72.1894L34.2478 72.0639ZM34.1964 71.7769L34.8963 71.6514C34.8416 71.346 34.7151 71.0611 34.5034 70.8217L33.9706 71.2926L33.4378 71.7635C33.4586 71.7871 33.4826 71.8251 33.4964 71.9023L34.1964 71.7769ZM33.9706 71.2926L34.5034 70.8217L34.3291 70.6244L33.7962 71.0953L33.2634 71.5663L33.4378 71.7635L33.9706 71.2926ZM33.7962 71.0953L34.3291 70.6244L34.1547 70.4271L33.6219 70.8981L33.0891 71.369L33.2634 71.5663L33.7962 71.0953ZM33.6219 70.8981L34.1547 70.4271C34.1265 70.3952 34.1134 70.3666 34.1071 70.3282L33.4053 70.4431L32.7036 70.558C32.7536 70.8632 32.8849 71.138 33.0891 71.369L33.6219 70.8981ZM33.4053 70.4431L34.1071 70.3282L34.0649 70.0705L33.3631 70.1854L32.6614 70.3003L32.7036 70.558L33.4053 70.4431ZM33.3631 70.1854L34.0649 70.0705L34.0227 69.8128L33.3209 69.9277L32.6192 70.0426L32.6614 70.3003L33.3631 70.1854ZM33.3209 69.9277L34.0227 69.8128C33.9756 69.5251 33.8611 69.2618 33.6961 69.0261L33.1135 69.4338L32.5309 69.8416C32.5863 69.9207 32.61 69.9866 32.6192 70.0426L33.3209 69.9277ZM33.1135 69.4338L33.6961 69.0261L33.5309 68.79L32.9483 69.1977L32.3657 69.6054L32.5309 69.8416L33.1135 69.4338ZM32.9483 69.1977L33.5309 68.79L33.3657 68.5539L32.783 68.9616L32.2004 69.3693L32.3657 69.6054L32.9483 69.1977ZM32.783 68.9616L33.3657 68.5539C33.3606 68.5466 33.3588 68.5428 33.3587 68.5426C33.3587 68.5425 33.3598 68.5449 33.3609 68.5495C33.362 68.554 33.3626 68.5587 33.3627 68.5627C33.3629 68.5666 33.3625 68.5679 33.3628 68.5658L32.6603 68.4553L31.9579 68.3448C31.8993 68.7171 31.991 69.0701 32.2004 69.3693L32.783 68.9616ZM32.6603 68.4553L33.3628 68.5658L33.4053 68.2956L32.7028 68.1851L32.0004 68.0746L31.9579 68.3448L32.6603 68.4553ZM32.7028 68.1851L33.4053 68.2956L33.4478 68.0255L32.7454 67.9149L32.0429 67.8044L32.0004 68.0746L32.7028 68.1851ZM32.7454 67.9149L33.4478 68.0255C33.4733 67.8633 33.5051 67.7021 33.543 67.5419L32.851 67.3781L32.159 67.2142C32.1128 67.4096 32.074 67.6063 32.0429 67.8044L32.7454 67.9149ZM32.851 67.3781L33.543 67.5419L33.6061 67.2753L32.9142 67.1114L32.2222 66.9476L32.159 67.2142L32.851 67.3781ZM32.9142 67.1114L33.6061 67.2753L33.6693 67.0086L32.9773 66.8447L32.2853 66.6809L32.2222 66.9476L32.9142 67.1114ZM32.9773 66.8447L33.6693 67.0086C33.7254 66.7716 33.7504 66.5312 33.7429 66.2892L33.0321 66.3114L32.3213 66.3336C32.3249 66.4471 32.3134 66.5624 32.2853 66.6809L32.9773 66.8447ZM33.0321 66.3114L33.7429 66.2892L33.7345 66.0225L33.0238 66.0447L32.313 66.067L32.3213 66.3336L33.0321 66.3114ZM33.0238 66.0447L33.7345 66.0225L33.7262 65.7558L33.0154 65.7781L32.3047 65.8003L32.313 66.067L33.0238 66.0447ZM33.0154 65.7781L33.7262 65.7558C33.7197 65.5473 33.6997 65.3393 33.6663 65.1319L32.9642 65.2447L32.2621 65.3576C32.2859 65.5057 32.3001 65.6533 32.3047 65.8003L33.0154 65.7781ZM32.9642 65.2447L33.6663 65.1319L33.6235 64.8652L32.9214 64.9781L32.2193 65.0909L32.2621 65.3576L32.9642 65.2447ZM32.9214 64.9781L33.6235 64.8652L33.5806 64.5986L32.8785 64.7114L32.1764 64.8242L32.2193 65.0909L32.9214 64.9781ZM32.8785 64.7114L33.5806 64.5986C33.5561 64.4463 33.5402 64.2945 33.5328 64.1431L32.8225 64.1781L32.1123 64.2131C32.1223 64.4172 32.1437 64.621 32.1764 64.8242L32.8785 64.7114ZM32.8225 64.1781L33.5328 64.1431L33.5196 63.8764L32.8094 63.9114L32.0991 63.9464L32.1123 64.2131L32.8225 64.1781ZM32.8094 63.9114L33.5196 63.8764L33.5065 63.6098L32.7962 63.6447L32.086 63.6797L32.0991 63.9464L32.8094 63.9114ZM32.7962 63.6447L33.5065 63.6098C33.4932 63.34 33.4286 63.0791 33.3214 62.8302L32.6683 63.1114L32.0151 63.3926C32.061 63.4992 32.0818 63.5939 32.086 63.6797L32.7962 63.6447ZM32.6683 63.1114L33.3214 62.8302L33.2066 62.5635L32.5535 62.8447L31.9003 63.126L32.0151 63.3926L32.6683 63.1114ZM32.5535 62.8447L33.2066 62.5635L33.0918 62.2968L32.4386 62.5781L31.7855 62.8593L31.9003 63.126L32.5535 62.8447ZM32.4386 62.5781L33.0918 62.2968C33.0823 62.275 33.0813 62.264 33.0811 62.2613C33.081 62.2591 33.0807 62.254 33.084 62.2424L32.401 62.0447L31.7179 61.8471C31.6184 62.1908 31.647 62.5377 31.7855 62.8593L32.4386 62.5781ZM32.401 62.0447L33.084 62.2424L33.1612 61.9757L32.4781 61.7781L31.795 61.5804L31.7179 61.8471L32.401 62.0447ZM32.4781 61.7781L33.1612 61.9757L33.2384 61.7091L32.5553 61.5114L31.8722 61.3137L31.795 61.5804L32.4781 61.7781ZM32.5553 61.5114L33.2384 61.7091C33.321 61.4235 33.3347 61.1296 33.2755 60.8371L32.5785 60.9781L31.8815 61.1191C31.8943 61.1821 31.8925 61.2438 31.8722 61.3137L32.5553 61.5114ZM32.5785 60.9781L33.2755 60.8371L33.2216 60.5704L32.5246 60.7114L31.8276 60.8524L31.8815 61.1191L32.5785 60.9781ZM32.5246 60.7114L33.2216 60.5704L33.1676 60.3038L32.4706 60.4447L31.7736 60.5857L31.8276 60.8524L32.5246 60.7114ZM32.4706 60.4447L33.1676 60.3038C33.1394 60.1641 33.122 60.0194 33.1159 59.8694L32.4054 59.8981L31.6948 59.9269C31.7039 60.1501 31.73 60.3699 31.7736 60.5857L32.4706 60.4447ZM32.4054 59.8981L33.1159 59.8694L33.1046 59.5895L32.3941 59.6182L31.6835 59.6469L31.6948 59.9269L32.4054 59.8981ZM32.3941 59.6182L33.1046 59.5895L33.0933 59.3096L32.3827 59.3383L31.6722 59.367L31.6835 59.6469L32.3941 59.6182ZM32.3827 59.3383L33.0933 59.3096C33.0912 59.2595 33.1009 59.2134 33.1324 59.1577L32.5136 58.8073L31.8948 58.4569C31.7368 58.736 31.6591 59.0438 31.6722 59.367L32.3827 59.3383ZM32.5136 58.8073L33.1324 59.1577L33.2746 58.9067L32.6558 58.5562L32.037 58.2058L31.8948 58.4569L32.5136 58.8073ZM32.6558 58.5562L33.2746 58.9067L33.4167 58.6556L32.798 58.3052L32.1792 57.9548L32.037 58.2058L32.6558 58.5562ZM32.798 58.3052L33.4167 58.6556C33.5325 58.4512 33.6276 58.2406 33.7001 58.0238L33.0257 57.7982L32.3513 57.5727C32.3097 57.6971 32.253 57.8244 32.1792 57.9548L32.798 58.3052ZM33.0257 57.7982L33.7001 58.0238L33.7857 57.7679L33.1113 57.5423L32.4369 57.3168L32.3513 57.5727L33.0257 57.7982ZM33.1113 57.5423L33.7857 57.7679L33.8713 57.512L33.1969 57.2864L32.5225 57.0609L32.4369 57.3168L33.1113 57.5423ZM33.1969 57.2864L33.8713 57.512C33.9331 57.3273 33.9903 57.1368 34.0431 56.9408L33.3565 56.7558L32.6699 56.5708C32.624 56.741 32.5748 56.9044 32.5225 57.0609L33.1969 57.2864ZM33.3565 56.7558L34.0431 56.9408L34.1172 56.666L33.4305 56.481L32.7439 56.296L32.6699 56.5708L33.3565 56.7558ZM33.4305 56.481L34.1172 56.666L34.1912 56.3912L33.5046 56.2062L32.8179 56.0212L32.7439 56.296L33.4305 56.481ZM33.5046 56.2062L34.1912 56.3912C34.2034 56.3461 34.2215 56.3183 34.2544 56.2903L33.7938 55.7485L33.3333 55.2067C33.0792 55.4227 32.9045 55.7001 32.8179 56.0212L33.5046 56.2062ZM33.7938 55.7485L34.2544 56.2903L34.4696 56.1074L34.0091 55.5655L33.5485 55.0237L33.3333 55.2067L33.7938 55.7485ZM34.0091 55.5655L34.4696 56.1074L34.6849 55.9244L34.2243 55.3826L33.7638 54.8408L33.5485 55.0237L34.0091 55.5655ZM34.2243 55.3826L34.6849 55.9244C34.8705 55.7666 35.0356 55.5892 35.1792 55.393L34.6054 54.9731L34.0315 54.5531C33.954 54.659 33.8651 54.7546 33.7638 54.8408L34.2243 55.3826ZM34.6054 54.9731L35.1792 55.393L35.345 55.1664L34.7711 54.7465L34.1973 54.3266L34.0315 54.5531L34.6054 54.9731ZM34.7711 54.7465L35.345 55.1664L35.5108 54.9399L34.9369 54.5199L34.3631 54.1L34.1973 54.3266L34.7711 54.7465ZM34.9369 54.5199L35.5108 54.9399C35.5226 54.9238 35.5318 54.9142 35.5676 54.9045L35.3825 54.2179L35.1973 53.5314C34.8601 53.6223 34.5723 53.814 34.3631 54.1L34.9369 54.5199ZM35.3825 54.2179L35.5676 54.9045L35.8474 54.8291L35.6622 54.1425L35.4771 53.4559L35.1973 53.5314L35.3825 54.2179ZM35.6622 54.1425L35.8474 54.8291L36.1272 54.7536L35.942 54.067L35.7568 53.3805L35.4771 53.4559L35.6622 54.1425ZM35.942 54.067L36.1272 54.7536C36.3285 54.6993 36.5214 54.6403 36.7055 54.5762L36.4719 53.9046L36.2382 53.2329C36.0889 53.2849 35.9285 53.3341 35.7568 53.3805L35.942 54.067ZM36.4719 53.9046L36.7055 54.5762L36.9556 54.4892L36.722 53.8176L36.4883 53.1459L36.2382 53.2329L36.4719 53.9046ZM36.722 53.8176L36.9556 54.4892L37.2057 54.4022L36.9721 53.7306L36.7384 53.0589L36.4883 53.1459L36.722 53.8176ZM36.9721 53.7306L37.2057 54.4022C37.4823 54.306 37.7244 54.1471 37.9329 53.9459L37.4392 53.4342L36.9455 52.9224C36.8646 53.0004 36.7952 53.0392 36.7384 53.0589L36.9721 53.7306ZM37.4392 53.4342L37.9329 53.9459L38.15 53.7365L37.6563 53.2247L37.1626 52.713L36.9455 52.9224L37.4392 53.4342ZM37.6563 53.2247L38.15 53.7365L38.3671 53.5271L37.8734 53.0153L37.3797 52.5035L37.1626 52.713L37.6563 53.2247ZM37.8734 53.0153L38.3671 53.5271C38.3633 53.5307 38.3327 53.5574 38.2753 53.5713C38.2179 53.5852 38.1779 53.5755 38.1719 53.5737L38.3782 52.8932L38.5846 52.2127C38.3867 52.1527 38.1666 52.1343 37.9409 52.1889C37.7153 52.2435 37.5281 52.3603 37.3797 52.5035L37.8734 53.0153ZM38.3782 52.8932L38.1719 53.5737L38.4597 53.661L38.666 52.9804L38.8724 52.2999L38.5846 52.2127L38.3782 52.8932ZM38.666 52.9804L38.4597 53.661L38.7474 53.7482L38.9538 53.0677L39.1601 52.3872L38.8724 52.2999L38.666 52.9804ZM38.9538 53.0677L38.7474 53.7482C38.9505 53.8098 39.1785 53.866 39.3853 53.8664L39.3867 53.1553L39.3881 52.4442C39.4041 52.4442 39.3942 52.4458 39.3469 52.4362C39.303 52.4274 39.2417 52.4119 39.1601 52.3872L38.9538 53.0677ZM39.3867 53.1553L39.3853 53.8664L39.5304 53.8667L39.5318 53.1556L39.5332 52.4445L39.3881 52.4442L39.3867 53.1553ZM39.5318 53.1556L39.5304 53.8667L39.6755 53.867L39.6769 53.1559L39.6784 52.4447L39.5332 52.4445L39.5318 53.1556ZM39.6769 53.1559L39.6755 53.867C39.7426 53.8671 39.8652 53.8642 39.9936 53.825C40.0772 53.7994 40.5332 53.6326 40.5332 53.1115H39.822H39.1109C39.1109 52.8982 39.2081 52.7214 39.3312 52.6079C39.4344 52.5129 39.5377 52.4772 39.5779 52.4649C39.658 52.4404 39.708 52.4448 39.6784 52.4447L39.6769 53.1559ZM39.822 53.1115H40.5332V53.0668H39.822H39.1109V53.1115H39.822ZM39.822 53.0668H40.5332V53.0222H39.822H39.1109V53.0668H39.822ZM39.822 53.0222H40.5332C40.5332 53.2226 40.4459 53.424 40.2785 53.5619C40.142 53.6744 40.0032 53.7026 39.9473 53.7112C39.8822 53.7213 39.8322 53.7189 39.8107 53.7175C39.7859 53.7158 39.7687 53.7128 39.7624 53.7117C39.7492 53.7093 39.7721 53.7131 39.8551 53.7419L40.0887 53.0703L40.3224 52.3987C40.2275 52.3657 40.1171 52.3305 40.015 52.3121C39.9771 52.3052 39.8635 52.2851 39.7302 52.3057C39.6631 52.316 39.516 52.3474 39.3739 52.4644C39.201 52.607 39.1109 52.8143 39.1109 53.0222H39.822ZM40.0887 53.0703L39.8551 53.7419L40.1217 53.8347L40.3554 53.1631L40.589 52.4914L40.3224 52.3987L40.0887 53.0703Z" fill="#3A3A3A"/>
</svg>
