<svg width="128" height="128" viewBox="0 0 128 128" fill="none" xmlns="http://www.w3.org/2000/svg">
<g filter="url(#filter0_f_393_4904)">
<path d="M33.7778 69.447C33.7778 65.8497 36.694 62.9336 40.2912 62.9336H52.9075C56.5048 62.9336 59.4209 65.8497 59.4209 69.447C59.4209 73.0443 56.5048 75.9604 52.9075 75.9604H40.2913C36.694 75.9604 33.7778 73.0443 33.7778 69.447Z" fill="white" fill-opacity="0.33"/>
</g>
<g filter="url(#filter1_f_393_4904)">
<path d="M68.5791 69.447C68.5791 65.8497 71.4953 62.9336 75.0925 62.9336H87.7088C91.306 62.9336 94.2222 65.8497 94.2222 69.447C94.2222 73.0443 91.306 75.9604 87.7088 75.9604H75.0925C71.4953 75.9604 68.5791 73.0443 68.5791 69.447Z" fill="white" fill-opacity="0.33"/>
</g>
<path d="M41.0912 62.7039L40.895 62.0204L41.0912 62.7039ZM42.1579 62.7157L42.0799 63.4225L42.1579 62.7157ZM42.6912 62.7065L42.7932 63.4102L42.6912 62.7065ZM43.7579 62.7651L43.3685 63.3601L43.7579 62.7651ZM44.2912 63.1142L44.6807 62.5192L44.2912 63.1142ZM44.8246 63.176L45.1015 63.831L44.8246 63.176ZM45.3579 62.9505L45.081 62.2955L45.3579 62.9505ZM45.8912 62.7561L46.0995 63.4361L45.8912 62.7561ZM46.4246 62.5928L46.2164 61.9129L46.4246 62.5928ZM46.9579 62.6903L46.5614 63.2806L46.9579 62.6903ZM47.4912 63.0485L47.8877 62.4581L47.4912 63.0485ZM48.0246 63.176L48.1596 63.8742L48.0246 63.176ZM48.5579 63.0728L48.4229 62.3747L48.5579 63.0728ZM49.0912 63.0846L49.2557 62.3928L49.0912 63.0846ZM49.6246 63.2114L49.789 62.5196L49.6246 63.2114ZM50.1579 63.192L49.9471 62.5129L50.1579 63.192ZM50.6912 63.0265L50.902 63.7057L50.6912 63.0265ZM51.2246 62.9704L51.1539 63.678L51.2246 62.9704ZM52.8214 63.0905L52.8573 62.3803L52.8214 63.0905ZM53.3494 63.1096L53.3339 63.8206L53.3494 63.1096ZM55.489 63.2999L55.3152 63.9894L55.489 63.2999ZM55.7612 63.3685L55.935 62.679L55.7612 63.3685ZM56.4422 63.7794L55.8061 64.0973L56.4422 63.7794ZM56.579 64.0531L55.9429 64.371L56.579 64.0531ZM56.7157 64.3268L57.3518 64.0089L56.7157 64.3268ZM57.007 64.8039L56.4406 65.2339L57.007 64.8039ZM57.1615 65.0075L56.595 65.4374L57.1615 65.0075ZM57.3159 65.211L57.8824 64.7811L57.3159 65.211ZM57.6739 65.5799L57.2253 66.1317L57.6739 65.5799ZM58.0808 65.9107L58.5293 65.3589L58.0808 65.9107ZM58.3757 66.3181L57.7106 66.5696L58.3757 66.3181ZM58.5587 66.8022L59.2239 66.5507L58.5587 66.8022ZM58.7668 67.2773L58.1308 67.5954L58.7668 67.2773ZM58.9999 67.7432L59.6359 67.4251L58.9999 67.7432ZM59.1031 68.2377L58.393 68.2016L59.1031 68.2377ZM59.0765 68.7608L59.7867 68.7969L59.0765 68.7608ZM59.157 69.2841L59.8264 69.0442L59.157 69.2841ZM59.3446 69.8077L58.6752 70.0476L59.3446 69.8077ZM59.4687 70.354L60.1758 70.2788L59.4687 70.354ZM59.499 70.6386L58.7919 70.7138L59.499 70.6386ZM59.5293 70.9231L58.8221 70.9983L59.5293 70.9231ZM59.4277 71.4559L60.0558 71.7894L59.4277 71.4559ZM59.2959 71.7042L58.6678 71.3707L59.2959 71.7042ZM59.164 71.9525L58.536 71.619L59.164 71.9525ZM58.8554 72.4118L58.3104 71.955L58.8554 72.4118ZM58.6785 72.6228L58.1335 72.166L58.6785 72.6228ZM58.5017 72.8338L59.0467 73.2906L58.5017 72.8338ZM58.1758 73.2683L57.5842 72.8736L58.1758 73.2683ZM58.0267 73.4917L58.6183 73.8863L58.0267 73.4917ZM57.8777 73.7151L58.4692 74.1097L57.8777 73.7151ZM57.5468 74.1425L57.0159 73.6694L57.5468 74.1425ZM57.365 74.3465L57.8959 74.8196L57.365 74.3465ZM57.1832 74.5505L56.6523 74.0773L57.1832 74.5505ZM56.7002 74.7714L56.7402 75.4814L56.7002 74.7714ZM56.399 74.7884L56.359 74.0784L56.399 74.7884ZM56.0978 74.8053L56.0578 74.0953L56.0978 74.8053ZM55.6137 75.0556L55.0541 74.6168L55.6137 75.0556ZM55.2479 75.5222L55.8075 75.961L55.2479 75.5222ZM54.788 75.7462L54.8119 75.0355L54.788 75.7462ZM54.511 75.7369L54.4871 76.4476L54.511 75.7369ZM54.234 75.7275L54.2101 76.4382L54.234 75.7275ZM53.6979 75.7714L53.8408 76.468L53.6979 75.7714ZM53.1796 75.8778L53.0366 75.1812L53.1796 75.8778ZM52.6538 75.8679L52.49 76.5599L52.6538 75.8679ZM52.1204 75.7417L52.2841 75.0497L52.1204 75.7417ZM51.5871 75.7109L51.5016 75.0049L51.5871 75.7109ZM51.3204 75.7431L51.4059 76.4491L51.3204 75.7431ZM51.0537 75.7754L51.1392 76.4814L51.0537 75.7754ZM50.5204 75.746L50.3601 76.4388L50.5204 75.746ZM50.2537 75.6843L50.4141 74.9915L50.2537 75.6843ZM49.4537 75.6207L49.2979 74.9269L49.4537 75.6207ZM49.1871 75.6806L49.343 76.3745L49.1871 75.6806ZM48.9204 75.7406L49.0763 76.4344L48.9204 75.7406ZM48.3871 75.9102L48.1164 75.2526L48.3871 75.9102ZM47.8537 76.1297L48.1244 76.7873L47.8537 76.1297ZM47.3204 76.2134L47.3896 75.5057L47.3204 76.2134ZM47.0537 76.1873L46.9845 76.8951L47.0537 76.1873ZM46.7871 76.1613L46.7179 76.869L46.7871 76.1613ZM46.2537 76.0755L46.0984 76.7695L46.2537 76.0755ZM45.7204 75.9562L45.8757 75.2622L45.7204 75.9562ZM44.9204 75.8813L44.9002 76.5921L44.9204 75.8813ZM44.6537 75.8737L44.674 75.1629L44.6537 75.8737ZM44.1204 75.9134L44.2447 76.6136L44.1204 75.9134ZM43.8537 75.9607L43.7295 75.2606L43.8537 75.9607ZM43.5871 76.008L43.7113 76.7082L43.5871 76.008ZM42.7871 76.0736L42.8113 76.7843L42.7871 76.0736ZM42.5204 76.0827L42.4962 75.372L42.5204 76.0827ZM41.9871 76.0519L42.0922 75.3486L41.9871 76.0519ZM41.4537 75.9722L41.3487 76.6755L41.4537 75.9722ZM40.3932 75.702L40.5914 75.0191L40.3932 75.702ZM39.8626 75.6749L39.9931 76.3739L39.8626 75.6749ZM39.3306 75.7742L39.4611 76.4733L39.3306 75.7742ZM38.8115 75.7455L38.6011 76.4248L38.8115 75.7455ZM38.3053 75.5887L38.5157 74.9095L38.3053 75.5887ZM37.7784 75.4586L37.9105 74.7599L37.7784 75.4586ZM37.231 75.3552L37.099 76.0539L37.231 75.3552ZM36.7309 75.1466L37.1361 74.5622L36.7309 75.1466ZM36.2782 74.8327L35.8731 75.4171L36.2782 74.8327ZM35.7586 73.8356L35.0872 74.0699L35.7586 73.8356ZM35.5299 73.3398L36.1377 72.9707L35.5299 73.3398ZM35.2679 72.9083L34.66 73.2774L35.2679 72.9083ZM34.9506 72.5017L34.4417 72.9984L34.9506 72.5017ZM34.7643 72.3108L34.2554 72.8075L34.7643 72.3108ZM34.578 72.12L35.0869 71.6233L34.578 72.12ZM34.238 71.6977L34.8304 71.3043L34.238 71.6977ZM33.9306 71.2349L33.3383 71.6283L33.9306 71.2349ZM33.8792 70.7227L33.2111 70.4793L33.8792 70.7227ZM34.008 68.6061L33.3411 68.3593L34.008 68.6061ZM34.5733 67.1674L33.9169 66.8937L34.5733 67.1674ZM34.709 66.6581L34.0046 66.5603L34.709 66.6581ZM34.7472 66.3825L35.4516 66.4802L34.7472 66.3825ZM34.7855 66.1069L34.0811 66.0091L34.7855 66.1069ZM34.9609 65.5941L34.3452 65.2382L34.9609 65.5941ZM35.2351 65.1196L35.8508 65.4755L35.2351 65.1196ZM35.5754 64.698L35.0974 64.1715L35.5754 64.698ZM35.7785 64.5137L35.3006 63.9871L35.7785 64.5137ZM35.9816 64.3293L36.4596 64.8558L35.9816 64.3293ZM36.5897 63.7445L37.0897 64.2502L36.5897 63.7445ZM36.7921 63.5443L36.2921 63.0387L36.7921 63.5443ZM37.2638 63.2576L37.0462 62.5806L37.2638 63.2576ZM38.3591 63.0321L38.2753 63.7383L38.3591 63.0321ZM39.7429 62.8561L40.0781 63.4832V63.4832L39.7429 62.8561ZM40.0034 62.7168L39.6683 62.0897L40.0034 62.7168ZM40.2708 62.6666L39.5617 62.721V62.721L40.2708 62.6666ZM40.8246 62.7805L41.0208 63.464L41.2875 63.3874L41.0912 62.7039L40.895 62.0204L40.6283 62.097L40.8246 62.7805ZM41.0912 62.7039L41.2875 63.3874C41.3793 63.361 41.464 63.3545 41.5465 63.3636L41.6246 62.6568L41.7026 61.95C41.4296 61.9198 41.1587 61.9447 40.895 62.0204L41.0912 62.7039ZM41.6246 62.6568L41.5465 63.3636L41.8132 63.3931L41.8912 62.6862L41.9693 61.9794L41.7026 61.95L41.6246 62.6568ZM41.8912 62.6862L41.8132 63.3931L42.0799 63.4225L42.1579 62.7157L42.236 62.0089L41.9693 61.9794L41.8912 62.6862ZM42.1579 62.7157L42.0799 63.4225C42.3178 63.4488 42.5561 63.4446 42.7932 63.4102L42.6912 62.7065L42.5893 62.0027C42.4709 62.0199 42.3536 62.0219 42.236 62.0089L42.1579 62.7157ZM42.6912 62.7065L42.7932 63.4102L43.0599 63.3716L42.9579 62.6678L42.8559 61.9641L42.5893 62.0027L42.6912 62.7065ZM42.9579 62.6678L43.0599 63.3716L43.3266 63.333L43.2246 62.6292L43.1226 61.9254L42.8559 61.9641L42.9579 62.6678ZM43.2246 62.6292L43.3266 63.333C43.3248 63.3332 43.322 63.3334 43.3189 63.3332C43.3159 63.3331 43.3146 63.3327 43.3157 63.3329C43.3176 63.3334 43.335 63.3382 43.3685 63.3601L43.7579 62.7651L44.1474 62.1701C43.8525 61.9771 43.5024 61.8704 43.1226 61.9254L43.2246 62.6292ZM43.7579 62.7651L43.3685 63.3601L43.6351 63.5346L44.0246 62.9396L44.414 62.3447L44.1474 62.1701L43.7579 62.7651ZM44.0246 62.9396L43.6351 63.5346L43.9018 63.7092L44.2912 63.1142L44.6807 62.5192L44.414 62.3447L44.0246 62.9396ZM44.2912 63.1142L43.9018 63.7092C44.2543 63.9399 44.6807 64.0089 45.1015 63.831L44.8246 63.176L44.5477 62.521C44.5535 62.5186 44.5657 62.5143 44.5834 62.5115C44.6014 62.5088 44.6208 62.5083 44.6398 62.5105C44.6794 62.5151 44.6943 62.5281 44.6807 62.5192L44.2912 63.1142ZM44.8246 63.176L45.1015 63.831L45.3681 63.7183L45.0912 63.0633L44.8143 62.4083L44.5477 62.521L44.8246 63.176ZM45.0912 63.0633L45.3681 63.7183L45.6348 63.6055L45.3579 62.9505L45.081 62.2955L44.8143 62.4083L45.0912 63.0633ZM45.3579 62.9505L45.6348 63.6055C45.791 63.5395 45.9459 63.4831 46.0995 63.4361L45.8912 62.7561L45.683 62.0762C45.4811 62.138 45.2804 62.2113 45.081 62.2955L45.3579 62.9505ZM45.8912 62.7561L46.0995 63.4361L46.3661 63.3544L46.1579 62.6745L45.9497 61.9945L45.683 62.0762L45.8912 62.7561ZM46.1579 62.6745L46.3661 63.3544L46.6328 63.2728L46.4246 62.5928L46.2164 61.9129L45.9497 61.9945L46.1579 62.6745ZM46.4246 62.5928L46.6328 63.2728C46.6262 63.2748 46.6155 63.2772 46.6017 63.278C46.5879 63.2789 46.5747 63.2779 46.5634 63.2759C46.5401 63.2716 46.5389 63.2654 46.5614 63.2806L46.9579 62.6903L47.3544 62.0999C47.0291 61.8815 46.6314 61.7858 46.2164 61.9129L46.4246 62.5928ZM46.9579 62.6903L46.5614 63.2806L46.8281 63.4597L47.2246 62.8694L47.6211 62.279L47.3544 62.0999L46.9579 62.6903ZM47.2246 62.8694L46.8281 63.4597L47.0948 63.6388L47.4912 63.0485L47.8877 62.4581L47.6211 62.279L47.2246 62.8694ZM47.4912 63.0485L47.0948 63.6388C47.3979 63.8424 47.7641 63.9507 48.1596 63.8742L48.0246 63.176L47.8895 62.4778C47.894 62.477 47.9003 62.4763 47.9075 62.4764C47.9147 62.4766 47.9202 62.4775 47.9233 62.4783C47.9297 62.4798 47.9181 62.4785 47.8877 62.4581L47.4912 63.0485ZM48.0246 63.176L48.1596 63.8742L48.4263 63.8226L48.2912 63.1244L48.1562 62.4262L47.8895 62.4778L48.0246 63.176ZM48.2912 63.1244L48.4263 63.8226L48.693 63.771L48.5579 63.0728L48.4229 62.3747L48.1562 62.4262L48.2912 63.1244ZM48.5579 63.0728L48.693 63.771C48.7707 63.756 48.8463 63.7573 48.9268 63.7765L49.0912 63.0846L49.2557 62.3928C48.9806 62.3274 48.7007 62.3209 48.4229 62.3747L48.5579 63.0728ZM49.0912 63.0846L48.9268 63.7765L49.1935 63.8399L49.3579 63.148L49.5224 62.4562L49.2557 62.3928L49.0912 63.0846ZM49.3579 63.148L49.1935 63.8399L49.4601 63.9032L49.6246 63.2114L49.789 62.5196L49.5224 62.4562L49.3579 63.148ZM49.6246 63.2114L49.4601 63.9032C49.7643 63.9755 50.0716 63.9634 50.3687 63.8712L50.1579 63.192L49.9471 62.5129C49.8887 62.531 49.8404 62.5318 49.789 62.5196L49.6246 63.2114ZM50.1579 63.192L50.3687 63.8712L50.6353 63.7884L50.4246 63.1093L50.2138 62.4301L49.9471 62.5129L50.1579 63.192ZM50.4246 63.1093L50.6353 63.7884L50.902 63.7057L50.6912 63.0265L50.4805 62.3474L50.2138 62.4301L50.4246 63.1093ZM50.6912 63.0265L50.902 63.7057C50.9927 63.6775 51.0749 63.6701 51.1539 63.678L51.2246 62.9704L51.2953 62.2628C51.0187 62.2352 50.7453 62.2652 50.4805 62.3474L50.6912 63.0265ZM51.2246 62.9704L51.1539 63.678L51.4206 63.7046L51.4912 62.997L51.5619 62.2895L51.2953 62.2628L51.2246 62.9704ZM51.4912 62.997L51.4206 63.7046L51.6872 63.7313L51.7579 63.0237L51.8286 62.3161L51.5619 62.2895L51.4912 62.997ZM51.7579 63.0237L51.6872 63.7313C51.8765 63.7502 52.0655 63.7644 52.2543 63.7739L52.2902 63.0637L52.326 62.3535C52.1607 62.3452 51.9949 62.3327 51.8286 62.3161L51.7579 63.0237ZM52.2902 63.0637L52.2543 63.7739L52.52 63.7873L52.5558 63.0771L52.5917 62.3669L52.326 62.3535L52.2902 63.0637ZM52.5558 63.0771L52.52 63.7873L52.7856 63.8008L52.8214 63.0905L52.8573 62.3803L52.5917 62.3669L52.5558 63.0771ZM52.8214 63.0905L52.7856 63.8008C52.9694 63.81 53.1521 63.8166 53.3339 63.8206L53.3494 63.1096L53.3648 62.3987C53.1968 62.3951 53.0276 62.3889 52.8573 62.3803L52.8214 63.0905ZM53.3494 63.1096L53.3339 63.8206L53.5962 63.8263L53.6117 63.1153L53.6271 62.4044L53.3648 62.3987L53.3494 63.1096ZM53.6117 63.1153L53.5962 63.8263L53.8585 63.832L53.874 63.121L53.8894 62.4101L53.6271 62.4044L53.6117 63.1153ZM53.874 63.121L53.8585 63.832C54.0151 63.8354 54.1749 63.8449 54.338 63.8607L54.4064 63.1529L54.4749 62.4451C54.2778 62.426 54.0826 62.4143 53.8894 62.4101L53.874 63.121ZM54.4064 63.1529L54.338 63.8607L54.6081 63.8868L54.6766 63.179L54.7451 62.4712L54.4749 62.4451L54.4064 63.1529ZM54.6766 63.179L54.6081 63.8868L54.8783 63.913L54.9467 63.2052L55.0152 62.4973L54.7451 62.4712L54.6766 63.179ZM54.9467 63.2052L54.8783 63.913C55.0216 63.9268 55.1672 63.9521 55.3152 63.9894L55.489 63.2999L55.6629 62.6104C55.448 62.5562 55.232 62.5183 55.0152 62.4973L54.9467 63.2052ZM55.489 63.2999L55.3152 63.9894L55.5873 64.0581L55.7612 63.3685L55.935 62.679L55.6629 62.6104L55.489 63.2999ZM55.7612 63.3685L55.5873 64.0581L55.8594 64.1267L56.0333 63.4372L56.2072 62.7476L55.935 62.679L55.7612 63.3685ZM56.0333 63.4372L55.8594 64.1267C55.857 64.1261 55.8504 64.1241 55.8413 64.1195C55.8322 64.1149 55.8231 64.109 55.8152 64.1023C55.7982 64.0881 55.7978 64.0806 55.8061 64.0973L56.4422 63.7794L57.0783 63.4616C56.904 63.1127 56.609 62.849 56.2072 62.7476L56.0333 63.4372ZM56.4422 63.7794L55.8061 64.0973L55.9429 64.371L56.579 64.0531L57.2151 63.7352L57.0783 63.4616L56.4422 63.7794ZM56.579 64.0531L55.9429 64.371L56.0796 64.6447L56.7157 64.3268L57.3518 64.0089L57.2151 63.7352L56.579 64.0531ZM56.7157 64.3268L56.0796 64.6447C56.1868 64.8591 56.3063 65.057 56.4406 65.2339L57.007 64.8039L57.5734 64.374C57.5017 64.2795 57.427 64.1593 57.3518 64.0089L56.7157 64.3268ZM57.007 64.8039L56.4406 65.2339L56.595 65.4374L57.1615 65.0075L57.7279 64.5775L57.5734 64.374L57.007 64.8039ZM57.1615 65.0075L56.595 65.4374L56.7495 65.6409L57.3159 65.211L57.8824 64.7811L57.7279 64.5775L57.1615 65.0075ZM57.3159 65.211L56.7495 65.6409C56.8877 65.8229 57.0468 65.9866 57.2253 66.1317L57.6739 65.5799L58.1224 65.0281C58.0296 64.9527 57.9502 64.8704 57.8824 64.7811L57.3159 65.211ZM57.6739 65.5799L57.2253 66.1317L57.4288 66.2971L57.8773 65.7453L58.3259 65.1935L58.1224 65.0281L57.6739 65.5799ZM57.8773 65.7453L57.4288 66.2971L57.6322 66.4625L58.0808 65.9107L58.5293 65.3589L58.3259 65.1935L57.8773 65.7453ZM58.0808 65.9107L57.6322 66.4625C57.6717 66.4946 57.6946 66.5273 57.7106 66.5696L58.3757 66.3181L59.0409 66.0666C58.9348 65.7862 58.7611 65.5473 58.5293 65.3589L58.0808 65.9107ZM58.3757 66.3181L57.7106 66.5696L57.8021 66.8116L58.4672 66.5602L59.1324 66.3087L59.0409 66.0666L58.3757 66.3181ZM58.4672 66.5602L57.8021 66.8116L57.8936 67.0537L58.5587 66.8022L59.2239 66.5507L59.1324 66.3087L58.4672 66.5602ZM58.5587 66.8022L57.8936 67.0537C57.9632 67.2379 58.0424 67.4185 58.1308 67.5954L58.7668 67.2773L59.4028 66.9591C59.3359 66.8254 59.2763 66.6893 59.2239 66.5507L58.5587 66.8022ZM58.7668 67.2773L58.1308 67.5954L58.2474 67.8284L58.8834 67.5103L59.5193 67.1921L59.4028 66.9591L58.7668 67.2773ZM58.8834 67.5103L58.2474 67.8284L58.3639 68.0614L58.9999 67.7432L59.6359 67.4251L59.5193 67.1921L58.8834 67.5103ZM58.9999 67.7432L58.3639 68.0614C58.3865 68.1064 58.3956 68.1491 58.393 68.2016L59.1031 68.2377L59.8133 68.2739C59.8284 67.9777 59.7688 67.6907 59.6359 67.4251L58.9999 67.7432ZM59.1031 68.2377L58.393 68.2016L58.3796 68.4631L59.0898 68.4992L59.8 68.5354L59.8133 68.2739L59.1031 68.2377ZM59.0898 68.4992L58.3796 68.4631L58.3663 68.7246L59.0765 68.7608L59.7867 68.7969L59.8 68.5354L59.0898 68.4992ZM59.0765 68.7608L58.3663 68.7246C58.3524 68.9985 58.3954 69.2666 58.4876 69.524L59.157 69.2841L59.8264 69.0442C59.7936 68.9525 59.7829 68.8717 59.7867 68.7969L59.0765 68.7608ZM59.157 69.2841L58.4876 69.524L58.5814 69.7858L59.2508 69.5459L59.9203 69.306L59.8264 69.0442L59.157 69.2841ZM59.2508 69.5459L58.5814 69.7858L58.6752 70.0476L59.3446 69.8077L60.0141 69.5678L59.9203 69.306L59.2508 69.5459ZM59.3446 69.8077L58.6752 70.0476C58.7182 70.1674 58.7472 70.2941 58.7616 70.4293L59.4687 70.354L60.1758 70.2788C60.1499 70.0346 60.0962 69.7971 60.0141 69.5678L59.3446 69.8077ZM59.4687 70.354L58.7616 70.4293L58.7919 70.7138L59.499 70.6386L60.2061 70.5633L60.1758 70.2788L59.4687 70.354ZM59.499 70.6386L58.7919 70.7138L58.8221 70.9983L59.5293 70.9231L60.2364 70.8479L60.2061 70.5633L59.499 70.6386ZM59.5293 70.9231L58.8221 70.9983C58.8276 71.0496 58.8197 71.0846 58.7996 71.1224L59.4277 71.4559L60.0558 71.7894C60.2114 71.4962 60.2713 71.1759 60.2364 70.8479L59.5293 70.9231ZM59.4277 71.4559L58.7996 71.1224L58.6678 71.3707L59.2959 71.7042L59.9239 72.0377L60.0558 71.7894L59.4277 71.4559ZM59.2959 71.7042L58.6678 71.3707L58.536 71.619L59.164 71.9525L59.7921 72.286L59.9239 72.0377L59.2959 71.7042ZM59.164 71.9525L58.536 71.619C58.4709 71.7416 58.3957 71.8532 58.3104 71.955L58.8554 72.4118L59.4004 72.8686C59.5509 72.689 59.6814 72.4945 59.7921 72.286L59.164 71.9525ZM58.8554 72.4118L58.3104 71.955L58.1335 72.166L58.6785 72.6228L59.2235 73.0796L59.4004 72.8686L58.8554 72.4118ZM58.6785 72.6228L58.1335 72.166L57.9566 72.3771L58.5017 72.8338L59.0467 73.2906L59.2235 73.0796L58.6785 72.6228ZM58.5017 72.8338L57.9566 72.3771C57.8225 72.5371 57.6983 72.7026 57.5842 72.8736L58.1758 73.2683L58.7673 73.6629C58.8519 73.536 58.945 73.4119 59.0467 73.2906L58.5017 72.8338ZM58.1758 73.2683L57.5842 72.8736L57.4351 73.097L58.0267 73.4917L58.6183 73.8863L58.7673 73.6629L58.1758 73.2683ZM58.0267 73.4917L57.4351 73.097L57.2861 73.3205L57.8777 73.7151L58.4692 74.1097L58.6183 73.8863L58.0267 73.4917ZM57.8777 73.7151L57.2861 73.3205C57.2054 73.4414 57.1155 73.5577 57.0159 73.6694L57.5468 74.1425L58.0777 74.6157C58.2205 74.4554 58.3512 74.2867 58.4692 74.1097L57.8777 73.7151ZM57.5468 74.1425L57.0159 73.6694L56.8341 73.8733L57.365 74.3465L57.8959 74.8196L58.0777 74.6157L57.5468 74.1425ZM57.365 74.3465L56.8341 73.8733L56.6523 74.0773L57.1832 74.5505L57.714 75.0236L57.8959 74.8196L57.365 74.3465ZM57.1832 74.5505L56.6523 74.0773C56.6531 74.0765 56.6558 74.0736 56.6608 74.0699C56.6658 74.0662 56.671 74.0632 56.6757 74.061C56.6803 74.0589 56.6824 74.0586 56.6808 74.059C56.6789 74.0594 56.6725 74.0607 56.6602 74.0614L56.7002 74.7714L56.7402 75.4814C57.108 75.4607 57.4535 75.3159 57.714 75.0236L57.1832 74.5505ZM56.7002 74.7714L56.6602 74.0614L56.359 74.0784L56.399 74.7884L56.439 75.4984L56.7402 75.4814L56.7002 74.7714ZM56.399 74.7884L56.359 74.0784L56.0578 74.0953L56.0978 74.8053L56.1378 75.5153L56.439 75.4984L56.399 74.7884ZM56.0978 74.8053L56.0578 74.0953C55.657 74.1179 55.3047 74.2972 55.0541 74.6168L55.6137 75.0556L56.1734 75.4944C56.1758 75.4913 56.1752 75.4925 56.1711 75.496C56.1667 75.4997 56.1605 75.5041 56.1528 75.5081C56.1451 75.5121 56.1386 75.5143 56.1346 75.5153C56.1308 75.5163 56.1314 75.5157 56.1378 75.5153L56.0978 74.8053ZM55.6137 75.0556L55.0541 74.6168L54.8712 74.8501L55.4308 75.2889L55.9904 75.7277L56.1734 75.4944L55.6137 75.0556ZM55.4308 75.2889L54.8712 74.8501L54.6883 75.0834L55.2479 75.5222L55.8075 75.961L55.9904 75.7277L55.4308 75.2889ZM55.2479 75.5222L54.6883 75.0834C54.6832 75.0899 54.6956 75.0723 54.7301 75.0555C54.7663 75.0379 54.7983 75.035 54.8119 75.0355L54.788 75.7462L54.7641 76.4569C55.1934 76.4713 55.557 76.2805 55.8075 75.961L55.2479 75.5222ZM54.788 75.7462L54.8119 75.0355L54.5349 75.0261L54.511 75.7369L54.4871 76.4476L54.7641 76.4569L54.788 75.7462ZM54.511 75.7369L54.5349 75.0261L54.2579 75.0168L54.234 75.7275L54.2101 76.4382L54.4871 76.4476L54.511 75.7369ZM54.234 75.7275L54.2579 75.0168C54.02 75.0088 53.7851 75.0276 53.5549 75.0748L53.6979 75.7714L53.8408 76.468C53.9562 76.4443 54.0788 76.4338 54.2101 76.4382L54.234 75.7275ZM53.6979 75.7714L53.5549 75.0748L53.2958 75.128L53.4387 75.8246L53.5817 76.5212L53.8408 76.468L53.6979 75.7714ZM53.4387 75.8246L53.2958 75.128L53.0366 75.1812L53.1796 75.8778L53.3225 76.5744L53.5817 76.5212L53.4387 75.8246ZM53.1796 75.8778L53.0366 75.1812C52.9689 75.1951 52.8983 75.195 52.8175 75.1758L52.6538 75.8679L52.49 76.5599C52.7648 76.6249 53.0448 76.6314 53.3225 76.5744L53.1796 75.8778ZM52.6538 75.8679L52.8175 75.1758L52.5508 75.1128L52.3871 75.8048L52.2234 76.4968L52.49 76.5599L52.6538 75.8679ZM52.3871 75.8048L52.5508 75.1128L52.2841 75.0497L52.1204 75.7417L51.9567 76.4337L52.2234 76.4968L52.3871 75.8048ZM52.1204 75.7417L52.2841 75.0497C52.0264 74.9887 51.7643 74.9731 51.5016 75.0049L51.5871 75.7109L51.6725 76.4168C51.7654 76.4056 51.8588 76.4105 51.9567 76.4337L52.1204 75.7417ZM51.5871 75.7109L51.5016 75.0049L51.235 75.0372L51.3204 75.7431L51.4059 76.4491L51.6725 76.4168L51.5871 75.7109ZM51.3204 75.7431L51.235 75.0372L50.9683 75.0695L51.0537 75.7754L51.1392 76.4814L51.4059 76.4491L51.3204 75.7431ZM51.0537 75.7754L50.9683 75.0695C50.8742 75.0809 50.7796 75.076 50.6808 75.0532L50.5204 75.746L50.3601 76.4388C50.6168 76.4982 50.8778 76.513 51.1392 76.4814L51.0537 75.7754ZM50.5204 75.746L50.6808 75.0532L50.4141 74.9915L50.2537 75.6843L50.0934 76.3771L50.3601 76.4388L50.5204 75.746ZM50.2537 75.6843L50.4141 74.9915L50.1474 74.9297L49.9871 75.6225L49.8267 76.3153L50.0934 76.3771L50.2537 75.6843ZM49.9871 75.6225L50.1474 74.9297C49.8658 74.8646 49.58 74.8635 49.2979 74.9269L49.4537 75.6207L49.6096 76.3146C49.6831 76.298 49.7528 76.2982 49.8267 76.3153L49.9871 75.6225ZM49.4537 75.6207L49.2979 74.9269L49.0312 74.9868L49.1871 75.6806L49.343 76.3745L49.6096 76.3146L49.4537 75.6207ZM49.1871 75.6806L49.0312 74.9868L48.7645 75.0467L48.9204 75.7406L49.0763 76.4344L49.343 76.3745L49.1871 75.6806ZM48.9204 75.7406L48.7645 75.0467C48.5455 75.096 48.3293 75.165 48.1164 75.2526L48.3871 75.9102L48.6577 76.5678C48.8004 76.5091 48.9398 76.465 49.0763 76.4344L48.9204 75.7406ZM48.3871 75.9102L48.1164 75.2526L47.8498 75.3624L48.1204 76.02L48.3911 76.6776L48.6577 76.5678L48.3871 75.9102ZM48.1204 76.02L47.8498 75.3624L47.5831 75.4721L47.8537 76.1297L48.1244 76.7873L48.3911 76.6776L48.1204 76.02ZM47.8537 76.1297L47.5831 75.4721C47.5044 75.5045 47.443 75.5109 47.3896 75.5057L47.3204 76.2134L47.2512 76.9211C47.5534 76.9507 47.8476 76.9013 48.1244 76.7873L47.8537 76.1297ZM47.3204 76.2134L47.3896 75.5057L47.1229 75.4796L47.0537 76.1873L46.9845 76.8951L47.2512 76.9211L47.3204 76.2134ZM47.0537 76.1873L47.1229 75.4796L46.8563 75.4535L46.7871 76.1613L46.7179 76.869L46.9845 76.8951L47.0537 76.1873ZM46.7871 76.1613L46.8563 75.4535C46.708 75.439 46.559 75.4151 46.4091 75.3816L46.2537 76.0755L46.0984 76.7695C46.3041 76.8155 46.5106 76.8487 46.7179 76.869L46.7871 76.1613ZM46.2537 76.0755L46.4091 75.3816L46.1424 75.3219L45.9871 76.0158L45.8318 76.7098L46.0984 76.7695L46.2537 76.0755ZM45.9871 76.0158L46.1424 75.3219L45.8757 75.2622L45.7204 75.9562L45.5651 76.6501L45.8318 76.7098L45.9871 76.0158ZM45.7204 75.9562L45.8757 75.2622C45.6546 75.2127 45.4317 75.1844 45.2073 75.1781L45.1871 75.8889L45.1668 76.5997C45.2981 76.6034 45.4306 76.62 45.5651 76.6501L45.7204 75.9562ZM45.1871 75.8889L45.2073 75.1781L44.9407 75.1705L44.9204 75.8813L44.9002 76.5921L45.1668 76.5997L45.1871 75.8889ZM44.9204 75.8813L44.9407 75.1705L44.674 75.1629L44.6537 75.8737L44.6335 76.5845L44.9002 76.5921L44.9204 75.8813ZM44.6537 75.8737L44.674 75.1629C44.4471 75.1564 44.2209 75.1734 43.9962 75.2132L44.1204 75.9134L44.2447 76.6136C44.3755 76.5904 44.5049 76.5808 44.6335 76.5845L44.6537 75.8737ZM44.1204 75.9134L43.9962 75.2132L43.7295 75.2606L43.8537 75.9607L43.978 76.6609L44.2447 76.6136L44.1204 75.9134ZM43.8537 75.9607L43.7295 75.2606L43.4628 75.3079L43.5871 76.008L43.7113 76.7082L43.978 76.6609L43.8537 75.9607ZM43.5871 76.008L43.4628 75.3079C43.3176 75.3336 43.1732 75.3489 43.0295 75.3538L43.0537 76.0645L43.078 76.7752C43.2898 76.7679 43.501 76.7455 43.7113 76.7082L43.5871 76.008ZM43.0537 76.0645L43.0295 75.3538L42.7628 75.3629L42.7871 76.0736L42.8113 76.7843L43.078 76.7752L43.0537 76.0645ZM42.7871 76.0736L42.7628 75.3629L42.4962 75.372L42.5204 76.0827L42.5447 76.7934L42.8113 76.7843L42.7871 76.0736ZM42.5204 76.0827L42.4962 75.372C42.3621 75.3765 42.2276 75.3689 42.0922 75.3486L41.9871 76.0519L41.882 76.7552C42.1021 76.7881 42.3232 76.8009 42.5447 76.7934L42.5204 76.0827ZM41.9871 76.0519L42.0922 75.3486L41.8255 75.3088L41.7204 76.0121L41.6153 76.7154L41.882 76.7552L41.9871 76.0519ZM41.7204 76.0121L41.8255 75.3088L41.5588 75.2689L41.4537 75.9722L41.3487 76.6755L41.6153 76.7154L41.7204 76.0121ZM41.4537 75.9722L41.5588 75.2689C41.4132 75.2472 41.2672 75.2152 41.1206 75.1727L40.9224 75.8556L40.7243 76.5385C40.9306 76.5984 41.1387 76.6442 41.3487 76.6755L41.4537 75.9722ZM40.9224 75.8556L41.1206 75.1727L40.856 75.0959L40.6578 75.7788L40.4596 76.4617L40.7243 76.5385L40.9224 75.8556ZM40.6578 75.7788L40.856 75.0959L40.5914 75.0191L40.3932 75.702L40.195 76.3849L40.4596 76.4617L40.6578 75.7788ZM40.3932 75.702L40.5914 75.0191C40.3102 74.9375 40.0207 74.9219 39.732 74.9759L39.8626 75.6749L39.9931 76.3739C40.059 76.3616 40.1233 76.3641 40.195 76.3849L40.3932 75.702ZM39.8626 75.6749L39.732 74.9759L39.466 75.0255L39.5966 75.7246L39.7271 76.4236L39.9931 76.3739L39.8626 75.6749ZM39.5966 75.7246L39.466 75.0255L39.2 75.0752L39.3306 75.7742L39.4611 76.4733L39.7271 76.4236L39.5966 75.7246ZM39.3306 75.7742L39.2 75.0752C39.1337 75.0876 39.0778 75.0836 39.0219 75.0662L38.8115 75.7455L38.6011 76.4248C38.8826 76.512 39.1727 76.5271 39.4611 76.4733L39.3306 75.7742ZM38.8115 75.7455L39.0219 75.0662L38.7688 74.9879L38.5584 75.6671L38.348 76.3464L38.6011 76.4248L38.8115 75.7455ZM38.5584 75.6671L38.7688 74.9879L38.5157 74.9095L38.3053 75.5887L38.0949 76.268L38.348 76.3464L38.5584 75.6671ZM38.3053 75.5887L38.5157 74.9095C38.3199 74.8489 38.1181 74.7991 37.9105 74.7599L37.7784 75.4586L37.6464 76.1574C37.8038 76.1871 37.9532 76.2241 38.0949 76.268L38.3053 75.5887ZM37.7784 75.4586L37.9105 74.7599L37.6367 74.7082L37.5047 75.4069L37.3727 76.1057L37.6464 76.1574L37.7784 75.4586ZM37.5047 75.4069L37.6367 74.7082L37.363 74.6564L37.231 75.3552L37.099 76.0539L37.3727 76.1057L37.5047 75.4069ZM37.231 75.3552L37.363 74.6564C37.2774 74.6403 37.204 74.6092 37.1361 74.5622L36.7309 75.1466L36.3258 75.731C36.5596 75.8931 36.8196 76.0012 37.099 76.0539L37.231 75.3552ZM36.7309 75.1466L37.1361 74.5622L36.9097 74.4052L36.5046 74.9897L36.0994 75.5741L36.3258 75.731L36.7309 75.1466ZM36.5046 74.9897L36.9097 74.4052L36.6834 74.2483L36.2782 74.8327L35.8731 75.4171L36.0994 75.5741L36.5046 74.9897ZM36.2782 74.8327L36.6834 74.2483C36.6657 74.2361 36.6452 74.2178 36.6255 74.1614L35.9542 74.3958L35.2828 74.6301C35.3934 74.9471 35.589 75.2202 35.8731 75.4171L36.2782 74.8327ZM35.9542 74.3958L36.6255 74.1614L36.5278 73.8813L35.8564 74.1157L35.185 74.35L35.2828 74.6301L35.9542 74.3958ZM35.8564 74.1157L36.5278 73.8813L36.43 73.6013L35.7586 73.8356L35.0872 74.0699L35.185 74.35L35.8564 74.1157ZM35.7586 73.8356L36.43 73.6013C36.3512 73.3755 36.2549 73.1637 36.1377 72.9707L35.5299 73.3398L34.922 73.7089C34.9795 73.8035 35.0357 73.9223 35.0872 74.0699L35.7586 73.8356ZM35.5299 73.3398L36.1377 72.9707L36.0067 72.755L35.3989 73.124L34.791 73.4931L34.922 73.7089L35.5299 73.3398ZM35.3989 73.124L36.0067 72.755L35.8757 72.5392L35.2679 72.9083L34.66 73.2774L34.791 73.4931L35.3989 73.124ZM35.2679 72.9083L35.8757 72.5392C35.7588 72.3467 35.6193 72.1687 35.4595 72.005L34.9506 72.5017L34.4417 72.9984C34.5303 73.0892 34.6023 73.1822 34.66 73.2774L35.2679 72.9083ZM34.9506 72.5017L35.4595 72.005L35.2732 71.8141L34.7643 72.3108L34.2554 72.8075L34.4417 72.9984L34.9506 72.5017ZM34.7643 72.3108L35.2732 71.8141L35.0869 71.6233L34.578 72.12L34.0691 72.6167L34.2554 72.8075L34.7643 72.3108ZM34.578 72.12L35.0869 71.6233C34.9949 71.5291 34.9093 71.4231 34.8304 71.3043L34.238 71.6977L33.6456 72.0911C33.7716 72.2808 33.9127 72.4564 34.0691 72.6167L34.578 72.12ZM34.238 71.6977L34.8304 71.3043L34.6767 71.0729L34.0843 71.4663L33.492 71.8597L33.6456 72.0911L34.238 71.6977ZM34.0843 71.4663L34.6767 71.0729L34.523 70.8414L33.9306 71.2349L33.3383 71.6283L33.492 71.8597L34.0843 71.4663ZM33.9306 71.2349L34.523 70.8414C34.5306 70.8529 34.5446 70.8812 34.5485 70.9201C34.5522 70.957 34.544 70.9753 34.5474 70.9661L33.8792 70.7227L33.2111 70.4793C33.0723 70.86 33.1002 71.2699 33.3383 71.6283L33.9306 71.2349ZM33.8792 70.7227L34.5474 70.9661L34.6496 70.6854L33.9815 70.442L33.3133 70.1985L33.2111 70.4793L33.8792 70.7227ZM33.9815 70.442L34.6496 70.6854L34.7519 70.4046L34.0838 70.1612L33.4156 69.9178L33.3133 70.1985L33.9815 70.442ZM34.0838 70.1612L34.7519 70.4046C34.8632 70.0992 34.8926 69.7717 34.8067 69.4434L34.1188 69.6233L33.4308 69.8033C33.4346 69.8179 33.4407 69.8489 33.4156 69.9178L34.0838 70.1612ZM34.1188 69.6233L34.8067 69.4434L34.7395 69.1862L34.0515 69.3662L33.3636 69.5462L33.4308 69.8033L34.1188 69.6233ZM34.0515 69.3662L34.7395 69.1862L34.6722 68.9291L33.9842 69.1091L33.2963 69.2891L33.3636 69.5462L34.0515 69.3662ZM33.9842 69.1091L34.6722 68.9291C34.6637 68.8967 34.6656 68.8781 34.6749 68.853L34.008 68.6061L33.3411 68.3593C33.2291 68.6619 33.2151 68.9787 33.2963 69.2891L33.9842 69.1091ZM34.008 68.6061L34.6749 68.853L34.7659 68.6071L34.099 68.3603L33.4321 68.1134L33.3411 68.3593L34.008 68.6061ZM34.099 68.3603L34.7659 68.6071L34.8569 68.3613L34.19 68.1144L33.5231 67.8676L33.4321 68.1134L34.099 68.3603ZM34.19 68.1144L34.8569 68.3613C34.9143 68.2061 34.9736 68.0551 35.0348 67.9085L34.3784 67.6348L33.7221 67.3612C33.6533 67.5262 33.587 67.695 33.5231 67.8676L34.19 68.1144ZM34.3784 67.6348L35.0348 67.9085L35.1322 67.6747L34.4759 67.4011L33.8195 67.1275L33.7221 67.3612L34.3784 67.6348ZM34.4759 67.4011L35.1322 67.6747L35.2297 67.441L34.5733 67.1674L33.9169 66.8937L33.8195 67.1275L34.4759 67.4011ZM34.5733 67.1674L35.2297 67.441C35.3203 67.2236 35.3803 66.9941 35.4133 66.7558L34.709 66.6581L34.0046 66.5603C33.9867 66.6895 33.9562 66.7995 33.9169 66.8937L34.5733 67.1674ZM34.709 66.6581L35.4133 66.7558L35.4516 66.4802L34.7472 66.3825L34.0429 66.2847L34.0046 66.5603L34.709 66.6581ZM34.7472 66.3825L35.4516 66.4802L35.4898 66.2046L34.7855 66.1069L34.0811 66.0091L34.0429 66.2847L34.7472 66.3825ZM34.7855 66.1069L35.4898 66.2046C35.5029 66.1105 35.5318 66.0274 35.5765 65.95L34.9609 65.5941L34.3452 65.2382C34.2071 65.4771 34.119 65.7359 34.0811 66.0091L34.7855 66.1069ZM34.9609 65.5941L35.5765 65.95L35.7136 65.7128L35.098 65.3569L34.4824 65.001L34.3452 65.2382L34.9609 65.5941ZM35.098 65.3569L35.7136 65.7128L35.8508 65.4755L35.2351 65.1196L34.6195 64.7637L34.4824 65.001L35.098 65.3569ZM35.2351 65.1196L35.8508 65.4755C35.9054 65.3811 35.9723 65.2981 36.0533 65.2246L35.5754 64.698L35.0974 64.1715C34.9076 64.3438 34.7478 64.5419 34.6195 64.7637L35.2351 65.1196ZM35.5754 64.698L36.0533 65.2246L36.2565 65.0402L35.7785 64.5137L35.3006 63.9871L35.0974 64.1715L35.5754 64.698ZM35.7785 64.5137L36.2565 65.0402L36.4596 64.8558L35.9816 64.3293L35.5037 63.8028L35.3006 63.9871L35.7785 64.5137ZM35.9816 64.3293L36.4596 64.8558C36.6027 64.7259 36.7453 64.5907 36.8872 64.4504L36.3872 63.9447L35.8872 63.4391C35.7592 63.5657 35.6313 63.6869 35.5037 63.8028L35.9816 64.3293ZM36.3872 63.9447L36.8872 64.4504L37.0897 64.2502L36.5897 63.7445L36.0897 63.2389L35.8872 63.4391L36.3872 63.9447ZM36.5897 63.7445L37.0897 64.2502L37.2921 64.05L36.7921 63.5443L36.2921 63.0387L36.0897 63.2389L36.5897 63.7445ZM36.7921 63.5443L37.2921 64.05C37.3483 63.9945 37.409 63.9579 37.4814 63.9346L37.2638 63.2576L37.0462 62.5806C36.7597 62.6727 36.5059 62.8273 36.2921 63.0387L36.7921 63.5443ZM37.2638 63.2576L37.4814 63.9346L37.7507 63.8481L37.533 63.1711L37.3154 62.4941L37.0462 62.5806L37.2638 63.2576ZM37.533 63.1711L37.7507 63.8481L38.0199 63.7615L37.8022 63.0845L37.5846 62.4075L37.3154 62.4941L37.533 63.1711ZM37.8022 63.0845L38.0199 63.7615C38.0997 63.7358 38.1824 63.7272 38.2753 63.7383L38.3591 63.0321L38.4429 62.3259C38.1522 62.2915 37.8637 62.3178 37.5846 62.4075L37.8022 63.0845ZM38.3591 63.0321L38.2753 63.7383L38.5629 63.7724L38.6467 63.0662L38.7305 62.3601L38.4429 62.3259L38.3591 63.0321ZM38.6467 63.0662L38.5629 63.7724L38.8506 63.8065L38.9343 63.1003L39.0181 62.3942L38.7305 62.3601L38.6467 63.0662ZM38.9343 63.1003L38.8506 63.8065C39.1898 63.8467 39.5184 63.7824 39.8176 63.6224L39.4825 62.9953L39.1473 62.3681C39.0992 62.3938 39.0624 62.3994 39.0181 62.3942L38.9343 63.1003ZM39.4825 62.9953L39.8176 63.6224L40.0781 63.4832L39.7429 62.8561L39.4078 62.2289L39.1473 62.3681L39.4825 62.9953ZM39.7429 62.8561L40.0781 63.4832L40.3386 63.344L40.0034 62.7168L39.6683 62.0897L39.4078 62.2289L39.7429 62.8561ZM40.0034 62.7168L40.3386 63.344C40.4184 63.3014 40.4021 63.3204 40.3318 63.3336C40.3069 63.3382 40.1465 63.3698 39.9571 63.2837C39.8477 63.234 39.7419 63.1501 39.6654 63.0301C39.5922 62.9153 39.568 62.8022 39.5617 62.721L40.2708 62.6666L40.9798 62.6122C40.9625 62.3877 40.8349 62.1205 40.5458 61.9891C40.3331 61.8923 40.1386 61.9228 40.0692 61.9358C39.9098 61.9657 39.7622 62.0395 39.6683 62.0897L40.0034 62.7168ZM40.2708 62.6666L39.5617 62.721L39.5686 62.81L40.2776 62.7556L40.9866 62.7012L40.9798 62.6122L40.2708 62.6666ZM40.2776 62.7556L39.5686 62.81L39.5754 62.899L40.2844 62.8446L40.9934 62.7902L40.9866 62.7012L40.2776 62.7556ZM40.2844 62.8446L39.5754 62.899C39.5926 63.1232 39.7089 63.3373 39.9111 63.4714C40.0761 63.5808 40.2413 63.5988 40.3239 63.6026C40.4909 63.6102 40.651 63.5701 40.7541 63.5405L40.5579 62.857L40.3617 62.1735C40.287 62.195 40.3127 62.1784 40.3885 62.1818C40.4256 62.1835 40.556 62.1925 40.6971 62.2861C40.8753 62.4043 40.9785 62.5957 40.9934 62.7902L40.2844 62.8446ZM40.5579 62.857L40.7541 63.5405L41.0208 63.464L40.8246 62.7805L40.6283 62.097L40.3617 62.1735L40.5579 62.857Z" fill="#3D3D3D"/>
<path d="M75.8925 62.8197L75.7923 62.1157L75.8925 62.8197ZM76.4258 62.7264L76.5702 63.4228L76.4258 62.7264ZM76.9592 62.6159L76.8148 61.9196L76.9592 62.6159ZM77.4925 62.6708L77.7642 62.0137L77.4925 62.6708ZM78.0258 62.8913L78.2975 62.2341L78.0258 62.8913ZM78.5592 62.925L78.363 62.2415L78.5592 62.925ZM78.8258 62.8485L79.022 63.532L78.8258 62.8485ZM79.6258 62.6487L79.7485 63.3491L79.6258 62.6487ZM80.1592 62.5553L80.0365 61.8548L80.1592 62.5553ZM81.2258 62.5675L81.1736 63.2767L81.2258 62.5675ZM81.7592 62.7678L81.3604 63.3566L81.7592 62.7678ZM82.2925 63.1291L82.6913 62.5404L82.2925 63.1291ZM84.4258 63.3131L84.5162 62.6078L84.4258 63.3131ZM84.9592 63.1823L84.585 62.5776L84.9592 63.1823ZM85.4925 62.8522L85.8667 63.4569L85.4925 62.8522ZM87.092 62.7868L87.2978 62.1061L87.092 62.7868ZM87.3581 62.8673L87.564 62.1866L87.3581 62.8673ZM87.6243 62.9477L87.4185 63.6284L87.6243 62.9477ZM88.1425 63.1031L88.3449 62.4214L88.1425 63.1031ZM89.16 63.3535L89.0898 64.0611L89.16 63.3535ZM89.6826 63.4054L89.6123 64.113L89.6826 63.4054ZM90.147 63.6027L90.6056 63.0593L90.147 63.6027ZM90.5533 63.9456L90.0946 64.4891L90.5533 63.9456ZM91.0112 64.2005L90.7897 64.8763L91.0112 64.2005ZM91.5208 64.3675L91.2993 65.0433L91.5208 64.3675ZM92.0556 64.5539L91.8105 65.2214L92.0556 64.5539ZM93.135 65.3786L92.4898 65.6775L93.135 65.3786ZM93.2546 65.6366L93.8998 65.3376L93.2546 65.6366ZM93.4973 66.1386L92.8626 66.4591L93.4973 66.1386ZM93.7437 66.6264L94.3784 66.3058L93.7437 66.6264ZM93.9482 67.1306L93.2694 67.3426L93.9482 67.1306ZM94.0295 67.3909L94.7082 67.1789L94.0295 67.3909ZM94.1108 67.6512L94.7895 67.4392L94.1108 67.6512ZM94.1162 68.1888L93.4303 68.0012L94.1162 68.1888ZM94.0404 68.4661L94.7264 68.6536L94.0404 68.4661ZM93.9646 68.7433L94.6505 68.9309L93.9646 68.7433ZM93.9624 69.2815L93.278 69.4746L93.9624 69.2815ZM94.036 69.5424L94.7204 69.3493L94.036 69.5424ZM94.1096 69.8033L93.4252 69.9964L94.1096 69.8033ZM94.2305 70.3508L93.5289 70.4666L94.2305 70.3508ZM94.3251 70.9241L95.0268 70.8083L94.3251 70.9241ZM93.8566 71.5948L94.2813 72.1651L93.8566 71.5948ZM93.5987 71.7869L93.174 71.2165L93.5987 71.7869ZM93.2499 72.2206L92.5843 71.9703L93.2499 72.2206ZM93.0681 72.704L93.7337 72.9543L93.0681 72.704ZM92.8891 73.2161L92.213 72.9958L92.8891 73.2161ZM92.713 73.7568L93.3891 73.977L92.713 73.7568ZM92.4135 74.2013L92.8656 74.7502L92.4135 74.2013ZM91.9906 74.5497L91.5384 74.0009L91.9906 74.5497ZM91.5737 74.9154L91.0888 74.3952L91.5737 74.9154ZM91.3683 75.1068L91.8531 75.627L91.3683 75.1068ZM89.6372 75.8614L89.39 76.5282L89.6372 75.8614ZM88.4749 75.5978L88.6766 76.2797L88.4749 75.5978ZM87.9726 75.7465L88.1744 76.4284L87.9726 75.7465ZM87.4549 75.8105L87.4824 75.0999L87.4549 75.8105ZM86.9216 75.7898L86.8941 76.5004L86.9216 75.7898ZM86.3884 75.8047L86.3213 75.0968L86.3884 75.8047ZM86.1217 75.83L86.1887 76.5379L86.1217 75.83ZM85.855 75.8552L85.9221 76.5632L85.855 75.8552ZM85.3217 75.8018L85.1206 76.4839L85.3217 75.8018ZM85.055 75.7232L85.2561 75.0411L85.055 75.7232ZM84.7884 75.6446L84.5872 76.3267L84.7884 75.6446ZM84.255 75.5922L84.1854 74.8845L84.255 75.5922ZM83.9884 75.6184L84.058 76.3261L83.9884 75.6184ZM83.7217 75.6447L83.7913 76.3524L83.7217 75.6447ZM83.1884 75.724L83.3273 76.4214L83.1884 75.724ZM82.655 75.8302L82.5161 75.1328L82.655 75.8302ZM82.1217 75.906L82.0616 75.1974L82.1217 75.906ZM81.5884 75.9512L81.5282 75.2426L81.5884 75.9512ZM81.055 75.9156L80.9034 76.6104L81.055 75.9156ZM80.5217 75.7993L80.6733 75.1045L80.5217 75.7993ZM79.9884 75.9016L80.3551 76.5109L79.9884 75.9016ZM79.7217 76.0622L79.3549 75.4529L79.7217 76.0622ZM79.455 76.2227L79.8218 76.8319L79.455 76.2227ZM77.855 76.2889L77.6239 76.9614L77.855 76.2889ZM77.3217 76.1056L77.0906 76.7781L77.3217 76.1056ZM76.7884 75.9899L76.8522 75.2817L76.7884 75.9899ZM76.255 75.9418L76.1912 76.6501L76.255 75.9418ZM75.724 75.8331L75.507 76.5103L75.724 75.8331ZM75.4597 75.7484L75.6767 75.0712L75.4597 75.7484ZM75.1953 75.6637L74.9784 76.3409L75.1953 75.6637ZM74.6834 75.5427L74.7866 74.8391L74.6834 75.5427ZM74.4357 75.5063L74.3325 76.2099L74.4357 75.5063ZM74.1881 75.47L74.2914 74.7664L74.1881 75.47ZM73.6908 75.393L73.5766 76.0949L73.6908 75.393ZM73.1915 75.3117L73.0772 76.0136L73.1915 75.3117ZM72.624 75.3177L72.5208 74.6141L72.624 75.3177ZM71.5524 75.156L72.2146 74.8966L71.5524 75.156ZM71.4343 74.8543L70.7722 75.1137L71.4343 74.8543ZM71.3161 74.5527L70.654 74.812L71.3161 74.5527ZM70.9464 74.1372L70.6533 74.7851L70.9464 74.1372ZM70.4432 73.9096L70.7363 73.2617L70.4432 73.9096ZM70.0136 73.5923L70.5489 73.1241L70.0136 73.5923ZM69.6577 73.1853L69.1224 73.6535L69.6577 73.1853ZM69.4394 72.7054L68.7357 72.8081L69.4394 72.7054ZM69.3991 72.4291L68.6954 72.5317L69.3991 72.4291ZM69.3587 72.1527L70.0624 72.05L69.3587 72.1527ZM69.1354 71.6576L68.5901 72.114L69.1354 71.6576ZM68.9523 71.4389L69.4976 70.9825L68.9523 71.4389ZM68.7693 71.2202L69.3146 70.7638L68.7693 71.2202ZM68.6618 70.1765L67.9536 70.1116L68.6618 70.1765ZM68.7636 66.9218L68.0951 66.6793L68.7636 66.9218ZM69.4231 66.3652L69.0946 65.7345L69.4231 66.3652ZM70.0474 65.7868L69.3517 65.6396L70.0474 65.7868ZM71.259 64.0857L71.3217 64.7941L71.259 64.0857ZM71.5575 64.0593L71.4948 63.351L71.5575 64.0593ZM71.8559 64.0329L71.7933 63.3246L71.8559 64.0329ZM72.3292 63.7406L71.7351 63.3499L72.3292 63.7406ZM72.5041 63.4747L73.0983 63.8654L72.5041 63.4747ZM72.6789 63.2088L72.0847 62.8181L72.6789 63.2088ZM73.1339 62.9181L73.0713 62.2098L73.1339 62.9181ZM73.4141 62.8933L73.4767 63.6017L73.4141 62.8933ZM73.6942 62.8686L73.6316 62.1602L73.6942 62.8686ZM74.2473 62.8295L74.2101 62.1194L74.2473 62.8295ZM75.0726 62.8234L75.7724 62.6971L75.0726 62.8234ZM75.0859 62.8969L74.3861 63.0231L75.0859 62.8969ZM75.6258 62.8577L75.7261 63.5617L75.9927 63.5237L75.8925 62.8197L75.7923 62.1157L75.5256 62.1536L75.6258 62.8577ZM75.8925 62.8197L75.9927 63.5237C76.1855 63.4963 76.378 63.4626 76.5702 63.4228L76.4258 62.7264L76.2815 62.0301C76.1182 62.064 75.9551 62.0925 75.7923 62.1157L75.8925 62.8197ZM76.4258 62.7264L76.5702 63.4228L76.8369 63.3675L76.6925 62.6712L76.5482 61.9749L76.2815 62.0301L76.4258 62.7264ZM76.6925 62.6712L76.8369 63.3675L77.1035 63.3122L76.9592 62.6159L76.8148 61.9196L76.5482 61.9749L76.6925 62.6712ZM76.9592 62.6159L77.1035 63.3122C77.1333 63.306 77.1664 63.3055 77.2209 63.328L77.4925 62.6708L77.7642 62.0137C77.463 61.8892 77.1406 61.8521 76.8148 61.9196L76.9592 62.6159ZM77.4925 62.6708L77.2209 63.328L77.4875 63.4382L77.7592 62.7811L78.0308 62.1239L77.7642 62.0137L77.4925 62.6708ZM77.7592 62.7811L77.4875 63.4382L77.7542 63.5485L78.0258 62.8913L78.2975 62.2341L78.0308 62.1239L77.7592 62.7811ZM78.0258 62.8913L77.7542 63.5485C78.074 63.6807 78.4166 63.7057 78.7553 63.6085L78.5592 62.925L78.363 62.2415C78.3462 62.2463 78.3332 62.2489 78.2975 62.2341L78.0258 62.8913ZM78.5592 62.925L78.7553 63.6085L79.022 63.532L78.8258 62.8485L78.6297 62.1649L78.363 62.2415L78.5592 62.925ZM78.8258 62.8485L79.022 63.532L79.2887 63.4554L79.0925 62.7719L78.8963 62.0884L78.6297 62.1649L78.8258 62.8485ZM79.0925 62.7719L79.2887 63.4554C79.4429 63.4112 79.5961 63.3758 79.7485 63.3491L79.6258 62.6487L79.5031 61.9482C79.3 61.9838 79.0977 62.0306 78.8963 62.0884L79.0925 62.7719ZM79.6258 62.6487L79.7485 63.3491L80.0152 63.3024L79.8925 62.602L79.7698 61.9015L79.5031 61.9482L79.6258 62.6487ZM79.8925 62.602L80.0152 63.3024L80.2819 63.2557L80.1592 62.5553L80.0365 61.8548L79.7698 61.9015L79.8925 62.602ZM80.1592 62.5553L80.2819 63.2557C80.4026 63.2346 80.5216 63.2287 80.6402 63.2374L80.6925 62.5282L80.7448 61.819C80.5078 61.8016 80.2713 61.8137 80.0365 61.8548L80.1592 62.5553ZM80.6925 62.5282L80.6402 63.2374L80.9069 63.2571L80.9592 62.5479L81.0115 61.8387L80.7448 61.819L80.6925 62.5282ZM80.9592 62.5479L80.9069 63.2571L81.1736 63.2767L81.2258 62.5675L81.2781 61.8583L81.0115 61.8387L80.9592 62.5479ZM81.2258 62.5675L81.1736 63.2767C81.2042 63.279 81.2645 63.2917 81.3604 63.3566L81.7592 62.7678L82.158 62.1791C81.8983 62.0032 81.6031 61.8823 81.2781 61.8583L81.2258 62.5675ZM81.7592 62.7678L81.3604 63.3566L81.627 63.5372L82.0258 62.9485L82.4247 62.3597L82.158 62.1791L81.7592 62.7678ZM82.0258 62.9485L81.627 63.5372L81.8937 63.7179L82.2925 63.1291L82.6913 62.5404L82.4247 62.3597L82.0258 62.9485ZM82.2925 63.1291L81.8937 63.7179C82.1791 63.9112 82.5183 64.0277 82.8916 63.993L82.8258 63.285L82.7601 62.5769C82.7638 62.5766 82.7648 62.5776 82.7587 62.5758C82.751 62.5736 82.7286 62.5656 82.6913 62.5404L82.2925 63.1291ZM82.8258 63.285L82.8916 63.993L83.1583 63.9683L83.0925 63.2602L83.0267 62.5521L82.7601 62.5769L82.8258 63.285ZM83.0925 63.2602L83.1583 63.9683L83.4249 63.9435L83.3592 63.2354L83.2934 62.5274L83.0267 62.5521L83.0925 63.2602ZM83.3592 63.2354L83.4249 63.9435C83.5505 63.9318 83.676 63.934 83.8022 63.9502L83.8925 63.2448L83.9828 62.5395C83.7535 62.5101 83.5234 62.506 83.2934 62.5274L83.3592 63.2354ZM83.8925 63.2448L83.8022 63.9502L84.0688 63.9843L84.1592 63.279L84.2495 62.5736L83.9828 62.5395L83.8925 63.2448ZM84.1592 63.279L84.0688 63.9843L84.3355 64.0185L84.4258 63.3131L84.5162 62.6078L84.2495 62.5736L84.1592 63.279ZM84.4258 63.3131L84.3355 64.0185C84.7012 64.0653 85.0411 63.9678 85.3334 63.7869L84.9592 63.1823L84.585 62.5776C84.5506 62.5989 84.5302 62.6051 84.523 62.6069C84.5173 62.6083 84.5164 62.6078 84.5162 62.6078L84.4258 63.3131ZM84.9592 63.1823L85.3334 63.7869L85.6 63.6219L85.2258 63.0172L84.8516 62.4125L84.585 62.5776L84.9592 63.1823ZM85.2258 63.0172L85.6 63.6219L85.8667 63.4569L85.4925 62.8522L85.1183 62.2475L84.8516 62.4125L85.2258 63.0172ZM85.4925 62.8522L85.8667 63.4569C85.9492 63.4059 85.9944 63.4026 86.0131 63.403L86.0258 62.692L86.0386 61.981C85.7018 61.9749 85.3914 62.0785 85.1183 62.2475L85.4925 62.8522ZM86.0258 62.692L86.0131 63.403L86.2798 63.4077L86.2925 62.6968L86.3053 61.9858L86.0386 61.981L86.0258 62.692ZM86.2925 62.6968L86.2798 63.4077L86.5464 63.4125L86.5592 62.7015L86.5719 61.9905L86.3053 61.9858L86.2925 62.6968ZM86.5592 62.7015L86.5464 63.4125C86.656 63.4145 86.7687 63.432 86.8862 63.4675L87.092 62.7868L87.2978 62.1061C87.0604 62.0343 86.8179 61.9949 86.5719 61.9905L86.5592 62.7015ZM87.092 62.7868L86.8862 63.4675L87.1523 63.5479L87.3581 62.8673L87.564 62.1866L87.2978 62.1061L87.092 62.7868ZM87.3581 62.8673L87.1523 63.5479L87.4185 63.6284L87.6243 62.9477L87.8301 62.2671L87.564 62.1866L87.3581 62.8673ZM87.6243 62.9477L87.4185 63.6284C87.597 63.6824 87.7708 63.7345 87.9401 63.7848L88.1425 63.1031L88.3449 62.4214C88.178 62.3718 88.0064 62.3204 87.8301 62.2671L87.6243 62.9477ZM88.1425 63.1031L87.9401 63.7848L88.1922 63.8596L88.3946 63.1779L88.597 62.4962L88.3449 62.4214L88.1425 63.1031ZM88.3946 63.1779L88.1922 63.8596L88.4443 63.9344L88.6467 63.2527L88.8491 62.571L88.597 62.4962L88.3946 63.1779ZM88.6467 63.2527L88.4443 63.9344C88.6554 63.9971 88.8708 64.0394 89.0898 64.0611L89.16 63.3535L89.2302 62.6459C89.1009 62.633 88.974 62.6082 88.8491 62.571L88.6467 63.2527ZM89.16 63.3535L89.0898 64.0611L89.3511 64.0871L89.4213 63.3794L89.4915 62.6718L89.2302 62.6459L89.16 63.3535ZM89.4213 63.3794L89.3511 64.0871L89.6123 64.113L89.6826 63.4054L89.7528 62.6977L89.4915 62.6718L89.4213 63.3794ZM89.6826 63.4054L89.6123 64.113C89.6415 64.1159 89.6613 64.1234 89.6883 64.1462L90.147 63.6027L90.6056 63.0593C90.3617 62.8535 90.0719 62.7294 89.7528 62.6977L89.6826 63.4054ZM90.147 63.6027L89.6883 64.1462L89.8915 64.3176L90.3501 63.7742L90.8087 63.2307L90.6056 63.0593L90.147 63.6027ZM90.3501 63.7742L89.8915 64.3176L90.0946 64.4891L90.5533 63.9456L91.0119 63.4021L90.8087 63.2307L90.3501 63.7742ZM90.5533 63.9456L90.0946 64.4891C90.3005 64.6628 90.5338 64.7924 90.7897 64.8763L91.0112 64.2005L91.2327 63.5248C91.1489 63.4973 91.0769 63.457 91.0119 63.4021L90.5533 63.9456ZM91.0112 64.2005L90.7897 64.8763L91.0445 64.9598L91.266 64.284L91.4874 63.6083L91.2327 63.5248L91.0112 64.2005ZM91.266 64.284L91.0445 64.9598L91.2993 65.0433L91.5208 64.3675L91.7422 63.6918L91.4874 63.6083L91.266 64.284ZM91.5208 64.3675L91.2993 65.0433C91.4604 65.0961 91.6307 65.1554 91.8105 65.2214L92.0556 64.5539L92.3007 63.8864C92.107 63.8152 91.9208 63.7503 91.7422 63.6918L91.5208 64.3675ZM92.0556 64.5539L91.8105 65.2214L92.0906 65.3243L92.3357 64.6567L92.5808 63.9892L92.3007 63.8864L92.0556 64.5539ZM92.3357 64.6567L92.0906 65.3243L92.3706 65.4271L92.6158 64.7596L92.8609 64.0921L92.5808 63.9892L92.3357 64.6567ZM92.6158 64.7596L92.3706 65.4271C92.3798 65.4305 92.3838 65.4328 92.3843 65.4331C92.3846 65.4333 92.3825 65.432 92.3791 65.429C92.3758 65.426 92.3729 65.4227 92.3708 65.4199C92.3688 65.4171 92.3689 65.4165 92.3702 65.4195L93.0154 65.1205L93.6606 64.8215C93.4975 64.4694 93.2149 64.2221 92.8609 64.0921L92.6158 64.7596ZM93.0154 65.1205L92.3702 65.4195L92.4898 65.6775L93.135 65.3786L93.7802 65.0796L93.6606 64.8215L93.0154 65.1205ZM93.135 65.3786L92.4898 65.6775L92.6094 65.9356L93.2546 65.6366L93.8998 65.3376L93.7802 65.0796L93.135 65.3786ZM93.2546 65.6366L92.6094 65.9356C92.6923 66.1146 92.7767 66.2891 92.8626 66.4591L93.4973 66.1386L94.1321 65.818C94.0537 65.6628 93.9763 65.5027 93.8998 65.3376L93.2546 65.6366ZM93.4973 66.1386L92.8626 66.4591L92.9857 66.703L93.6205 66.3825L94.2553 66.0619L94.1321 65.818L93.4973 66.1386ZM93.6205 66.3825L92.9857 66.703L93.1089 66.9469L93.7437 66.6264L94.3784 66.3058L94.2553 66.0619L93.6205 66.3825ZM93.7437 66.6264L93.1089 66.9469C93.1734 67.0747 93.2269 67.2065 93.2694 67.3426L93.9482 67.1306L94.6269 66.9186C94.561 66.7077 94.4782 66.5033 94.3784 66.3058L93.7437 66.6264ZM93.9482 67.1306L93.2694 67.3426L93.3507 67.6029L94.0295 67.3909L94.7082 67.1789L94.6269 66.9186L93.9482 67.1306ZM94.0295 67.3909L93.3507 67.6029L93.432 67.8632L94.1108 67.6512L94.7895 67.4392L94.7082 67.1789L94.0295 67.3909ZM94.1108 67.6512L93.432 67.8632C93.4434 67.8998 93.447 67.94 93.4303 68.0012L94.1162 68.1888L94.8022 68.3763C94.8865 68.0678 94.8865 67.7497 94.7895 67.4392L94.1108 67.6512ZM94.1162 68.1888L93.4303 68.0012L93.3545 68.2785L94.0404 68.4661L94.7264 68.6536L94.8022 68.3763L94.1162 68.1888ZM94.0404 68.4661L93.3545 68.2785L93.2787 68.5558L93.9646 68.7433L94.6505 68.9309L94.7264 68.6536L94.0404 68.4661ZM93.9646 68.7433L93.2787 68.5558C93.1962 68.8575 93.1917 69.1687 93.278 69.4746L93.9624 69.2815L94.6468 69.0884C94.635 69.0465 94.6319 68.9989 94.6505 68.9309L93.9646 68.7433ZM93.9624 69.2815L93.278 69.4746L93.3516 69.7355L94.036 69.5424L94.7204 69.3493L94.6468 69.0884L93.9624 69.2815ZM94.036 69.5424L93.3516 69.7355L93.4252 69.9964L94.1096 69.8033L94.794 69.6102L94.7204 69.3493L94.036 69.5424ZM94.1096 69.8033L93.4252 69.9964C93.4666 70.1431 93.5014 70.2997 93.5289 70.4666L94.2305 70.3508L94.9322 70.235C94.8966 70.0197 94.8508 69.8113 94.794 69.6102L94.1096 69.8033ZM94.2305 70.3508L93.5289 70.4666L93.5762 70.7532L94.2778 70.6374L94.9795 70.5217L94.9322 70.235L94.2305 70.3508ZM94.2778 70.6374L93.5762 70.7532L93.6235 71.0398L94.3251 70.9241L95.0268 70.8083L94.9795 70.5217L94.2778 70.6374ZM94.3251 70.9241L93.6235 71.0398C93.6194 71.0149 93.6187 70.9609 93.6452 70.9007C93.6699 70.8446 93.6996 70.8251 93.6898 70.8324L94.1145 71.4027L94.5392 71.9731C94.7014 71.8523 94.8522 71.689 94.947 71.4734C95.0437 71.2536 95.0624 71.0243 95.0268 70.8083L94.3251 70.9241ZM94.1145 71.4027L93.6898 70.8324L93.4319 71.0244L93.8566 71.5948L94.2813 72.1651L94.5392 71.9731L94.1145 71.4027ZM93.8566 71.5948L93.4319 71.0244L93.174 71.2165L93.5987 71.7869L94.0234 72.3572L94.2813 72.1651L93.8566 71.5948ZM93.5987 71.7869L93.174 71.2165C92.9195 71.406 92.7034 71.6536 92.5843 71.9703L93.2499 72.2206L93.9155 72.4709C93.9176 72.4654 93.934 72.4238 94.0234 72.3572L93.5987 71.7869ZM93.2499 72.2206L92.5843 71.9703L92.4934 72.212L93.159 72.4623L93.8246 72.7126L93.9155 72.4709L93.2499 72.2206ZM93.159 72.4623L92.4934 72.212L92.4025 72.4537L93.0681 72.704L93.7337 72.9543L93.8246 72.7126L93.159 72.4623ZM93.0681 72.704L92.4025 72.4537C92.3378 72.6258 92.2746 72.8065 92.213 72.9958L92.8891 73.2161L93.5652 73.4364C93.621 73.2652 93.6772 73.1046 93.7337 72.9543L93.0681 72.704ZM92.8891 73.2161L92.213 72.9958L92.1249 73.2662L92.801 73.4864L93.4772 73.7067L93.5652 73.4364L92.8891 73.2161ZM92.801 73.4864L92.1249 73.2662L92.0368 73.5365L92.713 73.7568L93.3891 73.977L93.4772 73.7067L92.801 73.4864ZM92.713 73.7568L92.0368 73.5365C92.0184 73.5933 91.9938 73.6257 91.9613 73.6525L92.4135 74.2013L92.8656 74.7502C93.1151 74.5447 93.2902 74.2807 93.3891 73.977L92.713 73.7568ZM92.4135 74.2013L91.9613 73.6525L91.7498 73.8267L92.202 74.3755L92.6542 74.9244L92.8656 74.7502L92.4135 74.2013ZM92.202 74.3755L91.7498 73.8267L91.5384 74.0009L91.9906 74.5497L92.4427 75.0986L92.6542 74.9244L92.202 74.3755ZM91.9906 74.5497L91.5384 74.0009C91.386 74.1265 91.2361 74.2579 91.0888 74.3952L91.5737 74.9154L92.0585 75.4356C92.1851 75.3176 92.3132 75.2053 92.4427 75.0986L91.9906 74.5497ZM91.5737 74.9154L91.0888 74.3952L90.8834 74.5867L91.3683 75.1068L91.8531 75.627L92.0585 75.4356L91.5737 74.9154ZM91.3683 75.1068L90.8834 74.5867L90.678 74.7781L91.1629 75.2983L91.6477 75.8185L91.8531 75.627L91.3683 75.1068ZM91.1629 75.2983L90.678 74.7781C90.5943 74.8561 90.5015 74.9193 90.3975 74.9688L90.7033 75.6108L91.0092 76.2528C91.244 76.1409 91.4576 75.9957 91.6477 75.8185L91.1629 75.2983ZM90.7033 75.6108L90.3975 74.9688L90.1434 75.0899L90.4492 75.7319L90.7551 76.3739L91.0092 76.2528L90.7033 75.6108ZM90.4492 75.7319L90.1434 75.0899L89.8892 75.211L90.1951 75.853L90.501 76.4949L90.7551 76.3739L90.4492 75.7319ZM90.1951 75.853L89.8892 75.211C89.8914 75.21 89.8959 75.2081 89.9022 75.2067C89.9086 75.2052 89.9141 75.2046 89.9178 75.2046C89.9214 75.2045 89.9211 75.2049 89.9161 75.204C89.9109 75.203 89.9005 75.2006 89.8845 75.1947L89.6372 75.8614L89.39 76.5282C89.743 76.6591 90.1315 76.6709 90.501 76.4949L90.1951 75.853ZM89.6372 75.8614L89.8845 75.1947L89.5807 75.082L89.3335 75.7488L89.0863 76.4155L89.39 76.5282L89.6372 75.8614ZM89.3335 75.7488L89.5807 75.082L89.277 74.9694L89.0297 75.6362L88.7825 76.3029L89.0863 76.4155L89.3335 75.7488ZM89.0297 75.6362L89.277 74.9694C88.9651 74.8538 88.6198 74.8133 88.2731 74.916L88.4749 75.5978L88.6766 76.2797C88.6742 76.2805 88.677 76.2788 88.6902 76.2797C88.7048 76.2807 88.7347 76.2852 88.7825 76.3029L89.0297 75.6362ZM88.4749 75.5978L88.2731 74.916L88.0219 74.9903L88.2237 75.6722L88.4255 76.354L88.6766 76.2797L88.4749 75.5978ZM88.2237 75.6722L88.0219 74.9903L87.7708 75.0646L87.9726 75.7465L88.1744 76.4284L88.4255 76.354L88.2237 75.6722ZM87.9726 75.7465L87.7708 75.0646C87.6792 75.0917 87.5841 75.1038 87.4824 75.0999L87.4549 75.8105L87.4273 76.521C87.6811 76.5309 87.9312 76.5003 88.1744 76.4284L87.9726 75.7465ZM87.4549 75.8105L87.4824 75.0999L87.2158 75.0896L87.1883 75.8001L87.1607 76.5107L87.4273 76.521L87.4549 75.8105ZM87.1883 75.8001L87.2158 75.0896L86.9492 75.0792L86.9216 75.7898L86.8941 76.5004L87.1607 76.5107L87.1883 75.8001ZM86.9216 75.7898L86.9492 75.0792C86.7398 75.0711 86.5304 75.077 86.3213 75.0968L86.3884 75.8047L86.4554 76.5127C86.6019 76.4988 86.748 76.4947 86.8941 76.5004L86.9216 75.7898ZM86.3884 75.8047L86.3213 75.0968L86.0546 75.122L86.1217 75.83L86.1887 76.5379L86.4554 76.5127L86.3884 75.8047ZM86.1217 75.83L86.0546 75.122L85.788 75.1473L85.855 75.8552L85.9221 76.5632L86.1887 76.5379L86.1217 75.83ZM85.855 75.8552L85.788 75.1473C85.7038 75.1553 85.617 75.1476 85.5228 75.1198L85.3217 75.8018L85.1206 76.4839C85.3819 76.561 85.6506 76.5889 85.9221 76.5632L85.855 75.8552ZM85.3217 75.8018L85.5228 75.1198L85.2561 75.0411L85.055 75.7232L84.8539 76.4053L85.1206 76.4839L85.3217 75.8018ZM85.055 75.7232L85.2561 75.0411L84.9895 74.9625L84.7884 75.6446L84.5872 76.3267L84.8539 76.4053L85.055 75.7232ZM84.7884 75.6446L84.9895 74.9625C84.7273 74.8852 84.4576 74.8577 84.1854 74.8845L84.255 75.5922L84.3246 76.2999C84.4079 76.2917 84.4939 76.2991 84.5872 76.3267L84.7884 75.6446ZM84.255 75.5922L84.1854 74.8845L83.9187 74.9107L83.9884 75.6184L84.058 76.3261L84.3246 76.2999L84.255 75.5922ZM83.9884 75.6184L83.9187 74.9107L83.6521 74.937L83.7217 75.6447L83.7913 76.3524L84.058 76.3261L83.9884 75.6184ZM83.7217 75.6447L83.6521 74.937C83.4507 74.9568 83.2498 74.9867 83.0495 75.0266L83.1884 75.724L83.3273 76.4214C83.4825 76.3905 83.6371 76.3675 83.7913 76.3524L83.7217 75.6447ZM83.1884 75.724L83.0495 75.0266L82.7828 75.0797L82.9217 75.7771L83.0606 76.4745L83.3273 76.4214L83.1884 75.724ZM82.9217 75.7771L82.7828 75.0797L82.5161 75.1328L82.655 75.8302L82.7939 76.5276L83.0606 76.4745L82.9217 75.7771ZM82.655 75.8302L82.5161 75.1328C82.364 75.1631 82.2125 75.1846 82.0616 75.1974L82.1217 75.906L82.1818 76.6145C82.3864 76.5972 82.5905 76.5682 82.7939 76.5276L82.655 75.8302ZM82.1217 75.906L82.0616 75.1974L81.7949 75.22L81.855 75.9286L81.9151 76.6371L82.1818 76.6145L82.1217 75.906ZM81.855 75.9286L81.7949 75.22L81.5282 75.2426L81.5884 75.9512L81.6485 76.6598L81.9151 76.6371L81.855 75.9286ZM81.5884 75.9512L81.5282 75.2426C81.4227 75.2516 81.3163 75.2448 81.2066 75.2209L81.055 75.9156L80.9034 76.6104C81.1493 76.6641 81.3984 76.681 81.6485 76.6598L81.5884 75.9512ZM81.055 75.9156L81.2066 75.2209L80.9399 75.1627L80.7884 75.8575L80.6368 76.5522L80.9034 76.6104L81.055 75.9156ZM80.7884 75.8575L80.9399 75.1627L80.6733 75.1045L80.5217 75.7993L80.3701 76.4941L80.6368 76.5522L80.7884 75.8575ZM80.5217 75.7993L80.6733 75.1045C80.293 75.0216 79.9314 75.1059 79.6216 75.2924L79.9884 75.9016L80.3551 76.5109C80.3826 76.4943 80.3934 76.4933 80.389 76.4942C80.3871 76.4945 80.3835 76.495 80.379 76.4949C80.3745 76.4949 80.3713 76.4943 80.3701 76.4941L80.5217 75.7993ZM79.9884 75.9016L79.6216 75.2924L79.3549 75.4529L79.7217 76.0622L80.0884 76.6714L80.3551 76.5109L79.9884 75.9016ZM79.7217 76.0622L79.3549 75.4529L79.0883 75.6134L79.455 76.2227L79.8218 76.8319L80.0884 76.6714L79.7217 76.0622ZM79.455 76.2227L79.0883 75.6134C79.0029 75.6648 78.951 75.6715 78.9235 75.6714L78.9217 76.3825L78.9199 77.0936C79.2479 77.0945 79.5516 76.9945 79.8218 76.8319L79.455 76.2227ZM78.9217 76.3825L78.9235 75.6714L78.6568 75.6707L78.655 76.3818L78.6532 77.093L78.9199 77.0936L78.9217 76.3825ZM78.655 76.3818L78.6568 75.6707L78.3902 75.6701L78.3884 76.3812L78.3866 77.0923L78.6532 77.093L78.655 76.3818ZM78.3884 76.3812L78.3902 75.6701C78.2948 75.6698 78.1944 75.6535 78.0861 75.6163L77.855 76.2889L77.6239 76.9614C77.8712 77.0464 78.1264 77.0916 78.3866 77.0923L78.3884 76.3812ZM77.855 76.2889L78.0861 75.6163L77.8195 75.5247L77.5884 76.1972L77.3573 76.8697L77.6239 76.9614L77.855 76.2889ZM77.5884 76.1972L77.8195 75.5247L77.5528 75.4331L77.3217 76.1056L77.0906 76.7781L77.3573 76.8697L77.5884 76.1972ZM77.3217 76.1056L77.5528 75.4331C77.3238 75.3544 77.0899 75.3031 76.8522 75.2817L76.7884 75.9899L76.7245 76.6982C76.8424 76.7088 76.9641 76.7346 77.0906 76.7781L77.3217 76.1056ZM76.7884 75.9899L76.8522 75.2817L76.5855 75.2576L76.5217 75.9659L76.4578 76.6741L76.7245 76.6982L76.7884 75.9899ZM76.5217 75.9659L76.5855 75.2576L76.3189 75.2336L76.255 75.9418L76.1912 76.6501L76.4578 76.6741L76.5217 75.9659ZM76.255 75.9418L76.3189 75.2336C76.195 75.2224 76.0693 75.197 75.941 75.1559L75.724 75.8331L75.507 76.5103C75.7312 76.5821 75.9595 76.6292 76.1912 76.6501L76.255 75.9418ZM75.724 75.8331L75.941 75.1559L75.6767 75.0712L75.4597 75.7484L75.2427 76.4256L75.507 76.5103L75.724 75.8331ZM75.4597 75.7484L75.6767 75.0712L75.4123 74.9865L75.1953 75.6637L74.9784 76.3409L75.2427 76.4256L75.4597 75.7484ZM75.1953 75.6637L75.4123 74.9865C75.2029 74.9194 74.9942 74.8695 74.7866 74.8391L74.6834 75.5427L74.5801 76.2462C74.7027 76.2642 74.8353 76.2951 74.9784 76.3409L75.1953 75.6637ZM74.6834 75.5427L74.7866 74.8391L74.539 74.8027L74.4357 75.5063L74.3325 76.2099L74.5801 76.2462L74.6834 75.5427ZM74.4357 75.5063L74.539 74.8027L74.2914 74.7664L74.1881 75.47L74.0849 76.1736L74.3325 76.2099L74.4357 75.5063ZM74.1881 75.47L74.2914 74.7664C74.13 74.7427 73.9679 74.7176 73.8051 74.6911L73.6908 75.393L73.5766 76.0949C73.7466 76.1226 73.9161 76.1488 74.0849 76.1736L74.1881 75.47ZM73.6908 75.393L73.8051 74.6911L73.5554 74.6505L73.4412 75.3524L73.3269 76.0542L73.5766 76.0949L73.6908 75.393ZM73.4412 75.3524L73.5554 74.6505L73.3058 74.6098L73.1915 75.3117L73.0772 76.0136L73.3269 76.0542L73.4412 75.3524ZM73.1915 75.3117L73.3058 74.6098C73.051 74.5684 72.7863 74.5752 72.5208 74.6141L72.624 75.3177L72.7273 76.0213C72.8855 75.9981 72.9992 76.0009 73.0772 76.0136L73.1915 75.3117ZM72.624 75.3177L72.5208 74.6141L72.203 74.6608L72.3062 75.3643L72.4095 76.0679L72.7273 76.0213L72.624 75.3177ZM72.3062 75.3643L72.203 74.6608L71.8852 74.7074L71.9884 75.411L72.0916 76.1146L72.4095 76.0679L72.3062 75.3643ZM71.9884 75.411L71.8852 74.7074C71.8948 74.706 71.9785 74.6977 72.0795 74.7567C72.1798 74.8154 72.2123 74.8909 72.2146 74.8966L71.5524 75.156L70.8903 75.4153C70.9713 75.6221 71.1159 75.8407 71.3615 75.9844C71.6078 76.1284 71.8701 76.1471 72.0916 76.1146L71.9884 75.411ZM71.5524 75.156L72.2146 74.8966L72.0964 74.595L71.4343 74.8543L70.7722 75.1137L70.8903 75.4153L71.5524 75.156ZM71.4343 74.8543L72.0964 74.595L71.9783 74.2933L71.3161 74.5527L70.654 74.812L70.7722 75.1137L71.4343 74.8543ZM71.3161 74.5527L71.9783 74.2933C71.8444 73.9517 71.6052 73.6548 71.2395 73.4893L70.9464 74.1372L70.6533 74.7851C70.6507 74.7839 70.6466 74.7817 70.6421 74.7784C70.6376 74.7751 70.6346 74.7722 70.6334 74.7708C70.6307 74.7677 70.6403 74.7771 70.654 74.812L71.3161 74.5527ZM70.9464 74.1372L71.2395 73.4893L70.9879 73.3755L70.6948 74.0234L70.4017 74.6713L70.6533 74.7851L70.9464 74.1372ZM70.6948 74.0234L70.9879 73.3755L70.7363 73.2617L70.4432 73.9096L70.1501 74.5575L70.4017 74.6713L70.6948 74.0234ZM70.4432 73.9096L70.7363 73.2617C70.6592 73.2268 70.5991 73.1816 70.5489 73.1241L70.0136 73.5923L69.4784 74.0605C69.6654 74.2743 69.8918 74.4406 70.1501 74.5575L70.4432 73.9096ZM70.0136 73.5923L70.5489 73.1241L70.3709 72.9206L69.8357 73.3888L69.3004 73.857L69.4784 74.0605L70.0136 73.5923ZM69.8357 73.3888L70.3709 72.9206L70.1929 72.7172L69.6577 73.1853L69.1224 73.6535L69.3004 73.857L69.8357 73.3888ZM69.6577 73.1853L70.1929 72.7172C70.1676 72.6881 70.1509 72.6563 70.143 72.6028L69.4394 72.7054L68.7357 72.8081C68.7817 73.1231 68.9105 73.4112 69.1224 73.6535L69.6577 73.1853ZM69.4394 72.7054L70.143 72.6028L70.1027 72.3264L69.3991 72.4291L68.6954 72.5317L68.7357 72.8081L69.4394 72.7054ZM69.3991 72.4291L70.1027 72.3264L70.0624 72.05L69.3587 72.1527L68.6551 72.2553L68.6954 72.5317L69.3991 72.4291ZM69.3587 72.1527L70.0624 72.05C70.0161 71.7326 69.8854 71.4457 69.6807 71.2011L69.1354 71.6576L68.5901 72.114C68.6295 72.1611 68.6476 72.2042 68.6551 72.2553L69.3587 72.1527ZM69.1354 71.6576L69.6807 71.2011L69.4976 70.9825L68.9523 71.4389L68.407 71.8954L68.5901 72.114L69.1354 71.6576ZM68.9523 71.4389L69.4976 70.9825L69.3146 70.7638L68.7693 71.2202L68.224 71.6767L68.407 71.8954L68.9523 71.4389ZM68.7693 71.2202L69.3146 70.7638C69.3102 70.7586 69.3095 70.7568 69.3105 70.7586C69.3116 70.7605 69.3136 70.7647 69.3156 70.7709C69.3176 70.7771 69.3187 70.7829 69.3192 70.7877C69.3197 70.7923 69.3193 70.7938 69.3196 70.7914L68.6114 70.7265L67.9033 70.6617C67.8686 71.0403 67.9849 71.391 68.224 71.6767L68.7693 71.2202ZM68.6114 70.7265L69.3196 70.7914L69.3447 70.5164L68.6366 70.4515L67.9284 70.3867L67.9033 70.6617L68.6114 70.7265ZM68.6366 70.4515L69.3447 70.5164L69.3699 70.2413L68.6618 70.1765L67.9536 70.1116L67.9284 70.3867L68.6366 70.4515ZM68.6618 70.1765L69.3699 70.2413C69.3893 70.03 69.3958 69.821 69.3891 69.6143L68.6783 69.6376L67.9676 69.6608C67.9724 69.8061 67.9679 69.9562 67.9536 70.1116L68.6618 70.1765ZM68.6783 69.6376L69.3891 69.6143L69.3804 69.3504L68.6697 69.3737L67.959 69.3969L67.9676 69.6608L68.6783 69.6376ZM68.6697 69.3737L69.3804 69.3504L69.3718 69.0865L68.6611 69.1098L67.9503 69.133L67.959 69.3969L68.6697 69.3737ZM68.6611 69.1098L69.3718 69.0865C69.365 68.8798 69.3446 68.6687 69.3115 68.4537L68.6087 68.562L67.9059 68.6702C67.9311 68.8338 67.9456 68.9879 67.9503 69.133L68.6611 69.1098ZM68.6087 68.562L69.3115 68.4537L69.2678 68.1698L68.565 68.278L67.8621 68.3863L67.9059 68.6702L68.6087 68.562ZM68.565 68.278L69.2678 68.1698L69.2241 67.8859L68.5212 67.9941L67.8184 68.1024L67.8621 68.3863L68.565 68.278ZM68.5212 67.9941L69.2241 67.8859C69.2125 67.8112 69.2196 67.7498 69.2413 67.69L68.5729 67.4474L67.9044 67.2048C67.799 67.4954 67.7716 67.7985 67.8184 68.1024L68.5212 67.9941ZM68.5729 67.4474L69.2413 67.69L69.3367 67.4272L68.6682 67.1846L67.9998 66.942L67.9044 67.2048L68.5729 67.4474ZM68.6682 67.1846L69.3367 67.4272L69.432 67.1644L68.7636 66.9218L68.0951 66.6793L67.9998 66.942L68.6682 67.1846ZM68.7636 66.9218L69.432 67.1644C69.4323 67.1637 69.4319 67.1649 69.4307 67.1669C69.4295 67.1689 69.4285 67.1699 69.4286 67.1698C69.4288 67.1696 69.4312 67.167 69.4373 67.1625C69.4435 67.1579 69.4537 67.151 69.4695 67.1428L69.141 66.5121L68.8125 65.8814C68.4899 66.0495 68.2279 66.3135 68.0951 66.6793L68.7636 66.9218ZM69.141 66.5121L69.4695 67.1428L69.7516 66.9959L69.4231 66.3652L69.0946 65.7345L68.8125 65.8814L69.141 66.5121ZM69.4231 66.3652L69.7516 66.9959L70.0337 66.849L69.7052 66.2183L69.3767 65.5876L69.0946 65.7345L69.4231 66.3652ZM69.7052 66.2183L70.0337 66.849C70.3902 66.6632 70.6546 66.3527 70.7432 65.934L70.0474 65.7868L69.3517 65.6396C69.3521 65.6377 69.3537 65.6313 69.358 65.622C69.3624 65.6126 69.3681 65.6032 69.3747 65.595C69.3886 65.5774 69.3957 65.5777 69.3767 65.5876L69.7052 66.2183ZM70.0474 65.7868L70.7432 65.934L70.8034 65.6494L70.1077 65.5022L69.4119 65.355L69.3517 65.6396L70.0474 65.7868ZM70.1077 65.5022L70.8034 65.6494L70.8636 65.3648L70.1679 65.2176L69.4722 65.0704L69.4119 65.355L70.1077 65.5022ZM70.1679 65.2176L70.8636 65.3648C70.8796 65.2891 70.907 65.2402 70.9418 65.2013L70.4112 64.7278L69.8806 64.2544C69.6712 64.4891 69.5364 64.7667 69.4722 65.0704L70.1679 65.2176ZM70.4112 64.7278L70.9418 65.2013L71.1249 64.996L70.5943 64.5226L70.0637 64.0491L69.8806 64.2544L70.4112 64.7278ZM70.5943 64.5226L71.1249 64.996L71.308 64.7908L70.7774 64.3174L70.2468 63.8439L70.0637 64.0491L70.5943 64.5226ZM70.7774 64.3174L71.308 64.7908C71.309 64.7898 71.3082 64.7908 71.3055 64.7928C71.3029 64.7948 71.3 64.7965 71.2976 64.7977C71.2953 64.7988 71.2952 64.7985 71.2983 64.7977C71.3016 64.7968 71.3091 64.7952 71.3217 64.7941L71.259 64.0857L71.1964 63.3774C70.8348 63.4094 70.5006 63.5595 70.2468 63.8439L70.7774 64.3174ZM71.259 64.0857L71.3217 64.7941L71.6201 64.7677L71.5575 64.0593L71.4948 63.351L71.1964 63.3774L71.259 64.0857ZM71.5575 64.0593L71.6201 64.7677L71.9186 64.7413L71.8559 64.0329L71.7933 63.3246L71.4948 63.351L71.5575 64.0593ZM71.8559 64.0329L71.9186 64.7413C72.349 64.7032 72.6961 64.4771 72.9234 64.1313L72.3292 63.7406L71.7351 63.3499C71.7256 63.3644 71.7286 63.3548 71.7498 63.3416C71.7596 63.3356 71.7699 63.331 71.7792 63.328C71.7883 63.325 71.7936 63.3246 71.7933 63.3246L71.8559 64.0329ZM72.3292 63.7406L72.9234 64.1313L73.0983 63.8654L72.5041 63.4747L71.9099 63.084L71.7351 63.3499L72.3292 63.7406ZM72.5041 63.4747L73.0983 63.8654L73.2731 63.5995L72.6789 63.2088L72.0847 62.8181L71.9099 63.084L72.5041 63.4747ZM72.6789 63.2088L73.2731 63.5995C73.2861 63.5797 73.2852 63.5882 73.2629 63.6024C73.2522 63.6093 73.2397 63.6154 73.2264 63.6198C73.2132 63.6243 73.2026 63.6259 73.1965 63.6265L73.1339 62.9181L73.0713 62.2098C72.6378 62.2481 72.3029 62.4864 72.0847 62.8181L72.6789 63.2088ZM73.1339 62.9181L73.1965 63.6265L73.4767 63.6017L73.4141 62.8933L73.3514 62.185L73.0713 62.2098L73.1339 62.9181ZM73.4141 62.8933L73.4767 63.6017L73.7569 63.5769L73.6942 62.8686L73.6316 62.1602L73.3514 62.185L73.4141 62.8933ZM73.6942 62.8686L73.7569 63.5769C73.9354 63.5611 74.1113 63.5487 74.2845 63.5396L74.2473 62.8295L74.2101 62.1194C74.0194 62.1293 73.8266 62.143 73.6316 62.1602L73.6942 62.8686ZM74.2473 62.8295L74.2845 63.5396L74.5574 63.5254L74.5202 62.8152L74.483 62.1051L74.2101 62.1194L74.2473 62.8295ZM74.5202 62.8152L74.5574 63.5254L74.8303 63.5111L74.7931 62.8009L74.7559 62.0908L74.483 62.1051L74.5202 62.8152ZM74.7931 62.8009L74.8303 63.5111C74.9134 63.5067 74.9442 63.5084 74.9425 63.5082C74.9399 63.508 74.9297 63.5071 74.9142 63.5046C74.9004 63.5023 74.8702 63.4967 74.8313 63.484C74.798 63.4731 74.7204 63.445 74.6363 63.381C74.5474 63.3134 74.4134 63.1745 74.3728 62.9496L75.0726 62.8234L75.7724 62.6971C75.7308 62.4662 75.5928 62.3217 75.4973 62.249C75.4066 62.18 75.3196 62.1473 75.2741 62.1324C75.1818 62.1022 75.0979 62.0939 75.0564 62.0906C74.9615 62.0829 74.8547 62.0856 74.7559 62.0908L74.7931 62.8009ZM75.0726 62.8234L74.3728 62.9496L74.3794 62.9864L75.0793 62.8601L75.7791 62.7339L75.7724 62.6971L75.0726 62.8234ZM75.0793 62.8601L74.3794 62.9864L74.3861 63.0231L75.0859 62.8969L75.7857 62.7706L75.7791 62.7339L75.0793 62.8601ZM75.0859 62.8969L74.3861 63.0231C74.4286 63.2586 74.5718 63.409 74.6837 63.4874C74.7857 63.5587 74.8826 63.5877 74.9316 63.6001C75.0311 63.6252 75.1196 63.6262 75.1607 63.626C75.2566 63.6256 75.3629 63.6134 75.4594 63.5996L75.3592 62.8956L75.2589 62.1916C75.1777 62.2032 75.1496 62.2038 75.1543 62.2038C75.1579 62.2038 75.1695 62.2038 75.1868 62.2053C75.2023 62.2066 75.2358 62.2101 75.2793 62.221C75.3164 62.2304 75.4041 62.2556 75.4995 62.3224C75.6049 62.3962 75.7443 62.5412 75.7857 62.7706L75.0859 62.8969ZM75.3592 62.8956L75.4594 63.5996L75.7261 63.5617L75.6258 62.8577L75.5256 62.1536L75.2589 62.1916L75.3592 62.8956Z" fill="#3D3D3D"/>
<path d="M58.6049 69.4463V70.1575L58.6187 70.1573L58.6049 69.4463ZM59.8382 69.5101L59.628 70.1894L59.8382 69.5101ZM60.3715 69.6752L60.1613 70.3545L60.3715 69.6752ZM62.5049 69.2959L62.2762 69.9692L62.5049 69.2959ZM63.0382 69.4947L62.7707 70.1536L63.0382 69.4947ZM64.1049 69.8217L64.099 70.5328L64.1049 69.8217ZM65.1715 69.6574L65.5554 70.256V70.256L65.1715 69.6574ZM65.7049 69.3154L65.321 68.7168L65.7049 69.3154ZM66.5049 69.1528L66.4936 69.8639L66.5049 69.1528ZM67.3049 69.2027L67.414 68.5L67.3049 69.2027ZM67.8382 69.2855L67.7291 69.9882L67.8382 69.2855ZM68.3715 69.3385L68.3407 70.0489L68.3715 69.3385ZM69.2524 69.3915L69.4091 68.6979L69.2524 69.3915ZM69.3332 69.4098L69.6958 68.7981L69.5994 68.7409L69.49 68.7161L69.3332 69.4098ZM69.3948 69.4463L69.0321 70.058L69.1998 70.1574H69.3948V69.4463ZM58.5049 69.4463V70.1574H58.6049V69.4463V68.7352H58.5049V69.4463ZM58.6049 69.4463L58.6187 70.1573L59.102 70.1479L59.0882 69.4369L59.0744 68.7259L58.5911 68.7353L58.6049 69.4463ZM59.0882 69.4369L59.102 70.1479C59.3953 70.1422 59.557 70.1674 59.628 70.1894L59.8382 69.5101L60.0485 68.8308C59.7639 68.7427 59.4256 68.7191 59.0744 68.7259L59.0882 69.4369ZM59.8382 69.5101L59.628 70.1894L59.8946 70.2719L60.1049 69.5926L60.3151 68.9133L60.0485 68.8308L59.8382 69.5101ZM60.1049 69.5926L59.8946 70.2719L60.1613 70.3545L60.3715 69.6752L60.5818 68.9958L60.3151 68.9133L60.1049 69.5926ZM60.3715 69.6752L60.1613 70.3545C60.5816 70.4846 60.9829 70.3837 61.3078 70.1603L60.9049 69.5743L60.502 68.9884C60.4791 69.0041 60.481 68.9972 60.5061 68.9925C60.5183 68.9902 60.5326 68.9891 60.5476 68.99C60.5625 68.9909 60.5743 68.9935 60.5818 68.9958L60.3715 69.6752ZM60.9049 69.5743L61.3078 70.1603L61.5745 69.9769L61.1715 69.391L60.7686 68.805L60.502 68.9884L60.9049 69.5743ZM61.1715 69.391L61.5745 69.9769L61.8411 69.7935L61.4382 69.2076L61.0353 68.6216L60.7686 68.805L61.1715 69.391ZM61.4382 69.2076L61.8411 69.7935C61.8619 69.7792 61.8565 69.7881 61.8268 69.7933C61.8123 69.7958 61.7961 69.7967 61.7795 69.7953C61.7631 69.7939 61.7506 69.7907 61.7429 69.7881L61.9715 69.1148L62.2002 68.4414C61.7762 68.2974 61.3666 68.3939 61.0353 68.6216L61.4382 69.2076ZM61.9715 69.1148L61.7429 69.7881L62.0096 69.8787L62.2382 69.2053L62.4669 68.532L62.2002 68.4414L61.9715 69.1148ZM62.2382 69.2053L62.0096 69.8787L62.2762 69.9692L62.5049 69.2959L62.7335 68.6225L62.4669 68.532L62.2382 69.2053ZM62.5049 69.2959L62.2762 69.9692C62.4406 70.0251 62.6055 70.0865 62.7707 70.1536L63.0382 69.4947L63.3057 68.8358C63.1154 68.7586 62.9247 68.6874 62.7335 68.6225L62.5049 69.2959ZM63.0382 69.4947L62.7707 70.1536L63.0374 70.2618L63.3049 69.603L63.5724 68.9441L63.3057 68.8358L63.0382 69.4947ZM63.3049 69.603L63.0374 70.2618L63.3041 70.3701L63.5715 69.7112L63.839 69.0523L63.5724 68.9441L63.3049 69.603ZM63.5715 69.7112L63.3041 70.3701C63.5583 70.4733 63.8246 70.5305 64.099 70.5328L64.1049 69.8217L64.1108 69.1106C64.0296 69.1099 63.9403 69.0935 63.839 69.0523L63.5715 69.7112ZM64.1049 69.8217L64.099 70.5328L64.3656 70.535L64.3715 69.8239L64.3775 69.1128L64.1108 69.1106L64.1049 69.8217ZM64.3715 69.8239L64.3656 70.535L64.6323 70.5372L64.6382 69.8261L64.6441 69.1151L64.3775 69.1128L64.3715 69.8239ZM64.6382 69.8261L64.6323 70.5372C64.9724 70.5401 65.2836 70.4303 65.5554 70.256L65.1715 69.6574L64.7877 69.0587C64.704 69.1124 64.6596 69.1152 64.6441 69.1151L64.6382 69.8261ZM65.1715 69.6574L65.5554 70.256L65.8221 70.085L65.4382 69.4864L65.0544 68.8878L64.7877 69.0587L65.1715 69.6574ZM65.4382 69.4864L65.8221 70.085L66.0887 69.914L65.7049 69.3154L65.321 68.7168L65.0544 68.8878L65.4382 69.4864ZM65.7049 69.3154L66.0887 69.914C66.1712 69.8611 66.2136 69.8594 66.2269 69.8596L66.2382 69.1486L66.2495 68.4376C65.9073 68.4322 65.5941 68.5417 65.321 68.7168L65.7049 69.3154ZM66.2382 69.1486L66.2269 69.8596L66.4936 69.8639L66.5049 69.1528L66.5162 68.4418L66.2495 68.4376L66.2382 69.1486ZM66.5049 69.1528L66.4936 69.8639L66.7603 69.8681L66.7716 69.1571L66.7828 68.4461L66.5162 68.4418L66.5049 69.1528ZM66.7716 69.1571L66.7603 69.8681C66.9049 69.8704 67.05 69.8828 67.1958 69.9054L67.3049 69.2027L67.414 68.5C67.2042 68.4675 66.9938 68.4494 66.7828 68.4461L66.7716 69.1571ZM67.3049 69.2027L67.1958 69.9054L67.4625 69.9468L67.5715 69.2441L67.6806 68.5414L67.414 68.5L67.3049 69.2027ZM67.5715 69.2441L67.4625 69.9468L67.7291 69.9882L67.8382 69.2855L67.9473 68.5828L67.6806 68.5414L67.5715 69.2441ZM67.8382 69.2855L67.7291 69.9882C67.9325 70.0198 68.1364 70.0401 68.3407 70.0489L68.3715 69.3385L68.4024 68.6281C68.2511 68.6215 68.0995 68.6064 67.9473 68.5828L67.8382 69.2855ZM68.3715 69.3385L68.3407 70.0489L68.6074 70.0605L68.6382 69.3501L68.6691 68.6396L68.4024 68.6281L68.3715 69.3385ZM68.6382 69.3501L68.6074 70.0605L68.874 70.0721L68.9049 69.3616L68.9357 68.6512L68.6691 68.6396L68.6382 69.3501ZM68.9049 69.3616L68.874 70.0721C68.9576 70.0757 69.0201 70.0796 69.0642 70.0834C69.0862 70.0853 69.1004 70.0869 69.1084 70.0879C69.1182 70.0892 69.1118 70.0888 69.0956 70.0851L69.2524 69.3915L69.4091 68.6979C69.2816 68.6691 69.0993 68.6583 68.9357 68.6512L68.9049 69.3616ZM69.2524 69.3915L69.0956 70.0851L69.1764 70.1034L69.3332 69.4098L69.49 68.7161L69.4091 68.6979L69.2524 69.3915ZM69.3332 69.4098L68.9705 70.0214L69.0321 70.058L69.3948 69.4463L69.7574 68.8346L69.6958 68.7981L69.3332 69.4098ZM69.3948 69.4463V70.1574H69.4948V69.4463V68.7352H69.3948V69.4463Z" fill="#3D3D3D"/>
<defs>
<filter id="filter0_f_393_4904" x="33.3156" y="62.4714" width="26.5675" height="13.9508" filterUnits="userSpaceOnUse" color-interpolation-filters="sRGB">
<feFlood flood-opacity="0" result="BackgroundImageFix"/>
<feBlend mode="normal" in="SourceGraphic" in2="BackgroundImageFix" result="shape"/>
<feGaussianBlur stdDeviation="0.231111" result="effect1_foregroundBlur_393_4904"/>
</filter>
<filter id="filter1_f_393_4904" x="68.1169" y="62.4714" width="26.5675" height="13.9508" filterUnits="userSpaceOnUse" color-interpolation-filters="sRGB">
<feFlood flood-opacity="0" result="BackgroundImageFix"/>
<feBlend mode="normal" in="SourceGraphic" in2="BackgroundImageFix" result="shape"/>
<feGaussianBlur stdDeviation="0.231111" result="effect1_foregroundBlur_393_4904"/>
</filter>
</defs>
</svg>
