<svg width="128" height="128" viewBox="0 0 128 128" fill="none" xmlns="http://www.w3.org/2000/svg">
<circle cx="38.2223" cy="78.0441" r="0.533333" fill="#4F4F4F"/>
<path d="M38.6223 77.2469L38.7417 77.3496L38.8334 77.4524L38.9223 77.5524C38.9577 77.5922 38.9935 77.6365 39.0223 77.6802C39.0315 77.6941 39.0518 77.7228 39.0695 77.7635L39.1056 77.9135L39.1084 77.9496V77.9885C39.1132 78.0923 39.0765 78.1779 39.0612 78.2107C39.04 78.2561 39.0107 78.3 38.9834 78.3413L38.8501 78.5469C38.7572 78.6876 38.6232 78.7811 38.4779 78.8385L38.3417 78.8941L38.2029 78.9469C38.1104 78.9833 37.9584 79.0169 37.8029 78.9413C37.647 78.8649 37.5804 78.7239 37.5529 78.6274L37.514 78.4885L37.4723 78.3469C37.4313 78.2034 37.4175 78.0264 37.5001 77.858L37.5473 77.7663L37.5917 77.6719L37.7195 77.4941C37.7694 77.4436 37.8265 77.4011 37.8862 77.3663L37.9917 77.3052L38.1001 77.2413C38.192 77.1878 38.3142 77.1512 38.4501 77.1774C38.516 77.1903 38.5738 77.2159 38.6223 77.2469ZM38.2445 77.9802C38.2346 77.986 38.227 77.9896 38.2251 77.9913L38.1862 78.0802L38.1529 78.1413L38.1667 78.1969L38.2167 78.1774C38.2364 78.1696 38.2482 78.1615 38.2529 78.158L38.2556 78.1552L38.3251 78.0524L38.3612 77.9941L38.314 77.9385L38.2445 77.9802Z" fill="#4F4F4F"/>
</svg>
