<svg width="128" height="128" viewBox="0 0 128 128" fill="none" xmlns="http://www.w3.org/2000/svg">
<circle cx="37.1554" cy="68.4445" r="0.533333" fill="#4F4F4F"/>
<path d="M37.5554 67.6472L37.6748 67.75L37.7665 67.8528L37.8554 67.9528C37.8908 67.9925 37.9266 68.0369 37.9554 68.0806C37.9646 68.0945 37.9849 68.1232 38.0026 68.1639L38.0387 68.3139L38.0415 68.35V68.3889C38.0463 68.4927 38.0096 68.5783 37.9943 68.6111C37.9731 68.6565 37.9438 68.7004 37.9165 68.7417L37.7832 68.9472C37.6903 69.088 37.5563 69.1815 37.411 69.2389L37.2748 69.2945L37.136 69.3472C37.0435 69.3837 36.8915 69.4173 36.736 69.3417C36.5801 69.2653 36.5136 69.1243 36.486 69.0278L36.4471 68.8889L36.4054 68.7472C36.3644 68.6037 36.3506 68.4268 36.4332 68.2584L36.4804 68.1667L36.5248 68.0722L36.6526 67.8945C36.7025 67.844 36.7596 67.8014 36.8193 67.7667L36.9248 67.7056L37.0332 67.6417C37.1251 67.5881 37.2473 67.5516 37.3832 67.5778C37.4491 67.5906 37.5069 67.6163 37.5554 67.6472ZM37.1776 68.3806C37.1677 68.3864 37.1601 68.39 37.1582 68.3917L37.1193 68.4806L37.086 68.5417L37.0998 68.5972L37.1498 68.5778C37.1695 68.57 37.1813 68.5619 37.186 68.5584L37.1887 68.5556L37.2582 68.4528L37.2943 68.3945L37.2471 68.3389L37.1776 68.3806Z" fill="#4F4F4F"/>
</svg>
