<svg width="128" height="128" viewBox="0 0 128 128" fill="none" xmlns="http://www.w3.org/2000/svg">
<path d="M100.236 74.4532L100.211 74.5087L100.178 74.6893C100.143 74.869 100.073 75.0544 99.9333 75.1921L99.8306 75.2921L99.7222 75.4004L99.7167 75.5421L99.7083 75.6865C99.7024 75.805 99.686 75.9213 99.6556 76.0337L99.5833 76.2949C99.5451 76.4353 99.4763 76.5612 99.3806 76.6699L99.2861 76.7754L99.1944 76.8782C99.1535 76.9245 99.1211 76.9732 99.0972 77.0226L99.0417 77.1421L98.9833 77.2643C98.9599 77.3131 98.9408 77.3659 98.9306 77.4254L98.9083 77.5615L98.8833 77.7004C98.86 77.8354 98.8117 77.962 98.7389 78.0782L98.6694 78.1921L98.5972 78.306C98.5269 78.4182 98.4372 78.5165 98.3333 78.6004L98.2194 78.6921L98.1417 78.7532L98.1556 78.8782L98.1722 79.0365C98.1914 79.2181 98.1522 79.4031 98.0278 79.5587L97.9417 79.6671L97.8556 79.7726C97.8325 79.8016 97.8173 79.8342 97.8083 79.8726L97.7778 80.006L97.7444 80.1421C97.7028 80.319 97.6022 80.4622 97.4611 80.5671L97.3417 80.656L97.225 80.7449C97.1946 80.7674 97.1833 80.7859 97.1778 80.8004L97.1306 80.9254L97.0806 81.0504C97.048 81.1352 97.0168 81.2214 96.9833 81.306L96.8833 81.556C96.8551 81.6274 96.8297 81.7018 96.8083 81.7782L96.7722 81.9087L96.7361 82.0421C96.679 82.2466 96.5351 82.3874 96.3639 82.4699L96.2167 82.5393L96.1417 82.5754L96.15 82.656L96.1611 82.8171C96.1764 83.0223 96.1108 83.2285 95.9333 83.3726L95.7111 83.5504C95.6862 83.5707 95.6741 83.5904 95.6667 83.6115L95.6222 83.7393L95.5778 83.8699C95.5151 84.0478 95.3889 84.1784 95.2333 84.2643L95.1 84.3393L95.0278 84.3754L95.0361 84.481L95.0472 84.6476C95.0586 84.8352 95.0074 85.0298 94.8583 85.181L94.7639 85.2782L94.6667 85.3754C94.6116 85.4313 94.5588 85.4879 94.5111 85.5476L94.3444 85.7587C94.2987 85.8161 94.2568 85.8766 94.2194 85.9393L94.15 86.0532L94.0833 86.1699C94.0019 86.3061 93.8857 86.4093 93.75 86.4837L93.6194 86.556L93.4889 86.6226L93.4111 86.8949C93.3738 87.0205 93.3172 87.1386 93.2417 87.2449L93.0861 87.4615C92.9996 87.5832 92.8858 87.6787 92.7556 87.7476L92.6278 87.8143L92.5278 87.8671L92.5111 87.9949L92.4861 88.1476C92.4589 88.3247 92.3771 88.4888 92.2278 88.6087L92.1194 88.6949L92.0139 88.781C91.938 88.8418 91.8597 88.8995 91.7806 88.956L91.6694 89.0365L91.5583 89.1143C91.5338 89.1318 91.5154 89.1549 91.5 89.1865L91.3778 89.4365C91.3217 89.5521 91.2494 89.6581 91.1611 89.7504L91.0694 89.8476L90.975 89.9421C90.8627 90.0595 90.7244 90.1355 90.5722 90.1754L90.425 90.2143L90.3361 90.2337L90.3083 90.3504L90.2694 90.506C90.2425 90.6117 90.189 90.725 90.0889 90.8115C89.9879 90.8987 89.867 90.9355 89.7556 90.9449L89.4389 90.9726C89.3976 90.9763 89.3832 90.9844 89.3806 90.9865L89.2806 91.0726L89.1778 91.156C89.1492 91.1801 89.1165 91.2186 89.0833 91.2782L88.9333 91.5504C88.8538 91.6935 88.7375 91.8183 88.5778 91.8921L88.4583 91.9476L88.3417 92.0004C88.292 92.0233 88.2128 92.055 88.125 92.0615C88.0787 92.0649 88.004 92.0636 87.925 92.0282C87.8361 91.988 87.7656 91.917 87.7278 91.8282L87.7111 91.7837L87.6583 91.6615L87.6972 91.5393L87.7444 91.3949L87.9306 91.4504L87.8 91.2615L87.8833 91.206L88.6667 90.6671C88.6848 90.6492 88.7026 90.6308 88.7222 90.6143L88.8222 90.5282L88.9222 90.4449C89.0563 90.3319 89.2172 90.2781 89.3806 90.2643L89.5389 90.2504L89.6 90.2449L89.6194 90.1726L89.6611 90.0171L89.7194 89.8615C89.7959 89.7185 89.9246 89.6104 90.1 89.5643L90.2472 89.5254L90.3917 89.4893C90.4327 89.4786 90.4504 89.4616 90.4611 89.4504L90.5556 89.356L90.6472 89.2587C90.6822 89.2221 90.7136 89.1774 90.7389 89.1254L90.8611 88.8754C90.927 88.7399 91.0213 88.6246 91.1444 88.5365L91.2556 88.456L91.3667 88.3782C91.4352 88.3293 91.5037 88.2781 91.5694 88.2254L91.675 88.1393L91.7778 88.056C91.7788 88.0531 91.782 88.0478 91.7833 88.0393L91.8056 87.8865L91.8306 87.7337L91.8694 87.5865C91.9237 87.4468 92.0231 87.3292 92.1667 87.2532L92.2944 87.1865L92.425 87.1171C92.4647 87.0959 92.489 87.0733 92.5056 87.0504L92.5833 86.9393L92.6611 86.831C92.6886 86.7923 92.7115 86.7471 92.7278 86.6921L92.7694 86.556L92.8083 86.4199C92.8632 86.2352 92.9855 86.0933 93.15 86.0032L93.2778 85.931L93.4083 85.8615C93.4453 85.8413 93.4624 85.8197 93.4722 85.8032L93.5417 85.6893L93.6083 85.5754C93.6623 85.4849 93.7231 85.3968 93.7889 85.3143L93.8722 85.2087L93.9556 85.106C94.0192 85.0261 94.0886 84.949 94.1611 84.8754L94.2556 84.7782L94.3361 84.6976V84.6893L94.325 84.5254L94.3167 84.3615C94.3102 84.257 94.3242 84.1423 94.3806 84.0337C94.4378 83.9235 94.525 83.843 94.6222 83.7893L94.7556 83.7171L94.8889 83.6421C94.8951 83.6386 94.9002 83.6357 94.9028 83.6337H94.9056L94.95 83.5032L94.9972 83.3754C95.0501 83.2251 95.1416 83.0969 95.2639 82.9976L95.3722 82.9087L95.45 82.8449L95.4389 82.7087L95.4278 82.5476C95.4197 82.438 95.4381 82.3181 95.5028 82.206C95.5679 82.0935 95.6646 82.0175 95.7639 81.9699L95.9083 81.9004L96.0556 81.8282L96.0861 81.7199L96.125 81.5865C96.1528 81.487 96.1848 81.3897 96.2222 81.2949L96.2722 81.1671L96.3222 81.0421C96.3546 80.9602 96.3852 80.8769 96.4167 80.7949L96.4667 80.6699L96.5139 80.5449C96.5725 80.3922 96.6724 80.2674 96.8 80.1726L96.9194 80.0865L97.0389 79.9976L97.0528 79.9837V79.9782L97.0861 79.8449L97.1167 79.7115C97.1496 79.5708 97.2123 79.4411 97.3028 79.3282L97.3861 79.2226L97.4639 79.1199C97.4638 79.1175 97.4642 79.1148 97.4639 79.1115L97.4306 78.7949C97.4081 78.5817 97.4799 78.3749 97.6583 78.231L97.8861 78.0476C97.9338 78.0092 97.9695 77.9705 97.9944 77.931L98.0667 77.8143L98.1389 77.7004C98.1608 77.6651 98.1754 77.6246 98.1833 77.5782L98.2083 77.4421L98.2306 77.306C98.2516 77.1834 98.288 77.0643 98.3417 76.9532L98.4583 76.7143C98.5116 76.6039 98.5792 76.5015 98.6611 76.4087L98.7556 76.3032L98.8472 76.2004C98.8735 76.1707 98.8884 76.1406 98.8972 76.1087L98.9694 75.8476C98.9859 75.7868 98.9938 75.721 98.9972 75.6504L99.0056 75.5087L99.0111 75.3671C99.0202 75.1818 99.0965 75.0156 99.2278 74.8865L99.3306 74.7865L99.4333 74.6837C99.435 74.6816 99.4407 74.6756 99.4472 74.6615C99.4572 74.6397 99.4705 74.6043 99.4806 74.5532L99.5222 74.3337L99.5306 74.2976L99.5444 74.2615L99.5861 74.1699L100.236 74.4532Z" fill="#EB7373"/>
<path d="M96.475 78.0171L96.6305 78.1199C96.782 78.2211 96.9252 78.355 97 78.5338L97.1111 78.8004C97.1124 78.8036 97.1136 78.8055 97.1138 78.806L97.375 78.9227C97.4824 78.971 97.5844 79.0297 97.6777 79.0977L97.7861 79.1754L97.8944 79.256C98.0121 79.3416 98.1068 79.4504 98.175 79.5782L98.2388 79.7004L98.3055 79.8254C98.3341 79.8787 98.3681 79.9231 98.4055 79.9615L98.4972 80.0588L98.5916 80.1532C98.6289 80.1914 98.6732 80.2242 98.725 80.2532L98.8444 80.3227L98.9666 80.3893C99.0854 80.4561 99.1897 80.5441 99.275 80.6504L99.3583 80.756L99.4416 80.8588C99.5115 80.946 99.5637 81.0442 99.6055 81.1477L99.7361 81.2782L99.8083 81.3477L99.7111 81.4421L99.7222 81.4699H99.7166L99.7 81.4532L99.6361 81.5171L99.8388 81.5032L99.85 81.6338L99.8611 81.7977L99.7166 81.9421C99.6398 82.019 99.5001 82.0857 99.3416 82.0365C99.227 82.0006 99.1645 81.9192 99.1444 81.8921C99.0974 81.8286 99.0694 81.7538 99.0527 81.706L99.0055 81.5699L98.9583 81.4365C98.9398 81.3837 98.9151 81.3395 98.8861 81.3032L98.8027 81.2004L98.7194 81.0949C98.6929 81.0618 98.6587 81.0324 98.6166 81.0088L98.4972 80.9421L98.375 80.8754C98.2661 80.8143 98.1671 80.7393 98.0805 80.6504L97.9888 80.5532L97.8944 80.4588C97.8081 80.3701 97.7365 80.2689 97.6777 80.1588L97.6111 80.0365L97.5472 79.9143C97.5281 79.8786 97.5052 79.8512 97.4777 79.831L97.3666 79.7504L97.2583 79.6727C97.2066 79.635 97.1487 79.5993 97.0833 79.5699L96.8222 79.4532C96.6525 79.3769 96.5269 79.246 96.4555 79.0754L96.3444 78.8088C96.3444 78.8089 96.3263 78.7719 96.2361 78.7115L96.05 78.5893L96.0222 78.5699L95.9972 78.5449L95.925 78.4754L96.4305 77.9699L96.475 78.0171ZM99.7222 81.4699C99.7363 81.5105 99.7377 81.4986 99.7166 81.4699H99.7222Z" fill="#EB7373"/>
<path d="M92.3861 83.7056L92.5416 83.8084C92.6932 83.9096 92.8363 84.0435 92.9111 84.2222L93.0222 84.4889C93.0235 84.4921 93.0247 84.494 93.025 84.4945L93.2861 84.6111C93.3935 84.6595 93.4955 84.7182 93.5889 84.7861L93.6972 84.8639L93.8055 84.9445C93.9232 85.0301 94.0179 85.1389 94.0861 85.2667L94.15 85.3889L94.2166 85.5139C94.2452 85.5672 94.2793 85.6116 94.3166 85.65L94.4083 85.7472L94.5028 85.8417C94.54 85.8799 94.5843 85.9126 94.6361 85.9417L94.7555 86.0111L94.8778 86.0778C94.9965 86.1446 95.1008 86.2325 95.1861 86.3389L95.2694 86.4445L95.3528 86.5472C95.4227 86.6345 95.4748 86.7327 95.5166 86.8361L95.6472 86.9667L95.7194 87.0361L95.6222 87.1306L95.6333 87.1584H95.6278L95.6111 87.1417L95.5472 87.2056L95.75 87.1917L95.7611 87.3222L95.7722 87.4861L95.6278 87.6306C95.5509 87.7074 95.4112 87.7742 95.2528 87.725C95.1381 87.6891 95.0757 87.6076 95.0555 87.5806C95.0085 87.5171 94.9805 87.4423 94.9639 87.3945L94.9166 87.2584L94.8694 87.125C94.851 87.0722 94.8263 87.028 94.7972 86.9917L94.7139 86.8889L94.6305 86.7834C94.6041 86.7503 94.5698 86.7209 94.5278 86.6972L94.4083 86.6306L94.2861 86.5639C94.1772 86.5027 94.0782 86.4278 93.9916 86.3389L93.9 86.2417L93.8055 86.1472C93.7192 86.0585 93.6476 85.9573 93.5889 85.8472L93.5222 85.725L93.4583 85.6028C93.4393 85.5671 93.4163 85.5396 93.3889 85.5195L93.2778 85.4389L93.1694 85.3611C93.1177 85.3235 93.0599 85.2878 92.9944 85.2584L92.7333 85.1417C92.5636 85.0654 92.438 84.9345 92.3666 84.7639L92.2555 84.4972C92.2555 84.4974 92.2374 84.4604 92.1472 84.4L91.9611 84.2778L91.9333 84.2584L91.9083 84.2334L91.8361 84.1639L92.3416 83.6584L92.3861 83.7056ZM95.6333 87.1584C95.6475 87.199 95.6488 87.1871 95.6278 87.1584H95.6333Z" fill="#EB7373"/>
</svg>
