<svg width="128" height="128" viewBox="0 0 128 128" fill="none" xmlns="http://www.w3.org/2000/svg">
<path d="M37.6858 73.4223L37.4747 73.7057L37.3941 73.6473L37.1108 73.4334L37.158 73.3668L37.1441 73.364C37.0397 73.3289 36.9379 73.286 36.8414 73.2334L36.7247 73.1696L36.6052 73.1057C36.5232 73.061 36.4416 73.0147 36.3608 72.9668L36.2469 72.8973L36.1302 72.8279C35.9854 72.7419 35.8792 72.6176 35.8108 72.4696L35.6886 72.2029C35.6785 72.1811 35.6702 72.177 35.6664 72.1751L35.4219 72.0529C35.2902 71.9872 35.1787 71.8938 35.0914 71.7751L35.0108 71.6668L34.933 71.5612C34.9296 71.5602 34.923 71.5596 34.9164 71.5584L34.6052 71.5029C34.3914 71.4647 34.213 71.3354 34.1275 71.1196L34.0719 70.9834L34.0191 70.8473C33.9953 70.7871 33.9668 70.7378 33.9358 70.7001L33.8497 70.5973L33.7664 70.4946C33.7389 70.4611 33.7039 70.4325 33.6608 70.4084L33.5386 70.3418L33.4191 70.2723C33.309 70.2109 33.2088 70.135 33.1219 70.0446L33.0302 69.9501L32.9386 69.8529C32.8523 69.763 32.7793 69.6617 32.7219 69.5501L32.5941 69.3001C32.5751 69.2633 32.5525 69.2353 32.5247 69.214L32.4164 69.1334L32.3108 69.0501C32.2591 69.0106 32.1986 68.9768 32.133 68.9446L31.8775 68.8168C31.7094 68.734 31.5861 68.5971 31.5219 68.4223L31.4747 68.2862L31.4247 68.1529C31.4247 68.1529 31.421 68.1411 31.4052 68.1223C31.3887 68.1026 31.361 68.0763 31.3191 68.0446L31.1191 67.8946L31.0969 67.8723L31.0302 67.7973L31.5469 67.314L31.5858 67.3584L31.7469 67.4779C31.8915 67.5872 32.0254 67.7265 32.0914 67.9057L32.1914 68.1779V68.1807L32.3191 68.2418L32.4469 68.3057C32.5517 68.3571 32.6507 68.4169 32.7414 68.4862L32.8497 68.5696L32.9552 68.6501C33.0696 68.7377 33.1619 68.8476 33.2275 68.9751L33.3552 69.2251C33.3824 69.2778 33.4133 69.3233 33.4497 69.3612L33.5414 69.4557L33.6358 69.5529C33.672 69.5906 33.7155 69.6246 33.7664 69.6529L33.8858 69.7196L34.008 69.7862C34.1256 69.8518 34.2279 69.9379 34.3136 70.0418L34.3997 70.1446L34.4858 70.2501C34.5676 70.3498 34.632 70.462 34.6802 70.5834L34.733 70.7196L34.7691 70.8084L34.8858 70.8307L35.0414 70.8584C35.1752 70.8823 35.3035 70.9373 35.408 71.0307L35.5025 71.1362L35.6636 71.3529C35.6833 71.3797 35.7069 71.4009 35.7386 71.4168L35.983 71.539C36.1426 71.6186 36.2606 71.7464 36.333 71.9029L36.3941 72.0362L36.4552 72.1723C36.4692 72.2024 36.4847 72.2112 36.4941 72.2168L36.608 72.2862L36.7247 72.3557C36.7979 72.3991 36.8727 72.4403 36.9469 72.4807L37.1802 72.6084C37.2403 72.6411 37.3037 72.6698 37.3691 72.6918L37.4969 72.7334L37.6247 72.7779C37.6877 72.7991 37.7634 72.8313 37.8302 72.8834C37.865 72.9108 37.9021 72.9463 37.933 72.9918L37.9997 73.1584L38.0136 73.2251L38.0414 73.3779L37.9469 73.5029L37.8914 73.5779L37.6858 73.4223Z" fill="#EB7373"/>
<path d="M34.5913 70.5219V70.5274L34.5552 70.6635L34.5163 70.8024C34.4853 70.916 34.4438 71.0247 34.3913 71.1274L34.3302 71.2469L34.2691 71.3691C34.2134 71.4778 34.1201 71.6119 33.9635 71.683L33.8885 71.7191L33.8246 71.7441L33.6635 71.9524L33.3857 71.7524V71.7496C33.335 71.7127 33.2819 71.6546 33.2552 71.5719C33.2294 71.4913 33.2392 71.4177 33.2524 71.3691C33.2751 71.2857 33.32 71.233 33.3302 71.2219C33.3343 71.2174 33.34 71.2147 33.3441 71.2107L33.3802 71.1635L33.3913 71.1691H33.3941C33.4109 71.1575 33.4269 71.1486 33.4302 71.1469C33.4407 71.1412 33.4511 71.1362 33.4579 71.133C33.474 71.1252 33.4964 71.1139 33.5218 71.1024L33.5968 71.0691L33.6302 71.0524C33.6316 71.0498 33.634 71.0473 33.6357 71.0441L33.7579 70.8052C33.7871 70.7481 33.8113 70.6829 33.8302 70.6135L33.8691 70.4774L33.9052 70.3385C33.9542 70.1587 34.0668 70.0134 34.2246 69.9163L34.4691 69.7663C34.4688 69.7664 34.5012 69.7427 34.5468 69.6441L34.6413 69.4441L34.6552 69.4107L34.6746 69.383L34.7329 69.3024L35.3107 69.7191L35.2718 69.7663L35.1941 69.9413C35.1176 70.1072 35.0068 70.27 34.8413 70.3719L34.5968 70.5219H34.5913ZM33.8052 71.1774L33.6579 71.3746L33.9246 71.5774C33.9273 71.5697 33.9362 71.5636 33.9385 71.5552C33.9515 71.5068 33.9583 71.4352 33.9329 71.3552C33.9064 71.272 33.8533 71.2117 33.8024 71.1746L33.8052 71.1774Z" fill="#EB7373"/>
</svg>
