<svg width="128" height="128" viewBox="0 0 128 128" fill="none" xmlns="http://www.w3.org/2000/svg">
<circle cx="39.2892" cy="72.3556" r="0.533333" fill="#EB7373"/>
<path d="M39.6892 71.5584L39.8086 71.6612L39.9003 71.7639L39.9892 71.8639C40.0246 71.9037 40.0604 71.948 40.0892 71.9917C40.0984 72.0056 40.1187 72.0343 40.1364 72.075L40.1725 72.225L40.1753 72.2612V72.3C40.1801 72.4038 40.1434 72.4895 40.1281 72.5223C40.1069 72.5676 40.0776 72.6115 40.0503 72.6528L39.917 72.8584C39.824 72.9992 39.6901 73.0926 39.5447 73.15L39.4086 73.2056L39.2697 73.2584C39.1773 73.2948 39.0253 73.3285 38.8697 73.2528C38.7139 73.1764 38.6473 73.0355 38.6197 72.9389L38.5809 72.8L38.5392 72.6584C38.4982 72.5149 38.4844 72.3379 38.567 72.1695L38.6142 72.0778L38.6586 71.9834L38.7864 71.8056C38.8363 71.7551 38.8934 71.7126 38.9531 71.6778L39.0586 71.6167L39.167 71.5528C39.2589 71.4993 39.3811 71.4627 39.517 71.4889C39.5829 71.5018 39.6407 71.5274 39.6892 71.5584ZM39.3114 72.2917C39.3015 72.2975 39.2939 72.3011 39.292 72.3028L39.2531 72.3917L39.2197 72.4528L39.2336 72.5084L39.2836 72.4889C39.3033 72.4812 39.3151 72.473 39.3197 72.4695L39.3225 72.4667L39.392 72.3639L39.4281 72.3056L39.3809 72.25L39.3114 72.2917Z" fill="#EB7373"/>
<circle cx="35.3781" cy="74.4884" r="0.533333" fill="#EB7373"/>
<path d="M35.7781 73.6912L35.8975 73.794L35.9892 73.8967L36.0781 73.9967C36.1135 74.0365 36.1493 74.0809 36.1781 74.1245C36.1872 74.1384 36.2076 74.1671 36.2253 74.2079L36.2614 74.3579L36.2642 74.394V74.4329C36.269 74.5366 36.2323 74.6223 36.2169 74.6551C36.1957 74.7004 36.1664 74.7443 36.1392 74.7856L36.0058 74.9912C35.9129 75.132 35.779 75.2254 35.6336 75.2829L35.4975 75.3384L35.3586 75.3912C35.2662 75.4276 35.1142 75.4613 34.9586 75.3856C34.8027 75.3092 34.7362 75.1683 34.7086 75.0717L34.6697 74.9329L34.6281 74.7912C34.587 74.6477 34.5732 74.4707 34.6558 74.3023L34.7031 74.2106L34.7475 74.1162L34.8753 73.9384C34.9252 73.8879 34.9823 73.8454 35.0419 73.8106L35.1475 73.7495L35.2558 73.6856C35.3478 73.6321 35.4699 73.5955 35.6058 73.6217C35.6718 73.6346 35.7296 73.6602 35.7781 73.6912ZM35.4003 74.4245C35.3903 74.4303 35.3827 74.4339 35.3808 74.4356L35.3419 74.5245L35.3086 74.5856L35.3225 74.6412L35.3725 74.6217C35.3922 74.614 35.404 74.6059 35.4086 74.6023L35.4114 74.5995L35.4808 74.4967L35.5169 74.4384L35.4697 74.3829L35.4003 74.4245Z" fill="#EB7373"/>
<circle cx="41.778" cy="75.2003" r="0.533333" fill="#EB7373"/>
<path d="M42.178 74.4031L42.2974 74.5059L42.3891 74.6087L42.478 74.7087C42.5134 74.7484 42.5492 74.7928 42.578 74.8364C42.5871 74.8503 42.6075 74.8791 42.6252 74.9198L42.6613 75.0698L42.6641 75.1059V75.1448C42.6689 75.2485 42.6322 75.3342 42.6169 75.367C42.5956 75.4124 42.5663 75.4562 42.5391 75.4975L42.4057 75.7031C42.3128 75.8439 42.1789 75.9373 42.0335 75.9948L41.8974 76.0503L41.7585 76.1031C41.6661 76.1395 41.5141 76.1732 41.3585 76.0975C41.2026 76.0211 41.1361 75.8802 41.1085 75.7837L41.0696 75.6448L41.028 75.5031C40.9869 75.3596 40.9731 75.1826 41.0557 75.0142L41.103 74.9225L41.1474 74.8281L41.2752 74.6503C41.3251 74.5998 41.3822 74.5573 41.4419 74.5225L41.5474 74.4614L41.6557 74.3975C41.7477 74.344 41.8698 74.3075 42.0057 74.3337C42.0717 74.3465 42.1295 74.3721 42.178 74.4031ZM41.8002 75.1364C41.7902 75.1422 41.7826 75.1458 41.7807 75.1475L41.7419 75.2364L41.7085 75.2975L41.7224 75.3531L41.7724 75.3337C41.7921 75.3259 41.8039 75.3178 41.8085 75.3142L41.8113 75.3114L41.8807 75.2087L41.9169 75.1503L41.8696 75.0948L41.8002 75.1364Z" fill="#EB7373"/>
<circle cx="0.533333" cy="0.533333" r="0.533333" transform="matrix(-1 0 0 1 88.8892 71.8223)" fill="#EB7373"/>
<path d="M87.9558 71.5584L87.8364 71.6612L87.7447 71.7639L87.6558 71.8639C87.6204 71.9037 87.5846 71.948 87.5558 71.9917C87.5467 72.0056 87.5263 72.0343 87.5086 72.075L87.4725 72.225L87.4697 72.2612V72.3C87.4649 72.4038 87.5016 72.4895 87.5169 72.5223C87.5382 72.5676 87.5675 72.6115 87.5947 72.6528L87.728 72.8584C87.821 72.9992 87.9549 73.0926 88.1003 73.15L88.2364 73.2056L88.3753 73.2584C88.4677 73.2948 88.6197 73.3285 88.7753 73.2528C88.9312 73.1764 88.9977 73.0355 89.0253 72.9389L89.0642 72.8L89.1058 72.6584C89.1468 72.5149 89.1606 72.3379 89.078 72.1695L89.0308 72.0778L88.9864 71.9834L88.8586 71.8056C88.8087 71.7551 88.7516 71.7126 88.6919 71.6778L88.5864 71.6167L88.478 71.5528C88.3861 71.4993 88.264 71.4627 88.128 71.4889C88.0621 71.5018 88.0043 71.5274 87.9558 71.5584ZM88.3336 72.2917C88.3435 72.2975 88.3512 72.3011 88.353 72.3028L88.3919 72.3917L88.4253 72.4528L88.4114 72.5084L88.3614 72.4889C88.3417 72.4812 88.3299 72.473 88.3253 72.4695L88.3225 72.4667L88.253 72.3639L88.2169 72.3056L88.2642 72.25L88.3336 72.2917Z" fill="#EB7373"/>
<circle cx="0.533333" cy="0.533333" r="0.533333" transform="matrix(-1 0 0 1 92.8003 73.9551)" fill="#EB7373"/>
<path d="M91.867 73.6912L91.7475 73.794L91.6558 73.8967L91.567 73.9967C91.5315 74.0365 91.4958 74.0809 91.467 74.1245C91.4578 74.1384 91.4374 74.1671 91.4197 74.2079L91.3836 74.3579L91.3808 74.394V74.4329C91.3761 74.5366 91.4127 74.6223 91.4281 74.6551C91.4493 74.7004 91.4786 74.7443 91.5058 74.7856L91.6392 74.9912C91.7321 75.132 91.866 75.2254 92.0114 75.2829L92.1475 75.3384L92.2864 75.3912C92.3788 75.4276 92.5308 75.4613 92.6864 75.3856C92.8423 75.3092 92.9088 75.1683 92.9364 75.0717L92.9753 74.9329L93.017 74.7912C93.058 74.6477 93.0718 74.4707 92.9892 74.3023L92.942 74.2106L92.8975 74.1162L92.7697 73.9384C92.7199 73.8879 92.6628 73.8454 92.6031 73.8106L92.4975 73.7495L92.3892 73.6856C92.2972 73.6321 92.1751 73.5955 92.0392 73.6217C91.9733 73.6346 91.9155 73.6602 91.867 73.6912ZM92.2447 74.4245C92.2547 74.4303 92.2623 74.4339 92.2642 74.4356L92.3031 74.5245L92.3364 74.5856L92.3225 74.6412L92.2725 74.6217C92.2529 74.614 92.2411 74.6059 92.2364 74.6023L92.2336 74.5995L92.1642 74.4967L92.1281 74.4384L92.1753 74.3829L92.2447 74.4245Z" fill="#EB7373"/>
<circle cx="0.533333" cy="0.533333" r="0.533333" transform="matrix(-1 0 0 1 86.4004 74.667)" fill="#EB7373"/>
<path d="M85.4671 74.4031L85.3476 74.5059L85.2559 74.6087L85.1671 74.7087C85.1316 74.7484 85.0959 74.7928 85.0671 74.8364C85.0579 74.8503 85.0375 74.8791 85.0198 74.9198L84.9837 75.0698L84.9809 75.1059V75.1448C84.9761 75.2485 85.0128 75.3342 85.0282 75.367C85.0494 75.4124 85.0787 75.4562 85.1059 75.4975L85.2393 75.7031C85.3322 75.8439 85.4661 75.9373 85.6115 75.9948L85.7476 76.0503L85.8865 76.1031C85.9789 76.1395 86.1309 76.1732 86.2865 76.0975C86.4424 76.0211 86.5089 75.8802 86.5365 75.7837L86.5754 75.6448L86.6171 75.5031C86.6581 75.3596 86.6719 75.1826 86.5893 75.0142L86.5421 74.9225L86.4976 74.8281L86.3698 74.6503C86.32 74.5998 86.2628 74.5573 86.2032 74.5225L86.0976 74.4614L85.9893 74.3975C85.8973 74.344 85.7752 74.3075 85.6393 74.3337C85.5734 74.3465 85.5156 74.3721 85.4671 74.4031ZM85.8448 75.1364C85.8548 75.1422 85.8624 75.1458 85.8643 75.1475L85.9032 75.2364L85.9365 75.2975L85.9226 75.3531L85.8726 75.3337C85.853 75.3259 85.8412 75.3178 85.8365 75.3142L85.8337 75.3114L85.7643 75.2087L85.7282 75.1503L85.7754 75.0948L85.8448 75.1364Z" fill="#EB7373"/>
</svg>
