<svg width="128" height="128" viewBox="0 0 128 128" fill="none" xmlns="http://www.w3.org/2000/svg">
<circle cx="45.3331" cy="71.2892" r="0.533333" fill="#4F4F4F"/>
<path d="M45.7331 70.492L45.8526 70.5947L45.9442 70.6975L46.0331 70.7975C46.0686 70.8373 46.1043 70.8816 46.1331 70.9253C46.1423 70.9392 46.1627 70.9679 46.1804 71.0086L46.2165 71.1586L46.2192 71.1947V71.2336C46.224 71.3374 46.1874 71.4231 46.172 71.4559C46.1508 71.5012 46.1215 71.5451 46.0942 71.5864L45.9609 71.792C45.868 71.9328 45.7341 72.0262 45.5887 72.0836L45.4526 72.1392L45.3137 72.192C45.2213 72.2284 45.0693 72.2621 44.9137 72.1864C44.7578 72.11 44.6913 71.969 44.6637 71.8725L44.6248 71.7336L44.5831 71.592C44.5421 71.4485 44.5283 71.2715 44.6109 71.1031L44.6581 71.0114L44.7026 70.917L44.8304 70.7392C44.8802 70.6887 44.9373 70.6462 44.997 70.6114L45.1026 70.5503L45.2109 70.4864C45.3029 70.4329 45.425 70.3963 45.5609 70.4225C45.6268 70.4354 45.6846 70.461 45.7331 70.492ZM45.3554 71.2253C45.3454 71.2311 45.3378 71.2347 45.3359 71.2364L45.297 71.3253L45.2637 71.3864L45.2776 71.442L45.3276 71.4225C45.3472 71.4148 45.359 71.4066 45.3637 71.4031L45.3665 71.4003L45.4359 71.2975L45.472 71.2392L45.4248 71.1836L45.3554 71.2253Z" fill="#4F4F4F"/>
</svg>
