<svg width="128" height="128" viewBox="0 0 128 128" fill="none" xmlns="http://www.w3.org/2000/svg">
<path d="M75.0359 76.8414L75.0776 76.8525L75.1165 76.8719L75.3137 76.9831C75.4276 77.0474 75.4901 77.0684 75.5137 77.0719L75.647 77.0886L75.7776 77.1081C75.8765 77.122 75.9748 77.1399 76.072 77.1636L76.2026 77.1969L76.3303 77.2275C76.435 77.253 76.5367 77.2882 76.6359 77.3303L76.7581 77.3803L76.8803 77.4331C76.9296 77.4539 76.9842 77.4683 77.0415 77.4747L77.1776 77.4886L77.3109 77.5053C77.3894 77.5141 77.4717 77.5177 77.5553 77.5192L77.6998 77.5219L77.8415 77.5247C78.0115 77.5278 78.1704 77.5827 78.3053 77.6886L78.4165 77.7747L78.5248 77.8636C78.5748 77.903 78.6277 77.9323 78.6803 77.9553L78.8026 78.0081L78.9248 78.0636C78.9763 78.086 79.0339 78.1015 79.097 78.1108L79.2359 78.1303L79.3748 78.1525C79.5667 78.181 79.7243 78.2826 79.8359 78.4331L80.0137 78.6719L80.1498 78.6914L80.2915 78.7136C80.4482 78.7364 80.5814 78.8076 80.6803 78.9164L80.7665 79.0358L80.922 79.2969C80.9298 79.3101 80.9328 79.3161 80.9331 79.3164L81.0637 79.3608L81.1942 79.4025L81.5859 79.5331L81.7192 79.5747C81.911 79.6369 82.0504 79.7732 82.1303 79.9469L82.1942 80.0831L82.2553 80.2219C82.2758 80.2663 82.2979 80.2878 82.3137 80.2997L82.422 80.3803L82.5276 80.4581C82.6003 80.5117 82.6723 80.5668 82.7442 80.6219L82.9553 80.7831C83.0106 80.8254 83.071 80.8638 83.1359 80.8997L83.2581 80.9664L83.3776 81.0331C83.4827 81.0911 83.5791 81.1629 83.6665 81.2442L83.7665 81.3358L83.8637 81.4275C83.9795 81.5353 84.0582 81.6681 84.1026 81.8164L84.1442 81.9581L84.1748 82.0664L84.3026 82.1164L84.4498 82.1719C84.5984 82.2281 84.7323 82.317 84.8331 82.4469L84.9165 82.5553L84.997 82.6608C85.1057 82.8009 85.1563 82.9656 85.1609 83.1331L85.1637 83.2914L85.1692 83.4469V83.4525L85.2609 83.5386L85.3637 83.6331C85.4968 83.7552 85.5751 83.9141 85.5942 84.0914L85.6081 84.2331L85.622 84.3553L85.7415 84.4469L85.8637 84.5358C85.9076 84.5679 85.9597 84.6076 85.9998 84.6497C86.0151 84.6658 86.0603 84.7128 86.0887 84.7831C86.104 84.8208 86.1259 84.8933 86.1109 84.9831C86.0938 85.0854 86.0355 85.1677 85.9637 85.2192L85.9415 85.2358L85.7553 85.3664L85.5581 85.2553L85.4637 85.2025L85.5387 85.0636L85.4609 85.1081C85.4631 85.1113 85.4648 85.1142 85.4665 85.1164C85.474 85.1267 85.4798 85.135 85.4831 85.1386C85.4785 85.1348 85.4684 85.1281 85.4526 85.1164L85.3831 85.1581L85.3331 85.0719L85.2859 84.9914L85.1998 84.9303C85.0436 84.8162 84.938 84.6516 84.9165 84.4497L84.9053 84.3525L84.6776 83.9692C84.5296 83.8328 84.4631 83.6528 84.4581 83.4664L84.4526 83.3108L84.4498 83.1525C84.4486 83.1114 84.4378 83.0994 84.4359 83.0969L84.3526 82.9914L84.2692 82.8831C84.2595 82.8707 84.2403 82.8521 84.197 82.8358L84.0526 82.7831L83.9081 82.7275C83.7146 82.6547 83.5673 82.5089 83.5053 82.3025L83.422 82.0192C83.4106 81.9814 83.3952 81.9608 83.3803 81.9469L83.2803 81.8553L83.1831 81.7636C83.1393 81.7229 83.0887 81.686 83.0331 81.6553L82.9137 81.5886L82.7942 81.5247C82.6989 81.4721 82.6068 81.4119 82.522 81.3469L82.3109 81.1858C82.2426 81.1335 82.1744 81.0812 82.1053 81.0303L81.9998 80.9525L81.8915 80.8719C81.7661 80.7791 81.6744 80.657 81.6109 80.5192L81.547 80.3803L81.4831 80.2469L81.3665 80.2081L81.2331 80.1664C81.1431 80.1372 81.0542 80.1071 80.9665 80.0775L80.8359 80.0331L80.7081 79.9886C80.5317 79.9291 80.3977 79.8103 80.3081 79.6581L80.2303 79.5275L80.1609 79.4108L80.0498 79.3942L79.9081 79.3747C79.716 79.3468 79.5545 79.2465 79.4415 79.0942L79.2637 78.8553L79.2609 78.8525L79.1303 78.8358L78.9915 78.8136C78.8698 78.7955 78.7529 78.7622 78.6415 78.7136L78.5192 78.6608L78.3942 78.6081C78.2841 78.5599 78.1813 78.497 78.0859 78.4219L77.9748 78.3358L77.8665 78.2497C77.8559 78.2414 77.8463 78.2361 77.8276 78.2358L77.5442 78.2303C77.4388 78.2285 77.3351 78.2223 77.2331 78.2108L77.097 78.1969L76.9609 78.1803C76.8379 78.1664 76.7189 78.1365 76.6053 78.0886L76.4803 78.0358L76.3581 77.9831C76.2945 77.9562 76.2279 77.9355 76.1609 77.9192L76.0331 77.8858L75.9026 77.8553C75.8283 77.8372 75.7529 77.8242 75.6776 77.8136L75.4165 77.7747C75.2643 77.7533 75.1074 77.6854 74.9609 77.6025L74.8053 77.5136L74.747 77.4969L74.9415 76.8136L75.0359 76.8414Z" fill="#0C151D" fill-opacity="0.2"/>
</svg>
