<svg width="128" height="128" viewBox="0 0 128 128" fill="none" xmlns="http://www.w3.org/2000/svg">
<circle cx="76.9782" cy="91.2003" r="0.533333" fill="#4F4F4F"/>
<path d="M77.3782 90.4031L77.4976 90.5059L77.5893 90.6087L77.6782 90.7087C77.7136 90.7484 77.7494 90.7928 77.7782 90.8364C77.7873 90.8503 77.8077 90.8791 77.8254 90.9198L77.8615 91.0698L77.8643 91.1059V91.1448C77.8691 91.2485 77.8324 91.3342 77.817 91.367C77.7958 91.4124 77.7665 91.4562 77.7393 91.4975L77.6059 91.7031C77.513 91.8439 77.3791 91.9373 77.2337 91.9948L77.0976 92.0503L76.9587 92.1031C76.8663 92.1395 76.7143 92.1732 76.5587 92.0975C76.4028 92.0211 76.3363 91.8802 76.3087 91.7837L76.2698 91.6448L76.2282 91.5031C76.1871 91.3596 76.1733 91.1826 76.2559 91.0142L76.3032 90.9225L76.3476 90.8281L76.4754 90.6503C76.5253 90.5998 76.5824 90.5573 76.642 90.5225L76.7476 90.4614L76.8559 90.3975C76.9479 90.344 77.07 90.3075 77.2059 90.3337C77.2719 90.3465 77.3296 90.3721 77.3782 90.4031ZM77.0004 91.1364C76.9904 91.1422 76.9828 91.1458 76.9809 91.1475L76.942 91.2364L76.9087 91.2975L76.9226 91.3531L76.9726 91.3337C76.9923 91.3259 77.0041 91.3178 77.0087 91.3142L77.0115 91.3114L77.0809 91.2087L77.117 91.1503L77.0698 91.0948L77.0004 91.1364Z" fill="#4F4F4F"/>
</svg>
