<svg width="128" height="128" viewBox="0 0 128 128" fill="none" xmlns="http://www.w3.org/2000/svg">
<circle cx="61.3336" cy="76.6222" r="0.533333" fill="#4F4F4F"/>
<path d="M61.7336 75.825L61.8531 75.9278L61.9447 76.0305L62.0336 76.1305C62.0691 76.1703 62.1048 76.2146 62.1336 76.2583C62.1428 76.2722 62.1632 76.3009 62.1808 76.3416L62.217 76.4916L62.2197 76.5278V76.5666C62.2245 76.6704 62.1878 76.7561 62.1725 76.7889C62.1513 76.8342 62.122 76.8781 62.0947 76.9194L61.9614 77.125C61.8685 77.2658 61.7346 77.3592 61.5892 77.4166L61.4531 77.4722L61.3142 77.525C61.2218 77.5614 61.0697 77.5951 60.9142 77.5194C60.7583 77.443 60.6918 77.3021 60.6642 77.2055L60.6253 77.0666L60.5836 76.925C60.5426 76.7815 60.5288 76.6045 60.6114 76.4361L60.6586 76.3444L60.7031 76.25L60.8308 76.0722C60.8807 76.0217 60.9378 75.9792 60.9975 75.9444L61.1031 75.8833L61.2114 75.8194C61.3034 75.7659 61.4255 75.7293 61.5614 75.7555C61.6273 75.7684 61.6851 75.794 61.7336 75.825ZM61.3558 76.5583C61.3459 76.5641 61.3383 76.5677 61.3364 76.5694L61.2975 76.6583L61.2642 76.7194L61.2781 76.775L61.3281 76.7555C61.3477 76.7478 61.3595 76.7396 61.3642 76.7361L61.367 76.7333L61.4364 76.6305L61.4725 76.5722L61.4253 76.5166L61.3558 76.5583Z" fill="#4F4F4F"/>
</svg>
