<svg width="128" height="128" viewBox="0 0 128 128" fill="none" xmlns="http://www.w3.org/2000/svg">
<path d="M66.0474 105.658C66.1402 105.669 66.202 105.713 66.2261 105.731C66.2749 105.769 66.303 105.812 66.3081 105.819C66.3181 105.834 66.3251 105.848 66.3296 105.856C66.3459 105.887 66.3623 105.925 66.3745 105.956L66.4478 106.141C66.4868 106.239 66.521 106.435 66.3647 106.594C66.2498 106.71 66.1002 106.723 66.0386 106.727L65.9038 106.735L65.769 106.743C65.7356 106.745 65.6848 106.745 65.6313 106.735C65.6023 106.73 65.4424 106.7 65.3569 106.539C65.2578 106.351 65.3555 106.189 65.3813 106.15C65.3989 106.124 65.4189 106.102 65.437 106.084L65.4849 106.04L65.5825 105.961L65.6772 105.884C65.6896 105.852 65.7099 105.809 65.7485 105.769C65.8211 105.692 65.9302 105.645 66.0474 105.658ZM60.2739 105.658C60.367 105.669 60.4286 105.714 60.4526 105.732C60.5012 105.77 60.5304 105.811 60.5356 105.818C60.5457 105.833 60.5535 105.847 60.5581 105.855C60.5744 105.886 60.5898 105.926 60.6021 105.957L60.6372 106.048L60.6753 106.14C60.7143 106.238 60.7484 106.435 60.5923 106.594C60.4774 106.71 60.3269 106.723 60.2651 106.727L60.1313 106.734L59.9946 106.741C59.9612 106.743 59.9108 106.745 59.8579 106.735C59.8278 106.73 59.6696 106.699 59.5845 106.538C59.4858 106.351 59.5821 106.189 59.6079 106.15L59.7104 106.04L59.9058 105.881C59.9103 105.877 59.9157 105.874 59.9194 105.871C59.9324 105.843 59.9428 105.803 59.9741 105.77C60.0467 105.693 60.1569 105.645 60.2739 105.658ZM70.4302 105.185C70.523 105.195 70.5847 105.239 70.6089 105.258C70.6578 105.296 70.6868 105.338 70.6919 105.346C70.7018 105.361 70.7089 105.374 70.7134 105.383C70.7296 105.413 70.7451 105.452 70.7573 105.482L70.8315 105.667C70.8706 105.765 70.9048 105.962 70.7485 106.12C70.6336 106.236 70.484 106.249 70.4224 106.253L70.2866 106.262L70.1519 106.27C70.1183 106.271 70.0675 106.272 70.0142 106.262C69.9841 106.256 69.8249 106.226 69.7397 106.065C69.6408 105.878 69.7384 105.715 69.7642 105.677C69.7817 105.651 69.8017 105.629 69.8198 105.61L69.8677 105.566L69.9653 105.487L70.061 105.41C70.0734 105.379 70.0937 105.336 70.1323 105.295C70.2049 105.218 70.3131 105.172 70.4302 105.185ZM55.8901 105.185C55.9833 105.195 56.0458 105.24 56.0698 105.259C56.1184 105.296 56.1477 105.337 56.1528 105.345C56.1627 105.36 56.1698 105.373 56.1743 105.382C56.1906 105.413 56.206 105.453 56.2183 105.483L56.2534 105.574L56.2925 105.666C56.3315 105.764 56.3646 105.962 56.2085 106.12C56.0935 106.236 55.9429 106.25 55.8813 106.253L55.7476 106.261L55.6118 106.268C55.5784 106.269 55.5279 106.271 55.4751 106.262C55.4455 106.256 55.2869 106.225 55.2017 106.064C55.1028 105.877 55.1993 105.715 55.2251 105.677L55.3276 105.566L55.522 105.407C55.5266 105.404 55.5328 105.401 55.5366 105.397C55.5495 105.369 55.5592 105.329 55.5903 105.296C55.6628 105.219 55.7732 105.172 55.8901 105.185ZM51.6255 104.474C51.7187 104.484 51.7812 104.529 51.8052 104.548C51.8538 104.586 51.883 104.626 51.8882 104.634C51.8983 104.649 51.9051 104.663 51.9097 104.672C51.926 104.703 51.9424 104.742 51.9546 104.772L51.9888 104.864L52.0278 104.955C52.0668 105.053 52.0999 105.251 51.9438 105.409C51.8289 105.525 51.6783 105.539 51.6167 105.542L51.4839 105.55L51.3472 105.558C51.3137 105.559 51.2633 105.56 51.2104 105.551C51.1808 105.545 51.0223 105.515 50.937 105.354C50.8379 105.167 50.9346 105.004 50.9604 104.966L51.063 104.855L51.2573 104.696C51.2619 104.693 51.2682 104.69 51.272 104.687C51.2848 104.658 51.2945 104.618 51.3257 104.585C51.3981 104.508 51.5086 104.461 51.6255 104.474ZM74.6948 104.474C74.7876 104.484 74.8493 104.528 74.8735 104.547C74.9224 104.585 74.9514 104.627 74.9565 104.635C74.9665 104.65 74.9735 104.663 74.978 104.672C74.9943 104.703 75.0098 104.741 75.022 104.771L75.0962 104.956C75.1352 105.054 75.1694 105.251 75.0132 105.409C74.8982 105.525 74.7487 105.539 74.687 105.542L74.5513 105.551L74.4165 105.559C74.383 105.56 74.3322 105.561 74.2788 105.551C74.2488 105.545 74.0895 105.515 74.0044 105.354C73.9055 105.167 74.003 105.004 74.0288 104.966C74.0463 104.94 74.0664 104.918 74.0845 104.899L74.1323 104.855L74.23 104.776L74.3257 104.699C74.3381 104.668 74.3583 104.625 74.397 104.584C74.4695 104.507 74.5778 104.461 74.6948 104.474ZM77.6431 103.857C77.7359 103.868 77.7977 103.912 77.8218 103.931C77.8706 103.968 77.8987 104.011 77.9038 104.019C77.9138 104.034 77.9208 104.047 77.9253 104.056C77.9416 104.086 77.958 104.125 77.9702 104.155L78.0435 104.34C78.0825 104.438 78.1167 104.635 77.9604 104.793C77.8455 104.909 77.6959 104.922 77.6343 104.926L77.4995 104.935L77.3647 104.942C77.3313 104.944 77.2805 104.944 77.2271 104.935C77.198 104.929 77.0381 104.9 76.9526 104.738C76.8535 104.551 76.9512 104.388 76.9771 104.35C76.9946 104.324 77.0146 104.302 77.0327 104.283L77.0806 104.239L77.1782 104.16L77.2729 104.083C77.2853 104.052 77.3056 104.009 77.3442 103.968C77.4168 103.891 77.526 103.844 77.6431 103.857ZM48.6782 103.857C48.7713 103.868 48.8329 103.913 48.8569 103.932C48.9055 103.969 48.9347 104.01 48.9399 104.018C48.95 104.033 48.9578 104.046 48.9624 104.055C48.9787 104.085 48.9941 104.126 49.0063 104.156L49.0415 104.247L49.0796 104.339C49.1186 104.437 49.1527 104.635 48.9966 104.793C48.8817 104.909 48.7312 104.922 48.6694 104.926L48.5356 104.934L48.3989 104.94C48.3655 104.942 48.3151 104.944 48.2622 104.935C48.2321 104.929 48.0739 104.898 47.9888 104.737C47.8901 104.55 47.9864 104.388 48.0122 104.35L48.1147 104.239L48.3101 104.08C48.3146 104.077 48.32 104.073 48.3237 104.07C48.3367 104.042 48.3471 104.002 48.3784 103.969C48.451 103.892 48.5612 103.845 48.6782 103.857ZM63.3228 103.68C63.4157 103.69 63.4774 103.735 63.5015 103.754C63.5502 103.792 63.5803 103.832 63.5854 103.84C63.5955 103.855 63.6024 103.869 63.6069 103.878C63.6232 103.909 63.6387 103.948 63.6509 103.979L63.686 104.07L63.7251 104.161C63.7641 104.259 63.7972 104.457 63.6411 104.615C63.5262 104.732 63.3757 104.745 63.314 104.748L63.1802 104.756L63.0435 104.764C63.01 104.765 62.9596 104.767 62.9067 104.757C62.8763 104.751 62.7183 104.721 62.6333 104.561C62.5342 104.373 62.6309 104.21 62.6567 104.172L62.7593 104.062L62.9546 103.902C62.9591 103.899 62.9645 103.896 62.9683 103.893C62.9812 103.864 62.9917 103.825 63.0229 103.791C63.0955 103.714 63.2057 103.667 63.3228 103.68ZM66.0933 102.75C66.2736 102.639 66.4419 102.724 66.4819 102.747L66.5991 102.842L66.771 103.025C66.775 103.03 66.7784 103.035 66.7817 103.039C66.8111 103.05 66.8516 103.057 66.8872 103.086C66.9686 103.153 67.023 103.26 67.0181 103.378C67.0141 103.471 66.9734 103.536 66.9565 103.562C66.9224 103.612 66.8841 103.644 66.8765 103.65C66.8621 103.661 66.8486 103.67 66.8403 103.675C66.8108 103.693 66.7724 103.711 66.7427 103.726L66.6538 103.767L66.5649 103.812C66.4698 103.857 66.2754 103.904 66.1069 103.759C65.9829 103.652 65.9593 103.503 65.9517 103.441L65.9351 103.309L65.9185 103.173C65.9144 103.14 65.9094 103.09 65.9155 103.036C65.919 103.006 65.9386 102.846 66.0933 102.75ZM70.0044 102.75C70.1847 102.639 70.3531 102.724 70.3931 102.747L70.5103 102.842L70.6821 103.025C70.6861 103.03 70.6895 103.035 70.6929 103.039C70.7222 103.05 70.7627 103.057 70.7983 103.086C70.8798 103.153 70.9342 103.26 70.9292 103.378C70.9252 103.471 70.8846 103.536 70.8677 103.562C70.8335 103.612 70.7952 103.644 70.7876 103.65C70.7732 103.661 70.7597 103.67 70.7515 103.675C70.7219 103.693 70.6835 103.711 70.6538 103.726L70.5649 103.767L70.4761 103.812C70.381 103.857 70.1865 103.904 70.0181 103.759C69.8941 103.652 69.8704 103.503 69.8628 103.441L69.8462 103.309L69.8296 103.173C69.8255 103.14 69.8206 103.09 69.8267 103.036C69.8301 103.006 69.8497 102.846 70.0044 102.75ZM55.3804 102.749C55.5604 102.638 55.7286 102.723 55.769 102.746L55.8862 102.841L56.0581 103.024C56.0621 103.029 56.0655 103.034 56.0688 103.038C56.0982 103.049 56.1386 103.056 56.1743 103.085C56.2558 103.152 56.3101 103.259 56.3052 103.377C56.3012 103.471 56.2605 103.535 56.2437 103.561C56.2093 103.612 56.1709 103.644 56.1636 103.649C56.1492 103.66 56.1357 103.669 56.1274 103.674C56.0979 103.692 56.0594 103.71 56.0298 103.725L55.9409 103.766L55.8521 103.811C55.7568 103.856 55.5624 103.903 55.394 103.758C55.2701 103.651 55.2464 103.502 55.2388 103.44L55.2222 103.308L55.2056 103.172C55.2015 103.139 55.1966 103.089 55.2026 103.035C55.2061 103.005 55.2259 102.845 55.3804 102.749ZM59.2915 102.749C59.4716 102.638 59.6398 102.723 59.6802 102.746L59.7974 102.841L59.9692 103.024C59.9732 103.029 59.9766 103.034 59.98 103.038C60.0093 103.049 60.0498 103.056 60.0854 103.085C60.167 103.152 60.2213 103.259 60.2163 103.377C60.2123 103.471 60.1716 103.535 60.1548 103.561C60.1205 103.612 60.082 103.644 60.0747 103.649C60.0603 103.66 60.0468 103.669 60.0386 103.674C60.009 103.692 59.9706 103.71 59.9409 103.725L59.8521 103.766L59.7632 103.811C59.6679 103.856 59.4735 103.903 59.3052 103.758C59.1813 103.651 59.1575 103.502 59.1499 103.44L59.1333 103.308L59.1167 103.172C59.1126 103.139 59.1077 103.089 59.1138 103.035C59.1172 103.005 59.137 102.845 59.2915 102.749ZM83.3315 101.725C83.4246 101.735 83.4872 101.779 83.5112 101.798C83.5599 101.836 83.5881 101.878 83.5933 101.886C83.6032 101.901 83.6102 101.914 83.6147 101.923C83.631 101.954 83.6465 101.992 83.6587 102.022L83.7329 102.207C83.772 102.305 83.8061 102.502 83.6499 102.66C83.5349 102.776 83.3853 102.79 83.3237 102.793L83.188 102.802L83.0532 102.81C83.0198 102.811 82.9696 102.811 82.9165 102.802C82.8874 102.796 82.7276 102.767 82.6421 102.605C82.5429 102.418 82.6407 102.255 82.6665 102.217C82.6839 102.191 82.7032 102.169 82.7212 102.15L82.769 102.106L82.8667 102.027L82.9624 101.95C82.9748 101.919 82.9951 101.876 83.0337 101.835C83.1062 101.758 83.2145 101.712 83.3315 101.725ZM42.9888 101.724C43.082 101.734 43.1445 101.779 43.1685 101.798C43.217 101.836 43.2464 101.876 43.2515 101.884C43.2614 101.899 43.2684 101.912 43.2729 101.921C43.2893 101.952 43.3047 101.992 43.3169 102.022L43.3521 102.113L43.3911 102.205C43.4301 102.303 43.4632 102.501 43.3071 102.659C43.1922 102.775 43.0416 102.789 42.98 102.792L42.8462 102.8L42.7104 102.807C42.6771 102.808 42.6265 102.81 42.5737 102.801C42.5441 102.795 42.3856 102.764 42.3003 102.604C42.2014 102.416 42.2979 102.254 42.3237 102.216L42.4263 102.105L42.6206 101.946C42.6252 101.943 42.6314 101.94 42.6353 101.937C42.6481 101.908 42.6578 101.869 42.689 101.835C42.7614 101.758 42.8718 101.711 42.9888 101.724ZM63.3228 101.275C63.4157 101.286 63.4775 101.331 63.5015 101.35C63.5501 101.387 63.5794 101.428 63.5845 101.436C63.5945 101.451 63.6024 101.464 63.6069 101.473C63.6232 101.503 63.6387 101.544 63.6509 101.574L63.6851 101.665L63.7241 101.757C63.7631 101.855 63.7962 102.053 63.6401 102.211C63.5252 102.327 63.3746 102.34 63.313 102.344L63.1802 102.352L63.0435 102.358C63.01 102.36 62.9596 102.362 62.9067 102.353C62.8771 102.347 62.7186 102.316 62.6333 102.155C62.5345 101.968 62.6309 101.806 62.6567 101.768L62.7593 101.657L62.9536 101.498C62.9582 101.494 62.9644 101.491 62.9683 101.488C62.9811 101.46 62.9909 101.42 63.022 101.387C63.0945 101.31 63.2057 101.262 63.3228 101.275ZM58.5806 100.972C58.7609 100.86 58.9292 100.946 58.9692 100.969L59.0864 101.063L59.2583 101.247C59.2623 101.251 59.2656 101.257 59.269 101.261C59.2984 101.272 59.3389 101.279 59.3745 101.308C59.456 101.375 59.5103 101.482 59.5054 101.6C59.5014 101.693 59.4607 101.758 59.4438 101.783C59.4096 101.834 59.3712 101.866 59.3638 101.872C59.3493 101.883 59.3359 101.891 59.3276 101.896C59.2981 101.915 59.2597 101.933 59.23 101.947L59.1411 101.988L59.0522 102.033C58.9571 102.079 58.7627 102.125 58.5942 101.98C58.4702 101.874 58.4466 101.724 58.439 101.663L58.4224 101.53L58.4058 101.395C58.4017 101.361 58.3967 101.311 58.4028 101.258C58.4063 101.228 58.4259 101.068 58.5806 100.972ZM66.9233 100.972C67.1036 100.86 67.272 100.946 67.312 100.969L67.4292 101.063L67.6011 101.247C67.605 101.251 67.6085 101.257 67.6118 101.261C67.6412 101.272 67.6817 101.279 67.7173 101.308C67.7986 101.375 67.8531 101.482 67.8481 101.6C67.8441 101.693 67.8035 101.758 67.7866 101.783C67.7527 101.834 67.7145 101.866 67.7065 101.872C67.6922 101.883 67.6787 101.891 67.6704 101.896C67.6409 101.915 67.6024 101.933 67.5728 101.947L67.4839 101.988L67.395 102.033C67.2999 102.079 67.1055 102.125 66.937 101.98C66.813 101.874 66.7894 101.724 66.7817 101.663L66.7651 101.53L66.7485 101.395C66.7444 101.361 66.7395 101.311 66.7456 101.258C66.7491 101.228 66.7686 101.068 66.9233 100.972ZM53.3491 100.286C53.5292 100.175 53.6974 100.26 53.7378 100.283L53.855 100.378L54.0269 100.562C54.0308 100.566 54.0342 100.572 54.0376 100.575C54.0669 100.586 54.1074 100.593 54.1431 100.622C54.2246 100.689 54.2789 100.796 54.2739 100.914C54.2699 101.008 54.2293 101.072 54.2124 101.098C54.1781 101.149 54.1396 101.181 54.1323 101.187C54.1179 101.198 54.1044 101.206 54.0962 101.211C54.0666 101.229 54.0282 101.247 53.9985 101.262L53.9097 101.303L53.8208 101.348C53.7256 101.393 53.5311 101.44 53.3628 101.295C53.2389 101.188 53.2151 101.039 53.2075 100.978L53.1909 100.845L53.1743 100.709C53.1702 100.676 53.1653 100.626 53.1714 100.572C53.1748 100.542 53.1947 100.382 53.3491 100.286ZM72.1538 100.286C72.3342 100.175 72.5025 100.26 72.5425 100.283L72.6597 100.378L72.8315 100.562C72.8356 100.566 72.8389 100.572 72.8423 100.575C72.8717 100.586 72.912 100.593 72.9478 100.622C73.0293 100.689 73.0836 100.796 73.0786 100.914C73.0746 101.008 73.0339 101.072 73.0171 101.098C72.9827 101.149 72.9443 101.181 72.937 101.187C72.9226 101.198 72.9091 101.206 72.9009 101.211C72.8713 101.229 72.8329 101.247 72.8032 101.262L72.7144 101.303L72.6255 101.348C72.5303 101.393 72.336 101.44 72.1675 101.295C72.0435 101.188 72.0198 101.039 72.0122 100.978L71.9956 100.845L71.979 100.709C71.9749 100.676 71.97 100.626 71.9761 100.572C71.9795 100.542 71.9991 100.382 72.1538 100.286ZM79.7759 100.302C79.8687 100.312 79.9304 100.356 79.9546 100.375C80.0035 100.413 80.0325 100.455 80.0376 100.463C80.0476 100.478 80.0546 100.492 80.0591 100.5C80.0753 100.531 80.0908 100.569 80.103 100.6L80.1772 100.784C80.2163 100.882 80.2505 101.079 80.0942 101.237C79.9793 101.354 79.8297 101.367 79.7681 101.37L79.6323 101.379L79.4976 101.387C79.4641 101.389 79.4132 101.389 79.3599 101.379C79.3299 101.373 79.1706 101.343 79.0854 101.183C78.9865 100.995 79.0841 100.832 79.1099 100.794C79.1274 100.768 79.1474 100.746 79.1655 100.728L79.2134 100.684L79.311 100.604L79.4067 100.527C79.4191 100.496 79.4394 100.453 79.478 100.412C79.5506 100.335 79.6588 100.289 79.7759 100.302ZM46.1362 100.261C46.3166 100.149 46.4849 100.235 46.5249 100.258L46.6421 100.353L46.814 100.536C46.818 100.54 46.8213 100.546 46.8247 100.55C46.8541 100.561 46.8945 100.568 46.9302 100.597C47.0116 100.664 47.066 100.771 47.061 100.889C47.057 100.982 47.0164 101.047 46.9995 101.072C46.9653 101.123 46.9269 101.155 46.9194 101.161C46.905 101.172 46.8916 101.18 46.8833 101.186C46.8537 101.204 46.8154 101.222 46.7856 101.236L46.6968 101.277L46.6079 101.322C46.5128 101.368 46.3184 101.414 46.1499 101.27C46.0259 101.163 46.0022 101.013 45.9946 100.952L45.978 100.819L45.9614 100.684C45.9573 100.65 45.9524 100.6 45.9585 100.547C45.9619 100.517 45.9815 100.357 46.1362 100.261ZM36.646 99.3389C36.8264 99.2274 36.9947 99.3128 37.0347 99.3359L37.1519 99.4307L37.3237 99.6143C37.3277 99.6186 37.3311 99.6243 37.3345 99.6279C37.3638 99.6389 37.4043 99.6459 37.4399 99.6748C37.5214 99.742 37.5758 99.8492 37.5708 99.9668C37.5668 100.06 37.5261 100.125 37.5093 100.15C37.475 100.201 37.4367 100.233 37.4292 100.239C37.4148 100.25 37.4013 100.259 37.3931 100.264C37.3635 100.282 37.3251 100.3 37.2954 100.314L37.2065 100.355L37.1177 100.4C37.0226 100.446 36.8282 100.493 36.6597 100.348C36.5357 100.241 36.512 100.092 36.5044 100.03L36.4878 99.8975L36.4712 99.7617C36.4671 99.7285 36.4622 99.6784 36.4683 99.625C36.4717 99.5951 36.4913 99.4348 36.646 99.3389ZM88.8579 99.3389C89.0382 99.2276 89.2066 99.3128 89.2466 99.3359L89.3638 99.4307L89.5356 99.6143C89.5396 99.6186 89.543 99.6244 89.5464 99.6279C89.5757 99.6388 89.6163 99.6459 89.6519 99.6748C89.7332 99.742 89.7877 99.8492 89.7827 99.9668C89.7787 100.06 89.7381 100.125 89.7212 100.15C89.6872 100.201 89.649 100.233 89.6411 100.239C89.6268 100.25 89.6133 100.259 89.605 100.264C89.5755 100.282 89.537 100.3 89.5073 100.314L89.4185 100.355L89.3296 100.4C89.2345 100.446 89.04 100.492 88.8716 100.348C88.7476 100.241 88.7239 100.092 88.7163 100.03L88.6997 99.8975L88.6831 99.7617C88.679 99.7285 88.6741 99.6785 88.6802 99.625C88.6836 99.5951 88.7032 99.4348 88.8579 99.3389ZM75.812 98.8389C75.9923 98.7276 76.1607 98.8128 76.2007 98.8359L76.3179 98.9307L76.4897 99.1143C76.4937 99.1186 76.4971 99.1244 76.5005 99.1279C76.5298 99.1388 76.5704 99.1459 76.606 99.1748C76.6873 99.242 76.7418 99.3492 76.7368 99.4668C76.7328 99.5602 76.6922 99.6251 76.6753 99.6504C76.6413 99.701 76.6031 99.7331 76.5952 99.7393C76.5809 99.7503 76.5674 99.7585 76.5591 99.7637C76.5296 99.782 76.4911 99.8002 76.4614 99.8145L76.3726 99.8555L76.2837 99.9004C76.1886 99.9459 75.9941 99.9924 75.8257 99.8477C75.7017 99.7409 75.678 99.5916 75.6704 99.5303L75.6538 99.3975L75.6372 99.2617C75.6331 99.2285 75.6282 99.1785 75.6343 99.125C75.6377 99.0951 75.6573 98.9348 75.812 98.8389ZM49.6919 98.8379C49.8723 98.7264 50.0406 98.8118 50.0806 98.835L50.1978 98.9297L50.3696 99.1133C50.3736 99.1176 50.377 99.1234 50.3804 99.127C50.4097 99.1379 50.4502 99.1449 50.4858 99.1738C50.5673 99.241 50.6217 99.3482 50.6167 99.4658C50.6127 99.5594 50.572 99.6242 50.5552 99.6494C50.5209 99.7004 50.4826 99.7325 50.4751 99.7383C50.4607 99.7494 50.4472 99.7576 50.439 99.7627C50.4094 99.781 50.371 99.7992 50.3413 99.8135L50.2524 99.8545L50.1636 99.8994C50.0685 99.945 49.8741 99.9916 49.7056 99.8467C49.5816 99.7399 49.5579 99.5906 49.5503 99.5293L49.5337 99.3965L49.5171 99.2607C49.513 99.2275 49.5081 99.1775 49.5142 99.124C49.5176 99.0941 49.5372 98.9339 49.6919 98.8379ZM82.8159 98.5098C82.9963 98.3983 83.1646 98.4837 83.2046 98.5068L83.3218 98.6016L83.4937 98.7852C83.4976 98.7895 83.501 98.7952 83.5044 98.7988C83.5338 98.8098 83.5742 98.8168 83.6099 98.8457C83.6913 98.9129 83.7457 99.0201 83.7407 99.1377C83.7367 99.2313 83.6961 99.2961 83.6792 99.3213C83.645 99.3723 83.6066 99.4044 83.5991 99.4102C83.5847 99.4213 83.5713 99.4294 83.563 99.4346C83.5334 99.4529 83.495 99.4711 83.4653 99.4854L83.3765 99.5264L83.2876 99.5713C83.1925 99.6168 82.9981 99.6634 82.8296 99.5186C82.7056 99.4117 82.6819 99.2625 82.6743 99.2012L82.6577 99.0684L82.6411 98.9326C82.637 98.8994 82.6321 98.8493 82.6382 98.7959C82.6416 98.766 82.6612 98.6057 82.8159 98.5098ZM42.8062 98.5088C42.9865 98.3973 43.1548 98.4827 43.1948 98.5059L43.312 98.6006L43.4839 98.7842C43.4879 98.7885 43.4912 98.7943 43.4946 98.7979C43.524 98.8088 43.5644 98.8158 43.6001 98.8447C43.6816 98.9119 43.7359 99.0191 43.731 99.1367C43.727 99.2303 43.6863 99.2951 43.6694 99.3203C43.6352 99.3713 43.5968 99.4034 43.5894 99.4092C43.5749 99.4203 43.5615 99.4285 43.5532 99.4336C43.5237 99.4519 43.4853 99.4701 43.4556 99.4844L43.3667 99.5254L43.2778 99.5703C43.1827 99.6159 42.9883 99.6625 42.8198 99.5176C42.6958 99.4108 42.6722 99.2615 42.6646 99.2002L42.6479 99.0674L42.6313 98.9316C42.6273 98.8984 42.6223 98.8484 42.6284 98.7949C42.6319 98.765 42.6514 98.6048 42.8062 98.5088ZM69.7847 98.0361C69.9651 97.9246 70.1333 98.01 70.1733 98.0332L70.2905 98.1279L70.4624 98.3115C70.4664 98.3159 70.4697 98.3216 70.4731 98.3252C70.5025 98.3362 70.5429 98.3431 70.5786 98.3721C70.6601 98.4393 70.7144 98.5464 70.7095 98.6641C70.7055 98.7577 70.6648 98.8225 70.6479 98.8477C70.6136 98.8988 70.5752 98.9309 70.5679 98.9365C70.5534 98.9476 70.54 98.9558 70.5317 98.9609C70.5022 98.9793 70.4638 98.9975 70.4341 99.0117L70.3452 99.0527L70.2563 99.0977C70.1612 99.1432 69.9668 99.1899 69.7983 99.0449C69.6743 98.9381 69.6507 98.7889 69.6431 98.7275L69.6265 98.5947L69.6099 98.459C69.6058 98.4257 69.6009 98.3757 69.6069 98.3223C69.6104 98.2923 69.63 98.1321 69.7847 98.0361ZM55.7183 98.0352C55.8983 97.9238 56.0665 98.0089 56.1069 98.0322L56.2241 98.127L56.396 98.3105C56.4 98.3148 56.4034 98.3206 56.4067 98.3242C56.4361 98.3352 56.4765 98.3422 56.5122 98.3711C56.5937 98.4383 56.648 98.5454 56.6431 98.6631C56.6391 98.7567 56.5984 98.8215 56.5815 98.8467C56.5472 98.8977 56.5088 98.9299 56.5015 98.9355C56.4871 98.9466 56.4735 98.9548 56.4653 98.96C56.4358 98.9783 56.3973 98.9965 56.3677 99.0107L56.2788 99.0518L56.1899 99.0967C56.0947 99.1422 55.9003 99.1888 55.7319 99.0439C55.608 98.9371 55.5843 98.7878 55.5767 98.7266L55.5601 98.5938L55.5435 98.458C55.5394 98.4248 55.5345 98.3747 55.5405 98.3213C55.544 98.2914 55.5638 98.1312 55.7183 98.0352ZM91.8647 97.457C91.9578 97.4673 92.0204 97.5117 92.0444 97.5303C92.0932 97.568 92.1213 97.6105 92.1265 97.6182C92.1366 97.6334 92.1434 97.6477 92.1479 97.6562C92.1642 97.6869 92.1797 97.7244 92.1919 97.7549L92.2661 97.9395C92.3052 98.0374 92.3393 98.2341 92.1831 98.3926C92.0681 98.509 91.9186 98.522 91.8569 98.5254L91.7212 98.5342L91.5864 98.542C91.5529 98.5438 91.5021 98.544 91.4487 98.5342C91.4184 98.5286 91.2593 98.4992 91.1743 98.3389C91.075 98.1512 91.1729 97.9875 91.1987 97.9492C91.2163 97.9233 91.2363 97.9012 91.2544 97.8828L91.3022 97.8389L91.3999 97.7598L91.4956 97.6826C91.508 97.6512 91.5283 97.6082 91.5669 97.5674C91.6394 97.4907 91.7478 97.4442 91.8647 97.457ZM34.4556 97.457C34.5488 97.4674 34.6113 97.5127 34.6353 97.5312C34.6838 97.5689 34.7131 97.6095 34.7183 97.6172C34.7282 97.6321 34.7352 97.6457 34.7397 97.6543C34.7561 97.6851 34.7715 97.7252 34.7837 97.7559L34.8188 97.8467L34.8579 97.9385C34.8969 98.0365 34.93 98.2343 34.7739 98.3926C34.659 98.5088 34.5084 98.522 34.4468 98.5254L34.313 98.5332L34.1772 98.54C34.1438 98.5419 34.0933 98.5438 34.0405 98.5342C34.0109 98.5287 33.8524 98.4978 33.7671 98.3369C33.6682 98.1495 33.7647 97.9875 33.7905 97.9492L33.8931 97.8389L34.0874 97.6797C34.092 97.676 34.0982 97.6731 34.1021 97.6699C34.1149 97.6414 34.1246 97.6019 34.1558 97.5684C34.2282 97.4917 34.3386 97.4443 34.4556 97.457ZM39.3052 96.418C39.3984 96.4283 39.4609 96.4737 39.4849 96.4922C39.5334 96.5299 39.5627 96.5704 39.5679 96.5781C39.578 96.5933 39.5848 96.6076 39.5894 96.6162C39.6056 96.647 39.6221 96.6862 39.6343 96.7168L39.6685 96.8086L39.7075 96.8994C39.7465 96.9974 39.7796 97.1952 39.6235 97.3535C39.5085 97.4698 39.358 97.4829 39.2964 97.4863L39.1636 97.4941L39.0269 97.502C38.9934 97.5038 38.943 97.5048 38.8901 97.4951C38.8605 97.4896 38.702 97.4594 38.6167 97.2988C38.5176 97.1113 38.6143 96.9485 38.6401 96.9102L38.7427 96.7998L38.937 96.6406C38.9416 96.6369 38.9478 96.634 38.9517 96.6309C38.9645 96.6024 38.9742 96.5628 39.0054 96.5293C39.0778 96.4526 39.1883 96.4052 39.3052 96.418ZM87.1343 96.418C87.2271 96.4284 87.289 96.4727 87.313 96.4912C87.3618 96.529 87.3899 96.5714 87.395 96.5791C87.405 96.5941 87.412 96.6077 87.4165 96.6162C87.4328 96.6469 87.4492 96.6852 87.4614 96.7158L87.5347 96.9004C87.5737 96.9983 87.6079 97.1951 87.4517 97.3535C87.3367 97.4696 87.1871 97.4829 87.1255 97.4863L86.9907 97.4951L86.856 97.5029C86.8225 97.5048 86.7717 97.5049 86.7183 97.4951C86.6892 97.4898 86.5293 97.4601 86.4438 97.2988C86.3448 97.1112 86.4425 96.9484 86.4683 96.9102C86.4858 96.8842 86.5058 96.8621 86.5239 96.8438L86.5718 96.7998L86.6694 96.7207L86.7642 96.6436C86.7765 96.6122 86.7969 96.5692 86.8354 96.5283C86.908 96.4515 87.0172 96.405 87.1343 96.418ZM46.8472 96.3496C47.0275 96.2381 47.1958 96.3235 47.2358 96.3467L47.353 96.4414L47.5249 96.625C47.5289 96.6293 47.5322 96.6351 47.5356 96.6387C47.565 96.6496 47.6055 96.6566 47.6411 96.6855C47.7226 96.7527 47.7769 96.8599 47.772 96.9775C47.768 97.0712 47.7273 97.1359 47.7104 97.1611C47.6762 97.2121 47.6379 97.2442 47.6304 97.25C47.6159 97.2611 47.6025 97.2693 47.5942 97.2744C47.5647 97.2927 47.5263 97.3109 47.4966 97.3252L47.4077 97.3662L47.3188 97.4111C47.2237 97.4567 47.0293 97.5033 46.8608 97.3584C46.7368 97.2516 46.7132 97.1024 46.7056 97.041L46.689 96.9082L46.6724 96.7725C46.6683 96.7392 46.6633 96.6892 46.6694 96.6357C46.6729 96.6058 46.6925 96.4456 46.8472 96.3496ZM78.7749 96.3496C78.9553 96.2381 79.1236 96.3235 79.1636 96.3467L79.2808 96.4414L79.4526 96.625C79.4566 96.6293 79.46 96.6351 79.4634 96.6387C79.4927 96.6496 79.5332 96.6566 79.5688 96.6855C79.6503 96.7527 79.7047 96.8599 79.6997 96.9775C79.6957 97.0712 79.655 97.1359 79.6382 97.1611C79.6039 97.2121 79.5656 97.2442 79.5581 97.25C79.5437 97.2611 79.5302 97.2693 79.522 97.2744C79.4924 97.2927 79.454 97.3109 79.4243 97.3252L79.3354 97.3662L79.2466 97.4111C79.1515 97.4567 78.9571 97.5033 78.7886 97.3584C78.6646 97.2516 78.6409 97.1024 78.6333 97.041L78.6167 96.9082L78.6001 96.7725C78.596 96.7392 78.5911 96.6892 78.5972 96.6357C78.6006 96.6058 78.6202 96.4456 78.7749 96.3496ZM89.4946 94.9688C89.5875 94.979 89.6491 95.0233 89.6733 95.042C89.7222 95.0798 89.7512 95.1222 89.7563 95.1299C89.7663 95.1449 89.7733 95.1585 89.7778 95.167C89.7941 95.1977 89.8096 95.236 89.8218 95.2666L89.896 95.4512C89.9351 95.5491 89.9692 95.7458 89.813 95.9043C89.698 96.0206 89.5485 96.0337 89.4868 96.0371L89.3511 96.0459L89.2163 96.0537C89.1828 96.0556 89.132 96.0557 89.0786 96.0459C89.0486 96.0404 88.8893 96.0102 88.8042 95.8496C88.7053 95.6621 88.8028 95.4992 88.8286 95.4609C88.8461 95.435 88.8662 95.4129 88.8843 95.3945L88.9321 95.3506L89.0298 95.2715L89.1255 95.1943C89.1379 95.1629 89.1581 95.12 89.1968 95.0791C89.2693 95.0024 89.3776 94.9558 89.4946 94.9688ZM36.9448 94.9688C37.0379 94.9791 37.0995 95.0244 37.1235 95.043C37.1721 95.0806 37.2013 95.1211 37.2065 95.1289C37.2166 95.144 37.2244 95.1574 37.229 95.166C37.2453 95.1968 37.2607 95.237 37.2729 95.2676L37.3081 95.3584L37.3462 95.4502C37.3852 95.5482 37.4193 95.746 37.2632 95.9043C37.1483 96.0206 36.9978 96.0337 36.936 96.0371L36.8022 96.0449L36.6655 96.0518C36.6321 96.0536 36.5817 96.0556 36.5288 96.0459C36.4987 96.0403 36.3405 96.0091 36.2554 95.8486C36.1567 95.6613 36.253 95.4992 36.2788 95.4609L36.3813 95.3506L36.5767 95.1914C36.5812 95.1878 36.5866 95.1847 36.5903 95.1816C36.6033 95.1531 36.6137 95.1137 36.645 95.0801C36.7176 95.0033 36.8278 94.9558 36.9448 94.9688ZM41.1577 94.9277C41.3378 94.8164 41.506 94.9014 41.5464 94.9248L41.6636 95.0195L41.8354 95.2031C41.8394 95.2074 41.8428 95.2132 41.8462 95.2168C41.8755 95.2277 41.916 95.2348 41.9517 95.2637C42.0332 95.3309 42.0875 95.438 42.0825 95.5557C42.0785 95.6493 42.0378 95.7141 42.021 95.7393C41.9867 95.7903 41.9482 95.8225 41.9409 95.8281C41.9265 95.8392 41.913 95.8474 41.9048 95.8525C41.8752 95.8708 41.8368 95.8891 41.8071 95.9033L41.7183 95.9443L41.6294 95.9893C41.5341 96.0348 41.3397 96.0814 41.1714 95.9365C41.0475 95.8297 41.0237 95.6804 41.0161 95.6191L40.9995 95.4863L40.9829 95.3506C40.9788 95.3174 40.9739 95.2673 40.98 95.2139C40.9834 95.184 41.0032 95.0237 41.1577 94.9277ZM84.4634 94.9277C84.6437 94.8162 84.8121 94.9016 84.8521 94.9248L84.9692 95.0195L85.1411 95.2031C85.1451 95.2075 85.1485 95.2132 85.1519 95.2168C85.1812 95.2277 85.2217 95.2347 85.2573 95.2637C85.3388 95.3309 85.3931 95.438 85.3882 95.5557C85.3842 95.6493 85.3435 95.7141 85.3267 95.7393C85.2924 95.7902 85.2541 95.8224 85.2466 95.8281C85.2322 95.8392 85.2187 95.8474 85.2104 95.8525C85.1809 95.8709 85.1425 95.8891 85.1128 95.9033L85.0239 95.9443L84.9351 95.9893C84.8399 96.0348 84.6455 96.0814 84.4771 95.9365C84.353 95.8297 84.3294 95.6805 84.3218 95.6191L84.3052 95.4863L84.2886 95.3506C84.2845 95.3173 84.2796 95.2673 84.2856 95.2139C84.2891 95.1839 84.3087 95.0237 84.4634 94.9277ZM93.6499 94.2861C93.7429 94.2965 93.8046 94.3408 93.8286 94.3594C93.8775 94.3972 93.9055 94.4396 93.9106 94.4473C93.9208 94.4625 93.9286 94.4758 93.9331 94.4844C93.9494 94.5151 93.9648 94.5534 93.9771 94.584L94.0503 94.7686C94.0893 94.8665 94.1245 95.0632 93.9683 95.2217C93.8535 95.3379 93.704 95.351 93.6421 95.3545L93.5063 95.3633L93.3716 95.3711C93.3381 95.373 93.2874 95.3731 93.2339 95.3633C93.2046 95.3579 93.0449 95.3281 92.9595 95.167C92.8604 94.9794 92.9581 94.8166 92.9839 94.7783C93.0014 94.7524 93.0214 94.7303 93.0396 94.7119L93.0874 94.668L93.1851 94.5889L93.2798 94.5117C93.2921 94.4803 93.3125 94.4374 93.3511 94.3965C93.4237 94.3197 93.5328 94.2732 93.6499 94.2861ZM32.6714 94.2852C32.7645 94.2955 32.8261 94.3408 32.8501 94.3594C32.8987 94.397 32.9279 94.4375 32.9331 94.4453C32.9431 94.4604 32.951 94.4738 32.9556 94.4824C32.9719 94.5132 32.9873 94.5534 32.9995 94.584L33.0347 94.6748L33.0728 94.7666C33.1118 94.8646 33.1458 95.0624 32.9897 95.2207C32.8749 95.337 32.7244 95.3501 32.6626 95.3535L32.5288 95.3613L32.3921 95.3682C32.3586 95.37 32.3082 95.372 32.2554 95.3623C32.2252 95.3567 32.067 95.3255 31.9819 95.165C31.8833 94.9777 31.9796 94.8157 32.0054 94.7773L32.1079 94.667L32.3032 94.5078C32.3077 94.5042 32.3131 94.5011 32.3169 94.498C32.3298 94.4695 32.3402 94.4301 32.3716 94.3965C32.4441 94.3197 32.5543 94.2722 32.6714 94.2852ZM96.1968 94.2168C96.3771 94.1053 96.5455 94.1907 96.5854 94.2139L96.7026 94.3086L96.8745 94.4922C96.8785 94.4965 96.8819 94.5023 96.8853 94.5059C96.9146 94.5168 96.9551 94.5238 96.9907 94.5527C97.0722 94.6199 97.1265 94.7271 97.1216 94.8447C97.1176 94.9383 97.0769 95.0031 97.0601 95.0283C97.0258 95.0793 96.9875 95.1114 96.98 95.1172C96.9656 95.1283 96.9521 95.1365 96.9438 95.1416C96.9143 95.1599 96.8759 95.1781 96.8462 95.1924L96.7573 95.2334L96.6685 95.2783C96.5733 95.3239 96.3789 95.3705 96.2104 95.2256C96.0864 95.1188 96.0628 94.9695 96.0552 94.9082L96.0386 94.7754L96.022 94.6396C96.0179 94.6064 96.013 94.5564 96.019 94.5029C96.0225 94.473 96.0421 94.3128 96.1968 94.2168ZM29.4253 94.2158C29.6057 94.1043 29.774 94.1897 29.814 94.2129L29.9312 94.3076L30.103 94.4912C30.107 94.4955 30.1104 94.5013 30.1138 94.5049C30.1431 94.5158 30.1836 94.5228 30.2192 94.5518C30.3007 94.619 30.3551 94.7261 30.3501 94.8438C30.3461 94.9374 30.3054 95.0022 30.2886 95.0273C30.2543 95.0783 30.216 95.1104 30.2085 95.1162C30.1941 95.1273 30.1806 95.1355 30.1724 95.1406C30.1428 95.159 30.1044 95.1771 30.0747 95.1914L29.9858 95.2324L29.897 95.2773C29.8019 95.3229 29.6075 95.3695 29.439 95.2246C29.315 95.1178 29.2913 94.9686 29.2837 94.9072L29.2671 94.7744L29.2505 94.6387C29.2464 94.6054 29.2415 94.5554 29.2476 94.502C29.251 94.472 29.2706 94.3118 29.4253 94.2158ZM27.647 92.083C27.827 91.9716 27.9952 92.0567 28.0356 92.0801L28.1528 92.1748L28.3247 92.3584C28.3287 92.3627 28.3321 92.3684 28.3354 92.3721C28.3648 92.383 28.4052 92.3901 28.4409 92.4189C28.5224 92.4861 28.5767 92.5932 28.5718 92.7109C28.5678 92.8046 28.5271 92.8694 28.5103 92.8945C28.4759 92.9456 28.4375 92.9778 28.4302 92.9834C28.4158 92.9944 28.4023 93.0027 28.394 93.0078C28.3645 93.0261 28.326 93.0444 28.2964 93.0586L28.2075 93.0996L28.1187 93.1445C28.0234 93.19 27.829 93.2367 27.6606 93.0918C27.5367 92.9849 27.513 92.8357 27.5054 92.7744L27.4888 92.6416L27.4722 92.5059C27.4681 92.4726 27.4632 92.4226 27.4692 92.3691C27.4727 92.3392 27.4925 92.179 27.647 92.083ZM34.0474 92.083C34.2277 91.9715 34.396 92.0569 34.436 92.0801L34.5532 92.1748L34.7251 92.3584C34.7291 92.3627 34.7324 92.3685 34.7358 92.3721C34.7652 92.383 34.8057 92.39 34.8413 92.4189C34.9228 92.4861 34.9771 92.5933 34.9722 92.7109C34.9682 92.8046 34.9275 92.8693 34.9106 92.8945C34.8764 92.9455 34.838 92.9776 34.8306 92.9834C34.8161 92.9945 34.8027 93.0027 34.7944 93.0078C34.7649 93.0261 34.7265 93.0443 34.6968 93.0586L34.6079 93.0996L34.519 93.1445C34.4239 93.1901 34.2295 93.2367 34.061 93.0918C33.937 92.985 33.9134 92.8358 33.9058 92.7744L33.8892 92.6416L33.8726 92.5059C33.8685 92.4726 33.8635 92.4226 33.8696 92.3691C33.8731 92.3392 33.8927 92.179 34.0474 92.083ZM91.5747 92.083C91.7551 91.9715 91.9234 92.0569 91.9634 92.0801L92.0806 92.1748L92.2524 92.3584C92.2564 92.3627 92.2598 92.3685 92.2632 92.3721C92.2925 92.383 92.333 92.39 92.3687 92.4189C92.4501 92.4861 92.5045 92.5933 92.4995 92.7109C92.4955 92.8045 92.4549 92.8693 92.438 92.8945C92.4038 92.9455 92.3654 92.9776 92.3579 92.9834C92.3435 92.9945 92.33 93.0027 92.3218 93.0078C92.2922 93.0261 92.2538 93.0443 92.2241 93.0586L92.1353 93.0996L92.0464 93.1445C91.9513 93.1901 91.7569 93.2367 91.5884 93.0918C91.4644 92.985 91.4407 92.8358 91.4331 92.7744L91.4165 92.6416L91.3999 92.5059C91.3958 92.4726 91.3909 92.4226 91.397 92.3691C91.4004 92.3392 91.42 92.179 91.5747 92.083ZM97.856 92.083C98.0364 91.9714 98.2046 92.0569 98.2446 92.0801L98.3618 92.1748L98.5337 92.3584C98.5377 92.3627 98.541 92.3685 98.5444 92.3721C98.5738 92.383 98.6142 92.3899 98.6499 92.4189C98.7314 92.4861 98.7857 92.5932 98.7808 92.7109C98.7768 92.8046 98.7361 92.8694 98.7192 92.8945C98.6849 92.9456 98.6465 92.9778 98.6392 92.9834C98.6247 92.9945 98.6113 93.0027 98.603 93.0078C98.5734 93.0262 98.5351 93.0443 98.5054 93.0586L98.4165 93.0996L98.3276 93.1445C98.2325 93.1901 98.0381 93.2368 97.8696 93.0918C97.7456 92.985 97.722 92.8357 97.7144 92.7744L97.6978 92.6416L97.6812 92.5059C97.6771 92.4726 97.6721 92.4226 97.6782 92.3691C97.6817 92.3392 97.7013 92.179 97.856 92.083ZM94.1167 89.9912C94.2095 90.0015 94.2712 90.0458 94.2954 90.0645C94.3443 90.1023 94.3733 90.1447 94.3784 90.1523C94.3884 90.1673 94.3954 90.181 94.3999 90.1895C94.4162 90.2201 94.4316 90.2585 94.4438 90.2891L94.5181 90.4736C94.5571 90.5715 94.5913 90.7683 94.4351 90.9268C94.3201 91.0431 94.1706 91.0561 94.1089 91.0596L93.9731 91.0684L93.8384 91.0762C93.8049 91.078 93.7541 91.0782 93.7007 91.0684C93.6707 91.0628 93.5114 91.0327 93.4263 90.8721C93.3273 90.6846 93.4249 90.5217 93.4507 90.4834C93.4682 90.4574 93.4882 90.4354 93.5063 90.417L93.5542 90.373L93.6519 90.2939L93.7476 90.2168C93.7599 90.1854 93.7802 90.1425 93.8188 90.1016C93.8914 90.0248 93.9996 89.9783 94.1167 89.9912ZM101.11 89.9912C101.203 90.0016 101.265 90.0459 101.289 90.0645C101.337 90.1023 101.365 90.1447 101.371 90.1523C101.381 90.1675 101.389 90.1809 101.393 90.1895C101.409 90.2201 101.425 90.2585 101.437 90.2891L101.51 90.4736C101.549 90.5715 101.584 90.7683 101.428 90.9268C101.313 91.043 101.164 91.0561 101.102 91.0596L100.966 91.0684L100.832 91.0762C100.798 91.078 100.747 91.0782 100.694 91.0684C100.665 91.063 100.505 91.0332 100.419 90.8721C100.32 90.6845 100.418 90.5217 100.444 90.4834C100.461 90.4575 100.481 90.4353 100.5 90.417L100.547 90.373L100.645 90.2939L100.74 90.2168C100.752 90.1854 100.772 90.1425 100.811 90.1016C100.884 90.0248 100.993 89.9783 101.11 89.9912ZM32.3228 89.9902C32.4159 90.0006 32.4775 90.0459 32.5015 90.0645C32.55 90.1021 32.5792 90.1426 32.5845 90.1504C32.5945 90.1654 32.6024 90.1789 32.6069 90.1875C32.6232 90.2183 32.6387 90.2584 32.6509 90.2891L32.686 90.3799L32.7241 90.4717C32.7631 90.5697 32.7972 90.7675 32.6411 90.9258C32.5262 91.042 32.3757 91.0551 32.314 91.0586L32.1802 91.0664L32.0435 91.0732C32.01 91.0751 31.9596 91.0771 31.9067 91.0674C31.8766 91.0618 31.7184 91.0306 31.6333 90.8701C31.5346 90.6828 31.6309 90.5207 31.6567 90.4824L31.7593 90.3721L31.9546 90.2129C31.9591 90.2093 31.9645 90.2062 31.9683 90.2031C31.9812 90.1746 31.9916 90.1352 32.0229 90.1016C32.0955 90.0248 32.2057 89.9773 32.3228 89.9902ZM25.1948 89.9736C25.2876 89.9839 25.3493 90.0292 25.3735 90.0479C25.4222 90.0856 25.4524 90.1261 25.4575 90.1338C25.4676 90.1489 25.4744 90.1633 25.479 90.1719C25.4953 90.2026 25.5108 90.2419 25.5229 90.2725L25.5581 90.3643L25.5972 90.4551C25.6362 90.5531 25.6693 90.7509 25.5132 90.9092C25.3982 91.0256 25.2477 91.0386 25.186 91.042L25.0522 91.0498L24.9155 91.0576C24.8821 91.0594 24.8315 91.0604 24.7788 91.0508C24.748 91.0451 24.5902 91.0145 24.5054 90.8545C24.4063 90.667 24.503 90.5042 24.5288 90.4658L24.6313 90.3555L24.8267 90.1963C24.8312 90.1927 24.8375 90.1896 24.8413 90.1865C24.8541 90.158 24.8638 90.1184 24.895 90.085C24.9675 90.0083 25.0778 89.9608 25.1948 89.9736ZM97.3169 89.2793C97.4097 89.2896 97.4714 89.3339 97.4956 89.3525C97.5445 89.3903 97.5735 89.4327 97.5786 89.4404C97.5886 89.4554 97.5956 89.469 97.6001 89.4775C97.6164 89.5082 97.6318 89.5466 97.644 89.5771L97.7183 89.7617C97.7573 89.8596 97.7915 90.0564 97.6353 90.2148C97.5203 90.3312 97.3708 90.3442 97.3091 90.3477L97.1733 90.3564L97.0386 90.3643C97.0051 90.3661 96.9543 90.3663 96.9009 90.3564C96.8709 90.3509 96.7116 90.3207 96.6265 90.1602C96.5275 89.9727 96.6251 89.8098 96.6509 89.7715C96.6684 89.7455 96.6884 89.7235 96.7065 89.7051L96.7544 89.6611L96.8521 89.582L96.9478 89.5049C96.9601 89.4734 96.9804 89.4305 97.019 89.3896C97.0916 89.3129 97.1998 89.2664 97.3169 89.2793ZM29.1226 89.2793C29.2157 89.2896 29.2773 89.335 29.3013 89.3535C29.3498 89.3912 29.379 89.4316 29.3843 89.4395C29.3943 89.4545 29.4022 89.468 29.4067 89.4766C29.423 89.5073 29.4385 89.5475 29.4507 89.5781L29.4858 89.6689L29.5239 89.7607C29.5629 89.8588 29.597 90.0565 29.4409 90.2148C29.326 90.3311 29.1755 90.3442 29.1138 90.3477L28.98 90.3555L28.8433 90.3623C28.8098 90.3641 28.7594 90.3661 28.7065 90.3564C28.6764 90.3509 28.5182 90.3197 28.4331 90.1592C28.3344 89.9718 28.4307 89.8098 28.4565 89.7715L28.5591 89.6611L28.7544 89.502C28.7589 89.4984 28.7643 89.4953 28.7681 89.4922C28.781 89.4636 28.7914 89.4243 28.8228 89.3906C28.8953 89.3139 29.0055 89.2664 29.1226 89.2793ZM21.603 86.8154C21.7833 86.7041 21.9517 86.7893 21.9917 86.8125L22.1089 86.9072L22.2808 87.0908C22.2847 87.0951 22.2881 87.1009 22.2915 87.1045C22.3208 87.1154 22.3614 87.1225 22.397 87.1514C22.4784 87.2186 22.5328 87.3258 22.5278 87.4434C22.5238 87.5368 22.4832 87.6016 22.4663 87.627C22.4323 87.6775 22.3941 87.7097 22.3862 87.7158C22.3719 87.7268 22.3584 87.7351 22.3501 87.7402C22.3206 87.7585 22.2821 87.7768 22.2524 87.791L22.1636 87.832L22.0747 87.877C21.9796 87.9225 21.7852 87.969 21.6167 87.8242C21.4927 87.7174 21.469 87.5681 21.4614 87.5068L21.4448 87.374L21.4282 87.2383C21.4241 87.205 21.4192 87.155 21.4253 87.1016C21.4288 87.0715 21.4484 86.9113 21.603 86.8154ZM104.019 86.75C104.199 86.6385 104.368 86.7239 104.408 86.7471L104.525 86.8418L104.697 87.0254C104.701 87.0297 104.704 87.0355 104.708 87.0391C104.737 87.05 104.777 87.057 104.813 87.0859C104.894 87.1531 104.949 87.2603 104.944 87.3779C104.94 87.4715 104.899 87.5364 104.882 87.5615C104.848 87.6125 104.81 87.6447 104.802 87.6504C104.788 87.6615 104.774 87.6697 104.766 87.6748C104.737 87.6931 104.698 87.7113 104.668 87.7256L104.58 87.7666L104.491 87.8115C104.396 87.8571 104.201 87.9035 104.033 87.7588C103.909 87.6521 103.885 87.5028 103.877 87.4414L103.861 87.3086L103.844 87.1729C103.84 87.1396 103.835 87.0895 103.841 87.0361C103.845 87.0062 103.864 86.846 104.019 86.75ZM97.1987 86.4355C97.2916 86.4459 97.3534 86.4902 97.3774 86.5088C97.4263 86.5465 97.4543 86.5889 97.4595 86.5967C97.4697 86.612 97.4774 86.6262 97.4819 86.6348C97.4981 86.6654 97.5137 86.703 97.5259 86.7334L97.5991 86.918C97.6382 87.0159 97.6732 87.2127 97.5171 87.3711C97.4024 87.4873 97.2529 87.5004 97.1909 87.5039L97.0552 87.5127L96.9204 87.5205C96.8869 87.5224 96.8362 87.5225 96.7827 87.5127C96.7536 87.5073 96.5938 87.4783 96.5083 87.3174C96.4089 87.1297 96.5069 86.966 96.5327 86.9277C96.5502 86.9019 96.5703 86.8796 96.5884 86.8613L96.6362 86.8174L96.7339 86.7383L96.8286 86.6611C96.841 86.6297 96.8613 86.5868 96.8999 86.5459C96.9725 86.4691 97.0816 86.4226 97.1987 86.4355ZM29.1226 86.4346C29.2157 86.4449 29.2773 86.4903 29.3013 86.5088C29.3498 86.5464 29.379 86.5869 29.3843 86.5947C29.3943 86.6098 29.4022 86.6232 29.4067 86.6318C29.423 86.6626 29.4385 86.7028 29.4507 86.7334L29.4858 86.8242L29.5239 86.916C29.5629 87.014 29.597 87.2118 29.4409 87.3701C29.326 87.4864 29.1755 87.4995 29.1138 87.5029L28.98 87.5107L28.8433 87.5176C28.8098 87.5194 28.7594 87.5214 28.7065 87.5117C28.6764 87.5061 28.5182 87.4749 28.4331 87.3145C28.3344 87.1271 28.4307 86.9651 28.4565 86.9268L28.5591 86.8164L28.7544 86.6572C28.7589 86.6537 28.7643 86.6505 28.7681 86.6475C28.781 86.6189 28.7914 86.5796 28.8228 86.5459C28.8953 86.4691 29.0055 86.4217 29.1226 86.4346Z" fill="#7B7171"/>
</svg>
