<svg width="24" height="24" viewBox="0 0 24 24" fill="none" xmlns="http://www.w3.org/2000/svg">
<path d="M15.0695 8.25302C15.0695 9.01112 14.455 9.62568 13.6969 9.62568C12.9388 9.62568 12.3242 9.01112 12.3242 8.25302C12.3242 7.49493 12.9388 6.88037 13.6969 6.88037C14.455 6.88037 15.0695 7.49493 15.0695 8.25302Z" fill="#010820"/>
<path d="M13.3823 6.18677C13.6189 6.04895 13.9333 5.9549 14.2831 6.02234C14.4528 6.05539 14.6015 6.12139 14.7263 6.20107L15.0338 6.46559L15.2697 6.73011L15.4985 6.98748C15.5897 7.08978 15.6817 7.20397 15.7558 7.31635C15.7794 7.35212 15.8318 7.42606 15.8774 7.53083L15.9703 7.91688L15.9775 8.00982V8.20732C15.9672 8.42974 15.8905 8.60796 15.8559 8.68185C15.8013 8.79862 15.7259 8.91156 15.6557 9.01787L15.3126 9.54691C15.0734 9.90924 14.7288 10.1498 14.3546 10.2976L14.0043 10.4406L13.6468 10.5764C13.4089 10.6702 13.0177 10.7568 12.6173 10.5621C12.2161 10.3654 12.0449 10.0027 11.9739 9.75424L11.8738 9.39678L11.7666 9.03216C11.661 8.66284 11.6255 8.20739 11.8381 7.7739L11.9596 7.53797L12.074 7.2949L12.4028 6.83735C12.5312 6.70741 12.6782 6.59794 12.8318 6.50849L13.1035 6.3512L13.3823 6.18677ZM13.754 8.08847C13.7285 8.10336 13.7089 8.11266 13.704 8.11706L13.6039 8.34584L13.5181 8.50312L13.5539 8.64611L13.6826 8.59606C13.7331 8.57608 13.7635 8.55517 13.7755 8.54602L13.7826 8.53887L13.9614 8.27435L14.0543 8.12421L13.9328 7.98123L13.754 8.08847Z" fill="#010820"/>
<path d="M5.00361 13.7437C5.00361 14.5018 4.38905 15.1164 3.63095 15.1164C2.87286 15.1164 2.2583 14.5018 2.2583 13.7437C2.2583 12.9857 2.87286 12.3711 3.63095 12.3711C4.38905 12.3711 5.00361 12.9857 5.00361 13.7437Z" fill="#010820"/>
<path d="M3.31637 11.6775C3.55302 11.5397 3.86736 11.4456 4.21717 11.5131C4.38685 11.5461 4.53558 11.6121 4.66043 11.6918L4.96784 11.9563L5.20377 12.2208L5.43254 12.4782C5.52377 12.5805 5.61579 12.6947 5.68992 12.8071C5.71351 12.8428 5.76591 12.9168 5.81145 13.0215L5.90439 13.4076L5.91154 13.5005V13.698C5.90127 13.9205 5.82454 14.0987 5.79 14.1726C5.73539 14.2893 5.65998 14.4023 5.58983 14.5086L5.24666 15.0376C5.00751 15.4 4.66285 15.6405 4.28867 15.7883L3.93835 15.9313L3.58089 16.0671C3.34301 16.1609 2.95179 16.2475 2.5514 16.0528C2.15019 15.8562 1.97898 15.4934 1.90797 15.245L1.80788 14.8875L1.70064 14.5229C1.59507 14.1536 1.55957 13.6981 1.77213 13.2646L1.89367 13.0287L2.00806 12.7856L2.33692 12.3281C2.46528 12.1981 2.61228 12.0887 2.76588 11.9992L3.03755 11.8419L3.31637 11.6775ZM3.68813 13.5792C3.66255 13.5941 3.64295 13.6034 3.63809 13.6078L3.538 13.8366L3.4522 13.9938L3.48795 14.1368L3.61664 14.0868C3.66723 14.0668 3.6976 14.0459 3.70958 14.0367L3.71673 14.0296L3.89546 13.7651L3.9884 13.6149L3.86686 13.4719L3.68813 13.5792Z" fill="#010820"/>
<path d="M21.4753 15.5738C21.4753 16.3319 20.8607 16.9465 20.1026 16.9465C19.3445 16.9465 18.73 16.3319 18.73 15.5738C18.73 14.8157 19.3445 14.2012 20.1026 14.2012C20.8607 14.2012 21.4753 14.8157 21.4753 15.5738Z" fill="#010820"/>
<path d="M19.788 13.5076C20.0247 13.3698 20.339 13.2757 20.6889 13.3431C20.8585 13.3762 21.0073 13.4422 21.1321 13.5219L21.4395 13.7864L21.6754 14.0509L21.9042 14.3083C21.9954 14.4106 22.0875 14.5248 22.1616 14.6371C22.1852 14.6729 22.2376 14.7469 22.2831 14.8516L22.3761 15.2377L22.3832 15.3306V15.5281C22.3729 15.7505 22.2962 15.9288 22.2617 16.0027C22.2071 16.1194 22.1317 16.2324 22.0615 16.3387L21.7183 16.8677C21.4792 17.23 21.1345 17.4706 20.7603 17.6184L20.41 17.7614L20.0526 17.8972C19.8147 17.991 19.4235 18.0776 19.0231 17.8829C18.6219 17.6862 18.4507 17.3235 18.3796 17.075L18.2796 16.7176L18.1723 16.353C18.0667 15.9836 18.0312 15.5282 18.2438 15.0947L18.3654 14.8588L18.4797 14.6157L18.8086 14.1582C18.937 14.0282 19.084 13.9187 19.2376 13.8293L19.5092 13.672L19.788 13.5076ZM20.1598 15.4093C20.1342 15.4242 20.1146 15.4335 20.1098 15.4379L20.0097 15.6666L19.9239 15.8239L19.9596 15.9669L20.0883 15.9169C20.1389 15.8969 20.1693 15.876 20.1813 15.8668L20.1884 15.8597L20.3671 15.5951L20.4601 15.445L20.3385 15.302L20.1598 15.4093Z" fill="#010820"/>
</svg>
