<svg width="130" height="130" viewBox="0 0 130 130" fill="none" xmlns="http://www.w3.org/2000/svg">
<path d="M0.789551 16.7656C0.789551 7.92907 7.953 0.765625 16.7896 0.765625H112.79C121.626 0.765625 128.79 7.92907 128.79 16.7656V112.766C128.79 121.602 121.626 128.766 112.79 128.766H16.7896C7.953 128.766 0.789551 121.602 0.789551 112.766V16.7656Z" fill="#303A4B" fill-opacity="0.04"/>
<path d="M128.536 92.9102V92.9023L128.364 92.5273C128.247 92.273 128.246 91.9989 128.36 91.7422L128.524 91.3672C128.547 91.3153 128.551 91.2759 128.547 91.2461L128.508 90.8711C128.503 90.8238 128.487 90.7642 128.446 90.6914L128.336 90.5039L128.231 90.3164C128.093 90.074 128.058 89.7945 128.161 89.5195L128.235 89.332L128.305 89.1445C128.334 89.0689 128.347 88.9982 128.348 88.9336L128.356 88.5586C128.358 88.4696 128.35 88.3799 128.333 88.2891L128.262 87.9141C128.24 87.7974 128.212 87.6794 128.184 87.5625L128.141 87.375L128.094 87.1875C128.052 87.0106 128.038 86.8292 128.055 86.6484L128.075 86.4609L128.09 86.2734C128.101 86.1553 128.111 86.0361 128.118 85.918L128.129 85.7305L128.137 85.543C128.144 85.4273 128.149 85.3109 128.149 85.1953V84.8203C128.149 84.6903 128.149 84.5597 128.153 84.4297L128.161 84.2422L128.165 84.0547C128.17 83.8906 128.196 83.7267 128.239 83.5664L128.29 83.3789L128.336 83.1914C128.364 83.0878 128.386 82.9847 128.399 82.8828L128.422 82.6953L128.442 82.5078C128.453 82.4139 128.46 82.3199 128.454 82.2266L128.438 82.0391L128.426 81.8516C128.423 81.8108 128.41 81.7565 128.372 81.6875L128.161 81.3125C128.05 81.114 127.993 80.8892 128.012 80.6523L128.028 80.4648L128.04 80.2773C128.048 80.1776 128.05 80.0763 128.043 79.9766L128.032 79.7891L128.016 79.6016C128 79.3594 128.07 79.1349 128.188 78.9375L128.301 78.75L128.411 78.5625L128.43 78.5273L128.368 78.1523C128.354 78.0693 128.328 77.9814 128.29 77.8906L128.133 77.5156C128.056 77.3325 128.013 77.1374 128.016 76.9375L128.024 76.5625C128.028 76.3224 128.111 76.1025 128.239 75.9141L128.364 75.7266L128.442 75.6055L128.387 75.5039L128.282 75.3164C128.151 75.0838 128.107 74.8131 128.192 74.543L128.309 74.168C128.339 74.0735 128.358 73.9813 128.368 73.8906L128.391 73.7031L128.411 73.5156C128.417 73.4603 128.41 73.4028 128.391 73.3398L128.336 73.1523L128.278 72.9648C128.216 72.7611 128.206 72.5492 128.25 72.3398L128.329 71.9648C128.337 71.9245 128.338 71.8853 128.325 71.8398L128.266 71.6523L128.211 71.4648C128.168 71.3219 128.132 71.1757 128.106 71.0312L128.075 70.8438L128.04 70.6562C128.011 70.4932 128.002 70.3287 128.012 70.1641L128.036 69.7891C128.045 69.6366 128.067 69.4826 128.102 69.332L128.188 68.957C128.214 68.8421 128.239 68.7278 128.258 68.6133L128.321 68.2383C128.34 68.1201 128.357 68.0009 128.372 67.8828L128.418 67.5078C128.423 67.4684 128.419 67.4248 128.399 67.3711L128.258 66.9961C128.188 66.8096 128.156 66.6142 128.168 66.4141L128.192 66.0391C128.201 65.8945 128.22 65.7492 128.247 65.6055L128.278 65.418L128.313 65.2305C128.329 65.1398 128.335 65.0499 128.333 64.9609L128.329 64.7734L128.321 64.5859C128.315 64.3974 128.346 64.21 128.407 64.0312L128.516 63.7031L128.403 63.5352L128.278 63.3477C128.198 63.2284 128.135 63.0856 128.122 62.9219C128.108 62.7557 128.146 62.5998 128.215 62.4648L128.411 62.0898L128.356 61.9102L128.293 61.7227C128.225 61.5103 128.215 61.288 128.27 61.0703L128.317 60.8828L128.368 60.6953C128.393 60.5943 128.408 60.4938 128.418 60.3945L128.458 60.0195C128.46 59.999 128.459 59.9675 128.434 59.918L128.247 59.543C128.113 59.2746 128.114 58.9802 128.25 58.7148L128.446 58.3398C128.467 58.2972 128.467 58.2763 128.465 58.2656L128.411 57.8906C128.395 57.7792 128.374 57.6667 128.348 57.5547L128.262 57.1797C128.221 57.0007 128.21 56.8189 128.231 56.6367L128.278 56.2617C128.291 56.1486 128.3 56.0348 128.305 55.9219L128.321 55.5469C128.327 55.4134 128.339 55.278 128.352 55.1445L128.391 54.7695C128.403 54.6538 128.409 54.5375 128.415 54.4219L128.43 54.0469C128.432 54.0038 128.426 53.9523 128.399 53.8906L128.317 53.7031L128.239 53.5156C128.124 53.2476 128.139 52.9671 128.27 52.7148L128.465 52.3398C128.468 52.3351 128.472 52.3309 128.473 52.3281L128.418 52.1406L128.368 51.9531C128.325 51.799 128.299 51.6417 128.286 51.4844L128.254 51.1094C128.245 50.9989 128.23 50.8883 128.211 50.7773L128.149 50.4023C128.123 50.2506 128.11 50.0982 128.11 49.9453V49.5703C128.11 49.4454 128.106 49.3202 128.106 49.1953V48.8203C128.106 48.6058 128.162 48.402 128.258 48.2148L128.356 48.0273L128.45 47.8398C128.471 47.7992 128.47 47.7809 128.469 47.7734L128.407 47.3984C128.381 47.2396 128.371 47.0781 128.379 46.918L128.387 46.7305L128.399 46.543C128.402 46.4787 128.393 46.4114 128.372 46.3398L128.313 46.1523L128.258 45.9648C128.207 45.7967 128.179 45.6235 128.176 45.4492L128.168 45.0742C128.166 44.8637 128.218 44.6629 128.309 44.4766L128.403 44.2891L128.493 44.1016C128.522 44.042 128.529 43.9949 128.528 43.9609L128.512 43.5859C128.511 43.546 128.5 43.4954 128.465 43.4297L128.368 43.2422L128.266 43.0547C128.157 42.8488 128.108 42.6162 128.141 42.375L128.165 42.1875L128.192 42C128.199 41.9439 128.197 41.8856 128.18 41.8242L128.079 41.4492C128.027 41.2601 128.011 41.0654 128.04 40.8711L128.204 39.7461C128.224 39.6091 128.251 39.4725 128.282 39.3359L128.325 39.1484L128.364 38.9609C128.376 38.9079 128.375 38.8577 128.364 38.8047L128.321 38.6172L128.282 38.4297C128.241 38.2461 128.231 38.0572 128.258 37.8711L128.313 37.4961C128.319 37.4521 128.315 37.4053 128.297 37.3516L128.172 36.9766C128.108 36.782 128.089 36.5793 128.118 36.375L128.172 36C128.194 35.851 128.224 35.7016 128.266 35.5547L128.375 35.1797C128.403 35.0836 128.421 34.9874 128.43 34.8945L128.45 34.707L128.465 34.5195C128.465 34.5169 128.467 34.5134 128.465 34.5078C128.463 34.4995 128.457 34.4819 128.442 34.457L128.325 34.2695L128.211 34.082C128.064 33.8406 128.019 33.5538 128.125 33.2695L128.266 32.8945C128.28 32.8588 128.28 32.833 128.274 32.8086L128.227 32.6211L128.184 32.4336C128.14 32.2482 128.132 32.0596 128.161 31.8711L128.215 31.4961C128.231 31.3949 128.238 31.2918 128.239 31.1914V30.8164C128.24 30.6237 128.28 30.4364 128.352 30.2578L128.43 30.0703L128.504 29.8828C128.516 29.853 128.516 29.8364 128.512 29.8203L128.465 29.6328L128.415 29.4453C128.368 29.265 128.353 29.0796 128.372 28.8945L128.411 28.5195C128.413 28.498 128.412 28.4644 128.387 28.4141L128.2 28.0391C128.091 27.8185 128.057 27.5726 128.118 27.3242L128.211 26.9492C128.235 26.853 128.248 26.7579 128.254 26.6641L128.278 26.2891C128.283 26.204 128.277 26.1177 128.262 26.0312L128.2 25.6562C128.178 25.5321 128.155 25.4054 128.133 25.2812L128.098 25.0938L128.067 24.9062C128.035 24.7271 128.035 24.5469 128.063 24.3672L128.09 24.1797L128.122 23.9922C128.143 23.8597 128.165 23.726 128.192 23.5938L128.27 23.2188C128.29 23.1205 128.302 23.0223 128.305 22.9258L128.321 22.5508C128.326 22.4199 128.335 22.2871 128.344 22.1562L128.368 21.7812C128.379 21.6264 128.407 21.4726 128.446 21.3203L128.532 20.9766L128.407 20.7891L128.278 20.6016C128.195 20.4789 128.134 20.3277 128.125 20.1562C128.118 19.9829 128.165 19.8238 128.243 19.6914L128.352 19.5039L128.465 19.3164C128.505 19.2485 128.517 19.1971 128.52 19.1602L128.532 18.9727L128.547 18.7852C128.548 18.7718 128.545 18.7433 128.516 18.6914L128.305 18.3164C128.207 18.1428 128.139 17.9553 128.114 17.7578L128.067 17.3828C128.049 17.2411 128.035 17.0986 128.032 16.957L128.028 16.7734L128.024 16.5859C128.02 16.4107 128.043 16.2367 128.09 16.0664L128.141 15.8789L128.192 15.6875C128.215 15.6051 128.228 15.5264 128.227 15.4492L128.223 15.2617V15.0742C128.223 15.0133 128.209 14.9525 128.184 14.8906L128.114 14.7109L128.04 14.5312C127.955 14.3223 127.934 14.1019 127.973 13.8828L128.012 13.6836L128.047 13.4844C128.062 13.404 128.061 13.3303 128.051 13.2617L128.024 13.0703L127.997 12.8828C127.99 12.8375 127.971 12.794 127.938 12.7461L127.711 12.418C127.625 12.2924 127.549 12.1628 127.481 12.0312L127.309 11.6953C127.235 11.5515 127.174 11.4024 127.133 11.2461L127.086 11.0625L127.04 10.8828C127.014 10.7858 126.981 10.6893 126.942 10.5977L126.872 10.4258L126.797 10.2539C126.769 10.1878 126.731 10.1251 126.68 10.0664L126.43 9.77734C126.277 9.59953 126.19 9.38811 126.165 9.16016L126.141 8.95703L126.122 8.75391C126.113 8.68173 126.093 8.62459 126.067 8.57812L125.879 8.25C125.854 8.20475 125.818 8.16327 125.766 8.125L125.61 8.00781L125.45 7.89062C125.232 7.73006 125.104 7.50171 125.059 7.24609L125.02 7.03906L124.997 6.90234L124.86 6.85547L124.657 6.78125C124.43 6.69934 124.232 6.55439 124.098 6.33594L123.997 6.17578L123.899 6.01172C123.839 5.91349 123.775 5.81713 123.708 5.72266L123.598 5.56641L123.485 5.41016C123.422 5.32163 123.354 5.23669 123.282 5.15625L123.157 5.01562L123.028 4.87109C122.949 4.78304 122.865 4.69777 122.782 4.61328L122.649 4.47656L122.512 4.33984C122.471 4.29851 122.423 4.26638 122.364 4.24219L122.184 4.16797L122 4.09375C121.824 4.02191 121.667 3.91904 121.528 3.78906L121.387 3.66016L121.247 3.52734C121.203 3.48693 121.155 3.45795 121.098 3.4375L120.915 3.37109L120.735 3.30859C120.632 3.27178 120.526 3.23966 120.418 3.21484L120.231 3.17188L120.04 3.125C119.787 3.0662 119.586 2.92115 119.438 2.72266L119.309 2.55078L119.18 2.38281C119.149 2.34051 119.127 2.32889 119.114 2.32422L118.754 2.19922C118.676 2.17242 118.59 2.1587 118.5 2.15234L118.11 2.12109C117.993 2.11273 117.875 2.11213 117.758 2.11328H117.563L117.368 2.11719C117.084 2.11999 116.841 1.9982 116.657 1.80859L116.352 1.49609L116.176 1.5L115.985 1.50391C115.787 1.50756 115.593 1.46984 115.411 1.39453L115.051 1.24609C114.964 1.21025 114.875 1.184 114.786 1.16797L114.598 1.13672L114.411 1.10156C114.382 1.09661 114.346 1.09753 114.293 1.11719L114.102 1.19141L113.907 1.26172C113.745 1.32255 113.58 1.36833 113.415 1.39062L113.231 1.41406L113.043 1.4375C112.805 1.46964 112.576 1.42259 112.372 1.31641L112.184 1.21875L112.004 1.125L111.844 1.19141L111.657 1.26172C111.399 1.36052 111.131 1.34311 110.887 1.22656L110.512 1.04688C110.445 1.0148 110.39 1.00468 110.344 1.00391L110.157 1H109.969C109.922 0.999232 109.867 1.00683 109.801 1.03516L109.426 1.19922C109.266 1.2689 109.1 1.31708 108.93 1.34375L108.743 1.375L108.555 1.40234C108.292 1.44359 108.046 1.37687 107.836 1.24609L107.649 1.12891L107.477 1.01953L107.336 1.07422L107.149 1.14453C107.022 1.19063 106.893 1.237 106.766 1.28125L106.579 1.34375L106.391 1.41016C106.228 1.46678 106.06 1.50177 105.891 1.51562L105.516 1.54688C105.334 1.56156 105.154 1.54591 104.977 1.5L104.79 1.44922L104.602 1.40234C104.552 1.38939 104.505 1.38809 104.458 1.39844L104.27 1.44141L104.083 1.48047C103.901 1.51985 103.716 1.52936 103.532 1.50391L103.157 1.44922C103.025 1.43097 102.894 1.41083 102.762 1.38672L102.387 1.31641C102.26 1.29299 102.132 1.26809 102.004 1.24219L101.817 1.20703L101.629 1.16797C101.624 1.16682 101.61 1.16245 101.575 1.17969L101.2 1.36719C100.93 1.5008 100.636 1.49313 100.372 1.35547L100.184 1.25781L100 1.16406L99.8364 1.22656L99.6489 1.29688C99.4613 1.36529 99.2632 1.39405 99.063 1.37891L98.8755 1.36328L98.688 1.35156C98.5489 1.341 98.4087 1.32343 98.27 1.30078L97.895 1.23828C97.7653 1.21707 97.634 1.19338 97.5044 1.16797L97.1294 1.09766C97.0795 1.08803 97.0301 1.08774 96.9771 1.10156L96.7896 1.14844L96.6021 1.19922C96.4825 1.23037 96.3624 1.26171 96.2427 1.29688L96.0552 1.35547L95.8677 1.41016C95.7121 1.45581 95.5543 1.4865 95.395 1.5L95.02 1.53125C94.823 1.54788 94.6284 1.52042 94.4419 1.45703L94.2544 1.39453L94.0669 1.32812C93.9549 1.28997 93.842 1.25862 93.731 1.23047L93.5435 1.18359L93.356 1.13281C93.3234 1.12458 93.2918 1.12486 93.2544 1.13672L93.0669 1.19922L92.8794 1.25781C92.6724 1.32399 92.4562 1.33639 92.2427 1.28906L92.0552 1.24609L91.8677 1.20703C91.749 1.18074 91.6308 1.15495 91.5122 1.13281L91.1372 1.0625C91.0857 1.05289 91.0321 1.05597 90.9771 1.07031L90.7896 1.11719L90.6021 1.16797C90.4026 1.21973 90.1984 1.22335 89.9966 1.17969L89.8091 1.13672L89.6216 1.09766C89.5207 1.07578 89.4202 1.06132 89.3208 1.05469L88.9458 1.03125C88.9451 1.0312 88.9407 1.02944 88.9341 1.03125C88.9254 1.03383 88.9059 1.04119 88.8794 1.05859L88.5044 1.30859C88.2945 1.4477 88.0422 1.52223 87.77 1.47656L87.395 1.41406C87.3197 1.40135 87.243 1.39995 87.1685 1.41016L86.981 1.4375L86.7935 1.46094C86.6015 1.48705 86.4101 1.47568 86.2231 1.42578L85.8481 1.32422C85.7128 1.28807 85.5767 1.24841 85.4419 1.20312L85.2544 1.14062L85.106 1.08984L84.938 1.20312L84.7505 1.32812C84.5528 1.458 84.3204 1.53666 84.0669 1.51953L83.6919 1.49609C83.5426 1.48594 83.3944 1.46181 83.2466 1.42969L83.0591 1.39062L82.8716 1.34766C82.8193 1.33628 82.7684 1.3392 82.7153 1.35156L82.3403 1.4375C82.0505 1.50503 81.7803 1.42593 81.563 1.27344L81.3755 1.14062L81.2778 1.07031L81.188 1.13281L81.0005 1.25391C80.7577 1.4124 80.4626 1.46671 80.1685 1.35156L79.7935 1.20312C79.7095 1.17039 79.6304 1.1521 79.5552 1.14453L79.1802 1.10547C79.1496 1.10247 79.1081 1.10904 79.0552 1.13281L78.8677 1.21484L78.6802 1.30078C78.3972 1.42708 78.1021 1.39659 77.8481 1.24609L77.6606 1.13281L77.4731 1.02344C77.4483 1.00864 77.4301 1.00185 77.4224 1C77.417 0.998769 77.4134 0.999812 77.4106 1L77.2231 1.01953L77.0356 1.04297C76.9505 1.05273 76.8611 1.07314 76.77 1.10547L76.395 1.23828C76.1747 1.31658 75.9422 1.32564 75.7153 1.26172L75.5278 1.21094L75.3403 1.15625H75.3325C75.3293 1.15717 75.321 1.16031 75.313 1.16406L75.1255 1.25L74.938 1.33984C74.7397 1.43277 74.5248 1.47636 74.3013 1.45312L73.9263 1.41406C73.7782 1.39846 73.6274 1.37194 73.481 1.33594L73.106 1.24219C73.0485 1.22835 72.9927 1.22854 72.938 1.23828L72.7505 1.26953L72.563 1.30469C72.4277 1.32875 72.2923 1.34874 72.1567 1.36328L71.7817 1.40234C71.591 1.42276 71.3998 1.40778 71.2153 1.35547L70.8403 1.24609C70.7847 1.23038 70.7342 1.23035 70.6841 1.23828L70.4966 1.26953L70.3091 1.29688C70.1541 1.32209 69.9965 1.33214 69.8403 1.32812L69.4653 1.32031C69.3631 1.31763 69.2593 1.32116 69.1567 1.33203L68.7817 1.37109C68.6263 1.38768 68.4687 1.39108 68.313 1.37891L68.1255 1.36328L67.938 1.35156C67.8567 1.34521 67.7749 1.34807 67.6919 1.36328L67.5044 1.39844L67.3169 1.42969C67.1803 1.45471 67.0437 1.4771 66.9067 1.49219L66.5317 1.53125C66.2502 1.56226 66.0015 1.46433 65.8013 1.3125L65.52 1.10156L65.4458 1.15625L65.2583 1.28516C65.04 1.43444 64.7714 1.50949 64.4849 1.44141L64.1099 1.35547C64.0437 1.33989 63.9812 1.33559 63.9185 1.34375L63.731 1.36719L63.5435 1.39453C63.3564 1.4192 63.1683 1.40766 62.9849 1.36328L62.6099 1.26953C62.5224 1.24832 62.4361 1.23823 62.3521 1.23828H61.9771C61.8172 1.23836 61.6581 1.22451 61.5005 1.19141L61.313 1.14844L61.1255 1.10938C61.0811 1.10002 61.037 1.10373 60.9888 1.11719L60.8013 1.16797L60.6138 1.22266C60.3983 1.28335 60.1761 1.28149 59.9614 1.21875L59.7739 1.16406L59.6138 1.11719L59.4302 1.23438L59.2427 1.35156C59.0555 1.46886 58.8434 1.54512 58.6138 1.55078L58.2388 1.55859C58.0497 1.56318 57.8627 1.53171 57.6841 1.46875L57.3091 1.33594C57.2326 1.30918 57.1616 1.29799 57.0942 1.29688L56.7192 1.28906C56.6106 1.28731 56.5 1.2919 56.3911 1.30078L56.0161 1.33203C55.8691 1.34396 55.7219 1.34408 55.5747 1.33594L55.3872 1.32812L55.1997 1.31641C55.1165 1.3118 55.0311 1.3155 54.9458 1.33203L54.7583 1.37109L54.5708 1.40625C54.3068 1.45705 54.058 1.39495 53.8442 1.26562L53.6567 1.15234L53.5435 1.08203L53.4302 1.15625L53.2427 1.26953C52.9956 1.42304 52.6989 1.46572 52.4106 1.34766L52.2231 1.27344L52.0356 1.19531C51.993 1.17815 51.9636 1.17518 51.938 1.17969L51.7505 1.21484L51.563 1.24609C51.3844 1.27741 51.203 1.28161 51.0239 1.25391L50.8364 1.22266L50.6489 1.19531C50.5558 1.18101 50.4636 1.17649 50.3716 1.17969L50.1841 1.18359L49.9966 1.19141C49.9234 1.19403 49.8434 1.20658 49.7622 1.23438L49.5747 1.30078L49.3872 1.36328C49.2309 1.41671 49.0719 1.45349 48.9106 1.47266L48.5356 1.51953C48.389 1.53694 48.2413 1.54508 48.0942 1.54297L47.7192 1.53516C47.4705 1.53143 47.2475 1.44028 47.0591 1.30469L46.8716 1.16797L46.6841 1.03516C46.67 1.02508 46.6617 1.01791 46.6567 1.01562L46.4888 1.04297L46.3013 1.07031C46.2171 1.08281 46.1269 1.10806 46.0356 1.14453L45.6606 1.29297C45.4432 1.37962 45.2121 1.40151 44.981 1.34375L44.606 1.25C44.4826 1.21914 44.3582 1.18966 44.2349 1.16016L44.0474 1.11328L43.8599 1.07031C43.8484 1.06762 43.8356 1.06488 43.8052 1.07812L43.4302 1.24219C43.1593 1.36172 42.8724 1.34605 42.6177 1.21094L42.4302 1.11328L42.3286 1.05859L42.2075 1.14844L42.02 1.28516C41.7779 1.46016 41.4706 1.52712 41.1606 1.39844L40.7856 1.24219C40.7235 1.21631 40.6705 1.20873 40.6255 1.21094L40.438 1.21875L40.2505 1.23047C40.071 1.23916 39.8932 1.21583 39.7192 1.16797L39.3442 1.06641C39.2796 1.04865 39.2195 1.04385 39.1606 1.05078L38.7856 1.09766C38.7336 1.10383 38.6699 1.12204 38.5942 1.16406L38.4067 1.26562L38.2192 1.37109C38.0094 1.48749 37.77 1.54077 37.52 1.5L37.3325 1.46875L37.145 1.44141C37.0368 1.4238 36.9285 1.40892 36.8208 1.40234L36.4458 1.37891C36.2627 1.36762 36.0856 1.32379 35.9146 1.25391L35.7271 1.17969L35.5942 1.12109L35.438 1.22656L35.2505 1.35156C35.0397 1.48942 34.7874 1.56335 34.5161 1.51562L34.1411 1.44531C34.0627 1.43135 33.9838 1.42924 33.9067 1.4375L33.7192 1.46094L33.5317 1.48047C33.3786 1.49706 33.2243 1.4983 33.0708 1.48828L32.6958 1.46484C32.5145 1.4529 32.3347 1.41187 32.1646 1.34375L31.9771 1.26562L31.7896 1.19141C31.7491 1.17551 31.7211 1.17523 31.6958 1.17969L31.3208 1.25C31.1977 1.273 31.0728 1.29628 30.9497 1.32031L30.7622 1.35547L30.5747 1.39453C30.4376 1.42132 30.2982 1.44085 30.1606 1.45703L29.7856 1.50391C29.5268 1.53433 29.2866 1.46192 29.0825 1.33203L28.895 1.21094L28.7231 1.09766L28.5786 1.15234L28.3911 1.21875C28.1882 1.28882 27.9753 1.30502 27.7622 1.26562L27.3872 1.19531C27.2641 1.17237 27.1392 1.15063 27.0161 1.12891L26.8286 1.09766L26.6411 1.0625H26.6333C26.6295 1.06323 26.6158 1.06612 26.5942 1.07812L26.2192 1.28906C26.0137 1.40332 25.7811 1.459 25.5356 1.42578L25.3481 1.39844L25.1606 1.375C25.097 1.3663 25.0319 1.36764 24.9653 1.38281L24.5903 1.46875C24.3746 1.51838 24.1548 1.50952 23.9458 1.44141L23.5708 1.31641C23.5515 1.31032 23.538 1.31268 23.5161 1.32031L23.3286 1.38281L23.1411 1.44922C22.9501 1.51575 22.7498 1.54131 22.5474 1.51953L22.1724 1.48047C22.0771 1.47028 21.9822 1.466 21.8872 1.47266L21.6997 1.48828L21.5122 1.5C21.316 1.51378 21.123 1.48663 20.938 1.42188L20.563 1.28906C20.493 1.26444 20.4271 1.25586 20.3677 1.25781L20.1802 1.26172L19.9927 1.26953C19.8415 1.27446 19.6902 1.26894 19.5396 1.25L19.3521 1.22266L19.1646 1.19922C19.1026 1.19147 19.0393 1.19824 18.9731 1.21484L18.5981 1.30859C18.4146 1.35456 18.2273 1.36372 18.0396 1.33984L17.6646 1.29297C17.5591 1.27952 17.4531 1.27465 17.3481 1.27344L17.1606 1.26953H16.9731C16.895 1.26867 16.7867 1.26244 16.6841 1.23047C16.6686 1.22561 16.6494 1.20766 16.6216 1.19531L16.4653 1.29688C16.2502 1.43085 15.997 1.4962 15.731 1.44531L15.5435 1.40625L15.3521 1.37109C15.3386 1.36856 15.3293 1.36885 15.3091 1.37891L15.1294 1.46875L14.9536 1.55859C14.7557 1.65946 14.5406 1.70697 14.3169 1.6875L14.1255 1.66797L13.9341 1.65234C13.7825 1.63905 13.6285 1.61385 13.4731 1.57812L13.0669 1.48438C13.0164 1.4729 12.9847 1.4767 12.9614 1.48438L12.7778 1.54688L12.5981 1.60938C12.4803 1.6501 12.3634 1.69254 12.2466 1.73438L12.0669 1.80078L11.8872 1.86328C11.8362 1.88162 11.7842 1.9117 11.731 1.96094L11.5825 2.10156L11.4341 2.23828C11.2485 2.41025 11.0167 2.50556 10.7622 2.51562L10.3638 2.53125C10.2784 2.53463 10.1988 2.55324 10.1294 2.57812L9.95361 2.64062L9.77393 2.70312C9.70587 2.72751 9.64076 2.76266 9.58252 2.80859L9.43408 2.92969L9.28174 3.04688C9.16705 3.1375 9.04889 3.22445 8.92627 3.30078L8.76611 3.39844L8.60596 3.5C8.47841 3.57934 8.34263 3.65011 8.20361 3.71094L8.02783 3.78516L7.85205 3.86328C7.78746 3.89154 7.73008 3.92913 7.68018 3.97656L7.54346 4.10938L7.40283 4.23828C7.31248 4.32418 7.2254 4.41349 7.13721 4.5L7.00049 4.63281L6.86768 4.76172C6.80192 4.82622 6.74157 4.90114 6.68799 4.98047L6.57861 5.14062L6.46924 5.29688C6.36138 5.45656 6.22749 5.59258 6.06689 5.69922L5.90674 5.80469L5.75049 5.91016C5.69496 5.94696 5.64754 5.99075 5.60986 6.04297L5.50049 6.19922L5.39111 6.35156C5.33625 6.42786 5.28787 6.50941 5.24658 6.59766L5.16455 6.76953L5.08252 6.94531C4.96565 7.19495 4.76234 7.36174 4.52393 7.45312L4.31689 7.53125L4.16846 7.58594L4.14502 7.71484L4.10596 7.91797C4.05532 8.19029 3.90462 8.41442 3.67236 8.5625L3.49658 8.67578L3.3208 8.78516C3.26452 8.82106 3.23189 8.85977 3.21143 8.89453L3.11768 9.05469L3.02002 9.21875C2.95612 9.32729 2.89261 9.43784 2.82861 9.54688L2.6333 9.875C2.63094 9.87902 2.62368 9.89623 2.62939 9.94922L2.65283 10.168L2.67627 10.3828C2.70542 10.6514 2.63482 10.9173 2.4458 11.1328L2.31689 11.2812L2.18408 11.4297L2.19189 11.6328L2.19971 11.832C2.20781 12.0501 2.16087 12.2628 2.05518 12.457L1.96533 12.625L1.87158 12.793C1.80704 12.9115 1.7373 13.0295 1.66455 13.1484L1.56299 13.3203L1.48486 13.4375L1.55908 13.6211L1.64111 13.8281C1.73867 14.071 1.75407 14.3415 1.63721 14.6016L1.55908 14.7773L1.47705 14.9531C1.44893 15.0157 1.43697 15.0769 1.43408 15.1367L1.42236 15.3242L1.41455 15.5078C1.4061 15.6829 1.37153 15.8567 1.31299 16.0234L1.24658 16.207L1.18408 16.3945C1.16407 16.452 1.15589 16.5037 1.16064 16.5547L1.18018 16.7422L1.1958 16.9336C1.20829 17.0675 1.21782 17.2025 1.22314 17.3359L1.23877 17.7109C1.24196 17.7871 1.25855 17.8663 1.28564 17.9492L1.34424 18.1367L1.40674 18.3242C1.47761 18.5413 1.48362 18.7672 1.42236 18.9883L1.37158 19.1758L1.31689 19.3633C1.29498 19.4427 1.28789 19.5197 1.28955 19.5938L1.29736 19.9688C1.3007 20.1186 1.29295 20.2687 1.27393 20.418L1.22705 20.793C1.21409 20.8948 1.20608 20.9964 1.20752 21.0977L1.21533 21.4727C1.21778 21.6478 1.19304 21.8226 1.14502 21.9922L1.09033 22.1797L1.03955 22.3672C1.01705 22.4471 1.00746 22.5232 1.0083 22.5977V22.7852L1.01221 22.9727C1.01311 23.0472 1.02218 23.1259 1.04736 23.207L1.16455 23.582C1.20383 23.7085 1.24439 23.8344 1.28174 23.9609L1.39111 24.3359C1.47341 24.6148 1.41857 24.8883 1.27783 25.1172L1.16455 25.3047L1.10205 25.3984L1.17627 25.5078L1.30518 25.6953C1.43288 25.8809 1.52139 26.0953 1.53174 26.332L1.54736 26.707C1.55586 26.9044 1.51986 27.0974 1.44971 27.2812L1.37939 27.4688L1.30518 27.6562C1.28864 27.6994 1.28796 27.7326 1.29346 27.7617L1.36377 28.1367C1.40283 28.3435 1.38983 28.5498 1.32861 28.75L1.27393 28.9375L1.21533 29.125C1.18831 29.2133 1.17359 29.2995 1.16846 29.3828L1.14502 29.7578C1.14196 29.8088 1.14869 29.8658 1.17236 29.9297L1.31299 30.3047C1.40316 30.5472 1.39693 30.8003 1.30127 31.0391L1.15283 31.4141C1.12148 31.492 1.1056 31.5667 1.10205 31.6328L1.09033 31.8203L1.08252 32.0078C1.08112 32.0386 1.08633 32.0804 1.11377 32.1367L1.29346 32.5117C1.37792 32.6851 1.4363 32.8673 1.45361 33.0586L1.48486 33.4336C1.49615 33.5591 1.50909 33.687 1.52002 33.8125L1.55127 34.1875C1.56771 34.3786 1.54501 34.5668 1.48877 34.75L1.43408 34.9375L1.37549 35.125C1.35166 35.2024 1.3398 35.277 1.34033 35.3477L1.34424 35.5352V35.7227C1.34626 35.9245 1.30345 36.121 1.22314 36.3047L1.05908 36.6797C1.04426 36.7136 1.04436 36.7314 1.04736 36.7461L1.09033 36.9336L1.12939 37.1211C1.15742 37.2496 1.18653 37.3793 1.21143 37.5078L1.28174 37.8828C1.30561 38.0061 1.33101 38.1307 1.35596 38.2539L1.39502 38.4414L1.43018 38.6289C1.48552 38.9023 1.41594 39.16 1.27783 39.375L1.16064 39.5625L1.05518 39.7188L1.11377 39.8555L1.18799 40.043C1.25698 40.2147 1.29892 40.3947 1.30908 40.5781L1.3208 40.7656L1.32861 40.9531C1.33764 41.118 1.3276 41.2823 1.29736 41.4453L1.22705 41.8203C1.21902 41.8636 1.22334 41.9069 1.23877 41.957L1.29346 42.1445L1.35205 42.332C1.43428 42.5992 1.39387 42.8659 1.26611 43.0977L1.16455 43.2852L1.05908 43.4727C1.05707 43.4764 1.05234 43.478 1.05127 43.4805L1.10205 43.6641L1.15283 43.8516C1.19094 43.9951 1.21833 44.1402 1.23877 44.2852L1.29346 44.6602C1.30643 44.7518 1.32728 44.8457 1.35986 44.9414L1.42627 45.1289L1.48877 45.3164C1.55487 45.51 1.57724 45.7137 1.55127 45.918L1.50439 46.293C1.49 46.4063 1.47999 46.5196 1.47314 46.6328L1.44971 47.0078C1.43836 47.1965 1.39307 47.3808 1.31689 47.5547L1.23096 47.7422L1.14893 47.9297C1.13671 47.9575 1.1387 47.9703 1.14111 47.9805L1.23486 48.3555C1.29168 48.5813 1.27911 48.8113 1.19971 49.0273L1.12939 49.2148L1.06689 49.3789L1.16455 49.5547L1.27002 49.7422C1.36754 49.9222 1.42962 50.1175 1.44189 50.3242L1.45361 50.5117L1.46143 50.6992C1.46952 50.8369 1.47576 50.9755 1.47314 51.1133L1.46533 51.4883C1.46222 51.6512 1.43829 51.813 1.39893 51.9727L1.30518 52.3477C1.28861 52.4147 1.28593 52.48 1.29346 52.543L1.34033 52.918C1.35644 53.0504 1.36947 53.1839 1.37939 53.3164L1.39502 53.5039L1.40674 53.6914C1.41656 53.8227 1.42532 53.9546 1.43018 54.0859L1.43799 54.2734L1.44189 54.4609C1.44713 54.6024 1.44671 54.7453 1.43799 54.8867L1.41455 55.2617C1.40546 55.408 1.38807 55.554 1.35986 55.6992L1.3208 55.8867L1.28564 56.0742C1.26702 56.17 1.25557 56.2653 1.25439 56.3594V56.5469L1.25049 56.7344C1.24934 56.8314 1.25901 56.9294 1.27393 57.0273L1.32861 57.4023C1.34575 57.5144 1.36875 57.6296 1.39502 57.7422L1.48096 58.1172C1.53272 58.3401 1.51944 58.5649 1.44189 58.7773L1.30127 59.1523C1.25855 59.2695 1.22086 59.3871 1.18408 59.5039L1.12549 59.6914L1.06299 59.8672C1.06378 59.8692 1.06877 59.8711 1.0708 59.875L1.16846 60.0625L1.26221 60.25C1.4035 60.5235 1.39949 60.825 1.25439 61.0938L1.05127 61.4688L1.10596 61.6445L1.16064 61.832C1.22781 62.0516 1.23088 62.2801 1.16455 62.5L1.10596 62.6875L1.05127 62.875C1.03174 62.9401 1.02623 63.001 1.03174 63.0586L1.04736 63.2461L1.06689 63.4336C1.0726 63.4907 1.08794 63.5574 1.12549 63.6328L1.31299 64.0078C1.42883 64.2409 1.4577 64.5006 1.37549 64.7578L1.31689 64.9453L1.25439 65.1328C1.24066 65.1766 1.24273 65.2129 1.25049 65.25L1.32861 65.625C1.35468 65.7483 1.3794 65.8728 1.40674 65.9961L1.49268 66.3711C1.55108 66.6348 1.49483 66.8875 1.36768 67.1055L1.14893 67.4805C1.13656 67.5016 1.13107 67.5169 1.12939 67.5234C1.12834 67.5282 1.12517 67.5329 1.12549 67.5352L1.18018 67.9102C1.19656 68.0255 1.21571 68.1422 1.23877 68.2578L1.27783 68.4453L1.31299 68.6328C1.3493 68.8155 1.35424 68.9997 1.32471 69.1836L1.29346 69.3711L1.26611 69.5586C1.25353 69.637 1.25244 69.7153 1.26221 69.793L1.30908 70.168C1.32559 70.2994 1.3372 70.431 1.34814 70.5625L1.37939 70.9375C1.39736 71.1535 1.35635 71.364 1.27002 71.5586L1.10596 71.9336C1.08042 71.9915 1.07273 72.0363 1.07471 72.0742L1.09814 72.4492C1.10365 72.5449 1.11436 72.6444 1.13721 72.7422L1.18408 72.9297L1.22705 73.1172C1.26458 73.2783 1.2821 73.4413 1.28174 73.6055V73.9805C1.28133 74.1629 1.25118 74.3421 1.19189 74.5156L1.12549 74.7031L1.06689 74.875L1.26221 75.25C1.40389 75.5236 1.4002 75.8249 1.25439 76.0938L1.15283 76.2812L1.08643 76.4023L1.16455 76.5312L1.28174 76.7188C1.43869 76.9745 1.4691 77.2744 1.33643 77.5625L1.25049 77.75L1.16455 77.9297L1.23877 78.1094L1.31299 78.2969C1.39725 78.5102 1.41929 78.7371 1.36768 78.9648L1.28174 79.3398C1.25413 79.4616 1.22874 79.5853 1.20361 79.707L1.12549 80.082C1.11593 80.1296 1.11604 80.176 1.12939 80.2266L1.23096 80.6016C1.26039 80.7127 1.29261 80.8253 1.33252 80.9375L1.39893 81.125L1.46924 81.3125C1.53098 81.4864 1.56154 81.6679 1.56299 81.8516L1.56689 82.0391V82.2266C1.56854 82.469 1.48621 82.6881 1.35986 82.8789L1.23877 83.0664L1.11377 83.2539C1.07681 83.3097 1.07851 83.3365 1.07861 83.3398L1.08643 83.7148C1.08756 83.7543 1.09909 83.8054 1.1333 83.8711L1.23096 84.0586L1.33252 84.2461C1.45834 84.4862 1.48633 84.7579 1.39111 85.0234L1.3208 85.2109L1.25439 85.3984C1.23794 85.4445 1.23686 85.481 1.24268 85.5156L1.27393 85.7031L1.30908 85.8906C1.35028 86.1244 1.31175 86.3533 1.21533 86.5625L1.12939 86.75L1.05127 86.918L1.12549 87.0898L1.20752 87.2773C1.31236 87.516 1.32444 87.7743 1.23486 88.0234L1.16846 88.2109L1.11768 88.3516L1.22705 88.5195L1.34814 88.707C1.43206 88.8355 1.49386 88.9934 1.49268 89.1719C1.49112 89.3495 1.42872 89.5061 1.34424 89.6328L1.21924 89.8203L1.11768 89.9688L1.25439 90.2812C1.3282 90.4535 1.37494 90.6345 1.38721 90.8203L1.41064 91.1953C1.42613 91.4335 1.36061 91.6583 1.24658 91.8555L1.14111 92.043L1.03955 92.207L1.10205 92.3594L1.17236 92.5469C1.23033 92.6966 1.27773 92.8502 1.30908 93.0039L1.34814 93.1914L1.3833 93.3789C1.42033 93.5606 1.4264 93.7463 1.39893 93.9297L1.34424 94.3047C1.3192 94.4711 1.27236 94.6341 1.20752 94.793L1.12939 94.9805L1.05518 95.168C1.02537 95.241 1.00961 95.308 1.0083 95.3672L1.00049 95.7422C1.00048 95.7549 1.00544 95.7851 1.03955 95.8398L1.27393 96.2148C1.38733 96.3969 1.46254 96.6004 1.47705 96.8203L1.50049 97.1953C1.51498 97.4203 1.46314 97.6369 1.36377 97.832L1.27002 98.0195L1.17236 98.207C1.14633 98.2584 1.1432 98.2914 1.14502 98.3125L1.16064 98.5L1.18018 98.6875C1.19015 98.8032 1.19951 98.9193 1.21533 99.0352L1.27002 99.4102C1.28431 99.5146 1.30491 99.6208 1.33252 99.7266L1.37939 99.9141L1.43018 100.102C1.47367 100.268 1.49437 100.439 1.49268 100.609V100.797L1.48877 100.984C1.48662 101.2 1.42824 101.404 1.32861 101.59L1.12549 101.965C1.11579 101.983 1.11425 101.993 1.11377 101.996V102L1.15283 102.188L1.1958 102.375C1.23508 102.56 1.23779 102.747 1.20752 102.934L1.14502 103.309C1.13335 103.38 1.1336 103.452 1.14502 103.523L1.20752 103.898C1.22237 103.99 1.24626 104.087 1.28174 104.184L1.35205 104.371L1.41846 104.559C1.5166 104.827 1.48884 105.099 1.35986 105.34L1.2583 105.527L1.16064 105.715C1.1195 105.792 1.10107 105.858 1.09424 105.914L1.0708 106.102L1.04736 106.281L1.0708 106.32L1.1958 106.508L1.32471 106.695C1.47571 106.915 1.55302 107.188 1.48096 107.477L1.38721 107.852C1.35796 107.969 1.33259 108.086 1.30908 108.203L1.23096 108.578C1.2148 108.659 1.21328 108.738 1.21924 108.816L1.23096 109.004L1.24658 109.191C1.25972 109.364 1.2475 109.537 1.21143 109.707L1.17236 109.895L1.12939 110.082C1.10826 110.181 1.09535 110.281 1.09033 110.379L1.07471 110.754C1.07287 110.79 1.07869 110.836 1.10596 110.895L1.27783 111.27L1.34424 111.473C1.38779 111.678 1.36068 111.888 1.26221 112.082L1.16455 112.27L1.10205 112.387L1.18799 112.52L1.30908 112.707C1.4252 112.89 1.50034 113.096 1.51221 113.32L1.52393 113.508L1.53174 113.691C1.53962 113.845 1.53521 113.998 1.51611 114.152L1.49268 114.34L1.46924 114.531C1.46024 114.605 1.46371 114.674 1.47705 114.742L1.54736 115.109C1.57905 115.269 1.59139 115.433 1.58643 115.598L1.57861 115.98V115.988C1.58036 115.991 1.58479 115.997 1.59033 116.004L1.71924 116.164L1.85205 116.324C1.99099 116.495 2.08455 116.697 2.11377 116.922L2.13721 117.105L2.16064 117.293C2.17657 117.416 2.19479 117.539 2.21143 117.664L2.23486 117.852L2.26221 118.039C2.27506 118.135 2.29573 118.23 2.32471 118.32L2.3833 118.5L2.43799 118.68C2.48604 118.83 2.51956 118.985 2.53955 119.145L2.56689 119.344L2.58252 119.488L2.75439 119.59L2.94971 119.699C3.12893 119.803 3.29004 119.938 3.41064 120.109L3.62158 120.414C3.76538 120.619 3.82153 120.853 3.81689 121.086L3.80908 121.309L3.80518 121.492L3.91846 121.578L4.07861 121.695C4.23369 121.808 4.36604 121.944 4.46924 122.105L4.5708 122.266L4.67236 122.422C4.72169 122.499 4.77703 122.571 4.84033 122.637L4.97314 122.773L5.10205 122.906C5.24153 123.051 5.34559 123.223 5.41455 123.41L5.48486 123.602L5.54736 123.773L5.72314 123.848L5.91064 123.922C6.04573 123.976 6.17893 124.035 6.30518 124.094L6.65674 124.258C6.80914 124.329 6.95042 124.417 7.07861 124.523L7.22314 124.645L7.36377 124.762C7.49591 124.871 7.61253 124.998 7.71143 125.141L7.82471 125.305L7.93408 125.465C7.98906 125.544 8.05158 125.614 8.11768 125.676L8.25439 125.809L8.39502 125.938C8.40865 125.95 8.42668 125.963 8.46533 125.969L8.66846 125.996L8.86768 126.027C9.05603 126.055 9.23691 126.111 9.40283 126.203L9.56689 126.293L9.72705 126.383C9.84692 126.45 9.96337 126.525 10.0786 126.602L10.2388 126.703L10.395 126.809C10.5045 126.882 10.6142 126.96 10.7231 127.039L11.0356 127.266C11.0633 127.285 11.0918 127.294 11.1294 127.297L11.3247 127.312L11.5161 127.328C11.6417 127.337 11.7679 127.346 11.8911 127.352L12.2739 127.367C12.4452 127.375 12.6124 127.407 12.7739 127.461L13.1255 127.578C13.2549 127.622 13.3846 127.672 13.5122 127.727L13.688 127.805L13.8599 127.879C13.9765 127.929 14.0963 127.979 14.2153 128.031L14.3911 128.109L14.5708 128.184C14.6568 128.221 14.7445 128.248 14.8325 128.266L15.0161 128.305L15.2036 128.34C15.2874 128.356 15.3717 128.363 15.4575 128.359L15.6489 128.352L15.8403 128.34C15.9379 128.335 16.0354 128.322 16.1333 128.301L16.3247 128.262L16.5122 128.219C16.6662 128.185 16.8214 128.166 16.9771 128.16L17.3521 128.145C17.573 128.137 17.7819 128.194 17.9731 128.293L18.1606 128.391L18.3247 128.473L18.4849 128.406L18.6724 128.328C18.8591 128.248 19.0573 128.208 19.2622 128.215L19.4497 128.219L19.6372 128.227C19.7304 128.23 19.8243 128.225 19.9185 128.211L20.2935 128.156C20.463 128.131 20.6351 128.127 20.8052 128.148L21.1802 128.195C21.3075 128.211 21.4356 128.228 21.563 128.246L21.7505 128.27L21.938 128.297C21.9863 128.304 22.0374 128.299 22.0942 128.281L22.4692 128.164C22.6899 128.094 22.9192 128.089 23.1411 128.156L23.3286 128.215L23.5161 128.27C23.5372 128.276 23.5529 128.279 23.5786 128.27L23.9536 128.137C24.1485 128.068 24.3526 128.043 24.5591 128.07L24.7466 128.098L24.9341 128.121C25.0798 128.14 25.2273 128.17 25.3716 128.207L25.5591 128.254L25.7466 128.305C25.8611 128.334 25.9763 128.361 26.0903 128.383L26.4653 128.453C26.5576 128.471 26.6483 128.481 26.7388 128.48L26.9263 128.477H27.1138C27.1481 128.476 27.1951 128.467 27.2583 128.434L27.4458 128.332L27.6333 128.234C27.8296 128.13 28.048 128.075 28.2778 128.09L28.6528 128.113C28.8211 128.124 28.9867 128.158 29.1489 128.211L29.5239 128.336C29.6283 128.37 29.7343 128.395 29.8364 128.414L30.2114 128.484C30.2889 128.499 30.3659 128.5 30.4419 128.492L30.8169 128.453C30.9609 128.438 31.1062 128.428 31.2505 128.43L31.438 128.434H31.6255C31.7609 128.435 31.8964 128.439 32.0317 128.449L32.4067 128.48C32.5278 128.49 32.649 128.497 32.77 128.504L32.9575 128.512L33.145 128.523C33.2323 128.528 33.3219 128.523 33.4106 128.508L33.5981 128.473L33.7856 128.441C33.9029 128.421 34.0198 128.397 34.1372 128.371L34.5122 128.293C34.6879 128.255 34.8689 128.243 35.0474 128.262L35.4224 128.301C35.4594 128.304 35.5014 128.299 35.5552 128.277L35.7427 128.203L35.9302 128.125C36.1881 128.02 36.4595 128.032 36.7075 128.148L36.895 128.234L37.0825 128.324C37.1449 128.354 37.1942 128.364 37.2349 128.363L37.6099 128.355C37.653 128.355 37.7076 128.345 37.7739 128.312L37.9614 128.219L38.1489 128.129C38.3317 128.039 38.5292 127.985 38.7349 127.98L39.1099 127.973C39.3441 127.968 39.5625 128.037 39.7544 128.152L40.1294 128.379C40.2017 128.422 40.2578 128.44 40.3013 128.445L40.6763 128.492L40.7192 128.469L41.0942 128.219L41.2817 128.121C41.4118 128.069 41.5515 128.045 41.6958 128.059L41.9146 128.109L42.2896 128.242C42.3179 128.252 42.3345 128.252 42.356 128.246L42.5435 128.195L42.731 128.141C42.9132 128.088 43.1008 128.069 43.2896 128.086L43.4771 128.102L43.6646 128.121C43.8504 128.138 44.0324 128.188 44.2036 128.266L44.5786 128.438H44.5825L44.77 128.379L44.9575 128.312C45.1316 128.254 45.3136 128.222 45.4966 128.223L45.6841 128.227H45.8716C46.0044 128.227 46.1373 128.227 46.27 128.234L46.4575 128.246L46.645 128.254C46.7124 128.257 46.7823 128.252 46.856 128.23L47.231 128.121C47.4764 128.051 47.7231 128.077 47.9497 128.18L48.1372 128.262L48.2935 128.332L48.4575 128.254L48.645 128.156L48.8521 128.082C49.0638 128.032 49.2812 128.064 49.481 128.172L49.856 128.375C49.9384 128.42 50.0133 128.446 50.0786 128.457L50.2661 128.488L50.4536 128.523C50.5386 128.538 50.624 128.541 50.7075 128.535L50.895 128.52L51.0825 128.508C51.1629 128.502 51.2457 128.482 51.3325 128.453L51.7075 128.328C51.8738 128.272 52.0457 128.235 52.2192 128.227L52.5942 128.211C52.7176 128.205 52.842 128.195 52.9653 128.188L53.1528 128.176L53.3403 128.168C53.5205 128.157 53.7006 128.176 53.8755 128.223L54.063 128.273L54.2505 128.32C54.3601 128.35 54.47 128.376 54.5786 128.395L54.9536 128.457C55.0514 128.473 55.1499 128.48 55.2466 128.48H55.6216C55.6407 128.48 55.6765 128.477 55.7349 128.441L56.1099 128.215L56.3013 128.121C56.4346 128.075 56.5763 128.061 56.7192 128.082L56.9302 128.141L57.1177 128.215L57.3052 128.293C57.3287 128.302 57.3397 128.301 57.3521 128.297L57.5396 128.238L57.7271 128.184C57.8871 128.136 58.0506 128.108 58.2153 128.098L58.5903 128.074C58.776 128.063 58.9588 128.087 59.1372 128.141L59.3247 128.195L59.5122 128.254C59.6035 128.281 59.6949 128.294 59.7817 128.301L59.9692 128.316L60.1567 128.328C60.3074 128.339 60.4571 128.364 60.606 128.398L60.981 128.484C61.0026 128.489 61.0276 128.49 61.063 128.477L61.438 128.328C61.6131 128.26 61.7975 128.223 61.9849 128.219L62.1724 128.211L62.3599 128.207C62.4882 128.204 62.6182 128.203 62.7466 128.203H63.1216C63.269 128.203 63.4163 128.214 63.563 128.234L63.938 128.289C64.0073 128.299 64.0781 128.295 64.1489 128.281L64.3364 128.246L64.5239 128.207L65.0864 128.102L65.2739 128.062C65.52 128.015 65.7598 128.062 65.9731 128.172L66.1606 128.266L66.3481 128.363C66.401 128.39 66.4353 128.392 66.4575 128.391L66.645 128.379L66.8325 128.363C66.9639 128.353 67.0956 128.345 67.2271 128.34L67.4146 128.336L67.6021 128.328C67.7758 128.322 67.9482 128.34 68.1177 128.383L68.3052 128.43L68.4927 128.48C68.5702 128.5 68.6462 128.504 68.7192 128.5L68.9067 128.492L69.0942 128.48C69.126 128.479 69.173 128.469 69.2388 128.43L69.4263 128.32L69.6138 128.207L69.8247 128.113C69.9 128.092 69.9824 128.081 70.0669 128.082C70.1511 128.084 70.231 128.097 70.3052 128.121L70.5122 128.219L70.8872 128.453C70.8922 128.456 70.8957 128.459 70.8989 128.461L71.0708 128.422L71.2583 128.379C71.4446 128.337 71.636 128.333 71.8247 128.363L72.0122 128.391L72.1997 128.422C72.2449 128.429 72.2914 128.426 72.3442 128.41L72.7192 128.293C72.8755 128.244 73.0352 128.211 73.1958 128.195L73.3833 128.176L73.5708 128.16C73.7146 128.147 73.8603 128.141 74.0044 128.145L74.3794 128.152C74.5793 128.157 74.7728 128.206 74.9536 128.289L75.1411 128.375L75.2778 128.438L75.4302 128.352L75.6177 128.242C75.8202 128.125 76.0445 128.092 76.2622 128.145L76.4771 128.227L76.6646 128.324L76.8364 128.418L77.0044 128.355L77.1919 128.285C77.3362 128.23 77.4826 128.184 77.6294 128.148L77.8169 128.102L78.0044 128.059L78.2231 128.035C78.4375 128.038 78.6315 128.121 78.7935 128.242L78.981 128.383L79.1372 128.496L79.2583 128.453L79.4458 128.383C79.604 128.324 79.7656 128.283 79.9302 128.262L80.3052 128.215C80.4361 128.198 80.5687 128.184 80.6997 128.172L80.8872 128.152L81.0747 128.137C81.2483 128.121 81.4228 128.13 81.5942 128.164L81.7817 128.203L81.9692 128.238C82.074 128.259 82.178 128.273 82.2817 128.281L82.6567 128.312C82.716 128.317 82.7808 128.31 82.8481 128.289L83.2231 128.172C83.4337 128.107 83.6529 128.099 83.8677 128.152L84.2427 128.246C84.3441 128.271 84.4439 128.291 84.5435 128.301L84.731 128.32L84.9185 128.336C85.0447 128.348 85.1711 128.361 85.2974 128.375L85.4849 128.398L85.6724 128.418C85.6832 128.419 85.7076 128.42 85.7544 128.395L85.9419 128.289L86.1294 128.188C86.2624 128.115 86.4185 128.072 86.5864 128.082C86.6699 128.087 86.748 128.107 86.8208 128.133L87.02 128.234L87.2075 128.355L87.3716 128.465L87.5122 128.414L87.6997 128.348C87.8321 128.299 87.9653 128.252 88.0981 128.211L88.2856 128.156L88.4731 128.098C88.6412 128.046 88.8144 128.018 88.9888 128.016L89.3638 128.008C89.5784 128.005 89.7814 128.061 89.9692 128.156L90.3442 128.344C90.4031 128.374 90.4461 128.38 90.4771 128.379L90.6646 128.371L90.8521 128.367C90.9625 128.363 91.0734 128.353 91.1841 128.34L91.5591 128.293C91.646 128.282 91.7362 128.263 91.8286 128.23L92.2036 128.098C92.4198 128.021 92.6475 128.008 92.8716 128.066L93.0591 128.117L93.2466 128.164C93.3564 128.193 93.4657 128.216 93.5747 128.234L93.9497 128.297C93.9812 128.302 94.0165 128.299 94.063 128.281L94.2505 128.207L94.438 128.137C94.6469 128.056 94.8709 128.03 95.0942 128.074L95.4692 128.152C95.6366 128.186 95.7994 128.242 95.9575 128.316L96.145 128.402L96.3325 128.492C96.3747 128.512 96.3986 128.51 96.4146 128.508L96.7896 128.445C96.8964 128.428 97.0058 128.405 97.1138 128.375L98.2388 128.07L98.4614 128.039C98.6787 128.037 98.8785 128.115 99.0435 128.238L99.231 128.379L99.3521 128.469L99.4497 128.422L99.6372 128.32C99.7945 128.237 99.9575 128.174 100.125 128.133L100.5 128.039L100.7 128.012C100.897 128.006 101.084 128.061 101.25 128.16L101.438 128.273L101.571 128.352L101.7 128.289L101.887 128.191C102.077 128.092 102.285 128.035 102.504 128.039L102.879 128.047C103.073 128.051 103.26 128.097 103.438 128.172L103.813 128.328C103.859 128.347 103.892 128.348 103.918 128.344L104.106 128.316L104.293 128.285C104.414 128.266 104.536 128.248 104.657 128.227L104.844 128.191L105.032 128.16C105.158 128.138 105.284 128.115 105.411 128.094L105.786 128.031C105.954 128.003 106.127 127.998 106.297 128.016L106.672 128.055C106.867 128.075 107.053 128.132 107.227 128.223L107.602 128.418C107.62 128.427 107.629 128.433 107.633 128.434C107.636 128.434 107.641 128.434 107.645 128.434L108.02 128.355C108.172 128.324 108.324 128.306 108.477 128.301L108.852 128.285C109.047 128.278 109.24 128.314 109.422 128.383L109.797 128.523C109.832 128.536 109.856 128.537 109.879 128.531L110.067 128.484L110.254 128.441C110.356 128.417 110.459 128.384 110.563 128.344L110.75 128.273L110.938 128.199C111.093 128.139 111.254 128.093 111.415 128.066L111.79 128.004L112.004 127.996C112.213 128.012 112.401 128.102 112.555 128.223L112.743 128.371L112.833 128.441L112.903 128.398L113.09 128.273C113.314 128.127 113.58 128.063 113.86 128.133L114.051 128.18L114.243 128.23C114.267 128.236 114.282 128.234 114.301 128.227L114.661 128.078C114.864 127.995 115.081 127.969 115.297 128L115.489 128.027L115.684 128.055C115.729 128.061 115.764 128.056 115.797 128.043L115.977 127.973L116.153 127.902C116.338 127.828 116.532 127.793 116.731 127.801L116.926 127.809L117.125 127.816C117.194 127.819 117.254 127.809 117.309 127.789L117.489 127.723L117.665 127.656C117.8 127.607 117.938 127.567 118.079 127.531L118.262 127.484L118.45 127.438C118.457 127.436 118.475 127.43 118.504 127.395L118.637 127.23L118.774 127.066L118.934 126.906C119.111 126.774 119.327 126.719 119.555 126.738L119.774 126.754L119.989 126.773H120.036L120.192 126.66L120.352 126.551C120.413 126.508 120.471 126.455 120.524 126.387L120.645 126.227L120.77 126.066C120.878 125.928 121.003 125.806 121.141 125.703L121.29 125.594L121.438 125.48C121.529 125.412 121.621 125.343 121.708 125.27L121.848 125.148L121.993 125.027C122.11 124.929 122.235 124.839 122.368 124.762L122.532 124.668L122.692 124.574C122.827 124.496 122.971 124.427 123.122 124.371L123.309 124.301L123.43 124.254L123.469 124.086L123.516 123.863L123.594 123.641C123.632 123.568 123.679 123.496 123.743 123.434C123.869 123.309 124.023 123.242 124.172 123.211L124.399 123.164L124.622 123.117L124.692 122.98L124.786 122.812C124.836 122.719 124.88 122.621 124.918 122.52L124.989 122.336L125.055 122.152C125.128 121.96 125.243 121.789 125.395 121.648L125.536 121.52L125.676 121.387C125.728 121.338 125.77 121.286 125.801 121.227L125.887 121.059L125.973 120.895C126.018 120.81 126.057 120.718 126.086 120.625L126.141 120.445L126.2 120.262C126.249 120.105 126.318 119.957 126.403 119.816L126.497 119.656L126.594 119.496C126.64 119.42 126.678 119.338 126.708 119.254L126.766 119.078L126.829 118.902C126.893 118.715 126.996 118.547 127.129 118.402L127.266 118.258L127.403 118.109C127.454 118.054 127.49 117.998 127.512 117.941L127.583 117.766L127.649 117.59C127.695 117.475 127.741 117.358 127.786 117.242L127.856 117.062L127.918 116.887C127.918 116.881 127.918 116.867 127.911 116.848L127.836 116.637L127.758 116.43C127.653 116.139 127.689 115.826 127.891 115.57L128.02 115.406L128.153 115.242C128.166 115.226 128.168 115.215 128.168 115.215L128.153 114.832C128.149 114.734 128.138 114.634 128.118 114.535L128.079 114.348L128.036 114.156C127.973 113.855 128.073 113.583 128.243 113.371L128.387 113.188L128.489 113.059L128.446 112.957L128.368 112.77C128.267 112.534 128.251 112.278 128.336 112.031L128.469 111.656C128.469 111.655 128.468 111.647 128.465 111.641L128.387 111.453L128.305 111.266C128.205 111.032 128.192 110.78 128.274 110.535L128.399 110.16C128.405 110.141 128.406 110.13 128.399 110.109L128.266 109.734C128.183 109.496 128.192 109.25 128.282 109.016L128.352 108.828L128.426 108.641C128.46 108.553 128.48 108.47 128.489 108.391L128.528 108.016C128.534 107.956 128.531 107.894 128.512 107.828L128.458 107.641L128.407 107.453C128.379 107.354 128.343 107.252 128.297 107.148L128.211 106.961L128.129 106.773C128.022 106.533 128.009 106.271 128.102 106.02L128.243 105.645C128.272 105.565 128.286 105.492 128.29 105.422L128.305 105.047C128.311 104.922 128.319 104.797 128.325 104.672L128.333 104.484L128.344 104.297C128.346 104.26 128.336 104.212 128.309 104.152L128.137 103.777C128.01 103.501 128.029 103.207 128.172 102.949L128.278 102.762L128.368 102.598L128.305 102.449L128.227 102.262C128.107 101.973 128.15 101.677 128.305 101.43L128.54 101.055L128.555 101.023L128.528 100.836L128.497 100.648C128.488 100.598 128.466 100.534 128.418 100.457L128.184 100.082C128.036 99.8424 127.99 99.5581 128.094 99.2734L128.165 99.0859L128.231 98.8984C128.256 98.831 128.265 98.7702 128.262 98.7148L128.247 98.3398C128.24 98.1791 128.25 98.0187 128.278 97.8594L128.309 97.6719L128.344 97.4844C128.347 97.4676 128.348 97.4436 128.329 97.4023L128.157 97.0273C128.069 96.8366 128.021 96.6312 128.032 96.418L128.043 96.2305L128.051 96.043C128.059 95.8839 128.085 95.7262 128.125 95.5703L128.176 95.3828L128.223 95.1953C128.242 95.1221 128.248 95.0488 128.243 94.9805L128.231 94.793L128.215 94.6055C128.203 94.441 128.208 94.2765 128.235 94.1133L128.297 93.7383C128.323 93.5854 128.364 93.4347 128.415 93.2852L128.536 92.9102ZM129.145 74.8438C129.145 74.8431 129.148 74.8406 129.149 74.8359V74.8281L129.145 74.8438ZM126.043 7.08594L126.204 7.20312L126.36 7.32031C126.52 7.43821 126.652 7.5843 126.75 7.75781L126.844 7.92188L126.938 8.08984C127.035 8.26197 127.092 8.44887 127.114 8.64453L127.137 8.84766L127.157 9.05078C127.161 9.09099 127.175 9.10972 127.188 9.125L127.438 9.41406C127.554 9.54856 127.646 9.70071 127.715 9.86328L127.864 10.207C127.922 10.3439 127.971 10.4846 128.008 10.6289L128.055 10.8125L128.102 10.9922C128.124 11.0773 128.155 11.1594 128.196 11.2383L128.368 11.5742C128.415 11.6654 128.472 11.7557 128.536 11.8477L128.762 12.1758C128.879 12.3448 128.955 12.5338 128.985 12.7383L129.012 12.9297L129.04 13.1172C129.066 13.2984 129.064 13.4827 129.032 13.6641L128.997 13.8594L128.958 14.0586C128.95 14.1003 128.958 14.1288 128.969 14.1562L129.04 14.3359L129.114 14.5156C129.184 14.6905 129.221 14.8739 129.223 15.0625V15.2539L129.227 15.4414C129.228 15.6144 129.203 15.7851 129.157 15.9531L129.106 16.1445L129.055 16.332C129.033 16.4127 129.022 16.4897 129.024 16.5625L129.028 16.7461L129.032 16.9336C129.034 17.0403 129.045 17.1496 129.059 17.2578L129.106 17.6328C129.113 17.6849 129.134 17.7487 129.176 17.8242L129.387 18.1992C129.499 18.3967 129.56 18.6191 129.543 18.8555L129.532 19.043L129.516 19.2305C129.501 19.4427 129.43 19.6397 129.325 19.8203L129.215 20.0078L129.153 20.1094L129.235 20.2266L129.36 20.4141C129.51 20.635 129.581 20.9042 129.508 21.1914L129.415 21.5664C129.39 21.6634 129.375 21.761 129.368 21.8555L129.352 22.043L129.34 22.2305C129.332 22.3489 129.325 22.4675 129.321 22.5859L129.305 22.9609C129.3 23.1144 129.282 23.2701 129.25 23.4219L129.172 23.7969C129.148 23.9139 129.128 24.0316 129.11 24.1484L129.047 24.5234C129.037 24.5925 129.039 24.6609 129.051 24.7305L129.086 24.918L129.118 25.1055C129.14 25.2313 129.162 25.3585 129.184 25.4844L129.215 25.6719L129.25 25.8594C129.279 26.0222 129.284 26.1872 129.274 26.3516L129.25 26.7266C129.241 26.8814 129.218 27.0351 129.18 27.1875L129.133 27.375L129.09 27.5625L129.086 27.5703C129.087 27.5716 129.09 27.5802 129.098 27.5977L129.192 27.7852L129.282 27.9727C129.38 28.1724 129.43 28.3926 129.407 28.6211L129.368 28.9961C129.361 29.0603 129.366 29.1263 129.383 29.1953L129.434 29.3828L129.481 29.5703C129.541 29.8036 129.523 30.0386 129.434 30.2578L129.356 30.4453L129.282 30.6328C129.253 30.7031 129.239 30.7642 129.239 30.8203V31.1953C129.238 31.3449 129.226 31.4958 129.204 31.6445L129.149 32.0195C129.14 32.0797 129.142 32.1398 129.157 32.2031L129.204 32.3906L129.247 32.5781C129.3 32.8037 129.284 33.0318 129.204 33.2461L129.133 33.4336L129.075 33.582L129.18 33.7461L129.293 33.9336C129.417 34.1351 129.486 34.367 129.461 34.6172L129.442 34.8047L129.426 34.9922C129.411 35.1486 129.381 35.3039 129.336 35.457L129.227 35.832C129.197 35.9351 129.175 36.0396 129.161 36.1406L129.106 36.5156C129.1 36.5598 129.104 36.6064 129.122 36.6602L129.247 37.0352C129.312 37.2306 129.335 37.4353 129.305 37.6406L129.25 38.0156C129.241 38.0795 129.243 38.1445 129.258 38.2109L129.297 38.3984L129.34 38.5859C129.384 38.7817 129.384 38.9799 129.34 39.1758L129.297 39.3633L129.258 39.5508C129.233 39.6636 129.212 39.7783 129.196 39.8906L129.032 41.0156C129.024 41.0709 129.027 41.127 129.043 41.1875L129.145 41.5625C129.196 41.7504 129.211 41.9435 129.184 42.1367L129.129 42.5117C129.128 42.5206 129.129 42.5418 129.153 42.5859L129.348 42.9609C129.445 43.1437 129.505 43.3413 129.512 43.5508L129.528 43.9258C129.536 44.1419 129.484 44.3486 129.391 44.5391L129.301 44.7266L129.208 44.9141C129.177 44.9764 129.168 45.0245 129.168 45.0625L129.176 45.4375C129.177 45.5126 129.187 45.5907 129.211 45.6719L129.329 46.0469C129.383 46.2246 129.404 46.4086 129.395 46.5938L129.379 46.9688C129.375 47.058 129.38 47.1477 129.395 47.2383L129.426 47.4258L129.454 47.6133C129.493 47.8553 129.448 48.0879 129.34 48.2969L129.145 48.6719C129.113 48.7336 129.106 48.7813 129.106 48.8164V49.1914C129.106 49.3165 129.11 49.4452 129.11 49.5703V49.9453C129.11 50.0411 129.117 50.1374 129.133 50.2344L129.196 50.6094C129.219 50.7479 129.239 50.8884 129.25 51.0273L129.282 51.4023C129.289 51.4945 129.306 51.5883 129.333 51.6836L129.434 52.0586C129.506 52.3168 129.47 52.5739 129.352 52.8008L129.254 52.9883L129.168 53.1484L129.235 53.3086L129.317 53.4961C129.398 53.6837 129.439 53.8836 129.43 54.0898L129.415 54.4648C129.409 54.5985 129.397 54.7337 129.383 54.8672L129.368 55.0547L129.348 55.2422C129.337 55.3588 129.326 55.4773 129.321 55.5938L129.305 55.9688C129.299 56.1052 129.286 56.2426 129.27 56.3789L129.247 56.5664L129.227 56.7539C129.219 56.8207 129.223 56.8871 129.239 56.957L129.278 57.1445L129.321 57.332C129.352 57.4693 129.379 57.6082 129.399 57.7461L129.454 58.1211C129.488 58.3597 129.442 58.5908 129.336 58.7969L129.239 58.9844L129.157 59.1328L129.235 59.2852L129.329 59.4727C129.428 59.6723 129.477 59.8921 129.454 60.1211L129.415 60.4961C129.399 60.6453 129.374 60.794 129.336 60.9414L129.243 61.3164C129.235 61.3483 129.235 61.3771 129.247 61.4141L129.305 61.6016L129.368 61.7891C129.452 62.05 129.418 62.3129 129.297 62.5469L129.204 62.7344L129.141 62.8438L129.231 62.9766L129.36 63.1641C129.518 63.3977 129.582 63.6851 129.481 63.9805L129.418 64.168L129.352 64.3555C129.328 64.4267 129.319 64.4932 129.321 64.5547L129.329 64.7422L129.333 64.9297C129.337 65.0901 129.326 65.2514 129.297 65.4102L129.227 65.7852C129.208 65.8908 129.195 65.9967 129.188 66.1016L129.165 66.4766C129.162 66.5258 129.168 66.5817 129.192 66.6445L129.266 66.832L129.336 67.0195C129.41 67.2153 129.437 67.4229 129.411 67.6328L129.364 68.0078C129.347 68.1391 129.327 68.2712 129.305 68.4023L129.243 68.7773C129.22 68.9116 129.195 69.0458 129.165 69.1797L129.079 69.5547C129.056 69.654 129.042 69.7541 129.036 69.8516L129.012 70.2266C129.007 70.3105 129.009 70.395 129.024 70.4805L129.059 70.668L129.09 70.8555C129.109 70.961 129.136 71.0687 129.168 71.1758L129.223 71.3633L129.282 71.5508C129.343 71.7537 129.353 71.9636 129.309 72.1719L129.27 72.3594L129.227 72.5469C129.218 72.5875 129.221 72.6295 129.235 72.6758L129.293 72.8633L129.348 73.0508C129.405 73.2374 129.424 73.4308 129.403 73.625L129.364 74C129.346 74.1582 129.311 74.3144 129.262 74.4688L129.204 74.6562L129.153 74.8242L129.364 75.1992C129.439 75.3323 129.483 75.4892 129.473 75.6602C129.464 75.8289 129.403 75.976 129.321 76.0977L129.196 76.2852L129.067 76.4727C129.025 76.5341 129.024 76.5681 129.024 76.5781L129.016 76.9531C129.015 77.0024 129.023 77.0589 129.051 77.125L129.133 77.3125L129.211 77.5C129.279 77.6588 129.329 77.8217 129.356 77.9883L129.387 78.1758L129.415 78.3633C129.457 78.6225 129.396 78.8677 129.27 79.0781L129.043 79.4531C129.014 79.5036 129.016 79.5279 129.016 79.5352L129.04 79.9102C129.05 80.0598 129.052 80.2098 129.04 80.3594L129.008 80.7344C129.007 80.7468 129.007 80.7735 129.036 80.8242L129.247 81.1992C129.347 81.3794 129.412 81.5764 129.426 81.7852L129.45 82.1602C129.46 82.3161 129.457 82.4735 129.438 82.6289L129.391 83.0039C129.373 83.1521 129.344 83.3028 129.305 83.4492L129.204 83.8242C129.18 83.9133 129.167 84.0006 129.165 84.0859L129.161 84.2734L129.153 84.4609C129.149 84.5803 129.149 84.701 129.149 84.8203V85.1953C129.149 85.3291 129.145 85.4639 129.137 85.5977L129.125 85.7852L129.118 85.9727C129.11 86.104 129.099 86.2359 129.086 86.3672L129.071 86.5547L129.051 86.7422C129.045 86.8108 129.05 86.8807 129.067 86.9531L129.114 87.1406L129.157 87.3281C129.189 87.4607 129.217 87.5938 129.243 87.7266L129.313 88.1016C129.343 88.2602 129.359 88.4216 129.356 88.582L129.348 88.957C129.344 89.1418 129.304 89.3223 129.239 89.4961L129.168 89.6836L129.11 89.8359L129.208 90.0117L129.313 90.1992C129.413 90.3749 129.483 90.5639 129.504 90.7656L129.543 91.1406C129.567 91.3609 129.526 91.5753 129.438 91.7734L129.356 91.9609L129.282 92.125L129.36 92.2969L129.446 92.4844C129.554 92.7201 129.574 92.9788 129.489 93.2305L129.422 93.418L129.36 93.6055C129.326 93.7055 129.302 93.8056 129.286 93.9023L129.223 94.2773C129.209 94.3627 129.205 94.4471 129.211 94.5312L129.227 94.7188L129.239 94.9062C129.253 95.0879 129.238 95.2686 129.192 95.4453L129.141 95.6328L129.094 95.8203C129.07 95.9131 129.056 96.0041 129.051 96.0938L129.043 96.2812L129.032 96.4688C129.03 96.5052 129.036 96.5508 129.063 96.6094L129.235 96.9844C129.331 97.1932 129.369 97.423 129.329 97.6562L129.297 97.8438L129.262 98.0312C129.247 98.1206 129.243 98.209 129.247 98.2969L129.262 98.6719C129.27 98.8665 129.239 99.0596 129.172 99.2422L129.102 99.4297L129.047 99.5742L129.153 99.7422L129.266 99.9297C129.372 100.101 129.448 100.289 129.481 100.488L129.543 100.863C129.587 101.128 129.519 101.376 129.387 101.586L129.27 101.773L129.172 101.926L129.231 102.066L129.305 102.254C129.419 102.529 129.394 102.813 129.254 103.062L129.149 103.25L129.063 103.402L129.133 103.547L129.219 103.734C129.307 103.925 129.351 104.13 129.34 104.344L129.325 104.719C129.319 104.843 129.311 104.969 129.305 105.094L129.29 105.469C129.281 105.648 129.243 105.823 129.18 105.992L129.11 106.18L129.04 106.359L129.043 106.367L129.125 106.555L129.211 106.742C129.276 106.887 129.33 107.035 129.372 107.184L129.473 107.559C129.524 107.743 129.541 107.935 129.52 108.125L129.481 108.5C129.462 108.67 129.419 108.838 129.356 109L129.286 109.188L129.211 109.375C129.209 109.381 129.208 109.385 129.208 109.387V109.395C129.208 109.396 129.21 109.401 129.211 109.406L129.344 109.781C129.423 110.009 129.425 110.247 129.348 110.477L129.223 110.852C129.222 110.855 129.219 110.859 129.219 110.859C129.22 110.861 129.221 110.865 129.223 110.871L129.387 111.246C129.489 111.482 129.501 111.738 129.415 111.984L129.282 112.359V112.363C129.282 112.365 129.283 112.37 129.286 112.375L129.368 112.562L129.45 112.754C129.511 112.897 129.533 113.057 129.504 113.223C129.476 113.385 129.402 113.522 129.313 113.633L129.168 113.816L129.024 113.996L129.055 114.141L129.094 114.332C129.127 114.486 129.147 114.641 129.153 114.797L129.168 115.18C129.178 115.437 129.09 115.671 128.938 115.863L128.805 116.027L128.715 116.137L128.774 116.297L128.852 116.508C128.936 116.74 128.952 116.996 128.856 117.246L128.79 117.422L128.719 117.602C128.673 117.721 128.626 117.839 128.579 117.957L128.438 118.309C128.368 118.485 128.266 118.645 128.137 118.785L127.864 119.082C127.817 119.133 127.79 119.183 127.774 119.23L127.711 119.406L127.653 119.582C127.601 119.733 127.532 119.875 127.45 120.012L127.356 120.172L127.258 120.332C127.215 120.403 127.179 120.482 127.153 120.566L127.098 120.746L127.04 120.926C126.992 121.075 126.932 121.222 126.86 121.359L126.774 121.523L126.684 121.691C126.599 121.853 126.49 121.997 126.356 122.121L126.215 122.25L126.075 122.383C126.04 122.415 126.012 122.453 125.993 122.504L125.922 122.688L125.856 122.871C125.802 123.014 125.736 123.152 125.665 123.285L125.575 123.457L125.481 123.625C125.337 123.893 125.093 124.042 124.829 124.098L124.602 124.145L124.469 124.168L124.446 124.293L124.399 124.512C124.337 124.803 124.155 125.053 123.848 125.168L123.473 125.309C123.372 125.347 123.278 125.39 123.196 125.438L123.032 125.531L122.872 125.629C122.788 125.678 122.709 125.732 122.637 125.793L122.493 125.914L122.352 126.031C122.25 126.118 122.143 126.201 122.036 126.281L121.887 126.395L121.739 126.504C121.678 126.549 121.616 126.61 121.559 126.684L121.434 126.84L121.313 127C121.201 127.143 121.07 127.268 120.922 127.371L120.61 127.59C120.396 127.739 120.151 127.79 119.907 127.77L119.688 127.754L119.512 127.738L119.411 127.863L119.278 128.027C119.128 128.21 118.931 128.346 118.692 128.406L118.325 128.5C118.218 128.527 118.111 128.56 118.008 128.598L117.833 128.66L117.653 128.727C117.471 128.793 117.28 128.823 117.086 128.816L116.696 128.801C116.632 128.798 116.575 128.808 116.524 128.828L116.348 128.898L116.172 128.973C115.97 129.054 115.757 129.077 115.543 129.047L115.348 129.02L115.157 128.992C115.114 128.986 115.076 128.989 115.04 129.004L114.68 129.152C114.461 129.242 114.229 129.256 114 129.199L113.809 129.152L113.633 129.109L113.454 129.234L113.266 129.355C113.131 129.444 112.963 129.501 112.774 129.488C112.587 129.475 112.429 129.399 112.309 129.305L111.934 129.008C111.928 129.003 111.923 128.999 111.918 128.996L111.762 129.023L111.575 129.055C111.486 129.069 111.395 129.092 111.301 129.129L110.926 129.277C110.781 129.334 110.633 129.379 110.485 129.414L110.297 129.461L110.11 129.504C109.884 129.557 109.656 129.542 109.442 129.461L109.254 129.387L109.067 129.316C109 129.292 108.941 129.283 108.887 129.285L108.512 129.301C108.416 129.304 108.317 129.316 108.219 129.336L108.032 129.371L107.844 129.41C107.595 129.461 107.353 129.417 107.137 129.305L106.762 129.109C106.687 129.071 106.622 129.053 106.567 129.047L106.192 129.008C106.113 129 106.034 129.002 105.954 129.016L105.579 129.078C105.456 129.099 105.331 129.122 105.208 129.145L105.02 129.176L104.833 129.211C104.704 129.234 104.574 129.253 104.446 129.273L104.258 129.305L104.071 129.332C103.848 129.367 103.63 129.336 103.426 129.25L103.239 129.172L103.051 129.09C102.98 129.06 102.916 129.048 102.86 129.047L102.485 129.039C102.454 129.038 102.412 129.047 102.352 129.078L101.977 129.273C101.692 129.422 101.382 129.406 101.114 129.246L100.739 129.02C100.732 129.015 100.726 129.013 100.723 129.012L100.364 129.102C100.282 129.122 100.194 129.154 100.102 129.203L99.9146 129.305L99.7271 129.402C99.5882 129.476 99.4276 129.515 99.2544 129.496C99.084 129.478 98.9378 129.408 98.8208 129.32L98.6333 129.18L98.4497 129.047L98.313 129.086L97.3755 129.34C97.2343 129.379 97.0921 129.41 96.9497 129.434L96.5747 129.496C96.3409 129.534 96.1144 129.492 95.9067 129.395L95.7192 129.309L95.5317 129.219C95.4404 129.176 95.352 129.149 95.27 129.133L94.895 129.055C94.8691 129.05 94.8408 129.051 94.8013 129.066L94.4263 129.215C94.2233 129.294 94.0077 129.317 93.7896 129.281L93.6021 129.25L93.4146 129.223C93.2742 129.2 93.1321 129.169 92.9927 129.133L92.8052 129.082L92.6177 129.035C92.5922 129.029 92.5689 129.027 92.5356 129.039L92.1606 129.172C92.0033 129.227 91.843 129.265 91.6802 129.285L91.3052 129.332C91.166 129.349 91.0267 129.358 90.8872 129.363L90.5122 129.379C90.2938 129.387 90.0857 129.334 89.895 129.238L89.7075 129.141L89.52 129.047C89.4584 129.016 89.4102 129.007 89.3755 129.008L89.0005 129.016C88.9256 129.017 88.8473 129.026 88.7661 129.051L88.3911 129.168C88.2745 129.204 88.1566 129.242 88.0396 129.285L87.8521 129.355L87.6646 129.422C87.3709 129.529 87.082 129.473 86.8442 129.316L86.6567 129.191L86.5317 129.105L86.4224 129.168L86.2349 129.273C86.033 129.383 85.8057 129.436 85.5669 129.41L85.1919 129.371C85.0684 129.358 84.9443 129.344 84.8208 129.332L84.6333 129.312L84.4458 129.297C84.2957 129.282 84.1448 129.256 83.9966 129.219L83.6216 129.125C83.5874 129.117 83.5546 129.117 83.5161 129.129L83.3286 129.188L83.1411 129.242C82.9592 129.299 82.7724 129.323 82.5825 129.309L82.395 129.293L82.2075 129.281C82.062 129.27 81.9145 129.248 81.77 129.219L81.5825 129.184L81.395 129.145C81.3171 129.129 81.2403 129.126 81.1646 129.133L80.9771 129.148L80.7896 129.168C80.6711 129.179 80.5526 129.192 80.4341 129.207L80.0591 129.254C79.9744 129.265 79.8846 129.286 79.7935 129.32L79.4185 129.461C79.1049 129.578 78.8047 129.496 78.5708 129.32L78.1958 129.039L78.0474 129.074L77.8599 129.121C77.757 129.146 77.6527 129.179 77.5474 129.219L77.1724 129.359C76.9041 129.462 76.6273 129.438 76.3833 129.309L76.1958 129.207L76.0669 129.137L75.9341 129.219L75.7466 129.324C75.4894 129.473 75.1917 129.5 74.9106 129.371L74.7231 129.285L74.5356 129.195C74.4675 129.164 74.4094 129.154 74.3599 129.152L73.9849 129.145C73.8801 129.142 73.7735 129.146 73.6685 129.156L73.481 129.172L73.2935 129.191C73.205 129.2 73.1128 129.217 73.02 129.246L72.645 129.363C72.449 129.425 72.2434 129.443 72.0396 129.41L71.6646 129.348C71.604 129.338 71.5438 129.341 71.481 129.355L71.106 129.441C70.8322 129.503 70.5707 129.438 70.3521 129.301L70.1646 129.184L70.0474 129.109L69.938 129.176L69.7505 129.289C69.5672 129.398 69.3632 129.469 69.145 129.48L68.9575 129.492L68.77 129.5C68.5937 129.509 68.4185 129.493 68.2466 129.449L68.0591 129.398L67.8716 129.352C67.7912 129.331 67.7133 129.325 67.6372 129.328L67.4497 129.332L67.2622 129.34C67.1439 129.344 67.025 129.35 66.9067 129.359L66.7192 129.375L66.5317 129.387C66.3043 129.404 66.0877 129.355 65.8911 129.254L65.5161 129.059C65.4839 129.042 65.4705 129.046 65.4653 129.047L65.0903 129.117C64.9661 129.141 64.8395 129.167 64.7153 129.191L64.5278 129.227L64.3403 129.266C64.1618 129.301 63.9813 129.303 63.8013 129.277L63.6138 129.254L63.4263 129.227C63.3239 129.212 63.2193 129.203 63.1177 129.203H62.7427C62.6221 129.203 62.4999 129.204 62.3794 129.207L62.0044 129.215C61.9428 129.216 61.875 129.233 61.8013 129.262L61.6138 129.332L61.4263 129.406C61.2118 129.49 60.9826 129.514 60.7544 129.461L60.5669 129.414L60.3794 129.371C60.2798 129.348 60.1803 129.335 60.0825 129.328L59.895 129.312L59.7075 129.301C59.5453 129.289 59.3849 129.258 59.2271 129.211L59.0396 129.152L58.8521 129.098C58.7811 129.076 58.7126 129.066 58.6489 129.07L58.2739 129.094C58.1891 129.099 58.1017 129.114 58.0122 129.141L57.8247 129.199L57.6372 129.254C57.3997 129.325 57.1564 129.31 56.9302 129.219L56.6021 129.082L56.4419 129.184L56.2544 129.297C56.0645 129.412 55.8489 129.481 55.6177 129.48H55.2427C55.0902 129.48 54.937 129.467 54.7856 129.441L54.4106 129.379C54.2701 129.355 54.1284 129.326 53.9888 129.289L53.6138 129.188C53.5394 129.168 53.4681 129.16 53.3989 129.164L53.0239 129.188C52.8976 129.195 52.7713 129.201 52.645 129.207L52.4575 129.219L52.27 129.227C52.1941 129.23 52.1148 129.245 52.0317 129.273L51.8442 129.336L51.6567 129.402C51.494 129.458 51.3259 129.491 51.1567 129.504L50.9692 129.516L50.7817 129.531C50.6159 129.544 50.45 129.536 50.2856 129.508L50.0981 129.473L49.9106 129.441C49.7266 129.409 49.55 129.344 49.3833 129.254L49.1958 129.152L49.0474 129.07L48.9067 129.145L48.7192 129.238C48.4627 129.367 48.1803 129.378 47.9146 129.258L47.7271 129.176L47.5396 129.09L47.5161 129.082H47.5083L47.1333 129.191C46.9573 129.242 46.7765 129.263 46.5942 129.254L46.4067 129.246L46.2192 129.234C46.1024 129.228 45.9844 129.227 45.8677 129.227H45.6802L45.4927 129.223C45.4262 129.223 45.3568 129.236 45.2817 129.262L44.9067 129.387C44.656 129.472 44.3961 129.455 44.1606 129.348L43.7856 129.176C43.708 129.141 43.6382 129.123 43.5747 129.117L43.3872 129.098L43.1997 129.082C43.139 129.076 43.0755 129.082 43.0083 129.102L42.8208 129.156L42.6333 129.207C42.4049 129.273 42.1713 129.264 41.9497 129.184L41.7622 129.117L41.6177 129.066L41.4575 129.176L41.27 129.301C41.0663 129.436 40.8232 129.516 40.5591 129.484L40.3716 129.461L40.1841 129.441C39.9786 129.417 39.7857 129.34 39.6099 129.234L39.2349 129.008C39.1783 128.974 39.1445 128.972 39.1294 128.973L38.7544 128.98C38.7102 128.982 38.657 128.995 38.5903 129.027L38.4028 129.117L38.2153 129.211C38.0323 129.301 37.8354 129.352 37.6294 129.355L37.2544 129.363C37.0456 129.367 36.8433 129.318 36.6567 129.23L36.4692 129.141L36.2935 129.055L36.1216 129.129L35.9341 129.203C35.7389 129.283 35.5294 129.319 35.3169 129.297L34.9419 129.258C34.8712 129.251 34.8004 129.254 34.7271 129.27L34.5396 129.309L34.3521 129.352C34.2202 129.38 34.0857 129.403 33.9536 129.426L33.7661 129.461L33.5786 129.492C33.418 129.52 33.2563 129.528 33.0942 129.52L32.9067 129.512L32.7192 129.5C32.5907 129.493 32.461 129.486 32.3325 129.477L32.145 129.461L31.9575 129.449C31.8434 129.441 31.7278 129.435 31.6138 129.434H31.4263L31.2388 129.43C31.1336 129.429 31.0278 129.434 30.9224 129.445L30.5474 129.484C30.374 129.503 30.1997 129.496 30.0278 129.465L29.8403 129.43L29.6528 129.398C29.5058 129.371 29.3601 129.333 29.2153 129.285L28.8403 129.16C28.7531 129.132 28.6677 129.115 28.5864 129.109L28.2114 129.086C28.1913 129.085 28.1594 129.089 28.106 129.117L27.9185 129.215L27.731 129.316C27.5449 129.416 27.3406 129.474 27.1255 129.477H26.938L26.7505 129.48C26.5914 129.482 26.4312 129.468 26.2739 129.438L26.0864 129.402L25.8989 129.363C25.7637 129.337 25.6275 129.308 25.4927 129.273L25.3052 129.223L25.1177 129.176C25.0127 129.149 24.9087 129.127 24.8052 129.113L24.6177 129.09L24.4302 129.062C24.3871 129.057 24.3403 129.063 24.2856 129.082L24.0981 129.145L23.9106 129.211C23.687 129.29 23.4514 129.296 23.2231 129.227L23.0356 129.172L22.8481 129.113C22.8211 129.105 22.7986 129.108 22.77 129.117L22.395 129.234C22.2021 129.296 22.0027 129.313 21.8013 129.285L21.6138 129.262L21.4263 129.234C21.304 129.217 21.1813 129.203 21.0591 129.188L20.6841 129.141C20.605 129.131 20.5254 129.133 20.4458 129.145L20.0708 129.199C19.9157 129.223 19.7581 129.232 19.6021 129.227L19.4146 129.219L19.2271 129.215C19.1822 129.213 19.1299 129.219 19.0669 129.246L18.8794 129.328L18.6919 129.406C18.4243 129.521 18.1432 129.505 17.8911 129.375L17.5161 129.18C17.4578 129.149 17.4157 129.144 17.3872 129.145L17.0122 129.16C16.9186 129.163 16.8236 129.174 16.7271 129.195L16.5356 129.238L16.3481 129.277C16.1957 129.311 16.0421 129.332 15.8872 129.34L15.6958 129.348L15.5083 129.359C15.3412 129.367 15.1723 129.353 15.0083 129.32L14.8247 129.285L14.6372 129.246C14.4776 129.215 14.3225 129.167 14.1724 129.102L13.9927 129.023L13.8169 128.949C13.6992 128.898 13.5806 128.846 13.4653 128.797L13.2935 128.723L13.1177 128.648C13.0144 128.604 12.9122 128.562 12.8091 128.527L12.4575 128.41C12.3864 128.386 12.3096 128.371 12.2271 128.367L12.0356 128.359L11.8442 128.348C11.7128 128.341 11.5793 128.334 11.4458 128.324L11.2505 128.309L11.0552 128.297C10.8339 128.281 10.626 128.205 10.4458 128.074L10.1333 127.848C10.0345 127.776 9.93496 127.706 9.83643 127.641L9.52393 127.43C9.4316 127.368 9.3378 127.311 9.24268 127.258L8.91455 127.078C8.86451 127.05 8.80194 127.027 8.72314 127.016L8.52393 126.988L8.32471 126.957C8.09652 126.924 7.88377 126.829 7.71143 126.668L7.57471 126.539L7.43408 126.406C7.31472 126.295 7.20777 126.171 7.11377 126.035L7.00049 125.871L6.88721 125.711C6.83703 125.638 6.78401 125.579 6.72705 125.531L6.58252 125.414L6.44189 125.293C6.3817 125.243 6.31104 125.202 6.23096 125.164L5.87939 125C5.77156 124.95 5.65766 124.899 5.53955 124.852L5.35205 124.777L5.16064 124.699C4.90264 124.596 4.71367 124.401 4.61768 124.141L4.54736 123.949L4.47705 123.754C4.45163 123.685 4.41758 123.637 4.3833 123.602L4.25439 123.469L4.12158 123.332C4.01185 123.218 3.91381 123.094 3.82861 122.961L3.72705 122.801L3.62549 122.645C3.59372 122.595 3.55228 122.547 3.49268 122.504L3.33252 122.387L3.16846 122.27C2.91129 122.082 2.79976 121.804 2.80518 121.516L2.80908 121.289L2.81689 121.066C2.81757 121.032 2.81189 121.01 2.80908 121C2.80718 120.993 2.80605 120.99 2.80518 120.988L2.6958 120.836L2.59033 120.684C2.56864 120.653 2.52782 120.612 2.44971 120.566L2.25439 120.453L2.06299 120.344C1.81872 120.203 1.63695 119.971 1.59814 119.664L1.57471 119.465L1.54736 119.27C1.53466 119.168 1.51313 119.073 1.48486 118.984L1.43018 118.805L1.37158 118.625C1.32446 118.478 1.29059 118.326 1.27002 118.172L1.24268 117.984L1.21924 117.797C1.20245 117.671 1.18454 117.546 1.16846 117.422L1.14502 117.234L1.12158 117.051C1.11877 117.029 1.10892 116.999 1.07471 116.957L0.945801 116.797L0.812988 116.637C0.656487 116.445 0.57114 116.21 0.578613 115.953L0.58252 115.758L0.590332 115.566C0.592983 115.476 0.58349 115.389 0.566895 115.305L0.496582 114.938C0.461916 114.762 0.45502 114.584 0.477051 114.406L0.523926 114.031C0.536064 113.933 0.540445 113.835 0.535645 113.742L0.523926 113.559L0.516113 113.375C0.51501 113.354 0.506312 113.311 0.465332 113.246L0.344238 113.059L0.227051 112.871C0.0594049 112.607 0.0322375 112.296 0.180176 112.004L0.273926 111.816L0.359863 111.656L0.281738 111.5L0.195801 111.312C0.108 111.122 0.0638591 110.916 0.074707 110.703L0.0825195 110.516L0.0942383 110.328C0.102004 110.176 0.12092 110.025 0.152832 109.875L0.230957 109.5C0.247825 109.421 0.256305 109.342 0.250488 109.266L0.219238 108.891C0.206472 108.721 0.216975 108.551 0.250488 108.383L0.328613 108.008C0.355215 107.875 0.385475 107.742 0.418457 107.609L0.504395 107.266L0.500488 107.262L0.242676 106.887C0.103358 106.683 0.0227496 106.437 0.0551758 106.168L0.0786133 105.98L0.0981445 105.793C0.121647 105.6 0.185676 105.415 0.277832 105.242L0.379395 105.055L0.473145 104.875L0.410645 104.715L0.344238 104.527C0.28781 104.374 0.244826 104.217 0.219238 104.059L0.187988 103.871L0.160645 103.684C0.131886 103.506 0.131587 103.326 0.160645 103.148L0.191895 102.961L0.219238 102.773C0.229538 102.71 0.229113 102.647 0.215332 102.582L0.137207 102.207C0.0836775 101.954 0.130494 101.709 0.246582 101.492L0.344238 101.305L0.445801 101.117C0.479578 101.054 0.488433 101.007 0.48877 100.973L0.492676 100.785V100.598C0.493304 100.519 0.483104 100.438 0.461426 100.355L0.414551 100.168L0.36377 99.9805C0.326229 99.8368 0.297686 99.692 0.277832 99.5469L0.250488 99.3594L0.227051 99.1719C0.208881 99.0391 0.191635 98.9064 0.180176 98.7734L0.148926 98.3984C0.129277 98.1701 0.181228 97.9517 0.281738 97.7539L0.375488 97.5664L0.473145 97.3789C0.500938 97.3243 0.505951 97.2868 0.504395 97.2617L0.48877 97.0742L0.477051 96.8867C0.475171 96.8575 0.464281 96.8094 0.422363 96.7422L0.309082 96.5547L0.191895 96.3672C0.072128 96.1749 -0.00467984 95.9569 0.000488281 95.7188L0.00439453 95.5312L0.012207 95.3438C0.0164404 95.153 0.0571216 94.9661 0.129395 94.7891L0.203613 94.6016L0.281738 94.4141C0.31832 94.3242 0.343553 94.2386 0.355957 94.1562L0.410645 93.7812C0.420632 93.7146 0.420652 93.6464 0.406738 93.5781L0.328613 93.2031C0.309074 93.1075 0.281178 93.0097 0.242676 92.9102L0.0942383 92.5352C-0.0131185 92.2575 0.0239096 91.9745 0.164551 91.7305L0.383301 91.3555C0.413837 91.3027 0.411415 91.2736 0.410645 91.2617L0.387207 90.8867C0.383055 90.8231 0.369462 90.7529 0.336426 90.6758L0.172363 90.3008C0.0451444 90.0029 0.097423 89.7008 0.262207 89.4531L0.387207 89.2656L0.45752 89.1641L0.391113 89.0664L0.266113 88.8789C0.110838 88.6413 0.0555504 88.3509 0.160645 88.0586L0.293457 87.6836V87.6797L0.129395 87.3047C0.0164005 87.0474 0.0201371 86.7733 0.137207 86.5195L0.309082 86.1445C0.327553 86.1044 0.32748 86.0824 0.324707 86.0664L0.289551 85.8789L0.258301 85.6914C0.220455 85.4767 0.240163 85.2615 0.312988 85.0586L0.379395 84.8711L0.445801 84.7031L0.348145 84.5234L0.250488 84.3359C0.154269 84.1523 0.0924537 83.9524 0.0864258 83.7422L0.0786133 83.3672C0.0718907 83.1208 0.150119 82.8961 0.277832 82.7031L0.527832 82.3281C0.565036 82.272 0.56681 82.243 0.566895 82.2344V82.0469L0.562988 81.8594C0.562472 81.7938 0.55063 81.7238 0.523926 81.6484L0.391113 81.2734C0.342121 81.1357 0.29893 80.9942 0.262207 80.8555L0.215332 80.668L0.164551 80.4805C0.112387 80.2825 0.103694 80.0799 0.14502 79.8789L0.223145 79.5039C0.249594 79.3757 0.280031 79.2453 0.309082 79.1172L0.348145 78.9297L0.391113 78.7422C0.395736 78.721 0.397208 78.6993 0.383301 78.6641L0.234863 78.2891C0.133572 78.0336 0.145002 77.7654 0.258301 77.5195L0.344238 77.332L0.406738 77.1992L0.312988 77.0547L0.199707 76.8672C0.0325569 76.596 0.0159543 76.2807 0.172363 75.9922L0.273926 75.8047L0.352051 75.6602L0.277832 75.5234L0.180176 75.3359C0.056864 75.0986 0.0274871 74.83 0.117676 74.5664L0.180176 74.3789L0.246582 74.1914C0.272296 74.1158 0.281592 74.0434 0.281738 73.9766V73.6016C0.281793 73.5171 0.274771 73.4312 0.254395 73.3438L0.20752 73.1562L0.164551 72.9688C0.128966 72.8165 0.107037 72.6622 0.0981445 72.5078L0.0864258 72.3203L0.0786133 72.1328C0.0664694 71.9215 0.107356 71.718 0.191895 71.5273L0.355957 71.1523C0.380553 71.0969 0.386129 71.0535 0.383301 71.0195L0.352051 70.6445C0.342295 70.5274 0.331616 70.4101 0.316895 70.293L0.27002 69.918C0.248341 69.7456 0.250265 69.5701 0.277832 69.3984L0.309082 69.2109L0.336426 69.0234C0.346734 68.9583 0.345669 68.8945 0.33252 68.8281L0.297363 68.6406L0.258301 68.4531C0.231664 68.3195 0.210911 68.1846 0.191895 68.0508L0.137207 67.6758C0.101341 67.423 0.164306 67.1839 0.285645 66.9766L0.504395 66.6016C0.512197 66.5881 0.515442 66.5805 0.516113 66.5781L0.473145 66.3984L0.430176 66.2109C0.402248 66.085 0.374775 65.958 0.348145 65.832L0.27002 65.457C0.225367 65.2452 0.239754 65.0331 0.305176 64.8281L0.36377 64.6406L0.422363 64.457L0.418457 64.4531L0.230957 64.0781C0.144558 63.9045 0.0892396 63.7196 0.0708008 63.5273L0.0512695 63.3398L0.0356445 63.1523C0.0172849 62.9603 0.0386427 62.7704 0.0942383 62.5859L0.203613 62.2109C0.212686 62.1809 0.212923 62.1554 0.203613 62.125L0.148926 61.9375L0.090332 61.75C0.00968251 61.4857 0.0477009 61.2233 0.172363 60.9922L0.273926 60.8047L0.352051 60.6602L0.277832 60.5195L0.180176 60.332C0.0608004 60.0998 0.0280023 59.8382 0.109863 59.5781L0.168457 59.3906L0.230957 59.2031C0.272395 59.0716 0.315874 58.9398 0.36377 58.8086L0.434082 58.6211L0.500488 58.4336C0.513942 58.3967 0.514341 58.3702 0.508301 58.3438L0.422363 57.9688C0.390326 57.8314 0.361422 57.6926 0.340332 57.5547L0.285645 57.1797C0.262458 57.028 0.248675 56.8752 0.250488 56.7227L0.254395 56.5352V56.3477C0.256285 56.1923 0.275276 56.0365 0.305176 55.8828L0.375488 55.5078C0.395597 55.4043 0.412113 55.3017 0.418457 55.1992L0.42627 55.0117L0.437988 54.8242C0.444688 54.7156 0.44591 54.6047 0.441895 54.4961L0.437988 54.3086L0.430176 54.1211C0.425784 54.003 0.419484 53.8838 0.410645 53.7656L0.39502 53.5781L0.383301 53.3906C0.374538 53.2737 0.362381 53.1561 0.348145 53.0391L0.30127 52.6641C0.278683 52.4776 0.291332 52.2917 0.336426 52.1094L0.430176 51.7344C0.452372 51.6445 0.46368 51.5553 0.465332 51.4688L0.473145 51.0938C0.475246 50.9821 0.4719 50.8695 0.465332 50.7578L0.441895 50.3828C0.439287 50.3409 0.428032 50.287 0.391113 50.2188L0.289551 50.0312L0.184082 49.8438C0.0532081 49.6028 0.0232131 49.328 0.121582 49.0586L0.262207 48.6836C0.274689 48.6496 0.272175 48.6257 0.266113 48.6016L0.172363 48.2266C0.112164 47.9873 0.138176 47.7476 0.234863 47.5273L0.398926 47.1523C0.432 47.0768 0.44996 47.01 0.453613 46.9492L0.461426 46.7617L0.473145 46.5742C0.481296 46.4387 0.495043 46.3033 0.512207 46.168L0.559082 45.793C0.564891 45.7473 0.562725 45.697 0.543457 45.6406L0.477051 45.4531L0.414551 45.2656C0.362369 45.1127 0.323512 44.9578 0.30127 44.8008L0.277832 44.6133L0.250488 44.4258C0.235766 44.3214 0.212154 44.2152 0.184082 44.1094L0.133301 43.9219L0.0864258 43.7344C0.01656 43.4716 0.0601157 43.2133 0.184082 42.9883L0.289551 42.8008L0.391113 42.6133L0.340332 42.4375L0.281738 42.25C0.220522 42.0505 0.204377 41.843 0.242676 41.6367L0.312988 41.2617C0.328815 41.176 0.337099 41.0917 0.33252 41.0078L0.309082 40.6328C0.305397 40.5663 0.289728 40.4923 0.258301 40.4141L0.109863 40.0391C-0.00666981 39.7479 0.0397424 39.4551 0.195801 39.2109L0.437988 38.8359C0.444565 38.8257 0.447945 38.8166 0.449707 38.8125L0.414551 38.6406L0.375488 38.4531C0.349936 38.3269 0.325719 38.2005 0.30127 38.0742L0.262207 37.8867L0.227051 37.6992C0.20361 37.5782 0.17925 37.457 0.152832 37.3359L0.11377 37.1484L0.0708008 36.9609C0.0195559 36.726 0.0472283 36.4921 0.141113 36.2773L0.305176 35.9023C0.333826 35.8365 0.344716 35.7823 0.344238 35.7344V35.5469L0.340332 35.3594C0.338541 35.1805 0.365548 35.004 0.418457 34.832L0.535645 34.457C0.555741 34.3915 0.560114 34.3312 0.555176 34.2734L0.523926 33.8984C0.513083 33.7739 0.49997 33.648 0.48877 33.5234L0.45752 33.1484C0.452226 33.0904 0.432036 33.0252 0.39502 32.9492L0.215332 32.5742C0.121421 32.3816 0.0708828 32.1719 0.0825195 31.9531L0.090332 31.7656L0.102051 31.5781C0.111909 31.3943 0.153971 31.215 0.223145 31.043L0.297363 30.8555L0.375488 30.668V30.6523L0.234863 30.2773C0.166083 30.0918 0.133104 29.8976 0.14502 29.6992L0.168457 29.3242C0.178444 29.1581 0.208976 28.9932 0.258301 28.832L0.375488 28.457C0.390323 28.4079 0.391372 28.363 0.383301 28.3203L0.312988 27.9453C0.271683 27.7251 0.292714 27.507 0.371582 27.3008L0.445801 27.1133L0.516113 26.9258C0.541262 26.8601 0.549604 26.802 0.547363 26.75L0.531738 26.375C0.531012 26.3614 0.524238 26.3246 0.480957 26.2617L0.223145 25.8867C0.138129 25.7629 0.0733133 25.6091 0.0668945 25.4336C0.0607949 25.2574 0.115365 25.0999 0.195801 24.9688L0.309082 24.7812L0.42627 24.5938L0.375488 24.4336L0.320801 24.2461C0.284739 24.1239 0.249379 24.0012 0.211426 23.8789L0.0942383 23.5039C0.0417875 23.335 0.0143256 23.1599 0.012207 22.9844L0.00830078 22.7969V22.6094C0.00629412 22.4351 0.0270103 22.2626 0.074707 22.0938L0.184082 21.7188C0.206609 21.6392 0.216207 21.5624 0.215332 21.4883L0.20752 21.1133C0.205413 20.9651 0.216137 20.8155 0.234863 20.668L0.281738 20.293C0.294477 20.193 0.299518 20.0916 0.297363 19.9922L0.289551 19.6172C0.285613 19.442 0.309022 19.2676 0.355957 19.0977L0.45752 18.7227C0.465495 18.6939 0.468257 18.6657 0.45752 18.6328L0.33252 18.2578C0.278533 18.0921 0.245718 17.9225 0.23877 17.75L0.230957 17.5625L0.227051 17.375C0.222416 17.259 0.214546 17.1404 0.203613 17.0234L0.184082 16.8359L0.168457 16.6484C0.149785 16.4487 0.172692 16.2511 0.23877 16.0625L0.305176 15.875L0.371582 15.6914C0.399567 15.6115 0.410999 15.5345 0.414551 15.4609L0.42627 15.2734L0.434082 15.0898C0.443206 14.9008 0.489314 14.7156 0.566895 14.543L0.64502 14.3672L0.715332 14.207L0.711426 14.1992L0.629395 13.9961L0.547363 13.7891C0.441173 13.5251 0.443744 13.2299 0.605957 12.9648L0.70752 12.7969L0.812988 12.6289C0.877785 12.523 0.940043 12.4164 0.996582 12.3125L1.17627 11.9766C1.19159 11.9481 1.2015 11.9146 1.19971 11.8672L1.18408 11.4688C1.1744 11.209 1.26206 10.9696 1.43408 10.7734L1.56299 10.6211L1.68018 10.4922L1.65674 10.2734L1.6333 10.0586C1.60768 9.82335 1.64767 9.5862 1.77393 9.37109L1.86768 9.20703L1.96533 9.04297C2.02976 8.93321 2.09241 8.8202 2.15674 8.71094L2.25439 8.55078L2.35205 8.38672C2.45998 8.20341 2.60865 8.05413 2.78564 7.94141L2.96143 7.83203L3.12549 7.71875L3.16064 7.53516L3.19971 7.33203L3.27002 7.10938C3.36727 6.90558 3.53994 6.758 3.75439 6.67578L3.96143 6.59766L4.16455 6.51953C4.16927 6.51773 4.17314 6.51318 4.17627 6.51172L4.2583 6.34766L4.34033 6.17188C4.40733 6.02889 4.48708 5.89286 4.57861 5.76562L4.79736 5.46094C4.90616 5.30971 5.0406 5.18117 5.1958 5.07812L5.35596 4.97266L5.51221 4.86719C5.56256 4.83381 5.60522 4.79142 5.64111 4.73828L5.85986 4.41797C5.9497 4.28519 6.05096 4.16236 6.16455 4.05078L6.43799 3.78516C6.52966 3.69524 6.62152 3.60481 6.71533 3.51562L6.85205 3.38281L6.99268 3.25C7.12703 3.1225 7.27997 3.01962 7.44971 2.94531L7.62549 2.87109L7.80518 2.79297C7.90037 2.75123 7.98929 2.70156 8.07471 2.64844L8.23486 2.55078L8.39502 2.44922C8.48518 2.39313 8.57481 2.33338 8.66064 2.26562L8.81299 2.14453L8.96143 2.02734C9.10385 1.9148 9.26339 1.82694 9.43408 1.76562L9.61377 1.69922L9.79346 1.63672C9.96346 1.57581 10.1429 1.54234 10.3247 1.53516L10.7231 1.51953C10.729 1.5193 10.7331 1.51602 10.7349 1.51562C10.7351 1.51553 10.7446 1.51299 10.7544 1.50391L10.9028 1.36719L11.0513 1.22656C11.1964 1.09222 11.3645 0.988765 11.5513 0.921875L11.731 0.859375L11.9067 0.792969C12.0277 0.749641 12.152 0.706219 12.2739 0.664062L12.4536 0.601562L12.6333 0.542969C12.8501 0.468028 13.0755 0.461612 13.2935 0.511719L13.4927 0.558594L13.6958 0.605469C13.8104 0.631818 13.9218 0.64735 14.0239 0.65625L14.2114 0.671875L14.4028 0.691406C14.4332 0.694055 14.4632 0.686968 14.5005 0.667969L14.8521 0.488281C15.0656 0.379382 15.3012 0.345124 15.5396 0.390625L15.731 0.425781L15.9106 0.460938C15.9133 0.460067 15.9209 0.457374 15.9341 0.449219L16.1216 0.335938L16.3052 0.21875C16.3713 0.177603 16.4681 0.123549 16.5708 0.09375C16.6132 0.0814992 16.7392 0.0466592 16.8872 0.0898438C16.9736 0.115295 17.0705 0.167755 17.145 0.257812C17.148 0.261449 17.15 0.265874 17.1528 0.269531H17.1685L17.356 0.273438C17.5001 0.275023 17.6458 0.282487 17.7896 0.300781L17.9771 0.324219L18.1646 0.351562C18.2263 0.359441 18.29 0.352494 18.356 0.335938L18.731 0.242188C18.9144 0.196264 19.1019 0.183449 19.2896 0.207031L19.4771 0.230469L19.6646 0.257812C19.7635 0.270239 19.8631 0.272763 19.9614 0.269531L20.1489 0.261719L20.3364 0.257812C20.526 0.251684 20.712 0.28105 20.8911 0.34375L21.2661 0.476562C21.3304 0.499156 21.3889 0.507594 21.4419 0.503906L21.6294 0.488281L21.8169 0.476562C21.9715 0.465711 22.1274 0.467773 22.2817 0.484375L22.6567 0.523438C22.7039 0.528374 22.7545 0.524278 22.813 0.503906L23.0005 0.441406L23.188 0.375C23.4154 0.295802 23.6536 0.292349 23.8833 0.367188L24.0708 0.429688L24.2583 0.488281C24.2983 0.501173 24.3302 0.503607 24.3638 0.496094L24.7388 0.410156C24.9213 0.368169 25.108 0.357636 25.2935 0.382812L25.481 0.410156L25.6685 0.433594C25.6719 0.434067 25.6912 0.438424 25.7349 0.414062L25.9224 0.308594L26.1099 0.207031C26.3214 0.0891058 26.5607 0.0338463 26.813 0.078125L27.0005 0.109375L27.188 0.144531C27.3141 0.166782 27.4408 0.191356 27.5669 0.214844L27.7544 0.246094L27.9419 0.28125C27.978 0.28797 28.017 0.289123 28.063 0.273438L28.438 0.140625L28.6528 0.0976562C28.7937 0.0846101 28.931 0.103385 29.0591 0.152344L29.2466 0.246094L29.6216 0.488281C29.6444 0.502642 29.659 0.506288 29.6646 0.507812H29.6685L29.856 0.488281L30.0435 0.464844C30.1551 0.451727 30.2674 0.435889 30.3794 0.414062L30.5669 0.375L30.7544 0.339844C30.8802 0.31528 31.0075 0.289138 31.1333 0.265625L31.5083 0.195312C31.7322 0.153474 31.9569 0.182501 32.1646 0.265625L32.5396 0.414062C32.6181 0.445346 32.6905 0.460188 32.7583 0.464844L32.9458 0.480469L33.1333 0.492188C33.229 0.498496 33.3263 0.494735 33.4224 0.484375L33.7974 0.445312C33.9693 0.426687 34.1424 0.430756 34.313 0.460938L34.5005 0.496094L34.6802 0.527344C34.6851 0.525101 34.6934 0.522293 34.7036 0.515625L34.8911 0.390625L35.0786 0.269531L35.27 0.167969C35.4044 0.116707 35.5488 0.0975893 35.6958 0.117188L35.9146 0.175781L36.2896 0.332031C36.3679 0.364093 36.442 0.378761 36.5083 0.382812L36.8833 0.40625C37.025 0.414934 37.168 0.430115 37.3091 0.453125L37.6841 0.515625L37.6919 0.511719C37.6972 0.510679 37.7126 0.508474 37.7349 0.496094L37.9224 0.390625L38.1099 0.289062C38.2841 0.192336 38.4706 0.124901 38.6685 0.101562L38.856 0.0820312L39.0435 0.0585938C39.2345 0.0360623 39.4246 0.0505817 39.6099 0.101562L39.7974 0.152344L39.9849 0.207031C40.0604 0.227759 40.1336 0.233905 40.2036 0.230469L40.3911 0.222656L40.5786 0.210938C40.7832 0.201069 40.981 0.242323 41.1685 0.320312L41.356 0.398438L41.4692 0.449219L41.6216 0.339844L41.8091 0.203125L42.0044 0.0898438C42.0768 0.0599895 42.1578 0.0394791 42.2427 0.03125C42.3281 0.0231266 42.4106 0.0299464 42.4888 0.046875L42.7114 0.128906L42.8989 0.226562L43.0591 0.3125L43.2114 0.246094L43.3989 0.164062C43.6173 0.0677028 43.8559 0.040637 44.0942 0.0976562L44.2817 0.140625L44.4692 0.1875C44.5956 0.217729 44.7218 0.24964 44.8481 0.28125L45.2231 0.375C45.2414 0.379547 45.2615 0.379963 45.2935 0.367188L45.481 0.289062L45.6685 0.214844C45.8263 0.151933 45.9879 0.106569 46.1528 0.0820312L46.5278 0.0273438C46.8086 -0.014354 47.0639 0.0743137 47.27 0.222656L47.4575 0.359375L47.645 0.492188C47.7063 0.5362 47.7338 0.535142 47.7349 0.535156L48.1099 0.542969C48.2124 0.544415 48.3155 0.539581 48.4185 0.527344L48.7935 0.480469C48.8815 0.469964 48.9738 0.449844 49.0669 0.417969L49.2544 0.355469L49.4419 0.289062C49.6096 0.231802 49.7819 0.197859 49.9575 0.191406L50.145 0.183594L50.3325 0.179688C50.4894 0.174067 50.6493 0.182923 50.8052 0.207031L50.9927 0.234375L51.1802 0.265625C51.2503 0.276285 51.3204 0.274139 51.3911 0.261719L51.5786 0.230469L51.7661 0.195312C51.9899 0.156162 52.2122 0.185066 52.4185 0.269531L52.606 0.347656L52.7427 0.402344L53.0864 0.1875L53.2974 0.09375C53.3719 0.0704113 53.4513 0.0553387 53.5356 0.0546875C53.7052 0.0534044 53.8569 0.106209 53.9849 0.183594L54.3599 0.410156C54.3736 0.418489 54.3831 0.424401 54.3872 0.425781L54.5708 0.386719L54.7583 0.351562C54.9225 0.319859 55.0882 0.307229 55.2544 0.316406L55.6294 0.339844C55.7316 0.345505 55.8357 0.344288 55.938 0.335938L56.313 0.304688C56.4536 0.293264 56.5941 0.286802 56.7349 0.289062L57.1099 0.296875C57.2919 0.299811 57.4723 0.33364 57.645 0.394531L58.02 0.527344C58.0903 0.55187 58.1552 0.560075 58.2153 0.558594L58.5903 0.550781C58.6107 0.550184 58.6493 0.542851 58.7114 0.503906L59.0864 0.269531C59.2581 0.161835 59.4542 0.101224 59.6606 0.113281L59.8677 0.148438L60.2427 0.257812C60.2776 0.268004 60.3062 0.267308 60.3403 0.257812L60.5278 0.207031L60.7153 0.152344C60.9163 0.0957489 61.1237 0.0898333 61.3286 0.132812L61.7036 0.210938C61.7953 0.230284 61.8876 0.238338 61.9771 0.238281H62.3521C62.5178 0.238202 62.6819 0.261424 62.8442 0.300781L63.0317 0.34375L63.2192 0.390625C63.2851 0.406604 63.3484 0.410406 63.4106 0.402344L63.5981 0.375L63.7856 0.351562C63.9722 0.326968 64.1611 0.339315 64.3442 0.382812L64.5317 0.425781L64.6919 0.464844L64.6958 0.460938L65.0708 0.203125L65.2935 0.09375C65.375 0.0674159 65.4642 0.0511568 65.5591 0.0546875C65.6525 0.0582753 65.7388 0.0783966 65.8169 0.109375L66.0278 0.230469L66.2153 0.375L66.4028 0.515625C66.4156 0.525343 66.4274 0.531511 66.4341 0.535156L66.438 0.539062L66.6099 0.519531L66.7974 0.496094C66.9103 0.483644 67.0239 0.469978 67.1372 0.449219L67.5122 0.378906C67.6791 0.348367 67.8475 0.338383 68.0161 0.351562L68.3911 0.382812C68.4848 0.390127 68.5785 0.388819 68.6724 0.378906L69.0474 0.339844C69.1937 0.324228 69.342 0.316518 69.4888 0.320312L69.6763 0.324219L69.8638 0.332031C69.9565 0.334468 70.0511 0.327645 70.145 0.3125L70.52 0.25C70.7192 0.217601 70.9202 0.23022 71.1138 0.285156L71.3013 0.339844L71.4888 0.390625C71.5537 0.409043 71.6137 0.416231 71.6724 0.410156L71.8599 0.390625L72.0474 0.367188C72.1607 0.35506 72.2774 0.340568 72.3911 0.320312L72.5786 0.285156L72.7661 0.253906C72.9603 0.219538 73.1568 0.226427 73.3481 0.273438L73.5356 0.320312L73.7231 0.363281C73.8256 0.388406 73.9269 0.407258 74.0278 0.417969L74.4028 0.457031C74.4282 0.459704 74.4653 0.457477 74.5161 0.433594L74.7036 0.347656L74.8911 0.257812C75.117 0.152084 75.3659 0.125475 75.6138 0.195312L75.8013 0.246094L75.9888 0.300781C76.0112 0.306914 76.0302 0.307034 76.0591 0.296875L76.4341 0.164062C76.5923 0.107818 76.7544 0.0697249 76.9185 0.0507812L77.106 0.0273438L77.2935 0.0078125C77.5432 -0.0207993 77.7774 0.0432679 77.981 0.164062L78.1685 0.273438L78.3208 0.367188L78.4614 0.304688L78.6489 0.21875C78.845 0.130984 79.0556 0.0921944 79.2739 0.113281L79.4614 0.128906L79.6489 0.148438C79.8227 0.165483 79.9958 0.208889 80.1606 0.273438L80.3481 0.34375L80.481 0.398438L80.6411 0.292969L80.8286 0.171875L81.0474 0.0703125C81.1262 0.0455853 81.2107 0.0290958 81.3013 0.03125C81.392 0.0334696 81.4777 0.0498992 81.5552 0.078125L81.7661 0.191406L81.9536 0.324219L82.1411 0.453125L82.145 0.460938L82.4888 0.375C82.6852 0.329302 82.8853 0.328353 83.0825 0.371094L83.27 0.414062L83.4575 0.453125C83.5591 0.475222 83.6621 0.489332 83.7622 0.496094L83.9497 0.507812L84.1372 0.523438C84.1389 0.523405 84.1432 0.521212 84.1489 0.519531C84.1581 0.516664 84.1775 0.509418 84.2036 0.492188L84.3911 0.371094L84.5786 0.246094L84.7622 0.148438C84.8897 0.0972096 85.0267 0.074847 85.1685 0.0859375L85.3872 0.128906L85.7622 0.253906C85.8772 0.29255 85.9915 0.328809 86.106 0.359375L86.481 0.460938C86.5433 0.477543 86.6032 0.480519 86.6606 0.472656L87.0356 0.417969C87.2102 0.394224 87.3852 0.400413 87.5591 0.429688L87.7466 0.460938L87.9224 0.492188C87.9263 0.490689 87.9353 0.485965 87.9497 0.476562L88.3247 0.226562C88.522 0.0958509 88.7545 0.0149459 89.0083 0.03125L89.1958 0.046875L89.3833 0.0585938C89.5333 0.0684767 89.6841 0.0889209 89.8325 0.121094L90.02 0.160156L90.2075 0.203125C90.2551 0.213435 90.3022 0.212219 90.3521 0.199219L90.5396 0.148438L90.7271 0.101562C90.9211 0.0511029 91.1194 0.0415794 91.3169 0.078125L91.6919 0.148438C91.8225 0.172788 91.956 0.20156 92.0864 0.230469L92.2739 0.269531L92.4614 0.3125C92.4974 0.320288 92.5322 0.318272 92.5747 0.304688L92.9497 0.1875C93.1615 0.119786 93.3814 0.109534 93.5981 0.164062L93.9731 0.257812C94.1112 0.292737 94.2501 0.336117 94.3872 0.382812L94.5747 0.445312L94.7622 0.511719C94.825 0.533104 94.8818 0.539432 94.9341 0.535156L95.1216 0.515625L95.3091 0.5C95.3993 0.492382 95.4924 0.476833 95.5864 0.449219L95.9614 0.339844C96.0913 0.301686 96.222 0.264334 96.3521 0.230469L96.5396 0.183594L96.7271 0.132812C96.9233 0.081868 97.1254 0.0742093 97.3247 0.113281L97.5122 0.152344L97.6997 0.1875C97.8191 0.21089 97.9398 0.234413 98.0591 0.253906L98.2466 0.28125L98.4341 0.3125C98.5446 0.330524 98.656 0.343233 98.7661 0.351562L99.1411 0.382812C99.1904 0.386349 99.2435 0.377929 99.3052 0.355469L99.4927 0.289062L99.6802 0.21875L99.8794 0.171875C100.079 0.144202 100.277 0.17956 100.458 0.273438L100.645 0.371094L100.793 0.449219L100.942 0.378906L101.129 0.285156C101.344 0.178971 101.581 0.13841 101.825 0.1875L102.012 0.226562L102.2 0.261719C102.322 0.286486 102.445 0.313568 102.567 0.335938L102.754 0.367188L102.942 0.402344C103.06 0.423976 103.18 0.444636 103.297 0.460938L103.485 0.484375L103.672 0.511719C103.738 0.520579 103.804 0.518652 103.872 0.503906L104.059 0.460938L104.247 0.421875C104.448 0.37809 104.652 0.381854 104.852 0.433594L105.04 0.484375L105.227 0.53125C105.299 0.550054 105.371 0.556295 105.438 0.550781L105.813 0.519531C105.893 0.512828 105.976 0.495011 106.063 0.464844L106.25 0.402344L106.438 0.335938C106.561 0.29323 106.683 0.247632 106.805 0.203125L106.993 0.136719L107.18 0.0664062L107.395 0.0195312C107.537 0.00414552 107.675 0.0220735 107.805 0.0703125L107.993 0.164062L108.368 0.398438L108.399 0.414062L108.586 0.386719L108.774 0.355469C108.854 0.342924 108.939 0.31986 109.028 0.28125L109.403 0.117188C109.587 0.0373133 109.783 -0.00322874 109.985 0H110.172L110.36 0.00390625C110.564 0.00720762 110.759 0.0610189 110.942 0.148438L111.129 0.234375L111.309 0.324219L111.485 0.257812L111.672 0.183594C111.939 0.0816658 112.213 0.107473 112.458 0.234375L112.833 0.429688C112.877 0.452812 112.901 0.450564 112.911 0.449219L113.094 0.421875L113.282 0.398438C113.365 0.387217 113.458 0.364926 113.555 0.328125L113.747 0.253906L113.942 0.179688C114.147 0.102306 114.366 0.0778736 114.586 0.117188L114.778 0.152344L114.965 0.183594C115.126 0.212468 115.283 0.257918 115.434 0.320312L115.614 0.394531L115.79 0.46875C115.846 0.491938 115.904 0.505032 115.965 0.503906L116.161 0.5L116.352 0.496094C116.638 0.490812 116.882 0.611302 117.067 0.800781L117.372 1.11328H117.75C117.894 1.11192 118.037 1.1148 118.18 1.125L118.375 1.14062L118.575 1.15234C118.746 1.16472 118.913 1.19893 119.075 1.25391L119.254 1.31641L119.438 1.37891C119.664 1.45646 119.847 1.60023 119.985 1.78516L120.11 1.95703L120.239 2.125L120.262 2.15234H120.266L120.454 2.19531L120.645 2.23828C120.79 2.27181 120.931 2.31721 121.071 2.36719L121.254 2.42969L121.434 2.49609C121.619 2.56239 121.787 2.66248 121.93 2.79688L122.071 2.92969L122.211 3.05859C122.259 3.10354 122.314 3.14135 122.379 3.16797L122.559 3.24219L122.743 3.31641C122.924 3.39045 123.085 3.49757 123.223 3.63672L123.36 3.77344L123.493 3.91016C123.588 4.00652 123.684 4.10251 123.774 4.20312L123.899 4.34766L124.028 4.48828C124.125 4.59712 124.217 4.71259 124.301 4.83203L124.411 4.98828L124.524 5.14453C124.603 5.25674 124.679 5.37135 124.75 5.48828L124.852 5.65234L124.95 5.81641L124.997 5.83984L125.403 5.98828C125.628 6.06934 125.803 6.22285 125.899 6.42969L125.969 6.65625L126.004 6.86328L126.043 7.07422C126.044 7.0791 126.043 7.08335 126.043 7.08594Z" fill="#010820"/>
</svg>
