<svg width="130" height="130" viewBox="0 0 130 130" fill="none" xmlns="http://www.w3.org/2000/svg">
<path d="M76.1104 129.146H76.1182L76.1025 129.142C76.1039 129.142 76.1063 129.145 76.1104 129.146ZM77.4893 128.501L77.501 128.505L77.4932 128.501L77.4893 128.497L77.6768 128.396L77.8643 128.29L78.0635 128.208C78.2012 128.169 78.3439 128.162 78.4854 128.192L78.6963 128.263L79.0713 128.442C79.1209 128.466 79.1538 128.468 79.1768 128.466L79.5518 128.427C79.6608 128.415 79.7703 128.398 79.8799 128.376L80.2549 128.298C80.4669 128.255 80.6796 128.27 80.8838 128.337L81.0713 128.396L81.2588 128.458C81.3136 128.476 81.3615 128.48 81.4072 128.474L81.7822 128.419C81.9222 128.399 82.0637 128.387 82.2041 128.38L82.3916 128.368L82.5791 128.36C82.7245 128.353 82.8713 128.357 83.0166 128.368L83.2041 128.38L83.3916 128.396C83.5043 128.404 83.6189 128.407 83.7314 128.407H84.1064C84.2171 128.407 84.3277 128.404 84.4385 128.396L84.8135 128.364C85.0027 128.349 85.1902 128.372 85.3721 128.427L85.5596 128.481L85.7275 128.532H85.7314L85.9189 128.423L86.1064 128.317L86.2939 128.231C86.4256 128.188 86.5642 128.176 86.7041 128.196L86.9111 128.251L87.0986 128.325L87.2861 128.396C87.3222 128.41 87.3458 128.412 87.3682 128.407L87.7432 128.321C87.9654 128.271 88.1879 128.287 88.3994 128.364L88.5869 128.435L88.7744 128.501C88.8331 128.522 88.8847 128.529 88.9307 128.524L89.1182 128.505L89.3057 128.489C89.4224 128.478 89.5404 128.463 89.6572 128.446L90.0322 128.392C90.1224 128.378 90.2147 128.355 90.3096 128.321L90.6846 128.188C90.8864 128.116 91.0999 128.093 91.3135 128.13L91.6885 128.192C91.8351 128.217 91.9813 128.253 92.126 128.298L92.501 128.415C92.5596 128.433 92.6143 128.437 92.665 128.431L92.8525 128.403L93.04 128.38C93.1147 128.37 93.1935 128.346 93.2783 128.31L93.6533 128.146C93.9451 128.019 94.2466 128.061 94.4971 128.22L94.6846 128.341L94.8721 128.458C94.897 128.474 94.9141 128.483 94.9229 128.485C94.9303 128.487 94.9368 128.485 94.9385 128.485L95.3135 128.454C95.3694 128.449 95.4343 128.432 95.5088 128.396L95.6963 128.302L95.8838 128.212L96.0752 128.138C96.2056 128.104 96.3401 128.101 96.4736 128.126L96.6729 128.185L97.0479 128.341C97.053 128.343 97.0569 128.344 97.0596 128.345H97.0752L97.2627 128.282L97.4502 128.224C97.6463 128.161 97.8509 128.141 98.0557 128.173L98.2432 128.204L98.4307 128.231C98.5656 128.253 98.7023 128.28 98.8369 128.31L99.0244 128.349L99.2119 128.392C99.3329 128.418 99.4543 128.442 99.5752 128.466L99.7627 128.505L99.9502 128.54C99.9938 128.548 100.037 128.547 100.087 128.532L100.274 128.478L100.462 128.419C100.633 128.368 100.808 128.342 100.985 128.345L101.36 128.353C101.503 128.355 101.648 128.363 101.79 128.38L102.165 128.427C102.175 128.428 102.199 128.427 102.243 128.403L102.618 128.2L102.81 128.122C102.94 128.083 103.075 128.073 103.212 128.095L103.415 128.149L103.79 128.298C103.827 128.313 103.85 128.314 103.872 128.31L104.06 128.267L104.247 128.228C104.426 128.188 104.608 128.178 104.79 128.2L105.165 128.247C105.27 128.26 105.377 128.27 105.481 128.271H105.856C106.048 128.272 106.237 128.313 106.415 128.384L106.79 128.532C106.841 128.552 106.881 128.556 106.915 128.552L107.103 128.524L107.29 128.501C107.442 128.481 107.594 128.472 107.747 128.478L108.122 128.493C108.133 128.494 108.164 128.492 108.22 128.458L108.595 128.231L108.806 128.134C108.882 128.111 108.965 128.101 109.052 128.103C109.137 128.104 109.219 128.12 109.294 128.146L109.501 128.247L109.688 128.368L109.81 128.45L109.923 128.388L110.11 128.282C110.336 128.156 110.595 128.109 110.86 128.181L111.235 128.282C111.351 128.314 111.468 128.344 111.583 128.368L111.771 128.407L111.946 128.442C111.95 128.441 111.957 128.438 111.97 128.431L112.157 128.317L112.345 128.208L112.56 128.11C112.707 128.067 112.86 128.064 113.009 128.103L113.228 128.192L113.415 128.298L113.606 128.407C113.66 128.437 113.691 128.439 113.708 128.438L113.899 128.427L114.087 128.415C114.177 128.409 114.268 128.393 114.356 128.368L114.54 128.317L114.724 128.263C114.907 128.211 115.097 128.198 115.286 128.216L115.481 128.231L115.677 128.251H115.692C115.695 128.25 115.698 128.244 115.704 128.239L116.04 128.005C116.224 127.875 116.435 127.797 116.665 127.786L116.856 127.778L117.048 127.767C117.163 127.761 117.28 127.753 117.396 127.739L117.778 127.692C117.823 127.687 117.863 127.67 117.903 127.642L118.063 127.528L118.224 127.419C118.352 127.329 118.487 127.251 118.626 127.185L118.794 127.103L118.966 127.021C119.058 126.976 119.146 126.925 119.231 126.868L119.388 126.763L119.548 126.661C119.719 126.548 119.909 126.478 120.11 126.45L120.306 126.423L120.505 126.396C120.519 126.394 120.527 126.388 120.528 126.388C120.53 126.387 120.535 126.385 120.54 126.38L120.806 126.091C120.89 125.999 120.972 125.906 121.052 125.813L121.302 125.517C121.426 125.371 121.576 125.253 121.747 125.165L122.083 124.993C122.204 124.931 122.329 124.872 122.458 124.817L122.638 124.739L122.817 124.665C122.883 124.637 122.936 124.599 122.981 124.556L123.118 124.427L123.255 124.294C123.348 124.205 123.442 124.116 123.536 124.028L123.673 123.903L123.813 123.774C123.899 123.695 123.982 123.612 124.063 123.528L124.192 123.396L124.325 123.259C124.38 123.202 124.426 123.137 124.466 123.063L124.56 122.896L124.649 122.728C124.75 122.541 124.893 122.388 125.067 122.271L125.231 122.161L125.396 122.048C125.444 122.015 125.478 121.982 125.501 121.942L125.595 121.774L125.688 121.61C125.744 121.514 125.794 121.415 125.841 121.313L125.923 121.138L126.001 120.966C126.045 120.87 126.082 120.771 126.114 120.669L126.173 120.485L126.231 120.306C126.286 120.133 126.37 119.971 126.478 119.825L126.587 119.673L126.7 119.521C126.76 119.439 126.814 119.355 126.86 119.267L126.946 119.099L127.036 118.931C127.051 118.901 127.061 118.864 127.06 118.81L127.052 118.403C127.047 118.195 127.087 117.991 127.181 117.802L127.345 117.466C127.402 117.351 127.463 117.237 127.524 117.122L127.614 116.954L127.704 116.782C127.77 116.657 127.843 116.534 127.923 116.411L128.032 116.243L128.142 116.071C128.157 116.048 128.158 116.032 128.157 116.013L128.134 115.622C128.128 115.532 128.111 115.44 128.083 115.345L128.024 115.149L127.966 114.95C127.901 114.733 127.896 114.505 127.966 114.282L128.021 114.103L128.079 113.923C128.13 113.761 128.2 113.602 128.29 113.45L128.399 113.267L128.501 113.091L128.45 112.935L128.388 112.743C128.323 112.545 128.303 112.338 128.337 112.13L128.399 111.755C128.411 111.684 128.411 111.615 128.399 111.544L128.337 111.169C128.319 111.059 128.292 110.947 128.263 110.837L128.216 110.649L128.165 110.462C128.119 110.285 128.1 110.105 128.114 109.923L128.146 109.548C128.153 109.451 128.154 109.352 128.146 109.255L128.126 109.067L128.11 108.88C128.097 108.729 128.092 108.578 128.103 108.427L128.114 108.239L128.13 108.052C128.135 107.973 128.127 107.894 128.11 107.813L128.032 107.438C127.976 107.168 128.042 106.912 128.177 106.696L128.294 106.509L128.384 106.36L128.325 106.231L128.239 106.044C128.117 105.777 128.128 105.493 128.259 105.235L128.446 104.86C128.456 104.841 128.461 104.829 128.462 104.825C128.462 104.823 128.463 104.818 128.462 104.813L128.419 104.626L128.38 104.438C128.34 104.248 128.338 104.055 128.376 103.864L128.415 103.677L128.45 103.489C128.451 103.485 128.456 103.473 128.438 103.438L128.341 103.251L128.247 103.063C128.1 102.773 128.129 102.46 128.294 102.196L128.411 102.009L128.478 101.896L128.411 101.786L128.298 101.599C128.143 101.345 128.108 101.046 128.235 100.759L128.317 100.571L128.403 100.384C128.41 100.368 128.411 100.358 128.411 100.356C128.411 100.355 128.409 100.351 128.407 100.345L128.306 99.9697C128.262 99.8139 128.235 99.6563 128.224 99.4971L128.208 99.3096L128.196 99.1221C128.186 98.9772 128.185 98.8295 128.192 98.6846L128.208 98.3096C128.212 98.2243 128.208 98.1387 128.192 98.0518L128.157 97.8643L128.126 97.6768C128.086 97.4601 128.106 97.2441 128.181 97.04L128.321 96.665C128.361 96.5572 128.393 96.4468 128.419 96.3408L128.466 96.1533L128.509 95.9658C128.517 95.933 128.517 95.9027 128.505 95.8643L128.446 95.6768L128.384 95.4893C128.328 95.3155 128.3 95.1357 128.302 94.9541L128.306 94.7666V94.5791C128.306 94.5157 128.296 94.4489 128.271 94.376L128.204 94.1885L128.142 94.001C128.043 93.7167 128.093 93.4331 128.239 93.1963L128.356 93.0088L128.423 92.8955L128.356 92.7861L128.239 92.5986C128.081 92.342 128.051 92.0395 128.185 91.751L128.356 91.376C128.372 91.342 128.37 91.3275 128.368 91.3174L128.29 90.9424C128.26 90.8024 128.236 90.6612 128.22 90.5205L128.173 90.1455C128.148 89.9319 128.18 89.7213 128.259 89.5244L128.407 89.1494C128.438 89.0727 128.455 89.0035 128.458 88.9385L128.466 88.751L128.478 88.5635C128.483 88.4441 128.487 88.3234 128.489 88.2041V88.0166L128.493 87.8291C128.495 87.7317 128.488 87.6305 128.474 87.5322L128.419 87.1572C128.407 87.0794 128.382 86.9981 128.345 86.9111L128.267 86.7236L128.185 86.5361C128.099 86.339 128.06 86.1248 128.083 85.9072L128.122 85.5322C128.13 85.4573 128.129 85.3824 128.114 85.3057L128.044 84.9307C127.999 84.6945 128.032 84.4625 128.13 84.251L128.22 84.0635L128.306 83.876C128.344 83.7938 128.363 83.7184 128.372 83.6494L128.419 83.2744C128.43 83.1848 128.435 83.0941 128.427 83.0049L128.407 82.8174L128.392 82.6299C128.384 82.5496 128.364 82.467 128.333 82.3799L128.2 82.0049C128.136 81.8238 128.107 81.6346 128.114 81.4424L128.13 81.0674C128.134 80.9704 128.126 80.872 128.114 80.7744L128.067 80.3994C128.04 80.1786 128.078 79.9625 128.165 79.7627L128.329 79.3877C128.352 79.335 128.356 79.2947 128.353 79.2627L128.313 78.8877C128.305 78.8098 128.288 78.7275 128.255 78.6416L128.181 78.4541L128.11 78.2666C128.025 78.0443 128.01 77.8072 128.075 77.5752L128.185 77.2002C128.219 77.0772 128.253 76.952 128.286 76.8291L128.388 76.4541C128.398 76.4141 128.398 76.3766 128.388 76.3369L128.286 75.9619C128.234 75.7652 128.231 75.5641 128.271 75.3643L128.306 75.1768L128.345 74.9893C128.358 74.9242 128.36 74.8581 128.349 74.7939L128.313 74.6064L128.282 74.4189C128.262 74.3022 128.242 74.1843 128.216 74.0674L128.13 73.6924C128.094 73.5304 128.08 73.3649 128.083 73.2002L128.091 72.8252C128.095 72.6226 128.145 72.4288 128.231 72.2471L128.317 72.0596L128.384 71.915L128.302 71.7666L128.2 71.5791C128.125 71.4435 128.078 71.2837 128.091 71.1104C128.104 70.9399 128.17 70.7927 128.255 70.6729L128.388 70.4854L128.462 70.376L128.407 70.2822L128.294 70.0947C128.217 69.967 128.164 69.8146 128.165 69.6455C128.166 69.4769 128.22 69.3269 128.298 69.2002L128.411 69.0127L128.505 68.8564L128.45 68.7197L128.368 68.5322C128.29 68.3489 128.252 68.1542 128.255 67.9541V67.7666L128.259 67.5791C128.261 67.4559 128.262 67.3312 128.263 67.208V67.0205L128.267 66.833C128.267 66.7228 128.26 66.6113 128.251 66.501L128.22 66.126C128.207 65.9685 128.209 65.8105 128.228 65.6533L128.274 65.2783C128.287 65.1719 128.29 65.0641 128.29 64.958L128.294 64.7705V64.583C128.294 64.437 128.302 64.2909 128.321 64.1455L128.349 63.958L128.372 63.7705C128.374 63.7552 128.375 63.7297 128.353 63.6846L128.165 63.3096C128.095 63.17 128.059 63.0105 128.079 62.8408C128.099 62.6741 128.169 62.5311 128.255 62.415L128.392 62.2275L128.442 62.1533L128.388 62.0791L128.243 61.8916C128.081 61.6808 127.982 61.4099 128.044 61.1104L128.122 60.7354C128.148 60.6135 128.173 60.4899 128.196 60.3682L128.267 59.9932C128.275 59.9498 128.274 59.9062 128.259 59.8564L128.204 59.6689L128.146 59.4814C128.097 59.3227 128.068 59.1603 128.056 58.9971L128.04 58.8096L128.028 58.6221C128.01 58.376 128.079 58.1487 128.2 57.9502L128.313 57.7627L128.399 57.6221L128.337 57.4932L128.247 57.3057C128.127 57.0586 128.112 56.7851 128.216 56.5244L128.364 56.1494C128.386 56.096 128.392 56.0534 128.388 56.0166L128.364 55.8291L128.345 55.6416C128.335 55.5571 128.314 55.47 128.282 55.3799L128.149 55.0049C128.07 54.7815 128.061 54.5457 128.13 54.3174L128.188 54.1299L128.243 53.9424C128.261 53.8837 128.266 53.8295 128.259 53.7783L128.235 53.5908L128.208 53.4033C128.178 53.1853 128.208 52.9707 128.29 52.7705L128.446 52.3955C128.468 52.3417 128.47 52.2994 128.466 52.2627L128.427 51.8877C128.42 51.8201 128.404 51.7457 128.368 51.665L128.282 51.4775L128.2 51.29C128.087 51.0363 128.084 50.7634 128.196 50.5088L128.36 50.1338C128.386 50.0757 128.394 50.031 128.392 49.9932L128.368 49.6182C128.358 49.4526 128.366 49.2859 128.396 49.1221L128.466 48.7471C128.473 48.7074 128.47 48.6666 128.454 48.6182L128.329 48.2432C128.263 48.0423 128.245 47.8318 128.282 47.6221L128.353 47.2471C128.357 47.2201 128.354 47.1885 128.337 47.1455L128.188 46.7705C128.111 46.5777 128.075 46.3742 128.095 46.165L128.114 45.9775L128.13 45.79C128.144 45.634 128.177 45.4783 128.22 45.3252L128.271 45.1377L128.325 44.9502C128.332 44.9244 128.331 44.9021 128.321 44.8721L128.196 44.4971C128.111 44.2441 128.129 43.9825 128.239 43.7471L128.329 43.5596L128.415 43.3721C128.436 43.3276 128.437 43.3017 128.435 43.2822L128.38 42.9072C128.366 42.8096 128.344 42.7106 128.313 42.6104L128.196 42.2354C128.123 41.9988 128.138 41.7559 128.228 41.5283L128.302 41.3408L128.372 41.1533C128.383 41.1247 128.385 41.1078 128.38 41.0908L128.278 40.7158C128.228 40.5303 128.212 40.3404 128.235 40.1494L128.282 39.7744C128.294 39.6792 128.295 39.584 128.29 39.4893L128.282 39.3018L128.271 39.1143C128.259 38.9156 128.291 38.7216 128.36 38.5361L128.501 38.1611C128.503 38.1561 128.504 38.1514 128.505 38.1494V38.1416L128.501 38.1338L128.435 37.9463L128.364 37.7588C128.279 37.5251 128.277 37.279 128.36 37.0439L128.427 36.8564L128.481 36.6924L128.388 36.5166L128.282 36.3291C128.154 36.0976 128.114 35.8308 128.196 35.5635L128.255 35.376L128.31 35.1885C128.319 35.156 128.322 35.1297 128.313 35.0986L128.204 34.7236C128.146 34.5226 128.138 34.316 128.181 34.1104L128.216 33.9229L128.255 33.7354C128.286 33.5845 128.329 33.4338 128.384 33.2861L128.454 33.0986L128.509 32.9424L128.411 32.7744L128.302 32.5869C128.191 32.3956 128.125 32.1797 128.13 31.9502L128.138 31.5752C128.142 31.3609 128.202 31.1585 128.302 30.9736L128.403 30.7861L128.474 30.6494L128.403 30.5166L128.298 30.3291C128.192 30.138 128.133 29.9258 128.138 29.7002L128.146 29.3252C128.149 29.1905 128.154 29.0535 128.165 28.9189L128.196 28.5439C128.211 28.3693 128.25 28.198 128.313 28.0322L128.388 27.8447L128.442 27.6885L128.349 27.5205L128.239 27.333C128.123 27.1278 128.067 26.8928 128.099 26.6455L128.146 26.2705C128.16 26.1558 128.172 26.0413 128.181 25.9268L128.192 25.7393L128.208 25.5518C128.218 25.4142 128.231 25.2749 128.251 25.1377L128.282 24.9502L128.31 24.7627C128.329 24.6343 128.346 24.5044 128.368 24.376L128.399 24.1885L128.435 24.001C128.447 23.9275 128.445 23.8551 128.435 23.7822L128.407 23.5947L128.384 23.4072C128.363 23.2619 128.351 23.1157 128.349 22.9697L128.341 22.5947C128.338 22.4182 128.362 22.242 128.411 22.0713L128.521 21.6963C128.545 21.6117 128.558 21.5298 128.56 21.4502L128.567 21.0752C128.569 20.9854 128.561 20.8933 128.544 20.8018L128.474 20.4268C128.448 20.2882 128.425 20.1479 128.411 20.0088L128.396 19.8213L128.376 19.6338C128.365 19.5245 128.346 19.4155 128.325 19.3057L128.255 18.9307C128.226 18.7773 128.21 18.6207 128.208 18.4658V18.2783L128.204 18.0908C128.203 17.9885 128.196 17.8852 128.181 17.7822L128.126 17.4072C128.094 17.1855 128.127 16.9686 128.212 16.7666L128.294 16.5752L128.372 16.3877C128.388 16.349 128.387 16.3273 128.384 16.3096L128.349 16.1221L128.31 15.9346C128.277 15.7775 128.259 15.6179 128.259 15.458V15.0791C128.259 15.0042 128.246 14.9296 128.224 14.8564L128.169 14.6768L128.11 14.4932C128.084 14.4088 128.048 14.3254 128.001 14.2432L127.903 14.0713L127.806 13.9033C127.655 13.6421 127.652 13.3559 127.747 13.0986L127.825 12.8877L127.86 12.7822L127.79 12.7158L127.622 12.5713C127.42 12.39 127.291 12.1416 127.294 11.8486L127.298 11.6494L127.302 11.4541C127.303 11.3745 127.288 11.3002 127.267 11.2354L127.212 11.0596L127.153 10.8799C127.118 10.771 127.078 10.6623 127.036 10.5557L126.896 10.2041C126.887 10.1833 126.87 10.155 126.825 10.1221L126.657 10.001L126.489 9.87598C126.296 9.73337 126.153 9.53881 126.087 9.29785L126.036 9.11035L125.985 8.92676C125.954 8.81116 125.92 8.69516 125.884 8.5791L125.825 8.3916L125.767 8.20801L125.763 8.2002L125.759 8.19629C125.756 8.19433 125.753 8.19191 125.747 8.18848L125.575 8.0791L125.403 7.97363C125.145 7.8117 125.006 7.55469 124.978 7.27051L124.954 7.05176L124.935 6.83301C124.928 6.77282 124.912 6.75204 124.907 6.74707L124.782 6.60645L124.657 6.46191C124.633 6.43466 124.594 6.40708 124.532 6.38379L124.142 6.23535C123.969 6.17075 123.808 6.08459 123.665 5.97363L123.368 5.74707C123.24 5.64771 123.127 5.53295 123.024 5.40723L122.903 5.2627L122.786 5.11426C122.705 5.01484 122.621 4.91643 122.54 4.81348L122.306 4.50879C122.229 4.41136 122.152 4.31308 122.071 4.21582L121.946 4.06738L121.821 3.91504C121.777 3.86157 121.728 3.82083 121.673 3.79004L121.505 3.69629L121.337 3.60645C121.245 3.55525 121.15 3.50899 121.052 3.46973L120.876 3.39941L120.696 3.3252C120.59 3.2827 120.481 3.24613 120.372 3.21191L120.188 3.15332L120.009 3.09863C119.828 3.04194 119.661 2.95103 119.513 2.83301L119.36 2.71582L119.212 2.59473C119.168 2.56006 119.122 2.53676 119.071 2.52441L118.884 2.48145L118.7 2.43457C118.495 2.38558 118.312 2.28914 118.153 2.15332L117.997 2.02441L117.845 1.8916C117.789 1.84379 117.733 1.81318 117.677 1.79395L117.497 1.73145L117.313 1.66895C117.206 1.63238 117.096 1.59955 116.985 1.57129L116.618 1.47754C116.553 1.46077 116.48 1.45478 116.403 1.46191L116.208 1.48145L116.009 1.50098C115.791 1.52103 115.579 1.48299 115.38 1.3916L115.021 1.22754L115.013 1.23145L114.817 1.29785L114.618 1.36426C114.445 1.42187 114.267 1.45447 114.087 1.45801L113.712 1.46582C113.498 1.46975 113.294 1.41609 113.106 1.32129L112.919 1.22363L112.735 1.12988C112.658 1.09072 112.586 1.071 112.524 1.06348L112.337 1.04004L112.149 1.02051C112.065 1.0103 111.98 1.00652 111.896 1.0166L111.521 1.06348C111.472 1.06936 111.411 1.08707 111.337 1.12988L111.149 1.23926L110.962 1.34473C110.83 1.42073 110.672 1.46938 110.501 1.46191C110.332 1.45418 110.182 1.39487 110.06 1.31348L109.778 1.12598L109.685 1.19629L109.497 1.3252C109.27 1.48281 108.989 1.55539 108.692 1.46582L108.505 1.41113L108.317 1.35254C108.235 1.32757 108.156 1.31477 108.079 1.31348L107.892 1.30957H107.704C107.608 1.308 107.512 1.31411 107.415 1.3291L107.228 1.35645L107.04 1.3877C106.843 1.41827 106.645 1.40541 106.454 1.35254L106.267 1.29785L106.079 1.24707C105.968 1.21634 105.857 1.1895 105.747 1.16895L105.56 1.13379L105.372 1.10254C105.327 1.09424 105.282 1.09554 105.231 1.11035L104.856 1.21973C104.712 1.26269 104.565 1.29737 104.419 1.32129L104.044 1.38379C103.924 1.4034 103.801 1.42303 103.681 1.44629L103.493 1.48535L103.306 1.52051C103.057 1.56837 102.816 1.52031 102.603 1.40723L102.415 1.30957L102.228 1.20801C102.22 1.20412 102.214 1.2048 102.212 1.2041H102.22L102.224 1.2002L102.036 1.25488L101.849 1.30566C101.652 1.36074 101.448 1.37327 101.247 1.33691L101.06 1.30176L100.872 1.27051C100.777 1.25344 100.684 1.24248 100.591 1.24316L100.403 1.24707H100.216C100.049 1.24831 99.8828 1.22734 99.7197 1.18848L99.5322 1.14551L99.3604 1.10645L99.3564 1.11035L98.9814 1.35254C98.79 1.47495 98.5686 1.55093 98.3291 1.54785L98.1416 1.54395H97.9541C97.811 1.54206 97.6671 1.53036 97.5244 1.5127L97.1494 1.46582C97.0125 1.44883 96.8758 1.42688 96.7393 1.39941L96.5518 1.36035L96.3643 1.3252C96.2551 1.3032 96.1446 1.28536 96.0361 1.27441L95.6611 1.23535C95.6216 1.23148 95.5761 1.23674 95.5205 1.25879L95.1455 1.40723C94.8911 1.50811 94.6256 1.49961 94.3799 1.3877L94.0049 1.21582C93.9315 1.18239 93.866 1.168 93.8096 1.16504L93.6221 1.15723L93.4346 1.14551C93.3007 1.13848 93.1659 1.1287 93.0322 1.11426L92.6572 1.0752C92.5757 1.06646 92.4934 1.06657 92.4111 1.0791L92.2236 1.10645L92.0361 1.1377C91.9259 1.15452 91.815 1.17377 91.7041 1.2002L91.5166 1.24707L91.3291 1.29004C91.1712 1.32772 91.0093 1.34836 90.8486 1.35254L90.6611 1.36035L90.4736 1.36426C90.2768 1.36919 90.0857 1.33126 89.9033 1.25879L89.5283 1.11035C89.4434 1.07651 89.362 1.05582 89.2861 1.04785L88.9111 1.00879C88.9092 1.00859 88.9053 1.0074 88.8994 1.00879C88.8919 1.01071 88.874 1.01662 88.8486 1.03223L88.4736 1.2666C88.2492 1.4045 87.9836 1.4615 87.708 1.3877L87.333 1.28613C87.2538 1.26481 87.1768 1.25657 87.1025 1.25879L86.915 1.2627L86.7275 1.27051C86.5555 1.27574 86.3838 1.25753 86.2158 1.21582L86.0283 1.16895L85.8525 1.12207L85.8447 1.12988L85.4697 1.35645C85.2228 1.5058 84.9337 1.54617 84.6494 1.43066L84.4619 1.35254L84.2744 1.27832C84.1774 1.2387 84.0809 1.21047 83.9893 1.19238L83.8018 1.15332L83.6143 1.11816C83.6038 1.11613 83.5881 1.11261 83.5518 1.12988L83.1768 1.30957C82.9945 1.39612 82.798 1.44651 82.5947 1.4502L82.4072 1.4541H82.2197C81.9843 1.45811 81.7667 1.38823 81.5752 1.27051L81.3877 1.15332L81.2041 1.04004L80.8643 1.15332C80.7023 1.2046 80.5356 1.23651 80.3682 1.24707L79.9932 1.27051C79.8914 1.27694 79.7875 1.28872 79.6846 1.30957L79.3096 1.3877C79.1258 1.42468 78.9397 1.42654 78.7549 1.39551L78.3799 1.33301C78.263 1.3133 78.145 1.29602 78.0283 1.28223L77.8408 1.25879L77.6533 1.23926C77.5768 1.23022 77.5004 1.22993 77.4229 1.24316L77.2354 1.27441L77.0479 1.30957C76.8758 1.33918 76.7015 1.34176 76.5283 1.32129L76.3408 1.30176L76.1533 1.27832C76.0348 1.26432 75.9163 1.25273 75.7979 1.24316L75.4229 1.21191C75.2948 1.20159 75.1642 1.18949 75.0361 1.17676L74.8486 1.15723L74.6611 1.1416C74.5686 1.13248 74.4763 1.12904 74.3838 1.1377L74.0088 1.17676C73.8818 1.18867 73.753 1.19763 73.626 1.20801L73.251 1.23926C73.0961 1.25181 72.9409 1.25139 72.7861 1.23535L72.4111 1.19629C72.28 1.18264 72.1476 1.16401 72.0166 1.14551L71.8291 1.11816L71.6416 1.09473C71.6257 1.0925 71.6003 1.09244 71.5557 1.11426L71.3682 1.2041L71.1807 1.29785C71.0088 1.38175 70.8269 1.43514 70.6377 1.4541L70.2627 1.49316C70.0084 1.51838 69.7728 1.44457 69.5713 1.31738L69.3838 1.2002L69.2744 1.12988L69.1689 1.2002L68.9814 1.31738C68.7681 1.4533 68.5136 1.52479 68.2432 1.47363L67.8682 1.40332C67.7634 1.38352 67.6595 1.36718 67.5557 1.36035L67.1807 1.33691C67.0144 1.32607 66.8495 1.29353 66.6885 1.24316L66.3135 1.12598C66.2205 1.09686 66.1288 1.07996 66.04 1.07129L65.8525 1.05176L65.665 1.03613C65.5641 1.02637 65.4611 1.02339 65.3604 1.02832L64.9854 1.04395C64.8933 1.04851 64.7988 1.0638 64.7041 1.08691L64.5166 1.13379L64.3291 1.17676C64.2341 1.20003 64.1359 1.23464 64.0361 1.27832L63.6611 1.44238C63.382 1.56418 63.09 1.53678 62.8369 1.3916L62.6494 1.28613L62.4619 1.17676C62.4393 1.16397 62.4249 1.15852 62.4189 1.15723C62.414 1.15622 62.4103 1.15679 62.4072 1.15723L62.0322 1.21191C61.8699 1.23515 61.707 1.23794 61.5439 1.22363L61.1689 1.19238C61.0161 1.17892 60.8625 1.15287 60.7119 1.11426L60.5244 1.06738L60.3369 1.0166C60.3035 1.00821 60.2726 1.00901 60.2354 1.02051L59.8604 1.1377C59.6637 1.19872 59.4591 1.2142 59.2549 1.18066L58.8799 1.11816C58.7951 1.10433 58.7095 1.10352 58.626 1.11035L58.4385 1.12598L58.251 1.1377C58.1676 1.14463 58.0819 1.16337 57.9932 1.19238L57.6182 1.31738C57.4775 1.36347 57.3344 1.3997 57.1924 1.43066L57.0049 1.47363L56.8174 1.5127C56.6009 1.55971 56.3847 1.54425 56.1768 1.47363L55.8018 1.34863C55.7503 1.33116 55.7064 1.32685 55.665 1.33301L55.4775 1.36426L55.29 1.3916C55.1514 1.41308 55.0111 1.4289 54.8721 1.43848L54.6846 1.4502L54.4971 1.46582C54.3451 1.47627 54.1918 1.47216 54.04 1.45801L53.8525 1.44238L53.665 1.42285C53.5064 1.40802 53.3474 1.37913 53.1924 1.33301L53.0049 1.27441L52.8174 1.21973C52.7856 1.21059 52.7592 1.21043 52.7275 1.21973L52.3525 1.3291C52.1034 1.40221 51.8538 1.3772 51.626 1.27051L51.4385 1.18066L51.2979 1.11426L51.1533 1.2041L50.9658 1.31738C50.7177 1.46443 50.4279 1.50018 50.1455 1.38379L49.7705 1.22754C49.6673 1.18508 49.5658 1.15112 49.4658 1.12598L49.0908 1.03223C49.0834 1.03036 49.0729 1.02689 49.0439 1.04004L48.6689 1.21191C48.4323 1.31977 48.1742 1.33767 47.9229 1.25098L47.7354 1.18457L47.5479 1.12207C47.4588 1.0914 47.3732 1.0715 47.29 1.06348L47.1025 1.04785L46.915 1.02832C46.8072 1.018 46.6984 1.01176 46.5908 1.0127L46.4033 1.0166H46.2158C46.0845 1.01773 45.9526 1.01661 45.8213 1.0127L45.6338 1.00879L45.4463 1.00098C45.3503 0.998159 45.2539 1.00328 45.1572 1.0166L44.7822 1.07129C44.693 1.08367 44.5992 1.10389 44.5049 1.1377L44.3174 1.2041L44.1299 1.27441C43.9371 1.34335 43.7334 1.36821 43.5283 1.34473L43.3408 1.3252L43.1533 1.30176C43.0646 1.29172 42.9762 1.2927 42.8877 1.30176L42.7002 1.32129L42.5127 1.33691C42.4022 1.34822 42.2917 1.36675 42.1807 1.3877L41.8057 1.45801C41.5994 1.49698 41.3922 1.48349 41.1924 1.42285L41.0049 1.36816L40.8174 1.30957C40.7027 1.27472 40.5878 1.24262 40.4736 1.21582L40.0986 1.12988C40.0265 1.11295 39.9563 1.10767 39.8877 1.11426L39.7002 1.13379L39.5127 1.14941C39.4339 1.15719 39.3494 1.17925 39.2627 1.21191L38.8877 1.35254C38.6128 1.45593 38.3336 1.41955 38.0908 1.28223L37.7158 1.07129C37.7062 1.06585 37.6994 1.06454 37.6963 1.06348L37.5166 1.10645L37.3291 1.15332C37.1918 1.18681 37.0529 1.21702 36.915 1.23926L36.7275 1.2666L36.54 1.29785C36.3908 1.32185 36.241 1.33602 36.0908 1.33691H34.958C34.8413 1.33643 34.7231 1.33981 34.6064 1.34473L34.2314 1.36035C34.072 1.36696 33.913 1.35548 33.7549 1.3291L33.3799 1.2666C33.2807 1.25004 33.1811 1.23986 33.083 1.23926H32.708C32.5987 1.23862 32.4893 1.24177 32.3799 1.25098L32.0049 1.28223C31.8795 1.2928 31.7514 1.3032 31.626 1.31348L31.251 1.34473C31.0413 1.36161 30.8374 1.32658 30.6455 1.24707L30.2705 1.09082C30.1993 1.06128 30.1356 1.04861 30.0791 1.04785H29.8916L29.7041 1.04395C29.5765 1.04223 29.4489 1.04046 29.3213 1.03613L28.9463 1.02051C28.9484 1.02041 28.948 1.02245 28.9424 1.02441C28.9342 1.02733 28.9131 1.03391 28.8838 1.05566L28.6963 1.19629L28.5088 1.33301C28.3035 1.48548 28.0481 1.58232 27.7627 1.54004L27.3877 1.48535C27.1907 1.45607 27.0051 1.38342 26.833 1.28223L26.458 1.06348C26.4374 1.05138 26.4249 1.04547 26.4189 1.04395H26.4111L26.0361 1.09863C25.8998 1.11889 25.7626 1.13517 25.626 1.14551L25.4385 1.15723L25.251 1.17285C25.1277 1.18215 25.0031 1.19386 24.8799 1.2041L24.5049 1.23535C24.3424 1.24885 24.1783 1.24316 24.0166 1.21973L23.6416 1.16504C23.5598 1.1531 23.4768 1.15151 23.3955 1.16113L23.208 1.18066L23.0205 1.2041C22.9198 1.21602 22.8183 1.23564 22.7158 1.2627L22.5283 1.31348L22.3408 1.36035C22.1068 1.42224 21.8699 1.4065 21.6494 1.31738L21.4619 1.23926L21.2744 1.16504C21.2183 1.1423 21.1729 1.13786 21.1338 1.1416L20.9463 1.15723L20.7588 1.17676C20.6368 1.18841 20.5136 1.20213 20.3916 1.21582L20.0166 1.25488C19.8092 1.27801 19.6048 1.25291 19.4111 1.18066L19.0361 1.04004C19.01 1.03039 18.9959 1.03092 18.9775 1.03613L18.6025 1.14551C18.3878 1.20782 18.1655 1.20645 17.9502 1.14551L17.7627 1.09473L17.5752 1.04004C17.5548 1.03435 17.5371 1.03353 17.5088 1.04395L17.3213 1.11426L17.2197 1.14941C17.1924 1.2458 17.1443 1.34134 17.0596 1.41504C16.9604 1.50072 16.8527 1.5314 16.7822 1.54395C16.651 1.56716 16.524 1.549 16.4463 1.53223L16.2627 1.48926L16.0752 1.4502C15.956 1.42446 15.834 1.3987 15.7119 1.37598L15.5244 1.34082L15.333 1.30566C15.236 1.2876 15.1393 1.27819 15.0439 1.27832H14.665C14.6038 1.27841 14.5418 1.29271 14.4814 1.31738L14.3057 1.3877L14.126 1.46191C13.9863 1.51895 13.8439 1.56573 13.7002 1.60254L13.5166 1.64941L13.3369 1.69629C13.1513 1.7438 12.9611 1.75411 12.7705 1.73145L12.5674 1.70801L12.3682 1.68457C12.3062 1.6772 12.2568 1.68136 12.2158 1.69629L11.8564 1.8291C11.7719 1.86006 11.689 1.90046 11.6104 1.9502L11.4463 2.05176L11.2861 2.15723C11.1722 2.22928 11.0567 2.29785 10.9424 2.36426L10.7783 2.45801L10.6143 2.55566C10.5169 2.61222 10.4215 2.67162 10.3291 2.73535L10.1729 2.84473L10.0166 2.9502C9.84786 3.06661 9.65914 3.1378 9.45801 3.16895L9.25879 3.2002L9.06348 3.23145C9.02475 3.23746 9.00146 3.24913 8.98145 3.2666L8.83691 3.39551L8.69629 3.52441C8.5751 3.63227 8.44204 3.72609 8.30176 3.80566L8.1377 3.89551L7.97363 3.98926C7.9195 4.02007 7.87251 4.06159 7.8291 4.11426L7.7041 4.2627L7.58301 4.41113C7.45156 4.57088 7.28764 4.69468 7.09863 4.77832L6.74707 4.93457C6.7164 4.94814 6.69491 4.96572 6.67676 4.99316L6.57129 5.15332L6.46191 5.31738C6.35217 5.48311 6.2126 5.6219 6.04395 5.72754L5.87988 5.8291L5.71973 5.93066C5.69909 5.94357 5.68285 5.9586 5.66895 5.98926L5.58691 6.16895L5.50879 6.35254C5.42977 6.52991 5.31914 6.68839 5.17676 6.82129L5.04004 6.94629L4.90332 7.0752C4.81962 7.15331 4.73653 7.23405 4.65723 7.31738L4.52832 7.4541L4.39941 7.58691C4.31812 7.67234 4.23934 7.76323 4.16113 7.85254L3.91113 8.13379C3.82555 8.2315 3.7394 8.33012 3.64941 8.42676L3.5166 8.56738L3.3877 8.70801C3.34917 8.74937 3.31997 8.79512 3.30176 8.84863L3.23926 9.03223L3.18066 9.21191C3.11481 9.40711 3.00404 9.58115 2.86035 9.72754L2.72363 9.86816L2.58301 10.0127C2.52625 10.0708 2.48233 10.1317 2.4502 10.1963L2.36426 10.3682L2.28223 10.5361C2.28089 10.5388 2.27919 10.5442 2.27832 10.5518C2.27737 10.5605 2.27634 10.5801 2.28223 10.6104L2.3252 10.8291L2.36426 11.0479C2.41278 11.2983 2.38565 11.5609 2.23535 11.7939L2.12988 11.9541L2.02441 12.1182C2.01609 12.1315 2.01093 12.1432 2.0127 12.1689L2.02832 12.3682L2.04004 12.5635C2.05733 12.8115 1.99102 13.0455 1.84863 13.2471L1.61426 13.5752C1.58586 13.6153 1.57753 13.6477 1.5752 13.6768L1.55957 13.8643L1.54785 14.0518C1.53834 14.1741 1.52793 14.2974 1.52051 14.4189L1.49707 14.7939C1.48967 14.9153 1.48311 15.0364 1.47754 15.1572L1.46973 15.3447L1.46191 15.5283C1.45193 15.745 1.38229 15.9477 1.27441 16.1299L1.05566 16.4971C1.04581 16.5137 1.04483 16.5248 1.04395 16.5283V16.5322L1.0752 16.7236L1.10645 16.9111C1.13584 17.0863 1.13856 17.2629 1.11426 17.4385L1.08691 17.626L1.06348 17.8135C1.06176 17.8258 1.06037 17.8511 1.08301 17.8955L1.17676 18.083L1.27441 18.2705C1.38301 18.4843 1.42466 18.724 1.37598 18.9697L1.34082 19.1572L1.30176 19.3447C1.2713 19.4979 1.22577 19.6486 1.16895 19.7979L1.09863 19.9854L1.05176 20.1025L1.30957 20.4463C1.47238 20.6647 1.56326 20.9448 1.48535 21.2471L1.43457 21.4346L1.3877 21.6221C1.34811 21.7754 1.29395 21.9266 1.22754 22.0752L1.14551 22.2627L1.05957 22.4502C1.02974 22.5171 1.02056 22.5737 1.02051 22.6221V22.9971C1.02054 23.0016 1.02034 23.0306 1.05957 23.0869L1.19238 23.2744L1.32129 23.4619C1.40445 23.5817 1.46874 23.7272 1.48145 23.8955C1.4942 24.067 1.45005 24.2251 1.37598 24.3604L1.17285 24.7354L1.16895 24.7393L1.22363 24.9111L1.28223 25.0986C1.32724 25.2465 1.35771 25.3976 1.37988 25.5479L1.40723 25.7354L1.43848 25.9229C1.46829 26.1252 1.44863 26.3264 1.3877 26.5205L1.27051 26.8955C1.23907 26.9956 1.21796 27.0952 1.2041 27.1924L1.14941 27.5674C1.14253 27.6164 1.14379 27.667 1.16113 27.7236L1.27832 28.0986C1.34099 28.3022 1.35313 28.514 1.30957 28.7236L1.23145 29.0986C1.20381 29.2316 1.17245 29.3644 1.1377 29.4971L1.08691 29.6846L1.04004 29.8721C1.0247 29.9306 1.01937 29.9857 1.02832 30.04L1.09082 30.415C1.1062 30.5084 1.13395 30.6027 1.16895 30.7002L1.30176 31.0752C1.356 31.2261 1.39594 31.3814 1.42285 31.5361L1.45801 31.7236L1.48926 31.9111C1.53407 32.17 1.47387 32.4145 1.34863 32.626L1.23926 32.8135L1.12598 33.001C1.08904 33.0634 1.08345 33.1047 1.08301 33.1299L1.0752 33.5049C1.07373 33.5879 1.08261 33.6726 1.10254 33.7588L1.18848 34.1338C1.23705 34.3442 1.23022 34.5566 1.16895 34.7627L1.11426 34.9502L1.05566 35.1377C1.05404 35.1431 1.05573 35.1477 1.05566 35.1494C1.05574 35.1505 1.05385 35.1591 1.05957 35.1729L1.22363 35.5479C1.33465 35.8068 1.32304 36.0812 1.2041 36.333L1.11816 36.5205L1.02832 36.708H1.02441L1.09082 36.8916L1.16113 37.0791C1.2105 37.2175 1.25058 37.3574 1.28613 37.4971L1.33691 37.6846L1.38379 37.8721C1.44167 38.0997 1.42623 38.3308 1.34473 38.5479L1.2041 38.9229L1.28613 39.1064L1.36816 39.2939C1.47858 39.5451 1.48047 39.8146 1.37207 40.0674L1.29395 40.2549L1.21191 40.4424C1.20569 40.4569 1.20415 40.465 1.2041 40.4658V40.4697L1.20801 40.4775L1.2627 40.665L1.32129 40.8525C1.39444 41.0957 1.37721 41.3432 1.27832 41.5713L1.11426 41.9463C1.086 42.0118 1.07454 42.0664 1.0752 42.1143L1.08301 42.4893C1.08324 42.5047 1.08677 42.5414 1.12598 42.6025L1.24707 42.79L1.36426 42.9775C1.49241 43.1776 1.56955 43.4112 1.54785 43.665L1.5166 44.04C1.50286 44.1996 1.4691 44.3569 1.42285 44.5127L1.31348 44.8877C1.29681 44.9438 1.29429 44.9945 1.30176 45.0439L1.3291 45.2314L1.36035 45.4189C1.39128 45.6201 1.37599 45.8226 1.31738 46.0166L1.25879 46.2041L1.2041 46.3916C1.17157 46.4994 1.14204 46.6055 1.12207 46.7119L1.05176 47.0869C1.04731 47.1106 1.05026 47.1392 1.06738 47.1807L1.1416 47.3682L1.21973 47.5557C1.29997 47.7501 1.33767 47.9566 1.31738 48.1689L1.27832 48.5439C1.26967 48.6349 1.27233 48.7263 1.28223 48.8174L1.32129 49.1924C1.33218 49.2925 1.35341 49.395 1.37988 49.4971L1.42676 49.6846L1.47754 49.8721C1.54578 50.1373 1.49558 50.395 1.36816 50.6182L1.25879 50.8057L1.16113 50.9775L1.29004 51.3213C1.34415 51.4667 1.38591 51.6146 1.41895 51.7627L1.50488 52.1377C1.54989 52.3401 1.54484 52.5465 1.49316 52.7471L1.44629 52.9346L1.39551 53.1221C1.35588 53.2755 1.30207 53.4265 1.23535 53.5752L1.15332 53.7627L1.07129 53.9385L1.1416 54.1182L1.21973 54.3057C1.27695 54.4459 1.32652 54.5895 1.36816 54.7314L1.47754 55.1064C1.5371 55.31 1.54656 55.5195 1.50098 55.7275L1.45801 55.915L1.41895 56.1025C1.38287 56.2666 1.32433 56.427 1.25098 56.583L1.16504 56.7705L1.0752 56.958C1.06734 56.9747 1.06753 56.984 1.06738 56.9854V56.9932L1.16895 57.3682C1.20537 57.5069 1.23527 57.6466 1.25879 57.7861L1.32129 58.1611C1.339 58.2665 1.36112 58.3747 1.3916 58.4814L1.50098 58.8564C1.55962 59.0612 1.56421 59.2732 1.5166 59.4814L1.43066 59.8564C1.3987 59.9958 1.36213 60.1361 1.31738 60.2744L1.25488 60.4619L1.19629 60.6494C1.18587 60.6816 1.18424 60.7065 1.19238 60.7354L1.24707 60.9229L1.29785 61.1104C1.35469 61.3117 1.36464 61.5184 1.32129 61.7236L1.28223 61.9111L1.23926 62.0986C1.23304 62.1279 1.23611 62.1595 1.25098 62.2002L1.31738 62.3877L1.3877 62.5752C1.48578 62.8446 1.4559 63.1194 1.3252 63.3604L1.21973 63.5479L1.11816 63.7354C1.09479 63.7789 1.0977 63.7986 1.09863 63.8057L1.12207 63.9932L1.14941 64.1807C1.15898 64.2531 1.17856 64.3313 1.21582 64.415L1.30176 64.6025L1.38379 64.79C1.4864 65.0193 1.50946 65.2703 1.43457 65.5166L1.37598 65.7041L1.32129 65.8916C1.30258 65.9531 1.29931 66.0096 1.30566 66.0635L1.3252 66.251L1.34863 66.4385C1.362 66.5515 1.37815 66.6649 1.39941 66.7783L1.46973 67.1533C1.52104 67.4268 1.44853 67.6827 1.30957 67.8955L1.06738 68.2705C1.05005 68.2971 1.04225 68.3135 1.04004 68.3213C1.03886 68.3255 1.04007 68.3278 1.04004 68.3291L1.05176 68.5166L1.06738 68.7041C1.07056 68.743 1.08466 68.798 1.12598 68.8682L1.23926 69.0557L1.34863 69.2432C1.48741 69.4794 1.53274 69.7554 1.43848 70.0322L1.37207 70.2197L1.30957 70.4072C1.28492 70.4794 1.27285 70.5478 1.27441 70.6104L1.28223 70.7979L1.28613 70.9854C1.29082 71.1839 1.25157 71.3767 1.17676 71.5596L1.09863 71.7471L1.02441 71.9189L1.10645 72.1025L1.19238 72.29C1.25741 72.4331 1.31509 72.5778 1.36035 72.7236L1.47754 73.0986C1.5484 73.3279 1.54187 73.5652 1.46191 73.79L1.3291 74.165C1.30441 74.2348 1.29246 74.2973 1.29395 74.3564L1.29785 74.5439L1.30566 74.7314C1.30781 74.8106 1.31961 74.893 1.34473 74.9775L1.39941 75.165L1.45801 75.3525C1.52731 75.5853 1.51595 75.8235 1.43066 76.0479L1.35645 76.2354L1.28613 76.4229C1.246 76.5278 1.21276 76.633 1.18848 76.7354L1.14551 76.9229L1.09863 77.1104V77.1143C1.09879 77.1154 1.10115 77.1274 1.11035 77.1455L1.2041 77.333L1.30176 77.5205C1.41168 77.7373 1.45336 77.9794 1.39941 78.2275L1.35645 78.415L1.31738 78.6025C1.30546 78.6575 1.30545 78.7116 1.31738 78.7666L1.35645 78.9541L1.39941 79.1416C1.4478 79.3664 1.42661 79.5909 1.34473 79.8018L1.27051 79.9893L1.2041 80.1533L1.29395 80.333L1.3916 80.5205C1.5055 80.7455 1.53862 80.9969 1.46973 81.251L1.36816 81.626L1.23145 82.1729L1.18848 82.3604C1.17107 82.4334 1.16634 82.506 1.17285 82.5752L1.18848 82.7627L1.20801 82.9502C1.21729 83.0482 1.23357 83.1471 1.25879 83.2471L1.35254 83.6221C1.39486 83.7894 1.41494 83.9623 1.41113 84.1338L1.40332 84.5088C1.40057 84.6325 1.39811 84.7562 1.39551 84.8799L1.3877 85.2549C1.38603 85.3339 1.39416 85.4179 1.41504 85.501L1.50879 85.876C1.57039 86.1225 1.54062 86.366 1.43457 86.5869L1.34082 86.7744L1.25488 86.9502L1.32129 87.1299L1.3916 87.3174C1.47513 87.538 1.48991 87.7745 1.42676 88.0049L1.3252 88.3799C1.30655 88.4484 1.29986 88.5123 1.30566 88.5752L1.32129 88.7627L1.34082 88.9502C1.35904 89.148 1.33368 89.3447 1.27051 89.5322L1.20801 89.7197L1.1416 89.9072V89.9229C1.14225 89.9254 1.1434 89.9293 1.14551 89.9346L1.21973 90.1221L1.29785 90.3096C1.36096 90.4668 1.40448 90.63 1.43066 90.7939L1.49316 91.1689C1.51767 91.3232 1.52465 91.4784 1.52051 91.6338L1.5127 92.0088C1.50921 92.1386 1.50433 92.2696 1.49707 92.3994L1.47363 92.7744C1.46328 92.9584 1.42237 93.1377 1.35254 93.3096L1.27441 93.4971L1.2002 93.6846C1.16148 93.7799 1.13481 93.8723 1.11816 93.9619L1.04785 94.3369C1.02915 94.4378 1.01632 94.538 1.0127 94.6377L1.00879 94.8252L1.00098 95.0127C0.998993 95.0681 1.00763 95.129 1.03223 95.1963L1.17285 95.5713C1.25364 95.7903 1.26539 96.023 1.2041 96.251L1.10254 96.626C1.07567 96.726 1.05801 96.8251 1.04785 96.9229L1.00879 97.2979C1.00359 97.3482 1.00806 97.4014 1.02832 97.4619L1.15332 97.8369C1.22855 98.0612 1.23217 98.2942 1.16113 98.5205L1.04395 98.8955C1.0391 98.911 1.03954 98.9203 1.04785 98.9424L1.18848 99.3174C1.24144 99.4569 1.28701 99.5983 1.3252 99.7393L1.42676 100.114C1.47704 100.3 1.49354 100.493 1.46973 100.685L1.42285 101.06C1.39891 101.25 1.33699 101.432 1.24707 101.603L1.14551 101.79L1.04785 101.978C1.01749 102.035 1.01167 102.076 1.0127 102.103L1.02832 102.478C1.02961 102.506 1.03698 102.55 1.0752 102.614L1.30176 102.989C1.41044 103.171 1.48188 103.372 1.49707 103.587L1.50879 103.774L1.52441 103.962C1.53812 104.159 1.50772 104.351 1.44238 104.536L1.30957 104.911C1.28101 104.992 1.26966 105.069 1.2666 105.142L1.25098 105.517C1.24481 105.664 1.2263 105.811 1.2002 105.958L1.16895 106.146L1.13379 106.333C1.12827 106.364 1.12893 106.398 1.14551 106.442L1.21582 106.63L1.29004 106.817C1.36086 107.004 1.39235 107.203 1.37988 107.403L1.35645 107.778C1.35091 107.869 1.35523 107.96 1.36816 108.052L1.39551 108.239L1.41895 108.427C1.43899 108.568 1.45311 108.71 1.45801 108.853L1.46582 109.04L1.46973 109.228C1.47641 109.423 1.44173 109.615 1.37207 109.798L1.30176 109.985L1.22754 110.173C1.21103 110.216 1.21035 110.249 1.21582 110.278L1.28613 110.653C1.32383 110.853 1.31891 111.055 1.2666 111.251L1.16504 111.626C1.16041 111.644 1.15833 111.66 1.16895 111.688L1.31738 112.063C1.3995 112.275 1.42063 112.502 1.37207 112.728L1.3291 112.915L1.29004 113.103C1.26654 113.212 1.24777 113.321 1.23535 113.431L1.21582 113.622L1.19238 113.81C1.18551 113.87 1.19085 113.929 1.20801 113.989L1.2627 114.173L1.31348 114.356C1.34382 114.462 1.38118 114.567 1.42285 114.669L1.49707 114.849L1.56738 115.024C1.62018 115.154 1.66952 115.285 1.71191 115.415L1.7666 115.591L1.8252 115.767C1.87083 115.906 1.90903 116.048 1.93457 116.192L1.99707 116.56C2.02998 116.747 2.02419 116.938 1.98926 117.126L1.9541 117.329L1.91895 117.509L2.02441 117.638L2.15332 117.79C2.28849 117.952 2.38316 118.14 2.42676 118.349L2.46582 118.536L2.50488 118.72C2.53675 118.873 2.55351 119.031 2.55957 119.192L2.5752 119.599C2.57543 119.605 2.57892 119.61 2.5791 119.61L2.86035 119.892C2.97744 120.008 3.08067 120.135 3.16895 120.271L3.27441 120.431L3.37598 120.587C3.41195 120.642 3.45865 120.695 3.52051 120.743L3.83301 120.985C4.03978 121.146 4.16773 121.366 4.21191 121.618L4.24707 121.821L4.28223 122.021C4.28499 122.036 4.28883 122.045 4.29004 122.048L4.29395 122.056L4.44238 122.177L4.58691 122.302C4.73978 122.432 4.86146 122.589 4.94629 122.771L5.02832 122.95L5.11035 123.126C5.14265 123.195 5.18373 123.252 5.23145 123.302L5.36035 123.438L5.49316 123.575C5.56077 123.646 5.63266 123.712 5.71191 123.771L6.0166 123.997C6.11091 124.067 6.20846 124.132 6.30566 124.196L6.46582 124.302L6.62207 124.407C6.77104 124.506 6.90104 124.627 7.0127 124.767L7.25488 125.063C7.29695 125.116 7.34468 125.16 7.39941 125.192L7.55957 125.286L7.72363 125.38C7.84841 125.453 7.96764 125.536 8.08301 125.622L8.23535 125.735L8.38379 125.845C8.51143 125.94 8.63045 126.052 8.73926 126.173L8.87207 126.321L9.00488 126.466L9.00879 126.47C9.01076 126.47 9.01559 126.473 9.02051 126.474L9.42676 126.513C9.5896 126.529 9.74749 126.559 9.89941 126.603L10.0791 126.653L10.2627 126.708C10.4214 126.754 10.5728 126.817 10.7158 126.899L10.8799 126.993L11.04 127.087C11.106 127.125 11.1769 127.152 11.251 127.169L11.4346 127.212L11.6143 127.255C11.7764 127.292 11.9346 127.347 12.083 127.423L12.251 127.509L12.4189 127.599C12.4913 127.636 12.5681 127.661 12.6455 127.677L12.8252 127.716L13.0088 127.755C13.0987 127.774 13.1919 127.781 13.2861 127.782L13.4736 127.786H13.665L13.8643 127.81C14.0572 127.853 14.2241 127.955 14.3604 128.087L14.6885 128.407L14.8525 128.392L15.0439 128.376C15.1126 128.37 15.1881 128.354 15.2705 128.317L15.4619 128.231L15.6572 128.146L15.8838 128.075C16.0358 128.052 16.1855 128.074 16.3252 128.13L16.5283 128.239L16.7119 128.368L16.7979 128.431L16.8877 128.372L17.0752 128.247L17.2822 128.142C17.3568 128.115 17.4383 128.098 17.5244 128.095C17.6111 128.092 17.6934 128.104 17.7705 128.126L17.9854 128.22L18.1729 128.333L18.3604 128.442C18.4174 128.477 18.4523 128.482 18.4697 128.481L18.8447 128.474C18.9641 128.472 19.0847 128.468 19.2041 128.462L19.5791 128.446C19.6428 128.443 19.7135 128.427 19.79 128.396L20.165 128.239C20.3479 128.164 20.5405 128.126 20.7393 128.13L21.1143 128.138C21.3125 128.142 21.5046 128.189 21.6846 128.271L21.8721 128.356L22.0127 128.419L22.1689 128.333L22.3564 128.224L22.5518 128.138C22.6867 128.095 22.8282 128.085 22.9697 128.11L23.1807 128.173L23.5557 128.337C23.6077 128.36 23.6451 128.363 23.6768 128.36L24.0518 128.321C24.2332 128.303 24.4168 128.315 24.5947 128.356L24.7822 128.403L24.9697 128.446H24.9736C24.9756 128.446 24.9839 128.443 25.001 128.435L25.1885 128.341L25.376 128.243C25.5899 128.134 25.8291 128.093 26.0752 128.142L26.2627 128.177L26.4502 128.216C26.5773 128.241 26.7059 128.267 26.833 128.294L27.208 128.372H27.2158C27.2198 128.371 27.2304 128.369 27.2471 128.36L27.6221 128.165C27.829 128.056 28.0601 128.005 28.3018 128.04L28.6768 128.095C28.8096 128.114 28.9426 128.135 29.0752 128.161L29.2627 128.2L29.4502 128.235C29.5685 128.259 29.6875 128.279 29.8057 128.298L30.1807 128.36C30.1938 128.362 30.2164 128.362 30.2588 128.341L30.4463 128.247L30.6338 128.157L30.8369 128.083C30.9725 128.051 31.1113 128.051 31.2471 128.083L31.4502 128.157L31.8252 128.337L31.833 128.341L32.0127 128.282L32.2002 128.224C32.4269 128.151 32.6622 128.152 32.8877 128.228L33.2627 128.353C33.2672 128.354 33.2736 128.352 33.2744 128.353C33.2766 128.352 33.2803 128.351 33.2861 128.349L33.6611 128.192C33.9213 128.084 34.1967 128.096 34.4463 128.216L34.6338 128.31L34.8213 128.399C34.8947 128.435 34.9583 128.45 35.0127 128.454L35.3877 128.478C35.4836 128.484 35.5805 128.48 35.6768 128.47L36.0518 128.431C36.1156 128.424 36.1875 128.406 36.2666 128.368L36.6416 128.188C36.8676 128.082 37.1158 128.056 37.3643 128.126L37.5518 128.177L37.7393 128.231C37.862 128.266 37.9876 128.3 38.1104 128.333L38.4854 128.435C38.5388 128.449 38.588 128.448 38.6377 128.438L39.0127 128.368C39.2185 128.33 39.4266 128.343 39.626 128.403L39.8135 128.462L39.9502 128.501L40.126 128.38L40.3135 128.247C40.5288 128.094 40.7976 128.011 41.0869 128.075L41.4619 128.161C41.5706 128.185 41.6822 128.203 41.79 128.216L41.9775 128.239L42.165 128.259C42.2863 128.273 42.4071 128.29 42.5283 128.302L42.7158 128.317L42.9033 128.337C43.0199 128.349 43.1384 128.358 43.2549 128.364L43.4424 128.372L43.6299 128.384C43.7735 128.391 43.9166 128.407 44.0596 128.431L44.2471 128.458L44.4307 128.485C44.4337 128.485 44.446 128.486 44.4658 128.474L44.6533 128.356L44.8408 128.243L45.0244 128.153C45.1518 128.105 45.2873 128.082 45.4268 128.095L45.6377 128.142L46.0127 128.267C46.1348 128.308 46.2578 128.349 46.3799 128.388L46.5674 128.446L46.7549 128.509C46.8229 128.531 46.8868 128.536 46.9463 128.532L47.3213 128.509C47.395 128.504 47.4735 128.488 47.5557 128.458L47.9307 128.317C48.0919 128.258 48.2586 128.222 48.4268 128.204L48.6143 128.181L48.8018 128.161C49.0192 128.138 49.2298 128.178 49.4268 128.263L49.6143 128.345L49.8018 128.423C49.8517 128.444 49.889 128.45 49.9189 128.446L50.2939 128.399C50.382 128.389 50.4742 128.369 50.5674 128.337L50.7549 128.274L50.9424 128.208C51.1881 128.124 51.4417 128.139 51.6768 128.239L51.8643 128.321L52.0518 128.399C52.1008 128.42 52.1356 128.422 52.165 128.419L52.54 128.372C52.6851 128.354 52.832 128.345 52.9775 128.345H53.3525C53.4928 128.345 53.6343 128.351 53.7744 128.364L53.9619 128.38L54.1494 128.399C54.2455 128.408 54.3424 128.407 54.4385 128.399L54.8135 128.368C54.9446 128.358 55.0768 128.35 55.208 128.345L55.3955 128.341L55.583 128.333C55.6382 128.331 55.7022 128.315 55.7744 128.282L55.9619 128.2L56.1494 128.114C56.3318 128.032 56.5264 127.986 56.7275 127.985H57.1025C57.3642 127.984 57.5928 128.086 57.7822 128.231L57.9697 128.376L58.04 128.427L58.1143 128.376L58.3018 128.235L58.4971 128.118C58.6346 128.057 58.7859 128.028 58.9424 128.048L59.1807 128.114L59.5557 128.278C59.5708 128.285 59.5806 128.286 59.583 128.286C59.5853 128.286 59.5885 128.284 59.5947 128.282L59.9697 128.181C60.1798 128.122 60.3955 128.121 60.6064 128.177L60.7939 128.228L60.9814 128.274C61.114 128.31 61.2477 128.349 61.3799 128.392L61.5674 128.45L61.7549 128.513H61.7666C61.7667 128.513 61.7731 128.514 61.7861 128.509L62.1611 128.353C62.3896 128.257 62.6353 128.239 62.876 128.313L63.251 128.431C63.3021 128.446 63.3477 128.45 63.3916 128.442L63.5791 128.407L63.7666 128.376C63.8913 128.354 64.0169 128.332 64.1416 128.31L64.3291 128.274L64.5166 128.243C64.686 128.213 64.8575 128.203 65.0283 128.22L65.4033 128.259C65.5784 128.276 65.7496 128.318 65.915 128.384L66.1025 128.462L66.2666 128.524L66.4463 128.442L66.6338 128.353C66.847 128.248 67.0835 128.208 67.3252 128.255L67.5127 128.29L67.7002 128.329C67.7921 128.347 67.8836 128.357 67.9736 128.356L68.1611 128.353H68.3486C68.5163 128.351 68.6846 128.371 68.8486 128.411L69.0361 128.458L69.2236 128.501C69.2372 128.504 69.2509 128.507 69.2822 128.493L69.4697 128.415L69.6572 128.333C69.9139 128.223 70.187 128.229 70.4385 128.345L70.8135 128.517C70.862 128.539 70.8948 128.543 70.9189 128.54L71.2939 128.493C71.428 128.477 71.5621 128.463 71.6963 128.454L72.0713 128.431C72.1705 128.424 72.2712 128.41 72.3721 128.388L72.5596 128.349L72.7471 128.306C72.95 128.261 73.1559 128.265 73.3564 128.317L73.7314 128.419C73.8241 128.443 73.9155 128.457 74.0049 128.462L74.1924 128.474L74.3799 128.481C74.5107 128.488 74.6437 128.497 74.7744 128.509L74.9619 128.524L75.1494 128.544C75.1562 128.544 75.1785 128.543 75.2236 128.517L75.4111 128.403L75.5986 128.294C75.8231 128.16 76.0851 128.105 76.3564 128.177L76.5439 128.228L76.7314 128.274C76.8628 128.309 76.9948 128.347 77.126 128.388L77.3135 128.446L77.4814 128.497H77.4893L77.4932 128.501H77.4893ZM129.259 15.458C129.259 15.5492 129.267 15.6403 129.286 15.7314L129.364 16.1064C129.412 16.3376 129.384 16.5665 129.294 16.7783L129.216 16.9658L129.134 17.1533C129.113 17.2014 129.114 17.2356 129.118 17.2627L129.142 17.4502L129.169 17.6377C129.19 17.784 129.202 17.9321 129.204 18.0791L129.208 18.2666V18.4541C129.209 18.5492 129.221 18.6465 129.239 18.7432L129.31 19.1182C129.336 19.2573 129.358 19.3965 129.372 19.5361L129.388 19.7236L129.407 19.9111C129.418 20.0214 129.433 20.1324 129.454 20.2432L129.524 20.6182C129.554 20.7766 129.571 20.9384 129.567 21.0986L129.56 21.2861L129.556 21.4736C129.552 21.6425 129.529 21.8097 129.481 21.9736L129.372 22.3486C129.349 22.4279 129.34 22.5057 129.341 22.5791L129.349 22.9541C129.35 23.0575 129.357 23.1626 129.372 23.2666L129.427 23.6416C129.452 23.8174 129.449 23.9938 129.419 24.1689L129.356 24.5439C129.336 24.6648 129.316 24.7864 129.298 24.9072L129.243 25.2822C129.227 25.395 129.212 25.5096 129.204 25.6221L129.192 25.8096L129.177 25.9971C129.167 26.1312 129.155 26.2654 129.138 26.3994L129.114 26.5869L129.087 26.7744C129.087 26.7766 129.085 26.793 129.11 26.8369L129.216 27.0244L129.325 27.2119C129.464 27.4552 129.496 27.7368 129.392 28.0127L129.321 28.2002L129.247 28.3877C129.215 28.4713 129.198 28.5513 129.192 28.626L129.161 29.001C129.152 29.1164 129.148 29.2333 129.146 29.3486L129.138 29.7236C129.137 29.7478 129.141 29.7869 129.173 29.8447L129.278 30.0322L129.38 30.2197C129.531 30.4929 129.537 30.7992 129.388 31.0752L129.185 31.4502C129.15 31.5141 129.138 31.5601 129.138 31.5947L129.13 31.9697C129.129 31.9899 129.135 32.0284 129.169 32.0869L129.388 32.4619C129.527 32.7029 129.564 32.9821 129.462 33.2588L129.321 33.6338C129.283 33.7361 129.256 33.8394 129.235 33.9385L129.157 34.3135C129.149 34.3566 129.151 34.3986 129.165 34.4463L129.274 34.8213C129.337 35.0398 129.333 35.2644 129.267 35.4814L129.208 35.6689L129.157 35.8447L129.263 36.0322L129.364 36.2197C129.496 36.4586 129.53 36.7303 129.435 37.001L129.302 37.376C129.298 37.3873 129.298 37.3942 129.298 37.3955C129.298 37.397 129.301 37.4033 129.306 37.415L129.372 37.6025L129.442 37.79C129.529 38.0275 129.527 38.2765 129.438 38.5127L129.298 38.8877C129.274 38.951 129.264 39.0054 129.267 39.0557L129.29 39.4307C129.299 39.5853 129.293 39.7414 129.274 39.8955L129.228 40.2705C129.22 40.329 129.226 40.3901 129.243 40.4541L129.345 40.8291C129.408 41.0621 129.393 41.2992 129.306 41.5205L129.157 41.8955C129.149 41.9171 129.149 41.9253 129.153 41.9385L129.271 42.3135C129.317 42.4625 129.35 42.6148 129.372 42.7666L129.427 43.1416C129.459 43.3713 129.417 43.5937 129.321 43.7979L129.235 43.9854L129.146 44.1729L129.142 44.1807L129.204 44.3643L129.271 44.5518C129.344 44.7697 129.348 44.9971 129.286 45.2197L129.235 45.4072L129.181 45.5947C129.153 45.6917 129.135 45.7899 129.126 45.8838L129.11 46.0713L129.091 46.2588C129.087 46.2985 129.092 46.3438 129.114 46.3994L129.192 46.5869L129.267 46.7744C129.349 46.9804 129.376 47.2006 129.337 47.4229L129.267 47.7979C129.259 47.8381 129.262 47.8815 129.278 47.9307L129.403 48.3057C129.469 48.5057 129.487 48.714 129.45 48.9229L129.38 49.2979C129.364 49.384 129.359 49.4712 129.364 49.5557L129.388 49.9307C129.401 50.1416 129.362 50.3455 129.278 50.5361L129.192 50.7236L129.114 50.8955L129.196 51.0713L129.278 51.2588C129.354 51.4275 129.404 51.6044 129.423 51.7861L129.462 52.1611C129.484 52.373 129.451 52.5799 129.372 52.7744L129.216 53.1494C129.196 53.1983 129.196 53.235 129.2 53.2666L129.224 53.4541L129.251 53.6416C129.278 53.8404 129.258 54.0401 129.2 54.2314L129.146 54.4189L129.087 54.6064C129.081 54.6272 129.082 54.6432 129.091 54.6689L129.224 55.0439C129.28 55.2024 129.318 55.3641 129.337 55.5283L129.36 55.7158L129.38 55.9033C129.404 56.1162 129.372 56.3242 129.294 56.5205L129.22 56.708L129.149 56.8799L129.239 57.0557L129.329 57.2432C129.469 57.5311 129.442 57.8379 129.282 58.0986L129.169 58.2861L129.052 58.4736C129.024 58.5202 129.024 58.5421 129.024 58.5479L129.036 58.7354L129.052 58.9229C129.058 59.0096 129.075 59.1011 129.103 59.1924L129.161 59.3799L129.216 59.5674C129.276 59.7672 129.29 59.9746 129.251 60.1807L129.181 60.5557C129.156 60.6834 129.129 60.8108 129.103 60.9385L129.063 61.126L129.028 61.2744L129.036 61.2822L129.325 61.6572C129.421 61.7825 129.498 61.9469 129.501 62.1416C129.504 62.3377 129.428 62.5052 129.333 62.6338L129.196 62.8213L129.099 62.9463L129.153 63.0479L129.247 63.2354C129.349 63.439 129.395 63.6654 129.364 63.8994L129.337 64.0869L129.313 64.2744C129.3 64.3783 129.294 64.4836 129.294 64.5869V64.7744L129.29 64.9619C129.29 65.1051 129.283 65.2488 129.267 65.3916L129.243 65.5791L129.224 65.7666C129.213 65.8587 129.212 65.9521 129.22 66.0439L129.251 66.4189C129.262 66.5579 129.267 66.6978 129.267 66.8369L129.263 67.0244V67.2119C129.262 67.3387 129.261 67.4679 129.259 67.5947L129.251 67.9697C129.25 68.019 129.262 68.0755 129.29 68.1416L129.368 68.3291L129.45 68.5166C129.571 68.8036 129.533 69.0992 129.38 69.3486L129.263 69.5361L129.192 69.6494L129.263 69.7627L129.376 69.9502C129.457 70.0832 129.51 70.2451 129.501 70.4229C129.492 70.5992 129.424 70.7534 129.337 70.876L129.204 71.0635L129.118 71.1807L129.177 71.2822L129.282 71.4697C129.426 71.7296 129.44 72.0258 129.31 72.3018L129.224 72.4893L129.134 72.6768C129.102 72.7437 129.092 72.7983 129.091 72.8447L129.083 73.2197C129.081 73.3044 129.091 73.3901 129.11 73.4775L129.149 73.665L129.192 73.8525C129.222 73.985 129.248 74.1183 129.271 74.251L129.333 74.626C129.365 74.8119 129.362 74.9997 129.325 75.1846L129.286 75.3721L129.251 75.5596C129.241 75.6085 129.241 75.6559 129.255 75.708L129.306 75.8955L129.353 76.083C129.408 76.2925 129.409 76.5067 129.353 76.7158L129.251 77.0908C129.217 77.2179 129.182 77.3466 129.146 77.4736L129.091 77.6611L129.04 77.8486C129.035 77.866 129.034 77.8802 129.044 77.9072L129.114 78.0947L129.188 78.2822C129.251 78.4454 129.292 78.6148 129.31 78.7861L129.349 79.1611C129.371 79.3784 129.333 79.5897 129.247 79.7861L129.083 80.1611C129.061 80.2109 129.056 80.2458 129.06 80.2744L129.106 80.6494C129.125 80.8014 129.132 80.9539 129.126 81.1064L129.118 81.2939L129.114 81.4814C129.112 81.5387 129.117 81.6006 129.142 81.6689L129.212 81.8564L129.278 82.0439C129.336 82.2056 129.372 82.3715 129.388 82.54L129.403 82.7275L129.423 82.915C129.437 83.0758 129.431 83.2391 129.411 83.3994L129.364 83.7744C129.341 83.9548 129.289 84.1307 129.212 84.2979L129.04 84.6729C129.023 84.7108 129.022 84.7297 129.024 84.7432L129.095 85.1182C129.128 85.2903 129.136 85.4638 129.118 85.6377L129.079 86.0127C129.076 86.0451 129.08 86.0848 129.103 86.1377L129.185 86.3252L129.263 86.5127C129.333 86.6745 129.382 86.8415 129.407 87.0127L129.435 87.2002L129.466 87.3877C129.488 87.5394 129.496 87.6922 129.493 87.8447L129.489 88.0322V88.2197C129.487 88.3498 129.48 88.4803 129.474 88.6104L129.458 88.9854C129.449 89.1695 129.406 89.3482 129.337 89.5205L129.188 89.8955C129.167 89.9486 129.161 89.9919 129.165 90.0283L129.212 90.4033C129.225 90.5119 129.243 90.6221 129.267 90.7314L129.306 90.9189L129.349 91.1064C129.4 91.3458 129.366 91.5827 129.267 91.7979L129.177 91.9854L129.114 92.1143L129.208 92.2627L129.321 92.4502C129.4 92.5777 129.454 92.729 129.454 92.8994C129.454 93.0697 129.4 93.2215 129.321 93.3486L129.204 93.5361L129.099 93.708L129.149 93.8604L129.216 94.0479C129.277 94.2237 129.308 94.4054 129.306 94.5908V94.7783L129.302 94.9658C129.301 95.0342 129.312 95.1083 129.337 95.1846L129.396 95.3721L129.458 95.5596C129.525 95.7698 129.534 95.9883 129.481 96.2041L129.388 96.5791C129.353 96.723 129.311 96.8668 129.259 97.0088L129.118 97.3838C129.102 97.4288 129.101 97.4645 129.106 97.4971L129.177 97.8721C129.206 98.0338 129.216 98.1969 129.208 98.3604L129.2 98.5479L129.188 98.7354C129.183 98.8404 129.185 98.9466 129.192 99.0518L129.208 99.2393L129.22 99.4268C129.226 99.5162 129.241 99.6073 129.267 99.7002L129.321 99.8877L129.372 100.075C129.44 100.318 129.417 100.565 129.317 100.79L129.231 100.978L129.169 101.11L129.267 101.263L129.38 101.45C129.458 101.578 129.51 101.733 129.509 101.903C129.507 102.073 129.455 102.226 129.376 102.353L129.259 102.54L129.173 102.673L129.329 102.985C129.438 103.2 129.48 103.439 129.431 103.685L129.396 103.872L129.356 104.06C129.345 104.117 129.344 104.173 129.356 104.231L129.399 104.419L129.438 104.606C129.491 104.854 129.451 105.097 129.341 105.313L129.243 105.501L129.161 105.657L129.235 105.817L129.321 106.005C129.453 106.294 129.417 106.594 129.259 106.849L129.024 107.224C129.019 107.232 129.015 107.239 129.013 107.243L129.052 107.423L129.091 107.61C129.126 107.778 129.137 107.948 129.126 108.118L129.103 108.493C129.096 108.592 129.097 108.691 129.106 108.79L129.138 109.165C129.152 109.318 129.154 109.473 129.142 109.626L129.126 109.813L129.114 110.001C129.109 110.068 129.115 110.136 129.134 110.208L129.181 110.396L129.231 110.583C129.268 110.723 129.298 110.864 129.321 111.005L129.384 111.38C129.413 111.558 129.413 111.737 129.384 111.915L129.356 112.103L129.325 112.29C129.318 112.332 129.32 112.377 129.337 112.431L129.399 112.622L129.462 112.81C129.552 113.084 129.509 113.358 129.368 113.595L129.149 113.962C129.094 114.055 129.057 114.141 129.032 114.22L128.978 114.399L128.919 114.583C128.914 114.6 128.911 114.624 128.923 114.665L128.981 114.86L129.04 115.06C129.089 115.224 129.119 115.391 129.13 115.56L129.146 115.755L129.157 115.95C129.172 116.19 129.111 116.419 128.981 116.618L128.763 116.954C128.698 117.054 128.639 117.153 128.587 117.251L128.407 117.587C128.35 117.695 128.296 117.804 128.243 117.911L128.161 118.079L128.075 118.247C128.059 118.279 128.05 118.321 128.052 118.38L128.06 118.786C128.064 118.999 128.019 119.208 127.919 119.399L127.833 119.563L127.747 119.731C127.677 119.865 127.595 119.992 127.505 120.114L127.392 120.267L127.282 120.419C127.24 120.476 127.207 120.537 127.185 120.606L127.126 120.79L127.067 120.97C127.023 121.11 126.973 121.25 126.911 121.384L126.829 121.556L126.751 121.728C126.692 121.856 126.626 121.984 126.556 122.106L126.368 122.435C126.265 122.615 126.125 122.765 125.954 122.88L125.79 122.989L125.626 123.103C125.581 123.133 125.549 123.165 125.528 123.204L125.438 123.372L125.345 123.54C125.263 123.692 125.163 123.831 125.044 123.954L124.911 124.091L124.782 124.224C124.689 124.32 124.592 124.417 124.493 124.509L124.353 124.638L124.216 124.763C124.126 124.846 124.034 124.932 123.946 125.017L123.813 125.146L123.677 125.278C123.541 125.408 123.385 125.509 123.212 125.583L123.032 125.661L122.853 125.735C122.743 125.782 122.637 125.832 122.536 125.884L122.372 125.97L122.204 126.056C122.152 126.082 122.106 126.119 122.063 126.169L121.938 126.313L121.813 126.462C121.726 126.565 121.633 126.666 121.54 126.767L121.274 127.056C121.106 127.239 120.889 127.349 120.646 127.384L120.247 127.438C120.184 127.447 120.137 127.468 120.099 127.493L119.942 127.599L119.782 127.704C119.659 127.786 119.529 127.859 119.396 127.923L119.228 128.005L119.056 128.083C118.968 128.125 118.883 128.18 118.798 128.239L118.638 128.349L118.478 128.462C118.305 128.583 118.109 128.659 117.899 128.685L117.517 128.731C117.377 128.749 117.235 128.76 117.095 128.767L116.903 128.774L116.712 128.786C116.686 128.787 116.657 128.794 116.618 128.821L116.282 129.056C116.078 129.2 115.838 129.271 115.583 129.247L115.388 129.228L115.192 129.212C115.123 129.205 115.059 129.21 114.997 129.228L114.63 129.329C114.473 129.373 114.311 129.401 114.149 129.411L113.962 129.423L113.771 129.435C113.535 129.449 113.312 129.39 113.114 129.278L112.927 129.169L112.802 129.099L112.677 129.177L112.489 129.29C112.273 129.421 112.017 129.478 111.751 129.423L111.376 129.345C111.242 129.317 111.108 129.284 110.974 129.247L110.786 129.196L110.606 129.146C110.604 129.147 110.602 129.151 110.599 129.153L110.224 129.364C110.092 129.438 109.939 129.481 109.771 129.474C109.603 129.466 109.452 129.409 109.329 129.329L109.142 129.208L109.028 129.134L108.927 129.2L108.739 129.313C108.546 129.431 108.325 129.502 108.087 129.493L107.712 129.478C107.615 129.474 107.516 129.48 107.419 129.493L107.231 129.517L107.044 129.544C106.829 129.572 106.618 129.541 106.419 129.462L106.044 129.313C105.973 129.285 105.91 129.271 105.853 129.271H105.478C105.333 129.27 105.188 129.257 105.044 129.239L104.669 129.192C104.601 129.184 104.532 129.189 104.462 129.204L104.274 129.243L104.087 129.286C103.859 129.336 103.632 129.312 103.419 129.228L103.231 129.153L103.067 129.087L102.903 129.181L102.716 129.282C102.512 129.392 102.284 129.448 102.044 129.419L101.669 129.372C101.562 129.359 101.455 129.354 101.349 129.353L100.974 129.345C100.902 129.344 100.825 129.356 100.747 129.38L100.372 129.489C100.172 129.549 99.965 129.561 99.7588 129.521L99.3838 129.45C99.2549 129.425 99.1259 129.396 98.9971 129.368L98.8096 129.329L98.6221 129.286C98.5072 129.261 98.3928 129.238 98.2783 129.22L98.0908 129.192L97.9033 129.161C97.8591 129.154 97.8115 129.156 97.7588 129.173L97.5713 129.235L97.3838 129.294C97.1417 129.372 96.8922 129.359 96.6611 129.263L96.4736 129.185L96.3057 129.114L96.1377 129.2L95.9502 129.294C95.7757 129.38 95.5888 129.434 95.3955 129.45L95.0205 129.481C94.7681 129.503 94.5367 129.429 94.3369 129.302L94.1494 129.185L93.9971 129.083L93.8643 129.146L93.6768 129.228C93.5133 129.298 93.3427 129.349 93.1689 129.372L92.7939 129.419C92.5956 129.445 92.3986 129.431 92.208 129.372L91.833 129.255C91.7282 129.223 91.6234 129.198 91.5205 129.181L91.333 129.149L91.1455 129.114C91.1091 129.108 91.0686 129.113 91.0205 129.13L90.6455 129.263C90.4917 129.317 90.3353 129.357 90.1768 129.38L89.8018 129.435C89.669 129.454 89.5362 129.473 89.4033 129.485L89.2158 129.501L89.0283 129.521C88.8254 129.54 88.6247 129.512 88.4346 129.442L88.0596 129.302C88.0218 129.288 87.9929 129.288 87.9658 129.294L87.5908 129.38C87.3636 129.432 87.1363 129.412 86.9229 129.329L86.7354 129.255L86.583 129.192L86.415 129.29L86.2275 129.399C85.9977 129.531 85.7322 129.578 85.4619 129.497L85.2744 129.438L85.0869 129.384C85.0194 129.364 84.9557 129.356 84.8955 129.36L84.5205 129.392C84.3821 129.403 84.2411 129.407 84.1025 129.407H83.7275C83.5907 129.407 83.4541 129.402 83.3174 129.392L83.1299 129.38L82.9424 129.364C82.8383 129.356 82.7338 129.355 82.6299 129.36L82.2549 129.376C82.1461 129.381 82.0359 129.396 81.9268 129.411L81.7393 129.435L81.5518 129.462C81.3483 129.491 81.1445 129.474 80.9502 129.411L80.5752 129.286C80.5298 129.271 80.4918 129.271 80.4541 129.278L80.2666 129.317L80.0791 129.353C79.9396 129.381 79.7973 129.404 79.6572 129.419L79.4697 129.438L79.2822 129.462C79.0558 129.486 78.8374 129.44 78.6377 129.345L78.4502 129.255L78.3057 129.185L78.1572 129.271L77.9697 129.372C77.7382 129.5 77.4751 129.54 77.208 129.458L77.0205 129.403L76.833 129.345C76.7147 129.308 76.5956 129.274 76.4775 129.243L76.29 129.192L76.1182 129.146C76.1158 129.147 76.1139 129.151 76.1104 129.153L75.9229 129.263L75.7354 129.376C75.5351 129.495 75.3049 129.562 75.0596 129.54L74.8721 129.521L74.6846 129.505C74.5661 129.495 74.4475 129.488 74.3291 129.481L74.1416 129.47L73.9541 129.462C73.7939 129.453 73.6345 129.425 73.4775 129.384L73.29 129.337L73.1025 129.286C73.0536 129.273 73.0084 129.272 72.9619 129.282L72.7744 129.325L72.5869 129.364C72.4382 129.397 72.288 129.417 72.1377 129.427L71.9502 129.442L71.7627 129.454C71.6475 129.462 71.5304 129.471 71.415 129.485L71.04 129.532C70.8146 129.56 70.5966 129.519 70.3955 129.427L70.208 129.341L70.0322 129.259L69.8643 129.333L69.6768 129.415C69.4581 129.509 69.2218 129.532 68.9854 129.474L68.6104 129.38C68.5245 129.359 68.4387 129.352 68.3564 129.353H68.1689L67.9814 129.356C67.823 129.358 67.6653 129.34 67.5088 129.31L67.3213 129.274L67.1338 129.235C67.1257 129.234 67.1114 129.233 67.0752 129.251L66.7002 129.431C66.4529 129.551 66.1799 129.567 65.9189 129.462L65.5439 129.313C65.4598 129.28 65.3801 129.262 65.3057 129.255L64.9307 129.216C64.8517 129.208 64.7728 129.213 64.6924 129.228L64.5049 129.259L64.3174 129.294C64.1925 129.316 64.0673 129.338 63.9424 129.36L63.7549 129.392L63.5674 129.427C63.3622 129.463 63.1561 129.449 62.958 129.388L62.583 129.271C62.5745 129.268 62.5681 129.267 62.5674 129.267C62.5647 129.267 62.5587 129.27 62.5479 129.274L62.1729 129.431C61.9428 129.527 61.6955 129.542 61.4541 129.466L61.2666 129.403L61.0791 129.345C60.9624 129.307 60.8439 129.274 60.7275 129.243L60.3525 129.142C60.3142 129.131 60.2782 129.131 60.2393 129.142L60.0518 129.196L59.8643 129.247C59.6226 129.314 59.3778 129.29 59.1533 129.192L58.9658 129.11L58.8604 129.063L58.7197 129.173L58.5322 129.313C58.405 129.41 58.2376 129.486 58.04 129.485C57.8427 129.484 57.678 129.406 57.5518 129.31L57.3643 129.169L57.1768 129.024C57.1462 129.001 57.1242 128.989 57.1143 128.985H56.7314C56.6828 128.986 56.6268 128.998 56.5596 129.028L56.3721 129.11L56.1846 129.196C56.0074 129.276 55.8201 129.321 55.626 129.329L55.251 129.345C55.1331 129.349 55.0134 129.359 54.8955 129.368L54.708 129.38L54.5205 129.396C54.3673 129.408 54.2126 129.41 54.0596 129.396L53.8721 129.376L53.6846 129.36C53.5755 129.35 53.4653 129.345 53.3564 129.345H52.9814C52.878 129.345 52.7729 129.351 52.6689 129.364L52.2939 129.411C52.0737 129.439 51.8573 129.403 51.6572 129.317L51.4697 129.239L51.2822 129.157C51.2763 129.155 51.272 129.154 51.2705 129.153L51.2666 129.157L50.8916 129.282C50.7353 129.336 50.5763 129.376 50.415 129.396L50.2275 129.415L50.04 129.438C49.8206 129.464 49.6061 129.427 49.4072 129.341L49.2197 129.263L49.0322 129.181C48.9795 129.158 48.9394 129.154 48.9072 129.157L48.5322 129.196C48.4507 129.205 48.3667 129.226 48.2783 129.259L48.0908 129.325L47.9033 129.396C47.7365 129.457 47.5631 129.493 47.3877 129.505L47.0127 129.528C46.8229 129.541 46.6353 129.516 46.4541 129.458L46.0791 129.341C45.9522 129.3 45.8232 129.258 45.6963 129.216L45.5088 129.153L45.3525 129.099L45.1807 129.208L44.9932 129.325C44.7832 129.455 44.5369 129.52 44.2744 129.478L43.8994 129.415C43.7928 129.398 43.685 129.385 43.5791 129.38L43.2041 129.364C43.0712 129.358 42.9384 129.346 42.8057 129.333L42.4307 129.294C42.3028 129.281 42.1718 129.27 42.0439 129.255L41.6689 129.208C41.528 129.191 41.3871 129.169 41.2471 129.138L41.0596 129.095L40.8994 129.056L40.8916 129.063L40.5166 129.329C40.2903 129.489 40.0068 129.564 39.708 129.474L39.5205 129.419L39.333 129.36C39.2834 129.346 39.2397 129.345 39.1963 129.353L38.8213 129.423C38.6217 129.46 38.4192 129.452 38.2236 129.399L37.8486 129.298C37.7222 129.264 37.5961 129.228 37.4697 129.192L37.2822 129.142L37.0947 129.087H37.083C37.0797 129.088 37.074 129.092 37.0674 129.095L36.8799 129.181L36.6924 129.271C36.522 129.351 36.3429 129.407 36.1572 129.427L35.7822 129.466C35.6288 129.482 35.475 129.484 35.3213 129.474L34.9463 129.45C34.7508 129.437 34.5642 129.383 34.3877 129.298L34.2002 129.208L34.0283 129.126L33.8604 129.196L33.6729 129.274C33.4399 129.371 33.1889 129.383 32.9463 129.302L32.5713 129.177C32.5475 129.169 32.5311 129.166 32.5088 129.173L32.3213 129.235L32.1338 129.294C31.8781 129.376 31.6172 129.353 31.3838 129.239L31.1963 129.146L31.04 129.071L30.8877 129.146L30.7002 129.239C30.4929 129.341 30.2647 129.382 30.0283 129.345L29.8408 129.317L29.6533 129.286C29.5224 129.266 29.3896 129.245 29.2588 129.22L29.0713 129.181L28.8838 129.146C28.7668 129.123 28.649 129.1 28.5322 129.083L28.1572 129.028C28.1486 129.027 28.1288 129.026 28.0869 129.048L27.8994 129.149L27.7119 129.247C27.4955 129.361 27.252 129.406 27.001 129.353L26.8135 129.313L26.626 129.271C26.5038 129.245 26.3809 129.221 26.2588 129.196L26.0713 129.157L25.8838 129.122C25.8804 129.121 25.8676 129.116 25.833 129.134L25.6455 129.231L25.458 129.325C25.2382 129.437 24.9904 129.478 24.7393 129.419L24.3643 129.333C24.293 129.316 24.225 129.311 24.1572 129.317L23.7822 129.356C23.5642 129.379 23.3504 129.341 23.1533 129.255L22.9658 129.173L22.8174 129.106L22.665 129.2L22.4775 129.306C22.2218 129.453 21.929 129.479 21.6494 129.353L21.2744 129.181C21.2055 129.149 21.1456 129.139 21.0947 129.138L20.7197 129.13C20.6695 129.129 20.6102 129.138 20.5439 129.165L20.3564 129.243L20.1689 129.317C19.9958 129.389 19.8159 129.433 19.6299 129.442L19.4424 129.454L19.2549 129.462C19.1248 129.468 18.9944 129.471 18.8643 129.474L18.4893 129.481C18.2567 129.485 18.04 129.416 17.8486 129.302L17.6611 129.188L17.5557 129.126L17.4463 129.204L17.2588 129.329C17.1303 129.416 16.9698 129.476 16.7861 129.474C16.6026 129.471 16.4434 129.407 16.3174 129.317L16.1338 129.185L15.9932 129.087L15.8682 129.146L15.6768 129.228C15.5019 129.305 15.3186 129.356 15.1299 129.372L14.9346 129.388L14.7432 129.407C14.4441 129.433 14.1863 129.313 13.9932 129.126L13.665 128.806C13.652 128.793 13.642 128.789 13.6377 128.786H13.4658L13.2744 128.782C13.1163 128.78 12.9597 128.764 12.8057 128.731L12.6221 128.692L12.4385 128.657C12.2723 128.623 12.1133 128.563 11.9619 128.485L11.626 128.313C11.5506 128.275 11.4725 128.246 11.3916 128.228L11.0244 128.142C10.8554 128.102 10.6945 128.04 10.5439 127.954L10.3799 127.86L10.2197 127.767C10.1466 127.725 10.0676 127.693 9.98535 127.669L9.80176 127.614L9.62207 127.563C9.53255 127.538 9.43305 127.52 9.3252 127.509L9.12207 127.485L8.91895 127.466C8.66386 127.44 8.43696 127.328 8.2627 127.134L8.12988 126.989L7.99707 126.841C7.92947 126.766 7.85889 126.7 7.78613 126.646L7.63379 126.532L7.48535 126.423C7.40032 126.359 7.31212 126.297 7.21973 126.243L6.8916 126.056C6.7293 125.961 6.59101 125.835 6.47363 125.688L6.35254 125.54L6.23145 125.388C6.18409 125.329 6.13143 125.279 6.07129 125.239L5.91113 125.134L5.75488 125.032C5.64242 124.958 5.5317 124.878 5.42285 124.798L5.11816 124.571C4.99415 124.479 4.87713 124.378 4.77051 124.267L4.6416 124.13L4.50879 123.997C4.38246 123.865 4.28149 123.714 4.2041 123.548L4.04004 123.196C4.01505 123.143 3.98009 123.099 3.93848 123.063L3.79395 122.938L3.64941 122.817C3.45659 122.654 3.34029 122.437 3.29785 122.196L3.22754 121.79L3.22363 121.778L3.21973 121.774L2.90723 121.532C2.76126 121.419 2.63625 121.284 2.53613 121.13L2.33301 120.817C2.28507 120.743 2.22389 120.669 2.15332 120.599L1.87207 120.317C1.68646 120.132 1.58887 119.896 1.5791 119.638L1.57129 119.435L1.56348 119.228C1.55928 119.118 1.5439 119.016 1.52441 118.923L1.48926 118.739L1.4502 118.552C1.44216 118.514 1.4238 118.474 1.3877 118.431L1.12988 118.126C0.943848 117.903 0.879233 117.629 0.930664 117.353L0.969727 117.146L1.00879 116.942C1.02476 116.856 1.02241 116.786 1.0127 116.731L0.981445 116.552L0.950195 116.368C0.932958 116.271 0.90711 116.175 0.875977 116.079L0.817383 115.899L0.758789 115.724C0.724148 115.618 0.685491 115.511 0.641602 115.403L0.571289 115.224L0.49707 115.048C0.441898 114.913 0.392823 114.774 0.352539 114.634L0.301758 114.45L0.24707 114.267C0.193666 114.081 0.178488 113.888 0.200195 113.696L0.219727 113.509L0.243164 113.317C0.259336 113.175 0.283099 113.033 0.313477 112.892L0.391602 112.517C0.397024 112.491 0.398658 112.465 0.383789 112.427L0.30957 112.239L0.239258 112.052C0.154001 111.832 0.138684 111.599 0.200195 111.368L0.24707 111.181L0.297852 110.993C0.31225 110.939 0.315127 110.887 0.305664 110.837L0.235352 110.462C0.19413 110.242 0.215194 110.023 0.293945 109.817L0.368164 109.63L0.438477 109.442C0.46412 109.375 0.471558 109.316 0.469727 109.263L0.46582 109.075L0.458008 108.888C0.454361 108.781 0.445769 108.674 0.430664 108.567L0.375977 108.192C0.353619 108.034 0.346646 107.875 0.356445 107.716L0.379883 107.341C0.382956 107.291 0.376479 107.236 0.352539 107.173L0.211914 106.798C0.134318 106.593 0.110419 106.376 0.149414 106.157L0.18457 105.97L0.21582 105.782C0.234136 105.679 0.246715 105.576 0.250977 105.474L0.266602 105.099C0.274158 104.922 0.308535 104.748 0.368164 104.579L0.500977 104.204C0.52343 104.14 0.527975 104.084 0.524414 104.032L0.500977 103.657C0.498536 103.623 0.48321 103.573 0.442383 103.505L0.333008 103.317L0.219727 103.13C0.108956 102.945 0.0371821 102.738 0.0283203 102.517L0.0126953 102.142C0.00394467 101.918 0.063424 101.705 0.165039 101.513L0.360352 101.138C0.401476 101.06 0.423399 100.993 0.430664 100.935L0.477539 100.56C0.48486 100.501 0.479271 100.44 0.461914 100.376L0.360352 100.001C0.330996 99.8926 0.296618 99.7828 0.254883 99.6729L0.18457 99.4854L0.110352 99.2979C0.0242699 99.0706 0.0173232 98.8288 0.0908203 98.5947L0.208008 98.2197C0.21498 98.1968 0.216431 98.1784 0.208008 98.1533L0.141602 97.9658L0.0791016 97.7783C0.016082 97.5896 -0.0079701 97.3913 0.0126953 97.1924L0.0517578 96.8174C0.0676022 96.6658 0.0975738 96.5135 0.137695 96.3643L0.239258 95.9893C0.244647 95.9681 0.242504 95.9489 0.231445 95.9189L0.165039 95.7314L0.0947266 95.5439C0.0276037 95.3619 -0.00598094 95.1717 0.000976562 94.9775L0.0166016 94.6025C0.021997 94.4527 0.0359171 94.3019 0.0634766 94.1533L0.133789 93.7783C0.163424 93.619 0.212126 93.4631 0.274414 93.3096L0.348633 93.1221L0.426758 92.9346C0.458141 92.8573 0.473698 92.7851 0.477539 92.7197L0.485352 92.5322L0.49707 92.3447C0.503789 92.2245 0.509469 92.1016 0.512695 91.9814L0.516602 91.7939L0.524414 91.6064C0.526847 91.5133 0.519908 91.4195 0.504883 91.3252L0.442383 90.9502C0.428665 90.8643 0.405351 90.7733 0.368164 90.6807L0.219727 90.3057C0.126517 90.0731 0.11553 89.827 0.196289 89.5869L0.321289 89.2119C0.342281 89.1496 0.349532 89.0921 0.344727 89.04L0.325195 88.8525L0.30957 88.665C0.292611 88.4789 0.310909 88.2947 0.360352 88.1143L0.461914 87.7393C0.467275 87.7197 0.469021 87.7021 0.458008 87.6729L0.387695 87.4854L0.313477 87.2979C0.215841 87.0395 0.235507 86.7713 0.352539 86.5283L0.532227 86.1533C0.540293 86.1364 0.539853 86.1276 0.540039 86.126C0.540169 86.1249 0.54133 86.1234 0.540039 86.1182L0.446289 85.7432C0.404324 85.5762 0.384095 85.4063 0.387695 85.2354L0.411133 84.1104C0.412878 84.0318 0.404704 83.9509 0.383789 83.8682L0.290039 83.4932C0.252433 83.3444 0.226159 83.1947 0.211914 83.0439L0.192383 82.8564L0.176758 82.6689C0.159748 82.4881 0.173631 82.3069 0.21582 82.1299L0.258789 81.9424L0.40332 81.3643L0.504883 80.9893L0.30957 80.5986C0.184891 80.3533 0.163711 80.0778 0.266602 79.8135L0.336914 79.626L0.411133 79.4385C0.42562 79.4009 0.424131 79.3765 0.418945 79.3525L0.34082 78.9775C0.298629 78.7831 0.298774 78.586 0.34082 78.3916L0.379883 78.2041L0.422852 78.0166C0.42387 78.0119 0.423204 78.0073 0.422852 78.0049C0.422311 78.0015 0.419906 77.9912 0.411133 77.9736L0.313477 77.7861L0.219727 77.5986C0.107748 77.3785 0.0665052 77.131 0.125977 76.8799L0.172852 76.6924L0.21582 76.5049C0.250707 76.3578 0.297263 76.2119 0.352539 76.0674L0.493164 75.6924C0.502747 75.6673 0.501997 75.6542 0.49707 75.6377L0.387695 75.2627C0.338626 75.0977 0.31028 74.9292 0.305664 74.7588L0.301758 74.5713L0.293945 74.3838C0.288901 74.1941 0.320304 74.008 0.383789 73.8291L0.450195 73.6416L0.520508 73.4541C0.529125 73.4299 0.52647 73.4152 0.520508 73.3955L0.40332 73.0205C0.371097 72.9167 0.330697 72.8107 0.282227 72.7041L0.196289 72.5166L0.114258 72.3291C0.00137254 72.0809 -0.00590813 71.8106 0.0986328 71.5557L0.172852 71.3682L0.250977 71.1807C0.277818 71.115 0.287333 71.0589 0.286133 71.0088L0.282227 70.8213L0.274414 70.6338C0.269731 70.4464 0.299632 70.2608 0.360352 70.083L0.426758 69.8955L0.481445 69.7393L0.375977 69.5635L0.266602 69.376C0.160748 69.1962 0.0885414 68.9972 0.0712891 68.7861L0.0400391 68.4111C0.0193749 68.1563 0.0977544 67.9228 0.227539 67.7236L0.352539 67.5361L0.473633 67.3486L0.485352 67.3291L0.489258 67.3369L0.454102 67.1494L0.418945 66.9619C0.393576 66.8266 0.372484 66.6913 0.356445 66.5557L0.30957 66.1807C0.28642 65.9845 0.306959 65.7871 0.364258 65.5986L0.418945 65.4111L0.477539 65.2236V65.2158C0.476831 65.2131 0.476834 65.2074 0.473633 65.2002L0.387695 65.0127L0.305664 64.8252C0.231664 64.6598 0.18054 64.4865 0.157227 64.3096L0.133789 64.1221L0.106445 63.9346C0.0750398 63.6931 0.128708 63.4632 0.239258 63.2588L0.34082 63.0713L0.442383 62.8955L0.379883 62.7314L0.30957 62.5439C0.233146 62.3347 0.215861 62.1123 0.262695 61.8916L0.34082 61.5166C0.350157 61.4724 0.350515 61.4281 0.336914 61.3799L0.282227 61.1924L0.231445 61.0049C0.169483 60.7842 0.172866 60.5581 0.243164 60.3408L0.305664 60.1533L0.364258 59.9658C0.400219 59.8546 0.432737 59.744 0.458008 59.6338L0.543945 59.2588C0.553311 59.2176 0.552768 59.1784 0.540039 59.1338L0.430664 58.7588C0.38987 58.6163 0.357199 58.473 0.333008 58.3291L0.270508 57.9541C0.252031 57.8442 0.229275 57.7328 0.200195 57.6221L0.149414 57.4346L0.102539 57.2471C0.0380055 57.0008 0.0679989 56.7553 0.172852 56.5322L0.258789 56.3447L0.348633 56.1572C0.392524 56.0637 0.42357 55.9733 0.442383 55.8877L0.481445 55.7002L0.524414 55.5127C0.533191 55.4721 0.533461 55.4326 0.520508 55.3877L0.461914 55.2002L0.407227 55.0127C0.375514 54.9046 0.338765 54.7944 0.293945 54.6846L0.21582 54.4971L0.141602 54.3096C0.0380458 54.0558 0.0421694 53.7877 0.15332 53.54L0.325195 53.165C0.369879 53.0652 0.402177 52.9672 0.426758 52.8721L0.477539 52.6846L0.524414 52.4971C0.536919 52.4485 0.538462 52.4031 0.52832 52.3564L0.442383 51.9814C0.419662 51.8796 0.391433 51.7734 0.352539 51.6689L0.211914 51.2939C0.109593 51.0179 0.147589 50.7388 0.286133 50.4971L0.391602 50.3096L0.500977 50.1221C0.503979 50.1168 0.507547 50.1132 0.508789 50.1104L0.458008 49.9346L0.411133 49.7471C0.372918 49.5998 0.345403 49.4509 0.329102 49.3018L0.30957 49.1143L0.286133 48.9268C0.268947 48.7686 0.27112 48.6085 0.286133 48.4502L0.301758 48.2627L0.321289 48.0752C0.324844 48.038 0.320106 47.9931 0.297852 47.9385L0.141602 47.5635C0.0555025 47.3549 0.0288856 47.1296 0.0712891 46.9033L0.141602 46.5283C0.168316 46.3859 0.200623 46.2436 0.243164 46.1025L0.301758 45.915L0.356445 45.7275C0.373348 45.6716 0.379574 45.6201 0.37207 45.5713L0.34082 45.3838L0.313477 45.1963C0.282796 44.9962 0.299041 44.7959 0.356445 44.6025L0.46582 44.2275C0.493424 44.1343 0.512827 44.0435 0.520508 43.9541L0.551758 43.5791C0.551858 43.5779 0.549832 43.5745 0.547852 43.5674C0.545598 43.5594 0.540771 43.5423 0.524414 43.5166L0.282227 43.1416C0.16128 42.9529 0.0861997 42.7356 0.0830078 42.501L0.0751953 42.126C0.0727299 41.925 0.116957 41.7311 0.196289 41.5479L0.360352 41.1729L0.364258 41.1494V41.1416L0.305664 40.9541L0.250977 40.7666C0.177709 40.524 0.196091 40.2761 0.293945 40.0479L0.37207 39.8604L0.450195 39.6846L0.37207 39.5088L0.290039 39.3213C0.184222 39.0803 0.173114 38.8211 0.266602 38.5713L0.407227 38.1963C0.4196 38.1633 0.420721 38.1405 0.415039 38.1182L0.368164 37.9307L0.317383 37.7432C0.289654 37.6343 0.255139 37.5252 0.21582 37.415L0.0830078 37.04C-0.0082132 36.7845 0.0127593 36.5214 0.125977 36.2822L0.211914 36.0947L0.293945 35.9229L0.223633 35.7549L0.141602 35.5674C0.0442901 35.34 0.0264063 35.0945 0.0986328 34.8525L0.15332 34.665L0.211914 34.4775C0.224404 34.4352 0.224322 34.3984 0.21582 34.3604L0.129883 33.9854C0.0920295 33.8216 0.0722402 33.6523 0.0751953 33.4854L0.0830078 33.1104C0.0873181 32.8862 0.155926 32.6761 0.266602 32.4893L0.375977 32.3018L0.489258 32.1143L0.504883 32.083L0.469727 31.8955L0.438477 31.708C0.421897 31.6127 0.395993 31.5142 0.360352 31.415L0.227539 31.04C0.173073 30.8885 0.132211 30.7347 0.106445 30.5791L0.0439453 30.2041C0.0117237 30.0084 0.0211037 29.8097 0.0712891 29.6182L0.12207 29.4307L0.168945 29.2432C0.19935 29.1271 0.2269 29.0113 0.250977 28.8955L0.329102 28.5205C0.337479 28.4802 0.335582 28.438 0.321289 28.3916L0.266602 28.2041L0.208008 28.0166C0.149061 27.8246 0.128991 27.6264 0.157227 27.4268L0.211914 27.0518C0.233712 26.8989 0.270304 26.7446 0.317383 26.5947L0.43457 26.2197C0.451665 26.1646 0.45324 26.1145 0.446289 26.0674L0.391602 25.6924C0.376939 25.5935 0.356025 25.4929 0.325195 25.3916L0.208008 25.0166C0.127149 24.7506 0.167364 24.4859 0.293945 24.2549L0.399414 24.0674L0.458008 23.9658L0.368164 23.8447L0.239258 23.6572C0.106951 23.4673 0.0206281 23.2444 0.0205078 22.9971V22.6221C0.0207327 22.4205 0.0638128 22.2229 0.145508 22.04L0.231445 21.8525L0.313477 21.665C0.358193 21.5648 0.394232 21.4677 0.418945 21.3721L0.46582 21.1846L0.508789 21.0361L0.368164 20.8564L0.227539 20.6689C0.0523993 20.4335 -0.0245122 20.1305 0.0947266 19.8174L0.235352 19.4424C0.273319 19.3426 0.302252 19.2453 0.321289 19.1494L0.360352 18.9619L0.395508 18.7744C0.39622 18.7708 0.401467 18.7586 0.383789 18.7236L0.286133 18.5361L0.192383 18.3486C0.0875193 18.143 0.0381985 17.9145 0.0712891 17.6768L0.125977 17.3018C0.136196 17.228 0.134903 17.1517 0.12207 17.0752L0.0869141 16.8877L0.0556641 16.7002C0.0128008 16.4448 0.071176 16.2008 0.196289 15.9893L0.415039 15.6221C0.451319 15.5609 0.460248 15.5162 0.461914 15.4854L0.469727 15.2979L0.481445 15.1104C0.487256 14.9844 0.493265 14.8578 0.500977 14.7314L0.524414 14.3564C0.532149 14.2298 0.537958 14.1009 0.547852 13.9736L0.579102 13.5986C0.59649 13.3779 0.675921 13.1746 0.801758 12.9971L0.915039 12.833L1.03223 12.6689C1.03968 12.6582 1.04347 12.6511 1.04395 12.6494C1.04446 12.6469 1.04447 12.6419 1.04395 12.6338L1.02832 12.4346L1.0166 12.2393C1.00019 12.0037 1.05519 11.7762 1.18457 11.5752L1.29004 11.4111L1.38379 11.2627C1.3837 11.2584 1.38596 11.2508 1.38379 11.2393L1.29785 10.8018C1.25216 10.5668 1.27025 10.319 1.38379 10.0908L1.46973 9.92285L1.55566 9.75098C1.63655 9.58839 1.7404 9.43984 1.86816 9.30957L2.14941 9.02832C2.19066 8.98629 2.21545 8.94229 2.23145 8.89551L2.29395 8.71191L2.35254 8.52832C2.41598 8.34079 2.51857 8.17334 2.65332 8.02832L2.78613 7.8877L2.91504 7.74707C2.99883 7.65711 3.08183 7.56419 3.16113 7.47363L3.28613 7.33301L3.40723 7.19238C3.49448 7.09275 3.58589 6.9949 3.67676 6.89941L3.93457 6.62598C4.0268 6.52911 4.12226 6.43573 4.21973 6.34473L4.35645 6.21582L4.49316 6.09082C4.53204 6.05454 4.56726 6.00769 4.59473 5.94629L4.67285 5.7627L4.75488 5.58301C4.84745 5.37554 4.99376 5.2048 5.18848 5.08301L5.34863 4.98145L5.5127 4.87988C5.55914 4.85083 5.59797 4.81476 5.62988 4.7666L5.73535 4.60254L5.84082 4.44238C5.96472 4.25472 6.13531 4.11146 6.34082 4.02051L6.5166 3.94238L6.69629 3.86426C6.74315 3.84339 6.77795 3.81285 6.80957 3.77441L6.93457 3.62598L7.05566 3.47754C7.17513 3.33249 7.31801 3.21087 7.48145 3.11816L7.64551 3.02832L7.80957 2.93457C7.88724 2.89047 7.95906 2.83603 8.02832 2.77441L8.17285 2.64941L8.31738 2.52051C8.48728 2.36974 8.68945 2.27739 8.91113 2.24316L9.10645 2.21191L9.30566 2.18066C9.3657 2.17128 9.41231 2.15212 9.4502 2.12598L9.60254 2.02051L9.75879 1.91113C9.87291 1.83239 9.99026 1.75822 10.1104 1.68848L10.4385 1.50098C10.542 1.44087 10.6472 1.37524 10.751 1.30957L10.915 1.20801L11.0791 1.10254C11.2173 1.01535 11.3639 0.943352 11.5166 0.887695L11.6963 0.821289L11.876 0.758789C12.0734 0.687114 12.2788 0.663903 12.4854 0.688477L12.6885 0.711914L12.8877 0.739258C12.9661 0.74859 13.0344 0.741982 13.0908 0.727539L13.4502 0.633789C13.5484 0.608661 13.6484 0.576442 13.7471 0.536133L13.9268 0.461914L14.1064 0.391602C14.2839 0.319247 14.4695 0.278767 14.6611 0.27832H15.0439C15.2019 0.278159 15.3602 0.292166 15.5166 0.321289L15.708 0.360352L15.8955 0.395508C16.0268 0.419953 16.1575 0.445849 16.2861 0.473633L16.3994 0.500977C16.4443 0.446081 16.4906 0.404678 16.5244 0.379883C16.6109 0.316641 16.7083 0.273276 16.79 0.243164L16.9775 0.176758L17.165 0.106445C17.3863 0.0251144 17.6195 0.0142294 17.8486 0.0791016L18.0361 0.129883L18.2236 0.18457C18.2576 0.194103 18.2869 0.194334 18.3213 0.18457L18.6963 0.0751953C18.9273 0.0081808 19.1647 0.0193531 19.3877 0.102539L19.7627 0.243164C19.8182 0.263675 19.8653 0.267405 19.9072 0.262695L20.0947 0.243164L20.2822 0.219727C20.4096 0.205443 20.5377 0.192821 20.665 0.180664L20.8525 0.161133L21.04 0.145508C21.2504 0.125528 21.456 0.157174 21.6494 0.235352L21.8369 0.313477L22.0244 0.387695C22.0532 0.399335 22.0676 0.399457 22.083 0.395508L22.2705 0.344727L22.458 0.297852C22.6051 0.258966 22.7544 0.22954 22.9033 0.211914L23.0908 0.188477L23.2783 0.168945C23.4464 0.149057 23.6147 0.148572 23.7822 0.172852L24.1572 0.227539C24.2444 0.240263 24.3326 0.24242 24.4189 0.235352L24.7939 0.204102C24.9197 0.193653 25.0471 0.186249 25.1729 0.176758L25.3604 0.161133L25.5479 0.149414C25.6605 0.140918 25.7748 0.127109 25.8877 0.110352L26.2627 0.0556641C26.5171 0.0178611 26.7576 0.0777641 26.9658 0.200195L27.3408 0.418945C27.4185 0.464624 27.4834 0.485352 27.5361 0.493164L27.7236 0.520508L27.8877 0.551758C27.8929 0.549135 27.9021 0.541864 27.915 0.532227L28.1025 0.391602L28.29 0.254883C28.4828 0.111757 28.7146 0.011943 28.9775 0.0205078L29.3525 0.0361328C29.4741 0.0402648 29.5982 0.0423134 29.7197 0.0439453L29.9072 0.0478516H30.0947C30.2876 0.050587 30.4751 0.0912405 30.6533 0.165039L31.0283 0.321289C31.0858 0.345129 31.1333 0.351875 31.1729 0.348633L31.5479 0.317383C31.6716 0.307247 31.7952 0.296567 31.9189 0.286133L32.2939 0.254883C32.4339 0.243079 32.5757 0.238403 32.7158 0.239258H33.0908C33.2423 0.240227 33.3936 0.253238 33.5439 0.27832L33.7314 0.30957L33.9189 0.344727C34.0102 0.359973 34.1024 0.364145 34.1924 0.360352L34.5674 0.344727C34.6996 0.339173 34.8336 0.336334 34.9658 0.336914H36.083C36.1819 0.336365 36.2839 0.325687 36.3838 0.30957L36.5713 0.282227L36.7588 0.250977C36.87 0.232996 36.9829 0.207981 37.0947 0.180664L37.2822 0.137695L37.4697 0.0908203L37.665 0.0634766C37.8575 0.056464 38.0422 0.106521 38.208 0.200195L38.3955 0.305664L38.5635 0.407227L38.7236 0.344727L38.9111 0.274414C39.0737 0.213214 39.2408 0.174202 39.4111 0.157227L39.7861 0.118164C39.9669 0.100329 40.1481 0.115715 40.3252 0.157227L40.7002 0.243164C40.8356 0.274933 40.9716 0.31158 41.1064 0.352539L41.2939 0.411133L41.4814 0.46582C41.5312 0.480939 41.5748 0.481731 41.6182 0.473633L41.9932 0.40332C42.1319 0.377114 42.2719 0.35897 42.4111 0.344727L42.7861 0.305664C42.947 0.289214 43.1098 0.29116 43.2705 0.30957L43.458 0.329102L43.6455 0.352539C43.6896 0.357323 43.7378 0.353131 43.7939 0.333008L43.9814 0.262695L44.1689 0.196289C44.3239 0.140824 44.4816 0.101411 44.6416 0.0791016L44.8291 0.0517578L45.0166 0.0283203C45.169 0.00716303 45.3243 -0.00358925 45.4775 0.000976562L45.665 0.00878906L45.8525 0.0126953C45.9709 0.0162137 46.0897 0.0176271 46.208 0.0166016H46.3955L46.583 0.0126953C46.725 0.0114799 46.867 0.0186753 47.0088 0.0322266L47.1963 0.0517578L47.3838 0.0673828C47.5501 0.0833162 47.7156 0.121432 47.876 0.176758L48.0635 0.239258L48.2471 0.305664L48.2549 0.301758L48.6299 0.129883C48.8503 0.0296291 49.0911 0.00283721 49.333 0.0634766L49.708 0.157227C49.8575 0.194812 50.0071 0.245389 50.1533 0.305664L50.3408 0.383789L50.4854 0.442383L50.6455 0.344727L50.833 0.235352L51.0322 0.145508C51.17 0.101508 51.3138 0.0904453 51.458 0.118164L51.6729 0.188477L51.8604 0.27832L52.0479 0.364258C52.0544 0.367323 52.0605 0.37117 52.0635 0.37207H52.0713L52.4463 0.262695C52.6639 0.198817 52.8891 0.198019 53.1064 0.262695L53.4814 0.37207C53.5758 0.400066 53.668 0.418296 53.7588 0.426758L53.9463 0.446289L54.1338 0.461914C54.2316 0.471022 54.3291 0.472494 54.4268 0.46582L54.8018 0.442383C54.912 0.434804 55.0232 0.420425 55.1338 0.40332L55.3213 0.375977L55.5088 0.344727C55.7166 0.312528 55.9245 0.332494 56.1221 0.399414L56.3096 0.46582L56.4971 0.52832C56.5389 0.542524 56.5732 0.543379 56.6064 0.536133L56.7939 0.49707L56.9814 0.454102C57.089 0.430624 57.1968 0.399924 57.3057 0.364258L57.4932 0.305664L57.6807 0.243164C57.8411 0.190605 58.0069 0.155159 58.1729 0.141602L58.5479 0.110352C58.7133 0.0969813 58.8797 0.106814 59.0439 0.133789L59.2314 0.165039L59.4189 0.192383C59.4643 0.199737 59.5106 0.200858 59.5635 0.18457L59.9385 0.0673828C60.1506 0.00155912 60.3709 -0.00752867 60.5869 0.0478516L60.7744 0.0986328L60.9619 0.145508C61.0607 0.170801 61.1583 0.187732 61.2549 0.196289L61.6299 0.227539C61.7164 0.235156 61.8044 0.236139 61.8916 0.223633L62.2666 0.168945C62.5171 0.13316 62.7546 0.190684 62.9619 0.30957L63.1494 0.418945L63.3057 0.508789L63.4502 0.446289L63.6377 0.364258C63.7874 0.298755 63.9402 0.245746 64.0947 0.208008L64.4697 0.114258C64.6242 0.0766325 64.7814 0.0555414 64.9385 0.0478516L65.126 0.0361328L65.3135 0.0283203C65.462 0.0210965 65.6105 0.0257587 65.7588 0.0400391L65.9463 0.0556641L66.1338 0.0751953C66.2943 0.090712 66.4541 0.123975 66.6104 0.172852L66.9854 0.290039C67.0737 0.317705 67.16 0.335297 67.2432 0.34082L67.6182 0.364258C67.7637 0.373754 67.911 0.391586 68.0557 0.418945L68.2432 0.454102L68.415 0.489258C68.417 0.488654 68.4256 0.484334 68.4424 0.473633L68.6299 0.356445L68.8174 0.235352L69.0283 0.137695C69.1045 0.11328 69.1875 0.0988259 69.2744 0.0986328C69.4473 0.0984879 69.6001 0.154968 69.7275 0.235352L69.915 0.352539L70.1025 0.473633C70.1282 0.489896 70.1462 0.495174 70.1533 0.49707C70.1572 0.498098 70.1598 0.497065 70.1611 0.49707L70.5361 0.458008C70.5958 0.452089 70.6659 0.43723 70.7432 0.399414L70.9307 0.305664L71.1182 0.21582C71.3233 0.115506 71.5483 0.0695013 71.7822 0.102539L72.1572 0.157227C72.2757 0.173955 72.3943 0.187856 72.5127 0.200195L72.8877 0.239258C72.982 0.249078 73.0787 0.250855 73.1729 0.243164L73.5479 0.211914C73.6702 0.201911 73.7927 0.192145 73.915 0.180664L74.1025 0.161133L74.29 0.145508C74.447 0.130776 74.6057 0.129908 74.7627 0.145508L74.9502 0.165039L75.1377 0.180664C75.2589 0.192701 75.3798 0.206045 75.501 0.21582L75.876 0.24707C76.0072 0.257649 76.1394 0.270631 76.2705 0.286133L76.458 0.305664L76.6455 0.329102C76.7221 0.338155 76.7983 0.33458 76.876 0.321289L77.251 0.258789C77.4229 0.229192 77.5974 0.222739 77.7705 0.243164L78.1455 0.290039C78.2783 0.305728 78.4113 0.322386 78.5439 0.344727L78.7314 0.375977L78.9189 0.411133C78.9831 0.421951 79.049 0.420447 79.1143 0.407227L79.4893 0.329102C79.6357 0.29953 79.7831 0.279821 79.9307 0.270508L80.3057 0.24707C80.3876 0.241879 80.4722 0.227711 80.5596 0.200195L80.7471 0.137695L80.9346 0.0791016L81.1455 0.0400391C81.3521 0.024202 81.5496 0.0813034 81.7236 0.188477L81.9111 0.301758L82.0986 0.418945C82.1565 0.454553 82.1904 0.45435 82.2041 0.454102H82.3916L82.5791 0.450195C82.6254 0.449182 82.68 0.435188 82.7471 0.40332L82.9346 0.317383L83.1221 0.227539C83.3352 0.126224 83.57 0.0864846 83.8096 0.133789L83.9971 0.172852L84.1846 0.208008C84.3425 0.239234 84.4968 0.290234 84.6494 0.352539L84.8369 0.426758L84.9775 0.489258L85.1416 0.387695L85.3291 0.274414C85.4951 0.17421 85.6824 0.116362 85.8799 0.12207L86.083 0.149414L86.458 0.243164C86.5397 0.263397 86.6186 0.272832 86.6963 0.270508L86.8838 0.262695L87.0713 0.258789C87.2467 0.253453 87.4204 0.275508 87.5908 0.321289L87.7783 0.37207L87.9424 0.418945L87.9502 0.415039L87.9541 0.418945H87.9502L87.9658 0.422852L87.9541 0.418945L87.9502 0.415039L88.3252 0.180664C88.5271 0.0565169 88.7611 -0.0131851 89.0127 0.0126953L89.3877 0.0517578C89.5611 0.069782 89.7312 0.115307 89.8955 0.180664L90.2705 0.329102C90.3374 0.355756 90.398 0.365616 90.4502 0.364258L90.8252 0.356445C90.9139 0.354054 91.0033 0.339155 91.0947 0.317383L91.2822 0.274414L91.4697 0.227539C91.608 0.194538 91.7488 0.170581 91.8877 0.149414L92.0752 0.118164L92.2627 0.0908203C92.4298 0.0654472 92.5988 0.0609748 92.7666 0.0791016L93.1416 0.118164C93.2572 0.130636 93.3738 0.143367 93.4893 0.149414L93.6768 0.157227L93.8643 0.168945C94.057 0.179209 94.2431 0.225613 94.4189 0.305664L94.6064 0.391602L94.7861 0.477539L94.9658 0.40332L95.1533 0.329102C95.3471 0.252418 95.5529 0.221993 95.7627 0.243164L95.9502 0.262695L96.1377 0.27832C96.2788 0.292569 96.4192 0.316482 96.5596 0.344727L96.7471 0.379883L96.9346 0.418945C97.0474 0.441667 97.1621 0.459719 97.2744 0.473633L97.6494 0.520508C97.756 0.533667 97.8636 0.542581 97.9697 0.543945H98.1572L98.3447 0.547852C98.3561 0.547786 98.3865 0.544585 98.4424 0.508789L98.6299 0.387695L98.8174 0.270508C98.9822 0.16501 99.171 0.0999226 99.3721 0.102539L99.5791 0.129883L99.9541 0.21582C100.041 0.236381 100.125 0.247677 100.208 0.24707H100.396L100.583 0.243164C100.74 0.241997 100.897 0.258109 101.052 0.286133L101.239 0.317383L101.427 0.352539C101.475 0.361096 101.522 0.359328 101.575 0.344727L101.763 0.290039L101.95 0.239258C102.21 0.166263 102.469 0.204846 102.696 0.325195L102.884 0.422852L103.071 0.524414C103.091 0.534725 103.102 0.539257 103.106 0.540039C103.11 0.540595 103.114 0.536927 103.118 0.536133L103.493 0.46582C103.622 0.440886 103.751 0.416581 103.88 0.395508L104.255 0.333008C104.358 0.316223 104.463 0.293779 104.567 0.262695L104.755 0.208008L104.942 0.149414C105.141 0.0903145 105.347 0.0803415 105.552 0.118164L105.927 0.188477C106.066 0.214363 106.207 0.243997 106.345 0.282227L106.532 0.336914L106.72 0.387695C106.778 0.403708 106.831 0.407393 106.884 0.399414L107.071 0.368164L107.259 0.34082C107.411 0.317086 107.566 0.307069 107.72 0.30957H107.907L108.095 0.313477C108.268 0.31632 108.439 0.344914 108.606 0.395508L108.794 0.454102L108.938 0.49707L109.114 0.37207L109.302 0.243164L109.513 0.133789C109.591 0.105974 109.676 0.088337 109.767 0.0869141C109.857 0.0854998 109.942 0.100665 110.021 0.125977L110.239 0.231445L110.427 0.356445L110.54 0.43457L110.649 0.37207L110.837 0.262695C111.012 0.161878 111.202 0.0952531 111.403 0.0712891L111.778 0.0244141C111.943 0.00486112 112.11 0.00432505 112.274 0.0244141L112.649 0.0712891C112.837 0.0943688 113.015 0.153459 113.185 0.239258L113.56 0.426758C113.617 0.455959 113.659 0.466244 113.692 0.46582L114.067 0.458008C114.136 0.456652 114.213 0.444245 114.302 0.415039L114.501 0.348633L114.696 0.282227C114.879 0.22154 115.07 0.210333 115.255 0.254883L115.438 0.317383L115.618 0.399414L115.798 0.485352C115.835 0.502346 115.874 0.509019 115.919 0.504883L116.114 0.485352L116.313 0.46582C116.499 0.448714 116.684 0.462652 116.864 0.508789L117.048 0.555664L117.235 0.602539C117.371 0.637273 117.505 0.678644 117.638 0.723633L117.817 0.786133L117.997 0.844727C118.181 0.90726 118.349 1.0074 118.497 1.13379L118.649 1.2627L118.802 1.39551C118.847 1.43395 118.889 1.45176 118.931 1.46191L119.118 1.50879L119.302 1.55176C119.497 1.5985 119.676 1.68834 119.833 1.81348L119.985 1.93066L120.134 2.05176C120.186 2.09348 120.244 2.1221 120.306 2.1416L120.489 2.2002L120.669 2.25879C120.802 2.30066 120.937 2.34747 121.067 2.39941L121.243 2.46973L121.423 2.54004C121.561 2.59522 121.695 2.65915 121.825 2.73145L121.993 2.8252L122.157 2.91504C122.324 3.00774 122.469 3.13145 122.591 3.27832L122.716 3.43066L122.841 3.5791C122.926 3.6825 123.009 3.7877 123.091 3.8916L123.212 4.04395L123.329 4.19629C123.406 4.29424 123.483 4.39105 123.56 4.48535L123.681 4.62988L123.798 4.77441C123.853 4.84236 123.913 4.90514 123.981 4.95801L124.278 5.18457C124.332 5.2262 124.4 5.26821 124.489 5.30176L124.688 5.37598L124.884 5.44629C125.084 5.52118 125.264 5.63844 125.407 5.80176L125.532 5.94629L125.657 6.08691C125.82 6.27255 125.903 6.49844 125.927 6.73145L125.95 6.9502L125.97 7.14551L126.106 7.23145L126.278 7.34082C126.488 7.47254 126.643 7.66543 126.72 7.90723L126.837 8.27441C126.878 8.404 126.915 8.5354 126.95 8.66504L127.001 8.84863L127.052 9.03613C127.053 9.04128 127.057 9.05216 127.083 9.07129L127.251 9.19629L127.419 9.31738C127.598 9.44924 127.741 9.62418 127.825 9.83691L127.896 10.0088L127.962 10.1846C128.012 10.3106 128.061 10.4387 128.103 10.5674L128.22 10.9268C128.276 11.1005 128.304 11.2823 128.302 11.4658L128.298 11.6611L128.294 11.8291L128.454 11.9736L128.618 12.1182C128.733 12.2209 128.833 12.3606 128.876 12.5361C128.918 12.7116 128.893 12.8817 128.841 13.0244L128.763 13.2354L128.688 13.4346L128.771 13.5752L128.868 13.7432C128.951 13.8874 129.018 14.0391 129.067 14.1963L129.122 14.3799L129.181 14.5596C129.233 14.7282 129.258 14.9026 129.259 15.0791V15.458Z" fill="#EDF2F7"/>
</svg>
