<svg width="128" height="128" viewBox="0 0 128 128" fill="none" xmlns="http://www.w3.org/2000/svg">
<path d="M30.4404 14.7295C30.5289 14.7131 30.676 14.7043 30.8389 14.7705C31.0142 14.842 31.1329 14.9707 31.2002 15.0986C31.3074 15.3028 31.2794 15.4921 31.2764 15.5166C31.2645 15.6133 31.2344 15.6869 31.2314 15.6943C31.2223 15.7175 31.2136 15.7365 31.209 15.7461C31.1842 15.7975 31.1428 15.8655 31.1143 15.9131L31.0107 16.0869L30.9062 16.2598C30.872 16.317 30.8262 16.3868 30.7754 16.4512C30.7816 16.4695 30.7889 16.4882 30.7939 16.5078C30.8515 16.7322 30.7945 16.9231 30.7422 17.0361C30.6565 17.2214 30.5124 17.3511 30.4268 17.4219C30.3941 17.764 30.2499 18.0696 30.0078 18.3145L29.8008 18.5234L29.707 18.6172L29.751 18.7334L29.8535 19.0049C29.9766 19.3321 29.9867 19.6745 29.8896 20.0078L29.8076 20.291L29.7246 20.5732C29.7232 20.5781 29.7222 20.5822 29.7217 20.585L29.8506 20.833L29.9795 21.083L29.9844 21.0908L29.9854 21.0918C29.986 21.0922 29.9871 21.093 29.9883 21.0938C29.9918 21.0958 29.9991 21.0994 30.0098 21.1035L30.2852 21.2109L30.5605 21.3174C30.8422 21.4269 31.0941 21.5962 31.293 21.833L31.4629 22.0352L31.6328 22.2383C31.6791 22.2934 31.7326 22.3344 31.7988 22.3652L32.0391 22.4766L32.2803 22.5889C32.3878 22.6389 32.5006 22.6752 32.6191 22.6982L32.8809 22.75L33.1436 22.8008C33.4725 22.8649 33.7543 23.0284 33.9824 23.2578L34.1904 23.4668L34.3701 23.6484L34.6035 23.6279L34.8867 23.6025C35.2612 23.5689 35.61 23.6782 35.9014 23.9023L36.1357 24.082L36.3418 24.2412L36.5879 24.1885L36.8711 24.127C37.0832 24.081 37.2929 24.0466 37.499 24.0244L37.7686 23.9951L38.0371 23.9668L38.1875 23.959C38.5329 23.961 38.8383 24.0994 39.085 24.3086L39.5713 24.7207C39.5764 24.725 39.5812 24.7287 39.585 24.7314L39.8291 24.708L40.1006 24.6816C40.3265 24.6595 40.5527 24.6592 40.7773 24.6807L41.0459 24.7061L41.3135 24.7314C41.3764 24.7374 41.4465 24.73 41.5303 24.6982L41.7988 24.5967L42.0664 24.4951L42.2305 24.4443C42.6105 24.3558 42.9755 24.4602 43.2715 24.6777L43.5342 24.8711L43.7539 25.0332L43.9346 24.9688L44.2021 24.873C44.5064 24.764 44.8265 24.743 45.1445 24.8203L45.4111 24.8857L45.6777 24.9502C45.7301 24.9629 45.7799 24.9621 45.8389 24.9443L46.1064 24.8643L46.373 24.7832C46.5598 24.727 46.7463 24.6757 46.9307 24.6279L47.4561 24.4912C47.7484 24.4154 48.0462 24.4156 48.3379 24.4873L48.8789 24.6201C49.0225 24.6554 49.1626 24.6782 49.2988 24.6885L49.5654 24.708L49.8311 24.7285C49.9037 24.7339 49.9808 24.7242 50.0664 24.6934L50.5918 24.5039C50.9237 24.3842 51.2691 24.3848 51.5986 24.4971L51.8701 24.5898L52.084 24.6621L52.3018 24.5176L52.5566 24.3486L52.7021 24.2637C52.9978 24.1162 53.322 24.0949 53.6338 24.1982L53.7891 24.2598L54.0684 24.3926L54.3486 24.5244C54.4269 24.5613 54.4628 24.5574 54.4736 24.5557L54.7354 24.5137L54.9971 24.4727C55.185 24.4428 55.3757 24.418 55.5684 24.3984L55.8379 24.3711L56.1074 24.3428C56.2013 24.3332 56.3009 24.3071 56.4072 24.2568L56.9307 24.0088C57.2257 23.8693 57.5469 23.8163 57.876 23.8672L58.1455 23.9092L58.416 23.9502C58.5293 23.9677 58.6376 23.9688 58.7422 23.9541L59.2695 23.8799C59.4894 23.8489 59.7114 23.8383 59.9346 23.8486L60.2041 23.8613L60.4746 23.874C60.6478 23.882 60.8188 23.8875 60.9873 23.8906L61.5146 23.9004C61.5858 23.9016 61.6693 23.8887 61.7695 23.8486L62.0391 23.7402L62.3086 23.6328C62.5632 23.531 62.8297 23.474 63.1035 23.4717L63.3701 23.4697L63.6377 23.4668C63.8366 23.4651 64.0361 23.4725 64.2354 23.4883L64.5039 23.5098L64.7715 23.5303C65.0847 23.5551 65.373 23.6658 65.6299 23.833L65.8887 24.002L66.1475 24.1699C66.1561 24.1756 66.1632 24.1793 66.168 24.1816L66.4248 24.1348L66.6943 24.084C66.8959 24.0463 67.0988 24.0183 67.3027 24L67.5752 23.9756L67.8467 23.9512C68.1823 23.9211 68.5023 23.9985 68.7881 24.1641L69.0371 24.3086L69.2861 24.4521C69.3758 24.504 69.4562 24.5299 69.5303 24.5391L69.7949 24.5713L70.0596 24.6045C70.1817 24.6196 70.3085 24.6206 70.4395 24.6074L70.9863 24.5527C71.3153 24.5197 71.6328 24.5871 71.9199 24.7461L72.4102 25.0176C72.4572 25.0436 72.4974 25.0525 72.5449 25.0498L72.8213 25.0332L73.0967 25.0176C73.3183 25.0048 73.539 25.0101 73.7578 25.0332L74.2969 25.0898C74.5011 25.1114 74.7041 25.1439 74.9043 25.1865L75.168 25.2422L75.4316 25.2988C75.721 25.3605 75.9835 25.4884 76.2129 25.6719L76.6543 26.0254C76.6576 26.0256 76.664 26.0261 76.6729 26.0254L76.9697 26.002L77.2666 25.9775C77.6131 25.9501 77.9539 26.0297 78.251 26.2363L78.4766 26.3926L78.7012 26.5488C78.8924 26.6818 79.0701 26.835 79.2334 27.0068L79.4307 27.2148L79.6289 27.4229C79.7188 27.5174 79.8091 27.5894 79.8994 27.6426L80.1279 27.7764L80.3555 27.9111C80.3945 27.9341 80.4541 27.956 80.5508 27.96L80.8486 27.9717L81.1465 27.9844C81.4656 27.9975 81.7665 28.1033 82.0146 28.3125L82.1182 28.4092L82.3105 28.6074L82.5039 28.8057C82.5368 28.8394 82.5762 28.8642 82.6387 28.8799L82.918 28.9502L83.1963 29.0195C83.5305 29.1033 83.8194 29.2856 84.0342 29.5615L84.376 30.001C84.432 30.0728 84.4958 30.1274 84.5703 30.1689L84.8096 30.3018L85.0488 30.4355C85.3326 30.5936 85.5532 30.8235 85.7041 31.1064L85.8379 31.3584L85.9717 31.6094C86.0155 31.6915 86.0667 31.7492 86.123 31.792L86.3369 31.9541L86.5518 32.1172C86.7776 32.2885 86.9592 32.5025 87.0928 32.752L87.3506 33.2344C87.409 33.3433 87.478 33.4385 87.5557 33.5225L87.7354 33.7178L87.915 33.9121C87.9713 33.9729 88.0508 34.0357 88.1641 34.0938L88.6992 34.3672C88.988 34.5151 89.2181 34.7429 89.3535 35.043L89.4053 35.1758L89.4941 35.4414L89.584 35.7061C89.6318 35.8482 89.6881 35.9807 89.7529 36.1035L90.0029 36.5781C90.079 36.7224 90.1599 36.864 90.2451 37.0029L90.3857 37.2314L90.5254 37.46C90.5302 37.4678 90.5352 37.4755 90.54 37.4834H90.5498L90.707 37.4795C90.8657 37.4846 91.0295 37.518 91.1875 37.5928C91.3463 37.668 91.4772 37.7739 91.582 37.8955L91.6787 38.0215L91.8486 38.2744L92.0176 38.5273C92.0765 38.6149 92.1308 38.6576 92.1729 38.6807L92.4062 38.8076L92.6387 38.9355C92.6864 38.9616 92.755 38.9842 92.8574 38.9883L93.1553 39L93.4541 39.0117C93.7714 39.0243 94.0714 39.1284 94.3203 39.334L94.4238 39.4277L94.8145 39.8203C94.914 39.9202 95.0175 40.0062 95.125 40.0791L95.3457 40.2285L95.5654 40.377C95.6709 40.4484 95.7853 40.5103 95.9092 40.5615L96.1611 40.666L96.4131 40.7695C96.6922 40.8849 96.9304 41.0643 97.1201 41.2979L97.2949 41.5127L97.4697 41.7285C97.5153 41.7845 97.5656 41.8215 97.626 41.8477L97.876 41.9561L98.127 42.0645C98.3477 42.16 98.5536 42.2818 98.7422 42.4287L98.9521 42.5918L99.1621 42.7559C99.3081 42.8696 99.4528 42.9865 99.5957 43.1055L99.8018 43.2764L100.007 43.4473C100.099 43.5237 100.201 43.59 100.315 43.6455L100.562 43.7656L100.809 43.8857C101.162 44.0575 101.395 44.3519 101.518 44.6982L101.62 44.9873L101.723 45.2773C101.735 45.3126 101.746 45.3297 101.751 45.3359C101.755 45.341 101.757 45.343 101.76 45.3447L101.987 45.4883L102.215 45.6309C102.308 45.6895 102.422 45.7424 102.561 45.7852L102.847 45.873L103.133 45.9619C103.461 46.0636 103.749 46.2592 103.951 46.5566L104.104 46.7812L104.257 47.0068C104.342 47.1331 104.435 47.2524 104.533 47.3643L104.71 47.5664L104.887 47.7676C105.047 47.9497 105.182 48.1515 105.29 48.3701L105.412 48.6172L105.535 48.8643C105.605 49.0052 105.681 49.1389 105.763 49.2646L106.054 49.7139C106.079 49.7526 106.118 49.7926 106.191 49.8311L106.449 49.9668L106.706 50.1016C107.019 50.2663 107.242 50.5284 107.351 50.8545L107.39 50.998L107.517 51.5684C107.54 51.6725 107.576 51.7462 107.616 51.8008L107.772 52.0137L107.93 52.2275C107.988 52.3072 108.064 52.3842 108.162 52.4561L108.39 52.623L108.618 52.791C108.913 53.0077 109.107 53.3113 109.18 53.6699L109.235 53.9482L109.292 54.2266C109.299 54.2625 109.31 54.2793 109.332 54.2988L109.542 54.4844L109.751 54.6709C110.033 54.9218 110.191 55.2536 110.22 55.6221L110.242 55.9121L110.258 56.1182L110.486 56.25L110.762 56.4102C111.073 56.5906 111.309 56.8732 111.39 57.2422L111.414 57.4062L111.439 57.6895L111.464 57.9717C111.473 58.0792 111.499 58.1688 111.536 58.2451L111.653 58.4844L111.771 58.7246C111.898 58.9851 111.96 59.265 111.962 59.5527L111.964 59.835L111.965 60.084L112.187 60.2822L112.413 60.4854C112.432 60.502 112.449 60.52 112.467 60.5371C112.382 60.5007 112.296 60.4664 112.21 60.4336L111.96 60.3379L111.71 60.2432C111.627 60.2117 111.537 60.1936 111.434 60.1934H111.154L110.876 60.1924C110.545 60.1915 110.235 60.0933 109.964 59.9053L109.733 59.7451L109.503 59.5859C109.345 59.4764 109.188 59.3641 109.031 59.25L108.804 59.084L108.575 58.917C108.545 58.8953 108.525 58.8894 108.493 58.8896L108.213 58.8926L107.934 58.8945C107.688 58.8966 107.446 58.8679 107.211 58.8066L106.952 58.7393L106.694 58.6719C106.448 58.6077 106.216 58.5052 106 58.3682L105.767 58.2207L105.55 58.083C105.547 58.0835 105.543 58.0841 105.539 58.085L105.239 58.1523L104.94 58.2207C104.523 58.3152 104.108 58.2152 103.783 57.916L103.566 57.7158L103.349 57.5146C103.262 57.4345 103.18 57.3859 103.104 57.3564L102.606 57.1611C102.582 57.1518 102.54 57.1421 102.458 57.1582L102.161 57.2168L101.864 57.2744C101.591 57.3282 101.315 57.3371 101.042 57.2891L100.778 57.2432L100.514 57.1963C100.194 57.1398 99.9127 56.9918 99.6777 56.7803L99.459 56.584L99.2402 56.3867C99.1223 56.2805 99.0026 56.1901 98.8828 56.1143L98.6494 55.9658L98.415 55.8184C98.3934 55.8047 98.373 55.7965 98.3301 55.7998L98.0449 55.8223L97.7598 55.8438C97.4241 55.8691 97.0981 55.7936 96.8086 55.6123L96.5752 55.4658L96.3408 55.3193C96.2836 55.2835 96.2276 55.265 96.1641 55.2607L95.8906 55.2432L95.6172 55.2246C95.3462 55.2065 95.0847 55.1391 94.8398 55.0215L94.3535 54.7871C94.324 54.7731 94.2844 54.7622 94.2158 54.7705L93.9258 54.8066L93.6367 54.8418C93.3029 54.8825 92.8294 54.8195 92.5498 54.377L92.4404 54.2031L92.3301 54.0303C92.17 53.7767 92.1106 53.4922 92.1055 53.2227L92.0957 52.6895C92.0922 52.5037 92.0917 52.3176 92.0947 52.1318L92.0996 51.8652L92.1035 51.5986C92.105 51.506 92.09 51.408 92.0547 51.3027L91.9658 51.0361L91.876 50.7695C91.8031 50.5521 91.7508 50.3305 91.7197 50.1074L91.6797 49.8203C91.6579 49.8097 91.6339 49.7978 91.6074 49.7852L91.123 49.5547C91.0271 49.5089 90.9274 49.478 90.8213 49.4629L90.5547 49.4258L90.2881 49.3877C90.1634 49.37 90.0388 49.3663 89.915 49.377L89.6484 49.4004L89.3818 49.4229C89.0504 49.4513 88.736 49.3732 88.4531 49.2236L88.1855 49.082L88.0527 49.0107L87.9053 49.126L87.6504 49.3232C87.358 49.5492 86.9948 49.6802 86.5918 49.625L86.0488 49.5508C85.9245 49.5337 85.8051 49.5318 85.6904 49.5449L85.1631 49.6055C84.981 49.6263 84.7973 49.6451 84.6123 49.6611L84.3438 49.6836L84.0762 49.707C83.8824 49.7238 83.686 49.7345 83.4883 49.7393L83.2139 49.7461L82.9385 49.7529C82.8149 49.7559 82.6981 49.7735 82.5869 49.8057L82.3301 49.8809L82.0723 49.9551C81.9902 49.9788 81.9058 50.0196 81.8184 50.0859L81.5898 50.2598L81.3623 50.4326C81.1551 50.5898 80.929 50.7143 80.6855 50.7988L80.4346 50.8857L80.1826 50.9736C80.0318 51.026 79.8826 51.0837 79.7354 51.1475L79.4902 51.2539L79.2451 51.3594C79.0139 51.4595 78.77 51.5223 78.5186 51.5488L78.2461 51.5781L77.9736 51.6064C77.8567 51.6188 77.7492 51.6459 77.6494 51.6865L77.1572 51.8877C77.0402 51.9354 76.9236 51.9969 76.8086 52.0742L76.5781 52.2285L76.3486 52.3838C76.1522 52.5157 75.9437 52.6245 75.7246 52.709L75.4717 52.8066L75.2188 52.9033C75.0314 52.9755 74.8413 53.04 74.6484 53.0957L74.3877 53.1709L74.1279 53.2461C73.8944 53.3135 73.6541 53.3494 73.4102 53.3545L73.1357 53.3604L72.8604 53.3662C72.6635 53.3703 72.4666 53.3685 72.2705 53.3613L71.9961 53.3516L71.7217 53.3408C71.6584 53.3386 71.5997 53.3507 71.5361 53.3818L71.2852 53.5049L71.0352 53.627C70.7581 53.7626 70.4578 53.8235 70.1484 53.8018L69.6035 53.7627C69.4709 53.7534 69.3421 53.7585 69.2168 53.7764L68.9521 53.8135L68.6875 53.8516C68.4653 53.8833 68.2413 53.8936 68.0166 53.8818L67.748 53.8672L67.4795 53.8535C67.4258 53.8507 67.3652 53.8601 67.29 53.8955L67.0293 54.0186L66.7686 54.1406C66.4141 54.3076 66.0317 54.3171 65.6709 54.1738L65.3994 54.0654L65.1279 53.958C65.1233 53.9562 65.1196 53.9548 65.1172 53.9541L65.1152 53.9551L64.8496 54.0596L64.584 54.165C64.1777 54.3255 63.7671 54.2637 63.4199 54.0508L63.1533 53.8877L62.9141 53.7412L62.7002 53.8193L62.4326 53.916C62.1512 54.0184 61.8548 54.0547 61.5547 54.0117L61.0234 53.9355C60.9447 53.9242 60.8608 53.9277 60.7676 53.9521L60.2246 54.0947C59.8586 54.1907 59.4956 54.1374 59.1729 53.96L58.915 53.8184L58.6787 53.6875L58.4277 53.7764L58.1523 53.873C57.7831 54.0027 57.3992 53.9753 57.0518 53.79L56.7969 53.6543L56.541 53.5176C56.4363 53.4618 56.3401 53.4306 56.251 53.417L55.9873 53.3779L55.7236 53.3379C55.6109 53.3208 55.4938 53.3176 55.3721 53.3311L55.0996 53.3613L54.8281 53.3916C54.5437 53.4231 54.2613 53.3934 53.9902 53.3008L53.4766 53.125C53.315 53.0698 53.1528 53.0184 52.9912 52.9707L52.7334 52.8945L52.4766 52.8184C52.4373 52.8068 52.3876 52.8025 52.3135 52.8213L51.751 52.9639C51.3763 53.0589 51.0005 53.0009 50.6719 52.7939L50.4287 52.6406L50.25 52.5273L50.002 52.6309L49.707 52.751C49.5002 52.8357 49.2573 52.8749 49.002 52.8164C48.7487 52.7583 48.5492 52.6194 48.4004 52.4609L48.1758 52.2217L47.9502 51.9814C47.9318 51.9619 47.918 51.9521 47.9111 51.9473L47.665 51.9336L47.3965 51.918C47.1624 51.9043 46.9325 51.8636 46.709 51.7959L46.4551 51.7197L46.2012 51.6426C46.1028 51.6128 45.9973 51.5971 45.8818 51.5977L45.6064 51.5986L45.3301 51.5996C45.1128 51.6006 44.8974 51.5868 44.6855 51.5566L44.4209 51.5186L44.1562 51.4814C43.8968 51.4445 43.6493 51.3624 43.417 51.2402L43.1729 51.1123L42.9297 50.9844C42.8518 50.9435 42.7724 50.9202 42.6865 50.9131L42.4141 50.8906L42.1406 50.8682C41.8534 50.8443 41.5807 50.758 41.332 50.6113L41.0996 50.4736L40.8662 50.3359C40.7413 50.2622 40.6112 50.1984 40.4775 50.1445L40.2275 50.0439L39.9766 49.9434C39.8856 49.9067 39.7894 49.8856 39.6855 49.8809L39.4121 49.8682L39.1377 49.8555C38.8204 49.8412 38.5232 49.7411 38.2627 49.5596L38.0371 49.4023L37.873 49.2881L37.5645 49.3867L37.2422 49.4883C36.9479 49.5817 36.6192 49.5933 36.3105 49.4609L36.4268 49.71C36.634 50.1585 36.5402 50.6111 36.2783 50.9648L36.0811 51.2314L35.917 51.4521L35.9814 51.623L36.083 51.8896C36.192 52.1769 36.2282 52.4806 36.1787 52.7881L36.0928 53.3213C36.0476 53.6013 35.9424 53.8679 35.7637 54.0996L35.6162 54.29L35.4697 54.4805C35.3274 54.6648 35.1302 54.8 34.8945 54.8594C34.6721 54.9153 34.4584 54.8939 34.2812 54.8486L33.9795 54.7715L33.7549 54.7139L33.6084 54.8545L33.3926 55.0605C33.1092 55.3299 32.7454 55.4682 32.3447 55.4365L32.0586 55.4141L31.7734 55.3916C31.6989 55.3858 31.6466 55.3976 31.6035 55.418L31.3604 55.5332L31.1162 55.6484C30.9808 55.7124 30.8466 55.7858 30.7148 55.8691L30.4814 56.0176L30.2471 56.165C29.935 56.3621 29.5833 56.4232 29.2314 56.3682L28.9385 56.3223L28.6738 56.2803L28.4785 56.4463L28.2568 56.6338C27.9525 56.891 27.578 56.9971 27.1865 56.9424L26.8955 56.9014L26.6309 56.8633L26.4336 57.0352L26.2129 57.2246C25.9375 57.4612 25.5997 57.5883 25.2295 57.5791L24.667 57.5654C24.5965 57.5638 24.5424 57.5769 24.4932 57.6025L24.2529 57.7285L24.0117 57.8545C23.8458 57.9411 23.6783 58.0258 23.5107 58.1074L23.2686 58.2256L23.0254 58.3438C22.802 58.4525 22.5663 58.5271 22.3213 58.5674L21.79 58.6553C21.6237 58.6827 21.458 58.7135 21.2939 58.748L21.0322 58.8027L20.7705 58.8584C20.5947 58.8954 20.4174 58.9318 20.2412 58.9678L19.9795 59.0215L19.7168 59.0752C19.5765 59.1039 19.4385 59.1425 19.3047 59.1914L19.0547 59.2832L18.8037 59.375C18.6921 59.4158 18.5809 59.4719 18.4717 59.5449L18.2402 59.6992L18.0088 59.8545C17.6872 60.0692 17.3195 60.1294 16.9561 60.0615L16.6602 60.0059L16.4277 59.9619L16.2598 60.124L16.0439 60.3301C15.8846 60.4825 15.7002 60.587 15.502 60.6436L15.501 60.6035C15.4864 60.2687 15.5711 59.946 15.7607 59.6631L15.9141 59.4355L16.0664 59.208C16.1478 59.0866 16.2174 58.9623 16.2754 58.8369L16.498 58.3545C16.548 58.2462 16.5871 58.1294 16.6123 58.0039L16.7197 57.4668C16.7888 57.1226 16.9688 56.8315 17.2295 56.6094L17.4492 56.4219L17.6699 56.2344C17.6771 56.2282 17.682 56.2227 17.6846 56.2197C17.6862 56.2178 17.6879 56.2157 17.6885 56.2148C17.6889 56.2141 17.6899 56.2122 17.6904 56.2109C17.6911 56.2088 17.6924 56.204 17.6934 56.1982L17.7373 55.9219L17.7822 55.6445C17.8207 55.4052 17.8863 55.1733 17.9805 54.9531L18.0869 54.7061L18.1924 54.459C18.2566 54.3088 18.3169 54.1535 18.373 53.9951L18.4648 53.7354L18.5566 53.4766C18.6685 53.1612 18.87 52.902 19.1377 52.71L19.3701 52.543L19.6035 52.376C19.6343 52.3538 19.6449 52.336 19.6533 52.3086L19.7363 52.04L19.8193 51.7705L19.8682 51.6348C19.9978 51.328 20.2272 51.0923 20.5215 50.9414L20.7861 50.8057L21.0508 50.6709C21.1095 50.6407 21.1268 50.6146 21.1357 50.5977L21.3877 50.1191C21.5156 49.8758 21.688 49.6639 21.9004 49.4893L22.3184 49.1455C22.3218 49.143 22.3388 49.1298 22.3525 49.0693L22.4199 48.7715L22.4863 48.4746L22.5303 48.3203C22.6523 47.972 22.9084 47.7018 23.2695 47.5625L23.5469 47.4561L23.8242 47.3486C23.9408 47.3037 24.0274 47.2501 24.0918 47.1943L24.293 47.0195L24.4932 46.8457C24.6401 46.7181 24.7934 46.5953 24.9502 46.4785L25.165 46.3184L25.3789 46.1582C25.3872 46.152 25.4121 46.1322 25.4355 46.0596L25.623 45.4775C25.7255 45.1594 25.9112 44.8744 26.1963 44.6689L26.415 44.5117L26.6348 44.3545C26.7151 44.2967 26.7994 44.2449 26.8857 44.1973C26.8609 44.1842 26.8353 44.1726 26.8105 44.1592L26.5664 44.0264L26.3223 43.8945C26.0472 43.7455 25.8249 43.5315 25.6641 43.2637L25.377 42.7852C25.326 42.7002 25.2656 42.6342 25.1963 42.5811L24.9814 42.417L24.7666 42.252C24.4559 42.0143 24.2882 41.6811 24.2344 41.3232L24.1885 41.0186L24.1426 40.7129C24.1402 40.6972 24.1376 40.6871 24.1357 40.6816L23.9287 40.5186L23.7148 40.3477C23.5314 40.2019 23.3658 40.0381 23.2197 39.8564L22.8818 39.4365C22.6683 39.1709 22.5589 38.8572 22.5459 38.5244L22.5352 38.2402L22.5234 37.9561C22.5182 37.821 22.4991 37.7042 22.4688 37.6035L22.3936 37.3564L22.3193 37.1104C22.2734 36.9582 22.2234 36.8062 22.1689 36.6553L21.9932 36.167C21.9178 35.958 21.8647 35.7426 21.834 35.5225L21.7617 35.0088C21.7349 34.8162 21.7173 34.622 21.708 34.4277L21.6953 34.1689L21.6826 33.9092C21.6743 33.7352 21.6666 33.5606 21.6592 33.3857L21.6475 33.125L21.6367 32.8643C21.6326 32.7684 21.6126 32.6577 21.5684 32.5312L21.4717 32.2549L21.374 31.9775C21.2225 31.5444 21.3162 31.1137 21.5977 30.7754L21.7939 30.54L21.9902 30.3037C22.0603 30.2195 22.0841 30.1579 22.0928 30.1182L22.1484 29.8633L22.2031 29.6074C22.2048 29.5992 22.2126 29.5494 22.1709 29.4355L22.0566 29.123L21.9414 28.8105C21.8095 28.451 21.7971 28.0414 22.0127 27.6621L22.1484 27.4229L22.2852 27.1836C22.3394 27.0882 22.377 26.9876 22.3994 26.8809L22.4551 26.6123L22.5117 26.3438C22.5597 26.1146 22.6315 25.8929 22.7275 25.6807L22.9502 25.1885C23.089 24.8818 23.3146 24.644 23.5859 24.4688L23.8467 24.2998L24.1084 24.1309C24.1246 24.1204 24.1325 24.1115 24.1367 24.1074L24.2031 23.8516L24.2715 23.5869C24.3598 23.2429 24.5583 22.9603 24.8359 22.7539L25.0684 22.5811L25.3008 22.4092C25.3734 22.3552 25.4135 22.3026 25.4375 22.2539L25.6719 21.7773C25.7445 21.6299 25.8141 21.4796 25.8799 21.3262L25.9854 21.0781L26.0918 20.8311C26.2011 20.576 26.3582 20.3507 26.5596 20.1602L26.7578 19.9736L26.9551 19.7861C26.9776 19.7648 26.9969 19.7371 27.0098 19.6797L27.0732 19.3984L27.1357 19.1172C27.1946 18.8541 27.2954 18.6064 27.4414 18.3809L27.5859 18.1562L27.7314 17.9316C27.8699 17.7177 28.04 17.5295 28.2383 17.3682L28.4512 17.1953L28.665 17.0215C28.7906 16.9193 28.9159 16.8173 29.041 16.7158L29.042 16.7031C29.0469 16.6038 29.0604 16.3966 29.1582 16.209C29.1953 16.1378 29.2712 16.0199 29.4043 15.9268C29.4154 15.8063 29.4525 15.715 29.4756 15.667C29.5333 15.5471 29.6132 15.4616 29.6484 15.4248L29.7178 15.3516L29.7871 15.2793C29.812 15.2533 29.8349 15.2256 29.8564 15.1963L29.9756 15.0342C29.9831 15.0239 29.9938 15.01 30.0049 14.9961C30.0091 14.9907 30.0401 14.9513 30.083 14.9111C30.0961 14.8989 30.1234 14.8741 30.1611 14.8477C30.1819 14.8331 30.2852 14.7583 30.4404 14.7295ZM30.6299 15.5225C30.5146 15.6601 30.4 15.7978 30.293 15.9414L30.3545 15.9814L30.457 16.0469C30.4939 16.0705 30.5319 16.1018 30.5703 16.1377C30.6209 16.1377 30.6653 16.1344 30.7002 16.1279C30.7416 16.1202 30.7792 16.1088 30.8125 16.0967C30.8185 16.0575 30.8233 16.0137 30.8213 15.9658C30.8145 15.8045 30.7471 15.6468 30.6299 15.5225ZM30.0869 15.3447C29.9915 15.3566 29.9161 15.3876 29.8633 15.4141C29.8618 15.4919 29.8692 15.6223 29.9414 15.7598C29.9492 15.7746 29.9595 15.7889 29.9688 15.8037C30.0838 15.8251 30.176 15.8708 30.2373 15.9082L30.252 15.916L30.2646 15.9238L30.2891 15.9395C30.3964 15.7955 30.5084 15.6546 30.624 15.5166C30.6113 15.5034 30.6008 15.4879 30.5869 15.4756C30.4284 15.3594 30.2449 15.3251 30.0869 15.3447Z" fill="#303A4B"/>
</svg>
