<svg width="128" height="128" viewBox="0 0 128 128" fill="none" xmlns="http://www.w3.org/2000/svg">
<g clip-path="url(#clip0_395_3117)">
<path d="M117.088 78.0894L117.201 78.3315C117.303 78.5508 117.375 78.7818 117.415 79.02L117.458 79.2808L117.5 79.5425C117.532 79.7306 117.558 79.9207 117.578 80.1108L117.605 80.3745L117.632 80.6392C117.649 80.8 117.671 80.9645 117.699 81.1304L117.744 81.3999L117.789 81.6704C117.838 81.9683 117.813 82.2661 117.713 82.5513L117.624 82.8101L117.533 83.0698C117.478 83.2279 117.429 83.385 117.386 83.5396L117.315 83.7954L117.245 84.0513C117.176 84.2983 117.069 84.5302 116.924 84.7427L116.771 84.9673L116.619 85.1929C116.613 85.2011 116.603 85.2156 116.606 85.2661L116.625 85.5601L116.644 85.854C116.67 86.2575 116.527 86.6347 116.215 86.9126L116.004 87.1011L115.798 87.2827L115.796 87.3237L115.792 87.3921C115.798 87.4018 115.805 87.4141 115.815 87.4272L115.991 87.6694L116.167 87.9106C116.214 87.9747 116.254 87.9996 116.285 88.0122L116.536 88.1128L116.788 88.2144C117.044 88.3175 117.273 88.469 117.467 88.6655L117.656 88.8569L117.845 89.0474C117.977 89.1806 118.106 89.316 118.231 89.4526L118.588 89.8433C118.678 89.9407 118.778 90.032 118.889 90.1157L119.106 90.2798L119.322 90.4429C119.495 90.5738 119.658 90.7184 119.81 90.8745L120 91.0698L120.191 91.2661C120.39 91.4707 120.538 91.7111 120.633 91.98L120.724 92.2397L120.816 92.4985C120.84 92.5671 120.88 92.6332 120.944 92.6978L121.146 92.9009L121.349 93.105C121.637 93.3951 121.764 93.7705 121.73 94.1675L121.705 94.4644L121.679 94.7622C121.665 94.9341 121.661 95.0943 121.667 95.2407L121.686 95.7759C121.69 95.8938 121.71 96.0064 121.743 96.1128L121.82 96.3638L121.897 96.6138C121.934 96.7347 121.987 96.8642 122.058 97.0005L122.328 97.5142C122.473 97.7925 122.545 98.0983 122.525 98.4175L122.507 98.688L122.491 98.9595C122.472 99.256 122.383 99.5358 122.237 99.7915L122.093 100.043L121.949 100.296C121.902 100.378 121.885 100.444 121.882 100.499L121.853 101.026C121.836 101.318 121.75 101.595 121.6 101.845L121.461 102.076L121.324 102.307C121.252 102.426 121.194 102.546 121.149 102.665L121.057 102.905L120.966 103.145C120.906 103.303 120.845 103.464 120.786 103.625L120.696 103.868L120.605 104.112C120.582 104.173 120.563 104.269 120.566 104.412L120.574 104.731L120.581 105.05C120.587 105.34 120.514 105.639 120.324 105.887C120.462 105.98 120.59 106.086 120.706 106.208L120.89 106.406L121.075 106.602C121.151 106.683 121.237 106.751 121.334 106.808L121.568 106.946L121.802 107.083C122.083 107.247 122.298 107.483 122.438 107.773L122.558 108.022L122.674 108.263C122.679 108.266 122.69 108.272 122.707 108.279L123.291 108.503C123.63 108.634 123.902 108.879 124.038 109.229L124.087 109.385L124.157 109.663L124.226 109.941C124.25 110.038 124.288 110.117 124.337 110.183L124.501 110.401L124.665 110.62C124.832 110.844 124.95 111.095 125.013 111.368L125.075 111.633L125.137 111.899C125.165 112.017 125.206 112.13 125.263 112.239L125.39 112.482L125.518 112.725C125.668 113.012 125.727 113.326 125.696 113.646L125.641 114.205C125.634 114.279 125.644 114.345 125.669 114.41L125.772 114.667L125.875 114.924C125.974 115.17 126.028 115.428 126.038 115.693L126.046 115.963L126.056 116.235C126.065 116.495 126.031 116.752 125.955 117.001L125.874 117.265L125.793 117.529C125.749 117.673 125.716 117.816 125.695 117.956L125.655 118.217L125.614 118.48C125.573 118.741 125.486 118.99 125.356 119.22L125.222 119.457L125.088 119.694C125.061 119.742 125.046 119.795 125.045 119.862L125.044 120.141L125.043 120.419C125.043 120.657 125.017 120.893 124.964 121.124L124.903 121.392L124.841 121.662C124.759 122.022 124.553 122.315 124.261 122.523L124.022 122.693L123.8 122.85L123.767 123.144L123.732 123.447C123.688 123.825 123.51 124.169 123.184 124.408L122.733 124.738C122.552 124.87 122.36 124.987 122.16 125.088L121.912 125.214L121.663 125.339C121.585 125.379 121.526 125.428 121.479 125.486L121.141 125.906C120.985 126.1 120.803 126.269 120.596 126.409L120.375 126.558L120.156 126.708C119.913 126.872 119.64 126.971 119.351 127.009L118.794 127.083C118.789 127.084 118.785 127.085 118.785 127.085L118.769 127.101L118.388 127.541C118.19 127.769 117.946 127.947 117.659 128.055L117.408 128.15L117.156 128.245C116.978 128.311 116.798 128.375 116.617 128.434L116.359 128.518L116.101 128.603C115.849 128.685 115.588 128.722 115.323 128.712L114.776 128.693C114.697 128.69 114.614 128.703 114.523 128.739L114.256 128.844L113.99 128.949C113.65 129.082 113.291 129.088 112.948 128.961L112.413 128.764C112.192 128.683 111.979 128.58 111.778 128.458L111.533 128.309L111.343 128.194L111.075 128.301L110.776 128.419C110.448 128.548 110.086 128.582 109.726 128.458L109.208 128.281C108.93 128.185 108.687 128.024 108.483 127.816C108.445 127.883 108.413 127.946 108.39 128.006L108.309 128.224L108.228 128.441C108.143 128.668 107.93 128.965 107.525 129.017C107.211 129.057 106.956 128.916 106.828 128.833L106.294 128.488C106.293 128.487 106.292 128.486 106.291 128.485L106.061 128.545L105.793 128.616C105.686 128.644 105.622 128.678 105.587 128.704L105.222 128.973C105.094 129.068 104.952 129.169 104.797 129.276L104.572 129.431L104.347 129.586C104.269 129.64 104.198 129.71 104.136 129.798L103.81 130.263C103.557 130.623 103.177 130.794 102.771 130.806L102.142 130.824C102.005 130.828 101.911 130.852 101.849 130.878L101.61 130.982L101.371 131.084C101.363 131.088 101.324 131.108 101.267 131.195L101.089 131.464L100.913 131.734C100.796 131.911 100.628 132.079 100.396 132.181C100.161 132.284 99.9189 132.293 99.7017 132.25L99.4009 132.19L99.1362 132.137L98.9341 132.309L98.7017 132.505C98.4318 132.733 98.101 132.871 97.73 132.869L97.4546 132.867L97.1792 132.866C96.9042 132.864 96.6351 132.81 96.3784 132.709L96.1079 132.604L95.8384 132.499C95.7269 132.455 95.6297 132.437 95.5454 132.435L95.2837 132.428L95.021 132.421C94.8521 132.417 94.6806 132.413 94.5083 132.413L94.2417 132.412L93.9741 132.411C93.6587 132.409 93.3612 132.319 93.0972 132.153L92.8638 132.005L92.6304 131.859C92.621 131.853 92.6099 131.845 92.5679 131.85L92.2769 131.884L91.9858 131.917C91.6131 131.961 91.2486 131.866 90.9478 131.618L90.7349 131.442L90.522 131.267C90.5169 131.263 90.5016 131.249 90.4409 131.248L90.1343 131.241L89.8276 131.235C89.4785 131.227 89.1422 131.116 88.8638 130.878L88.4438 130.519C88.3217 130.415 88.1945 130.316 88.063 130.224L87.8364 130.066L87.6099 129.909C87.34 129.72 87.1434 129.464 87.021 129.166L86.9106 128.894L86.8306 128.7L86.6763 128.667L86.4146 128.612C86.365 128.602 86.312 128.603 86.2456 128.624L85.979 128.708L85.7124 128.791C85.4403 128.876 85.1575 128.903 84.8735 128.866L84.3403 128.795C84.1499 128.77 83.9582 128.74 83.7681 128.705L83.2349 128.605C83.1944 128.598 83.15 128.598 83.0894 128.622L82.8218 128.725L82.5552 128.828C82.1915 128.968 81.8123 128.95 81.4653 128.789L81.1987 128.664L80.9595 128.552L80.7222 128.658L80.4556 128.777C80.0441 128.96 79.6173 128.909 79.2573 128.685L78.7241 128.353C78.7091 128.344 78.6969 128.338 78.6899 128.335C78.6877 128.334 78.6855 128.333 78.6841 128.333L78.4272 128.38L78.1606 128.429C77.9989 128.459 77.8357 128.495 77.6733 128.536L77.1401 128.67C76.9262 128.724 76.7097 128.76 76.4927 128.779L75.9595 128.824C75.7109 128.845 75.4619 128.829 75.2173 128.777L74.9507 128.719L74.6841 128.663C74.5714 128.639 74.4608 128.631 74.3521 128.639L74.0854 128.659L73.8188 128.679C73.6879 128.689 73.5537 128.711 73.4185 128.748L72.8853 128.892C72.6745 128.949 72.4613 128.991 72.2476 129.015L71.981 129.046L71.7144 129.077C71.5123 129.1 71.3084 129.113 71.106 129.115L70.8394 129.118L70.5728 129.12C70.3641 129.122 70.1547 129.111 69.9468 129.085L69.6802 129.053L69.4136 129.02C69.1514 128.988 68.8982 128.91 68.6577 128.794L68.3911 128.666L68.1245 128.538C68.0138 128.484 67.9148 128.458 67.8276 128.449L67.561 128.421L67.2944 128.395C67.2906 128.395 67.2845 128.395 67.2749 128.397C67.2631 128.4 67.2391 128.409 67.2036 128.43L66.937 128.592L66.6694 128.755C66.339 128.957 65.9483 129.031 65.5503 128.905L65.0171 128.735C64.9304 128.707 64.8522 128.7 64.7778 128.708L64.5112 128.739L64.2446 128.768C63.9929 128.796 63.7403 128.784 63.4917 128.734L63.2251 128.679L62.9585 128.625C62.8391 128.601 62.721 128.593 62.605 128.599L62.0718 128.628C61.8074 128.643 61.5452 128.609 61.2915 128.532L60.7583 128.37C60.6554 128.338 60.5587 128.326 60.4663 128.331L59.9331 128.356C59.7294 128.366 59.5244 128.364 59.3208 128.351L58.7876 128.318C58.6394 128.309 58.4905 128.308 58.3423 128.317L58.0757 128.333L57.8091 128.349C57.7423 128.353 57.6601 128.373 57.5601 128.425L57.2935 128.563L57.0269 128.702C56.7446 128.848 56.4318 128.922 56.104 128.893L55.5708 128.846C55.4157 128.833 55.2598 128.826 55.105 128.828L54.8384 128.831L54.5718 128.833C54.3058 128.835 54.0447 128.788 53.7935 128.698L53.5269 128.603L53.2603 128.507C53.2198 128.493 53.1931 128.493 53.1616 128.502L52.6284 128.655C52.4125 128.717 52.1931 128.76 51.9731 128.783L51.4399 128.839C51.1627 128.868 50.8872 128.839 50.6216 128.756L50.0884 128.59C49.9832 128.558 49.8841 128.545 49.7896 128.548L49.2563 128.566C49.0634 128.572 48.8693 128.572 48.6763 128.566L48.4097 128.557L48.1421 128.548C48.0247 128.545 47.905 128.555 47.7837 128.582L47.5171 128.639L47.2505 128.698C47.0753 128.736 46.8993 128.775 46.7241 128.815L46.1909 128.936C45.9422 128.993 45.6885 129.011 45.4351 128.988L44.9019 128.939C44.7603 128.926 44.6174 128.924 44.4761 128.933L44.2095 128.949L43.9429 128.965C43.5978 128.986 43.2776 128.888 42.9976 128.718L42.73 128.556L42.4634 128.395C42.4289 128.374 42.4067 128.366 42.397 128.364C42.389 128.362 42.3841 128.362 42.3813 128.363L42.1147 128.393L41.8481 128.424C41.8051 128.429 41.788 128.441 41.7749 128.453L41.5835 128.619L41.3921 128.786C41.2382 128.92 41.0713 129.046 40.8931 129.163L40.6626 129.314L40.4321 129.464C40.25 129.584 40.0595 129.69 39.8628 129.781L39.6147 129.896L39.3677 130.01C39.2126 130.082 39.0616 130.156 38.9175 130.232L38.6851 130.354L38.4526 130.475C38.3349 130.537 38.222 130.609 38.1147 130.692L37.9048 130.854L37.6948 131.015C37.5101 131.157 37.3101 131.276 37.0972 131.37L36.6147 131.583C36.5382 131.616 36.4523 131.672 36.3599 131.759L36.1431 131.965L35.9263 132.17C35.6058 132.474 35.1889 132.583 34.7622 132.48L34.1782 132.339C34.1243 132.327 34.1028 132.334 34.0884 132.34L33.8335 132.454L33.5796 132.567C33.2315 132.722 32.861 132.725 32.5132 132.592L32.2437 132.489L32.0269 132.406L31.77 132.56L31.4937 132.726C31.3203 132.83 31.1128 132.907 30.8804 132.915C30.6441 132.922 30.4258 132.856 30.2388 132.747L29.7329 132.45C29.67 132.413 29.6198 132.402 29.5728 132.403L29.2954 132.407L29.0181 132.412C28.59 132.418 28.2346 132.221 27.9839 131.918L27.7847 131.678L27.6558 131.523L27.436 131.566L27.1187 131.627C26.9102 131.668 26.6699 131.666 26.4331 131.568C26.1932 131.468 26.0186 131.297 25.9009 131.108L25.7388 130.848L25.5776 130.588C25.5086 130.478 25.442 130.409 25.3853 130.367L25.1763 130.211L24.9683 130.055C24.8589 129.973 24.7414 129.898 24.6157 129.831L24.145 129.579C23.8789 129.436 23.6606 129.232 23.5005 128.976L23.3579 128.749L23.2876 128.637L23.064 128.644L22.7485 128.652C22.5564 128.657 22.3833 128.669 22.23 128.687L21.9624 128.718L21.6958 128.749C21.4456 128.777 21.1945 128.768 20.9468 128.72L20.6802 128.668L20.4136 128.618C20.3614 128.608 20.307 128.609 20.2417 128.631L19.9751 128.721L19.7085 128.812C19.551 128.865 19.224 128.94 18.9058 128.747C18.6164 128.57 18.5262 128.289 18.4976 128.099C18.299 128.153 18.096 128.19 17.8901 128.205L17.6206 128.224L17.3521 128.244C17.2226 128.253 17.0969 128.275 16.9761 128.31L16.4663 128.458C16.3359 128.497 16.1987 128.549 16.0562 128.617L15.7944 128.741L15.5337 128.864C15.1859 129.028 14.8075 129.045 14.4468 128.908L14.1782 128.805L13.9097 128.704C13.8616 128.685 13.8222 128.683 13.7759 128.694L13.4976 128.758L13.2202 128.823C12.8362 128.912 12.4595 128.836 12.1392 128.618L11.897 128.453L11.6558 128.288C11.5924 128.245 11.5418 128.23 11.4966 128.227L10.9517 128.192C10.6155 128.17 10.3096 128.044 10.0542 127.83L9.62646 127.47C9.55944 127.414 9.49221 127.38 9.42236 127.361L9.16357 127.29L8.90381 127.219C8.72151 127.169 8.53706 127.114 8.35205 127.055L7.82275 126.885C7.49413 126.78 7.22368 126.576 7.02979 126.293L6.86963 126.061L6.70947 125.828C6.63708 125.722 6.5587 125.636 6.47607 125.567L6.27393 125.397L6.0708 125.226C5.9647 125.137 5.84634 125.053 5.71631 124.973L5.47705 124.827L5.23877 124.681C4.95835 124.51 4.74223 124.267 4.60791 123.965L4.49561 123.712L4.3833 123.46C4.30528 123.285 4.23087 123.11 4.16064 122.937L4.05908 122.688L3.9585 122.44C3.9092 122.319 3.849 122.204 3.77783 122.097L3.48291 121.656C3.33796 121.438 3.23385 121.2 3.17334 120.946L3.05029 120.428C3.00215 120.226 2.96787 120.02 2.94678 119.814L2.91943 119.552L2.89307 119.29C2.88828 119.243 2.87195 119.189 2.82568 119.122L2.6626 118.886L2.50049 118.651C2.29794 118.356 2.20703 118.01 2.25635 117.646L2.29248 117.376L2.32959 117.106C2.34508 116.991 2.34354 116.881 2.32764 116.774L2.24951 116.247C2.2169 116.027 2.20453 115.806 2.21338 115.584L2.23486 115.053C2.24674 114.759 2.32966 114.481 2.47217 114.226L2.74365 113.742C2.80911 113.625 2.85561 113.512 2.88623 113.405L2.95654 113.157L3.02686 112.91C3.05796 112.8 3.07817 112.68 3.08447 112.549L3.09717 112.277L3.10986 112.003C3.1233 111.724 3.1929 111.454 3.3208 111.205L3.44189 110.97L3.56201 110.735C3.67248 110.519 3.8117 110.321 3.97705 110.143L4.15967 109.948L4.34131 109.751C4.41247 109.675 4.46986 109.591 4.51318 109.499L4.62549 109.258L4.73779 109.017C4.83678 108.805 4.96043 108.608 5.10693 108.426L5.27197 108.22L5.43799 108.015C5.5186 107.915 5.59452 107.801 5.66357 107.672L5.9292 107.176C6.09388 106.869 6.34774 106.636 6.67041 106.5L6.92822 106.392L7.18506 106.284C7.21361 106.272 7.24285 106.252 7.27588 106.2L7.59229 105.698C7.63354 105.632 7.68008 105.564 7.729 105.498L7.68896 105.462C7.43013 105.237 7.26163 104.944 7.19385 104.61L7.08252 104.059C7.06112 103.953 7.02569 103.863 6.97803 103.786L6.8374 103.558L6.69775 103.33C6.61224 103.19 6.51929 103.048 6.41943 102.905L6.25732 102.673L6.09619 102.442C5.93676 102.213 5.82475 101.96 5.76514 101.687L5.64795 101.152C5.58656 100.871 5.58786 100.585 5.64697 100.304L5.70654 100.024L5.76514 99.7437C5.78049 99.6707 5.77663 99.6115 5.75928 99.5552L5.67725 99.2905L5.59619 99.0269C5.48358 98.662 5.52635 98.2943 5.69482 97.9663L5.82959 97.7056L5.94385 97.4819L5.83057 97.2202L5.70752 96.9341C5.55419 96.5777 5.53836 96.18 5.72217 95.8042L5.84424 95.5532L5.96729 95.3022C6.01049 95.214 6.03604 95.123 6.04443 95.0259L6.06787 94.7485L6.09229 94.4712C6.11711 94.1829 6.20299 93.908 6.34912 93.6577L6.62646 93.1831C6.69967 93.0578 6.7625 92.9269 6.81494 92.7915L6.91455 92.5356L7.01318 92.2788C7.10702 92.0365 7.23874 91.8136 7.40479 91.6138L7.58057 91.4019L7.75537 91.1909C7.86574 91.0581 7.97326 90.9235 8.07666 90.7876L8.2417 90.5708L8.40576 90.354C8.53954 90.1781 8.68784 90.0138 8.84912 89.8628L9.04834 89.6772L9.24658 89.4917C9.3642 89.3816 9.47791 89.2651 9.5874 89.144L9.77197 88.9399L9.95654 88.7368C10.1724 88.4981 10.443 88.3349 10.7485 88.2476L11.0239 88.1685L11.2993 88.0903C11.3232 88.0835 11.34 88.0739 11.3647 88.0396L11.7104 87.5591C11.7772 87.4661 11.8511 87.3744 11.9321 87.2896C11.6888 87.0795 11.5224 86.8027 11.4614 86.4751L11.4116 86.2026L11.3608 85.9312C11.3293 85.7615 11.2943 85.5962 11.2563 85.437L11.1333 84.9214C11.1117 84.8313 11.0736 84.7401 11.0142 84.647L10.8638 84.4116L10.7144 84.1772C10.4974 83.8371 10.4544 83.4488 10.5649 83.0757L10.6479 82.7944L10.7319 82.5142C10.7554 82.4347 10.751 82.3847 10.7427 82.3511L10.6792 82.0952L10.6157 81.8403C10.5613 81.6221 10.5299 81.3989 10.522 81.1743L10.5122 80.9116L10.5034 80.6489C10.4979 80.4928 10.4865 80.3328 10.4683 80.1704L10.438 79.8999L10.4067 79.6304C10.3769 79.3638 10.3963 79.0976 10.4653 78.8384L10.5347 78.5796L10.5366 78.5718L10.6187 78.6128C10.7959 78.7003 10.9759 78.7835 11.1567 78.8618L11.4116 78.9722L11.6675 79.0825C11.8706 79.1704 12.08 79.2429 12.2944 79.2993L12.5649 79.3706L12.8345 79.4419C13.0841 79.5075 13.3403 79.5339 13.5981 79.522L13.8774 79.5093L14.1558 79.4966C14.4113 79.4848 14.6616 79.4352 14.9028 79.3501L15.1675 79.2573L15.2876 79.2144C15.3434 79.3987 15.4178 79.5767 15.5112 79.7466L15.771 80.2192C15.8258 80.3189 15.8648 80.4221 15.8892 80.5298L15.9487 80.7896L16.0073 81.0503C16.059 81.2786 16.1376 81.4981 16.2417 81.7075L16.3599 81.9458L16.478 82.1831C16.512 82.2515 16.535 82.3332 16.5415 82.4341L16.5601 82.7163L16.5776 82.9995C16.5922 83.2239 16.6237 83.4453 16.6724 83.6616L16.7329 83.9312L16.7935 84.1997C16.8474 84.4391 16.932 84.6684 17.0464 84.8843L17.1724 85.1226L17.2993 85.3618C17.4503 85.6466 17.6744 85.8685 17.9409 86.0327L18.4604 86.353C18.5446 86.4049 18.5811 86.4512 18.5991 86.4839L18.855 86.9487C18.9243 87.0744 18.9863 87.2072 19.0396 87.3462L19.1362 87.6001L19.2339 87.854C19.3499 88.1571 19.5467 88.4072 19.8062 88.5952L20.0347 88.7603L20.2632 88.9263C20.2675 88.9294 20.2694 88.9315 20.27 88.9321V88.9312L20.271 88.9331C20.2721 88.9358 20.2738 88.9423 20.2759 88.9517L20.3374 89.2358L20.3999 89.52C20.456 89.7778 20.5483 90.0224 20.6812 90.2476L20.9565 90.7144C21.1376 91.0211 21.4094 91.2326 21.7241 91.3589L22.0054 91.4722L22.2866 91.5845C22.3559 91.6123 22.3738 91.6377 22.3804 91.6479L22.5249 91.8735L22.6704 92.0991C22.7875 92.2814 22.9178 92.4533 23.062 92.6138L23.2397 92.811L23.4175 93.0093C23.5356 93.1407 23.6539 93.272 23.772 93.4038L23.9497 93.603L24.1274 93.8013C24.2571 93.9461 24.392 94.0861 24.5317 94.2212L24.7231 94.4067L24.9146 94.5913C25.064 94.7358 25.2231 94.8711 25.3901 94.9956L25.604 95.1548L25.8188 95.3149C25.9257 95.3947 26.0245 95.4841 26.1147 95.5825L26.2954 95.7788L26.4761 95.9761C26.5868 96.0969 26.6951 96.2225 26.8003 96.3521L27.1421 96.7739C27.3162 96.9883 27.5282 97.1619 27.772 97.2915L28.0112 97.4194L28.2515 97.5464C28.3027 97.5736 28.3478 97.6129 28.3892 97.6753L28.5444 97.9106L28.7007 98.146C28.898 98.4437 29.1813 98.6513 29.5229 98.7515L29.7954 98.8306L30.0679 98.9106C30.2127 98.9531 30.3464 99.0051 30.4683 99.0649L30.7085 99.1831L30.9497 99.3022C30.952 99.3032 30.9744 99.3125 31.0063 99.3765L31.144 99.6519L31.2817 99.9282C31.4434 100.252 31.7043 100.514 32.0669 100.648L32.5806 100.837C32.6894 100.878 32.7876 100.931 32.8765 100.997L33.0923 101.157L33.3091 101.317C33.4732 101.439 33.6433 101.551 33.8188 101.655L34.0493 101.791L34.2808 101.926C34.5237 102.069 34.7892 102.156 35.0679 102.191L35.353 102.226L35.6372 102.262C35.6943 102.269 35.726 102.286 35.7524 102.309L35.9595 102.489L36.1665 102.667C36.3368 102.815 36.5187 102.946 36.7114 103.059L36.9429 103.194L37.1733 103.33C37.3785 103.45 37.5968 103.543 37.8257 103.61L38.3452 103.76C38.51 103.808 38.6736 103.858 38.8345 103.912L39.3423 104.08C39.4149 104.104 39.4867 104.143 39.5591 104.208L39.77 104.395L39.9819 104.583C40.1651 104.745 40.3645 104.883 40.5796 104.993L40.8188 105.115L41.0581 105.238C41.2531 105.338 41.4564 105.421 41.6655 105.487L41.9224 105.567L42.1782 105.648C42.3813 105.712 42.5894 105.761 42.8003 105.796L43.0679 105.841L43.3354 105.885C43.4755 105.908 43.6114 105.943 43.7427 105.988L44.2505 106.162C44.3661 106.201 44.4797 106.254 44.5903 106.324L44.8237 106.47L45.0571 106.618C45.2812 106.758 45.5245 106.858 45.7827 106.914L46.3101 107.027C46.5558 107.08 46.8072 107.095 47.0601 107.076L47.3423 107.054L47.6255 107.032C47.7336 107.024 47.8272 107.035 47.9106 107.059L48.1665 107.133L48.4233 107.208C48.6075 107.261 48.7932 107.31 48.98 107.352L49.2397 107.412L49.4995 107.47C49.6195 107.498 49.7385 107.54 49.8569 107.596L50.105 107.714L50.3521 107.833C50.6572 107.978 50.9858 108.017 51.313 107.959L51.5952 107.909L51.8774 107.859C51.8845 107.858 51.8893 107.857 51.8911 107.857C51.8926 107.858 51.8961 107.86 51.9019 107.864L52.3882 108.167C52.7173 108.372 53.0918 108.426 53.4634 108.333L53.7466 108.261L54.0288 108.19C54.1641 108.156 54.2882 108.141 54.4009 108.141L54.6675 108.143L54.9351 108.145C54.942 108.145 54.9694 108.144 55.0288 108.188L55.2739 108.37L55.52 108.55C55.8276 108.777 56.2015 108.881 56.5991 108.803L56.8726 108.75L57.147 108.695C57.2724 108.67 57.3915 108.662 57.5044 108.669L57.77 108.687L58.0356 108.704C58.1895 108.713 58.3437 108.731 58.4966 108.755L58.7603 108.798L59.0239 108.84C59.2319 108.874 59.4416 108.893 59.6519 108.897L59.9185 108.903L60.1841 108.908C60.2949 108.91 60.4083 108.928 60.5249 108.962L60.7896 109.042L61.0532 109.12C61.2505 109.178 61.4495 109.228 61.6489 109.267L61.9136 109.319L62.1792 109.371C62.3748 109.409 62.5721 109.439 62.77 109.461L63.0386 109.491L63.3062 109.521C63.6431 109.559 63.965 109.484 64.2534 109.333L64.7886 109.049C64.9117 108.984 65.0232 108.947 65.1216 108.928L65.6509 108.829C65.8056 108.8 65.9604 108.778 66.1138 108.764L66.3774 108.739L66.6421 108.714C66.7748 108.702 66.9095 108.702 67.0454 108.713L67.5806 108.76C67.8145 108.781 68.0484 108.773 68.2798 108.738L68.5425 108.697L68.8052 108.657C68.915 108.64 69.0283 108.638 69.146 108.652L69.4165 108.683L69.686 108.715C69.8003 108.729 69.9255 108.759 70.061 108.812L70.3403 108.92L70.6196 109.03C70.954 109.16 71.3156 109.176 71.6665 109.043L71.9253 108.946L72.1831 108.848C72.3317 108.792 72.4806 108.745 72.6284 108.707L72.8892 108.639L73.1489 108.572C73.3327 108.524 73.5163 108.472 73.6978 108.417L73.9556 108.337L74.2124 108.258C74.317 108.226 74.4244 108.209 74.5356 108.208L75.0767 108.205C75.2334 108.203 75.3935 108.21 75.5552 108.224L75.8306 108.249L76.1069 108.273C76.3504 108.295 76.5933 108.285 76.8325 108.244L77.0981 108.198L77.3628 108.151C77.7297 108.087 78.0275 107.889 78.2554 107.632L78.6909 107.142C78.7217 107.107 78.7426 107.092 78.7505 107.087H78.7485L79.0122 107.046L79.2759 107.006C79.3514 106.995 79.4456 106.996 79.564 107.023L79.8569 107.091L80.1509 107.159C80.5555 107.252 80.9576 107.163 81.2837 106.891L81.5083 106.705L81.7329 106.517C81.8426 106.425 81.9514 106.354 82.0571 106.302L82.2983 106.184L82.5396 106.065C82.557 106.056 82.587 106.045 82.6538 106.055L83.2417 106.143C83.5494 106.189 83.8609 106.162 84.1567 106.042L84.4048 105.941L84.6528 105.839C84.7504 105.8 84.8561 105.774 84.9712 105.764L85.522 105.715C85.8652 105.685 86.1724 105.545 86.4243 105.318L86.6372 105.125L86.8501 104.934C86.8646 104.921 86.8747 104.916 86.8784 104.915C86.8816 104.913 86.8898 104.911 86.9058 104.91L87.187 104.895L87.4692 104.88C87.8379 104.862 88.1662 104.711 88.4233 104.453L88.6265 104.248L88.8306 104.042C88.9111 103.962 88.9904 103.908 89.0669 103.873L89.3081 103.762L89.5503 103.652C89.7763 103.548 89.9843 103.412 90.1724 103.247L90.3794 103.064L90.5874 102.881C90.6552 102.822 90.7253 102.783 90.7993 102.759L91.0542 102.677L91.3081 102.594C91.4428 102.551 91.5869 102.516 91.7388 102.491L92.0161 102.444L92.2935 102.398C92.5852 102.349 92.8577 102.236 93.0962 102.057L93.311 101.895L93.5259 101.734C93.5702 101.701 93.627 101.674 93.7095 101.661L93.9937 101.616L94.2769 101.57C94.5427 101.527 94.7967 101.443 95.0308 101.312L95.2651 101.18L95.4995 101.049C95.7637 100.901 95.977 100.692 96.1411 100.443L96.4634 99.9526C96.5366 99.8413 96.615 99.7545 96.6938 99.688L97.1021 99.3442C97.1268 99.3234 97.1687 99.2984 97.2515 99.2856L97.5474 99.2397L97.8423 99.1948C98.131 99.1504 98.4052 99.0502 98.6499 98.8853L98.8735 98.7349L99.0962 98.5845C99.3147 98.4369 99.5033 98.2535 99.6597 98.0405L99.9897 97.5913C100.045 97.5166 100.107 97.4616 100.176 97.4204L100.409 97.2827L100.642 97.145C100.903 96.991 101.113 96.7782 101.268 96.521L101.414 96.2788L101.559 96.0376C101.571 96.0172 101.582 96.0063 101.613 95.9946L101.881 95.895L102.15 95.7944C102.505 95.6618 102.777 95.4083 102.936 95.0659L103.058 94.8052L103.179 94.5435C103.248 94.3957 103.323 94.2587 103.402 94.1333L103.693 93.6743L103.695 93.6714L103.697 93.6704C103.7 93.6682 103.713 93.6587 103.744 93.6489L104.322 93.4634C104.621 93.3676 104.893 93.2046 105.106 92.9604L105.282 92.7583L105.458 92.5571C105.613 92.3794 105.746 92.183 105.856 91.9722L105.983 91.729L106.11 91.4849C106.151 91.4064 106.204 91.3423 106.269 91.2886L106.689 90.9429C106.964 90.717 107.133 90.4164 107.205 90.0815L107.267 89.7935L107.329 89.5054C107.33 89.4999 107.331 89.4946 107.332 89.4917L107.563 89.3325L107.795 89.1724C108.096 88.9648 108.298 88.668 108.381 88.314L108.447 88.0376L108.512 87.7603C108.52 87.7293 108.529 87.7173 108.548 87.7017L108.768 87.5259L108.988 87.3511C109.279 87.1191 109.456 86.8017 109.509 86.438L109.55 86.1548L109.583 85.9233L109.823 85.7827L110.089 85.6255C110.357 85.4677 110.586 85.2532 110.745 84.9761L110.878 84.7427L111.012 84.5103C111.154 84.263 111.236 83.9927 111.264 83.7104L111.292 83.4272L111.32 83.145C111.334 82.9984 111.36 82.8616 111.397 82.7358L111.472 82.48L111.547 82.2231C111.58 82.1109 111.627 82.0034 111.688 81.9009L111.963 81.438C112.079 81.2436 112.176 81.0392 112.25 80.8267L112.426 80.3247C112.456 80.239 112.505 80.1493 112.579 80.0571L112.938 79.6079C112.997 79.5343 113.043 79.456 113.082 79.3774C113.279 79.389 113.477 79.3728 113.672 79.3286L113.938 79.269L114.203 79.2085C114.314 79.1833 114.43 79.1738 114.55 79.1802L115.105 79.2095C115.495 79.2301 115.847 79.0893 116.122 78.8276L116.333 78.6265L116.542 78.4253C116.65 78.3227 116.754 78.2435 116.85 78.1851L117.069 78.0522L117.07 78.0513L117.088 78.0894ZM70.7993 12.3071C71.1217 12.2057 71.4576 12.2281 71.771 12.3706L72.3042 12.6128C72.4267 12.6684 72.5411 12.7023 72.6479 12.7183L72.9146 12.7573L73.1812 12.7974C73.2764 12.8116 73.3718 12.81 73.4692 12.7905L73.7368 12.7368L74.0034 12.6831C74.2141 12.6409 74.4266 12.6142 74.6392 12.603L74.9058 12.5884L75.1724 12.5747C75.3929 12.5631 75.6139 12.571 75.8335 12.5991L76.3667 12.6675C76.405 12.6723 76.4528 12.6697 76.522 12.6392L77.0552 12.4028C77.3957 12.2525 77.7643 12.2354 78.1196 12.3647L78.3862 12.4614L78.6528 12.5591C78.7926 12.61 78.9297 12.6465 79.063 12.6694L79.3286 12.7153L79.5952 12.7603C79.6849 12.7756 79.7738 12.7749 79.8657 12.7563L80.1323 12.7026L80.3989 12.6479C80.6403 12.5991 80.8849 12.5842 81.1294 12.604L81.395 12.6255L81.6597 12.647C81.7703 12.6559 81.8857 12.6494 82.0063 12.6265L82.5493 12.5229C82.898 12.4567 83.2392 12.5165 83.5454 12.6821L83.7993 12.8188L84.0435 12.9517L84.3188 12.8657L84.5991 12.7798C84.9239 12.68 85.2573 12.6973 85.564 12.8364L85.6938 12.9028L86.188 13.1919C86.2747 13.2424 86.3532 13.2663 86.4253 13.2749L86.689 13.3062L86.9536 13.3384C87.1937 13.367 87.4274 13.4273 87.6519 13.519L87.9019 13.6216L88.1509 13.7231C88.2525 13.7647 88.3565 13.7911 88.4644 13.8013L88.7319 13.8257L88.9985 13.8511C89.124 13.8628 89.2598 13.8617 89.4058 13.8452L89.6929 13.813L89.98 13.7798L90.147 13.772C90.5293 13.778 90.8578 13.9568 91.0952 14.2397L91.2983 14.4829L91.3989 14.603L91.5786 14.5464L91.894 14.4458C92.0979 14.3812 92.3378 14.3556 92.5854 14.4243C92.7742 14.4768 92.9317 14.5742 93.0581 14.6938L93.1753 14.8198L93.3696 15.062L93.5503 15.2856L93.7876 15.2896L94.0737 15.2944C94.3658 15.2988 94.6492 15.3643 94.9116 15.4985L95.1509 15.6206L95.3901 15.7437C95.5304 15.8154 95.6741 15.8801 95.8198 15.939L96.0679 16.0396L96.3169 16.1401C96.5316 16.2268 96.7354 16.3372 96.9263 16.4692L97.1479 16.6226L97.3706 16.7759C97.4792 16.851 97.5934 16.9143 97.7134 16.9653L97.9604 17.0708L98.2075 17.1753C98.4932 17.297 98.7299 17.4895 98.9155 17.7319L99.0913 17.9604L99.2661 18.1899C99.2783 18.2058 99.2862 18.2105 99.2876 18.2114C99.2891 18.2123 99.2945 18.2154 99.3071 18.2183L99.5806 18.2798L99.855 18.3413C100.224 18.4242 100.525 18.6388 100.728 18.9497L100.886 19.1929L101.045 19.4351C101.067 19.4685 101.079 19.4734 101.093 19.478L101.356 19.5649L101.619 19.6509C101.795 19.7089 101.973 19.7687 102.151 19.8286L102.417 19.9175L102.683 20.0073C103.083 20.142 103.356 20.4368 103.498 20.8022L103.61 21.0913L103.713 21.3589L104.206 21.5229C104.422 21.595 104.63 21.6838 104.828 21.7896L105.07 21.9194L105.312 22.0483C105.594 22.1991 105.817 22.4205 105.975 22.6958L106.115 22.939L106.253 23.1821C106.328 23.313 106.41 23.4328 106.498 23.5405L106.833 23.9565C106.91 24.0506 106.996 24.1347 107.093 24.2085L107.307 24.3706L107.521 24.5337C107.647 24.6292 107.779 24.7212 107.918 24.8091L108.152 24.9565L108.386 25.104C108.724 25.3176 108.923 25.6442 108.999 26.0112L109.059 26.311L109.096 26.4956L109.303 26.5581L109.609 26.6509C109.955 26.7555 110.251 26.9784 110.413 27.3218L110.474 27.4771L110.561 27.7485L110.649 28.02C110.697 28.1678 110.753 28.3045 110.816 28.4302L110.937 28.6714L111.058 28.9116C111.064 28.9225 111.078 28.9473 111.139 28.979L111.407 29.1177L111.675 29.2554C111.931 29.3877 112.158 29.5649 112.34 29.7905L112.509 30.0005L112.679 30.2114C112.897 30.4817 113.004 30.8011 113.023 31.1323L113.04 31.436L113.057 31.7407C113.065 31.8868 113.09 32.0093 113.125 32.1108L113.211 32.3657L113.299 32.6216C113.335 32.7249 113.384 32.8187 113.446 32.9038L113.603 33.1187L113.76 33.3345C113.863 33.4752 113.968 33.6165 114.074 33.7573L114.236 33.9731L114.398 34.188C114.528 34.3613 114.644 34.5442 114.745 34.7349L114.87 34.9702L114.994 35.2065C115.046 35.3057 115.116 35.4036 115.205 35.4995L115.396 35.7075L115.588 35.9155C115.869 36.2191 115.974 36.6012 115.929 36.9907L115.895 37.2935L115.866 37.5415L116.039 37.7017L116.257 37.9048C116.485 38.1164 116.659 38.3763 116.75 38.6821L116.828 38.9399L116.905 39.1968C116.985 39.4651 117.006 39.743 116.977 40.021L116.948 40.3101L116.918 40.5845L117.102 40.7964L117.294 41.019C117.478 41.2317 117.619 41.4728 117.707 41.7397L117.792 41.9956L117.875 42.2515C117.976 42.5585 117.98 42.8748 117.909 43.1812L117.841 43.4712L117.784 43.7114L117.945 43.9126L118.133 44.147C118.366 44.4362 118.486 44.7908 118.447 45.1772L118.417 45.4546L118.389 45.7319C118.375 45.8688 118.375 46.0001 118.389 46.1245L118.418 46.3892L118.448 46.6548C118.467 46.8308 118.488 47.0076 118.507 47.1841L118.537 47.4507L118.566 47.7163C118.59 47.9356 118.595 48.1568 118.581 48.3774L118.563 48.646L118.544 48.9136C118.536 49.0352 118.543 49.1564 118.564 49.2759L118.611 49.5396L118.657 49.8042C118.687 49.9748 118.719 50.1465 118.753 50.3179L118.807 50.5835L118.86 50.8481C118.91 51.1 118.918 51.3561 118.886 51.6108L118.853 51.8794L118.819 52.147C118.797 52.3208 118.777 52.4948 118.758 52.6675L118.702 53.2007C118.678 53.4219 118.634 53.6421 118.571 53.8589L118.415 54.3921C118.404 54.4284 118.404 54.458 118.417 54.4995L118.507 54.7661L118.596 55.0327C118.668 55.2455 118.721 55.4618 118.756 55.6792L119.014 57.2788C119.045 57.4707 119.07 57.6637 119.089 57.856L119.142 58.3892C119.172 58.6885 119.125 58.9816 119.014 59.2573L118.799 59.7905C118.733 59.9551 118.673 60.12 118.619 60.2837L118.53 60.5513L118.445 60.8042C118.445 60.8052 118.446 60.807 118.447 60.8081L118.512 60.9409C118.285 60.7957 118.031 60.7117 117.764 60.6851L117.176 60.6265C117.054 60.6142 116.965 60.5867 116.902 60.5552L116.674 60.4409L116.447 60.3257C116.343 60.2735 116.232 60.2038 116.119 60.1138L115.897 59.938L115.674 59.7622C115.615 59.7153 115.554 59.6713 115.491 59.6304C115.418 59.6139 115.346 59.598 115.274 59.5796L115.015 59.5142L114.757 59.4468C114.573 59.3995 114.388 59.3479 114.205 59.2905L113.947 59.2095L113.713 59.1362C113.607 59.1574 113.502 59.1909 113.4 59.2358L113.13 59.355L112.86 59.4731C112.79 59.5041 112.737 59.5092 112.689 59.5034L112.415 59.4702L112.139 59.436C112.078 59.4285 112.016 59.4251 111.956 59.4253C111.939 59.1811 111.881 58.9434 111.772 58.7202L111.739 58.6538L111.7 58.647C111.562 58.6227 111.422 58.6103 111.279 58.6089L111.006 58.605L110.734 58.603C110.461 58.6004 110.196 58.5465 109.944 58.4419L109.692 58.3374L109.441 58.2319C109.184 58.1253 108.955 57.9706 108.753 57.7778L108.32 57.3628C108.274 57.3188 108.25 57.3161 108.241 57.3149L107.704 57.2505C107.498 57.226 107.296 57.1909 107.097 57.144L106.838 57.0825L106.581 57.021C106.369 56.9709 106.161 56.9028 105.959 56.8169L105.714 56.7114L105.467 56.6069C105.293 56.5324 105.12 56.4531 104.95 56.3706L104.471 56.1382C104.476 56.1406 104.479 56.1406 104.473 56.1401C104.465 56.1396 104.441 56.14 104.396 56.1509L104.081 56.2271L103.766 56.3042C103.543 56.3587 103.283 56.3602 103.029 56.2466C102.778 56.1343 102.608 55.9437 102.498 55.7524L102.328 55.4585L102.194 55.2271L102.029 55.228L101.742 55.229C101.371 55.2295 101.028 55.0965 100.756 54.8374L100.552 54.6431L100.347 54.4468L100.335 54.437H100.334C100.334 54.4369 100.332 54.4364 100.331 54.436C100.328 54.4353 100.322 54.4345 100.313 54.4341L100.027 54.4204L99.7397 54.4067C99.341 54.3877 98.9967 54.2078 98.7495 53.9019L98.5649 53.6733L98.439 53.5151L98.1851 53.5405L97.8667 53.5708C97.6605 53.591 97.4357 53.5686 97.2192 53.4683C97.0006 53.3669 96.8352 53.2075 96.7183 53.0259L96.5552 52.772L96.4409 52.5933L96.2085 52.5962L95.896 52.6001C95.5531 52.6036 95.2135 52.5109 94.9253 52.2847L94.7144 52.1187L94.5015 51.9517C94.3814 51.8574 94.256 51.7708 94.1265 51.6909L93.8979 51.5493L93.6685 51.4087C93.5129 51.3127 93.3585 51.214 93.2046 51.1157L92.7515 50.8276C92.4849 50.6575 92.2824 50.4225 92.1392 50.1489L92.0005 49.8862L91.8628 49.6216C91.7974 49.4968 91.7265 49.3966 91.6519 49.3169L91.4673 49.1206L91.2837 48.9233C91.2057 48.84 91.1184 48.7716 91.0229 48.7144L90.7944 48.5757L90.5659 48.439C90.4913 48.3943 90.3931 48.3546 90.2642 48.3286L89.6704 48.2095C89.3631 48.1475 89.0766 48.0153 88.8374 47.7983L88.6372 47.6167L88.438 47.437C88.2451 47.2619 88.0857 47.0564 87.9585 46.8276L87.6841 46.3345C87.6273 46.2326 87.5632 46.1505 87.4917 46.0845L87.1011 45.7241C86.9245 45.561 86.7706 45.3755 86.6411 45.1714L86.4956 44.9409L86.3481 44.7104C86.2753 44.5957 86.1946 44.4921 86.106 44.3989L85.9224 44.2056L85.7388 44.0142C85.6063 43.875 85.4781 43.7309 85.355 43.5835L85.186 43.3804L85.0151 43.1772C84.9301 43.0755 84.835 42.981 84.73 42.894L84.5239 42.7231L84.3159 42.5513C84.1181 42.3875 83.9507 42.1946 83.8159 41.9761L83.5347 41.519C83.4768 41.4253 83.4064 41.3419 83.3237 41.2681L83.1235 41.0884L82.9224 40.9097C82.8103 40.8096 82.6893 40.7137 82.5591 40.6226L82.3306 40.4624L82.1011 40.3022C81.8275 40.1108 81.628 39.8492 81.5161 39.5347L81.4233 39.271L81.3296 39.0083L81.3267 39.0034L81.3257 39.0024C81.3225 39 81.3163 38.9953 81.3062 38.9897L81.0444 38.8481L80.7827 38.7075C80.3912 38.4954 80.1626 38.1294 80.1235 37.6978L80.0972 37.3921L80.0688 37.0874C80.0606 36.997 80.0377 36.9564 80.0229 36.937L79.8608 36.7251L79.7573 36.5894L79.7319 36.728L79.6802 37.0015C79.619 37.3255 79.4671 37.6127 79.2339 37.8452L79.0356 38.0425L78.8384 38.2397C78.728 38.3498 78.6279 38.464 78.5386 38.5806L78.3745 38.7935L78.2104 39.0083C78.1446 39.0943 78.0933 39.1876 78.0562 39.2886L77.9634 39.5405L77.8706 39.7935C77.7826 40.0324 77.6587 40.253 77.5005 40.4526L77.3325 40.6646L77.1655 40.8745C77.0813 40.9808 77.0086 41.0931 76.9478 41.2095L76.7026 41.6792C76.6139 41.849 76.5198 42.0168 76.4204 42.1812L76.2827 42.4077L76.145 42.6362C76.078 42.7472 76.0202 42.8663 75.9741 42.9937L75.7896 43.5044C75.7071 43.7318 75.5965 43.9456 75.4585 44.1431L75.1528 44.5806C75.096 44.6619 75.0488 44.7569 75.0142 44.8696L74.8481 45.4097C74.7709 45.661 74.656 45.8955 74.5015 46.1069L74.3423 46.3237L74.1841 46.5405C73.992 46.8033 73.7348 46.9897 73.4438 47.1108L73.1636 47.228L72.8823 47.3452C72.7569 47.3975 72.6655 47.4557 72.5991 47.5142L72.2017 47.8647C72.1175 47.9388 72.0433 48.0238 71.979 48.1216L71.8306 48.3472L71.6831 48.5718C71.6214 48.6657 71.5653 48.7783 71.52 48.9136L71.3325 49.4771C71.233 49.7743 71.0652 50.04 70.8228 50.2495L70.4116 50.605C70.2692 50.7281 70.1253 50.8477 69.9819 50.9644L69.7759 51.1333L69.5688 51.3013C69.4494 51.3984 69.3332 51.5039 69.2192 51.6167L69.0239 51.8081L68.8286 52.0015C68.5656 52.2616 68.2354 52.3941 67.8872 52.4243L67.5786 52.4507L67.3472 52.4702L67.2427 52.6685L67.1011 52.937C67.0001 53.1272 66.8484 53.3022 66.6372 53.4224C66.4276 53.5415 66.2028 53.5822 65.9937 53.5767L65.6782 53.5679L65.4253 53.5601L65.3062 53.73L65.1362 53.9702C64.9082 54.2928 64.5734 54.4964 64.1724 54.5366L63.8892 54.564L63.604 54.5933C63.5946 54.5942 63.5885 54.5954 63.5854 54.5962C63.5835 54.5967 63.5822 54.5968 63.5815 54.5972C63.5812 54.5973 63.58 54.5981 63.5786 54.5991C63.5768 54.6004 63.5723 54.6042 63.5669 54.6099L63.3726 54.812L63.1772 55.0161C62.9153 55.2893 62.5769 55.4356 62.2046 55.4487L61.9155 55.4585L61.7456 55.4634L61.6216 55.6978L61.4614 55.9946C61.3562 56.1909 61.1907 56.3867 60.9409 56.5054C60.6886 56.6251 60.4278 56.6298 60.2046 56.5815L59.8843 56.5122L59.5649 56.4419C59.5163 56.4314 59.4882 56.4322 59.478 56.4331C59.4703 56.4338 59.4739 56.4347 59.481 56.4312L59.0112 56.6675C58.8435 56.7519 58.672 56.8317 58.4976 56.9077L58.2534 57.0142L58.0093 57.1216C57.8077 57.2095 57.5985 57.2779 57.3833 57.3296L56.8569 57.4575C56.6539 57.5063 56.4498 57.5418 56.2456 57.5649L55.9829 57.5942L55.7222 57.6235C55.7221 57.6235 55.6979 57.6237 55.645 57.6733L55.2046 58.0874C55.0001 58.2793 54.768 58.4338 54.5093 58.5386L54.2554 58.6401L54.0015 58.7437C53.7481 58.8463 53.482 58.8989 53.2085 58.8979L52.939 58.897L52.6704 58.896C52.5302 58.8955 52.3909 58.9067 52.2534 58.9292L51.9888 58.9722L51.7241 59.0161C51.5696 59.0415 51.414 59.0743 51.2583 59.1147L50.9937 59.1831L50.729 59.2524C50.5609 59.2962 50.3971 59.3425 50.2388 59.3901L49.9888 59.4653L49.7368 59.5405C49.5567 59.5947 49.3729 59.6442 49.187 59.689L48.6675 59.814C48.477 59.8598 48.2828 59.8998 48.0864 59.9321L47.5474 60.021C47.1891 60.08 46.8472 60.001 46.5454 59.8433L46.2593 59.6938L46.0034 59.5601L45.8286 59.646L45.5796 59.7681C45.2932 59.9074 44.9828 59.9604 44.6655 59.9243L44.3921 59.8931L44.1323 59.8628C44.1262 59.8655 44.1127 59.8728 44.0933 59.8872L43.8364 60.0767L43.5786 60.2681C43.2824 60.4875 42.9147 60.612 42.5093 60.5396L42.2437 60.4927L41.98 60.4458C41.8857 60.4289 41.7945 60.4286 41.7046 60.4448L41.4438 60.4917L41.1821 60.5396C40.9535 60.5809 40.7213 60.5952 40.4878 60.5835L40.2173 60.5698L39.9458 60.5562C39.8124 60.5495 39.6772 60.5557 39.5405 60.5757L39.2671 60.6157L38.9946 60.6558C38.8182 60.6815 38.6467 60.7095 38.481 60.7378L38.2231 60.7808L37.9653 60.8257C37.6165 60.8853 37.2838 60.8123 36.9897 60.6587L36.7202 60.5171L36.4517 60.3774C36.387 60.3438 36.3568 60.3474 36.3442 60.3491L36.0776 60.3853L35.811 60.4233C35.6334 60.4482 35.4532 60.4732 35.272 60.4985L35.0005 60.5366L34.728 60.5747C34.5701 60.5968 34.4146 60.6266 34.2622 60.6636L33.9985 60.7271L33.7339 60.7915C33.4477 60.8609 33.1568 60.8604 32.8706 60.7896L32.3462 60.6606C32.2198 60.6294 32.0941 60.6119 31.9683 60.6079L31.437 60.5913C31.3306 60.588 31.2179 60.5999 31.0991 60.6304L30.8286 60.6997L30.5581 60.77C30.2879 60.8393 30.012 60.8536 29.7358 60.814L29.4614 60.7739L29.187 60.7358C28.955 60.7024 28.7283 60.6442 28.5093 60.563L27.9956 60.3735C27.9186 60.345 27.8497 60.3365 27.7837 60.3423L27.2583 60.3872C27.1452 60.3971 27.0242 60.4231 26.895 60.4673L26.6265 60.5591L26.356 60.6519C26.143 60.7247 25.927 60.78 25.7085 60.8188L25.4351 60.8677L25.1626 60.9165C24.8877 60.9652 24.6108 60.9586 24.3384 60.8979L24.0669 60.8374L23.7935 60.7769C23.5257 60.7172 23.2744 60.6096 23.0415 60.4614L22.7886 60.3003L22.5366 60.1401C22.449 60.0844 22.3831 60.0656 22.3364 60.061L22.0757 60.0366L21.8159 60.0122C21.8059 60.0113 21.7663 60.0084 21.6841 60.0522L21.4087 60.1997L21.1343 60.3452C20.7984 60.5244 20.4134 60.5793 20.0278 60.4448L19.7632 60.3511L19.5005 60.2593C19.3959 60.2227 19.2922 60.2059 19.189 60.2046L18.6431 60.1968C18.5164 60.1952 18.3873 60.2082 18.2563 60.2368L17.9829 60.2974L17.7104 60.3569C17.3529 60.4351 16.9995 60.3783 16.6851 60.2007L16.4341 60.0581L16.1851 59.9175C16.0733 59.8542 15.967 59.8132 15.8657 59.7896L15.606 59.729L15.353 59.6694C15.3471 59.6706 15.3289 59.6761 15.2964 59.6929L14.7358 59.9819C14.3865 60.1624 13.9849 60.206 13.5933 60.0425L13.3315 59.9331L13.0718 59.8247C13.0383 59.8107 13.0092 59.8064 12.9644 59.8169L12.6831 59.8823L12.4028 59.9487C12.3039 59.9718 12.083 60.0155 11.8462 59.9429L11.7524 60.0337L11.1431 60.0024C10.6997 59.9798 10.3001 60.168 10.0464 60.5483L9.88232 60.7944L9.71924 61.0405C9.61033 61.2039 9.50514 61.36 9.40576 61.5083L9.25635 61.7319L9.10693 61.9546C9.09747 61.9687 9.0806 61.9849 9.0376 62.0044L9.05029 61.9399C9.065 61.8621 9.06361 61.7854 9.04443 61.7046L8.98096 61.438L8.91748 61.1704C8.83564 60.8263 8.87921 60.4856 9.02295 60.1743L9.14697 59.9077L9.27002 59.6411C9.29328 59.5906 9.29006 59.5661 9.28662 59.5493L9.17725 59.0161C9.12916 58.7829 9.10898 58.5467 9.11865 58.3101L9.14014 57.7769C9.14588 57.6361 9.1416 57.4944 9.12549 57.353L9.09424 57.0864L9.06396 56.8198C9.03002 56.5216 9.07202 56.2288 9.17822 55.9517L9.3833 55.4185C9.38289 55.4175 9.38189 55.4157 9.38135 55.4146L9.27002 55.1479L9.15771 54.8813C9.05889 54.6462 8.99264 54.4027 8.96436 54.1528L8.93408 53.8862L8.90381 53.6187C8.86141 53.2413 8.97576 52.8965 9.17041 52.6079L9.35107 52.3413L9.5249 52.0845L9.46143 51.8706L9.3833 51.604C9.32407 51.4012 9.27561 51.1961 9.23975 50.9907L9.19385 50.7222L9.14697 50.4536C9.0877 50.1137 9.145 49.7828 9.29639 49.4829L9.42725 49.2231L9.55811 48.9644C9.56008 48.9604 9.56126 48.9566 9.56201 48.9546L9.56104 48.9526L9.39893 48.4038C9.33364 48.1828 9.28759 47.9584 9.26221 47.7329L9.23096 47.4585L9.20068 47.1841C9.16647 46.8794 9.21017 46.5795 9.32959 46.2974L9.43799 46.0415L9.54541 45.7866C9.62551 45.5975 9.71507 45.411 9.81201 45.228L9.94287 44.98L10.0747 44.7319C10.0923 44.6984 10.0975 44.6712 10.0923 44.6313L10.0181 44.0728C9.96626 43.6803 10.0821 43.3158 10.3247 43.02L10.5132 42.7905L10.6724 42.5962L10.6196 42.3481L10.5571 42.0571C10.476 41.6754 10.5481 41.2919 10.7876 40.9673L10.9556 40.7397L11.1245 40.5112C11.1462 40.4817 11.1521 40.4611 11.1519 40.4302L11.1489 40.1499L11.147 39.8687C11.1443 39.5287 11.2466 39.2092 11.4497 38.9351L11.7817 38.4878C11.8638 38.3771 11.9303 38.2643 11.9819 38.1509L12.0913 37.9087L12.2017 37.6675C12.2797 37.496 12.3626 37.326 12.4487 37.1587L12.5698 36.9224L12.6909 36.687C12.7348 36.6015 12.7666 36.5056 12.7827 36.3979L12.8228 36.1255L12.8638 35.854C12.9131 35.5254 13.0588 35.2325 13.2876 34.9937L13.48 34.7915L13.6733 34.5903C13.6898 34.573 13.698 34.5588 13.7017 34.5239L13.7319 34.2407L13.7612 33.9575C13.7998 33.591 13.9662 33.2684 14.2456 33.0259L14.4595 32.8413L14.6724 32.6558C14.7583 32.5811 14.8211 32.5035 14.8657 32.4253L14.9966 32.1958L15.1274 31.9673C15.1405 31.9442 15.1619 31.891 15.1606 31.7817L15.1567 31.4653L15.1528 31.1479C15.149 30.8224 15.2233 30.498 15.4097 30.2104L15.7026 29.7593C15.8995 29.456 16.1866 29.2579 16.5024 29.1411L16.8052 29.0288L17.1089 28.9175C17.1132 28.9158 17.1173 28.913 17.1206 28.9116L17.2124 28.6948L17.3169 28.4429C17.3832 28.2832 17.448 28.1186 17.5103 27.9517L17.7056 27.4263C17.8352 27.0793 18.0801 26.8139 18.4038 26.6479L18.6616 26.5161L18.9185 26.3833C18.9275 26.3786 18.9339 26.3749 18.937 26.3726C18.9394 26.3707 18.9413 26.3692 18.9419 26.3687C18.9423 26.3681 18.9431 26.3669 18.9438 26.3657C18.9449 26.364 18.9472 26.36 18.9497 26.354L19.0571 26.0933L19.1636 25.8325C19.3059 25.4856 19.5635 25.2259 19.9009 25.0747L20.4282 24.8384C20.4474 24.8297 20.4553 24.823 20.4565 24.8218C20.4582 24.8201 20.4623 24.8153 20.4673 24.8052L20.5903 24.5542L20.7134 24.3022C20.795 24.1354 20.8776 23.9659 20.9604 23.7954L21.0854 23.5386L21.2095 23.2817C21.339 23.0153 21.5235 22.785 21.7622 22.605L21.978 22.4419L22.1938 22.2798C22.338 22.1712 22.4828 22.0625 22.6265 21.9546L23.0562 21.6304C23.2738 21.4669 23.5186 21.3496 23.7808 21.2739L24.0591 21.1938L24.3384 21.1128C24.421 21.0888 24.4732 21.0559 24.5103 21.02L24.7026 20.8335L24.894 20.647C25.0961 20.4509 25.3334 20.3045 25.5972 20.2085L25.856 20.1138L26.0981 20.0259C26.1003 20.0223 26.104 20.0174 26.1069 20.0112L26.3706 19.4546C26.5174 19.1453 26.7491 18.8833 27.0757 18.7241L27.3179 18.606L27.561 18.4878C27.7757 18.3832 28.0025 18.3057 28.2388 18.2544L28.7896 18.1353C28.8902 18.1134 28.9716 18.0774 29.0396 18.0317L29.2603 17.8833L29.48 17.7349C29.5962 17.6567 29.7095 17.5675 29.8188 17.4673L30.022 17.2817L30.2241 17.0962C30.3584 16.9729 30.4941 16.8479 30.6304 16.7222L31.0405 16.3433C31.293 16.1105 31.6016 15.9745 31.9409 15.9409L32.2241 15.9136L32.5063 15.8853C32.6481 15.8712 32.7789 15.8443 32.8989 15.8062L33.1538 15.7251L33.4097 15.644C33.5118 15.6115 33.6091 15.5636 33.7026 15.4995L34.1538 15.1909C34.3738 15.0401 34.6154 14.9307 34.8745 14.8677L35.1353 14.8042L35.397 14.7407C35.6075 14.6895 35.8228 14.6545 36.0405 14.6362L36.5854 14.5913L36.5874 14.5903C36.5912 14.5882 36.6032 14.5809 36.6206 14.563L36.8325 14.3452L37.0444 14.1265L37.1616 14.019C37.2864 13.9182 37.4344 13.838 37.604 13.7925C37.773 13.7472 37.9401 13.7426 38.0972 13.7661L38.2515 13.7983L38.5503 13.8794L38.771 13.939L38.9292 13.7935L39.1528 13.5874C39.4462 13.3177 39.8237 13.1831 40.2368 13.2397L40.52 13.2788L40.8022 13.3179C40.9341 13.336 41.0549 13.3363 41.1655 13.3228L41.6929 13.2583C41.7812 13.2475 41.8732 13.2205 41.9692 13.1714L42.2183 13.0435L42.4683 12.9155C42.6655 12.8147 42.8684 12.7298 43.0757 12.6606L43.3345 12.5737L43.5933 12.4878C43.9746 12.3608 44.353 12.4185 44.6812 12.5835L45.2476 12.8687C45.2783 12.8841 45.2969 12.8889 45.3032 12.8901L45.5581 12.8247L45.8188 12.7593C46.0211 12.708 46.226 12.6693 46.4321 12.644L46.6968 12.6108L46.9614 12.5786C47.1761 12.5524 47.3928 12.5443 47.6089 12.5532L47.8745 12.564L48.1411 12.5747H48.2983L48.3726 12.5503L48.48 12.5142L48.6313 12.4771C48.787 12.4486 48.9513 12.4451 49.0854 12.4468L49.3521 12.4507L49.6187 12.4536C49.7429 12.4551 49.869 12.4434 49.9966 12.4165L50.2632 12.3599L50.5298 12.3042C50.8997 12.2264 51.2547 12.3028 51.563 12.479L52.0962 12.7837C52.1099 12.7915 52.1203 12.796 52.1265 12.7983C52.1288 12.7992 52.1311 12.7999 52.1323 12.8003L52.394 12.7437L52.6606 12.687C52.8698 12.6423 53.0814 12.6123 53.2925 12.5972L53.5591 12.5776L53.8257 12.5591C54.0308 12.5444 54.2366 12.541 54.4419 12.5503L54.7085 12.563L54.9751 12.5747C55.1075 12.5807 55.2408 12.5745 55.3745 12.5552L55.6411 12.5161L55.9077 12.478C56.0935 12.4512 56.2804 12.4279 56.4663 12.4077L56.9995 12.3491C57.2506 12.3219 57.5024 12.3343 57.7505 12.3843L58.2837 12.4917C58.4259 12.5203 58.5674 12.5372 58.7075 12.5435L58.9751 12.5552L59.2417 12.5669C59.3709 12.5726 59.5015 12.5661 59.6323 12.5454L59.8989 12.5034L60.1655 12.4604C60.3988 12.4236 60.6339 12.4154 60.8687 12.4351L61.1362 12.4575L61.4028 12.48C61.5587 12.493 61.715 12.4988 61.8706 12.4976L62.1372 12.4956L62.4038 12.4927C62.5276 12.4917 62.6538 12.4775 62.7817 12.4478L63.0483 12.3853L63.3149 12.3237C63.5614 12.2664 63.8125 12.2459 64.064 12.2651L64.5972 12.3062C64.7576 12.3184 64.9184 12.3242 65.0786 12.3247L65.6118 12.3267C65.8268 12.3274 66.0418 12.3451 66.2554 12.3794L66.522 12.4224L66.7896 12.4653C66.991 12.4977 67.1921 12.5411 67.3921 12.5942L67.6587 12.6646L67.9126 12.7329C67.9168 12.7312 67.9233 12.7285 67.9312 12.7241L68.4644 12.4272L68.6011 12.3608C68.8779 12.2432 69.1784 12.2204 69.4741 12.3081L69.6216 12.3608L69.8882 12.4741L70.1411 12.5835L70.395 12.4731L70.6616 12.3579L70.7993 12.3071Z" fill="#303A4B"/>
</g>
<defs>
<clipPath id="clip0_395_3117">
<rect width="128" height="128" fill="white"/>
</clipPath>
</defs>
</svg>
