<svg width="128" height="128" viewBox="0 0 128 128" fill="none" xmlns="http://www.w3.org/2000/svg">
<g clip-path="url(#clip0_395_2939)">
<path d="M118.528 77.4434C118.607 77.8045 118.542 78.1548 118.376 78.4648L118.235 78.7314L118.105 78.9717L118.197 79.1982L118.303 79.4648C118.426 79.7697 118.458 80.0957 118.383 80.4219L118.323 80.6885L118.261 80.9551C118.251 81.0003 118.252 81.0448 118.271 81.1016L118.453 81.6348C118.534 81.8729 118.582 82.1174 118.592 82.3662L118.604 82.6328L118.615 82.8994C118.629 83.2316 118.538 83.5421 118.378 83.8184L118.224 84.085L118.071 84.3525C118.053 84.3827 118.049 84.399 118.048 84.4023V84.4053L118.144 84.9385C118.17 85.0847 118.207 85.2328 118.254 85.3818L118.338 85.6484L118.423 85.915C118.542 86.2899 118.493 86.6645 118.317 86.9961L118.176 87.2627L118.035 87.5303C118.026 87.5466 118.022 87.5569 118.021 87.5615L118.085 87.8281L118.151 88.0957C118.188 88.2481 118.234 88.402 118.29 88.5566L118.481 89.0898C118.568 89.3327 118.618 89.584 118.626 89.8398L118.644 90.373C118.654 90.6781 118.584 90.9694 118.454 91.2393L118.325 91.5059L118.197 91.7725C118.174 91.8187 118.178 91.8347 118.18 91.8428L118.299 92.376C118.338 92.5506 118.378 92.7258 118.419 92.9004L118.483 93.167L118.545 93.4336C118.598 93.6552 118.628 93.8792 118.636 94.1045L118.656 94.6377C118.664 94.8547 118.654 95.072 118.625 95.2881L118.59 95.5547L118.556 95.8213C118.541 95.9404 118.54 96.0598 118.554 96.1787L118.619 96.7119C118.666 97.1054 118.536 97.4587 118.328 97.7471L118.134 98.0137L118.041 98.1426L118.124 98.2637L118.305 98.5303C118.53 98.8607 118.624 99.2675 118.484 99.6885L118.395 99.9551L118.305 100.223C118.247 100.397 118.19 100.572 118.134 100.747L118.048 101.014L117.977 101.235L118.134 101.491L118.298 101.758C118.492 102.073 118.576 102.445 118.48 102.834L118.349 103.367C118.317 103.498 118.299 103.627 118.294 103.754L118.285 104.021L118.276 104.288C118.267 104.543 118.217 104.793 118.131 105.035L117.942 105.568C117.919 105.633 117.917 105.684 117.926 105.732L117.976 106L118.026 106.267C118.056 106.427 118.092 106.587 118.134 106.748L118.205 107.015L118.276 107.281C118.35 107.563 118.36 107.852 118.301 108.139L118.247 108.405L118.193 108.672C118.174 108.764 118.173 108.854 118.188 108.944L118.233 109.211L118.279 109.478C118.314 109.687 118.335 109.897 118.342 110.107L118.36 110.641C118.366 110.841 118.364 111.041 118.351 111.241L118.334 111.508L118.317 111.774C118.307 111.936 118.302 112.098 118.303 112.26L118.305 112.526L118.306 112.793C118.308 113.071 118.251 113.341 118.146 113.599L118.038 113.865L117.928 114.132C117.909 114.18 117.91 114.208 117.917 114.234L118.042 114.768C118.072 114.9 118.117 115.037 118.179 115.177L118.297 115.443L118.415 115.71C118.603 116.137 118.532 116.571 118.293 116.927L118.114 117.193L117.939 117.453L118 117.67L118.076 117.937C118.143 118.175 118.178 118.42 118.177 118.666L118.175 119.199C118.175 119.383 118.172 119.567 118.167 119.75L118.16 120.017L118.152 120.283C118.147 120.454 118.145 120.624 118.145 120.795L118.147 121.328C118.147 121.411 118.163 121.501 118.203 121.603L118.414 122.136C118.538 122.451 118.561 122.787 118.469 123.119L118.396 123.386L118.322 123.652C118.294 123.752 118.286 123.847 118.293 123.938L118.316 124.205L118.337 124.473C118.353 124.665 118.363 124.857 118.367 125.05L118.376 125.583C118.38 125.772 118.38 125.961 118.375 126.149L118.367 126.417L118.36 126.684C118.356 126.821 118.363 126.96 118.382 127.099L118.419 127.365L118.458 127.632C118.498 127.921 118.469 128.208 118.379 128.483L118.292 128.751L118.206 129.018C118.179 129.098 118.174 129.169 118.183 129.236L118.253 129.77C118.281 129.975 118.296 130.182 118.298 130.389L118.304 130.922C118.307 131.206 118.247 131.481 118.137 131.741L118.025 132.008L117.912 132.274C117.885 132.337 117.884 132.378 117.89 132.413L117.934 132.68L117.979 132.946C118.017 133.176 118.03 133.408 118.016 133.64L118 133.906L117.984 134.173C117.979 134.256 117.99 134.345 118.022 134.441L118.109 134.708L118.197 134.975C118.267 135.187 118.319 135.403 118.353 135.619L118.396 135.886L118.438 136.152C118.476 136.391 118.482 136.631 118.458 136.87L118.429 137.137L118.402 137.404C118.387 137.544 118.384 137.682 118.392 137.821L118.408 138.088L118.424 138.354C118.437 138.561 118.436 138.769 118.422 138.976L118.389 139.509C118.373 139.77 118.31 140.023 118.21 140.267L117.992 140.8C117.945 140.914 117.922 141.019 117.915 141.116L117.894 141.383L117.875 141.649C117.864 141.793 117.864 141.938 117.874 142.082L117.911 142.615C117.915 142.678 117.935 142.758 117.989 142.857L118.278 143.391C118.426 143.663 118.51 143.964 118.501 144.283L118.494 144.55L118.487 144.816C118.48 145.061 118.439 145.302 118.367 145.538L118.285 145.806L118.204 146.072C118.156 146.229 118.115 146.386 118.083 146.541L118.028 146.808L117.972 147.074C117.967 147.099 117.966 147.129 117.989 147.182L118.104 147.448L118.218 147.715C118.327 147.966 118.391 148.231 118.401 148.504L118.42 149.037C118.429 149.266 118.413 149.494 118.373 149.721L118.326 149.987L118.278 150.255C118.238 150.476 118.178 150.692 118.084 150.888L117.997 151.072L117.909 151.258C117.714 151.667 117.334 151.834 117 151.876L116.466 151.942C116.304 151.963 116.141 151.989 115.978 152.02L115.445 152.121C115.212 152.165 114.977 152.182 114.742 152.17L114.208 152.143C114.011 152.132 113.812 152.113 113.615 152.086L113.348 152.05L113.082 152.013C112.902 151.988 112.722 151.963 112.542 151.937L112.009 151.858C111.897 151.842 111.786 151.841 111.674 151.856L111.407 151.893L111.14 151.929C110.96 151.953 110.78 151.977 110.6 151.999L110.067 152.065C109.79 152.1 109.513 152.076 109.246 151.998L108.979 151.92L108.712 151.843C108.701 151.839 108.694 151.839 108.691 151.839C108.687 151.839 108.675 151.841 108.654 151.85L108.387 151.962L108.121 152.073C107.751 152.228 107.361 152.215 107.004 152.044L106.471 151.788C106.333 151.722 106.199 151.673 106.07 151.641L105.803 151.572L105.537 151.505C105.486 151.492 105.439 151.492 105.383 151.509L104.85 151.669C104.545 151.76 104.231 151.765 103.923 151.681L103.39 151.534C103.33 151.518 103.276 151.517 103.218 151.531L102.952 151.599L102.685 151.665C102.531 151.704 102.375 151.752 102.218 151.808L101.685 151.999C101.373 152.111 101.044 152.126 100.721 152.036L100.188 151.888C100.039 151.846 99.8902 151.815 99.7437 151.794L99.4771 151.755L99.2104 151.717C99.1169 151.703 99.0228 151.706 98.9263 151.727L98.6597 151.784L98.3931 151.841C98.0826 151.907 97.7713 151.883 97.4751 151.778L97.2085 151.685L96.9731 151.601L96.7192 151.741L96.4526 151.887C96.2661 151.989 96.0494 152.05 95.814 152.04C95.58 152.03 95.3711 151.95 95.1968 151.839L94.9302 151.67L94.731 151.543L94.5542 151.629L94.2876 151.757C93.9515 151.919 93.5804 151.952 93.2163 151.828L92.6831 151.646C92.6034 151.619 92.534 151.615 92.4692 151.623L91.936 151.691C91.7313 151.718 91.5252 151.733 91.3198 151.735L90.7866 151.741C90.6309 151.743 90.474 151.752 90.3179 151.769L89.7847 151.823C89.5293 151.85 89.2739 151.835 89.0229 151.778L88.7563 151.718L88.4897 151.658C88.3549 151.628 88.221 151.612 88.0894 151.607L87.8228 151.599L87.5562 151.591C87.3885 151.586 87.2199 151.584 87.0522 151.586L86.7856 151.588L86.519 151.591C86.4373 151.592 86.3471 151.609 86.2456 151.65L85.979 151.758L85.7124 151.866C85.4627 151.967 85.2015 152.026 84.9331 152.034L84.3999 152.05C84.2461 152.054 84.0914 152.067 83.937 152.087L83.6694 152.121L83.4028 152.156C83.0015 152.208 82.6426 152.072 82.354 151.857L82.0874 151.658L81.8706 151.497L81.7046 151.562L81.438 151.667C81.112 151.795 80.7653 151.809 80.4282 151.701L80.1616 151.616L79.9233 151.539L79.6597 151.688L79.3931 151.837C79.1336 151.982 78.8496 152.075 78.5474 152.09L78.2808 152.104L78.0142 152.116C77.8352 152.125 77.655 152.134 77.4761 152.142L76.9429 152.165C76.6689 152.177 76.3995 152.133 76.1411 152.042L75.8745 151.948L75.6079 151.854C75.4563 151.8 75.3055 151.757 75.1567 151.724L74.8901 151.663L74.647 151.608C74.6422 151.611 74.636 151.615 74.6284 151.62L74.3618 151.79L74.0952 151.961C73.777 152.164 73.3957 152.254 72.9966 152.148L72.4634 152.008C72.3979 151.991 72.3379 151.989 72.2749 152.004L72.0073 152.067L71.7407 152.13C71.4832 152.19 71.2208 152.205 70.9585 152.173L70.6919 152.141L70.4253 152.107C70.1255 152.07 69.8474 151.958 69.5962 151.798L69.3296 151.628L69.189 151.538L69.0425 151.638L68.7749 151.816C68.5182 151.989 68.2282 152.109 67.9106 152.139L67.644 152.163L67.3774 152.188C67.1718 152.208 66.9653 152.215 66.7593 152.209L66.4927 152.201L66.2261 152.194C65.9567 152.187 65.6942 152.128 65.4438 152.026L64.9106 151.81C64.7568 151.747 64.6036 151.694 64.4526 151.651L64.186 151.577L63.9351 151.506C63.9321 151.507 63.9284 151.51 63.9243 151.513L63.3911 151.81C62.9909 152.032 62.5453 152.023 62.1538 151.795L61.8872 151.64L61.6196 151.484C61.5965 151.471 61.5829 151.466 61.5786 151.465L61.3169 151.518L61.0503 151.57C60.9566 151.589 60.8496 151.627 60.73 151.695L60.4634 151.847L60.1968 151.999C59.8936 152.171 59.5463 152.249 59.1821 152.182L58.9155 152.133L58.6489 152.083C58.556 152.066 58.4643 152.065 58.3716 152.082L58.105 152.13L57.8384 152.179C57.4952 152.24 57.1621 152.18 56.8618 152.03L56.5952 151.897L56.3286 151.766C56.1914 151.697 56.0587 151.647 55.9321 151.614L55.6655 151.545L55.4165 151.479C55.4129 151.481 55.4082 151.484 55.4028 151.487L54.8696 151.798C54.6109 151.948 54.3254 152.045 54.021 152.063L53.7544 152.08L53.4878 152.096C53.1624 152.115 52.8545 152.035 52.5767 151.887L52.3101 151.744L52.1147 151.64L51.9194 151.747L51.6528 151.894C51.2455 152.116 50.797 152.096 50.4097 151.861L50.1431 151.699L49.9302 151.569L49.7388 151.657L49.4722 151.778C49.1622 151.919 48.8241 151.961 48.4829 151.881L47.9497 151.756C47.8067 151.722 47.6643 151.7 47.5239 151.689L46.9907 151.648C46.8468 151.637 46.7019 151.636 46.5581 151.646L46.0249 151.681C45.7766 151.697 45.529 151.676 45.2856 151.62L44.7651 151.5C44.76 151.502 44.7521 151.506 44.7427 151.512L44.2095 151.83C43.8798 152.027 43.4934 152.097 43.1001 151.975L42.8335 151.891L42.5669 151.808C42.5079 151.789 42.4582 151.788 42.4067 151.8L42.1401 151.862L41.8726 151.924C41.6664 151.972 41.4585 152.007 41.2505 152.028L40.7173 152.083C40.432 152.112 40.1502 152.076 39.8804 151.983L39.6138 151.892L39.3472 151.801C39.281 151.778 39.2273 151.776 39.1753 151.785L38.9087 151.834L38.6411 151.884C38.3279 151.942 38.0172 151.908 37.7241 151.796L37.4575 151.693L37.1909 151.592C37.1578 151.579 37.1416 151.58 37.1196 151.587L36.853 151.668L36.5864 151.75C36.301 151.837 36.0051 151.856 35.7104 151.799L35.4438 151.747L35.1772 151.696C35.128 151.687 35.0772 151.689 35.0132 151.711L34.7466 151.804L34.48 151.897C34.2646 151.973 34.0456 152.029 33.8247 152.064L33.2915 152.15C33.038 152.191 32.7821 152.19 32.5288 152.148L31.9956 152.061C31.7278 152.016 31.4727 151.921 31.2329 151.787L30.9653 151.639L30.7983 151.546L30.6216 151.656L30.355 151.822C30.0674 152.002 29.7332 152.102 29.3726 152.065L28.8394 152.011C28.6159 151.988 28.3939 151.943 28.1753 151.878L27.9087 151.799L27.6421 151.719C27.5899 151.703 27.5458 151.703 27.4966 151.716L26.9634 151.86C26.6564 151.943 26.343 151.936 26.0396 151.845L25.7729 151.765L25.5063 151.684C25.4946 151.68 25.4883 151.681 25.4858 151.681C25.4826 151.681 25.4715 151.682 25.4517 151.69L25.1851 151.801L24.9185 151.912C24.5144 152.08 24.0995 152.029 23.7456 151.816L23.479 151.656L23.2729 151.532L23.0854 151.623L22.8188 151.751C22.5637 151.873 22.2911 151.947 22.0073 151.959L21.4741 151.98C21.1483 151.994 20.8419 151.908 20.5669 151.755L20.3003 151.606L20.0356 151.459L19.7954 151.537L19.5288 151.622C19.2982 151.696 19.0625 151.743 18.8237 151.758L18.5571 151.774L18.2905 151.792C18.1192 151.803 17.9472 151.816 17.7759 151.831L17.2427 151.88C16.9368 151.907 16.6399 151.852 16.3628 151.732L16.0962 151.617L15.8608 151.515L15.6206 151.631L15.354 151.76C15.0428 151.91 14.6988 151.958 14.3501 151.877L14.0825 151.814L13.8159 151.752C13.6809 151.72 13.5472 151.702 13.4155 151.696L13.1489 151.686L12.8823 151.674C12.7252 151.667 12.5668 151.668 12.4097 151.675L11.8765 151.698C11.6445 151.709 11.4126 151.693 11.1831 151.65L10.6499 151.553C10.4612 151.518 10.162 151.447 9.93994 151.245L9.84717 151.16L9.75439 151.076C9.61891 150.953 9.54065 150.807 9.49463 150.698C9.44611 150.584 9.41268 150.462 9.38818 150.346L9.33252 150.079L9.27588 149.812C9.23004 149.595 9.20361 149.375 9.19678 149.154L9.18896 148.888L9.18018 148.621C9.17376 148.414 9.18106 148.206 9.20068 147.999L9.22607 147.732L9.25049 147.465C9.27055 147.254 9.30606 147.043 9.35596 146.834L9.48291 146.301C9.49012 146.271 9.49127 146.24 9.47217 146.191L9.36768 145.925L9.26416 145.658C9.15273 145.373 9.11191 145.07 9.15674 144.763L9.23486 144.229C9.24875 144.134 9.24604 144.039 9.22607 143.941L9.17139 143.675L9.11768 143.408C9.06982 143.174 9.0509 142.937 9.06201 142.699L9.07373 142.433L9.08643 142.166C9.09475 141.988 9.10325 141.81 9.11182 141.632L9.13721 141.099C9.15196 140.792 9.24811 140.505 9.39795 140.244L9.70459 139.711C9.72278 139.679 9.7276 139.66 9.729 139.653C9.72998 139.649 9.73036 139.646 9.72998 139.644L9.68799 139.376L9.646 139.109C9.62683 138.988 9.59219 138.862 9.53955 138.73L9.32471 138.197C9.20615 137.902 9.16941 137.587 9.229 137.269L9.27881 137.001L9.32861 136.734C9.3705 136.511 9.43462 136.291 9.51904 136.074L9.62256 135.808L9.72705 135.541C9.76148 135.453 9.77129 135.378 9.76709 135.311L9.75049 135.044L9.73291 134.777C9.72896 134.715 9.71004 134.635 9.65674 134.536L9.51318 134.27L9.36963 134.002C9.18497 133.658 9.14338 133.268 9.28467 132.886L9.48193 132.353C9.48461 132.345 9.48551 132.341 9.48584 132.339V132.336C9.48541 132.334 9.48393 132.328 9.48096 132.32L9.27588 131.787C9.12503 131.394 9.17446 130.993 9.37256 130.646L9.67725 130.113C9.69451 130.083 9.69867 130.066 9.69971 130.061C9.70039 130.057 9.70009 130.056 9.69971 130.054L9.60791 129.521C9.59194 129.428 9.55583 129.325 9.4917 129.207L9.34619 128.94L9.20068 128.673C9.09163 128.473 9.03183 128.238 9.06104 127.984C9.08974 127.737 9.19713 127.528 9.32568 127.362L9.53271 127.096L9.67139 126.918L9.604 126.788L9.46826 126.521C9.34047 126.27 9.25898 126.001 9.23779 125.719L9.21826 125.452L9.19775 125.186C9.18114 124.964 9.18512 124.742 9.20947 124.521L9.23877 124.255L9.26807 123.987C9.28509 123.833 9.29471 123.678 9.29639 123.524L9.30225 122.991C9.30469 122.767 9.32975 122.544 9.37549 122.322L9.43018 122.055L9.48486 121.788C9.50881 121.672 9.51671 121.559 9.50928 121.446L9.47412 120.913C9.45871 120.681 9.46964 120.448 9.50732 120.218L9.59521 119.685C9.60934 119.598 9.60669 119.512 9.58643 119.423L9.46533 118.89C9.4339 118.751 9.38963 118.609 9.33154 118.465L9.1167 117.932C9.01217 117.672 8.95773 117.399 8.96338 117.118L8.96924 116.852L8.97412 116.585C8.98006 116.292 9.05616 116.012 9.18408 115.752L9.4458 115.219C9.48228 115.145 9.48593 115.096 9.48291 115.062L9.43604 114.528C9.41747 114.318 9.41304 114.108 9.42334 113.897L9.43701 113.631L9.44971 113.364C9.45888 113.177 9.47218 112.99 9.48877 112.803L9.53564 112.27C9.53875 112.234 9.5348 112.186 9.49854 112.111L9.36865 111.845L9.23779 111.578C9.102 111.3 9.03379 110.996 9.05713 110.68L9.09619 110.146C9.11804 109.851 9.21149 109.573 9.35498 109.317L9.50537 109.051L9.59326 108.894L9.47998 108.723L9.30518 108.456C9.10324 108.148 9.0016 107.778 9.08643 107.383L9.14404 107.116L9.20068 106.85C9.22932 106.716 9.24435 106.584 9.24658 106.454L9.25146 106.188L9.25635 105.92C9.26113 105.641 9.3236 105.372 9.43408 105.116L9.54932 104.85L9.66553 104.583C9.71379 104.471 9.73734 104.37 9.74463 104.277L9.76611 104.011L9.78662 103.744C9.7947 103.641 9.78743 103.535 9.76221 103.427L9.69971 103.16L9.63818 102.894C9.57981 102.643 9.56188 102.387 9.58643 102.131L9.63721 101.598C9.63764 101.594 9.64168 101.566 9.60107 101.498L9.28076 100.965C9.09582 100.656 9.01199 100.296 9.09229 99.918L9.20557 99.3848C9.25533 99.1504 9.33324 98.9209 9.43701 98.6982L9.56104 98.4316L9.68604 98.165C9.72026 98.0915 9.72491 98.0408 9.72119 98.002L9.66846 97.4688C9.65685 97.3501 9.62978 97.2269 9.58545 97.0996L9.3999 96.5664C9.28109 96.2252 9.29082 95.8715 9.42236 95.5381L9.52783 95.2715L9.61768 95.0449L9.48682 94.8027L9.34326 94.5361C9.19521 94.261 9.11314 93.9562 9.12744 93.6338L9.15088 93.1006C9.15829 92.9337 9.16179 92.7665 9.16162 92.5996V92.333L9.16064 92.0664C9.16034 91.7529 9.24809 91.4582 9.39502 91.1904L9.5415 90.9238L9.63623 90.751L9.5249 90.5703L9.36182 90.3027C9.16695 89.9836 9.08525 89.6076 9.18896 89.2168L9.26025 88.9492L9.33057 88.6826C9.34594 88.6246 9.34593 88.5726 9.33057 88.5146L9.18994 87.9814C9.12466 87.7355 9.09667 87.4846 9.10889 87.2314L9.13428 86.6982C9.14939 86.3856 9.25094 86.0946 9.40771 85.833L9.56689 85.5664L9.72705 85.2998C9.72916 85.2963 9.73052 85.2927 9.73193 85.29L9.6665 85.0508L9.59424 84.7842C9.52618 84.5318 9.50087 84.2738 9.52002 84.0137L9.55908 83.4805C9.56819 83.3569 9.56276 83.2324 9.54346 83.1074L9.46143 82.5742C9.42527 82.3402 9.41697 82.1046 9.43799 81.8691L9.4624 81.6025L9.48584 81.3359C9.4982 81.1976 9.49953 81.0592 9.48877 80.9209L9.46729 80.6543L9.44678 80.3877C9.4277 80.1425 9.444 79.8979 9.49365 79.6562L9.54834 79.3896L9.60303 79.1221C9.60723 79.1014 9.60942 79.075 9.58643 79.0234L9.46631 78.7568L9.34717 78.4902C9.20901 78.1817 9.20125 77.8622 9.30127 77.5664L9.43018 77.7588C9.6037 78.0188 9.83526 78.2257 10.1177 78.3652L10.3677 78.4893L10.6187 78.6133C10.7958 78.7007 10.9759 78.784 11.1567 78.8623L11.4116 78.9727L11.6675 79.083C11.8706 79.1709 12.08 79.2434 12.2944 79.2998L12.5649 79.3711L12.8345 79.4424C13.0841 79.508 13.3403 79.5344 13.5981 79.5225L13.8774 79.5098L14.1558 79.4971C14.4113 79.4852 14.6615 79.4357 14.9028 79.3506L15.1675 79.2578L15.2876 79.2148C15.3434 79.3993 15.4178 79.5771 15.5112 79.7471L15.771 80.2197C15.8258 80.3194 15.8648 80.4226 15.8892 80.5303L15.9487 80.79L16.0073 81.0508C16.059 81.2791 16.1376 81.4986 16.2417 81.708L16.3599 81.9463L16.478 82.1836C16.512 82.252 16.535 82.3337 16.5415 82.4346L16.5601 82.7168L16.5776 83C16.5922 83.2245 16.6237 83.4457 16.6724 83.6621L16.7329 83.9316L16.7935 84.2002C16.8474 84.4397 16.932 84.6689 17.0464 84.8848L17.1724 85.123L17.2993 85.3623C17.4503 85.6471 17.6744 85.869 17.9409 86.0332L18.4604 86.3535C18.5445 86.4053 18.5811 86.4517 18.5991 86.4844L18.855 86.9492C18.9243 87.0749 18.9863 87.2077 19.0396 87.3467L19.1362 87.6006L19.2339 87.8545C19.3499 88.1576 19.5467 88.4077 19.8062 88.5957L20.0347 88.7607L20.2632 88.9268C20.2673 88.9297 20.2694 88.932 20.27 88.9326V88.9316L20.271 88.9336C20.2721 88.9363 20.2738 88.9427 20.2759 88.9521L20.3374 89.2363L20.3999 89.5205C20.456 89.7783 20.5483 90.0228 20.6812 90.248L20.9565 90.7148C21.1376 91.0216 21.4093 91.2331 21.7241 91.3594L22.0054 91.4727L22.2866 91.585C22.3557 91.6127 22.3738 91.6382 22.3804 91.6484L22.5249 91.874L22.6704 92.0996C22.7875 92.2818 22.9179 92.4539 23.062 92.6143L23.2397 92.8115L23.4175 93.0098C23.5355 93.1411 23.654 93.2726 23.772 93.4043L23.9497 93.6035L24.1274 93.8018C24.2571 93.9465 24.392 94.0866 24.5317 94.2217L24.7231 94.4072L24.9146 94.5918C25.064 94.7362 25.2232 94.8716 25.3901 94.9961L25.604 95.1553L25.8188 95.3154C25.9256 95.3951 26.0245 95.4846 26.1147 95.583L26.2954 95.7793L26.4761 95.9766C26.5868 96.0973 26.6952 96.223 26.8003 96.3525L27.1421 96.7744C27.3161 96.9887 27.5282 97.1624 27.772 97.292L28.0112 97.4199L28.2515 97.5469C28.3026 97.5741 28.3479 97.6135 28.3892 97.6758L28.5444 97.9111L28.7007 98.1465C28.898 98.4442 29.1812 98.6518 29.5229 98.752L29.7954 98.8311L30.0679 98.9111C30.2127 98.9536 30.3464 99.0055 30.4683 99.0654L30.7085 99.1836L30.9497 99.3027C30.9525 99.3039 30.9747 99.3138 31.0063 99.377L31.144 99.6523L31.2817 99.9287C31.4434 100.252 31.7042 100.515 32.0669 100.648L32.5806 100.838C32.6894 100.878 32.7876 100.931 32.8765 100.997L33.0923 101.157L33.3091 101.317C33.4732 101.439 33.6433 101.552 33.8188 101.655L34.0493 101.791L34.2808 101.927C34.5238 102.07 34.7892 102.156 35.0679 102.191L35.353 102.227L35.6372 102.263C35.6942 102.27 35.726 102.287 35.7524 102.31L35.9595 102.489L36.1665 102.668C36.3368 102.815 36.5188 102.947 36.7114 103.06L36.9429 103.194L37.1733 103.33C37.3785 103.45 37.5968 103.544 37.8257 103.61L38.3452 103.761C38.51 103.809 38.6736 103.859 38.8345 103.912L39.3423 104.08C39.4149 104.104 39.4867 104.144 39.5591 104.208L39.77 104.396L39.9819 104.583C40.1651 104.745 40.3645 104.883 40.5796 104.993L40.8188 105.115L41.0581 105.238C41.2532 105.338 41.4564 105.421 41.6655 105.487L41.9224 105.567L42.1782 105.648C42.3814 105.712 42.5893 105.762 42.8003 105.797L43.0679 105.842L43.3354 105.886C43.4755 105.909 43.6113 105.943 43.7427 105.988L44.2505 106.162C44.3661 106.202 44.4797 106.255 44.5903 106.324L44.8237 106.471L45.0571 106.618C45.2812 106.759 45.5245 106.858 45.7827 106.914L46.3101 107.027C46.5559 107.08 46.8071 107.096 47.0601 107.076L47.3423 107.055L47.6255 107.032C47.7337 107.024 47.8272 107.035 47.9106 107.06L48.1665 107.134L48.4233 107.208C48.6075 107.262 48.7932 107.31 48.98 107.353L49.2397 107.412L49.4995 107.471C49.6195 107.498 49.7385 107.54 49.8569 107.597L50.105 107.715L50.3521 107.833C50.6573 107.979 50.9858 108.018 51.313 107.96L51.5952 107.909L51.8774 107.859C51.885 107.858 51.8896 107.857 51.8911 107.857C51.8927 107.858 51.8962 107.861 51.9019 107.864L52.3882 108.167C52.7174 108.372 53.0917 108.427 53.4634 108.333L53.7466 108.262L54.0288 108.19C54.1643 108.156 54.2881 108.141 54.4009 108.142L54.6675 108.144L54.9351 108.146C54.942 108.146 54.9694 108.145 55.0288 108.188L55.2739 108.37L55.52 108.551C55.8277 108.778 56.2015 108.882 56.5991 108.804L56.8726 108.75L57.147 108.695C57.2725 108.671 57.3914 108.663 57.5044 108.67L57.77 108.688L58.0356 108.704C58.1896 108.714 58.3436 108.731 58.4966 108.756L58.7603 108.799L59.0239 108.841C59.232 108.874 59.4416 108.893 59.6519 108.897L59.9185 108.903L60.1841 108.908C60.295 108.91 60.4083 108.928 60.5249 108.963L60.7896 109.042L61.0532 109.12C61.2505 109.179 61.4494 109.229 61.6489 109.268L61.9136 109.319L62.1792 109.371C62.3749 109.409 62.5721 109.44 62.77 109.462L63.0386 109.491L63.3062 109.521C63.6432 109.559 63.965 109.485 64.2534 109.333L64.7886 109.05C64.9119 108.985 65.023 108.947 65.1216 108.929L65.6509 108.829C65.8058 108.8 65.9603 108.779 66.1138 108.765L66.3774 108.739L66.6421 108.715C66.7749 108.702 66.9094 108.702 67.0454 108.714L67.5806 108.761C67.8146 108.781 68.0483 108.774 68.2798 108.738L68.5425 108.697L68.8052 108.657C68.9151 108.64 69.0282 108.639 69.146 108.652L69.4165 108.684L69.686 108.716C69.8003 108.729 69.9254 108.76 70.061 108.812L70.3403 108.921L70.6196 109.03C70.9541 109.16 71.3155 109.176 71.6665 109.044L71.9253 108.946L72.1831 108.849C72.3318 108.792 72.4804 108.745 72.6284 108.707L72.8892 108.64L73.1489 108.572C73.3328 108.525 73.5162 108.473 73.6978 108.417L73.9556 108.338L74.2124 108.259C74.3171 108.227 74.4243 108.21 74.5356 108.209L75.0767 108.205C75.2335 108.204 75.3934 108.21 75.5552 108.225L75.8306 108.249L76.1069 108.273C76.3505 108.295 76.5932 108.286 76.8325 108.244L77.0981 108.198L77.3628 108.151C77.7299 108.087 78.0275 107.889 78.2554 107.633L78.6909 107.143C78.7223 107.107 78.7429 107.092 78.7505 107.088H78.7485L79.0122 107.047L79.2759 107.007C79.3514 106.995 79.4455 106.996 79.564 107.023L79.8569 107.092L80.1509 107.159C80.5556 107.252 80.9575 107.164 81.2837 106.892L81.5083 106.705L81.7329 106.518C81.8428 106.426 81.9512 106.355 82.0571 106.303L82.2983 106.185L82.5396 106.065C82.557 106.057 82.5867 106.046 82.6538 106.056L83.2417 106.144C83.5495 106.19 83.8608 106.162 84.1567 106.042L84.4048 105.941L84.6528 105.84C84.7505 105.8 84.8559 105.775 84.9712 105.765L85.522 105.716C85.8654 105.685 86.1723 105.546 86.4243 105.318L86.6372 105.126L86.8501 104.935C86.8652 104.921 86.875 104.916 86.8784 104.915C86.8816 104.914 86.8894 104.911 86.9058 104.91L87.187 104.896L87.4692 104.881C87.8381 104.862 88.1662 104.712 88.4233 104.453L88.6265 104.248L88.8306 104.043C88.9113 103.962 88.9903 103.908 89.0669 103.873L89.3081 103.763L89.5503 103.652C89.7764 103.549 89.9842 103.412 90.1724 103.247L90.3794 103.064L90.5874 102.882C90.6554 102.822 90.7251 102.784 90.7993 102.76L91.0542 102.678L91.3081 102.595C91.4429 102.551 91.5868 102.517 91.7388 102.491L92.0161 102.444L92.2935 102.398C92.5854 102.35 92.8576 102.237 93.0962 102.058L93.311 101.896L93.5259 101.734C93.5703 101.701 93.6268 101.674 93.7095 101.661L93.9937 101.616L94.2769 101.57C94.5428 101.528 94.7966 101.444 95.0308 101.312L95.2651 101.181L95.4995 101.05C95.7639 100.902 95.977 100.693 96.1411 100.443L96.4634 99.9531C96.5368 99.8415 96.6148 99.7551 96.6938 99.6885L97.1021 99.3447C97.1268 99.3238 97.1683 99.2989 97.2515 99.2861L97.5474 99.2402L97.8423 99.1953C98.1312 99.1509 98.4051 99.0509 98.6499 98.8857L98.8735 98.7354L99.0962 98.585C99.3149 98.4373 99.5032 98.2542 99.6597 98.041L99.9897 97.5918C100.045 97.5169 100.106 97.4621 100.176 97.4209L100.409 97.2832L100.642 97.1455C100.903 96.9914 101.113 96.7789 101.268 96.5215L101.414 96.2793L101.559 96.0381C101.572 96.0175 101.581 96.0069 101.613 95.9951L101.881 95.8955L102.15 95.7949C102.505 95.6623 102.777 95.409 102.936 95.0664L103.058 94.8057L103.179 94.5439C103.248 94.3959 103.322 94.2594 103.402 94.1338L103.693 93.6748C103.693 93.6738 103.695 93.6723 103.695 93.6719L103.697 93.6709C103.7 93.6689 103.713 93.6594 103.744 93.6494L104.322 93.4639C104.621 93.368 104.892 93.2053 105.106 92.9609L105.282 92.7588L105.458 92.5576C105.613 92.3797 105.746 92.1837 105.856 91.9727L105.983 91.7295L106.11 91.4854C106.151 91.4067 106.204 91.3429 106.269 91.2891L106.689 90.9434C106.964 90.7174 107.133 90.4171 107.205 90.082L107.267 89.7939L107.329 89.5059C107.33 89.5001 107.331 89.4951 107.332 89.4922L107.563 89.333L107.795 89.1729C108.097 88.9652 108.298 88.6687 108.381 88.3145L108.447 88.0381L108.512 87.7607C108.52 87.7294 108.529 87.718 108.548 87.7021L108.768 87.5264L108.988 87.3516C109.279 87.1196 109.457 86.8024 109.509 86.4385L109.55 86.1553L109.583 85.9238L109.823 85.7832L110.089 85.626C110.357 85.4681 110.586 85.254 110.745 84.9766L110.878 84.7432L111.012 84.5107C111.154 84.2634 111.236 83.9934 111.264 83.7109L111.292 83.4277L111.32 83.1455C111.334 82.9986 111.36 82.8623 111.397 82.7363L111.472 82.4805L111.547 82.2236C111.58 82.1112 111.627 82.0041 111.688 81.9014L111.963 81.4385C112.079 81.244 112.176 81.0399 112.25 80.8271L112.426 80.3252C112.456 80.2393 112.505 80.1499 112.579 80.0576L112.938 79.6084C112.997 79.5347 113.043 79.4566 113.082 79.3779C113.279 79.3895 113.477 79.3734 113.672 79.3291L113.938 79.2695L114.203 79.209C114.314 79.1838 114.43 79.1742 114.55 79.1807L115.105 79.21C115.496 79.2307 115.847 79.0901 116.122 78.8281L116.333 78.627L116.542 78.4258C116.65 78.3229 116.753 78.2441 116.85 78.1855L117.069 78.0527L117.289 77.9199C117.401 77.8521 117.522 77.7917 117.653 77.7393L117.901 77.6396L118.148 77.54C118.275 77.4891 118.394 77.4251 118.506 77.3506L118.528 77.4434ZM74.4849 15.6973C74.7387 15.6764 74.971 15.7442 75.1655 15.8564L75.4321 16.0098L75.6851 16.1572L75.9136 16.0791L76.1802 15.9883C76.4389 15.9 76.7078 15.8596 76.981 15.874L77.2476 15.8887L77.5151 15.9023C77.6988 15.9122 77.8831 15.9247 78.0669 15.9395L78.3345 15.9609L78.6011 15.9824C78.7024 15.9905 78.8071 15.9828 78.9165 15.957L79.186 15.8936L79.4546 15.8301C79.8329 15.7407 80.1987 15.8158 80.5142 16.0059L80.7739 16.1621L80.9995 16.2988L81.228 16.2139L81.5024 16.1123C81.77 16.0134 82.0511 15.9678 82.3374 15.9863L82.604 16.0029L82.8716 16.0205C83.1207 16.0367 83.3643 16.0901 83.5991 16.1777L83.8569 16.2734L84.1138 16.3701C84.1792 16.3945 84.2448 16.4027 84.3179 16.3945L84.8687 16.332C85.1925 16.2955 85.5083 16.3541 85.7974 16.5029L86.0454 16.6309L86.2944 16.7588C86.3849 16.8054 86.4725 16.8315 86.5591 16.8408L86.8257 16.8691L87.0913 16.8975C87.2469 16.9141 87.4065 16.9242 87.5679 16.9268L87.8413 16.9307L88.1157 16.9355C88.3611 16.9394 88.6029 16.976 88.8374 17.0449L89.0952 17.1201L89.353 17.1963C89.5162 17.2443 89.6807 17.2892 89.8452 17.3311L90.106 17.3975L90.3657 17.4639C90.6079 17.5255 90.8383 17.6217 91.0532 17.751L91.2886 17.8936L91.5239 18.0352C91.6364 18.1028 91.7518 18.1549 91.8687 18.1934L92.1226 18.2773L92.3765 18.3604C92.5191 18.4072 92.6667 18.4465 92.8179 18.4775L93.0845 18.5322L93.3501 18.5869C93.578 18.6338 93.7989 18.7056 94.0103 18.8008L94.2554 18.9111L94.5005 19.0205C94.6864 19.1043 94.8681 19.1987 95.0444 19.3018L95.5093 19.5732C95.6341 19.6462 95.7642 19.7098 95.8979 19.7637L96.396 19.9648C96.6143 20.0528 96.8203 20.1659 97.0122 20.3027L97.2319 20.46L97.4517 20.6162C97.5383 20.678 97.6338 20.7264 97.7388 20.7607L97.9985 20.8457L98.2593 20.9297C98.5154 21.0132 98.7502 21.1417 98.9585 21.3125L99.1685 21.4844L99.3774 21.6562C99.4886 21.7474 99.6056 21.829 99.7271 21.9004L99.9585 22.0361L100.189 22.1719C100.366 22.276 100.537 22.391 100.702 22.5146L100.916 22.6758L101.13 22.8369C101.242 22.9213 101.362 22.9967 101.488 23.0635L101.966 23.3174C102.282 23.4848 102.506 23.7477 102.645 24.0576L102.769 24.334L102.894 24.6113C102.923 24.6759 102.947 24.6897 102.956 24.6943L103.188 24.8281L103.421 24.9609C103.57 25.0458 103.722 25.1291 103.876 25.2109L104.117 25.3389L104.358 25.4668C104.585 25.5872 104.789 25.741 104.965 25.9268L105.334 26.3154C105.48 26.4685 105.615 26.6322 105.739 26.8047L105.897 27.0244L106.054 27.2441C106.055 27.2458 106.057 27.247 106.06 27.249C106.065 27.2522 106.082 27.2621 106.117 27.2715L106.416 27.3516L106.714 27.4307C106.916 27.4845 107.115 27.5858 107.28 27.7529C107.404 27.8786 107.49 28.0236 107.546 28.1738L107.593 28.3252L107.667 28.624L107.741 28.9219C107.762 29.007 107.79 29.039 107.804 29.0527L108 29.2354L108.194 29.417C108.322 29.5367 108.452 29.6569 108.583 29.7764L108.781 29.958L108.978 30.1396C109.078 30.2317 109.192 30.3184 109.318 30.3994L109.556 30.5527L109.793 30.7051C110.044 30.866 110.25 31.0786 110.399 31.3389L110.668 31.8096C110.792 32.025 110.884 32.2566 110.946 32.5L111.016 32.7773L111.087 33.0547C111.089 33.0624 111.091 33.0674 111.092 33.0693V33.0713C111.093 33.0716 111.093 33.0725 111.094 33.0732C111.096 33.0749 111.1 33.0785 111.107 33.083L111.344 33.2441L111.582 33.4062C111.872 33.6045 112.081 33.8844 112.179 34.2275L112.255 34.4961L112.333 34.7637C112.365 34.8767 112.411 34.9754 112.467 35.0615L112.613 35.2842L112.759 35.5068C112.867 35.6715 112.969 35.8408 113.063 36.0137L113.19 36.248L113.318 36.4824C113.425 36.679 113.513 36.8852 113.581 37.0996L113.662 37.3564L113.744 37.6143C113.8 37.792 113.854 37.9708 113.905 38.1494L113.978 38.4082L114.052 38.666C114.092 38.8053 114.141 38.9397 114.199 39.0674L114.308 39.3076L114.417 39.5479C114.478 39.6845 114.549 39.8188 114.626 39.9502L114.761 40.1797L114.897 40.4092C114.984 40.5576 115.074 40.707 115.166 40.8555L115.308 41.085L115.45 41.3145C115.536 41.454 115.629 41.594 115.727 41.7324L116.049 42.1836C116.193 42.3856 116.307 42.6039 116.39 42.8359L116.481 43.0889L116.571 43.3418C116.687 43.6678 116.682 44.003 116.597 44.3203L116.516 44.6221L116.456 44.8457L116.597 45L116.801 45.2207C116.987 45.4221 117.138 45.6487 117.244 45.8994L117.348 46.1494L117.454 46.3994C117.548 46.6244 117.611 46.8591 117.643 47.1006L117.713 47.6357C117.735 47.8003 117.761 47.9639 117.792 48.126L117.891 48.6533C117.939 48.9073 117.944 49.1648 117.909 49.4219L117.872 49.6982L117.833 49.9746C117.821 50.0636 117.828 50.1423 117.849 50.2168L117.923 50.4766L117.999 50.7363C118.042 50.8889 118.094 51.0429 118.153 51.1973L118.352 51.7168C118.455 51.9864 118.499 52.2699 118.476 52.5586L118.455 52.8301L118.433 53.1006C118.411 53.3884 118.325 53.6625 118.192 53.918L118.049 54.1904L117.908 54.4619C117.861 54.5508 117.855 54.6082 117.856 54.6426L117.875 55.1719C117.879 55.2658 117.899 55.3683 117.941 55.4795L118.142 56.0127C118.252 56.3034 118.286 56.6107 118.231 56.9209L118.184 57.1875L118.136 57.4541C118.131 57.4857 118.131 57.5242 118.157 57.584L118.385 58.1172C118.493 58.3696 118.556 58.6349 118.564 58.9092L118.572 59.1758L118.58 59.4434C118.589 59.7705 118.498 60.076 118.341 60.3496L118.189 60.6162L118.109 60.7539C117.997 60.7198 117.882 60.6973 117.764 60.6855L117.176 60.627C117.053 60.6147 116.965 60.5872 116.902 60.5557L116.674 60.4414L116.447 60.3262C116.343 60.2739 116.233 60.2045 116.119 60.1143L115.897 59.9385L115.674 59.7627C115.466 59.5982 115.236 59.47 114.987 59.3809L114.723 59.2871L114.459 59.1924C114.103 59.065 113.736 59.0881 113.4 59.2363L113.13 59.3555L112.86 59.4736C112.789 59.5046 112.737 59.5097 112.689 59.5039L112.415 59.4707L112.139 59.4365C112.077 59.4289 112.015 59.4256 111.955 59.4258C111.941 59.2337 111.901 59.0462 111.833 58.8662C111.519 58.9565 111.242 58.8499 111.088 58.7646L110.822 58.6172L110.561 58.4727L110.326 58.5527L110.059 58.6426C109.779 58.7368 109.486 58.7656 109.192 58.7207L108.925 58.6807L108.659 58.6396C108.627 58.635 108.587 58.6358 108.524 58.6641L108.257 58.7842L107.99 58.9033C107.546 59.1021 107.099 59.0109 106.748 58.7549L106.481 58.5605L106.333 58.4531L106.208 58.5322L105.941 58.6973C105.689 58.8534 105.411 58.9614 105.113 58.9951L104.846 59.0254L104.579 59.0557C104.369 59.0792 104.159 59.0879 103.95 59.083L103.417 59.0713C103.236 59.0671 103.054 59.0614 102.873 59.0547L102.606 59.0449L102.339 59.0342C102.116 59.0258 101.894 58.9965 101.674 58.9463L101.408 58.8857L101.141 58.8242C101.073 58.8087 101.009 58.8097 100.939 58.8271L100.672 58.8936L100.406 58.9609C100.078 59.043 99.7492 59.0167 99.4399 58.8955L98.9067 58.6865C98.7559 58.6274 98.6059 58.5792 98.4585 58.542L97.9253 58.4072C97.8009 58.3759 97.6793 58.3604 97.5601 58.3594L97.2935 58.3564L97.0269 58.3545C96.9306 58.3537 96.8292 58.3689 96.7212 58.4043L96.4546 58.4922L96.188 58.5791C95.9494 58.6574 95.7042 58.7029 95.4556 58.7109L95.189 58.7197L94.9224 58.7275C94.7009 58.7347 94.4793 58.7218 94.2593 58.6885L93.9927 58.6484L93.7261 58.6074C93.6471 58.5955 93.5675 58.5994 93.4819 58.6221L93.2153 58.6934L92.9487 58.7637C92.5823 58.8608 92.2215 58.8048 91.9019 58.6367L91.6353 58.4961L91.396 58.3691L91.1694 58.4629L90.9028 58.5723C90.5443 58.7193 90.1653 58.7127 89.813 58.5576L89.5464 58.4395L89.2798 58.3223C89.1877 58.2817 89.1108 58.2693 89.0454 58.2705L88.5122 58.2803C88.4918 58.2808 88.4419 58.2869 88.355 58.3438L88.0884 58.5176L87.8218 58.6924C87.6494 58.805 87.4426 58.8884 87.2085 58.9023C86.972 58.9164 86.7529 58.8568 86.564 58.7559L86.0308 58.4707C85.961 58.4335 85.9229 58.4336 85.9028 58.4355L85.3696 58.4883C85.252 58.5 85.1301 58.5275 85.0034 58.5723L84.7368 58.666L84.4702 58.7607C84.2963 58.8222 83.9407 58.8993 83.6118 58.6621C83.3023 58.4387 83.248 58.0984 83.2368 57.9307L83.2163 57.6299L83.1958 57.3281C83.1907 57.252 83.1694 57.1898 83.1284 57.1289L82.9604 56.8799L82.7935 56.6309C82.5562 56.2787 82.5026 55.8655 82.647 55.4639L82.8481 54.9033C82.8888 54.7902 82.9029 54.6951 82.9009 54.6143L82.8872 54.0791C82.887 54.0725 82.8865 54.0421 82.8374 53.9775L82.6499 53.7305L82.4624 53.4844C82.2668 53.2276 82.1357 52.9264 82.1128 52.5889L82.0942 52.3223L82.0767 52.0557C82.0548 51.7322 82.1316 51.4242 82.269 51.1436L82.5483 50.5732C82.5943 50.4793 82.5955 50.4278 82.5933 50.4053L82.5669 50.1396L82.5415 49.874C82.5353 49.8115 82.5135 49.7398 82.4624 49.6543L82.312 49.4033L82.1626 49.1523C82.0164 48.908 81.9188 48.6418 81.8843 48.3574L81.8198 47.8281C81.7938 47.6132 81.7855 47.3963 81.7944 47.1787L81.8062 46.9082L81.8169 46.6387C81.8231 46.4887 81.8198 46.34 81.8071 46.1934L81.7837 45.9277L81.7612 45.6621C81.7533 45.5712 81.7288 45.4777 81.6831 45.3789L81.5659 45.124L81.4478 44.8691C81.3406 44.6372 81.2692 44.3943 81.2368 44.1426L81.1685 43.6133C81.129 43.3055 81.1757 43.0046 81.2847 42.7217L81.2896 42.707H81.2886C81.046 42.6713 80.8105 42.612 80.5845 42.5283L80.3179 42.4297L80.2368 42.3994L80.1812 42.4629L79.9917 42.6738C79.943 42.7281 79.9205 42.7771 79.9097 42.8262L79.8521 43.0889L79.7935 43.3525C79.7862 43.3857 79.7848 43.4285 79.8091 43.4961L79.9077 43.7705L80.0073 44.0459C80.1208 44.3612 80.1389 44.6961 80.0405 45.0264L79.9624 45.2881L79.8843 45.5488C79.864 45.6169 79.8599 45.6838 79.8726 45.7568L79.9194 46.0283L79.9673 46.2988C80.0373 46.7019 79.9173 47.0713 79.6929 47.3711L79.5034 47.624L79.397 47.7646L79.4829 47.9229L79.6333 48.2021C79.837 48.5785 79.8631 49.0132 79.644 49.416L79.5044 49.6729L79.3638 49.9297C79.3231 50.0045 79.3135 50.0613 79.314 50.1074L79.3159 50.375L79.3188 50.6426C79.3214 50.8949 79.2849 51.1437 79.2114 51.3857L79.1323 51.6465L79.0532 51.9082C79.0197 52.0188 79.0034 52.1278 79.0024 52.2363L78.9995 52.5039L78.9976 52.7705C78.997 52.8427 79.0113 52.93 79.0552 53.0361L79.1694 53.3125L79.2837 53.5879C79.3948 53.8563 79.4529 54.1413 79.4399 54.4346L79.4282 54.7002L79.4165 54.9668C79.4048 55.2303 79.3458 55.4867 79.2456 55.7314L79.1392 55.9902L79.0337 56.25C79.0114 56.3046 79.0074 56.3493 79.0151 56.3975L79.0581 56.6689L79.1021 56.9395C79.1563 57.2773 79.0985 57.7307 78.687 58.0205L78.522 58.1377L78.356 58.2539C78.2157 58.3526 78.0458 58.4543 77.855 58.5586L77.5884 58.7051L77.3218 58.8506C76.9279 59.0656 76.4898 59.0618 76.1001 58.8438L75.5669 58.5449C75.492 58.5031 75.4501 58.5015 75.4292 58.5029L75.1626 58.5205L74.896 58.5391C74.6691 58.5546 74.4421 58.5462 74.2163 58.5146L73.9487 58.4775L73.6821 58.4404C73.661 58.4376 73.6266 58.4367 73.564 58.4678L73.2983 58.6006L73.0317 58.7334C72.6894 58.9034 72.3093 58.9345 71.939 58.7998L71.6724 58.7031L71.4058 58.6055C71.3306 58.5782 71.2685 58.5742 71.2114 58.582L70.6782 58.6543C70.5264 58.6751 70.3736 58.705 70.2202 58.7432L69.687 58.876C69.4255 58.941 69.1584 58.9573 68.8911 58.9229L68.6245 58.8887L68.3579 58.8535C68.1044 58.8208 67.8578 58.7477 67.6216 58.6406L67.355 58.5205L67.0884 58.3994C67.0447 58.3797 67.0282 58.3836 67.0151 58.3867L66.7485 58.4512L66.4819 58.5146C66.2907 58.5607 66.0985 58.6015 65.9067 58.6357L65.6401 58.6836L65.3735 58.7305C65.0809 58.7827 64.7879 58.7629 64.5054 58.6758L63.9976 58.5195L63.7319 58.6699L63.4653 58.8213C63.0727 59.0432 62.631 59.0454 62.2358 58.8252L61.7026 58.5283C61.6117 58.4777 61.5461 58.4648 61.5005 58.4639L61.2339 58.458L60.9673 58.4531C60.8228 58.4502 60.6778 58.4565 60.5327 58.4736L60.2651 58.5059L59.9985 58.5371C59.8909 58.5499 59.7763 58.5793 59.6548 58.6299L59.1216 58.8525C58.7912 58.9899 58.4371 59.0073 58.0923 58.8936L57.5591 58.7178C57.5294 58.708 57.5103 58.7081 57.479 58.7188L57.2114 58.8096L56.9448 58.9014C56.7045 58.9834 56.4572 59.0307 56.2056 59.0391L55.6724 59.0566C55.343 59.0674 55.0348 58.9755 54.7603 58.8174L54.4937 58.6631L54.2271 58.5098C54.214 58.5022 54.2048 58.498 54.1997 58.4961L53.9429 58.5566L53.6763 58.6182C53.4557 58.6694 53.2323 58.6996 53.0083 58.708L52.7417 58.7178L52.4751 58.7285C52.3593 58.7329 52.2398 58.7517 52.1167 58.7881L51.5835 58.9463C51.1493 59.0746 50.7434 58.9532 50.4253 58.7178L50.1587 58.5195L49.8921 58.3223C49.7879 58.2451 49.6852 58.1622 49.5991 58.0742C49.5307 58.0042 49.3946 57.8547 49.3345 57.6406L49.3052 57.5352L49.2749 57.4297C49.2636 57.3894 49.2315 57.2914 49.1675 57.1172L49.0718 56.8564L48.9761 56.5967C48.8501 56.2539 48.8601 55.8997 48.9839 55.5674L49.0864 55.293L49.147 55.1279L48.9927 54.9414L48.7837 54.6895C48.5265 54.3796 48.3904 53.977 48.5015 53.5371L48.5698 53.2646L48.6392 52.9912C48.6826 52.8196 48.7219 52.6482 48.7573 52.4775L48.8706 51.9346C48.8911 51.8357 48.8917 51.7441 48.8774 51.6572L48.8345 51.3936L48.7915 51.1289C48.7711 51.0044 48.7363 50.8783 48.686 50.75L48.5845 50.4902L48.4819 50.2305C48.4057 50.0357 48.3401 49.8388 48.2847 49.6406L48.1382 49.1172C48.0728 48.8834 48.0386 48.6442 48.0366 48.4023L48.0327 47.8672C48.0305 47.5982 48.0794 47.3346 48.1704 47.0801L48.2681 46.8047L48.3667 46.5303C48.3997 46.438 48.4063 46.3649 48.3999 46.3037L48.3716 46.0381L48.3442 45.7734C48.3255 45.5943 48.3074 45.4146 48.2905 45.2354L48.2651 44.9697L48.2407 44.7041C48.2275 44.5645 48.2031 44.4248 48.1675 44.2852L48.1001 44.0225L48.0337 43.7607C47.9791 43.547 47.9433 43.3319 47.9282 43.1172L47.9126 42.8994L47.6538 42.8496C47.6524 42.85 47.6502 42.8507 47.6479 42.8516C47.6414 42.8542 47.6308 42.8597 47.6167 42.8682L47.3511 43.0273L47.0864 43.1865C46.9691 43.2571 46.8501 43.3237 46.7427 43.377L46.7446 43.4102L46.7593 43.6807C46.7788 44.0244 46.6835 44.3443 46.5044 44.624L46.1841 45.124C46.1711 45.1444 46.1678 45.1549 46.1675 45.1562C46.1675 45.1568 46.1679 45.1594 46.1685 45.1631L46.2065 45.4365L46.2456 45.709C46.2762 45.9254 46.2908 46.1419 46.2886 46.3574L46.2827 46.8945C46.2799 47.1568 46.2315 47.4129 46.1401 47.6592L46.0444 47.917L45.9487 48.1738C45.8831 48.3508 45.8152 48.5278 45.7446 48.7041L45.6411 48.9609L45.5386 49.2178C45.5005 49.3131 45.4816 49.4053 45.479 49.4971L45.4722 49.7646L45.4644 50.0322C45.4621 50.1135 45.4759 50.2092 45.5161 50.3223L45.7153 50.8828C45.8174 51.17 45.8533 51.4737 45.8022 51.7812L45.7593 52.0439L45.7153 52.3076C45.6775 52.5352 45.6144 52.7579 45.5278 52.9746L45.4253 53.2314L45.3228 53.4873C45.3193 53.4961 45.3189 53.5007 45.3188 53.5029C45.3188 53.5059 45.319 53.5189 45.3267 53.543L45.4165 53.8213L45.5054 54.1006C45.6229 54.4679 45.5909 54.8468 45.4038 55.1895L45.2661 55.4414L45.1284 55.6943C45.0574 55.8245 45.0024 55.9528 44.9624 56.0791L44.7983 56.5967C44.7591 56.7208 44.7343 56.8451 44.7231 56.9697L44.6997 57.2354L44.6753 57.501C44.6471 57.8162 44.5252 58.141 44.2466 58.3828L44.0825 58.5244L43.9194 58.666C43.6198 58.9259 43.255 58.9837 42.9282 58.9395L42.6606 58.9033L42.394 58.8672C42.1792 58.838 41.9657 58.7913 41.7544 58.7285L41.4878 58.6494L41.2251 58.5713C41.2215 58.5726 41.2159 58.5754 41.2085 58.5791L40.9419 58.7119L40.6753 58.8457C40.3194 59.0237 39.9248 59.0453 39.5493 58.8887L39.0161 58.666C38.8833 58.6107 38.7554 58.5726 38.6323 58.5508L38.3657 58.5039L38.0991 58.4561C37.9354 58.427 37.7712 58.4037 37.6079 58.3848L37.3413 58.3535L37.0747 58.3232C36.9248 58.3059 36.7749 58.2974 36.6255 58.2979H36.3589L36.0923 58.2988C36.0429 58.299 35.9767 58.3115 35.8872 58.3584L35.354 58.6377C35.0571 58.7933 34.7247 58.8626 34.3784 58.8076L33.8452 58.7236C33.7666 58.7112 33.6876 58.7142 33.603 58.7363L33.3364 58.8057L33.0698 58.876C32.6857 58.9762 32.3143 58.9 31.9956 58.7119L31.4624 58.3975C31.4605 58.3964 31.4581 58.3954 31.4565 58.3945L31.2163 58.4629L30.9497 58.5381C30.8023 58.5798 30.6527 58.633 30.5015 58.6973L29.9683 58.9238C29.6876 59.043 29.3871 59.0936 29.0786 59.0596L28.5454 59.001C28.3119 58.9752 28.0815 58.9223 27.856 58.8438L27.5894 58.751L27.3228 58.6572C27.1648 58.6023 27.0073 58.5557 26.8511 58.5166L26.5845 58.4502L26.3208 58.3828C26.3165 58.384 26.3062 58.3881 26.2905 58.3965L26.0239 58.5381L25.7573 58.6807C25.3672 58.8882 24.9355 58.8845 24.5493 58.6738L24.0161 58.3828C23.988 58.3675 23.9723 58.364 23.9683 58.3633C23.9659 58.3629 23.9639 58.3626 23.9604 58.3633L23.4272 58.4688C23.2691 58.5 23.11 58.5378 22.9507 58.583L22.6841 58.6582L22.4175 58.7344C22.1049 58.8229 21.7849 58.8173 21.4761 58.7197L21.2085 58.6348L20.9419 58.5508C20.8081 58.5085 20.6772 58.4812 20.5493 58.4678L20.2827 58.4395L20.0161 58.4121C19.8845 58.3983 19.7521 58.3972 19.6206 58.4092L19.354 58.4336L19.0874 58.457C18.8881 58.4751 18.6883 58.4847 18.4888 58.4844L18.2222 58.4834H17.9556C17.876 58.4833 17.7876 58.499 17.688 58.5391L17.4214 58.6455L17.1548 58.7529C16.9597 58.8312 16.7356 58.8664 16.5005 58.8213C16.4323 58.8082 16.3683 58.7874 16.3071 58.7637L16.2759 58.833C16.2178 58.9586 16.1485 59.0825 16.0669 59.2041L15.9956 59.3096L15.9087 59.2744L15.645 59.167L15.5063 59.1191C15.1807 59.0245 14.848 59.0578 14.5425 59.2002L14.271 59.3271L14.0005 59.4531C13.9663 59.469 13.9491 59.4688 13.9224 59.4619L13.6382 59.3896L13.354 59.3164L13.1919 59.2852C12.8708 59.244 12.5641 59.3277 12.3081 59.5186L12.1851 59.623L11.9663 59.8301L11.7515 60.0342L11.1421 60.0029C10.6987 59.9804 10.299 60.1685 10.0454 60.5488L9.88135 60.7949L9.71826 61.041C9.63212 61.1702 9.54769 61.2943 9.46729 61.4141L9.46924 61.375L9.479 61.1074C9.48598 60.906 9.50263 60.7047 9.52979 60.5039L9.60205 59.9707C9.61833 59.8504 9.62019 59.7302 9.60693 59.6104L9.57666 59.3438L9.54736 59.0771C9.52712 58.8944 9.50889 58.7111 9.49268 58.5283L9.4458 57.9951C9.43199 57.8394 9.41087 57.6829 9.38232 57.5264L9.28467 56.9932C9.24707 56.787 9.22214 56.5796 9.21045 56.3721L9.1958 56.1055L9.18018 55.8389C9.16721 55.6086 9.17987 55.3782 9.21729 55.1494L9.30518 54.6143C9.32948 54.4657 9.34339 54.3182 9.34814 54.1719L9.36572 53.6387C9.3749 53.3576 9.44462 53.0875 9.56396 52.834L9.68506 52.5762L9.80713 52.3174C9.80956 52.3122 9.81049 52.3085 9.81104 52.3066C9.81086 52.3051 9.81036 52.3005 9.80811 52.293L9.7251 52.0186L9.64307 51.7432C9.55694 51.4575 9.53629 51.161 9.59424 50.8643L9.64502 50.6016L9.69678 50.3389C9.73487 50.1439 9.78086 49.9501 9.83545 49.7588L9.90967 49.501L9.98291 49.2422C9.99489 49.2 9.99973 49.1457 9.97998 49.0654L9.90967 48.7812L9.84033 48.4971C9.76216 48.1797 9.77232 47.8524 9.89014 47.5381L9.98584 47.2842L10.0806 47.0293C10.1232 46.9156 10.1509 46.7998 10.1636 46.6807L10.1919 46.4121L10.2202 46.1426C10.243 45.9283 10.282 45.7168 10.3364 45.5088L10.4048 45.248L10.4722 44.9883C10.516 44.8208 10.5577 44.6521 10.5972 44.4834L10.6587 44.2207L10.7202 43.959C10.7733 43.7321 10.8521 43.5128 10.9546 43.3027L11.0737 43.0586L11.1929 42.8135C11.2778 42.6395 11.3674 42.4677 11.4614 42.2988L11.5933 42.0615L11.7261 41.8252C11.8232 41.6507 11.9274 41.4794 12.0386 41.3125L12.1899 41.0859L12.3403 40.8584C12.3846 40.7919 12.4131 40.7213 12.4263 40.6406L12.5142 40.0996C12.5474 39.8957 12.5914 39.6943 12.645 39.4961L12.7153 39.2344L12.7866 38.9727C12.8485 38.7439 12.9365 38.5244 13.0503 38.3174L13.1792 38.082L13.3091 37.8467C13.3714 37.7333 13.4221 37.6127 13.4614 37.4844L13.5415 37.2227L13.6216 36.9619C13.7257 36.6221 13.9388 36.3512 14.2192 36.1553L14.4634 35.9844L14.7075 35.8145C14.8294 35.7293 14.9285 35.6409 15.0083 35.5518L15.189 35.3496L15.3687 35.1484C15.3931 35.1211 15.415 35.0851 15.4263 35.0186L15.4741 34.7334L15.522 34.4492C15.5828 34.0899 15.7639 33.7773 16.0562 33.5498L16.2778 33.3779L16.4985 33.2061C16.5807 33.1421 16.6409 33.0732 16.6851 33L16.8218 32.7715L16.9595 32.5439C17.0208 32.4421 17.073 32.3266 17.1147 32.1963L17.2017 31.9268L17.2876 31.6572C17.3986 31.3105 17.6224 31.0325 17.9341 30.8477L18.1792 30.7021L18.4253 30.5566C18.4569 30.5379 18.4683 30.5224 18.479 30.4961L18.5835 30.2354L18.689 29.9746C18.795 29.7119 18.951 29.4778 19.1567 29.2812L19.5454 28.9102C19.6373 28.8224 19.7197 28.7243 19.7925 28.6162L19.9438 28.3916L20.0952 28.166C20.2078 27.9989 20.3283 27.8369 20.4546 27.6807L20.6245 27.4707L20.7944 27.2598C20.996 27.0106 21.2562 26.8349 21.5513 26.7285L21.8267 26.6299L22.1011 26.5303C22.1206 26.5232 22.1286 26.517 22.1304 26.5156C22.1312 26.515 22.1322 26.514 22.1333 26.5127C22.1345 26.5112 22.1378 26.5078 22.1411 26.502L22.2808 26.2588L22.4204 26.0146C22.5752 25.7449 22.7929 25.5254 23.0659 25.3711L23.3032 25.2363L23.5405 25.1025C23.7151 25.0039 23.8942 24.912 24.0767 24.8271L24.3247 24.7119L24.5737 24.5957C24.6896 24.5418 24.7938 24.4772 24.8862 24.4033L25.0933 24.2383L25.3003 24.0723C25.3462 24.0356 25.3982 23.9764 25.4478 23.876L25.5815 23.6045L25.7163 23.333C25.8529 23.056 26.0476 22.8142 26.3091 22.6357L26.7544 22.333C27.0227 22.15 27.3271 22.0589 27.6411 22.04L27.9468 22.0215L28.2524 22.0039C28.3705 21.9968 28.4505 21.9711 28.5054 21.9424L28.7407 21.8184L28.9761 21.6953C29.109 21.6256 29.238 21.5482 29.3628 21.4639L29.5835 21.3154L29.8042 21.166C30.0133 21.0247 30.2411 20.9181 30.4839 20.8477L31.0034 20.6973C31.0058 20.6954 31.0185 20.6849 31.0376 20.6562L31.2085 20.3994L31.3784 20.1426C31.5616 19.8662 31.8145 19.6421 32.1411 19.5186L32.6431 19.3291C32.7873 19.2746 32.929 19.2127 33.0669 19.1436L33.3062 19.0225L33.5464 18.9023C33.8399 18.7551 34.1568 18.708 34.4731 18.7393L34.771 18.7686L35.0688 18.7988C35.1879 18.8106 35.2795 18.7999 35.3501 18.7793L35.604 18.7041L35.8579 18.6299C35.9786 18.5944 36.0968 18.5462 36.2114 18.4844L36.6841 18.2285C36.8774 18.1242 37.0784 18.0375 37.2856 17.9688L37.5376 17.8848L37.7896 17.8018C38.0149 17.7271 38.2479 17.6814 38.4858 17.665L39.0249 17.6279C39.0633 17.6253 39.1045 17.6137 39.1577 17.5752L39.3892 17.4072L39.6216 17.2383C39.7919 17.1148 39.9671 16.9989 40.146 16.8906L40.3892 16.7432L40.6323 16.5967C40.9387 16.4113 41.284 16.3445 41.6372 16.4014L41.9185 16.4463L42.1997 16.4922C42.2847 16.5058 42.3543 16.4995 42.4165 16.4805L42.6743 16.4014L42.9331 16.3213C43.2094 16.2365 43.4949 16.2171 43.7798 16.2598L44.3286 16.3418C44.4887 16.3658 44.6462 16.3819 44.8003 16.3896L45.0688 16.4033L45.3364 16.417C45.4119 16.4207 45.4893 16.409 45.5728 16.377L45.8315 16.2764L46.0913 16.1768C46.374 16.0679 46.6723 16.0315 46.9741 16.0742L47.2417 16.1123L47.5103 16.1504C47.5485 16.1558 47.5936 16.153 47.6577 16.125L47.9233 16.0088L48.189 15.8916C48.2967 15.8444 48.4375 15.7908 48.5854 15.7695C48.6737 15.7569 49.0362 15.7179 49.3022 16.0039L49.4839 16.0059L49.7515 16.0088C49.9644 16.0111 50.1776 16.0287 50.3892 16.0625L50.6558 16.1055L50.9224 16.1475C51.0769 16.1721 51.2315 16.1892 51.3853 16.1982L51.9185 16.2295C52.0689 16.2384 52.2201 16.2387 52.3706 16.2305L52.9038 16.2012C53.1007 16.1903 53.2987 16.1881 53.4956 16.1934L54.0288 16.207C54.1704 16.2108 54.3132 16.2042 54.4556 16.1865L54.9888 16.1201C55.1785 16.0965 55.3692 16.0781 55.5591 16.0645L55.8257 16.0449L56.0923 16.0264C56.2737 16.0133 56.4558 16.0013 56.6372 15.9912L57.1704 15.9619C57.4307 15.9475 57.6888 15.9785 57.9399 16.0508L58.2075 16.1279L58.4741 16.2041C58.5152 16.2159 58.5497 16.2162 58.5942 16.2021L59.1274 16.0322C59.3831 15.9509 59.6479 15.9152 59.9155 15.9297L60.4487 15.959C60.6064 15.9675 60.7647 15.9694 60.9224 15.9648L61.189 15.957L61.4565 15.9492C61.5967 15.9451 61.7384 15.9297 61.8804 15.9033L62.147 15.8535L62.4136 15.8047C62.6367 15.7633 62.8619 15.7437 63.0874 15.7471L63.6206 15.7549C63.845 15.7583 64.0691 15.7842 64.2905 15.8311L64.8237 15.9443C65.0377 15.9897 65.251 16.0522 65.4604 16.1309L65.7271 16.2314L65.9731 16.3242L66.231 16.1973L66.4976 16.0674C66.8045 15.9175 67.1446 15.8637 67.4917 15.9375L68.0249 16.0508C68.1282 16.0728 68.2289 16.0778 68.3286 16.0664L68.5952 16.0352L68.8618 16.0049C69.0825 15.9795 69.3047 15.974 69.5259 15.9893L70.0591 16.0264C70.1835 16.0349 70.3092 16.0292 70.4351 16.0098L70.9683 15.9277C71.2024 15.8915 71.4388 15.8831 71.6743 15.9043L72.2075 15.9531C72.458 15.9757 72.7033 16.0358 72.9399 16.1299L73.2065 16.2363L73.3716 16.3027L73.5864 16.1426L73.853 15.9443L73.9888 15.8555C74.1316 15.7732 74.2981 15.7127 74.4849 15.6973ZM54.2056 58.4951H54.2075L54.2095 58.4941L54.2056 58.4951Z" fill="#303A4B"/>
</g>
<defs>
<clipPath id="clip0_395_2939">
<rect width="128" height="128" fill="white"/>
</clipPath>
</defs>
</svg>
