<svg width="128" height="128" viewBox="0 0 128 128" fill="none" xmlns="http://www.w3.org/2000/svg">
<path d="M79.1919 19.2002C100.65 19.2002 118.045 36.5949 118.045 58.0527V60.7363C118.034 60.7333 118.023 60.7313 118.011 60.7285C118.033 61.4352 118.045 62.166 118.045 62.9219C118.045 67.7785 117.813 71.9731 117.403 75.5986C117.309 76.4281 117.213 77.2365 117.114 78.0244L117.289 77.9199C117.4 77.8522 117.522 77.7916 117.653 77.7393L117.901 77.6396L118.045 77.5811V82.8447H118.041C117.988 88.9272 117.225 96.5123 118.026 98.5068C114.019 99.7297 107.691 101.817 97.52 103.817C95.9744 104.161 94.5873 104.48 93.1558 104.889C99.6199 98.5778 102.318 78.5632 102.734 61.1553H86.728L83.7964 49.9551L80.6431 61.1553H55.9868L54.2349 57.3389L53.2593 61.1553H41.9888L39.0581 49.9551L35.9048 61.1553H25.2671C25.6826 78.563 28.3812 98.5775 34.8452 104.889C33.4138 104.48 32.0274 104.161 30.4819 103.817C20.3102 101.817 13.9823 99.7296 9.9751 98.5068C10.7759 96.5123 10.0126 88.9272 9.96045 82.8447H9.95557V78.2725C10.0077 78.3055 10.0614 78.3374 10.1177 78.3652L10.3677 78.4893L10.6187 78.6133C10.739 78.6727 10.8625 78.7269 10.9849 78.7822C10.8517 77.7572 10.7222 76.6963 10.5981 75.5986C10.1883 71.9731 9.95558 67.7785 9.95557 62.9219C9.95557 62.1301 9.96789 61.3657 9.9917 60.6279L9.95557 60.6836V58.0527C9.95577 36.5954 27.3519 19.201 48.8091 19.2002H79.1919Z" fill="#303A4B"/>
<path d="M117.106 53.4835L117.033 53.2224L116.967 52.9613C116.919 52.7888 116.87 52.616 116.822 52.4446L116.75 52.1891L116.678 51.928C116.623 51.7283 116.579 51.5265 116.55 51.3224L116.511 51.0558L116.478 50.7946C116.449 50.5966 116.426 50.3969 116.417 50.1946L116.394 49.6502C116.387 49.4815 116.376 49.3127 116.361 49.1446L116.339 48.878L116.317 48.6058C116.3 48.4221 116.285 48.237 116.272 48.0502L116.256 47.7724L116.233 47.5002C116.23 47.4544 116.218 47.4102 116.183 47.3613L116.017 47.1335L115.856 46.9058C115.698 46.6866 115.58 46.4437 115.511 46.1835L115.439 45.9224L115.372 45.6669C115.328 45.5005 115.282 45.3321 115.233 45.1669L115.078 44.6558C115.028 44.4859 114.979 44.3149 114.928 44.1446L114.85 43.8835L114.772 43.628C114.742 43.5262 114.695 43.4307 114.633 43.3391L114.483 43.1113L114.328 42.8835C114.165 42.6416 114.063 42.3714 114.022 42.0835L113.983 41.8058L113.944 41.5613L113.7 41.3891L113.45 41.2169C113.189 41.0369 112.975 40.7974 112.844 40.4946L112.633 40.0058C112.564 39.8448 112.493 39.6836 112.422 39.5224L112.311 39.278L112.206 39.0335C112.12 38.839 112.048 38.6365 111.989 38.428L111.833 37.8946C111.821 37.8513 111.802 37.8204 111.767 37.7891L111.344 37.4224C111.181 37.2796 111.028 37.1275 110.889 36.9669L110.717 36.7613L110.539 36.5613C110.334 36.3248 110.21 36.0448 110.15 35.7446L110.089 35.4558L110.033 35.1669C110.018 35.0868 109.989 35.0429 109.961 35.0113L109.783 34.8058L109.606 34.6058C109.509 34.4966 109.407 34.391 109.294 34.2946L109.083 34.1169L108.878 33.9446C108.719 33.8088 108.568 33.6633 108.428 33.5113L108.25 33.3169L108.067 33.1169C107.933 32.9713 107.805 32.8181 107.683 32.6613L107.522 32.4502L107.356 32.2391C107.301 32.1687 107.234 32.1078 107.15 32.0558L106.911 31.9113L106.678 31.7669C106.43 31.6144 106.222 31.4131 106.067 31.1669L105.922 30.9335L105.778 30.7058C105.729 30.6287 105.67 30.5667 105.6 30.5169L105.383 30.3613L105.161 30.2002C104.942 30.043 104.758 29.8489 104.611 29.6224L104.311 29.1558C104.236 29.0394 104.147 28.9386 104.056 28.8446L103.867 28.6502L103.683 28.4558C103.629 28.4004 103.562 28.3564 103.478 28.3224L103.217 28.2169L102.961 28.1113C102.666 27.9925 102.416 27.8005 102.228 27.5446L102.061 27.3224L101.933 27.1446L101.639 27.1391L101.322 27.128C101.111 27.1207 100.886 27.0667 100.683 26.9335C100.48 26.7993 100.339 26.6127 100.25 26.4169L100.122 26.128L100.022 25.9169L99.8333 25.9002L99.5445 25.8613C99.1692 25.8138 98.8418 25.6319 98.6056 25.328L98.4278 25.1002L98.25 24.878C98.2056 24.8208 98.1646 24.7894 98.1222 24.7724L97.6222 24.5724C97.4596 24.5073 97.2961 24.4456 97.1333 24.3835L96.8833 24.2835L96.6333 24.1891C96.3892 24.096 96.1661 23.9641 95.9667 23.7946L95.7556 23.6169L95.5445 23.4335C95.5204 23.4134 95.4938 23.404 95.45 23.4002L95.1722 23.3724L94.8889 23.3502C94.615 23.3263 94.3504 23.2538 94.1056 23.128L93.8722 23.0058L93.6333 22.8835C93.4537 22.7912 93.2771 22.6903 93.1056 22.578L92.65 22.278C92.5952 22.2421 92.535 22.2234 92.4667 22.2169L91.9222 22.1613C91.552 22.1258 91.2335 21.9554 90.9889 21.7002L90.7833 21.4835L90.5722 21.2613C90.5098 21.1961 90.4608 21.1758 90.4278 21.1669L90.1667 21.0946L89.9111 21.028C89.9104 21.0278 89.8994 21.021 89.8833 21.0224C89.8658 21.0242 89.835 21.0323 89.7889 21.0502L89.4778 21.1724L89.1722 21.2946C88.8224 21.432 88.4202 21.4547 88.0389 21.2613L87.55 21.0169C87.3982 20.9397 87.2447 20.8653 87.0889 20.7946L86.8389 20.6835L86.5889 20.5669C86.4374 20.4982 86.2829 20.4371 86.1278 20.378L85.8722 20.278L85.6167 20.1835C85.58 20.1696 85.5414 20.1607 85.4833 20.1724L85.2 20.2335L84.9222 20.2891C84.5864 20.3588 84.2503 20.3203 83.9389 20.1724L83.6833 20.0502L83.4278 19.9335C83.3785 19.9103 83.3414 19.9003 83.3 19.9058L83.0278 19.9446L82.7556 19.978C82.5352 20.0068 82.314 20.0205 82.0945 20.0113L81.5611 19.9891C81.3717 19.9811 81.1829 19.9674 80.9945 19.9502L80.7278 19.9224L80.4611 19.9002C80.3137 19.8869 80.1656 19.8847 80.0167 19.8891L79.75 19.8946L79.4833 19.9058C79.3807 19.9088 79.2763 19.9075 79.1833 19.9002C79.1113 19.8945 78.9666 19.8767 78.8222 19.8113L78.7445 19.778L78.6667 19.7391C78.6843 19.7471 78.694 19.7556 78.6945 19.7558C78.6899 19.7543 78.6756 19.7499 78.6556 19.7446C78.6156 19.7343 78.5581 19.7166 78.4778 19.7002L78.2111 19.6502L77.9445 19.5946C77.9158 19.5888 77.8817 19.5889 77.8278 19.6113L77.2945 19.8335C77.0018 19.9563 76.6861 19.9987 76.3667 19.9446L75.8333 19.8558C75.811 19.8519 75.7754 19.8505 75.7167 19.878L75.45 20.0002L75.1833 20.128C74.7958 20.3083 74.3794 20.2873 74.0111 20.0891L73.7445 19.9446L73.5445 19.8335L73.35 19.9446L73.0833 20.0835C72.8894 20.186 72.664 20.2434 72.4222 20.2224C72.1846 20.2017 71.9801 20.1075 71.8111 19.9891L71.5445 19.8058L71.3056 19.6335L71.1167 19.7058L70.85 19.7946C70.6229 19.8738 70.3912 19.9316 70.1556 19.9558L69.8889 19.978L69.6222 20.0058C69.4809 20.0203 69.3384 20.0472 69.1945 20.0835L68.9278 20.1502L68.6611 20.2224C68.3758 20.2947 68.0818 20.2986 67.7945 20.2335L67.2611 20.1113C67.1722 20.0911 67.0856 20.0861 67 20.1002L66.4667 20.1891C66.1138 20.2473 65.7763 20.1737 65.4778 20.0113L65.2111 19.8669L64.9445 19.7169C64.8502 19.6655 64.777 19.6528 64.7222 19.6502L64.1889 19.628C64.0587 19.6224 63.9262 19.6294 63.7945 19.6502L63.5278 19.6891L63.2611 19.7335C63.1121 19.757 62.9623 19.7908 62.8111 19.8335L62.5445 19.9058L62.2778 19.9835C61.8998 20.0905 61.5295 20.0249 61.2056 19.8446L60.9389 19.7002L60.6722 19.5502L60.4333 19.628L60.1667 19.7113C60.0106 19.7608 59.8527 19.8222 59.6945 19.8891L59.1611 20.1113C58.7313 20.2931 58.3002 20.212 57.95 19.9724L57.6833 19.7946L57.4167 19.6113L57.4056 19.6058L57.1889 19.6669L56.9222 19.7335C56.7522 19.7765 56.5813 19.8188 56.4111 19.8669L56.1445 19.9446L55.8778 20.0169C55.5568 20.1075 55.2292 20.0982 54.9167 19.9891L54.3833 19.8002C54.2966 19.7699 54.2206 19.766 54.15 19.7724L53.6167 19.8169C53.4623 19.8311 53.3054 19.8537 53.15 19.8835L52.8833 19.9391L52.6167 19.9891C52.3385 20.0423 52.0583 20.0337 51.7833 19.9669L51.5167 19.9002L51.25 19.8391C51.0709 19.7955 50.8903 19.751 50.7111 19.7058L50.4445 19.6335L50.2278 19.578V19.5835L49.6945 19.9613C49.3728 20.1886 48.969 20.2941 48.5445 20.1669L48.2778 20.0891L48.0111 20.0058C47.9842 19.9978 47.9666 20.0007 47.9389 20.0113L47.4167 20.2113C47.1818 20.3006 46.9373 20.3546 46.6889 20.3724L46.4278 20.3946L46.1611 20.4113C45.8607 20.4325 45.5673 20.3754 45.2945 20.2613L45.0222 20.1446L44.7445 20.028C44.6216 19.9766 44.5081 19.9535 44.4056 19.9446L44.1333 19.9169L43.8611 19.8946C43.7781 19.8875 43.699 19.8958 43.6222 19.9224L43.3667 20.0169L43.1056 20.1058C42.8971 20.1781 42.6825 20.2306 42.4667 20.2669L42.2056 20.3113L41.9389 20.3558C41.8744 20.3667 41.8017 20.395 41.7222 20.4502L41.4889 20.6169L41.25 20.778C41.0185 20.9387 40.7614 21.0565 40.4833 21.1113L39.9611 21.2113C39.6817 21.2661 39.3992 21.2545 39.1222 21.1946L38.8278 21.1335L38.5556 21.0724L38.3667 21.2224L38.1389 21.3946C37.9168 21.5619 37.6702 21.6872 37.4 21.7558L37.1389 21.8224L36.8833 21.8835C36.6496 21.9428 36.4061 21.9731 36.1611 21.9724H35.5945L35.3833 22.1724L35.1778 22.3724C34.979 22.562 34.7492 22.7141 34.4945 22.8169L34.2445 22.9169L34 23.0169C33.812 23.0925 33.6189 23.1611 33.4222 23.2169L33.1667 23.2891L32.9056 23.3613C32.7796 23.397 32.6583 23.4461 32.5445 23.5058L32.3111 23.628L32.0722 23.7502C31.9826 23.7972 31.8983 23.8627 31.8167 23.9446L31.6167 24.1446L31.4222 24.3446C31.1981 24.5703 30.9222 24.7226 30.6111 24.7946L30.3445 24.8558L30.0722 24.9169C29.9503 24.9452 29.8411 24.9914 29.7389 25.0446L29.2611 25.2891C29.145 25.3497 29.037 25.4233 28.9333 25.5058L28.5111 25.8391C28.3797 25.9438 28.2485 26.051 28.1222 26.1613L27.9222 26.3391L27.7222 26.5113C27.5462 26.6651 27.3513 26.7968 27.1445 26.9058L26.9111 27.0335L26.6722 27.1558C26.579 27.2049 26.4969 27.269 26.4222 27.3446L26.2333 27.5335L26.0445 27.728C25.8618 27.9128 25.6504 28.064 25.4167 28.178L25.1722 28.2946L24.9278 28.4169C24.7461 28.5054 24.5552 28.5869 24.3611 28.6613L24.1 28.7613L23.8333 28.8613C23.743 28.8961 23.6725 28.9404 23.6167 28.9946L23.4278 29.1835L23.2333 29.3724C23.0796 29.5217 22.9135 29.6578 22.7389 29.7835L22.5222 29.9446L22.3056 30.0946L22.2889 30.1502L22.2167 30.4613L22.15 30.7669C22.0553 31.1888 21.7812 31.5362 21.35 31.6946L21.0722 31.7946L20.8056 31.8891L20.7111 32.128L20.6056 32.3891C20.5101 32.6192 20.385 32.8346 20.2333 33.028L20.0667 33.2391L19.9056 33.4446C19.7661 33.6222 19.6066 33.7865 19.4333 33.9335L19.2278 34.1113L19.0222 34.2835C18.863 34.4187 18.6955 34.548 18.5167 34.6669L18.2778 34.8224L18.1278 34.9169L18.1333 35.2002V35.5335C18.137 35.9236 18.0032 36.3204 17.6556 36.6002L17.4445 36.7724L17.2278 36.9446C17.1465 37.0101 17.0857 37.0837 17.0389 37.1613L16.7611 37.6169C16.6666 37.7736 16.5709 37.9295 16.4722 38.0835L16.3278 38.3058L16.1833 38.5335C16.1001 38.6636 16.0214 38.7965 15.95 38.9335L15.8278 39.1724L15.7056 39.4058C15.5793 39.6483 15.4068 39.8603 15.2 40.0391L14.9833 40.228L14.8 40.378V40.9558C14.8028 41.4237 14.57 41.8029 14.1945 42.0335L13.9167 42.2002L13.7889 42.278L13.8167 42.4335L13.8722 42.7502C13.9297 43.0688 13.9141 43.4013 13.7778 43.7169L13.6722 43.9613L13.5667 44.2002C13.4608 44.4452 13.3122 44.6668 13.1278 44.8613L12.7278 45.2835V45.8446C12.7297 46.1063 12.6938 46.3645 12.6111 46.6113L12.4445 47.1113C12.3683 47.3389 12.2607 47.5578 12.1278 47.7613L11.9722 48.0002L11.8167 48.2335C11.7314 48.3639 11.6543 48.4979 11.5889 48.6335L11.4722 48.878L11.3556 49.128C11.3376 49.1653 11.3264 49.203 11.3333 49.2613L11.4 49.828C11.4226 50.0148 11.4492 50.2006 11.4722 50.3835L11.5056 50.6613L11.5389 50.9335C11.5855 51.3038 11.4901 51.6539 11.2833 51.9502L11.1111 52.1946L10.9445 52.4335C10.8965 52.5022 10.8807 52.5563 10.8778 52.5946L10.8611 52.8613L10.8389 53.128C10.8334 53.2019 10.8435 53.2868 10.8778 53.3891L10.9722 53.6669L11.0611 53.9446C11.1731 54.2776 11.1753 54.6303 11.0445 54.9669L10.9445 55.2224L10.8445 55.4835C10.7859 55.6343 10.7326 55.7856 10.6889 55.9391L10.6167 56.2058L10.5389 56.4669C10.4929 56.6286 10.4526 56.7918 10.4167 56.9558L10.3611 57.2224L10.3 57.4891C10.2791 57.5848 10.276 57.679 10.2889 57.7724L10.3278 58.0446L10.3667 58.3113C10.393 58.498 10.4135 58.6866 10.4333 58.8724L10.4889 59.4058C10.5113 59.6163 10.5227 59.8229 10.5111 60.0224L10.4945 60.2558L10.4833 60.4891C10.4832 60.4921 10.4784 60.5393 10.5278 60.6391L10.6611 60.9058L10.7945 61.178C10.9935 61.5801 10.9687 62.0115 10.7445 62.3891L10.4333 62.9224C10.3794 63.0132 10.3636 63.0772 10.3611 63.1224L10.3445 63.3891L10.3333 63.6613C10.3325 63.6871 10.3362 63.7322 10.3778 63.8058L10.5278 64.0724L10.6833 64.3391C10.8376 64.6113 10.926 64.9149 10.9167 65.2391L10.9111 65.5058L10.9 65.7724C10.8946 65.9526 10.8908 66.1364 10.8833 66.3169L10.8611 66.8502C10.854 67.0225 10.848 67.1947 10.8445 67.3669L10.8333 67.9002C10.8279 68.1665 10.7734 68.4276 10.6778 68.678L10.5722 68.9502L10.4667 69.2113L10.7 69.7335C10.7972 69.9501 10.8731 70.1733 10.9222 70.4002L10.9778 70.6613L11.0333 70.928C11.0824 71.1553 11.1089 71.3849 11.1056 71.6169L11.0945 72.1502C11.0917 72.3419 11.0859 72.5352 11.0722 72.728L11.0556 72.9946L11.0333 73.2669C11.0281 73.341 11.0371 73.4164 11.0667 73.4946L11.1667 73.7502L11.2611 74.0113C11.3554 74.261 11.4056 74.5224 11.4056 74.7891V75.3224C11.4056 75.4157 11.4209 75.5106 11.4556 75.6058L11.6445 76.1169C11.7889 76.5135 11.7215 76.9061 11.5445 77.2391L11.3945 77.528L11.2389 77.8113C11.2267 77.8343 11.2196 77.852 11.2167 77.8613L11.2833 78.1169L11.35 78.378C11.3632 78.4303 11.3751 78.499 11.3833 78.5669C11.3872 78.5989 11.3943 78.6603 11.3889 78.7335C11.387 78.7594 11.3775 79.0107 11.1667 79.2113C11.031 79.3397 10.8483 79.4063 10.6667 79.4058C10.63 79.4055 10.5988 79.3828 10.5667 79.378C10.5422 79.4752 10.5165 79.565 10.5 79.6502L10.45 79.9169L10.3945 80.1835C10.3714 80.3028 10.3648 80.4227 10.3722 80.5391L10.4056 81.0724C10.4087 81.1212 10.4259 81.1924 10.4833 81.2891L10.6445 81.5558L10.8 81.8224C10.9717 82.1113 11.064 82.4441 11.0222 82.8002L10.9945 83.0613L10.9611 83.328C10.9374 83.5297 10.9014 83.7315 10.8556 83.9335L10.7333 84.4669C10.7174 84.5372 10.722 84.6052 10.7389 84.6724L10.8056 84.9335L10.8722 85.2002C10.947 85.4978 10.9414 85.8003 10.8611 86.0946L10.7889 86.3669L10.7111 86.6335C10.6757 86.7632 10.6554 86.8891 10.65 87.0113L10.6389 87.2835L10.6278 87.5502C10.6197 87.7385 10.6108 87.9283 10.5945 88.1169L10.5722 88.3835L10.5445 88.6335C10.545 88.6353 10.5524 88.6553 10.5778 88.6891L10.7722 88.9502L10.9667 89.2058C11.1763 89.4847 11.3075 89.8249 11.2833 90.2058L11.25 90.7391C11.2312 91.036 11.1407 91.3194 11 91.578L10.85 91.8502L10.7667 91.9946L10.8889 92.1558L11.0778 92.4169C11.274 92.6835 11.4087 92.9971 11.4167 93.3502L11.4278 93.8835C11.4348 94.1957 11.3573 94.496 11.2167 94.7669L10.9389 95.3002L11.0222 95.5558L11.1167 95.8224C11.2002 96.0725 11.2397 96.3322 11.2389 96.5946V97.1391C11.2376 97.5196 11.0864 97.8534 10.8445 98.1169L10.7778 98.1835L10.9333 98.2891L11.2333 98.2113L11.5389 98.128L11.8611 98.078C12.0744 98.0724 12.2823 98.1228 12.4722 98.228L12.7445 98.428L12.9556 98.6335L13.1722 98.8446C13.27 98.9394 13.3639 99.0091 13.4556 99.0558L13.7 99.178L13.9389 99.3002L13.9889 99.2891L14.5889 99.1446L14.9 99.1058C15.2061 99.1015 15.5019 99.2034 15.75 99.4224L15.9722 99.6224L16.1945 99.8169C16.2838 99.8959 16.3704 99.9472 16.45 99.978L16.7 100.072L16.95 100.172C17.0394 100.207 17.1349 100.224 17.2389 100.228L17.5167 100.239L17.7889 100.245C18.0739 100.254 18.3507 100.327 18.6056 100.456L18.8445 100.578L19.0889 100.7C19.0956 100.704 19.101 100.705 19.1056 100.706C19.1112 100.706 19.1268 100.706 19.1556 100.7L19.45 100.639L19.7389 100.572C20.0889 100.498 20.4479 100.544 20.7722 100.728L21.0167 100.861L21.2556 101C21.3493 101.053 21.4443 101.088 21.5389 101.106L22.0611 101.206C22.2876 101.248 22.5095 101.315 22.7222 101.406L22.9722 101.511L23.2167 101.617C23.2753 101.642 23.3397 101.655 23.4167 101.65L23.7 101.634L23.9778 101.611C24.326 101.589 24.6543 101.683 24.9389 101.878L25.1778 102.039L25.4111 102.206C25.4764 102.251 25.5325 102.267 25.5833 102.272L25.85 102.295L26.1167 102.322C26.2342 102.334 26.3606 102.331 26.4945 102.311L27.0611 102.234L27.35 102.222C27.6336 102.241 27.8974 102.347 28.1222 102.528L28.3556 102.717L28.5111 102.839L28.7278 102.767L29.0167 102.667C29.3299 102.557 29.6692 102.53 30.0056 102.628L30.2667 102.7L30.5222 102.778C30.7246 102.837 30.9227 102.909 31.1167 102.995L31.3667 103.1L31.6167 103.211C31.7106 103.253 31.8058 103.281 31.9056 103.289L32.1778 103.311L32.4445 103.334C32.6876 103.354 32.9084 103.436 33.1167 103.55C33.1012 103.507 33.1003 103.469 33.0833 103.445L32.9278 103.228L32.7778 103.017C32.6891 102.891 32.596 102.766 32.4945 102.645L32.15 102.234C32.0326 102.093 31.9156 101.951 31.8 101.806L31.6333 101.595L31.4611 101.378C31.272 101.14 31.1497 100.865 31.1 100.567L31.0111 100.022C30.9925 99.9103 30.9571 99.8112 30.9111 99.7224L30.7889 99.4835L30.6667 99.2502C30.624 99.1679 30.5624 99.0824 30.4722 98.9946L30.05 98.5835C29.7454 98.2876 29.615 97.8967 29.6667 97.4835L29.7056 97.1835L29.7333 96.9224L29.5667 96.7502L29.3611 96.5391C29.1547 96.3281 28.9923 96.0791 28.9 95.7946L28.8167 95.5391L28.7389 95.2891C28.6575 95.0383 28.6204 94.7757 28.6278 94.5113L28.6333 94.228L28.6445 93.9502C28.6498 93.7594 28.653 93.5678 28.6611 93.378L28.6722 93.1002L28.6889 92.8169C28.6898 92.7878 28.6814 92.7687 28.6611 92.7391L28.5 92.5058L28.3445 92.2724C28.1514 91.991 28.054 91.6665 28.0722 91.3224L28.1056 90.7669C28.1112 90.6596 28.0982 90.5625 28.0722 90.4724L27.9945 90.2169L27.9222 89.9613C27.8958 89.8701 27.852 89.7733 27.7833 89.6724L27.6167 89.4335L27.4556 89.1946C27.2661 88.918 27.1662 88.5982 27.1778 88.2558L27.1889 87.9835L27.1945 87.7058C27.2003 87.534 27.2016 87.3637 27.2 87.1946V86.6558C27.1997 86.621 27.187 86.5793 27.15 86.5224L26.9945 86.278L26.8333 86.0391C26.6502 85.7578 26.5579 85.4321 26.5778 85.0891L26.6111 84.5446C26.6193 84.4036 26.6158 84.2665 26.6 84.1335L26.5333 83.6002C26.5238 83.5232 26.5001 83.4401 26.45 83.3502L26.1722 82.8502C26.0123 82.5623 25.9439 82.2436 25.9778 81.9113L26.0056 81.6391L26.0333 81.3613C26.0492 81.2051 26.057 81.0513 26.0556 80.9002L26.05 80.6335V80.3613C26.0486 80.2196 26.0341 80.0776 26.0111 79.9391L25.9222 79.4169C25.8915 79.2313 25.8672 79.0423 25.8445 78.8558L25.8111 78.5891L25.7778 78.328C25.7485 78.0882 25.755 77.8465 25.7889 77.6058L25.8278 77.3335L25.8556 77.1002L25.4333 76.6113C25.2213 76.3628 25.0678 76.0612 25.0278 75.7169L25 75.4558L24.9667 75.1891C24.936 74.925 24.9548 74.6595 25.0167 74.4002L25.0833 74.128L25.1445 73.8502C25.185 73.6803 25.2251 73.5124 25.2556 73.3446L25.3056 73.0724L25.35 72.8002C25.353 72.7836 25.3589 72.7659 25.3389 72.728L25.2 72.4724L25.0667 72.2169C24.8767 71.8564 24.8621 71.4612 25.0111 71.0891L25.1222 70.8113L25.2 70.6113L25.0667 70.4113L24.8945 70.1558C24.6651 69.8135 24.5964 69.4028 24.7389 68.9946L24.9278 68.4502C24.979 68.3035 25.0156 68.1603 25.0389 68.0224L25.0889 67.7558L25.1333 67.4835C25.1405 67.4402 25.1334 67.3992 25.1111 67.3446L24.9 66.8224C24.761 66.4845 24.7531 66.1253 24.8722 65.7835L24.9667 65.5113L25.0389 65.2946L24.8945 65.0669L24.7333 64.8058C24.5866 64.5753 24.4749 64.3281 24.4111 64.0669L24.3445 63.8002L24.2833 63.5391C24.2187 63.2742 24.2052 63.0033 24.2445 62.7335L24.2833 62.4669L24.3222 62.1946C24.3568 61.9579 24.4226 61.7159 24.55 61.5002L24.65 61.328L24.75 61.1613L24.9389 60.928C25.1457 60.7333 25.4079 60.6476 25.6389 60.6169L25.9056 60.578L26.1722 60.5446C26.4068 60.5136 26.6428 60.5125 26.8778 60.5391L27.4111 60.5946C27.4744 60.6017 27.5414 60.5959 27.6222 60.5669L28.1556 60.378C28.3999 60.2901 28.6532 60.2401 28.9111 60.2335L29.4445 60.2224C29.7609 60.2147 30.0619 60.2938 30.3333 60.4391L30.6 60.5835L30.7889 60.6835L30.9889 60.578L31.2556 60.428L31.5167 60.3169C31.7872 60.2302 32.0782 60.226 32.3667 60.328L32.6333 60.428L32.9 60.5224H32.9278C32.9311 60.5217 32.9374 60.5196 32.9445 60.5169L33.4778 60.3169C33.7038 60.2306 33.9368 60.1705 34.1722 60.1391L34.4389 60.1002L34.7056 60.0669C34.9523 60.0342 35.2008 60.04 35.4445 60.0946H35.4556L35.4945 59.9724C35.5586 59.7453 35.655 59.5295 35.7722 59.3224L36.0389 58.8446C36.0604 58.8067 36.0752 58.767 36.0722 58.7113L36.0556 58.4335L36.0389 58.1502C36.0232 57.8589 36.0732 57.5702 36.1889 57.3002L36.2945 57.0558L36.4 56.8058C36.4202 56.7577 36.4296 56.7001 36.4222 56.6224L36.3945 56.3391L36.3722 56.0558C36.3403 55.7179 36.4091 55.3877 36.5889 55.0946L36.7333 54.8558L36.8778 54.6224C36.9026 54.582 36.9176 54.5446 36.9167 54.4946L36.9111 54.2169L36.9 53.9391C36.8922 53.5623 37.0306 53.2221 37.2722 52.9502L37.4722 52.728L37.6667 52.5058C37.7029 52.4652 37.7102 52.445 37.7111 52.4335L37.7278 52.1613L37.75 51.8891C37.7716 51.609 37.85 51.3417 37.9833 51.0946L38.1167 50.8558L38.2445 50.6113C38.3419 50.4311 38.4498 50.2614 38.5667 50.1224L38.6778 49.9946L38.7833 49.8613C38.8161 49.8223 38.9373 49.6832 39.1389 49.6113C39.2614 49.568 39.4382 49.5404 39.6278 49.6058C39.8126 49.6701 39.9293 49.7946 39.9945 49.8891C40.1049 50.0505 40.1272 50.2201 40.1333 50.2724C40.1424 50.3498 40.1464 50.4256 40.1445 50.4891L40.1222 51.0446C40.1209 51.0865 40.1322 51.1182 40.1556 51.1558L40.4556 51.6335C40.6457 51.9361 40.7133 52.2787 40.6667 52.628L40.6278 52.9113L40.5945 53.2002C40.5795 53.3132 40.5811 53.4097 40.6 53.4946L40.6611 53.7558L40.7167 54.0169C40.7651 54.2335 40.7917 54.454 40.8 54.678L40.8222 55.2224C40.8254 55.3077 40.8475 55.3864 40.8833 55.4613L41.1167 55.9502C41.2187 56.1634 41.2958 56.3866 41.3445 56.6169L41.3945 56.878L41.45 57.1391C41.4586 57.1799 41.4842 57.2372 41.5445 57.3058L41.7389 57.528L41.9389 57.7502C42.2353 58.0877 42.3174 58.5137 42.2 58.9335L42.1167 59.2335L42.0333 59.5113L42.1667 59.7224L42.3222 59.9558C42.4064 60.0864 42.4798 60.1851 42.5445 60.2558L42.6945 60.4169L42.8056 60.5446L43.0722 60.5669L43.3389 60.5946C43.5001 60.6108 43.6613 60.6232 43.8222 60.628L44.0889 60.6335L44.3556 60.6446C44.3854 60.6455 44.4364 60.6394 44.5167 60.5946L45.05 60.2946C45.2907 60.159 45.5607 60.0843 45.8389 60.1002L46.1222 60.1446L46.6556 60.2891C46.8549 60.343 47.0526 60.4097 47.25 60.4835L47.7833 60.6835C47.9116 60.7315 48.0369 60.758 48.1556 60.7724L48.6889 60.8391C48.7322 60.8441 48.7843 60.8418 48.8556 60.8113L49.1222 60.6946L49.3889 60.5835C49.7299 60.4375 50.0978 60.4204 50.45 60.5502L50.7167 60.6502L50.9056 60.7169L51.1389 60.5669L51.4056 60.3891C51.765 60.1505 52.198 60.099 52.6111 60.2891C52.6516 60.0905 52.7006 59.896 52.7667 59.7113L52.8611 59.4613L52.95 59.2113C52.9735 59.1456 52.9859 59.069 52.9778 58.978L52.95 58.6946L52.9278 58.4169C52.9166 58.2917 52.9128 58.1494 52.9333 58.0113C52.9528 57.8818 53.0034 57.6853 53.1556 57.5113L53.2333 57.4169L53.3167 57.3224L53.5333 57.1446C53.7631 57.0194 54.0156 57.0436 54.1722 57.0891C54.3535 57.1424 54.5043 57.2438 54.6056 57.3224L54.8445 57.5113L55.0778 57.6946C55.3439 57.9017 55.5478 58.1764 55.6389 58.5169L55.7056 58.778L55.7778 59.0391C55.8031 59.1337 55.8441 59.2193 55.9 59.3002L56.0556 59.5224L56.2056 59.7502C56.2962 59.8809 56.3639 59.9533 56.4 59.9891L56.5278 60.1169L56.7445 60.1058L57.0111 60.0891C57.2609 60.0728 57.5111 60.0926 57.7556 60.1502L58.0222 60.2169L58.2889 60.278C58.4274 60.3104 58.5646 60.331 58.7 60.3391L59.2333 60.3724C59.3204 60.3776 59.4123 60.3647 59.5111 60.3335L60.0445 60.1669C60.3891 60.0584 60.7397 60.0789 61.0667 60.2169L61.3333 60.328L61.6 60.4446C61.6483 60.465 61.6769 60.4611 61.7 60.4558L62.2333 60.3335C62.5066 60.2708 62.7856 60.2634 63.0611 60.3169L63.3278 60.3669L63.5945 60.4224C63.6796 60.4387 63.7643 60.4399 63.85 60.4224L64.3833 60.3113C64.6468 60.2577 64.9129 60.254 65.1778 60.3002L65.4445 60.3446L65.7111 60.3946C65.9162 60.4307 66.1248 60.479 66.3278 60.5391L66.5945 60.6169L66.85 60.6891H66.8611L67.1278 60.5446L67.3945 60.4058C67.6554 60.2697 67.9413 60.218 68.2278 60.2613L68.5111 60.3391L69.0445 60.5391C69.143 60.5766 69.2308 60.5906 69.3111 60.5891L69.8445 60.578C70.0426 60.5742 70.2409 60.5812 70.4389 60.5946L70.9722 60.628C71.152 60.6402 71.3314 60.6582 71.5111 60.6724L71.7778 60.6891L72.0445 60.7113C72.1078 60.7163 72.1818 60.7111 72.2667 60.678L72.8 60.4669C73.1274 60.3396 73.474 60.3288 73.8111 60.4391L74.0778 60.528L74.3445 60.6113C74.3468 60.6107 74.3573 60.61 74.3667 60.6058L74.6333 60.4891L74.9 60.3669C75.1803 60.2405 75.4818 60.1803 75.7945 60.2113L76.3278 60.2669C76.5526 60.2892 76.7748 60.334 76.9945 60.4002L77.2611 60.478L77.5278 60.5613C77.6222 60.5898 77.7106 60.5959 77.7945 60.5891L78.3278 60.5446C78.512 60.529 78.6991 60.5161 78.8833 60.5058L79.15 60.4891L79.4167 60.478C79.5557 60.4702 79.6405 60.4525 79.6833 60.4391L79.8611 60.378L79.9667 60.3391L79.9778 60.3335L80.1222 60.0946L80.2722 59.8613C80.3548 59.7285 80.4263 59.5917 80.4889 59.4558L80.6 59.2113L80.7167 58.9669C80.7463 58.9023 80.7617 58.8323 80.7611 58.7502L80.7556 58.4724V58.1946C80.7528 57.9082 80.8079 57.6281 80.9278 57.3669L81.0445 57.1224L81.3778 56.3891L81.4889 56.1391L81.6 55.8946C81.6598 55.7633 81.7114 55.6307 81.75 55.4946L81.8945 54.9835C81.9348 54.8412 81.9663 54.6927 81.9889 54.5446L82.0278 54.278L82.0722 54.0169C82.1071 53.7887 82.1663 53.565 82.25 53.3502L82.3445 53.1002L82.4445 52.8502C82.4606 52.8088 82.4674 52.7539 82.4556 52.6724L82.4167 52.3835L82.3722 52.0946C82.3179 51.7219 82.4066 51.3579 82.6333 51.0502L82.8 50.8224L82.9722 50.5946C83.087 50.4389 83.1909 50.2983 83.2833 50.178L83.4167 50.0058L83.5445 49.8335L83.7278 49.6446C83.7561 49.6228 83.809 49.5827 83.8833 49.5502C83.9509 49.5207 84.1188 49.4602 84.3278 49.5058C84.5762 49.5605 84.733 49.7325 84.8111 49.8891C84.8754 50.018 84.8869 50.1329 84.8889 50.1835C84.8927 50.2873 84.8728 50.374 84.8667 50.4002C84.8576 50.4386 84.8478 50.4736 84.8389 50.5002C84.8207 50.5548 84.7963 50.6143 84.7722 50.6724L84.6445 50.9835L84.5167 51.2891C84.4994 51.3308 84.4955 51.3575 84.4945 51.3669L84.5778 51.6113L84.6611 51.8669C84.6751 51.9072 84.709 51.9688 84.7889 52.0446L85.0167 52.2558L85.2445 52.4724C85.3985 52.6186 85.5264 52.811 85.5889 53.0446C85.6511 53.2782 85.6335 53.5075 85.5722 53.7113L85.4833 54.0113L85.3889 54.3113C85.3607 54.4066 85.3653 54.4609 85.3722 54.4891L85.4389 54.7502L85.5056 55.0058C85.5141 55.0396 85.5374 55.0911 85.6056 55.1613L85.8167 55.3835L86.0278 55.6002C86.2243 55.8026 86.3876 56.0344 86.4945 56.2946L86.6945 56.7946C86.7915 57.0313 86.8543 57.2782 86.8722 57.5335L86.9056 58.078C86.917 58.2392 86.9378 58.3982 86.9611 58.5558L87.0389 59.0891C87.0528 59.1819 87.085 59.2717 87.1333 59.3613L87.2611 59.6002L87.3889 59.8446C87.4821 60.0176 87.5607 60.1869 87.6167 60.3446L87.8778 60.328C88.1768 60.3061 88.4668 60.3623 88.7389 60.478L89.0056 60.5946L89.2722 60.7058C89.3752 60.7497 89.4684 60.7698 89.55 60.7724L89.8167 60.778L90.0833 60.7891C90.1935 60.7925 90.3063 60.779 90.4222 60.7502L90.9556 60.6169C91.1308 60.5732 91.3081 60.5293 91.4833 60.4835L91.75 60.4169L92.0167 60.3446C92.2828 60.2752 92.5552 60.2561 92.8278 60.2946L93.3611 60.3724C93.5592 60.4006 93.7585 60.4378 93.9556 60.4835L94.4889 60.6058C94.6499 60.6431 94.812 60.6747 94.9722 60.7002L95.5056 60.7891C95.5975 60.8036 95.6893 60.7972 95.7833 60.778L96.05 60.728L96.3167 60.6724C96.5771 60.6186 96.8429 60.6087 97.1056 60.6502L97.6389 60.7391C97.665 60.7432 97.7052 60.7398 97.7667 60.7113L98.3 60.4669C98.594 60.3313 98.9153 60.275 99.2445 60.328L99.7778 60.4169C99.9318 60.4416 100.086 60.4576 100.239 60.4669L100.772 60.5002C100.917 60.5089 101.061 60.5061 101.206 60.4946L101.739 60.4502C102.028 60.4273 102.315 60.4734 102.583 60.5946L102.817 60.7002L103.044 60.8058C103.236 60.8928 103.432 61.0438 103.55 61.2835C103.664 61.5166 103.667 61.7538 103.633 61.9446L103.583 62.2113L103.539 62.478C103.526 62.5523 103.529 62.6274 103.55 62.7113L103.617 62.9835L103.683 63.2502C103.798 63.7014 103.646 64.1068 103.389 64.4113L103.172 64.6724L103.089 64.7613L103.167 64.8669L103.361 65.1446C103.481 65.3111 103.581 65.5153 103.606 65.7558C103.63 66.0044 103.572 66.2396 103.461 66.4391L103.317 66.7002L103.172 66.9558C103.106 67.0747 103.062 67.187 103.039 67.2891L102.983 67.5558L102.922 67.8169C102.895 67.9421 102.883 68.0699 102.883 68.1946V68.728C102.884 68.9598 102.863 69.1901 102.811 69.4169L102.75 69.678L102.689 69.9446C102.669 70.031 102.664 70.1193 102.678 70.2113L102.722 70.478L102.761 70.7502C102.804 71.0286 102.787 71.3066 102.711 71.578L102.567 72.1002C102.558 72.1306 102.553 72.1689 102.572 72.228L102.661 72.5002L102.75 72.778C102.841 73.0582 102.873 73.3497 102.828 73.6446L102.789 73.9113L102.75 74.1724C102.711 74.4285 102.624 74.6731 102.506 74.9058L102.378 75.1613L102.244 75.4169C102.217 75.4705 102.213 75.5093 102.217 75.5446L102.272 76.0891C102.289 76.2507 102.315 76.4134 102.344 76.578L102.394 76.8558L102.444 77.128C102.506 77.4731 102.447 77.8125 102.283 78.1169L102.144 78.3669L102.011 78.6169L102.178 79.1724C102.256 79.4379 102.288 79.7133 102.261 79.9891L102.233 80.2502L102.206 80.5169C102.176 80.8143 102.074 81.0951 101.917 81.3446L101.761 81.5891L101.639 81.778L101.733 82.0169L101.85 82.3058C102.011 82.7183 101.957 83.1548 101.689 83.5169L101.511 83.7558L101.372 83.9446L101.45 84.1613L101.55 84.4502C101.669 84.7989 101.662 85.1719 101.494 85.5224L101.372 85.7724L101.256 86.0224C101.179 86.1827 101.104 86.3455 101.033 86.5058L100.811 87.0058C100.787 87.0615 100.778 87.1171 100.783 87.1835L100.828 87.7391C100.852 88.0305 100.809 88.3167 100.7 88.5891L100.6 88.8446L100.5 89.0946C100.447 89.2273 100.403 89.36 100.372 89.4946L100.317 89.7558L100.256 90.0113C100.237 90.096 100.23 90.1938 100.244 90.3058L100.322 90.8724C100.355 91.1261 100.352 91.3837 100.311 91.6335L100.267 91.8946L100.222 92.1613C100.165 92.5125 99.9915 92.8112 99.75 93.0446L99.5278 93.2558L99.3 93.4724C99.2191 93.5506 99.1914 93.6147 99.1778 93.6558L99.0111 94.1558C98.9605 94.3086 98.913 94.466 98.8722 94.6224L98.8056 94.878L98.7389 95.1391C98.7261 95.1889 98.7164 95.2626 98.7389 95.3724L98.8056 95.678L98.8667 95.978C98.9532 96.3959 98.8472 96.8085 98.5389 97.128L98.3333 97.3446L98.1278 97.5558C98.0569 97.6296 98.016 97.6956 97.9945 97.7558L97.9056 98.0113L97.8167 98.2613C97.7777 98.3718 97.7524 98.4919 97.7389 98.6224L97.6833 99.178C97.6401 99.601 97.4042 99.9328 97.0778 100.15L96.8222 100.322L96.5611 100.495C96.4924 100.54 96.4765 100.574 96.4722 100.584L96.3722 100.828L96.2722 101.078C96.2233 101.202 96.1863 101.335 96.1556 101.478L96.0945 101.75L96.0389 102.022C95.9975 102.215 95.9465 102.407 95.8945 102.6L95.8222 102.872L95.75 103.15C95.722 103.254 95.6753 103.347 95.6278 103.439L95.7556 103.45C95.9544 103.465 96.156 103.48 96.3556 103.506L96.6333 103.545L96.9167 103.578C96.9745 103.585 97.0131 103.578 97.05 103.561L97.3 103.445L97.5445 103.328C97.6823 103.263 97.8234 103.192 97.9611 103.106L98.2 102.956L98.4445 102.8C98.6684 102.661 98.9105 102.563 99.1667 102.506L99.4278 102.445L99.6889 102.389C99.9553 102.33 100.225 102.329 100.494 102.372L101.061 102.461C101.177 102.48 101.279 102.477 101.372 102.461L101.633 102.417L101.9 102.372C101.982 102.358 102.063 102.326 102.15 102.272L102.394 102.128L102.633 101.978C102.839 101.851 103.057 101.751 103.283 101.678L103.539 101.595L103.789 101.517C104.054 101.432 104.329 101.403 104.606 101.428L104.883 101.456L105.167 101.478C105.252 101.486 105.321 101.474 105.383 101.45L105.633 101.356L105.889 101.261C106.042 101.203 106.194 101.14 106.344 101.072L106.589 100.961L106.839 100.85C107.084 100.741 107.343 100.68 107.611 100.667L107.883 100.656L108.156 100.639C108.195 100.637 108.236 100.629 108.283 100.595L108.511 100.428L108.744 100.267C109.031 100.062 109.364 99.9669 109.717 99.9891L109.994 100.006L110.278 100.022C110.312 100.025 110.33 100.017 110.356 100L110.589 99.8446L110.822 99.6946C111.102 99.5088 111.42 99.4203 111.756 99.4335L112.039 99.4446L112.317 99.4558C112.412 99.4596 112.494 99.4444 112.567 99.4169L112.817 99.3224L113.067 99.2224C113.346 99.1165 113.64 99.0854 113.933 99.1169L114.222 99.1502L114.417 99.1669L114.583 98.9724L114.789 98.728C115.014 98.4591 115.317 98.2586 115.694 98.2002L115.961 98.1558L116.228 98.1169C116.334 98.1006 116.437 98.0694 116.533 98.0224L116.778 97.9002L116.85 97.8613C116.858 97.7388 116.865 97.6112 116.883 97.5002L116.928 97.2224L116.978 96.9391C117.015 96.7213 117.066 96.5048 117.133 96.2946L117.217 96.028L117.306 95.7613C117.342 95.648 117.355 95.5418 117.356 95.4446V94.9169C117.356 94.7705 117.346 94.6209 117.328 94.4724L117.3 94.2058L117.267 93.9391C117.242 93.7303 117.23 93.5209 117.233 93.3113L117.244 92.778C117.245 92.7486 117.24 92.6908 117.189 92.6002L116.878 92.0558C116.766 91.8573 116.697 91.6176 116.728 91.3558C116.758 91.0993 116.874 90.8868 117.011 90.7224L117.228 90.4613L117.322 90.3446L117.25 90.2391L117.072 89.9669C116.96 89.7951 116.876 89.5873 116.861 89.3502C116.846 89.1088 116.909 88.8867 117.017 88.6946L117.161 88.4335L117.311 88.1724C117.341 88.119 117.34 88.0918 117.339 88.078L117.306 87.8058L117.272 87.5391C117.257 87.4139 117.229 87.2845 117.183 87.1502L117.089 86.878L117 86.6058C116.859 86.1934 116.936 85.7876 117.161 85.4502L117.333 85.1891L117.45 85.0113L117.367 84.8446L117.228 84.5724C117.074 84.2686 117.013 83.9288 117.083 83.578L117.139 83.3113L117.189 83.0446C117.222 82.8784 117.252 82.7104 117.278 82.5446L117.317 82.2835L117.361 82.0169C117.394 81.8001 117.447 81.5852 117.517 81.3724L117.694 80.8391C117.699 80.8245 117.695 80.8134 117.694 80.8113C117.694 80.8071 117.695 80.7983 117.689 80.7835L117.583 80.5169L117.483 80.2502C117.391 80.0113 117.33 79.7641 117.311 79.5113L117.294 79.2446L117.272 78.978C117.263 78.8558 117.252 78.7336 117.239 78.6113C117.224 78.6134 117.21 78.6267 117.194 78.628C117.022 78.6415 116.715 78.5988 116.511 78.3169C116.349 78.0912 116.364 77.8515 116.372 77.7669C116.383 77.6597 116.415 77.5622 116.439 77.4946L116.617 76.9835C116.629 76.9481 116.635 76.9103 116.622 76.8558L116.489 76.3002C116.41 75.9782 116.427 75.6512 116.55 75.3391L116.75 74.828C116.789 74.7288 116.808 74.6288 116.811 74.5335L116.833 74.0002C116.837 73.8938 116.825 73.7808 116.794 73.6613L116.728 73.3891L116.656 73.1169C116.574 72.7956 116.593 72.4673 116.711 72.1558L116.806 71.8946L116.906 71.6391C116.978 71.4479 117.06 71.2563 117.15 71.0669L117.272 70.8058L117.361 70.6113L117.239 70.3835L117.089 70.1058C116.906 69.7683 116.853 69.3787 116.994 68.9891L117.089 68.7224L117.183 68.4613C117.23 68.3331 117.261 68.2073 117.278 68.0835L117.311 67.8169L117.35 67.5502C117.362 67.4547 117.359 67.3571 117.339 67.2558L117.283 66.9835L117.228 66.7169C117.17 66.4342 117.175 66.1467 117.244 65.8669L117.311 65.6058L117.378 65.3391C117.413 65.1994 117.433 65.0602 117.444 64.9224L117.489 64.3891C117.492 64.3537 117.487 64.3037 117.45 64.228L117.317 63.9613L117.189 63.6946C117.059 63.4323 116.98 63.1467 116.978 62.8502V62.5835L116.972 62.3224C116.97 62.1029 116.991 61.8795 117.028 61.6613L117.117 61.128C117.156 60.8954 117.225 60.6697 117.317 60.4502L117.422 60.1946L117.506 59.978L117.394 59.7391L117.261 59.4724C117.09 59.1273 117.061 58.7437 117.2 58.3724L117.3 58.1058L117.394 57.8391C117.448 57.6961 117.489 57.5515 117.517 57.4113L117.572 57.1446L117.617 56.9002L117.611 56.8946L117.428 56.6391L117.239 56.378C117.019 56.0705 116.908 55.6941 116.994 55.2891L117.05 55.0169L117.111 54.7502C117.14 54.6167 117.15 54.4836 117.15 54.3558V54.0891L117.156 53.8224C117.156 53.7084 117.136 53.5946 117.106 53.4835ZM87.3611 60.6335L87.3722 60.8169L87.6333 60.728L87.6222 60.5446L87.3611 60.6335ZM87.6333 60.728L87.3722 60.8169L87.3611 60.6335L87.6222 60.5446L87.6333 60.728ZM14.7667 40.4113C14.768 40.41 14.7743 40.4103 14.7778 40.4058V40.3946L14.7667 40.4113ZM9.86668 90.1169C9.86331 90.1085 9.84999 90.0908 9.82779 90.0613L9.63334 89.8002L9.4389 89.5446C9.22663 89.2621 9.09425 88.915 9.12779 88.528L9.15001 88.2613L9.17779 87.9946C9.19236 87.8265 9.20392 87.6568 9.21112 87.4891L9.23334 86.9558C9.24332 86.723 9.27687 86.4892 9.3389 86.2613L9.41668 85.9891L9.4889 85.7224C9.50657 85.6577 9.50269 85.5995 9.4889 85.5446L9.42779 85.2835L9.36112 85.0169C9.2895 84.7317 9.28516 84.4422 9.35001 84.1558L9.41112 83.8891L9.47223 83.6169C9.50705 83.463 9.53247 83.3109 9.55001 83.1613L9.57779 82.8946L9.61112 82.6335C9.61144 82.6308 9.61329 82.626 9.61112 82.6169C9.60865 82.6066 9.59858 82.5854 9.57779 82.5502L9.42223 82.2835L9.26112 82.0169C9.10729 81.758 9.00859 81.468 8.9889 81.1613L8.95557 80.628C8.94047 80.3897 8.95459 80.1523 9.00001 79.9169L9.10001 79.3835C9.13918 79.1806 9.19552 78.9649 9.26112 78.7391L9.35001 78.428L9.44446 78.1113C9.46683 78.0347 9.50032 77.9419 9.55001 77.8502C9.58655 77.7829 9.67616 77.65 9.8389 77.5446C9.87168 77.4057 9.91689 77.2696 9.98334 77.1446L10.1389 76.8613L10.2889 76.5724C10.292 76.5667 10.2926 76.5598 10.2945 76.5558L10.2167 76.3502L10.1222 76.0891C10.0323 75.8418 9.98341 75.5853 9.98334 75.3224V74.7891C9.98334 74.6993 9.96909 74.6058 9.93334 74.5113L9.83334 74.2558L9.7389 73.9946C9.63843 73.7289 9.59664 73.451 9.61668 73.1669L9.63334 72.8946L9.65557 72.628C9.66733 72.4627 9.66987 72.2973 9.67223 72.1335L9.67779 71.8613L9.68334 71.5946C9.68493 71.472 9.67083 71.3502 9.64446 71.228L9.5889 70.9613L9.53334 70.7002C9.50656 70.5765 9.46435 70.4482 9.40557 70.3169L9.28334 70.0558L9.16668 69.7946C9.01007 69.4456 9.00413 69.0708 9.1389 68.7169L9.35001 68.1724C9.39265 68.0609 9.4093 67.9611 9.41112 67.8724L9.42223 67.3391C9.42594 67.1563 9.43137 66.9719 9.4389 66.7891L9.46112 66.2558C9.46829 66.0815 9.47252 65.9074 9.47779 65.7335L9.4889 65.4669L9.49446 65.2002C9.49533 65.1711 9.49006 65.1193 9.44446 65.0391L9.29446 64.7724L9.14446 64.5113C8.98692 64.2341 8.89534 63.92 8.91112 63.5891L8.92779 63.3224L8.9389 63.0558C8.95386 62.7454 9.05066 62.4556 9.20557 62.1946L9.36668 61.928L9.48334 61.728L9.3889 61.5391L9.25557 61.2669C9.12713 61.0073 9.04326 60.7148 9.06112 60.4058L9.07779 60.1724L9.0889 59.9391C9.09537 59.8271 9.09309 59.6997 9.07779 59.5558L9.02223 59.0224C9.00416 58.853 8.97965 58.682 8.95557 58.5113L8.91668 58.2446L8.88334 57.9724C8.84642 57.7101 8.85474 57.448 8.91112 57.1891L8.96668 56.9169L9.02779 56.6502C9.06987 56.4581 9.11834 56.2674 9.17223 56.078L9.25001 55.8169L9.32223 55.5502C9.3782 55.3535 9.44214 55.1587 9.51668 54.9669L9.61668 54.7058L9.72223 54.4502C9.72575 54.441 9.72222 54.4349 9.72223 54.4335C9.72208 54.4295 9.72275 54.4187 9.71668 54.4002L9.52779 53.8446C9.43798 53.5777 9.40058 53.2986 9.42223 53.0169L9.4389 52.7502L9.46112 52.4835C9.48552 52.1662 9.6002 51.8769 9.77779 51.6224L9.94446 51.378L10.1167 51.1335C10.1224 51.1251 10.1263 51.12 10.1278 51.1169V51.1113L10.0945 50.8391L10.0611 50.5613C10.0378 50.3757 10.0118 50.1841 9.9889 49.9946L9.95557 49.7169L9.92223 49.4335C9.88396 49.1164 9.9322 48.8026 10.0722 48.5113L10.1889 48.2613L10.3111 48.0169C10.4039 47.8245 10.5095 47.6366 10.6278 47.4558L10.7833 47.2169L10.9333 46.9835C11.0041 46.8755 11.0587 46.7682 11.0945 46.6613L11.2611 46.1613C11.2908 46.0725 11.3064 45.9704 11.3056 45.8558V45.2891C11.3034 44.9132 11.44 44.5745 11.6945 44.3058L12.0945 43.8835C12.1751 43.7987 12.2273 43.7169 12.2611 43.6391L12.4722 43.1502C12.4769 43.1385 12.4895 43.096 12.4722 43.0002L12.4167 42.6835L12.3611 42.3724C12.3222 42.1569 12.3276 41.9092 12.4333 41.6724C12.5392 41.4361 12.7185 41.2703 12.9056 41.1558L13.1778 40.9891L13.3778 40.8613V40.3669C13.3754 39.9706 13.5291 39.6069 13.8389 39.3391L14.2722 38.9613C14.352 38.8918 14.4075 38.8212 14.4445 38.7502L14.5667 38.5169L14.6889 38.278C14.7803 38.1025 14.8823 37.9334 14.9889 37.7669L15.1278 37.5391L15.2722 37.3169C15.364 37.1735 15.4565 37.0293 15.5445 36.8835L15.6833 36.6558L15.8167 36.428C15.9526 36.2025 16.1281 36.0046 16.3333 35.8391L16.55 35.6669L16.7111 35.5335V35.2169L16.7056 34.8835C16.7014 34.47 16.8606 34.057 17.2556 33.7946L17.4889 33.6391L17.7278 33.4835C17.8622 33.3942 17.9852 33.2976 18.1 33.2002L18.3111 33.0224L18.5167 32.8502C18.6179 32.7641 18.7042 32.6677 18.7833 32.5669L18.95 32.3613L19.1167 32.1502C19.1832 32.0653 19.2398 31.9631 19.2889 31.8446L19.4 31.5835L19.5056 31.3224L19.6445 31.0669C19.8055 30.8328 20.0337 30.6612 20.3056 30.5613L20.5833 30.4613L20.7722 30.3835L20.8333 30.1446L20.9 29.8391C20.9776 29.4936 21.1551 29.1691 21.4667 28.9446L21.6889 28.7891L21.9111 28.628C22.0288 28.543 22.1417 28.45 22.2445 28.3502L22.4333 28.1613L22.6278 27.978C22.829 27.7826 23.0666 27.6337 23.3278 27.5335L23.5889 27.4335L23.8556 27.3335C24.0129 27.2732 24.1622 27.2034 24.3056 27.1335L24.7945 26.9002C24.886 26.8556 24.9648 26.7973 25.0333 26.728L25.2222 26.5335L25.4111 26.3446C25.5877 26.1659 25.7889 26.0173 26.0111 25.9002L26.2445 25.7724L26.4833 25.6502C26.5914 25.5933 26.6912 25.5248 26.7833 25.4446L26.9889 25.2669L27.1889 25.0891C27.3313 24.9647 27.4797 24.8459 27.6278 24.728L27.8333 24.5613L28.0445 24.3946C28.2197 24.2551 28.4074 24.1313 28.6056 24.028L28.8445 23.9058L29.0778 23.7835C29.2906 23.6726 29.5199 23.5881 29.7556 23.5335L30.2889 23.4113C30.3359 23.4004 30.3733 23.3772 30.4111 23.3391L30.8056 22.9446C30.9851 22.7637 31.1868 22.6124 31.4111 22.4946L31.65 22.3669L31.8833 22.2446C32.0846 22.1391 32.2974 22.0569 32.5167 21.9946L32.7778 21.9224L33.0333 21.8446C33.1822 21.8024 33.3316 21.7568 33.4722 21.7002L33.9611 21.5002C34.0345 21.4707 34.1137 21.4216 34.1945 21.3446L34.4056 21.1446L34.6111 20.9446C34.8805 20.6878 35.2228 20.5491 35.6 20.5502H36.1667C36.2999 20.5506 36.4223 20.5339 36.5333 20.5058L36.7889 20.4446L37.05 20.378C37.1243 20.3591 37.2015 20.3228 37.2833 20.2613L37.7389 19.9169C37.9832 19.7329 38.2631 19.6472 38.55 19.6502L38.8389 19.6835L39.1333 19.7446L39.4222 19.8058C39.5346 19.83 39.622 19.83 39.6889 19.8169L39.95 19.7669L40.2056 19.7169C40.2738 19.7035 40.3532 19.6708 40.4389 19.6113L40.6778 19.4446L40.9167 19.2835C41.1542 19.1187 41.418 19.0041 41.7056 18.9558L41.9667 18.9113L42.2333 18.8669C42.3692 18.844 42.5042 18.8081 42.6389 18.7613L42.9 18.6724L43.1556 18.5835C43.4226 18.4908 43.7018 18.4536 43.9833 18.478L44.2556 18.5002L44.5278 18.528C44.79 18.5506 45.0483 18.6139 45.2945 18.7169L45.5667 18.8335L45.8445 18.9502C45.94 18.9901 46.0105 18.9982 46.0611 18.9946L46.3222 18.9724L46.5889 18.9558C46.6913 18.9484 46.7986 18.9263 46.9111 18.8835L47.4333 18.6835C47.7536 18.5616 48.0936 18.5461 48.4222 18.6446L48.6889 18.728L48.8889 18.7891L49.1389 18.6113L49.4056 18.4224C49.6395 18.2567 49.9169 18.1486 50.2167 18.1502L50.5222 18.1891L51.0556 18.3224C51.2308 18.3666 51.4081 18.4131 51.5833 18.4558L51.85 18.5224L52.1167 18.5835C52.1965 18.603 52.2735 18.6038 52.35 18.5891L52.8833 18.4891C53.0828 18.4508 53.2829 18.4243 53.4833 18.4058L53.75 18.378L54.0167 18.3558C54.3011 18.3295 54.5817 18.3677 54.85 18.4613L55.1167 18.5502L55.3833 18.6446C55.4255 18.6594 55.4553 18.6594 55.4889 18.6502L55.7556 18.578L56.0222 18.5002C56.2063 18.4482 56.3935 18.3967 56.5778 18.3502L57.1111 18.2169L57.4111 18.178C57.7066 18.1741 57.9817 18.2733 58.2167 18.4335L58.4833 18.6169L58.6945 18.7669L58.8722 18.6891L59.1389 18.578C59.3357 18.4948 59.5345 18.4189 59.7333 18.3558L60.2667 18.1891C60.6484 18.068 61.03 18.1222 61.3611 18.3058L61.8945 18.6058L61.9056 18.6113L62.1556 18.5391L62.4222 18.4613C62.6262 18.4036 62.8327 18.3605 63.0389 18.328L63.3056 18.2835L63.5722 18.2446C63.796 18.2094 64.0246 18.1962 64.25 18.2058L64.7833 18.228C65.0826 18.2411 65.3632 18.3314 65.6222 18.4724L66.1556 18.7613C66.2069 18.7893 66.2284 18.7846 66.2333 18.7835L66.5 18.7391L66.7667 18.7002C67.0364 18.6557 67.3113 18.6617 67.5778 18.7224L68.1111 18.8446C68.1776 18.8594 68.2426 18.8565 68.3111 18.8391L68.8445 18.7058C69.0542 18.6527 69.2654 18.6164 69.4778 18.5946L70.0111 18.5391C70.1308 18.5268 70.2552 18.5004 70.3833 18.4558L70.9167 18.2669L71.2333 18.2002C71.4426 18.1839 71.643 18.226 71.8278 18.3058L72.0945 18.4502L72.3611 18.6391L72.5333 18.7669L72.6833 18.6835L72.95 18.5446C73.2422 18.3903 73.5589 18.3538 73.8611 18.4335L74.1556 18.5502L74.4222 18.6946L74.6389 18.8169L74.85 18.7113L75.1167 18.5891C75.4135 18.4503 75.739 18.3933 76.0722 18.4502L76.3389 18.5002L76.6056 18.5446C76.6404 18.5502 76.6836 18.5479 76.7445 18.5224L77.2778 18.3002C77.5783 18.1744 77.9015 18.1337 78.2278 18.2002L78.4945 18.2558L78.7611 18.3058C78.9209 18.3383 79.1173 18.3871 79.2556 18.4502L79.3278 18.4835H79.4389L79.7056 18.4724L79.9722 18.4669C80.1791 18.4607 80.3888 18.4648 80.5945 18.4835L80.8556 18.5113L81.1222 18.5335C81.2877 18.5486 81.4558 18.5599 81.6222 18.5669L82.1556 18.5891C82.2917 18.5948 82.4304 18.5854 82.5722 18.5669L83.1167 18.5002C83.4369 18.4583 83.7497 18.5076 84.0389 18.6446L84.55 18.8891C84.5776 18.9021 84.5976 18.9021 84.6333 18.8946L85.1889 18.7835C85.5011 18.7186 85.82 18.7354 86.1222 18.8502L86.3778 18.9502L86.6333 19.0446C86.817 19.1146 86.9986 19.1912 87.1778 19.2724L87.4278 19.3835L87.6778 19.5002C87.8523 19.5794 88.0241 19.6636 88.1945 19.7502L88.6389 19.9724H88.65L88.9611 19.8502L89.2667 19.728C89.581 19.6046 89.9315 19.5548 90.2833 19.6502L90.5389 19.7224L90.8 19.7946C91.1134 19.8796 91.3822 20.0507 91.6 20.278L91.8056 20.4946L92.0167 20.7169L92.0556 20.7446L92.3278 20.7724L92.6056 20.8002C92.901 20.8289 93.1791 20.9261 93.4278 21.0891L93.6556 21.2391L93.8833 21.3835C94.0151 21.4698 94.1481 21.5529 94.2833 21.6224L94.5222 21.7391L94.7556 21.8613C94.8262 21.8976 94.9102 21.9245 95.0111 21.9335L95.2945 21.9558L95.5778 21.9835C95.9079 22.0127 96.2118 22.1388 96.4667 22.3558L96.8889 22.7113C96.9682 22.7785 97.0506 22.8276 97.1389 22.8613L97.6389 23.0502C97.8087 23.1149 97.9805 23.1823 98.15 23.2502L98.4056 23.3558L98.6556 23.4558C98.9457 23.5726 99.1889 23.7623 99.3778 24.0058L99.7222 24.4502L100.017 24.4891L100.306 24.5224C100.649 24.5659 100.929 24.7344 101.122 24.9835L101.289 25.2558L101.417 25.5446L101.489 25.7058L101.689 25.7169L102.006 25.728C102.399 25.7415 102.78 25.9007 103.039 26.2502L103.206 26.478L103.372 26.7002C103.404 26.7437 103.439 26.7743 103.489 26.7946L103.75 26.9002L104.011 27.0002C104.271 27.1053 104.504 27.26 104.7 27.4613L105.078 27.8502C105.236 28.0125 105.375 28.1915 105.5 28.3835L105.656 28.6169L105.806 28.8502C105.858 28.9312 105.919 28.9944 105.989 29.0446L106.206 29.2002L106.428 29.3558C106.65 29.5142 106.832 29.7143 106.978 29.9446L107.128 30.1724L107.272 30.4058C107.311 30.4665 107.358 30.5161 107.422 30.5558L107.656 30.7002L107.894 30.8446C108.121 30.9841 108.321 31.1567 108.483 31.3669L108.644 31.5835L108.811 31.7946C108.907 31.9187 109.005 32.0408 109.111 32.1558L109.478 32.5446C109.579 32.6545 109.689 32.7613 109.806 32.8613L110.217 33.2169C110.379 33.3555 110.532 33.5025 110.672 33.6613L110.85 33.8669L111.028 34.0669C111.237 34.3039 111.368 34.5854 111.428 34.8891L111.489 35.178L111.544 35.4669C111.561 35.5493 111.589 35.5955 111.617 35.628L111.789 35.8335L111.967 36.0335C112.061 36.1426 112.167 36.2488 112.283 36.3502L112.489 36.5335L112.7 36.7169C112.943 36.9288 113.117 37.1955 113.206 37.5058L113.278 37.7724L113.356 38.0391C113.397 38.1861 113.447 38.3295 113.506 38.4613L113.611 38.7058L113.722 38.9502C113.795 39.1144 113.868 39.2806 113.939 39.4446L114.15 39.9335C114.16 39.9567 114.184 39.9953 114.256 40.0446L114.511 40.2224L114.761 40.3946C115.075 40.611 115.293 40.9283 115.35 41.328L115.389 41.6058L115.433 41.8835C115.445 41.9638 115.466 42.0304 115.506 42.0891L115.661 42.3169L115.811 42.5391C115.952 42.748 116.061 42.9757 116.133 43.2169L116.211 43.478L116.289 43.7335C116.341 43.9059 116.394 44.0783 116.444 44.2502L116.522 44.5058L116.594 44.7669C116.647 44.9441 116.697 45.1218 116.744 45.3002L116.817 45.5613L116.883 45.8169C116.906 45.9014 116.949 45.9852 117.011 46.0724L117.172 46.3058L117.339 46.5335C117.523 46.7909 117.634 47.0868 117.656 47.4058L117.672 47.678L117.689 47.9558C117.701 48.1329 117.718 48.3098 117.733 48.4835L117.756 48.7502L117.778 49.0224C117.794 49.211 117.808 49.3998 117.817 49.5891L117.828 49.8613L117.839 50.128C117.846 50.2849 117.862 50.4432 117.883 50.5946L117.961 51.1169C117.982 51.2618 118.01 51.4072 118.05 51.5502L118.122 51.8058L118.194 52.0669C118.242 52.2382 118.286 52.4111 118.333 52.5835L118.478 53.1058C118.542 53.3399 118.578 53.5798 118.578 53.8224L118.572 54.0891V54.3558C118.572 54.5854 118.548 54.8175 118.5 55.0446L118.444 55.3113L118.389 55.5446L118.394 55.5502H118.389L118.383 55.5558V55.5502H118.394L118.583 55.8113L118.767 56.0669C118.985 56.3708 119.095 56.7421 119.017 57.1446L118.967 57.4169L118.911 57.6835C118.868 57.9029 118.807 58.1204 118.728 58.3335L118.628 58.6002L118.533 58.8446L118.667 59.1058L118.8 59.3724C118.972 59.7194 119.001 60.1089 118.844 60.4835L118.733 60.7446L118.628 61.0002C118.576 61.1227 118.537 61.2445 118.517 61.3669L118.428 61.9002C118.405 62.0368 118.393 62.172 118.394 62.3058L118.4 62.5724V62.8391C118.401 62.8963 118.416 62.9684 118.461 63.0613L118.728 63.5946C118.866 63.8739 118.931 64.181 118.906 64.5002L118.883 64.7669L118.867 65.0335C118.849 65.251 118.809 65.4696 118.756 65.6835L118.622 66.2169C118.605 66.2895 118.607 66.3598 118.622 66.4335L118.678 66.7002L118.728 66.9669C118.78 67.2215 118.79 67.4818 118.756 67.7391L118.689 68.2724C118.658 68.502 118.602 68.7295 118.522 68.9502L118.428 69.2113L118.339 69.4335L118.639 69.978C118.835 70.3396 118.871 70.758 118.683 71.1558L118.561 71.4169L118.433 71.678C118.36 71.8337 118.297 71.9908 118.239 72.1446L118.139 72.4002L118.039 72.6613C118.026 72.6955 118.023 72.7243 118.033 72.7669L118.106 73.0391L118.172 73.3113C118.234 73.5554 118.265 73.8065 118.256 74.0558L118.233 74.5891C118.224 74.8493 118.168 75.1017 118.072 75.3446L117.972 75.6002L117.872 75.8613C117.861 75.8904 117.856 75.9174 117.867 75.9613L118 76.5169C118.041 76.6867 118.051 76.8572 118.039 77.028C118.091 77.05 118.148 77.0688 118.2 77.1058C118.497 77.3154 118.556 77.638 118.572 77.7724L118.639 78.3058C118.662 78.4938 118.681 78.6842 118.694 78.8724L118.711 79.1391L118.733 79.4058C118.741 79.5082 118.766 79.6174 118.811 79.7335L118.911 80.0002L119.017 80.2669C119.144 80.5952 119.156 80.9461 119.044 81.2835L118.867 81.8169C118.82 81.9586 118.788 82.0979 118.767 82.2335L118.728 82.5002L118.683 82.7613C118.655 82.9489 118.621 83.1405 118.583 83.328L118.533 83.5891L118.478 83.8558C118.477 83.8577 118.473 83.8737 118.5 83.928L118.633 84.2002L118.772 84.4724C118.984 84.8912 118.941 85.3395 118.689 85.7169L118.517 85.978L118.361 86.2058L118.433 86.4169L118.528 86.6891C118.605 86.9135 118.656 87.1415 118.683 87.3724L118.717 87.6391L118.75 87.9113C118.79 88.255 118.713 88.5828 118.55 88.8724L118.4 89.1335L118.317 89.2724L118.444 89.4613L118.622 89.7391C118.747 89.9295 118.835 90.1697 118.817 90.4446C118.798 90.7181 118.682 90.9458 118.539 91.1169L118.322 91.3724L118.206 91.5113L118.272 91.628L118.422 91.9002C118.576 92.1727 118.673 92.4805 118.667 92.8058L118.661 93.0724L118.656 93.3335C118.653 93.4771 118.661 93.623 118.678 93.7669L118.744 94.3002C118.769 94.5051 118.778 94.7121 118.778 94.9169V95.4446C118.777 95.6972 118.738 95.9463 118.661 96.1891L118.572 96.4613L118.489 96.728C118.442 96.8749 118.404 97.0252 118.378 97.178L118.333 97.4613L118.283 97.7391C118.269 97.8213 118.26 97.8812 118.256 97.9224C118.254 97.9429 118.256 97.9567 118.256 97.9613L118.261 98.0335L118.272 98.1391C118.304 98.4893 118.107 98.727 118 98.828C117.886 98.9358 117.752 99.0088 117.644 99.0613L117.4 99.1835L117.156 99.3002C116.93 99.4099 116.692 99.4846 116.444 99.5224L116.178 99.5613L115.917 99.6002C115.911 99.6043 115.898 99.6204 115.878 99.6446L115.672 99.8835L115.467 100.128C115.196 100.451 114.81 100.643 114.356 100.595L114.067 100.561L113.778 100.534C113.689 100.524 113.625 100.536 113.572 100.556L113.072 100.745C112.812 100.844 112.539 100.883 112.261 100.872L111.978 100.861L111.7 100.85C111.662 100.849 111.636 100.858 111.606 100.878L111.139 101.189C110.854 101.377 110.529 101.46 110.189 101.439L109.906 101.422L109.628 101.406C109.614 101.405 109.604 101.405 109.6 101.406C109.597 101.407 109.588 101.411 109.572 101.422L109.339 101.589L109.111 101.75C108.851 101.936 108.551 102.046 108.228 102.061L107.956 102.078L107.683 102.089C107.589 102.094 107.499 102.113 107.417 102.15L106.928 102.372C106.751 102.452 106.57 102.526 106.389 102.595L106.139 102.689L105.883 102.784C105.611 102.886 105.327 102.921 105.039 102.895L104.756 102.867L104.478 102.845C104.381 102.836 104.296 102.843 104.222 102.867L103.972 102.95L103.717 103.034C103.605 103.069 103.491 103.119 103.378 103.189L103.139 103.339L102.894 103.484C102.663 103.626 102.413 103.726 102.144 103.772L101.878 103.817L101.617 103.867C101.358 103.912 101.094 103.909 100.833 103.867L100.55 103.817L100.267 103.772C100.162 103.756 100.073 103.761 99.9945 103.778L99.7333 103.834L99.4722 103.895C99.3839 103.915 99.2907 103.951 99.1945 104.011L98.9556 104.161L98.7111 104.311C98.5278 104.425 98.3407 104.527 98.15 104.617L97.9056 104.734L97.6556 104.85C97.3641 104.987 97.0487 105.029 96.7333 104.989L96.4556 104.956L96.1722 104.917C95.9977 104.895 95.8231 104.879 95.65 104.867L95.3722 104.845L95.1111 104.828L94.6667 105.228C94.5807 105.305 94.4887 105.379 94.4 105.439C94.3368 105.482 94.179 105.59 93.9722 105.617L93.7945 105.639C93.5889 105.665 93.2786 105.609 93.0833 105.322C92.9441 105.118 92.952 104.907 92.9556 104.839C92.9642 104.678 93.0196 104.518 93.0556 104.422L93.1556 104.156L93.2556 103.884C93.3763 103.562 93.5889 103.299 93.8778 103.111L94.1222 102.95L94.3611 102.795C94.366 102.791 94.3704 102.791 94.3722 102.789C94.3725 102.789 94.376 102.784 94.3778 102.778L94.5222 102.234C94.5682 102.063 94.6082 101.891 94.6445 101.722L94.7056 101.45L94.7611 101.178C94.8078 100.961 94.8753 100.752 94.9556 100.55L95.05 100.306L95.15 100.061C95.2776 99.7406 95.5014 99.4917 95.7722 99.3113L96.0333 99.1391L96.2667 98.978L96.2945 98.7558L96.3222 98.478C96.3467 98.2399 96.3991 98.0062 96.4778 97.7835L96.6556 97.2835C96.7519 97.0116 96.907 96.7727 97.1056 96.5669L97.3111 96.3558L97.4556 96.2002L97.4111 95.9669L97.35 95.6613C97.2898 95.3702 97.2849 95.0708 97.3611 94.778L97.4945 94.2669C97.543 94.0804 97.6007 93.8938 97.6611 93.7113L97.7445 93.4613L97.8278 93.2058C97.9255 92.9126 98.0944 92.6597 98.3111 92.4502L98.5389 92.2335L98.7611 92.0169C98.8169 91.9626 98.8217 91.9367 98.8222 91.9335L98.8667 91.6669L98.9056 91.4002C98.9223 91.2966 98.9271 91.1847 98.9111 91.0613L98.8722 90.778L98.8389 90.4946C98.8041 90.2291 98.8081 89.9606 98.8667 89.7002L98.9278 89.4391L98.9833 89.1835C99.0308 88.9727 99.0964 88.7636 99.1778 88.5613L99.2778 88.3113L99.3833 88.0613C99.4084 87.9991 99.4175 87.9327 99.4111 87.8558L99.3667 87.3002C99.3423 86.9999 99.3888 86.7044 99.5111 86.428L99.7333 85.928C99.8097 85.7554 99.8898 85.5834 99.9722 85.4113L100.094 85.1613L100.2 84.9224V84.9113L100.106 84.6224L100.006 84.3335C99.8661 83.9239 99.9305 83.5058 100.189 83.1558L100.367 82.9113L100.489 82.7391L100.411 82.5391L100.3 82.2502C100.148 81.8616 100.175 81.4446 100.406 81.078L100.561 80.8335L100.717 80.5835C100.767 80.5031 100.789 80.4349 100.794 80.378L100.817 80.1113L100.844 79.8502C100.852 79.7718 100.842 79.6779 100.811 79.5724L100.733 79.2946L100.65 79.0169C100.543 78.6549 100.576 78.2854 100.756 77.9502L100.894 77.6946L101.028 77.4446C101.045 77.4127 101.048 77.3966 101.044 77.378L100.994 77.1058L100.944 76.828C100.909 76.6297 100.882 76.4307 100.861 76.2335L100.833 75.9669L100.806 75.6946C100.772 75.3707 100.833 75.0576 100.978 74.7724L101.111 74.5169L101.239 74.2613C101.294 74.1538 101.324 74.0515 101.339 73.9558L101.383 73.6946L101.422 73.428C101.431 73.3709 101.428 73.3029 101.4 73.2169L101.311 72.9446L101.222 72.6669C101.122 72.3604 101.106 72.0397 101.194 71.7224L101.267 71.4613L101.339 71.1946C101.36 71.1185 101.368 71.0417 101.356 70.9613L101.317 70.6946L101.272 70.4224C101.232 70.1567 101.24 69.8901 101.3 69.628L101.361 69.3613L101.422 69.1002C101.45 68.9781 101.461 68.8557 101.461 68.7335V68.1946C101.461 67.9649 101.484 67.7365 101.533 67.5113L101.594 67.2446L101.65 66.9835C101.705 66.7341 101.801 66.4943 101.928 66.2669L102.072 66.0058L102.139 65.878L102.011 65.6946L101.811 65.4224C101.678 65.2373 101.573 64.9912 101.583 64.7058C101.595 64.4208 101.719 64.1856 101.867 64.0113L102.083 63.7558L102.283 63.5113L102.239 63.3335L102.172 63.0613C102.103 62.787 102.089 62.5073 102.139 62.228L102.178 61.9724L102 61.8891C101.963 61.8725 101.916 61.8672 101.85 61.8724L101.583 61.8891L101.317 61.9113C101.107 61.9278 100.898 61.9294 100.689 61.9169L100.156 61.8835C99.9541 61.8713 99.7507 61.8492 99.55 61.8169L99.2833 61.778L99.0167 61.7335C98.9911 61.7294 98.9552 61.7277 98.8945 61.7558L98.6278 61.878L98.3611 62.0058C98.0673 62.1415 97.7458 62.1915 97.4167 62.1391L97.15 62.1002L96.8833 62.0558C96.7914 62.0412 96.6997 62.0419 96.6056 62.0613L96.0722 62.1724C95.8114 62.2262 95.5464 62.2363 95.2833 62.1946L94.75 62.1058C94.5558 62.0749 94.3602 62.0396 94.1667 61.9946L93.6333 61.8724C93.4756 61.8358 93.3179 61.8059 93.1611 61.7835L92.6278 61.7058C92.5465 61.6943 92.4654 61.6998 92.3778 61.7224L92.1111 61.7891L91.8445 61.8613C91.6641 61.9084 91.4804 61.9552 91.3 62.0002L90.7667 62.1335C90.528 62.1929 90.2833 62.2188 90.0389 62.2113L89.7722 62.2002L89.5056 62.1946C89.2327 62.186 88.9681 62.1241 88.7167 62.0169L88.45 61.9002L88.1833 61.7891C88.1019 61.7543 88.038 61.7464 87.9833 61.7502L87.7167 61.7669L87.45 61.7891C87.2962 61.8005 87.0875 61.7938 86.8833 61.7002C86.6531 61.5945 86.483 61.4012 86.4 61.1613L86.3389 60.9946L86.2833 60.8224C86.2615 60.7597 86.2154 60.6589 86.1389 60.5169L86.0111 60.278L85.8778 60.0335C85.7535 59.8023 85.6718 59.5541 85.6333 59.2946L85.5945 59.028L85.5556 58.7669C85.5267 58.5717 85.5028 58.3709 85.4889 58.1724L85.4722 57.9058L85.45 57.6335C85.4426 57.5282 85.4223 57.4286 85.3833 57.3335L85.2778 57.0835L85.1778 56.8335C85.1486 56.7632 85.097 56.6835 85.0111 56.5946L84.7945 56.3724L84.5833 56.1558C84.367 55.9329 84.2001 55.6612 84.1222 55.3502L84.0611 55.0946L83.9945 54.8335C83.9157 54.5177 83.9377 54.2003 84.0278 53.9002L84.1167 53.6002L84.1722 53.4169L84.0333 53.2891L83.8333 53.0946C83.8144 53.185 83.8011 53.2786 83.7667 53.3669L83.6722 53.6169L83.5722 53.8669C83.5269 53.9833 83.4969 54.1037 83.4778 54.228L83.4333 54.4946L83.3945 54.7613C83.3631 54.9665 83.3174 55.168 83.2611 55.3669L83.1889 55.628L83.1167 55.8835C83.0584 56.0887 82.9833 56.2883 82.8945 56.4835L82.7833 56.728L82.6722 56.978C82.5978 57.1416 82.5196 57.3035 82.4445 57.4669L82.3333 57.7169L82.2222 57.9613C82.1925 58.0262 82.1771 58.0953 82.1778 58.178V58.4558L82.1833 58.7335C82.1862 59.0205 82.126 59.2997 82.0056 59.5613L81.8945 59.8058L81.7778 60.0502C81.6898 60.2412 81.5907 60.4298 81.4778 60.6113L81.3333 60.8446L81.1833 61.0835C81.0386 61.316 80.8132 61.5687 80.4722 61.678L80.1167 61.7891C79.9223 61.8512 79.7085 61.8827 79.4945 61.8946L78.9611 61.928C78.791 61.9375 78.6201 61.9469 78.45 61.9613L77.9167 62.0058C77.646 62.0286 77.3766 62.0008 77.1167 61.9224L76.85 61.8391L76.5833 61.7613C76.449 61.7209 76.3181 61.6909 76.1889 61.678L75.9222 61.6558L75.6556 61.628C75.6133 61.6238 75.5581 61.6276 75.4833 61.6613L74.95 61.9058C74.6193 62.0549 74.2585 62.0815 73.9056 61.9669L73.3722 61.7891C73.3577 61.7843 73.3466 61.7835 73.3445 61.7835C73.3406 61.7838 73.3324 61.7885 73.3167 61.7946L73.05 61.8946L72.7833 62.0002C72.5127 62.1057 72.2255 62.1512 71.9333 62.128L71.6667 62.1113L71.4 62.0891C71.2259 62.0753 71.0519 62.062 70.8778 62.0502L70.6111 62.0335L70.3445 62.0113C70.1876 62.0007 70.0289 61.9972 69.8722 62.0002L69.3389 62.0113C69.0641 62.0165 68.7956 61.9646 68.5389 61.8669L68.2722 61.7669L68.0333 61.6724L67.7889 61.8058L67.5222 61.9446C67.1957 62.1152 66.8254 62.1706 66.4556 62.0613L66.1889 61.978L65.9222 61.9002C65.7697 61.8551 65.6171 61.8211 65.4667 61.7946L65.2 61.7446L64.9333 61.7002C64.8443 61.6847 64.7571 61.6873 64.6667 61.7058L64.4 61.7613L64.1333 61.8113C63.8642 61.8663 63.5919 61.8692 63.3222 61.8169L63.0556 61.7669L62.7889 61.7113C62.7097 61.696 62.6315 61.6981 62.55 61.7169L62.0167 61.8391C61.6842 61.9158 61.3517 61.8801 61.0445 61.7502L60.5111 61.528L60.4833 61.5169C60.4818 61.5171 60.478 61.5207 60.4722 61.5224L59.9389 61.6891C59.6829 61.7697 59.4177 61.8049 59.15 61.7891L58.6167 61.7558C58.3973 61.7426 58.1775 61.7122 57.9611 61.6613L57.6945 61.6002L57.4278 61.5335C57.3176 61.5076 57.2106 61.4991 57.1056 61.5058L56.8389 61.528L56.5722 61.5446C56.3086 61.5619 55.9295 61.5254 55.6389 61.2391L55.5167 61.1169L55.3945 61.0002C55.271 60.8777 55.1534 60.721 55.0389 60.5558L54.7278 60.1113C54.5791 59.8962 54.4732 59.6584 54.4056 59.4058L54.3778 59.3113C54.3598 59.4387 54.3331 59.5656 54.2889 59.6891L54.2 59.9391L54.1056 60.1946C54.0593 60.3241 54.0234 60.468 53.9945 60.6224L53.9389 60.9058L53.8889 61.1891C53.8559 61.3648 53.7468 61.7069 53.3833 61.878C53.0308 62.0436 52.7032 61.9213 52.55 61.8446L52.1167 61.628L51.9278 61.7558L51.6611 61.928C51.3218 62.1531 50.9086 62.2382 50.4889 62.0835L50.2222 61.9835L49.9556 61.8891H49.95L49.6833 62.0058L49.4167 62.1169C49.1335 62.2381 48.8284 62.2879 48.5167 62.2502L48.25 62.2169L47.9833 62.1891C47.7465 62.1603 47.5107 62.1019 47.2833 62.0169L46.75 61.8169C46.593 61.7582 46.4384 61.7032 46.2833 61.6613L46.0167 61.5891L45.7611 61.5224L45.75 61.5335L45.2167 61.8335C44.9434 61.9873 44.636 62.0766 44.3111 62.0669L44.0445 62.0558L43.7778 62.0502C43.5851 62.0444 43.3925 62.0305 43.2 62.0113L42.6667 61.9558C42.3557 61.9246 42.0363 61.8075 41.7945 61.5446L41.65 61.3835L41.5 61.2224C41.3672 61.078 41.2398 60.9104 41.1222 60.728L40.9722 60.4891L40.8222 60.2558C40.5989 59.9091 40.5626 59.5167 40.6667 59.1446L40.75 58.8502L40.8111 58.6224L40.6722 58.4669L40.4722 58.2446C40.2698 58.0144 40.126 57.741 40.0611 57.4335L39.95 56.9113C39.9253 56.7941 39.8871 56.6794 39.8333 56.5669L39.6 56.078C39.4797 55.8265 39.4104 55.5564 39.4 55.278L39.3889 55.0058L39.3833 54.7335C39.3782 54.5942 39.3568 54.4579 39.3278 54.328L39.2722 54.0669L39.2111 53.8058C39.1528 53.5444 39.1479 53.2778 39.1833 53.0113L39.2222 52.7224L39.2611 52.4391C39.2638 52.4184 39.2614 52.4071 39.2611 52.4058C39.2604 52.4034 39.2554 52.3977 39.25 52.3891L39.15 52.2335V52.2724L39.1278 52.5391C39.1009 52.8884 38.9574 53.198 38.7333 53.4502L38.3333 53.8946C38.3289 53.8997 38.3242 53.9029 38.3222 53.9058L38.3278 54.1835L38.3389 54.4669C38.3451 54.787 38.2622 55.0933 38.0945 55.3669L37.9445 55.6002L37.8 55.8391C37.7871 55.8603 37.7795 55.8817 37.7833 55.9224L37.8389 56.4891C37.8672 56.7891 37.8256 57.0862 37.7056 57.3669L37.6 57.6169L37.4945 57.8613C37.469 57.9208 37.4567 57.9889 37.4611 58.0724L37.4722 58.3558L37.4889 58.6335C37.5061 58.953 37.4367 59.264 37.2778 59.5446L37.1445 59.7835L37.0056 60.0224C36.9429 60.1332 36.8989 60.2471 36.8667 60.3613L36.7222 60.8724C36.6739 61.0436 36.5689 61.2807 36.3333 61.4446C36.0782 61.6214 35.7956 61.6311 35.5833 61.5835L35.3611 61.528L35.1333 61.478C35.0776 61.4655 34.9968 61.4636 34.8889 61.478L34.3556 61.5446C34.2362 61.5607 34.1121 61.5955 33.9833 61.6446L33.7167 61.7446L33.45 61.8502C33.1169 61.977 32.7652 61.9807 32.4278 61.8613L32.1611 61.7669L31.9222 61.6835L31.6722 61.8224L31.4056 61.9724C31.0192 62.1848 30.5858 62.1875 30.1945 61.978L29.9278 61.8391L29.6611 61.6946C29.5786 61.6504 29.5224 61.6385 29.4833 61.6391L29.2167 61.6502L28.95 61.6558C28.8532 61.6581 28.7493 61.6772 28.6389 61.7169L28.1056 61.9058C27.8311 62.0044 27.5421 62.0443 27.25 62.0113L26.9833 61.978L26.7167 61.9502C26.5969 61.9367 26.4757 61.9398 26.3556 61.9558L26.0889 61.9891L25.9 62.0113L25.8778 62.0558L25.7778 62.2224C25.773 62.2305 25.7453 62.2804 25.7278 62.4002L25.6889 62.6669L25.65 62.9391C25.6374 63.0268 25.6397 63.1124 25.6611 63.2002L25.7278 63.4669L25.7945 63.728C25.8169 63.8197 25.8599 63.9234 25.9333 64.0391L26.0945 64.3002L26.2611 64.5613C26.4786 64.9029 26.5462 65.3084 26.4056 65.7113L26.3111 65.978L26.2167 66.2502C26.2139 66.258 26.2116 66.2644 26.2111 66.2669C26.2113 66.2677 26.2141 66.2716 26.2167 66.278L26.4278 66.8002C26.5482 67.0929 26.5865 67.4071 26.5333 67.7224L26.4889 67.9891L26.4445 68.2613C26.4072 68.4817 26.3479 68.7 26.2722 68.9169L26.1778 69.1891L26.1 69.4002L26.25 69.6169L26.4222 69.8724C26.662 70.2294 26.7148 70.6554 26.55 71.0669L26.4389 71.3446L26.3389 71.5891L26.4611 71.8113L26.5945 72.0669C26.7549 72.3712 26.8129 72.7098 26.75 73.0558L26.7 73.328L26.6556 73.6002C26.6203 73.7941 26.5743 73.9888 26.5278 74.1835L26.4667 74.4558L26.4 74.7335C26.3752 74.8385 26.3676 74.9334 26.3778 75.0224L26.4111 75.2891L26.4389 75.5558C26.4403 75.567 26.4504 75.6115 26.5167 75.6891L26.9389 76.178C27.1855 76.4669 27.3315 76.8417 27.2722 77.2613L27.1945 77.8058C27.1776 77.9267 27.1752 78.0436 27.1889 78.1558L27.2222 78.4169L27.2556 78.6835C27.2759 78.8499 27.3003 79.0179 27.3278 79.1835L27.3722 79.4446L27.4167 79.7113C27.4515 79.9224 27.4702 80.1357 27.4722 80.3502V80.6169L27.4778 80.8891C27.4796 81.0936 27.4654 81.2991 27.4445 81.5058L27.4167 81.7835L27.3889 82.0558C27.3857 82.0877 27.3924 82.1177 27.4167 82.1613L27.6945 82.6613C27.828 82.9016 27.9173 83.16 27.95 83.4335L27.9778 83.7002L28.0111 83.9613C28.0373 84.1804 28.0463 84.405 28.0333 84.628L28 85.1724C27.9988 85.1941 28.0001 85.2188 28.0278 85.2613L28.1833 85.5058L28.3445 85.7446C28.518 86.0111 28.6189 86.3141 28.6222 86.6391V87.1835C28.624 87.3732 28.6233 87.564 28.6167 87.7558L28.6056 88.028L28.6 88.3058C28.5995 88.3274 28.601 88.3498 28.6278 88.3891L28.7889 88.628L28.9556 88.8669C29.1027 89.0819 29.2167 89.3136 29.2889 89.5613L29.3611 89.8224L29.4389 90.078C29.5109 90.3272 29.5362 90.5848 29.5222 90.8446L29.5056 91.1224L29.4945 91.4002C29.4935 91.4232 29.4972 91.4384 29.5167 91.4669L29.6778 91.7002L29.8333 91.9335C30.0257 92.214 30.1198 92.5365 30.1056 92.878L30.0945 93.1613L30.0833 93.4391C30.0755 93.6218 30.0718 93.8053 30.0667 93.9891L30.0556 94.2724L30.05 94.5502C30.0469 94.6604 30.0601 94.7613 30.0889 94.8502L30.1722 95.1002L30.2556 95.3558C30.2735 95.411 30.3089 95.4742 30.3778 95.5446L30.7889 95.9669C31.0811 96.2656 31.2067 96.6526 31.1556 97.0613L31.1167 97.3613L31.0833 97.6058L31.25 97.7669L31.4611 97.9724C31.6508 98.1565 31.8131 98.3626 31.9333 98.5946L32.0556 98.8335L32.1778 99.0669C32.2949 99.293 32.3691 99.5366 32.4111 99.7891L32.4611 100.061L32.5056 100.334C32.5165 100.399 32.5369 100.45 32.5722 100.495L32.7445 100.706L32.9111 100.917C33.0204 101.054 33.1338 101.19 33.2445 101.322L33.4111 101.528L33.5833 101.734C33.7095 101.885 33.8327 102.036 33.9445 102.195L34.0945 102.411L34.2445 102.622C34.4149 102.864 34.5174 103.141 34.5667 103.428L34.6667 104.028C34.6763 104.083 34.6889 104.115 34.6945 104.128L34.8278 104.261L34.9722 104.417C35.0068 104.453 35.0821 104.54 35.1389 104.656C35.1665 104.712 35.2272 104.847 35.2167 105.028C35.2031 105.258 35.0818 105.473 34.8833 105.6C34.727 105.7 34.5744 105.714 34.5111 105.717C34.4364 105.72 34.3729 105.712 34.3333 105.706C34.2537 105.693 34.1785 105.669 34.1222 105.65L33.8667 105.561L33.6167 105.478C33.3799 105.398 33.1572 105.284 32.95 105.139L32.7167 104.972L32.4778 104.806C32.4205 104.766 32.3729 104.754 32.3278 104.75L32.0556 104.728L31.7889 104.706C31.5304 104.684 31.282 104.616 31.0445 104.511L30.7945 104.406L30.5445 104.295C30.4074 104.234 30.2693 104.18 30.1278 104.139L29.8667 104.067L29.6111 103.989C29.6028 103.987 29.5672 103.978 29.4889 104.006L29.2 104.111L28.9056 104.211C28.4886 104.358 28.0508 104.299 27.6945 104.011L27.4611 103.822L27.2333 103.639L26.9833 103.678L26.7 103.722C26.4589 103.757 26.2163 103.763 25.9778 103.739L25.4445 103.684C25.139 103.653 24.8551 103.549 24.6056 103.378L24.3722 103.217L24.1333 103.05C24.1065 103.032 24.0924 103.032 24.0722 103.034L23.7889 103.05L23.5111 103.067C23.2183 103.086 22.9325 103.038 22.6611 102.922L22.1611 102.711C22.043 102.661 21.923 102.623 21.8 102.6L21.5389 102.55L21.2722 102.5C21.0181 102.452 20.7755 102.362 20.55 102.234L20.3111 102.1L20.0722 101.961C20.0722 101.961 20.0619 101.962 20.0389 101.967L19.7445 102.028L19.4556 102.089C19.1188 102.161 18.771 102.134 18.45 101.972L18.2056 101.85L17.9611 101.722C17.8925 101.688 17.8189 101.67 17.7389 101.667L17.4667 101.661L17.1945 101.65C16.9341 101.641 16.676 101.588 16.4333 101.495L15.9333 101.306C15.6805 101.208 15.4538 101.059 15.25 100.878L15.0278 100.684L14.8667 100.539L14.6278 100.6L14.3278 100.672C13.9869 100.756 13.6284 100.737 13.2945 100.567L13.0556 100.445L12.8111 100.322C12.5809 100.205 12.3722 100.05 12.1833 99.8669L11.9667 99.6558L11.8278 99.5224L11.6111 99.5835L11.3056 99.6669C10.8873 99.7816 10.4784 99.6964 10.1333 99.4613L9.57779 99.0835C9.41884 98.9751 9.18263 98.7664 9.12223 98.4224C9.05816 98.0508 9.23599 97.7607 9.38334 97.6002L9.5889 97.378L9.79446 97.1502C9.80965 97.1336 9.81542 97.1249 9.81668 97.1224V96.5891L9.76668 96.2724L9.67779 96.0058L9.58334 95.7335C9.45882 95.3599 9.50243 94.9824 9.67779 94.6446L9.95557 94.1113C9.99988 94.026 10.0066 93.9619 10.0056 93.9169L9.99446 93.3835C9.99436 93.3795 9.99258 93.3421 9.93334 93.2613L9.74446 93.0002L9.55001 92.7391C9.4247 92.5688 9.32607 92.3561 9.30557 92.1113C9.28519 91.8634 9.35066 91.6318 9.45557 91.4391L9.60557 91.1669L9.75001 90.8946C9.80658 90.7904 9.82953 90.7104 9.83334 90.6502L9.86668 90.1169Z" fill="#303A4B"/>
</svg>
