<svg width="128" height="128" viewBox="0 0 128 128" fill="none" xmlns="http://www.w3.org/2000/svg">
<path d="M11.1567 78.8633L11.4116 78.9736L11.6675 79.084C11.8705 79.1718 12.08 79.2444 12.2944 79.3008L12.5649 79.3721L12.8345 79.4434C13.0841 79.5089 13.3403 79.5354 13.5981 79.5234L13.8774 79.5107L14.1558 79.498C14.4112 79.4862 14.6616 79.4367 14.9028 79.3516L15.1675 79.2588L15.2866 79.2158C15.3424 79.4002 15.4168 79.5782 15.5103 79.748L15.77 80.2207C15.8248 80.3203 15.8638 80.4236 15.8882 80.5312L15.9478 80.791L16.0063 81.0518C16.058 81.28 16.1366 81.4996 16.2407 81.709L16.3589 81.9473L16.4771 82.1846C16.511 82.253 16.534 82.3347 16.5405 82.4355L16.5591 82.7178L16.5767 83.001C16.5912 83.2254 16.6227 83.4467 16.6714 83.6631L16.7319 83.9326L16.7925 84.2012C16.8464 84.4406 16.9311 84.6699 17.0454 84.8857L17.1714 85.124L17.2983 85.3633C17.4493 85.6479 17.6735 85.87 17.9399 86.0342L18.4595 86.3545C18.5434 86.4063 18.5801 86.4527 18.5981 86.4854L18.854 86.9502C18.9233 87.0759 18.9854 87.2087 19.0386 87.3477L19.1353 87.6016L19.2329 87.8555C19.3489 88.1585 19.5458 88.4087 19.8052 88.5967L20.0337 88.7617L20.2622 88.9277C20.2661 88.9306 20.2684 88.9329 20.269 88.9336V88.9326L20.27 88.9346C20.2711 88.9374 20.2729 88.9439 20.2749 88.9531L20.3364 89.2373L20.3989 89.5215C20.4551 89.7792 20.5473 90.0238 20.6802 90.249L20.9556 90.7158C21.1366 91.0224 21.4085 91.2341 21.7231 91.3604L22.0044 91.4736L22.2856 91.5859C22.3547 91.6137 22.3728 91.6392 22.3794 91.6494L22.5239 91.875L22.6694 92.1006C22.7865 92.2827 22.9169 92.4549 23.061 92.6152L23.2388 92.8125L23.4165 93.0107C23.5345 93.142 23.6531 93.2736 23.771 93.4053L23.9487 93.6045L24.1265 93.8027C24.2561 93.9474 24.3911 94.0876 24.5308 94.2227L24.7222 94.4082L24.9136 94.5928C25.063 94.7372 25.2223 94.8726 25.3892 94.9971L25.603 95.1562L25.8179 95.3164C25.9246 95.396 26.0236 95.4856 26.1138 95.584L26.2944 95.7803L26.4751 95.9775C26.5857 96.0982 26.6942 96.2241 26.7993 96.3535L27.1411 96.7754C27.3151 96.9896 27.5273 97.1634 27.771 97.293L28.0103 97.4209L28.2505 97.5479C28.3016 97.5751 28.3469 97.6145 28.3882 97.6768L28.5435 97.9121L28.6997 98.1475C28.897 98.445 29.1804 98.6528 29.522 98.7529L29.7944 98.832L30.0669 98.9121C30.2116 98.9545 30.3456 99.0066 30.4673 99.0664L30.7075 99.1846L30.9487 99.3037C30.9523 99.3052 30.9745 99.3162 31.0054 99.3779L31.1431 99.6533L31.2808 99.9297C31.4425 100.253 31.7034 100.516 32.0659 100.649L32.5796 100.839C32.6883 100.879 32.7867 100.932 32.8755 100.998L33.0913 101.158L33.3081 101.318C33.4137 101.397 33.5229 101.47 33.6333 101.541C33.259 101.622 32.901 101.542 32.5933 101.359L32.3267 101.201L32.0669 101.047L31.8384 101.12L31.5708 101.204C31.3989 101.259 31.2263 101.316 31.0542 101.375L30.521 101.559C30.2766 101.643 30.0238 101.689 29.7671 101.692L29.5005 101.696L29.2329 101.7C29.0564 101.703 28.8791 101.705 28.7026 101.708L28.436 101.713L28.1685 101.718C27.9385 101.722 27.7088 101.7 27.4819 101.654L26.9487 101.547C26.8581 101.529 26.7695 101.527 26.6802 101.543L26.147 101.637C25.7748 101.703 25.424 101.613 25.1226 101.432L24.856 101.271L24.6069 101.121L24.3901 101.197L24.1235 101.29C23.8706 101.378 23.6075 101.421 23.3403 101.415L23.0737 101.409L22.8062 101.403C22.5755 101.398 22.3458 101.366 22.1196 101.311L21.5864 101.18C21.4691 101.151 21.3545 101.139 21.2427 101.142L20.9761 101.148L20.7095 101.156C20.5404 101.161 20.3698 101.168 20.2007 101.179L19.6675 101.212C19.5312 101.221 19.3927 101.241 19.2534 101.274L18.9868 101.338L18.7202 101.4C18.4052 101.475 18.0877 101.454 17.7856 101.348L17.519 101.254L17.2847 101.17L17.0308 101.31L16.7642 101.456C16.5698 101.562 16.3416 101.623 16.0952 101.602C15.8527 101.581 15.6433 101.485 15.4741 101.363L14.9409 100.979C14.9093 100.956 14.8883 100.947 14.8804 100.944L14.6255 100.97L14.3589 100.995C14.1592 101.015 13.9583 101.025 13.7583 101.025L13.4917 101.026H13.2251C13.1828 101.026 13.1206 101.038 13.0327 101.086L12.7661 101.232L12.4995 101.38C12.2458 101.52 11.9702 101.61 11.6792 101.634L11.4126 101.655L11.146 101.676C10.7768 101.705 10.4408 101.589 10.1577 101.397L9.62451 101.036C9.61845 101.032 9.61227 101.029 9.60791 101.026L9.37354 101.077L9.10693 101.135C8.9484 101.169 8.78808 101.21 8.62842 101.258L8.36182 101.339L8.09521 101.419C7.83574 101.497 7.56745 101.526 7.29736 101.504L7.03076 101.482L6.76318 101.46C6.59874 101.446 6.43337 101.436 6.26904 101.432L5.73584 101.416C5.5499 101.411 5.36314 101.402 5.17725 101.39L4.91064 101.373L4.64307 101.355C4.38623 101.339 4.13542 101.278 3.89404 101.183L3.62744 101.077L3.35986 100.971C3.30951 100.951 3.25762 100.928 3.21143 100.906C3.18857 100.895 3.15795 100.88 3.12646 100.861C3.1049 100.849 3.0373 100.809 2.97021 100.743C2.93849 100.712 2.86456 100.635 2.81201 100.515C2.75146 100.375 2.70915 100.142 2.83252 99.9023C2.93986 99.6939 3.11152 99.6045 3.18604 99.5723C3.26851 99.5367 3.34059 99.5245 3.37549 99.5195C3.43351 99.5114 3.49018 99.5107 3.53467 99.5127L3.62451 99.5205L3.80615 99.543L3.98682 99.5654C4.13797 99.584 4.31663 99.6161 4.51416 99.6592L5.07471 99.7822C5.07915 99.7831 5.08387 99.7829 5.08643 99.7832L5.31982 99.6484L5.55615 99.5107C5.60137 99.4843 5.62601 99.457 5.64404 99.4229L5.76709 99.1875L5.89111 98.9531C6.01096 98.7256 6.16604 98.5228 6.35596 98.3496L6.54834 98.1748L6.73975 98V97.9971L6.77393 97.7373L6.80908 97.4766C6.827 97.3411 6.83342 97.2049 6.82959 97.0684L6.82275 96.8057L6.81494 96.5439C6.80863 96.3209 6.82505 96.0967 6.86279 95.873L6.90869 95.6025L6.95361 95.333C6.97183 95.2252 6.97332 95.1219 6.9585 95.0215L6.91943 94.7568L6.87939 94.4922C6.86907 94.4228 6.84283 94.3463 6.78857 94.2607L6.6333 94.0156L6.47803 93.7715C6.32544 93.5314 6.22115 93.2674 6.1792 92.9844L6.10107 92.4551C6.07174 92.2569 6.0509 92.0529 6.03857 91.8447L6.02197 91.5615L6.00537 91.2773C5.98953 91.0086 6.01854 90.7428 6.09326 90.4844L6.17139 90.2148L6.24951 89.9443C6.30006 89.7696 6.34814 89.597 6.39307 89.4268L6.4624 89.1631L6.53271 88.8984C6.59848 88.6493 6.70172 88.4152 6.84229 88.1992L7.14111 87.7402C7.23814 87.5912 7.3333 87.4432 7.42529 87.2959L7.56689 87.0684L7.7085 86.8418C7.79973 86.6957 7.88898 86.5482 7.97607 86.4004L8.11182 86.1709L8.24658 85.9404C8.26432 85.9102 8.28363 85.8614 8.28369 85.7725V85.1709C8.28345 84.7502 8.46448 84.3785 8.80322 84.123L9.04053 83.9443L9.24463 83.7891L9.25342 83.5586L9.26318 83.2734C9.27863 82.8389 9.49677 82.4902 9.81689 82.252L10.0747 82.0605L10.313 81.8818L10.3198 81.666L10.3286 81.3857C10.3322 81.2634 10.319 81.1386 10.2886 81.0107L10.2222 80.7305L10.1548 80.4492C10.0697 80.0919 10.1174 79.7349 10.2915 79.4121L10.4282 79.1572L10.5659 78.9023C10.6131 78.8146 10.6351 78.7345 10.6411 78.6582L10.6431 78.625C10.8124 78.7081 10.9841 78.7885 11.1567 78.8633ZM117.935 78.0117C117.865 78.161 117.799 78.3166 117.739 78.4785L117.637 78.749L117.542 79.0049L117.662 79.2568L117.787 79.5186C117.891 79.7371 117.971 79.9625 118.023 80.1924L118.082 80.4521L118.14 80.7129C118.195 80.9598 118.211 81.2135 118.192 81.4688L118.169 81.7539L118.157 81.9209L118.357 82.0605L118.625 82.2471C118.808 82.3749 118.973 82.5564 119.065 82.7998C119.156 83.0421 119.152 83.2859 119.103 83.5L119.028 83.8232L119.001 83.9375L119.1 83.9902L119.391 84.1436C119.734 84.3246 120.016 84.6259 120.103 85.0557L120.159 85.3271L120.213 85.5986C120.238 85.7182 120.276 85.8263 120.327 85.9248L120.448 86.1631L120.57 86.4004C120.618 86.4951 120.684 86.5885 120.769 86.6787L120.962 86.8838L121.157 87.0889C121.352 87.2954 121.5 87.5354 121.595 87.8037L121.779 88.3213C121.841 88.4963 121.903 88.674 121.963 88.8525L122.143 89.3799C122.242 89.6706 122.264 89.9733 122.214 90.2744L122.167 90.5586L122.12 90.8418C122.089 91.0245 122.063 91.2016 122.04 91.3711L121.967 91.9023C121.929 92.1801 121.834 92.4414 121.691 92.6816L121.544 92.9277L121.421 93.1348L121.512 93.3955L121.612 93.6826C121.749 94.0774 121.703 94.4874 121.47 94.8418L121.307 95.0908L121.159 95.3154L121.227 95.5537L121.306 95.8291C121.39 96.1223 121.403 96.425 121.337 96.7246L121.278 96.9961L121.223 97.249L121.374 97.4785L121.531 97.7178C121.69 97.9612 121.795 98.2309 121.839 98.5186L121.882 98.7988L121.903 98.9307L122.301 99.0635C122.465 99.1179 122.62 99.1625 122.761 99.1973L123.004 99.2568L123.249 99.3164C123.385 99.3499 123.526 99.3769 123.667 99.3955L124.169 99.4619C124.421 99.4952 124.669 99.5844 124.881 99.751L124.97 99.8271L125.285 100.12C125.342 100.174 125.441 100.277 125.505 100.428C125.582 100.607 125.611 100.869 125.463 101.12C125.341 101.328 125.158 101.42 125.068 101.457C124.967 101.499 124.867 101.518 124.793 101.529L124.527 101.569L124.26 101.608C124.03 101.642 123.798 101.651 123.567 101.633L123.3 101.611L123.034 101.591C122.876 101.578 122.717 101.573 122.559 101.573L122.026 101.575C121.737 101.576 121.459 101.511 121.198 101.394L120.665 101.153C120.547 101.1 120.438 101.071 120.337 101.059L120.071 101.026L119.804 100.993C119.769 100.989 119.722 100.992 119.653 101.023L119.386 101.146L119.12 101.269C118.778 101.425 118.404 101.446 118.044 101.314L117.778 101.217L117.514 101.12C117.513 101.12 117.512 101.122 117.511 101.122L116.978 101.358C116.609 101.522 116.215 101.514 115.853 101.344L115.586 101.219L115.38 101.121L115.166 101.24L114.899 101.387C114.596 101.554 114.251 101.627 113.892 101.56L113.359 101.46C113.203 101.431 113.047 101.409 112.892 101.395L112.625 101.371L112.359 101.347C112.248 101.337 112.136 101.342 112.022 101.363L111.489 101.465C111.266 101.507 111.042 101.527 110.817 101.525L110.55 101.522L110.284 101.521C110.148 101.519 110.01 101.53 109.873 101.553L109.606 101.597L109.339 101.642C109.067 101.687 108.793 101.676 108.525 101.612L107.992 101.485C107.87 101.456 107.751 101.444 107.634 101.445L107.367 101.449L107.1 101.453C106.807 101.458 106.524 101.391 106.26 101.271L105.994 101.148L105.726 101.026C105.659 100.996 105.615 100.993 105.582 100.997L105.048 101.067C104.842 101.094 104.635 101.109 104.428 101.11L103.895 101.114C103.8 101.115 103.699 101.132 103.59 101.17L103.057 101.355C102.819 101.438 102.574 101.489 102.325 101.501L101.792 101.526C101.612 101.535 101.431 101.543 101.251 101.551L100.718 101.572C100.447 101.583 100.18 101.542 99.9233 101.453L99.6567 101.36L99.3901 101.269C99.2946 101.236 99.2081 101.224 99.1274 101.229L98.8608 101.242L98.5933 101.256C98.3235 101.27 98.057 101.233 97.8003 101.148L97.2671 100.973C97.2312 100.961 97.2057 100.961 97.1714 100.972L96.6382 101.142C96.4456 101.203 96.2516 101.257 96.0581 101.305L95.7915 101.37L95.5249 101.435C95.2786 101.495 95.027 101.518 94.7749 101.501L94.6138 101.49C94.7575 101.445 94.8973 101.388 95.0298 101.313L95.2642 101.182L95.4985 101.051C95.7627 100.903 95.9761 100.694 96.1401 100.444L96.4624 99.9541C96.5357 99.8427 96.614 99.756 96.6929 99.6895L97.1011 99.3457C97.1259 99.3249 97.1677 99.2999 97.2505 99.2871L97.5464 99.2412L97.8413 99.1963C98.1299 99.1519 98.4043 99.0517 98.6489 98.8867L98.8726 98.7363L99.0952 98.5859C99.3137 98.4384 99.5023 98.2549 99.6587 98.042L99.9888 97.5928C100.044 97.518 100.106 97.463 100.175 97.4219L100.408 97.2842L100.641 97.1465C100.902 96.9924 101.112 96.7797 101.267 96.5225L101.413 96.2803L101.558 96.0391C101.57 96.0186 101.581 96.0078 101.612 95.9961L101.88 95.8965L102.149 95.7959C102.504 95.6633 102.776 95.4098 102.935 95.0674L103.057 94.8066L103.178 94.5449C103.247 94.3971 103.322 94.2602 103.401 94.1348L103.692 93.6758L103.694 93.6729L103.696 93.6719C103.699 93.6696 103.712 93.6601 103.743 93.6504L104.321 93.4648C104.62 93.369 104.892 93.206 105.105 92.9619L105.281 92.7598L105.457 92.5586C105.612 92.3808 105.745 92.1846 105.855 91.9736L105.982 91.7305L106.109 91.4863C106.15 91.4078 106.203 91.3438 106.268 91.29L106.688 90.9443C106.963 90.7185 107.132 90.4179 107.204 90.083L107.266 89.7949L107.328 89.5068C107.329 89.5013 107.33 89.4961 107.331 89.4932L107.562 89.334L107.794 89.1738C108.095 88.9663 108.297 88.6695 108.38 88.3154L108.446 88.0391L108.511 87.7617C108.519 87.7306 108.528 87.7188 108.547 87.7031L108.767 87.5273L108.987 87.3525C109.278 87.1206 109.456 86.8032 109.508 86.4395L109.549 86.1562L109.583 85.9248L109.822 85.7842L110.088 85.627C110.356 85.4691 110.585 85.2547 110.744 84.9775L110.877 84.7441L111.011 84.5117C111.153 84.2645 111.235 83.9943 111.263 83.7119L111.291 83.4287L111.319 83.1465C111.333 82.9997 111.359 82.8632 111.396 82.7373L111.471 82.4814L111.546 82.2246C111.579 82.1123 111.626 82.005 111.687 81.9023L111.962 81.4395C112.078 81.245 112.175 81.0408 112.25 80.8281L112.425 80.3262C112.455 80.2404 112.504 80.1508 112.578 80.0586L112.937 79.6094C112.996 79.5357 113.042 79.4576 113.081 79.3789C113.278 79.3904 113.476 79.3744 113.671 79.3301L113.937 79.2705L114.202 79.21C114.313 79.1847 114.429 79.1752 114.549 79.1816L115.104 79.2109C115.495 79.2316 115.846 79.091 116.121 78.8291L116.332 78.6279L116.542 78.4268C116.649 78.3239 116.753 78.245 116.849 78.1865L117.068 78.0537L117.288 77.9209C117.4 77.8531 117.521 77.7926 117.652 77.7402L117.9 77.6406L118.147 77.541C118.151 77.5392 118.155 77.5359 118.16 77.5342L117.935 78.0117ZM67.0405 18.3105C67.3476 18.1462 67.6943 18.079 68.0532 18.1533L68.3198 18.208L68.5874 18.2637C68.7501 18.2974 68.9135 18.3257 69.0757 18.3486L69.6089 18.4248C69.698 18.4373 69.7879 18.4328 69.8813 18.4111L70.1479 18.3496L70.4146 18.2871C70.7265 18.2147 71.0413 18.2344 71.3413 18.3379L71.6079 18.4297L71.8745 18.5225C71.9306 18.5417 71.9742 18.5422 72.0181 18.5322L72.5513 18.4111C72.8944 18.3333 73.2336 18.3796 73.5425 18.5234L73.8101 18.6475L73.979 18.7275L74.1792 18.5928L74.4458 18.4131L74.5864 18.3311C74.7333 18.2562 74.9013 18.2052 75.0864 18.1992C75.2729 18.1934 75.4461 18.2334 75.5991 18.3018L75.7456 18.3789L76.2788 18.7031C76.3763 18.7622 76.4482 18.7802 76.4976 18.7842L76.7651 18.8057L77.0317 18.8262C77.0729 18.8292 77.1279 18.8235 77.2046 18.7871L77.7378 18.5332C78.041 18.3894 78.3747 18.3374 78.7153 18.4053L78.9819 18.458L79.2485 18.5117C79.2867 18.5193 79.3203 18.5248 79.3472 18.5293C79.3558 18.5307 79.3645 18.5321 79.3716 18.5332L79.4185 18.5225L79.5884 18.5C79.6393 18.4974 79.6832 18.4984 79.7104 18.499C79.787 18.5007 79.8765 18.5064 79.9722 18.5146L80.2388 18.5371L80.5054 18.5605C80.5755 18.5664 80.6556 18.5579 80.7485 18.5254L81.02 18.4307L81.2915 18.335C81.6509 18.2094 82.0243 18.2312 82.3667 18.3965L82.6265 18.5215L82.8862 18.6475C83.0311 18.7173 83.174 18.7746 83.313 18.8193L83.8306 18.9854C83.865 18.9963 83.9042 19.0003 83.9634 18.9844L84.5161 18.8359C84.8641 18.7424 85.2199 18.7737 85.5464 18.9365L85.7974 19.0615L86.0474 19.1865C86.1589 19.242 86.2683 19.278 86.3735 19.2979L86.6333 19.3477L86.894 19.3965C87.1029 19.4359 87.3091 19.4908 87.5103 19.5615L87.7622 19.6504L88.0132 19.7383C88.1439 19.7842 88.2778 19.8192 88.4126 19.8428L88.6733 19.8887L88.9351 19.9346C89.0078 19.9471 89.1001 19.9478 89.2163 19.9229L89.5083 19.8594L89.8003 19.7969C90.064 19.7403 90.3312 19.7238 90.5962 19.7549L90.8677 19.7861L91.1382 19.8184C91.5401 19.8657 91.8589 20.0819 92.0854 20.3711L92.2837 20.624L92.4399 20.8242L92.6392 20.8066L92.9321 20.7793C93.2862 20.747 93.6327 20.8316 93.9302 21.0469L94.1538 21.209L94.3774 21.3701C94.5431 21.4901 94.7043 21.6182 94.8599 21.7529L95.0708 21.9355L95.2808 22.1182C95.3615 22.1879 95.4441 22.236 95.5269 22.2676L96.021 22.4551C96.0462 22.4645 96.1067 22.4796 96.2251 22.4609L96.8696 22.3594C97.2899 22.2933 97.7209 22.4064 98.0298 22.7666L98.2173 22.9863L98.4048 23.2051C98.4596 23.2689 98.5126 23.3039 98.564 23.3242L99.0659 23.5215C99.3224 23.6229 99.5517 23.773 99.7485 23.9658L99.9448 24.1582L100.14 24.3496C100.172 24.3807 100.21 24.4039 100.269 24.417L100.546 24.4775L100.824 24.5391C101.173 24.6164 101.471 24.8061 101.686 25.0928L101.856 25.3193L102.026 25.5449C102.056 25.5852 102.086 25.606 102.125 25.6201L102.649 25.8057C102.928 25.9045 103.175 26.0641 103.378 26.2812L103.563 26.4795L103.749 26.6768C103.81 26.7428 103.882 26.7969 103.968 26.8379L104.464 27.0742C104.675 27.1751 104.874 27.2978 105.056 27.4414L105.268 27.6074L105.479 27.7734C105.719 27.9626 105.898 28.2051 106.019 28.4805L106.137 28.749L106.243 28.9893L106.502 29.0723L106.786 29.1611C107.136 29.2718 107.408 29.5047 107.564 29.8271L107.625 29.9707L107.723 30.25L107.822 30.5283C107.87 30.6633 107.927 30.7765 107.99 30.8701L108.139 31.0928L108.29 31.3154C108.325 31.3685 108.374 31.4151 108.444 31.4551L108.687 31.5928L108.93 31.7314C109.1 31.828 109.269 31.9285 109.436 32.0322L109.675 32.1807L109.914 32.3291C110.282 32.5587 110.475 32.923 110.518 33.3184L110.552 33.6318L110.572 33.8145L110.753 33.877L111.055 33.9824C111.371 34.0927 111.659 34.2838 111.862 34.5781L112.014 34.7998L112.167 35.0215C112.348 35.2846 112.442 35.5833 112.467 35.8926L112.493 36.1973L112.518 36.5029C112.529 36.6345 112.557 36.7337 112.591 36.8086L112.816 37.293C112.868 37.4048 112.932 37.5094 113.007 37.6064L113.335 38.0264C113.434 38.1527 113.539 38.278 113.649 38.4004L114.012 38.8047C114.181 38.9927 114.321 39.2027 114.424 39.4326L114.643 39.9189C114.727 40.1061 114.801 40.2987 114.864 40.4951L114.945 40.751L115.027 41.0068C115.082 41.1816 115.136 41.3573 115.188 41.5322L115.338 42.0439C115.356 42.102 115.388 42.1605 115.445 42.2217L115.637 42.4277L115.831 42.6338C116.026 42.8427 116.174 43.0864 116.263 43.3604L116.345 43.6133L116.428 43.8672C116.474 44.0093 116.529 44.149 116.591 44.2852L116.704 44.5283L116.815 44.7705C116.903 44.9609 116.978 45.1571 117.04 45.3574L117.196 45.8672C117.237 46.001 117.289 46.1328 117.352 46.2617L117.47 46.5049L117.589 46.748C117.718 47.0108 117.78 47.2936 117.778 47.585L117.777 47.8613L117.775 48.1377C117.774 48.2481 117.79 48.3488 117.821 48.4424L117.987 48.9502C118.06 49.1743 118.105 49.4053 118.123 49.6406L118.142 49.9082L118.162 50.1748C118.169 50.2692 118.191 50.3581 118.23 50.4443L118.451 50.9326C118.57 51.1958 118.625 51.4766 118.616 51.7646L118.598 52.3076C118.595 52.4024 118.609 52.4919 118.639 52.5801L118.815 53.0918C118.89 53.3112 118.941 53.5368 118.966 53.7666L118.996 54.0322L119.025 54.2969C119.052 54.5454 119.041 54.7951 118.995 55.042L118.944 55.3135L118.893 55.584C118.881 55.6462 118.885 55.7012 118.905 55.7598L119.079 56.2812C119.133 56.4447 119.192 56.6092 119.254 56.7734L119.354 57.0342L119.455 57.2959C119.593 57.6597 119.569 58.0344 119.416 58.375L119.292 58.6484L119.17 58.9209C119.145 58.978 119.15 59.0009 119.152 59.0107L119.271 59.5381C119.333 59.8146 119.335 60.0959 119.277 60.373L119.221 60.6416L119.166 60.9092C119.146 61.0016 119.145 61.0892 119.16 61.1758L119.206 61.4404L119.215 61.5C119.17 61.4543 119.123 61.4098 119.071 61.3691L118.856 61.2012L118.64 61.0322C118.382 60.83 118.082 60.7183 117.763 60.6865L117.175 60.6279C117.053 60.6157 116.964 60.5881 116.901 60.5566L116.673 60.4424L116.446 60.3271C116.342 60.2749 116.232 60.2054 116.118 60.1152L115.896 59.9395L115.673 59.7637C115.465 59.5992 115.235 59.4709 114.986 59.3818L114.722 59.2881L114.458 59.1934C114.102 59.066 113.735 59.0891 113.399 59.2373L113.129 59.3564L112.859 59.4746C112.789 59.5055 112.736 59.5106 112.688 59.5049L112.414 59.4717L112.138 59.4375C112.076 59.4299 112.014 59.4266 111.954 59.4268C111.94 59.2295 111.898 59.037 111.826 58.8525C111.803 58.8619 111.783 58.8724 111.763 58.8789C111.626 58.9234 111.498 58.9265 111.416 58.9238L110.886 58.9062C110.719 58.9007 110.55 58.898 110.381 58.8984L109.848 58.9004C109.733 58.9007 109.615 58.9153 109.494 58.9473L108.96 59.0879C108.613 59.1795 108.266 59.1399 107.949 58.9941L107.682 58.8721L107.503 58.7891L107.298 58.9219L107.032 59.0938C106.698 59.309 106.295 59.3905 105.884 59.251L105.618 59.1602L105.35 59.0693C105.279 59.0452 105.22 59.0423 105.163 59.0518L104.629 59.1396C104.438 59.1715 104.245 59.1978 104.053 59.2178L103.787 59.2451L103.52 59.2734C103.29 59.2974 103.059 59.2954 102.83 59.2686L102.296 59.2061C102.205 59.1954 102.112 59.2009 102.015 59.2246L101.482 59.3555C101.102 59.4483 100.737 59.3724 100.421 59.1885L100.155 59.0332L99.9448 58.9102L99.7505 59.0029L99.4839 59.1289C99.201 59.2629 98.8934 59.3257 98.5737 59.293L98.0405 59.2383C97.8018 59.2138 97.5666 59.159 97.3374 59.0762L96.8042 58.8828C96.7872 58.8767 96.7782 58.876 96.7749 58.876C96.7719 58.876 96.7632 58.877 96.7466 58.8828L96.2134 59.0684C95.9162 59.1718 95.6049 59.1938 95.2944 59.126L94.7612 59.0088C94.6945 58.9942 94.6301 58.9953 94.5601 59.0137L94.0269 59.1543C93.6527 59.2526 93.2877 59.1876 92.9683 59.0107L92.4351 58.7158C92.3242 58.6544 92.2589 58.6423 92.2329 58.6406L91.9966 58.626L91.7612 58.6113C91.5445 58.5977 91.2948 58.517 91.1001 58.3057C90.9866 58.1824 90.9227 58.0435 90.8843 57.9131L90.8257 58.0068L90.6733 58.2451C90.5484 58.4416 90.4056 58.6229 90.2407 58.7725L89.9243 59.0596C89.6074 59.347 89.2154 59.3874 88.8833 59.3213L88.6167 59.2676L88.3501 59.2148C88.248 59.1945 88.1479 59.1919 88.0483 59.2051L87.5151 59.2754C87.2024 59.3168 86.897 59.2688 86.6118 59.1484L86.3452 59.0352L86.0786 58.9229C85.9444 58.8662 85.8149 58.8274 85.6899 58.8037L85.4224 58.7529L85.1558 58.7021C85.1111 58.6937 85.0639 58.6957 85.0015 58.7188L84.4683 58.916C84.1422 59.0364 83.7996 59.0444 83.4673 58.9355L83.2007 58.8477L82.9331 58.7607C82.9071 58.7523 82.8911 58.7519 82.8608 58.7627L82.5942 58.8574L82.3276 58.9531C82.0102 59.0665 81.6774 59.0775 81.3521 58.9805L81.0854 58.9004L80.8188 58.8213C80.6693 58.7766 80.5205 58.7418 80.3735 58.7178L80.1069 58.6748L79.8403 58.6309C79.8298 58.6291 79.8053 58.6246 79.7476 58.6543L79.2144 58.9297C78.9163 59.0834 78.5842 59.1499 78.2388 59.0928L77.7056 59.0049C77.5023 58.9712 77.2996 58.926 77.0981 58.8701L76.8315 58.7959L76.5649 58.7227C76.4753 58.6978 76.3924 58.6919 76.311 58.7021L76.0444 58.7363L75.7778 58.7695C75.5865 58.7937 75.3942 58.8123 75.2026 58.8252L74.936 58.8428L74.6694 58.8613C74.4498 58.8761 74.2094 58.8689 73.9849 58.7998L73.6626 58.7002C73.2315 58.5675 73.0372 58.1988 72.9507 57.9443L72.7769 57.4326C72.6801 57.1477 72.6581 56.8514 72.7056 56.5566L72.7505 56.2793L72.7827 56.0742L72.5806 55.8652L72.355 55.6328C72.1097 55.3791 71.9359 55.0527 71.9204 54.665L71.8989 54.1279C71.8894 53.8879 71.9101 53.6466 71.9595 53.4072L72.0181 53.1279L72.0757 52.8477C72.0903 52.7766 72.0847 52.7253 72.0698 52.6807L71.9839 52.4248L71.8979 52.168C71.8524 52.0319 71.7959 51.8955 71.7271 51.7598L71.6001 51.5107L71.4741 51.2607C71.3051 50.9274 71.2773 50.5659 71.3745 50.2158L71.5327 49.6494C71.5724 49.5065 71.5934 49.3714 71.6001 49.2451L71.6147 48.9727L71.6284 48.7158C71.6246 48.7083 71.6164 48.692 71.5972 48.6689L71.3843 48.415L71.314 48.332L71.2446 48.3662L71.0874 48.4414L71.0894 48.5312L71.0942 48.8037C71.0973 48.9675 71.1071 49.1336 71.1226 49.3008L71.1479 49.5781L71.1733 49.8545C71.2101 50.2521 71.0743 50.6092 70.8296 50.8936L70.6294 51.126L70.4321 51.3535L70.4624 51.5996L70.4956 51.8779C70.5206 52.0885 70.5332 52.2985 70.5347 52.5068L70.5366 52.7793L70.5386 53.0508C70.5404 53.3155 70.4959 53.5753 70.4058 53.8242L70.314 54.0781L70.2222 54.3311C70.1765 54.4571 70.1435 54.5854 70.1235 54.7148L70.0835 54.9785L70.0425 55.2432C69.9969 55.5382 69.8799 55.8086 69.7095 56.0488L69.5405 56.2871L69.4175 56.458L69.5044 56.6934L69.6118 56.9854C69.6667 57.1348 69.7199 57.3416 69.6899 57.5684C69.6551 57.8315 69.5118 58.0745 69.2681 58.2266L69.1089 58.3252L68.9497 58.4248C68.8056 58.5147 68.6308 58.6028 68.438 58.6895L68.1714 58.8096L67.9048 58.9287C67.6109 59.0607 67.2928 59.1117 66.9663 59.0586L66.6997 59.0156L66.4331 58.9717C66.3073 58.9512 66.1822 58.9453 66.0581 58.9531L65.5249 58.9863C65.2839 59.0015 65.0438 58.9847 64.8062 58.9365L64.5396 58.8828L64.2729 58.8281C64.2655 58.8266 64.2477 58.8218 64.1978 58.8467L63.6646 59.1123C63.3211 59.2835 62.9393 59.3153 62.5679 59.1787L62.3013 59.0801L62.0347 58.9824C61.9382 58.947 61.8312 58.9266 61.7095 58.9258L61.4106 58.9238L61.1108 58.9219C60.9321 58.9207 60.6014 58.8814 60.3628 58.5977C60.1145 58.3021 60.1444 57.9577 60.187 57.7715L60.314 57.2148C60.342 57.0919 60.351 56.9788 60.3442 56.874L60.3276 56.6074L60.3101 56.3398C60.3024 56.2218 60.2801 56.1052 60.2427 55.9893L60.0767 55.4736C60.0335 55.3401 59.9777 55.2058 59.9087 55.0713L59.6509 54.5693C59.445 54.1678 59.4831 53.745 59.6646 53.3838L59.811 53.0938L59.9565 52.8047L59.8706 52.5957L59.7651 52.3408C59.6799 52.1338 59.6139 51.9211 59.5669 51.7051L59.5103 51.4443L59.4526 51.1826C59.3975 50.9289 59.3866 50.6706 59.4175 50.4121L59.4507 50.1377L59.481 49.8789C59.4787 49.8754 59.4752 49.8705 59.4712 49.8652L59.2974 49.6396L59.2378 49.7158C59.1689 49.8025 59.1291 49.882 59.1079 49.9551L59.0337 50.2119L58.9595 50.4678C58.8969 50.6843 58.813 50.8945 58.7085 51.0967L58.5825 51.3408L58.4565 51.584C58.4447 51.6071 58.4375 51.6333 58.4448 51.6846L58.5269 52.2549C58.5576 52.4678 58.5776 52.6798 58.5864 52.8896L58.6099 53.4463C58.622 53.7348 58.5722 54.017 58.4575 54.2832L58.3501 54.5312L58.2437 54.7793C58.1974 54.8865 58.1659 54.9968 58.1499 55.1104L58.0757 55.6416C58.0446 55.8636 57.9923 56.0812 57.9194 56.293L57.7456 56.7988C57.6457 57.0893 57.4732 57.3388 57.2573 57.5488L57.0327 57.7676L56.8081 57.9854C56.7568 58.0352 56.7263 58.0729 56.7095 58.0967C56.705 58.1031 56.7017 58.1081 56.6997 58.1113L56.6421 58.2861L56.5815 58.4717C56.5071 58.6977 56.3521 58.8929 56.1274 59.0127C55.9234 59.1213 55.7131 59.1401 55.5503 59.1338L55.2837 59.124L55.0171 59.1133C54.8068 59.1051 54.5971 59.0828 54.3882 59.0459L54.1216 58.998L53.855 58.9512C53.7757 58.9372 53.697 58.9396 53.6138 58.96L53.3472 59.0254L53.0806 59.0898C52.7613 59.1679 52.4395 59.1464 52.1343 59.0352L51.8677 58.9385L51.6011 58.8408C51.561 58.8263 51.5361 58.8275 51.5063 58.8359L50.9731 58.9883C50.6444 59.0821 50.31 59.0646 49.9937 58.9453L49.4604 58.7441C49.3983 58.7207 49.3522 58.7195 49.3091 58.7275L48.7759 58.8271C48.5517 58.8691 48.3258 58.8879 48.0991 58.8838L47.8315 58.8799L47.5649 58.875C47.4982 58.8738 47.4212 58.8865 47.3286 58.9268L46.7954 59.1592C46.5128 59.2821 46.2093 59.3346 45.897 59.2988L45.6304 59.2686L45.3638 59.2373C45.168 59.2149 44.972 59.185 44.7769 59.1475L44.5103 59.0967L44.2437 59.0449C44.16 59.0289 44.0785 59.0298 43.9937 59.0479L43.7271 59.1045L43.4595 59.1621C43.0937 59.24 42.7418 59.1684 42.4331 58.9971L41.8999 58.7002C41.8816 58.69 41.8703 58.6858 41.8657 58.6846L41.603 58.7461L41.3364 58.8066C41.0874 58.8634 40.8344 58.8806 40.5806 58.8574L40.313 58.833L40.0464 58.8086C39.9748 58.8021 39.8983 58.8106 39.811 58.8408L39.5444 58.9326L39.2778 59.0254C39.0057 59.1197 38.6709 59.1665 38.3364 59.0381L38.1489 58.9658L37.9624 58.8945C37.7453 58.8111 37.5641 58.6554 37.4507 58.4424C37.3461 58.2458 37.3214 58.0423 37.3237 57.877L37.3276 57.6045L37.3315 57.333C37.3327 57.2517 37.3172 57.1753 37.2847 57.0986L37.1782 56.8467L37.0708 56.5947C36.969 56.3552 36.9083 56.1041 36.8911 55.8447L36.8735 55.5762L36.855 55.3086C36.8441 55.1444 36.8287 54.9805 36.8081 54.8184L36.7739 54.5537L36.7407 54.2891C36.7387 54.2733 36.7304 54.2336 36.6724 54.167L36.4692 53.9336L36.2651 53.7002C36.0065 53.4032 35.8745 53.0248 35.9399 52.6094L36.0278 52.0508C36.044 51.9478 36.04 51.8577 36.022 51.7764L35.9644 51.5156L35.9058 51.2549C35.884 51.1571 35.846 51.056 35.7856 50.9521L35.6431 50.708L35.5796 50.5996C35.5724 50.6464 35.5654 50.6937 35.5562 50.7402L35.5044 51.002L35.4517 51.2637C35.4218 51.4128 35.4 51.5643 35.3862 51.7168L35.3618 51.9834L35.3384 52.25C35.3067 52.6022 35.1533 52.9074 34.9321 53.1572L34.52 53.6221C34.4373 53.7154 34.3949 53.7955 34.3735 53.8604L34.2905 54.1162L34.2134 54.3477C34.2159 54.3565 34.2214 54.3717 34.2319 54.3936L34.3765 54.6924L34.522 54.9912C34.6963 55.3504 34.7387 55.7757 34.5249 56.1797L34.2632 56.6738C34.2253 56.7454 34.2086 56.8118 34.2065 56.8789L34.1987 57.1484L34.1899 57.418C34.1797 57.7564 34.0515 58.134 33.6919 58.375L33.5161 58.4922L33.3403 58.6104C33.1799 58.7177 32.9941 58.8153 32.7925 58.9053L32.5259 59.0244L32.2593 59.1426C31.9923 59.2617 31.7072 59.3245 31.4116 59.3145L31.145 59.3047L30.8784 59.2959C30.7315 59.2909 30.5843 59.2955 30.437 59.3096L29.9038 59.3604C29.5389 59.3952 29.2038 59.2881 28.9175 59.1035L28.6509 58.9316L28.4712 58.8154L28.3081 58.9043L28.0415 59.0488C27.8002 59.1796 27.5438 59.2712 27.2749 59.3115L27.0083 59.3516L26.7407 59.3916C26.4298 59.4381 26.1244 59.3964 25.8374 59.2812L25.5708 59.1738L25.3042 59.0674C25.2845 59.0595 25.2746 59.0587 25.272 59.0586C25.2696 59.0585 25.263 59.0583 25.2495 59.0625L24.7163 59.2305C24.4926 59.301 24.2648 59.3477 24.0347 59.3691L23.7681 59.3945L23.5015 59.4189C23.2602 59.4414 23.019 59.4316 22.7798 59.3896L22.2466 59.2959C22.016 59.2555 21.7895 59.1889 21.5679 59.0986L21.3013 58.9902L21.0337 58.8809C20.9147 58.8324 20.8034 58.8053 20.6987 58.7949L20.1655 58.7422C20.0147 58.7272 19.8638 58.7203 19.7134 58.7227L19.4468 58.7275L19.1802 58.7314C18.9779 58.7346 18.7757 58.7268 18.5737 58.709L18.3062 58.6855L18.0396 58.6621C17.9295 58.6524 17.8186 58.6586 17.7056 58.6807L17.1724 58.7842C16.9796 58.8218 16.7865 58.8531 16.5933 58.8779L16.228 58.9238C16.1799 59.0183 16.1276 59.1131 16.0659 59.2051L15.9946 59.3105L15.9087 59.2754L15.645 59.168L15.5063 59.1201C15.1807 59.0254 14.848 59.0588 14.5425 59.2012L14.271 59.3281L14.0005 59.4541C13.9664 59.47 13.9488 59.4696 13.9224 59.4629L13.6382 59.3906L13.354 59.3174L13.1919 59.2861C12.8708 59.2449 12.5641 59.3287 12.3081 59.5195L12.1851 59.624L11.9663 59.8311L11.7515 60.0352L11.1421 60.0039C10.6986 59.9813 10.2991 60.1694 10.0454 60.5498L9.88135 60.7959L9.71826 61.042C9.60929 61.2055 9.50421 61.3613 9.40479 61.5098L9.25537 61.7334L9.10596 61.9561C9.09521 61.9721 9.0762 61.9942 9.01807 62.0166L8.76904 62.1123C8.77245 62.0164 8.7735 61.9203 8.76709 61.8242L8.74854 61.5566L8.73096 61.2891C8.71083 60.9869 8.76849 60.6947 8.89014 60.4219L9.00732 60.1592L9.12451 59.8955C9.15443 59.8283 9.15965 59.7784 9.15479 59.7354L9.12354 59.4678L9.09326 59.2002C9.07128 59.0082 9.05485 58.816 9.04443 58.625L9.02979 58.3594L9.01611 58.0938C9.00403 57.8714 9.0131 57.6489 9.04346 57.4277L9.07959 57.1631L9.11572 56.8975C9.13147 56.7827 9.13228 56.6673 9.11768 56.5508L9.08447 56.2832L9.05029 56.0156C9.01412 55.7279 9.04543 55.4434 9.13916 55.1699L9.31689 54.6504C9.33454 54.5989 9.33853 54.5497 9.32666 54.4912L9.271 54.2188L9.21436 53.9463C9.17426 53.7504 9.14035 53.5532 9.11279 53.3555L9.07471 53.0801L9.03662 52.8057C8.99095 52.4777 9.04503 52.1567 9.19287 51.8623L9.31885 51.6113L9.4458 51.3604C9.49094 51.2704 9.51314 51.1851 9.52002 51.1025L9.56494 50.5693C9.57577 50.4388 9.57354 50.301 9.55811 50.1562L9.52881 49.875L9.49854 49.5938C9.44907 49.1298 9.65521 48.746 9.96826 48.4814L10.2212 48.2686L10.3521 48.1562L10.3013 48.0078L10.1948 47.7021C10.0833 47.3797 10.0564 47.027 10.1763 46.6787L10.2642 46.4248L10.3521 46.1699C10.4461 45.897 10.5981 45.6554 10.7944 45.4463L10.9966 45.2314L11.1782 45.0371L11.1509 44.7705L11.1216 44.4756C11.089 44.1523 11.1416 43.8297 11.3003 43.5342L11.4282 43.2969L11.5562 43.0586C11.6104 42.9576 11.6505 42.8497 11.6763 42.7344L11.7954 42.2012C11.8477 41.9673 11.9275 41.7426 12.0347 41.5293L12.1558 41.2891L12.2769 41.0479C12.3577 40.8869 12.4387 40.7261 12.52 40.5654L12.6411 40.3252L12.7632 40.085C12.9048 39.8052 13.1144 39.5799 13.3677 39.4072L13.6177 39.2373L13.8667 39.0674C13.9307 39.0236 13.9482 38.991 13.9556 38.9727L14.0552 38.7236L14.1538 38.4736C14.2098 38.333 14.2591 38.1859 14.3013 38.0322L14.3745 37.7646L14.4487 37.4971L14.4937 37.3594C14.6139 37.0496 14.8356 36.8111 15.1187 36.6504L15.3804 36.501L15.6421 36.3525C15.6686 36.3374 15.6792 36.3264 15.6812 36.3242C15.6823 36.323 15.6835 36.3215 15.6851 36.3174L15.8765 35.8057C15.9356 35.6479 15.9912 35.4855 16.0435 35.3184L16.1274 35.0498L16.2114 34.7803C16.2877 34.5363 16.3976 34.3078 16.5415 34.0986L16.6938 33.877L16.8472 33.6553C16.9685 33.4791 17.1018 33.312 17.2476 33.1553L17.6147 32.7607C17.8205 32.5395 18.0727 32.3809 18.3511 32.2754L18.6353 32.167L18.896 32.0674L18.979 31.8359L19.0747 31.5645C19.1534 31.3431 19.2517 31.1325 19.3687 30.9336L19.6479 30.459C19.8221 30.1629 20.0779 29.9462 20.3882 29.8145L20.6538 29.7012L20.9194 29.5889C21.024 29.5443 21.1036 29.4904 21.1655 29.4316L21.3589 29.248L21.5522 29.0654C21.7088 28.9168 21.8772 28.7811 22.0562 28.6592L22.2778 28.5078L22.4995 28.3574C22.5083 28.3514 22.5338 28.332 22.561 28.2588L22.6685 27.9697L22.7749 27.6816C22.9146 27.3051 23.1928 27.0099 23.5952 26.876L23.8667 26.7861L24.1372 26.6963C24.225 26.667 24.2896 26.6263 24.3394 26.5791L24.5347 26.3945L24.729 26.209C24.9748 25.9762 25.2755 25.8422 25.5981 25.792L25.8921 25.7461L26.186 25.7012C26.2689 25.6882 26.3111 25.6628 26.3364 25.6416L26.5405 25.4717L26.7446 25.3008C26.8173 25.24 26.8899 25.1575 26.9595 25.0469L27.1167 24.7969L27.2749 24.5469L27.3647 24.4189C27.5887 24.1384 27.9057 23.9718 28.2729 23.9424L28.5688 23.9189L28.8638 23.8945C28.8693 23.894 28.8746 23.8931 28.8774 23.8926L29.062 23.6865L29.2495 23.4766C29.4995 23.197 29.8291 23.0383 30.1978 23.0088L30.4858 22.9854L30.7729 22.9629C30.8672 22.9552 30.9352 22.931 30.9878 22.9004L31.2173 22.7666L31.4468 22.6338C31.5575 22.5692 31.6662 22.4906 31.772 22.3975L31.981 22.2129L32.189 22.0293C32.4294 21.8176 32.7164 21.683 33.0347 21.6357L33.3062 21.5957L33.5776 21.5547C33.629 21.547 33.6747 21.5289 33.7222 21.4902L33.939 21.3135L34.1558 21.1357C34.3363 20.9886 34.5292 20.8613 34.7329 20.7549L34.9722 20.6299L35.2124 20.5039L35.3394 20.4453C35.6379 20.3254 35.9525 20.3195 36.2515 20.3916L36.5562 20.4648L36.8599 20.5381C36.9497 20.5596 36.9871 20.5475 36.9966 20.5439L37.2437 20.4512L37.4917 20.3594C37.6055 20.3168 37.7211 20.2584 37.8364 20.1836L38.3052 19.8789C38.4782 19.7667 38.6558 19.662 38.8364 19.5654L39.0806 19.4346L39.3247 19.3047L39.4624 19.2402C39.7862 19.1115 40.1264 19.1253 40.4399 19.2383L40.7339 19.3438L41.0278 19.4502C41.1094 19.4794 41.1418 19.4702 41.147 19.4688L41.4028 19.3975L41.6597 19.3262C41.7639 19.2971 41.8735 19.25 41.9878 19.1816L42.2358 19.0332L42.4829 18.8857C42.7236 18.7418 42.9855 18.6448 43.2642 18.6064L43.5298 18.5703L43.7964 18.5342C44.059 18.4982 44.3229 18.5093 44.5825 18.5654L44.856 18.625L45.1294 18.6836C45.1479 18.6875 45.1633 18.6888 45.1978 18.6719L45.4575 18.5439L45.7183 18.415L45.8735 18.3506C46.2384 18.2263 46.6106 18.287 46.9302 18.4785L47.2026 18.6416L47.3843 18.751L47.5513 18.6533L47.8169 18.4971C48.0656 18.3506 48.3356 18.2498 48.6235 18.2148L49.1567 18.1504C49.5458 18.1035 49.8981 18.2279 50.187 18.4326L50.7202 18.8115C50.725 18.8149 50.7302 18.818 50.7339 18.8203L50.9644 18.7725L51.231 18.7168C51.4187 18.6776 51.6074 18.6427 51.7954 18.6123L52.063 18.5693L52.3296 18.5264C52.6356 18.4771 52.9384 18.5119 53.2251 18.6191L53.4917 18.7188L53.7241 18.8066L53.9751 18.6729L54.2417 18.5312C54.4788 18.4051 54.7298 18.3148 54.9907 18.2705L55.2573 18.2256L55.5239 18.1797C55.8189 18.1298 56.1134 18.1541 56.396 18.2461L56.9292 18.4199C57.0454 18.4577 57.1569 18.4764 57.2632 18.4795L57.7964 18.4951C57.8883 18.4977 57.9854 18.484 58.0894 18.4502L58.356 18.3643L58.6226 18.2773C59.0492 18.1389 59.4578 18.2429 59.7847 18.4727L60.0513 18.6602L60.1958 18.7627L60.3286 18.6787L60.5952 18.5098C60.8651 18.339 61.1797 18.2449 61.5142 18.2803L61.6587 18.3037L61.9253 18.3613L62.1929 18.4189C62.2872 18.4391 62.3788 18.4414 62.4702 18.4277L63.0034 18.3477C63.2603 18.3092 63.5195 18.315 63.7749 18.3633L64.0415 18.4131L64.3081 18.4639C64.4792 18.4962 64.6517 18.5262 64.8228 18.5537L65.356 18.6396C65.4923 18.6615 65.6284 18.6713 65.7632 18.6689L66.0298 18.6641L66.2974 18.6592C66.3476 18.6581 66.4155 18.6443 66.5063 18.5957L66.7739 18.4531L67.0405 18.3105Z" fill="#303A4B"/>
</svg>
