<svg width="128" height="128" viewBox="0 0 128 128" fill="none" xmlns="http://www.w3.org/2000/svg">
<g clip-path="url(#clip0_395_2923)">
<path d="M9.271 77.5195L9.43115 77.7588C9.60475 78.0189 9.83611 78.2257 10.1187 78.3652L10.3687 78.4893L10.6196 78.6133C10.7968 78.7008 10.9769 78.784 11.1577 78.8623L11.4126 78.9727L11.6685 79.083C11.8716 79.1709 12.081 79.2434 12.2954 79.2998L12.5659 79.3711L12.8354 79.4424C13.0851 79.5079 13.3413 79.5344 13.5991 79.5225L13.8784 79.5098L14.1567 79.4971C14.4122 79.4852 14.6626 79.4357 14.9038 79.3506L15.1685 79.2578L15.2876 79.2148C15.3434 79.3993 15.4177 79.5771 15.5112 79.7471L15.771 80.2197C15.8258 80.3194 15.8648 80.4225 15.8892 80.5303L15.9487 80.79L16.0073 81.0508C16.059 81.2792 16.1376 81.4986 16.2417 81.708L16.3599 81.9463L16.478 82.1836C16.512 82.252 16.535 82.3337 16.5415 82.4346L16.5601 82.7168L16.5776 83C16.5922 83.2245 16.6237 83.4457 16.6724 83.6621L16.7329 83.9316L16.7935 84.2002C16.8474 84.4397 16.932 84.6688 17.0464 84.8848L17.1724 85.123L17.2993 85.3623C17.4503 85.6471 17.6743 85.869 17.9409 86.0332L18.4604 86.3535C18.5445 86.4054 18.5811 86.4517 18.5991 86.4844L18.855 86.9492C18.9243 87.075 18.9863 87.2076 19.0396 87.3467L19.1362 87.6006L19.2339 87.8545C19.3499 88.1576 19.5467 88.4077 19.8062 88.5957L20.0347 88.7607L20.2632 88.9268C20.2673 88.9297 20.2694 88.9319 20.27 88.9326V88.9316L20.271 88.9336C20.272 88.9362 20.2738 88.9426 20.2759 88.9521L20.3374 89.2363L20.3999 89.5205C20.456 89.7784 20.5483 90.0228 20.6812 90.248L20.9565 90.7148C21.1376 91.0216 21.4093 91.2331 21.7241 91.3594L22.0054 91.4727L22.2866 91.585C22.3558 91.6127 22.3738 91.6382 22.3804 91.6484L22.5249 91.874L22.6704 92.0996C22.7875 92.2818 22.9178 92.4538 23.062 92.6143L23.2397 92.8115L23.4175 93.0098C23.5355 93.1411 23.654 93.2725 23.772 93.4043L23.9497 93.6035L24.1274 93.8018C24.2571 93.9465 24.392 94.0866 24.5317 94.2217L24.7231 94.4072L24.9146 94.5918C25.064 94.7363 25.2232 94.8716 25.3901 94.9961L25.604 95.1553L25.8188 95.3154C25.9256 95.3951 26.0245 95.4846 26.1147 95.583L26.2954 95.7793L26.4761 95.9766C26.5868 96.0973 26.6951 96.223 26.8003 96.3525L27.1421 96.7744C27.3161 96.9888 27.5282 97.1624 27.772 97.292L28.0112 97.4199L28.2515 97.5469C28.3026 97.5741 28.3479 97.6135 28.3892 97.6758L28.5444 97.9111L28.7007 98.1465C28.898 98.4442 29.1812 98.6518 29.5229 98.752L29.7954 98.8311L30.0679 98.9111C30.2127 98.9536 30.3465 99.0056 30.4683 99.0654L30.7085 99.1836L30.9497 99.3027C30.9525 99.3039 30.9748 99.3138 31.0063 99.377L31.144 99.6523L31.2817 99.9287C31.4434 100.252 31.7042 100.515 32.0669 100.648L32.5806 100.838C32.6893 100.878 32.7876 100.931 32.8765 100.997L33.0923 101.157L33.3091 101.317C33.4732 101.439 33.6433 101.552 33.8188 101.655L34.0493 101.791L34.2808 101.927C34.5237 102.07 34.7892 102.156 35.0679 102.191L35.353 102.227L35.6372 102.263C35.6942 102.27 35.726 102.287 35.7524 102.31L35.9595 102.489L36.1665 102.668C36.3368 102.815 36.5188 102.947 36.7114 103.06L36.9429 103.194L37.1733 103.33C37.3785 103.45 37.5969 103.544 37.8257 103.61L38.3452 103.761C38.5099 103.808 38.6737 103.859 38.8345 103.912L39.3423 104.08C39.4148 104.104 39.4867 104.144 39.5591 104.208L39.77 104.396L39.9819 104.583C40.1651 104.745 40.3645 104.883 40.5796 104.993L40.8188 105.115L41.0581 105.238C41.2531 105.338 41.4565 105.421 41.6655 105.487L41.9224 105.567L42.1782 105.648C42.3813 105.712 42.5894 105.762 42.8003 105.797L43.0679 105.842L43.3354 105.886C43.4754 105.909 43.6114 105.943 43.7427 105.988L44.2505 106.162C44.366 106.202 44.4798 106.255 44.5903 106.324L44.8237 106.471L45.0571 106.618C45.2812 106.759 45.5245 106.858 45.7827 106.914L46.3101 107.027C46.5558 107.08 46.8072 107.096 47.0601 107.076L47.3423 107.055L47.6255 107.032C47.7336 107.024 47.8273 107.035 47.9106 107.06L48.1665 107.134L48.4233 107.208C48.6074 107.262 48.7933 107.31 48.98 107.353L49.2397 107.412L49.4995 107.471C49.6194 107.498 49.7385 107.54 49.8569 107.597L50.105 107.715L50.3521 107.833C50.6572 107.979 50.9858 108.018 51.313 107.96L51.5952 107.909L51.8774 107.859C51.8845 107.858 51.8894 107.858 51.8911 107.857C51.8927 107.858 51.8962 107.861 51.9019 107.864L52.3882 108.167C52.7173 108.372 53.0918 108.427 53.4634 108.333L53.7466 108.262L54.0288 108.19C54.1641 108.156 54.2883 108.141 54.4009 108.142L54.6675 108.144L54.9351 108.146C54.9422 108.146 54.9698 108.145 55.0288 108.188L55.2739 108.37L55.52 108.551C55.8276 108.778 56.2015 108.882 56.5991 108.804L56.8726 108.75L57.147 108.695C57.2724 108.671 57.3916 108.663 57.5044 108.67L57.77 108.688L58.0356 108.704C58.1895 108.714 58.3437 108.731 58.4966 108.756L58.7603 108.799L59.0239 108.841C59.2319 108.874 59.4417 108.893 59.6519 108.897L59.9185 108.903L60.1841 108.908C60.2949 108.91 60.4084 108.928 60.5249 108.963L60.7896 109.042L61.0532 109.12C61.2505 109.179 61.4495 109.229 61.6489 109.268L61.9136 109.319L62.1792 109.371C62.3748 109.409 62.5722 109.44 62.77 109.462L63.0386 109.491L63.3062 109.521C63.6431 109.559 63.965 109.485 64.2534 109.333L64.7886 109.05C64.9117 108.985 65.0232 108.947 65.1216 108.929L65.6509 108.829C65.8056 108.8 65.9604 108.779 66.1138 108.765L66.3774 108.739L66.6421 108.715C66.7748 108.703 66.9095 108.702 67.0454 108.714L67.5806 108.761C67.8145 108.781 68.0484 108.774 68.2798 108.738L68.5425 108.697L68.8052 108.657C68.915 108.64 69.0284 108.639 69.146 108.652L69.4165 108.684L69.686 108.716C69.8002 108.729 69.9255 108.76 70.061 108.812L70.3403 108.921L70.6196 109.03C70.954 109.16 71.3156 109.176 71.6665 109.044L71.9253 108.946L72.1831 108.849C72.3317 108.793 72.4806 108.745 72.6284 108.707L72.8892 108.64L73.1489 108.572C73.3327 108.525 73.5163 108.473 73.6978 108.417L73.9556 108.338L74.2124 108.259C74.317 108.227 74.4244 108.21 74.5356 108.209L75.0767 108.205C75.2334 108.204 75.3936 108.21 75.5552 108.225L75.8306 108.249L76.1069 108.273C76.3504 108.295 76.5933 108.286 76.8325 108.244L77.0981 108.198L77.3628 108.151C77.7297 108.087 78.0275 107.889 78.2554 107.633L78.6909 107.143C78.7219 107.108 78.7427 107.093 78.7505 107.088H78.7485L79.0122 107.047L79.2759 107.007C79.3514 106.995 79.4457 106.996 79.564 107.023L79.8569 107.092L80.1509 107.159C80.5555 107.252 80.9576 107.164 81.2837 106.892L81.5083 106.705L81.7329 106.518C81.8426 106.426 81.9513 106.355 82.0571 106.303L82.2983 106.185L82.5396 106.065C82.557 106.057 82.5871 106.046 82.6538 106.056L83.2417 106.144C83.5494 106.19 83.8609 106.162 84.1567 106.042L84.4048 105.941L84.6528 105.84C84.7504 105.8 84.8561 105.775 84.9712 105.765L85.522 105.716C85.8653 105.685 86.1724 105.545 86.4243 105.318L86.6372 105.126L86.8501 104.935C86.8647 104.921 86.8748 104.917 86.8784 104.915C86.8817 104.914 86.8899 104.911 86.9058 104.91L87.187 104.896L87.4692 104.881C87.8379 104.862 88.1662 104.712 88.4233 104.453L88.6265 104.248L88.8306 104.043C88.9111 103.962 88.9904 103.908 89.0669 103.873L89.3081 103.763L89.5503 103.652C89.7763 103.549 89.9843 103.412 90.1724 103.247L90.3794 103.064L90.5874 102.882C90.6552 102.822 90.7252 102.784 90.7993 102.76L91.0542 102.678L91.3081 102.595C91.4428 102.551 91.5869 102.517 91.7388 102.491L92.0161 102.444L92.2935 102.398C92.5852 102.35 92.8577 102.237 93.0962 102.058L93.311 101.896L93.5259 101.734C93.5702 101.701 93.627 101.674 93.7095 101.661L93.9937 101.616L94.2769 101.57C94.5427 101.528 94.7967 101.444 95.0308 101.312L95.2651 101.181L95.4995 101.05C95.7637 100.902 95.9771 100.693 96.1411 100.443L96.4634 99.9531C96.5367 99.8417 96.615 99.755 96.6938 99.6885L97.1021 99.3447C97.1268 99.3239 97.1688 99.2989 97.2515 99.2861L97.5474 99.2402L97.8423 99.1953C98.131 99.1509 98.4052 99.0508 98.6499 98.8857L98.8735 98.7354L99.0962 98.585C99.3147 98.4374 99.5033 98.254 99.6597 98.041L99.9897 97.5918C100.045 97.5171 100.107 97.462 100.176 97.4209L100.409 97.2832L100.642 97.1455C100.903 96.9914 101.113 96.7788 101.268 96.5215L101.414 96.2793L101.559 96.0381C101.571 96.0177 101.582 96.0068 101.613 95.9951L101.881 95.8955L102.15 95.7949C102.505 95.6623 102.777 95.4088 102.936 95.0664L103.058 94.8057L103.179 94.5439C103.248 94.3961 103.323 94.2592 103.402 94.1338L103.693 93.6748L103.695 93.6719L103.697 93.6709C103.7 93.6686 103.714 93.6591 103.744 93.6494L104.322 93.4639C104.621 93.368 104.893 93.2051 105.106 92.9609L105.282 92.7588L105.458 92.5576C105.613 92.3798 105.746 92.1836 105.856 91.9727L105.983 91.7295L106.11 91.4854C106.151 91.4069 106.204 91.3428 106.269 91.2891L106.689 90.9434C106.964 90.7175 107.133 90.417 107.205 90.082L107.267 89.7939L107.329 89.5059C107.33 89.5003 107.331 89.4951 107.332 89.4922L107.563 89.333L107.795 89.1729C108.096 88.9653 108.298 88.6686 108.381 88.3145L108.447 88.0381L108.512 87.7607C108.52 87.7297 108.529 87.7178 108.548 87.7021L108.768 87.5264L108.988 87.3516C109.279 87.1196 109.457 86.8022 109.509 86.4385L109.55 86.1553L109.583 85.9238L109.823 85.7832L110.089 85.626C110.357 85.4681 110.586 85.2538 110.745 84.9766L110.878 84.7432L111.012 84.5107C111.154 84.2635 111.236 83.9933 111.264 83.7109L111.292 83.4277L111.32 83.1455C111.334 82.9988 111.36 82.8622 111.397 82.7363L111.472 82.4805L111.547 82.2236C111.58 82.1114 111.627 82.004 111.688 81.9014L111.963 81.4385C112.079 81.2441 112.176 81.0398 112.25 80.8271L112.426 80.3252C112.456 80.2394 112.505 80.1498 112.579 80.0576L112.938 79.6084C112.997 79.5347 113.043 79.4566 113.082 79.3779C113.279 79.3895 113.477 79.3734 113.672 79.3291L113.938 79.2695L114.203 79.209C114.314 79.1838 114.43 79.1742 114.55 79.1807L115.105 79.21C115.496 79.2307 115.847 79.0901 116.122 78.8281L116.333 78.627L116.542 78.4258C116.65 78.3229 116.754 78.244 116.85 78.1855L117.069 78.0527L117.289 77.9199C117.401 77.8521 117.522 77.7917 117.653 77.7393L117.901 77.6396L118.148 77.54C118.239 77.5034 118.325 77.457 118.409 77.4082C118.452 77.579 118.482 77.7524 118.497 77.9277L118.54 78.459C118.556 78.6635 118.561 78.8693 118.553 79.0752L118.543 79.3438L118.534 79.6113C118.533 79.6428 118.538 79.6882 118.578 79.7578L118.726 80.0156L118.874 80.2744C119.033 80.5525 119.118 80.8637 119.099 81.1943L119.083 81.4629L119.068 81.7305C119.06 81.8652 119.065 81.9995 119.083 82.1328L119.117 82.3994L119.15 82.665C119.194 83.0141 119.112 83.3443 118.953 83.6357L118.803 83.9082L118.654 84.1816L118.653 84.1826L118.73 84.417L118.817 84.6816C118.89 84.903 118.94 85.1287 118.965 85.3574L118.995 85.623L119.023 85.8896C119.055 86.184 119.015 86.4733 118.913 86.748L118.713 87.2832C118.698 87.3238 118.7 87.3465 118.708 87.3721L118.784 87.6377L118.861 87.9033C118.943 88.1886 118.956 88.4826 118.896 88.7744L118.841 89.041L118.787 89.3066C118.767 89.4029 118.765 89.4973 118.779 89.5918L118.818 89.8584L118.858 90.125C118.896 90.3804 118.891 90.6376 118.844 90.8916L118.795 91.1572L118.746 91.4219C118.721 91.5554 118.709 91.6891 118.709 91.8213L118.711 92.3545C118.712 92.526 118.715 92.6983 118.719 92.8701L118.727 93.1367L118.734 93.4033C118.738 93.5576 118.75 93.7139 118.769 93.8701L118.803 94.1377L118.836 94.4062C118.87 94.6781 118.85 94.9497 118.778 95.2139L118.707 95.4766L118.634 95.7393C118.595 95.8829 118.566 96.0265 118.547 96.1689L118.513 96.4326L118.479 96.6973C118.475 96.7275 118.477 96.778 118.513 96.8604L118.635 97.1367L118.758 97.4141C118.905 97.7467 118.937 98.1146 118.809 98.4766L118.716 98.7373L118.625 98.9971C118.557 99.1866 118.482 99.3754 118.4 99.5615L118.175 100.073C118.137 100.16 118.121 100.241 118.12 100.318L118.117 100.586L118.113 100.854C118.111 101.003 118.119 101.155 118.135 101.309L118.164 101.58L118.193 101.853C118.219 102.095 118.213 102.337 118.175 102.576L118.091 103.104C118.054 103.336 117.988 103.564 117.896 103.784L117.79 104.041L117.683 104.297C117.657 104.359 117.649 104.417 117.656 104.479L117.684 104.751L117.712 105.024C117.728 105.168 117.755 105.313 117.794 105.46L117.868 105.733L117.94 106.007C118.019 106.304 118.024 106.611 117.942 106.911L117.871 107.171L117.799 107.432C117.774 107.524 117.766 107.614 117.775 107.707L117.799 107.974L117.825 108.241C117.852 108.535 117.807 108.823 117.701 109.096L117.597 109.36L117.495 109.625C117.476 109.674 117.476 109.706 117.483 109.738L117.544 110.004L117.605 110.27C117.665 110.531 117.677 110.796 117.64 111.062L117.602 111.33L117.564 111.598C117.557 111.644 117.562 111.691 117.586 111.75L117.696 112.009L117.804 112.268C117.931 112.569 117.965 112.891 117.9 113.214L117.845 113.485L117.791 113.758C117.779 113.815 117.783 113.861 117.8 113.908L117.891 114.165L117.983 114.422C118.055 114.624 118.111 114.83 118.153 115.037L118.205 115.297L118.256 115.558C118.291 115.73 118.326 115.902 118.361 116.074L118.466 116.594C118.512 116.819 118.532 117.049 118.528 117.281L118.523 117.554L118.517 117.825C118.516 117.875 118.527 117.921 118.556 117.973L118.694 118.214L118.831 118.455C119.013 118.776 119.059 119.13 118.987 119.48L118.868 120.057C118.85 120.142 118.857 120.199 118.871 120.241L118.951 120.496L119.032 120.751C119.063 120.848 119.11 120.946 119.179 121.045L119.341 121.277L119.502 121.509C119.762 121.881 119.779 122.307 119.644 122.69L119.536 122.997L119.428 123.304C119.424 123.315 119.422 123.325 119.42 123.332L119.527 123.55L119.646 123.793C119.734 123.972 119.814 124.154 119.886 124.338L119.984 124.588L120.083 124.837C120.115 124.92 120.168 125.01 120.25 125.104L120.446 125.328L120.641 125.553C120.854 125.797 120.998 126.09 121.04 126.423L121.073 126.69L121.107 126.959C121.124 127.097 121.153 127.232 121.194 127.364L121.273 127.622L121.353 127.88C121.467 128.25 121.411 128.616 121.266 128.938L121.131 129.234L121.049 129.413L121.164 129.544L121.371 129.781C121.622 130.07 121.765 130.439 121.709 130.854L121.635 131.402C121.609 131.601 121.575 131.799 121.535 131.994L121.479 132.264L121.423 132.532C121.394 132.673 121.378 132.809 121.374 132.941L121.365 133.204L121.357 133.466C121.351 133.661 121.336 133.856 121.313 134.05L121.282 134.31L121.191 135.092L121.13 135.621C121.119 135.723 121.122 135.831 121.143 135.945L121.195 136.218L121.246 136.491C121.279 136.671 121.314 136.851 121.349 137.03L121.403 137.303L121.457 137.576C121.506 137.827 121.517 138.081 121.488 138.333L121.458 138.598L121.426 138.862C121.398 139.107 121.334 139.346 121.239 139.576L121.13 139.835L121.023 140.095C120.971 140.219 120.936 140.343 120.916 140.465L120.871 140.73L120.827 140.996C120.825 141.008 120.82 141.037 120.852 141.102L120.987 141.374L121.121 141.646C121.296 142.002 121.321 142.398 121.16 142.776L121.046 143.041L120.934 143.306C120.88 143.434 120.843 143.559 120.822 143.681L120.73 144.218C120.712 144.321 120.711 144.424 120.727 144.525L120.769 144.794L120.811 145.062C120.818 145.107 120.839 145.171 120.903 145.254L121.091 145.5L121.279 145.746C121.461 145.984 121.595 146.258 121.644 146.564L121.685 146.817L121.725 147.071C121.753 147.247 121.779 147.424 121.802 147.603L121.871 148.118C121.884 148.221 121.912 148.318 121.954 148.409L122.167 148.878C122.226 149.009 122.296 149.141 122.375 149.274L122.513 149.507L122.652 149.738C122.674 149.776 122.699 149.799 122.739 149.819L122.98 149.94L123.222 150.062C123.318 150.109 123.416 150.15 123.516 150.188C123.522 150.187 123.528 150.189 123.534 150.188L124.067 150.175C124.158 150.172 124.317 150.171 124.467 150.214C124.52 150.229 124.753 150.295 124.907 150.532C125.122 150.866 124.994 151.195 124.902 151.336L124.857 151.406L124.811 151.476C124.574 151.839 124.181 151.834 124.083 151.829C123.937 151.822 123.797 151.783 123.691 151.748L123.435 151.663L123.251 151.603C123.136 151.595 123.019 151.583 122.904 151.564L122.637 151.521L122.371 151.478C122.245 151.457 122.12 151.451 121.997 151.459L121.73 151.476L121.463 151.493C121.353 151.5 121.237 151.523 121.116 151.564L120.849 151.656L120.583 151.747C120.294 151.846 119.991 151.873 119.688 151.816L119.155 151.717C118.976 151.684 118.796 151.65 118.618 151.616L118.351 151.564L118.084 151.514C117.945 151.487 117.807 151.473 117.67 151.47L117.403 151.464L117.136 151.459C117.125 151.459 117.085 151.46 117.005 151.512L116.472 151.857C116.163 152.058 115.791 152.157 115.397 152.069L114.864 151.95C114.707 151.915 114.551 151.889 114.396 151.869L114.129 151.835L113.863 151.802C113.808 151.795 113.747 151.8 113.671 151.828L113.138 152.031C112.884 152.128 112.617 152.179 112.345 152.177L112.079 152.174L111.812 152.172C111.64 152.17 111.467 152.17 111.295 152.173L111.029 152.178L110.762 152.182C110.507 152.185 110.255 152.148 110.009 152.072L109.476 151.908C109.419 151.891 109.37 151.89 109.319 151.902L108.786 152.031C108.556 152.087 108.322 152.116 108.087 152.117L107.554 152.119C107.377 152.12 107.199 152.12 107.022 152.121L106.489 152.123C106.241 152.124 105.996 152.09 105.756 152.021L105.223 151.869C105.192 151.86 105.165 151.86 105.125 151.874L104.591 152.065C104.187 152.21 103.785 152.141 103.446 151.932L103.178 151.768L102.966 151.637L102.778 151.723L102.511 151.844C102.272 151.952 102.022 152.024 101.764 152.053L101.231 152.113C100.971 152.142 100.711 152.127 100.457 152.067L99.9233 151.942C99.7988 151.913 99.6763 151.9 99.5562 151.9L99.0229 151.904C98.7938 151.906 98.5653 151.882 98.3394 151.835L98.0728 151.778L97.8052 151.723C97.6862 151.698 97.5689 151.689 97.4536 151.694L96.9204 151.722C96.7707 151.729 96.62 151.745 96.4692 151.771L96.2026 151.815L95.936 151.859C95.6443 151.908 95.3525 151.886 95.0718 151.798L94.8052 151.715L94.5386 151.631C94.4581 151.606 94.3867 151.601 94.3179 151.61L94.0513 151.648L93.7847 151.686C93.5068 151.725 93.229 151.705 92.9595 151.629L92.6929 151.554L92.4927 151.497L92.2388 151.684L91.9722 151.88C91.6586 152.11 91.2613 152.231 90.8335 152.116L90.5669 152.045L90.3003 151.973C90.1597 151.935 90.0203 151.91 89.8833 151.896L89.6167 151.871L89.3501 151.845C89.1751 151.828 88.9997 151.813 88.8247 151.798L88.5581 151.774L88.2915 151.752C88.1963 151.744 88.0987 151.752 87.9966 151.778L87.73 151.847L87.4634 151.916C87.2615 151.968 87.0575 152.009 86.854 152.039L86.3208 152.117C86.0558 152.156 85.7901 152.145 85.5288 152.086L85.2622 152.026L84.9956 151.966C84.7955 151.921 84.5954 151.866 84.397 151.801L84.1304 151.713L83.8638 151.626C83.8486 151.621 83.8401 151.621 83.8364 151.621C83.8326 151.621 83.8219 151.622 83.8032 151.629L83.5366 151.729L83.27 151.831C83.0123 151.929 82.7422 151.978 82.4663 151.971L81.9331 151.957C81.7516 151.952 81.5697 151.945 81.3882 151.938L81.1216 151.927L80.855 151.915C80.7286 151.91 80.6006 151.917 80.4722 151.939L79.939 152.031C79.7148 152.07 79.4883 152.085 79.2622 152.078L78.729 152.061C78.4691 152.052 78.2144 152 77.9692 151.908L77.7026 151.808L77.436 151.708C77.4283 151.705 77.4229 151.705 77.4204 151.704C77.419 151.704 77.4179 151.703 77.4175 151.703C77.4171 151.703 77.4158 151.704 77.4146 151.704C77.4122 151.705 77.4064 151.705 77.3989 151.708L77.1323 151.808L76.8657 151.906C76.5507 152.023 76.2179 152.04 75.8911 151.947L75.3579 151.797C75.2169 151.757 75.0772 151.729 74.9399 151.714L74.4067 151.655C74.3105 151.645 74.2129 151.65 74.1118 151.674L73.5786 151.797C73.3694 151.845 73.1582 151.879 72.9468 151.897L72.6792 151.92L72.4126 151.943C72.1278 151.968 71.8475 151.928 71.5796 151.833L71.0464 151.644C70.9673 151.615 70.9004 151.61 70.8384 151.617L70.5718 151.65L70.3052 151.683C70.1019 151.708 69.8977 151.722 69.6938 151.725L69.4272 151.728L69.1606 151.731C68.914 151.735 68.6696 151.701 68.4302 151.636L68.1636 151.562L67.9282 151.497C67.9274 151.498 67.9262 151.499 67.9253 151.5L67.3921 151.83C67.1263 151.994 66.8264 152.099 66.5024 152.107L65.9692 152.121C65.6774 152.128 65.3959 152.066 65.1313 151.949L64.8647 151.832L64.6479 151.735L64.4194 151.857L64.1528 151.999C63.7617 152.207 63.329 152.202 62.9429 151.99L62.6763 151.844L62.4224 151.705L62.1909 151.788L61.9243 151.884C61.6731 151.973 61.412 152.02 61.146 152.018L60.8794 152.016L60.6128 152.013C60.399 152.011 60.1846 151.993 59.9722 151.959L59.7056 151.916L59.439 151.874C59.295 151.851 59.151 151.838 59.0083 151.836L58.7417 151.833L58.4751 151.829C58.2555 151.826 58.0363 151.804 57.8188 151.763L57.2856 151.661C57.147 151.635 57.0091 151.621 56.8726 151.618L56.3394 151.608C56.1499 151.605 55.9594 151.597 55.77 151.584L55.5034 151.566L55.2368 151.548C55.172 151.543 55.0988 151.553 55.0122 151.587L54.479 151.798C54.2727 151.879 54.0634 151.946 53.853 151.997L53.5864 152.062L53.3198 152.127C53.0274 152.198 52.7299 152.195 52.439 152.119L51.9058 151.98C51.7315 151.935 51.5566 151.89 51.3823 151.848L51.1157 151.783L50.8491 151.718C50.7765 151.7 50.708 151.699 50.6372 151.715L50.104 151.832C49.8505 151.888 49.5929 151.9 49.3354 151.87L49.0679 151.839L48.8013 151.808C48.7463 151.801 48.6844 151.806 48.6079 151.836L48.0747 152.043C47.7236 152.179 47.3552 152.171 47.0103 152.026L46.7437 151.915L46.4771 151.803C46.3233 151.738 46.1706 151.684 46.02 151.641L45.4868 151.486C45.4301 151.47 45.3809 151.469 45.3276 151.482L45.061 151.551L44.7935 151.619C44.5717 151.676 44.3466 151.71 44.1206 151.722L43.854 151.734L43.5874 151.748C43.4333 151.756 43.2783 151.772 43.1235 151.795L42.8569 151.835L42.5903 151.874C42.3314 151.913 42.0709 151.906 41.814 151.855L41.2808 151.75C41.1632 151.727 41.0466 151.72 40.9321 151.728L40.3989 151.763C40.1895 151.777 39.9794 151.777 39.77 151.763L39.5034 151.745L39.2368 151.727C39.1189 151.719 38.9998 151.725 38.8794 151.747L38.3462 151.845C38.1258 151.885 37.9027 151.905 37.6802 151.903L37.4136 151.901L37.147 151.9C36.9601 151.899 36.7723 151.894 36.5854 151.886L36.3188 151.873L36.0522 151.861C35.8438 151.852 35.6354 151.828 35.4282 151.792L34.895 151.698C34.7697 151.676 34.645 151.668 34.522 151.675L34.2554 151.689L33.9888 151.703C33.9129 151.707 33.8247 151.728 33.7222 151.776L33.189 152.028C32.7704 152.226 32.3329 152.173 31.9673 151.938L31.7007 151.768L31.4907 151.632L31.3081 151.714L31.0415 151.833C30.7202 151.976 30.37 152.009 30.0229 151.91L29.4897 151.758C29.3127 151.707 29.1355 151.656 28.9585 151.606L28.6919 151.531L28.5024 151.478L28.2524 151.671L27.9858 151.877C27.7101 152.09 27.3696 152.237 26.9819 152.217L26.7144 152.202L26.4478 152.188C26.1414 152.172 25.8552 152.076 25.5952 151.925L25.062 151.616C25.0328 151.599 25.0161 151.595 25.0122 151.594H25.0103L24.4771 151.689C24.2322 151.733 23.9846 151.742 23.7378 151.714L23.4712 151.683L23.2046 151.652C23.1142 151.642 23.0218 151.648 22.9253 151.672L22.3921 151.807C22.1322 151.872 21.8661 151.889 21.6001 151.857L21.0669 151.793C20.8513 151.767 20.6365 151.724 20.4243 151.664L20.1577 151.588L19.8911 151.513C19.8075 151.489 19.731 151.485 19.6558 151.496L19.3892 151.535L19.1226 151.575C19.0151 151.591 18.8996 151.623 18.7769 151.679L18.2437 151.919C17.8966 152.075 17.5204 152.09 17.1606 151.95L16.6274 151.743C16.5689 151.72 16.5278 151.72 16.4897 151.728L15.9565 151.833C15.6251 151.899 15.2986 151.854 14.9976 151.721L14.731 151.603L14.4644 151.485C14.4196 151.466 14.3998 151.469 14.3833 151.473L13.8501 151.6C13.6226 151.654 13.3915 151.683 13.1597 151.686L12.8931 151.689L12.6265 151.692C12.5512 151.693 12.4654 151.709 12.3667 151.752L11.8335 151.982C11.5522 152.104 11.2503 152.157 10.9399 152.123L10.6733 152.093L10.4067 152.063C10.1186 152.032 9.84732 151.935 9.59717 151.791L9.33057 151.638L9.19385 151.559L9.03271 151.675L8.76611 151.866C8.47437 152.075 8.1157 152.202 7.71924 152.146L7.18604 152.072C7.06816 152.056 6.95082 152.055 6.8335 152.068L6.56689 152.099L6.30029 152.13C5.98952 152.166 5.68694 152.114 5.40479 151.993L4.87158 151.765C4.85022 151.755 4.83788 151.754 4.83447 151.754C4.83169 151.754 4.82567 151.754 4.81494 151.757L4.54834 151.834L4.28174 151.91C4.17416 151.941 4.0397 151.974 3.90381 151.979C3.83575 151.982 3.72947 151.98 3.61182 151.945C3.4895 151.91 3.31219 151.826 3.18506 151.637L3.09912 151.508C2.95756 151.297 2.94741 151.06 3.00244 150.873C3.04877 150.716 3.13537 150.608 3.18408 150.554C3.28347 150.443 3.40664 150.358 3.49658 150.302L3.72412 150.159L3.95264 150.016C4.23408 149.839 4.54943 149.763 4.87158 149.771L5.16553 149.779H5.20166L5.2124 149.743L5.29248 149.459C5.40091 149.073 5.65144 148.777 5.99658 148.594L6.26904 148.449L6.41846 148.369L6.41455 148.24L6.40381 147.952C6.39519 147.726 6.40324 147.505 6.4292 147.291L6.4917 146.77C6.52619 146.485 6.62539 146.219 6.77197 145.977L6.92334 145.726L7.07471 145.476C7.10605 145.424 7.10839 145.393 7.10693 145.371L7.08838 145.101L7.06982 144.831C7.0576 144.652 7.04476 144.474 7.03174 144.297L6.99268 143.762C6.97642 143.541 6.97977 143.318 7.00342 143.098L7.03271 142.829L7.06104 142.562C7.07726 142.41 7.08481 142.259 7.0835 142.108L7.08154 141.841L7.07861 141.573C7.07679 141.367 7.08779 141.161 7.10986 140.954L7.13818 140.684L7.16553 140.428C7.16245 140.421 7.1569 140.409 7.14404 140.392L6.95361 140.138L6.76416 139.884C6.50683 139.54 6.41862 139.112 6.57764 138.682L6.6792 138.406L6.78174 138.131C6.82535 138.013 6.84488 137.906 6.84814 137.81L6.85693 137.541L6.8667 137.271C6.86893 137.203 6.85623 137.132 6.82178 137.053L6.70947 136.794L6.59717 136.536C6.49346 136.298 6.42761 136.048 6.40479 135.791L6.38135 135.525L6.35791 135.259C6.33676 135.02 6.34671 134.78 6.38721 134.542L6.479 134.005C6.51072 133.819 6.54529 133.634 6.58252 133.452L6.63623 133.189L6.68994 132.928C6.70063 132.875 6.6999 132.818 6.67822 132.747L6.51416 132.21C6.45331 132.011 6.40098 131.808 6.35791 131.604L6.29932 131.328L6.2417 131.052C6.17905 130.754 6.1895 130.452 6.27979 130.159L6.43994 129.64C6.49963 129.446 6.56912 129.255 6.646 129.067L6.74854 128.814L6.85205 128.562C6.90594 128.431 6.94742 128.298 6.97705 128.165L7.03564 127.905L7.09326 127.646C7.11565 127.545 7.1241 127.435 7.11475 127.314L7.09229 127.034L7.0708 126.754C7.04202 126.384 7.15183 126.038 7.37646 125.751L7.73389 125.294C7.78582 125.227 7.80759 125.171 7.81592 125.122L7.85986 124.857L7.90381 124.594C7.92108 124.49 7.92441 124.375 7.90869 124.246L7.83838 123.672C7.79038 123.28 7.9032 122.912 8.15576 122.614L8.34619 122.391L8.51904 122.186L8.48389 121.928L8.44385 121.642C8.3996 121.323 8.4409 121.005 8.58154 120.708L8.69775 120.464L8.81396 120.219C8.90456 120.028 9.00865 119.84 9.12549 119.658L9.43018 119.184C9.45279 119.148 9.45814 119.123 9.45654 119.09L9.44287 118.812L9.42822 118.536C9.41812 118.339 9.41309 118.144 9.41357 117.95L9.41553 117.409C9.41639 117.082 9.51447 116.778 9.68896 116.51L9.84717 116.268L10.0044 116.025C10.0265 115.991 10.0262 115.977 10.0249 115.964L9.97217 115.417C9.94662 115.148 9.97104 114.881 10.0454 114.621L10.1196 114.361L10.1938 114.103C10.2196 114.013 10.2289 113.921 10.2212 113.827L10.1763 113.288C10.1618 113.111 10.1465 112.934 10.1304 112.759L10.106 112.491L10.0815 112.225C10.0555 111.941 10.0924 111.66 10.187 111.393L10.3726 110.869C10.4211 110.732 10.4568 110.594 10.48 110.457L10.5259 110.19L10.5708 109.924C10.5994 109.755 10.625 109.585 10.647 109.415L10.6812 109.146L10.7153 108.88C10.714 108.875 10.7089 108.859 10.6909 108.832L10.3452 108.312C10.1126 107.963 10.046 107.545 10.2026 107.132L10.4116 106.583C10.4431 106.5 10.4463 106.438 10.4399 106.39L10.4058 106.125L10.3706 105.86C10.3602 105.782 10.333 105.696 10.2798 105.603L10.1372 105.352L9.99561 105.101C9.83506 104.817 9.75869 104.502 9.78369 104.172L9.8042 103.899L9.82471 103.626C9.83773 103.454 9.84668 103.283 9.85205 103.113L9.86084 102.843L9.86963 102.573C9.86996 102.563 9.87077 102.537 9.8335 102.483L9.66162 102.235L9.48975 101.988C9.23081 101.615 9.19547 101.176 9.37256 100.769L9.49463 100.486L9.61768 100.203C9.61948 100.199 9.62051 100.194 9.62158 100.191L9.52686 99.9541L9.42334 99.6963C9.29772 99.3831 9.27745 99.0525 9.35889 98.7275L9.42822 98.4531L9.49658 98.1797C9.52801 98.0545 9.5415 97.9364 9.53955 97.8252L9.53467 97.5586L9.52979 97.293C9.528 97.1938 9.51055 97.0921 9.47412 96.9873L9.29248 96.4658C9.20174 96.2053 9.16279 95.9339 9.18018 95.6582L9.19678 95.3906L9.21436 95.123C9.21621 95.0933 9.21171 95.0497 9.17432 94.9814L9.03174 94.7207L8.88818 94.46C8.73789 94.1858 8.65667 93.8825 8.66943 93.5615L8.68018 93.293L8.69092 93.0254C8.69702 92.8732 8.69492 92.7206 8.68408 92.5693L8.66455 92.3027L8.64502 92.0352C8.61913 91.6726 8.73201 91.3411 8.9165 91.0586L9.09326 90.7891L9.20361 90.6182L9.11572 90.4688L8.95947 90.2041C8.73789 89.8279 8.71356 89.3954 8.91357 88.9941L9.04639 88.7266L9.18018 88.46C9.20803 88.404 9.20486 88.3783 9.20264 88.3652L9.11084 87.832C9.08465 87.68 9.04934 87.5262 9.00537 87.3711L8.9292 87.1035L8.854 86.835C8.74867 86.4633 8.80348 86.0954 8.97998 85.7705L9.26709 85.2432C9.30206 85.1786 9.30219 85.1432 9.30029 85.124L9.27295 84.8574L9.24658 84.5908C9.23356 84.4616 9.20662 84.3277 9.16455 84.1895L9.08252 83.9189L8.99951 83.6484C8.92685 83.4098 8.88595 83.1655 8.88037 82.9189L8.86865 82.3838C8.8637 82.1622 8.87911 81.9409 8.91455 81.7217L8.95752 81.457L9.00049 81.1914C9.04317 80.9278 9.13394 80.6763 9.26318 80.4404L9.40381 80.1836L9.54443 79.9258C9.54922 79.917 9.55203 79.9105 9.55322 79.9072L9.5542 79.9043C9.55403 79.9034 9.55356 79.9018 9.55322 79.9004L9.48975 79.6279L9.42529 79.3564C9.37286 79.1326 9.34271 78.907 9.33447 78.6816L9.32471 78.416L9.31494 78.1494C9.31049 78.0279 9.29167 77.903 9.25732 77.7754L9.18506 77.5088L9.13135 77.3105L9.271 77.5195ZM60.2515 15.6084C60.6233 15.5907 60.9557 15.721 61.2329 15.9199L61.4995 16.1104L61.7339 16.2793L61.9194 16.2148L62.186 16.123C62.5161 16.009 62.86 16.0099 63.189 16.126L63.4556 16.2197L63.6626 16.2939L63.9048 16.1406L64.1714 15.9717L64.311 15.8945C64.4566 15.8247 64.6212 15.779 64.8003 15.7744C64.9802 15.7699 65.1481 15.8077 65.2983 15.8721L65.4429 15.9443L65.9761 16.2549C66.0083 16.2736 66.0285 16.2794 66.0366 16.2812C66.043 16.2826 66.0471 16.2827 66.0503 16.2822L66.3169 16.2441L66.5835 16.2051C66.7316 16.1836 66.8815 16.1523 67.0317 16.1113L67.2983 16.0391L67.5649 15.9658C67.8676 15.8834 68.1774 15.8854 68.479 15.9707L68.7456 16.0459L69.0122 16.1221C69.1657 16.1655 69.3186 16.2 69.4702 16.2256L70.0034 16.3154C70.0772 16.3279 70.1515 16.3245 70.2319 16.3027L70.7651 16.1582C70.9964 16.0954 71.232 16.06 71.4692 16.0547L72.0024 16.043C72.1611 16.0395 72.321 16.0298 72.48 16.0137L73.0132 15.959C73.2608 15.9338 73.5086 15.9459 73.7534 15.9932L74.02 16.0449L74.2866 16.0957C74.3367 16.1053 74.3884 16.1032 74.4526 16.0811L74.7192 15.9893L74.9858 15.8965C75.2898 15.7914 75.6084 15.7743 75.9233 15.8525L76.4565 15.9854C76.4862 15.9927 76.5153 15.9935 76.562 15.9756L76.8286 15.8721L77.0952 15.7695C77.4587 15.6292 77.8386 15.6477 78.186 15.8105L78.4507 15.9346L78.6167 16.0127C78.6913 15.997 78.7757 15.9821 78.8589 15.9717L79.1274 15.9375L79.396 15.9043C79.7039 15.8657 80.0056 15.911 80.2886 16.0293L80.812 16.248C80.8264 16.2541 80.8336 16.2548 80.8354 16.2549C80.8376 16.255 80.8462 16.2551 80.8628 16.25L81.1362 16.166L81.4087 16.0811C81.6426 16.0089 81.8818 15.9649 82.1226 15.9512L82.3931 15.9355L82.6636 15.9209C82.9749 15.9032 83.2742 15.9697 83.5493 16.1084L84.0571 16.3643C84.1205 16.3962 84.1734 16.4051 84.2251 16.4023L84.4966 16.3877L84.769 16.373C85.0128 16.3599 85.255 16.379 85.4927 16.4307L85.7544 16.4873L86.0161 16.5449C86.1615 16.5765 86.3096 16.5987 86.4595 16.6123L86.9966 16.6611C87.2728 16.6861 87.5364 16.766 87.7808 16.8965L88.0239 17.0264L88.2681 17.1572C88.3899 17.2223 88.5124 17.2729 88.6353 17.3096L88.8911 17.3857L89.146 17.4619C89.2577 17.4952 89.3766 17.5144 89.5024 17.5195L89.7769 17.5312L90.0522 17.542C90.269 17.5507 90.4841 17.5748 90.6958 17.6143L91.229 17.7139C91.4739 17.7596 91.7085 17.8395 91.9302 17.9531L92.1714 18.0762L92.4126 18.2002C92.5324 18.2615 92.6564 18.3106 92.7847 18.3477L93.0444 18.4219L93.3032 18.4971C93.5408 18.5656 93.7657 18.6666 93.9751 18.7988L94.2046 18.9443L94.4341 19.0889C94.5515 19.163 94.6731 19.2259 94.7983 19.2764L95.0474 19.376L95.2954 19.4766C95.47 19.5468 95.6433 19.6208 95.8149 19.6982L96.0601 19.8076L96.3042 19.918C96.5775 20.0413 96.8072 20.2273 96.9927 20.458L97.1743 20.6846L97.3569 20.9111C97.4263 20.9974 97.4953 21.0536 97.562 21.0908L97.7944 21.2197L98.0259 21.3486C98.124 21.4033 98.233 21.4473 98.355 21.4785L98.6235 21.5469L98.8921 21.6162C99.2349 21.7039 99.5191 21.9007 99.7261 22.1816L99.896 22.4111L100.065 22.6406C100.106 22.6959 100.145 22.7232 100.185 22.7402L100.683 22.9492C100.928 23.052 101.15 23.1955 101.342 23.3789L101.536 23.5635L101.73 23.749C101.811 23.8263 101.901 23.8907 102.001 23.9434L102.24 24.0684L102.477 24.1934C102.717 24.3195 102.927 24.4882 103.102 24.6953L103.276 24.9014L103.451 25.1084C103.551 25.2274 103.656 25.3394 103.765 25.4443L103.957 25.6279L104.147 25.8115C104.161 25.8246 104.195 25.8522 104.286 25.8701L104.588 25.9297L104.891 25.9902C105.213 26.054 105.514 26.1986 105.753 26.4463L105.94 26.6387L106.126 26.832C106.217 26.926 106.319 27.011 106.43 27.0879L106.879 27.3984C107.061 27.5241 107.232 27.6637 107.389 27.8174L107.583 28.0059L107.775 28.1943C107.92 28.3363 108.058 28.4858 108.189 28.6416L108.535 29.0537C108.759 29.322 108.871 29.6435 108.903 29.9717L108.934 30.2949L108.966 30.6182C108.97 30.659 108.977 30.6811 108.98 30.6895L109.167 30.873L109.359 31.0586C109.473 31.1694 109.592 31.2778 109.718 31.3828L109.927 31.5576L110.137 31.7324C110.333 31.896 110.5 32.0867 110.634 32.3027L110.917 32.7559C111.022 32.9232 111.119 33.0949 111.209 33.2705L111.333 33.5088L111.455 33.7461C111.496 33.826 111.552 33.8992 111.626 33.9668L112.037 34.3359C112.185 34.4702 112.329 34.6099 112.467 34.7539L112.659 34.9521L112.849 35.1504C113.07 35.3801 113.215 35.6581 113.281 35.9678L113.339 36.2422L113.398 36.5176C113.403 36.5422 113.411 36.5595 113.441 36.585L113.88 36.958C114.139 37.1783 114.318 37.4649 114.393 37.8027L114.454 38.0732L114.513 38.3428C114.543 38.4785 114.585 38.6059 114.637 38.7246L114.854 39.2148C114.958 39.4513 115.021 39.7015 115.044 39.96L115.071 40.2383L115.096 40.5176C115.1 40.5599 115.113 40.5889 115.14 40.6221L115.498 41.0537C115.746 41.3529 115.845 41.7156 115.807 42.0898L115.777 42.3838L115.747 42.6768C115.737 42.7713 115.75 42.8346 115.768 42.8799L115.867 43.126L115.964 43.3721C115.99 43.436 116.037 43.5108 116.12 43.5947L116.333 43.8086L116.544 44.0225C116.854 44.3349 116.976 44.7485 116.883 45.1797L116.758 45.7676C116.736 45.8723 116.74 45.946 116.753 45.999L116.816 46.2559L116.879 46.5117C116.883 46.5254 116.898 46.5726 116.977 46.6484L117.209 46.8711L117.443 47.0947C117.607 47.2521 117.747 47.4669 117.791 47.7383C117.833 48.0069 117.768 48.252 117.669 48.4492L117.52 48.748L117.37 49.0469C117.367 49.0521 117.365 49.0574 117.363 49.0615L117.446 49.2695L117.545 49.5225C117.633 49.7437 117.693 49.9724 117.724 50.207L117.759 50.4707L117.793 50.7334C117.823 50.956 117.829 51.1813 117.814 51.4062L117.796 51.6738L117.778 51.9424C117.771 52.0506 117.78 52.1566 117.804 52.2617L117.865 52.5234L117.926 52.7842C117.981 53.0172 118.004 53.2545 117.998 53.4932L117.99 53.7588L117.983 54.0244C117.98 54.1418 117.99 54.2611 118.017 54.3818L118.076 54.6465L118.134 54.9121C118.17 55.0754 118.211 55.24 118.257 55.4053L118.333 55.6729L118.407 55.9395C118.495 56.2545 118.487 56.5762 118.385 56.8857L118.298 57.1523L118.21 57.417C118.211 57.4199 118.214 57.4248 118.216 57.4307L118.341 57.6973L118.465 57.9639C118.606 58.2651 118.658 58.5946 118.593 58.9316L118.542 59.1982L118.491 59.4648C118.451 59.6716 118.398 59.8778 118.333 60.082L118.248 60.3486L118.162 60.6152C118.146 60.6635 118.134 60.7116 118.124 60.7588C118.007 60.7221 117.887 60.6978 117.764 60.6855L117.176 60.627C117.053 60.6147 116.965 60.5872 116.902 60.5557L116.674 60.4414L116.447 60.3262C116.343 60.2739 116.233 60.2045 116.119 60.1143L115.897 59.9385L115.674 59.7627C115.466 59.5982 115.236 59.47 114.987 59.3809L114.723 59.2871L114.459 59.1924C114.103 59.065 113.736 59.0882 113.4 59.2363L113.13 59.3555L112.86 59.4736C112.789 59.5046 112.737 59.5097 112.689 59.5039L112.415 59.4707L112.139 59.4365C112.077 59.4289 112.015 59.4256 111.955 59.4258C111.938 59.1815 111.88 58.944 111.771 58.7207L111.654 58.4805L111.537 58.2412C111.499 58.1649 111.474 58.0754 111.464 57.9678L111.44 57.6855L111.415 57.4023L111.39 57.2383C111.309 56.8692 111.073 56.5867 110.762 56.4062L110.487 56.2461L110.258 56.1143L110.243 55.9082L110.22 55.6182C110.192 55.2496 110.034 54.9179 109.751 54.667L109.542 54.4805L109.333 54.2949C109.311 54.2754 109.3 54.2586 109.292 54.2227L109.236 53.9443L109.18 53.666C109.108 53.3073 108.914 53.0038 108.619 52.7871L108.39 52.6191L108.163 52.4521C108.065 52.3803 107.989 52.3033 107.93 52.2236L107.773 52.0098L107.617 51.7969C107.577 51.7422 107.54 51.6687 107.517 51.5645L107.39 50.9941L107.351 50.8506C107.242 50.5245 107.02 50.2624 106.707 50.0977L106.45 49.9629L106.192 49.8271C106.119 49.7887 106.079 49.7487 106.054 49.71L105.763 49.2607C105.681 49.1349 105.606 49.0014 105.536 48.8604L105.413 48.6133L105.291 48.3662C105.182 48.1476 105.047 47.9458 104.887 47.7637L104.71 47.5625L104.534 47.3604C104.435 47.2485 104.343 47.1292 104.257 47.0029L104.104 46.7773L103.952 46.5527C103.75 46.2553 103.462 46.0597 103.133 45.958L102.847 45.8691L102.561 45.7812C102.423 45.7385 102.309 45.6856 102.215 45.627L101.988 45.4844L101.76 45.3408C101.758 45.3391 101.755 45.337 101.751 45.332C101.747 45.3257 101.736 45.3086 101.723 45.2734L101.621 44.9834L101.518 44.6943C101.396 44.3479 101.163 44.0536 100.809 43.8818L100.563 43.7617L100.316 43.6416C100.202 43.5861 100.099 43.5198 100.007 43.4434L99.8022 43.2725L99.5962 43.1016C99.4533 42.9826 99.3085 42.8657 99.1626 42.752L98.9526 42.5879L98.7427 42.4248C98.6041 42.3168 98.4557 42.223 98.2993 42.1426C98.547 42.3659 98.7028 42.6502 98.7788 42.9629L98.8491 43.2529L98.9146 43.5195L99.1421 43.6406L99.3979 43.7754C99.6428 43.9044 99.8608 44.0746 100.04 44.2861L100.212 44.4902L100.385 44.6953C100.59 44.9384 100.714 45.2254 100.765 45.5322L100.812 45.8203L100.86 46.1084L100.861 46.1113L101.086 46.2783L101.316 46.4473C101.453 46.5482 101.648 46.7043 101.774 46.9141L101.823 47.0078L101.875 47.123L101.894 47.1631L101.908 47.2051L101.955 47.3545L101.579 47.4717L101.334 47.6484L100.757 48.0645L100.699 47.9834L100.632 47.8906L100.597 47.7803L100.566 47.6768L100.558 47.6592C100.554 47.6552 100.548 47.6505 100.542 47.6455C100.524 47.6309 100.501 47.6133 100.473 47.5928L100.014 47.2549C99.7078 47.0293 99.5177 46.7104 99.4565 46.3408L99.4097 46.0527L99.3618 45.7637C99.349 45.687 99.3245 45.6432 99.2993 45.6133L99.1255 45.4082L98.9526 45.2031C98.9008 45.1419 98.8312 45.0845 98.7358 45.0342L98.2241 44.7646C97.8668 44.5764 97.6309 44.2621 97.5376 43.8779L97.4673 43.5879L97.397 43.2988C97.3807 43.2319 97.3591 43.2087 97.3462 43.1973L97.145 43.0195L96.9429 42.8418C96.8443 42.7551 96.7353 42.6773 96.6167 42.6084L96.1421 42.333C95.9091 42.1978 95.7053 42.0233 95.5376 41.8125L95.2036 41.3926C95.1307 41.301 95.0479 41.2209 94.9556 41.1523L94.7417 40.9932L94.5278 40.835C94.3934 40.7352 94.2567 40.6378 94.1187 40.5439L93.6792 40.2451C93.4124 40.0636 93.2183 39.8147 93.0864 39.5322L92.9575 39.2568L92.8716 39.0723L92.6685 39.0527L92.3657 39.0225C91.946 38.9812 91.5903 38.7644 91.3687 38.3975L91.2144 38.1426L91.0786 37.916L90.8394 37.8809L90.5552 37.8379C90.3005 37.7995 90.0555 37.7273 89.8267 37.6162L89.5874 37.5L89.3491 37.3838C89.185 37.3041 89.0209 37.2223 88.8589 37.1387L88.6226 37.0166L88.3872 36.8955C88.1854 36.7914 87.9946 36.6654 87.8159 36.5205L87.6021 36.3477L87.3882 36.1738C87.3258 36.1233 87.2609 36.0917 87.1899 36.0742L86.9282 36.0098L86.6655 35.9453C86.5068 35.9063 86.3588 35.846 86.2222 35.7666L86.1167 35.7695L85.9243 35.5693L85.7192 35.3564C85.6184 35.2519 85.5057 35.1644 85.3833 35.0967L85.1929 35.1064L84.9048 35.1191C84.6269 35.1314 84.3617 35.0704 84.1226 34.9404C83.9757 34.9425 83.8363 34.9343 83.7046 34.9141L83.1714 34.832C83.0354 34.811 82.9038 34.778 82.7778 34.7344L82.5269 34.6475L82.2769 34.5605C82.1613 34.5205 82.0468 34.4695 81.9331 34.4102L81.8081 34.4219C81.5045 34.4488 81.2056 34.4009 80.9253 34.2754L80.6772 34.1641L80.4282 34.0527C80.405 34.0424 80.3801 34.0373 80.3325 34.0469L79.7739 34.1602C79.3769 34.2407 78.9988 34.1425 78.686 33.9102L78.4438 33.7295L78.2007 33.5498C78.1274 33.4954 78.0742 33.4799 78.0366 33.4756L77.5034 33.415C77.3001 33.3922 77.0972 33.3584 76.896 33.3135L76.6304 33.2549L76.3872 33.1992C76.3803 33.202 76.3681 33.207 76.3521 33.2168L76.0776 33.3857L75.8022 33.5537C75.6206 33.6651 75.4021 33.7428 75.1567 33.7422C74.9449 33.7416 74.7541 33.6799 74.5884 33.5889C74.3299 33.6155 74.0721 33.5959 73.8198 33.5312L73.7202 33.5049L73.6841 33.5283C73.4332 33.6833 73.1563 33.7896 72.8579 33.8203L72.5952 33.8467L72.3325 33.874C72.0187 33.9061 71.7154 33.8458 71.4351 33.7236L71.1567 33.6025L70.9771 33.5225L70.8198 33.6396L70.5757 33.8203C70.2287 34.0773 69.8116 34.1042 69.4458 34.0576L69.4429 34.0732L69.396 34.0625L69.394 34.0684L69.3677 34.0557L69.145 34.0059L68.7651 33.9326L68.7681 33.917C68.4812 33.8425 68.2083 33.7454 67.9946 33.6035L67.7759 33.459L67.5581 33.3135C67.3479 33.1737 67.1606 33.0004 66.9966 32.8018L66.8091 32.5732L66.6216 32.3457C66.5691 32.2822 66.5226 32.254 66.4829 32.2393L66.23 32.1465L65.9761 32.0527C65.8855 32.0194 65.7868 32.0007 65.6782 31.999L65.3989 31.9951L65.1196 31.9902C64.7662 31.9848 64.4454 31.8608 64.1763 31.6445L63.9458 31.46L63.8296 31.3672C63.8243 31.3683 63.8192 31.3699 63.814 31.3711L63.6304 31.457L63.3315 31.5947C63.2971 31.6105 63.2613 31.6228 63.2261 31.6357L63.0542 31.7441L62.7886 31.9102C62.6833 31.976 62.6025 32.0004 62.5454 32.0078L62.2808 32.042L62.0171 32.0752C61.9009 32.09 61.7832 32.09 61.6636 32.0752L61.396 32.043L61.1294 32.0098C60.9325 31.9853 60.7339 31.9683 60.5366 31.96L60.27 31.9492L60.0024 31.9375C59.7367 31.9264 59.4747 31.9641 59.2222 32.0479L58.9624 32.1338L58.7036 32.2197C58.5761 32.262 58.4491 32.2905 58.3237 32.3047L58.0601 32.334L57.7964 32.3643C57.6501 32.3808 57.5019 32.3883 57.354 32.3867L56.8208 32.3809C56.6704 32.3792 56.5157 32.3695 56.3589 32.3506L56.0864 32.3174L55.813 32.2842C55.6109 32.2598 55.4087 32.2439 55.2075 32.2373L54.6665 32.2197C54.3643 32.2099 54.0729 32.2761 53.8042 32.4102L53.5542 32.5352L53.3042 32.6592C53.3005 32.6587 53.2931 32.658 53.2837 32.6553L52.9976 32.5723L52.7114 32.4883C52.4254 32.405 52.1279 32.383 51.8306 32.4395L51.5669 32.4893L51.3032 32.54C51.1344 32.5722 50.9638 32.6022 50.7935 32.6299L50.2622 32.7158C50.0175 32.7556 49.7815 32.8303 49.5571 32.9375L49.063 33.1738C48.8603 33.2707 48.6643 33.3859 48.4771 33.5186L48.2437 33.6846L48.0093 33.8506C47.896 33.9308 47.7842 33.9915 47.6753 34.0352L47.4272 34.1348L47.1802 34.2334C47.0738 34.276 46.9617 34.3052 46.8442 34.3193L46.5767 34.3506L46.3091 34.3828C46.1216 34.4054 45.9342 34.4321 45.7485 34.4619L45.4829 34.5049L45.2183 34.5469C45.1435 34.5589 45.0664 34.567 44.9878 34.5732C44.8486 34.7184 44.7067 34.857 44.5601 34.9863L44.356 35.166L44.1519 35.3467C43.8981 35.5704 43.5933 35.695 43.2661 35.7314L42.9751 35.7637L42.6851 35.7959C42.575 35.8081 42.488 35.8368 42.4175 35.875L42.1812 36.0039L41.9438 36.1318C41.9153 36.1473 41.8799 36.1761 41.8413 36.2441L41.6948 36.502L41.5493 36.7607C41.417 36.9946 41.2516 37.2048 41.0513 37.3799L40.8521 37.5537L40.6519 37.7285C40.4543 37.9011 40.2297 38.0351 39.9849 38.1309L39.7271 38.2314L39.4702 38.333C39.2804 38.4073 39.0832 38.4746 38.8804 38.5361L38.6011 38.6211L38.3218 38.7051C38.2406 38.7297 38.1898 38.7643 38.1528 38.8018L37.9624 38.9951L37.772 39.1875C37.64 39.3215 37.5061 39.4538 37.3706 39.583L37.1753 39.7686L36.981 39.9551C36.9586 39.9764 36.9278 40.0163 36.9048 40.1035L36.7485 40.6953C36.6761 40.9705 36.5582 41.2293 36.3833 41.4551L36.0591 41.873C35.9375 42.0299 35.8089 42.1814 35.6733 42.3262L35.4927 42.5186L35.312 42.7119C35.1252 42.9113 34.9014 43.0682 34.6548 43.1895L34.3843 43.3232L34.1138 43.4561C34.1074 43.4592 34.1024 43.4618 34.0991 43.4639L34.0083 43.7139L33.9146 43.9746C33.8356 44.1916 33.7363 44.3986 33.6167 44.5928L33.3354 45.0479C33.2116 45.2489 33.0634 45.4346 32.894 45.6045L32.6958 45.8047L32.4966 46.0039C32.4858 46.0147 32.4815 46.0215 32.48 46.0244C32.4787 46.0272 32.4751 46.0367 32.4731 46.0557L32.4448 46.3408L32.4165 46.625C32.3917 46.8736 32.3364 47.1152 32.2476 47.3447L32.0542 47.8428C31.9842 48.0234 31.9072 48.2024 31.8247 48.3789L31.7114 48.623L31.5972 48.8672C31.5623 48.942 31.5431 49.0216 31.5396 49.1104L31.5181 49.6572C31.5049 49.9969 31.384 50.3059 31.1851 50.5693L31.0063 50.8057L30.8276 51.043C30.795 51.0863 30.7944 51.1069 30.7944 51.1201L30.7964 51.3945L30.7974 51.6689C30.7985 51.8315 30.8071 51.9944 30.8218 52.1553L30.8706 52.6982C30.8923 52.9362 30.8854 53.1747 30.8491 53.4102L30.8081 53.6777L30.7671 53.9443C30.7553 54.0211 30.7597 54.097 30.7817 54.1768L30.855 54.4414L30.9282 54.7051C30.999 54.9603 31.0239 55.2232 31.0034 55.4873L30.9829 55.7598L30.9614 56.0322C30.9495 56.1858 30.9465 56.3399 30.9526 56.4922L30.9634 56.7627L30.9741 57.0342C30.9812 57.2086 30.9912 57.3818 31.0024 57.5518L31.02 57.8174L31.0376 58.082C31.0441 58.1799 31.0659 58.279 31.1069 58.3799L31.314 58.8877C31.4033 59.1073 31.466 59.3354 31.5015 59.5684L31.5425 59.833L31.5825 60.0986C31.6131 60.2998 31.633 60.5026 31.6421 60.7051L31.6538 60.9717L31.6655 61.2373C31.6725 61.3927 31.6874 61.548 31.7085 61.7012L31.7446 61.9648L31.7808 62.2275C31.8077 62.4234 31.8259 62.6215 31.8354 62.8193L31.8608 63.3506C31.8654 63.4442 31.8863 63.5448 31.9292 63.6533L32.1382 64.1826C32.2976 64.5856 32.2401 64.994 32.0347 65.3408L31.8745 65.6104L31.731 65.8516L31.813 66.0664L31.9146 66.334C31.9939 66.5413 32.059 66.7526 32.1089 66.9658L32.1724 67.2373L32.2358 67.5098C32.3122 67.8366 32.2844 68.1663 32.1567 68.4756L32.0493 68.7354L31.9419 68.9961C31.89 69.1219 31.8551 69.2445 31.8354 69.3633L31.7925 69.627L31.7485 69.8896C31.7221 70.0499 31.7006 70.2137 31.6841 70.3779L31.6567 70.6465L31.6304 70.915C31.6082 71.1346 31.5668 71.3518 31.5073 71.5635L31.3628 72.0791C31.2997 72.3036 31.2109 72.5194 31.0981 72.7246L30.9673 72.9629L30.8364 73.2002C30.7709 73.3193 30.7176 73.4429 30.6763 73.5703L30.5933 73.8271L30.5103 74.083C30.4329 74.3217 30.3211 74.5452 30.1763 74.75L30.021 74.9697L29.8647 75.1895C29.7664 75.3284 29.6691 75.4733 29.5718 75.6221L29.2651 76.0889C29.0395 76.4337 28.6948 76.6289 28.3042 76.6748L28.0083 76.71L27.7124 76.7441C27.5578 76.7623 27.4322 76.7921 27.3315 76.8271L27.0942 76.9092L26.8579 76.9912C26.7651 77.0235 26.656 77.077 26.5317 77.1592L26.2847 77.3232L26.0366 77.4863C25.9426 77.5485 25.8174 77.6251 25.6831 77.6719C25.6201 77.6937 25.4909 77.7328 25.3325 77.7197C25.1419 77.7038 24.8943 77.6057 24.7456 77.3525L24.7075 77.2881L24.6011 77.1055L24.6108 76.8955L24.6196 76.7119L25.2075 76.7393L24.8618 76.2002L24.9458 76.1465L26.104 75.4043L26.0864 75.7773C26.1858 75.728 26.2871 75.6843 26.3901 75.6484L26.6265 75.5664L26.8638 75.4834C27.0785 75.4087 27.3082 75.3601 27.5474 75.332L27.8433 75.2969L28.103 75.2666L28.228 75.0771L28.3813 74.8428C28.4878 74.6801 28.596 74.5217 28.7046 74.3682L29.0151 73.9287C29.077 73.8411 29.1246 73.7467 29.1577 73.6445L29.2407 73.3887L29.3228 73.1318C29.392 72.9183 29.4819 72.7119 29.5903 72.5146L29.8521 72.04C29.9132 71.9287 29.9602 71.8132 29.9937 71.6943L30.1382 71.1787C30.1752 71.047 30.2014 70.9108 30.2153 70.7725L30.2417 70.5039L30.269 70.2354C30.2886 70.0417 30.3138 69.8484 30.3452 69.6582L30.3892 69.3955L30.4321 69.1318C30.4704 68.9004 30.5364 68.6735 30.6274 68.4531L30.7349 68.1924L30.8423 67.9326C30.8575 67.8957 30.8592 67.869 30.8511 67.834L30.7241 67.2891C30.6893 67.1404 30.6432 66.9912 30.5864 66.8428L30.4839 66.5752L30.3823 66.3076C30.2287 65.906 30.2865 65.5005 30.4917 65.1543L30.6509 64.8848L30.7915 64.6465L30.7114 64.4414L30.6069 64.1768C30.5105 63.933 30.4525 63.6791 30.4399 63.4189L30.4272 63.1533L30.4146 62.8867C30.4071 62.731 30.3928 62.5748 30.3716 62.4209L30.2993 61.8955C30.2722 61.6987 30.2535 61.4998 30.2446 61.3008L30.2329 61.0342L30.2212 60.7686C30.2144 60.6168 30.1993 60.4641 30.1763 60.3125L30.1362 60.0469L30.0962 59.7822C30.0779 59.6623 30.0447 59.5422 29.9966 59.4238L29.7896 58.916C29.6931 58.6788 29.6346 58.4305 29.6177 58.1758L29.5825 57.6465C29.5704 57.464 29.5608 57.2783 29.5532 57.0918L29.5425 56.8203L29.5317 56.5498C29.5233 56.3411 29.5272 56.1309 29.5435 55.9219L29.5649 55.6494L29.5854 55.377C29.5931 55.2784 29.5837 55.1818 29.5571 55.0859L29.4839 54.8213L29.4106 54.5576C29.3353 54.2861 29.3179 54.0064 29.3608 53.7275L29.4028 53.4609L29.4438 53.1934C29.4623 53.0734 29.4658 52.9509 29.4546 52.8271L29.4302 52.5557L29.4048 52.2842C29.3865 52.0835 29.3769 51.8809 29.3755 51.6787L29.3716 51.1299C29.3693 50.7778 29.4877 50.4571 29.6929 50.1855L29.8716 49.9482L30.0503 49.7119C30.0894 49.6601 30.0962 49.6271 30.0972 49.6025L30.1079 49.3291L30.1177 49.0557C30.1284 48.7806 30.1925 48.5143 30.3091 48.2646L30.4224 48.0215L30.5366 47.7773C30.6057 47.6295 30.6697 47.4797 30.728 47.3291L30.9214 46.8311C30.9608 46.729 30.9885 46.6133 31.0015 46.4834L31.0581 45.915C31.0931 45.5651 31.2397 45.2507 31.4897 45L31.688 44.7998L31.8872 44.6006C31.9828 44.5047 32.0614 44.4052 32.1245 44.3027L32.2651 44.0742L32.4058 43.8467C32.473 43.7374 32.5305 43.6178 32.5776 43.4883L32.6724 43.2275L32.7671 42.9678L32.8218 42.8369C32.9641 42.5415 33.1988 42.3212 33.4868 42.1797L33.7573 42.0459L34.0278 41.9131C34.1416 41.8571 34.2198 41.797 34.2739 41.7393L34.4546 41.5469L34.6353 41.3535C34.7405 41.2412 34.8407 41.1238 34.9351 41.002L35.2593 40.584C35.3002 40.5311 35.3423 40.4518 35.3735 40.333L35.4517 40.0371L35.5288 39.7412C35.6096 39.4344 35.7619 39.1523 35.9995 38.9258L36.1948 38.7393L36.3892 38.5537C36.5138 38.4349 36.6378 38.3138 36.7593 38.1904L36.9487 37.9971L37.1392 37.8037C37.1955 37.7465 37.2556 37.6945 37.3179 37.6465C37.0464 37.6564 36.7812 37.7171 36.5347 37.8438L36.2974 37.9648L36.0601 38.0869C35.8677 38.1858 35.6834 38.3005 35.5083 38.4297L35.2905 38.5908L35.0737 38.751C34.9644 38.8317 34.8492 38.9007 34.73 38.958L34.4897 39.0732L34.2495 39.1895C34.051 39.2849 33.861 39.3978 33.6821 39.5273L33.4653 39.6846L33.2476 39.8428C33.1038 39.9469 32.9598 40.0507 32.8169 40.1533L32.6001 40.3086L32.3843 40.4639C32.2361 40.5702 32.0882 40.679 31.9419 40.7891L31.728 40.9492L31.5151 41.1104C31.3558 41.2303 31.2009 41.3574 31.0532 41.4912L30.856 41.6699L30.6685 41.8389C30.6596 41.8411 30.6396 41.8455 30.606 41.8457L29.9497 41.8496C29.7238 41.8509 29.4723 41.9086 29.2524 42.0762C29.0336 42.2433 28.9114 42.469 28.8491 42.6836L28.7563 43.0029L28.6646 43.3223C28.6537 43.3597 28.642 43.3796 28.6372 43.3877L28.4233 43.5234L28.1978 43.666C28.099 43.7283 27.9852 43.7822 27.856 43.8252L27.3149 44.0049C27.0706 44.0862 26.8425 44.2014 26.6353 44.3506L26.4155 44.5078L26.1968 44.665C25.9117 44.8705 25.7259 45.1554 25.6235 45.4736L25.436 46.0557C25.4124 46.1289 25.3875 46.1483 25.3794 46.1543L25.1655 46.3145L24.9507 46.4746C24.7938 46.5915 24.6407 46.7142 24.4937 46.8418L24.2935 47.0156L24.0923 47.1904C24.0279 47.2462 23.9413 47.2997 23.8247 47.3447L23.5474 47.4521L23.27 47.5586C22.9088 47.6979 22.6527 47.968 22.5308 48.3164L22.4868 48.4707L22.4204 48.7676L22.353 49.0654C22.339 49.1273 22.3217 49.1394 22.3188 49.1416L21.9009 49.4854C21.6884 49.66 21.5161 49.8718 21.3882 50.1152L21.1362 50.5938C21.1273 50.6107 21.1102 50.6368 21.0513 50.667L20.7866 50.8018L20.522 50.9375C20.2276 51.0884 19.9982 51.324 19.8687 51.6309L19.8198 51.7666L19.7368 52.0361L19.6538 52.3047C19.6453 52.3322 19.635 52.3498 19.604 52.3721L19.3706 52.5391L19.1382 52.7061C18.8704 52.8982 18.669 53.1572 18.5571 53.4727L18.4653 53.7314L18.3735 53.9912C18.3173 54.1497 18.2571 54.3048 18.1929 54.4551L18.0874 54.7021L17.981 54.9492C17.8868 55.1695 17.8212 55.4012 17.7827 55.6406L17.7378 55.918L17.6938 56.1943C17.6929 56.2003 17.6916 56.205 17.6909 56.207C17.6904 56.2084 17.6894 56.2102 17.689 56.2109C17.6884 56.2118 17.6868 56.2138 17.6851 56.2158C17.6825 56.2188 17.6777 56.2242 17.6704 56.2305L17.4497 56.418L17.23 56.6055C16.9692 56.8277 16.7893 57.1186 16.7202 57.4629L16.6128 58C16.5876 58.1257 16.5486 58.2422 16.4985 58.3506L16.2759 58.833C16.2179 58.9585 16.1484 59.0826 16.0669 59.2041L15.9956 59.3096L15.9097 59.2744L15.646 59.167L15.5073 59.1191C15.1818 59.0244 14.849 59.0579 14.5435 59.2002L14.272 59.3271L14.0015 59.4531C13.9673 59.4691 13.9499 59.4687 13.9233 59.4619L13.6392 59.3896L13.355 59.3164L13.1929 59.2852C12.8718 59.2439 12.5651 59.3278 12.3091 59.5186L12.186 59.623L11.9673 59.8301L11.7524 60.0342L11.1431 60.0029C10.6997 59.9803 10.3001 60.1686 10.0464 60.5488L9.88232 60.7949L9.71924 61.041C9.64899 61.1464 9.57973 61.2485 9.51318 61.3477L9.48486 61.1807C9.4423 60.9374 9.43429 60.6914 9.46143 60.4463L9.49072 60.1787L9.52002 59.9121C9.53948 59.7368 9.55873 59.561 9.57666 59.3857L9.604 59.1182L9.63135 58.8516C9.64739 58.6945 9.65633 58.5366 9.65869 58.3799L9.6665 57.8467C9.66834 57.722 9.65672 57.5956 9.63037 57.4678L9.57568 57.2012L9.52002 56.9346C9.4941 56.809 9.45239 56.6785 9.39307 56.543L9.27686 56.2754L9.15967 56.0088C8.9781 55.5943 9.03492 55.1666 9.26318 54.8086L9.43311 54.543L9.60205 54.2783C9.64799 54.2062 9.64629 54.1735 9.646 54.1689L9.6167 53.6377C9.61066 53.5279 9.58858 53.4088 9.54639 53.2803L9.45654 53.0059L9.36572 52.7314C9.25665 52.399 9.26083 52.0512 9.39014 51.7188L9.59131 51.2012C9.64173 51.0716 9.67704 50.9434 9.69873 50.8174L9.74365 50.5547L9.78955 50.291C9.81006 50.1713 9.81682 50.0471 9.80908 49.9189L9.77588 49.374C9.75601 49.0455 9.83576 48.7329 10.0005 48.4531L10.145 48.208L10.2886 47.9639C10.3524 47.8555 10.3959 47.7505 10.4214 47.6494L10.4858 47.3926L10.5503 47.1348C10.5737 47.0417 10.5833 46.9399 10.5747 46.8271L10.5317 46.2705C10.5038 45.9049 10.6112 45.5636 10.8306 45.2773L11.0054 45.0488L11.1812 44.8203C11.2488 44.7319 11.2894 44.6492 11.312 44.5723L11.3862 44.3184L11.4604 44.0654C11.5085 43.9015 11.5552 43.736 11.6001 43.5703L11.7388 43.0586C11.7785 42.9119 11.8109 42.7611 11.8364 42.6074L11.8804 42.3408L11.9243 42.0752C11.9672 41.8162 12.0547 41.5702 12.1841 41.3418L12.3159 41.1084L12.4487 40.875C12.5041 40.7773 12.545 40.6736 12.5718 40.5635L12.6987 40.04C12.7636 39.7732 12.8792 39.5263 13.0425 39.3057L13.2046 39.0879L13.3657 38.8701C13.3797 38.8512 13.3942 38.8231 13.396 38.7617L13.4048 38.4697L13.4126 38.1768C13.4206 37.8977 13.4777 37.6255 13.5913 37.3701L13.8101 36.8799C13.9269 36.6175 14.0982 36.3906 14.313 36.2021L14.5259 36.0156L14.7388 35.8281C14.7714 35.7994 14.7858 35.7742 14.7944 35.7383L14.8599 35.4668L14.9243 35.1943C15.0189 34.7998 15.2703 34.5025 15.6069 34.3184L16.1401 34.0273C16.1681 34.012 16.1801 34.0002 16.1831 33.9971C16.1845 33.9955 16.185 33.9938 16.186 33.9912L16.3853 33.4873C16.4462 33.3332 16.5036 33.1735 16.5571 33.0098L16.644 32.7432L16.731 32.4775C16.8126 32.228 16.9325 31.9961 17.0913 31.7881L17.2544 31.5752L17.4165 31.3623C17.5535 31.183 17.7083 31.018 17.8784 30.8682L18.0815 30.6885L18.2856 30.5098C18.4041 30.4055 18.5164 30.2962 18.6216 30.1836L18.8032 29.9883L18.9858 29.7939C19.1028 29.6687 19.2182 29.5411 19.3315 29.4131L19.5083 29.2139L19.6841 29.0146C19.7633 28.9252 19.8351 28.8227 19.897 28.707L20.0278 28.4619L20.1587 28.2178C20.2725 28.005 20.4098 27.808 20.5708 27.6309L20.7515 27.4326L20.9331 27.2334C21.08 27.072 21.2399 26.9232 21.4116 26.7881L21.8354 26.4541C21.9371 26.3741 22.0307 26.2834 22.1147 26.1826L22.2886 25.9746L22.4624 25.7656C22.6064 25.593 22.7658 25.4351 22.939 25.293L23.355 24.9512C23.6273 24.7278 23.9515 24.6219 24.2817 24.5967L24.604 24.5723L24.9253 24.5479C24.9743 24.5441 25.0043 24.5358 25.019 24.5303C25.0305 24.5259 25.0355 24.5216 25.0366 24.5205L25.437 24.1748C25.5041 24.1168 25.571 24.0382 25.6323 23.9316L25.7778 23.6777L25.9233 23.4248L26.0044 23.2998C26.2053 23.0219 26.4943 22.8378 26.8413 22.7734L27.1274 22.7207L27.4126 22.668C27.4325 22.6642 27.4422 22.6596 27.4448 22.6582C27.4463 22.6573 27.4513 22.6542 27.4585 22.6455L27.6362 22.4307L27.8149 22.2158C28.0387 21.946 28.3351 21.7699 28.6772 21.7012L28.9526 21.6465L29.1655 21.6025L29.2993 21.3379L29.4429 21.0498C29.5358 20.8648 29.6754 20.6858 29.8765 20.5557C30.0803 20.424 30.3061 20.3696 30.5239 20.3691H30.8247L31.1265 20.3682C31.1918 20.368 31.2126 20.3531 31.2212 20.3467L31.438 20.1846L31.6558 20.0225C31.857 19.8723 32.0775 19.7542 32.314 19.6709L32.5659 19.582L32.8188 19.4932C33.0324 19.4181 33.2536 19.3648 33.48 19.333L33.7515 19.2949L34.0239 19.2568C34.1275 19.2422 34.2199 19.2121 34.3032 19.1689L34.5386 19.0469L34.7749 18.9238C34.9504 18.8328 35.1306 18.7491 35.313 18.6738L35.5581 18.5732L35.8032 18.4717C35.9952 18.3925 36.1922 18.3259 36.3931 18.2725L36.9067 18.1357C36.9821 18.1157 37.0603 18.0787 37.1421 18.0166L37.3687 17.8447L37.5942 17.6729C37.7975 17.5185 38.0192 17.3956 38.2563 17.3076L38.5093 17.2139L38.7612 17.1201C39.058 17.0101 39.368 16.9902 39.6733 17.0449L39.9595 17.0957L40.2456 17.1475C40.2481 17.1478 40.2507 17.1473 40.2524 17.1475L40.2554 17.1465L40.4946 16.9902L40.7339 16.833C40.9668 16.6803 41.223 16.5733 41.4976 16.5225L41.7603 16.4736L42.0239 16.4248C42.2031 16.3917 42.3832 16.3602 42.563 16.3301L42.8276 16.2861L43.0923 16.2412C43.3712 16.1946 43.6511 16.2099 43.9243 16.2783L44.479 16.417C44.525 16.4285 44.5522 16.4252 44.5806 16.4141L44.8384 16.3125L45.0952 16.2109C45.3235 16.1211 45.5601 16.0617 45.8022 16.0352L46.0679 16.0059L46.3345 15.9775C46.644 15.9437 46.9451 15.9953 47.2261 16.1143L47.4966 16.2295L47.7612 16.3418L48.0132 16.2354L48.2769 16.124C48.5216 16.0208 48.7778 15.9574 49.0415 15.9414L49.3081 15.9258L49.5757 15.9092C49.7322 15.8997 49.8895 15.8828 50.0464 15.8594L50.313 15.8193L50.5796 15.7803C50.8822 15.735 51.1816 15.7701 51.4653 15.875L51.9985 16.0723C52.1441 16.1261 52.288 16.1671 52.4292 16.1963L52.6958 16.251L52.9624 16.3066C53.1064 16.3364 53.2501 16.3553 53.3921 16.3633L53.9253 16.3926C54.0618 16.4003 54.1993 16.3969 54.3364 16.3809L54.8696 16.3184C55.0749 16.2944 55.281 16.2827 55.4868 16.2832H55.7534L56.02 16.2842C56.2188 16.2847 56.4182 16.2943 56.6167 16.3125L57.1499 16.3613C57.272 16.3725 57.395 16.37 57.5181 16.3525L57.7847 16.3145L58.0522 16.2764C58.1346 16.2646 58.2315 16.2342 58.3433 16.1729L58.8765 15.8799C59.1356 15.7377 59.4185 15.6482 59.7183 15.6338L60.2515 15.6084ZM96.6509 40.9268C96.7055 40.9954 96.7728 41.0543 96.856 41.1025L97.0464 41.2129C96.9142 41.0684 96.7633 40.9465 96.5923 40.8525L96.6509 40.9268Z" fill="#303A4B"/>
</g>
<defs>
<clipPath id="clip0_395_2923">
<rect width="128" height="128" fill="white"/>
</clipPath>
</defs>
</svg>
