<svg width="128" height="128" viewBox="0 0 128 128" fill="none" xmlns="http://www.w3.org/2000/svg">
<path d="M61.8672 32.355L61.9727 32.394L62.4961 32.1929L62.5615 32.3638L62.5938 32.4478L62.6045 32.5366L62.6201 32.6694C62.6547 32.9626 62.5494 33.2401 62.4658 33.4233L62.2432 33.9097C62.1336 34.1497 61.9832 34.3667 61.7998 34.5591L61.5996 34.769L61.4424 34.9341L61.4824 35.1919L61.5303 35.4937C61.5643 35.7089 61.5466 35.941 61.4482 36.1646C61.3509 36.3855 61.1947 36.5523 61.0244 36.6733L60.7607 36.8608L60.498 37.0474C60.4605 37.074 60.4429 37.0937 60.4365 37.1021C60.4344 37.1048 60.4332 37.1069 60.4326 37.1079L60.2842 37.6216C60.2457 37.7554 60.2176 37.8949 60.2002 38.0396L60.168 38.312L60.1348 38.5835C60.1134 38.7608 60.0935 38.9392 60.0752 39.1177L60.0479 39.3921L60.0195 39.6655C59.9796 40.0554 59.7843 40.3759 59.502 40.6108L59.2656 40.8071L59.0293 41.0044C59.0261 41.007 59.0237 41.0101 59.0215 41.0122L58.999 41.2671L58.9746 41.5425C58.9537 41.7825 58.9045 42.0163 58.8262 42.2417L58.7393 42.4937L58.6514 42.7456C58.6289 42.8102 58.6161 42.8915 58.625 42.9985L58.6494 43.2925L58.6738 43.5854C58.7158 44.0885 58.4316 44.5087 58.1572 44.8052L57.8018 45.189L57.4727 44.8833L57.2451 44.7993L56.5781 44.5522L56.6133 44.4585L56.6621 44.3257L56.7578 44.2222L57.1133 43.8394C57.1965 43.7495 57.2359 43.6868 57.2529 43.6538L57.2324 43.4106L57.208 43.1167C57.1843 42.8325 57.2134 42.5499 57.3076 42.2788L57.4834 41.7749C57.5217 41.6647 57.5465 41.5465 57.5576 41.4194L57.582 41.144L57.6064 40.8677C57.6409 40.4732 57.8346 40.1481 58.1201 39.9106L58.3564 39.7144L58.5928 39.5171C58.5988 39.5121 58.6033 39.5075 58.6064 39.5044L58.6328 39.2466L58.6611 38.9731C58.6803 38.7863 58.7003 38.5993 58.7227 38.4136L58.7559 38.1421L58.7881 37.8696C58.8144 37.6513 58.8579 37.4368 58.918 37.228L58.9922 36.9712L59.0654 36.7144C59.168 36.3581 59.3961 36.085 59.6748 35.8872L59.9375 35.7007L60.1045 35.5825L60.0771 35.4136L60.0303 35.1118C59.9661 34.7053 60.0744 34.3078 60.3701 33.9976L60.7705 33.5776C60.8539 33.4901 60.9118 33.4039 60.9502 33.3198L61.0605 33.0767L61.1719 32.8325C61.1823 32.8096 61.1904 32.7903 61.1963 32.7749L61.1689 32.7046L61.0723 32.4536L61.166 32.2007L61.2002 32.1069L61.8672 32.355ZM66.4893 32.355L66.5947 32.394L67.1182 32.1929L67.1836 32.3638L67.2158 32.4478L67.2266 32.5366L67.2422 32.6694C67.2767 32.9626 67.1715 33.2401 67.0879 33.4233L66.8652 33.9097C66.7557 34.1497 66.6053 34.3667 66.4219 34.5591L66.2217 34.769L66.0645 34.9341L66.1045 35.1919L66.1523 35.4937C66.1863 35.7089 66.1687 35.9409 66.0703 36.1646C65.973 36.3856 65.8169 36.5523 65.6465 36.6733L65.3828 36.8608L65.1201 37.0474C65.0825 37.0741 65.065 37.0937 65.0586 37.1021C65.0565 37.1049 65.0553 37.1069 65.0547 37.1079L64.9062 37.6216C64.8678 37.7554 64.8397 37.8949 64.8223 38.0396L64.79 38.312L64.7568 38.5835C64.7355 38.7608 64.7155 38.9392 64.6973 39.1177L64.6699 39.3921L64.6416 39.6655C64.6017 40.0554 64.4064 40.3759 64.124 40.6108L63.8877 40.8071L63.6514 41.0044C63.6482 41.0071 63.6458 41.0101 63.6436 41.0122L63.6211 41.2671L63.5967 41.5425C63.5758 41.7825 63.5266 42.0162 63.4482 42.2417L63.3613 42.4937L63.2734 42.7456C63.251 42.8102 63.2381 42.8915 63.2471 42.9985L63.2715 43.2925L63.2959 43.5854C63.3379 44.0885 63.0537 44.5087 62.7793 44.8052L62.4238 45.189L62.0947 44.8833L61.8672 44.7993L61.2002 44.5522L61.2354 44.4585L61.2842 44.3257L61.3799 44.2222L61.7354 43.8394C61.8186 43.7494 61.8579 43.6868 61.875 43.6538L61.8545 43.4106L61.8301 43.1167C61.8064 42.8325 61.8355 42.5499 61.9297 42.2788L62.1055 41.7749C62.1438 41.6647 62.1686 41.5465 62.1797 41.4194L62.2041 41.144L62.2285 40.8677C62.263 40.4731 62.4567 40.1481 62.7422 39.9106L62.9785 39.7144L63.2148 39.5171C63.2209 39.512 63.2254 39.5076 63.2285 39.5044L63.2549 39.2466L63.2832 38.9731C63.3023 38.7863 63.3224 38.5993 63.3447 38.4136L63.3779 38.1421L63.4102 37.8696C63.4364 37.6513 63.48 37.4368 63.54 37.228L63.6143 36.9712L63.6875 36.7144C63.79 36.3581 64.0182 36.085 64.2969 35.8872L64.5596 35.7007L64.7266 35.5825L64.6992 35.4136L64.6523 35.1118C64.5882 34.7053 64.6964 34.3078 64.9922 33.9976L65.3926 33.5776C65.476 33.4901 65.5339 33.4039 65.5723 33.3198L65.6826 33.0767L65.7939 32.8325C65.8044 32.8096 65.8125 32.7904 65.8184 32.7749L65.791 32.7046L65.6943 32.4536L65.7881 32.2007L65.8223 32.1069L66.4893 32.355ZM70.7559 32.355L70.8613 32.394L71.3848 32.1929L71.4502 32.3638L71.4824 32.4478L71.4932 32.5366L71.5088 32.6694C71.5434 32.9626 71.4381 33.2401 71.3545 33.4233L71.1318 33.9097C71.0222 34.1497 70.8719 34.3667 70.6885 34.5591L70.4883 34.769L70.3311 34.9341L70.3711 35.1919L70.4189 35.4937C70.4529 35.709 70.4353 35.9409 70.3369 36.1646C70.2396 36.3856 70.0835 36.5523 69.9131 36.6733L69.6494 36.8608L69.3867 37.0474C69.349 37.0741 69.3315 37.0937 69.3252 37.1021C69.3231 37.1049 69.3219 37.1069 69.3213 37.1079L69.1729 37.6216C69.1344 37.7554 69.1063 37.8949 69.0889 38.0396L69.0566 38.312L69.0234 38.5835C69.0021 38.7608 68.9821 38.9392 68.9639 39.1177L68.9365 39.3921L68.9082 39.6655C68.8683 40.0554 68.673 40.3759 68.3906 40.6108L68.1543 40.8071L67.918 41.0044C67.9148 41.0071 67.9124 41.0101 67.9102 41.0122L67.8877 41.2671L67.8633 41.5425C67.8424 41.7825 67.7932 42.0162 67.7148 42.2417L67.6279 42.4937L67.54 42.7456C67.5176 42.8102 67.5047 42.8915 67.5137 42.9985L67.5381 43.2925L67.5625 43.5854C67.6045 44.0885 67.3203 44.5087 67.0459 44.8052L66.6904 45.189L66.3613 44.8833L66.1338 44.7993L65.4668 44.5522L65.502 44.4585L65.5508 44.3257L65.6465 44.2222L66.002 43.8394C66.0852 43.7494 66.1245 43.6868 66.1416 43.6538L66.1211 43.4106L66.0967 43.1167C66.073 42.8325 66.1021 42.5499 66.1963 42.2788L66.3721 41.7749C66.4104 41.6647 66.4352 41.5465 66.4463 41.4194L66.4707 41.144L66.4951 40.8677C66.5296 40.4731 66.7233 40.1481 67.0088 39.9106L67.2451 39.7144L67.4814 39.5171C67.4875 39.512 67.492 39.5076 67.4951 39.5044L67.5215 39.2466L67.5498 38.9731C67.5689 38.7863 67.589 38.5993 67.6113 38.4136L67.6445 38.1421L67.6768 37.8696C67.703 37.6513 67.7466 37.4368 67.8066 37.228L67.8809 36.9712L67.9541 36.7144C68.0566 36.3581 68.2848 36.085 68.5635 35.8872L68.8262 35.7007L68.9932 35.5825L68.9658 35.4136L68.9189 35.1118C68.8548 34.7053 68.963 34.3078 69.2588 33.9976L69.6592 33.5776C69.7426 33.4901 69.8004 33.4039 69.8389 33.3198L69.9492 33.0767L70.0605 32.8325C70.071 32.8096 70.0791 32.7904 70.085 32.7749L70.0576 32.7046L69.9609 32.4536L70.0547 32.2007L70.0889 32.1069L70.7559 32.355Z" fill="#303A4B"/>
</svg>
