<svg width="24" height="24" viewBox="0 0 24 24" fill="none" xmlns="http://www.w3.org/2000/svg">
<path d="M12.9951 3.00391L13.0938 3.02148L13.1914 3.03711C13.2512 3.04717 13.3039 3.05436 13.3477 3.05762L13.4258 3.06348L13.5059 3.07031C13.5705 3.07513 13.6375 3.09458 13.6973 3.1377C13.7564 3.18045 13.7959 3.23654 13.8213 3.29297L13.8555 3.36914L13.8906 3.44629C13.9051 3.47853 13.9252 3.51466 13.9531 3.55176L14.0664 3.70117C14.1215 3.77446 14.162 3.85598 14.1865 3.94434L14.2363 4.11914C14.2431 4.14358 14.2548 4.16855 14.2744 4.19238L14.3359 4.26465L14.3955 4.33887C14.4642 4.42217 14.5084 4.52031 14.5225 4.62793L14.5332 4.7207L14.5459 4.81348C14.555 4.88341 14.5604 4.95439 14.5625 5.02637L14.5645 5.12305L14.5684 5.21973C14.5685 5.2244 14.5698 5.22715 14.5703 5.22852C14.5706 5.22926 14.5724 5.23294 14.5762 5.2373L14.6377 5.30957L14.7012 5.38184C14.7468 5.43431 14.7901 5.4882 14.8311 5.54297L14.9443 5.69336C15.0167 5.79029 15.0483 5.9038 15.0439 6.02148L15.041 6.12109L15.0361 6.2207C15.0356 6.23647 15.039 6.24191 15.042 6.24609L15.0957 6.32227L15.1504 6.39844C15.2098 6.48212 15.2466 6.57696 15.2588 6.67871L15.2812 6.86523C15.2829 6.87925 15.286 6.89238 15.2969 6.90527L15.4209 7.05078C15.489 7.13132 15.5341 7.22527 15.5518 7.33008L15.5674 7.42188L15.582 7.51367C15.5867 7.5411 15.5971 7.56597 15.6123 7.58887L15.7148 7.74316C15.7705 7.82706 15.8034 7.92075 15.8145 8.02051L15.8252 8.11328L15.835 8.20801C15.8397 8.2505 15.8504 8.28984 15.8643 8.32617L15.9277 8.49609L16.0273 8.74316L16.0625 8.82617C16.0884 8.88906 16.112 8.95332 16.1318 9.01855L16.1572 9.10645L16.1836 9.19336C16.1928 9.22355 16.2084 9.2521 16.2295 9.28027L16.3418 9.43066C16.3784 9.47953 16.4165 9.52867 16.4541 9.57715L16.5107 9.65234L16.5693 9.72656C16.6265 9.80047 16.668 9.88328 16.6924 9.97363L16.7393 10.1504C16.7552 10.2097 16.7708 10.2695 16.7861 10.3291L16.833 10.5059C16.8374 10.5227 16.8455 10.5414 16.8633 10.5605L16.998 10.7021C17.0695 10.7785 17.1197 10.8711 17.1436 10.9746L17.165 11.0635L17.1855 11.1533C17.1938 11.1889 17.2073 11.2224 17.2256 11.2539L17.3174 11.4121C17.3791 11.5183 17.395 11.6372 17.3789 11.752L17.3652 11.8545L17.3496 11.959L17.4033 12.0244L17.4629 12.0986C17.5229 12.1737 17.5661 12.2591 17.5898 12.3525L17.6113 12.4414L17.6348 12.5303C17.6505 12.5923 17.6643 12.6559 17.6777 12.7188L17.7168 12.8984C17.7254 12.9385 17.7391 12.9771 17.7568 13.0127L17.8389 13.1748C17.8774 13.2523 17.9025 13.335 17.915 13.4209L17.9404 13.6064C17.9457 13.6427 17.9575 13.6749 17.9727 13.7051L18.0537 13.8682C18.0634 13.8873 18.0807 13.9099 18.1113 13.9346L18.2734 14.0645C18.379 14.1494 18.4442 14.2708 18.4463 14.4131L18.4482 14.5098V14.6064C18.449 14.6561 18.4548 14.7032 18.4639 14.7471L18.4824 14.8379L18.502 14.9277C18.51 14.966 18.5226 15.0024 18.54 15.0361L18.625 15.1973C18.6582 15.261 18.6861 15.3279 18.71 15.3955L18.7715 15.5664C18.7839 15.6014 18.801 15.6363 18.8242 15.6689L18.8779 15.7451L18.9326 15.8213C18.9926 15.9056 19.0287 16.0009 19.04 16.1035L19.0508 16.1973L19.0605 16.291V16.293L19.1426 16.3652L19.2168 16.4336C19.326 16.5316 19.3759 16.6657 19.3604 16.8096L19.3496 16.9111L19.3379 17.0137C19.334 17.0496 19.3393 17.0743 19.3457 17.0918L19.3779 17.1768L19.4082 17.2627C19.4252 17.3089 19.4456 17.3545 19.4688 17.3984L19.5537 17.5596C19.5761 17.602 19.6029 17.6441 19.6328 17.6846L19.6875 17.7607L19.7441 17.8359C19.7758 17.8788 19.8099 17.9216 19.8477 17.9629L19.9785 18.1055C20.0626 18.1973 20.1083 18.3114 20.1094 18.4355L20.1104 18.6309C20.1107 18.6537 20.1165 18.6684 20.124 18.6807L20.2197 18.8369C20.2712 18.9206 20.3016 19.0138 20.3115 19.1113L20.3223 19.2031L20.3311 19.2969C20.3401 19.3866 20.333 19.477 20.3125 19.5654L20.2686 19.7578C20.2395 19.8821 20.167 19.9841 20.0615 20.0547L19.8945 20.167C19.7844 20.2403 19.6584 20.2628 19.5322 20.2412L19.4277 20.2246L19.3223 20.2051C19.2809 20.198 19.2511 20.1997 19.2305 20.2051L19.1426 20.2285L19.0605 20.249C19.0585 20.2512 19.0555 20.2561 19.0508 20.2637L18.9922 20.3604L18.9326 20.4561C18.8689 20.5585 18.7742 20.6456 18.6445 20.6816L18.5557 20.7051L18.4688 20.7295C18.3816 20.7537 18.2912 20.7619 18.2002 20.7559L18.0986 20.748L17.999 20.7412C17.9625 20.7388 17.9356 20.7448 17.917 20.752L17.834 20.7832L17.752 20.8164C17.7017 20.8357 17.6474 20.857 17.5898 20.8828L17.4033 20.9658C17.3369 20.9955 17.2474 21.0151 17.1504 20.9844C17.0532 20.9534 16.9902 20.8855 16.9531 20.8232L16.9014 20.7363L16.8477 20.6484C16.8083 20.5823 16.7742 20.5144 16.7451 20.4473L16.6719 20.2754C16.6442 20.2113 16.6185 20.1466 16.5977 20.0811L16.5713 19.9941L16.542 19.9082C16.5156 19.8249 16.5044 19.7369 16.5059 19.6494L16.5088 19.4648C16.5094 19.4236 16.5044 19.3829 16.4951 19.3447L16.4746 19.2568L16.4512 19.1689C16.4253 19.0627 16.4337 18.9549 16.4648 18.8535L16.5254 18.6592C16.5352 18.6271 16.5342 18.6038 16.5312 18.5889L16.5127 18.501L16.4951 18.4121C16.4939 18.4066 16.4887 18.3918 16.4648 18.3672L16.3896 18.2881L16.3145 18.21C16.2105 18.1029 16.1628 17.959 16.2041 17.8047L16.2295 17.707L16.2568 17.6104C16.2675 17.5705 16.2702 17.5359 16.2676 17.5068L16.2598 17.416L16.25 17.3262C16.249 17.3158 16.2449 17.3 16.2285 17.2783L16.168 17.1982L16.1074 17.1172C16.0328 17.019 15.9937 16.901 16.0059 16.7734L16.0166 16.6797L16.0254 16.584C16.0307 16.5286 16.0336 16.4739 16.0342 16.4199L16.0332 16.3262L16.0352 16.2344C16.0352 16.2267 16.0327 16.2173 16.0215 16.2012L15.9668 16.1191L15.9092 16.0381C15.8589 15.9656 15.8191 15.8868 15.793 15.8037L15.7666 15.7168L15.7393 15.6289C15.7176 15.5598 15.7001 15.4905 15.6904 15.4219L15.6807 15.3408L15.6709 15.293L15.6367 15.2725L15.6104 15.2568L15.5801 15.2734L15.5068 15.3105C15.4133 15.358 15.3115 15.3751 15.2119 15.3701L15.1113 15.3633L15.0117 15.3594C14.9609 15.3568 14.9137 15.3585 14.8701 15.3652L14.6855 15.3945C14.6664 15.3976 14.6497 15.4049 14.6328 15.418L14.4834 15.5342C14.4286 15.5772 14.3729 15.6197 14.3154 15.6572L14.2373 15.707L14.1602 15.7578C14.089 15.8042 14.0111 15.8396 13.9297 15.8633L13.8418 15.8877L13.7549 15.915C13.7135 15.9271 13.6728 15.9423 13.6348 15.9629L13.5547 16.0078L13.4736 16.0498C13.4272 16.075 13.3817 16.1037 13.3369 16.1338L13.2598 16.1855L13.1836 16.2383C13.089 16.3016 12.9805 16.3298 12.8691 16.3281L12.6729 16.3252C12.6701 16.3252 12.668 16.3251 12.667 16.3252L12.6631 16.3271L12.5908 16.3906L12.5186 16.4521C12.4372 16.522 12.3402 16.568 12.2334 16.585L12.0498 16.6143C11.9793 16.6254 11.9077 16.6327 11.835 16.6357L11.6426 16.6436C11.6367 16.6438 11.6335 16.6452 11.6328 16.6455C11.6317 16.646 11.6287 16.6471 11.625 16.6504L11.5527 16.7139L11.4814 16.7793C11.3833 16.8668 11.2618 16.9044 11.1338 16.8965L11.0332 16.8906L10.9648 16.8877L10.918 16.9531L10.8545 17.0391C10.7746 17.1494 10.6553 17.224 10.5078 17.2295L10.3154 17.2373C10.2841 17.2386 10.2588 17.2444 10.2373 17.2549L10.0742 17.3369C9.99905 17.374 9.91779 17.3994 9.83496 17.4141L9.65332 17.4473C9.61709 17.4537 9.5837 17.4651 9.55273 17.4814L9.3916 17.5664C9.31714 17.6057 9.237 17.6328 9.1543 17.6494L9.06445 17.6689L8.97363 17.6875C8.96625 17.6891 8.95614 17.6917 8.94238 17.7061L8.80566 17.8506C8.72466 17.9357 8.62258 17.9911 8.50879 18.0146L8.40723 18.0352L8.30762 18.0547C8.16707 18.0837 8.03357 18.0494 7.92383 17.9668L7.83594 17.8984L7.74609 17.833C7.63803 17.7511 7.56516 17.6323 7.55664 17.4873L7.5459 17.2881C7.54473 17.27 7.53933 17.2606 7.5332 17.2529L7.41309 17.1055C7.32855 17.0007 7.29899 16.8747 7.31445 16.748L7.32812 16.6455L7.33789 16.5684L7.28027 16.5215L7.20117 16.4561C7.11242 16.3813 7.04935 16.2846 7.01953 16.1709L6.9707 15.9785L6.95703 15.8682C6.95762 15.8297 6.96427 15.79 6.97852 15.75C7.007 15.6704 7.05842 15.6105 7.11523 15.5684L7.19434 15.5078L7.27637 15.4482C7.2942 15.4349 7.30994 15.4177 7.32129 15.3916L7.3623 15.2959L7.40332 15.2021L7.46777 15.0986C7.49579 15.0665 7.53167 15.0375 7.5752 15.0156C7.66059 14.9731 7.74793 14.9721 7.81934 14.9863L7.92578 15.0088L8.01855 15.0264L8.07129 14.9785L8.14258 14.9131C8.22483 14.838 8.32479 14.79 8.43652 14.7744L8.52832 14.7598L8.62109 14.7471L8.62402 14.748C8.62553 14.747 8.63029 14.7433 8.63574 14.7373L8.70312 14.6631L8.77051 14.5879L8.85156 14.5166C8.90934 14.4775 8.9751 14.4546 9.04395 14.4473H9.15039L9.25293 14.4609L9.33203 14.4697L9.38477 14.4141L9.45312 14.3398C9.51332 14.2732 9.58137 14.216 9.6582 14.1719L9.81641 14.0801C9.92184 14.0197 10.0385 14.005 10.1523 14.0205L10.3594 14.0469C10.4006 14.0525 10.4329 14.0512 10.4561 14.0449L10.543 14.0195L10.6318 13.9961C10.6555 13.9896 10.6789 13.9773 10.7021 13.958L10.7754 13.8984L10.8486 13.8359C10.941 13.7594 11.0522 13.7199 11.1709 13.7188L11.3662 13.7178C11.3789 13.7176 11.3838 13.7145 11.3896 13.71L11.5381 13.5938C11.5786 13.562 11.6193 13.5261 11.6582 13.4863L11.7969 13.3457C11.8721 13.2688 11.9663 13.2255 12.0664 13.2148L12.1689 13.2139L12.2715 13.2256L12.3584 13.2334L12.4131 13.1768L12.4824 13.1064C12.5469 13.04 12.6219 12.9847 12.708 12.9482L12.8613 12.8828C12.864 12.8816 12.8768 12.875 12.8945 12.8496L12.9531 12.7646L12.9736 12.7324L12.957 12.7061L12.8975 12.624C12.8588 12.5693 12.821 12.516 12.7852 12.4658L12.7314 12.3896L12.6768 12.3135C12.6026 12.2093 12.5772 12.0884 12.5908 11.9678L12.6025 11.8652L12.6094 11.7871L12.5586 11.7402L12.4834 11.6748C12.443 11.6394 12.4001 11.6049 12.3535 11.5742L12.2686 11.5215L12.2578 11.5137L12.2432 11.5273L12.166 11.5996C12.068 11.6905 11.9436 11.7373 11.8066 11.7275L11.7061 11.7207L11.6113 11.7139L11.5527 11.7764L11.4834 11.8447C11.4155 11.9125 11.3359 11.966 11.2461 12.001L11.1621 12.0352L11.0771 12.0674C10.9798 12.1052 10.877 12.116 10.7754 12.1045L10.6729 12.0928L10.583 12.082L10.5283 12.1387L10.459 12.21C10.4085 12.2613 10.3579 12.3114 10.3047 12.3574L10.2314 12.4189L10.1602 12.4824C10.079 12.5526 9.98188 12.598 9.875 12.6152L9.69141 12.6445C9.61575 12.6567 9.53856 12.6614 9.45996 12.6602L9.26367 12.6572C9.23864 12.6568 9.22109 12.662 9.20898 12.6689L9.05078 12.7617C9.02177 12.7785 8.99171 12.8014 8.96191 12.834L8.89453 12.9092L8.82617 12.9834C8.74077 13.077 8.6274 13.1334 8.49707 13.1406L8.30566 13.1523C8.23667 13.1561 8.16611 13.1579 8.0957 13.1572L7.89941 13.1543C7.87061 13.1541 7.85029 13.1606 7.83398 13.1689L7.75293 13.21L7.67188 13.252C7.63765 13.2695 7.60341 13.2918 7.57031 13.3213L7.49805 13.3867L7.42676 13.4502C7.37604 13.4956 7.3236 13.5397 7.27148 13.582L7.12402 13.7021C7.0265 13.7812 6.91073 13.8165 6.79199 13.8174L6.68457 13.8184L6.5752 13.8193C6.43133 13.8202 6.29787 13.7595 6.20996 13.6338L6.15234 13.5518L6.09473 13.4707C6.06612 13.4298 6.03441 13.3917 5.99902 13.3584L5.92676 13.29L5.85547 13.2227C5.7763 13.1484 5.7181 13.0553 5.69141 12.9473L5.64844 12.7686C5.63097 12.6974 5.61802 12.624 5.61133 12.5498L5.60156 12.4561L5.59473 12.3613C5.59145 12.3261 5.58225 12.2953 5.56934 12.2676L5.53125 12.1846L5.49219 12.1025C5.45493 12.0232 5.43116 11.9389 5.42383 11.8516L5.41602 11.7646L5.41016 11.6797L5.41211 11.583C5.42573 11.4884 5.47356 11.4003 5.56055 11.335L5.62305 11.2871L5.68457 11.2422C5.69684 11.2329 5.7161 11.2109 5.74121 11.1719L5.85254 11.002L5.92285 10.918C5.97476 10.8697 6.03683 10.8361 6.10645 10.8203L6.2168 10.8105L6.41504 10.8164C6.44595 10.8174 6.46849 10.8116 6.48535 10.8037L6.56738 10.7666L6.64941 10.7275C6.69478 10.7062 6.7398 10.6817 6.7832 10.6543L6.86035 10.6045L6.93945 10.5566C7.00642 10.5144 7.07803 10.4793 7.15234 10.4531L7.32324 10.3926C7.37539 10.3742 7.42665 10.3535 7.47754 10.332L7.64453 10.2607C7.69228 10.2405 7.74026 10.2178 7.78613 10.1924L7.86621 10.1494L7.94629 10.1055C8.02912 10.0597 8.11891 10.0319 8.21289 10.0225L8.30664 10.0137L8.39941 10.002C8.44473 9.9974 8.48772 9.98883 8.52734 9.97559L8.7002 9.91797C8.71105 9.91426 8.72594 9.90605 8.74512 9.88379L8.87793 9.72852C8.9526 9.64141 9.05085 9.59259 9.15723 9.58203L9.26758 9.58398L9.37109 9.59766L9.47461 9.61328C9.50592 9.61772 9.52206 9.61294 9.53027 9.60938L9.69727 9.53809C9.75152 9.51444 9.80541 9.48919 9.85938 9.46484L10.0244 9.39062C10.0866 9.36257 10.1512 9.33732 10.2158 9.31543L10.3027 9.28711L10.3877 9.25684C10.4273 9.24337 10.4662 9.22641 10.5029 9.2041L10.6602 9.1084C10.6937 9.08797 10.7274 9.06081 10.7598 9.02734L10.8291 8.95508L10.8965 8.88477C10.9568 8.82252 11.0253 8.76864 11.1025 8.73047L11.1748 8.69629L11.1826 8.69043L11.1836 8.67188V8.58887C11.1837 8.54593 11.1801 8.49873 11.1729 8.44824L11.1475 8.26367L11.1455 8.25977C11.1448 8.25851 11.1416 8.25431 11.1348 8.24805L10.9863 8.1123C10.8803 8.01506 10.8324 7.88289 10.8457 7.74121L10.8535 7.64062L10.8643 7.53809C10.8664 7.51417 10.8626 7.50181 10.8584 7.49414L10.8135 7.41211L10.7686 7.33203C10.761 7.31852 10.7523 7.31054 10.7412 7.30469L10.5811 7.21875C10.5663 7.21094 10.5541 7.21107 10.543 7.21191L10.3691 7.22461C10.3462 7.22637 10.3213 7.23196 10.2969 7.24512L10.1367 7.33398C10.0549 7.3782 9.96639 7.40512 9.87402 7.41504L9.68652 7.43359C9.67866 7.43445 9.67302 7.43797 9.66309 7.44727L9.5918 7.51465L9.52051 7.5791C9.41362 7.67997 9.27769 7.71509 9.1416 7.69336L9.03711 7.67676L8.98633 7.66797L8.95312 7.72168L8.89355 7.81738C8.82358 7.93003 8.7127 8.01897 8.5625 8.03613L8.37598 8.05762C8.31715 8.06428 8.25792 8.07292 8.2002 8.08203L8.0166 8.11035C8.01046 8.11135 8.00405 8.11489 7.99219 8.12695L7.85352 8.26758C7.74977 8.37397 7.61125 8.415 7.4707 8.39453L7.26367 8.36426C7.25444 8.36296 7.24909 8.36313 7.24707 8.36328L7.09082 8.46191C7.03365 8.49795 6.97542 8.53239 6.91602 8.56348L6.83496 8.60352L6.75391 8.64648C6.69146 8.67914 6.62636 8.70776 6.56055 8.73242L6.39062 8.79688C6.33308 8.81842 6.27466 8.8396 6.2168 8.86035L6.13184 8.89062L6.04688 8.92285C5.97999 8.94684 5.90979 8.96618 5.83984 8.98145L5.66113 9.02051C5.61161 9.03135 5.56239 9.04392 5.51562 9.06055L5.43066 9.09082L5.3457 9.12305C5.31561 9.13377 5.28271 9.14979 5.25098 9.1748L5.1748 9.23633L5.09766 9.2959C4.98678 9.38347 4.85387 9.41008 4.72266 9.38574L4.61914 9.36621L4.51367 9.34766C4.4374 9.33338 4.35137 9.29503 4.28906 9.21387C4.22843 9.1346 4.21362 9.04389 4.21582 8.9707L4.21875 8.85742L4.22266 8.74512C4.22405 8.70177 4.21709 8.67819 4.21191 8.66797L4.17188 8.58691L4.12891 8.50684C4.11495 8.47933 4.09426 8.45149 4.06445 8.42285L3.99414 8.35352L3.92188 8.28418C3.81273 8.1795 3.77229 8.03951 3.79492 7.89746L3.8291 7.68848C3.83536 7.64852 3.82843 7.63265 3.82812 7.63184L3.77246 7.48145C3.74836 7.41737 3.72883 7.34819 3.71387 7.27539L3.69434 7.18066L3.67383 7.08496L3.66504 6.99316C3.66513 6.95934 3.67041 6.92341 3.68164 6.88672C3.70599 6.80737 3.75807 6.74244 3.82715 6.7002L3.94434 6.62891C3.96655 6.61532 3.99779 6.59639 4.03027 6.58398C4.04352 6.57897 4.08112 6.56476 4.12793 6.56445C4.13733 6.56442 4.14877 6.57119 4.16211 6.57324L4.21191 6.5498L4.29395 6.51074C4.36497 6.47766 4.43974 6.45424 4.5166 6.4375L4.69629 6.39746C4.73508 6.38904 4.77228 6.37524 4.80664 6.35742L4.88672 6.31543L4.96875 6.27441C5.05794 6.22802 5.15533 6.20384 5.25488 6.20215L5.35254 6.20117L5.41699 6.20215L5.47168 6.12305L5.53223 6.03125C5.58742 5.94962 5.66486 5.88416 5.76074 5.84961L5.8623 5.8252L5.95703 5.81641L6.0498 5.80469C6.08129 5.80121 6.1084 5.79265 6.13281 5.7793L6.21289 5.73535L6.29395 5.69238C6.34198 5.66602 6.3898 5.63755 6.43652 5.60742L6.51367 5.55762L6.59082 5.50586C6.69562 5.43846 6.81456 5.41836 6.93164 5.43262L7.03516 5.44629L7.09766 5.45312L7.13965 5.39551L7.20117 5.30762L7.27539 5.22754C7.30333 5.20365 7.33602 5.18235 7.37207 5.16602C7.40819 5.14978 7.44572 5.14074 7.48242 5.13574L7.59375 5.13379L7.69629 5.14551L7.79883 5.15918C7.82049 5.16166 7.82762 5.15813 7.8291 5.15723L7.90723 5.10938L7.98633 5.06348C8.0586 5.02103 8.13652 4.98918 8.21777 4.96875L8.39551 4.92578C8.42623 4.91809 8.45484 4.90344 8.48242 4.88477L8.55957 4.83301L8.63574 4.78027C8.6987 4.73733 8.76691 4.69949 8.83594 4.66895L8.91895 4.63184L9.00195 4.59668C9.04476 4.57769 9.08634 4.55459 9.12695 4.52832L9.20508 4.47852L9.28223 4.42676C9.37052 4.36957 9.47014 4.3396 9.57422 4.33398L9.66992 4.32812L9.76562 4.32422C9.82842 4.32089 9.89155 4.31545 9.9541 4.31152L10.1445 4.2998C10.1818 4.29746 10.2153 4.2905 10.2441 4.27832L10.4111 4.20703C10.4465 4.19195 10.4821 4.1707 10.5156 4.14453L10.665 4.02832C10.7057 3.99649 10.7451 3.96038 10.7842 3.9209L10.8535 3.85059L10.9238 3.78125C11.0016 3.7027 11.0974 3.66005 11.1992 3.65234L11.3027 3.65625L11.4062 3.6709L11.5098 3.68457C11.5171 3.68562 11.522 3.68661 11.5244 3.68652L11.6025 3.63672L11.6797 3.58594C11.7185 3.56078 11.7568 3.53008 11.7939 3.49512L11.8652 3.42969L11.9355 3.3623C12.0157 3.28691 12.1133 3.24831 12.2139 3.24316L12.3154 3.24902L12.4199 3.26562L12.4941 3.27832L12.54 3.22559L12.6064 3.14648L12.6865 3.07324C12.7448 3.03181 12.812 3.0065 12.8838 3L12.9951 3.00391Z" fill="#010820"/>
</svg>
