<svg width="128" height="128" viewBox="0 0 128 128" fill="none" xmlns="http://www.w3.org/2000/svg">
<path d="M51.4741 10.3882C51.6718 10.3879 51.8505 10.4406 52.0034 10.5229L52.1479 10.6147L52.644 10.9761C52.6542 10.9835 52.6617 10.9888 52.6655 10.9907L52.6685 10.9917C52.6693 10.9917 52.6711 10.9918 52.6724 10.9917L52.9575 10.9565L53.2427 10.9224C53.5363 10.8869 53.8293 10.916 54.1099 11.0151L54.3687 11.106L54.6284 11.1978C54.8926 11.2913 55.1303 11.4359 55.3364 11.6255L55.5425 11.814L55.7476 12.0034C55.9038 12.1473 56.0503 12.2994 56.186 12.4575L56.3628 12.6626L56.5386 12.8677C56.6518 12.9995 56.7652 13.1274 56.8765 13.2505L57.0503 13.4429L57.1929 13.6011H57.1938L57.4995 13.6079L57.7817 13.6147L57.9028 13.478L58.0737 13.2866C58.1437 13.2076 58.2148 13.1047 58.2837 12.9741L58.5591 12.4507C58.712 12.1604 58.9381 11.9212 59.2368 11.7642L59.478 11.6372L59.7202 11.5112C59.9218 11.4053 60.1321 11.3193 60.3501 11.2544L60.6108 11.1763L60.8716 11.0991C61.0798 11.0372 61.2922 10.9916 61.5063 10.9624L61.7729 10.9263L62.0396 10.8892C62.2777 10.8568 62.5177 10.8551 62.7563 10.8843L63.0239 10.9175L63.2915 10.9497C63.4472 10.9687 63.5993 10.9798 63.7456 10.9829L64.0024 10.9888L64.2593 10.9937C64.3296 10.9951 64.4216 10.9823 64.5376 10.9399L64.8169 10.8384L65.0972 10.7358L65.2563 10.689C65.6281 10.6039 66.0004 10.6926 66.3042 10.9487L66.5298 11.1392L66.7554 11.3286C66.843 11.4023 66.9193 11.4419 66.9819 11.4614L67.23 11.5386L67.4771 11.6157C67.6732 11.6769 67.8657 11.7515 68.0522 11.8394L68.5249 12.062C68.7307 12.1591 68.9243 12.2786 69.103 12.4194L69.5132 12.7437C69.7015 12.8922 69.8678 13.0647 70.0083 13.2593L70.1616 13.4722L70.2241 13.5581L70.3481 13.5444L70.6167 13.5132C70.6824 13.5054 70.7336 13.485 70.7788 13.4536L70.9956 13.3022L71.2114 13.1519C71.3322 13.0677 71.4475 12.9767 71.5552 12.8804L71.9438 12.5327C72.0638 12.4254 72.1858 12.3109 72.3081 12.1899L72.5044 11.9956L72.6997 11.8022C72.9151 11.5892 73.1747 11.4377 73.4683 11.3569L73.728 11.2847L73.9888 11.2134C74.2542 11.1405 74.5272 11.1222 74.8003 11.1548L75.0776 11.188L75.355 11.2202C75.4515 11.2317 75.5301 11.2238 75.5952 11.2046L76.0913 11.0581C76.2506 11.0109 76.4359 10.9725 76.6274 10.9741C76.7111 10.8735 76.8017 10.8089 76.8501 10.7788C76.9811 10.6975 77.1268 10.6481 77.2427 10.6157L77.52 10.5386L77.7974 10.4604C78.1114 10.3728 78.4355 10.375 78.7495 10.4761L79.0142 10.562L79.2798 10.647C79.5655 10.7391 79.8179 10.8953 80.0327 11.1021L80.2456 11.3071L80.4595 11.5122C80.4604 11.5131 80.4617 11.5145 80.4624 11.5151H80.4653L80.7612 11.5112L81.0562 11.5073C81.402 11.5031 81.7348 11.6042 82.0161 11.8267L82.231 11.9966L82.4448 12.1665C82.5753 12.2696 82.7097 12.3686 82.8462 12.4624L83.2954 12.771C83.4995 12.9114 83.6828 13.0789 83.8403 13.27L84.0132 13.48L84.187 13.6909C84.3492 13.8879 84.4787 14.1071 84.5737 14.3442L84.7788 14.856C84.8168 14.9503 84.8666 15.03 84.9272 15.0972L84.9634 15.1372L85.063 15.0386L85.188 14.9292C85.447 14.7295 85.7568 14.6487 86.0757 14.686L86.2349 14.7144L86.5317 14.7847L86.8286 14.856C86.8305 14.8562 86.833 14.8557 86.8345 14.856L87.0825 14.7007L87.3335 14.5425L87.4741 14.4653C87.6208 14.3966 87.7854 14.3541 87.9634 14.353C88.1399 14.3521 88.3036 14.3912 88.4487 14.4546L88.5874 14.5259L88.855 14.6812L89.1226 14.8354C89.1856 14.8719 89.2123 14.8693 89.2173 14.8687L89.4839 14.8384L89.7515 14.8071C89.9235 14.7873 90.1048 14.7646 90.2935 14.7388L90.5835 14.6987L90.8745 14.6587C91.1792 14.6171 91.4836 14.6473 91.7739 14.7573L92.0347 14.8569L92.2964 14.9556C92.5908 15.0674 92.8407 15.2518 93.0396 15.4917L93.2261 15.7173L93.4136 15.9429C93.4748 16.0165 93.5371 16.0618 93.5991 16.0903L94.0972 16.3188C94.4653 16.4883 94.7043 16.7933 94.8179 17.1548L94.9087 17.4438L94.9995 17.7319C95.0194 17.7947 95.038 17.8047 95.0386 17.8052L95.2563 17.9585L95.4751 18.1108C95.7044 18.272 95.8926 18.4779 96.0317 18.7222L96.1616 18.9487L96.2905 19.1763C96.4065 19.38 96.4957 19.597 96.5552 19.8237L96.8276 19.7212C97.1099 19.6145 97.4038 19.5481 97.6978 19.5522L98.2407 19.5601C98.3266 19.5612 98.409 19.5452 98.4917 19.5122L98.7456 19.4106L99.0005 19.3091C99.2253 19.2193 99.4595 19.1591 99.6997 19.1284L99.9702 19.0933L100.242 19.0591C100.457 19.0316 100.675 19.0197 100.894 19.0239L101.171 19.0298L101.448 19.0347C101.72 19.0401 101.985 19.0951 102.237 19.1978L102.494 19.3022L102.75 19.4067C102.93 19.4804 103.109 19.5584 103.284 19.6392L103.532 19.7534L103.779 19.8677C104.001 19.9704 104.208 20.1018 104.395 20.2593L104.604 20.4351L104.813 20.6099C104.949 20.7246 105.085 20.8375 105.219 20.9468L105.424 21.1147L105.629 21.2817C105.83 21.4456 105.999 21.641 106.133 21.8628L106.411 22.3237C106.487 22.4498 106.569 22.5657 106.654 22.6704L106.815 22.8687L106.977 23.0669C107.092 23.2082 107.205 23.3535 107.313 23.5015L107.464 23.7095L107.617 23.9175C107.69 24.0177 107.781 24.121 107.891 24.2251L108.305 24.6177C108.544 24.8445 108.692 25.1337 108.728 25.4585L108.737 25.6001L108.743 26.1567C108.744 26.2527 108.762 26.3394 108.795 26.4194L109.004 26.9194C109.11 27.1739 109.164 27.4469 109.177 27.7261L109.183 27.8657L109.193 27.8647C109.442 27.8224 109.693 27.8176 109.943 27.8521L110.208 27.8892L110.473 27.9263C110.687 27.9559 110.899 28.0018 111.106 28.0649L111.364 28.144L111.621 28.2222C111.796 28.2756 111.973 28.3315 112.151 28.3892L112.412 28.4731L112.671 28.5581C112.958 28.6514 113.211 28.8111 113.418 29.0288L113.61 29.23L113.801 29.4302C113.962 29.5989 114.106 29.7836 114.228 29.981L114.373 30.2134L114.516 30.4468C114.594 30.5723 114.677 30.6841 114.761 30.7817L115.093 31.1665C115.149 31.2312 115.226 31.2975 115.331 31.3599L115.575 31.5063L115.818 31.6519C116.055 31.7942 116.262 31.9764 116.428 32.1978L116.592 32.4165L116.756 32.6343C116.98 32.9324 117.066 33.2827 117.034 33.6382L117.006 33.9331L116.98 34.2271C116.978 34.2515 116.98 34.2641 116.981 34.2661C116.982 34.2683 116.984 34.273 116.989 34.2798L117.149 34.5103L117.309 34.7397C117.509 35.0269 117.603 35.3627 117.568 35.7173L117.541 35.9868L117.514 36.2563C117.496 36.4343 117.479 36.6101 117.463 36.7808L117.439 37.0405L117.423 37.2075L117.611 37.3794L117.834 37.5854C117.982 37.7212 118.121 37.8476 118.248 37.9634L118.44 38.1392L118.632 38.314C118.761 38.4309 118.888 38.5479 119.013 38.6626L119.388 39.0063C119.411 39.0272 119.466 39.0651 119.583 39.0962L119.887 39.1782L120.192 39.2593C120.396 39.314 120.609 39.4204 120.778 39.6108C120.905 39.7554 120.983 39.9206 121.024 40.0854L121.053 40.2495L121.086 40.5503L121.12 40.8501L121.342 41.019L121.575 41.1948C121.93 41.4655 122.099 41.8679 122.052 42.3071L121.99 42.895C121.98 42.9851 121.992 43.0405 122.007 43.0757L122.11 43.3169L122.213 43.5581C122.296 43.7515 122.363 43.9526 122.417 44.1577L122.483 44.4155L122.55 44.6733C122.633 44.9958 122.609 45.3216 122.49 45.6265L122.389 45.8853L122.307 46.0962L122.464 46.3872L122.621 46.6772C122.72 46.8622 122.793 47.0926 122.771 47.3491C122.748 47.612 122.633 47.8335 122.482 48.0034L122.282 48.229L122.081 48.4546C122.066 48.4713 122.061 48.481 122.06 48.4829C122.06 48.4841 122.059 48.4863 122.059 48.4878C122.059 48.4902 122.058 48.4954 122.058 48.5015L122.054 49.0796C122.051 49.4981 121.862 49.8619 121.529 50.1089L121.294 50.2827L121.153 50.3862L121.274 50.4438C121.417 50.5116 121.567 50.5742 121.721 50.6294L121.985 50.7231L122.249 50.8179C122.629 50.9544 122.897 51.234 123.048 51.5825L123.294 52.1489C123.296 52.1524 123.298 52.1564 123.299 52.1587L123.564 52.2612L123.835 52.3657C124.231 52.5184 124.507 52.8296 124.613 53.2388L124.759 53.8052C124.795 53.9421 124.84 54.0553 124.891 54.147L125.143 54.6001C125.215 54.7287 125.295 54.8566 125.382 54.9819L125.687 55.4175C125.853 55.6548 125.957 55.9225 125.997 56.2095L126.069 56.7349C126.08 56.8186 126.108 56.9057 126.158 56.9966L126.292 57.2427L126.427 57.4878C126.616 57.8327 126.642 58.2161 126.512 58.5815L126.321 59.1187C126.29 59.2043 126.284 59.2743 126.291 59.3345L126.347 59.8599C126.364 60.0125 126.389 60.177 126.423 60.3501L126.537 60.9243C126.618 61.3406 126.503 61.7393 126.216 62.0483L126.015 62.2651L125.815 62.481C125.788 62.5106 125.78 62.5299 125.778 62.5581L125.755 62.8462L125.732 63.1333C125.708 63.4289 125.621 63.7115 125.467 63.9673L125.326 64.2036L125.183 64.4399C125.017 64.7154 124.784 64.9287 124.503 65.0757L124.247 65.2104L123.989 65.3452C123.884 65.4002 123.805 65.4623 123.748 65.5259L123.569 65.7212L123.39 65.9175C123.28 66.0383 123.174 66.1474 123.076 66.2456L123.176 66.3569C123.358 66.5594 123.5 66.7914 123.595 67.0464L123.789 67.562C123.869 67.7756 123.927 67.9961 123.965 68.2202L124.011 68.4897L124.057 68.7583C124.092 68.9639 124.115 69.171 124.125 69.3765L124.153 69.9097C124.163 70.0981 124.168 70.2863 124.168 70.4712L124.169 70.731L124.17 70.9917C124.171 71.1054 124.185 71.225 124.215 71.3491L124.282 71.6147L124.347 71.8804C124.413 72.1457 124.427 72.4175 124.385 72.688L124.344 72.9526L124.304 73.2173C124.263 73.4846 124.171 73.7375 124.034 73.9702L123.896 74.2046L123.757 74.438C123.681 74.5667 123.616 74.696 123.563 74.8237L123.462 75.064L123.363 75.3032C123.273 75.5189 123.155 75.721 123.013 75.9067L122.919 76.0288L122.97 76.0786C123.156 76.263 123.298 76.4868 123.406 76.7251L123.528 76.9966L123.651 77.2671C123.713 77.4052 123.781 77.5183 123.849 77.6079L124.006 77.8149L124.165 78.022C124.178 78.0399 124.216 78.0794 124.315 78.1196L124.899 78.356C125.096 78.4359 125.292 78.5687 125.435 78.7759C125.543 78.9322 125.602 79.1024 125.625 79.269L125.636 79.4351L125.637 79.7407L125.639 80.0464C125.64 80.1742 125.661 80.2642 125.686 80.3257L125.883 80.8062C125.94 80.9441 126.006 81.0853 126.081 81.2271L126.334 81.7095C126.487 82.0006 126.544 82.3207 126.5 82.647L126.425 83.186C126.414 83.268 126.42 83.3521 126.444 83.4419L126.517 83.7114L126.589 83.9819C126.657 84.2328 126.686 84.4903 126.672 84.7495L126.658 85.0259L126.644 85.3022C126.629 85.5839 126.558 85.8555 126.432 86.1079L126.308 86.355L126.185 86.603C126.123 86.7273 126.073 86.8579 126.035 86.9937L125.959 87.2622L125.884 87.5317C125.773 87.929 125.503 88.2157 125.158 88.3843L124.878 88.52L124.665 88.6235L124.633 88.8804L124.594 89.1997C124.565 89.4282 124.471 89.6813 124.257 89.8794C124.047 90.0739 123.792 90.1487 123.573 90.1675L123.236 90.1958L122.9 90.2241C122.867 90.227 122.846 90.2327 122.835 90.2358L122.717 90.3657L122.747 90.4048L122.939 90.6597C122.986 90.7215 123.024 90.7415 123.056 90.7515L123.335 90.8394L123.616 90.9263C123.933 91.0255 124.199 91.222 124.375 91.5073L124.445 91.6353L124.565 91.8862L124.685 92.1362C124.728 92.2261 124.784 92.3036 124.853 92.3696L125.051 92.5591L125.25 92.7485C125.517 93.0035 125.663 93.3321 125.686 93.6919L125.705 93.9771L125.723 94.2632C125.728 94.3407 125.748 94.3956 125.776 94.4399L126.065 94.895C126.21 95.124 126.309 95.3758 126.356 95.6431L126.448 96.1665C126.476 96.3266 126.509 96.4904 126.547 96.6548L126.611 96.9214L126.673 97.189C126.759 97.5544 126.695 97.9125 126.513 98.2261L126.368 98.478L126.221 98.73L126.215 98.7427V98.7446C126.215 98.7473 126.216 98.753 126.217 98.7603L126.28 99.0474L126.341 99.3335C126.385 99.538 126.384 99.7633 126.304 99.9858C126.225 100.207 126.086 100.381 125.928 100.511L125.695 100.704L125.484 100.877L125.483 101.142L125.48 101.44C125.476 101.796 125.359 102.138 125.105 102.414L124.92 102.613L124.737 102.813C124.547 103.019 124.32 103.18 124.065 103.295L123.807 103.413L123.595 103.507L123.513 103.808L123.427 104.119C123.395 104.236 123.356 104.359 123.306 104.466C123.301 104.477 123.293 104.49 123.287 104.502L123.426 104.753C123.453 104.801 123.48 104.826 123.515 104.843L124.019 105.095C124.333 105.252 124.574 105.502 124.715 105.826L124.938 106.333C125.009 106.495 125.08 106.651 125.152 106.801L125.266 107.039L125.38 107.277C125.462 107.446 125.538 107.617 125.61 107.789L125.71 108.029L125.811 108.27C125.872 108.417 125.939 108.567 126.011 108.715L126.127 108.957L126.245 109.198C126.353 109.423 126.427 109.662 126.463 109.91L126.501 110.173L126.541 110.438C126.568 110.623 126.591 110.81 126.611 110.999L126.64 111.268L126.669 111.539C126.692 111.75 126.701 111.965 126.695 112.179L126.687 112.455L126.68 112.73C126.671 113.057 126.567 113.361 126.382 113.626L126.056 114.093C125.978 114.205 125.92 114.316 125.878 114.423L125.689 114.917C125.611 115.12 125.514 115.316 125.402 115.502L125.128 115.958C125.036 116.111 124.941 116.267 124.845 116.422L124.704 116.651L124.561 116.88C124.464 117.038 124.363 117.198 124.258 117.358L124.105 117.592L123.953 117.827C123.765 118.114 123.5 118.322 123.18 118.439L122.912 118.537L122.644 118.634C122.504 118.685 122.378 118.745 122.265 118.811L122.036 118.947L121.806 119.082C121.663 119.166 121.52 119.255 121.378 119.348L120.925 119.645C120.775 119.744 120.62 119.845 120.463 119.948L120.227 120.102L119.991 120.257C119.689 120.455 119.345 120.531 118.992 120.489L118.704 120.455L118.417 120.419C118.325 120.408 118.248 120.417 118.18 120.44L117.659 120.616C117.266 120.748 116.877 120.681 116.546 120.49L116.278 120.333L116.05 120.202L115.833 120.296L115.561 120.414C115.294 120.529 115.01 120.59 114.717 120.584L114.441 120.58L114.166 120.575C113.77 120.567 113.432 120.393 113.176 120.126L112.963 119.904L112.75 119.681C112.746 119.678 112.742 119.675 112.74 119.672L112.474 119.668L112.191 119.665C112.054 119.663 111.97 119.678 111.925 119.692L111.519 119.817C111.408 119.851 111.274 119.9 111.119 119.962L110.611 120.167C110.332 120.28 110.038 120.32 109.741 120.293L109.457 120.267L109.171 120.241C109.053 120.23 108.949 120.239 108.857 120.26L108.339 120.383C108.049 120.452 107.754 120.445 107.467 120.37L107.202 120.298L106.936 120.228C106.84 120.203 106.752 120.197 106.669 120.207L106.408 120.235L106.146 120.264C105.987 120.282 105.821 120.306 105.65 120.335L105.374 120.382L105.097 120.43C104.807 120.48 104.515 120.464 104.232 120.376L103.973 120.297L103.715 120.217C103.539 120.163 103.363 120.107 103.188 120.049L102.931 119.965L102.674 119.88C102.456 119.809 102.241 119.713 102.033 119.597L101.828 119.483L101.656 119.744C101.54 119.918 101.376 120.084 101.15 120.187C100.92 120.292 100.681 120.307 100.463 120.268L100.167 120.215L99.8696 120.162C99.796 120.149 99.7574 120.159 99.7319 120.17L99.481 120.279L99.23 120.388C98.8773 120.542 98.5058 120.535 98.1626 120.4L97.8901 120.293L97.6187 120.186C97.5628 120.164 97.5348 120.168 97.5161 120.172L96.9927 120.301C96.7976 120.349 96.5978 120.389 96.395 120.42L96.1206 120.463L95.8462 120.505C95.4874 120.561 95.14 120.483 94.8384 120.289L94.6001 120.135L94.3628 119.981C94.2312 119.896 94.102 119.826 93.978 119.769L93.5034 119.552C93.4023 119.506 93.2804 119.467 93.1362 119.439L92.8462 119.382L92.5571 119.327C92.4657 119.309 92.4051 119.316 92.3628 119.329L92.1118 119.407L91.8608 119.484C91.782 119.508 91.7002 119.549 91.6157 119.615L91.1724 119.96C90.969 120.119 90.745 120.245 90.5044 120.334L90.2476 120.43L89.9907 120.527C89.6892 120.639 89.3729 120.659 89.061 120.593L88.5083 120.476C88.3603 120.445 88.2189 120.426 88.0854 120.42L87.8208 120.41L87.5571 120.399C87.4361 120.394 87.309 120.402 87.1763 120.425L86.9038 120.475L86.6304 120.524C86.2241 120.597 85.8471 120.476 85.5474 120.227L85.3169 120.036L85.1167 119.87L84.8628 119.921L84.5688 119.981C84.1791 120.059 83.7839 119.977 83.4624 119.706L83.2495 119.526L83.1304 119.425L82.981 119.476L82.7163 119.566C82.497 119.64 82.2733 119.693 82.0474 119.722L81.7817 119.755L81.5151 119.79C81.5065 119.791 81.4766 119.795 81.4214 119.847L81.1978 120.057L80.9731 120.266C80.7108 120.512 80.3789 120.667 79.9976 120.671L79.7222 120.675L79.4478 120.678C79.1421 120.682 78.849 120.608 78.5786 120.474L78.3101 120.34L78.1284 120.25L77.9087 120.389L77.6294 120.564C77.4407 120.682 77.1941 120.771 76.9126 120.743C76.6295 120.714 76.4051 120.574 76.2437 120.417L76.0122 120.19L75.8198 120.001L75.6079 120.046L75.3159 120.109C74.8766 120.202 74.4547 120.067 74.1509 119.731L73.9526 119.512L73.8892 119.442L73.8247 119.469L73.562 119.576C73.3164 119.675 73.0593 119.733 72.7954 119.749L72.5181 119.765L72.2407 119.781C72.2031 119.783 72.1689 119.793 72.1255 119.827L71.6685 120.176C71.3184 120.444 70.8961 120.499 70.4937 120.362L70.2104 120.265L69.9272 120.167C69.8015 120.124 69.6998 120.11 69.6196 120.11L69.3618 120.111L69.105 120.112C68.9437 120.112 68.7815 120.116 68.6196 120.124L68.3618 120.135L68.103 120.147C67.9892 120.152 67.8627 120.172 67.7231 120.209L67.4458 120.285L67.1675 120.36C66.8514 120.445 66.5231 120.439 66.2075 120.325L65.9546 120.233L65.7007 120.14C65.5155 120.073 65.3328 119.999 65.1548 119.918L64.9116 119.808L64.6685 119.699C64.5291 119.636 64.3759 119.575 64.2104 119.518L63.9331 119.423L63.6724 119.333L63.4868 119.435L63.2563 119.559C63.1344 119.625 63.009 119.705 62.8813 119.799L62.6528 119.967L62.4243 120.136C62.1917 120.308 61.9297 120.426 61.645 120.482L61.3784 120.535L61.1108 120.587C60.9077 120.627 60.7019 120.657 60.4956 120.674L60.2251 120.697L59.9536 120.72C59.633 120.747 59.3246 120.68 59.0425 120.541L58.5151 120.279C58.426 120.235 58.3575 120.222 58.3052 120.222H57.7798C57.6655 120.222 57.5347 120.237 57.3872 120.271L57.0972 120.337L56.8071 120.405C56.428 120.492 56.044 120.428 55.7153 120.196L55.2524 119.868C55.1123 119.768 54.9567 119.666 54.7876 119.562L54.5161 119.395L54.2905 119.255L54.1567 119.315L53.9185 119.419C53.7841 119.478 53.6495 119.545 53.5161 119.622L53.0513 119.887C52.7708 120.047 52.4599 120.115 52.1401 120.09L51.8687 120.07L51.5972 120.048C51.5632 120.046 51.5282 120.051 51.479 120.079L51.231 120.218L50.9819 120.359C50.6942 120.521 50.3717 120.593 50.0356 120.554L49.7681 120.523L49.5015 120.493C49.3692 120.477 49.2349 120.474 49.1001 120.485L48.8306 120.505L48.5601 120.527C48.23 120.552 47.9139 120.474 47.6323 120.309L47.3901 120.167L47.1655 120.035C47.1611 120.036 47.1549 120.038 47.1479 120.04L46.8413 120.123L46.5356 120.207C46.1762 120.305 45.7924 120.282 45.4438 120.079L45.2036 119.939L44.9634 119.798C44.8356 119.724 44.7077 119.663 44.5815 119.615L44.3345 119.521V119.52L44.272 119.602L44.0806 119.852C43.8678 120.129 43.5777 120.341 43.2144 120.423L42.9468 120.484L42.6792 120.545C42.4608 120.595 42.2387 120.625 42.0151 120.635L41.7417 120.649L41.4683 120.662C41.2331 120.673 40.9981 120.658 40.7661 120.617L40.4956 120.568L40.2251 120.52C40.0135 120.482 39.8048 120.431 39.6021 120.365L39.0884 120.197C38.9793 120.161 38.8722 120.143 38.7671 120.14L38.5044 120.131L38.2427 120.124C38.124 120.12 37.9886 120.13 37.8364 120.158L37.5435 120.21L37.2505 120.264C37.0409 120.302 36.8127 120.291 36.5913 120.203C36.3722 120.115 36.2031 119.968 36.0776 119.805L35.8872 119.558L35.8179 119.468L35.7759 119.483L35.5142 119.573C35.3991 119.612 35.2905 119.667 35.188 119.736L34.7251 120.048C34.3792 120.282 33.9836 120.322 33.6099 120.22L33.3101 120.138L33.0103 120.057C32.8933 120.025 32.8163 120.026 32.769 120.035L32.5142 120.082L32.2583 120.127C32.2202 120.134 32.1505 120.158 32.0483 120.235L31.7915 120.427L31.5356 120.621C31.245 120.839 30.8897 120.964 30.4985 120.921L30.2241 120.892L29.9487 120.862C29.6051 120.824 29.3022 120.677 29.0493 120.462L28.8081 120.257L28.5669 120.053C28.484 119.983 28.4326 119.968 28.4126 119.964L27.9009 119.878C27.7349 119.85 27.5649 119.823 27.3931 119.797L27.1284 119.757L26.8647 119.717C26.6957 119.692 26.5354 119.67 26.3862 119.653L26.1489 119.625L25.9126 119.597C25.8428 119.589 25.7545 119.591 25.645 119.615L25.3804 119.673L25.1157 119.731C25.003 119.756 24.8956 119.795 24.7935 119.849L24.5542 119.976L24.3149 120.104C24.121 120.207 23.9183 120.293 23.7095 120.364L23.4507 120.452L23.1919 120.539C22.9997 120.603 22.8023 120.66 22.603 120.708L22.3335 120.773L22.064 120.838C21.7119 120.924 21.3635 120.875 21.0483 120.723L20.7798 120.593L20.5103 120.463C20.4086 120.414 20.3253 120.397 20.2583 120.394L19.9937 120.384L19.728 120.375C19.4843 120.365 19.2447 120.322 19.0132 120.245L18.7612 120.161L18.5083 120.077C18.3796 120.034 18.2466 120.002 18.1099 119.981L17.8442 119.94L17.5786 119.9C17.4077 119.874 17.2304 119.85 17.0483 119.827L16.4858 119.754C16.2872 119.729 16.1019 119.7 15.9331 119.667L15.7046 119.625L15.5356 119.591L15.3247 119.733L15.0981 119.884C14.909 120.011 14.7078 120.118 14.4976 120.206L13.9937 120.417C13.7001 120.539 13.3885 120.572 13.0767 120.521L12.8013 120.476L12.5269 120.43C12.4741 120.421 12.4228 120.426 12.3608 120.45L12.0933 120.555L11.8267 120.66C11.5374 120.773 11.2301 120.811 10.9194 120.762L10.6489 120.719L10.3794 120.676C10.1085 120.633 9.8514 120.54 9.61475 120.401L9.37061 120.257L9.12549 120.114C9.03217 120.059 8.94468 120.028 8.86182 120.014L8.33838 119.926C8.11493 119.889 7.89666 119.828 7.68604 119.745L7.43896 119.647L7.19287 119.549C6.92041 119.441 6.68458 119.272 6.4917 119.054L6.30908 118.847L6.16455 118.685L5.83447 118.699L5.50049 118.711C5.12322 118.726 4.73672 118.619 4.43799 118.318L4.24268 118.121L4.04834 117.923C3.84319 117.716 3.69012 117.471 3.59033 117.198L3.49072 116.924L3.39209 116.652C3.36812 116.586 3.33568 116.544 3.29541 116.511L2.86182 116.16C2.66874 116.003 2.49874 115.821 2.354 115.619L2.19189 115.392L2.02979 115.165C1.88049 114.955 1.76446 114.727 1.68408 114.483L1.51025 113.954C1.43772 113.733 1.38727 113.506 1.35986 113.276L1.32764 113L1.29443 112.725C1.27212 112.537 1.2522 112.348 1.23389 112.161L1.20654 111.886L1.18018 111.613C1.15555 111.361 1.16791 111.108 1.21729 110.86L1.271 110.589L1.32568 110.319C1.36087 110.142 1.39406 109.966 1.42627 109.792L1.47607 109.524L1.5249 109.257C1.57214 109.002 1.6615 108.758 1.78955 108.532L1.92432 108.293L2.05811 108.056C2.13402 107.922 2.20198 107.785 2.26025 107.647L2.36377 107.399L2.46826 107.152C2.54043 106.98 2.61627 106.807 2.6958 106.633L2.92627 106.131C3.06794 105.822 3.29676 105.58 3.59033 105.417L3.83838 105.278L4.0874 105.14C4.10891 105.128 4.12821 105.112 4.14893 105.065L4.26904 104.79L4.38818 104.515C4.43775 104.401 4.49892 104.293 4.57178 104.193C4.45064 104.098 4.34263 103.983 4.25342 103.849L4.10205 103.622L3.95068 103.395C3.85139 103.246 3.75347 103.098 3.65674 102.956L3.50928 102.739L3.36182 102.521C3.33635 102.483 3.28659 102.432 3.18799 102.377L2.91846 102.228L2.64795 102.079C2.25886 101.863 2.016 101.489 2.00537 101.027L1.99854 100.731L1.99268 100.435C1.98991 100.312 1.96882 100.212 1.93799 100.131L1.84229 99.8823L1.74658 99.6343C1.6786 99.4576 1.61359 99.2762 1.55322 99.0923L1.3833 98.5728C1.28632 98.2773 1.27232 97.9703 1.33936 97.6675L1.4585 97.1284C1.4824 97.0208 1.48891 96.9129 1.479 96.8052L1.42822 96.2583C1.4058 96.0168 1.41429 95.7744 1.45264 95.5347L1.49658 95.2632L1.53955 94.9907C1.59192 94.6641 1.73908 94.3748 1.96143 94.1362L2.15674 93.9263L2.35303 93.7173C2.47118 93.5906 2.57796 93.4659 2.67334 93.3452L2.83643 93.1392L2.99951 92.9321C3.04215 92.878 3.08047 92.8057 3.10693 92.7065L3.18018 92.4292L3.25439 92.1519C3.32162 91.899 3.42497 91.6597 3.56396 91.439L3.86475 90.9624C4.0077 90.7356 4.18526 90.5369 4.396 90.3716L4.50342 90.2866C4.30124 90.1921 4.11693 90.0644 3.95752 89.9028L3.76611 89.7085L3.57471 89.5151C3.41383 89.3518 3.26988 89.1722 3.14502 88.98L2.84814 88.5229C2.70535 88.3029 2.6027 88.0623 2.54053 87.8071L2.40967 87.27C2.37139 87.1126 2.32688 86.9625 2.27783 86.8218L2.19287 86.5757L2.10693 86.3296C2.08399 86.2638 2.03862 86.1828 1.95654 86.0884L1.7583 85.8599L1.55908 85.6313C1.41736 85.4686 1.30702 85.2601 1.2749 85.0132C1.24329 84.768 1.2969 84.5415 1.38623 84.3511L1.51904 84.0679L1.65186 83.7856C1.68912 83.7064 1.6858 83.6676 1.68408 83.6558L1.64307 83.394L1.60107 83.1323C1.56893 82.93 1.54903 82.7229 1.54053 82.5142L1.52979 82.2407L1.51807 81.9673C1.50951 81.7562 1.51398 81.5418 1.53076 81.3267L1.55322 81.0444L1.57471 80.7612L1.59521 80.6089C1.662 80.2626 1.86005 79.9786 2.13916 79.7769L2.38916 79.5972L2.63818 79.4165C2.7627 79.3265 2.85334 79.2402 2.91748 79.1616L3.08252 78.9595L3.24658 78.7583C3.27707 78.7209 3.31196 78.6592 3.33545 78.5562L3.40186 78.2642L3.46729 77.9722C3.53351 77.6801 3.65913 77.4095 3.84814 77.1743L4.02393 76.9565L4.19873 76.7388C4.32447 76.5826 4.47365 76.4564 4.63818 76.3579C4.5005 76.1703 4.41703 75.9447 4.40088 75.6938L4.38135 75.4009L4.36279 75.1079C4.35998 75.0642 4.34899 75.0396 4.32666 75.0132L4.13818 74.7935L3.95068 74.5747C3.69483 74.2758 3.58468 73.9045 3.63721 73.5132L3.67529 73.229L3.71338 72.9438C3.71939 72.899 3.71384 72.8618 3.69092 72.8159L3.4292 72.2964C3.26653 71.9742 3.22304 71.6179 3.31787 71.2622L3.39014 70.9917L3.46338 70.7202C3.50112 70.579 3.52575 70.439 3.5376 70.3022L3.56006 70.0327L3.5835 69.7622C3.60717 69.4877 3.68434 69.225 3.81201 68.981L4.06592 68.4966C4.11239 68.4078 4.14408 68.3107 4.15967 68.2046L4.19971 67.9282L4.24072 67.6528L4.26807 67.5132C4.34728 67.195 4.532 66.9284 4.79639 66.7339L4.99756 66.5854C4.99103 66.5815 4.98355 66.5755 4.9751 66.5708L4.72803 66.438L4.47998 66.3052C4.07325 66.0869 3.87211 65.7043 3.82275 65.3032L3.78271 64.9741L3.75049 64.7124L3.56396 64.6284L3.2876 64.5034C2.97742 64.363 2.71625 64.1373 2.54932 63.8228L2.42139 63.5825L2.29443 63.3413C2.20118 63.1653 2.11349 62.9849 2.03369 62.8022L1.92432 62.5522L1.81592 62.3013C1.74233 62.1327 1.66756 61.9614 1.59424 61.7886L1.48584 61.5317L1.37646 61.2749C1.21578 60.896 1.24884 60.5057 1.40576 60.1597L1.53662 59.8726L1.6665 59.5845C1.71042 59.4877 1.71069 59.4346 1.7085 59.4136L1.6792 59.1548L1.64893 58.895C1.63237 58.7507 1.60636 58.5973 1.56982 58.437L1.50635 58.1606L1.44385 57.8853C1.37666 57.5908 1.38066 57.2898 1.4624 56.9966L1.53564 56.7349L1.60889 56.4722C1.66723 56.2633 1.74075 56.0591 1.82959 55.8618L1.94092 55.6147L2.05322 55.3667C2.11199 55.2362 2.16188 55.097 2.20264 54.9507L2.35303 54.4097C2.44259 54.0877 2.62305 53.8127 2.88037 53.6011L3.31787 53.2417C3.39447 53.1787 3.45487 53.106 3.50146 53.022L3.63721 52.7769L3.77295 52.5308L3.85986 52.395C4.07725 52.096 4.39692 51.9307 4.74561 51.8823L5.05811 51.8384L5.36963 51.7954C5.46589 51.782 5.49918 51.7566 5.50635 51.7505L5.70264 51.5776L5.89795 51.4058C6.09349 51.2341 6.31608 51.1017 6.56006 51.0112L6.80322 50.9214L6.94189 50.8687L6.96924 50.7661L7.02881 50.5347C7.02846 50.5315 7.02676 50.5192 7.01904 50.4995L6.92139 50.2544L6.82373 50.0083C6.8237 50.0082 6.81392 49.9782 6.73877 49.9302L6.47217 49.7603L6.20654 49.5913C6.03467 49.482 5.87295 49.3275 5.76416 49.1187C5.65415 48.9069 5.62054 48.6805 5.63916 48.4663L5.66455 48.1733L5.69092 47.8804C5.69772 47.8028 5.68432 47.7487 5.66357 47.7046L5.54541 47.4556L5.42725 47.2056C5.26589 46.8654 5.25262 46.4991 5.37061 46.1509L5.4624 45.8794L5.55518 45.6079C5.6048 45.4617 5.63816 45.3254 5.65771 45.2007L5.69678 44.9458L5.73682 44.6909C5.74409 44.6442 5.7435 44.5745 5.7124 44.4741L5.62354 44.1899L5.53467 43.9067C5.40196 43.481 5.49279 43.0484 5.80029 42.7144L5.99756 42.5005L6.1958 42.2856C6.26708 42.2083 6.30361 42.1397 6.32275 42.0825L6.40479 41.8354L6.48682 41.5894C6.56431 41.3557 6.67602 41.1371 6.8208 40.938L6.97412 40.728L7.12646 40.5181C7.23616 40.3674 7.3507 40.22 7.46826 40.0767L7.79443 39.6782C7.82104 39.6458 7.86076 39.5793 7.89111 39.4536L7.96631 39.144L8.04053 38.8335L8.08545 38.6831C8.13977 38.5336 8.22428 38.386 8.34814 38.2573C8.51608 38.0831 8.72247 37.9794 8.93408 37.9302L9.22314 37.8628L9.51123 37.7964C9.69127 37.7545 9.86003 37.7096 10.0161 37.6636L10.2388 37.5981L10.2368 37.5571L10.2163 37.2534C10.1942 36.9259 10.2565 36.6048 10.4136 36.311L10.5503 36.0571L10.686 35.8032C10.7078 35.7626 10.7091 35.738 10.7056 35.7124L10.6665 35.438L10.6274 35.1646C10.5965 34.9485 10.5805 34.7274 10.5796 34.5044L10.5786 34.2163L10.5776 33.9292C10.5762 33.5397 10.7274 33.1893 11.0073 32.9224L11.2183 32.7222L11.4282 32.521C11.4867 32.4653 11.5209 32.4098 11.5405 32.3501L11.6265 32.0845L11.7134 31.8188C11.8219 31.486 12.0325 31.2139 12.3247 31.0239L12.5601 30.8706L12.7964 30.7173C12.8915 30.6554 12.9684 30.5848 13.0298 30.5073L13.1968 30.2954L13.3638 30.0845C13.5041 29.9069 13.6619 29.7434 13.8345 29.5962L14.0405 29.4204L14.2476 29.2437C14.3941 29.1187 14.5461 28.9954 14.7017 28.8755L14.9214 28.7065L15.1421 28.5366L15.2749 28.4458C15.5911 28.2592 15.9469 28.2342 16.2798 28.3149L16.5952 28.3921L16.8247 28.4468L16.9722 28.2925L17.187 28.0649C17.4289 27.8091 17.7412 27.6304 18.1138 27.5894L18.3872 27.5591L18.6606 27.5298C18.7279 27.5224 18.7787 27.513 18.814 27.5044C18.8433 27.4972 18.8575 27.4917 18.8599 27.4907L19.0044 27.4204L19.0396 27.2515L19.0913 26.9927C19.1212 26.8453 19.1442 26.6935 19.1587 26.5405L19.2095 26.0073C19.2416 25.6685 19.3815 25.3667 19.6069 25.1206L19.7954 24.9146L19.9849 24.7085C20.0397 24.6486 20.0699 24.591 20.0864 24.5337L20.1597 24.2788L20.2319 24.0239C20.2864 23.8327 20.3508 23.6402 20.4243 23.4497L20.6235 22.936C20.7442 22.6236 20.9525 22.3674 21.2349 22.187L21.4673 22.0396L21.6997 21.8911C21.8539 21.7927 22.0051 21.6961 22.1519 21.6021L22.5933 21.3188C22.7236 21.2353 22.8506 21.1464 22.9722 21.0532L23.1792 20.894L23.3862 20.7358C23.4885 20.6574 23.5933 20.5617 23.6987 20.4478L23.894 20.2358L24.0903 20.0249C24.3314 19.7643 24.6432 19.5986 25.0034 19.5581L25.2778 19.5278L25.5532 19.4966C25.7664 19.4727 25.9796 19.4632 26.1909 19.4673L26.73 19.4771C26.7716 19.4777 26.8251 19.4688 26.8979 19.4282L27.1567 19.2837L27.4146 19.1401C27.6828 18.9906 27.977 18.9061 28.2876 18.9019L28.5649 18.8979L28.8423 18.895C29.108 18.8915 29.3698 18.9321 29.6216 19.0171L29.8853 19.1069L30.1489 19.1958C30.3556 19.2656 30.5564 19.3496 30.7495 19.4468L30.9946 19.5698L31.019 19.5815C31.1204 19.4795 31.2504 19.3656 31.3979 19.2437L31.6167 19.063L31.8364 18.8813C31.9752 18.7666 32.1059 18.6537 32.2271 18.5444L32.4214 18.3696L32.6157 18.1938C32.6984 18.1192 32.77 18.0348 32.8306 17.9409L32.9731 17.7202L33.1147 17.5005C33.2562 17.281 33.4341 17.092 33.645 16.938L34.0649 16.6313C34.1168 16.5934 34.1779 16.5309 34.2397 16.4282L34.394 16.1704L34.5493 15.9126C34.7188 15.6308 34.9574 15.4031 35.2642 15.2603L35.5151 15.1431L35.7651 15.0269C36.0603 14.8896 36.3765 14.8458 36.6938 14.8843L36.9858 14.9204L37.2778 14.9556C37.4367 14.9748 37.5807 14.9798 37.7085 14.9731L38.23 14.9458C38.4194 14.9359 38.609 14.932 38.7964 14.9351L39.0532 14.9399L39.3101 14.9438C39.3725 14.9448 39.4544 14.9317 39.5591 14.8892L39.8306 14.7788L40.103 14.6685C40.4004 14.5474 40.7191 14.5063 41.0425 14.5679L41.5757 14.6694C41.7468 14.702 41.9216 14.7335 42.0981 14.7622L42.3726 14.8071L42.647 14.8511C42.8276 14.8805 42.9633 14.9018 43.0552 14.9146L43.1938 14.9331L43.3716 14.7847L43.5815 14.6089C43.6133 14.5822 43.6397 14.5479 43.6587 14.4888L43.7456 14.2163L43.8325 13.9429C43.963 13.5349 44.2634 13.2457 44.6665 13.1216L44.9448 13.0356L45.2241 12.9507C45.2697 12.9366 45.2848 12.9207 45.2964 12.9048L45.6187 12.4575C45.8282 12.1671 46.1234 11.9728 46.4761 11.8979L47.0093 11.7847C47.0407 11.7779 47.0755 11.7631 47.1196 11.7183L47.3237 11.5103L47.5269 11.3022C47.7665 11.0581 48.0694 10.8983 48.4194 10.854L48.689 10.8198L48.9595 10.7856C49.231 10.7514 49.5021 10.7702 49.7671 10.8384L50.0386 10.9077L50.272 10.9683C50.273 10.9675 50.2747 10.9662 50.2759 10.9653L50.5444 10.7837L50.814 10.6011L50.9546 10.5181C51.1042 10.4413 51.2791 10.3887 51.4741 10.3882ZM71.2446 48.3667L71.0884 48.4409L71.0903 48.5288L71.0952 48.8013C71.0983 48.9651 71.1081 49.1312 71.1235 49.2983L71.1489 49.5757L71.1743 49.8521C71.2109 50.2495 71.0752 50.6068 70.8306 50.8911L70.6304 51.1235L70.4331 51.3511L70.4634 51.5972L70.4956 51.8755C70.5206 52.0861 70.5342 52.2961 70.5356 52.5044L70.5376 52.7769L70.5396 53.0483C70.5413 53.3131 70.4969 53.5729 70.4067 53.8218L70.3149 54.0747L70.2231 54.3286C70.1775 54.4548 70.1445 54.5828 70.1245 54.7124L70.0845 54.9761L70.0435 55.2397C69.9979 55.5349 69.8809 55.8051 69.7104 56.0454L69.5415 56.2847L69.4185 56.4565L69.5044 56.6899L69.6128 56.9829C69.6676 57.1324 69.7202 57.3383 69.6909 57.564C69.6568 57.8254 69.5161 58.0687 69.2739 58.2222L69.1157 58.3228L68.9565 58.4233C68.8114 58.5152 68.6361 58.6041 68.4429 58.6909L68.1763 58.811L67.9097 58.9302C67.6159 59.0621 67.2966 59.1131 66.9702 59.0601L66.7036 59.0171L66.437 58.9731C66.3115 58.9527 66.1868 58.9469 66.063 58.9546L65.7954 58.9712L65.5288 58.9878C65.288 59.0029 65.0475 58.9861 64.8101 58.938L64.5435 58.8843L64.2769 58.8296C64.2694 58.8281 64.2518 58.8232 64.2017 58.8481L63.6685 59.1138C63.3252 59.2848 62.9439 59.3164 62.5728 59.1802L62.3062 59.0815L62.0396 58.9839C61.944 58.9487 61.8369 58.9288 61.7153 58.9282L61.4146 58.9272L61.1147 58.9263C60.9366 58.9255 60.6054 58.8861 60.3657 58.603C60.1161 58.3076 60.1454 57.9633 60.188 57.7769L60.2524 57.4985L60.3159 57.2202C60.3441 57.0972 60.3529 56.9833 60.3462 56.8784L60.3286 56.6118L60.312 56.3452C60.3044 56.2271 60.282 56.1097 60.2446 55.9937L60.1606 55.7358L60.0776 55.478C60.0345 55.3446 59.9786 55.2101 59.9097 55.0757L59.6519 54.5737C59.446 54.1723 59.4852 53.7503 59.6665 53.3892L59.9575 52.8091L59.8716 52.6001L59.7671 52.3452C59.6819 52.1383 59.6149 51.9263 59.5679 51.7104L59.5112 51.4487L59.4546 51.188C59.3993 50.9341 59.3885 50.6751 59.4194 50.4165L59.4517 50.1431L59.4819 49.8843C59.4797 49.8808 59.4772 49.875 59.4731 49.8696L59.2954 49.6411L59.2388 49.7134C59.1697 49.8003 59.1311 49.8804 59.1099 49.9536L59.0356 50.2104L58.9614 50.4663C58.8989 50.6828 58.815 50.893 58.7104 51.0952L58.5845 51.3384L58.4585 51.5825C58.4467 51.6056 58.4385 51.631 58.4458 51.6821L58.4868 51.9683L58.5278 52.2534C58.5585 52.4663 58.5786 52.6783 58.5874 52.8882L58.6108 53.4448C58.6228 53.7333 58.5733 54.0155 58.4585 54.2817L58.3511 54.5298L58.2446 54.7778C58.1984 54.8852 58.1678 54.9953 58.1519 55.1089L58.1138 55.3745L58.0767 55.6401C58.0455 55.8621 57.9933 56.0798 57.9204 56.2915L57.7466 56.7974C57.6466 57.0879 57.4742 57.3374 57.2583 57.5474L57.0337 57.7651L56.8091 57.9839C56.7579 58.0336 56.7279 58.0709 56.7114 58.0942C56.706 58.102 56.7024 58.1071 56.7007 58.1099L56.645 58.2827L56.5854 58.4692C56.5121 58.6954 56.3576 58.8923 56.1323 59.0132C55.9281 59.1226 55.7171 59.1415 55.5542 59.1353L55.2876 59.1255L55.02 59.1147C54.81 59.1065 54.5998 59.0842 54.3911 59.0474L54.1245 58.9995L53.8579 58.9526C53.7787 58.9387 53.6999 58.9411 53.6167 58.9614L53.3501 59.0269L53.0835 59.0913C52.7645 59.1692 52.4432 59.1477 52.1382 59.0366L51.8716 58.9399L51.605 58.8423C51.5647 58.8276 51.5401 58.8289 51.5103 58.8374L50.9771 58.9897C50.6484 59.0836 50.3138 59.0658 49.9976 58.9468L49.4644 58.7456C49.4023 58.7222 49.356 58.7211 49.313 58.729L49.0454 58.7788L48.7788 58.8286C48.5547 58.8706 48.3286 58.8893 48.1021 58.8853L47.8354 58.8813L47.5688 58.8765C47.5021 58.8753 47.425 58.8881 47.3325 58.9282L47.0649 59.0444L46.7983 59.1606C46.5161 59.2834 46.2128 59.3359 45.9009 59.3003L45.6343 59.27L45.3677 59.2388C45.172 59.2163 44.9758 59.1864 44.7808 59.1489L44.5142 59.0981L44.2476 59.0464C44.1638 59.0303 44.0816 59.0312 43.9966 59.0493L43.73 59.106L43.4634 59.1636C43.0976 59.2416 42.7448 59.1699 42.436 58.9985L41.9028 58.7017C41.8848 58.6916 41.8732 58.6873 41.8687 58.686L41.606 58.7476L41.3394 58.8081C41.0904 58.8648 40.8372 58.882 40.5835 58.8589L40.0503 58.8101C39.9786 58.8035 39.9014 58.812 39.814 58.8423L39.5474 58.9341L39.2808 59.0269C39.0091 59.1209 38.6756 59.1674 38.3423 59.0415L38.1548 58.9702L37.9673 58.8999C37.7497 58.8176 37.5672 58.6622 37.4526 58.4487C37.347 58.2515 37.3214 58.047 37.3237 57.8813L37.3276 57.6099L37.3315 57.3374C37.3327 57.2561 37.3181 57.1797 37.2856 57.103L37.1782 56.8511L37.0718 56.6001C36.9698 56.3604 36.9093 56.1087 36.8921 55.8491L36.8735 55.5815L36.856 55.313C36.8451 55.1491 36.8297 54.9856 36.8091 54.8237L36.7749 54.5581L36.7417 54.2935C36.7397 54.278 36.7314 54.2391 36.6733 54.1724L36.4702 53.938L36.2661 53.7046C36.0075 53.4076 35.8754 53.0292 35.9409 52.6138L36.0288 52.0552C36.0451 51.9521 36.041 51.8621 36.0229 51.7808L35.9077 51.2593C35.886 51.1616 35.8468 51.0612 35.7866 50.9575L35.644 50.7124L35.5815 50.605C35.5745 50.6499 35.567 50.6951 35.5581 50.7397L35.5063 51.0015L35.4536 51.2632C35.4238 51.4121 35.4019 51.563 35.3882 51.7153L35.3647 51.9829L35.3403 52.2495C35.3085 52.6016 35.1553 52.907 34.9341 53.1567L34.522 53.6216C34.4392 53.7151 34.3968 53.7949 34.3755 53.8599L34.2925 54.1157L34.2153 54.3472C34.218 54.3562 34.2236 54.3718 34.2339 54.3931L34.3784 54.6919L34.5229 54.9897C34.6973 55.3491 34.74 55.7751 34.5259 56.1792L34.396 56.4263L34.2651 56.6724C34.2272 56.744 34.2106 56.8103 34.2085 56.8774L34.1997 57.1479L34.1919 57.4175C34.1815 57.7553 34.0536 58.132 33.6958 58.3735L33.52 58.4917L33.3452 58.6099C33.1843 58.7184 32.9975 58.8166 32.7954 58.9067L32.5288 59.0259L32.2622 59.144C31.9955 59.263 31.7108 59.3258 31.4155 59.3159L31.1489 59.3062L30.8813 59.2974C30.7346 59.2924 30.587 59.297 30.4399 59.311L29.9067 59.3618C29.5422 59.3966 29.2066 59.2893 28.9204 59.105L28.6538 58.9331L28.4741 58.8169L28.311 58.9058L28.0444 59.0503C27.8031 59.181 27.5467 59.2727 27.2778 59.313L26.7446 59.3931C26.4338 59.4396 26.1282 59.3977 25.8413 59.2827L25.5747 59.1753L25.3081 59.0688C25.29 59.0616 25.2795 59.0603 25.2759 59.0601C25.2736 59.06 25.2668 59.0598 25.2534 59.064L24.7202 59.2319C24.4966 59.3025 24.2686 59.3492 24.0386 59.3706L23.772 59.396L23.5054 59.4204C23.2641 59.4429 23.0219 59.433 22.7827 59.3911L22.2495 59.2974C22.0191 59.2569 21.7922 59.1903 21.5708 59.1001L21.3042 58.9917L21.0376 58.8823C20.9188 58.8339 20.8072 58.8069 20.7026 58.7964L20.436 58.77L20.1685 58.7437C20.018 58.7287 19.8674 58.7218 19.7173 58.7241L19.4507 58.729L19.1841 58.7329C18.9817 58.7361 18.7787 58.7283 18.5767 58.7104L18.0435 58.6636C17.9334 58.6538 17.8225 58.6601 17.7095 58.6821L17.4429 58.7339L17.1753 58.7856C16.9827 58.8233 16.7892 58.8546 16.5962 58.8794L16.2271 58.9263C16.1793 59.0197 16.127 59.1136 16.0659 59.2046L15.9946 59.3101L15.9087 59.2749L15.645 59.1675L15.5063 59.1196C15.1807 59.0249 14.8481 59.0583 14.5425 59.2007L14.271 59.3276L14.0005 59.4536C13.9665 59.4694 13.9488 59.4692 13.9224 59.4624L13.6382 59.3901L13.354 59.3169L13.1919 59.2856C12.8708 59.2444 12.5641 59.3282 12.3081 59.519L12.1851 59.6235L11.9663 59.8306L11.7515 60.0347L11.1421 60.0034C10.6988 59.9808 10.2991 60.1691 10.0454 60.5493L9.88135 60.7954L9.71826 61.0415C9.60948 61.2047 9.50405 61.3611 9.40479 61.5093L9.25537 61.7329L9.10596 61.9556C9.09513 61.9716 9.07557 61.9939 9.01807 62.0161L8.47119 62.2271C8.19398 62.3337 7.94649 62.4958 7.74365 62.7163L7.55811 62.9185L7.37256 63.1196C7.17278 63.3371 7.031 63.593 6.95068 63.8765L6.87549 64.144L6.79932 64.4116C6.73487 64.6396 6.69533 64.8734 6.68213 65.1099L6.6665 65.3872L6.65186 65.6646C6.64712 65.7472 6.62654 65.8135 6.59521 65.8706L6.46729 66.104L6.33838 66.3364C6.23881 66.5174 6.14997 66.706 6.07275 66.8999L5.97314 67.1519L5.87256 67.4028C5.79808 67.59 5.73096 67.7829 5.67236 67.979L5.59326 68.2446L5.51416 68.5093C5.4488 68.7282 5.40423 68.9535 5.38037 69.1812L5.35107 69.4575L5.32275 69.7339C5.28941 70.0543 5.3471 70.3658 5.48584 70.6528L5.61084 70.9126L5.73682 71.1724C5.7837 71.2697 5.80805 71.3619 5.81494 71.4497L5.83643 71.7212L5.85693 71.9937C5.88144 72.3045 5.98742 72.5935 6.16553 72.8472L6.32666 73.0757L6.48682 73.3042C6.5461 73.3889 6.58636 73.4761 6.60986 73.5659L6.74658 74.0894C6.83797 74.4382 7.04608 74.72 7.3335 74.9194L7.56885 75.0835L7.74561 75.2056L7.75537 75.5122L7.76611 75.8442C7.77249 76.0462 7.81869 76.2663 7.94092 76.4692C8.06658 76.6774 8.24757 76.8268 8.45068 76.9214L8.97803 77.1675C9.03617 77.1947 9.07637 77.2297 9.10986 77.2798L9.27002 77.52L9.43018 77.7593C9.60374 78.0192 9.83529 78.2263 10.1177 78.3657L10.3677 78.4897L10.6187 78.6138C10.7958 78.7012 10.9759 78.7845 11.1567 78.8628L11.4116 78.9731L11.6675 79.0835C11.8706 79.1714 12.08 79.2439 12.2944 79.3003L12.5649 79.3716L12.8345 79.4429C13.0841 79.5084 13.3403 79.5349 13.5981 79.5229L13.8774 79.5103L14.1558 79.4976C14.4112 79.4857 14.6617 79.4362 14.9028 79.3511L15.1675 79.2583L15.2866 79.2153C15.3424 79.3995 15.417 79.5779 15.5103 79.7476L15.77 80.2202C15.8246 80.3196 15.8639 80.4234 15.8882 80.5308L15.9478 80.7905L16.0063 81.0513C16.058 81.2793 16.1368 81.4994 16.2407 81.7085L16.3589 81.9468L16.4771 82.1841C16.5109 82.2523 16.534 82.3345 16.5405 82.4351L16.5591 82.7173L16.5767 83.0005C16.5912 83.2247 16.6228 83.4465 16.6714 83.6626L16.7319 83.9321L16.7925 84.2007C16.8464 84.4398 16.9312 84.6697 17.0454 84.8853L17.1714 85.1235L17.2983 85.3628C17.4493 85.6472 17.6737 85.8696 17.9399 86.0337L18.4595 86.354C18.5431 86.4056 18.5801 86.4522 18.5981 86.4849L18.854 86.9497C18.9231 87.0752 18.9855 87.2085 19.0386 87.3472L19.1353 87.6011L19.2329 87.855C19.3489 88.1577 19.546 88.4083 19.8052 88.5962L20.0337 88.7612L20.2622 88.9272C20.2657 88.9299 20.2683 88.9323 20.269 88.9331V88.9321L20.27 88.9341C20.2711 88.9371 20.273 88.944 20.2749 88.9526L20.3364 89.2368L20.3989 89.521C20.455 89.7785 20.5475 90.0236 20.6802 90.2485L20.9556 90.7153C21.1366 91.0216 21.4087 91.2337 21.7231 91.3599L22.0044 91.4731L22.2856 91.5854C22.3541 91.613 22.3727 91.6385 22.3794 91.6489L22.5239 91.8745L22.6694 92.1001C22.7864 92.282 22.9171 92.4546 23.061 92.6147L23.2388 92.812L23.4165 93.0103C23.5343 93.1414 23.6532 93.2733 23.771 93.4048L23.9487 93.604L24.1265 93.8022C24.2559 93.9468 24.3913 94.0873 24.5308 94.2222L24.7222 94.4077L24.9136 94.5923C25.0628 94.7365 25.2224 94.8722 25.3892 94.9966L25.603 95.1558L25.8179 95.3159C25.9244 95.3955 26.0237 95.4853 26.1138 95.5835L26.2944 95.7798L26.4751 95.9771C26.5856 96.0976 26.6944 96.2237 26.7993 96.353L27.1411 96.7749C27.315 96.9889 27.5275 97.163 27.771 97.2925L28.0103 97.4204L28.2505 97.5474C28.3015 97.5745 28.347 97.6142 28.3882 97.6763L28.5435 97.9116L28.6997 98.147C28.8969 98.4443 29.1806 98.6523 29.522 98.7524L29.7944 98.8315L30.0669 98.9116C30.2116 98.954 30.3456 99.0061 30.4673 99.0659L30.7075 99.1841L30.9487 99.3032C30.9523 99.3048 30.9746 99.3159 31.0054 99.3774L31.1431 99.6528L31.2808 99.9292C31.4425 100.252 31.7036 100.515 32.0659 100.649L32.5796 100.838C32.6882 100.878 32.7868 100.932 32.8755 100.998L33.0913 101.158L33.3081 101.318C33.4721 101.439 33.6426 101.553 33.8179 101.656L34.0483 101.792L34.2798 101.927C34.5226 102.07 34.7884 102.157 35.0669 102.192L35.3521 102.227L35.6362 102.263C35.693 102.27 35.7251 102.287 35.7515 102.31L35.9585 102.49L36.1655 102.668C36.3356 102.816 36.518 102.947 36.7104 103.06L36.9419 103.195L37.1724 103.331C37.3774 103.451 37.5961 103.544 37.8247 103.611L38.3442 103.761C38.5089 103.809 38.6728 103.859 38.8335 103.913L39.3413 104.081C39.4137 104.105 39.4859 104.145 39.5581 104.208L39.769 104.396L39.981 104.583C40.1639 104.746 40.3638 104.884 40.5786 104.994L40.8179 105.116L41.0571 105.239C41.252 105.339 41.4557 105.422 41.6646 105.488L41.9214 105.568L42.1772 105.649C42.3802 105.713 42.5885 105.762 42.7993 105.797L43.0669 105.842L43.3345 105.886C43.4744 105.909 43.6105 105.944 43.7417 105.989L44.2495 106.163C44.3649 106.202 44.4789 106.255 44.5894 106.325L44.8228 106.471L45.0562 106.619C45.2801 106.759 45.5237 106.859 45.7817 106.915L46.3091 107.028C46.5547 107.081 46.8063 107.096 47.0591 107.077L47.3413 107.055L47.6245 107.033C47.7326 107.024 47.8263 107.036 47.9097 107.06L48.1655 107.134L48.4224 107.208C48.6064 107.262 48.7924 107.311 48.979 107.353L49.2388 107.413L49.4985 107.471C49.6184 107.498 49.7376 107.541 49.856 107.597L50.104 107.715L50.3511 107.833C50.6561 107.979 50.985 108.018 51.312 107.96L51.5942 107.91L51.8765 107.86C51.8834 107.859 51.8883 107.858 51.8901 107.858C51.8918 107.859 51.8957 107.861 51.9009 107.865L52.3872 108.167C52.7162 108.372 53.091 108.427 53.4624 108.333L53.7456 108.262L54.0278 108.191C54.1631 108.157 54.2873 108.142 54.3999 108.142L54.6665 108.144L54.9341 108.146C54.9411 108.146 54.9688 108.146 55.0278 108.189L55.2729 108.371L55.519 108.551C55.8265 108.778 56.2008 108.882 56.5981 108.804L56.8716 108.75L57.146 108.696C57.2714 108.671 57.3906 108.663 57.5034 108.67L57.769 108.688L58.0347 108.705C58.1884 108.714 58.3428 108.732 58.4956 108.756L58.7593 108.799L59.0229 108.841C59.2308 108.875 59.4408 108.894 59.6509 108.898L59.9175 108.904L60.1831 108.909C60.2939 108.911 60.4074 108.929 60.5239 108.963L60.7886 109.042L61.0522 109.121C61.2494 109.179 61.4486 109.229 61.6479 109.268L61.9126 109.32L62.1782 109.372C62.3738 109.41 62.5713 109.44 62.769 109.462L63.0376 109.492L63.3052 109.522C63.642 109.559 63.9641 109.485 64.2524 109.333L64.7876 109.05C64.9108 108.985 65.0222 108.948 65.1206 108.929L65.6499 108.83C65.8047 108.8 65.9595 108.779 66.1128 108.765L66.3765 108.74L66.6411 108.715C66.7738 108.703 66.9086 108.703 67.0444 108.714L67.5796 108.761C67.8134 108.782 68.0475 108.774 68.2788 108.739L68.5415 108.698L68.8042 108.658C68.914 108.641 69.0274 108.639 69.145 108.653L69.4155 108.684L69.6851 108.716C69.7992 108.73 69.9246 108.76 70.0601 108.813L70.3394 108.921L70.6187 109.031C70.9529 109.161 71.3147 109.177 71.6655 109.044L71.9243 108.947L72.1821 108.849C72.3307 108.793 72.4796 108.746 72.6274 108.708L72.8882 108.64L73.1479 108.573C73.3317 108.525 73.5154 108.473 73.6968 108.417L73.9546 108.338L74.2114 108.259C74.316 108.227 74.4234 108.21 74.5347 108.209L75.0757 108.206C75.2323 108.204 75.3926 108.211 75.5542 108.225L75.8296 108.25L76.106 108.274C76.3494 108.295 76.5924 108.286 76.8315 108.245L77.0972 108.199L77.3618 108.152C77.7287 108.088 78.0266 107.889 78.2544 107.633L78.6899 107.143C78.7207 107.108 78.7416 107.093 78.7495 107.088H78.7476L79.0112 107.047L79.2749 107.007C79.3504 106.996 79.4447 106.997 79.563 107.024L79.856 107.092L80.1499 107.16C80.5544 107.253 80.9567 107.164 81.2827 106.892L81.5073 106.706L81.7319 106.518C81.8416 106.426 81.9504 106.355 82.0562 106.303L82.2974 106.185L82.5386 106.066C82.556 106.057 82.5859 106.046 82.6528 106.056L83.2407 106.144C83.5483 106.19 83.86 106.163 84.1558 106.042L84.4038 105.942L84.6519 105.84C84.7494 105.801 84.8551 105.775 84.9702 105.765L85.521 105.716C85.8642 105.686 86.1714 105.546 86.4233 105.319L86.6362 105.126L86.8491 104.935C86.8636 104.922 86.8736 104.917 86.8774 104.916C86.8805 104.914 86.8886 104.912 86.9048 104.911L87.186 104.896L87.4683 104.881C87.8369 104.862 88.1653 104.712 88.4224 104.454L88.6255 104.249L88.8296 104.043C88.9102 103.962 88.9894 103.909 89.0659 103.874L89.3071 103.763L89.5493 103.653C89.7753 103.549 89.9833 103.413 90.1714 103.248L90.3784 103.065L90.5864 102.882C90.6543 102.823 90.7243 102.784 90.7983 102.76L91.0532 102.678L91.3071 102.595C91.4418 102.552 91.586 102.517 91.7378 102.492L92.0151 102.445L92.2925 102.399C92.5842 102.35 92.8568 102.237 93.0952 102.058L93.3101 101.896L93.5249 101.735C93.5693 101.702 93.626 101.675 93.7085 101.662L93.9927 101.617L94.2759 101.571C94.5417 101.528 94.7958 101.444 95.0298 101.313L95.2642 101.181L95.4985 101.05C95.7627 100.902 95.9761 100.693 96.1401 100.444L96.4624 99.9536C96.5357 99.8422 96.614 99.7555 96.6929 99.689L97.1011 99.3452C97.1258 99.3244 97.1676 99.2995 97.2505 99.2866L97.5464 99.2407L97.8413 99.1958C98.13 99.1514 98.4043 99.0512 98.6489 98.8862L98.8726 98.7358L99.0952 98.5854C99.3137 98.4379 99.5023 98.2544 99.6587 98.0415L99.9888 97.5923C100.044 97.5175 100.106 97.4626 100.175 97.4214L100.408 97.2837L100.641 97.146C100.902 96.992 101.112 96.7792 101.267 96.522L101.413 96.2798L101.558 96.0386C101.57 96.0181 101.581 96.0073 101.612 95.9956L101.88 95.896L102.149 95.7954C102.504 95.6629 102.776 95.4092 102.935 95.0669L103.057 94.8062L103.178 94.5444C103.247 94.3967 103.322 94.2597 103.401 94.1343L103.692 93.6753L103.694 93.6724L103.696 93.6714C103.698 93.6694 103.712 93.6598 103.743 93.6499L104.321 93.4644C104.62 93.3686 104.892 93.2055 105.105 92.9614L105.281 92.7593L105.457 92.5581C105.612 92.3804 105.745 92.184 105.855 91.9731L105.982 91.73L106.109 91.4858C106.15 91.4074 106.203 91.3433 106.268 91.2896L106.688 90.9438C106.963 90.7181 107.131 90.4173 107.204 90.0825L107.266 89.7944L107.328 89.5063C107.329 89.5011 107.33 89.4956 107.331 89.4927L107.562 89.3335L107.794 89.1733C108.095 88.9659 108.297 88.6689 108.38 88.3149L108.446 88.0386L108.511 87.7612C108.519 87.7302 108.528 87.7183 108.547 87.7026L108.767 87.5269L108.987 87.3521C109.278 87.1202 109.455 86.8026 109.508 86.439L109.549 86.1558L109.583 85.9243L109.822 85.7837L110.088 85.6265C110.356 85.4687 110.585 85.2542 110.744 84.9771L110.877 84.7437L111.011 84.5112C111.153 84.2641 111.235 83.9936 111.263 83.7114L111.291 83.4282L111.319 83.146C111.333 82.9995 111.359 82.8625 111.396 82.7368L111.471 82.481L111.546 82.2241C111.579 82.1119 111.626 82.0044 111.687 81.9019L111.962 81.439C112.078 81.2447 112.175 81.0402 112.25 80.8276L112.425 80.3257C112.455 80.2399 112.504 80.1502 112.578 80.0581L112.937 79.6089C112.996 79.5354 113.042 79.4569 113.081 79.3784C113.278 79.39 113.476 79.3739 113.671 79.3296L113.937 79.27L114.202 79.2095C114.313 79.1842 114.429 79.1747 114.549 79.1812L115.104 79.2104C115.495 79.2312 115.846 79.0904 116.121 78.8286L116.332 78.6274L116.542 78.4263C116.649 78.3235 116.753 78.2445 116.849 78.186L117.068 78.0532L117.288 77.9204C117.4 77.8526 117.521 77.7922 117.652 77.7397L117.9 77.6401L118.147 77.5405C118.402 77.4382 118.629 77.2875 118.822 77.0913L119.006 76.9038L119.191 76.7153C119.274 76.6306 119.372 76.5513 119.487 76.478L119.722 76.3267L119.958 76.1763C120.164 76.0439 120.353 75.8869 120.52 75.7075L120.71 75.5044L120.9 75.3003C121.116 75.0681 121.259 74.7893 121.324 74.48L121.381 74.2036L121.439 73.9263C121.49 73.6821 121.509 73.4331 121.497 73.1831L121.482 72.897L121.468 72.6108C121.468 72.5957 121.469 72.587 121.469 72.5845C121.47 72.5828 121.473 72.5765 121.481 72.5659L121.653 72.3403L121.826 72.1147C121.999 71.8884 122.123 71.6328 122.187 71.354L122.308 70.8286C122.364 70.5853 122.383 70.3366 122.366 70.0874L122.329 69.5483C122.316 69.3677 122.311 69.2663 122.311 69.2271L122.31 69.1304V69.0337C122.31 68.9673 122.308 68.8426 122.306 68.6646L122.303 68.396L122.301 68.1274C122.3 67.9663 122.304 67.7993 122.314 67.6284L122.347 67.0659C122.364 66.7786 122.321 66.4956 122.216 66.2271L122.015 65.7134C121.935 65.5094 121.84 65.3118 121.731 65.1226L121.594 64.8843L121.458 64.647C121.307 64.3857 121.098 64.1728 120.849 64.0083L120.355 63.6821C120.261 63.62 120.206 63.5611 120.174 63.5122L120.036 63.2964L119.896 63.0815C119.849 63.0091 119.804 62.9094 119.768 62.7769L119.69 62.4888L119.611 62.1997C119.523 61.8746 119.346 61.5845 119.071 61.3687L118.856 61.2007L118.64 61.0317C118.382 60.8295 118.082 60.7178 117.763 60.686L117.175 60.6274C117.053 60.6152 116.964 60.5876 116.901 60.5562L116.673 60.4419L116.446 60.3267C116.342 60.2745 116.232 60.2048 116.118 60.1147L115.896 59.939L115.673 59.7632C115.465 59.5988 115.235 59.4704 114.986 59.3813L114.722 59.2876L114.458 59.1929C114.102 59.0655 113.735 59.0886 113.399 59.2368L113.129 59.356L112.859 59.4741C112.789 59.505 112.736 59.5102 112.688 59.5044L112.414 59.4712L112.138 59.437C112.076 59.4294 112.014 59.4261 111.954 59.4263C111.94 59.2302 111.898 59.0385 111.827 58.855C111.804 58.8645 111.783 58.8748 111.763 58.8813C111.626 58.9256 111.498 58.928 111.416 58.9253L111.151 58.9165L110.887 58.9077C110.72 58.9021 110.55 58.8994 110.381 58.8999L109.848 58.9019C109.733 58.9022 109.616 58.9169 109.495 58.9487L109.227 59.019L108.96 59.0894C108.613 59.1808 108.267 59.141 107.95 58.9956L107.683 58.8735L107.503 58.7905L107.298 58.9233L107.032 59.0952C106.698 59.3104 106.295 59.3918 105.884 59.2524L105.351 59.0708C105.28 59.0465 105.22 59.0438 105.163 59.0532L104.629 59.1411C104.438 59.1729 104.245 59.1992 104.053 59.2192L103.787 59.2466L103.52 59.2749C103.29 59.2988 103.06 59.2968 102.831 59.27L102.297 59.2075C102.206 59.1968 102.112 59.2023 102.015 59.2261L101.482 59.3569C101.103 59.4497 100.737 59.3736 100.421 59.1899L100.155 59.0347L99.9448 58.9116L99.7505 59.0044L99.4839 59.1304C99.2011 59.2643 98.8933 59.3271 98.5737 59.2944L98.0405 59.2397C97.8022 59.2153 97.5672 59.1602 97.3384 59.0776L96.8052 58.8843C96.7883 58.8782 96.7784 58.8775 96.7749 58.8774C96.7718 58.8774 96.763 58.8786 96.7466 58.8843L96.2134 59.0698C95.9164 59.1732 95.6047 59.1952 95.2944 59.1274L94.7612 59.0103C94.6946 58.9957 94.6301 58.9968 94.5601 59.0151L94.0269 59.1558C93.653 59.2539 93.2875 59.1888 92.9683 59.0122L92.4351 58.7173C92.3248 58.6562 92.2594 58.644 92.2329 58.6421L91.9976 58.6274L91.7612 58.6118C91.5447 58.598 91.2953 58.5169 91.1011 58.3062C90.9875 58.1826 90.9226 58.0432 90.8843 57.9126L90.8257 58.0054L90.6743 58.2437C90.5498 58.4395 90.4077 58.6206 90.2446 58.77L90.0874 58.9136L89.9302 59.0581C89.6136 59.3481 89.2191 59.3889 88.8862 59.3228L88.6196 59.269L88.353 59.2163C88.2511 59.196 88.1516 59.1935 88.0522 59.2065L87.519 59.2769C87.2066 59.3182 86.9007 59.27 86.6157 59.1499L86.3491 59.0366L86.0825 58.9243C85.9483 58.8677 85.8179 58.8289 85.6929 58.8052L85.1597 58.7036C85.115 58.6951 85.0678 58.6973 85.0054 58.7202L84.7388 58.8188L84.4712 58.9175C84.1453 59.0377 83.8023 59.0458 83.4702 58.937L83.2036 58.8491L82.937 58.7622C82.9108 58.7536 82.895 58.7534 82.8647 58.7642L82.5981 58.8589L82.3315 58.9546C82.0141 59.068 81.6803 59.079 81.355 58.9819L81.0884 58.9019L80.8218 58.8228C80.6725 58.7782 80.5241 58.7433 80.3774 58.7192L80.1099 58.6763L79.8433 58.6323C79.8326 58.6306 79.8083 58.6265 79.7515 58.6558L79.2183 58.9312C78.9204 59.0848 78.5879 59.1512 78.2427 59.0942L77.7095 59.0063C77.5064 58.9727 77.3034 58.9274 77.1021 58.8716L76.8354 58.7974L76.5688 58.7241C76.4792 58.6993 76.3954 58.6934 76.314 58.7036L76.0474 58.7378L75.7808 58.771C75.5896 58.7951 75.3979 58.8138 75.2065 58.8267L74.9399 58.8442L74.6733 58.8628C74.4542 58.8776 74.2148 58.8703 73.9917 58.8032L73.8296 58.7544L73.6685 58.7056C73.2344 58.5749 73.0376 58.2042 72.9507 57.9487L72.7769 57.437C72.6802 57.1522 72.6592 56.8566 72.7065 56.562L72.7515 56.2837L72.7837 56.0796L72.5815 55.8696L72.356 55.6372C72.1108 55.3836 71.9369 55.057 71.9214 54.6694L71.8999 54.1323C71.8904 53.8925 71.9112 53.6518 71.9604 53.4126L72.019 53.1323L72.0767 52.8521C72.0913 52.7811 72.0856 52.7296 72.0708 52.6851L71.9849 52.4292L71.8999 52.1733C71.8544 52.0371 71.797 51.9001 71.728 51.7642L71.6011 51.5151L71.4751 51.2661C71.306 50.9328 71.2794 50.5712 71.3765 50.2212L71.4546 49.937L71.5337 49.6538C71.5733 49.5111 71.5953 49.3767 71.6021 49.2505L71.6167 48.9771L71.6294 48.7183C71.6254 48.7104 71.6163 48.6934 71.5972 48.6704L71.3853 48.4165L71.3149 48.3325L71.2446 48.3667Z" fill="#303A4B"/>
</svg>
