<svg width="128" height="128" viewBox="0 0 128 128" fill="none" xmlns="http://www.w3.org/2000/svg">
<path d="M76.1523 10.707C76.4244 10.6592 76.6987 10.667 76.9678 10.7285L77.2344 10.79L77.501 10.8506C77.712 10.8989 77.9219 10.9633 78.1289 11.042L78.6621 11.2451C78.6958 11.2579 78.7132 11.2563 78.7373 11.249L79.0049 11.168L79.2715 11.0869C79.5749 10.995 79.8894 10.9883 80.1973 11.0723L80.4609 11.1445L80.7256 11.2168C80.8166 11.2416 80.9049 11.2479 80.9932 11.2383L81.5283 11.1797C81.7316 11.1574 81.9362 11.1462 82.1396 11.1455L82.4062 11.1445L82.6738 11.1436C82.9893 11.1426 83.2858 11.2305 83.5527 11.3857L83.8037 11.5312L83.9795 11.6348L84.2148 11.5215L84.502 11.3828C84.6952 11.2897 84.9257 11.2343 85.1748 11.2656C85.3625 11.2894 85.5277 11.3581 85.668 11.4512L85.7998 11.5508L86.0361 11.7559L86.1592 11.8613L86.3389 11.7773L86.6377 11.6367C86.9512 11.4889 87.3128 11.4409 87.666 11.5713L87.8174 11.6377L88.0635 11.7676L88.3105 11.8965C88.4817 11.9861 88.6514 12.0783 88.8184 12.1729L89.0586 12.3086L89.2988 12.4453C89.3592 12.4794 89.4186 12.4959 89.4854 12.498L89.7598 12.5059L90.0342 12.5146C90.3367 12.524 90.6242 12.6073 90.8848 12.7617L91.1211 12.9014L91.3564 13.042C91.468 13.1081 91.582 13.1588 91.6973 13.1953L91.9502 13.2754L92.2041 13.3555C92.3367 13.3974 92.4754 13.4293 92.6191 13.4512L92.8887 13.4922L93.1572 13.5332C93.3523 13.5629 93.5471 13.5991 93.7393 13.6416L94.0039 13.7002L94.2695 13.7588C94.523 13.815 94.7622 13.9121 94.9834 14.0479L95.2139 14.1895L95.4453 14.3311C95.6302 14.4445 95.8064 14.5726 95.9736 14.7139L96.1846 14.8916L96.3945 15.0693C96.5181 15.1738 96.644 15.271 96.7715 15.3594L96.9922 15.5117L97.2119 15.6641C97.2382 15.6822 97.2789 15.7013 97.3564 15.7051L97.9463 15.7344C98.2972 15.7515 98.6263 15.8778 98.8926 16.127L99.293 16.502C99.3736 16.5773 99.4605 16.6357 99.5537 16.6797L100.04 16.9082C100.217 16.9918 100.392 17.0824 100.562 17.1787L100.796 17.3105L101.028 17.4424C101.295 17.5929 101.509 17.8045 101.669 18.0596L101.822 18.3057L101.977 18.5508L101.985 18.5625C101.986 18.5631 101.989 18.565 101.994 18.5664L102.268 18.6426L102.541 18.7197C102.838 18.8032 103.104 18.9565 103.321 19.1816L103.508 19.376L103.695 19.5693C103.748 19.6244 103.813 19.6698 103.897 19.7041L104.157 19.8096L104.416 19.915C104.787 20.066 105.044 20.3521 105.18 20.708L105.287 20.9912L105.396 21.2734C105.4 21.2845 105.403 21.292 105.405 21.2959L105.649 21.416L105.897 21.5381C106.131 21.6533 106.342 21.8035 106.524 21.9883L106.712 22.1787L106.899 22.3682C106.989 22.459 107.09 22.5418 107.202 22.6162L107.43 22.7676L107.657 22.918C107.916 23.0899 108.117 23.3218 108.253 23.5996L108.376 23.8496L108.499 24.1006C108.519 24.1403 108.543 24.1676 108.585 24.1924L108.828 24.334L109.071 24.4766C109.271 24.5935 109.457 24.7272 109.629 24.8779L109.833 25.0586L110.037 25.2383C110.28 25.4522 110.446 25.7221 110.536 26.0273L110.617 26.3047L110.699 26.5811C110.717 26.6397 110.739 26.6712 110.768 26.6953L110.977 26.873L111.187 27.0508C111.434 27.2614 111.605 27.5307 111.696 27.8398L111.776 28.1104L111.855 28.3809C111.892 28.5061 111.941 28.6162 111.999 28.7129L112.137 28.9404L112.273 29.168C112.373 29.3342 112.468 29.5045 112.556 29.6777L112.677 29.915L112.797 30.1523C112.866 30.2874 112.942 30.4179 113.024 30.5439L113.17 30.7666L113.315 30.9883C113.382 31.09 113.463 31.1886 113.561 31.2832L113.761 31.4775L113.962 31.6709C114.23 31.9308 114.373 32.2647 114.393 32.6289L114.408 32.9189L114.421 33.1553L114.639 33.3086L114.889 33.4844C115.164 33.6778 115.381 33.9421 115.49 34.2793L115.656 34.793C115.732 35.0266 115.774 35.2688 115.786 35.5166L115.799 35.7988L115.811 36.0508L116.042 36.2461L116.277 36.4424C116.519 36.6444 116.709 36.8988 116.815 37.2061L116.903 37.46L116.992 37.7139C117.068 37.9331 117.119 38.1598 117.146 38.3916L117.208 38.9346C117.221 39.0466 117.249 39.152 117.293 39.252L117.401 39.5L117.509 39.748C117.586 39.9261 117.659 40.1068 117.726 40.2891L117.819 40.543L117.912 40.7959C117.994 41.0193 118.048 41.2506 118.074 41.4873L118.133 42.0264C118.151 42.1931 118.173 42.3588 118.2 42.5225L118.244 42.7871L118.287 43.0518C118.325 43.2829 118.336 43.5174 118.32 43.7529L118.303 44.0273L118.284 44.3027C118.277 44.4079 118.289 44.5058 118.314 44.5996L118.386 44.8594L118.457 45.1182C118.526 45.3675 118.553 45.6234 118.537 45.8818L118.521 46.1533L118.503 46.4238C118.498 46.5084 118.509 46.5912 118.539 46.6758L118.63 46.9355L118.721 47.1943C118.826 47.4935 118.837 47.804 118.762 48.1074C118.951 48.3008 119.092 48.5407 119.151 48.8262L119.207 49.0898L119.262 49.3545C119.283 49.4571 119.32 49.552 119.371 49.6406L119.506 49.873L119.64 50.1055C119.738 50.2756 119.83 50.4489 119.915 50.625L120.03 50.8643L120.146 51.1045C120.247 51.3149 120.322 51.5361 120.372 51.7656L120.431 52.0312L120.488 52.2969C120.521 52.446 120.562 52.5918 120.611 52.7324L120.7 52.9844L120.788 53.2373C120.856 53.4308 120.913 53.6294 120.96 53.832L121.021 54.0986L121.083 54.3662C121.12 54.5253 121.163 54.6823 121.212 54.8359L121.294 55.0938L121.376 55.3525C121.378 55.3592 121.382 55.3656 121.385 55.3721C121.438 55.4328 121.487 55.4983 121.532 55.5664L121.862 56.0645C121.89 56.1069 121.914 56.1447 121.933 56.1738C121.941 56.1874 121.953 56.2065 121.964 56.2256C121.969 56.2341 121.979 56.2528 121.99 56.2754C121.996 56.2863 122.006 56.3087 122.017 56.3369C122.02 56.3466 122.055 56.4354 122.062 56.5527C122.064 56.6042 122.07 56.7768 121.96 56.958C121.811 57.2038 121.556 57.3033 121.343 57.3008C121.181 57.2988 121.065 57.2412 121.028 57.2227C120.979 57.1976 120.943 57.1719 120.925 57.1582C120.865 57.1131 120.823 57.066 120.821 57.0645C120.8 57.041 120.781 57.0178 120.773 57.0078C120.753 56.9817 120.727 56.9475 120.699 56.9102L120.536 56.6904L120.373 56.4697C120.322 56.4011 120.277 56.3288 120.234 56.2559L120.007 56.1641L119.758 56.0615C119.578 55.9876 119.401 55.9075 119.227 55.8223L119.051 55.7363L119.01 55.8906L118.938 56.1572C118.88 56.3749 118.801 56.5897 118.704 56.8008L118.582 57.0674L118.471 57.3096L118.577 57.5518L118.694 57.8184C118.861 58.1963 118.844 58.5971 118.661 58.959L118.392 59.4922C118.378 59.5185 118.376 59.5329 118.376 59.5361C118.376 59.5383 118.375 59.5411 118.376 59.5469L118.437 59.8135L118.498 60.0801C118.525 60.1986 118.569 60.3243 118.634 60.4561L118.897 60.9893C118.951 61.0971 118.986 61.2076 119.008 61.3184L118.856 61.2002L118.641 61.0312C118.383 60.829 118.082 60.7173 117.764 60.6855L117.176 60.627C117.053 60.6147 116.964 60.5872 116.901 60.5557L116.674 60.4414L116.446 60.3262C116.342 60.2739 116.232 60.2044 116.118 60.1143L115.896 59.9385L115.674 59.7627C115.466 59.5982 115.236 59.47 114.986 59.3809L114.723 59.2871L114.459 59.1924C114.102 59.065 113.736 59.0881 113.399 59.2363L113.357 59.2539C113.334 59.3407 113.305 59.4267 113.267 59.5107L113.043 59.999C112.941 60.2224 112.808 60.4294 112.648 60.6191L112.468 60.833L112.287 61.0479C112.195 61.1579 112.118 61.2705 112.054 61.3848L111.792 61.8516C111.69 62.0331 111.577 62.2083 111.452 62.377L111.292 62.5947L111.131 62.8125C111.102 62.8517 111.082 62.8973 111.075 62.9648L111.045 63.2451L111.014 63.5264C110.984 63.8001 110.906 64.0623 110.774 64.3047L110.648 64.5391L110.52 64.7734C110.466 64.8713 110.426 64.9791 110.398 65.0986L110.336 65.3691L110.273 65.6377C110.231 65.8203 110.147 66.0161 109.99 66.1816C109.83 66.3511 109.631 66.4507 109.428 66.4951L108.944 66.6006C108.86 66.6191 108.722 66.6398 108.565 66.6113C108.389 66.579 108.168 66.4758 108.028 66.2432C107.905 66.037 107.907 65.8318 107.921 65.7188C107.935 65.5996 107.972 65.4945 108.003 65.418L108.114 65.1475L108.226 64.876C108.261 64.7885 108.268 64.72 108.264 64.6641L108.243 64.3975L108.223 64.1318C108.214 64.0152 108.189 63.8967 108.148 63.7764L108.06 63.5146L107.972 63.2529C107.88 62.9822 107.848 62.7007 107.879 62.416L107.938 61.877C107.95 61.7722 107.945 61.6709 107.924 61.5703L107.813 61.0439C107.781 60.8907 107.741 60.7374 107.693 60.585L107.613 60.3252L107.532 60.0645C107.453 59.8084 107.421 59.5439 107.439 59.2764L107.476 58.7383C107.49 58.5265 107.519 58.3137 107.562 58.1016L107.617 57.8281L107.673 57.5537C107.704 57.4 107.725 57.2483 107.736 57.0986L107.757 56.8271L107.777 56.5566C107.779 56.5401 107.778 56.5148 107.747 56.4648L107.435 55.9648C107.28 55.7167 107.177 55.443 107.146 55.1484L107.127 54.9824L107.11 55.1094L107.072 55.3789C107.056 55.4982 107.055 55.6144 107.069 55.7275L107.135 56.2559C107.162 56.4714 107.171 56.7561 107.06 57.0205L106.944 57.2939C106.899 57.4021 106.805 57.5644 106.618 57.6768C106.416 57.7977 106.204 57.8022 106.044 57.7666C105.787 57.7095 105.61 57.5386 105.536 57.4648L105.152 57.0801C104.861 56.7878 104.751 56.4134 104.76 56.0439L104.768 55.7188L104.771 55.5586L104.632 55.501L104.336 55.3809C104.016 55.2505 103.731 55.0314 103.554 54.7002L103.427 54.4639L103.301 54.2275C103.176 53.9937 103.095 53.7402 103.053 53.4756L103.005 53.1836L102.964 52.9326L102.75 52.8105L102.496 52.665C102.122 52.4517 101.901 52.0996 101.85 51.6855L101.812 51.3828L101.793 51.2363L101.601 51.1777L101.283 51.0811C100.967 50.9852 100.668 50.8139 100.448 50.5342L100.119 50.1162C99.9004 49.8378 99.8043 49.5089 99.7881 49.1787L99.7725 48.8564L99.7578 48.5957L99.5947 48.5L99.3447 48.3555C99.1469 48.2405 98.9617 48.1117 98.79 47.9697L98.5801 47.7959L98.3691 47.6221C98.0726 47.3766 97.9153 47.0439 97.8672 46.6885L97.8252 46.3809L97.791 46.1318L97.6035 46.0342L97.3447 45.9004C97.1131 45.7807 96.9021 45.6311 96.7197 45.4492L96.5303 45.2598L96.3398 45.0703C96.1764 44.9072 96.0332 44.7271 95.9092 44.5322L95.6211 44.0791C95.5216 43.9228 95.4227 43.7649 95.3271 43.6055L95.0508 43.1436C94.9673 43.0042 94.8791 42.8678 94.7861 42.7354L94.4775 42.2959C94.454 42.2624 94.4275 42.2314 94.4014 42.2002L94.4238 42.2988C94.4559 42.4425 94.4987 42.5811 94.5498 42.7148L94.6445 42.9639L94.7402 43.2148C94.7935 43.3541 94.8541 43.4903 94.9238 43.6221L95.0498 43.8584L95.1748 44.0938C95.283 44.298 95.3676 44.5133 95.4287 44.7373L95.501 44.999L95.5713 45.2568C95.5744 45.2606 95.5853 45.2724 95.6104 45.2891L95.8682 45.4619L96.126 45.6338C96.4964 45.8803 96.7061 46.2676 96.6904 46.7236L96.6699 47.3271C96.6676 47.3965 96.6824 47.421 96.6895 47.4316L96.8398 47.6562L96.9893 47.8789C97.1305 48.0899 97.2364 48.3201 97.3066 48.5645L97.3818 48.8252L97.458 49.0879C97.491 49.2024 97.5374 49.3076 97.5967 49.4053L97.7344 49.6348L97.874 49.8633C97.9165 49.9332 97.989 50.0544 98.0283 50.1768C98.0395 50.2115 98.0614 50.2837 98.0664 50.375C98.0703 50.4469 98.0724 50.6758 97.8955 50.8848C97.686 51.1319 97.4061 51.1506 97.2676 51.1357C97.141 51.1221 97.0478 51.077 97.0107 51.0586L96.9316 51.0195L96.8535 50.9805C96.7711 50.9393 96.6442 50.8645 96.4971 50.7754L96.2705 50.6377L96.042 50.5C95.8455 50.381 95.6626 50.2414 95.4951 50.082L95.2998 49.8945L95.1025 49.708C95.0347 49.6435 94.959 49.5937 94.8721 49.5576L94.6211 49.4541L94.3701 49.3486C94.1699 49.2654 93.9767 49.1677 93.793 49.0557L93.5645 48.917L93.3359 48.7773C93.1619 48.6712 92.9935 48.5558 92.832 48.4316L92.6211 48.2686L92.4092 48.1064C92.1788 47.9292 91.9981 47.7045 91.8643 47.4492L91.7285 47.1895L91.6494 47.0391L91.3984 47.0332L91.0645 47.0234C90.7929 47.0159 90.5261 46.9356 90.3057 46.7676C90.2786 46.8115 90.2476 46.8548 90.209 46.8945C90.0712 47.0361 89.9144 47.0837 89.834 47.1016C89.6818 47.1352 89.5456 47.1153 89.4941 47.1074L89.0742 47.043C88.8548 47.0094 88.6386 46.9385 88.4307 46.8438L88.1855 46.7324L87.9395 46.6201C87.7331 46.526 87.5574 46.3925 87.4111 46.2305C87.4153 46.3267 87.4067 46.4283 87.3779 46.5342L87.333 46.7002L87.2871 46.8672C87.2561 46.9811 87.194 47.1248 87.0684 47.25C86.936 47.3816 86.7733 47.454 86.6152 47.4785C86.3421 47.5208 86.1105 47.4198 85.9951 47.3623L85.751 47.2402L85.5059 47.1182C85.3009 47.016 85.1048 46.8938 84.9189 46.752L84.6914 46.5771L84.4629 46.4033H84.46L84.1729 46.4375L83.8857 46.4697C83.5777 46.5053 83.2703 46.4652 82.9814 46.3369L82.7354 46.2285L82.4893 46.1191C82.2887 46.0301 82.0951 45.9243 81.9092 45.8018L81.6777 45.6484L81.4453 45.4951C81.3364 45.4233 81.2265 45.3682 81.1152 45.3281L80.6133 45.1484C80.5801 45.1365 80.5264 45.1266 80.4346 45.1436L80.1377 45.1982L79.8398 45.2529C79.6306 45.2916 79.4051 45.2838 79.1846 45.2002C78.9657 45.1172 78.793 44.9757 78.6621 44.8164L78.4619 44.5732L78.3682 44.457L78.1973 44.5127L77.8818 44.6133C77.6733 44.68 77.4275 44.7049 77.1748 44.6289C76.9199 44.5521 76.7267 44.3924 76.5898 44.2139L76.3945 43.96L76.207 43.7148L75.9834 43.7061L75.7041 43.6953C75.4368 43.6843 75.1776 43.6271 74.9316 43.5225L74.4404 43.3135C74.2833 43.2466 74.1247 43.1822 73.9658 43.1201L73.7178 43.0225L73.4697 42.9268C73.3245 42.87 73.1759 42.8189 73.0254 42.7754L72.5127 42.627C72.2592 42.5536 72.024 42.437 71.8105 42.2812L71.5879 42.1182L71.375 41.9639L71.3574 41.9658L70.751 42.0508C70.3108 42.113 69.9006 41.9612 69.6104 41.6182L69.2207 41.1562C69.1739 41.101 69.1442 41.0923 69.1309 41.0889L68.8701 41.0225L68.6104 40.9551C68.4161 40.9052 68.2251 40.8464 68.0371 40.7793L67.7852 40.6904L67.5332 40.5996C67.4197 40.5592 67.2972 40.5305 67.165 40.5156L66.8887 40.4854L66.6113 40.4541C66.3072 40.4199 66.0242 40.3115 65.7754 40.1309L65.5537 39.9717L65.333 39.8105C65.2281 39.7344 65.119 39.6722 65.0059 39.624L64.5146 39.415C64.3445 39.3426 64.1747 39.268 64.0068 39.1904L63.7646 39.0771L63.5225 38.9658C63.2983 38.8622 63.0911 38.7282 62.9033 38.5654L62.6953 38.3838L62.4863 38.2031C62.4687 38.1879 62.4506 38.177 62.4062 38.1738L61.832 38.1328C61.5385 38.112 61.2575 38.0296 61.002 37.877L60.542 37.6016C60.303 37.4586 60.1004 37.27 59.9326 37.0479L59.7549 36.8145L59.5781 36.5791C59.5343 36.5212 59.4987 36.5006 59.4707 36.4902L59.2188 36.3984L58.9668 36.3047C58.8488 36.2612 58.7185 36.2276 58.5752 36.207L58.2158 36.1562L58.2344 36.1826L58.3877 36.3994C58.4481 36.4849 58.526 36.5668 58.623 36.6426L59.0674 36.9902C59.3978 37.2484 59.56 37.6141 59.5752 38.0068L59.5879 38.3164L59.5996 38.627C59.6033 38.7224 59.6252 38.7667 59.6396 38.7881L59.9375 39.2314C60.0523 39.402 60.1572 39.5792 60.252 39.7627L60.376 40.001L60.499 40.2402C60.5101 40.2617 60.5316 40.2939 60.5967 40.3301L60.8574 40.4736L61.1191 40.6191C61.3525 40.7488 61.5624 40.9091 61.7402 41.1035L61.9219 41.3018L62.1016 41.499C62.3409 41.7608 62.4634 42.0814 62.4961 42.415L62.5264 42.7207L62.5449 42.9238C62.5471 42.9255 62.5506 42.926 62.5527 42.9277C62.5749 42.9454 62.6248 42.9878 62.6748 43.0537C62.7138 43.1051 62.8349 43.2768 62.8184 43.5303C62.798 43.8402 62.5969 44.0221 62.4648 44.0986C62.351 44.1645 62.2477 44.1822 62.2119 44.1875C62.131 44.1993 62.0663 44.1944 62.0527 44.1934C62.0124 44.1902 61.9804 44.1832 61.9727 44.1816C61.9606 44.1793 61.9498 44.177 61.9443 44.1758C61.9334 44.1732 61.924 44.1703 61.9189 44.1689C61.9081 44.1661 61.8969 44.1628 61.8877 44.1602C61.8509 44.1497 61.7876 44.132 61.7031 44.1064L61.1895 43.9502C60.9992 43.8927 60.8118 43.8272 60.6279 43.7539L60.3799 43.6562L60.1328 43.5566C59.8793 43.4555 59.6524 43.3074 59.4551 43.1191L59.0508 42.7324C58.9865 42.6711 58.9215 42.6329 58.8535 42.6094L58.6006 42.5225L58.3477 42.4346C58.1667 42.3721 57.9866 42.3044 57.8096 42.2324L57.5625 42.1318L57.3145 42.0312C57.0939 41.9416 56.8867 41.8262 56.6953 41.6846L56.4795 41.5244L56.2646 41.3652C56.1556 41.2846 56.0405 41.2144 55.9199 41.1553L55.6797 41.0381L55.4414 40.9209C55.2258 40.8153 55.0261 40.6823 54.8447 40.5244L54.6426 40.3486L54.4395 40.1719C54.4077 40.1442 54.3639 40.1195 54.2891 40.1055L54.0039 40.0518L53.7188 39.999C53.5223 39.9625 53.3331 39.9054 53.1514 39.8301C53.1533 39.847 53.1558 39.8638 53.1572 39.8809L53.2031 40.4434C53.2091 40.5153 53.2291 40.5681 53.2598 40.6143L53.4102 40.8398L53.5596 41.0654C53.6257 41.1649 53.7101 41.2616 53.8135 41.3564L54.0264 41.5537L54.2412 41.75C54.4979 41.9855 54.6669 42.2883 54.7188 42.6406L54.7588 42.916L54.7988 43.1895C54.8067 43.2427 54.8246 43.2828 54.8574 43.3223L55.0352 43.5342L55.2119 43.7461C55.4333 44.0106 55.5514 44.3259 55.5693 44.6641L55.584 44.9521L55.5986 45.2051L55.8105 45.3721L56.0439 45.5557C56.294 45.7522 56.4891 46.0057 56.5977 46.3154L56.7754 46.8213C56.8216 46.9532 56.8769 47.0809 56.9434 47.2021L57.0723 47.4355L57.2002 47.668C57.2979 47.8463 57.3859 48.0306 57.4639 48.2188L57.668 48.7119C57.7121 48.8186 57.8426 49.158 57.6553 49.5049C57.4314 49.9189 57.0024 49.9389 56.8564 49.9336L56.625 49.9248L56.3936 49.917C55.9554 49.9008 55.6371 49.6491 55.4375 49.3555L55.2725 49.1143L55.1094 48.874C55.0462 48.7811 54.9809 48.7189 54.917 48.6758L54.4766 48.3789C54.3382 48.2858 54.1979 48.1952 54.0557 48.1074L53.8291 47.9678L53.6035 47.8291C53.4927 47.7607 53.3718 47.7009 53.2412 47.6514L52.9844 47.5537L52.7275 47.457C52.4524 47.3528 52.2108 47.189 52.0127 46.9707L51.6475 46.5674C51.5345 46.4429 51.4195 46.3222 51.3018 46.2061L51.1104 46.0186L50.9189 45.8291C50.9069 45.8173 50.8811 45.7967 50.8096 45.7842L50.5137 45.7324L50.2168 45.6816C49.9538 45.6358 49.7026 45.553 49.4697 45.4307L49.2285 45.3037L48.9863 45.1768C48.6302 44.9895 48.4103 44.677 48.3018 44.3262L48.208 44.0215L48.1279 43.7637L47.9297 43.6992L47.6543 43.6094C47.3605 43.5131 47.0991 43.3483 46.8906 43.1123L46.7129 42.9121L46.5352 42.71C46.371 42.524 46.235 42.316 46.126 42.0898L46.002 41.833L45.9004 41.6191L45.625 41.5518L45.3252 41.4775C44.9713 41.3896 44.6562 41.1891 44.4492 40.8574L44.1602 40.3926C44.0629 40.2365 43.9654 40.0808 43.8701 39.9258L43.5869 39.4648C43.5328 39.3767 43.4675 39.3012 43.3896 39.2363L43.3594 39.2109L43.3428 39.2354C43.2924 39.3075 43.26 39.3832 43.2422 39.4658L43.1855 39.7295L43.1299 39.9941C43.0833 40.2105 43.0171 40.4205 42.9336 40.624L42.832 40.8711L42.7314 41.1172C42.6661 41.2763 42.6022 41.4365 42.54 41.5977L42.4443 41.8477L42.3477 42.0957C42.2995 42.2206 42.2615 42.3543 42.2344 42.4961L42.1826 42.7695L42.1299 43.042C42.0618 43.3975 41.8743 43.6961 41.5986 43.918L41.1455 44.2822C41.0303 44.375 40.9333 44.4708 40.8525 44.5693L40.6816 44.7793L40.5107 44.9883C40.4959 45.0065 40.479 45.0339 40.4736 45.0977L40.4492 45.3906L40.4248 45.6826C40.4041 45.9321 40.3554 46.1742 40.2754 46.4062L40.0967 46.9238C39.9994 47.2053 39.8389 47.452 39.623 47.6562L39.4229 47.8467L39.2217 48.0361C39.1387 48.1147 39.0738 48.1995 39.0234 48.29L38.8926 48.5234L38.7627 48.7578C38.6682 48.9276 38.5682 49.0942 38.4629 49.2568L38.3174 49.4814L38.1729 49.7051C38.0971 49.822 38.0299 49.9465 37.9717 50.0781L37.8613 50.3271L37.752 50.5752C37.6671 50.7672 37.5709 50.9544 37.4639 51.1338L37.3262 51.3643L37.1885 51.5957C37.0847 51.7696 36.9321 51.9893 36.7158 52.1318L36.6016 52.208L36.4883 52.2822C36.4091 52.3344 36.2172 52.4422 35.959 52.4102C35.6561 52.3724 35.4756 52.1739 35.3926 52.0264C35.3197 51.8966 35.2962 51.7707 35.2871 51.7021C35.2768 51.6236 35.2759 51.5465 35.2773 51.4805L35.2822 51.2129L35.2891 50.9443C35.2911 50.8512 35.2764 50.7498 35.2402 50.6377L35.0635 50.0898C34.9918 49.8679 34.9406 49.6436 34.9121 49.418L34.8789 49.1484L34.8438 48.8799C34.7975 48.5127 34.8969 48.1714 35.0859 47.8789L35.252 47.6201L35.4062 47.3809L35.3896 47.3271C35.2956 47.3684 35.2002 47.4078 35.1016 47.4404L34.8232 47.5332L34.583 47.6113L34.4873 47.8574L34.3789 48.1338C34.2851 48.3731 34.1637 48.5969 34.0127 48.7988L33.6826 49.2383C33.4257 49.5818 33.0538 49.7381 32.6729 49.7646L32.3477 49.7871L32.1104 49.8037L32.0342 49.9668L31.9062 50.2363C31.7874 50.4866 31.63 50.7124 31.4297 50.9023L31.2324 51.0879L31.0371 51.2734C30.8947 51.4084 30.7478 51.5379 30.5967 51.6621L30.3887 51.833L30.1816 52.0039C30.0089 52.1459 29.8235 52.2714 29.627 52.3789L29.3906 52.5078L29.1543 52.6377C28.9028 52.7753 28.6283 52.8531 28.3438 52.8809L28.043 52.9092L27.7422 52.9395C27.7264 52.941 27.7164 52.943 27.7119 52.9443L27.5283 53.1465L27.3438 53.3516C27.1306 53.5865 26.8645 53.7507 26.5596 53.8369L26.292 53.9121L26.0469 53.9805C26.045 53.9835 26.0426 53.9876 26.04 53.9922L25.7432 54.5322C25.5697 54.8469 25.3013 55.0993 24.9365 55.2207L24.6777 55.3066L24.418 55.3926C24.2208 55.4581 24.0188 55.5131 23.8135 55.5576L23.542 55.6162L23.2715 55.6748C23.2687 55.6778 23.2644 55.684 23.2578 55.6934L22.9131 56.1826C22.6915 56.4973 22.3212 56.7557 21.833 56.6943L21.3584 56.6348C21.2472 56.6208 20.7832 56.5455 20.6309 56.0684C20.5616 55.851 20.6023 55.6593 20.6445 55.541C20.6867 55.4228 20.748 55.327 20.7979 55.2598L20.9561 55.0449L21.1162 54.8301C21.2046 54.711 21.2853 54.5874 21.3574 54.459L21.4883 54.2256L21.6182 53.9932C21.6949 53.8563 21.7659 53.716 21.8311 53.5723L21.9414 53.3271L22.0527 53.084C22.133 52.9067 22.2186 52.7322 22.3105 52.5615L22.4365 52.3271L22.5635 52.0928C22.7075 51.8254 22.9132 51.609 23.1592 51.4404L23.4043 51.2725L23.6514 51.1035C23.7248 51.053 23.7587 51.0075 23.7773 50.9697L23.8945 50.7285L24.0127 50.4883C24.0314 50.4499 24.0501 50.3865 24.0459 50.2793L24.0215 49.6602C24.0063 49.2739 24.1324 48.9001 24.4316 48.6143L24.6348 48.4199L24.8369 48.2266C24.8562 48.2081 24.8638 48.1954 24.8682 48.165L24.9082 47.8857L24.9492 47.6055C24.9921 47.3101 25.1003 47.0341 25.2783 46.791L25.4375 46.5732L25.5967 46.3564C25.6993 46.2164 25.8006 46.0749 25.8994 45.9326L26.2061 45.4912C26.319 45.3287 26.4389 45.1688 26.5654 45.0137L26.9111 44.5918C26.995 44.489 27.0647 44.3808 27.1221 44.2686L27.2432 44.0312C27.0258 44.1106 26.8217 44.216 26.6348 44.3506L26.415 44.5078L26.1963 44.665C25.9111 44.8706 25.7254 45.1553 25.623 45.4736L25.4355 46.0557C25.4118 46.1294 25.3868 46.1484 25.3789 46.1543L25.165 46.3145L24.9502 46.4746C24.7933 46.5915 24.6402 46.7141 24.4932 46.8418L24.293 47.0156L24.0918 47.1904C24.0273 47.2462 23.9409 47.2997 23.8242 47.3447L23.5469 47.4521L23.2695 47.5586C22.9083 47.698 22.6522 47.9679 22.5303 48.3164L22.4863 48.4707L22.4199 48.7676L22.3525 49.0654C22.3383 49.1285 22.3208 49.1397 22.3184 49.1416L21.9004 49.4854C21.6879 49.6601 21.5157 49.8717 21.3877 50.1152L21.1357 50.5938C21.1268 50.6107 21.1099 50.6367 21.0508 50.667L20.7861 50.8018L20.5215 50.9375C20.2271 51.0885 19.9977 51.3239 19.8682 51.6309L19.8193 51.7666L19.7363 52.0361L19.6533 52.3047C19.6448 52.3323 19.6346 52.3497 19.6035 52.3721L19.3701 52.5391L19.1377 52.7061C18.8699 52.8982 18.6685 53.1571 18.5566 53.4727L18.4648 53.7314L18.373 53.9912C18.3168 54.1498 18.2567 54.3048 18.1924 54.4551L18.0869 54.7021L17.9805 54.9492C17.8862 55.1696 17.8207 55.4011 17.7822 55.6406L17.7373 55.918L17.6934 56.1943C17.6923 56.2006 17.6911 56.2051 17.6904 56.207C17.6899 56.2086 17.6888 56.2104 17.6885 56.2109C17.6879 56.2118 17.6864 56.2137 17.6846 56.2158C17.682 56.2188 17.6773 56.2241 17.6699 56.2305L17.4492 56.418L17.3994 56.459C17.4674 56.6188 17.5233 56.785 17.5674 56.9561L17.6377 57.2285L17.709 57.501C17.8118 57.9001 17.7243 58.2859 17.501 58.6074L17.3281 58.8574L17.1553 59.1064C17.1146 59.165 17.113 59.1942 17.1133 59.207L17.124 59.748C17.1293 60.005 17.095 60.2582 17.0176 60.5029L16.9375 60.7578L16.8564 61.0117C16.8315 61.0906 16.8193 61.1838 16.8262 61.2969L16.8428 61.5869L16.8613 61.876C16.8826 62.2236 16.7927 62.558 16.5869 62.8477L16.4268 63.0742L16.2656 63.3008C16.1847 63.4147 16.119 63.5311 16.0664 63.6494L15.957 63.8936L15.8477 64.1387C15.7994 64.2472 15.7642 64.3661 15.7412 64.4951L15.6924 64.7695L15.6426 65.0439C15.5619 65.497 15.2637 65.8061 14.9023 65.9795L14.3027 66.2666C14.1966 66.3175 14.0981 66.3614 14.0146 66.3945C13.9734 66.4109 13.927 66.4291 13.8789 66.4434C13.8428 66.4541 13.7545 66.4783 13.6484 66.4814L13.5801 66.4844L13.5117 66.4854C13.3854 66.489 13.2282 66.4608 13.0801 66.3613C12.9351 66.2638 12.8533 66.1356 12.8105 66.0332C12.7368 65.8563 12.7508 65.6947 12.7559 65.6416C12.7686 65.5071 12.8109 65.3716 12.8447 65.2734L12.9375 65.0029L13.0264 64.7461L12.8994 64.5049L12.7666 64.2471C12.5836 63.8941 12.5635 63.507 12.7002 63.1387L12.8027 62.8613L12.8984 62.6016L12.7812 62.373L12.6504 62.1182C12.5345 61.8921 12.4514 61.6548 12.4053 61.4082L12.3564 61.1465L12.3066 60.8848C12.2694 60.6853 12.2549 60.4834 12.2598 60.2803L12.0703 60.4287C11.9481 60.5238 11.8378 60.6232 11.7393 60.7256L11.5537 60.918L11.3682 61.1113C11.2172 61.2681 11.0534 61.4118 10.8779 61.542L10.6611 61.7031L10.4453 61.8633C10.3092 61.9643 10.1759 62.0673 10.0469 62.1719L9.84082 62.3389L9.63574 62.5059C9.53905 62.5843 9.45057 62.6729 9.37109 62.7725L9.2041 62.9824L9.03711 63.1914C8.87631 63.3929 8.68494 63.5639 8.4668 63.7012L8.24121 63.8438L8.01562 63.9854C8.0151 63.986 8.01361 63.9877 8.01172 63.9902C8.00622 63.9977 7.99262 64.0179 7.97852 64.0586L7.875 64.3604L7.77051 64.6611C7.74932 64.7224 7.72549 64.7853 7.69922 64.8438C7.67736 64.8924 7.63478 64.9818 7.56641 65.0674C7.53283 65.1094 7.46225 65.1898 7.34961 65.2549C7.22369 65.3275 7.01548 65.3943 6.77637 65.3232C6.55688 65.2578 6.43318 65.1117 6.37793 65.0303C6.32103 64.9464 6.29253 64.867 6.27832 64.8223L6.2002 64.5781C6.15113 64.4235 6.12189 64.2207 6.09961 64.0205L6.06641 63.7227L6.0332 63.4238C5.99365 63.0684 6.06949 62.7155 6.28613 62.4102L6.44629 62.1855L6.60547 61.9609C6.694 61.8363 6.77292 61.7078 6.8418 61.5771L6.96777 61.3389L7.09375 61.0996C7.16243 60.9693 7.2212 60.8355 7.27051 60.6992L7.45215 60.1973C7.49312 60.084 7.52141 59.9648 7.53516 59.8398L7.59375 59.2988C7.61738 59.0832 7.65708 58.8705 7.71289 58.6631L7.85156 58.1475C7.90531 57.9478 7.97186 57.7517 8.0498 57.5596L8.15039 57.3105L8.25195 57.0625C8.2767 57.0015 8.28871 56.9318 8.2832 56.8457L8.26562 56.5645L8.24707 56.2832C8.22423 55.9269 8.32468 55.5916 8.53418 55.3057L8.70312 55.0752L8.87305 54.8447L8.87402 54.8428V54.8398L8.80176 54.2715C8.76885 54.0116 8.77556 53.7519 8.82715 53.4971L8.87988 53.2373L8.93262 52.9766C8.95287 52.8768 8.9822 52.7801 9.0166 52.6855C8.91975 52.4512 8.86265 52.2045 8.85938 51.9482L8.85352 51.415C8.85014 51.1463 8.89756 50.8831 8.98926 50.6299L9.08594 50.3623L9.18262 50.0957C9.19865 50.0514 9.19915 50.0201 9.18945 49.9834L9.11719 49.7139L9.0459 49.4443C8.97147 49.1643 8.9588 48.8765 9.01367 48.5908L9.06543 48.3252L9.11621 48.0586C9.16235 47.8187 9.241 47.5865 9.34766 47.3633L9.46973 47.1064L9.59277 46.8486C9.59981 46.8339 9.60124 46.8259 9.60156 46.8232C9.60174 46.8215 9.60276 46.8135 9.59863 46.7969L9.52832 46.5205L9.45898 46.2451C9.37034 45.8943 9.41036 45.5395 9.57715 45.2168L9.70703 44.9668L9.83594 44.7158C9.90209 44.5879 9.95276 44.4614 9.98828 44.3379L10.0615 44.0811L10.1357 43.8252C10.164 43.7269 10.1764 43.6244 10.1729 43.5166L10.1553 42.9736C10.1463 42.7013 10.1889 42.4342 10.2842 42.1787L10.3779 41.9277L10.4727 41.6758C10.5082 41.5806 10.5274 41.4813 10.5312 41.376L10.5508 40.833C10.558 40.6348 10.5729 40.437 10.5947 40.2402L10.625 39.9707L10.6543 39.7021C10.6737 39.5271 10.6916 39.3498 10.708 39.1719L10.7588 38.625C10.7827 38.3663 10.8478 38.1166 10.9541 37.8799L11.0654 37.6328L11.1758 37.3867C11.2417 37.24 11.302 37.091 11.3555 36.9404L11.4453 36.6875L11.5352 36.4336C11.6115 36.2188 11.7093 36.0129 11.8281 35.8174L11.9697 35.585L12.1104 35.3535C12.2413 35.1382 12.4038 34.9436 12.5918 34.7705L12.8057 34.5732L13.0176 34.3779L13.0303 34.0967L13.043 33.8086C13.0598 33.4262 13.2207 33.0854 13.5078 32.8301L13.7217 32.6406L13.9355 32.4502C13.9921 32.3998 14.0196 32.3531 14.0352 32.3076L14.1221 32.0537L14.209 31.7988C14.2954 31.5458 14.4262 31.3147 14.5986 31.1104L14.9463 30.6982C15.0382 30.5894 15.1202 30.4754 15.1914 30.3574L15.3271 30.1309L15.4639 29.9043C15.4873 29.8653 15.5126 29.8021 15.5195 29.6953L15.5391 29.3896L15.5586 29.085C15.5831 28.7026 15.7454 28.3484 16.0635 28.0947L16.2812 27.9209L16.5 27.7461C16.548 27.7078 16.578 27.6664 16.5986 27.6133L16.6982 27.3555L16.7988 27.0967C16.8786 26.8907 16.9739 26.6929 17.084 26.5039L17.2197 26.2695L17.3564 26.0352C17.5255 25.745 17.7726 25.5306 18.0664 25.3896L18.333 25.2617L18.5879 25.1387L18.6719 24.8779L18.7598 24.6006C18.8763 24.2344 19.1212 23.9448 19.4688 23.7734L19.9844 23.5195C20.1312 23.4472 20.2678 23.3696 20.3936 23.2871L20.8486 22.9883C20.9466 22.9239 21.0314 22.8505 21.1035 22.7676L21.2773 22.5664L21.4512 22.3662C21.6102 22.1831 21.7932 22.0242 21.9961 21.8906L22.4434 21.5957C22.4753 21.5747 22.5089 21.5421 22.54 21.4766L22.6641 21.2148L22.7871 20.9541C22.8888 20.7396 23.0092 20.5373 23.1484 20.3506L23.4785 19.9092C23.648 19.6821 23.859 19.4964 24.1074 19.3594L24.3457 19.2285L24.584 19.0967C24.6798 19.0438 24.7658 18.9783 24.8418 18.8994L25.0303 18.7041L25.2188 18.5078C25.4622 18.2551 25.7698 18.109 26.1035 18.0566L26.3965 18.0107L26.6904 17.9648C26.7101 17.9617 26.7198 17.9579 26.7217 17.957C26.7222 17.9565 26.7229 17.9551 26.7236 17.9541L26.9014 17.7393L27.0781 17.5244C27.2113 17.3633 27.3524 17.2093 27.5 17.0635L27.6963 16.8701L27.8916 16.6768C28.1317 16.4397 28.4282 16.2946 28.7559 16.2412L29.3223 16.1494C29.501 16.1203 29.6761 16.088 29.8467 16.0527L30.1191 15.9971L30.3906 15.9404C30.4973 15.9184 30.589 15.8826 30.6689 15.835L31.124 15.5635C31.2405 15.4939 31.3543 15.412 31.4648 15.3184L31.6738 15.1406L31.8838 14.9629C32.0341 14.8355 32.189 14.7127 32.3467 14.5947L32.5654 14.4307L32.7852 14.2656C33.0468 14.0699 33.3499 13.9637 33.6729 13.9453L33.9541 13.9287L34.2363 13.9131C34.3956 13.904 34.5485 13.8852 34.6943 13.8584L34.96 13.8105L35.2246 13.7617C35.3144 13.7452 35.3981 13.7128 35.4775 13.6641L35.708 13.5225L35.9395 13.3809C36.0753 13.2974 36.2111 13.2046 36.3467 13.1045L36.5742 12.9375L36.8008 12.7695C37.1052 12.5448 37.4636 12.4591 37.832 12.5078L38.1201 12.5459L38.3994 12.582L38.6221 12.4082L38.8516 12.2275C39.086 12.0433 39.3542 11.9145 39.6514 11.8584L39.916 11.8086L40.1797 11.7588C40.3858 11.72 40.5945 11.6944 40.8047 11.6826L41.0742 11.668L41.3438 11.6523C41.5403 11.6413 41.7381 11.6376 41.9355 11.6406L42.2061 11.6445L42.4775 11.6484C42.5646 11.6497 42.6485 11.6345 42.7324 11.6016L42.9863 11.502L43.2412 11.4014C43.498 11.3004 43.7679 11.2519 44.0439 11.2588L44.583 11.2725C44.7702 11.2772 44.9579 11.2854 45.1436 11.2959L45.4111 11.3105L45.6787 11.3262C45.7935 11.3326 45.9076 11.3239 46.0215 11.2998L46.2852 11.2441L46.5479 11.1875C46.6676 11.1621 46.7937 11.1209 46.9248 11.0605L47.1885 10.9395L47.4521 10.8174L47.585 10.7646C47.7233 10.7175 47.8787 10.69 48.0449 10.7012C48.2731 10.7167 48.4767 10.802 48.6445 10.9307L48.7949 11.0459C48.9089 11.032 49.028 11.0356 49.123 11.042L49.3906 11.0596L49.6572 11.0771C49.791 11.0861 49.9252 11.0831 50.0596 11.0674L50.5928 11.0049C50.7247 10.9894 50.86 10.9609 50.9971 10.918L51.2637 10.834L51.5303 10.751L51.6943 10.7109C52.0746 10.6457 52.4263 10.7698 52.7061 10.9824L52.9727 11.1855L53.1006 11.2832L53.2119 11.208L53.4785 11.0293C53.7306 10.8598 54.0253 10.7511 54.3467 10.7539L54.4863 10.7617L54.7529 10.791L55.0195 10.8193C55.2593 10.8455 55.495 10.9036 55.7246 10.9893L56.2578 11.1885C56.3878 11.237 56.5136 11.2673 56.6348 11.2832L57.168 11.3535C57.2006 11.3578 57.2442 11.3552 57.3115 11.3242L57.5781 11.2021L57.8447 11.0791C58.136 10.9449 58.4531 10.8896 58.7793 10.9375L59.0459 10.9766L59.3125 11.0166C59.4417 11.0356 59.5713 11.0401 59.6992 11.0322L59.9658 11.0166L60.2324 11C60.3605 10.992 60.4912 10.9704 60.624 10.9346L60.8906 10.8623L61.1572 10.791C61.5568 10.6833 61.9395 10.7719 62.2588 10.9756L62.5254 11.1465L62.792 11.3164C62.8106 11.3283 62.8236 11.3335 62.8301 11.3359L63.084 11.29L63.3506 11.2422C63.5647 11.2038 63.7803 11.1827 63.9961 11.1787L64.5293 11.1689C64.6793 11.1662 64.8308 11.155 64.9814 11.1348L65.5146 11.0625C65.7086 11.0364 65.9033 11.0171 66.0977 11.0049L66.3652 10.9883L66.6318 10.9717C66.8527 10.9579 67.0738 10.9647 67.2939 10.9912L67.8271 11.0557C67.8859 11.0627 67.9514 11.0562 68.0293 11.0273L68.5625 10.8301L68.7227 10.7822C69.094 10.6971 69.4517 10.793 69.7471 10.9971L70.0137 11.1816L70.2666 11.3564L70.4736 11.2959L70.7412 11.2168C70.9001 11.1698 71.0604 11.1154 71.2207 11.0537L71.4873 10.9502L71.7539 10.8477L71.8906 10.8027C72.2099 10.7151 72.5367 10.7463 72.8398 10.8857L73.1064 11.0078L73.373 11.1309C73.4378 11.1606 73.4786 11.1615 73.5088 11.1572L74.042 11.0811C74.2096 11.0571 74.3781 11.0293 74.5459 10.998L74.8125 10.9492L75.0791 10.8994C75.2589 10.8659 75.4393 10.8334 75.6191 10.8018L75.8857 10.7549L76.1523 10.707ZM107.12 53.2061C107.107 53.3442 107.106 53.4797 107.118 53.6123L107.142 53.8799C107.147 53.8575 107.151 53.8348 107.157 53.8125L107.233 53.5332L107.296 53.2979L107.143 53.082L107.133 53.0684L107.12 53.2061Z" fill="#303A4B"/>
</svg>
