<svg width="128" height="128" viewBox="0 0 128 128" fill="none" xmlns="http://www.w3.org/2000/svg">
<g clip-path="url(#clip0_395_2717)">
<path d="M118.529 77.4424C118.608 77.8033 118.543 78.1539 118.377 78.4639L118.236 78.7305L118.106 78.9707L118.198 79.1973L118.304 79.4639C118.426 79.7685 118.458 80.0949 118.384 80.4209L118.324 80.6875L118.262 80.9541C118.252 80.9992 118.253 81.044 118.272 81.1006L118.454 81.6338C118.534 81.8717 118.583 82.1166 118.593 82.3652L118.605 82.6318L118.616 82.8984C118.63 83.2304 118.538 83.5413 118.379 83.8174L118.225 84.084L118.072 84.3516C118.055 84.3806 118.05 84.3972 118.049 84.4014V84.4043L118.145 84.9375C118.171 85.0835 118.208 85.2319 118.255 85.3809L118.339 85.6475L118.424 85.9141C118.543 86.2887 118.493 86.6636 118.318 86.9951L118.177 87.2617L118.036 87.5293C118.027 87.5452 118.023 87.5557 118.022 87.5605L118.086 87.8271L118.152 88.0947C118.189 88.247 118.235 88.4011 118.291 88.5557L118.482 89.0889C118.569 89.3315 118.619 89.5832 118.627 89.8389L118.645 90.3721C118.655 90.6769 118.585 90.9686 118.455 91.2383L118.326 91.5049L118.198 91.7715C118.176 91.8171 118.179 91.8336 118.181 91.8418L118.3 92.375C118.339 92.5494 118.379 92.725 118.42 92.8994L118.484 93.166L118.546 93.4326C118.599 93.6541 118.629 93.8784 118.637 94.1035L118.657 94.6367C118.664 94.8535 118.654 95.0712 118.626 95.2871L118.591 95.5537L118.557 95.8203C118.542 95.9393 118.541 96.0589 118.555 96.1777L118.62 96.7109C118.667 97.1042 118.537 97.4579 118.329 97.7461L118.135 98.0127L118.042 98.1416L118.125 98.2627L118.306 98.5293C118.531 98.8596 118.625 99.2667 118.485 99.6875L118.396 99.9541L118.306 100.222C118.248 100.396 118.191 100.572 118.135 100.746L118.049 101.013L117.978 101.234L118.135 101.49L118.299 101.757C118.493 102.072 118.577 102.444 118.481 102.833L118.35 103.366C118.318 103.497 118.3 103.626 118.295 103.753L118.286 104.02L118.277 104.287C118.268 104.542 118.218 104.792 118.132 105.034L117.943 105.567C117.92 105.632 117.918 105.683 117.927 105.731L117.977 105.999L118.027 106.266C118.057 106.425 118.093 106.586 118.135 106.747L118.206 107.014L118.277 107.28C118.351 107.562 118.36 107.852 118.302 108.138L118.248 108.404L118.194 108.671C118.175 108.763 118.174 108.853 118.189 108.943L118.234 109.21L118.28 109.477C118.315 109.685 118.336 109.896 118.343 110.106L118.361 110.64C118.367 110.84 118.365 111.04 118.352 111.24L118.335 111.507L118.318 111.773C118.308 111.935 118.303 112.097 118.304 112.259L118.306 112.525L118.307 112.792C118.309 113.07 118.252 113.341 118.147 113.598L118.039 113.864L117.929 114.131C117.91 114.179 117.911 114.207 117.917 114.233L118.042 114.767C118.073 114.899 118.118 115.036 118.18 115.176L118.298 115.442L118.416 115.709C118.604 116.135 118.533 116.57 118.294 116.926L118.115 117.192L117.94 117.452L118.001 117.669L118.077 117.936C118.144 118.174 118.179 118.419 118.178 118.665L118.176 119.198C118.176 119.382 118.173 119.566 118.167 119.749L118.161 120.016L118.153 120.282C118.148 120.453 118.146 120.624 118.146 120.794L118.148 121.327C118.148 121.41 118.164 121.5 118.204 121.602L118.415 122.135C118.539 122.45 118.561 122.786 118.47 123.118L118.397 123.385L118.323 123.651C118.295 123.751 118.287 123.846 118.294 123.938L118.317 124.204L118.338 124.472C118.354 124.664 118.364 124.857 118.368 125.049L118.377 125.582C118.381 125.771 118.381 125.96 118.375 126.148L118.368 126.416L118.361 126.683C118.357 126.82 118.364 126.959 118.383 127.098L118.42 127.364L118.458 127.631C118.499 127.92 118.47 128.207 118.38 128.482L118.293 128.75L118.207 129.017C118.18 129.097 118.175 129.168 118.184 129.235L118.254 129.769C118.282 129.974 118.297 130.181 118.299 130.388L118.305 130.921C118.308 131.205 118.248 131.48 118.138 131.74L118.026 132.007L117.913 132.273C117.886 132.336 117.885 132.377 117.891 132.412L117.935 132.679L117.98 132.945C118.018 133.175 118.031 133.407 118.017 133.639L118.001 133.905L117.985 134.172C117.98 134.255 117.991 134.344 118.023 134.44L118.11 134.707L118.198 134.974C118.267 135.186 118.32 135.402 118.354 135.618L118.397 135.885L118.439 136.151C118.477 136.389 118.483 136.63 118.458 136.869L118.43 137.136L118.403 137.403C118.388 137.542 118.385 137.682 118.393 137.82L118.409 138.087L118.425 138.354C118.438 138.56 118.436 138.768 118.423 138.975L118.39 139.508C118.374 139.768 118.311 140.022 118.211 140.266L117.993 140.799C117.946 140.912 117.923 141.018 117.916 141.115L117.895 141.382L117.875 141.648C117.865 141.792 117.865 141.937 117.875 142.081L117.912 142.614C117.916 142.677 117.936 142.757 117.99 142.856L118.279 143.39C118.426 143.662 118.511 143.963 118.502 144.282L118.495 144.549L118.488 144.815C118.481 145.06 118.44 145.301 118.368 145.537L118.286 145.805L118.205 146.071C118.157 146.228 118.116 146.385 118.083 146.54L118.029 146.807L117.973 147.073C117.968 147.098 117.967 147.128 117.99 147.181L118.105 147.447L118.219 147.714C118.327 147.965 118.392 148.23 118.402 148.503L118.421 149.036C118.43 149.265 118.414 149.493 118.374 149.72L118.327 149.986L118.279 150.254C118.239 150.475 118.178 150.691 118.085 150.887L117.998 151.071L117.91 151.257C117.715 151.666 117.335 151.833 117 151.875L116.467 151.941C116.305 151.962 116.142 151.988 115.979 152.019L115.446 152.12C115.213 152.164 114.978 152.181 114.743 152.169L114.209 152.142C114.011 152.131 113.813 152.112 113.616 152.085L113.349 152.049L113.083 152.012C112.903 151.987 112.723 151.962 112.543 151.936L112.01 151.857C111.898 151.841 111.787 151.84 111.675 151.855L111.408 151.892L111.141 151.928C110.961 151.952 110.781 151.976 110.601 151.998L110.068 152.064C109.791 152.099 109.514 152.075 109.247 151.997L108.98 151.919L108.713 151.842C108.702 151.838 108.695 151.838 108.692 151.838C108.688 151.838 108.676 151.84 108.655 151.849L108.388 151.961L108.122 152.072C107.752 152.227 107.362 152.214 107.005 152.043L106.472 151.787C106.334 151.721 106.2 151.672 106.071 151.64L105.804 151.571L105.538 151.504C105.487 151.491 105.44 151.491 105.384 151.508L104.851 151.668C104.546 151.76 104.232 151.764 103.924 151.68L103.391 151.533C103.331 151.517 103.277 151.516 103.219 151.53L102.953 151.598L102.686 151.664C102.532 151.703 102.376 151.751 102.219 151.807L101.686 151.998C101.373 152.11 101.045 152.125 100.722 152.035L100.189 151.887C100.04 151.845 99.8912 151.814 99.7446 151.793L99.478 151.754L99.2114 151.716C99.1179 151.702 99.0238 151.705 98.9272 151.726L98.6606 151.783L98.394 151.84C98.0835 151.906 97.7723 151.882 97.4761 151.777L97.2095 151.684L96.9741 151.6L96.7202 151.74L96.4536 151.886C96.2671 151.988 96.0504 152.049 95.8149 152.039C95.581 152.029 95.3721 151.949 95.1978 151.838L94.9312 151.669L94.7319 151.542L94.5552 151.628L94.2886 151.756C93.9524 151.918 93.5814 151.951 93.2173 151.827L92.6841 151.646C92.6043 151.618 92.535 151.614 92.4702 151.622L91.937 151.69C91.7322 151.717 91.5263 151.732 91.3208 151.734L90.7876 151.74C90.6318 151.742 90.475 151.751 90.3188 151.768L89.7856 151.822C89.5302 151.849 89.275 151.834 89.0239 151.777L88.7573 151.717L88.4907 151.657C88.3559 151.627 88.222 151.611 88.0903 151.606L87.8237 151.598L87.5571 151.59C87.3894 151.585 87.2209 151.583 87.0532 151.585L86.7866 151.587L86.52 151.59C86.4383 151.591 86.3481 151.608 86.2466 151.649L85.98 151.757L85.7134 151.865C85.4637 151.966 85.2025 152.025 84.9341 152.033L84.4009 152.049C84.247 152.053 84.0924 152.066 83.938 152.086L83.6704 152.12L83.4038 152.155C83.0024 152.207 82.6437 152.071 82.355 151.856L82.0884 151.657L81.8716 151.496L81.7056 151.562L81.439 151.666C81.113 151.794 80.7663 151.808 80.4292 151.7L80.1626 151.615L79.9243 151.538L79.6606 151.687L79.394 151.836C79.1346 151.982 78.8506 152.074 78.5483 152.089L78.2817 152.103L78.0151 152.115C77.8361 152.124 77.6561 152.133 77.4771 152.141L76.9438 152.164C76.6698 152.176 76.4005 152.132 76.1421 152.041L75.8755 151.947L75.6089 151.853C75.4573 151.799 75.3065 151.756 75.1577 151.723L74.8911 151.662L74.6479 151.607C74.6432 151.61 74.6369 151.614 74.6294 151.619L74.3628 151.789L74.0962 151.96C73.778 152.163 73.3967 152.253 72.9976 152.147L72.4644 152.007C72.3989 151.99 72.3389 151.988 72.2759 152.003L72.0083 152.066L71.7417 152.129C71.4842 152.189 71.2219 152.204 70.9595 152.172L70.6929 152.14L70.4263 152.106C70.1265 152.07 69.8485 151.957 69.5972 151.797L69.3306 151.627L69.1899 151.537L69.0435 151.637L68.7759 151.815C68.5192 151.988 68.2292 152.108 67.9116 152.138L67.645 152.162L67.3784 152.188C67.1727 152.207 66.9663 152.214 66.7603 152.208L66.4937 152.2L66.2271 152.193C65.9576 152.186 65.6952 152.127 65.4448 152.025L64.9116 151.809C64.7578 151.746 64.6045 151.693 64.4536 151.65L64.187 151.576L63.936 151.505C63.9331 151.506 63.9294 151.509 63.9253 151.512L63.3921 151.809C62.9919 152.031 62.5463 152.022 62.1548 151.794L61.8882 151.639L61.6206 151.483C61.5977 151.47 61.584 151.465 61.5796 151.464L61.3179 151.517L61.0513 151.569C60.9575 151.588 60.8506 151.626 60.731 151.694L60.4644 151.846L60.1978 151.998C59.8946 152.171 59.5473 152.248 59.1831 152.181L58.9165 152.132L58.6499 152.082C58.5569 152.065 58.4653 152.064 58.3726 152.081L58.106 152.129L57.8394 152.178C57.4961 152.24 57.1631 152.179 56.8628 152.029L56.5962 151.896L56.3296 151.765C56.1924 151.696 56.0597 151.646 55.9331 151.613L55.6665 151.544L55.4175 151.479C55.4139 151.48 55.4092 151.483 55.4038 151.486L54.8706 151.797C54.6118 151.947 54.3264 152.044 54.022 152.062L53.7554 152.079L53.4888 152.095C53.1634 152.114 52.8555 152.034 52.5776 151.886L52.311 151.743L52.1157 151.639L51.9204 151.746L51.6538 151.893C51.2465 152.115 50.798 152.095 50.4106 151.86L50.144 151.698L49.9312 151.568L49.7397 151.656L49.4731 151.777C49.1632 151.918 48.8251 151.96 48.4839 151.88L47.9507 151.755C47.8077 151.721 47.6653 151.699 47.5249 151.688L46.9917 151.647C46.8477 151.636 46.703 151.635 46.5591 151.645L46.0259 151.68C45.7776 151.696 45.53 151.675 45.2866 151.619L44.7661 151.499C44.761 151.501 44.7531 151.505 44.7437 151.511L44.2104 151.829C43.8808 152.026 43.4944 152.096 43.1011 151.974L42.8345 151.89L42.5679 151.807C42.5088 151.788 42.4591 151.787 42.4077 151.799L42.1411 151.861L41.8735 151.923C41.6674 151.971 41.4595 152.006 41.2515 152.027L40.7183 152.082C40.4329 152.111 40.1512 152.075 39.8813 151.982L39.6147 151.891L39.3481 151.8C39.2819 151.777 39.2283 151.775 39.1763 151.784L38.9097 151.833L38.6421 151.883C38.3288 151.941 38.0182 151.907 37.7251 151.795L37.4585 151.692L37.1919 151.591C37.1587 151.578 37.1425 151.579 37.1206 151.586L36.854 151.667L36.5874 151.749C36.3019 151.836 36.0061 151.855 35.7114 151.798L35.4448 151.746L35.1782 151.695C35.129 151.686 35.0781 151.688 35.0142 151.71L34.7476 151.803L34.481 151.896C34.2655 151.972 34.0466 152.028 33.8257 152.063L33.2925 152.149C33.039 152.19 32.7831 152.189 32.5298 152.147L31.9966 152.06C31.7287 152.015 31.4737 151.92 31.2339 151.786L30.9663 151.638L30.7993 151.545L30.6226 151.655L30.356 151.821C30.0684 152.001 29.7342 152.101 29.3735 152.064L28.8403 152.01C28.6168 151.987 28.3949 151.942 28.1763 151.877L27.9097 151.798L27.6431 151.718C27.5909 151.702 27.5467 151.702 27.4976 151.715L26.9644 151.859C26.6574 151.942 26.344 151.935 26.0405 151.844L25.7739 151.764L25.5073 151.683C25.4957 151.679 25.4893 151.68 25.4868 151.68C25.4841 151.68 25.473 151.681 25.4526 151.689L25.186 151.8L24.9194 151.911C24.5153 152.079 24.1005 152.028 23.7466 151.815L23.48 151.655L23.2739 151.531L23.0864 151.622L22.8198 151.75C22.5647 151.872 22.2922 151.946 22.0083 151.958L21.4751 151.979C21.1492 151.993 20.843 151.907 20.5679 151.754L20.3013 151.605L20.0366 151.458L19.7964 151.536L19.5298 151.621C19.2991 151.695 19.0635 151.742 18.8247 151.757L18.5581 151.773L18.2915 151.791C18.1202 151.802 17.9482 151.815 17.7769 151.83L17.2437 151.879C16.9377 151.907 16.6409 151.851 16.3638 151.731L16.0972 151.616L15.8618 151.514L15.6216 151.63L15.355 151.759C15.0437 151.909 14.6999 151.957 14.3511 151.876L14.0835 151.813L13.8169 151.751C13.6818 151.719 13.5482 151.701 13.4165 151.695L13.1499 151.685L12.8833 151.673C12.7261 151.666 12.5678 151.667 12.4106 151.674L11.8774 151.697C11.6454 151.708 11.4136 151.692 11.1841 151.649L10.6509 151.552C10.4622 151.517 10.163 151.446 9.94092 151.244L9.84814 151.159L9.75537 151.075C9.61996 150.952 9.54163 150.806 9.49561 150.697C9.44717 150.583 9.41364 150.461 9.38916 150.345L9.3335 150.078L9.27686 149.812C9.23108 149.594 9.20459 149.374 9.19775 149.153L9.18994 148.887L9.18115 148.62C9.17476 148.413 9.18206 148.205 9.20166 147.998L9.22705 147.731L9.25146 147.464C9.27153 147.253 9.30708 147.042 9.35693 146.833L9.48389 146.3C9.491 146.27 9.49209 146.239 9.47314 146.19L9.36865 145.924L9.26514 145.657C9.15379 145.372 9.11292 145.069 9.15771 144.762L9.23584 144.229C9.24964 144.133 9.24695 144.038 9.22705 143.94L9.17236 143.674L9.11865 143.407C9.07086 143.173 9.0519 142.936 9.06299 142.698L9.07471 142.432L9.0874 142.165C9.09572 141.987 9.10423 141.809 9.11279 141.631L9.13818 141.098C9.15302 140.791 9.24914 140.504 9.39893 140.243L9.70557 139.71C9.72353 139.679 9.72856 139.659 9.72998 139.652C9.73087 139.648 9.73129 139.645 9.73096 139.643L9.68896 139.375L9.64697 139.108C9.6278 138.987 9.59308 138.86 9.54053 138.729L9.32568 138.196C9.20721 137.901 9.17042 137.586 9.22998 137.268L9.27979 137L9.32959 136.733C9.37148 136.51 9.43564 136.29 9.52002 136.073L9.62354 135.807L9.72803 135.54C9.7623 135.452 9.77224 135.377 9.76807 135.31L9.75146 135.043L9.73389 134.776C9.72988 134.714 9.71084 134.634 9.65771 134.535L9.51416 134.269L9.37061 134.001C9.18603 133.657 9.14437 133.267 9.28564 132.885L9.48291 132.352C9.48544 132.345 9.48648 132.34 9.48682 132.338V132.335C9.48631 132.333 9.48471 132.327 9.48193 132.319L9.27686 131.786C9.12611 131.393 9.17544 130.992 9.37354 130.646L9.67822 130.112C9.69525 130.082 9.69963 130.065 9.70068 130.06C9.70124 130.057 9.70104 130.055 9.70068 130.053L9.60889 129.52C9.59289 129.428 9.55668 129.323 9.49268 129.206L9.34717 128.939L9.20166 128.672C9.09269 128.472 9.03284 128.237 9.06201 127.983C9.0908 127.736 9.19816 127.527 9.32666 127.361L9.53369 127.095L9.67236 126.917L9.60498 126.787L9.46924 126.521C9.34152 126.269 9.25997 126 9.23877 125.718L9.21924 125.451L9.19873 125.185C9.18216 124.963 9.18612 124.741 9.21045 124.521L9.23975 124.254L9.26904 123.986C9.28603 123.832 9.29569 123.677 9.29736 123.523L9.30322 122.99C9.3057 122.766 9.33077 122.543 9.37646 122.321L9.43115 122.054L9.48584 121.787C9.5097 121.671 9.51767 121.558 9.51025 121.445L9.4751 120.912C9.45973 120.68 9.47065 120.447 9.5083 120.217L9.59619 119.684C9.61022 119.597 9.6076 119.511 9.5874 119.422L9.46631 118.889C9.43489 118.75 9.39053 118.608 9.33252 118.464L9.11768 117.931C9.01323 117.671 8.95873 117.398 8.96436 117.117L8.97021 116.851L8.9751 116.584C8.98111 116.291 9.05718 116.011 9.18506 115.751L9.44678 115.218C9.48304 115.144 9.48687 115.095 9.48389 115.061L9.43701 114.527C9.41848 114.318 9.41403 114.107 9.42432 113.896L9.43799 113.63L9.45068 113.363C9.45985 113.176 9.47317 112.989 9.48975 112.802L9.53662 112.269C9.53965 112.234 9.53555 112.184 9.49951 112.11L9.36963 111.844L9.23877 111.577C9.10306 111.299 9.0348 110.995 9.05811 110.679L9.09717 110.146C9.11908 109.85 9.21252 109.572 9.35596 109.316L9.50635 109.05L9.59424 108.893L9.48096 108.722L9.30615 108.455C9.10429 108.148 9.00261 107.777 9.0874 107.382L9.14502 107.115L9.20166 106.849C9.23023 106.715 9.24532 106.583 9.24756 106.453L9.25244 106.187L9.25732 105.919C9.26217 105.64 9.32462 105.37 9.43506 105.115L9.55029 104.849L9.6665 104.582C9.71463 104.471 9.73831 104.369 9.74561 104.276L9.76709 104.01L9.7876 103.743C9.79561 103.64 9.78834 103.534 9.76318 103.426L9.70068 103.159L9.63916 102.893C9.58086 102.642 9.56288 102.386 9.5874 102.13L9.63818 101.597C9.63878 101.591 9.64122 101.562 9.60205 101.497L9.28174 100.964C9.09687 100.655 9.013 100.295 9.09326 99.917L9.20654 99.3838C9.25632 99.1496 9.33427 98.9198 9.43799 98.6973L9.56201 98.4307L9.68701 98.1641C9.72103 98.0908 9.72585 98.0397 9.72217 98.001L9.66943 97.4678C9.65781 97.3493 9.63067 97.2257 9.58643 97.0986L9.40088 96.5654C9.28217 96.2243 9.29182 95.8705 9.42334 95.5371L9.52881 95.2705L9.61865 95.0439L9.48779 94.8018L9.34424 94.5352C9.19627 94.2601 9.11415 93.9551 9.12842 93.6328L9.15186 93.0996C9.15925 92.9329 9.16277 92.7653 9.1626 92.5986V92.332L9.16162 92.0654C9.1614 91.7521 9.24911 91.4571 9.396 91.1895L9.54248 90.9229L9.63721 90.75L9.52588 90.5693L9.36279 90.3018C9.168 89.9826 9.08626 89.6065 9.18994 89.2158L9.26123 88.9482L9.33154 88.6816C9.34679 88.6239 9.34682 88.5714 9.33154 88.5137L9.19092 87.9805C9.12571 87.7346 9.09766 87.4834 9.10986 87.2305L9.13525 86.6973C9.15044 86.3848 9.25197 86.0935 9.40869 85.832L9.56787 85.5654L9.72803 85.2988C9.73003 85.2954 9.73153 85.2917 9.73291 85.2891L9.66748 85.0498L9.59521 84.7832C9.52724 84.531 9.50187 84.2726 9.521 84.0127L9.56006 83.4795C9.56912 83.3562 9.5637 83.2312 9.54443 83.1064L9.4624 82.5732C9.4263 82.3393 9.41797 82.1034 9.43896 81.8682L9.46338 81.6016L9.48682 81.335C9.49913 81.1968 9.50048 81.058 9.48975 80.9199L9.46826 80.6533L9.44775 80.3867C9.42872 80.1417 9.44502 79.8968 9.49463 79.6553L9.54932 79.3887L9.604 79.1211C9.60814 79.1005 9.61016 79.0735 9.5874 79.0225L9.46729 78.7559L9.34814 78.4893C9.21025 78.1812 9.20167 77.8618 9.30127 77.5664L9.43018 77.7578C9.60373 78.0179 9.83517 78.2247 10.1177 78.3643L10.3677 78.4883L10.6187 78.6123C10.7959 78.6998 10.9758 78.783 11.1567 78.8613L11.4116 78.9717L11.6675 79.082C11.8706 79.17 12.0799 79.2424 12.2944 79.2988L12.5649 79.3701L12.8345 79.4414C13.0842 79.507 13.3402 79.5334 13.5981 79.5215L13.8774 79.5088L14.1558 79.4961C14.4114 79.4842 14.6615 79.4348 14.9028 79.3496L15.1675 79.2568L15.2876 79.2139C15.3433 79.3982 15.4179 79.5763 15.5112 79.7461L15.771 80.2188C15.8257 80.3183 15.8648 80.4218 15.8892 80.5293L15.9487 80.7891L16.0073 81.0498C16.059 81.278 16.1377 81.4977 16.2417 81.707L16.3599 81.9453L16.478 82.1826C16.5119 82.2509 16.5349 82.3329 16.5415 82.4336L16.5601 82.7158L16.5776 82.999C16.5922 83.2234 16.6237 83.4448 16.6724 83.6611L16.7329 83.9307L16.7935 84.1992C16.8474 84.4386 16.9321 84.668 17.0464 84.8838L17.1724 85.1221L17.2993 85.3613C17.4503 85.646 17.6744 85.868 17.9409 86.0322L18.4604 86.3525C18.5441 86.4042 18.581 86.4507 18.5991 86.4834L18.855 86.9482C18.9242 87.0738 18.9864 87.2069 19.0396 87.3457L19.1362 87.5996L19.2339 87.8535C19.3499 88.1565 19.5468 88.4067 19.8062 88.5947L20.0347 88.7598L20.2632 88.9258C20.2669 88.9285 20.2692 88.9308 20.27 88.9316V88.9307L20.271 88.9326C20.272 88.9353 20.2739 88.942 20.2759 88.9512L20.3374 89.2354L20.3999 89.5195C20.456 89.7772 20.5484 90.0219 20.6812 90.2471L20.9565 90.7139C21.1376 91.0205 21.4094 91.2321 21.7241 91.3584L22.0054 91.4717L22.2866 91.584C22.3549 91.6114 22.3736 91.637 22.3804 91.6475L22.5249 91.873L22.6704 92.0986C22.7874 92.2807 22.918 92.453 23.062 92.6133L23.2397 92.8105L23.4175 93.0088C23.5354 93.14 23.6541 93.2717 23.772 93.4033L23.9497 93.6025L24.1274 93.8008C24.257 93.9454 24.3921 94.0857 24.5317 94.2207L24.7231 94.4062L24.9146 94.5908C25.0639 94.7352 25.2233 94.8707 25.3901 94.9951L25.604 95.1543L25.8188 95.3145C25.9255 95.394 26.0246 95.4837 26.1147 95.582L26.2954 95.7783L26.4761 95.9756C26.5867 96.0962 26.6953 96.2222 26.8003 96.3516L27.1421 96.7734C27.3161 96.9877 27.5283 97.1614 27.772 97.291L28.0112 97.4189L28.2515 97.5459C28.3025 97.5731 28.348 97.6127 28.3892 97.6748L28.5444 97.9102L28.7007 98.1455C28.898 98.4431 29.1813 98.6508 29.5229 98.751L29.7954 98.8301L30.0679 98.9102C30.2126 98.9526 30.3465 99.0046 30.4683 99.0645L30.7085 99.1826L30.9497 99.3018C30.9531 99.3032 30.9754 99.3142 31.0063 99.376L31.144 99.6514L31.2817 99.9277C31.4434 100.251 31.7043 100.514 32.0669 100.647L32.5806 100.837C32.6892 100.877 32.7877 100.93 32.8765 100.996L33.0923 101.156L33.3091 101.316C33.4731 101.438 33.6434 101.551 33.8188 101.654L34.0493 101.79L34.2808 101.926C34.5237 102.069 34.7892 102.155 35.0679 102.19L35.353 102.226L35.6372 102.262C35.694 102.269 35.7261 102.286 35.7524 102.309L35.9595 102.488L36.1665 102.667C36.3367 102.814 36.5189 102.946 36.7114 103.059L36.9429 103.193L37.1733 103.329C37.3785 103.449 37.5969 103.543 37.8257 103.609L38.3452 103.76C38.5099 103.808 38.6737 103.858 38.8345 103.911L39.3423 104.079C39.4147 104.103 39.4868 104.143 39.5591 104.207L39.77 104.395L39.9819 104.582C40.165 104.744 40.3646 104.882 40.5796 104.992L40.8188 105.114L41.0581 105.237C41.2531 105.337 41.4565 105.421 41.6655 105.486L41.9224 105.566L42.1782 105.647C42.3813 105.711 42.5894 105.761 42.8003 105.796L43.0679 105.841L43.3354 105.885C43.4754 105.908 43.6114 105.942 43.7427 105.987L44.2505 106.161C44.366 106.201 44.4798 106.254 44.5903 106.323L44.8237 106.47L45.0571 106.617C45.2812 106.758 45.5245 106.857 45.7827 106.913L46.3101 107.026C46.5558 107.079 46.8072 107.095 47.0601 107.075L47.3423 107.054L47.6255 107.031C47.7335 107.023 47.8273 107.034 47.9106 107.059L48.1665 107.133L48.4233 107.207C48.6074 107.261 48.7933 107.309 48.98 107.352L49.2397 107.411L49.4995 107.47C49.6194 107.497 49.7386 107.539 49.8569 107.596L50.105 107.714L50.3521 107.832C50.6573 107.978 50.9858 108.017 51.313 107.959L51.5952 107.908L51.8774 107.858C51.8848 107.857 51.8896 107.856 51.8911 107.856C51.8927 107.857 51.8965 107.86 51.9019 107.863L52.3882 108.166C52.7174 108.371 53.0917 108.426 53.4634 108.332L53.7466 108.261L54.0288 108.189C54.1642 108.155 54.2882 108.14 54.4009 108.141L54.6675 108.143L54.9351 108.145C54.9423 108.145 54.9702 108.144 55.0288 108.188L55.2739 108.369L55.52 108.55C55.8277 108.777 56.2015 108.881 56.5991 108.803L56.8726 108.749L57.147 108.694C57.2724 108.67 57.3915 108.662 57.5044 108.669L57.77 108.687L58.0356 108.703C58.1895 108.713 58.3437 108.73 58.4966 108.755L58.7603 108.798L59.0239 108.84C59.2319 108.873 59.4416 108.892 59.6519 108.896L59.9185 108.902L60.1841 108.907C60.2949 108.909 60.4084 108.927 60.5249 108.962L60.7896 109.041L61.0532 109.119C61.2505 109.178 61.4495 109.228 61.6489 109.267L61.9136 109.318L62.1792 109.37C62.3748 109.408 62.5721 109.439 62.77 109.461L63.0386 109.49L63.3062 109.521C63.6431 109.558 63.965 109.484 64.2534 109.332L64.7886 109.049C64.9118 108.984 65.0231 108.946 65.1216 108.928L65.6509 108.828C65.8057 108.799 65.9604 108.778 66.1138 108.764L66.3774 108.738L66.6421 108.714C66.7748 108.702 66.9095 108.701 67.0454 108.713L67.5806 108.76C67.8145 108.78 68.0483 108.773 68.2798 108.737L68.5425 108.696L68.8052 108.656C68.915 108.639 69.0283 108.638 69.146 108.651L69.4165 108.683L69.686 108.715C69.8002 108.728 69.9256 108.759 70.061 108.812L70.3403 108.92L70.6196 109.029C70.9541 109.159 71.3155 109.175 71.6665 109.043L71.9253 108.945L72.1831 108.848C72.3317 108.792 72.4805 108.744 72.6284 108.706L72.8892 108.639L73.1489 108.571C73.3327 108.524 73.5163 108.472 73.6978 108.416L73.9556 108.337L74.2124 108.258C74.317 108.226 74.4244 108.209 74.5356 108.208L75.0767 108.204C75.2334 108.203 75.3935 108.209 75.5552 108.224L75.8306 108.248L76.1069 108.272C76.3505 108.294 76.5933 108.285 76.8325 108.243L77.0981 108.197L77.3628 108.15C77.7298 108.086 78.0275 107.888 78.2554 107.632L78.6909 107.142C78.7221 107.107 78.743 107.091 78.7505 107.087H78.7485L79.0122 107.046L79.2759 107.006C79.3514 106.994 79.4457 106.995 79.564 107.022L79.8569 107.091L80.1509 107.158C80.5556 107.251 80.9576 107.163 81.2837 106.891L81.5083 106.704L81.7329 106.517C81.8426 106.425 81.9513 106.354 82.0571 106.302L82.2983 106.184L82.5396 106.064C82.5571 106.056 82.5872 106.045 82.6538 106.055L83.2417 106.143C83.5494 106.189 83.8608 106.161 84.1567 106.041L84.4048 105.94L84.6528 105.839C84.7504 105.799 84.8561 105.774 84.9712 105.764L85.522 105.715C85.8653 105.684 86.1724 105.545 86.4243 105.317L86.6372 105.125L86.8501 104.934C86.865 104.92 86.875 104.916 86.8784 104.914C86.8818 104.913 86.89 104.91 86.9058 104.909L87.187 104.895L87.4692 104.88C87.838 104.861 88.1662 104.711 88.4233 104.452L88.6265 104.247L88.8306 104.042C88.9112 103.961 88.9904 103.907 89.0669 103.872L89.3081 103.762L89.5503 103.651C89.7763 103.548 89.9843 103.411 90.1724 103.246L90.3794 103.063L90.5874 102.881C90.6553 102.821 90.7252 102.783 90.7993 102.759L91.0542 102.677L91.3081 102.594C91.4428 102.55 91.5869 102.516 91.7388 102.49L92.0161 102.443L92.2935 102.397C92.5852 102.349 92.8577 102.236 93.0962 102.057L93.311 101.895L93.5259 101.733C93.5703 101.7 93.627 101.673 93.7095 101.66L93.9937 101.615L94.2769 101.569C94.5427 101.527 94.7967 101.443 95.0308 101.312L95.2651 101.18L95.4995 101.049C95.7637 100.901 95.9771 100.692 96.1411 100.442L96.4634 99.9521C96.5367 99.8408 96.615 99.754 96.6938 99.6875L97.1021 99.3438C97.1269 99.3229 97.1688 99.2979 97.2515 99.2852L97.5474 99.2393L97.8423 99.1943C98.131 99.1499 98.4052 99.0499 98.6499 98.8848L98.8735 98.7344L99.0962 98.584C99.3147 98.4364 99.5033 98.253 99.6597 98.04L99.9897 97.5908C100.045 97.5161 100.107 97.461 100.176 97.4199L100.409 97.2822L100.642 97.1445C100.903 96.9904 101.113 96.7778 101.268 96.5205L101.414 96.2783L101.559 96.0371C101.571 96.0169 101.582 96.0058 101.613 95.9941L101.881 95.8945L102.15 95.7939C102.505 95.6613 102.777 95.4079 102.936 95.0654L103.058 94.8047L103.179 94.543C103.248 94.3952 103.323 94.2582 103.402 94.1328L103.693 93.6738C103.693 93.6729 103.694 93.6714 103.695 93.6709L103.697 93.6699C103.7 93.6674 103.714 93.658 103.744 93.6484L104.322 93.4629C104.621 93.367 104.893 93.2042 105.106 92.96L105.282 92.7578L105.458 92.5566C105.613 92.3788 105.746 92.1826 105.856 91.9717L105.983 91.7285L106.11 91.4844C106.151 91.4059 106.204 91.3418 106.269 91.2881L106.689 90.9424C106.963 90.7165 107.133 90.416 107.205 90.0811L107.267 89.793L107.329 89.5049C107.33 89.4994 107.331 89.494 107.332 89.4912L107.563 89.332L107.795 89.1719C108.096 88.9643 108.298 88.6676 108.381 88.3135L108.447 88.0371L108.512 87.7598C108.52 87.7289 108.529 87.7169 108.548 87.7012L108.768 87.5254L108.988 87.3506C109.279 87.1186 109.457 86.8012 109.509 86.4375L109.55 86.1543L109.583 85.9229L109.823 85.7822L110.089 85.625C110.357 85.4671 110.586 85.2528 110.745 84.9756L110.878 84.7422L111.012 84.5098C111.154 84.2625 111.236 83.9922 111.264 83.71L111.292 83.4268L111.32 83.1445C111.334 82.9979 111.36 82.8611 111.397 82.7354L111.472 82.4795L111.547 82.2227C111.58 82.1104 111.627 82.003 111.688 81.9004L111.963 81.4375C112.079 81.2431 112.176 81.0388 112.25 80.8262L112.426 80.3242C112.456 80.2385 112.505 80.1488 112.579 80.0566L112.938 79.6074C112.997 79.5338 113.043 79.4556 113.082 79.377C113.279 79.3884 113.476 79.3724 113.671 79.3281L113.937 79.2686L114.202 79.208C114.313 79.1828 114.429 79.1733 114.549 79.1797L115.104 79.209C115.495 79.2298 115.846 79.0891 116.121 78.8271L116.332 78.626L116.542 78.4248C116.649 78.322 116.753 78.2431 116.849 78.1846L117.068 78.0518L117.288 77.9189C117.4 77.8512 117.521 77.7907 117.652 77.7383L117.9 77.6387L118.147 77.5391C118.274 77.4879 118.395 77.4236 118.507 77.3486L118.529 77.4424ZM74.4858 15.6963C74.7396 15.6755 74.972 15.7432 75.1665 15.8555L75.4331 16.0088L75.686 16.1562L75.9146 16.0781L76.1812 15.9873C76.4399 15.8991 76.7088 15.8585 76.9819 15.873L77.2485 15.8877L77.5161 15.9014C77.6998 15.9112 77.8841 15.9237 78.0679 15.9385L78.3354 15.96L78.6021 15.9814C78.7034 15.9895 78.808 15.9819 78.9175 15.9561L79.187 15.8926L79.4556 15.8291C79.8339 15.7398 80.1997 15.8148 80.5151 16.0049L80.7749 16.1611L81.0005 16.2979L81.229 16.2129L81.5034 16.1113C81.771 16.0124 82.052 15.9668 82.3384 15.9854L82.605 16.002L82.8726 16.0195C83.1217 16.0357 83.3653 16.0891 83.6001 16.1768L83.8579 16.2725L84.1147 16.3691C84.1802 16.3935 84.2457 16.4018 84.3188 16.3936L84.8696 16.3311C85.1935 16.2945 85.5093 16.3531 85.7983 16.502L86.0464 16.6299L86.2954 16.7578C86.3859 16.8044 86.4734 16.8305 86.5601 16.8398L86.8267 16.8682L87.0923 16.8965C87.2479 16.9132 87.4075 16.9232 87.5688 16.9258L87.8423 16.9297L88.1167 16.9346C88.3621 16.9385 88.6039 16.975 88.8384 17.0439L89.0962 17.1191L89.354 17.1953C89.5172 17.2433 89.6816 17.2882 89.8462 17.3301L90.1069 17.3965L90.3667 17.4629C90.6088 17.5245 90.8393 17.6208 91.0542 17.75L91.2896 17.8926L91.5249 18.0342C91.6374 18.1018 91.7527 18.1539 91.8696 18.1924L92.1235 18.2764L92.3774 18.3594C92.5201 18.4063 92.6677 18.4455 92.8188 18.4766L93.0854 18.5312L93.3511 18.5859C93.579 18.6328 93.7999 18.7046 94.0112 18.7998L94.2563 18.9102L94.5015 19.0195C94.6874 19.1033 94.8691 19.1977 95.0454 19.3008L95.5103 19.5723C95.6351 19.6452 95.7652 19.7088 95.8989 19.7627L96.397 19.9639C96.6153 20.0518 96.8213 20.1649 97.0132 20.3018L97.2329 20.459L97.4526 20.6152C97.5393 20.677 97.6347 20.7255 97.7397 20.7598L97.9995 20.8447L98.2603 20.9287C98.5163 21.0123 98.7512 21.1408 98.9595 21.3115L99.1694 21.4834L99.3784 21.6553C99.4895 21.7464 99.6066 21.828 99.728 21.8994L99.9595 22.0352L100.19 22.1709C100.367 22.275 100.538 22.39 100.703 22.5137L100.917 22.6748L101.131 22.8359C101.243 22.9203 101.363 22.9958 101.489 23.0625L101.967 23.3164C102.283 23.4838 102.507 23.7469 102.646 24.0566L102.77 24.333L102.895 24.6104C102.924 24.6751 102.948 24.6888 102.957 24.6934L103.189 24.8271L103.422 24.96C103.571 25.0448 103.723 25.1281 103.877 25.21L104.118 25.3379L104.359 25.4658C104.586 25.5862 104.79 25.7401 104.966 25.9258L105.335 26.3145C105.481 26.4674 105.616 26.6313 105.74 26.8037L105.898 27.0234L106.055 27.2432C106.056 27.2447 106.058 27.246 106.061 27.248C106.066 27.2513 106.083 27.2612 106.118 27.2705L106.417 27.3506L106.715 27.4297C106.917 27.4835 107.116 27.5849 107.281 27.752C107.404 27.8775 107.491 28.0228 107.547 28.1729L107.594 28.3242L107.667 28.623L107.742 28.9209C107.763 29.0058 107.791 29.0381 107.805 29.0518L108 29.2344L108.195 29.416C108.323 29.5357 108.453 29.6559 108.583 29.7754L108.782 29.957L108.979 30.1387C109.079 30.2307 109.193 30.3174 109.319 30.3984L109.557 30.5518L109.794 30.7041C110.045 30.865 110.251 31.0777 110.4 31.3379L110.669 31.8086C110.792 32.0239 110.885 32.2558 110.947 32.499L111.017 32.7764L111.088 33.0537C111.09 33.061 111.092 33.0663 111.093 33.0684V33.0703L111.095 33.0723C111.097 33.0739 111.101 33.0776 111.108 33.082L111.345 33.2432L111.583 33.4053C111.873 33.6034 112.082 33.8836 112.18 34.2266L112.256 34.4951L112.333 34.7627C112.366 34.8756 112.412 34.9745 112.468 35.0605L112.614 35.2832L112.76 35.5059C112.868 35.6704 112.97 35.8399 113.064 36.0127L113.191 36.2471L113.319 36.4814C113.426 36.6779 113.514 36.8844 113.582 37.0986L113.663 37.3555L113.745 37.6133C113.801 37.7909 113.855 37.9699 113.906 38.1484L113.979 38.4072L114.053 38.665C114.093 38.8042 114.142 38.9388 114.2 39.0664L114.309 39.3066L114.417 39.5469C114.479 39.6835 114.55 39.8179 114.627 39.9492L114.762 40.1787L114.898 40.4082C114.985 40.5565 115.075 40.7061 115.167 40.8545L115.309 41.084L115.451 41.3135C115.537 41.453 115.63 41.5931 115.728 41.7314L116.05 42.1826C116.194 42.3845 116.308 42.6031 116.391 42.835L116.482 43.0879L116.572 43.3408C116.688 43.6666 116.683 44.0022 116.598 44.3193L116.517 44.6211L116.457 44.8447L116.598 44.999L116.802 45.2197C116.988 45.421 117.139 45.6479 117.245 45.8984L117.349 46.1484L117.455 46.3984C117.549 46.6232 117.612 46.8583 117.644 47.0996L117.714 47.6348C117.736 47.7992 117.762 47.9631 117.792 48.125L117.892 48.6523C117.94 48.9062 117.945 49.164 117.91 49.4209L117.873 49.6973L117.834 49.9736C117.822 50.0625 117.829 50.1414 117.85 50.2158L117.924 50.4756L118 50.7354C118.043 50.8878 118.095 51.042 118.154 51.1963L118.353 51.7158C118.456 51.9852 118.5 52.2692 118.477 52.5576L118.456 52.8291L118.434 53.0996C118.412 53.3872 118.326 53.6617 118.193 53.917L118.05 54.1895L117.909 54.4609C117.862 54.5495 117.856 54.6072 117.857 54.6416L117.876 55.1709C117.88 55.2648 117.9 55.3674 117.942 55.4785L118.143 56.0117C118.253 56.3022 118.287 56.6099 118.232 56.9199L118.185 57.1865L118.137 57.4531C118.132 57.4847 118.132 57.5234 118.158 57.583L118.386 58.1162C118.494 58.3684 118.557 58.6341 118.565 58.9082L118.573 59.1748L118.581 59.4424C118.59 59.7693 118.499 60.0751 118.342 60.3486L118.19 60.6152L118.11 60.7539C117.998 60.7195 117.882 60.6964 117.763 60.6846L117.175 60.626C117.052 60.6137 116.964 60.5862 116.901 60.5547L116.673 60.4404L116.446 60.3252C116.342 60.273 116.232 60.2034 116.118 60.1133L115.896 59.9375L115.673 59.7617C115.579 59.6874 115.48 59.6209 115.377 59.5615C115.141 59.6237 114.891 59.6351 114.638 59.5742L114.379 59.5107L114.121 59.4492C113.953 59.409 113.784 59.3703 113.613 59.333L113.347 59.2744L113.322 59.2686L113.129 59.3545L112.859 59.4727C112.788 59.5036 112.736 59.5088 112.688 59.5029L112.414 59.4697L112.138 59.4355C112.077 59.428 112.015 59.4247 111.955 59.4248C111.948 59.3314 111.933 59.2395 111.914 59.1484C111.763 59.1344 111.613 59.1108 111.466 59.0742L110.948 58.9453C110.859 58.9233 110.763 58.9157 110.658 58.9268L110.382 58.9561L110.105 58.9844C109.7 59.0268 109.338 58.8869 109.052 58.6387L108.817 58.4346L108.581 58.2295C108.572 58.2218 108.565 58.216 108.56 58.2129L108.304 58.2275L108.032 58.2432C107.712 58.2608 107.406 58.1873 107.128 58.0342L106.882 57.8984L106.704 57.7988L106.439 57.9199L106.145 58.0537C105.838 58.1938 105.495 58.2544 105.141 58.1777L104.877 58.1201L104.613 58.0625C104.421 58.0208 104.231 57.9733 104.044 57.9189L103.788 57.8438L103.532 57.7705C103.35 57.7175 103.168 57.6597 102.988 57.5977L102.48 57.4219C102.319 57.3665 102.157 57.3138 101.995 57.2646L101.482 57.1094C101.333 57.0643 101.182 57.0276 101.033 56.998L100.774 56.9473L100.513 56.8955C100.38 56.8693 100.24 56.854 100.093 56.8496L99.5405 56.832C99.2691 56.8239 99.0056 56.7679 98.7563 56.6602L98.2632 56.4463C98.0115 56.3374 97.7863 56.1808 97.5874 55.9893L97.3687 55.7793L97.1509 55.5693C97.1039 55.5241 97.0808 55.5203 97.0737 55.5195L96.5386 55.4541C96.3349 55.4292 96.1335 55.3934 95.9351 55.3467L95.6763 55.2861L95.4155 55.2246C95.2042 55.1748 94.9979 55.1077 94.7974 55.0234L94.5513 54.9199L94.3032 54.8164C94.1297 54.7435 93.9581 54.6659 93.7886 54.5859L93.5483 54.4736L93.311 54.3613C93.3037 54.3609 93.2788 54.3614 93.2339 54.373L92.9204 54.4541L92.606 54.5361C92.3843 54.5937 92.1252 54.5997 91.8696 54.4912C91.6173 54.3839 91.4438 54.1971 91.3296 54.0078L91.1548 53.7178L91.02 53.4932L90.853 53.4971L90.563 53.5049C90.195 53.514 89.8491 53.3936 89.5698 53.1426L89.1528 52.7676C89.149 52.7641 89.1462 52.7625 89.145 52.7617V52.7607H89.144C89.1435 52.7606 89.1416 52.76 89.1401 52.7598C89.1367 52.7592 89.1297 52.758 89.1196 52.7578L88.5405 52.75C88.1451 52.7443 87.7934 52.581 87.5337 52.2842L87.3433 52.0654L87.2144 51.918L86.9614 51.9541L86.644 52C86.4398 52.0294 86.2148 52.0182 85.9946 51.9297C85.7718 51.84 85.5988 51.6893 85.4722 51.5137L85.2964 51.2695L85.1753 51.1006L84.9458 51.1172L84.6333 51.1387C84.2929 51.1623 83.9498 51.0926 83.6489 50.8867L83.4272 50.7344L83.2046 50.583C83.0799 50.4977 82.9505 50.4205 82.8169 50.3506L82.3413 50.1006C82.1806 50.0166 82.0204 49.9312 81.8608 49.8457L81.3882 49.5938C81.1109 49.4452 80.8924 49.2282 80.728 48.9688L80.4077 48.4648C80.3326 48.3462 80.2537 48.2529 80.1733 48.1807L79.9731 48.001L79.772 47.8213C79.688 47.7459 79.5981 47.6842 79.4995 47.6367L79.019 47.4062C78.9419 47.3692 78.8412 47.3382 78.7095 47.3242L78.105 47.2617C77.795 47.229 77.4974 47.1257 77.2388 46.9346L77.0239 46.7764L76.8081 46.6162C76.6001 46.4623 76.4215 46.2764 76.272 46.0635L76.1099 45.833L75.9478 45.6016C75.8808 45.5062 75.807 45.4328 75.729 45.375L75.5161 45.2158L75.3013 45.0576C75.1086 44.9149 74.9365 44.7484 74.7856 44.5605L74.4458 44.1357C74.3614 44.0306 74.2694 43.9371 74.1704 43.8545L73.9653 43.6836L73.7612 43.5137C73.6137 43.3907 73.4698 43.2634 73.3306 43.1318L73.1382 42.9492L72.9458 42.7686C72.85 42.678 72.7446 42.595 72.6304 42.5215L72.4038 42.376L72.1782 42.2305C71.9625 42.0918 71.772 41.9218 71.6118 41.7217L71.4438 41.5107L71.2759 41.3018C71.2073 41.216 71.1289 41.1425 71.0386 41.0801L70.8169 40.9268L70.5962 40.7744C70.4731 40.6893 70.3415 40.6086 70.2007 40.5342L69.9526 40.4043L69.7056 40.2725C69.4106 40.1167 69.1804 39.8828 69.0298 39.585L68.7769 39.0859V39.085C68.7764 39.0847 68.7755 39.083 68.7739 39.082C68.7706 39.0801 68.7631 39.0774 68.7524 39.0732L68.4751 38.9658L68.1997 38.8594C67.7839 38.6989 67.5114 38.3656 67.4175 37.9434L67.3501 37.6436L67.2847 37.3438C67.2647 37.2542 67.2355 37.2167 67.2183 37.1992L66.8442 36.8203C66.7711 36.7463 66.6807 36.6779 66.5698 36.6172L66.3198 36.4805L66.0698 36.3428C65.6889 36.1341 65.4708 35.7823 65.4106 35.3799L65.3657 35.0723L65.3237 34.7871L65.1226 34.667L64.8804 34.5195C64.6724 34.3938 64.4879 34.2395 64.3296 34.0576C64.1713 34.2393 63.9875 34.3939 63.7798 34.5195L63.5376 34.667L63.3364 34.7871L63.2944 35.0723L63.2495 35.3799C63.1894 35.7823 62.9713 36.1341 62.5903 36.3428L62.3403 36.4805L62.0903 36.6172C61.9794 36.6779 61.8891 36.7463 61.8159 36.8203L61.4419 37.1992C61.4247 37.2167 61.3954 37.2542 61.3755 37.3438L61.3101 37.6436L61.2427 37.9434C61.1488 38.3656 60.8763 38.6989 60.4604 38.8594L60.1851 38.9658L59.9077 39.0732C59.897 39.0774 59.8896 39.0801 59.8862 39.082C59.8846 39.083 59.8837 39.0847 59.8833 39.085V39.0859L59.6304 39.585C59.4797 39.8828 59.2495 40.1167 58.9546 40.2725L58.7075 40.4043L58.4595 40.5342C58.3186 40.6086 58.1871 40.6893 58.064 40.7744L57.8433 40.9268L57.6216 41.0801C57.5313 41.1426 57.4519 41.216 57.3833 41.3018L57.2163 41.5107L57.0483 41.7217C56.8881 41.9218 56.6976 42.0918 56.4819 42.2305L56.2563 42.376L56.0298 42.5215C55.9155 42.595 55.8102 42.678 55.7144 42.7686L55.522 42.9492L55.3296 43.1318C55.1904 43.2634 55.0464 43.3907 54.8989 43.5137L54.6948 43.6836L54.4897 43.8545C54.3908 43.9371 54.2988 44.0306 54.2144 44.1357L53.8745 44.5605C53.7237 44.7484 53.5516 44.9149 53.3589 45.0576L53.144 45.2158L52.9302 45.375C52.8524 45.4327 52.7792 45.5064 52.7124 45.6016L52.5503 45.833L52.3882 46.0635C52.2386 46.2764 52.06 46.4623 51.8521 46.6162L51.6362 46.7764L51.4214 46.9346C51.1628 47.1258 50.8652 47.229 50.5552 47.2617L49.9507 47.3242C49.8189 47.3382 49.7182 47.3692 49.6411 47.4062L49.1606 47.6367C49.062 47.6842 48.9722 47.7458 48.8882 47.8213L48.687 48.001L48.4868 48.1807C48.4065 48.2529 48.3276 48.3462 48.2524 48.4648L47.9321 48.9688C47.7678 49.2282 47.5492 49.4452 47.272 49.5938L46.7993 49.8457C46.6398 49.9311 46.4796 50.0166 46.3188 50.1006L45.8433 50.3506C45.7096 50.4204 45.5802 50.4977 45.4556 50.583L45.2329 50.7344L45.0112 50.8867C44.7103 51.0927 44.3673 51.1622 44.0269 51.1387L43.7134 51.1172L43.4849 51.1006L43.3638 51.2695L43.188 51.5137C43.0614 51.6893 42.8883 51.84 42.6655 51.9297C42.4454 52.0182 42.2203 52.0294 42.0161 52L41.6987 51.9541L41.4458 51.918L41.3169 52.0654L41.1265 52.2842C40.8667 52.581 40.515 52.7443 40.1196 52.75L39.5405 52.7578C39.5301 52.758 39.5223 52.7592 39.519 52.7598C39.5178 52.76 39.5166 52.7606 39.5161 52.7607H39.5151V52.7617C39.514 52.7625 39.5112 52.7641 39.5073 52.7676L39.0903 53.1426C38.811 53.3936 38.4652 53.514 38.0972 53.5049L37.8071 53.4971L37.6401 53.4932L37.5054 53.7178L37.3306 54.0078C37.2164 54.1971 37.0428 54.3839 36.7905 54.4912C36.5349 54.5997 36.2759 54.5937 36.0542 54.5361L35.7397 54.4541L35.4263 54.373C35.3814 54.3614 35.3565 54.3609 35.3491 54.3613L35.1118 54.4736L34.8716 54.5859C34.7021 54.6659 34.5305 54.7435 34.3569 54.8164L34.1089 54.9199L33.8628 55.0234C33.6623 55.1077 33.456 55.1748 33.2446 55.2246L32.9839 55.2861L32.7251 55.3467C32.5267 55.3934 32.3252 55.4292 32.1216 55.4541L31.5864 55.5195C31.5794 55.5203 31.5564 55.524 31.5093 55.5693L31.2915 55.7793L31.0728 55.9893C30.8739 56.1808 30.6487 56.3374 30.397 56.4463L29.9038 56.6602C29.6545 56.768 29.391 56.8239 29.1196 56.832L28.5669 56.8496C28.42 56.854 28.28 56.8693 28.147 56.8955L27.8862 56.9473L27.6265 56.998C27.4769 57.0276 27.327 57.0644 27.1782 57.1094L26.6655 57.2646C26.5031 57.3138 26.3409 57.3665 26.1802 57.4219L25.6724 57.5977C25.4923 57.6597 25.3105 57.7175 25.1284 57.7705L24.8726 57.8438L24.6157 57.9189C24.4289 57.9733 24.2391 58.0208 24.0474 58.0625L23.7827 58.1201L23.519 58.1777C23.1657 58.2544 22.8224 58.1938 22.5151 58.0537L22.2212 57.9199L21.9565 57.7988L21.7778 57.8984L21.5317 58.0342C21.2541 58.1873 20.9478 58.2608 20.6284 58.2432L20.356 58.2275L20.1001 58.2129C20.0954 58.216 20.0885 58.2218 20.0796 58.2295L19.8433 58.4346L19.6079 58.6387C19.3221 58.8869 18.9605 59.0268 18.5552 58.9844L18.2778 58.9561L18.0024 58.9268C17.897 58.9157 17.8014 58.9233 17.7124 58.9453L17.1938 59.0742C16.9684 59.1302 16.738 59.1596 16.5054 59.1631L16.2378 59.167L16.0874 59.1689C16.0802 59.18 16.0743 59.1921 16.0669 59.2031L15.9956 59.3086L15.9087 59.2734L15.7124 59.1934C15.6675 59.2001 15.6225 59.207 15.5776 59.2168L15.313 59.2744L15.0474 59.333C14.8762 59.3703 14.7067 59.409 14.5396 59.4492L14.2808 59.5107L14.022 59.5742C13.6786 59.6569 13.3411 59.6091 13.0347 59.4775L12.7524 59.3564L12.6831 59.3262C12.55 59.367 12.4238 59.4313 12.3081 59.5176L12.1851 59.6221L11.9663 59.8291L11.7515 60.0332L11.1421 60.002C10.6988 59.9794 10.2991 60.1677 10.0454 60.5479L9.88135 60.7939L9.71826 61.04C9.63266 61.1684 9.54822 61.292 9.46826 61.4111L9.47021 61.374L9.47998 61.1064C9.48697 60.9052 9.50364 60.7035 9.53076 60.5029L9.60303 59.9697C9.61924 59.8496 9.62113 59.729 9.60791 59.6094L9.57764 59.3428L9.54834 59.0762C9.52812 58.8936 9.50985 58.71 9.49365 58.5273L9.44678 57.9941C9.43297 57.8386 9.4118 57.6817 9.3833 57.5254L9.28564 56.9922C9.24809 56.7862 9.22312 56.5784 9.21143 56.3711L9.19678 56.1045L9.18115 55.8379C9.16823 55.6078 9.18088 55.377 9.21826 55.1484L9.30615 54.6133C9.3304 54.4649 9.34437 54.317 9.34912 54.1709L9.3667 53.6377C9.37594 53.3567 9.44564 53.0864 9.56494 52.833L9.68604 52.5752L9.80811 52.3164C9.81041 52.3114 9.81147 52.3075 9.81201 52.3057C9.8118 52.3038 9.81113 52.2989 9.80908 52.292L9.72607 52.0176L9.64404 51.7422C9.558 51.4566 9.5373 51.1599 9.59521 50.8633L9.646 50.6006L9.69775 50.3379C9.73583 50.1431 9.78188 49.949 9.83643 49.7578L9.91064 49.5L9.98389 49.2412C9.99577 49.1991 10.0006 49.1443 9.98096 49.0645L9.91064 48.7803L9.84131 48.4961C9.76322 48.1788 9.77333 47.8513 9.89111 47.5371L9.98682 47.2832L10.0815 47.0283C10.1241 46.9148 10.1519 46.7987 10.1646 46.6797L10.1929 46.4111L10.2212 46.1416C10.2439 45.9274 10.2831 45.7157 10.3374 45.5078L10.4058 45.2471L10.4731 44.9873C10.5169 44.8199 10.5587 44.6509 10.5981 44.4824L10.6597 44.2197L10.7212 43.958C10.7743 43.7312 10.8531 43.5117 10.9556 43.3018L11.0747 43.0576L11.1938 42.8125C11.2788 42.6386 11.3684 42.4667 11.4624 42.2979L11.5942 42.0605L11.7271 41.8242C11.8242 41.6499 11.9285 41.4783 12.0396 41.3115L12.1909 41.085L12.3413 40.8574C12.3854 40.791 12.4141 40.7202 12.4272 40.6396L12.5151 40.0986C12.5484 39.8949 12.5924 39.6932 12.646 39.4951L12.7163 39.2334L12.7876 38.9717C12.8495 38.7431 12.9375 38.5233 13.0513 38.3164L13.1802 38.0811L13.3101 37.8457C13.3723 37.7324 13.4231 37.6115 13.4624 37.4834L13.5425 37.2217L13.6226 36.9609C13.7267 36.6213 13.9398 36.3502 14.2202 36.1543L14.4644 35.9834L14.7085 35.8135C14.8303 35.7284 14.9295 35.6399 15.0093 35.5508L15.1899 35.3486L15.3696 35.1475C15.3939 35.1202 15.416 35.0838 15.4272 35.0176L15.4751 34.7324L15.5229 34.4482C15.5839 34.0891 15.7649 33.7762 16.0571 33.5488L16.2788 33.377L16.4995 33.2051C16.5816 33.1412 16.642 33.0722 16.686 32.999L16.8228 32.7705L16.9604 32.543C17.0217 32.4412 17.074 32.3254 17.1157 32.1953L17.2026 31.9258L17.2886 31.6562C17.3996 31.3097 17.6234 31.0315 17.9351 30.8467L18.1802 30.7012L18.4263 30.5557C18.4577 30.537 18.4694 30.5214 18.48 30.4951L18.5845 30.2344L18.6899 29.9736C18.796 29.711 18.952 29.4767 19.1577 29.2803L19.5464 28.9092C19.6382 28.8215 19.7207 28.7232 19.7935 28.6152L19.9448 28.3906L20.0962 28.165C20.2087 27.998 20.3294 27.8358 20.4556 27.6797L20.6255 27.4697L20.7954 27.2588C20.997 27.0097 21.2572 26.8339 21.5522 26.7275L21.8276 26.6289L22.1021 26.5293C22.122 26.5221 22.13 26.5158 22.1313 26.5146C22.1321 26.514 22.1333 26.5129 22.1343 26.5117C22.1357 26.5101 22.1389 26.5064 22.1421 26.501L22.2817 26.2578L22.4214 26.0137C22.5762 25.744 22.7939 25.5243 23.0669 25.3701L23.3042 25.2354L23.5415 25.1016C23.7161 25.003 23.8952 24.911 24.0776 24.8262L24.3257 24.7109L24.5747 24.5947C24.6906 24.5408 24.7948 24.4762 24.8872 24.4023L25.0942 24.2373L25.3013 24.0713C25.3471 24.0346 25.3993 23.9753 25.4487 23.875L25.5825 23.6035L25.7173 23.332C25.8539 23.0551 26.0486 22.8132 26.3101 22.6348L26.7554 22.332C27.0237 22.1491 27.3281 22.0579 27.6421 22.0391L27.9478 22.0205L28.2534 22.0029C28.3716 21.9958 28.4515 21.9701 28.5063 21.9414L28.7417 21.8174L28.9771 21.6943C29.1099 21.6247 29.239 21.5472 29.3638 21.4629L29.5845 21.3145L29.8052 21.165C30.0143 21.0237 30.242 20.9171 30.4849 20.8467L31.0044 20.6963C31.0074 20.6939 31.0201 20.683 31.0386 20.6553L31.2095 20.3984L31.3794 20.1416C31.5626 19.8653 31.8155 19.641 32.1421 19.5176L32.644 19.3281C32.7883 19.2736 32.93 19.2117 33.0679 19.1426L33.3071 19.0215L33.5474 18.9014C33.8409 18.7542 34.1578 18.707 34.4741 18.7383L34.772 18.7676L35.0698 18.7979C35.189 18.8096 35.2805 18.799 35.3511 18.7783L35.605 18.7031L35.8589 18.6289C35.9796 18.5934 36.0978 18.5452 36.2124 18.4834L36.6851 18.2275C36.8784 18.1233 37.0794 18.0365 37.2866 17.9678L37.5386 17.8838L37.7905 17.8008C38.0159 17.7261 38.2489 17.6804 38.4868 17.6641L39.0259 17.627C39.0643 17.6243 39.1054 17.6128 39.1587 17.5742L39.3901 17.4062L39.6226 17.2373C39.7928 17.1139 39.9681 16.9979 40.147 16.8896L40.3901 16.7422L40.6333 16.5957C40.9396 16.4104 41.285 16.3434 41.6382 16.4004L41.9194 16.4453L42.2007 16.4912C42.2857 16.5049 42.3552 16.4986 42.4175 16.4795L42.6753 16.4004L42.9341 16.3203C43.2104 16.2356 43.4959 16.2161 43.7808 16.2588L44.3296 16.3408C44.4897 16.3648 44.6472 16.3809 44.8013 16.3887L45.0698 16.4023L45.3374 16.416C45.4129 16.4197 45.4903 16.4081 45.5737 16.376L45.8325 16.2754L46.0923 16.1758C46.375 16.0669 46.6733 16.0305 46.9751 16.0732L47.2427 16.1113L47.5112 16.1494C47.5495 16.1548 47.5945 16.1521 47.6587 16.124L47.9243 16.0078L48.1899 15.8906C48.2977 15.8434 48.4385 15.7898 48.5864 15.7686C48.6749 15.7559 49.0373 15.7172 49.3032 16.0029L49.4849 16.0049L49.7524 16.0078C49.9654 16.0101 50.1785 16.0277 50.3901 16.0615L50.6567 16.1045L50.9233 16.1465C51.0779 16.1712 51.2324 16.1882 51.3862 16.1973L51.9194 16.2285C52.07 16.2374 52.2211 16.2378 52.3716 16.2295L52.9048 16.2002C53.1017 16.1893 53.2996 16.1871 53.4966 16.1924L54.0298 16.2061C54.1714 16.2099 54.3141 16.2033 54.4565 16.1855L54.9897 16.1191C55.1795 16.0955 55.3701 16.0771 55.5601 16.0635L55.8267 16.0439L56.0933 16.0254C56.2747 16.0123 56.4567 16.0003 56.6382 15.9902L57.1714 15.9609C57.4317 15.9466 57.6898 15.9775 57.9409 16.0498L58.2085 16.127L58.4751 16.2031C58.5162 16.2149 58.5506 16.2153 58.5952 16.2012L59.1284 16.0312C59.3841 15.95 59.6489 15.9142 59.9165 15.9287L60.4497 15.958C60.6075 15.9666 60.7656 15.9684 60.9233 15.9639L61.1899 15.9561L61.4575 15.9482C61.5978 15.9441 61.7393 15.9287 61.8813 15.9023L62.1479 15.8525L62.4146 15.8037C62.6377 15.7623 62.8629 15.7427 63.0884 15.7461L63.6216 15.7539C63.846 15.7574 64.0701 15.7832 64.2915 15.8301L64.8247 15.9434C65.0387 15.9887 65.2519 16.0512 65.4614 16.1299L65.728 16.2305L65.9741 16.3232L66.2319 16.1963L66.4985 16.0664C66.8055 15.9166 67.1456 15.8626 67.4927 15.9365L68.0259 16.0498C68.1292 16.0718 68.2298 16.0769 68.3296 16.0654L68.5962 16.0342L68.8628 16.0039C69.0835 15.9785 69.3056 15.973 69.5269 15.9883L70.0601 16.0254C70.1845 16.034 70.3101 16.0283 70.436 16.0088L70.9692 15.9268C71.2034 15.8905 71.4398 15.8821 71.6753 15.9033L72.2085 15.9521C72.459 15.9748 72.7043 16.0348 72.9409 16.1289L73.2075 16.2354L73.3726 16.3018L73.5874 16.1416L73.854 15.9434L73.9897 15.8545C74.1326 15.7722 74.299 15.7117 74.4858 15.6963Z" fill="#303A4B"/>
</g>
<defs>
<clipPath id="clip0_395_2717">
<rect width="128" height="128" fill="white"/>
</clipPath>
</defs>
</svg>
