<svg width="128" height="128" viewBox="0 0 128 128" fill="none" xmlns="http://www.w3.org/2000/svg">
<path d="M68.4155 8.99561C68.6131 8.98914 68.7931 9.03594 68.9487 9.11182L69.0962 9.19678L69.6274 9.54834C69.6665 9.57415 69.6932 9.58525 69.7065 9.58936C69.7159 9.59216 69.7213 9.59232 69.7231 9.59229L69.9868 9.57764L70.2505 9.56201C70.3144 9.55838 70.4032 9.53854 70.52 9.48096L70.8013 9.34229L71.0815 9.20361C71.3709 9.06081 71.6914 8.98943 72.0259 9.02686L72.2944 9.05615L72.563 9.08643C72.882 9.12224 73.1702 9.24802 73.4214 9.43311L73.6694 9.61572L73.9165 9.79834C73.9366 9.81306 73.9496 9.81884 73.9546 9.8208L74.4976 9.77588C74.7281 9.75674 74.9583 9.76233 75.186 9.79248L75.4507 9.82764L75.7163 9.86279C75.9268 9.89073 76.1351 9.9335 76.3394 9.9917L76.853 10.1382C77.0227 10.1865 77.1934 10.2353 77.3638 10.2827L77.6216 10.354L77.8804 10.4263C78.0679 10.4785 78.2539 10.5371 78.437 10.6021L78.689 10.6909L78.9399 10.7808C78.9576 10.787 78.9934 10.795 79.0679 10.7759L79.6519 10.6255C79.9872 10.539 80.3377 10.5552 80.6675 10.7085L80.9136 10.8237L81.1606 10.938C81.2187 10.965 81.2817 10.9791 81.3589 10.9761L81.6401 10.9644L81.9204 10.9536C82.2943 10.9388 82.6354 11.0644 82.9136 11.3013L83.1362 11.4917L83.3599 11.6812C83.4244 11.7361 83.477 11.7575 83.521 11.7661L83.7837 11.8179L84.0464 11.8687C84.2499 11.9084 84.451 11.9605 84.6479 12.0249L84.9019 12.1089L85.1558 12.1919C85.2875 12.2349 85.4242 12.2669 85.5649 12.2886L85.8335 12.3306L86.1011 12.3716C86.3461 12.4094 86.5829 12.4814 86.8071 12.5864L87.0503 12.7007L87.2944 12.8149C87.462 12.8935 87.6288 12.974 87.7935 13.0562L88.272 13.2944C88.4283 13.3724 88.5861 13.4501 88.7437 13.5259L88.9849 13.6411L89.2261 13.7573C89.352 13.8179 89.4832 13.8687 89.6187 13.9087L89.8765 13.9849L90.1353 14.061C90.3135 14.1137 90.4921 14.1692 90.6694 14.2271L91.1831 14.395C91.3927 14.4635 91.5954 14.5497 91.7896 14.6528L92.0259 14.7778L92.2632 14.9038C92.4347 14.9949 92.6037 15.0925 92.769 15.1948L92.9966 15.3354L93.2251 15.4771C93.4588 15.6218 93.6583 15.8096 93.8237 16.0298L93.9995 16.2632L94.1743 16.4976C94.227 16.5677 94.2766 16.6018 94.3198 16.6216L94.562 16.7319L94.8042 16.8433C94.9033 16.8885 95.0175 16.9235 95.1489 16.9448L95.7173 17.0366C95.9927 17.0812 96.2544 17.1748 96.4917 17.3228L96.7183 17.4644L96.9458 17.606C97.1591 17.739 97.3491 17.9026 97.5151 18.0933L97.6978 18.3032L97.8794 18.5122C97.9812 18.6291 98.0874 18.7358 98.1968 18.8325L98.397 19.0103L98.5981 19.187C98.7263 19.3003 98.8558 19.412 98.9868 19.521L99.1919 19.6919L99.397 19.8618C99.5384 19.9795 99.6783 20.0993 99.8159 20.2202L100.015 20.396L100.214 20.5708C100.313 20.6577 100.421 20.7358 100.537 20.8042L100.768 20.9399L101 21.0767C101.196 21.1924 101.378 21.3276 101.545 21.481L101.741 21.6606L101.936 21.8394C102.091 21.9812 102.236 22.1343 102.371 22.2974L102.542 22.5054L102.714 22.7124C102.733 22.735 102.762 22.7606 102.827 22.7808L103.106 22.8667L103.385 22.9536C103.62 23.0262 103.842 23.1224 104.05 23.2437L104.288 23.3823L104.526 23.521C104.77 23.6636 104.978 23.8518 105.142 24.0825L105.299 24.3042L105.458 24.5259C105.547 24.6523 105.643 24.7726 105.745 24.8862L105.922 25.0864L106.101 25.2866C106.207 25.4055 106.317 25.52 106.432 25.6294L106.626 25.814L106.82 25.9976C106.96 26.1311 107.096 26.2699 107.227 26.4126L107.59 26.8071C107.784 27.0179 107.925 27.2642 108.014 27.5347L108.105 27.8071L108.195 28.0796C108.201 28.0979 108.207 28.1047 108.208 28.106C108.209 28.1074 108.213 28.1121 108.225 28.1196L108.464 28.269L108.705 28.4175C108.947 28.5679 109.152 28.7639 109.31 29.0034L109.457 29.2261L109.604 29.4497C109.691 29.5821 109.784 29.7105 109.882 29.8354L110.046 30.0464L110.211 30.2573C110.337 30.4171 110.453 30.5828 110.561 30.7544L110.703 30.98L110.844 31.2065C110.969 31.4057 111.07 31.6184 111.146 31.8433L111.234 32.105L111.309 32.3296C111.311 32.3307 111.314 32.3323 111.317 32.3335L111.905 32.5913C112.111 32.682 112.313 32.8327 112.448 33.0659C112.581 33.2974 112.611 33.5454 112.591 33.7642L112.562 34.0933L112.533 34.4233C112.528 34.4765 112.531 34.5095 112.535 34.5259C112.537 34.5361 112.539 34.5415 112.54 34.5425L112.817 34.9917C112.876 35.0868 112.95 35.1801 113.043 35.269L113.247 35.4614L113.449 35.6548C113.598 35.7967 113.741 35.9438 113.876 36.0962L114.06 36.3032L114.245 36.5093C114.411 36.6962 114.548 36.9033 114.655 37.1284L114.77 37.3706L114.885 37.6138C114.96 37.7712 115.035 37.9286 115.113 38.0845L115.233 38.3247L115.353 38.5659C115.511 38.8829 115.54 39.2233 115.485 39.5522L115.433 39.8628L115.38 40.1743C115.378 40.1868 115.377 40.1964 115.376 40.2026L115.522 40.4136L115.676 40.6382C115.833 40.8671 115.941 41.1212 115.994 41.394L116.044 41.6577L116.096 41.9214C116.115 42.019 116.149 42.112 116.201 42.2017L116.472 42.6724C116.601 42.896 116.691 43.1362 116.741 43.3892L116.792 43.6519L116.843 43.9146C116.854 43.9696 116.88 44.0319 116.936 44.104L117.115 44.3335L117.294 44.563C117.586 44.9366 117.617 45.3821 117.462 45.7856L117.346 46.0864L117.26 46.3091L117.379 46.4585L117.565 46.6919C117.778 46.9602 117.904 47.2822 117.904 47.6401L117.903 47.9116V48.1831C117.902 48.3434 117.909 48.5025 117.922 48.6587L117.967 49.1899C117.973 49.2573 117.994 49.3332 118.043 49.4204L118.186 49.6733L118.328 49.9253C118.508 50.2465 118.563 50.6072 118.474 50.9702L118.407 51.2456L118.34 51.52C118.309 51.6503 118.294 51.7738 118.294 51.8901L118.295 52.1567L118.297 52.4233C118.298 52.6432 118.268 52.861 118.213 53.0747C118.238 53.195 118.266 53.3157 118.299 53.4351L118.373 53.6938L118.447 53.9536C118.511 54.1807 118.526 54.412 118.499 54.6411C118.538 54.796 118.557 54.9574 118.549 55.1235L118.524 55.6567C118.523 55.6742 118.52 55.692 118.519 55.7095C118.655 55.8425 118.755 56.032 118.755 56.2681V56.4351C118.756 56.4359 118.756 56.4387 118.756 56.4429C118.757 56.4531 118.758 56.47 118.761 56.4927C118.767 56.5391 118.776 56.6038 118.79 56.687L118.833 56.9536L118.876 57.2202C118.927 57.5363 118.885 57.8477 118.765 58.1382L118.655 58.4048L118.632 58.4585C118.641 58.4826 118.651 58.505 118.663 58.5249L118.792 58.7397L118.922 58.9536C118.967 59.0271 119.063 59.191 119.09 59.3843C119.104 59.485 119.119 59.7328 118.938 59.9624L118.969 60.1567L119.012 60.4233C119.057 60.7104 119.035 60.9971 118.951 61.2739H118.95L118.856 61.2007L118.64 61.0317C118.382 60.8295 118.082 60.7178 117.763 60.686L117.175 60.6274C117.052 60.6152 116.964 60.5877 116.901 60.5562L116.673 60.4419L116.446 60.3267C116.342 60.2744 116.232 60.205 116.118 60.1147L115.896 59.939L115.673 59.7632C115.465 59.5987 115.235 59.4704 114.986 59.3813L114.722 59.2876L114.458 59.1929C114.102 59.0656 113.735 59.0886 113.399 59.2368L113.129 59.356L112.859 59.4741C112.789 59.5051 112.736 59.5102 112.688 59.5044L112.414 59.4712L112.138 59.437C112.076 59.4295 112.015 59.4261 111.955 59.4263C111.938 59.1819 111.88 58.9444 111.771 58.7212L111.654 58.481L111.537 58.2417C111.499 58.1654 111.474 58.0758 111.464 57.9683L111.44 57.686L111.415 57.4028L111.39 57.2388C111.309 56.8697 111.073 56.5872 110.762 56.4067L110.487 56.2466L110.258 56.1147L110.243 55.9087L110.22 55.6187C110.192 55.2501 110.034 54.9184 109.751 54.6675L109.542 54.481L109.333 54.2954C109.311 54.2759 109.3 54.2591 109.292 54.2231L109.236 53.9448L109.18 53.6665C109.108 53.3079 108.914 53.0043 108.619 52.7876L108.39 52.6196L108.163 52.4526C108.065 52.3808 107.989 52.3037 107.93 52.2241L107.773 52.0103L107.617 51.7974C107.577 51.7428 107.54 51.6691 107.517 51.5649L107.39 50.9946L107.351 50.8511C107.242 50.525 107.02 50.2629 106.707 50.0981L106.45 49.9634L106.192 49.8276C106.119 49.7892 106.079 49.7492 106.054 49.7104L105.763 49.2612C105.682 49.1355 105.606 49.0017 105.536 48.8608L105.413 48.6138L105.291 48.3667C105.182 48.1481 105.047 47.9463 104.887 47.7642L104.71 47.563L104.534 47.3608C104.435 47.249 104.343 47.1296 104.257 47.0034L104.104 46.7778L103.952 46.5532C103.75 46.2558 103.462 46.0602 103.133 45.9585L102.847 45.8696L102.561 45.7817C102.423 45.739 102.309 45.6861 102.215 45.6274L101.988 45.4849L101.76 45.3413C101.758 45.3396 101.755 45.3374 101.751 45.3325C101.747 45.3263 101.736 45.3091 101.723 45.2739L101.621 44.9839L101.518 44.6948C101.396 44.3484 101.162 44.0541 100.809 43.8823L100.563 43.7622L100.316 43.6421C100.202 43.5867 100.099 43.5202 100.007 43.4438L99.8022 43.2729L99.5962 43.1021C99.4534 42.9832 99.3085 42.8662 99.1626 42.7524L98.9526 42.5884L98.7427 42.4253C98.5541 42.2784 98.3482 42.1566 98.1274 42.061L97.8765 41.9526L97.6265 41.8442C97.5661 41.8181 97.5157 41.781 97.4702 41.7251L97.2954 41.5093L97.1206 41.2944C96.9309 41.061 96.6927 40.8815 96.4136 40.7661L96.1616 40.6626L95.9097 40.5581C95.7858 40.5069 95.6714 40.445 95.5659 40.3735L95.3462 40.2251L95.1255 40.0757C95.0181 40.0028 94.9144 39.9167 94.8149 39.8169L94.4243 39.4243L94.3208 39.3306C94.0718 39.125 93.772 39.0209 93.4546 39.0083L93.1558 38.9966L92.8579 38.9849C92.7554 38.9808 92.6869 38.9582 92.6392 38.9321L92.4067 38.8042L92.1733 38.6772C92.1313 38.6542 92.077 38.6114 92.0181 38.5239L91.8491 38.271L91.6792 38.0181L91.5825 37.8921C91.4777 37.7705 91.3467 37.6646 91.188 37.5894C91.0299 37.5146 90.8662 37.4812 90.7075 37.4761L90.5503 37.48L90.2407 37.5054L89.9927 37.5249L89.856 37.3579L89.6685 37.1294L89.564 37.0151C89.3091 36.7665 88.9775 36.6386 88.6118 36.6509L88.3159 36.6616L88.0767 36.6694L87.9165 36.4741L87.7251 36.2407L87.6226 36.1284C87.408 35.917 87.1366 35.7869 86.8306 35.7603L86.6743 35.7554L86.3843 35.7632L86.1167 35.77L85.9243 35.5698L85.7192 35.3569C85.4512 35.079 85.0997 34.9239 84.7036 34.9312L84.4194 34.937L84.1343 34.9419C83.9831 34.9447 83.8398 34.9354 83.7046 34.9146L83.1714 34.8325C83.0354 34.8115 82.9038 34.7785 82.7778 34.7349L82.5269 34.6479L82.2769 34.561C82.1479 34.5164 82.0195 34.4599 81.8931 34.3911L81.4126 34.1294C81.1525 33.9879 80.8687 33.9135 80.5728 33.9077L80.2993 33.9019L80.0259 33.897C79.9097 33.8947 79.8003 33.8767 79.6968 33.8442L79.4429 33.7642L79.188 33.6841C79.0979 33.6558 79.0033 33.6092 78.9048 33.5376L78.6714 33.3677L78.437 33.1978C78.1522 32.9904 77.8178 32.8876 77.4595 32.9116L76.9048 32.9487C76.7716 32.9577 76.6451 32.9515 76.5259 32.9321L76.2632 32.8892L76.0005 32.8472C75.7809 32.8114 75.5586 32.7966 75.3345 32.8022L74.7915 32.8159C74.6631 32.8192 74.5387 32.808 74.4185 32.7837L73.897 32.6782C73.7267 32.6438 73.5562 32.6076 73.3862 32.5708L73.1265 32.5151L72.8657 32.4585C72.6919 32.4208 72.5173 32.3827 72.3423 32.3452L72.0806 32.2896L71.8179 32.2329C71.6509 32.1972 71.484 32.1587 71.3179 32.1177L70.7964 31.9888C70.4753 31.9095 70.1537 31.9354 69.8511 32.0425L69.5747 32.1401L69.4194 32.1958L69.2339 32.0278L68.9839 31.8032L68.8501 31.6978C68.7071 31.5987 68.5337 31.5215 68.3315 31.4985C68.1265 31.4754 67.9373 31.5138 67.7729 31.5835L67.6167 31.6626L67.3394 31.8276L67.1382 31.9487L66.9751 31.8569L66.7144 31.7114C66.4478 31.5627 66.1538 31.4758 65.8413 31.4751H65.5737L65.3062 31.4741C65.166 31.4739 65.024 31.4627 64.8813 31.4399L64.6138 31.397L64.3452 31.354L64.2056 31.3384C63.8834 31.3191 63.5826 31.4138 63.3208 31.5776L63.0542 31.7446L62.7886 31.9106C62.6831 31.9767 62.6025 32.0009 62.5454 32.0083L62.2808 32.0425L62.0171 32.0757C61.9008 32.0905 61.7833 32.0905 61.6636 32.0757L61.396 32.0435L61.1294 32.0103C60.9324 31.9858 60.734 31.9688 60.5366 31.9604L60.27 31.9497L60.0024 31.938C59.7365 31.9268 59.4749 31.9646 59.2222 32.0483L58.9624 32.1343L58.7036 32.2202C58.576 32.2625 58.4492 32.2909 58.3237 32.3052L58.0601 32.3345L57.7964 32.3647C57.6499 32.3813 57.502 32.3888 57.354 32.3872L56.8208 32.3813C56.6703 32.3797 56.5158 32.37 56.3589 32.3511L56.0864 32.3179L55.813 32.2847C55.6108 32.2602 55.4088 32.2444 55.2075 32.2378L54.6665 32.2202C54.3641 32.2103 54.073 32.2764 53.8042 32.4106L53.5542 32.5356L53.3042 32.6597C53.3005 32.6592 53.2933 32.6585 53.2837 32.6558L52.9976 32.5728L52.7114 32.4888C52.4253 32.4054 52.1281 32.3834 51.8306 32.4399L51.5669 32.4897L51.3032 32.5405C51.1342 32.5727 50.964 32.6027 50.7935 32.6304L50.2622 32.7163C50.0173 32.756 49.7817 32.8307 49.5571 32.938L49.063 33.1743C48.8601 33.2713 48.6644 33.3862 48.4771 33.519L48.2437 33.6851L48.0093 33.8511C47.8958 33.9315 47.7843 33.9919 47.6753 34.0356L47.4272 34.1353L47.1802 34.2339C47.0737 34.2766 46.9618 34.3057 46.8442 34.3198L46.5767 34.3511L46.3091 34.3833C46.1215 34.4059 45.9343 34.4325 45.7485 34.4624L45.4829 34.5054L45.2183 34.5474C45.0778 34.5699 44.9305 34.5827 44.7769 34.5845L44.4956 34.5874L44.2153 34.5913C43.8949 34.595 43.5912 34.6856 43.3218 34.8628L42.8608 35.1655C42.791 35.2115 42.7189 35.2389 42.6401 35.2515L42.3716 35.2944L42.1021 35.3374C41.8803 35.3726 41.6637 35.4279 41.4536 35.5024L41.2007 35.5913L40.9478 35.6812C40.6188 35.798 40.3623 36.0174 40.1714 36.2866L39.9888 36.5435L39.8071 36.7993C39.7491 36.8811 39.7069 36.9047 39.688 36.9126L39.4429 37.0142L39.1978 37.1167C39.0183 37.1914 38.8416 37.2722 38.6685 37.3599L38.4321 37.48L38.1968 37.5991C38.1502 37.6227 38.0841 37.6419 37.9849 37.6421L37.689 37.6431H37.3921C37.0946 37.6434 36.8037 37.706 36.5347 37.8442L36.2974 37.9653L36.0601 38.0874C35.8675 38.1863 35.6835 38.3009 35.5083 38.4302L35.2905 38.5913L35.0737 38.7515C34.9643 38.8323 34.8493 38.9011 34.73 38.9585L34.4897 39.0737L34.2495 39.1899C34.0508 39.2854 33.8612 39.3981 33.6821 39.5278L33.4653 39.6851L33.2476 39.8433C33.1036 39.9476 32.96 40.0511 32.8169 40.1538L32.6001 40.3091L32.3843 40.4644C32.236 40.5708 32.0884 40.6794 31.9419 40.7896L31.728 40.9497L31.5151 41.1108C31.3556 41.2309 31.2011 41.3577 31.0532 41.4917L30.856 41.6704L30.6685 41.8394C30.6597 41.8415 30.6401 41.846 30.606 41.8462L29.9497 41.8501C29.7236 41.8513 29.4724 41.9089 29.2524 42.0767C29.0333 42.2439 28.9114 42.4694 28.8491 42.6841L28.7563 43.0034L28.6646 43.3228C28.6536 43.3606 28.6419 43.3802 28.6372 43.3882L28.4233 43.5239L28.1978 43.6665C28.0989 43.7289 27.9854 43.7826 27.856 43.8257L27.3149 44.0054C27.0704 44.0868 26.8427 44.2017 26.6353 44.3511L26.4155 44.5083L26.1968 44.6655C25.9114 44.8711 25.726 45.1557 25.6235 45.4741L25.436 46.0562C25.4122 46.1301 25.3873 46.1489 25.3794 46.1548L25.1655 46.3149L24.9507 46.4751C24.7937 46.5921 24.6408 46.7145 24.4937 46.8423L24.2935 47.0161L24.0923 47.1909C24.0278 47.2468 23.9416 47.3001 23.8247 47.3452L23.5474 47.4526L23.27 47.5591C22.9085 47.6984 22.6527 47.9682 22.5308 48.3169L22.4868 48.4712L22.4204 48.7681L22.353 49.0659C22.3387 49.1292 22.3211 49.1403 22.3188 49.1421L21.9009 49.4858C21.6882 49.6606 21.5162 49.872 21.3882 50.1157L21.1362 50.5942C21.1273 50.6112 21.1106 50.6371 21.0513 50.6675L20.7866 50.8022L20.522 50.938C20.2274 51.0889 19.9983 51.3242 19.8687 51.6313L19.8198 51.7671L19.7368 52.0366L19.6538 52.3052C19.6453 52.3328 19.6351 52.3502 19.604 52.3726L19.3706 52.5396L19.1382 52.7065C18.8702 52.8987 18.669 53.1574 18.5571 53.4731L18.4653 53.7319L18.3735 53.9917C18.3173 54.1503 18.2572 54.3052 18.1929 54.4556L18.0874 54.7026L17.981 54.9497C17.8867 55.1701 17.8212 55.4016 17.7827 55.6411L17.7378 55.9185L17.6938 56.1948C17.6928 56.2011 17.6916 56.2056 17.6909 56.2075C17.6903 56.2092 17.6893 56.2109 17.689 56.2114C17.6885 56.2122 17.6871 56.2139 17.6851 56.2163C17.6825 56.2193 17.6781 56.2244 17.6704 56.231L17.4497 56.4185L17.23 56.606C16.969 56.8282 16.7893 57.1189 16.7202 57.4634L16.6128 58.0005C16.5875 58.1263 16.5486 58.2426 16.4985 58.3511L16.2759 58.8335C16.2178 58.9591 16.1485 59.0829 16.0669 59.2046L15.9956 59.3101L15.9087 59.2749L15.645 59.1675L15.5063 59.1196C15.1806 59.0249 14.8482 59.0582 14.5425 59.2007L14.271 59.3276L14.0005 59.4536C13.9661 59.4696 13.9492 59.4693 13.9224 59.4624L13.6382 59.3901L13.354 59.3169L13.1919 59.2856C12.8706 59.2444 12.5642 59.328 12.3081 59.519L12.1851 59.6235L11.9663 59.8306L11.7515 60.0347L11.1421 60.0034C10.6986 59.9808 10.2991 60.1688 10.0454 60.5493L9.88135 60.7954L9.71826 61.0415C9.60928 61.205 9.50422 61.3608 9.40479 61.5093L9.25537 61.7329L9.11865 61.9351C9.1255 61.894 9.13265 61.8529 9.14111 61.812L9.1958 61.5444L9.25146 61.2778C9.27055 61.1855 9.27216 61.0957 9.25732 61.0054L9.19482 60.6274C9.12173 60.4218 9.08597 60.2032 9.09912 59.9761L9.13037 59.4409C9.14399 59.2069 9.18452 58.975 9.25146 58.7485L9.30811 58.5542L9.27002 58.3677C9.20236 58.0429 9.23858 57.7203 9.36182 57.4194L9.58057 56.8862C9.61321 56.8067 9.64492 56.7313 9.67529 56.6616L9.67627 56.5776L9.67725 56.311C9.67782 56.1696 9.66808 56.0243 9.64697 55.8755L9.56885 55.3286C9.53704 55.1047 9.5261 54.8796 9.53564 54.6558L9.54736 54.3872L9.55811 54.1177C9.5661 53.9307 9.5773 53.7431 9.59131 53.5562L9.63232 53.0171C9.66009 52.648 9.825 52.3333 10.064 52.0835L10.2808 51.8569L10.4185 51.7124L10.356 51.521L10.2583 51.2222C10.1464 50.8806 10.1418 50.5097 10.3052 50.1567L10.5337 49.6626C10.5941 49.5322 10.6433 49.3995 10.6812 49.2651L10.8257 48.7495C10.8906 48.5186 10.9854 48.2975 11.1069 48.0894L11.3823 47.6187C11.4337 47.5307 11.4681 47.4383 11.4868 47.3413L11.5884 46.8101C11.6441 46.5201 11.7663 46.255 11.9468 46.0229L12.1177 45.8042L12.2876 45.5854C12.3353 45.524 12.3632 45.4616 12.3774 45.3931L12.4331 45.1265L12.4878 44.8608C12.5565 44.529 12.7259 44.2442 12.9702 44.02L13.1821 43.8257L13.3394 43.6812L13.3091 43.4087L13.2739 43.0933C13.2498 42.8759 13.276 42.6351 13.396 42.4077C13.5159 42.181 13.6995 42.0242 13.8911 41.9214L14.1733 41.771L14.4546 41.6196C14.4971 41.5969 14.521 41.5773 14.5327 41.5659C14.5426 41.5563 14.5461 41.5499 14.5474 41.5474L14.6636 41.3091L14.7788 41.0708C14.7928 41.0417 14.8135 40.9785 14.8071 40.8569L14.7896 40.5337L14.772 40.2095C14.7531 39.8532 14.8399 39.4896 15.0894 39.187L15.2612 38.978L15.4341 38.769C15.5771 38.5958 15.7367 38.4354 15.9106 38.2896L16.1235 38.1118L16.3354 37.9331C16.4944 37.7998 16.6612 37.6738 16.8335 37.5552L17.2964 37.2368C17.3303 37.2134 17.3471 37.1911 17.3599 37.1567L17.4556 36.895L17.5522 36.6343C17.6481 36.3738 17.7916 36.1372 17.9829 35.9351L18.1655 35.7417L18.3491 35.5483C18.4544 35.4372 18.5548 35.32 18.6479 35.1987L18.8101 34.9878L18.9722 34.7759C19.0778 34.6383 19.1835 34.499 19.2876 34.3589L19.4478 34.1431L19.6079 33.9282C19.7637 33.7185 19.9521 33.5394 20.1694 33.394L20.396 33.2427L20.6216 33.0913C20.7425 33.0105 20.8552 32.9218 20.9575 32.8276L21.3481 32.4683C21.5132 32.3162 21.6933 32.1803 21.8862 32.063L22.1167 31.9233L22.3472 31.7827C22.3755 31.7654 22.4047 31.7387 22.4331 31.6802L22.6851 31.1606C22.8513 30.8181 23.132 30.5681 23.4966 30.4468L23.7661 30.3569L24.0366 30.2671C24.126 30.2373 24.1905 30.1976 24.2397 30.1519L24.4341 29.9702L24.6274 29.7886C24.7884 29.6383 24.9634 29.5037 25.1489 29.3853L25.5962 29.1001C25.6815 29.0456 25.7608 28.9759 25.8335 28.8892L26.187 28.4673C26.3 28.3323 26.4126 28.1926 26.5249 28.0503L26.7007 27.8286L26.8755 27.6069C27.0407 27.3975 27.2371 27.2195 27.4634 27.0796L27.6929 26.938L27.9214 26.7964C28.1534 26.6532 28.4079 26.559 28.6763 26.5103L28.9565 26.4595L29.2358 26.4087C29.2922 26.3984 29.3284 26.3781 29.3608 26.3481L29.564 26.1606L29.7661 25.9731C30.0042 25.7526 30.2922 25.6125 30.6108 25.5591L30.8862 25.5132L31.1626 25.4673C31.2502 25.4525 31.3214 25.4227 31.3833 25.3813L31.6079 25.2319L31.8315 25.0815C32.0157 24.9583 32.21 24.8521 32.4126 24.7642L32.9028 24.5513C33.052 24.4865 33.2004 24.4168 33.3462 24.3423L33.5854 24.2202L33.8247 24.0972C33.9562 24.0299 34.0873 23.9522 34.2153 23.8647L34.4438 23.7085L34.6724 23.5532C34.9069 23.393 35.1675 23.2858 35.4478 23.2368L35.9849 23.1431C36.2137 23.1032 36.4468 23.0881 36.6821 23.0962L36.9644 23.106L37.2476 23.1157C37.3601 23.1196 37.4587 23.105 37.5464 23.0776L37.8003 22.9985L38.0542 22.9185C38.2488 22.8576 38.4475 22.8086 38.6479 22.77L39.1714 22.6685C39.2199 22.6591 39.2812 22.635 39.3569 22.5747L39.5903 22.3892L39.8228 22.2026C40.1175 21.9675 40.4711 21.8769 40.8306 21.937L40.9849 21.9722L41.2729 22.0552L41.5308 22.1274L41.7388 21.9868L41.98 21.8228C42.2046 21.6703 42.45 21.5572 42.7124 21.4927L42.9722 21.4292L43.2329 21.3647C43.4541 21.3104 43.6797 21.2789 43.9077 21.271L44.4468 21.2534C44.7427 21.2433 45.0302 21.3049 45.3013 21.4175L45.5884 21.5366L45.8765 21.6567C45.9634 21.6928 46.009 21.6894 46.0278 21.686L46.2896 21.6382L46.5513 21.5913C46.6007 21.5823 46.6687 21.557 46.7554 21.4917L46.9995 21.3081L47.2437 21.1235C47.5155 20.9186 47.8404 20.8133 48.187 20.8462L48.1958 20.8472L48.2271 20.7612C48.2905 20.5821 48.3587 20.4037 48.4312 20.2271L48.6362 19.7271C48.6986 19.575 48.7581 19.4179 48.813 19.2563L48.9019 18.9937L48.9917 18.73L49.0522 18.5825C49.2113 18.2529 49.4918 18.035 49.812 17.9165L50.1167 17.8032L50.2905 17.7378L50.3032 17.5532L50.3247 17.23C50.3517 16.809 50.5529 16.4173 50.9634 16.1909L51.4653 15.9136C51.5328 15.8764 51.576 15.8341 51.6069 15.7856L51.7544 15.5532L51.9019 15.3218L51.9849 15.2046C52.1901 14.945 52.4707 14.7828 52.7827 14.7095L53.0796 14.6401L53.2554 14.5981L53.3149 14.3745L53.3989 14.0562C53.4974 13.6821 53.7273 13.3399 54.1255 13.1567L54.6274 12.9263C54.7823 12.8551 54.9335 12.7804 55.0796 12.7026L55.5562 12.4487C55.6957 12.3744 55.8321 12.2932 55.9644 12.2065L56.1899 12.0591L56.4165 11.9106C56.6919 11.7302 57.0026 11.6469 57.3228 11.645L57.6167 11.6431L57.9116 11.6411L57.9282 11.6401H57.9292L58.1333 11.4478L58.3384 11.2554C58.5355 11.0705 58.7609 10.9242 59.0112 10.8228L59.5073 10.6216C59.7918 10.5064 60.0921 10.4722 60.3921 10.5063L60.6812 10.5396L60.9136 10.5659L61.103 10.3745L61.3179 10.1558C61.5736 9.89646 61.9074 9.72841 62.2974 9.71924L62.5698 9.71338L62.8433 9.70654C63.0426 9.70193 63.2426 9.70507 63.4419 9.71533L63.7153 9.729L63.9888 9.74365C64.0527 9.74684 64.1125 9.73514 64.1763 9.70557L64.4282 9.58936L64.6792 9.47217C64.9137 9.36306 65.1613 9.2917 65.4175 9.26221L65.6851 9.23193L65.9517 9.20068C66.2756 9.1635 66.5882 9.22649 66.8745 9.36084L67.146 9.48779L67.3062 9.56396L67.4917 9.42725L67.7544 9.23486L67.895 9.14404C68.0441 9.06079 68.2192 9.00219 68.4155 8.99561Z" fill="#303A4B"/>
</svg>
