<svg width="128" height="128" viewBox="0 0 128 128" fill="none" xmlns="http://www.w3.org/2000/svg">
<path d="M15.2876 79.2139C15.3433 79.3982 15.4178 79.5762 15.5112 79.7461L15.771 80.2188C15.8258 80.3183 15.8648 80.4217 15.8892 80.5293L15.9487 80.7891L16.0073 81.0498C16.059 81.2781 16.1376 81.4977 16.2417 81.707L16.3599 81.9453L16.478 82.1826C16.512 82.2509 16.5349 82.3329 16.5415 82.4336L16.5601 82.7158L16.5776 82.999C16.5921 83.2234 16.6237 83.4448 16.6724 83.6611L16.7329 83.9307L16.7935 84.1992C16.8474 84.4386 16.9321 84.6679 17.0464 84.8838L17.1724 85.1221L17.2993 85.3613C17.4503 85.6461 17.6743 85.868 17.9409 86.0322L18.4604 86.3525C18.5442 86.4042 18.581 86.4507 18.5991 86.4834L18.855 86.9482C18.9243 87.0739 18.9864 87.2068 19.0396 87.3457L19.1362 87.5996L19.2339 87.8535C19.3499 88.1567 19.5466 88.4067 19.8062 88.5947L20.0347 88.7598L20.2632 88.9258C20.2671 88.9286 20.2693 88.9309 20.27 88.9316V88.9307L20.271 88.9326C20.272 88.9352 20.2738 88.9418 20.2759 88.9512L20.3374 89.2354L20.3999 89.5195C20.456 89.7773 20.5483 90.0219 20.6812 90.2471L20.9565 90.7139C21.1376 91.0207 21.4093 91.2321 21.7241 91.3584L22.0054 91.4717L22.2866 91.584C22.3552 91.6115 22.3737 91.6371 22.3804 91.6475L22.5249 91.873L22.6704 92.0986C22.7875 92.2808 22.9179 92.4529 23.062 92.6133L23.2397 92.8105L23.4175 93.0088C23.5355 93.1401 23.654 93.2716 23.772 93.4033L23.9497 93.6025L24.1274 93.8008C24.2571 93.9455 24.392 94.0856 24.5317 94.2207L24.7231 94.4062L24.9146 94.5908C25.064 94.7353 25.2232 94.8706 25.3901 94.9951L25.604 95.1543L25.8188 95.3145C25.9256 95.3941 26.0245 95.4837 26.1147 95.582L26.2954 95.7783L26.4761 95.9756C26.5867 96.0963 26.6952 96.2221 26.8003 96.3516L27.1421 96.7734C27.3162 96.9878 27.5282 97.1614 27.772 97.291L28.0112 97.4189L28.2515 97.5459C28.3025 97.5731 28.3479 97.6127 28.3892 97.6748L28.5444 97.9102L28.7007 98.1455C28.898 98.4433 29.1811 98.6508 29.5229 98.751L29.7954 98.8301L30.0679 98.9102C30.2127 98.9526 30.3465 99.0046 30.4683 99.0645L30.7085 99.1826L30.9497 99.3018C30.9529 99.3031 30.9752 99.3138 31.0063 99.376L31.144 99.6514L31.2817 99.9277C31.4435 100.251 31.7041 100.514 32.0669 100.647L32.5806 100.837C32.6893 100.877 32.7877 100.93 32.8765 100.996L33.0923 101.156L33.3091 101.316C33.4732 101.438 33.6433 101.551 33.8188 101.654L34.0493 101.79L34.2808 101.926C34.5238 102.069 34.7891 102.155 35.0679 102.19L35.353 102.226L35.6372 102.262C35.694 102.269 35.726 102.286 35.7524 102.309L35.9595 102.488L36.1665 102.667C36.3368 102.815 36.5188 102.946 36.7114 103.059L36.9429 103.193L37.1733 103.329C37.3523 103.434 37.5416 103.517 37.7388 103.581L37.6909 103.736L37.6997 103.759L37.8257 104.03L37.9517 104.301C38.073 104.562 38.1436 104.843 38.145 105.134L38.146 105.398L38.147 105.664C38.148 105.909 38.114 106.153 38.0483 106.392L37.9741 106.662L37.9058 106.906L38.0581 107.156L38.2134 107.412C38.3875 107.698 38.4774 108.025 38.4448 108.373L38.4194 108.642L38.394 108.911C38.3738 109.125 38.3371 109.341 38.2856 109.556L38.2192 109.832L38.1655 110.054L38.3335 110.273L38.52 110.518C38.6557 110.695 38.7516 110.915 38.7661 111.165C38.7801 111.411 38.7119 111.635 38.6138 111.82L38.4585 112.114L38.3657 112.288L38.4556 112.4L38.646 112.639C38.8647 112.911 38.9951 113.243 38.9858 113.612L38.9722 114.157C38.9684 114.304 38.9753 114.449 38.9927 114.591L39.0259 114.857L39.0591 115.123C39.0692 115.205 39.0894 115.238 39.0962 115.248L39.356 115.615C39.3821 115.652 39.4303 115.723 39.4673 115.805C39.4807 115.834 39.5318 115.948 39.5356 116.099C39.5376 116.183 39.5259 116.33 39.437 116.481C39.3378 116.65 39.1836 116.756 39.0308 116.804C38.7929 116.878 38.5952 116.803 38.5679 116.793C38.5044 116.771 38.4537 116.743 38.4263 116.728C38.3684 116.695 38.3131 116.656 38.27 116.624L38.0571 116.467L37.8442 116.309C37.663 116.175 37.4959 116.023 37.3462 115.854L37.1714 115.657L36.9956 115.46C36.8443 115.29 36.712 115.104 36.6001 114.904L36.3384 114.438V114.438L36.3364 114.437C36.3316 114.433 36.3145 114.421 36.2778 114.406L35.9858 114.292L35.6938 114.179C35.3609 114.049 35.0722 113.82 34.9009 113.475L34.7808 113.231L34.6597 112.988C34.5978 112.863 34.5253 112.745 34.4438 112.635L34.2847 112.418L34.1245 112.201C33.9949 112.026 33.8799 111.84 33.7808 111.646L33.6577 111.406L33.5356 111.166C33.4702 111.038 33.3948 110.913 33.3101 110.794L32.9956 110.351C32.823 110.107 32.7158 109.833 32.6743 109.539L32.5962 108.982C32.5902 108.941 32.5761 108.909 32.5444 108.874L32.353 108.664L32.1626 108.455C31.9355 108.206 31.7961 107.901 31.7603 107.563L31.731 107.287L31.7017 107.01C31.6955 106.953 31.678 106.905 31.6421 106.856L31.4741 106.632L31.3071 106.406C31.2528 106.333 31.2085 106.256 31.1724 106.179L31.228 106.421L31.2886 106.687C31.3195 106.821 31.3638 106.956 31.4204 107.089L31.5298 107.345L31.6392 107.602C31.7232 107.799 31.7947 107.999 31.8521 108.2L31.9253 108.458L31.9995 108.716C32.0769 108.988 32.0921 109.268 32.0493 109.547L32.0083 109.817L31.9663 110.088C31.937 110.278 31.8386 110.591 31.521 110.775C31.2121 110.954 30.8987 110.892 30.7261 110.834L30.187 110.654C29.8023 110.526 29.524 110.25 29.3706 109.892L29.2524 109.615L29.1343 109.338C29.0868 109.227 29.0334 109.152 28.9819 109.101L28.605 108.728C28.4405 108.564 28.2958 108.383 28.1724 108.186L28.0298 107.958L27.8989 107.749C27.8912 107.746 27.8783 107.741 27.8599 107.736L27.5435 107.657L27.228 107.579C26.9011 107.498 26.5938 107.333 26.3638 107.055L26.02 106.639C25.8033 106.376 25.6907 106.065 25.6567 105.741L25.6235 105.431L25.5913 105.12C25.5809 105.022 25.5553 104.977 25.5405 104.958L25.2183 104.536C25.1495 104.446 25.0645 104.361 24.9624 104.281L24.521 103.936C24.249 103.723 24.0647 103.437 23.981 103.103L23.9126 102.83L23.8442 102.557C23.8161 102.445 23.7747 102.349 23.7231 102.267L23.5815 102.042L23.4399 101.816C23.3895 101.736 23.3207 101.658 23.229 101.583L22.7876 101.222C22.5036 100.989 22.3251 100.675 22.272 100.312L22.231 100.03L22.1899 99.748C22.1807 99.686 22.1609 99.6462 22.1333 99.6133L22.1079 99.583L22.0493 99.752L21.9546 100.019C21.9123 100.138 21.8495 100.285 21.7515 100.414C21.656 100.54 21.4511 100.744 21.1226 100.766L21.0093 100.772L20.895 100.78C20.6169 100.799 20.4065 100.675 20.2915 100.588C20.1716 100.497 20.0761 100.384 20.0024 100.285L19.8413 100.068L19.6812 99.8525C19.5925 99.7331 19.4945 99.6167 19.3882 99.5059L19.1968 99.3066L19.0063 99.1084C18.8041 98.8975 18.6564 98.6484 18.5679 98.3701L18.4849 98.1064L18.4009 97.8438C18.3285 97.6155 18.2832 97.3782 18.2632 97.1357L18.2388 96.8477L18.2173 96.583L17.9966 96.4131L17.7612 96.2314C17.4739 96.0096 17.2756 95.703 17.2144 95.3301L17.1704 95.0576L17.1255 94.7842C17.1013 94.6367 17.0669 94.4949 17.0239 94.3613L16.9429 94.1084L16.8608 93.8545C16.8117 93.702 16.7564 93.5502 16.6968 93.4023L16.5981 93.1562L16.4985 92.9102C16.4697 92.839 16.4224 92.7628 16.3462 92.6836L16.144 92.4746L15.9429 92.2656C15.6847 91.9979 15.5422 91.6577 15.5415 91.2803L15.5405 90.9971V90.7402L15.3218 90.5371L15.1001 90.3301C14.8372 90.0853 14.662 89.7652 14.6304 89.3877L14.6079 89.1143L14.5854 88.8398C14.5676 88.6254 14.564 88.4073 14.5747 88.1885L14.5884 87.9043L14.6021 87.6211C14.6053 87.5527 14.5931 87.5029 14.5708 87.46L14.4448 87.2197L14.3198 86.9785C14.1735 86.697 14.1136 86.3907 14.1353 86.0781L14.1558 85.7959L14.1733 85.5283L13.978 85.3076L13.7808 85.0859C13.5795 84.859 13.4329 84.5921 13.3638 84.29L13.3042 84.0293L13.2446 83.7695C13.2171 83.6494 13.1755 83.5302 13.1196 83.4141L13.0015 83.168L12.8833 82.9229C12.7435 82.6322 12.6959 82.3188 12.7329 82.0029L12.7661 81.7197L12.7993 81.4375C12.8174 81.2826 12.8234 81.1313 12.8188 80.9873L12.8101 80.7158L12.8022 80.4443C12.801 80.4108 12.7916 80.3735 12.7563 80.3232L12.5903 80.0869L12.4243 79.8516C12.2881 79.658 12.1756 79.4521 12.0894 79.2363C12.1574 79.2578 12.2252 79.2806 12.2944 79.2988L12.5649 79.3701L12.8345 79.4414C13.0843 79.5071 13.3401 79.5334 13.5981 79.5215L13.8774 79.5088L14.1558 79.4961C14.4113 79.4842 14.6615 79.4348 14.9028 79.3496L15.1675 79.2568L15.2876 79.2139ZM116.02 78.96L115.921 79.2119C115.834 79.4366 115.718 79.6508 115.577 79.8516L115.411 80.0869L115.245 80.3232C115.209 80.3735 115.2 80.4108 115.199 80.4443L115.191 80.7158L115.182 80.9873C115.178 81.1313 115.184 81.2826 115.202 81.4375L115.235 81.7197L115.268 82.0029C115.305 82.3186 115.257 82.6323 115.118 82.9229L115 83.168L114.881 83.4141C114.826 83.5302 114.784 83.6494 114.756 83.7695L114.697 84.0293L114.637 84.29C114.568 84.5919 114.421 84.8591 114.22 85.0859L114.023 85.3076L113.828 85.5283L113.845 85.7959L113.866 86.0781C113.887 86.3905 113.827 86.6971 113.681 86.9785L113.556 87.2197L113.43 87.46C113.408 87.5029 113.396 87.5526 113.399 87.6211L113.413 87.9043L113.426 88.1885C113.437 88.4073 113.433 88.6254 113.416 88.8398L113.393 89.1143L113.371 89.3877C113.339 89.765 113.164 90.0854 112.901 90.3301L112.679 90.5371L112.46 90.7402V90.9971L112.459 91.2803C112.459 91.6575 112.316 91.998 112.058 92.2656L111.857 92.4746L111.655 92.6836C111.579 92.7627 111.531 92.8391 111.502 92.9102L111.403 93.1562L111.304 93.4023C111.245 93.5502 111.189 93.7021 111.14 93.8545L111.058 94.1084L110.977 94.3613C110.934 94.4949 110.9 94.6367 110.875 94.7842L110.831 95.0576L110.787 95.3301C110.725 95.7027 110.527 96.0096 110.24 96.2314L110.004 96.4131L109.784 96.583L109.762 96.8477L109.738 97.1357C109.718 97.3781 109.672 97.6156 109.6 97.8438L109.516 98.1064L109.433 98.3701C109.345 98.6483 109.197 98.8976 108.995 99.1084L108.804 99.3066L108.613 99.5059C108.507 99.6166 108.408 99.7332 108.32 99.8525L108.16 100.068L107.999 100.285C107.925 100.384 107.829 100.497 107.709 100.588C107.595 100.675 107.384 100.798 107.106 100.78L106.992 100.772L106.878 100.766C106.55 100.744 106.345 100.54 106.25 100.414C106.151 100.285 106.089 100.138 106.046 100.019L105.952 99.752L105.893 99.583L105.868 99.6133C105.84 99.6462 105.82 99.6859 105.811 99.748L105.77 100.03L105.729 100.312C105.676 100.675 105.497 100.989 105.213 101.222L104.772 101.583C104.68 101.658 104.611 101.737 104.561 101.816L104.419 102.042L104.278 102.267C104.226 102.349 104.185 102.445 104.157 102.557L104.088 102.83L104.02 103.103C103.936 103.437 103.752 103.723 103.48 103.936L103.039 104.281C102.937 104.361 102.851 104.447 102.783 104.536L102.46 104.958C102.446 104.977 102.42 105.022 102.41 105.12L102.377 105.431L102.344 105.741C102.31 106.065 102.197 106.376 101.981 106.639L101.637 107.055C101.407 107.333 101.1 107.498 100.773 107.579L100.458 107.657L100.141 107.736C100.123 107.741 100.11 107.746 100.102 107.749L99.9712 107.958L99.8286 108.186C99.7052 108.383 99.5603 108.565 99.396 108.728L99.019 109.101C98.9675 109.152 98.9142 109.227 98.8667 109.338L98.7485 109.615L98.6304 109.892C98.4771 110.25 98.1983 110.525 97.814 110.654L97.2749 110.834C97.1024 110.892 96.789 110.954 96.48 110.775C96.1618 110.591 96.0641 110.278 96.0347 110.088L95.9927 109.817L95.9517 109.547C95.9088 109.268 95.9241 108.988 96.0015 108.716L96.0757 108.458L96.1489 108.2C96.2063 107.999 96.2778 107.798 96.3618 107.602L96.4712 107.345L96.5806 107.089C96.6371 106.956 96.6815 106.821 96.7124 106.687L96.7729 106.421L96.8286 106.179C96.7926 106.256 96.748 106.333 96.6938 106.406L96.5269 106.632L96.3589 106.856C96.3229 106.905 96.3054 106.953 96.2993 107.01L96.27 107.287L96.2407 107.563C96.2049 107.901 96.0652 108.206 95.8384 108.455L95.6479 108.664L95.4565 108.874C95.4248 108.909 95.4108 108.941 95.4048 108.982L95.3267 109.539C95.2852 109.832 95.1778 110.107 95.0054 110.351L94.6909 110.794C94.6062 110.913 94.5308 111.038 94.4653 111.166L94.3433 111.406L94.2202 111.646C94.1212 111.839 94.0059 112.026 93.8765 112.201L93.7163 112.418L93.5571 112.635C93.4757 112.745 93.4032 112.864 93.3413 112.988L93.2202 113.231L93.1001 113.475C92.9289 113.82 92.6398 114.049 92.3071 114.179L92.0151 114.292L91.7231 114.406C91.6876 114.42 91.6701 114.432 91.6646 114.437L91.6626 114.438V114.438L91.4009 114.904C91.2891 115.103 91.1565 115.29 91.0054 115.46L90.8296 115.657L90.6548 115.854C90.5052 116.023 90.3378 116.175 90.1567 116.309L89.9438 116.467L89.731 116.624C89.688 116.656 89.6324 116.695 89.5747 116.728C89.5475 116.743 89.4965 116.771 89.4331 116.793C89.4076 116.802 89.2093 116.878 88.9702 116.804C88.8171 116.756 88.6634 116.651 88.564 116.481C88.4748 116.329 88.4633 116.183 88.4653 116.099C88.4692 115.948 88.5204 115.834 88.5337 115.805C88.5707 115.723 88.619 115.652 88.645 115.615L88.9048 115.248C88.9119 115.238 88.9319 115.203 88.9419 115.123L88.9751 114.857L89.0083 114.591C89.0257 114.449 89.0325 114.304 89.0288 114.157L89.0151 113.612C89.0059 113.243 89.1362 112.912 89.355 112.639L89.5454 112.4L89.6353 112.288L89.5425 112.114L89.3872 111.82C89.289 111.635 89.2208 111.411 89.2349 111.165C89.2494 110.915 89.3452 110.695 89.481 110.518L89.6675 110.273L89.8354 110.054L89.7817 109.832L89.7153 109.556C89.6638 109.341 89.6272 109.125 89.6069 108.911L89.5815 108.642L89.5562 108.373C89.5235 108.025 89.6134 107.698 89.7876 107.412L89.9429 107.156L90.0952 106.906L90.0269 106.662L89.9526 106.392C89.887 106.153 89.853 105.909 89.854 105.664L89.855 105.398L89.856 105.134C89.8573 104.843 89.928 104.562 90.0493 104.301L90.1753 104.03L90.3013 103.759L90.3101 103.736L90.1587 103.256C90.1628 103.252 90.1683 103.25 90.1724 103.246L90.3794 103.063L90.5874 102.881C90.6552 102.821 90.7252 102.783 90.7993 102.759L91.0542 102.677L91.3081 102.594C91.4428 102.55 91.5869 102.516 91.7388 102.49L92.0161 102.443L92.2935 102.397C92.5852 102.349 92.8577 102.236 93.0962 102.057L93.311 101.895L93.5259 101.733C93.5702 101.7 93.6271 101.673 93.7095 101.66L93.9937 101.615L94.2769 101.569C94.5427 101.527 94.7967 101.443 95.0308 101.312L95.2651 101.18L95.4995 101.049C95.7636 100.901 95.9771 100.692 96.1411 100.442L96.4634 99.9521C96.5367 99.8408 96.615 99.754 96.6938 99.6875L97.1021 99.3438C97.1269 99.3229 97.1689 99.2979 97.2515 99.2852L97.5474 99.2393L97.8423 99.1943C98.131 99.1499 98.4052 99.0498 98.6499 98.8848L98.8735 98.7344L99.0962 98.584C99.3146 98.4364 99.5033 98.253 99.6597 98.04L99.9897 97.5908C100.045 97.5162 100.107 97.461 100.176 97.4199L100.409 97.2822L100.642 97.1445C100.903 96.9904 101.113 96.7778 101.268 96.5205L101.414 96.2783L101.559 96.0371C101.571 96.017 101.582 96.0058 101.613 95.9941L101.881 95.8945L102.15 95.7939C102.504 95.6612 102.777 95.4079 102.936 95.0654L103.058 94.8047L103.179 94.543C103.248 94.3952 103.323 94.2582 103.402 94.1328L103.693 93.6738C103.694 93.6728 103.695 93.6712 103.695 93.6709L103.697 93.6699C103.701 93.6672 103.714 93.6578 103.744 93.6484L104.322 93.4629C104.621 93.367 104.893 93.2042 105.106 92.96L105.282 92.7578L105.458 92.5566C105.613 92.3789 105.746 92.1825 105.856 91.9717L105.983 91.7285L106.11 91.4844C106.151 91.406 106.204 91.3418 106.269 91.2881L106.689 90.9424C106.963 90.7165 107.133 90.4159 107.205 90.0811L107.267 89.793L107.329 89.5049C107.33 89.4993 107.331 89.494 107.332 89.4912L107.563 89.332L107.795 89.1719C108.096 88.9642 108.298 88.6675 108.381 88.3135L108.447 88.0371L108.512 87.7598C108.52 87.7289 108.529 87.7169 108.548 87.7012L108.768 87.5254L108.988 87.3506C109.279 87.1186 109.457 86.8012 109.509 86.4375L109.55 86.1543L109.583 85.9229L109.823 85.7822L110.089 85.625C110.356 85.4671 110.586 85.2528 110.745 84.9756L110.878 84.7422L111.012 84.5098C111.154 84.2626 111.236 83.9922 111.264 83.71L111.292 83.4268L111.32 83.1445C111.334 82.9979 111.36 82.8611 111.397 82.7354L111.472 82.4795L111.547 82.2227C111.58 82.1105 111.627 82.0029 111.688 81.9004L111.963 81.4375C112.079 81.2432 112.176 81.0387 112.25 80.8262L112.426 80.3242C112.456 80.2385 112.505 80.1487 112.579 80.0566L112.938 79.6074C112.997 79.5338 113.043 79.4555 113.082 79.377C113.279 79.3884 113.476 79.3724 113.671 79.3281L113.937 79.2686L114.202 79.208C114.313 79.1828 114.429 79.1733 114.549 79.1797L115.104 79.209C115.461 79.2279 115.784 79.1113 116.046 78.8916L116.02 78.96ZM70.7993 12.3057C71.1215 12.2045 71.4578 12.2268 71.771 12.3691L72.3042 12.6113C72.4266 12.6669 72.5412 12.7008 72.6479 12.7168L72.9146 12.7559L73.1812 12.7959C73.2763 12.81 73.372 12.8085 73.4692 12.7891L73.7368 12.7354L74.0034 12.6816C74.2139 12.6395 74.4268 12.6127 74.6392 12.6016L74.9058 12.5869L75.1724 12.5732C75.3927 12.5617 75.6141 12.5695 75.8335 12.5977L76.3667 12.666C76.4049 12.6708 76.4531 12.6681 76.522 12.6377L77.0552 12.4014C77.3955 12.2513 77.7645 12.234 78.1196 12.3633L78.3862 12.46L78.6528 12.5576C78.7925 12.6084 78.9298 12.6451 79.063 12.668L79.3286 12.7139L79.5952 12.7588C79.6847 12.774 79.774 12.7734 79.8657 12.7549L80.1323 12.7012L80.3989 12.6465C80.6401 12.5977 80.8851 12.5828 81.1294 12.6025L81.395 12.624L81.6597 12.6455C81.7701 12.6544 81.8859 12.6479 82.0063 12.625L82.5493 12.5215C82.8978 12.4554 83.2394 12.5152 83.5454 12.6807L83.7993 12.8174L84.0435 12.9502L84.3188 12.8643L84.5991 12.7783C84.9236 12.6788 85.2575 12.696 85.564 12.835L85.6938 12.9014L86.188 13.1904C86.2746 13.2409 86.3532 13.2649 86.4253 13.2734L86.689 13.3047L86.9536 13.3369C87.1936 13.3656 87.4276 13.4259 87.6519 13.5176L87.9019 13.6201L88.1509 13.7217C88.2524 13.7632 88.3566 13.7896 88.4644 13.7998L88.7319 13.8242L88.9985 13.8496C89.1238 13.8613 89.26 13.8602 89.4058 13.8438L89.6929 13.8115L89.98 13.7783L90.147 13.7705C90.529 13.7767 90.858 13.9555 91.0952 14.2383L91.2983 14.4814L91.3989 14.6016L91.5786 14.5449L91.894 14.4443C92.0977 14.3799 92.338 14.3542 92.5854 14.4229C92.774 14.4753 92.9318 14.5729 93.0581 14.6924L93.1753 14.8184L93.3696 15.0605L93.5503 15.2842L93.7876 15.2881L94.0737 15.293C94.3656 15.2974 94.6494 15.3629 94.9116 15.4971L95.1509 15.6191L95.3901 15.7422C95.5303 15.8139 95.6741 15.8787 95.8198 15.9375L96.0679 16.0381L96.3169 16.1387C96.5315 16.2253 96.7355 16.3358 96.9263 16.4678L97.1479 16.6211L97.3706 16.7744C97.4792 16.8495 97.5935 16.9128 97.7134 16.9639L97.9604 17.0693L98.2075 17.1738C98.493 17.2955 98.73 17.4882 98.9155 17.7305L99.0913 17.959L99.2661 18.1885C99.278 18.204 99.286 18.2089 99.2876 18.21C99.2893 18.211 99.2951 18.2141 99.3071 18.2168L99.5806 18.2783L99.855 18.3398C100.224 18.4228 100.525 18.6376 100.728 18.9482L100.886 19.1914L101.045 19.4336C101.067 19.4669 101.079 19.472 101.093 19.4766L101.356 19.5635L101.619 19.6494C101.795 19.7074 101.973 19.7672 102.151 19.8271L102.417 19.916L102.683 20.0059C103.082 20.1405 103.356 20.4357 103.498 20.8008L103.61 21.0898L103.713 21.3574L104.206 21.5215C104.422 21.5936 104.63 21.6824 104.828 21.7881L105.07 21.918L105.312 22.0469C105.593 22.1975 105.818 22.4192 105.975 22.6943L106.115 22.9375L106.253 23.1807C106.328 23.3114 106.411 23.4314 106.498 23.5391L106.833 23.9551C106.91 24.049 106.996 24.1332 107.093 24.207L107.307 24.3691L107.521 24.5322C107.647 24.6277 107.78 24.7198 107.918 24.8076L108.152 24.9551L108.386 25.1025C108.724 25.316 108.923 25.6431 108.999 26.0098L109.059 26.3096L109.096 26.4941L109.303 26.5566L109.609 26.6494C109.955 26.7541 110.251 26.9772 110.413 27.3203L110.474 27.4756L110.561 27.7471L110.649 28.0186C110.697 28.1661 110.753 28.3032 110.816 28.4287L110.937 28.6699L111.058 28.9102C111.064 28.9211 111.078 28.9459 111.139 28.9775L111.407 29.1162L111.675 29.2539C111.931 29.3862 112.159 29.5636 112.34 29.7891L112.509 29.999L112.679 30.21C112.897 30.48 113.004 30.7999 113.023 31.1309L113.04 31.4346L113.057 31.7393C113.065 31.885 113.09 32.0079 113.125 32.1094L113.211 32.3643L113.299 32.6201C113.335 32.7233 113.384 32.8173 113.446 32.9023L113.603 33.1172L113.76 33.333C113.863 33.4737 113.968 33.6151 114.074 33.7559L114.236 33.9717L114.398 34.1865C114.528 34.3597 114.644 34.5429 114.745 34.7334L114.87 34.9688L114.994 35.2051C115.046 35.3042 115.116 35.4022 115.205 35.498L115.396 35.7061L115.588 35.9141C115.868 36.2174 115.974 36.6 115.929 36.9893L115.895 37.292L115.866 37.54L116.039 37.7002L116.257 37.9033C116.485 38.1148 116.659 38.3751 116.75 38.6807L116.828 38.9385L116.905 39.1953C116.985 39.4633 117.006 39.7418 116.977 40.0195L116.948 40.3086L116.918 40.583L117.102 40.7949L117.294 41.0176C117.477 41.23 117.619 41.4715 117.707 41.7383L117.792 41.9941L117.875 42.25C117.976 42.5567 117.98 42.8737 117.909 43.1797L117.841 43.4697L117.784 43.71L117.945 43.9111L118.133 44.1455C118.365 44.4345 118.486 44.7897 118.447 45.1758L118.417 45.4531L118.389 45.7305C118.375 45.867 118.376 45.9988 118.389 46.123L118.418 46.3877L118.448 46.6533C118.467 46.8291 118.488 47.0064 118.507 47.1826L118.537 47.4492L118.566 47.7148C118.59 47.9338 118.595 48.1556 118.581 48.376L118.563 48.6445L118.544 48.9121C118.536 49.0335 118.543 49.1552 118.564 49.2744L118.611 49.5381L118.657 49.8027C118.687 49.9731 118.719 50.1453 118.753 50.3164L118.807 50.582L118.86 50.8467C118.91 51.0982 118.918 51.3549 118.886 51.6094L118.853 51.8779L118.819 52.1455C118.797 52.319 118.777 52.4936 118.758 52.666L118.702 53.1992C118.678 53.4201 118.634 53.641 118.571 53.8574L118.415 54.3906C118.404 54.4267 118.404 54.4568 118.417 54.498L118.507 54.7646L118.596 55.0312C118.667 55.2438 118.721 55.4606 118.756 55.6777L119.014 57.2773C119.045 57.4689 119.07 57.6625 119.089 57.8545L119.142 58.3877C119.171 58.6867 119.124 58.9804 119.014 59.2559L118.799 59.7891C118.733 59.9533 118.673 60.1188 118.619 60.2822L118.53 60.5498L118.445 60.8027C118.445 60.8037 118.446 60.8056 118.447 60.8066L118.512 60.9395C118.505 60.9349 118.497 60.9312 118.49 60.9268C118.444 60.8988 118.398 60.8728 118.351 60.8496C118.341 60.8447 118.331 60.8397 118.321 60.835C118.279 60.8154 118.235 60.7981 118.192 60.7822C118.169 60.7737 118.145 60.7653 118.122 60.7578C118.079 60.7443 118.036 60.7318 117.992 60.7217C117.965 60.7155 117.938 60.711 117.911 60.7061C117.879 60.7003 117.848 60.6955 117.816 60.6914C117.799 60.6892 117.782 60.6853 117.764 60.6836L117.176 60.625C117.054 60.6128 116.965 60.5852 116.902 60.5537L116.674 60.4395L116.447 60.3242C116.343 60.272 116.233 60.2024 116.119 60.1123L115.897 59.9365L115.674 59.7607C115.467 59.5964 115.236 59.468 114.987 59.3789L114.723 59.2852L114.459 59.1904C114.103 59.0632 113.736 59.0865 113.4 59.2344L113.13 59.3535L112.86 59.4717C112.79 59.5026 112.736 59.5076 112.689 59.502L112.415 59.4688L112.139 59.4346C112.123 59.4326 112.107 59.433 112.091 59.4316C112.053 59.4282 112.016 59.4253 111.978 59.4248L111.955 59.4238C111.95 59.3602 111.943 59.2969 111.932 59.2344L111.931 59.2314C111.922 59.1771 111.912 59.1227 111.898 59.0693C111.891 59.0438 111.883 59.0184 111.875 58.9932C111.867 58.964 111.859 58.9341 111.848 58.9053C111.826 58.8423 111.801 58.7797 111.771 58.7188L111.654 58.4785L111.537 58.2393C111.5 58.1632 111.474 58.0729 111.464 57.9658L111.44 57.6836L111.415 57.4004L111.39 57.2363C111.387 57.224 111.382 57.2114 111.379 57.1992C111.36 57.1212 111.334 57.0464 111.301 56.9766C111.186 56.7329 110.995 56.5396 110.762 56.4043L110.487 56.2441L110.258 56.1123L110.243 55.9062L110.22 55.6162C110.216 55.5636 110.208 55.5119 110.199 55.4609L110.152 55.541C110.098 55.6313 110.059 55.7261 110.037 55.8271L109.978 56.0908L109.918 56.3535C109.829 56.7481 109.579 57.0384 109.277 57.2354L109 57.415L108.836 57.5215L108.862 57.6729L108.912 57.9775C108.967 58.3159 108.926 58.664 108.747 58.9814L108.614 59.2168L108.481 59.4512C108.428 59.5451 108.39 59.6444 108.368 59.75L108.31 60.0137L108.253 60.2773C108.178 60.6295 107.982 60.9162 107.72 61.1338L107.485 61.3291L107.25 61.5254C107.181 61.5823 107.161 61.6233 107.154 61.6465L107.072 61.9004L106.989 62.1543C106.929 62.339 106.853 62.5363 106.749 62.6953L106.672 62.8115L106.596 62.9268C106.548 62.9996 106.418 63.1768 106.168 63.252C105.864 63.3437 105.609 63.2228 105.472 63.1104C105.354 63.0136 105.287 62.9011 105.255 62.8418C105.218 62.7725 105.189 62.7012 105.167 62.6396L105.078 62.3887L104.988 62.1367C104.907 61.9114 104.857 61.677 104.834 61.4365L104.784 60.8857C104.772 60.7649 104.746 60.654 104.707 60.5518L104.611 60.3027L104.514 60.0537C104.483 59.9739 104.435 59.8926 104.362 59.8105L104.171 59.5977L103.981 59.3857C103.804 59.1878 103.661 58.9655 103.561 58.7207L103.459 58.4736L103.359 58.2266C103.25 57.9602 103.206 57.679 103.217 57.3936L103.228 57.1035L103.24 56.8135C103.246 56.655 103.24 56.5036 103.223 56.3594L103.192 56.085L103.162 55.8203C103.158 55.8167 103.153 55.8112 103.145 55.8047L102.678 55.4121C102.444 55.2142 102.255 54.9684 102.144 54.6729L102.05 54.4229L101.957 54.1738C101.875 53.9569 101.819 53.7314 101.787 53.5L101.749 53.2285L101.711 52.958C101.694 52.8292 101.662 52.7074 101.619 52.5928L101.524 52.3428L101.429 52.0938C101.378 51.9598 101.317 51.8286 101.247 51.7012L100.985 51.2305C100.86 51.0057 100.775 50.7647 100.728 50.5117L100.679 50.2451L100.629 49.9785C100.593 49.7791 100.565 49.576 100.546 49.3711L100.522 49.0957L100.497 48.8193C100.494 48.7944 100.489 48.772 100.481 48.751L100.468 48.7285C100.379 48.8774 100.291 49.0271 100.206 49.1777L100.073 49.4131L99.9409 49.6475C99.8512 49.8063 99.7601 49.965 99.6685 50.123L99.5327 50.3564L99.397 50.5908C99.3206 50.7225 99.2522 50.857 99.1929 50.9941L98.9819 51.4844C98.9329 51.5978 98.8959 51.7178 98.8726 51.8438L98.8237 52.1104L98.7739 52.377C98.729 52.6195 98.651 52.8522 98.5405 53.0723L98.4204 53.3115L98.3003 53.5518C98.2986 53.5551 98.2966 53.5602 98.2954 53.5703C98.2941 53.5821 98.2935 53.6077 98.3013 53.6494L98.3579 53.9561L98.4155 54.2637C98.4921 54.6753 98.3897 55.0869 98.0796 55.4053L97.8774 55.6133L97.6743 55.8213C97.5859 55.912 97.5228 56.0026 97.478 56.0918L97.3579 56.3311L97.2368 56.5703C97.2088 56.626 97.1915 56.6929 97.1909 56.7803L97.189 57.0645L97.188 57.3496C97.1865 57.61 97.1463 57.8654 97.064 58.1104L96.894 58.6162C96.8285 58.8114 96.7509 59.0022 96.6626 59.1885L96.5483 59.4307L96.4341 59.6719C96.3368 59.877 96.2183 60.0725 96.0806 60.2568L95.9146 60.4795L95.7485 60.7012C95.7231 60.7353 95.7111 60.7679 95.7085 60.8154L95.6938 61.0947L95.6782 61.375C95.6592 61.7317 95.5202 62.0516 95.2808 62.3105L94.8901 62.7324C94.826 62.8018 94.7593 62.8715 94.7046 62.9209C94.6899 62.9342 94.6664 62.9557 94.6372 62.9775C94.6323 62.9812 94.5378 63.0564 94.3999 63.0967C94.3425 63.1134 94.0974 63.1798 93.8384 63.0283C93.5341 62.8501 93.4894 62.5485 93.4858 62.4336C93.4833 62.3487 93.4973 62.2779 93.5083 62.2344L93.4146 62.0225L93.3071 61.7783C93.2205 61.5821 93.1489 61.3795 93.0933 61.1719L93.0239 60.9131L92.9546 60.6533C92.928 60.5543 92.8866 60.4599 92.8276 60.3691L92.6792 60.1406L92.5298 59.9121C92.3815 59.6836 92.2799 59.4325 92.228 59.165L92.1772 58.8994L92.1255 58.6338C92.1201 58.6065 92.1075 58.574 92.062 58.5283L91.6499 58.1143C91.4212 57.8846 91.2612 57.602 91.1978 57.2754L91.147 57.0098L91.0952 56.7441C91.0728 56.6291 91.0355 56.5211 90.9849 56.4189L90.8657 56.1787L90.7476 55.9385C90.6166 55.6744 90.5536 55.3907 90.5532 55.0986V54.5273C90.5531 54.4198 90.5346 54.3302 90.5044 54.2529L90.4067 54.0039L90.3101 53.7559C90.263 53.6357 90.2027 53.5187 90.1294 53.4053L89.9819 53.1768L89.8335 52.9473C89.7207 52.7728 89.6183 52.5932 89.5269 52.4092L89.4077 52.1689L89.2886 51.9297C89.1748 51.7006 89.0993 51.4569 89.063 51.2031L89.0249 50.9316L88.9858 50.6611C88.9699 50.5499 88.9391 50.4476 88.894 50.3525L88.7798 50.1113L88.6646 49.8691C88.6029 49.7389 88.5309 49.6109 88.4487 49.4863L88.3433 49.3262C88.2698 49.4504 88.1758 49.5641 88.061 49.6631L87.6021 50.0596C87.5997 50.0616 87.597 50.0628 87.5952 50.0645L87.5757 50.3262L87.5552 50.6035C87.5397 50.8108 87.5149 51.0162 87.48 51.2178L87.4331 51.4854L87.3872 51.7529C87.345 51.9969 87.2693 52.2314 87.1606 52.4531L87.0425 52.6934L86.9253 52.9336C86.847 53.0933 86.7679 53.2532 86.6899 53.4131L86.5728 53.6543L86.4556 53.8945C86.3838 54.0418 86.3167 54.1911 86.2544 54.3418L86.1528 54.5879L86.0503 54.835C85.9724 55.0234 85.8842 55.2079 85.7856 55.3877L85.6567 55.624L85.5269 55.8594C85.4837 55.9381 85.4555 56.0236 85.4429 56.1191L85.4077 56.3906L85.3716 56.6621C85.3327 56.956 85.2264 57.2295 85.0571 57.4727L84.7427 57.9238C84.7189 57.958 84.7054 57.9937 84.7036 58.0479L84.6948 58.3301L84.686 58.6113C84.6729 59.022 84.4823 59.3666 84.1831 59.6143L83.9478 59.8096L83.7964 59.9336L83.8335 60.1387L83.8892 60.4453C83.9263 60.6493 83.9208 60.8712 83.8423 61.0908C83.7633 61.3115 83.6254 61.4878 83.4634 61.6221L83.228 61.8174L82.9917 62.0127C82.9844 62.0187 82.9794 62.0239 82.9761 62.0273L82.9468 62.2891L82.9155 62.5625C82.9085 62.6237 82.898 62.6983 82.8784 62.7725C82.8689 62.8083 82.8224 62.9989 82.6616 63.1553C82.558 63.256 82.3792 63.3674 82.1392 63.3633C81.9163 63.3593 81.7592 63.2571 81.6812 63.1924C81.5438 63.0784 81.477 62.938 81.4575 62.8975L81.3774 62.7314L81.2983 62.5654C81.2049 62.3708 81.1484 62.1525 81.1138 61.9346L81.0718 61.665L81.0288 61.3965C81.0278 61.3903 81.0258 61.3871 81.0239 61.3838C81.0212 61.3791 81.0124 61.365 80.9897 61.3447L80.7671 61.1455L80.5435 60.9453C80.2901 60.7184 80.1091 60.425 80.0454 60.0752L79.9976 59.8086L79.9487 59.542C79.9055 59.3043 79.8923 59.0602 79.9067 58.8135L79.9243 58.5215L79.9409 58.2305C79.9465 58.135 79.9313 58.0658 79.9087 58.0127L79.8042 57.7676L79.6997 57.5215C79.6962 57.5137 79.6761 57.4738 79.5854 57.415L79.0308 57.0557C78.8514 56.9393 78.6815 56.7721 78.5767 56.541C78.4705 56.3067 78.4571 56.0639 78.4976 55.8438L78.5542 55.5361L78.6108 55.2295C78.6275 55.1387 78.614 55.0993 78.6079 55.085L78.5034 54.8398L78.3979 54.5947C78.3174 54.4061 78.2484 54.2125 78.1899 54.0156L78.1138 53.7588L78.0376 53.5029C77.9915 53.3475 77.9396 53.1934 77.8833 53.042L77.6978 52.542C77.6304 52.361 77.5688 52.1775 77.5132 51.9922L77.436 51.7363L77.3599 51.4805C77.322 51.3543 77.2716 51.2319 77.2095 51.1143L77.0845 50.877L76.9585 50.6387C76.9085 50.5442 76.8407 50.4489 76.7495 50.3545L76.5474 50.1465L76.3462 49.9375C76.2579 49.846 76.1818 49.7452 76.1138 49.6396C76.0158 49.7442 75.9074 49.8391 75.7896 49.9209L75.5249 50.1045L75.3755 50.207L75.4077 50.3691L75.4692 50.6777C75.531 50.9912 75.5197 51.3168 75.3989 51.6289L75.2056 52.127C75.1402 52.2956 75.0741 52.4642 75.0063 52.6318L74.9058 52.8799L74.8062 53.127C74.7003 53.3888 74.5406 53.6187 74.3413 53.8174L74.1343 54.0244L73.9272 54.2305C73.8446 54.3129 73.7911 54.3931 73.7563 54.4697L73.5356 54.9561C73.5312 54.9658 73.5171 54.9997 73.5327 55.0859L73.644 55.6992C73.7111 56.0683 73.6503 56.4495 73.4116 56.7764L73.2485 56.999L73.0854 57.2227C72.9879 57.3563 72.8966 57.4923 72.812 57.6299L72.6704 57.8613L72.5278 58.0918C72.4578 58.2058 72.4011 58.3241 72.3569 58.4453L72.2651 58.6953L72.1743 58.9463C72.1005 59.1487 72.0109 59.3449 71.9058 59.5342L71.644 60.0049C71.5914 60.0995 71.5543 60.2 71.5317 60.3066L71.4751 60.5703L71.4194 60.835C71.3763 61.0392 71.321 61.2396 71.2534 61.4355L71.1665 61.6885L71.0796 61.9404C71.0133 62.1326 70.9362 62.3221 70.8491 62.5078L70.7339 62.752L70.6196 62.9971C70.5902 63.0599 70.5397 63.1577 70.4614 63.249C70.4067 63.3129 70.1806 63.5584 69.8032 63.5205C69.4227 63.4822 69.2506 63.1928 69.2095 63.1172C69.1516 63.0108 69.1224 62.9044 69.1069 62.8369L69.0474 62.5742L68.9868 62.3115C68.9725 62.2492 68.9442 62.1883 68.8921 62.125L68.7134 61.9082L68.5347 61.6904C68.3746 61.4959 68.2434 61.2835 68.146 61.0537L68.0415 60.8076L67.938 60.5625C67.8628 60.385 67.7928 60.2043 67.729 60.0225L67.6401 59.7705L67.5522 59.5195C67.4763 59.3031 67.4241 59.0784 67.395 58.8486L67.3608 58.5771L67.3257 58.3047C67.3133 58.2073 67.2862 58.1201 67.2437 58.04L67.1167 57.8027L66.9907 57.5654C66.8623 57.3241 66.7844 57.0638 66.7563 56.792L66.6997 56.2432C66.6913 56.1626 66.6675 56.0942 66.6294 56.0312L66.4897 55.7998L66.3491 55.5674C66.2204 55.3544 66.124 55.1264 66.062 54.8857L65.9946 54.626L65.9282 54.3662C65.8837 54.1936 65.8392 54.0202 65.7944 53.8477L65.7261 53.5879L65.6587 53.3281C65.6364 53.2426 65.5989 53.1609 65.5415 53.0811L65.3804 52.8574L65.2192 52.6328C65.093 52.4573 64.9801 52.2748 64.8813 52.0859L64.7563 51.8477L64.6323 51.6094C64.4738 51.3059 64.4296 50.9766 64.4712 50.6514L64.5474 50.0518C64.5642 49.9198 64.5601 49.8097 64.5415 49.7178L64.4878 49.4531L64.4341 49.1875C64.4151 49.0939 64.3805 49.0073 64.3296 48.9248L64.3022 48.8809C64.2603 48.9447 64.2153 49.0081 64.1616 49.0664L63.9663 49.2773L63.772 49.4883C63.7657 49.4951 63.762 49.5002 63.7603 49.5029C63.7592 49.5046 63.7586 49.5062 63.7583 49.5068C63.7583 49.5069 63.7577 49.5082 63.7573 49.5098C63.7569 49.5116 63.7566 49.5165 63.7563 49.5234L63.7476 49.8047L63.7378 50.0869C63.7287 50.3674 63.6665 50.6393 63.5454 50.8936L63.3149 51.376C63.2411 51.5309 63.1694 51.6872 63.1001 51.8438L62.9917 52.0879L62.8843 52.332C62.7951 52.5334 62.6879 52.7272 62.564 52.9121L62.4116 53.1396L62.2593 53.3662C62.1537 53.5237 62.0452 53.6807 61.9341 53.8359L61.7729 54.0596L61.6128 54.2842C61.57 54.344 61.5454 54.4045 61.5347 54.4727L61.4927 54.7422L61.4517 55.0117C61.4257 55.1786 61.4036 55.3479 61.3862 55.5186L61.3589 55.7939L61.3306 56.0684C61.2944 56.4249 61.1371 56.7353 60.8901 56.9814L60.6831 57.1875L60.4761 57.3945C60.4041 57.4663 60.3639 57.5327 60.3413 57.5938L60.2495 57.8438L60.1567 58.0938C60.1305 58.1648 60.1153 58.2508 60.1196 58.3584L60.1431 58.9385C60.1581 59.3051 60.0442 59.6499 59.8032 59.9336L59.6206 60.1494L59.437 60.3643C59.4319 60.3703 59.4295 60.3748 59.4282 60.377C59.4272 60.3787 59.4265 60.3802 59.4263 60.3809C59.426 60.3815 59.4257 60.3835 59.4253 60.3857C59.4248 60.3888 59.4243 60.3947 59.4243 60.4033V60.6895L59.4253 60.9756C59.4258 61.2154 59.4014 61.4511 59.3501 61.6807L59.2915 61.9434L59.2319 62.2061C59.2078 62.3139 59.1768 62.4297 59.1323 62.5361C59.0981 62.6179 59.0116 62.8084 58.8198 62.9453L58.7466 62.9971L58.6733 63.0498C58.302 63.3145 57.9206 63.1398 57.8364 63.0986C57.7021 63.0327 57.5829 62.9385 57.4917 62.8584L57.0386 62.46C56.7739 62.2274 56.5902 61.9212 56.5386 61.5547L56.4624 61.0137C56.4367 60.831 56.4123 60.6471 56.3882 60.4639L56.3521 60.1924L56.3169 59.9209C56.3155 59.9104 56.3138 59.8945 56.2798 59.8613L55.8579 59.4512C55.6141 59.2142 55.4494 58.9158 55.3989 58.5684L55.3208 58.0273C55.2922 57.8308 55.2696 57.6314 55.2544 57.4307L55.2339 57.1533L55.2124 56.876C55.2094 56.838 55.1995 56.8106 55.1724 56.7773L54.8169 56.3418C54.6617 56.1516 54.5322 55.9455 54.4321 55.7246L54.2114 55.2383C54.1548 55.1133 54.0866 54.9911 54.0063 54.8721L53.853 54.6445L53.7007 54.418C53.5724 54.2277 53.4637 54.0268 53.3774 53.8164L53.2769 53.5693L53.1753 53.3223C53.0987 53.1353 53.0321 52.9442 52.9751 52.75L52.8989 52.4932L52.8237 52.2363C52.7601 52.0195 52.7185 51.7955 52.6978 51.5674L52.647 51.0166C52.63 50.8304 52.6142 50.643 52.5991 50.4561L52.5767 50.1787L52.5591 49.9658L52.3032 49.793L52.0327 49.6104C51.9776 49.5731 51.9247 49.5296 51.8735 49.4824C51.8507 49.6926 51.7969 49.8977 51.7085 50.0928L51.4878 50.5791C51.4288 50.7092 51.3796 50.8436 51.3403 50.9814L51.2671 51.2383L51.1938 51.4961C51.1172 51.765 50.9871 52.0094 50.811 52.2256L50.4556 52.6611C50.397 52.7331 50.3622 52.8039 50.3423 52.876L50.271 53.1348L50.1997 53.3926C50.1519 53.5665 50.1034 53.7407 50.0542 53.9141L49.9077 54.4297C49.8626 54.5885 49.8222 54.7497 49.7856 54.9121L49.7261 55.1748L49.6675 55.4375C49.5873 55.7938 49.3839 56.0802 49.1157 56.2939L48.8735 56.4863L48.7476 56.5859L48.7964 56.7725L48.8774 57.0889C48.9837 57.5047 48.9073 57.9455 48.5747 58.2861L48.3706 58.4941L48.1675 58.7021C48.0722 58.7997 47.9993 58.8986 47.9438 58.9971L47.811 59.2314L47.6792 59.4668C47.606 59.5968 47.5416 59.7302 47.4868 59.8662L47.2876 60.3604C47.2239 60.5184 47.1628 60.678 47.104 60.8379L47.0112 61.0879L46.9194 61.3389C46.9117 61.3602 46.8999 61.4097 46.9204 61.5098L46.9839 61.8193L47.0474 62.1299C47.0627 62.2047 47.0763 62.2903 47.0796 62.3789C47.0826 62.4596 47.0801 62.5927 47.0278 62.7363C46.9689 62.8977 46.8343 63.0981 46.5815 63.1973C46.355 63.2861 46.1522 63.2451 46.0454 63.2119L45.8862 63.1631L45.728 63.1143C45.2468 62.9647 45.0832 62.5277 45.0288 62.2656L44.9741 62.001L44.9185 61.7363C44.8865 61.5824 44.8482 61.431 44.8022 61.2832L44.7231 61.0283L44.6431 60.7725C44.6109 60.6691 44.5635 60.5698 44.4995 60.4736L44.3481 60.2461L44.1968 60.0176C44.0897 59.8567 43.9866 59.6938 43.8882 59.5293L43.7485 59.2969L43.6099 59.0645C43.5182 58.9111 43.4254 58.7574 43.3325 58.6045L43.1919 58.3721L43.0513 58.1406C42.8641 57.8322 42.808 57.4886 42.8521 57.1484L42.8911 56.8477L42.9302 56.5479C42.9429 56.4496 42.9313 56.3872 42.9155 56.3467L42.8188 56.0986L42.7222 55.8496C42.7144 55.8298 42.6917 55.7858 42.6108 55.7256L42.3569 55.5371L42.104 55.3486C41.8305 55.1451 41.6128 54.8684 41.5181 54.5146L41.3794 53.9971C41.3073 53.7277 41.2932 53.4494 41.3257 53.1719L41.396 52.5742C41.4043 52.5026 41.391 52.4733 41.3833 52.459L41.2563 52.2227L41.1284 51.9854C41.0003 51.7476 40.9204 51.4918 40.8882 51.2236L40.855 50.9502L40.8218 50.6777C40.8098 50.5787 40.7828 50.4902 40.7407 50.4092L40.6167 50.1709L40.4937 49.9326C40.4208 49.7925 40.3406 49.6545 40.2544 49.5186L40.1089 49.2881L39.9624 49.0586C39.9048 48.9678 39.8584 48.8719 39.8179 48.7744L39.6909 48.9102C39.6419 48.9622 39.6234 49.0059 39.6147 49.0459L39.5015 49.5732C39.4484 49.8198 39.3586 50.0542 39.2339 50.2734L39.1001 50.5078L38.9673 50.7422C38.9337 50.8012 38.9129 50.8675 38.9077 50.9492L38.8726 51.5059C38.8599 51.7059 38.8406 51.9053 38.8159 52.1016L38.7817 52.373L38.7476 52.6455C38.6969 53.0481 38.4783 53.3653 38.1802 53.5879L37.9272 53.7773L37.7046 53.9424L37.7036 54.1582L37.7017 54.4434C37.7 54.7441 37.63 55.0349 37.4839 55.3018L37.354 55.5381L37.2251 55.7744C37.182 55.8531 37.1538 55.9379 37.1411 56.0332L37.105 56.3057L37.0688 56.5771C37.0184 56.9572 36.8231 57.2681 36.5454 57.498L36.3091 57.6934L36.104 57.8623L36.1108 58.0938L36.1187 58.3828C36.1276 58.7122 36.0442 59.0298 35.8589 59.3105L35.7085 59.5381L35.5581 59.7666C35.5081 59.8423 35.4756 59.9206 35.4585 60.0059L35.353 60.5371C35.3108 60.7495 35.2523 60.9573 35.1782 61.1592L34.9946 61.6592C34.959 61.7561 34.9366 61.8634 34.9302 61.9824L34.9155 62.2627L34.8999 62.542C34.8959 62.6172 34.8858 62.7169 34.855 62.8203C34.8282 62.9098 34.7567 63.1036 34.562 63.248C34.3221 63.4259 34.0502 63.4205 33.8589 63.3564C33.7 63.3031 33.5884 63.2104 33.5308 63.1572L33.3696 63.0078L33.2085 62.8594C32.9361 62.6076 32.8236 62.2774 32.8003 61.9629L32.7798 61.6855L32.7593 61.4072V61.4043C32.7591 61.4037 32.7586 61.4021 32.7573 61.4004C32.755 61.3973 32.7498 61.3916 32.7417 61.3838L32.5308 61.1787L32.3188 60.9746C32.0495 60.7137 31.8937 60.3749 31.8853 59.9912L31.8794 59.708L31.8726 59.4248C31.8699 59.3031 31.8511 59.1949 31.8188 59.0977L31.7349 58.8438L31.6499 58.5908C31.6258 58.5184 31.5855 58.4447 31.519 58.3691L31.3306 58.1553L31.1431 57.9424C30.9734 57.7496 30.8335 57.536 30.73 57.3037L30.6216 57.0605L30.5132 56.8164C30.3879 56.5351 30.3446 56.2357 30.3677 55.9346L30.3901 55.6406L30.4116 55.3496L30.2349 55.1465L30.0474 54.9326C29.838 54.6931 29.7003 54.4083 29.6509 54.0898L29.5669 53.5508C29.5395 53.3741 29.5113 53.1973 29.4819 53.0215L29.437 52.7529L29.3921 52.4854C29.3821 52.4259 29.3594 52.3714 29.3159 52.3154L29.145 52.0957L28.9741 51.875C28.8096 51.6632 28.6845 51.4281 28.606 51.1719L28.4497 50.6602C28.4312 50.5999 28.3973 50.5366 28.3345 50.4688L27.9438 50.0469C27.8364 49.9308 27.7565 49.803 27.7007 49.6689C27.6858 49.688 27.6717 49.708 27.6558 49.7266L27.4712 49.9414L27.2866 50.1572C27.2825 50.162 27.2804 50.165 27.2798 50.166C27.2795 50.168 27.2787 50.1739 27.2788 50.1826L27.2847 50.4707L27.2905 50.7578C27.2977 51.1289 27.1708 51.4715 26.9214 51.748L26.5386 52.1719C26.454 52.2656 26.3911 52.3606 26.3462 52.4551L26.2319 52.6963L26.1167 52.9385C26.0529 53.0729 25.9982 53.2108 25.9517 53.3516L25.8677 53.6045L25.7837 53.8584C25.7369 54 25.6986 54.1458 25.6685 54.2949L25.561 54.8242C25.53 54.9777 25.5054 55.1354 25.4888 55.2959L25.4604 55.5713L25.4321 55.8457C25.3897 56.2558 25.1715 56.5799 24.8687 56.8057L24.6147 56.9951L24.4858 57.0908L24.5278 57.2627L24.605 57.5771C24.6542 57.7787 24.6646 58.0058 24.5962 58.2354C24.5268 58.468 24.3907 58.6554 24.2251 58.7979L23.9956 58.9961L23.7876 59.1729L23.7915 59.416L23.7954 59.7031C23.8 60.0206 23.7219 60.3269 23.5532 60.6025L23.27 61.0654C23.233 61.1258 23.2113 61.1913 23.2036 61.2695L23.1763 61.5449L23.1499 61.8203C23.1223 62.1047 23.0358 62.3745 22.8901 62.6211L22.7524 62.8545L22.6147 63.0869C22.573 63.1575 22.5034 63.2613 22.3979 63.3516C22.2899 63.444 22.0793 63.574 21.7944 63.542C21.5165 63.5107 21.3438 63.3439 21.2622 63.2422C21.1796 63.139 21.1304 63.0303 21.1011 62.9541L21.0015 62.6943L20.9009 62.4346C20.8237 62.2339 20.76 62.0302 20.7104 61.8252L20.647 61.5645L20.5845 61.3027C20.5667 61.2296 20.5335 61.1593 20.479 61.0889L20.3091 60.8691L20.1382 60.6484C19.9931 60.4607 19.8707 60.2598 19.7729 60.0469L19.6616 59.8037L19.5503 59.5615C19.4404 59.3221 19.3753 59.0677 19.353 58.8047L19.3296 58.5283L19.3071 58.2656C19.3047 58.2631 19.3016 58.2595 19.2974 58.2559L19.0679 58.0576L18.8394 57.8594C18.673 57.7155 18.5369 57.5258 18.4692 57.291C18.4027 57.0597 18.4159 56.8319 18.4673 56.6309L18.5474 56.3145L18.6284 55.999C18.6386 55.9589 18.6375 55.937 18.6372 55.9307L18.522 55.7021L18.3999 55.4629C18.3724 55.4089 18.323 55.3418 18.229 55.2676L17.9849 55.0752L17.9429 55.042C17.869 55.2337 17.8158 55.4335 17.7827 55.6387L17.7378 55.916L17.6938 56.1924C17.693 56.1976 17.6916 56.2027 17.6909 56.2051C17.6905 56.2061 17.6895 56.2081 17.689 56.209C17.6884 56.2098 17.6866 56.212 17.6851 56.2139C17.6826 56.2168 17.6775 56.2224 17.6704 56.2285L17.4497 56.416L17.23 56.6035C16.9694 56.8255 16.7894 57.117 16.7202 57.4609L16.6128 57.998C16.5876 58.1233 16.5484 58.2406 16.4985 58.3486L16.2759 58.8311C16.218 58.9563 16.1482 59.0809 16.0669 59.2021L15.9956 59.3076L15.9097 59.2725L15.646 59.165L15.5073 59.1172C15.182 59.0226 14.8488 59.0562 14.5435 59.1982L14.272 59.3252L14.0015 59.4512C13.9674 59.4671 13.9498 59.4667 13.9233 59.46L13.6392 59.3877L13.355 59.3145L13.1929 59.2832C12.8721 59.242 12.5649 59.3262 12.3091 59.5166L12.186 59.6211L11.9673 59.8281L11.7524 60.0322L11.1431 60.001C10.8154 59.9842 10.5117 60.0838 10.2729 60.29C10.1887 60.3628 10.1116 60.4486 10.0454 60.5479L9.88135 60.7939L9.71826 61.04C9.60943 61.2033 9.5041 61.3596 9.40479 61.5078L9.25537 61.7314L9.1958 61.8213L9.10693 61.9531C9.09752 61.9671 9.07985 61.9837 9.0376 62.0029L9.05029 61.9385C9.06482 61.8609 9.06351 61.7836 9.04443 61.7031L8.98096 61.4365L8.91748 61.1689C8.83584 60.8251 8.87934 60.4839 9.02295 60.1729L9.14697 59.9062L9.27002 59.6396C9.29279 59.5898 9.29003 59.5645 9.28662 59.5479L9.17725 59.0146C9.12926 58.7817 9.109 58.545 9.11865 58.3086L9.14014 57.7754C9.14583 57.635 9.14156 57.4926 9.12549 57.3516L9.09424 57.085L9.06396 56.8184C9.03016 56.5204 9.07214 56.2271 9.17822 55.9502L9.3833 55.417C9.38283 55.416 9.38182 55.4141 9.38135 55.4131L9.27002 55.1465L9.15771 54.8799C9.059 54.645 8.99263 54.401 8.96436 54.1514L8.93408 53.8848L8.90381 53.6172C8.86163 53.2402 8.97592 52.8949 9.17041 52.6064L9.35107 52.3398L9.5249 52.083L9.46143 51.8691L9.3833 51.6025C9.32416 51.4 9.27558 51.1944 9.23975 50.9893L9.19385 50.7207L9.14697 50.4521C9.0879 50.1125 9.14514 49.7811 9.29639 49.4814L9.42725 49.2217L9.55811 48.9629C9.55981 48.9593 9.5613 48.955 9.56201 48.9531L9.56104 48.9512L9.39893 48.4023C9.33374 48.1815 9.28757 47.9567 9.26221 47.7314L9.23096 47.457L9.20068 47.1826C9.16662 46.8782 9.2103 46.5778 9.32959 46.2959L9.43799 46.04L9.54541 45.7852C9.6254 45.5963 9.71524 45.4092 9.81201 45.2266L9.94287 44.9785L10.0747 44.7305C10.092 44.6974 10.0974 44.6693 10.0923 44.6299L10.0181 44.0713C9.96649 43.6792 10.0823 43.3142 10.3247 43.0186L10.5132 42.7891L10.6724 42.5947L10.6196 42.3467L10.5571 42.0557C10.4762 41.6742 10.5483 41.2902 10.7876 40.9658L10.9556 40.7383L11.1245 40.5098C11.1457 40.4807 11.152 40.4593 11.1519 40.4287L11.1489 40.1484L11.147 39.8672C11.1445 39.5275 11.2468 39.2075 11.4497 38.9336L11.7817 38.4863C11.8635 38.3759 11.9305 38.2625 11.9819 38.1494L12.0913 37.9072L12.2017 37.666C12.2795 37.4948 12.3628 37.3242 12.4487 37.1572L12.5698 36.9209L12.6909 36.6855C12.7346 36.6003 12.7666 36.5037 12.7827 36.3965L12.8228 36.124L12.8638 35.8525C12.9132 35.5243 13.0591 35.2308 13.2876 34.9922L13.48 34.79L13.6733 34.5889C13.6894 34.5719 13.698 34.5567 13.7017 34.5225L13.7319 34.2393L13.7612 33.9561C13.7999 33.5899 13.9665 33.2667 14.2456 33.0244L14.4595 32.8398L14.6724 32.6543C14.7579 32.5799 14.8212 32.5018 14.8657 32.4238L14.9966 32.1943L15.1274 31.9658C15.1406 31.9423 15.1619 31.8881 15.1606 31.7803L15.1567 31.4639L15.1528 31.1465C15.1491 30.8212 15.2235 30.4963 15.4097 30.209L15.7026 29.7578C15.8994 29.455 16.1868 29.2564 16.5024 29.1396L16.8052 29.0273L17.1089 28.916C17.1129 28.9143 17.1175 28.9115 17.1206 28.9102L17.2124 28.6934L17.3169 28.4414C17.3831 28.2821 17.4481 28.1168 17.5103 27.9502L17.7056 27.4248C17.8353 27.0783 18.0804 26.8123 18.4038 26.6465L18.6616 26.5146L18.9185 26.3818C18.9271 26.3774 18.934 26.3733 18.937 26.3711C18.939 26.3696 18.9413 26.3678 18.9419 26.3672L18.9438 26.3643C18.9451 26.3622 18.9476 26.3576 18.9497 26.3525L19.0571 26.0918L19.1636 25.8311C19.306 25.4845 19.5638 25.2243 19.9009 25.0732L20.4282 24.8369C20.4465 24.8286 20.4551 24.8217 20.4565 24.8203C20.4585 24.8181 20.4629 24.8126 20.4673 24.8037L20.5903 24.5527L20.7134 24.3008C20.7949 24.1343 20.8778 23.9641 20.9604 23.7939L21.0854 23.5371L21.2095 23.2803C21.339 23.0142 21.5238 22.7833 21.7622 22.6035L21.978 22.4404L22.1938 22.2783C22.3377 22.1699 22.4831 22.0609 22.6265 21.9531L23.0562 21.6289C23.2736 21.4658 23.5189 21.348 23.7808 21.2725L24.0591 21.1924L24.3384 21.1113C24.4205 21.0874 24.4733 21.0543 24.5103 21.0186L24.7026 20.832L24.894 20.6455C25.0959 20.4498 25.3337 20.3029 25.5972 20.207L25.856 20.1123L26.0981 20.0244C26.1003 20.0209 26.1042 20.0154 26.1069 20.0098L26.3706 19.4531C26.5174 19.1443 26.7494 18.8817 27.0757 18.7227L27.3179 18.6045L27.561 18.4863C27.7755 18.3819 28.0028 18.3041 28.2388 18.2529L28.7896 18.1338C28.8899 18.1119 28.9718 18.0758 29.0396 18.0303L29.2603 17.8818L29.48 17.7334C29.5959 17.6554 29.7098 17.5658 29.8188 17.4658L30.022 17.2803L30.2241 17.0947C30.3582 16.9717 30.4944 16.8462 30.6304 16.7207L31.0405 16.3418C31.2928 16.1094 31.6019 15.973 31.9409 15.9395L32.2241 15.9121L32.5063 15.8838C32.6478 15.8697 32.7791 15.8428 32.8989 15.8047L33.1538 15.7236L33.4097 15.6426C33.5115 15.6101 33.6093 15.562 33.7026 15.498L34.1538 15.1895C34.3736 15.0389 34.6157 14.9292 34.8745 14.8662L35.1353 14.8027L35.397 14.7393C35.6072 14.6882 35.823 14.653 36.0405 14.6348L36.5854 14.5898L36.5874 14.5889C36.5919 14.5862 36.6042 14.5784 36.6206 14.5615L36.8325 14.3438L37.0444 14.125L37.1616 14.0176C37.2862 13.917 37.4347 13.8364 37.604 13.791C37.7728 13.7459 37.9404 13.7412 38.0972 13.7646L38.2515 13.7969L38.5503 13.8779L38.771 13.9375L38.9292 13.792L39.1528 13.5859C39.4461 13.3166 39.824 13.1816 40.2368 13.2383L40.52 13.2773L40.8022 13.3164C40.9339 13.3344 41.055 13.3348 41.1655 13.3213L41.6929 13.2568C41.781 13.2459 41.8734 13.2189 41.9692 13.1699L42.2183 13.042L42.4683 12.9141C42.6652 12.8134 42.8687 12.7282 43.0757 12.6592L43.3345 12.5723L43.5933 12.4863C43.9743 12.3597 44.3532 12.4171 44.6812 12.582L45.2476 12.8672C45.2781 12.8825 45.2969 12.8875 45.3032 12.8887L45.5581 12.8232L45.8188 12.7578C46.0209 12.7066 46.2262 12.6678 46.4321 12.6426L46.6968 12.6094L46.9614 12.5771C47.1759 12.551 47.393 12.5428 47.6089 12.5518L47.8745 12.5625L48.1411 12.5732H48.2983L48.3726 12.5488L48.48 12.5127L48.6313 12.4756C48.7868 12.4472 48.9515 12.4436 49.0854 12.4453L49.3521 12.4492L49.6187 12.4521C49.7427 12.4536 49.8692 12.4419 49.9966 12.415L50.2632 12.3584L50.5298 12.3027C50.8995 12.2252 51.2549 12.3015 51.563 12.4775L52.0962 12.7822C52.1097 12.7899 52.1204 12.7946 52.1265 12.7969C52.1287 12.7977 52.1311 12.7985 52.1323 12.7988L52.394 12.7422L52.6606 12.6855C52.8696 12.641 53.0816 12.6108 53.2925 12.5957L53.5591 12.5762L53.8257 12.5576C54.0306 12.543 54.2369 12.5395 54.4419 12.5488L54.7085 12.5615L54.9751 12.5732C55.1073 12.5792 55.241 12.573 55.3745 12.5537L55.6411 12.5146L55.9077 12.4766C56.0933 12.4498 56.2806 12.4264 56.4663 12.4062L56.9995 12.3477C57.2504 12.3205 57.5026 12.3329 57.7505 12.3828L58.2837 12.4902C58.4257 12.5188 58.5675 12.5357 58.7075 12.542L58.9751 12.5537L59.2417 12.5654C59.3708 12.5711 59.5017 12.5646 59.6323 12.5439L59.8989 12.502L60.1655 12.459C60.3986 12.4223 60.6341 12.4139 60.8687 12.4336L61.1362 12.4561L61.4028 12.4785C61.5585 12.4915 61.7151 12.4973 61.8706 12.4961L62.1372 12.4941L62.4038 12.4912C62.5274 12.4902 62.654 12.476 62.7817 12.4463L63.0483 12.3838L63.3149 12.3223C63.5612 12.2651 63.8127 12.2445 64.064 12.2637L64.5972 12.3047C64.7574 12.3169 64.9185 12.3227 65.0786 12.3232L65.6118 12.3252C65.8266 12.326 66.042 12.3437 66.2554 12.3779L66.522 12.4209L66.7896 12.4639C66.9909 12.4962 67.1923 12.5397 67.3921 12.5928L67.6587 12.6631L67.9126 12.7314C67.9168 12.7297 67.9238 12.7267 67.9312 12.7227L68.4644 12.4258L68.6011 12.3594C68.8777 12.242 69.1787 12.219 69.4741 12.3066L69.6216 12.3594L69.8882 12.4727L70.1411 12.582L70.395 12.4717L70.6616 12.3564L70.7993 12.3057Z" fill="#303A4B"/>
</svg>
