<svg width="128" height="128" viewBox="0 0 128 128" fill="none" xmlns="http://www.w3.org/2000/svg">
<g clip-path="url(#clip0_395_2708)">
<path d="M118.528 77.4434C118.608 77.8044 118.542 78.1549 118.377 78.4648L118.235 78.7314L118.105 78.9717L118.197 79.1982L118.304 79.4648C118.426 79.7696 118.458 80.0958 118.384 80.4219L118.323 80.6885L118.262 80.9551C118.251 81.0003 118.252 81.0448 118.271 81.1016L118.453 81.6348C118.534 81.8728 118.582 82.1174 118.593 82.3662L118.604 82.6328L118.615 82.8994C118.629 83.2314 118.538 83.5422 118.379 83.8184L118.225 84.085L118.071 84.3525C118.054 84.3826 118.05 84.3988 118.049 84.4023V84.4053L118.145 84.9385C118.171 85.0846 118.208 85.2328 118.255 85.3818L118.339 85.6484L118.424 85.915C118.543 86.2898 118.493 86.6646 118.317 86.9961L118.177 87.2627L118.035 87.5303C118.027 87.5466 118.023 87.5568 118.021 87.5615L118.086 87.8281L118.151 88.0957C118.189 88.2481 118.235 88.402 118.29 88.5566L118.481 89.0898C118.568 89.3326 118.618 89.5841 118.627 89.8398L118.645 90.373C118.655 90.678 118.584 90.9695 118.454 91.2393L118.325 91.5059L118.197 91.7725C118.175 91.8189 118.179 91.8347 118.181 91.8428L118.3 92.376C118.339 92.5505 118.379 92.7258 118.42 92.9004L118.483 93.167L118.546 93.4336C118.598 93.6552 118.629 93.8793 118.637 94.1045L118.656 94.6377C118.664 94.8546 118.654 95.0721 118.626 95.2881L118.591 95.5547L118.557 95.8213C118.541 95.9404 118.54 96.0598 118.555 96.1787L118.619 96.7119C118.666 97.1053 118.537 97.4588 118.328 97.7471L118.135 98.0137L118.041 98.1426L118.124 98.2637L118.306 98.5303C118.53 98.8606 118.625 99.2677 118.484 99.6885L118.396 99.9551L118.306 100.223C118.247 100.397 118.191 100.572 118.135 100.747L118.049 101.014L117.978 101.235L118.135 101.491L118.299 101.758C118.492 102.073 118.576 102.445 118.48 102.834L118.35 103.367C118.317 103.498 118.299 103.627 118.295 103.754L118.285 104.021L118.276 104.288C118.268 104.543 118.218 104.793 118.132 105.035L117.942 105.568C117.919 105.633 117.918 105.684 117.927 105.732L117.977 106L118.026 106.267C118.056 106.427 118.092 106.587 118.135 106.748L118.205 107.015L118.276 107.281C118.351 107.563 118.36 107.852 118.302 108.139L118.247 108.405L118.193 108.672C118.175 108.764 118.173 108.854 118.188 108.944L118.233 109.211L118.279 109.478C118.315 109.687 118.336 109.897 118.343 110.107L118.36 110.641C118.367 110.841 118.364 111.041 118.352 111.241L118.335 111.508L118.317 111.774C118.307 111.936 118.303 112.098 118.304 112.26L118.306 112.526L118.307 112.793C118.308 113.071 118.251 113.342 118.146 113.599L118.038 113.865L117.929 114.132C117.909 114.18 117.911 114.208 117.917 114.234L118.042 114.768C118.073 114.9 118.118 115.037 118.18 115.177L118.298 115.443L118.415 115.71C118.603 116.136 118.533 116.571 118.294 116.927L118.114 117.193L117.939 117.453L118.001 117.67L118.076 117.937C118.144 118.175 118.179 118.42 118.178 118.666L118.176 119.199C118.175 119.383 118.172 119.567 118.167 119.75L118.16 120.017L118.152 120.283C118.148 120.454 118.145 120.624 118.146 120.795L118.147 121.328C118.148 121.411 118.163 121.501 118.203 121.603L118.414 122.136C118.538 122.451 118.561 122.787 118.47 123.119L118.396 123.386L118.322 123.652C118.295 123.752 118.286 123.847 118.294 123.938L118.316 124.205L118.338 124.473C118.354 124.665 118.364 124.857 118.367 125.05L118.377 125.583C118.381 125.772 118.38 125.961 118.375 126.149L118.367 126.417L118.36 126.684C118.357 126.821 118.363 126.96 118.383 127.099L118.42 127.365L118.458 127.632C118.498 127.921 118.47 128.208 118.38 128.483L118.293 128.751L118.206 129.018C118.18 129.098 118.175 129.169 118.184 129.236L118.254 129.77C118.281 129.975 118.297 130.182 118.299 130.389L118.305 130.922C118.308 131.206 118.248 131.481 118.138 131.741L118.025 132.008L117.912 132.274C117.886 132.337 117.885 132.378 117.891 132.413L117.935 132.68L117.979 132.946C118.018 133.176 118.03 133.408 118.017 133.64L118.001 133.906L117.984 134.173C117.979 134.256 117.991 134.345 118.022 134.441L118.109 134.708L118.197 134.975C118.267 135.187 118.319 135.403 118.354 135.619L118.396 135.886L118.438 136.152C118.476 136.391 118.483 136.631 118.458 136.87L118.43 137.137L118.402 137.404C118.388 137.543 118.384 137.683 118.393 137.821L118.408 138.088L118.425 138.354C118.437 138.561 118.436 138.769 118.423 138.976L118.39 139.509C118.373 139.769 118.311 140.023 118.211 140.267L117.992 140.8C117.946 140.914 117.922 141.019 117.915 141.116L117.895 141.383L117.875 141.649C117.864 141.793 117.864 141.938 117.874 142.082L117.911 142.615C117.916 142.678 117.935 142.758 117.989 142.857L118.278 143.391C118.426 143.663 118.511 143.964 118.502 144.283L118.494 144.55L118.487 144.816C118.481 145.061 118.439 145.302 118.367 145.538L118.285 145.806L118.204 146.072C118.156 146.229 118.115 146.386 118.083 146.541L118.028 146.808L117.973 147.074C117.968 147.099 117.967 147.129 117.989 147.182L118.104 147.448L118.219 147.715C118.327 147.966 118.391 148.231 118.401 148.504L118.421 149.037C118.429 149.266 118.413 149.494 118.373 149.721L118.326 149.987L118.278 150.255C118.239 150.476 118.178 150.692 118.085 150.888L117.997 151.072L117.909 151.258C117.714 151.667 117.334 151.834 117 151.876L116.467 151.942C116.305 151.963 116.141 151.989 115.979 152.02L115.445 152.121C115.213 152.165 114.977 152.182 114.742 152.17L114.209 152.143C114.011 152.132 113.813 152.113 113.615 152.086L113.349 152.05L113.082 152.013C112.903 151.988 112.722 151.963 112.543 151.937L112.01 151.858C111.898 151.842 111.786 151.841 111.675 151.856L111.407 151.893L111.141 151.929C110.961 151.953 110.78 151.977 110.601 151.999L110.067 152.065C109.79 152.1 109.514 152.076 109.246 151.998L108.979 151.92L108.713 151.843C108.701 151.839 108.695 151.839 108.691 151.839C108.688 151.839 108.676 151.841 108.654 151.85L108.388 151.962L108.121 152.073C107.751 152.228 107.361 152.214 107.005 152.044L106.472 151.788C106.333 151.722 106.199 151.673 106.07 151.641L105.804 151.572L105.537 151.505C105.486 151.492 105.439 151.492 105.384 151.509L104.851 151.669C104.546 151.761 104.231 151.765 103.924 151.681L103.391 151.534C103.33 151.518 103.277 151.517 103.219 151.531L102.952 151.599L102.686 151.665C102.531 151.704 102.375 151.752 102.219 151.808L101.686 151.999C101.373 152.111 101.044 152.126 100.722 152.036L100.188 151.888C100.04 151.846 99.8907 151.815 99.7441 151.794L99.4775 151.755L99.2109 151.717C99.1174 151.703 99.0233 151.706 98.9268 151.727L98.6602 151.784L98.3936 151.841C98.0831 151.907 97.7718 151.883 97.4756 151.778L97.209 151.685L96.9736 151.601L96.7197 151.741L96.4531 151.887C96.2667 151.989 96.0499 152.05 95.8145 152.04C95.5805 152.03 95.3716 151.95 95.1973 151.839L94.9307 151.67L94.7314 151.543L94.5547 151.629L94.2881 151.757C93.952 151.919 93.5809 151.952 93.2168 151.828L92.6836 151.646C92.6038 151.619 92.5345 151.615 92.4697 151.623L91.9365 151.691C91.7318 151.718 91.5257 151.733 91.3203 151.735L90.7871 151.741C90.6313 151.743 90.4745 151.752 90.3184 151.769L89.7852 151.823C89.5297 151.85 89.2744 151.834 89.0234 151.778L88.7568 151.718L88.4902 151.658C88.3554 151.628 88.2215 151.612 88.0898 151.607L87.8232 151.599L87.5566 151.591C87.389 151.586 87.2204 151.584 87.0527 151.586L86.7861 151.588L86.5195 151.591C86.4378 151.592 86.3476 151.609 86.2461 151.65L85.9795 151.758L85.7129 151.866C85.4632 151.967 85.202 152.026 84.9336 152.034L84.4004 152.05C84.2466 152.054 84.0919 152.067 83.9375 152.087L83.6699 152.121L83.4033 152.156C83.002 152.208 82.6432 152.072 82.3545 151.857L82.0879 151.658L81.8711 151.497L81.7051 151.562L81.4385 151.667C81.1125 151.795 80.7658 151.809 80.4287 151.701L80.1621 151.616L79.9238 151.539L79.6602 151.688L79.3936 151.837C79.1341 151.983 78.8501 152.075 78.5479 152.09L78.2812 152.104L78.0146 152.116C77.8356 152.125 77.6556 152.134 77.4766 152.142L76.9434 152.165C76.6694 152.177 76.4 152.133 76.1416 152.042L75.875 151.948L75.6084 151.854C75.4568 151.8 75.306 151.757 75.1572 151.724L74.8906 151.663L74.6475 151.608C74.6427 151.611 74.6365 151.615 74.6289 151.62L74.3623 151.79L74.0957 151.961C73.7776 152.164 73.3962 152.254 72.9971 152.148L72.4639 152.008C72.3984 151.99 72.3384 151.989 72.2754 152.004L72.0078 152.067L71.7412 152.13C71.4837 152.19 71.2213 152.205 70.959 152.173L70.6924 152.141L70.4258 152.107C70.126 152.071 69.848 151.958 69.5967 151.798L69.3301 151.628L69.1895 151.538L69.043 151.638L68.7754 151.816C68.5187 151.989 68.2287 152.109 67.9111 152.139L67.6445 152.163L67.3779 152.188C67.1723 152.208 66.9658 152.215 66.7598 152.209L66.4932 152.201L66.2266 152.194C65.9572 152.187 65.6947 152.128 65.4443 152.026L64.9111 151.81C64.7573 151.747 64.6041 151.694 64.4531 151.651L64.1865 151.577L63.9355 151.506C63.9326 151.507 63.9289 151.51 63.9248 151.513L63.3916 151.81C62.9914 152.032 62.5458 152.023 62.1543 151.795L61.8877 151.64L61.6201 151.484C61.5974 151.471 61.5838 151.466 61.5791 151.465L61.3174 151.518L61.0508 151.57C60.957 151.589 60.8501 151.627 60.7305 151.695L60.4639 151.847L60.1973 151.999C59.8941 152.171 59.5468 152.249 59.1826 152.182L58.916 152.133L58.6494 152.083C58.5564 152.066 58.4648 152.065 58.3721 152.082L58.1055 152.13L57.8389 152.179C57.4957 152.241 57.1626 152.18 56.8623 152.03L56.5957 151.897L56.3291 151.766C56.1919 151.697 56.0592 151.647 55.9326 151.614L55.666 151.545L55.417 151.479C55.4134 151.481 55.4088 151.484 55.4033 151.487L54.8701 151.798C54.6114 151.948 54.3259 152.045 54.0215 152.063L53.7549 152.08L53.4883 152.096C53.1629 152.115 52.855 152.035 52.5771 151.887L52.3105 151.744L52.1152 151.64L51.9199 151.747L51.6533 151.894C51.2461 152.116 50.7975 152.096 50.4102 151.861L50.1436 151.699L49.9307 151.569L49.7393 151.657L49.4727 151.778C49.1627 151.919 48.8246 151.961 48.4834 151.881L47.9502 151.756C47.8072 151.722 47.6649 151.7 47.5244 151.689L46.9912 151.648C46.8473 151.637 46.7025 151.636 46.5586 151.646L46.0254 151.681C45.7771 151.697 45.5295 151.676 45.2861 151.62L44.7656 151.5C44.7605 151.502 44.7527 151.506 44.7432 151.512L44.21 151.83C43.8804 152.027 43.4939 152.097 43.1006 151.975L42.834 151.891L42.5674 151.808C42.5083 151.789 42.4587 151.788 42.4072 151.8L42.1406 151.862L41.873 151.924C41.6669 151.972 41.459 152.007 41.251 152.028L40.7178 152.083C40.4325 152.112 40.1507 152.076 39.8809 151.983L39.6143 151.892L39.3477 151.801C39.2814 151.778 39.2278 151.776 39.1758 151.785L38.9092 151.834L38.6416 151.884C38.3284 151.942 38.0177 151.908 37.7246 151.796L37.458 151.693L37.1914 151.592C37.1581 151.579 37.1421 151.58 37.1201 151.587L36.8535 151.668L36.5869 151.75C36.3015 151.837 36.0056 151.855 35.7109 151.799L35.4443 151.747L35.1777 151.696C35.1284 151.687 35.0777 151.689 35.0137 151.711L34.7471 151.804L34.4805 151.897C34.2651 151.973 34.0461 152.029 33.8252 152.064L33.292 152.15C33.0385 152.191 32.7826 152.19 32.5293 152.148L31.9961 152.061C31.7282 152.016 31.4732 151.921 31.2334 151.787L30.9658 151.639L30.7988 151.546L30.6221 151.656L30.3555 151.822C30.0679 152.002 29.7337 152.102 29.373 152.065L28.8398 152.011C28.6164 151.988 28.3944 151.943 28.1758 151.878L27.9092 151.799L27.6426 151.719C27.5903 151.703 27.5463 151.703 27.4971 151.716L26.9639 151.86C26.6569 151.943 26.3435 151.936 26.04 151.845L25.7734 151.765L25.5068 151.684C25.4954 151.68 25.489 151.681 25.4863 151.681C25.4838 151.681 25.4728 151.682 25.4521 151.69L25.1855 151.801L24.9189 151.912C24.5149 152.08 24.1 152.029 23.7461 151.816L23.4795 151.656L23.2734 151.532L23.0859 151.623L22.8193 151.751C22.5642 151.873 22.2916 151.947 22.0078 151.959L21.4746 151.98C21.1488 151.994 20.8425 151.908 20.5674 151.755L20.3008 151.606L20.0361 151.459L19.7959 151.537L19.5293 151.622C19.2986 151.696 19.063 151.743 18.8242 151.758L18.5576 151.774L18.291 151.792C18.1197 151.803 17.9477 151.816 17.7764 151.831L17.2432 151.88C16.9373 151.908 16.6404 151.852 16.3633 151.732L16.0967 151.617L15.8613 151.515L15.6211 151.631L15.3545 151.76C15.0433 151.91 14.6993 151.958 14.3506 151.877L14.083 151.814L13.8164 151.752C13.6813 151.72 13.5477 151.702 13.416 151.696L13.1494 151.686L12.8828 151.674C12.7256 151.667 12.5673 151.668 12.4102 151.675L11.877 151.698C11.645 151.709 11.4131 151.693 11.1836 151.65L10.6504 151.553C10.4618 151.518 10.1626 151.447 9.94043 151.245L9.84766 151.16L9.75488 151.076C9.61935 150.953 9.54118 150.807 9.49512 150.698C9.44659 150.584 9.41318 150.462 9.38867 150.346L9.33301 150.079L9.27637 149.812C9.23053 149.595 9.20411 149.375 9.19727 149.154L9.18945 148.888L9.18066 148.621C9.17425 148.414 9.18156 148.206 9.20117 147.999L9.22656 147.732L9.25098 147.465C9.27104 147.254 9.30656 147.043 9.35645 146.834L9.4834 146.301C9.49058 146.271 9.49163 146.24 9.47266 146.191L9.36816 145.925L9.26465 145.658C9.15318 145.373 9.11242 145.07 9.15723 144.763L9.23535 144.229C9.24922 144.134 9.24648 144.039 9.22656 143.941L9.17188 143.675L9.11816 143.408C9.0703 143.174 9.05141 142.937 9.0625 142.699L9.07422 142.433L9.08691 142.166C9.09523 141.988 9.10374 141.81 9.1123 141.632L9.1377 141.099C9.15246 140.792 9.24857 140.505 9.39844 140.244L9.70508 139.711C9.72313 139.679 9.72806 139.66 9.72949 139.653C9.73043 139.649 9.7308 139.646 9.73047 139.644L9.68848 139.376L9.64648 139.109C9.62734 138.988 9.59263 138.861 9.54004 138.73L9.3252 138.197C9.20659 137.902 9.16991 137.587 9.22949 137.269L9.2793 137.001L9.3291 136.734C9.37099 136.511 9.43511 136.291 9.51953 136.074L9.62305 135.808L9.72754 135.541C9.7619 135.453 9.77174 135.378 9.76758 135.311L9.75098 135.044L9.7334 134.777C9.72945 134.715 9.71043 134.635 9.65723 134.536L9.51367 134.27L9.37012 134.002C9.18537 133.658 9.14384 133.268 9.28516 132.886L9.48242 132.353C9.48502 132.345 9.48598 132.341 9.48633 132.339V132.336C9.48593 132.334 9.4844 132.328 9.48145 132.32L9.27637 131.787C9.12542 131.394 9.17487 130.994 9.37305 130.646L9.67773 130.113C9.69484 130.083 9.69912 130.066 9.7002 130.061C9.70084 130.057 9.70056 130.056 9.7002 130.054L9.6084 129.521C9.59245 129.429 9.55625 129.324 9.49219 129.207L9.34668 128.94L9.20117 128.673C9.09207 128.473 9.03235 128.238 9.06152 127.984C9.09024 127.737 9.19758 127.528 9.32617 127.362L9.5332 127.096L9.67188 126.918L9.60449 126.788L9.46875 126.521C9.34093 126.27 9.2595 126.001 9.23828 125.719L9.21875 125.452L9.19824 125.186C9.18163 124.964 9.18562 124.742 9.20996 124.521L9.23926 124.255L9.26855 123.987C9.28557 123.833 9.29519 123.678 9.29688 123.524L9.30273 122.991C9.30518 122.767 9.33025 122.544 9.37598 122.322L9.43066 122.055L9.48535 121.788C9.50927 121.672 9.51718 121.559 9.50977 121.446L9.47461 120.913C9.4592 120.681 9.47014 120.448 9.50781 120.218L9.5957 119.685C9.6098 119.598 9.60712 119.512 9.58691 119.423L9.46582 118.89C9.4344 118.751 9.39008 118.609 9.33203 118.465L9.11719 117.932C9.01264 117.672 8.95824 117.399 8.96387 117.118L8.96973 116.852L8.97461 116.585C8.98055 116.292 9.05663 116.012 9.18457 115.752L9.44629 115.219C9.48265 115.145 9.48638 115.096 9.4834 115.062L9.43652 114.528C9.41796 114.318 9.41354 114.108 9.42383 113.897L9.4375 113.631L9.4502 113.364C9.45936 113.177 9.47267 112.99 9.48926 112.803L9.53613 112.27C9.53923 112.234 9.53514 112.185 9.49902 112.111L9.36914 111.845L9.23828 111.578C9.10245 111.3 9.03431 110.996 9.05762 110.68L9.09668 110.146C9.11854 109.851 9.21196 109.573 9.35547 109.317L9.50586 109.051L9.59375 108.894L9.48047 108.723L9.30566 108.456C9.10365 108.148 9.0021 107.778 9.08691 107.383L9.14453 107.116L9.20117 106.85C9.22979 106.716 9.24482 106.584 9.24707 106.454L9.25195 106.188L9.25684 105.92C9.26162 105.641 9.32408 105.372 9.43457 105.116L9.5498 104.85L9.66602 104.583C9.71421 104.472 9.73781 104.37 9.74512 104.277L9.7666 104.011L9.78711 103.744C9.79518 103.641 9.78787 103.535 9.7627 103.427L9.7002 103.16L9.63867 102.894C9.58029 102.643 9.56238 102.387 9.58691 102.131L9.6377 101.598C9.63816 101.594 9.64182 101.565 9.60156 101.498L9.28125 100.965C9.09623 100.656 9.01249 100.296 9.09277 99.918L9.20605 99.3848C9.25582 99.1504 9.33373 98.9209 9.4375 98.6982L9.56152 98.4316L9.68652 98.165C9.72064 98.0917 9.72536 98.0407 9.72168 98.002L9.66895 97.4688C9.65735 97.3502 9.63022 97.2268 9.58594 97.0996L9.40039 96.5664C9.28152 96.2252 9.29129 95.8716 9.42285 95.5381L9.52832 95.2715L9.61816 95.0449L9.4873 94.8027L9.34375 94.5361C9.19565 94.261 9.11367 93.9562 9.12793 93.6338L9.15137 93.1006C9.15877 92.9338 9.16228 92.7664 9.16211 92.5996V92.333L9.16113 92.0664C9.16083 91.7529 9.24855 91.4582 9.39551 91.1904L9.54199 90.9238L9.63672 90.751L9.52539 90.5703L9.3623 90.3027C9.16735 89.9835 9.08574 89.6076 9.18945 89.2168L9.26074 88.9492L9.33105 88.6826C9.34639 88.6248 9.34634 88.5725 9.33105 88.5146L9.19043 87.9814C9.12513 87.7355 9.09717 87.4846 9.10938 87.2314L9.13477 86.6982C9.14988 86.3856 9.2514 86.0946 9.4082 85.833L9.56738 85.5664L9.72754 85.2998C9.72962 85.2963 9.73101 85.2927 9.73242 85.29L9.66699 85.0508L9.59473 84.7842C9.52666 84.5319 9.50138 84.2737 9.52051 84.0137L9.55957 83.4805C9.56867 83.357 9.56322 83.2323 9.54395 83.1074L9.46191 82.5742C9.42575 82.3402 9.41747 82.1045 9.43848 81.8691L9.46289 81.6025L9.48633 81.3359C9.49868 81.1977 9.5 81.0591 9.48926 80.9209L9.46777 80.6543L9.44727 80.3877C9.42818 80.1425 9.4445 79.8979 9.49414 79.6562L9.54883 79.3896L9.60352 79.1221C9.6077 79.1015 9.60975 79.0747 9.58691 79.0234L9.4668 78.7568L9.34766 78.4902C9.20959 78.182 9.20116 77.8629 9.30078 77.5674L9.42969 77.7588C9.60326 78.0188 9.83471 78.2257 10.1172 78.3652L10.3672 78.4893L10.6182 78.6133C10.7954 78.7008 10.9754 78.784 11.1562 78.8623L11.4111 78.9727L11.667 79.083C11.8701 79.1709 12.0795 79.2434 12.2939 79.2998L12.5645 79.3711L12.834 79.4424C13.0837 79.508 13.3397 79.5344 13.5977 79.5225L13.877 79.5098L14.1553 79.4971C14.4109 79.4852 14.661 79.4358 14.9023 79.3506L15.167 79.2578L15.2871 79.2148C15.3429 79.3992 15.4173 79.5772 15.5107 79.7471L15.7705 80.2197C15.8252 80.3193 15.8643 80.4227 15.8887 80.5303L15.9482 80.79L16.0068 81.0508C16.0585 81.2791 16.1371 81.4987 16.2412 81.708L16.3594 81.9463L16.4775 82.1836C16.5114 82.2519 16.5345 82.3338 16.541 82.4346L16.5596 82.7168L16.5771 83C16.5917 83.2245 16.6232 83.4457 16.6719 83.6621L16.7324 83.9316L16.793 84.2002C16.8469 84.4396 16.9315 84.6689 17.0459 84.8848L17.1719 85.123L17.2988 85.3623C17.4498 85.647 17.6739 85.869 17.9404 86.0332L18.46 86.3535C18.5438 86.4053 18.5806 86.4517 18.5986 86.4844L18.8545 86.9492C18.9237 87.0749 18.9859 87.2078 19.0391 87.3467L19.1357 87.6006L19.2334 87.8545C19.3495 88.1575 19.5462 88.4077 19.8057 88.5957L20.0342 88.7607L20.2627 88.9268C20.2667 88.9297 20.269 88.9321 20.2695 88.9326V88.9316L20.2705 88.9336C20.2716 88.9364 20.2734 88.943 20.2754 88.9521L20.3369 89.2363L20.3994 89.5205C20.4555 89.7783 20.5478 90.0229 20.6807 90.248L20.9561 90.7148C21.1371 91.0214 21.4089 91.2331 21.7236 91.3594L22.0049 91.4727L22.2861 91.585C22.3551 91.6127 22.3733 91.6383 22.3799 91.6484L22.5244 91.874L22.6699 92.0996C22.787 92.2817 22.9174 92.4539 23.0615 92.6143L23.2393 92.8115L23.417 93.0098C23.535 93.141 23.6536 93.2726 23.7715 93.4043L23.9492 93.6035L24.127 93.8018C24.2565 93.9464 24.3916 94.0867 24.5312 94.2217L24.7227 94.4072L24.9141 94.5918C25.0634 94.7362 25.2228 94.8717 25.3896 94.9961L25.6035 95.1553L25.8184 95.3154C25.925 95.3951 26.0241 95.4847 26.1143 95.583L26.2949 95.7793L26.4756 95.9766C26.5862 96.0972 26.6947 96.2231 26.7998 96.3525L27.1416 96.7744C27.3156 96.9886 27.5278 97.1624 27.7715 97.292L28.0107 97.4199L28.251 97.5469C28.302 97.5741 28.3475 97.6136 28.3887 97.6758L28.5439 97.9111L28.7002 98.1465C28.8975 98.444 29.1808 98.6519 29.5225 98.752L29.7949 98.8311L30.0674 98.9111C30.2121 98.9536 30.346 99.0056 30.4678 99.0654L30.708 99.1836L30.9492 99.3027C30.9533 99.3045 30.9754 99.3161 31.0059 99.377L31.1436 99.6523L31.2812 99.9287C31.443 100.252 31.7038 100.515 32.0664 100.648L32.5801 100.838C32.6888 100.878 32.7872 100.931 32.876 100.997L33.0918 101.157L33.3086 101.317C33.4727 101.439 33.6429 101.552 33.8184 101.655L34.0488 101.791L34.2803 101.927C34.5232 102.07 34.7888 102.156 35.0674 102.191L35.3525 102.227L35.6367 102.263C35.6936 102.27 35.7255 102.287 35.752 102.31L35.959 102.489L36.166 102.668C36.3362 102.815 36.5184 102.947 36.7109 103.06L36.9424 103.194L37.1729 103.33C37.378 103.45 37.5964 103.544 37.8252 103.61L38.3447 103.761C38.5094 103.808 38.6732 103.859 38.834 103.912L39.3418 104.08C39.4143 104.104 39.4863 104.144 39.5586 104.208L39.7695 104.396L39.9814 104.583C40.1645 104.745 40.3641 104.883 40.5791 104.993L40.8184 105.115L41.0576 105.238C41.2526 105.338 41.456 105.422 41.665 105.487L41.9219 105.567L42.1777 105.648C42.3808 105.712 42.5889 105.762 42.7998 105.797L43.0674 105.842L43.335 105.886C43.4749 105.909 43.6109 105.943 43.7422 105.988L44.25 106.162C44.3655 106.202 44.4793 106.255 44.5898 106.324L44.8232 106.471L45.0566 106.618C45.2807 106.759 45.524 106.858 45.7822 106.914L46.3096 107.027C46.5553 107.08 46.8067 107.096 47.0596 107.076L47.3418 107.055L47.625 107.032C47.7331 107.024 47.8267 107.035 47.9102 107.06L48.166 107.134L48.4229 107.208C48.6069 107.262 48.7928 107.31 48.9795 107.353L49.2393 107.412L49.499 107.471C49.6189 107.498 49.7381 107.54 49.8564 107.597L50.1045 107.715L50.3516 107.833C50.6567 107.979 50.9854 108.018 51.3125 107.96L51.5947 107.909L51.877 107.859C51.8845 107.858 51.8892 107.857 51.8906 107.857C51.8923 107.858 51.8961 107.861 51.9014 107.864L52.3877 108.167C52.7169 108.372 53.0913 108.427 53.4629 108.333L53.7461 108.262L54.0283 108.19C54.1637 108.156 54.2877 108.141 54.4004 108.142L54.667 108.144L54.9346 108.146C54.942 108.146 54.9699 108.145 55.0283 108.188L55.2734 108.37L55.5195 108.551C55.8272 108.778 56.2011 108.882 56.5986 108.804L56.8721 108.75L57.1465 108.695C57.2719 108.671 57.391 108.663 57.5039 108.67L57.7695 108.688L58.0352 108.704C58.189 108.714 58.3432 108.731 58.4961 108.756L58.7598 108.799L59.0234 108.841C59.2314 108.874 59.4412 108.893 59.6514 108.897L59.918 108.903L60.1836 108.908C60.2944 108.91 60.4079 108.928 60.5244 108.963L60.7891 109.042L61.0527 109.12C61.25 109.179 61.449 109.229 61.6484 109.268L61.9131 109.319L62.1787 109.371C62.3743 109.409 62.5717 109.44 62.7695 109.462L63.0381 109.491L63.3057 109.521C63.6426 109.559 63.9645 109.485 64.2529 109.333L64.7881 109.05C64.9114 108.985 65.0226 108.947 65.1211 108.929L65.6504 108.829C65.8052 108.8 65.9599 108.779 66.1133 108.765L66.377 108.739L66.6416 108.715C66.7743 108.703 66.909 108.702 67.0449 108.714L67.5801 108.761C67.814 108.781 68.0479 108.774 68.2793 108.738L68.542 108.697L68.8047 108.657C68.9145 108.64 69.0278 108.639 69.1455 108.652L69.416 108.684L69.6855 108.716C69.7997 108.729 69.925 108.76 70.0605 108.812L70.3398 108.921L70.6191 109.03C70.9535 109.16 71.3151 109.176 71.666 109.044L71.9248 108.946L72.1826 108.849C72.3313 108.792 72.48 108.745 72.6279 108.707L72.8887 108.64L73.1484 108.572C73.3323 108.525 73.5158 108.473 73.6973 108.417L73.9551 108.338L74.2119 108.259C74.3166 108.227 74.4238 108.21 74.5352 108.209L75.0762 108.205C75.2329 108.204 75.393 108.21 75.5547 108.225L75.8301 108.249L76.1064 108.273C76.35 108.295 76.5928 108.286 76.832 108.244L77.0977 108.198L77.3623 108.151C77.7293 108.087 78.0271 107.889 78.2549 107.633L78.6904 107.143C78.7219 107.107 78.7425 107.092 78.75 107.088H78.748L79.0117 107.047L79.2754 107.007C79.3509 106.995 79.4451 106.996 79.5635 107.023L79.8564 107.092L80.1504 107.159C80.5551 107.252 80.9571 107.164 81.2832 106.892L81.5078 106.705L81.7324 106.518C81.8423 106.426 81.9507 106.355 82.0566 106.303L82.2979 106.185L82.5391 106.065C82.5566 106.057 82.5864 106.046 82.6533 106.056L83.2412 106.144C83.5489 106.19 83.8604 106.162 84.1562 106.042L84.4043 105.941L84.6523 105.84C84.75 105.8 84.8555 105.775 84.9707 105.765L85.5215 105.716C85.8648 105.685 86.1719 105.546 86.4238 105.318L86.6367 105.126L86.8496 104.935C86.8648 104.921 86.8746 104.916 86.8779 104.915C86.8812 104.914 86.8893 104.911 86.9053 104.91L87.1865 104.896L87.4688 104.881C87.8375 104.862 88.1657 104.712 88.4229 104.453L88.626 104.248L88.8301 104.043C88.9108 103.962 88.9898 103.908 89.0664 103.873L89.3076 103.763L89.5498 103.652C89.7759 103.549 89.9838 103.412 90.1719 103.247L90.3789 103.064L90.5869 102.882C90.6549 102.822 90.7246 102.784 90.7988 102.76L91.0537 102.678L91.3076 102.595C91.4424 102.551 91.5863 102.517 91.7383 102.491L92.0156 102.444L92.293 102.398C92.5848 102.35 92.8572 102.237 93.0957 102.058L93.3105 101.896L93.5254 101.734C93.5698 101.701 93.6263 101.674 93.709 101.661L93.9932 101.616L94.2764 101.57C94.5423 101.528 94.7962 101.444 95.0303 101.312L95.2646 101.181L95.499 101.05C95.7633 100.902 95.9765 100.693 96.1406 100.443L96.4629 99.9531C96.5363 99.8415 96.6144 99.7551 96.6934 99.6885L97.1016 99.3447C97.1264 99.3238 97.1679 99.2989 97.251 99.2861L97.5469 99.2402L97.8418 99.1953C98.1306 99.1509 98.4047 99.0509 98.6494 98.8857L98.873 98.7354L99.0957 98.585C99.3143 98.4373 99.5027 98.2541 99.6592 98.041L99.9893 97.5918C100.044 97.5169 100.106 97.4621 100.176 97.4209L100.408 97.2832L100.642 97.1455C100.903 96.9914 101.112 96.7789 101.268 96.5215L101.413 96.2793L101.559 96.0381C101.571 96.0176 101.581 96.0069 101.612 95.9951L101.881 95.8955L102.149 95.7949C102.504 95.6623 102.776 95.4089 102.936 95.0664L103.058 94.8057L103.179 94.5439C103.248 94.396 103.322 94.2593 103.401 94.1338L103.692 93.6748C103.693 93.6738 103.694 93.6723 103.694 93.6719L103.696 93.6709C103.699 93.6686 103.713 93.6592 103.743 93.6494L104.321 93.4639C104.62 93.368 104.892 93.2052 105.105 92.9609L105.281 92.7588L105.457 92.5576C105.612 92.3797 105.745 92.1837 105.855 91.9727L105.982 91.7295L106.109 91.4854C106.15 91.4067 106.203 91.3429 106.269 91.2891L106.688 90.9434C106.963 90.7175 107.132 90.417 107.204 90.082L107.267 89.7939L107.328 89.5059C107.329 89.5002 107.33 89.4951 107.331 89.4922L107.562 89.333L107.795 89.1729C108.096 88.9652 108.297 88.6686 108.381 88.3145L108.446 88.0381L108.512 87.7607C108.519 87.7294 108.528 87.718 108.548 87.7021L108.768 87.5264L108.987 87.3516C109.278 87.1196 109.456 86.8023 109.509 86.4385L109.55 86.1553L109.583 85.9238L109.822 85.7832L110.089 85.626C110.356 85.4681 110.585 85.2539 110.744 84.9766L110.878 84.7432L111.012 84.5107C111.153 84.2635 111.236 83.9933 111.264 83.7109L111.291 83.4277L111.319 83.1455C111.334 82.9987 111.36 82.8622 111.396 82.7363L111.472 82.4805L111.547 82.2236C111.58 82.1112 111.626 82.0041 111.688 81.9014L111.963 81.4385C112.079 81.244 112.175 81.0399 112.25 80.8271L112.426 80.3252C112.456 80.2393 112.504 80.1499 112.578 80.0576L112.938 79.6084C112.996 79.5347 113.042 79.4566 113.081 79.3779C113.279 79.3893 113.476 79.3733 113.671 79.3291L113.937 79.2695L114.201 79.209C114.312 79.1838 114.428 79.1743 114.549 79.1807L115.104 79.21C115.494 79.2307 115.846 79.09 116.12 78.8281L116.331 78.627L116.541 78.4258C116.649 78.3229 116.752 78.2441 116.849 78.1855L117.067 78.0527L117.287 77.9199C117.399 77.8521 117.521 77.7917 117.651 77.7393L117.899 77.6396L118.146 77.54C118.274 77.4888 118.394 77.4246 118.507 77.3496L118.528 77.4434ZM74.4854 15.6973C74.7392 15.6765 74.9715 15.7441 75.166 15.8564L75.4326 16.0098L75.6855 16.1572L75.9141 16.0791L76.1807 15.9883C76.4394 15.9 76.7083 15.8595 76.9814 15.874L77.248 15.8887L77.5156 15.9023C77.6993 15.9122 77.8836 15.9247 78.0674 15.9395L78.335 15.9609L78.6016 15.9824C78.7029 15.9905 78.8075 15.9829 78.917 15.957L79.1865 15.8936L79.4551 15.8301C79.8334 15.7408 80.1992 15.8157 80.5146 16.0059L80.7744 16.1621L81 16.2988L81.2285 16.2139L81.5029 16.1123C81.7705 16.0134 82.0515 15.9677 82.3379 15.9863L82.6045 16.0029L82.8721 16.0205C83.1212 16.0367 83.3648 16.09 83.5996 16.1777L83.8574 16.2734L84.1143 16.3701C84.1797 16.3944 84.2452 16.4028 84.3184 16.3945L84.8691 16.332C85.193 16.2955 85.5088 16.354 85.7979 16.5029L86.0459 16.6309L86.2949 16.7588C86.3854 16.8053 86.4729 16.8315 86.5596 16.8408L86.8262 16.8691L87.0918 16.8975C87.2474 16.9141 87.407 16.9242 87.5684 16.9268L87.8418 16.9307L88.1162 16.9355C88.3616 16.9395 88.6034 16.9759 88.8379 17.0449L89.0957 17.1201L89.3535 17.1963C89.5167 17.2443 89.6811 17.2892 89.8457 17.3311L90.1064 17.3975L90.3662 17.4639C90.6083 17.5255 90.8388 17.6217 91.0537 17.751L91.2891 17.8936L91.5244 18.0352C91.6369 18.1028 91.7522 18.1549 91.8691 18.1934L92.123 18.2773L92.377 18.3604C92.5196 18.4072 92.6672 18.4465 92.8184 18.4775L93.085 18.5322L93.3506 18.5869C93.5785 18.6338 93.7994 18.7056 94.0107 18.8008L94.2559 18.9111L94.501 19.0205C94.6869 19.1043 94.8686 19.1987 95.0449 19.3018L95.5098 19.5732C95.6346 19.6462 95.7647 19.7098 95.8984 19.7637L96.3965 19.9648C96.6148 20.0528 96.8208 20.1658 97.0127 20.3027L97.2324 20.46L97.4521 20.6162C97.5388 20.678 97.6342 20.7265 97.7393 20.7607L97.999 20.8457L98.2598 20.9297C98.5158 21.0133 98.7507 21.1417 98.959 21.3125L99.1689 21.4844L99.3779 21.6562C99.4891 21.7474 99.6061 21.829 99.7275 21.9004L99.959 22.0361L100.189 22.1719C100.367 22.276 100.538 22.391 100.702 22.5146L100.916 22.6758L101.131 22.8369C101.243 22.9212 101.362 22.9968 101.488 23.0635L101.967 23.3174C102.282 23.4849 102.506 23.7477 102.646 24.0576L102.77 24.334L102.895 24.6113C102.924 24.6767 102.948 24.6899 102.956 24.6943L103.188 24.8281L103.422 24.9609C103.571 25.0458 103.723 25.1291 103.877 25.2109L104.117 25.3389L104.358 25.4668C104.585 25.5873 104.789 25.741 104.966 25.9268L105.335 26.3154C105.48 26.4684 105.615 26.6322 105.739 26.8047L105.897 27.0244L106.055 27.2441C106.056 27.2456 106.057 27.247 106.061 27.249C106.066 27.2525 106.083 27.2623 106.117 27.2715L106.416 27.3516L106.715 27.4307C106.916 27.4845 107.116 27.5858 107.28 27.7529C107.404 27.8786 107.49 28.0237 107.547 28.1738L107.594 28.3252L107.667 28.624L107.741 28.9219C107.762 29.0073 107.79 29.0392 107.805 29.0527L108 29.2354L108.194 29.417C108.323 29.5367 108.453 29.6569 108.583 29.7764L108.781 29.958L108.979 30.1396C109.079 30.2317 109.192 30.3184 109.318 30.3994L109.557 30.5527L109.794 30.7051C110.044 30.866 110.251 31.0786 110.399 31.3389L110.669 31.8096C110.792 32.0249 110.884 32.2567 110.946 32.5L111.017 32.7773L111.088 33.0547C111.09 33.0625 111.092 33.0675 111.093 33.0693V33.0713L111.095 33.0732C111.097 33.075 111.101 33.0786 111.107 33.083L111.345 33.2441L111.582 33.4062C111.872 33.6045 112.081 33.8844 112.18 34.2275L112.256 34.4961L112.333 34.7637C112.365 34.8767 112.411 34.9754 112.468 35.0615L112.613 35.2842L112.76 35.5068C112.868 35.6714 112.969 35.8408 113.063 36.0137L113.19 36.248L113.318 36.4824C113.425 36.6789 113.513 36.8853 113.581 37.0996L113.662 37.3564L113.744 37.6143C113.8 37.792 113.854 37.9708 113.905 38.1494L113.979 38.4082L114.053 38.666C114.093 38.8053 114.141 38.9397 114.199 39.0674L114.309 39.3076L114.417 39.5479C114.479 39.6845 114.55 39.8188 114.627 39.9502L114.762 40.1797L114.897 40.4092C114.985 40.5576 115.074 40.707 115.166 40.8555L115.309 41.085L115.45 41.3145C115.537 41.454 115.629 41.594 115.728 41.7324L116.05 42.1836C116.193 42.3856 116.308 42.604 116.391 42.8359L116.481 43.0889L116.571 43.3418C116.688 43.6677 116.683 44.0031 116.598 44.3203L116.517 44.6221L116.456 44.8457L116.598 45L116.802 45.2207C116.988 45.4221 117.139 45.6487 117.244 45.8994L117.349 46.1494L117.454 46.3994C117.548 46.6243 117.612 46.8591 117.644 47.1006L117.714 47.6357C117.735 47.8003 117.761 47.9639 117.792 48.126L117.892 48.6533C117.94 48.9072 117.944 49.1649 117.909 49.4219L117.872 49.6982L117.834 49.9746C117.825 50.0391 117.829 50.0974 117.838 50.1533C117.862 50.1996 117.887 50.2469 117.916 50.2939L118.216 50.7832C118.375 51.0421 118.469 51.3309 118.482 51.6387L118.494 51.9053L118.505 52.1777C118.512 52.3375 118.524 52.4983 118.544 52.6553L118.577 52.916L118.616 53.1826C118.643 53.3903 118.651 53.6007 118.649 53.8105V54.3496C118.649 54.4879 118.66 54.6248 118.683 54.7607L118.771 55.2939C118.811 55.5312 118.817 55.7711 118.794 56.0107L118.766 56.2773L118.744 56.5498C118.721 56.7825 118.668 57.0131 118.594 57.2383L118.505 57.5049L118.422 57.7715C118.387 57.8784 118.371 57.9786 118.372 58.0723V58.085L118.386 58.1172C118.493 58.3678 118.555 58.6311 118.563 58.9033L118.821 59.2666C118.93 59.4194 119.036 59.6326 119.05 59.8887C119.065 60.1691 118.964 60.4185 118.8 60.6055L118.633 60.7939L118.466 60.9775C118.182 61.2994 117.793 61.4191 117.399 61.3604L117.133 61.3223L116.866 61.2773C116.606 61.238 116.358 61.154 116.127 61.0273L115.889 60.8994L115.649 60.7666C115.417 60.639 115.209 60.4758 115.032 60.2773L114.844 60.0605L114.711 59.9111L114.532 59.9326L114.261 59.9609C114.138 59.9742 114.033 60.0029 113.943 60.0381L113.711 60.1328L113.478 60.2217C113.169 60.344 112.821 60.3602 112.488 60.2109L112.288 60.1221L112.083 60.0273C111.819 59.9082 111.608 59.7182 111.438 59.5049L111.255 59.2773L111.077 59.0498C110.943 58.88 110.825 58.7095 110.738 58.5439L110.649 58.377L110.561 58.2051C110.566 58.2153 110.564 58.2106 110.544 58.1885C110.522 58.1648 110.482 58.1313 110.427 58.0889L109.961 57.7217L109.705 57.7666L109.422 57.8105C109.103 57.8604 108.786 57.8197 108.488 57.6826L108.238 57.5723L107.994 57.4551C107.855 57.3907 107.713 57.3338 107.571 57.2881L107.316 57.2109L107.066 57.127C106.876 57.0654 106.684 56.9955 106.499 56.916L106.011 56.7051C105.922 56.6668 105.827 56.6443 105.732 56.6387L105.466 56.6221L105.205 56.6055C104.864 56.5853 104.551 56.4565 104.3 56.2275L104.104 56.0439L103.905 55.8662C103.862 55.8268 103.811 55.7946 103.744 55.7773L103.478 55.7109L103.205 55.6445C102.966 55.5838 102.74 55.4891 102.527 55.3662L102.061 55.0996C101.788 54.9417 101.572 54.7166 101.422 54.4443L101.288 54.1943L101.16 53.9668L100.571 53.8105C100.368 53.7558 100.168 53.6494 100.005 53.4775C99.8417 53.3054 99.745 53.0977 99.6992 52.8945L99.6328 52.5938L99.5664 52.2881C99.5648 52.2813 99.5619 52.2757 99.5605 52.2715L99.5381 52.2607V52.5938C99.5385 52.761 99.5438 52.9315 99.5547 53.0996L99.5771 53.377L99.5879 53.6055L99.8379 53.7998L100.083 53.9941C100.351 54.2028 100.564 54.487 100.649 54.8438L100.771 55.3555C100.806 55.4991 100.853 55.643 100.905 55.7832L100.999 56.0332L101.088 56.2881C101.123 56.3824 101.177 56.468 101.238 56.5439L101.571 56.9551C101.654 57.0565 101.745 57.1507 101.844 57.2334L102.044 57.3994L102.249 57.5664C102.323 57.6285 102.402 57.6783 102.488 57.7109L102.732 57.7998L102.972 57.8945C103.166 57.9677 103.548 58.1425 103.683 58.5605L103.728 58.6885L103.766 58.8223C103.801 58.9333 103.848 59.1515 103.738 59.3887C103.621 59.6432 103.402 59.7561 103.261 59.7998C103.034 59.8696 102.806 59.8248 102.711 59.8057L102.438 59.75L102.16 59.6943C102.149 59.6921 102.141 59.6938 102.139 59.6943C102.135 59.695 102.123 59.7005 102.104 59.7109L101.844 59.8496L101.588 59.9941C101.275 60.1661 100.921 60.2239 100.561 60.1445L100.288 60.0889L100.021 60.0273C99.9315 60.0075 99.8373 60.0055 99.7441 60.0215L99.4717 60.0664L99.1934 60.1162C98.8963 60.1671 98.5972 60.1451 98.3105 60.0498L98.0498 59.9609L97.7881 59.877C97.5633 59.8022 97.3484 59.6997 97.1436 59.5771L96.6553 59.2881C96.6189 59.2667 96.5893 59.2586 96.5498 59.2607L96.2656 59.2773L95.9883 59.2998C95.7022 59.3187 95.4178 59.2765 95.1494 59.1719L94.8994 59.0771L94.6494 58.9775C94.3959 58.8787 94.1669 58.7336 93.9658 58.5498L93.7549 58.3555L93.5381 58.1611C93.5329 58.1564 93.5327 58.1498 93.5322 58.1494V58.1553H92.9434C92.6666 58.156 92.3955 58.109 92.1387 58.0049L91.8887 57.8994L91.6387 57.7998C91.4416 57.7196 91.2499 57.6247 91.0664 57.5166L90.833 57.3828L90.6045 57.2441C90.4038 57.1258 90.2141 56.9877 90.0439 56.8271L89.8496 56.6387L89.6494 56.4492C89.6186 56.4204 89.5757 56.3979 89.5049 56.3828L88.9385 56.2607C88.5572 56.1794 88.2445 55.9541 88.0439 55.6162L87.8936 55.3721L87.749 55.1221C87.6766 55.0001 87.5976 54.8961 87.5156 54.8105L87.333 54.6221L87.1494 54.4277C87.1216 54.3987 87.0719 54.3624 86.9775 54.333L86.6885 54.2441L86.3936 54.1553C86.1836 54.0898 85.9834 53.9652 85.8271 53.7715C85.673 53.5802 85.5981 53.3628 85.5713 53.1553L85.5273 52.833L85.499 52.627L85.3213 52.5664L85.0215 52.4609C84.6089 52.3177 84.2946 52.0031 84.1992 51.5439L84.1387 51.2549L84.083 50.9717C84.0512 50.8184 84.0045 50.6799 83.9551 50.5557L83.8545 50.3057L83.7549 50.0605C83.7476 50.0548 83.7342 50.045 83.7109 50.0332L83.4268 49.8887L83.3379 49.8438C83.3475 49.9596 83.35 50.0769 83.3438 50.1943L83.333 50.4717L83.3164 50.75C83.3149 50.7842 83.3174 50.8111 83.3379 50.8438L83.4883 51.0771L83.6387 51.3164C83.7582 51.5061 83.8606 51.7021 83.9434 51.9053L84.0439 52.1494L84.1436 52.3994C84.2493 52.6599 84.2954 52.9371 84.2881 53.2168L84.2822 53.5L84.2715 53.7832C84.2712 53.8032 84.2766 53.8141 84.2773 53.8164C84.2784 53.819 84.2821 53.8252 84.2881 53.833L84.6221 54.2666C84.7426 54.4241 84.8564 54.5848 84.9609 54.7441L85.0996 54.9609L85.2441 55.1777C85.3265 55.3032 85.4123 55.419 85.499 55.5273L85.6553 55.7217L85.8047 55.9111C85.8578 55.9774 85.939 56.0969 85.9824 56.2549C86.0325 56.4377 86.0328 56.6927 85.8662 56.9219C85.7227 57.1183 85.5285 57.1976 85.4268 57.2275C85.3158 57.2601 85.2083 57.2689 85.127 57.2715L84.8271 57.2773L84.5273 57.2881C84.3098 57.295 84.0807 57.249 83.8721 57.1221C83.6656 56.9958 83.5181 56.8168 83.4219 56.6328L83.2773 56.3496L83.127 56.0664C83.0741 55.9652 83.0296 55.9285 83.0107 55.916L82.7939 55.7773L82.5713 55.6387C82.5033 55.5956 82.4164 55.5535 82.2998 55.5273L81.7324 55.4053C81.4141 55.3345 81.1268 55.1747 80.8994 54.9277L80.7158 54.7334L80.5322 54.5332C80.3988 54.3881 80.2703 54.2377 80.1494 54.083L79.9883 53.8721L79.8213 53.6611C79.7136 53.5233 79.6067 53.3857 79.499 53.25L79.333 53.0439L79.166 52.833C79.1195 52.7751 79.0571 52.7168 78.9658 52.666L78.4658 52.3887C78.1632 52.2204 77.9267 51.9657 77.7939 51.6387L77.6934 51.3828L77.5879 51.127C77.58 51.1081 77.5659 51.088 77.5215 51.0605L77.2715 50.9053L77.0156 50.75C76.7246 50.571 76.5004 50.3132 76.377 49.9834L76.2822 49.7217L76.1826 49.4668C76.1227 49.3062 76.0605 49.1474 75.9941 48.9941L75.8887 48.75L75.8213 48.5996C75.7239 48.8078 75.5763 48.9901 75.3662 49.1221L75.1045 49.2832L74.8545 49.4385L74.8105 49.6992L74.7607 49.9883C74.7083 50.2802 74.5961 50.5545 74.416 50.7939L74.249 51.0107L74.0879 51.2275C73.9538 51.4056 73.8023 51.57 73.6387 51.7217L73.4385 51.9053L73.2441 52.0938C73.03 52.2922 72.7752 52.4324 72.499 52.5215L71.9434 52.6992C71.8578 52.7268 71.7884 52.7494 71.749 52.7607C71.7452 52.7621 71.7094 52.776 71.6719 52.7832C71.6635 52.7848 71.6253 52.7912 71.5771 52.7939C71.5589 52.795 71.4924 52.798 71.4102 52.7832C71.3694 52.7757 71.2838 52.753 71.1885 52.6992C71.0873 52.6418 70.9313 52.5205 70.8604 52.2998C70.7906 52.0799 70.843 51.8891 70.8887 51.7881C70.9321 51.6926 70.9879 51.6296 71.0156 51.5996C71.0683 51.543 71.1201 51.5067 71.1387 51.4941C71.1775 51.4682 71.2133 51.4485 71.2217 51.4443C71.2692 51.4208 71.3309 51.4002 71.333 51.3994L71.3721 51.3828L71.4326 51.1885L71.5156 50.9277C71.5558 50.7997 71.5817 50.6685 71.5938 50.5381L71.6221 50.2666L71.6436 49.9941C71.6504 49.9179 71.6417 49.837 71.6104 49.7441L71.5215 49.4717L71.4268 49.1943C71.3087 48.8427 71.3268 48.4766 71.4775 48.1387L71.5996 47.877L71.6885 47.6611L71.5771 47.4443L71.4385 47.1826C71.231 46.7923 71.2388 46.3682 71.4326 45.9883L71.7109 45.4326L71.627 45.2109L71.5273 44.9551C71.434 44.7079 71.3874 44.4463 71.3828 44.1826L71.377 43.916L71.3721 43.6445C71.3696 43.5091 71.3538 43.3756 71.3271 43.2441L71.2773 42.9775L71.2217 42.7158C71.2032 42.6258 71.1676 42.5327 71.1104 42.4385L70.9658 42.1992L70.8164 41.9551C70.6169 41.6255 70.5707 41.2572 70.6553 40.8945L70.7217 40.5996L70.7607 40.4053L70.6162 40.2666L70.3936 40.0557C70.1001 39.7738 69.9433 39.3946 69.9824 38.9717L70.0049 38.6826L70.0322 38.3945C70.0386 38.3254 70.0261 38.2847 70.0107 38.2549L69.7656 37.7773C69.7237 37.6959 69.6656 37.6145 69.583 37.5381L69.3721 37.3438L69.166 37.1494C68.9162 36.9182 68.7484 36.6231 68.6885 36.2832L68.6387 36.0107L68.5938 35.7383C68.5781 35.6503 68.545 35.581 68.5049 35.5215L68.3604 35.2998L68.2109 35.083C68.0838 34.8943 67.9738 34.6898 67.8828 34.4717L67.7715 34.1992L67.6719 33.9609L67.4326 33.8828L67.1602 33.7939C66.902 33.7088 66.6634 33.5829 66.4492 33.416L66.2275 33.2383L66.083 33.127L65.8604 33.2109L65.5664 33.3105C65.2284 33.4291 64.8631 33.4394 64.5107 33.2939L64.2549 33.1885L64.0547 33.1055L63.9053 33.1885L63.6826 33.3057C63.6155 33.3416 63.5449 33.3905 63.4775 33.4658L63.2998 33.6719L63.1221 33.8721C63.0568 33.9453 62.9982 34.0308 62.9551 34.1328L62.8496 34.3945L62.7383 34.6553C62.6188 34.9392 62.4334 35.1835 62.1885 35.3721L61.9658 35.5381L61.749 35.7051C61.6981 35.7443 61.666 35.7911 61.6436 35.8438L61.4326 36.3438C61.3445 36.5506 61.2346 36.7462 61.1104 36.9326L60.9609 37.1611L60.8105 37.3828C60.7704 37.4431 60.7438 37.5106 60.7324 37.5889L60.6553 38.1328C60.6192 38.3797 60.5483 38.6184 60.4434 38.8438L60.333 39.083L60.2158 39.3271C60.1988 39.3637 60.1924 39.4072 60.1992 39.4717L60.2275 39.7549L60.2607 40.0332C60.3106 40.4863 60.1161 40.8727 59.8164 41.1445L59.5771 41.3604L59.4609 41.4609L59.5107 41.583L59.6328 41.8721C59.7706 42.197 59.8103 42.5596 59.6885 42.9219L59.6045 43.1826L59.5156 43.4385C59.4798 43.5452 59.4594 43.6534 59.4551 43.7607L59.4434 44.0273L59.4326 44.2881C59.4256 44.465 59.423 44.6456 59.416 44.8223L59.4053 45.0889L59.3936 45.3496C59.385 45.5669 59.3559 45.7852 59.3105 46L59.1992 46.5332C59.1788 46.6301 59.1753 46.7273 59.1885 46.8223L59.2275 47.083L59.2607 47.3496C59.292 47.5752 59.3034 47.8061 59.2881 48.0332L59.2656 48.2998L59.249 48.5664C59.2382 48.7266 59.2315 48.8885 59.2324 49.0498L59.2383 49.3223V49.5889C59.2389 49.6907 59.254 49.7947 59.2881 49.8945L59.4658 50.4053C59.5582 50.6757 59.5888 50.9604 59.5605 51.2441L59.5049 51.7998C59.4948 51.9039 59.5046 52.0005 59.5273 52.0938L59.5938 52.3604L59.6553 52.6221C59.6564 52.6265 59.6643 52.6529 59.7217 52.6992L59.9609 52.8945L60.2051 53.0889C60.4721 53.3045 60.6759 53.5978 60.749 53.9609L60.7998 54.2217L60.8545 54.4775C60.8705 54.5571 60.8857 54.666 60.877 54.7832C60.8683 54.898 60.8283 55.0771 60.6934 55.2441C60.3712 55.6421 59.9101 55.5317 59.7881 55.4941L59.5771 55.4277L59.3662 55.3662C59.076 55.2765 58.8419 55.0977 58.6553 54.8887L58.4717 54.6826L58.2881 54.4834C58.2539 54.4451 58.2089 54.4091 58.1328 54.3828L57.5771 54.1943C57.1467 54.0472 56.8667 53.709 56.7656 53.2881L56.6221 52.6885C56.6035 52.6116 56.5834 52.5884 56.5771 52.583L56.3721 52.4111L56.166 52.2334C55.9685 52.0625 55.8032 51.8614 55.6768 51.6328L55.4219 51.166C55.3307 51.0012 55.2427 50.8345 55.1602 50.666L54.9268 50.1885C54.8612 50.0545 54.7853 49.9252 54.7051 49.7998L54.5664 49.5771L54.4219 49.3496C54.2988 49.1572 54.1941 48.9531 54.1162 48.7383L53.9385 48.2383C53.9086 48.1569 53.8625 48.0751 53.7939 47.9941L53.6104 47.7832L53.4326 47.5664C53.2706 47.3753 53.135 47.1652 53.0322 46.9385L52.9219 46.6943L52.8047 46.4443C52.6712 46.1481 52.6347 45.8318 52.6826 45.5166L52.7275 45.2275L52.7715 44.9443C52.7909 44.8173 52.791 44.7041 52.7773 44.6055L52.7441 44.3438L52.7051 44.0889C52.6919 43.9939 52.6634 43.8882 52.6104 43.7773L52.4883 43.5215L52.3994 43.3496L52.3721 43.5938L52.3379 43.8604C52.308 44.097 52.2491 44.3278 52.1602 44.5498L52.0605 44.8057L51.9609 45.0557C51.9464 45.0923 51.9391 45.1301 51.9492 45.1885L51.999 45.4717L52.0498 45.75C52.1327 46.2172 51.9392 46.6168 51.6436 46.8994L51.3994 47.1328L51.2324 47.2881L51.2773 47.4326L51.3662 47.7109C51.4315 47.9185 51.4843 48.1285 51.5273 48.333L51.583 48.6055L51.6387 48.8721C51.7237 49.2766 51.6158 49.6589 51.3936 49.9668L51.2109 50.2217L51.0771 50.3945L51.1553 50.5605L51.2773 50.833C51.3974 51.0971 51.4653 51.3783 51.4609 51.6719V51.9385L51.4551 52.1992C51.4527 52.3598 51.4573 52.5232 51.4658 52.6826L51.4775 52.9443L51.4941 53.2109C51.5066 53.4479 51.4853 53.6865 51.4385 53.9219L51.3828 54.1885L51.333 54.4609C51.3009 54.6224 51.2745 54.7882 51.2549 54.9551L51.1885 55.5107C51.177 55.6084 51.1867 55.7025 51.2109 55.7939L51.2773 56.0605L51.3496 56.3271C51.3539 56.3435 51.3634 56.3686 51.4102 56.4053L51.6436 56.5889L51.8828 56.7773C51.9357 56.8188 52.0055 56.8753 52.0664 56.9443C52.0969 56.9789 52.1429 57.0358 52.1826 57.1104C52.2191 57.1791 52.2841 57.3265 52.2715 57.5166C52.2557 57.7422 52.138 57.9312 51.9824 58.0498C51.8515 58.1489 51.7149 58.1826 51.6494 58.1943C51.52 58.217 51.4023 58.2018 51.3438 58.1943L51.0938 58.1611L50.8496 58.1328C50.4111 58.0764 50.0991 57.8011 49.9268 57.4551L49.7998 57.1992L49.6719 56.9385C49.6433 56.882 49.6097 56.8512 49.5713 56.8271L49.3379 56.6777L49.1045 56.5332C48.8903 56.3997 48.6974 56.2396 48.5322 56.0498L48.3545 55.8438L48.1768 55.6445C48.0077 55.4502 47.8763 55.2265 47.7773 54.9883L47.6719 54.7383L47.5664 54.4834C47.5233 54.3802 47.4676 54.2876 47.3994 54.2051L47.2275 54L47.0547 53.7881C46.9105 53.6137 46.7835 53.4262 46.6768 53.2275L46.5498 52.9941L46.4219 52.7549C46.3318 52.5871 46.2464 52.4169 46.166 52.2441L46.0547 52L45.9385 51.7549C45.877 51.623 45.8074 51.493 45.7275 51.3662L45.5771 51.1328L45.4326 50.9053C45.371 50.8077 45.3336 50.6988 45.2939 50.5938L45.2607 50.7715L45.2051 51.0605C45.1399 51.4042 44.9698 51.7097 44.6934 51.9385L44.4824 52.1162L44.2656 52.2881C44.0801 52.4416 43.8785 52.5739 43.6602 52.6826L43.4053 52.8105L43.1934 52.9111L43.0771 53.4941C43.0081 53.8252 42.8486 54.1316 42.5771 54.3662L42.3721 54.5439L42.1719 54.7217C41.9623 54.9028 41.7173 55.0332 41.4551 55.1221L41.1885 55.2168L40.916 55.3057C40.7792 55.352 40.6593 55.4093 40.5547 55.4717L40.3271 55.6055L40.0996 55.7441C40.0567 55.7702 40.0093 55.8122 39.9609 55.8887L39.6494 56.3887C39.4922 56.6397 39.2843 56.8501 39.0273 57.0049L38.7939 57.1445L38.5664 57.2832C38.3475 57.4148 38.1098 57.509 37.8604 57.5664L37.5879 57.627L37.3213 57.6885C37.2647 57.7015 37.213 57.7297 37.1602 57.7773L36.7383 58.1553C36.5401 58.3338 36.3179 58.4773 36.0713 58.5771L35.5713 58.7773C35.2738 58.8975 34.9583 58.9235 34.6494 58.877L34.0605 58.7881H34.0273L33.7939 58.9443L33.5605 59.0938C33.2826 59.2765 32.9664 59.3636 32.6328 59.3496L32.3545 59.3389L32.083 59.3271C31.9755 59.3225 31.8739 59.3389 31.7822 59.3662L31.5273 59.4385L31.2715 59.5166C31.1164 59.5628 30.9584 59.614 30.7998 59.6719L30.5439 59.7666L30.2822 59.8604C30.0455 59.9467 29.8007 59.9972 29.5498 60.0107L29.2773 60.0273L29.0107 60.0381C28.8254 60.048 28.6354 60.0607 28.4492 60.0664L28.1826 60.0723L27.9102 60.083C27.6074 60.0922 27.3132 60.0212 27.0439 59.8887L26.7881 59.7666L26.5322 59.6387C26.4431 59.595 26.4006 59.5935 26.3936 59.5938L26.166 59.6055L25.9385 59.6104C25.8925 59.6122 25.8065 59.614 25.7158 59.5996C25.6821 59.5941 25.5557 59.5758 25.4268 59.4941C25.3545 59.448 25.2418 59.3578 25.166 59.2051C25.0833 59.0381 25.0784 58.8612 25.1162 58.7109C25.1775 58.4702 25.341 58.3369 25.3662 58.3164C25.4196 58.2733 25.4706 58.243 25.499 58.2275C25.5593 58.1949 25.6261 58.1692 25.6768 58.1494L25.9268 58.0557L26.1768 57.9551C26.3764 57.8774 26.5864 57.8117 26.8047 57.7607L27.0879 57.6943L27.3379 57.6328L27.4551 57.416L27.5879 57.166C27.7019 56.9502 27.8399 56.747 27.999 56.5664L28.1826 56.3604L28.3438 56.1719V56.166L28.3271 55.9551L28.0771 56.0381C28.0706 56.0437 28.0556 56.063 28.0322 56.0996L27.8604 56.377L27.6826 56.6494C27.5728 56.8234 27.4169 56.9902 27.1992 57.0996C26.9766 57.2112 26.7411 57.2408 26.5215 57.2109L26.2275 57.166L25.9326 57.127C25.7755 57.1054 25.6286 57.0999 25.4941 57.1055L25.2217 57.1162L24.9551 57.127C24.837 57.1319 24.7236 57.1544 24.6162 57.1885L24.3604 57.2666L24.1045 57.3496C24.0584 57.3647 23.9942 57.4015 23.9102 57.4834L23.6826 57.6992L23.4551 57.9219C23.3064 58.0664 23.118 58.188 22.8887 58.2441C22.6561 58.3005 22.4245 58.2769 22.2217 58.2109L21.6436 58.0215C21.5811 58.0012 21.557 58.0098 21.5547 58.0107L21.3047 58.1055L21.0498 58.1943C20.7712 58.2949 20.4806 58.3265 20.1885 58.2881L19.9102 58.25L19.6768 58.2168V58.2217L19.4385 58.4277L19.1934 58.6328C19.0343 58.7697 18.8328 58.8821 18.5938 58.9219C18.3536 58.9613 18.1249 58.9237 17.9268 58.8389L17.6436 58.7168L17.4434 58.627L17.3662 58.6885L17.166 58.8271C17.0675 58.8963 16.9623 58.9813 16.8604 59.083L16.6719 59.2773L16.4775 59.4668C16.2891 59.6549 16.049 59.8235 15.7549 59.8945L15.5605 59.9443L15.3662 59.9883C15.2048 60.0271 15.0264 60.0598 14.8379 60.083L14.583 60.1104L14.333 60.1445C13.9967 60.1859 13.6763 60.1078 13.3936 59.9609L13.127 59.8223L12.8994 59.7051L12.6328 59.833L12.3379 59.9717C12.1545 60.0593 12.0276 60.128 11.9492 60.1777L11.7822 60.2881L11.6162 60.3945C11.437 60.5083 11.2239 60.5993 11.0049 60.6719L10.7275 60.7607L10.4434 60.8555C10.3204 60.8962 10.1634 60.9364 9.99902 60.9385C9.9459 60.9391 9.87603 60.9342 9.79785 60.9189L9.71777 61.041C9.63207 61.1696 9.5478 61.2929 9.46777 61.4121L9.46973 61.375L9.47949 61.1074C9.48304 61.0049 9.4884 60.9022 9.49707 60.7998C9.43413 60.7588 9.37248 60.7065 9.31641 60.6387L9.17188 60.4609C9.02487 60.2823 8.98044 60.0807 8.96582 59.9551C8.95028 59.8207 8.95746 59.6857 8.97168 59.5664L9.00488 59.2998L9.03223 59.0332C9.04912 58.8912 9.05928 58.7471 9.05469 58.6055L9.04395 58.3389L9.03809 58.0723C9.03197 57.8837 9.02922 57.6941 9.03223 57.5049L9.03809 57.2334V56.9668C9.04221 56.7215 9.10305 56.4903 9.20508 56.2783L9.19629 56.1055L9.18066 55.8389C9.1677 55.6086 9.18037 55.3781 9.21777 55.1494L9.29688 54.6631C9.27887 54.4932 9.28981 54.3194 9.33301 54.1445L9.35156 54.0693L9.36621 53.6387C9.37539 53.3575 9.4451 53.0875 9.56445 52.834L9.67188 52.6045C9.6903 52.5078 9.69632 52.405 9.68262 52.2939L9.64355 52.0166L9.61035 51.7383C9.60331 51.6813 9.60062 51.6249 9.60059 51.5693C9.55317 51.3379 9.54842 51.1014 9.59473 50.8643L9.64551 50.6016L9.69727 50.3389C9.73536 50.1439 9.78136 49.9501 9.83594 49.7588L9.91016 49.501L9.9834 49.2422C9.99535 49.2001 10.0001 49.1455 9.98047 49.0654L9.91016 48.7812L9.84082 48.4971C9.76261 48.1797 9.77279 47.8525 9.89062 47.5381L9.98633 47.2842L10.0811 47.0293C10.1236 46.9157 10.1514 46.7997 10.1641 46.6807L10.1924 46.4121L10.2207 46.1426C10.2435 45.9283 10.2825 45.7168 10.3369 45.5088L10.4053 45.248L10.4727 44.9883C10.5164 44.8208 10.5582 44.652 10.5977 44.4834L10.6592 44.2207L10.7207 43.959C10.7738 43.7321 10.8526 43.5128 10.9551 43.3027L11.0742 43.0586L11.1934 42.8135C11.2783 42.6395 11.3678 42.4677 11.4619 42.2988L11.5938 42.0615L11.7266 41.8252C11.8237 41.6507 11.9279 41.4794 12.0391 41.3125L12.1904 41.0859L12.3408 40.8584C12.385 40.792 12.4136 40.7212 12.4268 40.6406L12.5146 40.0996C12.5479 39.8958 12.5919 39.6942 12.6455 39.4961L12.7158 39.2344L12.7871 38.9727C12.849 38.7439 12.9369 38.5244 13.0508 38.3174L13.1797 38.082L13.3096 37.8467C13.3719 37.7333 13.4226 37.6126 13.4619 37.4844L13.542 37.2227L13.6221 36.9619C13.7262 36.6221 13.9392 36.3512 14.2197 36.1553L14.4639 35.9844L14.708 35.8145C14.8299 35.7293 14.929 35.6409 15.0088 35.5518L15.1895 35.3496L15.3691 35.1484C15.3935 35.1211 15.4155 35.0849 15.4268 35.0186L15.4746 34.7334L15.5225 34.4492C15.5833 34.0898 15.7643 33.7773 16.0566 33.5498L16.2783 33.3779L16.499 33.2061C16.5812 33.1421 16.6414 33.0732 16.6855 33L16.8223 32.7715L16.96 32.5439C17.0213 32.4421 17.0735 32.3265 17.1152 32.1963L17.2021 31.9268L17.2881 31.6572C17.3991 31.3104 17.6228 31.0325 17.9346 30.8477L18.1797 30.7021L18.4258 30.5566C18.4572 30.5379 18.4689 30.5224 18.4795 30.4961L18.584 30.2354L18.6895 29.9746C18.7955 29.7118 18.9514 29.4778 19.1572 29.2812L19.5459 28.9102C19.6378 28.8224 19.7202 28.7243 19.793 28.6162L19.9443 28.3916L20.0957 28.166C20.2083 27.9989 20.3288 27.8369 20.4551 27.6807L20.625 27.4707L20.7949 27.2598C20.9965 27.0106 21.2566 26.8349 21.5518 26.7285L21.8271 26.6299L22.1016 26.5303C22.1221 26.5228 22.1298 26.5165 22.1309 26.5156C22.1317 26.515 22.1327 26.514 22.1338 26.5127C22.1351 26.5112 22.1383 26.5077 22.1416 26.502L22.2812 26.2588L22.4209 26.0146C22.5757 25.7448 22.7932 25.5254 23.0664 25.3711L23.3037 25.2363L23.541 25.1025C23.7156 25.0039 23.8946 24.912 24.0771 24.8271L24.3252 24.7119L24.5742 24.5957C24.6901 24.5418 24.7943 24.4772 24.8867 24.4033L25.0938 24.2383L25.3008 24.0723C25.3467 24.0356 25.3987 23.9764 25.4482 23.876L25.582 23.6045L25.7168 23.333C25.8534 23.056 26.0479 22.8142 26.3096 22.6357L26.7549 22.333C27.0232 22.15 27.3275 22.0588 27.6416 22.04L27.9473 22.0215L28.2529 22.0039C28.3711 21.9968 28.451 21.9711 28.5059 21.9424L28.7412 21.8184L28.9766 21.6953C29.1095 21.6256 29.2385 21.5482 29.3633 21.4639L29.584 21.3154L29.8047 21.166C30.0139 21.0247 30.2415 20.9181 30.4844 20.8477L31.0039 20.6973C31.0066 20.6951 31.0193 20.6844 31.0381 20.6562L31.209 20.3994L31.3789 20.1426C31.5621 19.8662 31.8149 19.642 32.1416 19.5186L32.6436 19.3291C32.7878 19.2746 32.9295 19.2127 33.0674 19.1436L33.3066 19.0225L33.5469 18.9023C33.8405 18.7551 34.1572 18.7079 34.4736 18.7393L34.7715 18.7686L35.0693 18.7988C35.1884 18.8106 35.28 18.8 35.3506 18.7793L35.6045 18.7041L35.8584 18.6299C35.9791 18.5944 36.0973 18.5462 36.2119 18.4844L36.6846 18.2285C36.8779 18.1242 37.0788 18.0375 37.2861 17.9688L37.5381 17.8848L37.79 17.8018C38.0154 17.7271 38.2484 17.6814 38.4863 17.665L39.0254 17.6279C39.0638 17.6252 39.105 17.6138 39.1582 17.5752L39.3896 17.4072L39.6221 17.2383C39.7924 17.1148 39.9676 16.9989 40.1465 16.8906L40.3896 16.7432L40.6328 16.5967C40.9392 16.4113 41.2844 16.3443 41.6377 16.4014L41.9189 16.4463L42.2002 16.4922C42.2851 16.5058 42.3548 16.4996 42.417 16.4805L42.6748 16.4014L42.9336 16.3213C43.21 16.2365 43.4954 16.2171 43.7803 16.2598L44.3291 16.3418C44.4892 16.3658 44.6467 16.3819 44.8008 16.3896L45.0693 16.4033L45.3369 16.417C45.4124 16.4207 45.4898 16.4091 45.5732 16.377L45.832 16.2764L46.0918 16.1768C46.3745 16.0679 46.6727 16.0314 46.9746 16.0742L47.2422 16.1123L47.5107 16.1504C47.549 16.1557 47.5941 16.153 47.6582 16.125L47.9238 16.0088L48.1895 15.8916C48.2972 15.8444 48.4379 15.7908 48.5859 15.7695C48.6748 15.7569 49.037 15.718 49.3027 16.0039L49.4844 16.0059L49.752 16.0088C49.9649 16.0111 50.178 16.0287 50.3896 16.0625L50.6562 16.1055L50.9229 16.1475C51.0774 16.1721 51.232 16.1892 51.3857 16.1982L51.9189 16.2295C52.0695 16.2384 52.2206 16.2388 52.3711 16.2305L52.9043 16.2012C53.1012 16.1903 53.2991 16.1881 53.4961 16.1934L54.0293 16.207C54.1709 16.2108 54.3137 16.2042 54.4561 16.1865L54.9893 16.1201C55.179 16.0965 55.3696 16.0781 55.5596 16.0645L55.8262 16.0449L56.0928 16.0264C56.2742 16.0133 56.4563 16.0013 56.6377 15.9912L57.1709 15.9619C57.4312 15.9476 57.6893 15.9784 57.9404 16.0508L58.208 16.1279L58.4746 16.2041C58.5157 16.2158 58.5502 16.2163 58.5947 16.2021L59.1279 16.0322C59.3836 15.951 59.6484 15.9152 59.916 15.9297L60.4492 15.959C60.6069 15.9675 60.7652 15.9694 60.9229 15.9648L61.1895 15.957L61.457 15.9492C61.5973 15.9451 61.7388 15.9297 61.8809 15.9033L62.1475 15.8535L62.4141 15.8047C62.6372 15.7633 62.8624 15.7436 63.0879 15.7471L63.6211 15.7549C63.8455 15.7584 64.0696 15.7842 64.291 15.8311L64.8242 15.9443C65.0382 15.9897 65.2515 16.0522 65.4609 16.1309L65.7275 16.2314L65.9736 16.3242L66.2314 16.1973L66.498 16.0674C66.8051 15.9175 67.1451 15.8635 67.4922 15.9375L68.0254 16.0508C68.1287 16.0727 68.2294 16.0779 68.3291 16.0664L68.5957 16.0352L68.8623 16.0049C69.083 15.9795 69.3051 15.974 69.5264 15.9893L70.0596 16.0264C70.184 16.0349 70.3096 16.0293 70.4355 16.0098L70.9688 15.9277C71.2029 15.8915 71.4393 15.8831 71.6748 15.9043L72.208 15.9531C72.4585 15.9758 72.7038 16.0358 72.9404 16.1299L73.207 16.2363L73.3721 16.3027L73.5869 16.1426L73.8535 15.9443L73.9893 15.8555C74.1322 15.7732 74.2985 15.7127 74.4854 15.6973ZM52.6992 41.4834L52.6885 41.5664L52.6934 41.5605C52.7083 41.5327 52.71 41.5159 52.7109 41.5107V41.5L52.6992 41.4551V41.4834Z" fill="#303A4B"/>
</g>
<defs>
<clipPath id="clip0_395_2708">
<rect width="128" height="128" fill="white"/>
</clipPath>
</defs>
</svg>
