<svg width="128" height="128" viewBox="0 0 128 128" fill="none" xmlns="http://www.w3.org/2000/svg">
<g clip-path="url(#clip0_395_2547)">
<path d="M71.9106 8.57275L72.1812 8.59424L72.4507 8.61572C72.7718 8.64152 73.0641 8.7597 73.3218 8.93701L73.5776 9.11279L73.8325 9.28857C73.8579 9.30606 73.8732 9.31164 73.8774 9.31299L74.4185 9.25244C74.6477 9.22674 74.8774 9.22461 75.105 9.24756L75.3696 9.27393L75.6343 9.30127C75.8447 9.32254 76.0538 9.35931 76.2603 9.41064L76.522 9.4751L76.7827 9.54053C76.9549 9.58336 77.1267 9.62534 77.2974 9.6665L77.8149 9.7915C78.0026 9.83678 78.1901 9.8879 78.3755 9.9458L78.6323 10.0259L78.8882 10.106C78.9072 10.1119 78.9428 10.1189 79.0151 10.0972L79.5913 9.92334C79.9224 9.82359 80.2726 9.82595 80.6079 9.96533L80.8589 10.0698L81.1089 10.1743C81.1671 10.1985 81.2305 10.209 81.3081 10.2026L81.8687 10.1558C82.2407 10.1248 82.5869 10.235 82.8755 10.4595L83.106 10.6392L83.3364 10.8179C83.4016 10.8685 83.4543 10.8874 83.4995 10.894L83.7651 10.9331L84.0317 10.9722C84.2368 11.0022 84.4392 11.0449 84.6382 11.0991L84.896 11.1685L85.1528 11.2388C85.2857 11.275 85.4238 11.3005 85.5659 11.3149L85.8364 11.3423L86.1069 11.3706C86.353 11.3956 86.592 11.4539 86.8208 11.5464L87.0698 11.6479L87.3188 11.7485C87.4897 11.8176 87.6602 11.8879 87.8286 11.9604L88.0737 12.0669L88.3188 12.1724C88.4787 12.2412 88.6397 12.309 88.8013 12.3755L89.0493 12.4771L89.2974 12.5796C89.4265 12.6327 89.56 12.6749 89.6968 12.7065L90.2202 12.8276C90.4009 12.8694 90.5819 12.9137 90.7622 12.9604L91.0239 13.0278L91.2856 13.0962C91.4989 13.1515 91.7068 13.2236 91.9067 13.314L92.1509 13.4243L92.394 13.5347C92.5706 13.6145 92.7452 13.7004 92.9165 13.7915L93.1538 13.9175L93.3901 14.0435C93.6325 14.1723 93.8432 14.346 94.0229 14.5542L94.2144 14.7759L94.4058 14.9966C94.4631 15.063 94.5134 15.0944 94.5571 15.1108L94.8062 15.2046L95.0552 15.2974C95.1566 15.3354 95.273 15.3625 95.4058 15.3745L95.6929 15.3999L95.98 15.4263C96.2573 15.4512 96.5241 15.5258 96.771 15.6558L97.0073 15.7798L97.2437 15.9048C97.4655 16.0216 97.6667 16.1708 97.8462 16.3481L98.0435 16.5435L98.2417 16.7388C98.3519 16.8477 98.4654 16.9458 98.5815 17.0337L98.7954 17.1958L99.0083 17.3569C99.1445 17.46 99.2825 17.5603 99.4214 17.6587L99.8569 17.9673C100.007 18.0734 100.155 18.182 100.301 18.2915L100.515 18.4507L100.728 18.6099C100.833 18.6885 100.947 18.7575 101.067 18.8159L101.308 18.9321L101.548 19.0493C101.753 19.1487 101.946 19.2686 102.125 19.4077L102.545 19.7339C102.711 19.8626 102.868 20.0028 103.016 20.1538L103.205 20.3452L103.392 20.5376C103.412 20.5577 103.442 20.5803 103.51 20.5952L103.796 20.6577L104.083 20.7212C104.322 20.7737 104.551 20.8504 104.768 20.9526L105.016 21.0688L105.264 21.186C105.52 21.3067 105.742 21.4767 105.926 21.6919L106.103 21.8989L106.281 22.106C106.382 22.2246 106.488 22.3364 106.598 22.4399L106.987 22.8052C107.102 22.9135 107.222 23.0177 107.347 23.1167L107.557 23.2827L107.768 23.4497C107.92 23.5702 108.067 23.6954 108.21 23.8247L108.409 24.0034L108.606 24.1831C108.818 24.3748 108.98 24.6065 109.094 24.8667L109.327 25.394C109.335 25.4125 109.341 25.4192 109.342 25.4204C109.343 25.4215 109.347 25.4261 109.359 25.4321L109.611 25.5571L109.863 25.6812C110.118 25.8079 110.341 25.9832 110.521 26.2065L110.689 26.4165L110.858 26.6255C110.958 26.7496 111.062 26.8688 111.17 26.9829L111.354 27.1763L111.538 27.3687C111.677 27.515 111.808 27.669 111.932 27.8296L112.096 28.0415L112.26 28.2544C112.404 28.4409 112.524 28.6435 112.622 28.8599L112.734 29.1099L112.831 29.3247C112.833 29.3255 112.836 29.3267 112.838 29.3276L113.144 29.4282L113.451 29.5278C113.664 29.598 113.88 29.7282 114.037 29.9468C114.154 30.1098 114.213 30.2879 114.237 30.4595L114.249 30.6274L114.251 30.9585L114.254 31.2886C114.255 31.3412 114.261 31.3727 114.266 31.3882C114.268 31.3955 114.27 31.4001 114.271 31.4019L114.272 31.4038L114.434 31.6147L114.595 31.8257C114.663 31.9148 114.747 31.9986 114.847 32.0767L115.289 32.4185C115.451 32.5443 115.608 32.6766 115.758 32.8149L115.963 33.0034L116.167 33.1909C116.352 33.3599 116.51 33.5506 116.638 33.7632L116.916 34.2222C117.005 34.3708 117.097 34.5189 117.191 34.6665L117.334 34.894L117.479 35.1216C117.669 35.4209 117.733 35.7568 117.711 36.0903L117.691 36.4038L117.67 36.7183C117.67 36.7303 117.67 36.7395 117.67 36.7456L117.836 36.9419L118.013 37.1499C118.193 37.3613 118.326 37.602 118.407 37.8677L118.485 38.1245L118.564 38.3813C118.593 38.4761 118.636 38.5648 118.697 38.6489L118.857 38.8696L119.016 39.0894C119.167 39.2986 119.282 39.5283 119.358 39.7749L119.436 40.0298L119.514 40.2856C119.531 40.3392 119.562 40.3984 119.625 40.4644L119.829 40.6743L120.031 40.8833C120.361 41.2245 120.437 41.6649 120.325 42.0825L120.242 42.394L120.179 42.6235L120.313 42.7603L120.522 42.9731C120.762 43.2179 120.921 43.5252 120.958 43.8813L120.986 44.1509L121.013 44.4214C121.03 44.5811 121.053 44.7383 121.083 44.8921L121.132 45.1538L121.183 45.4155C121.196 45.4818 121.225 45.5551 121.283 45.6372L121.45 45.8735L121.618 46.1099C121.831 46.4106 121.922 46.7638 121.872 47.1343L121.833 47.4146L121.794 47.6948C121.776 47.8275 121.775 47.9519 121.788 48.0679L121.817 48.3325L121.845 48.5981C121.872 48.8463 121.861 49.0952 121.816 49.3423L121.766 49.6157L121.717 49.8755C121.719 49.8783 121.721 49.8819 121.724 49.8862L121.893 50.1362L122.062 50.3872C122.241 50.6523 122.351 50.9558 122.359 51.2876L122.371 51.8228C122.376 52.0578 122.354 52.2923 122.304 52.5239L122.247 52.7935L122.189 53.062C122.155 53.2227 122.127 53.3821 122.107 53.5396L122.073 53.8052L122.038 54.0708C122.021 54.1958 122.019 54.3215 122.031 54.4468L122.055 54.7134L122.081 54.98C122.093 55.1153 122.118 55.253 122.156 55.3921L122.228 55.6587L122.301 55.9253C122.359 56.1371 122.4 56.3509 122.424 56.5659L122.454 56.8325L122.484 57.0991C122.504 57.2776 122.524 57.4568 122.543 57.6353L122.573 57.9019L122.601 58.1685C122.64 58.5287 122.543 58.8631 122.365 59.1519L122.284 59.2817C122.291 59.3564 122.295 59.4332 122.287 59.5122C122.277 59.6047 122.252 59.6907 122.223 59.772L122.368 60.0034C122.554 60.303 122.65 60.6542 122.586 61.0298L122.542 61.2964L122.497 61.564C122.474 61.6977 122.464 61.8305 122.467 61.9624L122.479 62.4956C122.484 62.7282 122.462 62.9606 122.415 63.1899L122.36 63.4565L122.304 63.7231C122.285 63.8155 122.283 63.9052 122.298 63.9956L122.342 64.2632L122.386 64.5298C122.433 64.8144 122.416 65.0992 122.336 65.3755L122.259 65.6421L122.185 65.9009C122.181 65.939 122.173 65.9764 122.167 66.0142C122.166 66.0431 122.168 66.0714 122.174 66.1001L122.286 66.6333C122.353 66.9582 122.317 67.2806 122.194 67.5815L122.084 67.8481L122.006 68.0366L122.15 68.2583L122.324 68.5249C122.442 68.7075 122.525 68.9305 122.524 69.1831C122.522 69.4352 122.436 69.6567 122.317 69.8374L122.14 70.104L121.963 70.3716C121.938 70.4094 121.929 70.4347 121.925 70.4468C121.922 70.4572 121.922 70.4617 121.922 70.4624L121.959 70.9956C121.961 71.0222 121.973 71.0804 122.039 71.1753L122.406 71.7085C122.605 71.9971 122.724 72.3441 122.68 72.7261L122.62 73.2593C122.595 73.4745 122.554 73.6889 122.496 73.9009L122.421 74.1675L122.348 74.4341C122.295 74.6267 122.236 74.8195 122.169 75.0112L122.077 75.2778L121.985 75.5444C121.973 75.5787 121.973 75.6 121.983 75.6304L122.068 75.897L122.152 76.1636C122.234 76.4226 122.268 76.6903 122.25 76.9614L122.244 77.0327L122.269 77.1304C122.347 77.4387 122.324 77.747 122.217 78.0366L122.227 78.2017L122.244 78.4683C122.254 78.6354 122.268 78.8029 122.286 78.9702L122.342 79.5034C122.369 79.7566 122.355 80.0098 122.302 80.2593L122.246 80.5269L122.189 80.7935C122.16 80.9295 122.145 81.0645 122.141 81.1978L122.134 81.4644L122.126 81.731C122.121 81.9494 122.096 82.1671 122.053 82.3833L122 82.6499L121.97 82.8013C121.978 82.8901 121.988 82.9791 122 83.0679L122.01 83.1401L122.192 83.5669C122.338 83.9114 122.347 84.2807 122.212 84.6333L122.16 84.769C122.167 84.9473 122.172 85.126 122.172 85.3042V85.8374C122.172 86.0889 122.133 86.3376 122.058 86.5796L122.021 86.6978L122.013 86.8247L121.997 87.0913C121.99 87.1875 122 87.2869 122.029 87.3911L122.102 87.6577L122.174 87.9243C122.219 88.0882 122.27 88.2529 122.326 88.4175L122.417 88.6841L122.506 88.9507C122.59 89.1969 122.634 89.4509 122.635 89.7095L122.637 89.9761L122.638 90.2427C122.639 90.5078 122.592 90.7676 122.502 91.0181L122.311 91.5513C122.294 91.5984 122.295 91.631 122.304 91.6665L122.443 92.1997C122.523 92.5073 122.514 92.8202 122.42 93.1226L122.254 93.6558C122.23 93.734 122.227 93.8033 122.237 93.8706L122.278 94.1382L122.319 94.4048C122.351 94.6176 122.368 94.8314 122.368 95.0454L122.367 95.312V95.5786C122.367 95.7345 122.374 95.8912 122.388 96.0474L122.437 96.5806C122.45 96.7203 122.474 96.8617 122.51 97.0044L122.645 97.5376C122.713 97.8062 122.726 98.081 122.683 98.355L122.642 98.6216L122.6 98.8882C122.566 99.1095 122.51 99.3286 122.435 99.5444L122.343 99.811L122.25 100.078C122.216 100.178 122.203 100.269 122.206 100.355L122.214 100.622L122.223 100.889C122.23 101.087 122.229 101.284 122.218 101.482L122.204 101.749L122.19 102.015C122.188 102.057 122.196 102.115 122.236 102.196L122.368 102.463L122.5 102.73C122.688 103.11 122.685 103.524 122.494 103.901L122.358 104.167L122.241 104.398L122.341 104.622L122.46 104.888C122.57 105.134 122.639 105.393 122.659 105.66L122.698 106.193C122.714 106.418 122.708 106.643 122.68 106.868L122.646 107.134L122.613 107.401C122.576 107.692 122.472 107.964 122.321 108.213L122.159 108.48L122.156 108.484C122.169 108.63 122.161 108.78 122.125 108.931L122.064 109.198L122.001 109.464C121.997 109.483 121.993 109.503 121.989 109.522C121.999 109.554 122.013 109.59 122.036 109.63L122.185 109.897L122.335 110.164C122.525 110.501 122.579 110.89 122.446 111.277L122.262 111.81C122.21 111.963 122.167 112.115 122.133 112.266L122.075 112.533L122.015 112.799C122.003 112.853 122.005 112.906 122.024 112.968L122.106 113.235L122.189 113.501C122.263 113.74 122.304 113.984 122.309 114.231L122.314 114.498L122.32 114.764C122.322 114.878 122.34 114.995 122.375 115.116L122.451 115.382L122.528 115.649C122.592 115.87 122.633 116.094 122.652 116.321L122.695 116.854C122.726 117.234 122.599 117.576 122.397 117.859L122.044 118.351C122.03 118.429 122.009 118.505 121.981 118.582L121.991 118.733L122.008 119C122.017 119.141 122.038 119.284 122.069 119.427L122.126 119.694L122.184 119.961C122.237 120.207 122.255 120.455 122.234 120.705L122.211 120.971L122.19 121.238C122.173 121.438 122.147 121.639 122.111 121.838L122.063 122.095C122.107 122.256 122.137 122.419 122.149 122.585L122.168 122.852L122.187 123.119C122.198 123.275 122.217 123.433 122.243 123.59L122.329 124.124C122.383 124.458 122.325 124.782 122.183 125.078L122.175 125.092L122.217 125.315C122.245 125.464 122.283 125.614 122.331 125.765L122.499 126.298C122.563 126.502 122.577 126.726 122.516 126.952C122.457 127.173 122.337 127.354 122.2 127.496L121.985 127.718L121.77 127.94C121.482 128.238 121.077 128.404 120.623 128.303L120.356 128.245L120.089 128.185C120.01 128.168 119.934 128.168 119.856 128.184L119.323 128.295C119.045 128.353 118.764 128.351 118.488 128.29L117.955 128.17C117.856 128.148 117.76 128.144 117.666 128.156L117.399 128.189L117.132 128.223C116.837 128.26 116.546 128.223 116.269 128.124L115.736 127.932C115.719 127.926 115.71 127.925 115.708 127.925C115.704 127.925 115.696 127.927 115.68 127.932L115.414 128.026L115.147 128.121C114.864 128.221 114.567 128.252 114.267 128.206L113.734 128.122C113.553 128.093 113.371 128.064 113.19 128.033L112.923 127.988L112.657 127.942C112.451 127.907 112.246 127.859 112.042 127.799L111.776 127.721L111.6 127.668L111.571 127.692C111.396 127.825 111.172 127.932 110.905 127.944C110.635 127.956 110.398 127.867 110.209 127.74L110.197 127.731C110.189 127.732 110.182 127.733 110.174 127.734L109.641 127.783C109.393 127.805 109.145 127.791 108.901 127.741L108.633 127.686L108.594 127.677C108.579 127.679 108.564 127.682 108.549 127.684L108.283 127.713L108.016 127.742C107.911 127.753 107.806 127.752 107.702 127.747L107.615 127.769C107.429 127.815 107.242 127.859 107.056 127.898L106.79 127.954L106.523 128.01C106.329 128.051 106.135 128.085 105.941 128.112L105.674 128.149L105.408 128.185C105.102 128.227 104.801 128.187 104.517 128.076L103.984 127.867C103.915 127.84 103.862 127.835 103.815 127.842L103.282 127.922C103.154 127.941 103.022 127.975 102.887 128.024L102.621 128.121L102.354 128.218C102.074 128.32 101.78 128.357 101.482 128.317L100.949 128.245C100.768 128.22 100.587 128.195 100.406 128.168L100.139 128.129L99.8726 128.089C99.7166 128.066 99.5655 128.035 99.4243 127.995C99.0693 128.043 98.7389 127.936 98.4653 127.744L98.1987 127.556L97.9907 127.411L97.8237 127.484L97.5571 127.6C97.321 127.703 97.0759 127.772 96.8237 127.801L96.5571 127.833L96.2896 127.864C96.0784 127.889 95.8666 127.898 95.6548 127.892L95.3882 127.885L95.1206 127.878C94.8827 127.872 94.6471 127.835 94.4155 127.77L93.8823 127.622C93.7676 127.59 93.6574 127.575 93.5503 127.577L93.0171 127.584C92.8938 127.586 92.7679 127.602 92.6401 127.632L92.1069 127.761C91.8746 127.817 91.639 127.845 91.4019 127.843L90.8687 127.839C90.7024 127.838 90.5359 127.84 90.3696 127.847L89.8364 127.869C89.6009 127.878 89.3656 127.86 89.1333 127.813L88.6001 127.706C88.4572 127.677 88.3152 127.659 88.1743 127.653L87.9077 127.641L87.6411 127.628C87.5233 127.623 87.4039 127.632 87.2827 127.657L86.7495 127.766C86.4383 127.83 86.1278 127.802 85.8325 127.696L85.5659 127.6L85.2993 127.503C85.2925 127.501 85.2877 127.5 85.2856 127.5H85.2798C85.2773 127.5 85.2714 127.502 85.2632 127.505L84.9966 127.608L84.73 127.711C84.5101 127.796 84.2858 127.859 84.0581 127.897L83.5249 127.987C83.2233 128.037 82.9239 128.008 82.6382 127.908L82.3716 127.814L82.104 127.72C82.0138 127.689 81.934 127.679 81.8599 127.684L81.5933 127.705L81.3267 127.724C81.1819 127.735 81.0358 127.756 80.8892 127.788L80.6226 127.845L80.356 127.902C80.1324 127.95 79.9069 127.975 79.6802 127.977L79.4136 127.98L79.147 127.982C78.921 127.984 78.6956 127.963 78.4722 127.919L78.2056 127.869L77.939 127.817C77.7518 127.781 77.5643 127.74 77.3774 127.696L76.8442 127.571C76.8368 127.569 76.8325 127.569 76.8296 127.57C76.8253 127.57 76.8112 127.573 76.7866 127.584L76.2534 127.846C75.8692 128.034 75.4528 128.025 75.0776 127.829L74.811 127.69L74.5444 127.55C74.443 127.497 74.3597 127.476 74.2915 127.471L74.0249 127.453L73.7573 127.434C73.6361 127.426 73.5142 127.432 73.3911 127.453L73.1235 127.497L72.8569 127.542C72.7176 127.565 72.5757 127.6 72.4321 127.648L72.1655 127.737L71.8989 127.827C71.6604 127.906 71.4155 127.952 71.1665 127.961L70.8989 127.971L70.6323 127.981C70.4452 127.988 70.2579 127.991 70.0708 127.99L69.8042 127.989L69.5376 127.987C69.2976 127.986 69.0597 127.954 68.8257 127.892L68.2925 127.751C68.1216 127.706 67.9505 127.664 67.7798 127.625L67.2466 127.501C67.1339 127.475 67.0243 127.466 66.9165 127.472L66.6499 127.489L66.3833 127.504C66.1402 127.519 65.8978 127.5 65.6587 127.449L65.3911 127.392L65.1567 127.341C65.1527 127.344 65.1476 127.347 65.1421 127.351L64.8755 127.534L64.6079 127.716C64.3017 127.926 63.9279 128.036 63.5249 127.95L62.9917 127.836C62.8955 127.816 62.8026 127.813 62.7095 127.827L62.4429 127.865L62.1763 127.904C61.9614 127.935 61.7449 127.949 61.5288 127.946L61.2622 127.941L60.9956 127.937C60.7841 127.934 60.573 127.916 60.3628 127.882L60.0962 127.84L59.8296 127.797C59.7342 127.782 59.6393 127.785 59.5425 127.803L59.2749 127.855L59.0083 127.906C58.6844 127.968 58.3651 127.928 58.0669 127.804L57.8003 127.694L57.5337 127.583C57.4925 127.565 57.4731 127.568 57.4536 127.573L56.9204 127.711C56.6998 127.769 56.4763 127.806 56.2515 127.82L55.7183 127.853C55.3727 127.875 55.0525 127.777 54.772 127.607L54.5054 127.445L54.2388 127.284C54.2291 127.278 54.2214 127.273 54.2163 127.271L53.9663 127.33L53.6997 127.39C53.5521 127.424 53.4023 127.469 53.2515 127.524L52.7183 127.719C52.4808 127.806 52.2363 127.86 51.9868 127.876L51.4536 127.912C51.2477 127.925 51.0414 127.926 50.8354 127.915L50.3022 127.885C50.1393 127.876 49.9758 127.873 49.813 127.875L49.5464 127.876L49.2788 127.878C49.0194 127.88 48.7645 127.838 48.5171 127.756L48.2495 127.667L47.9829 127.58C47.9423 127.566 47.9129 127.566 47.8765 127.577L47.6099 127.657L47.3433 127.736C46.9843 127.843 46.6245 127.803 46.2983 127.646L46.0317 127.518L45.7847 127.399L45.5474 127.499L45.2808 127.61C44.9066 127.766 44.5136 127.746 44.1577 127.57L43.6245 127.306C43.5315 127.26 43.4581 127.245 43.3989 127.245L43.1313 127.241L42.8647 127.238C42.8632 127.238 42.8567 127.238 42.8442 127.243C42.8283 127.248 42.7986 127.262 42.7563 127.292L42.2231 127.677C41.9183 127.897 41.538 128.019 41.1235 127.929L40.856 127.872L40.5894 127.814C40.4289 127.779 40.2687 127.75 40.1089 127.728L39.8413 127.691L39.5747 127.653C39.4813 127.64 39.3873 127.644 39.2905 127.665L38.7573 127.78C38.5716 127.82 38.3856 127.858 38.1997 127.891L37.6665 127.987C37.3746 128.039 37.0827 128.02 36.8003 127.934L36.5337 127.853L36.2661 127.772C36.0906 127.719 35.9152 127.665 35.7397 127.614L35.4731 127.535L35.2407 127.466L34.9771 127.628L34.7104 127.791C34.4408 127.955 34.137 128.058 33.8081 128.058H33.5415L33.2749 128.059C33.076 128.059 32.8768 128.05 32.6782 128.033L32.4106 128.009L32.144 127.986C32.0001 127.973 31.8561 127.97 31.7124 127.978L31.1792 128.007C30.9545 128.02 30.7299 128.01 30.5063 127.978L30.2397 127.939L29.9722 127.901C29.7242 127.865 29.4832 127.793 29.2505 127.689L28.9839 127.57L28.7261 127.456L28.4751 127.559L28.2085 127.667C27.9006 127.793 27.5714 127.824 27.2417 127.746L26.9751 127.681L26.7085 127.618C26.6436 127.602 26.5823 127.603 26.5161 127.62L26.2495 127.687L25.9829 127.755C25.6661 127.836 25.3456 127.82 25.0396 127.713L24.7729 127.62L24.5063 127.527C24.3649 127.478 24.2258 127.442 24.0894 127.419L23.8228 127.375L23.561 127.33C23.5556 127.331 23.5397 127.337 23.5142 127.353L22.981 127.683C22.8043 127.792 22.5946 127.869 22.3599 127.875C22.1239 127.882 21.9085 127.816 21.7241 127.712L21.1909 127.412C21.1655 127.397 21.1516 127.394 21.1489 127.393L20.8843 127.448L20.6177 127.503C20.3895 127.551 20.1587 127.572 19.9272 127.568L19.6606 127.564L19.394 127.559C19.2946 127.557 19.1909 127.572 19.0815 127.605L18.8149 127.686L18.5483 127.768C18.172 127.883 17.7983 127.829 17.4692 127.651L17.2026 127.507L17.0112 127.404L16.8179 127.511L16.5513 127.659C16.2814 127.808 15.9831 127.896 15.6655 127.892L15.3989 127.889L15.1323 127.885C14.9381 127.883 14.7434 127.875 14.5493 127.859L14.2827 127.836L14.0161 127.815C13.8352 127.8 13.654 127.784 13.4731 127.767L12.9399 127.716C12.8356 127.706 12.7297 127.713 12.6216 127.736L12.0884 127.849C11.6974 127.932 11.3308 127.835 11.0229 127.637L10.7563 127.466L10.4888 127.294C10.4496 127.269 10.4159 127.248 10.3882 127.232C10.386 127.231 10.3835 127.229 10.3813 127.228C10.1321 127.217 9.96657 127.089 9.896 127.024C9.8182 126.952 9.76583 126.876 9.73486 126.827C9.67149 126.725 9.62033 126.608 9.58057 126.505L9.37549 125.972C9.24716 125.639 9.23865 125.287 9.35693 124.948L9.45068 124.681L9.54346 124.415C9.57876 124.313 9.59239 124.219 9.59033 124.132L9.58447 123.866L9.57764 123.599C9.57332 123.415 9.57217 123.231 9.57275 123.047L9.57373 122.78V122.513C9.57428 122.34 9.57422 122.166 9.57178 121.993L9.56396 121.459C9.56194 121.319 9.54883 121.176 9.5249 121.034L9.43506 120.5C9.40316 120.311 9.37659 120.119 9.35498 119.929L9.29443 119.396C9.26143 119.104 9.29859 118.817 9.39697 118.542L9.49268 118.276L9.56494 118.075L9.40967 117.839L9.23486 117.572C9.04416 117.28 8.93547 116.935 8.98291 116.56L9.01709 116.293L9.05029 116.027C9.06155 115.937 9.05685 115.846 9.03369 115.75L8.96924 115.484L8.90381 115.217C8.80395 114.806 8.91464 114.422 9.13037 114.111L9.31494 113.844L9.46338 113.63L9.39014 113.457L9.27979 113.19C9.15975 112.902 9.11329 112.593 9.15967 112.279L9.19971 112.012L9.23877 111.746C9.26465 111.57 9.28957 111.394 9.31396 111.218L9.38818 110.685C9.39359 110.645 9.39075 110.597 9.36182 110.529L9.24854 110.262L9.13428 109.995C8.96582 109.599 9.00485 109.188 9.2085 108.831L9.36084 108.564L9.51221 108.297C9.56626 108.202 9.58295 108.131 9.58545 108.081L9.59814 107.814L9.61182 107.547C9.61516 107.477 9.60428 107.398 9.56885 107.307L9.46436 107.041L9.36084 106.774C9.25379 106.499 9.2082 106.208 9.23779 105.912L9.26416 105.645L9.2915 105.378C9.30646 105.228 9.31246 105.077 9.31006 104.927L9.30615 104.661L9.30127 104.394C9.29991 104.315 9.2833 104.227 9.24072 104.126L9.01416 103.593C8.88678 103.292 8.84749 102.968 8.91455 102.64L9.02393 102.107C9.04559 102.001 9.04987 101.896 9.03857 101.793L8.97998 101.26C8.95705 101.051 8.94808 100.84 8.95361 100.63L8.96143 100.364L8.96826 100.097C8.97677 99.7803 9.07512 99.4849 9.23193 99.2202L9.54834 98.687C9.59384 98.61 9.59508 98.5681 9.59424 98.5513L9.58154 98.2847L9.56787 98.0181C9.56043 97.8712 9.54364 97.7229 9.51709 97.5747L9.42139 97.0415C9.38572 96.8424 9.35893 96.6419 9.34229 96.4419L9.31982 96.1743L9.29834 95.9077C9.27626 95.6405 9.3045 95.3753 9.37939 95.1177L9.45654 94.8501L9.53467 94.5835C9.56606 94.4752 9.57892 94.3714 9.57568 94.272L9.55811 93.7388C9.55401 93.6155 9.53571 93.4891 9.50244 93.3608L9.43311 93.0942L9.36475 92.8276C9.28927 92.5362 9.28676 92.2383 9.35889 91.9458L9.42432 91.6792L9.49072 91.4155C9.48943 91.411 9.48553 91.4001 9.47705 91.3843L9.19189 90.8511C8.97601 90.4472 8.99449 90.0046 9.22314 89.6196L9.38135 89.353L9.5083 89.1392L9.41943 88.9438L9.29736 88.6772C9.19927 88.462 9.12161 88.2415 9.06689 88.0181L9.00146 87.7515L8.93701 87.4849C8.87424 87.2281 8.85583 86.966 8.88525 86.7036L8.91553 86.436L8.94482 86.1694C8.97446 85.9068 9.05139 85.6529 9.16553 85.4116L9.41748 84.8784C9.47095 84.7652 9.49916 84.6626 9.50928 84.5708L9.56787 84.0376C9.57097 84.0079 9.56852 83.9642 9.53467 83.895L9.40381 83.6284L9.27393 83.3618C9.09912 83.0043 9.0825 82.6105 9.24072 82.2378L9.46729 81.7046C9.5111 81.6011 9.53009 81.5087 9.53271 81.4263L9.54053 81.1597L9.54932 80.8931C9.55124 80.8283 9.53919 80.7529 9.50049 80.6626L9.27197 80.1294C9.15065 79.8461 9.09939 79.5419 9.13721 79.23L9.17041 78.9634L9.20264 78.6968C9.20963 78.6379 9.20381 78.5732 9.17529 78.4956L9.07666 78.228L8.97803 77.9614C8.87601 77.6839 8.8791 77.4089 8.95752 77.1567L8.97803 77.1665C9.03637 77.1937 9.0763 77.2287 9.10986 77.2788L9.27002 77.519L9.43018 77.7583C9.60371 78.0184 9.83521 78.2252 10.1177 78.3647L10.3677 78.4888L10.6187 78.6128C10.7959 78.7003 10.9759 78.7835 11.1567 78.8618L11.4116 78.9722L11.6675 79.0825C11.8706 79.1704 12.0799 79.2429 12.2944 79.2993L12.5649 79.3706L12.8345 79.4419C13.0841 79.5075 13.3403 79.5339 13.5981 79.522L13.8774 79.5093L14.1558 79.4966C14.4112 79.4847 14.6616 79.4352 14.9028 79.3501L15.1675 79.2573L15.2876 79.2144C15.3433 79.3987 15.4178 79.5767 15.5112 79.7466L15.771 80.2192C15.8258 80.3188 15.8648 80.4222 15.8892 80.5298L15.9487 80.7896L16.0073 81.0503C16.059 81.2786 16.1376 81.4982 16.2417 81.7075L16.3599 81.9458L16.478 82.1831C16.512 82.2514 16.5349 82.3333 16.5415 82.4341L16.5601 82.7163L16.5776 82.9995C16.5922 83.2239 16.6237 83.4453 16.6724 83.6616L16.7329 83.9312L16.7935 84.1997C16.8474 84.4391 16.9321 84.6685 17.0464 84.8843L17.1724 85.1226L17.2993 85.3618C17.4503 85.6466 17.6743 85.8685 17.9409 86.0327L18.4604 86.353C18.5444 86.4048 18.581 86.4512 18.5991 86.4839L18.855 86.9487C18.9243 87.0744 18.9864 87.2073 19.0396 87.3462L19.1362 87.6001L19.2339 87.854C19.3499 88.1571 19.5467 88.4072 19.8062 88.5952L20.0347 88.7603L20.2632 88.9263C20.2673 88.9292 20.2693 88.9314 20.27 88.9321V88.9312L20.271 88.9331C20.272 88.9358 20.2738 88.9424 20.2759 88.9517L20.3374 89.2358L20.3999 89.52C20.456 89.7778 20.5484 90.0224 20.6812 90.2476L20.9565 90.7144C21.1376 91.0211 21.4093 91.2326 21.7241 91.3589L22.0054 91.4722L22.2866 91.5845C22.3555 91.6121 22.3737 91.6376 22.3804 91.6479L22.5249 91.8735L22.6704 92.0991C22.7875 92.2813 22.9179 92.4534 23.062 92.6138L23.2397 92.811L23.4175 93.0093C23.5355 93.1406 23.654 93.2721 23.772 93.4038L23.9497 93.603L24.1274 93.8013C24.2571 93.946 24.392 94.0861 24.5317 94.2212L24.7231 94.4067L24.9146 94.5913C25.064 94.7358 25.2232 94.8711 25.3901 94.9956L25.604 95.1548L25.8188 95.3149C25.9257 95.3946 26.0245 95.4841 26.1147 95.5825L26.2954 95.7788L26.4761 95.9761C26.5868 96.0968 26.6952 96.2225 26.8003 96.3521L27.1421 96.7739C27.3162 96.9883 27.5282 97.1619 27.772 97.2915L28.0112 97.4194L28.2515 97.5464C28.3026 97.5736 28.3479 97.613 28.3892 97.6753L28.5444 97.9106L28.7007 98.146C28.898 98.4437 29.1812 98.6513 29.5229 98.7515L29.7954 98.8306L30.0679 98.9106C30.2128 98.9531 30.3464 99.005 30.4683 99.0649L30.7085 99.1831L30.9497 99.3022C30.9515 99.303 30.974 99.3118 31.0063 99.3765L31.144 99.6519L31.2817 99.9282C31.4434 100.252 31.7042 100.514 32.0669 100.648L32.5806 100.837C32.6894 100.878 32.7876 100.931 32.8765 100.997L33.0923 101.157L33.3091 101.317C33.4733 101.439 33.6433 101.551 33.8188 101.655L34.0493 101.791L34.2808 101.926C34.5238 102.069 34.7891 102.156 35.0679 102.191L35.353 102.226L35.6372 102.262C35.6943 102.269 35.726 102.286 35.7524 102.309L35.9595 102.489L36.1665 102.667C36.3368 102.815 36.5187 102.946 36.7114 103.059L36.9429 103.194L37.1733 103.33C37.3786 103.45 37.5968 103.543 37.8257 103.61L38.3452 103.76C38.51 103.808 38.6736 103.858 38.8345 103.912L39.3423 104.08C39.4149 104.104 39.4867 104.143 39.5591 104.208L39.77 104.395L39.9819 104.583C40.1651 104.745 40.3644 104.883 40.5796 104.993L40.8188 105.115L41.0581 105.238C41.2532 105.338 41.4564 105.421 41.6655 105.487L41.9224 105.567L42.1782 105.648C42.3814 105.712 42.5893 105.761 42.8003 105.796L43.0679 105.841L43.3354 105.885C43.4755 105.908 43.6113 105.943 43.7427 105.988L44.2505 106.162C44.3661 106.201 44.4797 106.254 44.5903 106.324L44.8237 106.47L45.0571 106.618C45.2813 106.758 45.5244 106.858 45.7827 106.914L46.3101 107.027C46.5559 107.08 46.8071 107.095 47.0601 107.076L47.3423 107.054L47.6255 107.032C47.7337 107.024 47.8272 107.035 47.9106 107.059L48.1665 107.133L48.4233 107.208C48.6076 107.261 48.7932 107.31 48.98 107.352L49.2397 107.412L49.4995 107.47C49.6195 107.498 49.7384 107.54 49.8569 107.596L50.105 107.714L50.3521 107.833C50.6573 107.978 50.9857 108.018 51.313 107.959L51.5952 107.909L51.8774 107.859C51.8848 107.858 51.8895 107.857 51.8911 107.857C51.8926 107.858 51.896 107.86 51.9019 107.864L52.3882 108.167C52.7174 108.372 53.0917 108.426 53.4634 108.333L53.7466 108.261L54.0288 108.19C54.1642 108.156 54.2882 108.141 54.4009 108.141L54.6675 108.143L54.9351 108.145C54.9419 108.145 54.9693 108.144 55.0288 108.188L55.2739 108.37L55.52 108.55C55.8277 108.777 56.2014 108.882 56.5991 108.803L56.8726 108.75L57.147 108.695C57.2724 108.67 57.3915 108.662 57.5044 108.669L57.77 108.687L58.0356 108.704C58.1896 108.713 58.3436 108.731 58.4966 108.755L58.7603 108.798L59.0239 108.84C59.232 108.874 59.4416 108.893 59.6519 108.897L59.9185 108.903L60.1841 108.908C60.295 108.91 60.4083 108.928 60.5249 108.962L60.7896 109.042L61.0532 109.12C61.2506 109.178 61.4494 109.228 61.6489 109.267L61.9136 109.319L62.1792 109.371C62.3749 109.409 62.572 109.439 62.77 109.461L63.0386 109.491L63.3062 109.521C63.6432 109.559 63.965 109.484 64.2534 109.333L64.7886 109.049C64.9118 108.984 65.0231 108.947 65.1216 108.928L65.6509 108.829C65.8057 108.8 65.9604 108.778 66.1138 108.764L66.3774 108.739L66.6421 108.714C66.7749 108.702 66.9094 108.702 67.0454 108.713L67.5806 108.76C67.8146 108.781 68.0483 108.773 68.2798 108.738L68.5425 108.697L68.8052 108.657C68.915 108.64 69.0283 108.638 69.146 108.652L69.4165 108.683L69.686 108.715C69.8003 108.729 69.9254 108.759 70.061 108.812L70.3403 108.92L70.6196 109.03C70.9541 109.16 71.3155 109.176 71.6665 109.043L71.9253 108.946L72.1831 108.848C72.3317 108.792 72.4805 108.745 72.6284 108.707L72.8892 108.639L73.1489 108.572C73.3328 108.524 73.5163 108.472 73.6978 108.417L73.9556 108.337L74.2124 108.258C74.317 108.226 74.4244 108.209 74.5356 108.208L75.0767 108.205C75.2334 108.203 75.3935 108.21 75.5552 108.224L75.8306 108.249L76.1069 108.273C76.3505 108.295 76.5932 108.285 76.8325 108.244L77.0981 108.198L77.3628 108.151C77.7298 108.087 78.0275 107.889 78.2554 107.632L78.6909 107.142C78.7219 107.107 78.7428 107.092 78.7505 107.087H78.7485L79.0122 107.046L79.2759 107.006C79.3514 106.995 79.4456 106.996 79.564 107.023L79.8569 107.091L80.1509 107.159C80.5556 107.252 80.9575 107.163 81.2837 106.891L81.5083 106.705L81.7329 106.517C81.8426 106.425 81.9513 106.354 82.0571 106.302L82.2983 106.184L82.5396 106.065C82.557 106.056 82.587 106.045 82.6538 106.055L83.2417 106.143C83.5495 106.189 83.8608 106.162 84.1567 106.042L84.4048 105.941L84.6528 105.839C84.7504 105.8 84.856 105.774 84.9712 105.764L85.522 105.715C85.8653 105.685 86.1724 105.545 86.4243 105.318L86.6372 105.125L86.8501 104.934C86.8648 104.921 86.8749 104.916 86.8784 104.915C86.8817 104.913 86.8897 104.911 86.9058 104.91L87.187 104.895L87.4692 104.88C87.838 104.862 88.1662 104.711 88.4233 104.453L88.6265 104.248L88.8306 104.042C88.9111 103.962 88.9904 103.908 89.0669 103.873L89.3081 103.762L89.5503 103.652C89.7763 103.548 89.9843 103.412 90.1724 103.247L90.3794 103.064L90.5874 102.881C90.6552 102.822 90.7252 102.783 90.7993 102.759L91.0542 102.677L91.3081 102.594C91.4429 102.551 91.5869 102.516 91.7388 102.491L92.0161 102.444L92.2935 102.398C92.5853 102.349 92.8577 102.236 93.0962 102.057L93.311 101.895L93.5259 101.734C93.5702 101.701 93.627 101.674 93.7095 101.661L93.9937 101.616L94.2769 101.57C94.5427 101.527 94.7967 101.443 95.0308 101.312L95.2651 101.18L95.4995 101.049C95.7637 100.901 95.977 100.692 96.1411 100.443L96.4634 99.9526C96.5367 99.8413 96.615 99.7545 96.6938 99.688L97.1021 99.3442C97.1269 99.3234 97.1687 99.2984 97.2515 99.2856L97.5474 99.2397L97.8423 99.1948C98.1311 99.1504 98.4052 99.0503 98.6499 98.8853L98.8735 98.7349L99.0962 98.5845C99.3147 98.4369 99.5033 98.2535 99.6597 98.0405L99.9897 97.5913C100.045 97.5166 100.107 97.4615 100.176 97.4204L100.409 97.2827L100.642 97.145C100.853 97.0202 101.028 96.8549 101.17 96.6606V96.6548C101.142 96.4468 101.126 96.2377 101.125 96.0288L101.123 95.7622L101.12 95.4946C101.118 95.3439 101.108 95.1925 101.089 95.0415L101.023 94.5083C101.01 94.401 100.98 94.2877 100.928 94.1675L100.702 93.6362C100.579 93.3489 100.531 93.0404 100.576 92.7251L100.614 92.4585L100.652 92.1909C100.682 91.9763 100.729 91.7625 100.792 91.5513L100.873 91.2847L100.953 91.0171C100.991 90.889 101.013 90.7636 101.021 90.6411L101.038 90.3726L101.055 90.104C101.058 90.0655 101.051 90.0159 101.014 89.9448L100.879 89.6831L100.745 89.4224C100.606 89.1534 100.529 88.8599 100.536 88.5513L100.547 88.0161C100.552 87.8261 100.561 87.6356 100.575 87.4458L100.594 87.1792L100.613 86.9116C100.622 86.7776 100.62 86.6441 100.605 86.5112L100.544 85.98C100.52 85.768 100.512 85.5547 100.519 85.3413L100.529 85.0737L100.538 84.8062C100.544 84.6221 100.553 84.4371 100.564 84.2524L100.581 83.9839L100.596 83.7163C100.604 83.5911 100.597 83.467 100.577 83.3442L100.532 83.0796L100.488 82.8159C100.455 82.621 100.43 82.4251 100.413 82.229L100.39 81.9634L100.367 81.6978C100.354 81.5528 100.332 81.4077 100.3 81.2632L100.183 80.7378C100.119 80.4486 100.127 80.1563 100.199 79.8716L100.269 79.5972L100.338 79.3228C100.365 79.2176 100.37 79.1226 100.361 79.0347L100.302 78.5015C100.284 78.3411 100.26 78.1819 100.231 78.0239L100.183 77.7612L100.134 77.4985C100.103 77.3267 100.07 77.1544 100.036 76.9819L99.9321 76.4546C99.9172 76.3788 99.8848 76.2952 99.8228 76.2017L99.6597 75.9565L99.4976 75.7104C99.318 75.4397 99.2151 75.1303 99.2183 74.7954L99.2212 74.5249L99.2241 74.2554C99.2261 74.0482 99.2395 73.8398 99.2651 73.6313L99.3335 73.0825C99.3553 72.9054 99.3744 72.7271 99.3921 72.5483L99.4194 72.272L99.4419 72.0405L99.229 71.8149L99.0103 71.5845C98.7381 71.2963 98.5848 70.9163 98.644 70.4878L98.6821 70.2085L98.7212 69.9292C98.7404 69.7902 98.7451 69.6576 98.7358 69.5317L98.7153 69.2642L98.6958 68.9966C98.6918 68.9432 98.6752 68.8861 98.6323 68.8188L98.3257 68.3384C98.1828 68.1147 98.0781 67.8732 98.019 67.6157L97.8999 67.0981C97.8324 66.8038 97.8447 66.5063 97.9155 66.2183L97.9878 65.9263L98.0425 65.6978L97.894 65.5249L97.6997 65.2983C97.4861 65.0503 97.3436 64.7523 97.3081 64.4146L97.2798 64.147L97.2524 63.8794C97.2296 63.6614 97.2246 63.4393 97.2368 63.2153L97.2524 62.9331L97.2661 62.6528C97.2651 62.6516 97.2645 62.6495 97.2632 62.6479L97.0737 62.4263L96.8843 62.2056C96.6823 61.9692 96.5433 61.691 96.4888 61.3784L96.397 60.8472C96.3884 60.7978 96.3681 60.7483 96.3218 60.6919L96.1411 60.4722L95.9614 60.2534C95.7371 59.9805 95.6193 59.6533 95.6196 59.2993V58.7339C95.6198 58.6193 95.6032 58.5193 95.5728 58.4302L95.4858 58.1782L95.3999 57.9263C95.3428 57.7595 95.285 57.5921 95.2271 57.4253L95.1392 57.1733L95.0522 56.9214C94.9745 56.6976 94.925 56.4651 94.9019 56.2261L94.8472 55.6694C94.8397 55.5917 94.8137 55.4944 94.7495 55.3755L94.5952 55.0903L94.52 54.9517L94.3813 54.9702L94.0688 55.0103C93.6367 55.066 93.2208 54.9244 92.9282 54.5698L92.7397 54.3413L92.5591 54.1226L92.2983 54.1069L92.0122 54.0903C91.7133 54.0724 91.427 53.9881 91.1685 53.8296L90.939 53.689L90.7104 53.5483C90.5187 53.4308 90.3379 53.2947 90.1685 53.1411L89.9614 52.9536L89.7544 52.7651C89.7364 52.7489 89.723 52.7422 89.689 52.7397L89.1206 52.6987C88.8867 52.6818 88.6583 52.6424 88.437 52.5806L88.1772 52.5083L87.9165 52.4351C87.6994 52.3744 87.4898 52.294 87.2896 52.1929L87.0513 52.0718L86.813 51.9517C86.5203 51.8038 86.2937 51.5766 86.1245 51.311L85.9546 51.0435L85.7837 50.7759C85.7356 50.7005 85.706 50.6921 85.7056 50.6919L85.4565 50.5942L85.2085 50.4976C85.0614 50.4401 84.9105 50.3887 84.7573 50.3433L84.4995 50.2661L84.2407 50.1899C84.128 50.1565 84.0033 50.1354 83.8657 50.1294L83.5786 50.1167L83.2905 50.104C83.0074 50.0915 82.7331 50.0251 82.478 49.8979L82.2388 49.7788L82.0005 49.6606C81.7476 49.5345 81.53 49.3573 81.3472 49.1431L81.1567 48.9194L80.9653 48.6958C80.9129 48.6344 80.8693 48.6098 80.8325 48.5972L80.5786 48.5103L80.3257 48.4233C80.1555 48.3652 79.9847 48.3066 79.8149 48.2476L79.3091 48.0718C79.1497 48.0163 78.9881 47.9638 78.8257 47.9146L78.3101 47.7583C78.0908 47.6918 77.8802 47.6024 77.6802 47.4917L77.4468 47.3628L77.2124 47.2329C77.1151 47.1791 77.0106 47.1383 76.897 47.1118L76.6313 47.0503L76.3667 46.9888C76.1218 46.9316 75.889 46.8391 75.6724 46.7124L75.4409 46.5776L75.2095 46.4419C74.982 46.3088 74.7818 46.1373 74.6079 45.936L74.4165 45.7144L74.3071 45.5884L74.0679 45.6392L73.7427 45.7065C73.5441 45.7482 73.3215 45.7547 73.0972 45.686C72.8679 45.6157 72.6802 45.4807 72.5376 45.311L72.3481 45.0845L72.1577 44.8589C72.0737 44.7589 71.9892 44.685 71.9048 44.6313L71.4497 44.3423C71.3696 44.2915 71.2825 44.2553 71.1851 44.2339L70.6519 44.1167C70.3868 44.0583 70.139 43.9521 69.9146 43.7993L69.6909 43.647L69.4683 43.4946C69.3465 43.4117 69.2205 43.3385 69.0913 43.2749L68.8521 43.1567L68.6128 43.0396C68.4305 42.9498 68.2522 42.85 68.0796 42.7407L67.8521 42.5962L67.6245 42.4526C67.612 42.4448 67.5851 42.4303 67.5142 42.4341L66.9126 42.4653C66.5322 42.4852 66.1685 42.3663 65.8804 42.0923L65.4722 41.7036C65.3931 41.6284 65.3123 41.5762 65.23 41.5405L64.9858 41.4351L64.7407 41.3286C64.6623 41.2947 64.5698 41.2715 64.4575 41.2661L63.8833 41.2388C63.5498 41.2226 63.2368 41.1105 62.9712 40.8989L62.7563 40.728L62.5405 40.5562C62.4546 40.4877 62.3655 40.4372 62.272 40.4028L61.77 40.2192C61.74 40.2083 61.6919 40.1986 61.6069 40.2153L61.312 40.2729L61.0161 40.3315C60.5664 40.4197 60.1496 40.2707 59.8491 39.9429L59.6392 39.7134L59.5024 39.564L59.312 39.6108L59.0122 39.6841C58.6253 39.7784 58.2266 39.7173 57.8892 39.4634L57.4341 39.1216C57.3569 39.0635 57.2844 39.0313 57.2144 39.0151L56.9546 38.9546L56.6938 38.895C56.4451 38.8378 56.2092 38.7419 55.9897 38.6099L55.7544 38.4673L55.5181 38.3257C55.4343 38.2753 55.3503 38.244 55.2632 38.229L54.9985 38.1841L54.7339 38.1382C54.5801 38.1117 54.4233 38.0927 54.2642 38.0806L53.9917 38.0591L53.7202 38.0386C53.442 38.0173 53.1759 37.9407 52.9292 37.8101L52.689 37.6821L52.4478 37.5552C52.2688 37.4603 52.0929 37.3566 51.9204 37.2446L51.687 37.0933L51.4536 36.9409C51.358 36.8789 51.2621 36.8369 51.1655 36.811L50.9077 36.7417L50.6499 36.6733C50.6442 36.6718 50.6034 36.6626 50.5054 36.6978L50.1948 36.8091L49.8833 36.9214C49.535 37.046 49.1406 37.0631 48.7681 36.8735L48.5269 36.7505L48.2847 36.6274C48.1233 36.5453 47.9615 36.4628 47.8003 36.3804L47.5591 36.2573L47.3179 36.1333C47.1717 36.0586 47.0235 35.9896 46.8745 35.9263L46.6274 35.8218L46.3804 35.7163C46.1885 35.6348 46.0091 35.5443 45.8462 35.4429L45.8208 35.4272C45.7387 35.4592 45.6415 35.4813 45.5288 35.4761C45.2997 35.4651 45.1465 35.3525 45.063 35.272L45.0942 35.3501L45.0005 35.3862L44.9722 35.3989L44.9399 35.4077L44.4761 35.5425C44.1441 35.639 43.8294 35.7054 43.5552 35.7144L43.2739 35.7231L43.0894 35.729L42.938 35.9712L42.7612 36.2515C42.6511 36.4265 42.4963 36.5935 42.2837 36.7056C42.0669 36.8198 41.834 36.853 41.6128 36.8315L41.313 36.8022L41.0122 36.7739C40.9086 36.7638 40.838 36.776 40.7876 36.7954L40.2876 36.9897C40.1644 37.0375 40.0454 37.0969 39.9321 37.1685L39.7056 37.312L39.4771 37.4565C39.2822 37.5795 39.0753 37.6805 38.8589 37.7593L38.353 37.9429C38.3085 37.9591 38.2627 37.9883 38.2124 38.0474L37.8394 38.4858C37.6298 38.7322 37.3623 38.9123 37.0454 39.0034L36.522 39.1538C36.4532 39.1736 36.395 39.2054 36.3413 39.2544L36.1401 39.439L35.939 39.6226C35.8094 39.7408 35.6743 39.8514 35.5376 39.9575L35.5327 39.9722C35.4293 40.2406 35.2774 40.4849 35.0698 40.688L34.8804 40.8735L34.6899 41.0591C34.4696 41.2746 34.2035 41.4192 33.9146 41.5044L33.6245 41.5903L33.3345 41.6753C33.303 41.6846 33.2872 41.694 33.2817 41.6978C33.2776 41.7007 33.2742 41.7039 33.271 41.7085L33.1157 41.9302L32.9604 42.1528C32.8967 42.2444 32.8418 42.3523 32.7974 42.479L32.7007 42.7544L32.604 43.0288C32.4448 43.482 32.079 43.7446 31.6577 43.8315L31.3345 43.8979L31.0122 43.9644C30.9618 43.9748 30.9329 43.9874 30.9194 43.9946L30.9048 44.0044L30.5513 44.4087C30.515 44.4503 30.4804 44.511 30.4565 44.606L30.3843 44.894L30.311 45.1821C30.2335 45.4903 30.0817 45.7717 29.8442 45.9976L29.6499 46.1831L29.4556 46.3677C29.4103 46.4108 29.3747 46.4641 29.3491 46.5366L29.2573 46.7983L29.1646 47.061C29.0336 47.4325 28.7675 47.7005 28.4321 47.8608L28.1558 47.9927L27.9478 48.0913L27.9194 48.2983L27.8784 48.5903C27.8208 49.0017 27.5947 49.3366 27.2437 49.5483L26.9858 49.7036L26.7524 49.8442L26.7134 50.0845L26.6665 50.3667C26.6073 50.7248 26.4288 51.0331 26.1509 51.2642L25.9302 51.4487L25.7886 51.5649L25.8218 51.8179L25.8647 52.1392C25.9211 52.564 25.793 52.9867 25.4331 53.2866L24.9839 53.6616C24.9303 53.7063 24.9127 53.7415 24.9038 53.77L24.7437 54.2837C24.7058 54.4057 24.6802 54.5352 24.6675 54.6724L24.6411 54.9497L24.6157 55.2271C24.5922 55.4807 24.5327 55.7264 24.4341 55.9595L24.2271 56.4478C24.1502 56.6292 24.065 56.8085 23.9722 56.9839L23.7222 57.4565C23.6459 57.6005 23.574 57.7469 23.5073 57.895L23.2886 58.3813C23.1999 58.5785 23.0945 58.7696 22.9741 58.9536L22.6714 59.4165C22.6337 59.4742 22.6146 59.531 22.6089 59.5942L22.5601 60.1372C22.5361 60.4042 22.4649 60.661 22.3472 60.9019L22.228 61.145L22.1089 61.3892C22.0772 61.4543 22.0607 61.5225 22.0601 61.6011L22.0562 62.1519C22.054 62.4079 22.0132 62.6589 21.9321 62.9009L21.8472 63.1538L21.7622 63.4077C21.7214 63.5296 21.693 63.6546 21.6782 63.7827L21.6479 64.0483L21.6167 64.314C21.5946 64.5048 21.5677 64.6951 21.5347 64.8833L21.4429 65.4067C21.3868 65.726 21.2383 66.0065 21.0347 66.2437L20.8335 66.4771L20.6333 66.7114C20.5766 66.7776 20.5657 66.8191 20.563 66.8403L20.4946 67.3735C20.4927 67.3891 20.49 67.4365 20.5356 67.5308L20.8169 68.1128C20.9064 68.2979 20.9637 68.5133 20.9487 68.7476C20.9335 68.9846 20.8475 69.1955 20.7222 69.3716L20.5464 69.6177L20.3716 69.8638C20.3278 69.9255 20.3241 69.9605 20.3237 69.979L20.3179 70.2476L20.313 70.5161C20.309 70.7285 20.2901 70.9402 20.2563 71.1499L20.2134 71.4155L20.1714 71.6802C20.1661 71.7131 20.1664 71.7595 20.1968 71.8325L20.311 72.106L20.4243 72.3794C20.4995 72.5598 20.5434 72.7705 20.5161 72.9966C20.4905 73.2078 20.4055 73.3918 20.2896 73.5464L20.2729 73.7407L20.2642 73.8403L20.0688 73.8228L19.9155 74.0112C19.8584 74.0815 19.8911 74.0564 19.9224 73.9751C19.9259 73.966 19.9505 73.9047 19.9595 73.813L19.6187 73.7827L19.8892 74.311L19.6978 74.4087L19.5425 74.4888L19.3667 74.4868L19.2759 74.4858C19.1501 74.4844 18.7857 74.4383 18.6099 74.063C18.4752 73.7753 18.5747 73.5172 18.5942 73.4663C18.6527 73.314 18.7559 73.1829 18.813 73.1128L18.9858 72.9009L19.063 72.8071L18.9976 72.6528L18.8833 72.3794C18.762 72.0882 18.7156 71.7749 18.7671 71.4546L18.8091 71.189L18.8521 70.9233C18.8752 70.7798 18.8883 70.6352 18.8911 70.4897L18.896 70.2202L18.9009 69.9517C18.9074 69.6123 19.0244 69.3041 19.2134 69.0386L19.3882 68.7925L19.4946 68.6431L19.396 68.4409L19.2554 68.1499C19.1136 67.8569 19.0395 67.5314 19.0835 67.1909L19.1187 66.9243L19.1528 66.6567C19.1962 66.3225 19.3438 66.0299 19.5542 65.7847L19.7554 65.5503L19.9556 65.3169C20.0193 65.2426 20.0362 65.1915 20.0415 65.1616L20.1333 64.6382C20.1615 64.4774 20.1847 64.3144 20.2036 64.1509L20.2349 63.8853L20.2651 63.6196C20.2913 63.3934 20.3413 63.1713 20.4136 62.9556L20.4985 62.7026L20.5835 62.4487C20.6155 62.3531 20.6324 62.2509 20.6333 62.1401L20.6362 61.8647L20.6382 61.5894C20.6405 61.3014 20.7049 61.0234 20.8315 60.7642L20.9507 60.52L21.0698 60.2769C21.1108 60.193 21.1355 60.1053 21.144 60.0103L21.1685 59.7388L21.1929 59.4663C21.2197 59.1677 21.3183 58.8885 21.4819 58.6382L21.7847 58.1753C21.8658 58.0513 21.9346 57.9253 21.9917 57.7983L22.2104 57.312C22.2896 57.136 22.3749 56.9614 22.4653 56.7905L22.7153 56.3179C22.7892 56.1783 22.8568 56.0364 22.9175 55.8931L23.021 55.6489L23.1235 55.4058C23.1623 55.3142 23.1889 55.2119 23.1997 55.0962L23.2251 54.8179L23.2515 54.5405C23.273 54.3083 23.317 54.0808 23.3853 53.8608L23.4653 53.605L23.5454 53.3481C23.6428 53.0346 23.8283 52.7734 24.0737 52.5688L24.2983 52.3813L24.4448 52.2583L24.4126 52.0054L24.3696 51.6841C24.3139 51.2636 24.438 50.8392 24.7993 50.5386L25.02 50.355L25.2417 50.1704C25.2486 50.1647 25.2533 50.1601 25.2554 50.1577C25.2568 50.156 25.2579 50.1544 25.2583 50.1538C25.2585 50.1534 25.2588 50.1522 25.2593 50.1509C25.2601 50.1486 25.2618 50.1433 25.2632 50.1353L25.3101 49.853L25.356 49.5708C25.4229 49.166 25.6556 48.8458 25.9946 48.6411L26.2515 48.4858L26.4761 48.3501L26.5112 48.1011L26.5522 47.8091L26.5845 47.6479C26.6815 47.285 26.9254 47.0043 27.2661 46.8413L27.8188 46.5776C27.8229 46.5757 27.8259 46.5724 27.8286 46.5708L27.9155 46.3267L28.0073 46.064C28.1048 45.7871 28.2612 45.541 28.4751 45.3374L28.6694 45.1519L28.8647 44.9673C28.8867 44.9464 28.913 44.9113 28.9321 44.8354L29.0044 44.5474L29.0396 44.4038C28.9883 44.4952 28.9256 44.5836 28.8462 44.6636C28.679 44.8319 28.4759 44.9342 28.2661 44.9849L27.9722 45.0562L27.6772 45.1274C27.5695 45.1534 27.4968 45.1918 27.4448 45.2329L27.2319 45.4009L27.019 45.5698C27.0078 45.5787 26.9871 45.5967 26.9692 45.6606L26.8071 46.2407C26.7323 46.5085 26.6157 46.7591 26.4478 46.98L26.1274 47.4009C26.0222 47.5393 25.9175 47.6787 25.814 47.8179L25.4976 48.2417C25.2923 48.5174 25.0121 48.6971 24.7075 48.8062L24.4058 48.9155L24.104 49.0229C24.0832 49.0304 24.0705 49.0376 24.064 49.0415L23.9468 49.269L23.8237 49.5103C23.7201 49.7126 23.5974 49.9038 23.4565 50.0815L23.2886 50.2935L23.1216 50.5044C23.0335 50.6156 22.9541 50.7329 22.8853 50.856L22.6235 51.3257C22.5808 51.4021 22.5482 51.4925 22.5317 51.603L22.4478 52.1714C22.4091 52.4305 22.3321 52.6791 22.2144 52.9106L21.9741 53.3843C21.8535 53.6215 21.6911 53.8314 21.4956 54.0132L21.2886 54.2065L21.0806 54.3989C21.0407 54.436 21.0246 54.4677 21.0161 54.5034L20.8892 55.0347C20.8488 55.204 20.8113 55.3748 20.7769 55.5454L20.6694 56.0825C20.6299 56.2784 20.5824 56.4707 20.5288 56.6597L20.4556 56.9175L20.3823 57.1743C20.3269 57.3694 20.2621 57.5609 20.187 57.7476L20.0894 57.9927L19.9897 58.2378C19.9133 58.4275 19.8254 58.6128 19.7261 58.7935L19.4683 59.2632C19.4105 59.3683 19.3664 59.4772 19.3364 59.5913L19.269 59.8481L19.2017 60.106C19.1528 60.2924 19.0975 60.477 19.0366 60.6587L18.9536 60.9087L18.8687 61.1587C18.7976 61.3705 18.7064 61.5753 18.5942 61.772L18.4585 62.0093L18.3237 62.2466C18.2768 62.3288 18.2349 62.4007 18.1997 62.4575C18.1765 62.495 18.1234 62.58 18.061 62.6489L18.0239 62.6899L17.7153 63.0298L17.2788 62.8892L17.2388 62.8765L17.4263 62.2944L17.4233 62.2935L16.7524 62.0581L16.7856 61.9644L17.0151 61.3101L17.189 61.3657L17.2231 61.3042L17.3589 61.0679C17.4269 60.9487 17.4804 60.8278 17.521 60.7065L17.688 60.2065C17.7387 60.0552 17.7848 59.9016 17.8257 59.7456L17.894 59.4888L17.9614 59.231C18.0212 59.0028 18.1083 58.7847 18.2222 58.5776L18.48 58.1079C18.5522 57.9766 18.6156 57.8426 18.6704 57.7065L18.8677 57.2163C18.9238 57.077 18.9733 56.9338 19.0151 56.7866L19.0884 56.5288L19.1606 56.272C19.2041 56.1189 19.2424 55.9614 19.2749 55.8003L19.3833 55.2642C19.421 55.0772 19.4621 54.8901 19.5063 54.7046L19.6333 54.1724C19.7095 53.8535 19.8757 53.5774 20.1128 53.3569L20.3198 53.1646L20.5278 52.9712C20.6093 52.8954 20.6667 52.8182 20.7065 52.7397L20.9478 52.2661C20.9905 52.1819 21.0226 52.0814 21.0405 51.9614L21.0835 51.6772L21.1255 51.3931C21.1656 51.1244 21.249 50.8679 21.3813 50.6313L21.5142 50.397L21.645 50.1616C21.7511 49.9721 21.8722 49.7911 22.0073 49.6206L22.1743 49.4106L22.3423 49.1987C22.4248 49.0946 22.4967 48.9826 22.5581 48.8628L22.8052 48.3794C22.9846 48.0292 23.2852 47.8054 23.6235 47.6841L23.9272 47.5757L24.228 47.4683C24.3241 47.4338 24.3513 47.4005 24.3569 47.3931L24.6724 46.9683C24.7789 46.8251 24.8864 46.6819 24.9946 46.5396L25.1636 46.314L24.9507 46.4741C24.7938 46.591 24.6407 46.7137 24.4937 46.8413L24.2935 47.0151L24.0923 47.1899C24.0278 47.2458 23.9414 47.2992 23.8247 47.3442L23.5474 47.4517L23.27 47.5581C22.9088 47.6974 22.6527 47.9675 22.5308 48.3159L22.4868 48.4702L22.4204 48.7671L22.353 49.0649C22.339 49.1266 22.3218 49.1389 22.3188 49.1411L21.9009 49.4849C21.6885 49.6595 21.5161 49.8713 21.3882 50.1147L21.1362 50.5933C21.1273 50.6102 21.1102 50.6362 21.0513 50.6665L20.7866 50.8013L20.522 50.937C20.2276 51.0879 19.9983 51.3235 19.8687 51.6304L19.8198 51.7661L19.7368 52.0356L19.6538 52.3042C19.6453 52.3317 19.6349 52.3493 19.604 52.3716L19.3706 52.5386L19.1382 52.7056C18.8705 52.8976 18.669 53.1567 18.5571 53.4722L18.4653 53.731L18.3735 53.9907C18.3174 54.1492 18.2571 54.3044 18.1929 54.4546L18.0874 54.7017L17.981 54.9487C17.8868 55.169 17.8212 55.4008 17.7827 55.6401L17.7378 55.9175L17.6938 56.1938C17.6929 56.1997 17.6916 56.2044 17.6909 56.2065C17.6904 56.2079 17.6894 56.2097 17.689 56.2104C17.6884 56.2113 17.6868 56.2133 17.6851 56.2153C17.6825 56.2183 17.6777 56.2237 17.6704 56.23L17.4497 56.4175L17.23 56.605C16.9692 56.8271 16.7893 57.1182 16.7202 57.4624L16.6128 57.9995C16.5876 58.1251 16.5485 58.2418 16.4985 58.3501L16.2759 58.8325C16.2179 58.9579 16.1483 59.0821 16.0669 59.2036L15.9956 59.3091L15.9087 59.2739L15.645 59.1665L15.5063 59.1187C15.1808 59.0241 14.848 59.0573 14.5425 59.1997L14.271 59.3267L14.0005 59.4526C13.9664 59.4685 13.9491 59.4683 13.9224 59.4614L13.6382 59.3892L13.354 59.3159L13.1919 59.2847C12.8709 59.2436 12.564 59.3273 12.3081 59.5181L12.1851 59.6226L11.9663 59.8296L11.7515 60.0337L11.1421 60.0024C10.6989 59.98 10.299 60.1682 10.0454 60.5483L9.88135 60.7944L9.71826 61.0405C9.60942 61.2038 9.5041 61.36 9.40479 61.5083L9.25537 61.7319L9.10596 61.9546C9.09516 61.9706 9.07603 61.9928 9.01807 62.0151L8.92822 62.0493L8.97705 61.8315L9.03467 61.5649C9.06248 61.4365 9.07603 61.309 9.07568 61.1841L9.07373 60.6509C9.07305 60.3368 9.16064 60.0409 9.30811 59.7729L9.45459 59.5063L9.60205 59.2397C9.60984 59.2255 9.61323 59.2152 9.61475 59.2104L9.55127 58.9497L9.48682 58.6831C9.45695 58.5595 9.41007 58.4281 9.34326 58.2905L9.08154 57.7515C8.90092 57.379 8.89631 56.9693 9.0835 56.5923L9.21436 56.3306L9.34424 56.0679C9.34661 56.063 9.34828 56.0585 9.34912 56.0562L9.34814 56.0532L9.26611 55.7798L9.18311 55.5063C9.10667 55.253 9.0707 54.992 9.08154 54.729L9.09326 54.4614L9.104 54.1929C9.1146 53.9378 9.16554 53.6879 9.25439 53.4478L9.35107 53.188L9.44678 52.9292C9.47497 52.8527 9.48514 52.7776 9.479 52.6987L9.45752 52.4253L9.43604 52.1509C9.40859 51.7963 9.50693 51.4645 9.70068 51.1792L9.86572 50.937L10.0288 50.6948L9.97705 50.4175L9.92236 50.1343C9.85603 49.7857 9.909 49.4373 10.0874 49.1235L10.2251 48.8804L10.3628 48.6382C10.4234 48.5315 10.4652 48.425 10.4907 48.3198L10.5542 48.061L10.6167 47.8022C10.6809 47.5385 10.7952 47.2935 10.9517 47.0718L11.1128 46.8423L11.2749 46.6138C11.3142 46.5579 11.3311 46.5068 11.3364 46.4536L11.3911 45.9146C11.4115 45.7118 11.4416 45.5104 11.4819 45.312L11.5356 45.0483L11.5894 44.7856C11.6136 44.6658 11.6255 44.5336 11.6226 44.3892L11.6167 44.0991L11.6108 43.8101C11.6016 43.337 11.8451 42.9643 12.2046 42.7329L12.4771 42.5571L12.7505 42.3813C12.8413 42.3228 12.8624 42.2815 12.8667 42.272L12.9741 42.0298L13.0825 41.7886C13.1059 41.736 13.1241 41.6621 13.1216 41.5552L13.1147 41.2563L13.1079 40.9565C13.0988 40.5581 13.2484 40.1901 13.5571 39.9185L13.9868 39.5396C14.0307 39.5008 14.0492 39.4679 14.0591 39.4321L14.1313 39.1675L14.2036 38.9038C14.2708 38.6597 14.373 38.4291 14.5103 38.2173L14.6558 37.9927L14.8013 37.769C14.874 37.6567 14.9369 37.5361 14.9897 37.4087L15.0942 37.1577L15.1978 36.9077C15.323 36.6058 15.5298 36.3612 15.7944 36.1802L16.0317 36.0171L16.269 35.855C16.3942 35.7694 16.5044 35.6792 16.5991 35.5854L16.7896 35.396L16.9771 35.2114V35.2104C16.9794 35.2041 16.9853 35.1867 16.9878 35.1548L17.0366 34.5278L17.0562 34.3774C17.119 34.0324 17.3053 33.7223 17.6313 33.5171L17.8706 33.3657L18.1108 33.2153C18.2013 33.1583 18.2683 33.0946 18.3188 33.0269L18.478 32.814L18.6372 32.6001C18.7603 32.4352 18.8938 32.2774 19.0356 32.1284L19.4028 31.7437C19.5623 31.5762 19.7402 31.4274 19.9341 31.2983L20.3872 30.9956C20.4486 30.9547 20.4966 30.9049 20.5347 30.8403L20.812 30.3696C20.9388 30.1547 21.0942 29.961 21.2769 29.7925L21.6675 29.4312C21.7483 29.3565 21.8223 29.2682 21.8872 29.1636L22.0337 28.9272L22.1792 28.6919C22.3446 28.4256 22.5729 28.2152 22.853 28.0728L23.0981 27.9478L23.3433 27.8237C23.3559 27.8173 23.3741 27.8071 23.397 27.7593L23.5239 27.4917L23.6519 27.2251L23.7339 27.0776C23.8267 26.9362 23.9513 26.811 24.1089 26.7173C24.3143 26.5953 24.5363 26.5502 24.7407 26.5464L25.0728 26.5405L25.311 26.5356L25.3892 26.3843L25.5249 26.1196C25.6838 25.81 25.9316 25.56 26.2661 25.4175L26.5171 25.311L26.7671 25.2046C26.9149 25.1416 27.0583 25.0723 27.1958 24.9985L27.6665 24.7466C27.8377 24.6547 28.0125 24.5686 28.1899 24.4888L28.4331 24.3784L28.6772 24.269C28.8046 24.2117 28.9264 24.1452 29.0415 24.0688L29.2632 23.9214L29.4839 23.7749C29.6882 23.6394 29.9094 23.5345 30.144 23.4614L30.4019 23.3813L30.6362 23.3081C30.6412 23.3018 30.6505 23.2916 30.6597 23.2749L30.8149 22.9907L30.9712 22.7065L31.061 22.564C31.1622 22.4249 31.298 22.2983 31.4751 22.2104C31.6525 22.1226 31.8356 22.0908 32.0083 22.0952L32.1772 22.1108L32.4946 22.1606L32.6772 22.188L32.7769 22.0396L32.9517 21.7739L33.0474 21.646C33.2844 21.3621 33.6229 21.1872 34.0298 21.1978L34.3208 21.2046L34.604 21.2114L34.8091 21.0142L35.019 20.811C35.253 20.5848 35.5396 20.429 35.8687 20.3716L36.1362 20.3247L36.4038 20.2788C36.666 20.2332 36.9324 20.2346 37.1978 20.2769L37.4907 20.3237L37.7397 20.3628L37.9302 20.1929L38.1519 19.9946C38.3515 19.8153 38.5736 19.6685 38.8179 19.564L39.0679 19.4575L39.3169 19.3501C39.5921 19.2324 39.8844 19.1874 40.1812 19.2104L40.7397 19.2534C40.8995 19.2658 41.0545 19.269 41.2046 19.2632L41.7417 19.2417C41.8744 19.2365 42.0049 19.2185 42.1323 19.188L42.3911 19.1265L42.6509 19.064C42.8742 19.0104 43.1018 18.982 43.3315 18.978L43.5991 18.9731L43.8657 18.9683C43.9943 18.9661 44.1216 18.9511 44.2476 18.9224L44.5093 18.8628L44.77 18.8022C44.9238 18.7671 45.0787 18.7249 45.2339 18.6753L45.4956 18.5923L45.7563 18.5083C46.0785 18.4054 46.4097 18.4112 46.7261 18.5142L46.9976 18.603L47.2612 18.689L47.2632 18.688L47.5269 18.5552L47.7905 18.4214C47.9101 18.3611 48.0565 18.3004 48.2153 18.2729C48.3517 18.2495 48.5611 18.2409 48.7729 18.3413L48.855 18.3862L48.9019 18.2798C49.0683 17.9537 49.3544 17.7427 49.6772 17.6313L49.9839 17.5249L50.1597 17.4634L50.1763 17.2788L50.2046 16.9565C50.2409 16.5364 50.4508 16.1487 50.8657 15.9312L51.1196 15.7983L51.3735 15.6646C51.442 15.6287 51.4857 15.5877 51.5171 15.5405L51.6675 15.312L51.8188 15.0845L51.9048 14.9683C52.1147 14.7129 52.3979 14.5564 52.7104 14.4888L53.0083 14.4243L53.1851 14.3862L53.2476 14.1646L53.3364 13.8472C53.4406 13.475 53.6742 13.1363 54.0737 12.9585L54.3267 12.8462L54.5786 12.7339C54.7338 12.6649 54.8854 12.5923 55.0317 12.5161L55.272 12.3911L55.5112 12.2671C55.651 12.1943 55.7866 12.1146 55.9175 12.0298L56.1431 11.8843L56.3677 11.7388C56.6432 11.5602 56.9534 11.4786 57.272 11.4771L57.5669 11.4751L57.8618 11.4741C57.8685 11.4741 57.8741 11.4735 57.8774 11.4731L57.8794 11.4722L58.0854 11.2798L58.2915 11.0864C58.488 10.9021 58.7116 10.7552 58.9604 10.6528L59.2075 10.5513L59.4556 10.4487C59.7385 10.3325 60.0371 10.2966 60.3364 10.3286L60.6235 10.3599L60.853 10.3833L61.0415 10.1899L61.2573 9.96729C61.5096 9.70696 61.8391 9.53422 62.228 9.51904L62.7729 9.49756C62.9719 9.48986 63.1716 9.48976 63.3696 9.49658L63.6401 9.50635L63.9116 9.51514C63.9717 9.51716 64.0315 9.50596 64.0991 9.47314L64.605 9.22705C64.8365 9.1144 65.0802 9.0379 65.3335 9.00244L65.5972 8.96533L65.8608 8.9292C66.1826 8.88426 66.4948 8.93876 66.7827 9.06396L67.0591 9.18506L67.2231 9.25732L67.4058 9.11475L67.6636 8.91455L67.8013 8.81982C67.9475 8.73267 68.1203 8.66913 68.3159 8.65674C68.5135 8.64435 68.695 8.68661 68.853 8.7583L69.0034 8.83936L69.272 9.00635L69.5405 9.17432C69.5785 9.19801 69.6038 9.20789 69.6167 9.21143C69.6275 9.21434 69.6334 9.21365 69.6362 9.21338L69.9028 9.18994L70.1685 9.16748C70.2339 9.16179 70.3197 9.13865 70.4282 9.07959L70.6997 8.93213L70.9722 8.78369C71.2567 8.62871 71.5742 8.54587 71.9106 8.57275ZM29.3237 43.52L29.2505 43.7876L29.2388 43.8296C29.3043 43.7034 29.3841 43.5841 29.48 43.4741L29.4907 43.4604L29.3237 43.52ZM31.3716 42.2437C31.3129 42.3259 31.2509 42.4048 31.1812 42.4771L31.2983 42.4526L31.3589 42.2827L31.3716 42.2437Z" fill="#303A4B"/>
</g>
<defs>
<clipPath id="clip0_395_2547">
<rect width="128" height="128" fill="white"/>
</clipPath>
</defs>
</svg>
