<svg width="128" height="128" viewBox="0 0 128 128" fill="none" xmlns="http://www.w3.org/2000/svg">
<path d="M112.711 88L112.455 88.7227C111.615 91.7041 111.143 94.0555 110.896 95.9824C110.489 99.1673 110.692 101.209 110.871 103.06L110.341 103.111L109.81 103.163C109.636 101.374 109.435 99.3436 109.786 96.2842L107.377 103.111H103.466L104.355 99.0225L102.044 103.111H95.4658L95.8818 100.757C95.9777 100.662 96.0645 100.558 96.1396 100.443L96.4619 99.9531C96.5353 99.8415 96.6134 99.7551 96.6924 99.6885L97.1006 99.3447C97.1254 99.3238 97.167 99.299 97.25 99.2861L97.5459 99.2402L97.8408 99.1953C98.1297 99.1509 98.4036 99.0509 98.6484 98.8857L98.8721 98.7354L99.0947 98.585C99.3134 98.4373 99.5017 98.2542 99.6582 98.041L99.9883 97.5918C100.043 97.5169 100.105 97.4621 100.175 97.4209L100.407 97.2832L100.641 97.1455C100.902 96.9913 101.111 96.779 101.267 96.5215L101.412 96.2793L101.558 96.0381C101.57 96.0176 101.58 96.0069 101.611 95.9951L101.88 95.8955L102.148 95.7949C102.503 95.6623 102.775 95.4091 102.935 95.0664L103.057 94.8057L103.178 94.5439C103.247 94.3959 103.321 94.2594 103.4 94.1338L103.691 93.6748C103.692 93.6738 103.693 93.6723 103.693 93.6719L103.695 93.6709C103.698 93.6689 103.711 93.6594 103.742 93.6494L104.32 93.4639C104.619 93.368 104.891 93.2053 105.104 92.9609L105.28 92.7588L105.456 92.5576C105.611 92.3797 105.744 92.1838 105.854 91.9727L105.981 91.7295L106.108 91.4854C106.149 91.4067 106.202 91.3429 106.268 91.2891L106.688 90.9434C106.962 90.7174 107.131 90.4172 107.203 90.082L107.266 89.7939L107.327 89.5059C107.328 89.5001 107.329 89.495 107.33 89.4922L107.562 89.333L107.794 89.1729C108.095 88.9652 108.296 88.6688 108.38 88.3145L108.445 88.0381L108.511 87.7607C108.518 87.7295 108.527 87.7179 108.547 87.7021L108.767 87.5264L108.986 87.3516C109.277 87.1195 109.455 86.8024 109.508 86.4385L109.549 86.1553L109.582 85.9238L109.821 85.7832L110.088 85.626C110.355 85.4681 110.584 85.254 110.743 84.9766L110.877 84.7432L111.011 84.5107C111.153 84.2633 111.235 83.9935 111.263 83.7109L111.29 83.4277L111.318 83.1455C111.333 82.9986 111.359 82.8623 111.396 82.7363L111.471 82.4805L111.546 82.2236C111.579 82.1112 111.625 82.0041 111.687 81.9014L111.962 81.4385C112.078 81.2439 112.174 81.04 112.249 80.8271L112.425 80.3252C112.455 80.2393 112.503 80.1499 112.577 80.0576L112.937 79.6084C112.995 79.5346 113.041 79.4566 113.08 79.3779C113.278 79.3895 113.476 79.3734 113.671 79.3291L113.937 79.2695L114.201 79.209C114.313 79.1837 114.428 79.1742 114.549 79.1807L115.104 79.21C115.39 79.2252 115.654 79.152 115.883 79.0098L112.711 88ZM11.667 79.083C11.8702 79.1709 12.0794 79.2434 12.2939 79.2998L12.5645 79.3711L12.834 79.4424C13.0837 79.508 13.3397 79.5344 13.5977 79.5225L13.877 79.5098L14.1553 79.4971C14.4108 79.4852 14.661 79.4358 14.9023 79.3506L15.167 79.2578L15.2861 79.2148C15.3419 79.3993 15.4163 79.5771 15.5098 79.7471L15.7695 80.2197C15.8244 80.3194 15.8633 80.4226 15.8877 80.5303L15.9473 80.79L16.0059 81.0508C16.0575 81.2791 16.1361 81.4986 16.2402 81.708L16.3584 81.9463L16.4766 82.1836C16.5106 82.252 16.5335 82.3337 16.54 82.4346L16.5586 82.7168L16.5762 83C16.5907 83.2245 16.6222 83.4457 16.6709 83.6621L16.7314 83.9316L16.792 84.2002C16.8459 84.4396 16.9306 84.6689 17.0449 84.8848L17.1709 85.123L17.2979 85.3623C17.4488 85.6471 17.6729 85.869 17.9395 86.0332L18.459 86.3535C18.5429 86.4053 18.5796 86.4517 18.5977 86.4844L18.8535 86.9492C18.9228 87.0749 18.9849 87.2077 19.0381 87.3467L19.1348 87.6006L19.2324 87.8545C19.3484 88.1576 19.5453 88.4077 19.8047 88.5957L20.0332 88.7607L20.2617 88.9268C20.2656 88.9296 20.2678 88.9318 20.2686 88.9326V88.9316L20.2695 88.9336C20.2706 88.9362 20.2723 88.9426 20.2744 88.9521L20.3359 89.2363L20.3984 89.5205C20.4545 89.7783 20.5469 90.0228 20.6797 90.248L20.9551 90.7148C21.1361 91.0216 21.4079 91.2331 21.7227 91.3594L22.0039 91.4727L22.2852 91.585C22.354 91.6126 22.3722 91.6381 22.3789 91.6484L22.5234 91.874L22.6689 92.0996C22.786 92.2818 22.9164 92.4539 23.0605 92.6143L23.2383 92.8115L23.416 93.0098C23.534 93.1411 23.6525 93.2726 23.7705 93.4043L23.9482 93.6035L24.126 93.8018C24.2556 93.9465 24.3906 94.0866 24.5303 94.2217L24.7217 94.4072L24.9131 94.5918C25.0625 94.7362 25.2217 94.8716 25.3887 94.9961L25.6025 95.1553L25.8174 95.3154C25.9241 95.3951 26.023 95.4846 26.1133 95.583L26.2939 95.7793L26.4746 95.9766C26.5853 96.0973 26.6937 96.223 26.7988 96.3525L27.1406 96.7744C27.3147 96.9887 27.5268 97.1624 27.7705 97.292L28.0098 97.4199L28.25 97.5469C28.3012 97.5741 28.3464 97.6135 28.3877 97.6758L28.543 97.9111L28.6992 98.1465C28.8965 98.4442 29.1798 98.6518 29.5215 98.752L29.7939 98.8311L30.0664 98.9111C30.2112 98.9536 30.345 99.0056 30.4668 99.0654L30.707 99.1836L30.9482 99.3027C30.95 99.3035 30.9725 99.3123 31.0049 99.377L31.1426 99.6523L31.2803 99.9287C31.4419 100.252 31.7028 100.515 32.0654 100.648L32.5791 100.838C32.6879 100.878 32.7862 100.931 32.875 100.997L33.0908 101.157L33.3076 101.317C33.4717 101.439 33.6419 101.552 33.8174 101.655L34.0479 101.791L34.2793 101.927C34.5223 102.07 34.7877 102.156 35.0664 102.191L35.3516 102.227L35.6357 102.263C35.6927 102.27 35.7245 102.287 35.751 102.31L35.958 102.489L36.165 102.668C36.3353 102.815 36.5173 102.947 36.71 103.06L36.7988 103.111H30.5771L27.9102 99.0225L29.1553 103.111H23.4658L20.6221 96.3555L21.8662 103.111H17.9551L16.7598 98.5957C16.6952 100.376 16.4717 101.756 16.3525 102.985L15.8223 102.934L15.291 102.882C15.4753 100.982 15.8664 98.9609 15.6475 95.7734C15.5985 95.0601 15.5166 94.2884 15.3965 93.4473L12.3408 81.9043C12.3261 81.8629 12.3127 81.8209 12.2979 81.7793L12.3066 81.7754L11.584 79.0469L11.667 79.083ZM94.2217 103.111H90.3252L90.3779 103.064L90.5859 102.882C90.6539 102.822 90.7236 102.784 90.7979 102.76L91.0527 102.678L91.3066 102.595C91.4414 102.551 91.5853 102.517 91.7373 102.491L92.0146 102.444L92.292 102.398C92.5839 102.35 92.8561 102.237 93.0947 102.058L93.3096 101.896L93.5244 101.734C93.5688 101.701 93.6254 101.674 93.708 101.661L93.9922 101.616L94.2754 101.57C94.5414 101.528 94.7951 101.444 95.0293 101.312L95.2637 101.181L95.4033 101.103L94.2217 103.111ZM79.1914 19.2002C81.2031 19.2002 83.1791 19.3526 85.1084 19.6475C85.43 19.6966 85.7504 19.7497 86.0693 19.8066C87.026 19.9775 87.9703 20.1843 88.9014 20.4238C90.1429 20.7433 91.3606 21.1218 92.5508 21.5576C97.3113 23.3008 101.636 25.9493 105.315 29.2939C105.545 29.5028 105.772 29.7145 105.997 29.9287C106.672 30.5722 107.324 31.2395 107.951 31.9297C110.251 34.4597 112.221 37.2945 113.794 40.3662C114.08 40.9246 114.353 41.4908 114.612 42.0645C114.872 42.6381 115.117 43.2195 115.349 43.8076C115.581 44.3959 115.799 44.9909 116.003 45.5928C116.105 45.8935 116.202 46.196 116.297 46.5C116.486 47.1084 116.662 47.723 116.821 48.3438C117.62 51.4472 118.044 54.7011 118.044 58.0537V60.7363C117.952 60.7121 117.858 60.6951 117.763 60.6855L117.175 60.627C117.052 60.6147 116.963 60.5873 116.9 60.5557L116.673 60.4414L116.445 60.3262C116.341 60.2739 116.231 60.2045 116.117 60.1143L115.896 59.9385L115.673 59.7627C115.465 59.5982 115.235 59.4699 114.985 59.3809L114.722 59.2871L114.458 59.1924C114.101 59.065 113.735 59.0881 113.398 59.2363L113.129 59.3555L112.858 59.4736C112.788 59.5047 112.735 59.5097 112.688 59.5039L112.413 59.4707L112.138 59.4365C112.076 59.4289 112.014 59.4256 111.953 59.4258C111.936 59.1814 111.878 58.944 111.77 58.7207L111.652 58.4805L111.535 58.2412C111.498 58.1649 111.472 58.0753 111.463 57.9678L111.438 57.6855L111.429 57.5771C109.857 57.3015 108.025 56.9089 105.949 56.3555C103.389 55.6728 100.726 53.2216 98.2764 50.1328C99.325 55.4998 100.853 58.6593 103.542 58.8447C102.298 58.9632 98.9763 59.9999 92.875 57.4219C86.6732 54.8012 83.6025 49.8481 81.7578 44.7568C82.135 50.367 83.7344 55.5438 85.2646 56.7705C84.1748 56.1581 80.8549 55.116 77.3135 49.5186C76.685 48.5252 76.145 47.5663 75.6807 46.6406C74.0798 50.6345 72.066 51.9021 71.4062 52.5312C72.908 50.5364 72.5827 40.8139 69.2139 35.1904C68.6893 34.3503 67.5845 32.516 64.5342 32.3555C64.3286 32.3446 64.1371 32.3195 63.9609 32.2861L64 32.3555C62.9369 33.3005 61.9855 34.3647 61.166 35.5273L61.0859 35.6416C57.2839 41.2699 58.2926 53.0277 60.248 55.001C59.4313 54.4103 56.8678 53.2704 54.5449 48.4609C52.621 44.4774 52.78 40.6623 53.7666 37.1865C50.0695 44.2522 49.7762 55.4107 51.5596 57.7803C50.6547 56.9175 47.6964 55.0867 45.6484 48.7881C45.6417 48.7673 45.6356 48.7463 45.6289 48.7256C43.6965 52.3041 40.8287 55.4941 36.2666 57.4219C30.1654 59.9999 26.8441 58.9633 25.5996 58.8447C27.4379 58.7179 28.7322 57.2002 29.7031 54.5381C28.5699 55.4188 27.4306 56.0568 26.3105 56.3555C21.9243 57.5251 18.6235 57.9815 16.5801 58.1152C16.5571 58.1974 16.5314 58.2763 16.4971 58.3506L16.2744 58.833C16.2163 58.9586 16.147 59.0824 16.0654 59.2041L15.9941 59.3096L15.9082 59.2744L15.6445 59.167L15.5059 59.1191C15.1802 59.0244 14.8476 59.0578 14.542 59.2002L14.2705 59.3271L14 59.4531C13.9657 59.4691 13.9486 59.4687 13.9219 59.4619L13.6377 59.3896L13.3535 59.3164L13.1914 59.2852C12.8703 59.2439 12.5636 59.3278 12.3076 59.5186L12.1846 59.623L11.9658 59.8301L11.751 60.0342L11.1416 60.0029C10.6982 59.9803 10.2986 60.1686 10.0449 60.5488L9.95508 60.6836V58.0527C9.9551 56.7116 10.0226 55.3862 10.1553 54.0801C10.7523 48.2026 12.6597 42.7125 15.5801 37.9062C15.9046 37.3722 16.2417 36.8468 16.5908 36.3301C17.8127 34.5215 19.1827 32.8214 20.6836 31.2471C21.5413 30.3474 22.4419 29.489 23.3818 28.6748C25.7319 26.6391 28.3285 24.8805 31.1211 23.4502C31.6795 23.1642 32.2457 22.8912 32.8193 22.6318C37.6957 20.4272 43.1091 19.2002 48.8086 19.2002H79.1914ZM103.642 46.2236C105.153 49.1856 107.106 51.6128 109.129 53.4863C109.035 53.2059 108.862 52.9665 108.617 52.7871L108.389 52.6191L108.161 52.4521C108.063 52.3803 107.987 52.3033 107.929 52.2236L107.771 52.0098L107.615 51.7969C107.575 51.7422 107.539 51.6686 107.516 51.5645L107.389 50.9941L107.35 50.8506C107.241 50.5245 107.018 50.2623 106.705 50.0977L106.448 49.9629L106.19 49.8271C106.118 49.7887 106.078 49.7487 106.053 49.71L105.762 49.2607C105.68 49.135 105.604 49.0013 105.534 48.8604L105.411 48.6133L105.289 48.3662C105.181 48.1476 105.046 47.9458 104.886 47.7637L104.709 47.5625L104.532 47.3604C104.434 47.2485 104.341 47.1291 104.256 47.0029L104.103 46.7773L103.95 46.5527C103.863 46.4237 103.758 46.315 103.642 46.2236Z" fill="#303A4B"/>
<path d="M115.472 78.2169L115.666 78.3335L115.777 78.4169L115.883 78.5058C116.119 78.6943 116.203 78.9558 116.205 79.178C116.207 79.3738 116.152 79.5486 116.1 79.6724L115.888 80.1613C115.861 80.2264 115.842 80.3044 115.844 80.4002L115.855 80.9669C115.862 81.3015 115.771 81.6222 115.577 81.9002L115.416 82.128L115.261 82.3558C115.208 82.4319 115.172 82.5089 115.155 82.5891L115.044 83.1113C114.987 83.3776 114.88 83.6301 114.727 83.8558L114.572 84.0835L114.422 84.3113C114.39 84.3579 114.37 84.4032 114.366 84.4613L114.333 85.0169C114.315 85.2951 114.244 85.5627 114.116 85.8113L113.872 86.2891C113.868 86.296 113.855 86.3189 113.866 86.3891L113.966 86.9891C114.024 87.3424 113.964 87.7975 113.572 88.1058L113.405 88.2335C113.404 88.261 113.407 88.2891 113.405 88.3169L113.383 88.5891L113.366 88.8613C113.34 89.2499 113.157 89.5713 112.894 89.8169L112.666 90.0335L112.433 90.2502L112.422 90.2558V90.5058L112.416 90.7835C112.413 90.9203 112.419 91.0632 112.444 91.2113L112.494 91.4946L112.538 91.778C112.585 92.0592 112.58 92.3451 112.505 92.6224L112.433 92.878L112.366 93.1335C112.328 93.2757 112.298 93.4213 112.277 93.5669L112.238 93.8335L112.2 94.0946C112.157 94.3915 112.04 94.6635 111.872 94.9058L111.705 95.1502L111.533 95.3891L111.516 95.4224V95.428L111.55 95.7002L111.633 96.5169L111.661 96.7835L111.688 97.0558C111.708 97.2422 111.726 97.4273 111.738 97.6113L111.755 97.878L111.777 98.1446C111.792 98.3507 111.789 98.5564 111.777 98.7613L111.761 99.0224L111.75 99.2891C111.731 99.6046 111.617 99.8965 111.455 100.156L111.288 100.422L111.122 100.695C111.068 100.781 111.061 100.832 111.061 100.856V101.395C111.061 101.547 111.07 101.7 111.088 101.85L111.155 102.384C111.169 102.497 111.181 102.649 111.155 102.8C111.133 102.926 111.041 103.275 110.666 103.428L110.577 103.461L110.494 103.495C110.353 103.552 110.02 103.632 109.716 103.389C109.471 103.192 109.431 102.919 109.422 102.834L109.4 102.611C109.388 102.504 109.386 102.353 109.383 102.178L109.372 101.645C109.371 101.628 109.367 101.585 109.316 101.511L108.961 101C108.864 100.859 108.791 100.704 108.733 100.545L108.666 100.628C108.605 100.7 108.569 100.768 108.55 100.834L108.477 101.095L108.405 101.35C108.355 101.523 108.301 101.695 108.25 101.867L108.172 102.122L108.1 102.384C108.038 102.588 107.957 102.781 107.861 102.956L107.661 103.322C107.458 103.69 107.106 103.854 106.783 103.906L106.516 103.945L106.25 103.989C106.028 104.024 105.806 104.041 105.583 104.034L105.316 104.022L105.05 104.017C104.772 104.008 104.503 103.94 104.25 103.828L103.983 103.706L103.716 103.589C103.597 103.536 103.469 103.467 103.355 103.378C103.245 103.292 103.105 103.15 103.027 102.939L102.977 102.817L102.933 102.689C102.903 102.607 102.9 102.514 102.883 102.422L102.755 102.595C102.684 102.69 102.621 102.8 102.572 102.917L102.466 103.167L102.361 103.422C102.278 103.619 102.094 103.894 101.738 103.989C101.411 104.075 101.129 103.953 100.972 103.861L100.705 103.706L100.561 103.622L100.405 103.739L100.138 103.928C99.8408 104.137 99.477 104.258 99.0773 104.189L98.8106 104.145L98.544 104.095C98.3742 104.065 98.2025 104.041 98.0329 104.017L97.4995 103.939C97.3406 103.917 97.1802 103.904 97.0217 103.895L96.4884 103.861C96.2824 103.849 96.0391 103.816 95.8273 103.717L95.6995 103.656L95.5662 103.595C95.3305 103.484 95.1953 103.295 95.1106 103.117L94.9995 103.206L94.8717 103.3C94.7855 103.571 94.5809 103.694 94.5273 103.722C94.4054 103.788 94.283 103.802 94.2551 103.806C94.1657 103.819 94.0582 103.826 93.9662 103.828L93.6995 103.834H93.4329C93.3303 103.835 93.2239 103.857 93.1106 103.895L92.844 103.978L92.5773 104.067C92.1562 104.205 91.751 104.108 91.4217 103.884L91.1995 103.728C91.1513 103.748 91.088 103.782 91.0106 103.795C90.9508 103.804 90.8149 103.821 90.6551 103.767C90.4546 103.698 90.2815 103.539 90.2051 103.317C90.1438 103.138 90.1687 102.988 90.1829 102.922C90.1993 102.847 90.2223 102.785 90.2384 102.75L90.2829 102.65L90.3329 102.55L90.5217 102.295C90.6034 102.223 90.7044 102.166 90.8162 102.134C90.944 102.097 91.0602 102.105 91.1495 102.117C91.2683 102.045 91.3946 101.973 91.5273 101.9L91.7662 101.767L92.0051 101.639C92.1445 101.563 92.2734 101.482 92.394 101.4L92.6051 101.256L92.8162 101.117C93.0617 100.95 93.3391 100.856 93.6273 100.822L94.194 100.756C94.2119 100.754 94.2261 100.747 94.2384 100.745L94.2717 100.717L94.3717 100.611C94.4282 100.556 94.6309 100.378 94.944 100.389C95.1362 100.396 95.2791 100.47 95.3829 100.556C95.4036 100.506 95.436 100.457 95.4551 100.4L95.5495 100.128L95.6384 99.8558C95.7481 99.5269 95.9556 99.2486 96.2495 99.0558L96.4829 98.9058L96.7162 98.7502C96.915 98.6199 97.1248 98.516 97.344 98.4391L97.5884 98.3502L97.8273 98.2669C97.9558 98.2218 98.0825 98.1695 98.2051 98.1058L98.4329 97.9835L98.6606 97.8669L98.6662 97.8613C98.6676 97.8592 98.6739 97.8524 98.6773 97.8446L98.7829 97.6058L98.894 97.3613L99.0273 97.1224C99.1795 96.9063 99.385 96.7428 99.6217 96.6335L99.894 96.5113L100.166 96.3835C100.172 96.381 100.174 96.3744 100.177 96.3724L100.272 96.1669L100.366 95.9335L100.572 95.6113C100.815 95.351 101.161 95.2593 101.45 95.2502L101.794 95.2391L101.872 95.2335H101.877L101.911 94.928C101.946 94.5918 102.07 94.2745 102.3 94.0113L102.483 93.8002L102.672 93.5835C102.861 93.3679 103.088 93.1961 103.35 93.078L103.605 92.9669L103.855 92.8502C104.058 92.7587 104.274 92.6851 104.5 92.6224L104.794 92.5391L104.977 92.4891L105.022 92.3169L105.1 92.028C105.188 91.6902 105.381 91.3853 105.7 91.1835L105.916 91.0446L106.138 90.9058C106.16 90.8914 106.194 90.8602 106.233 90.7835L106.372 90.5169L106.505 90.2502C106.597 90.0683 106.685 89.9091 106.761 89.7724L106.866 89.5835L106.972 89.3891L107.338 88.7169L107.472 88.4669C107.579 88.2687 107.702 88.0851 107.838 87.9224L107.988 87.7446L108.138 87.5613C108.155 87.5412 108.186 87.4916 108.211 87.3891L108.283 87.1113L108.35 86.8335C108.4 86.6261 108.461 86.4164 108.533 86.2058L108.733 85.628L108.855 85.3558C109.008 85.1009 109.247 84.8997 109.566 84.8058L109.827 84.7335L110 84.678L110.066 84.5169L110.155 84.2669C110.222 84.0832 110.297 83.904 110.377 83.728L110.488 83.4891L110.594 83.2502C110.607 83.2225 110.619 83.1818 110.611 83.1113L110.577 82.828L110.538 82.5391C110.497 82.1955 110.566 81.8601 110.744 81.5613L111.033 81.0724C111.105 80.9509 111.16 80.8392 111.194 80.7335L111.35 80.2446C111.42 80.0273 111.517 79.8177 111.638 79.6169L111.788 79.3724L111.933 79.1335L112.161 78.8613C112.251 78.7836 112.355 78.7189 112.472 78.6724C112.583 78.6282 112.696 78.6047 112.805 78.5946L113.122 78.6002L113.472 78.6446L113.816 78.6891C113.914 78.7013 113.952 78.6813 113.966 78.6724L114.222 78.5113L114.483 78.3558C114.602 78.2825 114.759 78.197 114.938 78.1613C115.081 78.1331 115.277 78.1334 115.472 78.2169ZM12.0773 78.4446L12.3384 78.5002L12.594 78.5558C12.763 78.5916 12.9331 78.624 13.0995 78.6558L13.3551 78.7058L13.6106 78.7502C13.7558 78.7779 13.9137 78.8031 14.0773 78.8169L14.3551 78.8391L14.6384 78.8613C14.8228 78.8769 14.9764 78.8908 15.0995 78.9002L15.2884 78.9169L15.4773 78.928C15.9242 78.962 16.2079 79.2638 16.3662 79.5169L16.5162 79.7613L16.6717 80.0002C16.8839 80.3405 16.9242 80.7229 16.8384 81.0891L16.7606 81.4002L16.7106 81.6113L16.8551 81.7446L17.0829 81.9502C17.354 82.1981 17.5416 82.5393 17.5384 82.9502V83.2113L17.5329 83.4724C17.5316 83.6214 17.5409 83.7762 17.5551 83.9335L17.5773 84.2058L17.594 84.4169L17.7773 84.5446L17.9995 84.7058C18.2484 84.8815 18.4439 85.1118 18.5773 85.3835L18.6995 85.6335L18.8217 85.8891C18.8966 86.0416 18.9693 86.1745 19.0384 86.2891L19.1606 86.4946L19.2884 86.6946C19.3895 86.8623 19.4784 87.0454 19.5606 87.2391L19.6662 87.4946L19.7662 87.7169L20.0273 87.8224L20.2995 87.928C20.5008 88.0063 20.6927 88.1426 20.8329 88.3502C20.9018 88.4525 20.9523 88.5594 20.9829 88.6669L21.0273 88.9891L21.0329 89.2946L21.044 89.6002C21.0462 89.7076 21.064 89.7867 21.094 89.8446L21.2217 90.0891L21.3051 90.2558L21.5217 90.2891L21.8106 90.328C22.139 90.3752 22.4357 90.5154 22.6884 90.7224L23.1662 91.1113C23.4819 91.3699 23.6602 91.7266 23.6884 92.128L23.7106 92.4446L23.7217 92.6446L23.8662 92.7058L24.1384 92.8224C24.4614 92.9609 24.7236 93.1961 24.8884 93.5169L25.0162 93.7669L25.144 94.0113C25.1924 94.1056 25.2497 94.1871 25.3217 94.2558L25.7217 94.6335C25.7798 94.6885 25.8528 94.7341 25.944 94.7669L26.2106 94.8613L26.4773 94.9613C26.7672 95.0656 27.0262 95.2328 27.2273 95.4724L27.3995 95.6835L27.5717 95.8891C27.6913 96.0318 27.809 96.1741 27.9217 96.3169L28.244 96.728C28.3762 96.8954 28.4945 97.0725 28.594 97.2558L28.7106 97.4724L28.8217 97.6669C28.8278 97.6704 28.8361 97.682 28.8551 97.6891L29.1384 97.7946L29.4162 97.9002C29.5663 97.9565 29.7094 97.9926 29.844 98.0169L30.3884 98.1169C30.7437 98.1813 31.0489 98.3656 31.2662 98.6558L31.4273 98.878L31.594 99.0946C31.7002 99.2367 31.8055 99.3761 31.9106 99.5113L32.0717 99.7224L32.2106 99.9002L32.494 99.928L32.7884 99.9558C33.1049 99.9861 33.4078 100.095 33.6662 100.3L33.8773 100.461L34.0829 100.628C34.285 100.788 34.4611 100.982 34.6106 101.2L34.9551 101.711L35.1884 101.75L35.4495 101.795C35.6955 101.835 35.9358 101.912 36.1551 102.028L36.3717 102.139L36.5884 102.256C36.6911 102.31 36.9099 102.436 37.0329 102.684C37.105 102.829 37.1359 103.008 37.0995 103.195C37.065 103.371 36.9805 103.504 36.9051 103.589L36.7995 103.706L36.6995 103.822C36.4679 104.085 36.1514 104.136 35.9051 104.095C35.6969 104.06 35.5209 103.959 35.3995 103.878L34.8662 103.522C34.8416 103.506 34.8264 103.502 34.8217 103.5L34.5773 103.539L34.3106 103.584C34.0811 103.62 33.8474 103.632 33.6162 103.617L33.0829 103.584C32.8999 103.572 32.7158 103.555 32.5329 103.539L31.9995 103.495C31.888 103.485 31.7749 103.49 31.6606 103.511L31.1273 103.611C30.817 103.67 30.5049 103.644 30.2106 103.522L29.9662 103.422L29.7217 103.317C29.6537 103.289 29.6002 103.237 29.5384 103.2C29.3993 103.587 29.0729 103.785 28.8051 103.867L28.5384 103.945L28.2717 104.028C27.9208 104.135 27.5646 104.103 27.2384 103.956L26.9717 103.834L26.7051 103.717C26.6872 103.709 26.6763 103.706 26.6717 103.706C26.6704 103.706 26.6644 103.703 26.6551 103.706L26.3884 103.784L26.1217 103.856C25.7656 103.955 25.4102 103.911 25.0884 103.756L24.5551 103.5C24.5101 103.479 24.4958 103.487 24.4884 103.489L23.9551 103.611C23.7913 103.649 23.5038 103.679 23.2273 103.517C22.9202 103.336 22.818 103.031 22.794 102.822L22.7717 102.589L22.744 102.356C22.7367 102.294 22.7135 102.216 22.6662 102.122L22.544 101.884L22.4273 101.645L22.2329 101.378C22.2712 101.463 22.3115 101.548 22.3495 101.634L22.4606 101.889L22.5717 102.139C22.6575 102.333 22.7043 102.567 22.6495 102.817C22.5951 103.063 22.4585 103.256 22.3106 103.395L22.0995 103.589L21.894 103.784C21.7415 103.926 21.5412 104.043 21.2995 104.084C21.0584 104.124 20.8328 104.077 20.644 103.995L20.1106 103.761C20.0473 103.734 20.0048 103.734 19.9717 103.739L19.7051 103.778L19.4384 103.822C19.228 103.855 19.0167 103.87 18.8051 103.872L18.5384 103.878H18.2717C18.0627 103.88 17.8101 103.83 17.594 103.65C17.382 103.473 17.2835 103.242 17.244 103.045L17.194 102.772L17.1884 102.75C17.115 102.902 17.022 103.033 16.8995 103.134L16.5106 103.456C16.3461 103.591 16.117 103.704 15.8384 103.695C15.5676 103.686 15.3493 103.563 15.1995 103.439L14.9884 103.267L14.7829 103.095C14.628 102.967 14.488 102.789 14.4162 102.561C14.3448 102.334 14.3555 102.111 14.4106 101.917L14.4829 101.656L14.5606 101.395C14.5952 101.272 14.6153 101.15 14.6217 101.028L14.6329 100.761L14.6495 100.495C14.6605 100.287 14.6836 100.078 14.7217 99.8724L14.8217 99.3502C14.857 99.1605 14.8961 98.9682 14.944 98.778L15.0106 98.5169L15.0773 98.2502C15.1124 98.1106 15.1373 97.9684 15.1495 97.828L15.194 97.2946C15.1943 97.2903 15.1987 97.2666 15.1606 97.2058L14.8384 96.6835C14.6316 96.3524 14.5592 95.9657 14.6773 95.5724L14.844 95.028C14.8784 94.9139 14.8907 94.8052 14.8884 94.7058L14.8773 94.1724C14.873 93.9857 14.8699 93.794 14.8717 93.6002L14.8773 93.3224V93.0391C14.8775 93.005 14.8735 92.979 14.8495 92.9446L14.6829 92.7113L14.5217 92.478C14.3265 92.2009 14.2237 91.8812 14.2329 91.5391L14.244 91.2613L14.2495 90.9835C14.2508 90.9308 14.2417 90.8885 14.2162 90.8446L14.0717 90.6058L13.9329 90.3669C13.7725 90.0917 13.695 89.7846 13.7051 89.4669L13.7273 88.9113V88.9058L13.7217 88.8946C13.7196 88.8908 13.7122 88.8869 13.7051 88.878L13.5273 88.6502L13.344 88.4224C13.1411 88.1699 13.0116 87.8703 12.9829 87.5391L12.9606 87.2724L12.9329 87.0002C12.927 86.9327 12.9072 86.8676 12.8662 86.8002L12.7217 86.5613L12.5773 86.328C12.3965 86.0311 12.3281 85.6968 12.3662 85.3558L12.3995 85.0724L12.4273 84.7891C12.4335 84.7336 12.4263 84.6967 12.4106 84.6669L12.2829 84.428L12.1606 84.1835C11.991 83.8595 11.9581 83.5085 12.0329 83.1669L12.094 82.8724L12.1606 82.5835C12.166 82.5589 12.1607 82.5446 12.1606 82.5446L12.1662 82.5502L12.0273 82.3113L11.894 82.0724C11.7795 81.868 11.6921 81.6514 11.6273 81.428L11.5495 81.1724L11.4773 80.9169C11.4498 80.8222 11.4047 80.7256 11.3384 80.628L11.1773 80.3946L11.0217 80.1613C10.9488 80.0539 10.8684 79.92 10.8217 79.7669C10.7757 79.6152 10.7402 79.3645 10.8662 79.1058L10.9217 78.9946L10.9717 78.8835L11.1051 78.6891C11.2521 78.5276 11.4411 78.4496 11.594 78.4224C11.6849 78.4063 11.7738 78.4061 11.8551 78.4113L12.0773 78.4446ZM96.2829 101.895C96.2828 101.899 96.2859 101.908 96.2884 101.922L96.3384 102.206L96.3662 102.395L96.4329 102.428L96.5717 102.439L97.1051 102.472C97.3022 102.484 97.5029 102.506 97.6995 102.534L97.9662 102.567L98.2329 102.606C98.4177 102.632 98.6036 102.662 98.7884 102.695L99.0551 102.739L99.2884 102.784C99.295 102.78 99.3072 102.777 99.3217 102.767L99.8551 102.389C100.028 102.267 100.242 102.177 100.488 102.161C100.738 102.146 100.964 102.212 101.155 102.322L101.25 102.378L101.261 102.367C101.353 102.145 101.473 101.936 101.616 101.745L101.777 101.528L101.938 101.317C102.084 101.122 102.251 100.944 102.444 100.789L102.672 100.611L102.894 100.434C103.014 100.338 103.118 100.232 103.211 100.128L103.344 99.9724L103.327 99.7558L103.305 99.478C103.3 99.4246 103.294 99.3627 103.294 99.3058C103.294 99.2785 103.293 99.2341 103.3 99.1835C103.303 99.1576 103.313 99.1159 103.327 99.0669C103.34 99.0254 103.368 98.9274 103.444 98.828C103.529 98.7171 103.704 98.5662 103.972 98.5502C104.213 98.5359 104.385 98.6407 104.455 98.6946C104.578 98.7896 104.638 98.9061 104.65 98.928L104.733 99.1113L104.805 99.328L104.883 99.5391C105.038 99.9791 104.888 100.385 104.638 100.667L104.594 100.706C104.566 100.761 104.556 100.825 104.522 100.878L104.211 101.356C104.192 101.385 104.192 101.401 104.194 101.422L104.238 101.978C104.245 102.057 104.254 102.12 104.261 102.161C104.267 102.2 104.27 102.21 104.266 102.2L104.294 102.289L104.561 102.406L104.827 102.528C104.928 102.573 105.016 102.592 105.094 102.595L105.361 102.6L105.627 102.611C105.759 102.616 105.894 102.605 106.027 102.584L106.294 102.545L106.477 102.511L106.516 102.45L106.616 102.272C106.653 102.206 106.692 102.107 106.733 101.972L106.888 101.461C106.939 101.293 106.99 101.124 107.038 100.956L107.183 100.445C107.262 100.17 107.404 99.9221 107.588 99.7058L107.772 99.4835L107.961 99.2669C108 99.2205 108.011 99.1826 108.016 99.1446L108.055 98.878L108.094 98.6058C108.133 98.3283 108.23 98.0662 108.377 97.828L108.516 97.5946L108.661 97.3669C108.723 97.2665 108.772 97.1593 108.822 97.0558C108.836 96.9064 108.876 96.7498 108.966 96.6002L109.055 96.4558L109.144 96.3058C109.157 96.285 109.191 96.2292 109.233 96.178C109.244 96.164 109.274 96.127 109.316 96.0891C109.337 96.0702 109.381 96.0387 109.438 96.0058C109.487 95.9779 109.612 95.9122 109.788 95.9113C109.918 95.9107 110.04 95.9474 110.15 96.0113L110.133 95.8446L110.105 95.5724C110.067 95.2082 110.165 94.8679 110.366 94.578L110.538 94.3335L110.705 94.0946C110.761 94.0143 110.786 93.9478 110.794 93.8946L110.827 93.628L110.866 93.3669C110.895 93.1634 110.935 92.9598 110.988 92.7613L111.061 92.5058L111.127 92.2502C111.145 92.1859 111.155 92.1092 111.138 92.0113L111.088 91.728L111.044 91.4446C111.006 91.2138 110.989 90.9793 110.994 90.7502L111.005 90.2058L111.038 89.9113C111.106 89.6351 111.263 89.401 111.466 89.2113L111.922 88.778C111.937 88.7636 111.946 88.755 111.95 88.7502L111.966 88.4946L111.977 88.2446C111.943 88.1643 111.921 88.0856 111.916 88.0113C111.904 87.7975 111.99 87.6417 112.011 87.6058C112.066 87.5089 112.138 87.4396 112.155 87.4224C112.211 87.3678 112.277 87.3095 112.338 87.2613L112.516 87.1224L112.538 87.1002L112.511 86.9224L112.461 86.6224C112.406 86.2927 112.445 85.9515 112.605 85.6391L112.85 85.1613C112.885 85.0909 112.905 85.0123 112.911 84.9224L112.933 84.6502L112.95 84.3724C112.97 84.0631 113.07 83.7742 113.244 83.5169L113.394 83.2891L113.55 83.0558C113.602 82.9778 113.637 82.9 113.655 82.8169L113.711 82.5502L113.766 82.2891C113.824 82.0194 113.937 81.7707 114.094 81.5446L114.25 81.3169L114.411 81.0891C114.428 81.0648 114.434 81.0391 114.433 80.9946L114.422 80.428C114.419 80.288 114.419 80.1471 114.444 80.0113C114.187 80.1079 113.915 80.1337 113.644 80.1002L113.294 80.0558L113.055 80.0224L113.005 80.1113L112.861 80.3502C112.79 80.4671 112.739 80.5791 112.705 80.6835L112.622 80.928L112.544 81.1669C112.474 81.3845 112.376 81.5969 112.255 81.8002L111.966 82.2891C111.951 82.3146 111.945 82.3328 111.95 82.3669L111.988 82.6502L112.022 82.9335C112.06 83.2415 112.022 83.5548 111.888 83.8446L111.777 84.0835L111.666 84.3169C111.602 84.4572 111.542 84.6025 111.488 84.7502L111.311 85.2502C111.171 85.6363 110.873 85.9037 110.488 86.0169L110.227 86.0946L110.055 86.1446L109.977 86.378L109.877 86.6613C109.818 86.8347 109.773 87.0082 109.733 87.1724L109.661 87.4502L109.594 87.728C109.528 87.9974 109.413 88.2576 109.227 88.478L109.077 88.6558L108.922 88.8391C108.858 88.9156 108.791 89.0164 108.722 89.1446L108.588 89.3891L108.455 89.6391C108.366 89.8045 108.283 89.9538 108.211 90.0835L108 90.4613C107.935 90.5782 107.859 90.7228 107.772 90.8946L107.505 91.428C107.367 91.701 107.168 91.9409 106.9 92.1113L106.677 92.2502L106.477 92.3724C106.476 92.3762 106.479 92.383 106.477 92.3891L106.4 92.6724L106.327 92.9558C106.212 93.3979 105.895 93.7077 105.466 93.828L105.172 93.9113L104.883 93.9891C104.72 94.0343 104.571 94.0907 104.438 94.1502L104.188 94.2613L103.938 94.378C103.866 94.4106 103.802 94.4565 103.744 94.5224L103.555 94.7335L103.372 94.9446C103.355 94.9643 103.33 94.9978 103.322 95.0724L103.288 95.3835L103.261 95.6946C103.235 95.9333 103.132 96.2008 102.894 96.4002C102.669 96.5882 102.406 96.6431 102.194 96.6502L101.844 96.6613L101.6 96.6669L101.583 96.7113L101.488 96.9446C101.343 97.2947 101.072 97.5342 100.761 97.678L100.488 97.8002L100.216 97.928C100.203 97.9342 100.193 97.936 100.188 97.9391L100.083 98.178L99.9773 98.4224C99.8423 98.7268 99.6166 98.9718 99.3162 99.128L99.0884 99.2502L98.8606 99.3669C98.6789 99.4614 98.492 99.5438 98.2995 99.6113L98.0551 99.6946L97.8162 99.778C97.7147 99.8136 97.6059 99.8657 97.494 99.9391L97.2606 100.095L97.0273 100.245C97.0096 100.256 97.0003 100.27 96.9884 100.306L96.894 100.578L96.8051 100.85C96.7313 101.071 96.6381 101.281 96.5273 101.472L96.4051 101.689L96.2829 101.895ZM12.6162 80.0058C12.7097 80.1699 12.7912 80.3406 12.844 80.5224L12.9162 80.778L12.994 81.0335C13.028 81.1507 13.0753 81.2655 13.1384 81.378L13.4051 81.8558L13.5162 82.1058C13.5995 82.3588 13.6058 82.6242 13.5495 82.8835L13.4829 83.178L13.4217 83.4724C13.4155 83.5012 13.4159 83.5144 13.4162 83.5169V83.5224L13.6717 84.0113C13.8245 84.3039 13.8801 84.6217 13.844 84.9446L13.7773 85.5113C13.7731 85.5491 13.782 85.5694 13.794 85.5891L13.9384 85.8224L14.0829 86.0613C14.2346 86.3106 14.3241 86.586 14.3495 86.878L14.3773 87.1446L14.3995 87.4169C14.402 87.4448 14.41 87.4784 14.4495 87.528L14.8162 87.9835C15.0383 88.26 15.155 88.5928 15.144 88.9558L15.1384 89.2391L15.1273 89.5169C15.126 89.568 15.1363 89.6082 15.1606 89.6502L15.2995 89.8891L15.444 90.128C15.6038 90.4019 15.6802 90.7058 15.6717 91.0224L15.6606 91.3002L15.6551 91.578C15.6543 91.6063 15.6597 91.6284 15.6829 91.6613L15.844 91.8946L16.0106 92.1224C16.2042 92.3971 16.3028 92.7176 16.2995 93.0558V93.3335L16.294 93.6113C16.2922 93.7904 16.2956 93.9683 16.2995 94.1391L16.3106 94.6724C16.3166 94.9307 16.2802 95.19 16.2051 95.4391L16.1217 95.7113L16.0495 95.9391L16.2051 96.1891L16.3662 96.4502C16.5447 96.7354 16.6414 97.0635 16.6106 97.4169L16.5884 97.6835L16.5662 97.9558C16.5472 98.1723 16.5085 98.3882 16.4551 98.6002L16.4051 98.8058C16.4097 98.7919 16.4144 98.7738 16.4217 98.7558C16.426 98.7453 16.4387 98.7111 16.4606 98.6724C16.4709 98.6542 16.4949 98.6126 16.5329 98.5669C16.5531 98.5425 16.6642 98.4089 16.8662 98.3446C16.9887 98.3059 17.1496 98.2922 17.3162 98.3502C17.477 98.4068 17.5834 98.5109 17.644 98.5891C17.7481 98.7239 17.7717 98.8605 17.7773 98.8891C17.7934 98.9726 17.7943 99.0416 17.794 99.0502C17.7927 99.0845 17.7897 99.1126 17.7884 99.1224L17.7606 99.2891C17.7602 99.2917 17.7563 99.2967 17.7551 99.3058C17.7531 99.3204 17.7525 99.342 17.7495 99.3669C17.7434 99.4184 17.7366 99.4901 17.7273 99.578L17.6995 99.8446L17.6662 100.111C17.663 100.141 17.6484 100.171 17.644 100.2L17.6884 100.278L17.8273 100.517C17.9302 100.697 18.0227 100.88 18.1051 101.067L18.2162 101.317L18.3273 101.561C18.4211 101.774 18.4873 101.998 18.5329 102.228L18.5773 102.45H18.7884C18.9315 102.449 19.0774 102.44 19.2217 102.417L19.4884 102.372L19.7551 102.334C20.0767 102.283 20.3916 102.334 20.6829 102.461L20.9495 102.578L21.0495 102.617L21.1273 102.55L21.1717 102.5L21.1606 102.467L21.0495 102.211C20.9762 102.046 20.9018 101.882 20.8273 101.717L20.7162 101.467L20.5995 101.217C20.4412 100.867 20.4442 100.498 20.5606 100.156L20.6606 99.8669L20.7551 99.578C20.7571 99.5719 20.7598 99.5648 20.7606 99.5613L20.644 99.3335L20.5217 99.0891C20.3837 98.8108 20.322 98.5051 20.344 98.1946L20.3662 97.9224L20.3773 97.6835L20.1606 97.4502L19.9384 97.2224C19.8969 97.1788 19.8467 97.122 19.8051 97.0669C19.7865 97.0422 19.7489 96.9904 19.7162 96.9224C19.6997 96.888 19.6705 96.8125 19.6551 96.7169C19.6406 96.6263 19.6226 96.4264 19.7495 96.2224C19.8894 95.9977 20.1079 95.9176 20.244 95.8946C20.3643 95.8748 20.4611 95.8915 20.5051 95.9002C20.5947 95.9181 20.6665 95.9486 20.694 95.9613C20.7596 95.9918 20.828 96.0303 20.8773 96.0613L21.1384 96.228L21.3995 96.3891C21.6474 96.5451 21.8445 96.7671 21.9495 97.0446L22.0217 97.3446L22.0551 97.6169L22.0884 97.8946C22.0991 97.9764 22.1272 98.0439 22.1662 98.1058L22.4551 98.5613C22.6067 98.8021 22.7011 99.0688 22.7384 99.3502L22.7717 99.628L22.8106 99.9002C22.8139 99.9248 22.8193 99.947 22.8495 99.978L23.0495 100.184L23.2495 100.384C23.4297 100.568 23.5787 100.778 23.694 101.006L23.9384 101.484C24.0375 101.68 24.0975 101.889 24.1329 102.106L24.1717 102.1C24.5197 102.021 24.8615 102.073 25.1717 102.222L25.7051 102.478C25.7146 102.483 25.7227 102.482 25.7273 102.484L25.7329 102.489L25.7384 102.484L26.2717 102.339C26.619 102.242 26.9683 102.273 27.2884 102.417L27.8217 102.661C27.8318 102.666 27.8402 102.666 27.844 102.667H27.8551L28.1217 102.584L28.2384 102.545L28.2662 102.406C28.2749 102.357 28.2817 102.266 28.2717 102.122L28.2384 101.578C28.2351 101.53 28.2178 101.488 28.1829 101.439L28.0217 101.211L27.8606 100.978C27.7146 100.772 27.6059 100.548 27.5384 100.306C27.4204 100.173 27.2961 99.9849 27.2995 99.7224V99.578L27.3051 99.4335L27.3106 99.3391C27.3132 99.3149 27.324 99.2231 27.3662 99.1224C27.3873 99.0727 27.4437 98.9458 27.5773 98.8391C27.656 98.7765 27.7512 98.7363 27.8495 98.7113C27.7468 98.6162 27.6551 98.5049 27.5829 98.3724L27.4606 98.1502L27.344 97.9335C27.2857 97.8262 27.2168 97.7179 27.1329 97.6113L26.9662 97.4058L26.8051 97.2002C26.701 97.0684 26.594 96.9328 26.4829 96.8002L26.1384 96.3891C26.1092 96.3542 26.0667 96.3247 25.9995 96.3002L25.7273 96.2002L25.4606 96.1058C25.1931 96.0095 24.9509 95.8628 24.744 95.6669L24.544 95.478L24.3495 95.2891C24.1576 95.1074 23.9983 94.8967 23.8773 94.6613L23.7495 94.4169L23.6217 94.1669C23.6165 94.1567 23.6125 94.1519 23.6106 94.1502C23.6072 94.1473 23.5971 94.1421 23.5773 94.1335L23.3051 94.0169L23.0384 93.9002C22.8389 93.8148 22.6507 93.6772 22.5162 93.478C22.3843 93.2822 22.3304 93.0644 22.3162 92.8613L22.2717 92.228V92.2224C22.2718 92.2224 22.2713 92.2155 22.2662 92.2113L22.0273 92.0169L21.7829 91.8224C21.7166 91.7682 21.6633 91.7414 21.6106 91.7335L21.0329 91.6558C20.6264 91.5975 20.2844 91.3678 20.0884 90.9891L19.9606 90.7446L19.8329 90.4946C19.6938 90.2251 19.6283 89.9337 19.6217 89.6335L19.6162 89.328L19.6106 89.1891L19.5106 89.1502L19.244 89.0446C18.896 88.9098 18.6174 88.657 18.4662 88.3002L18.3606 88.0502L18.2495 87.7946C18.1897 87.6537 18.1278 87.5301 18.0662 87.428L17.944 87.228L17.8217 87.0224C17.7283 86.8673 17.6336 86.6994 17.544 86.5169L17.4217 86.2613L17.2995 86.0113C17.2677 85.9464 17.2255 85.9008 17.1773 85.8669L16.9551 85.7113L16.7329 85.5502C16.415 85.3256 16.2237 84.9945 16.1884 84.6058L16.1606 84.3335L16.1384 84.0669C16.12 83.8637 16.1089 83.66 16.1106 83.4613L16.1162 83.2002V82.9946L15.8995 82.7946L15.6717 82.5891C15.5145 82.4453 15.3834 82.2598 15.3162 82.0335C15.2494 81.8088 15.2575 81.5854 15.3051 81.3835L15.3773 81.0724L15.4495 80.7669C15.4522 80.7553 15.449 80.7442 15.4495 80.7391L15.3106 80.5113L15.1995 80.3335H15.1829L14.994 80.3169C14.8651 80.307 14.7038 80.2938 14.5162 80.278L14.2384 80.2558L13.9551 80.2335C13.7462 80.2159 13.5407 80.1878 13.344 80.1502L12.8329 80.0502C12.7607 80.0364 12.6887 80.0202 12.6162 80.0058ZM93.794 102.234C93.7077 102.243 93.6517 102.265 93.6162 102.289L93.4384 102.411H93.6773L93.7162 102.406C93.7774 102.35 93.8454 102.294 93.9106 102.245L93.9495 102.211L93.794 102.234ZM28.7329 99.2446C28.7465 99.2886 28.7595 99.34 28.7717 99.3891L28.7773 99.4113L28.8773 99.4558L29.1829 99.5724C29.3851 99.6524 29.5862 99.7875 29.7329 100C29.8802 100.215 29.9342 100.456 29.9329 100.678V101L29.9273 101.317C29.9265 101.429 29.9519 101.486 29.9662 101.511L30.0995 101.745L30.2329 101.972C30.2401 101.985 30.242 101.993 30.244 101.995C30.2453 101.996 30.2528 102 30.2662 102.006L30.7551 102.206C30.7869 102.219 30.8171 102.225 30.8606 102.217L31.394 102.117C31.634 102.071 31.879 102.057 32.1217 102.078L32.6551 102.122C32.8275 102.137 33.0049 102.156 33.1773 102.167L33.444 102.184L33.5606 102.189L33.4329 102.006C33.3509 101.886 33.2736 101.798 33.1995 101.739L32.9884 101.578L32.7829 101.411C32.7645 101.397 32.7304 101.38 32.6551 101.372L32.3606 101.345L32.0662 101.311C31.7003 101.276 31.3542 101.119 31.1106 100.806L30.9495 100.595L30.7884 100.389C30.6777 100.247 30.5664 100.099 30.4551 99.9502L30.2884 99.728L30.1329 99.5169L29.8662 99.4669L29.594 99.4169C29.3676 99.3762 29.1399 99.3175 28.9162 99.2335L28.6884 99.1446C28.7082 99.1917 28.7276 99.2277 28.7329 99.2446ZM15.8273 102.117L15.8551 102.139L15.844 102.072L15.8273 102.117ZM16.1217 100.134C16.1064 100.216 16.103 100.301 16.094 100.384L16.1551 100.267C16.1431 100.189 16.1373 100.112 16.1384 100.034L16.1217 100.134ZM110.361 98.5002C110.335 98.5939 110.309 98.6884 110.266 98.778L110.138 99.0446L110.011 99.3058C109.98 99.369 109.973 99.4112 109.977 99.4446L110.011 99.7169L110.016 99.7724L110.083 99.6724L110.25 99.4002C110.311 99.3019 110.325 99.2396 110.327 99.2058L110.344 98.9391L110.361 98.678C110.364 98.6189 110.36 98.5596 110.361 98.5002ZM110.277 97.3058L110.266 97.3224L110.294 97.4446C110.289 97.3912 110.288 97.3373 110.283 97.2835L110.277 97.3058ZM112.955 87.3446C112.992 87.3602 113.019 87.3866 113.05 87.4058C113.017 87.3815 112.986 87.3608 112.955 87.3446ZM72.7717 48.7446C72.7719 48.7454 72.7749 48.7541 72.7773 48.7613L72.8662 49.0335L72.9606 49.3058C73.0518 49.5767 73.0874 49.859 73.0606 50.1446L73.0495 50.2391L73.1217 50.1446L73.2884 49.928C73.3255 49.8785 73.3559 49.8115 73.3717 49.7224L73.4217 49.4391L73.4717 49.1502L73.5551 48.8669C73.6643 48.6015 73.8516 48.3838 74.0995 48.228L74.3606 48.0669L74.5217 47.9613L74.5162 47.7669L74.5051 47.4669C74.4993 47.3079 74.5159 47.0921 74.6217 46.8835C74.7463 46.64 74.9683 46.4666 75.2384 46.4058L75.4217 46.3613L75.6106 46.3224L75.9884 46.3113C76.1158 46.3355 76.2399 46.392 76.3551 46.478C76.4539 46.5518 76.5311 46.6358 76.5884 46.7224L76.7162 46.9724L76.8106 47.228L76.9051 47.478C76.9638 47.6347 77.0274 47.7907 77.094 47.9446L77.1995 48.1891L77.3051 48.4391C77.3813 48.6152 77.4535 48.795 77.5217 48.978L77.6162 49.2335L77.7162 49.4946C77.7207 49.5067 77.7253 49.5252 77.7662 49.5502L78.0162 49.7002L78.2717 49.8558C78.5586 50.0318 78.7805 50.2855 78.9106 50.6058L79.1217 51.1169C79.126 51.1266 79.131 51.1315 79.1329 51.1335C79.1364 51.1371 79.1435 51.1462 79.1606 51.1558L79.6606 51.4335C79.9025 51.5678 80.1159 51.7442 80.2884 51.9613L80.4551 52.1669L80.6162 52.3724L81.1162 53.0058L81.2773 53.2169C81.3749 53.3416 81.4803 53.4606 81.5884 53.578L81.7717 53.778L81.9495 53.9724C81.9643 53.9885 81.9908 54.0094 82.0495 54.0224L82.6162 54.1446C82.7187 54.1674 82.8186 54.1983 82.9162 54.2335C82.866 54.0741 82.8449 53.9055 82.8495 53.7335L82.8551 53.4502L82.8662 53.1669C82.8688 53.0688 82.8487 52.9888 82.8217 52.9224L82.7273 52.678L82.6273 52.4335C82.5773 52.3105 82.5109 52.1851 82.4329 52.0613L82.2829 51.828L82.1384 51.5891C81.9615 51.3084 81.8761 50.9937 81.894 50.6613L81.9106 50.3835L81.9217 50.1058C81.9278 49.9905 81.9189 49.8832 81.894 49.7835L81.8273 49.528L81.7662 49.2669C81.7107 49.0446 81.6773 48.8186 81.6717 48.5891L81.6662 48.3169L81.6606 48.0502C81.6588 47.9828 81.6442 47.9115 81.6051 47.8335L81.3495 47.3335C81.1754 46.9866 81.1593 46.6076 81.2829 46.2502L81.3773 45.9724L81.4773 45.7002C81.5106 45.604 81.4926 45.5834 81.4995 45.6113L81.444 45.3946L81.394 45.1835C81.3844 45.1452 81.3686 45.0882 81.3606 45.0335C81.3593 45.0241 81.348 44.9339 81.3606 44.828C81.3646 44.7952 81.3708 44.7378 81.394 44.6724C81.4159 44.6108 81.4697 44.4948 81.5829 44.3891C81.7142 44.2672 81.8917 44.196 82.0829 44.2002C82.2489 44.204 82.3711 44.2633 82.4329 44.3002C82.5452 44.3676 82.611 44.4518 82.6273 44.4724C82.653 44.5049 82.673 44.5341 82.6829 44.5502C82.7031 44.5832 82.7181 44.6148 82.7273 44.6335C82.7468 44.6733 82.7698 44.7172 82.7884 44.7613L82.8884 45.0058L82.994 45.2502C83.0929 45.4851 83.1504 45.7336 83.1717 45.9891L83.194 46.2724L83.2162 46.5335L83.4384 46.7224L83.6606 46.9058C84.0385 47.2247 84.1394 47.6751 84.0606 48.1002L83.9995 48.4335L83.9717 48.5724L84.0717 48.6224L84.3551 48.7669C84.6696 48.9253 84.9401 49.176 85.0829 49.5335L85.1829 49.778L85.2829 50.028C85.3657 50.2356 85.4299 50.4561 85.4773 50.6835L85.5384 50.9724L85.5717 51.1502L85.7884 51.228L86.0884 51.328C86.2935 51.3991 86.4906 51.5256 86.644 51.7169C86.796 51.9065 86.8719 52.1226 86.8995 52.3335L86.944 52.6558L86.9662 52.8446L87.3995 52.978C87.6913 53.0685 87.96 53.2237 88.1773 53.4502L88.3606 53.6391L88.5495 53.8335C88.7119 54.0032 88.8543 54.1932 88.9773 54.4002L89.1217 54.6502L89.2606 54.8724L89.5217 54.9335L89.8106 54.9946C90.1177 55.0605 90.4001 55.1974 90.6329 55.4169L90.8273 55.6058L91.0273 55.7946C91.1213 55.8832 91.2248 55.9588 91.3329 56.0224L91.5606 56.1558L91.794 56.2946C91.9185 56.368 92.0493 56.4294 92.1829 56.4835L92.4329 56.5891L92.6773 56.6891C92.7507 56.7188 92.8383 56.7337 92.944 56.7335H93.5217C93.8915 56.732 94.2316 56.8616 94.5051 57.1113L94.7162 57.3058L94.9329 57.5002C95.0135 57.5738 95.0924 57.6249 95.1717 57.6558L95.4217 57.7502L95.6717 57.8502C95.7374 57.8758 95.8118 57.8894 95.8995 57.8835L96.1773 57.8613L96.4606 57.8446C96.792 57.823 97.1095 57.9022 97.394 58.0724L97.6384 58.2169L97.8773 58.3613C97.9954 58.432 98.1193 58.4866 98.244 58.528L98.5051 58.6169L98.7662 58.7002C98.8286 58.7209 98.8912 58.7289 98.9606 58.7169L99.2329 58.6669L99.5106 58.6224C99.7845 58.5751 100.061 58.5794 100.333 58.6391L100.6 58.7002L100.872 58.7558L100.877 58.7613L100.883 58.7558C100.887 58.7542 100.9 58.7507 100.911 58.7446L101.166 58.6058L101.222 58.5669L101.127 58.4891L100.927 58.3169C100.758 58.1746 100.6 58.017 100.461 57.8446L100.127 57.4335C99.9674 57.2362 99.8437 57.0162 99.7551 56.778L99.6606 56.5224L99.5662 56.2724C99.4948 56.0794 99.4361 55.8828 99.3884 55.6835L99.3273 55.428L99.2662 55.1669C99.2614 55.1599 99.2437 55.1373 99.2106 55.1113L98.7106 54.7224C98.4103 54.4881 98.1987 54.155 98.1717 53.7391L98.1551 53.4613L98.1384 53.1891C98.1256 52.9911 98.1166 52.7922 98.1162 52.5946V52.0446C98.1161 52.0026 98.1029 51.9657 98.0717 51.9169L97.9217 51.6724L97.7662 51.4335C97.7141 51.3524 97.6667 51.2813 97.6329 51.2224C97.6167 51.1942 97.5956 51.1558 97.5773 51.1169C97.5686 51.0982 97.5575 51.0629 97.544 51.0224C97.5395 51.0089 97.4917 50.8861 97.5051 50.728L97.5106 50.7002V50.678L97.5829 50.4113C97.6251 50.3284 97.6892 50.2533 97.7662 50.1891C97.9 50.0779 98.038 50.0452 98.1106 50.0335C98.2467 50.0117 98.3576 50.0338 98.3829 50.0391C98.4578 50.0549 98.5208 50.0831 98.5495 50.0946C98.6214 50.1236 98.71 50.1608 98.7995 50.2058L99.3217 50.4724C99.5168 50.5703 99.7062 50.6757 99.8829 50.7891L100.111 50.9335L100.344 51.0835C100.676 51.297 100.874 51.6192 100.955 51.978L101.022 52.2835L101.061 52.4669L101.238 52.5169L101.533 52.5946C101.807 52.6687 102.048 52.8139 102.233 53.028L102.4 53.2613L102.533 53.5113L102.672 53.7613C102.702 53.8164 102.736 53.8456 102.772 53.8669L103.005 54.0058L103.238 54.1391C103.335 54.1952 103.444 54.2374 103.561 54.2669L104.094 54.4002C104.381 54.4729 104.64 54.6113 104.861 54.8113L105.261 55.178C105.265 55.182 105.27 55.1823 105.272 55.1835C105.273 55.1839 105.282 55.1887 105.288 55.1891L105.555 55.2058L105.822 55.2169C106.082 55.2324 106.333 55.2972 106.572 55.4002L106.816 55.5058L107.066 55.6113C107.21 55.673 107.358 55.7249 107.505 55.7724L107.755 55.8558L108.011 55.9391C108.207 56.0024 108.399 56.0795 108.588 56.1669L108.838 56.278L109.083 56.3946C109.114 56.4091 109.15 56.4145 109.205 56.4058L109.483 56.3613L109.766 56.3169C110.157 56.2552 110.524 56.3607 110.827 56.5946L111.066 56.778L111.3 56.9613C111.497 57.1144 111.697 57.3079 111.822 57.5502L111.911 57.7169L112 57.8891C112.029 57.9466 112.085 58.0416 112.188 58.1724L112.372 58.3946L112.55 58.6224C112.613 58.7032 112.652 58.7293 112.661 58.7335L112.866 58.8224L113 58.878L113.183 58.8058L113.416 58.7169C113.635 58.6292 113.866 58.5707 114.105 58.5446L114.65 58.4891H114.955C115.154 58.5152 115.338 58.5903 115.5 58.7058L115.722 58.9058L115.905 59.1169L116.094 59.328C116.168 59.4113 116.248 59.4758 116.333 59.5224L116.572 59.6502L116.811 59.7835C116.896 59.8306 116.984 59.8582 117.077 59.8724L117.344 59.9169L117.488 59.9335L117.522 59.9002L117.472 59.828L117.283 59.5613C117.093 59.2938 116.967 58.9783 116.961 58.628L116.95 58.0946C116.945 57.8338 116.984 57.5769 117.066 57.328L117.244 56.7946C117.287 56.6642 117.315 56.5363 117.327 56.4113L117.35 56.1446L117.377 55.8724C117.389 55.7559 117.385 55.6418 117.366 55.528L117.322 55.2613L117.277 55.0002L117.227 54.3446V53.8058C117.228 53.6576 117.224 53.5072 117.205 53.3613L117.172 53.1002L117.133 52.8335C117.108 52.6369 117.091 52.4382 117.083 52.2391L117.072 51.9669L117.061 51.7002C117.058 51.649 117.046 51.5938 117.005 51.528L116.705 51.0391C116.58 50.8352 116.475 50.6214 116.4 50.4002L116.316 50.1502L116.227 49.8946C116.174 49.7394 116.117 49.5856 116.055 49.4335L115.955 49.1835L115.855 48.9391C115.731 48.6341 115.712 48.3131 115.772 48.0002L115.827 47.7058L115.872 47.4724L115.522 47.0724C115.316 46.8385 115.173 46.5592 115.116 46.2446L115.066 45.9835L115.022 45.7224C114.992 45.5572 114.953 45.3922 114.916 45.228L114.861 44.9669L114.8 44.7058C114.776 44.5995 114.742 44.4953 114.688 44.4002L114.422 43.9335C114.283 43.6872 114.203 43.4195 114.177 43.1391L114.155 42.8558L114.127 42.578C114.118 42.471 114.094 42.3777 114.055 42.2946L113.938 42.0502L113.827 41.8113C113.773 41.6955 113.707 41.5833 113.627 41.478L113.466 41.2613L113.3 41.0446C113.173 40.8769 113.058 40.703 112.955 40.5224L112.827 40.2891L112.694 40.0558C112.611 39.9099 112.527 39.765 112.438 39.6224L112.294 39.3946L112.155 39.1724C112.023 38.9593 111.925 38.7275 111.861 38.4835L111.794 38.2169L111.722 37.9446C111.71 37.9019 111.693 37.8733 111.661 37.8446L111.45 37.6613L111.244 37.478C111.086 37.3375 110.937 37.1883 110.8 37.0335L110.444 36.6335C110.198 36.357 110.088 36.0195 110.072 35.678L110.061 35.3558L110.044 35.0391L110.033 34.9835L109.85 34.7946L109.661 34.6002C109.534 34.4695 109.408 34.3366 109.283 34.2058L109.1 34.0113L108.911 33.8169C108.768 33.6678 108.635 33.5087 108.511 33.3446L108.35 33.1335L108.188 32.9169C108.107 32.809 108.016 32.7088 107.916 32.6169L107.516 32.2502C107.402 32.1457 107.28 32.049 107.155 31.9558L106.938 31.7946L106.722 31.628C106.569 31.5142 106.417 31.397 106.272 31.278L106.066 31.1113L105.861 30.9391C105.648 30.7649 105.475 30.5529 105.344 30.3113L105.211 30.0669L105.088 29.8391L104.811 29.7724L104.522 29.7002C104.206 29.6192 103.917 29.4562 103.694 29.2002L103.516 29.0002L103.344 28.7946C103.183 28.6101 103.045 28.4026 102.933 28.178L102.805 27.9169L102.688 27.6891L102.45 27.6335L102.161 27.5669C101.817 27.4879 101.518 27.3048 101.3 27.0169L101.133 26.7946L100.961 26.5724C100.932 26.5344 100.905 26.5139 100.866 26.5002L100.605 26.4058L100.344 26.3169C100.104 26.2332 99.88 26.118 99.6773 25.9669L99.4662 25.8058L99.2495 25.6446C99.182 25.5945 99.1035 25.5583 99.0106 25.5335L98.4773 25.3891C98.1671 25.3062 97.8986 25.1414 97.6829 24.9058L97.494 24.7002L97.3051 24.4891C97.2716 24.4524 97.2371 24.4373 97.1995 24.428L96.9384 24.3613L96.6717 24.3002C96.4263 24.2394 96.1925 24.1424 95.9773 24.0113L95.5217 23.7335C95.312 23.6057 95.1215 23.4485 94.9495 23.2669L94.7495 23.0558L94.5829 22.878L94.3217 22.9002L94.0273 22.9224C93.6493 22.9494 93.287 22.8373 92.994 22.578L92.7773 22.3891L92.5717 22.2058L92.2884 22.2224L91.9995 22.2335C91.6882 22.2497 91.3801 22.1882 91.0995 22.0391L90.8662 21.9169L90.6273 21.7891C90.4135 21.6755 90.2129 21.5329 90.0273 21.3669L89.8051 21.1669L89.6995 21.0724L89.4995 21.1669L89.1829 21.3002C88.8552 21.4407 88.4747 21.4931 88.094 21.3502L87.844 21.2558L87.594 21.1669C87.3453 21.0735 87.1181 20.9327 86.9106 20.7613L86.6773 20.5669L86.444 20.378C86.3976 20.3397 86.3808 20.3392 86.3773 20.3391L85.8329 20.328C85.5974 20.3221 85.3655 20.289 85.1384 20.228L84.8773 20.1558L84.6162 20.0891C84.4677 20.0491 84.3173 20.0129 84.1662 19.9891L83.8995 19.9502L83.6329 19.9058C83.4957 19.8843 83.3561 19.8764 83.2162 19.878H82.9495L82.6773 19.8835C82.4339 19.8862 82.1913 19.8561 81.9551 19.7946L81.694 19.728L81.4273 19.6558C81.4197 19.6537 81.401 19.6522 81.3551 19.6724L81.0829 19.7891L80.8106 19.9113C80.516 20.0408 80.1941 20.0948 79.8662 20.0391L79.6051 19.9891L79.3384 19.9446C79.1582 19.914 79.0052 19.8886 78.894 19.8613L78.6384 19.7946C78.6585 19.7996 78.6557 19.7963 78.6162 19.7946C78.5801 19.7932 78.5274 19.7962 78.4551 19.8002L78.1884 19.8169L77.9217 19.828C77.8263 19.8333 77.7224 19.8556 77.6106 19.9002L77.344 20.0058L77.0773 20.1169C76.6614 20.2821 76.241 20.2073 75.894 19.9835L75.6273 19.8113L75.3606 19.6446C75.2829 19.5945 75.2427 19.5893 75.2273 19.5891H74.9606L74.694 19.5946C74.6706 19.595 74.6147 19.6002 74.5273 19.6558L74.2606 19.828L73.994 19.9946C73.8168 20.1071 73.6057 20.1888 73.3662 20.1946C73.1255 20.2001 72.9056 20.1305 72.7217 20.0224L72.4551 19.8613L72.1884 19.7058L72.1329 19.6835L71.8662 19.7224L71.5995 19.7669C71.4726 19.7878 71.3398 19.8262 71.2051 19.878L70.9384 19.978L70.6717 20.0835C70.337 20.2125 69.9833 20.2157 69.644 20.0946L69.1106 19.9058C69.05 19.8841 69.0002 19.8799 68.9551 19.8891L68.4217 20.0002C68.1411 20.0572 67.8553 20.0511 67.5773 19.9835L67.3106 19.9169L67.044 19.8558C66.9636 19.8365 66.8876 19.8358 66.8106 19.8502L66.544 19.8946L66.2773 19.9446C66.0616 19.9848 65.845 20.0076 65.6273 20.0113L65.094 20.0224C64.8046 20.0272 64.5235 19.9657 64.2606 19.8502L63.994 19.7335L63.7384 19.6224L63.494 19.728L63.2273 19.8446C63.0144 19.9358 62.7971 20.0048 62.5773 20.0558L62.3106 20.1224L62.044 20.1835C61.6477 20.275 61.2718 20.1743 60.9606 19.9724L60.4273 19.628C60.4021 19.6116 60.3873 19.6072 60.3829 19.6058L60.1329 19.6502L59.8662 19.6946C59.6324 19.734 59.3963 19.7458 59.1606 19.728L58.6273 19.6835C58.5552 19.6782 58.4775 19.6905 58.3884 19.7224L57.8551 19.9113C57.5168 20.0326 57.1622 20.0327 56.8273 19.9058L56.5606 19.8002L56.294 19.7002C56.2161 19.671 56.1518 19.6659 56.094 19.6724L55.8273 19.7002L55.5606 19.7335C55.4777 19.743 55.3817 19.7716 55.2717 19.828L55.0051 19.9613L54.7384 20.1002C54.3646 20.2915 53.9524 20.2964 53.5717 20.1113L53.3051 19.9835L53.0384 19.8502C52.9709 19.8173 52.928 19.8193 52.8995 19.8224L52.6329 19.8502L52.3662 19.8835C52.1429 19.9099 51.9178 19.9118 51.694 19.8946L51.4273 19.878L51.1606 19.8558C51.1086 19.8518 51.0465 19.86 50.9662 19.8946L50.4329 20.128C50.1046 20.2706 49.7478 20.2935 49.3995 20.1835L48.8662 20.0169C48.7374 19.9763 48.6105 19.9489 48.4884 19.9391L48.2217 19.9169L47.9551 19.9002C47.8951 19.8956 47.8313 19.9023 47.7551 19.9335L47.2329 20.1446C46.9898 20.2442 46.7328 20.3085 46.4717 20.3224L46.2106 20.3335L45.944 20.3502C45.7521 20.3603 45.5594 20.3646 45.3662 20.3613L44.8329 20.3502C44.5841 20.346 44.3368 20.3065 44.094 20.2335L43.8162 20.1502L43.5384 20.0613C43.4896 20.0466 43.4659 20.0553 43.4495 20.0613L42.9384 20.2502C42.6629 20.3517 42.374 20.3865 42.0829 20.3558L41.8051 20.328L41.5384 20.2946V20.3002L41.2995 20.4891L41.0662 20.678C40.8072 20.8847 40.4996 21.0163 40.1551 21.0335L39.8829 21.0446L39.6162 21.0613C39.4597 21.0691 39.3029 21.0825 39.1495 21.1058L38.8829 21.1446L38.6162 21.1891C38.5137 21.2049 38.417 21.2362 38.3217 21.2835L38.0773 21.4002L37.8329 21.5224C37.6215 21.6274 37.4012 21.7093 37.1717 21.7613L36.9106 21.8169L36.6495 21.878C36.5907 21.8913 36.53 21.9194 36.4662 21.9724L36.2495 22.1502L36.0329 22.3335C35.7858 22.5384 35.4939 22.668 35.1717 22.7058L34.8995 22.7335L34.6273 22.7669C34.423 22.7908 34.2121 22.8063 33.9995 22.8113L33.7162 22.8169L33.4273 22.8224C33.3579 22.8241 33.3132 22.8439 33.2773 22.8669L32.8217 23.1558C32.6345 23.2758 32.4375 23.382 32.2329 23.4669L31.9829 23.5669L31.7384 23.6724C31.6222 23.7206 31.5092 23.782 31.4051 23.8558L31.1884 24.0113L30.9662 24.1669C30.7499 24.3201 30.5111 24.4307 30.2551 24.5002L29.9829 24.5724L29.7329 24.6391C29.7305 24.6423 29.7308 24.6498 29.7273 24.6558L29.4162 25.178C29.2337 25.4895 28.9586 25.7326 28.594 25.8446L28.3329 25.928L28.0662 26.0058C27.9272 26.0484 27.7966 26.1044 27.6717 26.1669L27.4273 26.2835L27.1884 26.4058C27.1187 26.4407 27.0553 26.4881 26.9995 26.5558L26.8273 26.7724L26.6495 26.9835C26.5377 27.1192 26.4281 27.2561 26.3217 27.3946L26.1551 27.6169L25.9884 27.8335C25.7386 28.1589 25.3832 28.3187 25.0106 28.3558L24.694 28.3891L24.3773 28.4169C24.3361 28.4209 24.3108 28.429 24.2995 28.4335C24.2904 28.4374 24.284 28.4435 24.2829 28.4446L23.894 28.8113C23.7707 28.9283 23.6514 29.051 23.5329 29.1724L23.344 29.3669L23.1551 29.5558C23.0037 29.7108 22.8408 29.8543 22.6662 29.9835L22.444 30.1446L22.2273 30.3058C22.1093 30.393 21.9978 30.4872 21.894 30.5891L21.7051 30.778L21.5106 30.9669C21.4804 30.9966 21.4474 31.0449 21.4217 31.1335L21.2551 31.7113C21.1803 31.9706 21.0704 32.2159 20.9162 32.4335L20.6051 32.8669C20.3927 33.1661 20.0922 33.3489 19.7662 33.4446L19.4606 33.5335L19.2329 33.6002L19.1884 33.7835L19.1106 34.0613C19.0197 34.404 18.8241 34.698 18.5273 34.9058L18.2995 35.0669L18.0662 35.228C18.0194 35.2608 17.9959 35.2965 17.9773 35.3391L17.8662 35.5891L17.7606 35.8391C17.6424 36.1127 17.4627 36.3508 17.2329 36.5391L17.0162 36.7169L16.7995 36.8891C16.7987 36.8922 16.8006 36.8981 16.7995 36.9058L16.7606 37.1946L16.7162 37.4891C16.6639 37.8685 16.4778 38.1974 16.1662 38.428L15.9329 38.6002L15.6995 38.7669C15.6478 38.8051 15.6282 38.8403 15.6162 38.8724L15.5217 39.128L15.4273 39.378C15.3849 39.491 15.3547 39.6158 15.3384 39.7502L15.2717 40.3169C15.2195 40.7507 14.9675 41.0825 14.6217 41.2891L14.0773 41.6113C13.9975 41.659 13.9814 41.6968 13.9773 41.7058L13.7551 42.1946C13.6794 42.3617 13.6009 42.5289 13.5217 42.6946L13.4051 42.9391L13.294 43.178C13.2205 43.3318 13.1449 43.488 13.0773 43.6446L12.9717 43.8946L12.8662 44.1391C12.8541 44.167 12.8427 44.2146 12.8551 44.3002L12.8995 44.6058L12.944 44.9058C13.0018 45.2973 12.9061 45.6831 12.6384 45.9946L12.2606 46.428C12.1896 46.5106 12.1432 46.5941 12.1162 46.6724L12.0329 46.9224L11.944 47.178C11.9407 47.1874 11.9312 47.2231 11.9551 47.3058L12.0384 47.6058L12.1273 47.9058C12.2273 48.2532 12.2128 48.6263 12.0329 48.9724L11.9106 49.2113L11.7829 49.4558C11.7497 49.5197 11.7342 49.5821 11.7329 49.6502L11.7217 50.1946C11.7153 50.543 11.5924 50.8575 11.3884 51.1224L11.2051 51.3613L11.0217 51.5946L11.0162 51.6002L11.0551 51.8613L11.0884 52.1391C11.1204 52.394 11.1146 52.6491 11.0662 52.9002L10.9662 53.4224C10.9302 53.6094 10.8846 53.7971 10.8384 53.9835L10.7773 54.2446L10.7106 54.5058C10.7079 54.5168 10.7031 54.5422 10.7273 54.6002L10.844 54.878L10.9551 55.1502C11.1242 55.5555 11.0797 55.9776 10.8495 56.3391L10.6829 56.6002L10.5217 56.8558C10.4733 56.9317 10.4614 56.9824 10.4606 57.0113L10.4551 57.2835V58.0502L10.4773 58.5835C10.4843 58.7976 10.4749 59.0147 10.4495 59.228L10.4329 59.3558L10.594 59.3058C10.7477 59.2585 10.8312 59.2177 10.8662 59.1946L11.1995 58.9724C11.3525 58.8717 11.5433 58.7709 11.7551 58.6724L12.0495 58.5391L12.344 58.4002L12.6384 58.3002C12.8352 58.2549 13.0379 58.2512 13.2384 58.3002L13.5384 58.4113L14.0717 58.6891C14.145 58.7268 14.1779 58.723 14.1829 58.7224L14.4329 58.6946L14.6884 58.6613C14.8334 58.6444 14.9499 58.6233 15.0384 58.6002L15.2273 58.5502L15.4106 58.5002C15.422 58.493 15.4496 58.4781 15.4829 58.4446L15.6717 58.2502L15.8606 58.0613C16.0185 57.9024 16.1916 57.7595 16.3717 57.6391L16.5773 57.5002L16.7829 57.3669L17.0773 57.2224C17.2778 57.1598 17.4807 57.1602 17.6717 57.2002L17.944 57.2835L18.2273 57.4058L18.3773 57.4724L18.5273 57.3446L18.7662 57.1391C18.9831 56.9523 19.2463 56.8235 19.5384 56.7946L19.844 56.8002L20.1162 56.8391L20.394 56.8724C20.4658 56.8817 20.5253 56.8761 20.5829 56.8558L20.8384 56.7613L21.094 56.6724C21.4314 56.5507 21.7765 56.5619 22.0995 56.6669L22.3884 56.7613L22.5606 56.8169L22.7051 56.678L22.9329 56.4613C23.148 56.2514 23.4017 56.0822 23.694 55.9891L23.9495 55.9058L24.1995 55.828C24.4298 55.7546 24.6683 55.7105 24.9106 55.7002L25.4551 55.678C25.6808 55.6686 25.911 55.6798 26.144 55.7113L26.4384 55.7558L26.5662 55.7724L26.6717 55.6113L26.844 55.3391C27.026 55.0485 27.2875 54.8026 27.644 54.6835L28.144 54.5169C28.361 54.4444 28.5929 54.3922 28.8329 54.3613L29.1329 54.3224L29.4384 54.2835C29.4921 54.2766 29.5458 54.2702 29.594 54.2669C29.6176 54.2652 29.6526 54.2609 29.6884 54.2613C29.7008 54.2615 29.8056 54.2621 29.9217 54.3002C29.9611 54.3133 30.173 54.3853 30.3106 54.6113C30.5027 54.9284 30.3854 55.2339 30.294 55.3724C30.2181 55.4873 30.1315 55.5541 30.1051 55.5724C30.0665 55.5991 30.0303 55.618 30.0106 55.628C29.9443 55.6614 29.8738 55.6831 29.8384 55.6946L29.7273 55.728L29.7329 55.7891L29.7551 56.0891C29.7794 56.4571 29.6775 56.8214 29.4162 57.1169L29.2329 57.3224L29.0551 57.528C28.9729 57.6207 28.8976 57.7288 28.8329 57.8502L28.6995 58.1002L28.5606 58.3502C28.5013 58.4615 28.4263 58.5579 28.344 58.6446H28.4273C28.6029 58.639 28.7805 58.632 28.9551 58.6224L29.2217 58.6058L29.494 58.5891C29.6023 58.5831 29.7089 58.5617 29.8162 58.5224L30.0773 58.428L30.3329 58.3335C30.5182 58.2656 30.7042 58.2053 30.8884 58.1502L31.3995 57.9946C31.6469 57.921 31.9021 57.895 32.1606 57.9058L32.4384 57.9169L32.7106 57.928C32.7437 57.9294 32.768 57.921 32.7995 57.9002L33.0329 57.7502L33.2662 57.5946C33.5788 57.3893 33.9331 57.325 34.2884 57.378L34.5884 57.4224L34.8829 57.4669C34.9671 57.4795 35.0196 57.4695 35.0551 57.4558L35.3051 57.3502L35.5551 57.2502C35.6405 57.2156 35.7235 57.1629 35.8051 57.0891L36.2273 56.7113C36.4541 56.5062 36.7219 56.364 37.0217 56.2946L37.2884 56.2335L37.5606 56.1724C37.6667 56.1479 37.7621 56.1083 37.8495 56.0558L38.0829 55.9169L38.3106 55.778C38.3603 55.748 38.4118 55.7005 38.4606 55.6224L38.6162 55.3724L38.7717 55.128C38.9281 54.8774 39.1305 54.66 39.3884 54.5058L39.844 54.2391C40.0412 54.1212 40.2535 54.0208 40.4773 53.9446L40.744 53.8558L41.0162 53.7613C41.1149 53.7277 41.1923 53.6824 41.2551 53.628L41.4606 53.4502L41.6606 53.278C41.661 53.2777 41.6842 53.263 41.6995 53.1891L41.7606 52.8835L41.8273 52.578L41.9162 52.2946C42.0341 52.0234 42.234 51.7943 42.5217 51.6502L42.7829 51.5224L43.0384 51.3946C43.1629 51.3325 43.2737 51.2591 43.3717 51.178L43.5884 51.0002L43.7995 50.8224C43.8073 50.8159 43.81 50.8125 43.8106 50.8113C43.8124 50.8078 43.818 50.7982 43.8217 50.778L43.8773 50.4946L43.9273 50.2058C43.9731 49.9604 44.0506 49.7261 44.1551 49.5058L44.2662 49.2669L44.3829 49.028L44.5162 48.8002C44.5737 48.7236 44.6444 48.6485 44.7329 48.5835C44.9288 48.4405 45.1665 48.3773 45.4051 48.4058L45.5884 48.428L45.7773 48.4502C46.043 48.4827 46.283 48.6271 46.4329 48.8669C46.4972 48.9701 46.5376 49.0775 46.5606 49.178L46.594 49.4502L46.5995 49.728L46.6051 50.0113C46.6063 50.0752 46.6189 50.1217 46.644 50.1613L46.7884 50.3891L46.9329 50.6224C47.0457 50.8008 47.1501 50.9831 47.2384 51.1724L47.3495 51.4169L47.4662 51.6613C47.5353 51.8093 47.6055 51.9566 47.6829 52.1002L47.8106 52.3335L47.9384 52.5724C48.0004 52.6874 48.0756 52.7977 48.1606 52.9002L48.5051 53.3113C48.6657 53.505 48.7914 53.7229 48.8884 53.9558L48.994 54.2058L49.0995 54.4613C49.1408 54.5604 49.1992 54.6457 49.2662 54.7224L49.4384 54.928L49.6162 55.128C49.6614 55.1798 49.7216 55.218 49.7773 55.2613L49.8051 55.0446L49.8384 54.7669C49.8626 54.5635 49.8931 54.3599 49.9329 54.1613L49.9884 53.8946L50.044 53.6224C50.0687 53.4984 50.0776 53.3802 50.0717 53.2669L50.0551 53.0002L50.044 52.7391C50.0339 52.5472 50.0298 52.3541 50.0329 52.1613L50.0384 51.8946V51.6335C50.0393 51.574 50.0266 51.4964 49.9829 51.4002L49.8606 51.128L49.7384 50.8613C49.5433 50.4317 49.6103 49.9842 49.8717 49.6224L50.0551 49.3669L50.244 49.1113L50.194 48.878L50.1384 48.6058C50.1056 48.4496 50.0626 48.2881 50.0106 48.1224L49.9217 47.8391L49.8329 47.5613C49.765 47.3451 49.756 47.1077 49.8273 46.8724C49.897 46.6432 50.0298 46.4577 50.1773 46.3169L50.4217 46.0835L50.6273 45.878L50.5995 45.7002L50.5495 45.4224C50.4943 45.1126 50.525 44.8018 50.644 44.5058L50.744 44.2558L50.844 44.0002C50.8883 43.8896 50.9183 43.776 50.9329 43.6613L50.9662 43.4002L50.9995 43.1335C51.0233 42.9457 51.0553 42.759 51.0884 42.5724L51.1329 42.3058L51.1773 42.0446C51.2068 41.8784 51.2373 41.7089 51.2606 41.5391L51.294 41.2724L51.3329 41.0058C51.358 40.8227 51.382 40.6346 51.4106 40.4502L51.4551 40.1835L51.4995 39.9113C51.549 39.5929 51.6852 39.3069 51.894 39.0669L52.0773 38.8502L52.2662 38.6391C52.3767 38.512 52.4787 38.3804 52.5829 38.2558C52.6251 38.131 52.6605 38.0037 52.7162 37.8835L52.8329 37.6335L52.9495 37.3891C52.9729 37.3387 52.9985 37.2835 53.0273 37.2335C53.0426 37.2069 53.1032 37.0937 53.2106 37.0002C53.2525 36.9638 53.435 36.8125 53.7162 36.8224C54.0799 36.8365 54.2684 37.094 54.3329 37.2224C54.3916 37.3398 54.4065 37.4454 54.4106 37.4835C54.4161 37.5345 54.417 37.5807 54.4162 37.6113L54.4051 37.9113C54.3958 38.257 54.2119 38.5361 54.0662 38.7113L53.8884 38.9224L53.844 38.9724L53.8051 39.1335L53.7384 39.3946C53.725 39.4474 53.7192 39.5065 53.7384 39.5835L53.8106 39.8613L53.8773 40.1391C53.9271 40.3374 53.9744 40.5364 54.0106 40.728L54.0606 40.9891L54.1106 41.2558C54.1783 41.6132 54.1083 41.9584 53.944 42.2613L53.7995 42.528L53.6829 42.7391L53.7717 42.928L53.894 43.1835C54.0049 43.415 54.081 43.6598 54.1162 43.9113L54.1551 44.1669L54.1884 44.428C54.2231 44.6754 54.221 44.9271 54.1829 45.178L54.1384 45.4613L54.094 45.7502C54.0852 45.8102 54.0965 45.8469 54.1106 45.878L54.2217 46.1224L54.3329 46.3724C54.3796 46.4751 54.4423 46.5733 54.5217 46.6669L54.7051 46.878L54.8829 47.0946C55.0552 47.2975 55.192 47.5228 55.2829 47.7724L55.3717 48.0224L55.4662 48.2724C55.5084 48.3877 55.5612 48.4969 55.6273 48.6002L55.9162 49.0446C56.0258 49.2156 56.1211 49.3956 56.2106 49.578L56.444 50.0558C56.5164 50.2035 56.597 50.3498 56.6773 50.4946L56.9329 50.9613C56.9778 51.042 57.0388 51.1106 57.1106 51.1724L57.3106 51.3502L57.5162 51.5224C57.781 51.7504 57.9383 52.0505 58.0162 52.3724L58.094 52.6724L58.144 52.8891L58.2662 52.9335L58.2051 52.6835L58.1384 52.4169C58.076 52.1617 58.0622 51.9009 58.0884 51.6391L58.144 51.0835C58.1526 50.9982 58.1408 50.9229 58.1162 50.8502L58.0273 50.5891L57.944 50.3335C57.8613 50.0908 57.8179 49.8397 57.8162 49.5835L57.8106 49.3113V49.0446C57.8096 48.8477 57.8195 48.6462 57.8329 48.4502L57.8662 47.9169C57.875 47.787 57.8729 47.6572 57.8551 47.528L57.7773 46.9946C57.7418 46.7354 57.7563 46.4729 57.8106 46.2169L57.8662 45.9558L57.9217 45.6891C57.9511 45.5508 57.9663 45.4137 57.9717 45.278L57.994 44.7446C58.001 44.5688 58.0091 44.3929 58.0162 44.2169L58.0384 43.6835C58.0484 43.4376 58.0926 43.1951 58.1717 42.9613L58.2606 42.7058L58.3384 42.4558C58.3369 42.4481 58.3365 42.4333 58.3273 42.4113L58.2051 42.1169L58.0829 41.828C57.9951 41.6206 57.9492 41.3714 58.0106 41.1113C58.0715 40.8557 58.2171 40.6566 58.3773 40.5113L58.6217 40.2891L58.8384 40.0891L58.8217 39.8946L58.7884 39.6113C58.7547 39.303 58.7999 38.997 58.9329 38.7113L59.0495 38.4669L59.1606 38.2224C59.2053 38.1264 59.2383 38.024 59.2551 37.9113L59.3329 37.3669C59.3745 37.0831 59.4786 36.8169 59.6384 36.578L59.7884 36.3502L59.9384 36.128C60.0136 36.0155 60.0787 35.8935 60.1329 35.7669L60.344 35.2669C60.4641 34.9863 60.6529 34.7521 60.894 34.5669L61.1106 34.3946L61.3329 34.228C61.3796 34.192 61.4129 34.1493 61.4384 34.0891L61.5495 33.828L61.6551 33.5724C61.7571 33.3303 61.8973 33.1065 62.0717 32.9113L62.2495 32.7113L62.4329 32.5113C62.6062 32.3174 62.8067 32.1527 63.0384 32.0335L63.2606 31.9224L63.4829 31.8058L63.7551 31.7058C63.9373 31.6603 64.121 31.6587 64.2995 31.6946L64.5606 31.7724L64.8162 31.878L65.0662 31.978C65.0667 31.978 65.0844 31.9835 65.1162 31.9724L65.4106 31.8724L65.7051 31.7669L66.0051 31.7002C66.2095 31.6774 66.4156 31.7007 66.6106 31.7835L66.894 31.9502L67.1162 32.128L67.3384 32.3002C67.4221 32.3659 67.516 32.4205 67.6217 32.4558L67.894 32.5446L68.1717 32.6335L68.4384 32.7558C68.6037 32.8537 68.7416 32.9863 68.8495 33.1446L68.9884 33.4002L69.0995 33.6669L69.2106 33.9391C69.2681 34.0778 69.331 34.1976 69.3995 34.3002L69.5495 34.5224L69.694 34.7391C69.8498 34.9713 69.9512 35.2316 69.9995 35.5058L70.0495 35.778L70.094 36.0558C70.0981 36.0783 70.1096 36.0957 70.1384 36.1224L70.344 36.3169L70.5551 36.5113C70.7515 36.6934 70.9164 36.9016 71.0384 37.1391L71.1606 37.378L71.2829 37.6224C71.4309 37.9115 71.4843 38.2233 71.4551 38.5391L71.4273 38.828L71.3995 39.0613L71.6051 39.2558L71.8273 39.4724C72.1483 39.7824 72.2818 40.204 72.1773 40.6502L72.1106 40.9391L72.044 41.2335L72.0384 41.2391L72.3273 41.7169C72.4651 41.944 72.5635 42.1907 72.6162 42.4502L72.6717 42.7113L72.7217 42.978C72.7658 43.1956 72.7902 43.4167 72.794 43.6391L72.7995 43.9058L72.8051 44.178C72.8068 44.2727 72.8236 44.3683 72.8606 44.4669L73.0606 44.9891C73.2043 45.3723 73.1562 45.7615 72.9829 46.1002L72.8384 46.3724L72.7217 46.5946L72.8329 46.7946L72.9717 47.0558C73.1641 47.4178 73.1857 47.8243 73.0162 48.2058L72.894 48.4724L72.7773 48.7391L72.7717 48.7446ZM103.911 45.6169C103.999 45.6478 104.066 45.6871 104.094 45.7058C104.194 45.7734 104.287 45.8736 104.344 45.9335L104.538 46.1335L104.727 46.3335C104.864 46.4777 104.969 46.6427 105.061 46.8169C105.113 46.8643 105.168 46.9136 105.222 46.9613L105.427 47.1446L105.638 47.328C105.93 47.5866 106.078 47.9341 106.1 48.3058L106.116 48.6002L106.127 48.8946L106.266 49.0113C106.391 49.1125 106.498 49.2276 106.588 49.3558C106.651 49.4119 106.713 49.4559 106.783 49.4835L107.044 49.5891L107.305 49.6891C107.603 49.8054 107.83 50.0138 107.961 50.2891L108.055 50.5835L108.111 50.8558L108.122 50.9335C108.133 50.9438 108.15 50.9508 108.161 50.9613L108.538 51.328C108.766 51.5489 108.915 51.8217 109 52.1169L109.083 52.4058L109.166 52.7002C109.174 52.7286 109.181 52.7546 109.188 52.778C109.216 52.8307 109.238 52.8766 109.255 52.9113C109.262 52.9251 109.287 52.9726 109.305 53.0224C109.31 53.0369 109.323 53.0717 109.333 53.1169C109.338 53.1399 109.343 53.1918 109.344 53.2558C109.344 53.2965 109.346 53.4672 109.233 53.6446C109.167 53.7481 109.066 53.8534 108.922 53.9169C108.781 53.9785 108.646 53.984 108.55 53.9724C108.384 53.9524 108.271 53.8773 108.238 53.8558C108.165 53.8065 108.116 53.7515 108.105 53.7391L108.083 53.7113L108.061 53.6891C107.997 53.6188 107.96 53.5476 107.95 53.528C107.934 53.4982 107.924 53.4685 107.916 53.4502C107.901 53.4136 107.883 53.3772 107.872 53.3446C107.867 53.3304 107.86 53.316 107.855 53.3002L107.777 53.1502L107.655 52.9169C107.591 52.7961 107.517 52.685 107.438 52.5835L107.277 52.378L107.122 52.178C107.03 52.0605 106.952 51.9331 106.894 51.8002L106.638 51.678L106.377 51.5558C106.041 51.3962 105.786 51.1269 105.655 50.7669L105.555 50.5058L105.466 50.2558L105.361 50.1558L105.155 49.9502C105.135 49.9309 105.118 49.9092 105.1 49.8891L104.944 49.7669C104.701 49.5708 104.518 49.322 104.411 49.028L104.322 48.7724L104.227 48.5113C104.168 48.3484 104.102 48.1903 104.038 48.0335L103.938 47.7835L103.894 47.678C103.883 47.6683 103.871 47.6599 103.861 47.6502L103.661 47.4669L103.466 47.2835C103.387 47.2113 103.31 47.1351 103.244 47.0558C103.19 46.9909 103.089 46.8612 103.038 46.6891L103.011 46.6002L102.988 46.5113C102.979 46.4776 102.954 46.3917 102.955 46.2835C102.957 46.192 102.98 45.8711 103.294 45.678C103.577 45.5041 103.85 45.5959 103.911 45.6169ZM52.6829 41.5946L52.694 41.5835C52.7101 41.5538 52.7098 41.5328 52.7106 41.528V41.5224L52.6995 41.478L52.6829 41.5946ZM67.7106 33.9835H67.7217L67.6995 33.9724L67.7106 33.9835ZM99.5384 52.5891C99.5387 52.7566 99.5442 52.9263 99.5551 53.0946L99.5717 53.3724L99.5884 53.6058L99.8329 53.7946L100.083 53.9891C100.351 54.198 100.564 54.4819 100.65 54.8391L100.772 55.3502C100.806 55.4935 100.848 55.638 100.9 55.778L100.994 56.028L101.088 56.2835C101.124 56.3778 101.171 56.4631 101.233 56.5391L101.566 56.9502C101.649 57.0521 101.739 57.1448 101.838 57.228L102.044 57.3946L102.244 57.5669C102.318 57.6287 102.397 57.673 102.483 57.7058L102.727 57.8002L102.966 57.8946C103.113 57.9505 103.36 58.0602 103.533 58.2835L103.677 58.5446L103.722 58.678L103.766 58.8058C103.803 58.9118 103.854 59.1307 103.75 59.3724C103.636 59.6346 103.415 59.7549 103.272 59.8002C103.044 59.8718 102.816 59.8248 102.722 59.8058L102.166 59.6946C102.154 59.6922 102.146 59.6944 102.144 59.6946C102.14 59.6955 102.128 59.6961 102.111 59.7058L101.855 59.8502L101.594 59.9946C101.281 60.1667 100.927 60.2239 100.566 60.1446L100.294 60.0891L100.027 60.028C99.9378 60.0083 99.8476 60.0067 99.7551 60.0224L99.4773 60.0669L99.1995 60.1169C98.9025 60.1678 98.6029 60.1455 98.3162 60.0502L98.0551 59.9669L97.794 59.878C97.5688 59.8032 97.3546 59.7007 97.1495 59.578L96.9051 59.4335L96.6662 59.2891C96.6286 59.2666 96.5958 59.2589 96.5551 59.2613L96.2717 59.2835L95.994 59.3002C95.7079 59.3192 95.4236 59.277 95.1551 59.1724L94.9051 59.078L94.6551 58.978C94.4012 58.879 94.1731 58.7343 93.9717 58.5502L93.7606 58.3558L93.544 58.1613L93.5384 58.1558H92.9495C92.6724 58.1566 92.4011 58.11 92.144 58.0058L91.894 57.9058L91.6495 57.8058C91.4514 57.7254 91.2561 57.631 91.0717 57.5224L90.8384 57.3835L90.6106 57.2446C90.4097 57.1263 90.2198 56.9886 90.0495 56.828L89.8551 56.6391L89.6551 56.4558C89.6242 56.4266 89.5822 56.3988 89.5106 56.3835L88.944 56.2613C88.5631 56.1801 88.2502 55.9597 88.0495 55.6224L87.8995 55.3724L87.7551 55.128C87.6827 55.006 87.6037 54.9025 87.5217 54.8169L87.3384 54.628L87.1551 54.4335C87.1274 54.4046 87.0766 54.3684 86.9829 54.3391L86.6884 54.2502L86.3995 54.1613C86.189 54.096 85.984 53.9722 85.8273 53.778C85.6738 53.5872 85.5986 53.3683 85.5717 53.1613L85.5329 52.8391L85.5051 52.6335L85.3217 52.5724L85.0273 52.4669C84.6151 52.3238 84.3009 52.0085 84.2051 51.5502L84.144 51.2613L84.0829 50.978C84.0508 50.8238 84.0104 50.6805 83.9606 50.5558L83.8606 50.3058L83.7662 50.0669C83.7616 50.0627 83.7473 50.0492 83.7162 50.0335L83.4273 49.8891L83.3384 49.8391C83.3476 49.9531 83.3502 50.068 83.344 50.1835L83.3273 50.4613L83.3162 50.7391C83.3145 50.7742 83.3174 50.8002 83.3384 50.8335L83.4884 51.0669L83.6384 51.3058C83.7579 51.4955 83.8613 51.6915 83.944 51.8946L84.044 52.1446L84.144 52.3891C84.2497 52.6498 84.2959 52.9259 84.2884 53.2058L84.2773 53.4891L84.2717 53.7724C84.2712 53.7923 84.2708 53.8026 84.2717 53.8058C84.2723 53.8076 84.2757 53.8129 84.2829 53.8224L84.6162 54.2558C84.7369 54.4136 84.8506 54.5738 84.9551 54.7335L85.0995 54.9502L85.2384 55.1669C85.3212 55.2934 85.4068 55.4129 85.494 55.5224L85.6495 55.7169L85.7995 55.9113C85.8524 55.9777 85.934 56.0905 85.9773 56.2446C86.0268 56.4234 86.0272 56.676 85.8662 56.9058C85.7266 57.1049 85.5368 57.1845 85.4329 57.2169C85.3214 57.2515 85.2144 57.2634 85.1329 57.2669L84.8329 57.278L84.5384 57.2891C84.3191 57.298 84.0875 57.2563 83.8773 57.128C83.6706 57.0017 83.5285 56.8218 83.4329 56.6391L83.2829 56.3558L83.1384 56.0724C83.0836 55.9677 83.0338 55.928 83.0162 55.9169L82.7995 55.7835L82.5829 55.6446C82.5144 55.6013 82.4231 55.5597 82.3051 55.5335L81.7384 55.4113C81.4206 55.3406 81.1324 55.1856 80.9051 54.9391L80.7217 54.7391L80.544 54.5446C80.4098 54.3991 80.2822 54.2444 80.1606 54.0891L79.994 53.8835L79.8329 53.6724C79.7243 53.5336 79.6136 53.3923 79.5051 53.2558L79.3384 53.0502L79.1773 52.8446C79.1307 52.7859 79.0643 52.7294 78.9717 52.678L78.4717 52.4002C78.1689 52.232 77.9324 51.9773 77.7995 51.6502L77.6995 51.3946L77.594 51.1391C77.586 51.1195 77.5745 51.0958 77.5273 51.0669L77.2773 50.9169L77.0273 50.7613C76.7343 50.582 76.5066 50.3208 76.3829 49.9891L76.2884 49.7335L76.1884 49.4724C76.1289 49.3131 76.0653 49.1579 75.9995 49.0058L75.894 48.7558L75.8217 48.6002C75.7236 48.8029 75.578 48.9821 75.3717 49.1113L75.1162 49.2724L74.8662 49.4224L74.8217 49.6891L74.7717 49.9724C74.7198 50.2648 74.6018 50.5379 74.4217 50.778L74.0995 51.2113C73.9655 51.39 73.8133 51.5591 73.6495 51.7113L73.4551 51.8946L73.2551 52.078C73.041 52.2769 72.7869 52.4219 72.5106 52.5113L72.2329 52.6002L71.9606 52.6891L71.7606 52.7558H71.7495L71.744 52.7613C71.7413 52.7621 71.7344 52.7594 71.7273 52.7613C71.7238 52.7622 71.7155 52.7645 71.7051 52.7669C71.6997 52.7681 71.6859 52.7763 71.6773 52.778C71.6639 52.7803 71.6238 52.7813 71.5995 52.7835C71.5435 52.7854 71.2883 52.7393 71.1106 52.6391C70.8504 52.2265 71.0033 51.6205 71.1106 51.5169C71.1473 51.4902 71.2025 51.455 71.2217 51.4446C71.2327 51.4391 71.2534 51.4312 71.2606 51.428C71.2736 51.4223 71.2847 51.4128 71.2884 51.4113H71.2995L71.3217 51.4002C71.3266 51.3986 71.3348 51.3976 71.344 51.3946L71.3717 51.3835L71.4329 51.2058L71.5162 50.9391C71.5561 50.8123 71.5819 50.6847 71.594 50.5558L71.6162 50.2835L71.644 50.0113C71.651 49.9352 71.6417 49.8542 71.6106 49.7613L71.5217 49.4835L71.4273 49.2113C71.3089 48.859 71.326 48.4942 71.4773 48.1558L71.594 47.8946L71.6884 47.678L71.5773 47.4613L71.4384 47.2002C71.2312 46.8101 71.2395 46.3852 71.4329 46.0058L71.5773 45.728L71.7106 45.4502L71.6273 45.228L71.5329 44.9669C71.4399 44.7199 71.3873 44.4635 71.3829 44.2002L71.3773 43.9335L71.3717 43.6613C71.3694 43.5261 71.3593 43.3926 71.3329 43.2613L71.2773 42.9946L71.2217 42.7335C71.2034 42.6431 71.1681 42.5505 71.1106 42.4558L70.9662 42.2169L70.8217 41.9724C70.6219 41.6428 70.5708 41.274 70.6551 40.9113L70.7273 40.6169L70.7662 40.428L70.6162 40.2835L70.394 40.0669C70.1022 39.7855 69.9444 39.4103 69.9829 38.9891L70.0106 38.7002L70.0384 38.4058C70.0444 38.3379 70.0314 38.2964 70.0162 38.2669L69.7717 37.7891C69.7301 37.7083 69.6701 37.6317 69.5884 37.5558L69.3773 37.3613L69.1717 37.1669C68.9222 36.9356 68.7537 36.6398 68.694 36.3002L68.6495 36.028L68.5995 35.7558C68.584 35.6671 68.5564 35.5935 68.5162 35.5335L68.3662 35.3169L68.2217 35.0946C68.095 34.9057 67.9843 34.7018 67.894 34.4835L67.7829 34.2113L67.6773 33.9669L67.444 33.8946L67.1717 33.8058C66.9132 33.7196 66.6747 33.5905 66.4606 33.4224L66.2384 33.2446L66.094 33.1335L65.8773 33.2113L65.5829 33.3169C65.2452 33.4345 64.879 33.4451 64.5273 33.3002L64.2717 33.1946L64.0606 33.1058L63.9106 33.1835L63.6884 33.3002C63.6246 33.3332 63.5599 33.3822 63.494 33.4558L63.3106 33.6558L63.1329 33.8613C63.0671 33.9349 63.0096 34.0195 62.9662 34.1224L62.8606 34.3835L62.7495 34.6391C62.6298 34.9232 62.4448 35.1672 62.1995 35.3558L61.9773 35.5224L61.7606 35.6946C61.7095 35.7339 61.6777 35.7752 61.6551 35.828L61.544 36.078L61.4384 36.328C61.3503 36.534 61.2457 36.7312 61.1217 36.9169L60.9717 37.1446L60.8217 37.3669C60.7814 37.4271 60.7555 37.494 60.744 37.5724L60.6995 37.8446L60.6606 38.1169C60.6242 38.3639 60.5548 38.6027 60.4495 38.828L60.3384 39.0669L60.2217 39.3113C60.2047 39.3479 60.1981 39.3909 60.2051 39.4558L60.2329 39.7391L60.2662 40.0169C60.3157 40.4695 60.1212 40.8509 59.8217 41.1224L59.5773 41.3446L59.4606 41.4446L59.5162 41.5669L59.6384 41.8558C59.7757 42.1807 59.816 42.5438 59.694 42.9058L59.6051 43.1613L59.5217 43.4169C59.4856 43.5235 59.4652 43.6319 59.4606 43.7391L59.4162 44.8058L59.4051 45.0669L59.394 45.3335C59.3853 45.5513 59.3563 45.7682 59.3106 45.9835L59.1995 46.5169C59.1793 46.6129 59.1756 46.7061 59.1884 46.8002L59.2273 47.0669L59.2606 47.3335C59.2917 47.5592 59.3039 47.7897 59.2884 48.0169L59.2662 48.2835L59.2495 48.5502C59.2386 48.7108 59.232 48.8719 59.2329 49.0335V49.3058L59.2384 49.5724C59.239 49.6737 59.2548 49.7731 59.2884 49.8724L59.3773 50.1335L59.4662 50.3891C59.5584 50.6597 59.5892 50.9441 59.5606 51.228L59.5329 51.5002L59.5051 51.778C59.4944 51.8837 59.4987 51.9836 59.5217 52.078L59.5884 52.3446L59.6495 52.6058C59.6504 52.6093 59.6571 52.6356 59.7162 52.6835L59.9551 52.878L60.1995 53.078C60.3996 53.2407 60.5665 53.4433 60.6662 53.6891L60.744 53.9502L60.794 54.2058L60.844 54.4669C60.8595 54.5459 60.8741 54.6529 60.8662 54.7669C60.8583 54.8778 60.8235 55.0527 60.6995 55.2169C60.3927 55.6214 59.9318 55.5289 59.794 55.4891L59.594 55.4335L59.3884 55.3724C59.0924 55.2867 58.8568 55.107 58.6717 54.9002L58.4884 54.7002L58.3051 54.4946C58.271 54.4565 58.2255 54.4208 58.1495 54.3946L57.594 54.2058C57.1632 54.0593 56.8847 53.7264 56.7829 53.3058L56.6384 52.7058C56.6196 52.628 56.5947 52.6056 56.5884 52.6002L56.3829 52.428L56.1829 52.2502C55.984 52.0792 55.8156 51.8795 55.6884 51.6502L55.4329 51.1835C55.341 51.0179 55.2548 50.8473 55.1717 50.678L55.0551 50.4446L54.9384 50.2058C54.8728 50.0719 54.7965 49.9422 54.7162 49.8169L54.5717 49.5946L54.4329 49.3669C54.3094 49.1743 54.2055 48.9708 54.1273 48.7558L54.0384 48.5058L53.944 48.2613C53.9141 48.1792 53.8689 48.0929 53.7995 48.0113L53.6217 47.8002L53.4384 47.5891C53.2763 47.3984 53.1415 47.1877 53.0384 46.9613L52.9273 46.7113L52.8162 46.4669C52.6807 46.169 52.6401 45.8509 52.6884 45.5335L52.7773 44.9669C52.7966 44.84 52.7964 44.7265 52.7829 44.628L52.744 44.3669L52.7106 44.1058C52.6974 44.0112 52.6634 43.9104 52.6106 43.8002L52.4884 43.5391L52.3995 43.3613L52.3773 43.578L52.344 43.8446C52.3138 44.0811 52.2553 44.3117 52.1662 44.5335L52.0606 44.7835L51.9606 45.0335C51.9457 45.0707 51.9389 45.1127 51.9495 45.1724L52.0495 45.728C52.1333 46.1954 51.9447 46.595 51.6495 46.878L51.4051 47.1113L51.2329 47.2724L51.2773 47.4169L51.3662 47.6946C51.4311 47.9016 51.4844 48.1074 51.5273 48.3113L51.5829 48.5835L51.644 48.8558C51.7287 49.2604 51.6164 49.6368 51.394 49.9446L51.2106 50.2002L51.0773 50.378L51.1551 50.5446L51.2829 50.8113C51.403 51.0758 51.4652 51.3617 51.4606 51.6558V51.9169L51.4551 52.1835C51.4526 52.3433 51.4524 52.5027 51.4606 52.6613L51.4773 52.928L51.4884 53.1891C51.5008 53.426 51.4853 53.665 51.4384 53.9002L51.3273 54.4446C51.2953 54.6049 51.2693 54.7679 51.2495 54.9335L51.2162 55.2169L51.1829 55.4946C51.1717 55.591 51.1815 55.682 51.2051 55.7724L51.2773 56.0446L51.344 56.3113C51.3484 56.3283 51.3578 56.3517 51.4051 56.3891L51.6384 56.578L51.8773 56.7613C51.9308 56.8037 51.9995 56.8635 52.0606 56.9335C52.0909 56.9684 52.1334 57.0231 52.1717 57.0946C52.2077 57.1622 52.2662 57.3003 52.2606 57.478C52.2536 57.6857 52.1602 57.8748 52.0106 58.0058C51.8851 58.1152 51.7542 58.1558 51.6829 58.1724C51.5447 58.2041 51.4142 58.1952 51.3551 58.1891L51.1162 58.1669L50.8773 58.1391C50.4272 58.0924 50.1148 57.8089 49.944 57.4669L49.6884 56.9558C49.6596 56.8981 49.6271 56.8634 49.5884 56.8391L49.3495 56.6946L49.1162 56.5502C48.9018 56.417 48.7094 56.2509 48.544 56.0613L48.3717 55.8613L48.194 55.6558C48.0246 55.4616 47.8876 55.2439 47.7884 55.0058L47.6829 54.7558L47.5773 54.5002C47.5341 54.3969 47.4789 54.305 47.4106 54.2224L47.2384 54.0113L47.0662 53.8058C46.9216 53.6314 46.7955 53.4433 46.6884 53.2446L46.5606 53.0113L46.4329 52.7724C46.3425 52.6047 46.2579 52.4341 46.1773 52.2613L46.0606 52.0169L45.9495 51.7724C45.8875 51.6397 45.8135 51.5111 45.7329 51.3835L45.5884 51.1502L45.444 50.9224C45.381 50.8229 45.3396 50.713 45.2995 50.6058L45.2717 50.7558L45.2217 51.0391C45.1575 51.3829 44.9861 51.6874 44.7106 51.9169L44.494 52.0946L44.2829 52.2724C44.0977 52.426 43.8952 52.5579 43.6773 52.6669L43.4162 52.7946L43.2051 52.8946L43.1551 53.1724L43.094 53.478C43.0253 53.8091 42.8651 54.1153 42.594 54.3502L42.3884 54.528L42.1884 54.7058C41.9794 54.8868 41.7388 55.0221 41.4773 55.1113L41.2051 55.2002L40.9329 55.2946C40.7966 55.3411 40.676 55.3935 40.5717 55.4558L40.344 55.5946L40.1217 55.728C40.0778 55.7543 40.027 55.7985 39.9773 55.878L39.8217 56.128L39.6662 56.3724C39.5089 56.6245 39.3016 56.8393 39.044 56.9946L38.8162 57.1335L38.5829 57.2724C38.3639 57.4043 38.127 57.4982 37.8773 57.5558L37.344 57.678C37.2873 57.691 37.2357 57.7192 37.1829 57.7669L36.7606 58.1446C36.5628 58.3235 36.3403 58.4667 36.094 58.5669L35.844 58.6724L35.594 58.7724C35.2965 58.8929 34.9808 58.9187 34.6717 58.8724L34.3773 58.828L34.0773 58.7835C34.0554 58.7804 34.0439 58.7835 34.044 58.7835L33.8162 58.9335L33.5829 59.0891C33.3051 59.2721 32.9886 59.3582 32.6551 59.3446L32.0995 59.3224C31.993 59.3182 31.8959 59.3342 31.8051 59.3613L31.5495 59.4335L31.294 59.5113C31.1386 59.5578 30.9806 59.6087 30.8217 59.6669L30.5662 59.7669L30.3051 59.8613C30.0685 59.9478 29.8226 59.9975 29.5717 60.0113L29.3051 60.028L29.0329 60.0391C28.8483 60.0492 28.6628 60.0609 28.4773 60.0669L28.2051 60.0724L27.9329 60.0835C27.6298 60.0933 27.3359 60.027 27.0662 59.8946L26.5551 59.6391C26.4742 59.5997 26.4264 59.5943 26.4051 59.5946L25.9273 59.6169C25.8789 59.6187 25.7926 59.6188 25.7051 59.6058C25.6696 59.6004 25.5603 59.5813 25.444 59.5169C25.3806 59.4815 25.278 59.4105 25.194 59.2835C25.0986 59.1389 25.0586 58.9634 25.0829 58.7891C25.1227 58.508 25.3059 58.3506 25.3329 58.328C25.3906 58.2794 25.4479 58.2495 25.4773 58.2335C25.54 58.1994 25.6095 58.1753 25.6606 58.1558L25.9106 58.0558L26.1606 57.9613C26.3605 57.8849 26.57 57.8222 26.7884 57.7724L27.0717 57.7058L27.3273 57.6502L27.444 57.4335L27.5773 57.178C27.6921 56.9628 27.8289 56.7635 27.9884 56.5835L28.1717 56.378L28.3329 56.1891V56.1835L28.3162 55.9502L28.094 56.0335V56.028C28.0876 56.0334 28.074 56.0556 28.0495 56.0946L27.7051 56.6391C27.5958 56.8136 27.4394 56.9845 27.2217 57.0946C26.9988 57.207 26.7585 57.23 26.5384 57.2002L26.2495 57.1613L25.9551 57.1224C25.798 57.1011 25.6507 57.0947 25.5162 57.1002L24.9717 57.1224C24.853 57.1274 24.7407 57.1492 24.6329 57.1835L24.3773 57.2613L24.1273 57.3446C24.0811 57.3594 24.0127 57.3947 23.9273 57.478L23.6995 57.6946L23.4773 57.9169C23.3279 58.0626 23.1362 58.1829 22.9051 58.2391C22.6732 58.2953 22.4464 58.2768 22.244 58.2113L21.9495 58.1169L21.6606 58.0224C21.597 58.0017 21.5788 58.0106 21.5773 58.0113L21.3217 58.1002L21.0662 58.1946C20.7876 58.2948 20.4971 58.3222 20.2051 58.2835L19.9273 58.2502L19.694 58.2169L19.4551 58.4224L19.2162 58.6335C19.0572 58.7704 18.8552 58.8825 18.6162 58.9224C18.3759 58.9624 18.1479 58.9181 17.9495 58.8335L17.6662 58.7113L17.4495 58.6224L17.3662 58.6835L17.1606 58.8224C17.0666 58.8853 16.9693 58.9631 16.8717 59.0613L16.6829 59.2558L16.4884 59.4502C16.3035 59.636 16.0696 59.8026 15.7829 59.878L15.394 59.978C15.2275 60.0213 15.0468 60.0555 14.8551 60.078L14.344 60.1335C14.011 60.1721 13.697 60.0957 13.4162 59.9502L13.1495 59.8113L12.9217 59.6946L12.6495 59.828L12.3551 59.9669C12.1731 60.0515 12.0532 60.1151 11.9829 60.1613L11.8162 60.2724L11.644 60.3835C11.4562 60.5067 11.2363 60.5976 11.0106 60.6669L10.7273 60.7558L10.4384 60.8391C10.3174 60.8762 10.1723 60.9121 10.0217 60.9169C9.89152 60.9207 9.59446 60.9069 9.36063 60.6669L9.28841 60.5891L9.21063 60.5169C9.02976 60.3312 8.98188 60.1077 8.96619 59.9835C8.94897 59.8465 8.95761 59.7076 8.97174 59.5891L9.00508 59.3224L9.03286 59.0558C9.04961 58.9147 9.05955 58.7742 9.05508 58.6335L9.04397 58.3613L9.03841 58.0946C9.03228 57.906 9.02996 57.7172 9.03286 57.528V57.2613L9.03841 56.9891C9.04392 56.6614 9.15178 56.3611 9.32174 56.0946L9.48286 55.8335L9.61619 55.628L9.5273 55.4224L9.41619 55.1502C9.28736 54.8415 9.24911 54.5051 9.33286 54.1669L9.39397 53.9058L9.46063 53.6446C9.50084 53.4823 9.53494 53.3178 9.56619 53.1558L9.61619 52.8946L9.66619 52.628C9.68468 52.5308 9.69122 52.4284 9.6773 52.3169L9.64397 52.0391L9.60508 51.7613C9.55753 51.3773 9.67351 51.0215 9.89952 50.728L10.0773 50.4891L10.2606 50.2558C10.2996 50.2052 10.2993 50.178 10.2995 50.1669L10.3051 49.9002L10.3106 49.628C10.3156 49.3369 10.3878 49.0581 10.5217 48.8002L10.6495 48.5558L10.7662 48.3224C10.7652 48.3168 10.7633 48.3095 10.7606 48.3002L10.6717 48.0002L10.5884 47.7002C10.4967 47.3833 10.4865 47.0459 10.5995 46.7169L10.6884 46.4613L10.7717 46.2058C10.8614 45.9456 11.0034 45.709 11.1829 45.5002L11.3717 45.2835L11.5329 45.0946L11.494 44.8113L11.4495 44.5113C11.4029 44.1973 11.4307 43.8794 11.5606 43.578L11.6662 43.328L11.7717 43.0835C11.8464 42.9106 11.924 42.7368 12.0051 42.5669L12.1217 42.3224L12.2384 42.0835C12.3137 41.9258 12.3886 41.7647 12.4606 41.6058L12.6829 41.1169C12.8267 40.7994 13.0668 40.5638 13.3495 40.3946L13.6217 40.228L13.8662 40.078L13.894 39.8669L13.9273 39.5835C13.9564 39.3417 14.0097 39.1028 14.094 38.878L14.1884 38.628L14.2884 38.3724C14.4031 38.0676 14.5987 37.818 14.8551 37.628L15.0884 37.4558L15.3106 37.2891L15.3495 37.0058L15.3884 36.7113C15.4381 36.3503 15.6091 36.0271 15.8995 35.7891L16.1162 35.6169L16.3329 35.4391C16.3903 35.3919 16.4287 35.339 16.4551 35.278L16.5606 35.028L16.6717 34.7724C16.7978 34.4822 16.9974 34.2413 17.2551 34.0613L17.4829 33.9002L17.7106 33.7446C17.716 33.7409 17.7205 33.7348 17.7217 33.7335H17.7273C17.728 33.7325 17.7325 33.7224 17.7384 33.7002L17.8106 33.4169L17.8884 33.1335L18.0162 32.8224C18.1794 32.5425 18.4427 32.3531 18.7551 32.2613L19.3662 32.0835C19.4092 32.0709 19.43 32.0558 19.4384 32.0502L19.444 32.0446L19.7551 31.6113C19.806 31.5395 19.8521 31.4427 19.8884 31.3169L20.0551 30.7391C20.1406 30.4433 20.291 30.1712 20.5162 29.9502L20.7051 29.7613L20.8995 29.578C21.0511 29.4292 21.2116 29.2879 21.3829 29.1613L21.8162 28.8391C21.9305 28.7546 22.0401 28.662 22.1384 28.5613L22.3273 28.3724L22.5106 28.178C22.642 28.0434 22.7796 27.9131 22.9162 27.7835L23.1106 27.5946L23.3051 27.4113C23.5698 27.1601 23.8997 27.039 24.2384 27.0058L24.8717 26.9391H24.8829L25.0273 26.7502L25.194 26.528C25.3102 26.3766 25.4331 26.226 25.5551 26.078L25.7273 25.8669L25.9051 25.6502C26.0833 25.4345 26.2989 25.2592 26.5495 25.1335L26.794 25.0113L27.0329 24.8946C27.2296 24.7962 27.437 24.7155 27.6495 24.6502L27.9106 24.5669L28.1773 24.4835C28.1807 24.479 28.1829 24.4707 28.1884 24.4613L28.344 24.2002L28.4995 23.9335C28.686 23.616 28.9726 23.3743 29.3495 23.2724L29.8829 23.128C29.9814 23.1012 30.0671 23.0602 30.144 23.0058L30.3662 22.8502L30.5829 22.6946C30.7729 22.56 30.9793 22.4448 31.194 22.3558L31.4384 22.2558L31.6884 22.1502C31.8146 22.0978 31.9379 22.0365 32.0551 21.9613L32.2829 21.8113L32.5106 21.6669C32.7792 21.4947 33.0802 21.4076 33.394 21.4002L33.6829 21.3946L33.9662 21.3891C34.1363 21.3851 34.3027 21.3742 34.4606 21.3558L35.0051 21.2891C35.0446 21.2845 35.0801 21.273 35.1217 21.2391L35.344 21.0558L35.5606 20.878C35.7863 20.6907 36.0443 20.5548 36.3329 20.4891L36.594 20.4335L36.8551 20.3724C36.9725 20.3458 37.0886 20.3052 37.1995 20.2502L37.6884 20.0058C37.9151 19.8933 38.1551 19.8159 38.4051 19.778L38.9384 19.7002C39.1387 19.6699 39.3408 19.6492 39.544 19.6391L39.8162 19.628L40.0829 19.6113C40.0976 19.6106 40.1257 19.6078 40.1773 19.5669L40.4106 19.378L40.6495 19.1891C40.9393 18.9583 41.2926 18.843 41.6773 18.8835L42.2329 18.9391C42.3107 18.9473 42.3784 18.9406 42.444 18.9169L42.7051 18.8224L42.9606 18.728C43.2855 18.6084 43.6213 18.6036 43.944 18.7002L44.2273 18.7835L44.5051 18.8669C44.6336 18.9055 44.7491 18.926 44.8551 18.928L45.3884 18.9391C45.5496 18.9418 45.7124 18.9364 45.8717 18.928L46.1329 18.9169L46.3995 18.9002C46.4904 18.8953 46.5886 18.8767 46.694 18.8335L46.9551 18.7224L47.2162 18.6169C47.488 18.5056 47.7764 18.4542 48.0717 18.478L48.6051 18.5224C48.8383 18.5412 49.0678 18.59 49.294 18.6613L49.8273 18.828H49.844C49.8476 18.8271 49.8563 18.8267 49.8662 18.8224L50.3995 18.5891C50.6736 18.4703 50.9692 18.4158 51.2717 18.4391L51.5384 18.4613L51.8051 18.478C51.9359 18.4879 52.0681 18.4879 52.1995 18.4724L52.7329 18.4058C53.0593 18.3676 53.3742 18.4328 53.6606 18.5724L54.1384 18.8113L54.3551 18.6946L54.6217 18.5613C54.8666 18.4357 55.1276 18.3478 55.3995 18.3169L55.9329 18.2613C56.23 18.2277 56.5228 18.2676 56.7995 18.3724L57.3329 18.5724C57.3405 18.5753 57.3464 18.5773 57.3495 18.578H57.3606C57.3634 18.5774 57.3707 18.5748 57.3773 18.5724L57.9106 18.3835C58.1754 18.2889 58.4512 18.2459 58.7329 18.2669L58.9995 18.2891L59.2662 18.3058C59.3853 18.3147 59.5063 18.3093 59.6273 18.2891L60.1606 18.2002L60.444 18.1835C60.7195 18.1941 60.9752 18.2884 61.1995 18.4335L61.7329 18.778C61.7385 18.7816 61.7455 18.7869 61.7495 18.7891L61.9884 18.7335L62.2551 18.6724C62.389 18.6415 62.5252 18.5939 62.6662 18.5335L62.9329 18.4224L63.1995 18.3058C63.5586 18.1518 63.9428 18.155 64.2995 18.3113L64.8329 18.5446C64.9256 18.5854 65.0056 18.6013 65.0717 18.6002L65.6051 18.5891C65.7411 18.5867 65.8782 18.5759 66.0162 18.5502L66.5495 18.4502C66.8274 18.3984 67.1085 18.4057 67.3829 18.4724L67.6495 18.5391L67.9162 18.6002C67.993 18.6189 68.0643 18.6208 68.1384 18.6058L68.4051 18.5502L68.6717 18.5002C68.9822 18.4369 69.2935 18.4613 69.5884 18.5669L70.1217 18.7558L70.1329 18.7613H70.144C70.147 18.7606 70.1535 18.7585 70.1606 18.7558L70.4273 18.6558L70.694 18.5502C70.9139 18.4656 71.1384 18.4044 71.3662 18.3669L71.8995 18.278C72.2656 18.2177 72.6115 18.3068 72.9106 18.4835L73.1773 18.6391L73.3329 18.7335L73.4995 18.628L73.7662 18.4558C74.0343 18.2853 74.3397 18.1771 74.6717 18.1724L74.9384 18.1669H75.2051C75.5471 18.1621 75.8605 18.2693 76.1329 18.4446L76.3995 18.6169L76.6217 18.7669L76.8162 18.6891L77.0829 18.578C77.3267 18.4807 77.5839 18.4259 77.844 18.4113L78.3773 18.378C78.5676 18.3674 78.7856 18.3699 78.9773 18.4169L79.1051 18.4446L79.2329 18.478C79.2916 18.4924 79.4035 18.5151 79.5773 18.5446L79.844 18.5891L80.1051 18.6335C80.1304 18.6378 80.171 18.6408 80.2384 18.6113L80.7829 18.3669C81.097 18.2285 81.443 18.1937 81.7884 18.2835L82.0495 18.3502L82.3162 18.4169C82.4315 18.4468 82.5455 18.4624 82.6606 18.4613L82.9329 18.4558H83.1995C83.4187 18.4533 83.639 18.4662 83.8551 18.5002L84.1217 18.5446L84.3829 18.5835C84.584 18.6151 84.7858 18.6583 84.9829 18.7113L85.5051 18.8558C85.6235 18.8877 85.7474 18.9028 85.8717 18.9058L86.1384 18.9113L86.4106 18.9169C86.7686 18.9255 87.0862 19.0659 87.3495 19.2835L87.5829 19.4724L87.8162 19.6669C87.9177 19.7505 88.0108 19.8023 88.094 19.8335L88.344 19.928L88.5606 20.0058C88.5691 20.0042 88.5903 20.008 88.6217 19.9946L88.9329 19.8558L89.244 19.7224C89.4326 19.6412 89.6578 19.5937 89.8995 19.6224C90.0227 19.6371 90.1389 19.6677 90.244 19.7169L90.5329 19.9113L90.7551 20.1113L90.9773 20.3058C91.0858 20.4028 91.191 20.4788 91.294 20.5335L91.5329 20.6613L91.7717 20.7835C91.8083 20.8027 91.8551 20.8206 91.9273 20.8169L92.2106 20.8002L92.4995 20.7835C92.8742 20.764 93.2271 20.8827 93.5106 21.1335L93.7217 21.3224L93.9273 21.5002L94.2217 21.4835L94.5217 21.4613L94.8162 21.4724C95.0088 21.4991 95.1918 21.5635 95.3551 21.6724L95.5884 21.8669L95.7829 22.078L95.9829 22.2891C96.0746 22.3859 96.1677 22.46 96.2606 22.5169L96.7162 22.7946C96.8041 22.8482 96.9025 22.8899 97.0106 22.9169L97.544 23.0502C97.8606 23.1286 98.1368 23.2946 98.3551 23.5335L98.7329 23.9446C98.7683 23.9833 98.8 24.0051 98.844 24.0169L99.1106 24.0891L99.3773 24.1558C99.6392 24.2255 99.8821 24.3437 100.1 24.5058L100.316 24.6669L100.527 24.828C100.609 24.8891 100.704 24.935 100.811 24.9724L101.072 25.0669L101.333 25.1558C101.64 25.263 101.898 25.4532 102.094 25.7113L102.266 25.9335L102.433 26.1558C102.44 26.165 102.443 26.1717 102.444 26.1724C102.446 26.1738 102.456 26.1786 102.477 26.1835L102.766 26.2446L103.05 26.3113C103.449 26.4024 103.762 26.6522 103.944 27.0169L104.077 27.2835L104.205 27.5446C104.268 27.6718 104.342 27.7763 104.416 27.8613L104.588 28.0613L104.766 28.2669C104.778 28.2803 104.802 28.3044 104.872 28.3224L105.166 28.3946L105.455 28.4669C105.733 28.5381 105.976 28.6851 106.161 28.9002L106.327 29.1391L106.461 29.3891L106.594 29.6335C106.641 29.721 106.698 29.7879 106.761 29.8391L106.966 30.0113L107.172 30.178C107.301 30.2836 107.436 30.3877 107.572 30.4891L107.788 30.6502L108.005 30.8169C108.169 30.9391 108.327 31.0681 108.477 31.2058L108.677 31.3891L108.877 31.5669C109.041 31.7171 109.188 31.8843 109.322 32.0613L109.483 32.2724L109.644 32.4891C109.735 32.6093 109.834 32.7241 109.938 32.8335L110.127 33.028L110.311 33.2224C110.433 33.3509 110.558 33.483 110.683 33.6113L111.061 34.0002C111.327 34.2754 111.45 34.6199 111.466 34.9724L111.477 35.2891L111.494 35.6113C111.496 35.6529 111.502 35.6751 111.505 35.6835V35.6891L111.861 36.0891C111.96 36.2004 112.071 36.3068 112.188 36.4113L112.394 36.5946L112.605 36.778C112.848 36.9939 113.017 37.2693 113.1 37.5835L113.166 37.8502L113.238 38.1224C113.268 38.2358 113.312 38.3346 113.366 38.4224L113.505 38.6502L113.644 38.8724C113.742 39.0307 113.841 39.1939 113.933 39.3558L114.061 39.5891L114.194 39.8169C114.266 39.9439 114.348 40.0686 114.438 40.1891L114.6 40.4058L114.766 40.6224C114.904 40.8058 115.02 41.0042 115.116 41.2113L115.227 41.4502L115.344 41.6946C115.455 41.9335 115.52 42.1872 115.544 42.4502L115.572 42.7335L115.594 43.0113C115.602 43.1009 115.625 43.1754 115.661 43.2391L115.927 43.7058C116.049 43.9214 116.134 44.1532 116.188 44.3946L116.25 44.6558L116.305 44.9169C116.346 45.0996 116.383 45.2829 116.416 45.4669L116.466 45.7335L116.516 45.9946C116.523 46.0304 116.537 46.0757 116.588 46.1335L116.783 46.3502L116.972 46.5724C117.248 46.8856 117.355 47.2774 117.277 47.6835L117.222 47.9724L117.166 48.2669C117.153 48.338 117.162 48.3756 117.172 48.4002L117.372 48.9002C117.443 49.0762 117.51 49.2539 117.572 49.4335L117.661 49.6891L117.744 49.9391C117.784 50.0546 117.842 50.1736 117.916 50.2946L118.216 50.7835C118.376 51.0427 118.47 51.3311 118.483 51.6391L118.494 51.9058L118.505 52.178C118.512 52.3381 118.524 52.4985 118.544 52.6558L118.577 52.9169L118.616 53.1835C118.642 53.3911 118.651 53.6015 118.65 53.8113V54.3502C118.649 54.4884 118.66 54.6255 118.683 54.7613L118.772 55.2946C118.811 55.532 118.817 55.7716 118.794 56.0113L118.766 56.2835L118.744 56.5502C118.721 56.7832 118.668 57.0136 118.594 57.2391L118.505 57.5058L118.422 57.7724C118.387 57.8794 118.37 57.9787 118.372 58.0724L118.383 58.6058C118.383 58.6156 118.387 58.6592 118.444 58.7391L118.822 59.2724C118.93 59.425 119.036 59.6343 119.05 59.8891C119.064 60.1695 118.964 60.4189 118.8 60.6058L118.466 60.9835C118.182 61.3048 117.788 61.4212 117.394 61.3613L117.127 61.3224L116.866 61.2835C116.605 61.2438 116.353 61.1556 116.122 61.028L115.883 60.9002L115.65 60.7669C115.417 60.6386 115.21 60.4716 115.033 60.2724L114.844 60.0613L114.705 59.9113L114.533 59.9335L114.261 59.9613C114.138 59.9747 114.033 59.998 113.944 60.0335L113.711 60.128L113.483 60.2224C113.174 60.346 112.827 60.359 112.494 60.2113L112.288 60.1224L112.088 60.0335C111.821 59.9146 111.603 59.7213 111.433 59.5058L111.077 59.0502C110.942 58.8796 110.82 58.7074 110.733 58.5391L110.644 58.3724L110.561 58.2002C110.567 58.212 110.565 58.2069 110.544 58.1835C110.523 58.1608 110.486 58.1305 110.433 58.0891L110.194 57.9058L109.961 57.7224L109.705 57.7669L109.427 57.8113C109.108 57.8618 108.787 57.8211 108.488 57.6835L108.244 57.5724L107.994 57.4558C107.855 57.3915 107.713 57.3402 107.572 57.2946L107.322 57.2113L107.066 57.128C106.876 57.0667 106.689 56.996 106.505 56.9169L106.255 56.8113L106.011 56.7058C105.922 56.6677 105.832 56.6448 105.738 56.6391L105.205 56.6058C104.865 56.5856 104.556 56.4562 104.305 56.228L104.105 56.0446L103.905 55.8669C103.862 55.8272 103.812 55.7952 103.744 55.778L103.211 55.6446C102.97 55.5838 102.741 55.4904 102.527 55.3669L102.061 55.1002C101.788 54.9423 101.577 54.7167 101.427 54.4446L101.288 54.1946L101.161 53.9669L100.572 53.8113C100.368 53.7564 100.168 53.6501 100.005 53.478C99.8418 53.3057 99.7508 53.0979 99.7051 52.8946L99.6329 52.5946L99.5662 52.2891C99.5646 52.282 99.562 52.2767 99.5606 52.2724L99.5384 52.2558V52.5891Z" fill="#303A4B"/>
</svg>
