<svg width="128" height="128" viewBox="0 0 128 128" fill="none" xmlns="http://www.w3.org/2000/svg">
<path d="M75.228 18.1667C75.5698 18.1619 75.8835 18.2693 76.1558 18.4444L76.4224 18.6167L76.6447 18.7667L76.8391 18.6889L77.1058 18.5778C77.3496 18.4805 77.6069 18.4257 77.8669 18.4111L78.4002 18.3778C78.5875 18.3674 78.812 18.3668 79.0058 18.4167L79.128 18.45L79.2447 18.4778C79.2951 18.4907 79.4038 18.5149 79.578 18.5444L79.8391 18.5889L80.1058 18.6333C80.1312 18.6376 80.1715 18.6408 80.2391 18.6111L80.5113 18.4889L80.7836 18.3722C81.0977 18.2338 81.4437 18.1934 81.7891 18.2833L82.0502 18.35L82.3169 18.4167C82.4322 18.4466 82.5462 18.4623 82.6613 18.4611L82.9336 18.4555H83.2002C83.4193 18.4531 83.6397 18.466 83.8558 18.5L84.1224 18.5444L84.3836 18.5833C84.5848 18.615 84.7864 18.658 84.9836 18.7111L85.5058 18.8555C85.6233 18.8872 85.7436 18.9024 85.8669 18.9055L86.1391 18.9111L86.4113 18.9222C86.7684 18.9308 87.0872 19.0612 87.3502 19.2778L87.8169 19.6667C87.9183 19.7501 88.0116 19.8021 88.0947 19.8333L88.3447 19.9278L88.5613 20.0055C88.5701 20.004 88.5915 20.0076 88.6224 19.9944L88.9336 19.8555L89.2447 19.7222C89.4334 19.641 89.6585 19.5934 89.9002 19.6222C90.0235 19.637 90.1396 19.6674 90.2447 19.7167L90.5336 19.9111L90.7558 20.1111L90.978 20.3055C91.0863 20.4025 91.1918 20.4786 91.2947 20.5333L91.5336 20.6611L91.7724 20.7833C91.8084 20.8022 91.8521 20.8199 91.9224 20.8167L92.5002 20.7833C92.7809 20.7688 93.0482 20.8341 93.2836 20.9722L93.5113 21.1389L93.7224 21.3222L93.9224 21.5L94.2224 21.4833L94.5224 21.4611L94.8169 21.4722C95.1051 21.5123 95.3701 21.6424 95.5836 21.8667L95.9836 22.2889C96.0753 22.3857 96.1683 22.4598 96.2613 22.5167L96.7169 22.7944C96.805 22.8481 96.903 22.8897 97.0113 22.9167L97.5447 23.05C97.8607 23.1284 98.1322 23.295 98.3502 23.5333L98.5447 23.7389L98.7336 23.9444C98.7689 23.9829 98.8007 24.005 98.8447 24.0167L99.1113 24.0889L99.378 24.1555C99.64 24.2254 99.8827 24.3434 100.1 24.5055L100.317 24.6667L100.528 24.8222C100.61 24.8836 100.705 24.9348 100.811 24.9722L101.072 25.0667L101.334 25.1555C101.641 25.2628 101.899 25.4529 102.095 25.7111L102.267 25.9333L102.434 26.1555C102.441 26.1648 102.444 26.1715 102.445 26.1722C102.448 26.1739 102.458 26.1786 102.478 26.1833L102.767 26.2444L103.05 26.3111C103.449 26.4023 103.763 26.6519 103.945 27.0167L104.078 27.2833L104.206 27.5444C104.269 27.6715 104.343 27.7761 104.417 27.8611L104.589 28.0611L104.767 28.2667C104.779 28.2802 104.803 28.3043 104.872 28.3222L105.167 28.3944L105.456 28.4667C105.733 28.538 105.976 28.6849 106.161 28.9L106.328 29.1389L106.461 29.3889L106.595 29.6333C106.642 29.721 106.699 29.7876 106.761 29.8389L106.967 30.0111L107.172 30.1778C107.302 30.2835 107.437 30.3874 107.572 30.4889L107.789 30.65L108.006 30.8167C108.17 30.939 108.328 31.0678 108.478 31.2056L108.678 31.3889L108.878 31.5667C109.041 31.7168 109.189 31.8842 109.322 32.0611L109.484 32.2722L109.645 32.4889C109.736 32.6093 109.835 32.7238 109.939 32.8333L110.128 33.0278L110.311 33.2222C110.434 33.3507 110.559 33.4828 110.684 33.6111L111.061 34L111.234 34.2167C111.381 34.4468 111.454 34.7073 111.467 34.9722L111.478 35.2889L111.495 35.6111C111.497 35.653 111.503 35.6752 111.506 35.6833V35.6889L111.861 36.0889C111.96 36.2003 112.071 36.3065 112.189 36.4111L112.395 36.5944L112.606 36.7778C112.849 36.9936 113.012 37.2693 113.095 37.5833L113.167 37.85L113.239 38.1222C113.269 38.2355 113.313 38.3344 113.367 38.4222L113.506 38.65L113.645 38.8722C113.742 39.0305 113.842 39.1937 113.934 39.3556L114.061 39.5833L114.195 39.8167C114.267 39.9437 114.348 40.0684 114.439 40.1889L114.6 40.4056L114.767 40.6222C114.905 40.8055 115.02 41.0042 115.117 41.2111L115.228 41.45L115.345 41.6944C115.456 41.9333 115.521 42.1871 115.545 42.45L115.572 42.7278L115.595 43.0111C115.603 43.1004 115.626 43.1754 115.661 43.2389L115.928 43.7056C116.049 43.9212 116.135 44.1531 116.189 44.3944L116.25 44.6556L116.306 44.9167C116.347 45.0994 116.384 45.2828 116.417 45.4667L116.467 45.7278L116.517 45.9944C116.524 46.0304 116.538 46.0759 116.589 46.1333L116.784 46.35L116.978 46.5722C117.252 46.8851 117.355 47.2783 117.278 47.6833L117.222 47.9722L117.167 48.2667C117.153 48.3381 117.163 48.3755 117.172 48.4L117.372 48.9C117.444 49.076 117.511 49.2537 117.572 49.4333L117.661 49.6889L117.745 49.9389C117.784 50.0544 117.842 50.1734 117.917 50.2945L118.217 50.7833C118.376 51.0423 118.47 51.3311 118.484 51.6389L118.495 51.9056L118.506 52.1778C118.513 52.3377 118.525 52.4985 118.545 52.6556L118.578 52.9167L118.617 53.1833C118.643 53.3911 118.651 53.6012 118.65 53.8111V54.35C118.649 54.4883 118.661 54.6252 118.684 54.7611L118.772 55.2945C118.812 55.5317 118.818 55.7714 118.795 56.0111L118.767 56.2778L118.745 56.55C118.722 56.7828 118.669 57.0136 118.595 57.2389L118.506 57.5056L118.422 57.7722C118.387 57.8791 118.371 57.9786 118.372 58.0722L118.384 58.6056C118.384 58.6162 118.39 58.6556 118.445 58.7333L118.822 59.2667C118.931 59.4195 119.036 59.6328 119.05 59.8889C119.065 60.1694 118.965 60.4186 118.8 60.6056L118.634 60.7945L118.467 60.9778C118.183 61.2998 117.794 61.4199 117.4 61.3611L117.134 61.3222L116.867 61.2778C116.606 61.2384 116.359 61.1544 116.128 61.0278L115.889 60.9L115.65 60.7667C115.418 60.6391 115.21 60.4763 115.034 60.2778L114.845 60.0611L114.711 59.9111L114.534 59.9333L114.261 59.9611C114.138 59.9744 114.034 60.0037 113.945 60.0389L113.711 60.1333L113.478 60.2222C113.169 60.3445 112.821 60.3604 112.489 60.2111L112.289 60.1222L112.084 60.0278C111.819 59.9086 111.608 59.7189 111.439 59.5056L111.256 59.2778L111.078 59.05C110.944 58.8802 110.826 58.71 110.739 58.5445L110.65 58.3778L110.561 58.2056C110.567 58.2158 110.565 58.2111 110.545 58.1889C110.523 58.1652 110.483 58.1314 110.428 58.0889L109.961 57.7222L109.706 57.7667L109.422 57.8111C109.104 57.861 108.787 57.8204 108.489 57.6833L108.239 57.5722L107.995 57.4556C107.855 57.3912 107.714 57.3346 107.572 57.2889L107.317 57.2111L107.067 57.1278C106.876 57.0663 106.685 56.9962 106.5 56.9167L106.011 56.7056C105.922 56.6673 105.828 56.6445 105.734 56.6389L105.467 56.6222L105.206 56.6056C104.865 56.5853 104.552 56.4569 104.3 56.2278L104.106 56.0445L103.906 55.8667C103.862 55.8272 103.812 55.795 103.745 55.7778L103.478 55.7111L103.206 55.6445C102.967 55.5837 102.741 55.4896 102.528 55.3667L102.061 55.1C101.788 54.9421 101.572 54.7169 101.422 54.4445L101.289 54.1945L101.161 53.9667L100.572 53.8111C100.369 53.7564 100.169 53.6498 100.006 53.4778C99.8425 53.3055 99.746 53.0977 99.7002 52.8945L99.6336 52.5945L99.5669 52.2889C99.5653 52.282 99.5627 52.2765 99.5613 52.2722L99.5391 52.2611V52.5945C99.5395 52.7617 99.5449 52.9319 99.5558 53.1L99.578 53.3778L99.5891 53.6056L99.8391 53.8L100.084 53.9945C100.352 54.2032 100.565 54.4874 100.65 54.8445L100.772 55.3556C100.807 55.4993 100.854 55.6431 100.906 55.7833L101 56.0333L101.089 56.2889C101.124 56.3832 101.177 56.4685 101.239 56.5445L101.572 56.9556C101.655 57.057 101.746 57.1506 101.845 57.2333L102.045 57.4L102.25 57.5667C102.324 57.6288 102.403 57.6785 102.489 57.7111L102.734 57.8L102.972 57.8945C103.166 57.9676 103.549 58.1428 103.684 58.5611L103.728 58.6889L103.767 58.8222C103.802 58.9332 103.848 59.1516 103.739 59.3889C103.621 59.6436 103.402 59.7563 103.261 59.8C103.034 59.87 102.806 59.8247 102.711 59.8056L102.439 59.75L102.161 59.6945C102.149 59.692 102.141 59.6941 102.139 59.6945C102.136 59.6951 102.125 59.7007 102.106 59.7111L101.845 59.85L101.589 59.9945C101.276 60.1666 100.922 60.2239 100.561 60.1445L100.289 60.0889L100.022 60.0278C99.9323 60.0079 99.838 60.0062 99.7447 60.0222L99.4724 60.0667L99.1947 60.1167C98.8974 60.1677 98.5982 60.1454 98.3113 60.05L98.0502 59.9611L97.7891 59.8778C97.5642 59.803 97.3496 59.7004 97.1447 59.5778L96.6558 59.2889C96.6193 59.2675 96.59 59.2589 96.5502 59.2611L96.2669 59.2778L95.9891 59.3C95.7031 59.3189 95.4187 59.2769 95.1502 59.1722L94.9002 59.0778L94.6502 58.9778C94.3967 58.879 94.168 58.7338 93.9669 58.55L93.7558 58.3556L93.5391 58.1611C93.5339 58.1564 93.534 58.1504 93.5336 58.15V58.1556H92.9447C92.6677 58.1564 92.3961 58.1098 92.1391 58.0056L91.8891 57.9L91.6391 57.8C91.4419 57.7198 91.2505 57.6249 91.0669 57.5167L90.8336 57.3833L90.6058 57.2445C90.4049 57.1261 90.2149 56.9885 90.0447 56.8278L89.8502 56.6389L89.6502 56.45C89.6194 56.4211 89.5767 56.3985 89.5058 56.3833L88.9391 56.2611C88.5579 56.1797 88.2452 55.9545 88.0447 55.6167L87.8947 55.3722L87.7502 55.1222C87.6778 55.0003 87.5989 54.8967 87.5169 54.8111L87.3336 54.6222L87.1502 54.4278C87.1224 54.3987 87.0726 54.3628 86.978 54.3333L86.6891 54.2445L86.3947 54.1556C86.1846 54.0901 85.9843 53.966 85.828 53.7722C85.6737 53.5808 85.5992 53.3632 85.5724 53.1556L85.528 52.8333L85.5002 52.6278L85.3224 52.5667L85.0224 52.4611C84.6099 52.3179 84.2956 52.0036 84.2002 51.5445L84.1391 51.2556L84.0836 50.9722C84.0517 50.8187 84.0053 50.6799 83.9558 50.5556L83.8558 50.3056L83.7558 50.0611C83.7485 50.0553 83.7351 50.0453 83.7113 50.0333L83.428 49.8889L83.3391 49.8445C83.3487 49.9603 83.351 50.077 83.3447 50.1945L83.3336 50.4722L83.3169 50.75C83.3154 50.7845 83.3183 50.8115 83.3391 50.8445L83.4891 51.0778L83.6391 51.3167C83.7587 51.5065 83.8618 51.7023 83.9447 51.9056L84.0447 52.15L84.1447 52.4C84.2504 52.6604 84.2964 52.937 84.2891 53.2167L84.2836 53.5L84.2724 53.7833C84.2721 53.8035 84.2772 53.8143 84.278 53.8167C84.2789 53.8192 84.283 53.8254 84.2891 53.8333L84.6224 54.2667C84.7431 54.4243 84.8567 54.585 84.9613 54.7445L85.1002 54.9611L85.2447 55.1778C85.3272 55.3035 85.4134 55.4193 85.5002 55.5278L85.6558 55.7222L85.8058 55.9111C85.8589 55.9774 85.9402 56.0973 85.9836 56.2556C86.0337 56.4384 86.0336 56.693 85.8669 56.9222C85.7233 57.1186 85.5298 57.1978 85.428 57.2278C85.3169 57.2604 85.2095 57.2696 85.128 57.2722L84.828 57.2778L84.528 57.2889C84.3103 57.2958 84.0812 57.2493 83.8724 57.1222C83.6659 56.996 83.5186 56.8173 83.4224 56.6333L83.278 56.35L83.128 56.0667C83.0751 55.9654 83.0302 55.9291 83.0113 55.9167L82.7947 55.7778L82.5724 55.6389C82.5043 55.5957 82.4171 55.554 82.3002 55.5278L81.7336 55.4056C81.415 55.3348 81.1277 55.175 80.9002 54.9278L80.7169 54.7333L80.5336 54.5333C80.4001 54.3882 80.2711 54.2381 80.1502 54.0833L79.9891 53.8722L79.8224 53.6611C79.7147 53.5232 79.6079 53.3857 79.5002 53.25L79.3336 53.0445L79.1669 52.8333C79.1204 52.7754 79.0581 52.7174 78.9669 52.6667L78.4669 52.3889C78.1641 52.2206 77.9274 51.9661 77.7947 51.6389L77.6947 51.3833L77.5891 51.1278C77.5812 51.1088 77.5673 51.0889 77.5224 51.0611L77.2724 50.9056L77.0169 50.75C76.7257 50.571 76.5014 50.3133 76.378 49.9833L76.2836 49.7222L76.1836 49.4667C76.1237 49.306 76.0611 49.1478 75.9947 48.9944L75.8891 48.75L75.8224 48.6C75.725 48.8083 75.577 48.9902 75.3669 49.1222L75.1058 49.2833L74.8558 49.4389L74.8113 49.7L74.7613 49.9889C74.7089 50.2808 74.597 50.555 74.4169 50.7945L74.2502 51.0111L74.0891 51.2278C73.9549 51.4061 73.8029 51.5704 73.6391 51.7222L73.4391 51.9056L73.2447 52.0945C73.0305 52.2929 72.7764 52.4331 72.5002 52.5222L71.9447 52.7C71.859 52.7276 71.7897 52.7497 71.7502 52.7611C71.7489 52.7615 71.7115 52.7759 71.6724 52.7833C71.664 52.7849 71.6262 52.7917 71.578 52.7945C71.5598 52.7955 71.4936 52.7982 71.4113 52.7833C71.3707 52.7759 71.2847 52.754 71.1891 52.7C71.0879 52.6426 70.9322 52.5208 70.8613 52.3C70.7916 52.0801 70.8435 51.8899 70.8891 51.7889C70.9326 51.6929 70.9891 51.6299 71.0169 51.6C71.0695 51.5434 71.1206 51.507 71.1391 51.4945C71.178 51.4684 71.214 51.4486 71.2224 51.4445C71.2699 51.4209 71.3314 51.4008 71.3336 51.4L71.3724 51.3833L71.4336 51.1889L71.5169 50.9278C71.5571 50.7997 71.5826 50.6693 71.5947 50.5389L71.6224 50.2667L71.6447 49.9945C71.6515 49.9182 71.6427 49.8373 71.6113 49.7445L71.5224 49.4722L71.428 49.1945C71.31 48.8428 71.3273 48.4768 71.478 48.1389L71.6002 47.8778L71.6891 47.6611L71.578 47.4444L71.4391 47.1833C71.2315 46.793 71.2397 46.3688 71.4336 45.9889L71.7113 45.4333L71.628 45.2111L71.528 44.9556C71.4347 44.7083 71.3882 44.4471 71.3836 44.1833L71.378 43.9167L71.3724 43.6444C71.37 43.509 71.3546 43.3759 71.328 43.2444L71.278 42.9778L71.2224 42.7167C71.204 42.6265 71.1686 42.5333 71.1113 42.4389L70.9669 42.2L70.8169 41.9556C70.6174 41.6258 70.5711 41.2573 70.6558 40.8944L70.7224 40.6L70.7613 40.4056L70.6169 40.2667L70.3947 40.0556C70.1012 39.7737 69.9445 39.3951 69.9836 38.9722L70.0058 38.6833L70.0336 38.3944C70.0399 38.3253 70.0267 38.2854 70.0113 38.2556L69.7669 37.7778C69.725 37.6963 69.6662 37.6154 69.5836 37.5389L69.3724 37.3444L69.1669 37.15C68.9169 36.9187 68.749 36.6234 68.6891 36.2833L68.6391 36.0111L68.5947 35.7389C68.579 35.6508 68.5459 35.5818 68.5058 35.5222L68.3613 35.3L68.2113 35.0833C68.0842 34.8946 67.9745 34.6904 67.8836 34.4722L67.7724 34.2L67.6724 33.9611L67.4336 33.8833L67.1613 33.7944C66.9031 33.7093 66.6645 33.5836 66.4502 33.4167L66.228 33.2389L66.0836 33.1278L65.8613 33.2111L65.5669 33.3111C65.2288 33.4296 64.8638 33.44 64.5113 33.2944L64.2558 33.1889L64.0558 33.1056L63.9058 33.1889L63.6836 33.3056C63.6162 33.3416 63.5456 33.3909 63.478 33.4667L63.3002 33.6722L63.1224 33.8722C63.0572 33.9454 62.9989 34.0312 62.9558 34.1333L62.8502 34.3944L62.7391 34.6556C62.6196 34.9395 62.4341 35.1836 62.1891 35.3722L61.9669 35.5389L61.7502 35.7056C61.6991 35.7449 61.6672 35.7917 61.6447 35.8444L61.4336 36.3444C61.3454 36.5514 61.2356 36.7468 61.1113 36.9333L60.9613 37.1611L60.8113 37.3833C60.7712 37.4436 60.745 37.5107 60.7336 37.5889L60.6558 38.1333C60.6196 38.3803 60.5496 38.6191 60.4447 38.8444L60.3336 39.0833L60.2169 39.3278C60.1998 39.3644 60.1933 39.4076 60.2002 39.4722L60.228 39.7556L60.2613 40.0333C60.3113 40.4865 60.1167 40.8726 59.8169 41.1444L59.578 41.3611L59.4613 41.4611L59.5113 41.5833L59.6336 41.8722C59.7714 42.1973 59.811 42.5599 59.6891 42.9222L59.6058 43.1833L59.5169 43.4389C59.481 43.5457 59.4601 43.6537 59.4558 43.7611L59.4447 44.0278L59.4336 44.2889C59.4265 44.4658 59.4238 44.6455 59.4169 44.8222L59.4058 45.0889L59.3947 45.35C59.3861 45.5673 59.3567 45.7852 59.3113 46L59.2002 46.5333C59.1797 46.6304 59.176 46.7271 59.1891 46.8222L59.228 47.0833L59.2613 47.35C59.2926 47.5756 59.3045 47.8062 59.2891 48.0333L59.2669 48.3L59.2502 48.5667C59.2394 48.7269 59.2326 48.8887 59.2336 49.05L59.2391 49.3222V49.5889C59.2397 49.6908 59.255 49.7945 59.2891 49.8945L59.4669 50.4056C59.5593 50.676 59.5896 50.9607 59.5613 51.2445L59.5058 51.8C59.4957 51.9043 59.5052 52.0011 59.528 52.0945L59.5947 52.3611L59.6558 52.6222C59.6566 52.6256 59.6636 52.6525 59.7224 52.7L59.9613 52.8945L60.2058 53.0889C60.4729 53.3045 60.6771 53.5979 60.7502 53.9611L60.8002 54.2222L60.8558 54.4778C60.8718 54.5573 60.8867 54.6661 60.878 54.7833C60.8694 54.8981 60.8297 55.0773 60.6947 55.2445C60.3725 55.6427 59.9112 55.5321 59.7891 55.4945L59.578 55.4278L59.3669 55.3667C59.0765 55.2769 58.8424 55.0981 58.6558 54.8889L58.4724 54.6833L58.2891 54.4833C58.2549 54.445 58.2097 54.4096 58.1336 54.3833L57.578 54.1945C57.1476 54.0473 56.868 53.7098 56.7669 53.2889L56.6224 52.6889C56.6038 52.6119 56.5842 52.5887 56.578 52.5833L56.3724 52.4111L56.1669 52.2333C55.9693 52.0625 55.8044 51.8619 55.678 51.6333L55.4224 51.1667C55.3313 51.0018 55.2438 50.8352 55.1613 50.6667L54.928 50.1889C54.8623 50.0547 54.7861 49.9255 54.7058 49.8L54.5669 49.5778L54.4224 49.35C54.2994 49.1576 54.1948 48.9537 54.1169 48.7389L53.9391 48.2389C53.9093 48.1574 53.8634 48.0755 53.7947 47.9944L53.6113 47.7833L53.4335 47.5667C53.2716 47.3756 53.1363 47.1656 53.0335 46.9389L52.9224 46.6944L52.8058 46.4444C52.6722 46.1482 52.6356 45.832 52.6835 45.5167L52.728 45.2278L52.7724 44.9444C52.7919 44.8173 52.7917 44.7043 52.778 44.6056L52.7447 44.3444L52.7058 44.0889C52.6926 43.9939 52.6644 43.8886 52.6113 43.7778L52.4891 43.5222L52.4002 43.35L52.3724 43.5944L52.3391 43.8611C52.3092 44.0977 52.2503 44.328 52.1613 44.55L52.0613 44.8056L51.9613 45.0556C51.9467 45.0922 51.94 45.1304 51.9502 45.1889L52.0002 45.4722L52.0502 45.75C52.1333 46.2174 51.9404 46.6173 51.6447 46.9L51.4002 47.1333L51.2335 47.2889L51.278 47.4333L51.3669 47.7111C51.4322 47.9188 51.485 48.1287 51.528 48.3333L51.5835 48.6056L51.6391 48.8722C51.7242 49.2769 51.617 49.6587 51.3947 49.9667L51.2113 50.2222L51.078 50.3945L51.1558 50.5611L51.278 50.8333C51.398 51.0975 51.4657 51.3786 51.4613 51.6722V51.9389L51.4558 52.2C51.4534 52.3607 51.4584 52.5238 51.4669 52.6833L51.478 52.9445L51.4947 53.2111C51.5072 53.4482 51.4859 53.6868 51.4391 53.9222L51.3835 54.1889L51.3335 54.4611C51.3014 54.6226 51.2754 54.7886 51.2558 54.9556L51.1891 55.5111C51.1776 55.6088 51.1871 55.703 51.2113 55.7945L51.278 56.0611L51.3502 56.3278C51.3545 56.3441 51.3644 56.3688 51.4113 56.4056L51.6447 56.5889L51.8835 56.7778C51.9365 56.8193 52.0059 56.8754 52.0669 56.9445C52.0974 56.9791 52.1437 57.0362 52.1835 57.1111C52.22 57.1799 52.2851 57.3265 52.2724 57.5167C52.2568 57.7424 52.1392 57.9314 51.9835 58.05C51.8526 58.1493 51.7158 58.1827 51.6502 58.1945C51.5208 58.2171 51.4032 58.202 51.3447 58.1945L51.0947 58.1611L50.8502 58.1333C50.4117 58.0769 50.1004 57.8016 49.928 57.4556L49.8002 57.2L49.6724 56.9389C49.6439 56.8824 49.6109 56.8519 49.5724 56.8278L49.3391 56.6778L49.1058 56.5333C48.8915 56.3999 48.6988 56.2398 48.5335 56.05L48.3558 55.8445L48.178 55.6445C48.0089 55.4501 47.8769 55.2272 47.778 54.9889L47.6724 54.7389L47.5669 54.4833C47.5238 54.3801 47.4684 54.2881 47.4002 54.2056L47.228 54L47.0558 53.7889C46.9114 53.6144 46.7848 53.4266 46.678 53.2278L46.5502 52.9945L46.4224 52.7556C46.3323 52.5878 46.2473 52.4172 46.1669 52.2445L46.0558 52L45.9391 51.7556C45.8775 51.6236 45.808 51.4935 45.728 51.3667L45.578 51.1333L45.4335 50.9056C45.3719 50.808 45.3343 50.6995 45.2947 50.5945L45.2613 50.7722L45.2058 51.0611C45.1406 51.4048 44.9711 51.7101 44.6947 51.9389L44.4835 52.1167L44.2669 52.2889C44.0813 52.4424 43.8797 52.5746 43.6613 52.6833L43.4058 52.8111L43.1947 52.9111L43.078 53.4945C43.009 53.8255 42.8495 54.1321 42.578 54.3667L42.3724 54.5445L42.1724 54.7222C41.9628 54.9034 41.718 55.0334 41.4558 55.1222L41.1891 55.2167L40.9169 55.3056C40.78 55.3519 40.6604 55.4099 40.5558 55.4722L40.328 55.6056L40.1002 55.7445C40.0573 55.7705 40.0097 55.8124 39.9613 55.8889L39.6502 56.3889C39.4929 56.64 39.2851 56.8508 39.028 57.0056L38.7947 57.1445L38.5669 57.2833C38.348 57.415 38.1108 57.5093 37.8613 57.5667L37.5891 57.6278L37.3224 57.6889C37.2658 57.7019 37.2142 57.7301 37.1613 57.7778L36.7391 58.1556C36.541 58.3341 36.319 58.4779 36.0724 58.5778L35.5724 58.7778C35.2749 58.898 34.9592 58.9243 34.6502 58.8778L34.0613 58.7889H34.028L33.7947 58.9445L33.5613 59.0945C33.2834 59.2772 32.9671 59.364 32.6335 59.35L32.3558 59.3389L32.0835 59.3278C31.9761 59.3232 31.8752 59.3394 31.7835 59.3667L31.528 59.4389L31.2724 59.5167C31.1171 59.5629 30.959 59.6143 30.8002 59.6722L30.5447 59.7667L30.2835 59.8611C30.0466 59.9475 29.8014 59.9976 29.5502 60.0111L29.278 60.0278L29.0113 60.0389C28.826 60.0488 28.6364 60.061 28.4502 60.0667L28.1835 60.0722L27.9113 60.0833C27.6083 60.0926 27.314 60.0216 27.0447 59.8889L26.7891 59.7667L26.5335 59.6389C26.4442 59.5951 26.4017 59.5942 26.3947 59.5945L26.1669 59.6056L25.9391 59.6111C25.8931 59.6129 25.8075 59.6144 25.7169 59.6C25.6834 59.5946 25.5572 59.5763 25.428 59.4945C25.3557 59.4484 25.2427 59.3584 25.1669 59.2056C25.0841 59.0385 25.079 58.8615 25.1169 58.7111C25.1781 58.4704 25.3416 58.3372 25.3669 58.3167C25.4205 58.2734 25.4719 58.2432 25.5002 58.2278C25.5606 58.1951 25.6273 58.1698 25.678 58.15L25.928 58.0556L26.178 57.9556C26.3777 57.8778 26.5874 57.8121 26.8058 57.7611L27.0891 57.6945L27.3391 57.6333L27.4558 57.4167L27.5891 57.1667C27.7032 56.9507 27.8409 56.7474 28.0002 56.5667L28.1835 56.3611L28.3447 56.1722V56.1667L28.328 55.95V55.9556L28.078 56.0389C28.0715 56.0445 28.0569 56.0634 28.0335 56.1L27.8613 56.3778L27.6835 56.65C27.5737 56.824 27.4179 56.9906 27.2002 57.1C26.9776 57.2116 26.742 57.241 26.5224 57.2111L26.228 57.1667L25.9335 57.1278C25.7762 57.1062 25.6292 57.1 25.4947 57.1056L25.2224 57.1167L24.9558 57.1278C24.8376 57.1327 24.7244 57.1548 24.6169 57.1889L24.3613 57.2667L24.1058 57.35C24.0596 57.365 23.9955 57.4013 23.9113 57.4833L23.6835 57.7L23.4558 57.9222C23.307 58.0668 23.1186 58.1884 22.8891 58.2445C22.6565 58.3008 22.4253 58.2771 22.2224 58.2111L21.6447 58.0222C21.582 58.0018 21.5581 58.0102 21.5558 58.0111L21.3058 58.1056L21.0502 58.1945C20.7715 58.2951 20.4813 58.3273 20.1891 58.2889L19.9113 58.25L19.678 58.2167V58.2222L19.4391 58.4278L19.1947 58.6333C19.0355 58.7703 18.8338 58.8824 18.5947 58.9222C18.3545 58.9617 18.1262 58.9237 17.928 58.8389L17.6447 58.7167L17.4447 58.6278L17.3669 58.6889L17.1669 58.8278C17.0683 58.8969 16.9633 58.9816 16.8613 59.0833L16.6724 59.2778L16.478 59.4667C16.2895 59.6548 16.0499 59.8234 15.7558 59.8945L15.5613 59.9445L15.3669 59.9889C15.2055 60.0278 15.0277 60.0601 14.8391 60.0833L14.5835 60.1111L14.3335 60.1445C13.9972 60.1859 13.6774 60.108 13.3947 59.9611L13.128 59.8222L12.9002 59.7056L12.6335 59.8333L12.3391 59.9722C12.1556 60.0599 12.0286 60.128 11.9502 60.1778L11.7835 60.2889L11.6169 60.3945C11.4376 60.5082 11.2248 60.5997 11.0058 60.6722L10.728 60.7611L10.4447 60.8556C10.3216 60.8963 10.1648 60.9368 10.0002 60.9389C9.84367 60.9408 9.53871 60.9075 9.31688 60.6389L9.17243 60.4611C9.02543 60.2825 8.98149 60.0812 8.96688 59.9556C8.95131 59.8211 8.9582 59.6861 8.97243 59.5667L9.00577 59.3L9.03354 59.0333C9.05045 58.8912 9.06038 58.7473 9.05577 58.6056L9.04466 58.3389L9.0391 58.0722C9.03299 57.8837 9.03054 57.6948 9.03354 57.5056L9.0391 57.2333V56.9667C9.0446 56.6391 9.15259 56.3385 9.32243 56.0722L9.4891 55.8111L9.61688 55.6056L9.53354 55.4L9.41688 55.1222C9.28927 54.8146 9.25026 54.4812 9.33354 54.1445L9.40021 53.8833L9.46132 53.6167C9.5014 53.4552 9.54123 53.2946 9.57243 53.1333L9.62243 52.8722L9.67243 52.6056C9.69097 52.5086 9.69728 52.4058 9.68354 52.2945L9.64466 52.0167L9.61132 51.7389C9.56377 51.3546 9.67944 50.9992 9.90577 50.7056L10.0835 50.4667L10.2669 50.2333C10.3057 50.1829 10.3056 50.1556 10.3058 50.1445L10.3113 49.8778L10.3169 49.6056C10.322 49.3146 10.394 49.0355 10.528 48.7778L10.6558 48.5333L10.7724 48.3C10.7714 48.2944 10.7695 48.2871 10.7669 48.2778L10.6835 47.9778L10.5947 47.6778C10.5032 47.361 10.4927 47.0233 10.6058 46.6944L10.7835 46.1833C10.8734 45.9236 11.0097 45.6861 11.1891 45.4778L11.378 45.2611L11.5391 45.0722L11.5002 44.7889L11.4558 44.4889C11.4095 44.175 11.4422 43.8568 11.5724 43.5556L11.678 43.3056L11.7835 43.0611C11.8583 42.8881 11.9357 42.7144 12.0169 42.5444L12.1335 42.3056L12.2502 42.0611C12.3255 41.9034 12.4003 41.7423 12.4724 41.5833L12.6947 41.0944C12.8388 40.7775 13.0785 40.541 13.3613 40.3722L13.6335 40.2111L13.8724 40.0611L13.9058 39.8444L13.9391 39.5611C13.9683 39.3199 14.0217 39.0854 14.1058 38.8611L14.2002 38.6056L14.3002 38.3556C14.415 38.0499 14.6098 37.7958 14.8669 37.6056L15.1002 37.4333L15.3224 37.2667L15.3613 36.9833L15.4002 36.6944C15.4499 36.3337 15.6214 36.0101 15.9113 35.7722L16.3447 35.4167C16.402 35.3695 16.4405 35.3164 16.4669 35.2556L16.578 35.0056L16.6835 34.7556C16.8096 34.4647 17.0089 34.2247 17.2669 34.0444L17.5002 33.8833L17.728 33.7222C17.7328 33.7189 17.7379 33.7179 17.7391 33.7167V33.7111C17.7407 33.7085 17.7453 33.7007 17.7502 33.6833L17.828 33.4L17.9002 33.1167L18.028 32.8056C18.1912 32.5243 18.459 32.3363 18.7724 32.2444L19.078 32.1556L19.3835 32.0611C19.4248 32.0488 19.4475 32.0388 19.4558 32.0333L19.4613 32.0278L19.7724 31.5944C19.8233 31.5227 19.8694 31.4257 19.9058 31.3L20.0724 30.7222C20.1581 30.4265 20.3082 30.1542 20.5335 29.9333L20.7224 29.7444L20.9169 29.5611C21.0685 29.4125 21.2289 29.2709 21.4002 29.1444L21.6169 28.9833L21.8391 28.8222C21.9518 28.7388 22.0586 28.6493 22.1558 28.55L22.5335 28.1611C22.6644 28.0273 22.7976 27.8955 22.9335 27.7667L23.128 27.5833L23.3224 27.3944C23.5871 27.1436 23.9172 27.022 24.2558 26.9889L24.5724 26.9555L24.8891 26.9278L24.8947 26.9222L25.0447 26.7333L25.2113 26.5167C25.328 26.3649 25.45 26.215 25.5724 26.0667L25.7502 25.85L25.9224 25.6389C26.1013 25.4221 26.3205 25.2481 26.5724 25.1222L26.8113 25L27.0558 24.8778C27.2515 24.7801 27.4556 24.6982 27.6669 24.6333L27.9335 24.5555L28.1947 24.4722C28.1983 24.4678 28.2048 24.461 28.2113 24.45L28.3669 24.1833L28.5169 23.9222C28.7032 23.6047 28.9903 23.3632 29.3669 23.2611L29.9002 23.1167C29.9992 23.09 30.0897 23.049 30.1669 22.9944L30.3835 22.8389L30.6058 22.6833C30.7958 22.5489 31.0022 22.4333 31.2169 22.3444L31.4613 22.2444L31.7113 22.1389C31.8371 22.0867 31.9612 22.0248 32.078 21.95L32.3058 21.8055L32.5335 21.6555C32.8019 21.4842 33.1037 21.4016 33.4169 21.3944L33.7058 21.3889L33.9891 21.3778C34.1595 21.3739 34.3254 21.3628 34.4835 21.3444L34.7558 21.3167L35.028 21.2833C35.068 21.2786 35.1023 21.2627 35.1447 21.2278L35.3669 21.05L35.5835 20.8667C35.8088 20.6803 36.0681 20.5487 36.3558 20.4833L36.6169 20.4222L36.878 20.3667C36.9951 20.3402 37.1117 20.2992 37.2224 20.2444L37.7113 20C37.9382 19.8875 38.1779 19.81 38.428 19.7722L38.9613 19.6944C39.1617 19.6642 39.3636 19.6434 39.5669 19.6333L39.8391 19.6222L40.1058 19.6055C40.1206 19.6048 40.1489 19.6017 40.2002 19.5611L40.4391 19.3722L40.6724 19.1889C40.9625 18.9572 41.315 18.8373 41.7002 18.8778L41.978 18.9055L42.2558 18.9389C42.3346 18.9472 42.4059 18.9356 42.4724 18.9111L42.9835 18.7222C43.3092 18.6025 43.6492 18.6026 43.9724 18.7L44.528 18.8667C44.6561 18.9053 44.7722 18.9257 44.878 18.9278H45.1447L45.4113 18.9333C45.5725 18.9361 45.7353 18.9361 45.8947 18.9278L46.1558 18.9111L46.4224 18.9C46.5134 18.8952 46.6113 18.871 46.7169 18.8278L47.2391 18.6167C47.5109 18.5055 47.7993 18.4539 48.0947 18.4778L48.628 18.5222C48.8609 18.5411 49.091 18.5899 49.3169 18.6611L49.8502 18.8278H49.8669C49.8706 18.8269 49.8792 18.8265 49.8891 18.8222L50.4224 18.5889C50.6967 18.4699 50.9919 18.4156 51.2947 18.4389L51.5613 18.4611L51.828 18.4778C51.9591 18.4877 52.0908 18.4877 52.2224 18.4722L52.7558 18.4055C53.0823 18.3672 53.397 18.4326 53.6835 18.5722L54.1613 18.8111L54.378 18.6944L54.6447 18.5611C54.8899 18.4353 55.1556 18.3475 55.428 18.3167L55.9613 18.2611C56.2573 18.2281 56.5468 18.2679 56.8224 18.3722L57.3558 18.5722C57.3627 18.5749 57.3692 18.577 57.3724 18.5778H57.3836C57.3863 18.5772 57.393 18.5748 57.4002 18.5722L57.9336 18.3833C58.1991 18.2884 58.4788 18.2453 58.7613 18.2667L59.028 18.2889L59.2947 18.3055C59.4136 18.3143 59.5349 18.3092 59.6558 18.2889L60.1891 18.2L60.4669 18.1833C60.7435 18.1938 61.003 18.2874 61.228 18.4333L61.7613 18.7778C61.7664 18.781 61.7687 18.7868 61.7724 18.7889L62.0113 18.7333L62.278 18.6722C62.4118 18.6413 62.5484 18.5936 62.6891 18.5333L62.9558 18.4222L63.2224 18.3055C63.5812 18.1518 63.9659 18.1551 64.3224 18.3111L64.8558 18.5444C64.9484 18.5852 65.0285 18.6011 65.0947 18.6L65.628 18.5889C65.764 18.5865 65.9011 18.5756 66.0391 18.55L66.5724 18.45C66.85 18.3982 67.1317 18.4057 67.4058 18.4722L67.6724 18.5389L67.9391 18.6C68.0156 18.6186 68.0875 18.6204 68.1613 18.6055L68.428 18.55L68.6947 18.5C69.0051 18.4367 69.3164 18.4611 69.6113 18.5667L70.1447 18.7555L70.1613 18.7611H70.1669C70.1699 18.7604 70.1759 18.7585 70.1836 18.7555L70.4502 18.6555L70.7169 18.55C70.9369 18.4653 71.1613 18.4042 71.3891 18.3667L71.9224 18.2778C72.2886 18.2174 72.6343 18.3065 72.9336 18.4833L73.2002 18.6389L73.3558 18.7333L73.5224 18.6278L73.7891 18.4555C74.0571 18.2851 74.3628 18.177 74.6947 18.1722L74.9613 18.1667H75.228ZM52.7002 41.4833L52.6891 41.5667L52.6947 41.5611C52.7096 41.5333 52.7104 41.5162 52.7113 41.5111V41.5L52.7002 41.4556V41.4833Z" fill="#303A4B"/>
</svg>
