<svg width="128" height="128" viewBox="0 0 128 128" fill="none" xmlns="http://www.w3.org/2000/svg">
<path d="M118.531 77.5811L118.818 78.0889C119.053 78.5023 119.016 78.9473 118.809 79.3232L118.492 79.8955C118.468 79.9385 118.461 79.9669 118.458 79.9795C118.457 79.985 118.456 79.989 118.456 79.9902V79.9912L118.499 80.2559L118.541 80.5205C118.563 80.6561 118.597 80.7913 118.643 80.9248L118.818 81.4404C118.903 81.6891 118.944 81.9472 118.94 82.21L118.933 82.7549C118.931 82.876 118.944 82.9939 118.973 83.1084L119.102 83.6318C119.13 83.7464 119.174 83.8606 119.234 83.9736L119.365 84.2197L119.497 84.4648C119.604 84.6641 119.692 84.8709 119.761 85.082L119.925 85.5898C119.96 85.6996 120.011 85.8078 120.078 85.9131L120.226 86.1455L120.374 86.3779C120.546 86.6484 120.633 86.9529 120.633 87.2725V87.5508L120.632 87.8291C120.632 88.0197 120.63 88.2155 120.625 88.415L120.618 88.707L120.611 89C120.61 89.0777 120.625 89.1332 120.65 89.1797L120.783 89.4229L120.915 89.666C120.947 89.7237 120.995 89.7787 121.07 89.8311L121.555 90.167C121.781 90.3232 121.981 90.5182 122.126 90.7588L122.25 90.9639L122.374 91.1699C122.434 91.2691 122.67 91.704 122.353 92.1221C122.215 92.3022 122.037 92.3795 121.923 92.4131C121.807 92.4473 121.696 92.4553 121.612 92.4561L121.33 92.459L121.048 92.4609C120.93 92.4621 120.826 92.4804 120.732 92.5117L120.227 92.6816C120.137 92.7118 120.047 92.7581 119.959 92.8262L119.737 92.9971L119.515 93.168C119.382 93.27 119.251 93.3795 119.122 93.4961L118.908 93.6904L118.694 93.8838C118.456 94.0996 118.168 94.2435 117.844 94.2939L117.575 94.3359L117.308 94.377C117.134 94.4039 116.96 94.4334 116.787 94.4639L116.521 94.5107L116.255 94.5576C116.038 94.5959 115.816 94.6163 115.592 94.6191L115.31 94.623L115.027 94.626C114.829 94.6285 114.651 94.6245 114.504 94.6104L114.174 94.5791C113.793 94.5422 113.523 94.3012 113.358 94.1094L113.18 93.9004L113.001 93.6924C112.81 93.4692 112.676 93.2096 112.605 92.9238L112.541 92.6582L112.476 92.3926C112.427 92.1937 112.387 91.9904 112.356 91.7842L112.347 91.7129L112.26 91.8418L112.103 92.0762C112.004 92.2222 111.91 92.3696 111.821 92.5176L111.679 92.7549L111.552 92.9678C111.552 92.9688 111.552 92.9706 111.552 92.9717L111.636 93.2695L111.719 93.5684C111.811 93.9004 111.808 94.254 111.66 94.5908L111.553 94.8379L111.444 95.085C111.368 95.2584 111.289 95.4313 111.205 95.6025L110.967 96.0908C110.861 96.3072 110.723 96.5182 110.534 96.6855L110.387 96.8164L110.24 96.9463C110.066 97.1009 109.859 97.2162 109.646 97.3047L109.397 97.4072L109.15 97.5098C109.064 97.5457 108.973 97.6018 108.879 97.6846L108.658 97.8779L108.437 98.0723C108.168 98.3084 107.836 98.4428 107.468 98.4424H106.911C106.845 98.4424 106.791 98.456 106.74 98.4844L106.502 98.6172L106.263 98.75C106.068 98.8581 105.866 98.9488 105.657 99.0205L105.153 99.1943C104.89 99.2849 104.615 99.3174 104.338 99.2988L104.054 99.2803L103.771 99.2607C103.682 99.2548 103.611 99.2678 103.551 99.292L103.303 99.3916L103.054 99.4922C102.915 99.548 102.777 99.6126 102.642 99.6865L102.163 99.9482C101.937 100.072 101.696 100.157 101.443 100.202L101.179 100.249L100.915 100.297C100.75 100.326 100.585 100.36 100.423 100.396L100.162 100.455L99.9014 100.515C99.765 100.546 99.6313 100.587 99.501 100.64L99.252 100.739L99.0039 100.84C98.8109 100.918 98.6129 100.982 98.4121 101.035L98.1533 101.104L97.8955 101.171C97.6498 101.235 97.3964 101.259 97.1406 101.247L96.8594 101.233L96.6182 101.222L96.4141 101.432L96.2012 101.652C95.9928 101.868 95.7444 102.039 95.4551 102.138L95.2021 102.224L94.9492 102.311C94.7011 102.395 94.4426 102.435 94.1797 102.432L93.9004 102.429L93.6211 102.425C93.5326 102.424 93.4575 102.44 93.3896 102.47L93.1436 102.577L92.8975 102.686C92.6646 102.787 92.4192 102.851 92.166 102.876L91.8955 102.903L91.626 102.93C91.4898 102.943 91.3581 102.969 91.2314 103.007L90.7197 103.157C90.6061 103.191 90.4315 103.224 90.2383 103.189L90.3799 103.065L90.5879 102.883C90.6558 102.823 90.7256 102.785 90.7998 102.761L91.0547 102.679L91.3086 102.596C91.4433 102.552 91.5874 102.518 91.7393 102.492L92.0166 102.445L92.2939 102.399C92.5857 102.351 92.8582 102.238 93.0967 102.059L93.3115 101.896L93.5264 101.735C93.5707 101.702 93.6274 101.675 93.71 101.662L93.9941 101.617L94.2773 101.571C94.5432 101.529 94.7972 101.445 95.0312 101.313L95.2656 101.182L95.5 101.051C95.7642 100.903 95.9775 100.694 96.1416 100.444L96.4639 99.9541C96.5372 99.8426 96.6154 99.756 96.6943 99.6895L97.1025 99.3457C97.1273 99.3248 97.1691 99.2999 97.252 99.2871L97.5479 99.2412L97.8428 99.1963C98.1315 99.1519 98.4057 99.0518 98.6504 98.8867L98.874 98.7363L99.0967 98.5859C99.3152 98.4383 99.5037 98.2551 99.6602 98.042L99.9902 97.5928C100.045 97.5179 100.107 97.463 100.177 97.4219L100.409 97.2842L100.643 97.1465C100.904 96.9924 101.113 96.7798 101.269 96.5225L101.414 96.2803L101.56 96.0391C101.572 96.0187 101.582 96.0078 101.613 95.9961L101.882 95.8965L102.15 95.7959C102.505 95.6632 102.777 95.4099 102.937 95.0674L103.059 94.8066L103.18 94.5449C103.248 94.397 103.323 94.2603 103.402 94.1348L103.693 93.6758C103.694 93.6748 103.695 93.6733 103.695 93.6729L103.697 93.6719C103.7 93.6696 103.714 93.6601 103.744 93.6504L104.322 93.4648C104.621 93.369 104.893 93.2062 105.106 92.9619L105.282 92.7598L105.458 92.5586C105.613 92.3807 105.746 92.1846 105.856 91.9736L105.983 91.7305L106.11 91.4863C106.151 91.4078 106.204 91.3439 106.27 91.29L106.689 90.9443C106.964 90.7184 107.133 90.418 107.205 90.083L107.268 89.7949L107.329 89.5068C107.33 89.5013 107.331 89.496 107.332 89.4932L107.563 89.334L107.796 89.1738C108.097 88.9662 108.298 88.6696 108.382 88.3154L108.447 88.0391L108.513 87.7617C108.52 87.7306 108.529 87.7189 108.549 87.7031L108.769 87.5273L108.988 87.3525C109.279 87.1206 109.457 86.8032 109.51 86.4395L109.551 86.1562L109.584 85.9248L109.823 85.7842L110.09 85.627C110.357 85.4691 110.586 85.2548 110.745 84.9775L110.879 84.7441L111.013 84.5117C111.154 84.2645 111.237 83.9943 111.265 83.7119L111.292 83.4287L111.32 83.1465C111.335 82.9998 111.361 82.8631 111.397 82.7373L111.473 82.4814L111.548 82.2246C111.581 82.1123 111.627 82.005 111.688 81.9023L111.964 81.4395C112.08 81.245 112.176 81.0408 112.251 80.8281L112.427 80.3262C112.457 80.2403 112.505 80.1508 112.579 80.0586L112.938 79.6094C112.997 79.5357 113.043 79.4576 113.082 79.3789C113.279 79.3903 113.477 79.3742 113.672 79.3301L113.938 79.2705L114.202 79.21C114.313 79.1848 114.429 79.1753 114.55 79.1816L115.104 79.2109C115.495 79.2317 115.847 79.091 116.121 78.8291L116.332 78.6279L116.542 78.4268C116.65 78.3239 116.753 78.245 116.85 78.1865L117.068 78.0537L117.288 77.9209C117.4 77.8531 117.522 77.7926 117.652 77.7402L117.9 77.6406L118.147 77.541C118.249 77.5002 118.345 77.4486 118.438 77.3926C118.464 77.4544 118.495 77.5177 118.531 77.5811ZM8.97852 77.168C9.03664 77.1951 9.07687 77.2303 9.11035 77.2803L9.27051 77.5205L9.43066 77.7598C9.60417 78.0197 9.83584 78.2267 10.1182 78.3662L10.3682 78.4902L10.6191 78.6143C10.7962 78.7017 10.9765 78.785 11.1572 78.8633L11.4121 78.9736L11.668 79.084C11.871 79.1718 12.0806 79.2444 12.2949 79.3008L12.5654 79.3721L12.835 79.4434C13.0846 79.5089 13.3408 79.5353 13.5986 79.5234L13.8779 79.5107L14.1562 79.498C14.4118 79.4862 14.662 79.4367 14.9033 79.3516L15.168 79.2588L15.2881 79.2158C15.3438 79.4001 15.4184 79.5782 15.5117 79.748L15.7715 80.2207C15.8262 80.3202 15.8653 80.4237 15.8896 80.5312L15.9492 80.791L16.0078 81.0518C16.0594 81.2798 16.1373 81.4998 16.2412 81.709L16.3604 81.9473L16.4785 82.1846C16.5124 82.2529 16.5354 82.3349 16.542 82.4355L16.5605 82.7178L16.5781 83.001C16.5926 83.2253 16.6242 83.4468 16.6729 83.6631L16.7334 83.9326L16.7939 84.2012C16.8479 84.4405 16.9326 84.67 17.0469 84.8857L17.1729 85.124L17.2998 85.3633C17.4508 85.6479 17.675 85.87 17.9414 86.0342L18.4609 86.3545C18.5446 86.4061 18.5815 86.4527 18.5996 86.4854L18.8555 86.9502C18.9247 87.0758 18.9869 87.2088 19.04 87.3477L19.1367 87.6016L19.2344 87.8555C19.3504 88.1584 19.5473 88.4087 19.8066 88.5967L20.0352 88.7617L20.2637 88.9277C20.2673 88.9304 20.2697 88.9328 20.2705 88.9336V88.9326L20.2715 88.9346C20.2725 88.9373 20.2744 88.9434 20.2764 88.9521L20.3379 89.2373L20.4004 89.5215C20.4565 89.7791 20.5489 90.0239 20.6816 90.249L20.957 90.7158C21.1381 91.0224 21.41 91.2341 21.7246 91.3604L22.0059 91.4736L22.2871 91.5859C22.3555 91.6134 22.3741 91.639 22.3809 91.6494L22.5254 91.875L22.6709 92.1006C22.7879 92.2826 22.9185 92.4549 23.0625 92.6152L23.2402 92.8125L23.418 93.0107C23.5359 93.1419 23.6546 93.2737 23.7725 93.4053L23.9502 93.6045L24.1279 93.8027C24.2575 93.9474 24.3926 94.0877 24.5322 94.2227L24.7236 94.4082L24.915 94.5928C25.0644 94.7371 25.2238 94.8717 25.3906 94.9961L25.6045 95.1562L25.8193 95.3164C25.926 95.396 26.0251 95.4857 26.1152 95.584L26.2959 95.7803L26.4766 95.9775C26.5871 96.0981 26.6958 96.2241 26.8008 96.3535L27.1426 96.7754C27.3166 96.9896 27.5288 97.1634 27.7725 97.293L28.0117 97.4209L28.252 97.5479C28.3029 97.575 28.3485 97.6147 28.3896 97.6768L28.5449 97.9121L28.7012 98.1475C28.8984 98.445 29.1819 98.6528 29.5234 98.7529L29.7959 98.832L30.0684 98.9121C30.213 98.9545 30.3471 99.0066 30.4688 99.0664L30.709 99.1846L30.9502 99.3037C30.954 99.3053 30.9762 99.3168 31.0068 99.3779L31.1445 99.6533L31.2822 99.9297C31.4439 100.253 31.7049 100.516 32.0674 100.649L32.5811 100.839C32.6897 100.879 32.7882 100.932 32.877 100.998L33.0928 101.158L33.3096 101.318C33.4736 101.44 33.644 101.553 33.8193 101.656L34.0498 101.792L34.2812 101.928C34.5241 102.071 34.7898 102.157 35.0684 102.192L35.3535 102.228L35.6377 102.264C35.6944 102.271 35.7266 102.288 35.7529 102.311L35.96 102.49L36.167 102.669C36.3372 102.816 36.5194 102.948 36.7119 103.061L36.9189 103.181C36.708 103.23 36.515 103.193 36.3926 103.157L35.8809 103.007C35.7542 102.969 35.6225 102.943 35.4863 102.93L35.2168 102.903L34.9463 102.876C34.6932 102.851 34.4477 102.787 34.2148 102.686L33.9688 102.577L33.7227 102.47C33.6548 102.44 33.5797 102.424 33.4912 102.425L33.2119 102.429L32.9326 102.432C32.6697 102.435 32.4112 102.395 32.1631 102.311L31.9102 102.224L31.6572 102.138C31.368 102.039 31.1194 101.868 30.9111 101.652L30.6982 101.432L30.4941 101.222L30.2529 101.233L29.9717 101.247C29.7159 101.259 29.4626 101.235 29.2168 101.171L28.959 101.104L28.7002 101.035C28.4995 100.983 28.3013 100.917 28.1084 100.84L27.8604 100.739L27.6113 100.64C27.4811 100.587 27.3472 100.546 27.2109 100.515L26.9502 100.455L26.6895 100.396C26.5269 100.36 26.3622 100.326 26.1973 100.297L25.9336 100.249L25.6689 100.202C25.4162 100.157 25.1748 100.071 24.9492 99.9482L24.4707 99.6865C24.3355 99.6127 24.1975 99.548 24.0586 99.4922L23.8096 99.3916L23.5615 99.292C23.5012 99.2678 23.4306 99.2548 23.3418 99.2607L23.0586 99.2803L22.7744 99.2988C22.4973 99.3174 22.2223 99.2849 21.959 99.1943L21.4551 99.0205C21.2468 98.9488 21.0442 98.858 20.8496 98.75L20.6104 98.6172L20.3721 98.4844C20.3209 98.456 20.2673 98.4423 20.2012 98.4424H19.6445C19.276 98.4428 18.9447 98.3083 18.6758 98.0723L18.4541 97.8779L18.2334 97.6846C18.1393 97.602 18.0483 97.5457 17.9619 97.5098L17.7148 97.4072L17.4668 97.3047C17.2537 97.2163 17.0462 97.1007 16.8721 96.9463L16.7256 96.8164L16.5781 96.6855C16.3898 96.5183 16.2509 96.307 16.1455 96.0908L15.9072 95.6025C15.8239 95.4315 15.7438 95.2583 15.668 95.085L15.5596 94.8379L15.4521 94.5908C15.3048 94.254 15.3008 93.9003 15.3936 93.5684L15.4766 93.2695L15.5605 92.9717C15.5607 92.9706 15.5605 92.9688 15.5605 92.9678L15.4336 92.7549L15.291 92.5176C15.2022 92.3698 15.1078 92.222 15.0098 92.0762L14.8525 91.8418L14.7656 91.7129L14.7559 91.7842C14.7255 91.9905 14.6854 92.1936 14.6367 92.3926L14.5713 92.6582L14.5068 92.9238C14.4368 93.2098 14.3028 93.4691 14.1113 93.6924L13.9326 93.9004L13.7539 94.1094C13.5893 94.3012 13.3196 94.5422 12.9385 94.5791L12.6084 94.6104C12.4615 94.6245 12.2831 94.6285 12.085 94.626L11.8027 94.623L11.5205 94.6191C11.2961 94.6163 11.0741 94.5959 10.8574 94.5576L10.5918 94.5107L10.3252 94.4639C10.1527 94.4334 9.97847 94.4039 9.80469 94.377L9.53711 94.3359L9.26855 94.2939C8.94415 94.2435 8.65661 94.0995 8.41797 93.8838L8.2041 93.6904L7.99023 93.4961C7.8614 93.3796 7.73006 93.2699 7.59766 93.168L7.375 92.9971L7.15332 92.8262C7.06491 92.7582 6.97541 92.7118 6.88574 92.6816L6.37988 92.5117C6.28631 92.4804 6.18199 92.4621 6.06445 92.4609L5.78223 92.459L5.5 92.4561C5.41649 92.4553 5.30553 92.4473 5.18945 92.4131C5.07577 92.3795 4.89684 92.302 4.75977 92.1221C4.44198 91.7038 4.67898 91.2686 4.73828 91.1699L4.8623 90.9639L4.98633 90.7588C5.13129 90.5179 5.33153 90.3233 5.55762 90.167L6.04199 89.8311C6.11795 89.7785 6.16572 89.7239 6.19727 89.666L6.3291 89.4229L6.46191 89.1797C6.48723 89.1331 6.50269 89.0779 6.50098 89L6.49414 88.707L6.4873 88.415C6.48275 88.2155 6.48078 88.0197 6.48047 87.8291L6.47949 87.5508V87.2725C6.47903 86.9528 6.56602 86.6485 6.73828 86.3779L6.88672 86.1455L7.03418 85.9131C7.10129 85.8077 7.15191 85.6998 7.1875 85.5898L7.35156 85.082C7.41991 84.8707 7.50852 84.6643 7.61523 84.4648L7.74707 84.2197L7.87793 83.9736C7.9385 83.8604 7.98242 83.7466 8.01074 83.6318L8.13965 83.1084C8.16786 82.9939 8.18142 82.8761 8.17969 82.7549L8.17188 82.21C8.1681 81.9472 8.20902 81.6891 8.29395 81.4404L8.46973 80.9248C8.5154 80.7911 8.54955 80.6562 8.57129 80.5205L8.61328 80.2559L8.65625 79.9912V79.9902C8.65613 79.9889 8.6554 79.9848 8.6543 79.9795C8.6516 79.9668 8.64365 79.9382 8.62012 79.8955L8.30371 79.3232C8.09619 78.9473 8.05937 78.5023 8.29395 78.0889L8.58105 77.5811C8.65195 77.4561 8.70395 77.334 8.73926 77.2148L8.78027 77.0752L8.97852 77.168ZM70.7988 12.3086C71.1212 12.2071 71.4571 12.2297 71.7705 12.3721L72.3037 12.6143C72.426 12.6698 72.5408 12.7037 72.6475 12.7197L72.9141 12.7588L73.1807 12.7988C73.276 12.8131 73.3723 12.8115 73.4697 12.792L74.0029 12.6846C74.2136 12.6423 74.4262 12.6157 74.6387 12.6045L74.9053 12.5898L75.1719 12.5762C75.3923 12.5646 75.6134 12.5725 75.833 12.6006L76.3662 12.6689C76.4044 12.6738 76.4525 12.671 76.5215 12.6406L77.0547 12.4043C77.3952 12.2539 77.7638 12.237 78.1191 12.3662L78.3857 12.4629L78.6523 12.5605C78.792 12.6114 78.9293 12.648 79.0625 12.6709L79.3281 12.7168L79.5947 12.7617C79.6843 12.777 79.7735 12.7763 79.8652 12.7578L80.1318 12.7041L80.3984 12.6494C80.6398 12.6005 80.8844 12.5857 81.1289 12.6055L81.3945 12.627L81.6592 12.6484C81.7697 12.6574 81.8854 12.6508 82.0059 12.6279L82.5488 12.5244C82.8975 12.4581 83.2388 12.5181 83.5449 12.6836L83.7988 12.8203L84.043 12.9531L84.3184 12.8672L84.5986 12.7812C84.9233 12.6814 85.2568 12.6989 85.5635 12.8379L85.6934 12.9043L86.1875 13.1934C86.274 13.2438 86.3528 13.2677 86.4248 13.2764L86.6885 13.3076L86.9531 13.3398C87.1931 13.3685 87.427 13.4288 87.6514 13.5205L87.9014 13.623L88.1504 13.7246C88.2519 13.7661 88.3562 13.7925 88.4639 13.8027L88.7314 13.8271L88.998 13.8525C89.1234 13.8643 89.2594 13.8631 89.4053 13.8467L89.6924 13.8145L89.9795 13.7812L90.1465 13.7734C90.5288 13.7794 90.8573 13.9583 91.0947 14.2412L91.2979 14.4844L91.3984 14.6045L91.5781 14.5479L91.8945 14.4473L92.0537 14.4072C92.2183 14.3759 92.3995 14.3744 92.585 14.4258C92.7736 14.4782 92.9312 14.5758 93.0576 14.6953L93.1748 14.8213L93.3691 15.0635L93.5498 15.2871L93.7871 15.291L94.0732 15.2959C94.3653 15.3003 94.6488 15.3659 94.9111 15.5L95.1504 15.6221L95.3896 15.7451C95.5297 15.8168 95.6737 15.8817 95.8193 15.9404L96.0674 16.041L96.3164 16.1416C96.531 16.2282 96.735 16.3387 96.9258 16.4707L97.1475 16.624L97.3701 16.7773C97.4786 16.8524 97.5932 16.9158 97.7129 16.9668L97.96 17.0723L98.207 17.1768C98.4926 17.2984 98.7294 17.4911 98.915 17.7334L99.0908 17.9619L99.2656 18.1914C99.2769 18.206 99.285 18.2115 99.2871 18.2129C99.2887 18.2139 99.2946 18.217 99.3066 18.2197L99.5801 18.2812L99.8545 18.3428C100.224 18.4257 100.524 18.6403 100.728 18.9512L100.886 19.1943L101.045 19.4365C101.067 19.4694 101.079 19.475 101.093 19.4795L101.355 19.5664L101.618 19.6523C101.794 19.7103 101.972 19.7702 102.15 19.8301L102.416 19.9189L102.683 20.0088C103.082 20.1434 103.355 20.4383 103.497 20.8037L103.609 21.0928L103.713 21.3604L104.205 21.5244C104.421 21.5965 104.629 21.6853 104.827 21.791L105.069 21.9209L105.312 22.0498C105.593 22.2005 105.817 22.422 105.975 22.6973L106.114 22.9404L106.253 23.1836C106.328 23.3143 106.41 23.4343 106.497 23.542L106.833 23.958C106.909 24.0519 106.996 24.1362 107.093 24.21L107.307 24.3721L107.521 24.5352C107.646 24.6306 107.779 24.7228 107.918 24.8105L108.151 24.958L108.386 25.1055C108.723 25.3191 108.923 25.6457 108.998 26.0127L109.059 26.3125L109.096 26.4971L109.303 26.5596L109.608 26.6523C109.954 26.757 110.25 26.9799 110.412 27.3232L110.474 27.4785L110.561 27.75L110.648 28.0215C110.696 28.1691 110.752 28.306 110.815 28.4316L110.937 28.6729L111.058 28.9131C111.063 28.924 111.078 28.949 111.139 28.9805L111.406 29.1191L111.675 29.2568C111.931 29.3891 112.158 29.5665 112.34 29.792L112.509 30.002L112.679 30.2129C112.896 30.4832 113.004 30.8026 113.022 31.1338L113.039 31.4375L113.057 31.7422C113.065 31.8881 113.089 32.0108 113.124 32.1123L113.211 32.3672L113.299 32.623C113.334 32.7262 113.383 32.8203 113.445 32.9053L113.603 33.1201L113.76 33.3359C113.862 33.4766 113.967 33.618 114.073 33.7588L114.235 33.9746L114.397 34.1895C114.528 34.3626 114.643 34.5458 114.744 34.7363L114.869 34.9717L114.993 35.208C115.046 35.307 115.116 35.4052 115.204 35.501L115.396 35.709L115.588 35.917C115.868 36.2206 115.974 36.6026 115.929 36.9922L115.895 37.2949L115.865 37.543L116.038 37.7031L116.257 37.9062C116.485 38.1178 116.658 38.3778 116.75 38.6836L116.827 38.9414L116.904 39.1982C116.984 39.4665 117.005 39.7444 116.977 40.0225L116.947 40.3115L116.918 40.5859L117.102 40.7979L117.294 41.0205C117.477 41.2331 117.618 41.4743 117.706 41.7412L117.791 41.9971L117.875 42.2529C117.976 42.56 117.98 42.8763 117.908 43.1826L117.841 43.4727L117.783 43.7129L117.944 43.9141L118.133 44.1484C118.365 44.4377 118.486 44.7922 118.446 45.1787L118.417 45.4561L118.389 45.7334C118.375 45.8702 118.375 46.0016 118.389 46.126L118.418 46.3906L118.447 46.6562C118.467 46.8323 118.487 47.0091 118.507 47.1855L118.536 47.4521L118.565 47.7178C118.59 47.9371 118.595 48.1582 118.58 48.3789L118.562 48.6475L118.544 48.915C118.536 49.0367 118.542 49.1579 118.563 49.2773L118.61 49.541L118.656 49.8057C118.686 49.9762 118.719 50.148 118.753 50.3193L118.807 50.585L118.859 50.8506C118.91 51.1023 118.918 51.3577 118.886 51.6123L118.853 51.8809L118.818 52.1484C118.796 52.3222 118.776 52.4963 118.758 52.6689L118.701 53.2021C118.678 53.4234 118.634 53.6435 118.57 53.8604L118.414 54.3936C118.404 54.4297 118.403 54.4595 118.417 54.501L118.507 54.7676L118.596 55.0342C118.667 55.247 118.721 55.4633 118.756 55.6807L118.799 55.9473L118.842 56.2148C118.87 56.392 118.899 56.5699 118.928 56.7471L119.014 57.2803C119.045 57.4721 119.07 57.6652 119.089 57.8574L119.142 58.3906C119.171 58.69 119.124 58.983 119.014 59.2588L118.799 59.792C118.733 59.9566 118.673 60.1214 118.618 60.2852L118.529 60.5527L118.495 60.6514C118.501 60.7326 118.5 60.8157 118.49 60.8994L118.512 60.9414C118.285 60.7965 118.03 60.7131 117.764 60.6865L117.176 60.6279C117.053 60.6157 116.964 60.5881 116.901 60.5566L116.674 60.4424L116.446 60.3271C116.342 60.275 116.232 60.2052 116.118 60.1152L115.896 59.9395L115.674 59.7637C115.466 59.5994 115.235 59.4709 114.986 59.3818L114.723 59.2881L114.459 59.1934C114.432 59.1839 114.406 59.1758 114.379 59.168L114.491 59.3477C114.57 59.4734 114.655 59.5858 114.744 59.6846L114.924 59.8818L115.104 60.0801C115.283 60.2777 115.421 60.5037 115.517 60.7529L115.613 61.0039L115.71 61.2559C115.736 61.3248 115.779 61.3937 115.848 61.4629L116.05 61.665L116.252 61.8682C116.474 62.0909 116.63 62.3612 116.706 62.6699L116.771 62.9365L116.838 63.2041C116.897 63.4454 116.922 63.6914 116.913 63.9395L116.894 64.4863C116.887 64.6653 116.883 64.8422 116.879 65.0166L116.873 65.2842L116.867 65.5508C116.864 65.6995 116.87 65.8492 116.885 65.999L116.911 66.2666L116.938 66.5342C116.956 66.7055 116.975 66.8781 116.998 67.0508L117.033 67.3203L117.069 67.5898C117.113 67.9245 117.046 68.2464 116.896 68.5381L116.762 68.7979L116.63 69.0527L116.713 69.3047L116.802 69.5732C116.89 69.8398 116.925 70.1168 116.898 70.3975L116.873 70.6631L116.848 70.9277C116.837 71.0356 116.843 71.1407 116.864 71.2441L116.917 71.5029L116.969 71.7627C116.997 71.9043 117.036 72.0422 117.083 72.1768L117.169 72.4248L117.255 72.6719C117.309 72.8279 117.368 72.9864 117.431 73.1465L117.529 73.3994L117.544 73.4385L117.842 73.377L118.002 74.0488L118.025 74.1465L117.334 74.3115H117.332L117.456 74.9102L117.345 74.9336L117.088 74.9873L116.857 74.8613L116.79 74.8242C116.581 74.7092 116.472 74.5213 116.439 74.4639C116.387 74.3724 116.343 74.2692 116.304 74.1699L116.204 73.917L116.105 73.665C116.036 73.4886 115.972 73.3125 115.911 73.1387L115.825 72.8916L115.739 72.6436C115.671 72.4484 115.616 72.2484 115.575 72.0449L115.522 71.7861L115.471 71.5273C115.422 71.2855 115.408 71.0399 115.432 70.7939L115.482 70.2627C115.489 70.1896 115.481 70.1104 115.451 70.0195L115.363 69.751L115.274 69.4834C115.153 69.1156 115.189 68.7407 115.363 68.4043L115.633 67.8848C115.661 67.8302 115.661 67.7988 115.658 67.7744L115.588 67.2354C115.563 67.0488 115.542 66.8622 115.523 66.6768L115.496 66.4092L115.47 66.1416C115.449 65.9346 115.441 65.7266 115.445 65.5195L115.457 64.9863C115.461 64.805 115.466 64.6211 115.473 64.4355L115.492 63.8887C115.496 63.7724 115.484 63.6573 115.456 63.543L115.325 63.0098C115.314 62.9629 115.291 62.9195 115.244 62.8721L114.84 62.4658C114.64 62.2649 114.484 62.0305 114.382 61.7646L114.285 61.5127L114.188 61.2617C114.156 61.1762 114.11 61.102 114.051 61.0361L113.691 60.6396C113.542 60.4749 113.406 60.2948 113.285 60.1016L113.136 59.8623L113.009 59.6572C113.006 59.6559 113.003 59.6549 113 59.6533C112.96 59.6312 112.883 59.598 112.752 59.5645L112.369 59.4658L112.139 59.4375C112.077 59.43 112.016 59.4266 111.955 59.4268C111.952 59.3783 111.945 59.3301 111.938 59.2822L111.865 59.1914L111.803 59.1133L111.89 59.042C111.86 58.9328 111.822 58.8253 111.771 58.7217L111.654 58.4814L111.537 58.2422C111.5 58.166 111.474 58.0761 111.465 57.9688L111.44 57.6865L111.415 57.4033L111.391 57.2393C111.31 56.8704 111.074 56.5876 110.763 56.4072L110.487 56.2471L110.259 56.1152L110.243 55.9092L110.221 55.6201C110.192 55.2516 110.034 54.9189 109.752 54.668L109.543 54.4814L109.333 54.2959C109.311 54.2765 109.3 54.2594 109.293 54.2236L109.236 53.9453L109.181 53.667C109.108 53.3085 108.914 53.0048 108.619 52.7881L108.392 52.6201L108.163 52.4531C108.065 52.3814 107.989 52.3041 107.931 52.2246L107.773 52.0107L107.617 51.7979C107.577 51.7433 107.541 51.6694 107.518 51.5654L107.391 50.9951L107.352 50.8516C107.243 50.5257 107.02 50.2633 106.707 50.0986L106.45 49.9639L106.192 49.8281C106.12 49.7898 106.08 49.7496 106.055 49.7109L105.764 49.2617C105.682 49.1361 105.606 49.0021 105.536 48.8613L105.413 48.6143L105.291 48.3672C105.183 48.1488 105.048 47.9467 104.888 47.7646L104.711 47.5635L104.534 47.3613C104.436 47.2496 104.343 47.13 104.258 47.0039L104.104 46.7793L103.952 46.5537C103.75 46.2565 103.462 46.0606 103.134 45.959L102.848 45.8701L102.562 45.7822C102.423 45.7395 102.309 45.6865 102.216 45.6279L101.988 45.4854L101.761 45.3418C101.758 45.3401 101.756 45.3377 101.752 45.333C101.747 45.3265 101.736 45.309 101.724 45.2744L101.621 44.9844L101.519 44.6953C101.396 44.3491 101.163 44.0546 100.81 43.8828L100.563 43.7627L100.316 43.6426C100.202 43.5872 100.1 43.5206 100.008 43.4443L99.8027 43.2734L99.5967 43.1025C99.454 42.9837 99.3089 42.8666 99.1631 42.7529L98.9531 42.5889L98.7432 42.4258C98.5547 42.279 98.3485 42.157 98.1279 42.0615L97.8779 41.9531L97.627 41.8447C97.5667 41.8186 97.5161 41.7814 97.4707 41.7256L97.2959 41.5098L97.1211 41.2949C96.9315 41.0616 96.693 40.8819 96.4141 40.7666L96.1621 40.6631L95.9102 40.5586C95.7865 40.5074 95.6717 40.4454 95.5664 40.374L95.3467 40.2256L95.126 40.0762C95.0187 40.0034 94.9148 39.917 94.8154 39.8174L94.4248 39.4248L94.3213 39.3311C94.0724 39.1256 93.7723 39.0214 93.4551 39.0088L93.1562 38.9971L92.8584 38.9854C92.7561 38.9813 92.6873 38.9586 92.6396 38.9326L92.4072 38.8047L92.1738 38.6777C92.1318 38.6547 92.0773 38.6116 92.0186 38.5244L91.8496 38.2715L91.6797 38.0186L91.583 37.8926C91.4783 37.7711 91.3471 37.665 91.1885 37.5898C91.0305 37.5152 90.8666 37.4817 90.708 37.4766L90.5508 37.4805L90.2412 37.5059L89.9932 37.5254L89.8564 37.3584L89.6689 37.1299L89.5645 37.0156C89.3096 36.7671 88.9778 36.6391 88.6123 36.6514L88.3164 36.6621L88.0771 36.6699L87.917 36.4746L87.7256 36.2412L87.623 36.1289C87.3727 35.8823 87.0449 35.7459 86.6748 35.7559L86.3848 35.7637L86.1172 35.7705L85.9258 35.5703L85.7197 35.3574C85.4518 35.0797 85.1 34.9245 84.7041 34.9316L84.4199 34.9375L84.1348 34.9424C83.9837 34.9452 83.8401 34.9358 83.7051 34.915L83.1719 34.833C83.036 34.812 82.9042 34.7789 82.7783 34.7354L82.5273 34.6484L82.2773 34.5615C82.1485 34.5169 82.0199 34.4603 81.8936 34.3916L81.6533 34.2607L81.4131 34.1309C81.1531 33.9895 80.87 33.9141 80.5742 33.9082L80.2998 33.9023L80.0264 33.8975C79.9103 33.8952 79.8006 33.8771 79.6973 33.8447L79.4434 33.7646L79.1885 33.6846C79.0985 33.6563 79.0036 33.6096 78.9053 33.5381L78.6719 33.3682L78.4375 33.1982C78.1528 32.9911 77.8181 32.8881 77.46 32.9121L76.9053 32.9492C76.7722 32.9582 76.6454 32.952 76.5264 32.9326L76.2637 32.8896L76.001 32.8477C75.7816 32.812 75.5589 32.7971 75.335 32.8027L74.792 32.8164C74.6637 32.8196 74.539 32.8084 74.4189 32.7842L74.1582 32.7314L73.8984 32.6787C73.7282 32.6443 73.5567 32.6081 73.3867 32.5713L73.127 32.5156L72.8662 32.459C72.6926 32.4213 72.5176 32.3831 72.3428 32.3457L72.0811 32.29L71.8184 32.2334C71.6515 32.1977 71.4843 32.1591 71.3184 32.1182L70.7969 31.9893C70.6894 31.9627 70.5815 31.9482 70.4746 31.9443L70.4404 32.041L70.3486 32.2949C70.3048 32.4158 70.2734 32.5401 70.2559 32.6689L70.1836 33.2061C70.1424 33.5088 70.0253 33.7857 69.8438 34.0283L69.6748 34.2529L69.5068 34.4775C69.4369 34.571 69.3889 34.6637 69.3574 34.7559L69.2715 35.0068L69.1865 35.2568C69.1561 35.3458 69.136 35.4538 69.1338 35.585L69.1289 35.8799L69.124 36.1758C69.1182 36.5287 69.0011 36.8615 68.7607 37.1357L68.5781 37.3447L68.3955 37.5527C68.2607 37.7065 68.1198 37.8546 67.9727 37.9961L67.7734 38.1865L67.5742 38.3779C67.5603 38.3913 67.5445 38.4109 67.5352 38.4668L67.4863 38.7588L67.4375 39.0518C67.3646 39.4887 67.0963 39.8235 66.6992 40L66.1445 40.2461C66.0555 40.2857 66.0129 40.327 65.9893 40.3584L65.8291 40.5713L65.6699 40.7842C65.6135 40.8596 65.5618 40.9566 65.5195 41.0811L65.4238 41.3613L65.3291 41.6426C65.1876 42.0591 64.8722 42.3459 64.457 42.4609L64.1641 42.542L63.917 42.6094L63.8242 42.8418L63.7129 43.1211C63.6319 43.3235 63.4982 43.5127 63.2998 43.6533C63.104 43.792 62.886 43.8548 62.6797 43.8721L62.3594 43.8984L62.0391 43.9258C61.9255 43.9353 61.8772 43.9625 61.8604 43.9746L61.6475 44.1279L61.4336 44.2812C61.3433 44.3462 61.258 44.4262 61.1787 44.5225L61.0039 44.7344L60.8291 44.9473C60.7251 45.0736 60.6228 45.209 60.5225 45.3525L60.3564 45.5889L60.1904 45.8262C59.9801 46.1269 59.6809 46.3319 59.3174 46.4111L59.041 46.4717L58.7656 46.5312C58.5562 46.5769 58.343 46.6117 58.127 46.6348L57.8398 46.665L57.5537 46.6953C57.4438 46.7071 57.3567 46.7346 57.2861 46.7715L57.0508 46.8945L56.8164 47.0176C56.7629 47.0456 56.702 47.0925 56.6377 47.1768L56.2783 47.6494C56.0747 47.9166 55.8013 48.1178 55.4639 48.2119L55.2051 48.2842L54.9453 48.3564C54.8067 48.3951 54.6724 48.4438 54.543 48.502L54.2998 48.6113L54.0557 48.7207C53.9593 48.7641 53.864 48.8243 53.7695 48.9053L53.5547 49.0898L53.3389 49.2744C53.0621 49.5117 52.7258 49.6312 52.3633 49.625L52.0771 49.6201L51.7998 49.6152L51.2109 49.8613L51.1182 49.9004L51.0068 49.6338L50.9639 49.6367C50.9733 49.6353 50.987 49.6314 51.0039 49.627L50.8652 49.2949L50.4971 49.7637L50.3496 49.6484L50.1885 49.5205L50.1201 49.3271L50.0928 49.25C50.041 49.1037 50.0178 48.8918 50.1201 48.6748C50.2148 48.4741 50.3703 48.3688 50.4668 48.3193C50.639 48.2311 50.8175 48.2196 50.8984 48.2158L51.2891 48.1982C51.4393 48.1913 51.6161 48.1899 51.8154 48.1934L52.3877 48.2031L52.4033 48.2021C52.4042 48.2016 52.4077 48.1999 52.4131 48.1953L52.8428 47.8262C53.0345 47.6616 53.2446 47.5254 53.4727 47.4229L53.7168 47.3135L53.96 47.2041C54.155 47.1164 54.3566 47.044 54.5635 46.9863L54.8232 46.9141L55.082 46.8418C55.0904 46.8395 55.1103 46.8345 55.1465 46.7871L55.3271 46.5508L55.5068 46.3154C55.6822 46.0853 55.8979 45.8925 56.1572 45.7568L56.3926 45.6348L56.627 45.5117C56.8692 45.385 57.1305 45.3103 57.4023 45.2812L57.6895 45.251L57.9756 45.2197C58.1416 45.202 58.3046 45.1761 58.4629 45.1416L58.7383 45.082L59.0146 45.0215C59.0157 45.0213 59.0168 45.0208 59.0176 45.0205C59.0192 45.0187 59.0223 45.0161 59.0254 45.0117L59.3574 44.5371C59.4781 44.3646 59.6025 44.1996 59.7314 44.043L59.9062 43.8311L60.0811 43.6182C60.2348 43.4314 60.4091 43.2667 60.6035 43.127L60.8164 42.9736L61.0303 42.8203C61.298 42.6278 61.6067 42.5341 61.9199 42.5078L62.2402 42.4814L62.4434 42.4639L62.5039 42.3135L62.6162 42.0342L62.6816 41.8916C62.8525 41.573 63.1354 41.3505 63.4912 41.252L63.7842 41.1709L64.0078 41.1084L64.0771 40.9043L64.1729 40.623C64.2578 40.3731 64.3754 40.1399 64.5312 39.9316L64.6914 39.7197L64.8506 39.5068C65.0394 39.2546 65.2874 39.0707 65.5674 38.9463L65.8447 38.8232L66.0488 38.7324L66.084 38.5254L66.1328 38.2324C66.1885 37.8986 66.3376 37.5941 66.5889 37.3525L66.7881 37.1621L66.9863 36.9707C67.1044 36.8572 67.2178 36.7379 67.3262 36.6143L67.6914 36.1982C67.6946 36.1946 67.6958 36.1922 67.6963 36.1914L67.6973 36.1895C67.6978 36.1881 67.7017 36.1775 67.7021 36.1523L67.707 35.8564L67.7119 35.5615C67.7162 35.2991 67.7573 35.0426 67.8408 34.7979L67.9258 34.5469L68.0117 34.2969C68.0942 34.0553 68.2151 33.8307 68.3691 33.625L68.5371 33.4004L68.7051 33.1768C68.7316 33.1414 68.7465 33.1069 68.7578 33.0732C68.6764 33.1123 68.5992 33.1536 68.5264 33.1973L68.2939 33.3369L68.0732 33.4678C68.0705 33.4737 68.0669 33.4842 68.0625 33.5L67.9775 33.8018L67.8926 34.1045C67.7882 34.4771 67.5535 34.7983 67.1748 34.9775L66.9219 35.0967L66.6699 35.2168C66.5073 35.2938 66.3467 35.3714 66.1895 35.4512L65.9443 35.5762L65.7002 35.7002C65.6445 35.7285 65.6016 35.7652 65.5654 35.8184L65.4111 36.0459L65.2559 36.2734C65.1154 36.4797 64.9487 36.6635 64.7568 36.8213L64.3408 37.1631C64.1786 37.2964 64.0088 37.4187 63.8311 37.5293L63.6035 37.6699L63.377 37.8115C63.3174 37.8486 63.2628 37.9 63.2129 37.9756L63.0576 38.21L62.9033 38.4453C62.6701 38.7987 62.314 38.986 61.9238 39.0303L61.6133 39.0654L61.3232 39.0977L61.1982 39.29L61.0439 39.5264C60.9081 39.7342 60.7485 39.9212 60.5645 40.084L60.3633 40.2617L60.1621 40.4404C60.0133 40.5721 59.8595 40.6967 59.7012 40.8145L59.4873 40.9736L59.2744 41.1318C59.0953 41.2651 58.904 41.3814 58.7012 41.4795L58.4561 41.5977L58.2109 41.7168C58.1554 41.7437 58.1078 41.7815 58.0645 41.8408L57.7344 42.292C57.5542 42.5385 57.3213 42.7318 57.042 42.8594L56.7939 42.9727L56.5449 43.0859C56.47 43.1202 56.407 43.1669 56.3516 43.2295L55.9883 43.6396C55.8001 43.852 55.5738 44.0184 55.3145 44.1338L55.0654 44.2441L54.8164 44.3555C54.6835 44.4146 54.5587 44.482 54.4424 44.5576L53.9971 44.8467C53.8163 44.9641 53.6259 45.067 53.4268 45.1553L53.1787 45.2656L52.9307 45.375C52.8278 45.4206 52.736 45.479 52.6533 45.5498L52.2451 45.8994C52.0976 46.0258 51.946 46.1477 51.79 46.2646L51.5742 46.4258L51.3584 46.5879C51.1927 46.7121 51.0205 46.8255 50.8428 46.9287L50.6133 47.0625L50.3828 47.1963C50.1629 47.3239 49.9258 47.414 49.6758 47.4697L49.4004 47.5312L49.126 47.5928C49.0462 47.6106 48.9875 47.6407 48.9385 47.6807L48.7295 47.8516L48.5215 48.0215C48.327 48.1804 48.1118 48.3073 47.8789 48.4014L47.6289 48.5029L47.3789 48.6035C47.3484 48.6159 47.3115 48.6392 47.2676 48.7002L47.0957 48.9395L46.9229 49.1787C46.7369 49.4368 46.4918 49.6408 46.1885 49.7627L45.6885 49.9639C45.5475 50.0205 45.4111 50.0844 45.2793 50.1562L45.0439 50.2842L44.8096 50.4121C44.5929 50.5302 44.3615 50.6159 44.1191 50.6699L43.8496 50.7305L43.5801 50.79C43.3633 50.8383 43.1411 50.8699 42.9141 50.8848L42.625 50.9043L42.3545 50.9209L42.1797 51.1348L41.9951 51.3604C41.8095 51.5868 41.5818 51.7702 41.3125 51.8936L40.8262 52.1162C40.6584 52.1931 40.4902 52.2678 40.3213 52.3398L39.8311 52.5488C39.7056 52.6024 39.5839 52.6671 39.4658 52.7432L39.0107 53.0361C38.8001 53.1719 38.5731 53.274 38.332 53.3418L38.0732 53.415L37.8135 53.4883C37.7058 53.5186 37.6049 53.5633 37.5088 53.623L37.0498 53.9082C36.8469 54.0344 36.6307 54.1341 36.4033 54.2061L36.1484 54.2871L35.8926 54.3672C35.655 54.4424 35.4083 54.4827 35.1562 54.4893L34.8721 54.4961L34.5879 54.5039C34.5207 54.5057 34.4754 54.5212 34.4365 54.5459L34.208 54.6914L33.9785 54.8369C33.7914 54.9555 33.5957 55.0561 33.3926 55.1396L33.1465 55.2412L32.9014 55.3428C32.7579 55.4018 32.6155 55.4677 32.4756 55.541L32.2373 55.666L31.998 55.791C31.8084 55.8904 31.6131 55.9759 31.4121 56.0459L31.1611 56.1328L30.9092 56.2207C30.6989 56.294 30.4826 56.3477 30.2607 56.3809L29.9922 56.4209L29.7246 56.4609C29.6086 56.4783 29.499 56.5095 29.3955 56.5557L29.1514 56.665L28.9072 56.7734C28.7922 56.8247 28.6777 56.8911 28.5645 56.9736L28.1094 57.3057C27.8725 57.4784 27.6055 57.5937 27.3145 57.6426L27.0479 57.6875L26.7822 57.7324C26.5805 57.7663 26.3764 57.7895 26.1709 57.8027L25.626 57.8379C25.4214 57.851 25.2148 57.8542 25.0068 57.8477L24.7285 57.8389L24.4492 57.8301C24.4438 57.8299 24.4409 57.83 24.4404 57.8301L24.4395 57.8311C24.4388 57.8313 24.4377 57.8314 24.4365 57.832C24.4331 57.834 24.4267 57.8385 24.418 57.8457L24.1924 58.0312L23.9658 58.2168C23.7618 58.3843 23.5377 58.5182 23.2939 58.6123L23.043 58.71L22.792 58.8066C22.5795 58.8887 22.3602 58.9483 22.1357 58.9854L21.8711 59.0293L21.6064 59.0723C21.428 59.1017 21.2496 59.1306 21.0713 59.1582L20.542 59.2402C20.4471 59.255 20.3521 59.2857 20.2549 59.3369L20.0088 59.4668L19.7617 59.5967C19.5087 59.7299 19.2358 59.8063 18.9492 59.8203L18.6797 59.834L18.4092 59.8467C18.1966 59.857 17.9826 59.8528 17.7676 59.834L17.2148 59.7852C17.0965 59.7748 16.9861 59.7814 16.8818 59.8027L16.6211 59.8564L16.3594 59.9092C16.1215 59.9577 15.8801 59.9733 15.6367 59.957L15.3643 59.9395L15.0918 59.9209C15.072 59.9196 15.0582 59.9203 15.0498 59.9209L14.8994 60.0186L14.7227 60.1318C14.7116 60.1389 14.6958 60.1447 14.6787 60.1543C14.5666 60.3271 14.445 60.4904 14.3096 60.6396L13.9502 61.0361C13.8904 61.1021 13.8453 61.1761 13.8125 61.2617L13.7158 61.5127L13.6191 61.7646C13.5173 62.0305 13.3611 62.2649 13.1611 62.4658L12.7568 62.8721C12.7096 62.9195 12.6873 62.9629 12.6758 63.0098L12.5449 63.543C12.5168 63.6573 12.5046 63.7723 12.5088 63.8887L12.5283 64.4355C12.535 64.6211 12.54 64.805 12.5439 64.9863L12.5557 65.5195C12.5602 65.7266 12.5521 65.9346 12.5312 66.1416L12.5049 66.4092L12.4775 66.6768C12.4589 66.8622 12.4375 67.0488 12.4131 67.2354L12.3428 67.7744C12.3396 67.7988 12.34 67.8302 12.3682 67.8848L12.6377 68.4043C12.8118 68.7407 12.8481 69.1156 12.7266 69.4834L12.6377 69.751L12.5498 70.0195C12.5198 70.1104 12.5117 70.1896 12.5186 70.2627L12.5693 70.7939C12.5927 71.0399 12.5793 71.2855 12.5303 71.5273L12.4785 71.7861L12.4258 72.0449C12.3845 72.2484 12.3295 72.4484 12.2617 72.6436L12.1758 72.8916L12.0898 73.1387C12.0294 73.3125 11.9645 73.4886 11.8955 73.665L11.7969 73.917L11.6973 74.1699C11.6584 74.2692 11.614 74.3724 11.5615 74.4639C11.5287 74.5211 11.4205 74.7092 11.2109 74.8242L11.1436 74.8613L10.9131 74.9873L10.6562 74.9336L10.5449 74.9102L10.6689 74.3115H10.667L9.97559 74.1465L9.99902 74.0488L10.1592 73.377L10.457 73.4385L10.4717 73.3994L10.5703 73.1465C10.6329 72.9863 10.6918 72.828 10.7461 72.6719L10.832 72.4248L10.918 72.1768C10.9647 72.0422 11.0035 71.9043 11.0322 71.7627L11.084 71.5029L11.1367 71.2441C11.1577 71.1407 11.1636 71.0356 11.1533 70.9277L11.1279 70.6631L11.1025 70.3975C11.0759 70.1168 11.1111 69.8398 11.1992 69.5732L11.2881 69.3047L11.3711 69.0527L11.2393 68.7979L11.1055 68.5381C10.9545 68.2464 10.8879 67.9246 10.9316 67.5898L10.9678 67.3203L11.0029 67.0508C11.0255 66.8781 11.0453 66.7054 11.0625 66.5342L11.0898 66.2666L11.1162 65.999C11.1313 65.8492 11.137 65.6995 11.1338 65.5508L11.1279 65.2842L11.1221 65.0166C11.1183 64.8422 11.1138 64.6653 11.1074 64.4863L11.0879 63.9395C11.079 63.6913 11.1038 63.4454 11.1631 63.2041L11.2295 62.9365L11.2949 62.6699C11.3709 62.3612 11.5271 62.091 11.749 61.8682L11.9512 61.665L12.1533 61.4629C12.2222 61.3937 12.2646 61.3248 12.291 61.2559L12.3877 61.0039L12.4844 60.7529C12.5799 60.5037 12.7181 60.2778 12.8975 60.0801L13.0771 59.8818L13.2568 59.6846C13.3217 59.6131 13.3814 59.533 13.4404 59.4473C13.4396 59.4368 13.438 59.4268 13.4375 59.417L13.4326 59.3369L13.3545 59.3174L13.1924 59.2861C12.8713 59.245 12.5645 59.3287 12.3086 59.5195L12.1855 59.624L11.9668 59.8311L11.752 60.0352L11.1426 60.0039C10.6993 59.9814 10.2995 60.1695 10.0459 60.5498L9.88184 60.7959L9.71875 61.042C9.60981 61.2054 9.50467 61.3614 9.40527 61.5098L9.25586 61.7334L9.10645 61.9561C9.09566 61.9721 9.07682 61.9942 9.01855 62.0166L8.85156 62.0801L8.84766 62.0488C8.82384 61.8881 8.79464 61.7266 8.75977 61.5664L8.70215 61.3018L8.64453 61.0381C8.5634 60.6651 8.64315 60.3081 8.81641 60L8.96973 59.7275L9.05664 59.5713L8.95117 59.4219L8.76953 59.1631C8.54086 58.8379 8.44522 58.4398 8.56543 58.0254L8.64355 57.7539L8.72266 57.4824C8.73738 57.4316 8.73502 57.396 8.72363 57.3594L8.64258 57.0977L8.56055 56.8359C8.47931 56.576 8.44847 56.3067 8.4707 56.0352L8.49219 55.7676L8.51465 55.499C8.52279 55.3999 8.53955 55.2462 8.5957 55.1035C8.62082 55.0399 8.69211 54.8757 8.86328 54.75C8.92878 54.702 8.99901 54.6678 9.07031 54.6445C9.01941 54.4845 8.98272 54.3207 8.96387 54.1543L8.93359 53.8877L8.90332 53.6201C8.86089 53.2428 8.97535 52.898 9.16992 52.6094L9.35059 52.3428L9.52441 52.0859L9.46094 51.8721L9.38281 51.6055C9.32361 51.4027 9.27512 51.1975 9.23926 50.9922L9.19336 50.7236L9.14648 50.4551C9.08721 50.1152 9.14459 49.7842 9.2959 49.4844L9.42676 49.2246L9.55762 48.9658C9.55963 48.9618 9.56077 48.9581 9.56152 48.9561L9.56055 48.9541L9.39844 48.4053C9.33317 48.1843 9.28711 47.9598 9.26172 47.7344L9.23047 47.46L9.2002 47.1855C9.16597 46.8809 9.20975 46.5809 9.3291 46.2988L9.4375 46.043L9.54492 45.7881C9.62503 45.5989 9.71457 45.4125 9.81152 45.2295L9.94238 44.9814L10.0742 44.7334C10.092 44.6998 10.097 44.6727 10.0918 44.6328L10.0176 44.0742C9.96576 43.6819 10.0817 43.3173 10.3242 43.0215L10.5127 42.792L10.6719 42.5977L10.6191 42.3496L10.5566 42.0586C10.4755 41.6769 10.5478 41.2933 10.7871 40.9688L10.9551 40.7412L11.124 40.5127C11.1459 40.4831 11.1515 40.4626 11.1514 40.4316L11.1484 40.1514L11.1465 39.8701C11.1438 39.5301 11.2471 39.2107 11.4502 38.9365L11.6152 38.7129L11.7812 38.4893C11.8633 38.3785 11.9298 38.2658 11.9814 38.1523L12.0918 37.9102L12.2012 37.6689C12.2792 37.4974 12.3621 37.3275 12.4482 37.1602L12.5693 36.9238L12.6904 36.6885C12.7344 36.603 12.766 36.5071 12.7822 36.3994L12.8223 36.127L12.8633 35.8555C12.9126 35.5269 13.0584 35.234 13.2871 34.9951L13.4795 34.793L13.6729 34.5918C13.6895 34.5743 13.6975 34.5603 13.7012 34.5254L13.7314 34.2422L13.7607 33.959C13.7992 33.5925 13.9658 33.2699 14.2451 33.0273L14.459 32.8428L14.6719 32.6572C14.7579 32.5826 14.8206 32.505 14.8652 32.4268L14.9961 32.1973L15.127 31.9688C15.14 31.9458 15.1614 31.8929 15.1602 31.7832L15.1562 31.4668L15.1523 31.1494C15.1485 30.8239 15.2229 30.4994 15.4092 30.2119L15.7021 29.7607C15.8989 29.4574 16.1861 29.2595 16.502 29.1426L16.8047 29.0303L17.1084 28.9189C17.1127 28.9173 17.1168 28.9146 17.1201 28.9131L17.2119 28.6963L17.3164 28.4434C17.3827 28.2838 17.4475 28.1199 17.5098 27.9531L17.6074 27.6904L17.7061 27.4277C17.8356 27.0809 18.0798 26.8154 18.4033 26.6494L18.6611 26.5166L18.918 26.3848C18.9269 26.3802 18.9333 26.3764 18.9365 26.374C18.9388 26.3723 18.9406 26.3708 18.9414 26.3701C18.9418 26.3697 18.9425 26.3685 18.9434 26.3672C18.9443 26.3656 18.9466 26.3617 18.9492 26.3555L19.0566 26.0947L19.1631 25.834C19.3053 25.487 19.5631 25.2274 19.9004 25.0762L20.4277 24.8398C20.4462 24.8316 20.4542 24.8249 20.4561 24.8232C20.4574 24.8219 20.4615 24.8174 20.4668 24.8066L20.5898 24.5557L20.7129 24.3037C20.7946 24.1368 20.8771 23.9674 20.96 23.7969L21.085 23.54L21.209 23.2832C21.3385 23.0167 21.523 22.7865 21.7617 22.6064L21.9775 22.4434L22.1934 22.2812C22.3375 22.1726 22.4823 22.064 22.626 21.9561L23.0557 21.6318C23.2733 21.4684 23.5181 21.3511 23.7803 21.2754L24.0586 21.1953L24.3379 21.1143C24.4205 21.0903 24.4726 21.0574 24.5098 21.0215L24.7021 20.835L24.8936 20.6484C25.0956 20.4523 25.3329 20.306 25.5967 20.21L25.8555 20.1152L26.0977 20.0273C26.0998 20.0237 26.1034 20.019 26.1064 20.0127L26.3701 19.4561C26.5168 19.1468 26.7487 18.8849 27.0752 18.7256L27.3174 18.6074L27.5605 18.4893C27.7752 18.3847 28.0021 18.3072 28.2383 18.2559L28.5137 18.1963L28.7891 18.1357C28.8896 18.1139 28.9711 18.0788 29.0391 18.0332L29.4805 17.7363C29.5966 17.6582 29.7101 17.569 29.8193 17.4688L30.2236 17.0977C30.358 16.9744 30.4936 16.8494 30.6299 16.7236L31.04 16.3447C31.2924 16.1119 31.6012 15.976 31.9404 15.9424L32.2236 15.915L32.5059 15.8867C32.6475 15.8727 32.7785 15.8457 32.8984 15.8076L33.1533 15.7266L33.4092 15.6455C33.5113 15.613 33.6086 15.565 33.7021 15.501L34.1533 15.1924C34.3733 15.0415 34.6149 14.9322 34.874 14.8691L35.1348 14.8057L35.3965 14.7422C35.6069 14.691 35.8223 14.656 36.04 14.6377L36.3125 14.6152L36.5859 14.5928C36.5873 14.5921 36.5996 14.5855 36.6201 14.5645L36.832 14.3467L37.0439 14.1279L37.1611 14.0205C37.2859 13.9196 37.4339 13.8395 37.6035 13.7939C37.7725 13.7487 37.9397 13.7441 38.0967 13.7676L38.251 13.7998L38.5498 13.8809L38.7705 13.9404L38.9287 13.7949L39.1523 13.5889C39.4456 13.319 39.8232 13.1847 40.2363 13.2412L40.5195 13.2803L40.8018 13.3193C40.9335 13.3374 41.0545 13.3377 41.165 13.3242L41.6924 13.2598C41.7807 13.249 41.8728 13.2219 41.9688 13.1729L42.2178 13.0449L42.4678 12.917C42.6649 12.8161 42.868 12.7312 43.0752 12.6621L43.334 12.5752L43.5938 12.4893L43.7363 12.4502C44.0683 12.3785 44.3936 12.4407 44.6807 12.585L44.9639 12.7275L45.248 12.8701C45.2777 12.8849 45.296 12.8902 45.3027 12.8916L45.5576 12.8262L45.8184 12.7598C46.0205 12.7085 46.2256 12.6708 46.4316 12.6455L46.6963 12.6123L46.9609 12.5801C47.1755 12.5538 47.3924 12.5458 47.6084 12.5547L47.875 12.5654L48.1406 12.5762H48.2979L48.3721 12.5518L48.4795 12.5156L48.6309 12.4785C48.7865 12.45 48.9508 12.4466 49.085 12.4482L49.3516 12.4521L49.6182 12.4551C49.7423 12.4566 49.8686 12.4448 49.9961 12.418L50.2627 12.3613L50.5293 12.3057C50.8992 12.2278 51.2542 12.3044 51.5625 12.4805L52.0957 12.7852C52.109 12.7927 52.1198 12.7975 52.126 12.7998C52.1281 12.8006 52.1305 12.8014 52.1318 12.8018L52.3936 12.7451L52.6602 12.6885C52.8693 12.6438 53.0809 12.6138 53.292 12.5986L53.5586 12.5791L53.8252 12.5605C54.0302 12.5459 54.2362 12.5425 54.4414 12.5518L54.708 12.5645L54.9746 12.5762C55.1069 12.5821 55.2404 12.5759 55.374 12.5566L55.6406 12.5176L55.9072 12.4795C56.093 12.4527 56.28 12.4294 56.4658 12.4092L56.999 12.3506C57.2501 12.3233 57.502 12.3358 57.75 12.3857L58.2832 12.4932C58.4254 12.5218 58.5678 12.5386 58.708 12.5449L59.2412 12.5684C59.3704 12.5741 59.5011 12.5675 59.6318 12.5469L59.8984 12.5049L60.165 12.4619C60.3982 12.4251 60.6335 12.4169 60.8682 12.4365L61.1357 12.459L61.4023 12.4814C61.5581 12.4945 61.7146 12.5002 61.8701 12.499L62.1367 12.4971L62.4033 12.4941C62.5271 12.4931 62.6534 12.4789 62.7812 12.4492L63.0479 12.3867L63.3145 12.3252C63.5608 12.2679 63.812 12.2475 64.0635 12.2666L64.5967 12.3076C64.757 12.3198 64.918 12.3256 65.0781 12.3262L65.6113 12.3281C65.8262 12.3288 66.0414 12.3466 66.2549 12.3809L66.5215 12.4238L66.7891 12.4668C66.9904 12.4992 67.1917 12.5426 67.3916 12.5957L67.6582 12.666L67.9121 12.7344C67.9162 12.7327 67.9228 12.7299 67.9307 12.7256L68.4639 12.4287L68.6006 12.3623C68.8774 12.2446 69.178 12.222 69.4736 12.3096L69.6211 12.3623L69.8877 12.4756L70.1406 12.585L70.3945 12.4746L70.6611 12.3594L70.7988 12.3086Z" fill="#303A4B"/>
</svg>
