<svg width="128" height="128" viewBox="0 0 128 128" fill="none" xmlns="http://www.w3.org/2000/svg">
<path d="M70.7988 12.3071C71.1212 12.2057 71.4571 12.2282 71.7705 12.3706L72.3037 12.6128C72.4262 12.6684 72.5406 12.7023 72.6475 12.7183L72.9141 12.7573L73.1807 12.7974C73.276 12.8116 73.3713 12.81 73.4688 12.7905L73.7363 12.7368L74.0029 12.6831C74.2137 12.6408 74.426 12.6142 74.6387 12.603L74.9053 12.5884L75.1719 12.5747C75.3924 12.5631 75.6133 12.571 75.833 12.5991L76.3662 12.6675C76.4045 12.6723 76.4523 12.6697 76.5215 12.6392L77.0547 12.4028C77.3952 12.2524 77.7638 12.2354 78.1191 12.3647L78.3857 12.4614L78.6523 12.5591C78.7921 12.61 78.9292 12.6465 79.0625 12.6694L79.3281 12.7153L79.5947 12.7603C79.6844 12.7756 79.7733 12.775 79.8652 12.7563L80.1318 12.7026L80.3984 12.6479C80.6399 12.5991 80.8843 12.5842 81.1289 12.604L81.3945 12.6255L81.6592 12.647C81.7698 12.6559 81.8852 12.6494 82.0059 12.6265L82.5488 12.5229C82.8975 12.4567 83.2387 12.5166 83.5449 12.6821L83.7988 12.8188L84.043 12.9517L84.3184 12.8657L84.5986 12.7798C84.9234 12.68 85.2568 12.6974 85.5635 12.8364L85.6934 12.9028L86.1875 13.1919C86.2742 13.2424 86.3527 13.2663 86.4248 13.2749L86.6885 13.3062L86.9531 13.3384C87.1933 13.367 87.4269 13.4273 87.6514 13.519L87.9014 13.6216L88.1504 13.7231C88.252 13.7647 88.356 13.7911 88.4639 13.8013L88.7314 13.8257L88.998 13.8511C89.1235 13.8629 89.2592 13.8617 89.4053 13.8452L89.6924 13.813L89.9795 13.7798L90.1465 13.772C90.5288 13.7779 90.8573 13.9568 91.0947 14.2397L91.2979 14.4829L91.3984 14.603L91.5781 14.5464L91.8936 14.4458C92.0974 14.3812 92.3372 14.3556 92.585 14.4243C92.7737 14.4768 92.9312 14.5743 93.0576 14.6938L93.1748 14.8198L93.3691 15.062L93.5498 15.2856L93.7871 15.2896L94.0732 15.2944C94.3654 15.2988 94.6487 15.3643 94.9111 15.4985L95.1504 15.6206L95.3896 15.7437C95.5299 15.8154 95.6736 15.8802 95.8193 15.939L96.0674 16.0396L96.3164 16.1401C96.5311 16.2268 96.7349 16.3372 96.9258 16.4692L97.1475 16.6226L97.3701 16.7759C97.4787 16.851 97.593 16.9143 97.7129 16.9653L97.96 17.0708L98.207 17.1753C98.4926 17.297 98.7294 17.4896 98.915 17.7319L99.0908 17.9604L99.2656 18.1899C99.2774 18.2052 99.2854 18.2103 99.2871 18.2114C99.2887 18.2124 99.2942 18.2155 99.3066 18.2183L99.5801 18.2798L99.8545 18.3413C100.224 18.4242 100.524 18.6389 100.728 18.9497L100.886 19.1929L101.045 19.4351C101.067 19.4683 101.079 19.4735 101.093 19.478L101.355 19.5649L101.618 19.6509C101.794 19.7089 101.972 19.7687 102.15 19.8286L102.416 19.9175L102.683 20.0073C103.082 20.142 103.355 20.4369 103.497 20.8022L103.609 21.0913L103.713 21.3589L104.205 21.5229C104.421 21.595 104.629 21.6838 104.827 21.7896L105.069 21.9194L105.312 22.0483C105.593 22.199 105.817 22.4205 105.975 22.6958L106.114 22.939L106.253 23.1821C106.328 23.3129 106.41 23.4328 106.497 23.5405L106.833 23.9565C106.909 24.0505 106.996 24.1347 107.093 24.2085L107.307 24.3706L107.521 24.5337C107.646 24.6292 107.779 24.7213 107.918 24.8091L108.151 24.9565L108.386 25.104C108.723 25.3176 108.923 25.6443 108.998 26.0112L109.059 26.311L109.096 26.4956L109.303 26.5581L109.608 26.6509C109.954 26.7555 110.25 26.9784 110.412 27.3218L110.474 27.4771L110.561 27.7485L110.648 28.02C110.696 28.1677 110.752 28.3045 110.815 28.4302L110.937 28.6714L111.058 28.9116C111.063 28.9225 111.078 28.9474 111.139 28.979L111.406 29.1177L111.675 29.2554C111.931 29.3876 112.158 29.565 112.34 29.7905L112.509 30.0005L112.679 30.2114C112.896 30.4817 113.004 30.8011 113.022 31.1323L113.039 31.436L113.057 31.7407C113.065 31.8867 113.089 32.0093 113.124 32.1108L113.211 32.3657L113.299 32.6216C113.334 32.7248 113.383 32.8188 113.445 32.9038L113.603 33.1187L113.76 33.3345C113.862 33.4752 113.967 33.6165 114.073 33.7573L114.235 33.9731L114.397 34.188C114.528 34.3612 114.643 34.5443 114.744 34.7349L114.869 34.9702L114.993 35.2065C115.046 35.3056 115.116 35.4036 115.204 35.4995L115.396 35.7075L115.588 35.9155C115.868 36.2191 115.974 36.6012 115.929 36.9907L115.895 37.2935L115.865 37.5415L116.038 37.7017L116.257 37.9048C116.485 38.1163 116.658 38.3764 116.75 38.6821L116.827 38.9399L116.904 39.1968C116.984 39.465 117.005 39.743 116.977 40.021L116.947 40.3101L116.918 40.5845L117.102 40.7964L117.294 41.019C117.477 41.2316 117.618 41.4728 117.706 41.7397L117.791 41.9956L117.875 42.2515C117.976 42.5585 117.98 42.8749 117.908 43.1812L117.841 43.4712L117.783 43.7114L117.944 43.9126L118.133 44.147C118.365 44.4362 118.486 44.7908 118.446 45.1772L118.417 45.4546L118.389 45.7319C118.375 45.8688 118.375 46.0001 118.389 46.1245L118.418 46.3892L118.447 46.6548C118.467 46.8308 118.487 47.0077 118.507 47.1841L118.536 47.4507L118.565 47.7163C118.59 47.9356 118.595 48.1568 118.58 48.3774L118.562 48.646L118.544 48.9136C118.536 49.0352 118.542 49.1565 118.563 49.2759L118.61 49.5396L118.656 49.8042C118.686 49.9748 118.719 50.1466 118.753 50.3179L118.807 50.5835L118.859 50.8481C118.91 51.1 118.918 51.3561 118.886 51.6108L118.853 51.8794L118.818 52.147C118.796 52.3208 118.776 52.4948 118.758 52.6675L118.701 53.2007C118.678 53.4219 118.634 53.6421 118.57 53.8589L118.414 54.3921C118.403 54.4284 118.403 54.458 118.417 54.4995L118.507 54.7661L118.596 55.0327C118.667 55.2455 118.721 55.4618 118.756 55.6792L119.014 57.2788C119.045 57.4706 119.07 57.6638 119.089 57.856L119.142 58.3892C119.171 58.6885 119.124 58.9816 119.014 59.2573L118.799 59.7905C118.733 59.9551 118.673 60.12 118.618 60.2837L118.529 60.5513L118.444 60.8042C118.445 60.8052 118.446 60.8071 118.446 60.8081L118.512 60.9409C118.285 60.7957 118.031 60.7117 117.764 60.6851L117.176 60.6265C117.137 60.6226 117.102 60.6144 117.07 60.6079L117.134 60.7261C117.346 61.1271 117.332 61.5705 117.098 61.9575L116.939 62.2183L116.811 62.4302L116.9 62.647L117.015 62.9214C117.164 63.281 117.165 63.6699 116.992 64.0327L116.87 64.2886L116.748 64.5454C116.701 64.6442 116.677 64.7356 116.67 64.8208L116.648 65.0854L116.626 65.3501C116.614 65.4897 116.614 65.6332 116.624 65.7798L116.643 66.0522L116.661 66.3257C116.682 66.6281 116.627 66.9224 116.5 67.1968L116.268 67.6968C116.212 67.8174 116.172 67.9376 116.146 68.0571L116.089 68.3169L116.032 68.5757C116.001 68.7207 115.977 68.8691 115.963 69.02L115.938 69.2886L115.911 69.5562C115.895 69.7217 115.883 69.8905 115.876 70.062L115.864 70.3384L115.853 70.6138C115.842 70.8627 115.797 71.1062 115.718 71.3413L115.546 71.853C115.475 72.0641 115.385 72.2679 115.276 72.4634L115.013 72.938C114.963 73.0277 114.928 73.1262 114.908 73.2349L114.807 73.7817C114.724 74.2295 114.427 74.5352 114.07 74.7095L113.771 74.855L113.575 74.9507V75.436C113.575 75.6421 113.531 75.8615 113.411 76.0649C113.291 76.2699 113.118 76.4174 112.931 76.5161L112.666 76.6548L112.401 76.7944C112.39 76.8005 112.382 76.8058 112.378 76.8091C112.374 76.8117 112.372 76.8134 112.371 76.814C112.371 76.814 112.37 76.8164 112.369 76.8198L112.168 77.3394C112.058 77.6231 111.88 77.8733 111.628 78.062L111.427 78.2134L111.226 78.3638C111.184 78.3952 111.105 78.4516 111.012 78.4937C110.973 78.5112 110.859 78.5595 110.709 78.562C110.52 78.5651 110.22 78.4849 110.058 78.1792C109.94 77.9583 109.976 77.7527 109.985 77.6997C110 77.6208 110.024 77.5567 110.038 77.522C110.068 77.4492 110.108 77.3811 110.139 77.3296L110.438 76.8335C110.478 76.7657 110.491 76.7121 110.492 76.6655L110.506 76.1265C110.511 75.9377 110.519 75.7493 110.531 75.562L110.548 75.2954L110.565 75.0278C110.578 74.8291 110.6 74.6309 110.631 74.4341L110.673 74.1694L110.714 73.9048C110.728 73.8131 110.726 73.7165 110.706 73.6118L110.654 73.3384L110.602 73.0649C110.562 72.8609 110.533 72.6568 110.514 72.4536L110.489 72.1841L110.464 71.9146C110.437 71.6209 110.48 71.3323 110.587 71.0591L110.688 70.8003L110.791 70.5405C110.85 70.3901 110.9 70.2391 110.942 70.0884L111.089 69.563C111.114 69.4717 111.122 69.382 111.113 69.2905L111.087 69.021L111.062 68.7515C111.043 68.5557 111.03 68.3597 111.025 68.1646L111.019 67.897L111.013 67.6294C111.009 67.4974 110.992 67.3633 110.963 67.2271L110.904 66.9575L110.847 66.689C110.787 66.4161 110.783 66.139 110.838 65.8647L110.868 65.7144L110.795 65.6938C110.688 65.6635 110.568 65.6418 110.433 65.6313L110.166 65.6108L109.899 65.5894C109.598 65.566 109.317 65.4673 109.064 65.3091L108.82 65.1558L108.578 65.0034L108.301 65.0659L108.021 65.1284C107.753 65.1882 107.48 65.2003 107.209 65.1567L106.945 65.1147L106.682 65.0718C106.546 65.0499 106.407 65.0396 106.266 65.0405L105.725 65.0444C105.538 65.0457 105.351 65.0444 105.165 65.0405L104.896 65.0347L104.627 65.0288C104.317 65.0224 104.026 64.9342 103.764 64.7788L103.271 64.4878C103.127 64.4025 102.983 64.3254 102.838 64.2583L102.587 64.1421L102.335 64.0269C102.225 63.9762 102.118 63.9432 102.01 63.9263L101.746 63.8853L101.482 63.8433C101.384 63.8279 101.278 63.8279 101.163 63.8462L100.886 63.8901L100.607 63.9341C100.344 63.9759 100.079 63.9728 99.8174 63.9204L99.5557 63.8687L99.2939 63.8159C99.1587 63.7888 99.0208 63.7725 98.8809 63.7681L98.6123 63.7603L98.3438 63.7515C98.1231 63.7445 97.9038 63.7187 97.6885 63.6733L97.4277 63.6177L97.167 63.563C96.9264 63.5123 96.6949 63.4278 96.4746 63.313L96.2256 63.1831L96.0049 63.0679L95.7256 63.1714L95.4375 63.2759C95.0304 63.4246 94.6044 63.3735 94.2461 63.1128L94.0049 62.937L93.834 62.813L93.6182 62.896L93.3291 63.0063C93.0331 63.1194 92.7145 63.1624 92.3906 63.1001L91.8672 62.9985C91.6485 62.9564 91.4337 62.8944 91.2246 62.812L90.9707 62.7114L90.7168 62.6118C90.5704 62.5541 90.4233 62.5037 90.2754 62.4624L90.0166 62.3911L89.7578 62.3188C89.6787 62.2968 89.5945 62.2899 89.5 62.3013L89.2246 62.3345L88.9482 62.3677C88.6983 62.3978 88.4485 62.3924 88.2021 62.3491L87.9395 62.3022L87.6768 62.2563C87.4451 62.2156 87.2191 62.103 87.0479 61.9009C86.8858 61.7094 86.8148 61.4878 86.7861 61.2944L86.7393 60.9741L86.6914 60.6548C86.6653 60.4781 86.6292 60.3284 86.5859 60.2036L86.4062 59.6841C86.3351 59.4785 86.2787 59.2701 86.2393 59.0591L86.1416 58.5317C86.0895 58.252 86.0997 57.9709 86.167 57.6958L86.2344 57.4224L86.3018 57.1479C86.3471 56.963 86.3936 56.7774 86.4414 56.5923L86.5117 56.3188L86.583 56.0444C86.612 55.9318 86.6209 55.8283 86.6143 55.7319L86.5957 55.4653L86.5771 55.1997C86.5654 55.0291 86.5517 54.8582 86.5352 54.688L86.5088 54.4224L86.4834 54.1567C86.4794 54.1163 86.4629 54.0561 86.4053 53.9722L86.2324 53.7202L86.0586 53.4673C85.8802 53.2074 85.7643 52.9102 85.7471 52.5835L85.7197 52.0503C85.7048 51.7663 85.7532 51.4886 85.8516 51.2231L85.9541 50.9468L86.0488 50.689L85.9277 50.4575L85.7939 50.2007C85.6236 49.8741 85.5819 49.5134 85.6797 49.1548L85.7539 48.8804L85.8291 48.606C85.8485 48.5345 85.8474 48.4793 85.835 48.4292L85.7695 48.1665L85.7041 47.9048C85.6719 47.7754 85.6256 47.6443 85.5645 47.5112L85.4463 47.2534L85.3281 46.9966C85.2151 46.7506 85.1369 46.4578 85.1807 46.147L84.9932 46.0913C84.8783 46.057 84.778 46.0421 84.6904 46.0415L84.6318 46.0405L84.625 46.1685C84.6091 46.4292 84.5482 46.6823 84.4473 46.9243L84.3389 47.1831L84.2559 47.3804L84.4014 47.6382L84.5586 47.9175C84.7502 48.2577 84.8148 48.6609 84.6582 49.064L84.5576 49.3237L84.4561 49.5835C84.4029 49.7202 84.3625 49.8562 84.335 49.9907L84.2812 50.2534L84.2275 50.5171C84.2231 50.5388 84.2198 50.5754 84.248 50.644L84.3623 50.9204L84.4756 51.1968C84.6161 51.5384 84.6314 51.909 84.4893 52.2661L84.3857 52.5249L84.2822 52.7847C84.2458 52.8761 84.2309 52.9618 84.2314 53.0444L84.2334 53.312L84.2344 53.5796C84.2359 53.8124 84.2107 54.0434 84.1592 54.271L84.0996 54.5347L84.04 54.7974C83.9949 54.9964 83.9391 55.1942 83.873 55.3901L83.6973 55.9116C83.686 55.945 83.6836 55.9769 83.6973 56.0259L83.8516 56.5728C83.9325 56.8606 83.9451 57.1583 83.8809 57.4536L83.8232 57.7163L83.7666 57.98C83.7167 58.2089 83.6396 58.4324 83.5391 58.6489L83.4199 58.9067L83.3408 59.0757L83.4863 59.312L83.6602 59.5933C83.7519 59.7421 83.8414 59.9384 83.8584 60.1675C83.877 60.4199 83.8026 60.6686 83.6348 60.8706L83.4941 61.0396L83.3545 61.2075C83.0693 61.5501 82.6671 61.638 82.3115 61.5933L82.0449 61.5591L81.7783 61.5259C81.7696 61.5248 81.7419 61.5212 81.6787 61.5562L81.4121 61.7046L81.1455 61.8521C80.8216 62.0315 80.4505 62.0927 80.0732 61.9858L79.54 61.8354C79.4243 61.8027 79.3132 61.7871 79.2051 61.7876L78.9385 61.7896L78.6709 61.7905C78.5775 61.7911 78.4782 61.8075 78.3711 61.8452L78.1045 61.9399L77.8379 62.0337C77.5943 62.1197 77.3424 62.1686 77.0859 62.1753L76.5527 62.189C76.2242 62.1975 75.9179 62.1044 75.6445 61.9458L75.3779 61.7905L75.1885 61.6802L75.0049 61.7798L74.7383 61.9233C74.4433 62.0818 74.1119 62.1553 73.7646 62.104L73.498 62.064L73.2314 62.0249C73.1033 62.0059 72.9754 62.0009 72.8486 62.0093L72.3154 62.0444C72.0085 62.0647 71.7129 62.0023 71.4385 61.8765L71.1719 61.7544L70.9053 61.6313C70.8359 61.5996 70.7894 61.5969 70.7539 61.6011L70.2207 61.6655C70.1288 61.6766 70.0262 61.706 69.9121 61.7612L69.3789 62.019C69.0752 62.1662 68.7398 62.2209 68.3965 62.1528L67.8633 62.0474C67.6559 62.0062 67.4497 61.9511 67.2451 61.8833L66.9785 61.7954L66.7109 61.7065C66.7099 61.7062 66.7088 61.7058 66.708 61.7056C66.7053 61.7063 66.6999 61.7081 66.6924 61.7114L66.4258 61.8306L66.1582 61.9497C65.8865 62.0711 65.5956 62.1323 65.2939 62.1147L64.7607 62.0835C64.4778 62.067 64.2075 61.9888 63.9541 61.8638L63.6875 61.7319L63.5059 61.6421L63.3066 61.7642L63.04 61.9272C62.7225 62.1217 62.3481 62.2044 61.958 62.104L61.4248 61.9673C61.239 61.9194 61.0527 61.8679 60.8672 61.813L60.5996 61.7339L60.3701 61.6655L60.1074 61.8276L59.8408 61.9907C59.5491 62.1699 59.2103 62.2666 58.8467 62.2212L58.3135 62.1548C58.195 62.14 58.0765 62.1397 57.958 62.1548L57.4248 62.2231C57.1166 62.2624 56.8151 62.2159 56.5322 62.1001L56.2656 61.9917L55.999 61.8823C55.9802 61.8746 55.97 61.8737 55.9668 61.8735C55.9648 61.8734 55.9581 61.8725 55.9453 61.8765L55.6787 61.9595L55.4121 62.0415C55.0585 62.151 54.7009 62.12 54.373 61.9702L53.8398 61.7261C53.7411 61.6809 53.6571 61.6643 53.585 61.6626L53.3184 61.6558L53.0518 61.6499C52.8594 61.6454 52.6668 61.6352 52.4746 61.6187L52.208 61.5952L51.9414 61.5728C51.8359 61.5637 51.7287 61.5696 51.6191 61.5933L51.3525 61.6519L51.0859 61.7095C50.9442 61.7402 50.7995 61.7831 50.6533 61.8384L50.1201 62.0396C49.8258 62.1509 49.5146 62.1828 49.2012 62.1226L48.9336 62.0708L48.667 62.02C48.4812 61.9842 48.295 61.9444 48.1094 61.9019L47.8428 61.8413L47.5762 61.7798C47.5647 61.7771 47.5472 61.7734 47.502 61.7944L47.2354 61.9185L46.9688 62.0435C46.6182 62.2068 46.2359 62.2223 45.8711 62.0767L45.3379 61.8638C45.0134 61.7341 44.7347 61.5006 44.583 61.1489L44.4844 60.9194L44.3848 60.689C44.2932 60.4765 44.2306 60.2529 44.1953 60.021L44.1152 59.4917C44.086 59.2996 44.0629 59.1068 44.0469 58.9136L44.0254 58.6479L44.0029 58.3823C43.9734 58.0249 44.0788 57.6948 44.251 57.4097L44.4199 57.1284L44.5654 56.8872L44.4854 56.7124L44.3682 56.4546C44.264 56.2258 44.1917 55.9875 44.1553 55.7417L44.0771 55.2124C44.057 55.0763 44.0249 54.9395 43.9805 54.8022L43.8105 54.2808C43.7402 54.0636 43.6921 53.842 43.666 53.6177L43.6348 53.3521L43.6045 53.0874C43.5667 52.7623 43.6309 52.4497 43.7637 52.1636L43.8926 51.8853L44.0205 51.6079C44.0699 51.5015 44.0862 51.4182 44.0869 51.354L44.0928 50.8188C44.0935 50.7497 44.0796 50.6759 44.042 50.5923L43.9258 50.3345L43.8096 50.0757C43.7289 49.8965 43.6512 49.7166 43.5771 49.5366L43.4707 49.2778L43.3643 49.0181C43.2462 48.7308 43.2063 48.4261 43.251 48.1167L43.3291 47.5757C43.3507 47.4261 43.3618 47.2775 43.3633 47.1313L43.3691 46.5962C43.3707 46.4395 43.3652 46.2828 43.3525 46.1274L43.3311 45.8618L43.3193 45.728L43.2656 45.7017L43.1729 45.6548L43.1299 45.6763L43.1328 45.688L43.1885 45.9604C43.2429 46.2259 43.2487 46.4953 43.2021 46.7622L43.1104 47.2896C43.0637 47.5567 42.9658 47.8091 42.8281 48.0444L42.6787 48.2993L42.5713 48.4829L42.6758 48.7017L42.8086 48.981C42.9032 49.1793 42.9533 49.4108 42.9189 49.6577C42.8848 49.9019 42.7756 50.1072 42.6406 50.27L42.4336 50.52L42.293 50.688L42.3604 50.8472L42.4756 51.1245C42.5823 51.3806 42.6458 51.6492 42.6533 51.9253L42.6602 52.1938L42.668 52.4614C42.6754 52.7369 42.627 53.0063 42.5283 53.2632L42.4287 53.5229L42.3291 53.7817C42.3193 53.8072 42.3162 53.8283 42.3271 53.8677L42.4814 54.4165C42.6118 54.8813 42.4538 55.3022 42.1719 55.6108L41.9453 55.8589L41.8496 55.9624L41.916 56.0737L42.0859 56.356C42.2632 56.651 42.3661 56.9978 42.3115 57.3716L42.2334 57.9009C42.1968 58.1503 42.1221 58.3912 42.0137 58.6216L41.8926 58.8794L41.7715 59.1362C41.7068 59.2735 41.656 59.4101 41.6182 59.5444L41.5449 59.8052L41.4717 60.0669C41.4407 60.1772 41.4422 60.2342 41.4443 60.2515L41.4697 60.4556L41.4951 60.6587C41.5243 60.8937 41.4712 61.159 41.2842 61.3784C41.1171 61.5741 40.9017 61.663 40.7412 61.7065L40.4824 61.7769L40.2236 61.8462C40.0974 61.8804 39.9706 61.9283 39.8438 61.9907L39.3438 62.2368C38.9764 62.4176 38.5865 62.41 38.2314 62.271L37.6533 62.0444C37.573 62.013 37.5352 62.0189 37.5215 62.022L37 62.1411C36.8916 62.1658 36.7814 62.207 36.6689 62.2671L36.4199 62.3999L36.1719 62.5327C35.9041 62.6758 35.6118 62.7497 35.3057 62.7446L34.7627 62.7349C34.6248 62.7325 34.4901 62.7432 34.3584 62.7651L34.0947 62.8091L33.832 62.8521C33.639 62.8843 33.4443 62.9097 33.249 62.9272L32.9834 62.9507L32.7168 62.9751C32.5982 62.9858 32.4811 63.011 32.3652 63.0513L31.8535 63.229C31.6776 63.2902 31.501 63.3493 31.3242 63.4058L30.8105 63.5698C30.6274 63.6283 30.4429 63.6817 30.2578 63.73L29.999 63.7974L29.7393 63.8657C29.5957 63.9032 29.4526 63.9499 29.3105 64.0063L29.0566 64.1079L28.8027 64.2085C28.441 64.3522 28.0703 64.3275 27.7344 64.1938L27.4453 64.0786L27.2021 63.9819L27.0195 64.0981L26.7744 64.2524C26.4354 64.4662 26.0485 64.5155 25.6689 64.4058L25.1006 64.2417C25.0075 64.2148 24.9388 64.215 24.8857 64.2251L24.3623 64.3247C24.1991 64.3559 24.036 64.3911 23.874 64.4302L23.6143 64.4937L23.3535 64.5562C23.1411 64.6074 22.9252 64.6402 22.707 64.6548L22.4395 64.6733L22.1729 64.6909C22.0792 64.6972 21.9861 64.7198 21.8916 64.7612L21.3877 64.9819C21.1721 65.0766 20.9488 65.1465 20.7197 65.1899L20.458 65.2397L20.1953 65.2896C20.0247 65.3219 19.8538 65.355 19.6836 65.3901L19.4229 65.4448L19.1611 65.4985C19.0109 65.5295 18.8612 65.568 18.7129 65.6147L18.1992 65.7769C17.9863 65.844 17.7716 65.8904 17.5566 65.9116L17.3213 65.9341L17.3057 65.9956L17.2471 66.2192L17.4189 66.4702L17.5977 66.73C17.7961 67.0197 17.9072 67.3655 17.8633 67.7427L17.8008 68.2778C17.7821 68.4381 17.7699 68.5987 17.7637 68.7583L17.7529 69.0259L17.7432 69.2935C17.7351 69.5014 17.7136 69.7102 17.6797 69.9185L17.5918 70.4595C17.5746 70.5651 17.5746 70.6661 17.5908 70.7642L17.6348 71.0278L17.6787 71.2925C17.7096 71.4785 17.7369 71.6654 17.7598 71.8521L17.792 72.1167L17.8242 72.3823C17.8484 72.5796 17.8643 72.7782 17.8711 72.9771L17.8809 73.2437L17.8896 73.5112C17.8957 73.6865 17.9022 73.8623 17.9102 74.0376L17.9229 74.3052L17.9346 74.5728C17.9399 74.689 17.9611 74.8041 17.9971 74.9194L18.0771 75.1792L18.1582 75.438C18.2133 75.6145 18.2666 75.7912 18.3184 75.9673L18.3945 76.2261L18.4707 76.4839C18.5401 76.7196 18.5756 76.9619 18.5771 77.2075L18.5791 77.4771L18.5811 77.7456C18.5814 77.8057 18.5791 77.9023 18.5576 78.0024C18.5473 78.0503 18.5232 78.1458 18.4619 78.2476C18.3984 78.3528 18.2497 78.5338 17.9805 78.5884C17.7198 78.641 17.52 78.5388 17.4307 78.48C17.3389 78.4195 17.2789 78.3506 17.249 78.314C17.1869 78.2376 17.1414 78.1563 17.1133 78.1021L16.9873 77.8579L16.8613 77.6147C16.8341 77.5621 16.7989 77.5226 16.7471 77.4888L16.5156 77.3384L16.2842 77.187C15.9892 76.9947 15.7825 76.7177 15.6807 76.3813L15.5996 76.1157L15.5195 75.8511C15.5013 75.7908 15.4732 75.746 15.4316 75.7065L15.2334 75.5181L15.0352 75.3306C14.8649 75.1691 14.7143 74.9906 14.585 74.7964L14.4365 74.5728L14.2871 74.3491C14.1956 74.2118 14.0988 74.0746 13.9961 73.938L13.8301 73.7173L13.6631 73.4966C13.4998 73.2795 13.3801 73.0377 13.3076 72.7759L13.2354 72.5151L13.1631 72.2534C13.0992 72.0227 13.0639 71.7857 13.0566 71.5444L13.0488 71.2651L13.04 70.9858C13.0393 70.9638 13.0356 70.9447 13.0078 70.9106L12.6387 70.4595C12.4474 70.2255 12.3144 69.9548 12.2559 69.6538L12.1523 69.1245C12.1201 68.9588 12.0838 68.793 12.0439 68.6294L11.917 68.106C11.8486 67.8247 11.8466 67.5386 11.9023 67.2563L11.958 66.9741L12.0137 66.6929C12.0382 66.5687 12.0425 66.4569 12.0322 66.356L12.0059 66.0913L11.9785 65.8257C11.9728 65.771 11.9527 65.7037 11.8994 65.6196L11.7412 65.3696L11.582 65.1187C11.3469 64.7474 11.3213 64.3223 11.4912 63.9272L11.7314 63.3687C11.7855 63.2429 11.8122 63.1344 11.8203 63.0415L11.8438 62.7749L11.8662 62.5073C11.8801 62.3481 11.8875 62.1895 11.8887 62.0327L11.8906 61.769L11.8926 61.5044C11.8931 61.4242 11.8789 61.3363 11.8408 61.2378L11.7383 60.9741L11.6357 60.7095C11.5501 60.4878 11.5044 60.2567 11.5 60.02L11.1426 60.0024C10.6992 59.9798 10.2996 60.1681 10.0459 60.5483L9.88184 60.7944L9.71875 61.0405C9.60985 61.2039 9.50464 61.36 9.40527 61.5083L9.25586 61.7319L9.10645 61.9546C9.097 61.9687 9.08003 61.9849 9.03711 62.0044L9.0498 61.9399C9.06451 61.8621 9.06311 61.7854 9.04395 61.7046L8.98047 61.438L8.91699 61.1704C8.83518 60.8263 8.87873 60.4855 9.02246 60.1743L9.14648 59.9077L9.26953 59.6411C9.2928 59.5906 9.28957 59.5661 9.28613 59.5493L9.17676 59.0161C9.12868 58.7829 9.10849 58.5467 9.11816 58.3101L9.13965 57.7769C9.14539 57.6361 9.1411 57.4944 9.125 57.353L9.09375 57.0864L9.06348 56.8198C9.02954 56.5216 9.07154 56.2288 9.17773 55.9517L9.38281 55.4185C9.3824 55.4175 9.38139 55.4157 9.38086 55.4146L9.26953 55.1479L9.15723 54.8813C9.05843 54.6463 8.99215 54.4026 8.96387 54.1528L8.93359 53.8862L8.90332 53.6187C8.86094 53.2413 8.97527 52.8965 9.16992 52.6079L9.35059 52.3413L9.52441 52.0845L9.46094 51.8706L9.38281 51.604C9.3236 51.4013 9.27512 51.1961 9.23926 50.9907L9.19336 50.7222L9.14648 50.4536C9.08724 50.1137 9.14451 49.7828 9.2959 49.4829L9.42676 49.2231L9.55762 48.9644C9.55962 48.9603 9.56077 48.9566 9.56152 48.9546L9.56055 48.9526L9.39844 48.4038C9.33317 48.1828 9.2871 47.9584 9.26172 47.7329L9.23047 47.4585L9.2002 47.1841C9.16599 46.8794 9.20968 46.5795 9.3291 46.2974L9.4375 46.0415L9.54492 45.7866C9.62504 45.5974 9.71456 45.411 9.81152 45.228L9.94238 44.98L10.0742 44.7319C10.0919 44.6984 10.097 44.6712 10.0918 44.6313L10.0176 44.0728C9.9658 43.6804 10.0816 43.3158 10.3242 43.02L10.5127 42.7905L10.6719 42.5962L10.6191 42.3481L10.5566 42.0571C10.4755 41.6754 10.5476 41.2919 10.7871 40.9673L10.9551 40.7397L11.124 40.5112C11.1458 40.4817 11.1516 40.4611 11.1514 40.4302L11.1484 40.1499L11.1465 39.8687C11.1438 39.5287 11.2461 39.2092 11.4492 38.9351L11.7812 38.4878C11.8633 38.377 11.9298 38.2643 11.9814 38.1509L12.0908 37.9087L12.2012 37.6675C12.2792 37.4959 12.3621 37.326 12.4482 37.1587L12.5693 36.9224L12.6904 36.687C12.7344 36.6015 12.7661 36.5056 12.7822 36.3979L12.8223 36.1255L12.8633 35.854C12.9126 35.5254 13.0583 35.2325 13.2871 34.9937L13.4795 34.7915L13.6729 34.5903C13.6894 34.5729 13.6975 34.5588 13.7012 34.5239L13.7314 34.2407L13.7607 33.9575C13.7993 33.591 13.9657 33.2684 14.2451 33.0259L14.459 32.8413L14.6719 32.6558C14.7578 32.5811 14.8206 32.5035 14.8652 32.4253L14.9961 32.1958L15.127 31.9673C15.14 31.9442 15.1614 31.8911 15.1602 31.7817L15.1562 31.4653L15.1523 31.1479C15.1485 30.8224 15.2228 30.498 15.4092 30.2104L15.7021 29.7593C15.899 29.456 16.186 29.2579 16.502 29.1411L16.8047 29.0288L17.1084 28.9175C17.1128 28.9158 17.1168 28.913 17.1201 28.9116L17.2119 28.6948L17.3164 28.4429C17.3828 28.2832 17.4475 28.1186 17.5098 27.9517L17.7051 27.4263C17.8347 27.0793 18.0796 26.8139 18.4033 26.6479L18.6611 26.5161L18.918 26.3833C18.9271 26.3786 18.9334 26.3749 18.9365 26.3726C18.939 26.3707 18.9409 26.3692 18.9414 26.3687C18.9418 26.3681 18.9426 26.3669 18.9434 26.3657C18.9444 26.364 18.9467 26.3601 18.9492 26.354L19.0566 26.0933L19.1631 25.8325C19.3054 25.4855 19.563 25.2259 19.9004 25.0747L20.4277 24.8384C20.4471 24.8297 20.4549 24.8229 20.4561 24.8218C20.4576 24.8202 20.4617 24.8155 20.4668 24.8052L20.5898 24.5542L20.7129 24.3022C20.7946 24.1354 20.8771 23.9659 20.96 23.7954L21.085 23.5386L21.209 23.2817C21.3385 23.0153 21.523 22.785 21.7617 22.605L21.9775 22.4419L22.1934 22.2798C22.3375 22.1711 22.4823 22.0626 22.626 21.9546L23.0557 21.6304C23.2733 21.4669 23.518 21.3496 23.7803 21.2739L24.0586 21.1938L24.3379 21.1128C24.4206 21.0888 24.4727 21.056 24.5098 21.02L24.7021 20.8335L24.8936 20.647C25.0956 20.4509 25.3328 20.3045 25.5967 20.2085L25.8555 20.1138L26.0977 20.0259C26.0998 20.0223 26.1035 20.0175 26.1064 20.0112L26.3701 19.4546C26.5169 19.1453 26.7486 18.8834 27.0752 18.7241L27.3174 18.606L27.5605 18.4878C27.7753 18.3832 28.002 18.3057 28.2383 18.2544L28.7891 18.1353C28.8898 18.1134 28.9711 18.0774 29.0391 18.0317L29.2598 17.8833L29.4795 17.7349C29.5957 17.6567 29.709 17.5676 29.8184 17.4673L30.0215 17.2817L30.2236 17.0962C30.358 16.9729 30.4936 16.8479 30.6299 16.7222L31.04 16.3433C31.2925 16.1104 31.6011 15.9745 31.9404 15.9409L32.2236 15.9136L32.5059 15.8853C32.6476 15.8712 32.7784 15.8443 32.8984 15.8062L33.1533 15.7251L33.4092 15.644C33.5113 15.6115 33.6086 15.5637 33.7021 15.4995L34.1533 15.1909C34.3734 15.0401 34.6149 14.9307 34.874 14.8677L35.1348 14.8042L35.3965 14.7407C35.607 14.6895 35.8222 14.6545 36.04 14.6362L36.585 14.5913L36.5869 14.5903C36.5906 14.5882 36.6025 14.5811 36.6201 14.563L36.832 14.3452L37.0439 14.1265L37.1611 14.019C37.2859 13.9182 37.4338 13.838 37.6035 13.7925C37.7726 13.7472 37.9396 13.7426 38.0967 13.7661L38.251 13.7983L38.5498 13.8794L38.7705 13.939L38.9287 13.7935L39.1523 13.5874C39.4457 13.3176 39.8232 13.1831 40.2363 13.2397L40.5195 13.2788L40.8018 13.3179C40.9337 13.336 41.0544 13.3363 41.165 13.3228L41.6924 13.2583C41.7808 13.2475 41.8727 13.2206 41.9688 13.1714L42.2178 13.0435L42.4678 12.9155C42.665 12.8146 42.8679 12.7298 43.0752 12.6606L43.334 12.5737L43.5928 12.4878C43.9741 12.3608 44.3525 12.4185 44.6807 12.5835L45.2471 12.8687C45.2777 12.884 45.2964 12.8889 45.3027 12.8901L45.5576 12.8247L45.8184 12.7593C46.0207 12.7079 46.2254 12.6693 46.4316 12.644L46.6963 12.6108L46.9609 12.5786C47.1756 12.5523 47.3923 12.5443 47.6084 12.5532L47.874 12.564L48.1406 12.5747H48.2979L48.3721 12.5503L48.4795 12.5142L48.6309 12.4771C48.7866 12.4485 48.9508 12.4451 49.085 12.4468L49.3516 12.4507L49.6182 12.4536C49.7425 12.4551 49.8684 12.4434 49.9961 12.4165L50.2627 12.3599L50.5293 12.3042C50.8992 12.2264 51.2542 12.3028 51.5625 12.479L52.0957 12.7837C52.1093 12.7914 52.1199 12.796 52.126 12.7983C52.1283 12.7992 52.1306 12.7999 52.1318 12.8003L52.3936 12.7437L52.6602 12.687C52.8694 12.6423 53.0808 12.6123 53.292 12.5972L53.5586 12.5776L53.8252 12.5591C54.0304 12.5444 54.2361 12.541 54.4414 12.5503L54.708 12.563L54.9746 12.5747C55.1071 12.5807 55.2403 12.5745 55.374 12.5552L55.6406 12.5161L55.9072 12.478C56.0931 12.4512 56.2799 12.4279 56.4658 12.4077L56.999 12.3491C57.2502 12.3219 57.5019 12.3343 57.75 12.3843L58.2832 12.4917C58.4254 12.5203 58.5669 12.5372 58.707 12.5435L58.9746 12.5552L59.2412 12.5669C59.3705 12.5726 59.5009 12.5661 59.6318 12.5454L59.8984 12.5034L60.165 12.4604C60.3983 12.4236 60.6334 12.4154 60.8682 12.4351L61.1357 12.4575L61.4023 12.48C61.5583 12.493 61.7144 12.4988 61.8701 12.4976L62.1367 12.4956L62.4033 12.4927C62.5272 12.4917 62.6533 12.4775 62.7812 12.4478L63.0479 12.3853L63.3145 12.3237C63.5609 12.2664 63.8119 12.2459 64.0635 12.2651L64.5967 12.3062C64.7571 12.3184 64.9178 12.3242 65.0781 12.3247L65.6113 12.3267C65.8263 12.3274 66.0413 12.3451 66.2549 12.3794L66.5215 12.4224L66.7891 12.4653C66.9905 12.4977 67.1916 12.5411 67.3916 12.5942L67.6582 12.6646L67.9121 12.7329C67.9163 12.7312 67.9228 12.7285 67.9307 12.7241L68.4639 12.4272L68.6006 12.3608C68.8775 12.2431 69.1779 12.2204 69.4736 12.3081L69.6211 12.3608L69.8877 12.4741L70.1406 12.5835L70.3945 12.4731L70.6611 12.3579L70.7988 12.3071Z" fill="#303A4B"/>
</svg>
