<svg width="128" height="128" viewBox="0 0 128 128" fill="none" xmlns="http://www.w3.org/2000/svg">
<path d="M66.3833 6.14551C66.7511 6.14652 67.0777 6.28342 67.3462 6.50391L67.5854 6.7002L67.7515 6.83789L67.9741 6.75684L68.2759 6.64844L68.4272 6.60254C68.733 6.52874 69.0525 6.56041 69.3403 6.72754L69.4819 6.82227L69.939 7.17578C70.0567 7.26662 70.173 7.33876 70.2866 7.39453L70.5269 7.5127L70.7661 7.63086C70.9508 7.7215 71.1301 7.82235 71.3022 7.93359L71.5249 8.07715L71.7485 8.22168C71.82 8.26776 71.9035 8.30381 72.0054 8.3252L72.2798 8.38281L72.5542 8.43945C72.9182 8.51598 73.2202 8.72052 73.4282 9.02734L73.7446 9.49414C73.8322 9.62323 73.9222 9.7382 74.0142 9.83887L74.1899 10.0303L74.3657 10.2227C74.4078 10.2687 74.4692 10.3154 74.564 10.3564L75.0952 10.5869C75.3892 10.7144 75.6396 10.9143 75.8198 11.1885L75.9683 11.4141L76.1157 11.6396C76.241 11.8304 76.3465 12.0328 76.4302 12.2451L76.5288 12.4951L76.6274 12.7461C76.7044 12.9413 76.768 13.1406 76.8188 13.3428L76.8843 13.6016L76.9487 13.8594C76.9605 13.9058 76.986 13.9587 77.0425 14.0195L77.2388 14.2305L77.4351 14.4424C77.7346 14.7652 77.8322 15.18 77.7319 15.5957L77.6616 15.8857L77.5923 16.1758C77.5737 16.253 77.5823 16.2918 77.5894 16.3115L77.6782 16.5605L77.7661 16.8096C77.8219 16.9664 77.8834 17.1267 77.9487 17.29L78.0513 17.5479L78.1548 17.8057C78.2791 18.1166 78.3011 18.4463 78.2173 18.7715L78.1479 19.0391L78.0796 19.3057C78.0592 19.3849 78.0568 19.4601 78.0708 19.5381L78.1187 19.8076L78.1675 20.0771C78.2262 20.404 78.1818 20.7276 78.0415 21.0264L77.9233 21.2773L77.8052 21.5293V21.5371C77.806 21.5429 77.808 21.5529 77.812 21.5664L77.9858 22.1484C78.1002 22.5311 78.0566 22.932 77.8198 23.2793L77.4995 23.748C77.4525 23.817 77.4283 23.8839 77.4185 23.9541L77.3882 24.167C77.4448 24.1902 77.5034 24.2133 77.5601 24.2383L78.0933 24.4746C78.1034 24.479 78.1109 24.4805 78.1147 24.4814C78.1184 24.4824 78.1205 24.4834 78.1206 24.4834H78.1216C78.1227 24.4832 78.1255 24.482 78.1304 24.4805L78.6636 24.3164C78.9175 24.2384 79.1791 24.2049 79.4438 24.2188L79.9771 24.2461C80.1932 24.2574 80.4084 24.2861 80.6206 24.332L80.8833 24.3896L81.147 24.4463C81.2093 24.4597 81.2754 24.4596 81.354 24.4395L81.6265 24.3701L81.8979 24.2998C82.2051 24.2211 82.5191 24.2282 82.8237 24.3262L83.0835 24.4092L83.3433 24.4932C83.3774 24.5041 83.4162 24.5077 83.4771 24.4912L83.7563 24.416L84.0347 24.3408C84.3165 24.2646 84.6065 24.2484 84.896 24.3037L85.1597 24.3545L85.4243 24.4043C85.6894 24.455 85.9386 24.5552 86.1694 24.6963L86.4146 24.8457L86.6587 24.9961C86.8007 25.083 86.942 25.1589 87.0815 25.2246L87.3276 25.3408L87.522 25.4316C87.5244 25.4306 87.5271 25.4299 87.5298 25.4287L87.8364 25.29L88.1431 25.1504C88.469 25.0022 88.8479 24.962 89.2075 25.124L89.3608 25.2061L89.5991 25.3564L89.8364 25.5059C89.8918 25.5406 89.9433 25.5553 90.0005 25.5576L90.2759 25.5693L90.5522 25.5801C90.8096 25.5904 91.0606 25.6395 91.3013 25.7295L91.5532 25.8242L91.8062 25.918C92.0142 25.9958 92.2147 26.093 92.4067 26.207L92.6411 26.3457L92.8755 26.4854C93.0484 26.588 93.2184 26.6976 93.3833 26.8145L93.6069 26.9736L93.8315 27.1328C93.9545 27.2199 94.0798 27.2959 94.2065 27.3613L94.6792 27.6055C94.7831 27.6591 94.894 27.6999 95.0132 27.7275L95.5405 27.8506C95.8042 27.9118 96.0501 28.0207 96.272 28.1758L96.4927 28.3291L96.7124 28.4834C96.8578 28.585 97.0032 28.6866 97.1479 28.7861L97.3677 28.9365L97.5874 29.0879C97.6713 29.1455 97.7642 29.1899 97.8677 29.2207L98.1274 29.2979L98.3882 29.375C98.6372 29.4491 98.8686 29.5633 99.0786 29.7158L99.2944 29.8721L99.5103 30.0293C99.6168 30.1067 99.7306 30.1733 99.8511 30.2295L100.094 30.3428L100.336 30.4561C100.482 30.524 100.633 30.5877 100.788 30.6465L101.043 30.7432L101.299 30.8408C101.649 30.9738 101.908 31.2243 102.072 31.541L102.209 31.8066L102.346 32.0723C102.375 32.1286 102.398 32.1391 102.407 32.1436L102.891 32.3799C103.071 32.4677 103.247 32.5631 103.418 32.666L103.649 32.8047L103.878 32.9434C104.059 33.0519 104.231 33.1723 104.394 33.3037L104.81 33.6377C105.011 33.7995 105.181 33.9923 105.32 34.2109L105.468 34.4443L105.616 34.6777C105.66 34.7469 105.711 34.7979 105.772 34.8369L106 34.9814L106.227 35.127C106.378 35.223 106.531 35.3193 106.684 35.416L106.915 35.5615L107.145 35.708C107.301 35.8064 107.457 35.9059 107.614 36.0068L107.845 36.1562L108.078 36.3057C108.286 36.4405 108.474 36.6016 108.636 36.7881L108.99 37.1943C109.142 37.3695 109.276 37.5611 109.387 37.7666L109.518 38.0068L109.649 38.248C109.711 38.3628 109.783 38.4667 109.865 38.5596L110.042 38.7607L110.219 38.9609C110.373 39.1354 110.506 39.3262 110.617 39.5312L110.746 39.7695L110.875 40.0068C110.939 40.1262 111.014 40.2374 111.098 40.3398L111.267 40.5469L111.436 40.7529C111.628 40.9869 111.75 41.2586 111.81 41.5508L111.868 41.833L111.905 42.0166L112.159 42.1152L112.466 42.2344C112.779 42.3559 113.064 42.5554 113.259 42.8584L113.406 43.0859L113.551 43.3125C113.678 43.5091 113.781 43.7186 113.861 43.9395L113.953 44.1973L114.045 44.4541C114.131 44.6913 114.18 44.9393 114.198 45.1943L114.217 45.4854L114.235 45.751L114.452 45.9189L114.685 46.1006C114.93 46.2915 115.125 46.5357 115.243 46.832L115.341 47.082L115.44 47.3311C115.543 47.5914 115.589 47.8659 115.584 48.1455L115.575 48.7295C115.575 48.7406 115.576 48.7487 115.577 48.7529C115.577 48.7569 115.577 48.7594 115.578 48.7598L115.579 48.7617C115.579 48.763 115.581 48.7658 115.584 48.7695L115.764 48.9844L115.944 49.2002C116.157 49.4556 116.282 49.7595 116.307 50.0928L116.328 50.3682L116.349 50.6445C116.352 50.6875 116.364 50.7232 116.396 50.7646L116.568 50.9883L116.739 51.2119C116.948 51.4852 117.058 51.8065 117.055 52.1523L117.051 52.7109C117.051 52.7614 117.062 52.8006 117.088 52.8428L117.236 53.0781L117.384 53.3145C117.563 53.599 117.643 53.92 117.621 54.2549L117.602 54.5332L117.583 54.8115C117.573 54.9526 117.578 55.0867 117.594 55.2139L117.628 55.4785L117.664 55.7422C117.671 55.8012 117.693 55.8678 117.745 55.9453L117.905 56.1855L118.064 56.4268C118.256 56.7161 118.347 57.0498 118.313 57.4033L118.26 57.9521C118.244 58.1211 118.233 58.288 118.227 58.4521L118.218 58.7207L118.208 58.9893C118.205 59.0873 118.218 59.1832 118.248 59.2793L118.329 59.5381L118.41 59.7959C118.477 60.0129 118.523 60.2351 118.545 60.46L118.6 60.9893C118.601 60.9941 118.601 60.999 118.602 61.0039C118.352 60.8195 118.067 60.7158 117.763 60.6855L117.175 60.627C117.052 60.6147 116.964 60.5873 116.901 60.5557L116.673 60.4414L116.446 60.3262C116.342 60.2739 116.232 60.2045 116.118 60.1143L115.896 59.9385L115.673 59.7627C115.465 59.5982 115.235 59.4699 114.986 59.3809L114.722 59.2871L114.458 59.1924C114.246 59.1165 114.03 59.0945 113.819 59.1201C113.886 59.3148 113.912 59.5206 113.896 59.7314L113.874 60.0195L113.854 60.2568L114.048 60.4414L114.268 60.6504C114.476 60.8484 114.646 61.0801 114.757 61.3467L114.861 61.5938L114.963 61.8408C115.112 62.196 115.094 62.5629 114.986 62.8945L114.883 63.208L114.782 63.5205C114.676 63.8462 114.488 64.1399 114.198 64.3535L113.743 64.6895C113.703 64.7189 113.689 64.7423 113.68 64.7676L113.594 65.0234L113.507 65.2783C113.426 65.5182 113.309 65.7417 113.159 65.9453L112.999 66.1631L112.837 66.3799C112.745 66.5052 112.658 66.636 112.578 66.7705L112.3 67.2354C112.292 67.2493 112.281 67.2706 112.287 67.3262L112.315 67.6182L112.343 67.9092C112.378 68.2754 112.284 68.628 112.057 68.9258L111.885 69.1514L111.733 69.3496L111.782 69.6074L111.835 69.8916C111.92 70.3356 111.767 70.7348 111.478 71.0332L111.254 71.2637L111.053 71.4697L111.085 71.6738L111.127 71.9502C111.175 72.2611 111.139 72.5691 111.022 72.8604L110.917 73.1221L110.815 73.377C110.815 73.3785 110.816 73.3808 110.817 73.3828L111.04 73.9258C111.148 74.1903 111.205 74.4698 111.195 74.7578L111.175 75.2891C111.17 75.4524 111.169 75.6167 111.172 75.7803L111.178 76.0459L111.184 76.3125C111.189 76.5352 111.173 76.7596 111.136 76.9834L111.092 77.2568L111.047 77.5312C111.036 77.5995 111.042 77.6583 111.062 77.7168L111.242 78.2324C111.339 78.5117 111.366 78.8029 111.329 79.0947L111.292 79.375L111.266 79.5742L111.472 79.7686L111.707 79.9893C111.98 80.2465 112.165 80.5923 112.163 81.0068L112.161 81.2822L112.16 81.5566C112.159 81.651 112.175 81.7347 112.206 81.8115L112.305 82.0586L112.404 82.3066C112.516 82.588 112.551 82.8842 112.523 83.1807L112.495 83.4756L112.466 83.7715C112.461 83.8313 112.472 83.8554 112.481 83.8711L112.621 84.1055L112.759 84.3408C112.876 84.5369 112.972 84.7429 113.047 84.957L113.137 85.2119L113.228 85.4668C113.251 85.5331 113.289 85.5954 113.35 85.6572L113.549 85.8574L113.748 86.0576C113.833 86.1438 113.935 86.2587 114.008 86.3955C114.072 86.5143 114.2 86.8152 114.043 87.1514L114.001 87.2422L113.958 87.333C113.77 87.7368 113.375 87.7935 113.186 87.7842C113.01 87.7754 112.851 87.7159 112.747 87.6709L112.256 87.46C112.152 87.4149 112.041 87.3833 111.922 87.3662L111.654 87.3271L111.385 87.2891C111.209 87.2636 111.03 87.2382 110.847 87.2139L110.291 87.1396C109.951 87.0944 109.649 86.9455 109.406 86.7051L109.206 86.5068L109.004 86.3086C108.902 86.2074 108.797 86.1223 108.69 86.0518L108.467 85.9053L108.245 85.7578C108.114 85.672 107.979 85.5919 107.84 85.5176L107.603 85.3916L107.367 85.2646C107.104 85.1244 106.888 84.9265 106.721 84.6826L106.407 84.2236C106.324 84.1024 106.236 83.9949 106.144 83.9004L105.961 83.7119L105.779 83.5244C105.691 83.4343 105.593 83.3522 105.484 83.2783L105.041 82.9775C104.885 82.8721 104.73 82.7619 104.576 82.6484L104.355 82.4863L104.133 82.3242C103.929 82.1744 103.751 81.997 103.601 81.7939L103.281 81.3604C103.131 81.1568 103.015 80.9332 102.932 80.6934L102.754 80.1758C102.706 80.034 102.648 79.9 102.583 79.7734L102.463 79.5371L102.342 79.3008C102.286 79.1913 102.216 79.0833 102.129 78.9775L101.953 78.7617L101.776 78.5469C101.554 78.276 101.438 77.952 101.436 77.6035L101.432 77.041C101.432 77.026 101.431 77.0123 101.405 76.9805L101.216 76.7529L101.028 76.5244C100.816 76.2687 100.683 75.964 100.658 75.623L100.617 75.0781C100.595 74.7815 100.645 74.4912 100.75 74.2158L100.859 73.9346L100.966 73.6523C100.996 73.574 100.993 73.532 100.989 73.5107L100.934 73.252L100.88 72.9922C100.854 72.8643 100.812 72.7298 100.755 72.5889L100.648 72.3232L100.541 72.0566C100.429 71.7806 100.381 71.4882 100.41 71.1885L100.46 70.6514C100.476 70.4933 100.484 70.3339 100.486 70.1738L100.488 69.9023L100.491 69.6318C100.493 69.3436 100.56 69.0659 100.683 68.8066L100.925 68.2969C100.978 68.1858 101.011 68.0769 101.028 67.9707L101.069 67.7051L101.111 67.4395C101.124 67.3529 101.122 67.2639 101.101 67.1689L100.98 66.6299C100.91 66.3178 100.93 66.0039 101.034 65.7041L101.126 65.4355L101.208 65.1992L101.071 64.958L100.924 64.6982C100.791 64.4613 100.696 64.2081 100.653 63.9414L100.611 63.6807L100.569 63.4209C100.544 63.2652 100.513 63.1109 100.476 62.959L100.415 62.7041L100.353 62.4502C100.309 62.2691 100.27 62.0864 100.236 61.9033L100.187 61.6455L100.139 61.3887C100.108 61.2241 100.074 61.0592 100.039 60.8965L99.9829 60.6426L99.9272 60.3877C99.8725 60.1377 99.8619 59.8801 99.8862 59.6211L99.9136 59.3291L99.9409 59.0361C99.9463 58.9786 99.9354 58.957 99.9272 58.9434L99.7886 58.7109L99.6489 58.4785C99.5889 58.3784 99.5161 58.2859 99.4282 58.2012L99.229 58.0098L99.0308 57.8193C98.7842 57.5817 98.6339 57.2838 98.5737 56.9551L98.521 56.666L98.4741 56.4111L98.2681 56.292L98.022 56.1494C97.7748 56.0061 97.5639 55.817 97.397 55.584L97.0786 55.1406C97.0231 55.0632 96.9591 55.0009 96.8833 54.9512L96.4321 54.6562C96.3061 54.5736 96.1757 54.4986 96.0405 54.4316L95.8003 54.3125C95.9426 54.5281 96.0311 54.7734 96.0503 55.042L96.0894 55.5928C96.1096 55.8784 96.0682 56.1599 95.9761 56.4307L95.8794 56.7148L95.811 56.9141L95.9663 57.1104L96.1636 57.3604C96.4086 57.6696 96.5332 58.0635 96.4302 58.4893L96.2993 59.0283C96.266 59.1657 96.2472 59.3013 96.2407 59.4346L96.2271 59.7041L96.2144 59.9736C96.2031 60.2056 96.1661 60.4343 96.104 60.6582L96.0317 60.9189L95.9595 61.1787C95.8943 61.4138 95.7979 61.6376 95.6724 61.8467L95.5337 62.0771L95.395 62.3086C95.2727 62.5123 95.0762 62.7666 94.7661 62.8926L94.6177 62.9531L94.4702 63.0127C94.1952 63.1243 93.8917 63.0884 93.6499 62.915C93.4576 62.777 93.3535 62.5873 93.2964 62.4609L93.0737 61.9688C93.0411 61.8966 92.9961 61.8364 92.936 61.7832L92.7339 61.6035L92.5317 61.4248C92.344 61.2584 92.1838 61.0666 92.0522 60.8525L91.9097 60.6201L91.7661 60.3877C91.6843 60.2545 91.5954 60.1247 91.4985 59.999L91.3296 59.7803L91.1616 59.5625C91.1354 59.5285 91.104 59.5037 91.0503 59.4844L90.5151 59.293C90.2377 59.1936 89.991 59.0367 89.7856 58.8232L89.5952 58.626L89.4058 58.4287C89.303 58.3219 89.1938 58.223 89.0776 58.1328L88.6479 57.7988C88.5973 57.7595 88.5378 57.7323 88.4604 57.7178L88.1841 57.666L87.9067 57.6143C87.6937 57.5744 87.4861 57.5218 87.2856 57.457L87.0308 57.375L86.7759 57.292C86.4662 57.1919 86.2082 57.0067 86.0034 56.7666L85.8091 56.5381L85.6147 56.3105C85.6134 56.3089 85.612 56.3069 85.6108 56.3057L85.3462 56.2861L85.0669 56.2646C84.9293 56.2539 84.7846 56.2564 84.6333 56.2744L84.0474 56.3447C83.7216 56.3835 83.3953 56.3326 83.0962 56.1719L82.8599 56.0449L82.6226 55.917C82.4139 55.8049 82.2173 55.667 82.0327 55.5068L81.5874 55.1201C81.5336 55.0734 81.4961 55.0624 81.4683 55.0586L80.9331 54.9863C80.7232 54.9582 80.5162 54.9164 80.313 54.8604L79.7974 54.7178C79.7193 54.6962 79.6322 54.6893 79.5308 54.7012L79.2495 54.7334L78.9683 54.7666C78.5762 54.8127 78.2145 54.6941 77.9204 54.4531L77.688 54.2627L77.5679 54.1641L77.3745 54.2559L77.0747 54.3955C76.6806 54.5792 76.2242 54.5845 75.8257 54.3047L75.5864 54.1357L75.3472 53.9678C75.2761 53.9179 75.2192 53.8999 75.1714 53.8945L74.9058 53.8652L74.6401 53.835C74.3688 53.8046 74.1103 53.7223 73.8696 53.5938L73.6226 53.4609L73.3745 53.3291C73.2788 53.2779 73.1868 53.2481 73.0972 53.2354L72.8335 53.1982L72.5688 53.1602C72.4221 53.1393 72.2726 53.1276 72.1216 53.125L71.8521 53.1201L71.5815 53.1162C71.4395 53.1137 71.2932 53.1219 71.144 53.1426L70.8677 53.1816L70.5913 53.2197C70.2742 53.2636 69.9614 53.218 69.6694 53.084L69.4185 52.9688L69.1665 52.8535C69.1275 52.8357 69.0904 52.8293 69.0386 52.8369L68.7603 52.8789L68.481 52.9199C68.0629 52.9821 67.6858 52.8433 67.3921 52.5811L67.1597 52.374L66.9282 52.167C66.9042 52.1456 66.8897 52.1383 66.8862 52.1367L66.6206 52.1348L66.3491 52.1318C66.1065 52.1292 65.8679 52.0944 65.6353 52.0283L65.3784 51.9561L65.1216 51.8828C64.976 51.8415 64.8289 51.8087 64.6812 51.7842L64.4194 51.7402L64.1577 51.6973C64.0049 51.6719 63.8487 51.6532 63.6909 51.6416L63.1538 51.6025C62.9319 51.5862 62.7132 51.5493 62.4985 51.4932L62.2397 51.4258L61.981 51.3574C61.7703 51.3023 61.5645 51.2299 61.3657 51.1406L60.8774 50.9219C60.7013 50.8428 60.5279 50.7583 60.3579 50.6689L60.1226 50.5449L59.8872 50.4219C59.7499 50.3497 59.6111 50.2848 59.4712 50.2275L59.229 50.1279L58.9878 50.0293C58.869 49.9807 58.7407 49.9423 58.604 49.9141L58.3374 49.8584L58.0708 49.8037C57.8463 49.7574 57.628 49.6888 57.4175 49.5986L56.9175 49.3838C56.7218 49.2999 56.531 49.2035 56.3462 49.0938L56.1079 48.9521L55.8706 48.8115C55.5932 48.6468 55.378 48.4133 55.2329 48.1279L55.105 47.875L54.9761 47.623C54.9143 47.5016 54.8434 47.3945 54.7642 47.3008L54.5894 47.0938L54.4136 46.8867C54.27 46.717 54.173 46.5255 54.1206 46.3213C54.0996 46.3339 54.0787 46.3476 54.0571 46.3594L53.7847 46.5078L53.5112 46.6562C53.4282 46.7015 53.4071 46.7365 53.4019 46.7461L53.2778 46.9736L53.1548 47.2021C53.0443 47.4067 52.9093 47.5958 52.7515 47.7666L52.5757 47.957L52.3989 48.1484C52.3386 48.2137 52.2819 48.2979 52.2329 48.4072L52.1167 48.667L51.9995 48.9268C51.8364 49.2913 51.5415 49.5471 51.1626 49.6611L50.6099 49.8271C50.6072 49.828 50.6046 49.8285 50.603 49.8291C50.6024 49.8301 50.6019 49.8324 50.6011 49.834L50.314 50.332C50.1991 50.5311 50.0686 50.7185 49.9243 50.8936L49.7466 51.1094L49.5688 51.3262C49.3543 51.5865 49.0738 51.7636 48.7485 51.8486L48.4751 51.9199L48.2026 51.9912C48.0168 52.0397 47.8306 52.087 47.646 52.1318L47.3755 52.1973L47.104 52.2627C47.0289 52.2809 46.9715 52.3116 46.9224 52.3535L46.7173 52.5303L46.5112 52.7061C46.4048 52.7972 46.3018 52.9014 46.2026 53.0186L46.0181 53.2354L45.8345 53.4531C45.6583 53.6612 45.4495 53.8337 45.2095 53.9629L44.9741 54.0898L44.7397 54.2158C44.4645 54.3639 44.1636 54.4277 43.8589 54.4268L43.5532 54.4258L43.2466 54.4248C43.1679 54.4246 43.1384 54.442 43.1265 54.4502L42.9048 54.6025L42.6841 54.7559C42.495 54.8865 42.2926 54.9959 42.0796 55.084L41.5796 55.291C41.4912 55.3276 41.4109 55.3784 41.3384 55.4453L41.1382 55.6309L40.937 55.8154C40.7958 55.9459 40.6524 56.0728 40.5073 56.1953L40.3013 56.3691L40.0962 56.543C39.9369 56.6775 39.7696 56.8023 39.5952 56.916L39.3696 57.0625L39.145 57.209C39.0218 57.2893 38.9038 57.3778 38.7925 57.4736L38.3862 57.8232C38.2923 57.9042 38.2079 57.9957 38.1333 58.0977L37.9741 58.3154L37.814 58.5342C37.6855 58.7098 37.544 58.8738 37.3901 59.0254L37.2007 59.2119L37.0112 59.3994C36.9697 59.4404 36.9384 59.4889 36.9175 59.5547L36.8354 59.8145L36.7524 60.0742C36.6553 60.3802 36.4772 60.6408 36.2349 60.8457L36.019 61.0283L35.8022 61.2109C35.7102 61.2888 35.6312 61.3773 35.5649 61.4775L35.4097 61.7139L35.3169 61.8525L35.3647 61.9561C35.3749 61.9777 35.4167 62.0639 35.438 62.1641C35.4443 62.1938 35.4551 62.2558 35.4536 62.333C35.4524 62.3939 35.4423 62.5771 35.3062 62.7549C35.1307 62.9837 34.8748 63.0463 34.686 63.0322C34.5361 63.021 34.4291 62.9653 34.3911 62.9443C34.307 62.8979 34.2491 62.8434 34.2329 62.8281C34.2074 62.8042 34.1851 62.781 34.1694 62.7637C34.1376 62.7284 34.1045 62.6883 34.0737 62.6494L33.9126 62.4453L33.7515 62.2422C33.5991 62.0497 33.4782 61.8368 33.3892 61.6074L33.2935 61.3613L33.1978 61.1143C33.1335 60.9488 33.068 60.7798 33.0024 60.6084L32.9048 60.3535L32.8071 60.0977C32.6652 59.7261 32.701 59.3471 32.8618 59.0098L32.9917 58.7383L33.0864 58.5371L32.9575 58.3193L32.7964 58.0469C32.6294 57.7659 32.5324 57.4492 32.5454 57.1094L32.5562 56.835L32.5669 56.5596C32.5798 56.2255 32.6941 55.9196 32.8862 55.6553L33.2319 55.1787C33.3303 55.0433 33.4138 54.9118 33.4819 54.7852L33.6089 54.5488L33.6753 54.4238C33.4119 54.6851 33.0736 54.8126 32.7104 54.8125H32.0894C32.0113 54.8125 31.9791 54.8301 31.9624 54.8418L31.5093 55.1621C31.383 55.2514 31.2626 55.3491 31.1479 55.4541L30.9429 55.6426L30.7378 55.8301C30.6829 55.8804 30.6405 55.9406 30.6099 56.0186L30.5054 56.2842L30.4019 56.5488C30.3337 56.7225 30.2683 56.8932 30.2056 57.0596L30.1089 57.3145L30.0132 57.5693C29.9311 57.787 29.8259 57.9932 29.6987 58.1865L29.5522 58.4102L29.4048 58.6338C29.3001 58.793 29.1893 58.9524 29.0728 59.1113L28.9077 59.3359L28.7437 59.5605C28.6762 59.6526 28.626 59.7495 28.5913 59.8516L28.5034 60.1113L28.4155 60.3701C28.4096 60.3877 28.4019 60.4219 28.4233 60.4951L28.5093 60.7891L28.5962 61.084C28.6836 61.382 28.7034 61.6964 28.6245 62.0088L28.5601 62.2646L28.4956 62.5215C28.4731 62.6108 28.4654 62.7034 28.4751 62.8018L28.5015 63.0693L28.5278 63.3379C28.5603 63.6672 28.4889 63.9821 28.3364 64.2666L28.063 64.7764C28.0014 64.8912 27.9615 65.0034 27.938 65.1123L27.8228 65.6455C27.8154 65.6795 27.8158 65.7141 27.8364 65.7666L28.0454 66.2979C28.1896 66.6635 28.1697 67.0427 28.0142 67.3896L27.8911 67.6641L27.7681 67.9395C27.7371 68.0085 27.7388 68.0463 27.7427 68.0693L27.7876 68.3359L27.8335 68.6025C27.8632 68.7762 27.8946 68.9502 27.9272 69.123L27.9771 69.3877L28.0278 69.6533C28.045 69.7444 28.0804 69.8441 28.1431 69.9531L28.2915 70.2109L28.439 70.4678C28.6512 70.8366 28.6729 71.2537 28.4966 71.6426L28.3745 71.9121L28.2642 72.1533L28.3794 72.4033L28.5054 72.6758C28.647 72.9834 28.6961 73.3216 28.6196 73.666L28.5601 73.9316L28.5015 74.1982C28.4532 74.4154 28.3854 74.6276 28.3003 74.834L28.0913 75.3418C28.0436 75.4576 28.0122 75.5735 27.9956 75.6895L27.9575 75.9541L27.9194 76.2178C27.8743 76.5328 27.7426 76.8155 27.5435 77.0557L27.1782 77.4951C27.1757 77.4981 27.1734 77.5005 27.1724 77.502C27.1722 77.5034 27.172 77.5085 27.1724 77.5166L27.1851 77.8057L27.1987 78.0938C27.2148 78.4512 27.1096 78.7936 26.8745 79.0781L26.7007 79.2881L26.5269 79.499C26.4931 79.5398 26.4686 79.5878 26.4565 79.6572L26.4087 79.9375L26.3599 80.2178C26.3109 80.5012 26.2054 80.7674 26.0405 81.0049L25.7319 81.4482C25.6172 81.6134 25.4955 81.7737 25.3667 81.9277L25.021 82.3418C24.8157 82.5874 24.5531 82.7584 24.2593 82.8633L23.9771 82.9639L23.6987 83.0625L23.5913 83.3047L23.4761 83.5654C23.3567 83.8336 23.1831 84.0691 22.9536 84.2568L22.7456 84.4258L22.5386 84.5957C22.3476 84.7518 22.1364 84.8779 21.9087 84.9746L21.4087 85.1875C21.3868 85.1968 21.3574 85.2144 21.3218 85.2705L21.1636 85.5205L21.0044 85.7705C20.8323 86.0418 20.5962 86.2611 20.2964 86.3994L20.0503 86.5127L19.8032 86.627C19.5968 86.7221 19.3822 86.7969 19.1606 86.8506L18.6274 86.9795C18.4339 87.0263 18.2391 87.0661 18.0444 87.0986L17.7778 87.1426L17.5112 87.1875C17.4161 87.2034 17.3278 87.2354 17.2437 87.2832L17.0073 87.417L16.772 87.5508C16.5927 87.6529 16.4056 87.7438 16.2222 87.7969L16.062 87.8428L15.9009 87.8896C15.8101 87.9158 15.6327 87.952 15.4282 87.8887C15.1825 87.8125 15.0181 87.6312 14.9409 87.4365C14.8767 87.2743 14.8796 87.1249 14.8862 87.043C14.8937 86.9516 14.9129 86.8663 14.9321 86.7969L15.0054 86.5322L15.0796 86.2666C15.1299 86.0854 15.1812 85.9066 15.2339 85.7314L15.311 85.4756L15.3872 85.2197C15.4265 85.0889 15.4547 84.9548 15.4712 84.8174L15.5034 84.5508L15.5356 84.2832L15.5591 84.1455C15.629 83.8318 15.8015 83.5695 16.0269 83.3633L16.2603 83.1504L16.4575 82.9688L16.4331 82.7627L16.3999 82.4785C16.3745 82.2617 16.3621 82.047 16.3638 81.8359L16.3657 81.5664L16.3687 81.2959C16.3709 81.0139 16.4324 80.7414 16.5493 80.4854L16.7778 79.9834C16.7865 79.9644 16.7912 79.9492 16.7827 79.9131L16.7173 79.6357L16.6528 79.3594C16.5752 79.0272 16.6043 78.6912 16.7437 78.377L16.8569 78.1221L16.9702 77.8662C16.9843 77.8343 16.9861 77.8131 16.979 77.7812L16.9194 77.5098L16.8589 77.2383C16.794 76.9443 16.8018 76.6461 16.8853 76.3555L16.9604 76.0928L17.0356 75.8311C17.0592 75.7487 17.0655 75.6699 17.0552 75.5898L17.021 75.3223L16.9858 75.0557C16.958 74.8403 16.9473 74.624 16.9546 74.4082L16.9644 74.1426L16.9731 73.8779C16.9776 73.7451 16.9699 73.6114 16.9497 73.4785L16.9097 73.2148L16.8687 72.9502C16.8308 72.7002 16.833 72.4484 16.8735 72.1982L16.9175 71.9297L16.9604 71.6611C16.9907 71.4747 17.0249 71.2867 17.062 71.0977L17.1157 70.8252L17.1694 70.5518C17.1705 70.5459 17.1704 70.5416 17.1704 70.54C17.1704 70.5389 17.1705 70.5378 17.1704 70.5371C17.1701 70.5353 17.1683 70.5261 17.1587 70.5088L17.0181 70.2568L16.8784 70.0039C16.7132 69.7059 16.6468 69.3743 16.6958 69.0312L16.7349 68.7559L16.7739 68.4814C16.7975 68.3163 16.8147 68.1503 16.8257 67.9844L16.8628 67.4316C16.865 67.3968 16.8598 67.3674 16.8354 67.3271L16.688 67.085L16.5415 66.8418C16.4482 66.6874 16.3529 66.5353 16.2554 66.3867L16.1011 66.1533L15.9478 65.9189C15.7517 65.6203 15.6745 65.2799 15.7134 64.9297L15.7456 64.6436L15.7769 64.3574C15.7879 64.257 15.7781 64.1751 15.7563 64.1055L15.6772 63.8496L15.5972 63.5938C15.576 63.5264 15.5396 63.4594 15.478 63.3906L15.0991 62.9688C14.8526 62.6937 14.7288 62.3554 14.728 61.9922V61.7002L14.7271 61.4082C14.7268 61.2902 14.7082 61.1892 14.6763 61.1016L14.4888 60.5898C14.4876 60.5862 14.4841 60.5691 14.4351 60.5391L14.1763 60.3809L13.9185 60.2227C13.6504 60.0587 13.4251 59.8355 13.2769 59.5459L13.1411 59.2803C12.8385 59.2537 12.5506 59.3378 12.3081 59.5186L12.1851 59.623L11.9663 59.8301L11.7515 60.0342L11.1421 60.0029C10.6987 59.9803 10.2991 60.1686 10.0454 60.5488L9.88135 60.7949L9.71826 61.041C9.60935 61.2044 9.50416 61.3604 9.40479 61.5088L9.25537 61.7324L9.10596 61.9551C9.09522 61.9711 9.07602 61.9922 9.01807 62.0146C9.05518 61.8418 9.10883 61.6723 9.17725 61.5068L9.39404 60.9834C9.43818 60.8766 9.46021 60.7772 9.46631 60.6836L9.48389 60.418L9.50049 60.1533C9.51476 59.9311 9.55059 59.7106 9.60693 59.4941L9.67432 59.2344L9.74268 58.9736C9.78348 58.8168 9.81825 58.66 9.84717 58.5039L9.89502 58.2432L9.94385 57.9834C9.9662 57.8627 9.9749 57.7373 9.97021 57.6074L9.95068 57.0645C9.94304 56.8545 9.9478 56.6452 9.96631 56.4375L9.99072 56.1709L10.0142 55.9043C10.0306 55.72 10.0501 55.5352 10.0718 55.3506L10.103 55.083L10.1343 54.8164C10.1538 54.65 10.1695 54.4814 10.1812 54.3115L10.1997 54.0391L10.2183 53.7676L10.2368 53.6201C10.2971 53.2843 10.4798 53.0073 10.7231 52.7969L10.9644 52.5879L11.1968 52.3867L11.1948 52.1592L11.1909 51.8799C11.1882 51.6618 11.2 51.4451 11.2271 51.2314L11.2622 50.96L11.2964 50.6895C11.3236 50.475 11.3665 50.2635 11.4243 50.0566L11.5688 49.5371C11.6334 49.3064 11.7262 49.0864 11.8462 48.8789L12.1177 48.4102C12.235 48.2074 12.375 48.0186 12.5356 47.8438L12.7261 47.6357L12.895 47.4521L12.8687 47.1475L12.8423 46.8389C12.8224 46.6117 12.8605 46.366 12.9966 46.1406C13.13 45.9198 13.3231 45.7747 13.5151 45.6816L13.8169 45.5361L13.9995 45.4473L13.9937 45.293L13.981 44.9834C13.9687 44.6889 14.0105 44.397 14.1235 44.1221L14.2271 43.8711L14.3306 43.6211L14.3901 43.4922C14.5436 43.2052 14.7845 42.9983 15.063 42.8623L15.3472 42.7236L15.5679 42.6152L15.5933 42.4092L15.6284 42.1143C15.6694 41.7763 15.8078 41.4624 16.0571 41.2109L16.2485 41.0186L16.4399 40.8252C16.5783 40.6857 16.7215 40.5504 16.8687 40.4199L17.0718 40.2393L17.2759 40.0586C17.3296 40.011 17.37 39.9549 17.3999 39.8828L17.5054 39.627L17.6108 39.3721C17.6934 39.1725 17.7892 38.9796 17.897 38.7949L18.1704 38.3262C18.2932 38.1158 18.4423 37.9243 18.6157 37.7539L18.8081 37.5654L18.9995 37.376C19.2041 37.175 19.4468 37.027 19.7134 36.9248L19.9907 36.8184L20.1831 36.7441L20.2339 36.5049L20.2993 36.1963L20.3394 36.0449C20.4509 35.7012 20.6891 35.4167 21.0552 35.2656L21.5884 35.0449C21.7256 34.9883 21.8474 34.9232 21.9546 34.8516L22.1782 34.7021L22.4009 34.5527C22.4814 34.4989 22.5516 34.4335 22.6118 34.3525L22.936 33.915C23.111 33.6796 23.3338 33.4941 23.5962 33.3633L23.8403 33.2412L24.0845 33.1201C24.2078 33.0587 24.3213 32.9881 24.4243 32.9092L24.8442 32.5869C24.9576 32.5001 25.0659 32.4042 25.1685 32.2998L25.3569 32.1074L25.5454 31.916C25.632 31.8278 25.7147 31.7227 25.7925 31.5986L25.9468 31.3516L26.1021 31.1055C26.2632 30.8483 26.4775 30.6349 26.7466 30.4844L27.2173 30.2207C27.4313 30.1011 27.6598 30.012 27.8999 29.9521L28.1733 29.8848L28.4458 29.8164C28.4868 29.8061 28.5143 29.7899 28.5435 29.7568L28.73 29.5449L28.9165 29.334C29.1746 29.0416 29.5185 28.8873 29.896 28.8682L30.1919 28.8535L30.4878 28.8379C30.5917 28.8326 30.663 28.8094 30.7153 28.7812L30.9497 28.6553L31.1831 28.5293C31.3329 28.4485 31.4822 28.3656 31.6304 28.2803L31.8608 28.1475L32.0923 28.0146C32.3067 27.8912 32.5356 27.8002 32.7769 27.7432L33.0396 27.6816L33.3022 27.6191C33.4455 27.5853 33.5831 27.542 33.7153 27.4902L33.9614 27.3945L34.2075 27.2979C34.3774 27.2314 34.5485 27.1666 34.7202 27.1045L35.2183 26.9248C35.2414 26.9164 35.2887 26.8929 35.354 26.8125L35.5513 26.5684L35.7495 26.3242L35.8638 26.2002C35.9879 26.0824 36.1421 25.985 36.3276 25.9307C36.5119 25.8767 36.6923 25.8757 36.8579 25.9053L37.0181 25.9434L37.3276 26.0391L37.6362 26.1328L37.8276 26.0137L38.062 25.8682C38.1899 25.7882 38.3187 25.6947 38.4487 25.5879L38.6772 25.3994L38.9058 25.2119C39.1817 24.9851 39.5135 24.8811 39.8618 24.9121L40.0122 24.9336L40.2993 24.9902L40.5874 25.0479C40.7118 25.0725 40.8192 25.075 40.9126 25.0635L41.1772 25.0312L41.4419 24.998C41.4977 24.9911 41.5631 24.9692 41.6431 24.916L42.1313 24.5918C42.3945 24.4166 42.6933 24.3118 43.0171 24.3018L43.2866 24.293L43.5562 24.2852C43.7983 24.2777 44.0404 24.3017 44.2798 24.3555L44.5562 24.418L44.8315 24.4795C44.9031 24.4955 44.9603 24.492 45.0132 24.4766L45.2729 24.4004L45.5337 24.3242C45.7264 24.2679 45.9212 24.2195 46.1177 24.1797L46.3823 24.126L46.6479 24.0723C46.8505 24.0313 47.0545 24.0024 47.2593 23.9844L47.5269 23.9609L47.7944 23.9365C48.0693 23.9124 48.3409 23.9444 48.604 24.0264L49.6782 24.3623L50.2114 24.5303C50.3038 24.5593 50.3879 24.5676 50.4683 24.5605L51.0015 24.5137C51.1156 24.5036 51.2301 24.4925 51.3442 24.4824C51.3408 24.4644 51.3367 24.4463 51.3335 24.4287L51.2808 24.1357L51.229 23.8428C51.1991 23.6755 51.1617 23.5249 51.1187 23.3906L51.0376 23.1387L50.9595 22.8955C50.9549 22.8901 50.938 22.8713 50.897 22.8457L50.3384 22.498C50.146 22.3782 49.9475 22.1858 49.8579 21.8984C49.7688 21.6122 49.8223 21.3423 49.9097 21.1357L50.0396 20.8301L50.1353 20.6016L50.0005 20.4277L49.8052 20.1758C49.5407 19.8361 49.4378 19.3972 49.6206 18.9531L49.729 18.6895L49.8384 18.4268C49.8878 18.3069 49.9576 18.166 50.061 18.042C50.1625 17.9204 50.3578 17.743 50.6577 17.7148L50.7788 17.7041L50.8989 17.6924L50.9956 17.6885C51.2206 17.6898 51.4406 17.7635 51.5942 17.8213L51.853 17.9189L52.1118 18.0156C52.2261 18.0586 52.3301 18.081 52.4243 18.0879L52.6772 18.1064L52.9292 18.125C53.1069 18.138 53.2922 18.1548 53.4839 18.1758L53.7593 18.2061L53.8823 18.2188L53.9487 18.1211L54.1021 17.8926C54.1819 17.7733 54.2386 17.6665 54.2769 17.5732L54.4546 17.1396C54.4859 17.0633 54.5183 16.9881 54.5493 16.9268C54.5629 16.9 54.5891 16.8495 54.6255 16.7979C54.6353 16.784 54.6546 16.7583 54.6821 16.7275L54.7612 16.4805L54.8413 16.2246C54.8866 16.0813 54.9232 15.9367 54.9507 15.791L55.0005 15.5303L55.0493 15.2695C55.0671 15.1753 55.0712 15.0644 55.0552 14.9346L55.019 14.6426L54.9829 14.3496C54.9419 14.0183 54.9955 13.6887 55.1597 13.3877L55.4233 12.9053C55.5168 12.734 55.6142 12.5653 55.7153 12.4004L55.8569 12.1689L55.9995 11.9365C56.0761 11.8115 56.1437 11.6814 56.2017 11.5459L56.4165 11.0439C56.4975 10.8545 56.5884 10.6684 56.689 10.4863L56.9565 10.002C57.1197 9.70661 57.3623 9.48402 57.6587 9.33691L57.9204 9.20605L58.1821 9.07617C58.2488 9.043 58.2896 9.00468 58.3198 8.95898L58.4741 8.72559L58.6274 8.49121C58.7739 8.26906 58.9546 8.07649 59.1665 7.91602L59.3872 7.74902L59.6069 7.58203C59.8248 7.41711 60.0676 7.29706 60.3306 7.22266L60.5981 7.14648L60.8657 7.07129C61.0803 7.01058 61.2978 6.96746 61.5171 6.94238L62.0581 6.87988C62.1322 6.87138 62.2063 6.84724 62.2847 6.7998L62.5278 6.65332L62.771 6.50586C63.0259 6.35162 63.3067 6.25988 63.606 6.23926L63.8784 6.21973L64.1509 6.20117C64.3403 6.18812 64.5299 6.17848 64.7192 6.17188L64.9917 6.16211L65.2642 6.15332C65.4545 6.14669 65.6453 6.14305 65.8364 6.14355L66.3833 6.14551ZM118.551 77.5527L118.678 77.8193C118.758 77.9868 118.846 78.2671 118.741 78.5771C118.628 78.9082 118.364 79.0748 118.166 79.1504L117.916 79.2451L117.667 79.3398C117.379 79.4492 117.078 79.4772 116.776 79.4248L116.509 79.3779L116.243 79.332C116.19 79.3228 116.134 79.3257 116.066 79.3496L115.799 79.4424L115.533 79.5361C115.236 79.64 114.924 79.6628 114.614 79.5957L114.081 79.4805C113.917 79.4451 113.753 79.4146 113.59 79.3896L113.441 79.3662C113.518 79.3574 113.595 79.3465 113.671 79.3291L113.937 79.2695L114.202 79.209C114.313 79.1837 114.429 79.1742 114.549 79.1807L115.104 79.21C115.495 79.2308 115.846 79.0902 116.121 78.8281L116.332 78.627L116.542 78.4258C116.649 78.3229 116.752 78.2441 116.849 78.1855L117.068 78.0527L117.288 77.9199C117.4 77.8521 117.521 77.7917 117.652 77.7393L117.9 77.6396L118.147 77.54C118.26 77.4948 118.365 77.4378 118.466 77.374L118.551 77.5527ZM8.97803 77.167C9.03639 77.1942 9.07629 77.2291 9.10986 77.2793L9.27002 77.5195L9.43018 77.7588C9.60379 78.019 9.83504 78.2257 10.1177 78.3652L10.3677 78.4893L10.6187 78.6133C10.7959 78.7008 10.9758 78.784 11.1567 78.8623L11.4116 78.9727L11.6675 79.083C11.7669 79.126 11.868 79.1647 11.9702 79.2002C11.7202 79.2681 11.4636 79.2899 11.2046 79.2559L10.938 79.2217L10.6714 79.1865C10.4412 79.1562 10.1708 79.0884 9.94287 78.9209L9.80908 78.8223L9.67627 78.7246C9.41273 78.5306 9.2777 78.2423 9.20068 78.0127L9.11084 77.7461L9.02197 77.4795C8.98608 77.3724 8.96374 77.2632 8.94873 77.1533L8.97803 77.167ZM35.2222 61.8076C35.2231 61.8087 35.2246 61.809 35.2251 61.8096C35.2245 61.809 35.2234 61.8079 35.2222 61.8066C35.2216 61.8061 35.2201 61.8055 35.2192 61.8047C35.2202 61.8058 35.2214 61.8067 35.2222 61.8076Z" fill="#303A4B"/>
</svg>
