<svg width="128" height="128" viewBox="0 0 128 128" fill="none" xmlns="http://www.w3.org/2000/svg">
<g clip-path="url(#clip0_395_2728)">
<path d="M74.4854 15.6963C74.7391 15.6756 74.9715 15.7432 75.166 15.8555L75.4326 16.0088L75.6855 16.1562L75.9141 16.0781L76.1807 15.9873C76.4394 15.8991 76.7083 15.8585 76.9814 15.873L77.248 15.8877L77.5156 15.9014C77.6994 15.9112 77.8836 15.9237 78.0674 15.9385L78.335 15.96L78.6016 15.9814C78.7029 15.9895 78.8075 15.9819 78.917 15.9561L79.1865 15.8926L79.4551 15.8291C79.8334 15.7399 80.1993 15.8148 80.5146 16.0049L80.7744 16.1611L81 16.2979L81.2285 16.2129L81.5029 16.1113C81.7705 16.0125 82.0515 15.9667 82.3379 15.9854L82.6045 16.002L82.8721 16.0195C83.1212 16.0358 83.3648 16.089 83.5996 16.1768L83.8574 16.2725L84.1143 16.3691C84.1797 16.3935 84.2452 16.4018 84.3184 16.3936L84.8691 16.3311C85.193 16.2946 85.5089 16.3531 85.7979 16.502L86.0459 16.6299L86.2949 16.7578C86.3854 16.8044 86.4729 16.8305 86.5596 16.8398L86.8262 16.8682L87.0918 16.8965C87.2474 16.9132 87.407 16.9232 87.5684 16.9258L87.8418 16.9297L88.1162 16.9346C88.3616 16.9385 88.6034 16.975 88.8379 17.0439L89.0957 17.1191L89.3535 17.1953C89.5167 17.2433 89.6811 17.2882 89.8457 17.3301L90.1064 17.3965L90.3662 17.4629C90.6083 17.5245 90.8388 17.6207 91.0537 17.75L91.2891 17.8926L91.5244 18.0342C91.6369 18.1018 91.7522 18.1539 91.8691 18.1924L92.123 18.2764L92.377 18.3594C92.5197 18.4063 92.6672 18.4455 92.8184 18.4766L93.085 18.5312L93.3506 18.5859C93.5785 18.6328 93.7994 18.7046 94.0107 18.7998L94.2559 18.9102L94.501 19.0195C94.6869 19.1033 94.8686 19.1977 95.0449 19.3008L95.5098 19.5723C95.6347 19.6452 95.7647 19.7088 95.8984 19.7627L96.3965 19.9639C96.6148 20.0518 96.8209 20.1649 97.0127 20.3018L97.2324 20.459L97.4521 20.6152C97.5388 20.677 97.6342 20.7255 97.7393 20.7598L97.999 20.8447L98.2598 20.9287C98.5158 21.0123 98.7507 21.1408 98.959 21.3115L99.1689 21.4834L99.3779 21.6553C99.4891 21.7464 99.6061 21.828 99.7275 21.8994L99.959 22.0352L100.189 22.1709C100.367 22.275 100.538 22.39 100.702 22.5137L100.916 22.6748L101.131 22.8359C101.243 22.9203 101.362 22.9958 101.488 23.0625L101.967 23.3164C102.282 23.4838 102.506 23.7469 102.646 24.0566L102.77 24.333L102.895 24.6104C102.924 24.6754 102.948 24.6888 102.956 24.6934L103.188 24.8271L103.422 24.96C103.571 25.0449 103.723 25.1281 103.877 25.21L104.117 25.3379L104.358 25.4658C104.585 25.5863 104.789 25.7401 104.966 25.9258L105.335 26.3145C105.48 26.4674 105.615 26.6313 105.739 26.8037L105.897 27.0234L106.055 27.2432C106.056 27.2447 106.057 27.246 106.061 27.248C106.066 27.2514 106.083 27.2613 106.117 27.2705L106.416 27.3506L106.715 27.4297C106.916 27.4835 107.116 27.5849 107.28 27.752C107.404 27.8775 107.49 28.0228 107.547 28.1729L107.594 28.3242L107.667 28.623L107.741 28.9209C107.762 29.006 107.79 29.0381 107.805 29.0518L108 29.2344L108.194 29.416C108.323 29.5357 108.453 29.6559 108.583 29.7754L108.781 29.957L108.979 30.1387C109.079 30.2307 109.192 30.3174 109.318 30.3984L109.557 30.5518L109.794 30.7041C110.044 30.865 110.251 31.0777 110.399 31.3379L110.669 31.8086C110.792 32.0239 110.884 32.2558 110.946 32.499L111.017 32.7764L111.088 33.0537C111.09 33.0611 111.092 33.0663 111.093 33.0684V33.0703C111.093 33.0706 111.094 33.0716 111.095 33.0723C111.097 33.074 111.101 33.0776 111.107 33.082L111.345 33.2432L111.582 33.4053C111.872 33.6034 112.081 33.8836 112.18 34.2266L112.256 34.4951L112.333 34.7627C112.365 34.8756 112.411 34.9745 112.468 35.0605L112.613 35.2832L112.76 35.5059C112.868 35.6704 112.969 35.8399 113.063 36.0127L113.19 36.2471L113.318 36.4814C113.425 36.6779 113.513 36.8844 113.581 37.0986L113.662 37.3555L113.744 37.6133C113.8 37.7909 113.854 37.9699 113.905 38.1484L113.979 38.4072L114.053 38.665C114.093 38.8043 114.141 38.9388 114.199 39.0664L114.309 39.3066L114.417 39.5469C114.479 39.6835 114.55 39.8179 114.627 39.9492L114.762 40.1787L114.897 40.4082C114.985 40.5566 115.074 40.7061 115.166 40.8545L115.309 41.084L115.45 41.3135C115.537 41.453 115.629 41.5931 115.728 41.7314L116.05 42.1826C116.193 42.3846 116.308 42.6031 116.391 42.835L116.481 43.0879L116.571 43.3408C116.681 43.6491 116.682 43.9657 116.609 44.2676L116.736 44.3916C117.056 44.7032 117.171 45.1163 117.094 45.5371L117.083 45.5928C117.144 45.6907 117.199 45.7917 117.244 45.8984L117.349 46.1484L117.454 46.3984C117.548 46.6232 117.612 46.8582 117.644 47.0996L117.714 47.6348C117.735 47.7992 117.761 47.9631 117.792 48.125L117.892 48.6523C117.94 48.9062 117.944 49.164 117.909 49.4209L117.902 49.4648L118.07 49.6865C118.308 50.0005 118.403 50.3823 118.318 50.7803L118.26 51.0576L118.202 51.3242L118.351 51.7109L118.45 51.9189C118.581 52.1931 118.641 52.4886 118.622 52.7939L118.589 53.3369C118.582 53.4471 118.592 53.5541 118.617 53.6592L118.682 53.9219L118.745 54.1846C118.798 54.401 118.83 54.6206 118.843 54.8418L118.858 55.1084L118.873 55.374C118.885 55.5804 118.884 55.7882 118.87 55.9961L118.853 56.2666L118.834 56.5361C118.825 56.6657 118.831 56.7942 118.85 56.9209L118.889 57.1865L118.929 57.4521C118.982 57.8174 118.89 58.1598 118.714 58.4551L118.554 58.7236L118.55 58.7295C118.557 58.7887 118.563 58.8481 118.564 58.9082L118.572 59.1748L118.58 59.4424C118.585 59.6226 118.559 59.7965 118.509 59.9619L118.601 60.0938L118.789 60.3633C118.983 60.6411 119.109 60.9718 119.093 61.3389L119.081 61.6064L119.069 61.873C119.062 62.0404 119.058 62.2093 119.059 62.377L119.061 62.9121C119.061 63.1138 119.051 63.3158 119.031 63.5166L118.98 64.0498C118.963 64.2348 118.942 64.4199 118.918 64.6045L118.884 64.8701L118.851 65.1367C118.828 65.3144 118.804 65.4926 118.781 65.6699L118.713 66.2012C118.687 66.3972 118.654 66.593 118.612 66.7871L118.556 67.0498L118.5 67.3135C118.485 67.3849 118.484 67.4611 118.503 67.5488L118.563 67.8232L118.625 68.0977C118.716 68.5083 118.605 68.8938 118.368 69.2051L117.991 69.7012C117.967 69.7327 117.958 69.753 117.955 69.7617C117.953 69.7687 117.952 69.7721 117.952 69.7744L117.962 70.3115C117.965 70.506 117.962 70.7013 117.953 70.8955L117.94 71.1641L117.928 71.4316C117.919 71.6135 117.909 71.7955 117.898 71.9766L117.883 72.2441L117.866 72.5107C117.857 72.6658 117.855 72.8231 117.86 72.9814L117.87 73.2529L117.88 73.5234C117.891 73.8269 117.825 74.119 117.689 74.3887L117.564 74.6387L117.438 74.8887C117.396 74.9742 117.375 75.055 117.37 75.1338L117.353 75.4004L117.336 75.668C117.327 75.8099 117.328 75.9558 117.341 76.1055L117.363 76.3809L117.387 76.6562C117.409 76.9235 117.384 77.1888 117.31 77.4463L117.235 77.7051L117.161 77.9629C117.158 77.9751 117.156 77.9877 117.152 78L117.287 77.9189C117.399 77.8511 117.521 77.7907 117.651 77.7383L117.899 77.6387L118.146 77.5391C118.274 77.4879 118.394 77.4236 118.507 77.3486L118.528 77.4424C118.608 77.8033 118.542 78.1539 118.377 78.4639L118.235 78.7305L118.105 78.9707L118.197 79.1973L118.304 79.4639C118.426 79.7685 118.458 80.0949 118.384 80.4209L118.323 80.6875L118.262 80.9541C118.251 80.9993 118.252 81.0439 118.271 81.1006L118.453 81.6338C118.534 81.8718 118.582 82.1166 118.593 82.3652L118.604 82.6318L118.615 82.8984C118.629 83.2304 118.538 83.5412 118.379 83.8174L118.225 84.084L118.071 84.3516C118.055 84.3807 118.05 84.3972 118.049 84.4014V84.4043L118.145 84.9375C118.171 85.0836 118.208 85.2319 118.255 85.3809L118.339 85.6475L118.424 85.9141C118.543 86.2887 118.493 86.6636 118.317 86.9951L118.177 87.2617L118.035 87.5293C118.027 87.5453 118.023 87.5557 118.021 87.5605L118.086 87.8271L118.151 88.0947C118.188 88.247 118.235 88.4011 118.29 88.5557L118.481 89.0889C118.568 89.3316 118.618 89.5832 118.627 89.8389L118.645 90.3721C118.655 90.6769 118.584 90.9686 118.454 91.2383L118.325 91.5049L118.197 91.7715C118.175 91.8173 118.179 91.8336 118.181 91.8418L118.3 92.375C118.339 92.5495 118.379 92.7249 118.42 92.8994L118.483 93.166L118.546 93.4326C118.598 93.6541 118.629 93.8784 118.637 94.1035L118.656 94.6367C118.664 94.8536 118.654 95.0712 118.626 95.2871L118.591 95.5537L118.557 95.8203C118.541 95.9394 118.54 96.0589 118.555 96.1777L118.619 96.7109C118.666 97.1042 118.537 97.4578 118.328 97.7461L118.135 98.0127L118.041 98.1416L118.124 98.2627L118.306 98.5293C118.53 98.8596 118.625 99.2667 118.484 99.6875L118.396 99.9541L118.306 100.222C118.247 100.396 118.191 100.572 118.135 100.746L118.049 101.013L117.978 101.234L118.135 101.49L118.299 101.757C118.492 102.072 118.576 102.444 118.48 102.833L118.35 103.366C118.317 103.497 118.299 103.626 118.295 103.753L118.285 104.02L118.276 104.287C118.268 104.542 118.218 104.792 118.132 105.034L117.942 105.567C117.919 105.632 117.918 105.683 117.927 105.731L117.977 105.999L118.026 106.266C118.056 106.425 118.092 106.586 118.135 106.747L118.205 107.014L118.276 107.28C118.351 107.562 118.36 107.852 118.302 108.138L118.247 108.404L118.193 108.671C118.175 108.763 118.173 108.853 118.188 108.943L118.233 109.21L118.279 109.477C118.315 109.685 118.336 109.896 118.343 110.106L118.36 110.64C118.367 110.84 118.364 111.04 118.352 111.24L118.335 111.507L118.317 111.773C118.307 111.935 118.303 112.097 118.304 112.259L118.306 112.525L118.307 112.792C118.308 113.07 118.251 113.341 118.146 113.598L118.038 113.864L117.929 114.131C117.909 114.179 117.911 114.207 117.917 114.233L118.042 114.767C118.073 114.899 118.118 115.036 118.18 115.176L118.298 115.442L118.415 115.709C118.603 116.135 118.532 116.57 118.294 116.926L118.114 117.192L117.939 117.452L118.001 117.669L118.076 117.936C118.143 118.174 118.178 118.419 118.178 118.665L118.176 119.198C118.175 119.382 118.172 119.566 118.167 119.749L118.16 120.016L118.152 120.282C118.148 120.453 118.145 120.624 118.146 120.794L118.147 121.327C118.148 121.41 118.163 121.5 118.203 121.602L118.414 122.135C118.538 122.45 118.561 122.786 118.47 123.118L118.396 123.385L118.322 123.651C118.295 123.751 118.287 123.846 118.294 123.938L118.316 124.204L118.338 124.472C118.354 124.664 118.364 124.857 118.367 125.049L118.377 125.582C118.381 125.771 118.38 125.96 118.375 126.148L118.367 126.416L118.36 126.683C118.357 126.82 118.363 126.959 118.383 127.098L118.42 127.364L118.458 127.631C118.498 127.92 118.47 128.207 118.38 128.482L118.293 128.75L118.206 129.017C118.18 129.097 118.175 129.168 118.184 129.235L118.254 129.769C118.281 129.974 118.297 130.181 118.299 130.388L118.305 130.921C118.308 131.205 118.248 131.48 118.138 131.74L118.025 132.007L117.912 132.273C117.886 132.336 117.885 132.377 117.891 132.412L117.935 132.679L117.979 132.945C118.018 133.175 118.03 133.407 118.017 133.639L118.001 133.905L117.984 134.172C117.979 134.255 117.991 134.344 118.022 134.44L118.109 134.707L118.197 134.974C118.267 135.186 118.319 135.402 118.354 135.618L118.396 135.885L118.438 136.151C118.476 136.389 118.483 136.63 118.458 136.869L118.43 137.136L118.402 137.403C118.388 137.542 118.384 137.682 118.393 137.82L118.408 138.087L118.425 138.354C118.437 138.56 118.436 138.768 118.423 138.975L118.39 139.508C118.373 139.768 118.311 140.022 118.211 140.266L117.992 140.799C117.946 140.912 117.922 141.018 117.915 141.115L117.895 141.382L117.875 141.648C117.864 141.792 117.864 141.937 117.874 142.081L117.911 142.614C117.916 142.677 117.935 142.757 117.989 142.856L118.278 143.39C118.426 143.662 118.511 143.963 118.502 144.282L118.494 144.549L118.487 144.815C118.481 145.06 118.439 145.301 118.367 145.537L118.285 145.805L118.204 146.071C118.156 146.228 118.115 146.385 118.083 146.54L118.028 146.807L117.973 147.073C117.967 147.098 117.967 147.128 117.989 147.181L118.104 147.447L118.219 147.714C118.327 147.965 118.391 148.23 118.401 148.503L118.421 149.036C118.429 149.265 118.413 149.493 118.373 149.72L118.326 149.986L118.278 150.254C118.239 150.475 118.178 150.691 118.085 150.887L117.997 151.071L117.909 151.257C117.714 151.666 117.334 151.833 117 151.875L116.467 151.941C116.305 151.962 116.141 151.988 115.979 152.019L115.445 152.12C115.213 152.164 114.977 152.181 114.742 152.169L114.209 152.142C114.011 152.131 113.813 152.112 113.615 152.085L113.349 152.049L113.082 152.012C112.903 151.987 112.722 151.962 112.543 151.936L112.01 151.857C111.898 151.841 111.786 151.84 111.675 151.855L111.407 151.892L111.141 151.928C110.961 151.952 110.78 151.976 110.601 151.998L110.067 152.064C109.79 152.099 109.514 152.075 109.246 151.997L108.979 151.919L108.713 151.842C108.701 151.838 108.695 151.838 108.691 151.838C108.688 151.838 108.676 151.84 108.654 151.849L108.388 151.961L108.121 152.072C107.751 152.228 107.361 152.213 107.005 152.043L106.472 151.787C106.333 151.721 106.199 151.672 106.07 151.64L105.804 151.571L105.537 151.504C105.486 151.491 105.439 151.491 105.384 151.508L104.851 151.668C104.546 151.76 104.231 151.764 103.924 151.68L103.391 151.533C103.331 151.517 103.277 151.516 103.219 151.53L102.952 151.598L102.686 151.664C102.531 151.703 102.375 151.751 102.219 151.807L101.686 151.998C101.373 152.11 101.044 152.125 100.722 152.035L100.188 151.887C100.039 151.845 99.8907 151.814 99.7441 151.793L99.4775 151.754L99.2109 151.716C99.1174 151.702 99.0233 151.705 98.9268 151.726L98.6602 151.783L98.3936 151.84C98.083 151.906 97.7718 151.882 97.4756 151.777L97.209 151.684L96.9736 151.6L96.7197 151.74L96.4531 151.886C96.2666 151.988 96.0499 152.049 95.8145 152.039C95.5804 152.029 95.3717 151.949 95.1973 151.838L94.9307 151.669L94.7314 151.542L94.5547 151.628L94.2881 151.756C93.9519 151.918 93.5809 151.951 93.2168 151.827L92.6836 151.646C92.6039 151.618 92.5345 151.614 92.4697 151.622L91.9365 151.69C91.7318 151.717 91.5257 151.732 91.3203 151.734L90.7871 151.74C90.6313 151.742 90.4745 151.751 90.3184 151.768L89.7852 151.822C89.5297 151.849 89.2745 151.834 89.0234 151.777L88.7568 151.717L88.4902 151.657C88.3554 151.627 88.2215 151.611 88.0898 151.606L87.8232 151.598L87.5566 151.59C87.389 151.585 87.2204 151.583 87.0527 151.585L86.7861 151.587L86.5195 151.59C86.4378 151.591 86.3476 151.608 86.2461 151.649L85.9795 151.757L85.7129 151.865C85.4632 151.966 85.202 152.025 84.9336 152.033L84.4004 152.049C84.2466 152.053 84.0919 152.066 83.9375 152.086L83.6699 152.12L83.4033 152.155C83.0019 152.207 82.6432 152.071 82.3545 151.856L82.0879 151.657L81.8711 151.496L81.7051 151.562L81.4385 151.666C81.1125 151.794 80.7658 151.808 80.4287 151.7L80.1621 151.615L79.9238 151.538L79.6602 151.687L79.3936 151.836C79.1341 151.982 78.8501 152.074 78.5479 152.089L78.2812 152.103L78.0146 152.115C77.8356 152.124 77.6556 152.133 77.4766 152.141L76.9434 152.164C76.6693 152.176 76.4 152.132 76.1416 152.041L75.875 151.947L75.6084 151.853C75.4568 151.799 75.306 151.756 75.1572 151.723L74.8906 151.662L74.6475 151.607C74.6427 151.61 74.6364 151.614 74.6289 151.619L74.3623 151.789L74.0957 151.96C73.7775 152.163 73.3962 152.253 72.9971 152.147L72.4639 152.007C72.3984 151.99 72.3383 151.988 72.2754 152.003L72.0078 152.066L71.7412 152.129C71.4837 152.189 71.2214 152.204 70.959 152.172L70.6924 152.14L70.4258 152.106C70.1259 152.07 69.848 151.957 69.5967 151.797L69.3301 151.627L69.1895 151.537L69.043 151.637L68.7754 151.815C68.5187 151.988 68.2287 152.108 67.9111 152.138L67.6445 152.162L67.3779 152.188C67.1722 152.207 66.9658 152.214 66.7598 152.208L66.4932 152.2L66.2266 152.193C65.9571 152.186 65.6947 152.127 65.4443 152.025L64.9111 151.809C64.7573 151.746 64.6041 151.693 64.4531 151.65L64.1865 151.576L63.9355 151.505C63.9327 151.506 63.9289 151.509 63.9248 151.512L63.3916 151.809C62.9914 152.031 62.5459 152.022 62.1543 151.794L61.8877 151.639L61.6201 151.483C61.5973 151.47 61.5836 151.465 61.5791 151.464L61.3174 151.517L61.0508 151.569C60.9571 151.588 60.8501 151.626 60.7305 151.694L60.4639 151.846L60.1973 151.998C59.8941 152.171 59.5469 152.248 59.1826 152.181L58.916 152.132L58.6494 152.082C58.5564 152.065 58.4648 152.064 58.3721 152.081L58.1055 152.129L57.8389 152.178C57.4956 152.24 57.1626 152.179 56.8623 152.029L56.5957 151.896L56.3291 151.765C56.1919 151.696 56.0592 151.646 55.9326 151.613L55.666 151.544L55.417 151.479C55.4134 151.48 55.4087 151.483 55.4033 151.486L54.8701 151.797C54.6114 151.947 54.3259 152.044 54.0215 152.062L53.7549 152.079L53.4883 152.095C53.1629 152.114 52.855 152.034 52.5771 151.886L52.3105 151.743L52.1152 151.639L51.9199 151.746L51.6533 151.893C51.246 152.115 50.7975 152.095 50.4102 151.86L50.1436 151.698L49.9307 151.568L49.7393 151.656L49.4727 151.777C49.1627 151.918 48.8246 151.96 48.4834 151.88L47.9502 151.755C47.8072 151.721 47.6649 151.699 47.5244 151.688L46.9912 151.647C46.8472 151.636 46.7025 151.635 46.5586 151.645L46.0254 151.68C45.7771 151.696 45.5295 151.675 45.2861 151.619L44.7656 151.499C44.7605 151.501 44.7526 151.505 44.7432 151.511L44.21 151.829C43.8803 152.026 43.4939 152.096 43.1006 151.974L42.834 151.89L42.5674 151.807C42.5084 151.788 42.4586 151.787 42.4072 151.799L42.1406 151.861L41.873 151.923C41.6669 151.971 41.459 152.006 41.251 152.027L40.7178 152.082C40.4324 152.111 40.1507 152.075 39.8809 151.982L39.6143 151.891L39.3477 151.8C39.2815 151.777 39.2278 151.775 39.1758 151.784L38.9092 151.833L38.6416 151.883C38.3283 151.941 38.0177 151.907 37.7246 151.795L37.458 151.692L37.1914 151.591C37.1583 151.578 37.142 151.579 37.1201 151.586L36.8535 151.667L36.5869 151.749C36.3014 151.836 36.0056 151.855 35.7109 151.798L35.4443 151.746L35.1777 151.695C35.1285 151.686 35.0776 151.688 35.0137 151.71L34.7471 151.803L34.4805 151.896C34.2651 151.972 34.0461 152.028 33.8252 152.063L33.292 152.149C33.0385 152.19 32.7827 152.189 32.5293 152.147L31.9961 152.06C31.7282 152.015 31.4733 151.92 31.2334 151.786L30.9658 151.638L30.7988 151.545L30.6221 151.655L30.3555 151.821C30.0679 152.001 29.7337 152.101 29.373 152.064L28.8398 152.01C28.6163 151.987 28.3944 151.942 28.1758 151.877L27.9092 151.798L27.6426 151.718C27.5904 151.702 27.5462 151.702 27.4971 151.715L26.9639 151.859C26.6569 151.942 26.3436 151.935 26.04 151.844L25.7734 151.764L25.5068 151.683C25.4954 151.679 25.489 151.68 25.4863 151.68C25.4838 151.68 25.4727 151.681 25.4521 151.689L25.1855 151.8L24.9189 151.911C24.5149 152.079 24.1 152.028 23.7461 151.815L23.4795 151.655L23.2734 151.531L23.0859 151.622L22.8193 151.75C22.5642 151.872 22.2916 151.946 22.0078 151.958L21.4746 151.979C21.1487 151.993 20.8425 151.907 20.5674 151.754L20.3008 151.605L20.0361 151.458L19.7959 151.536L19.5293 151.621C19.2986 151.695 19.063 151.742 18.8242 151.757L18.5576 151.773L18.291 151.791C18.1197 151.802 17.9477 151.815 17.7764 151.83L17.2432 151.879C16.9372 151.907 16.6404 151.851 16.3633 151.731L16.0967 151.616L15.8613 151.514L15.6211 151.63L15.3545 151.759C15.0432 151.909 14.6994 151.957 14.3506 151.876L14.083 151.813L13.8164 151.751C13.6813 151.719 13.5477 151.701 13.416 151.695L13.1494 151.685L12.8828 151.673C12.7256 151.666 12.5673 151.667 12.4102 151.674L11.877 151.697C11.6449 151.708 11.4131 151.692 11.1836 151.649L10.6504 151.552C10.4617 151.517 10.1626 151.446 9.94043 151.244L9.84766 151.159L9.75488 151.075C9.61941 150.952 9.54115 150.806 9.49512 150.697C9.44665 150.583 9.41315 150.461 9.38867 150.345L9.33301 150.078L9.27637 149.812C9.23057 149.594 9.20409 149.374 9.19727 149.153L9.18945 148.887L9.18066 148.62C9.17427 148.413 9.18156 148.205 9.20117 147.998L9.22656 147.731L9.25098 147.464C9.27105 147.253 9.30657 147.042 9.35645 146.833L9.4834 146.3C9.49051 146.27 9.49162 146.239 9.47266 146.19L9.36816 145.924L9.26465 145.657C9.15327 145.372 9.11239 145.069 9.15723 144.762L9.23535 144.229C9.24916 144.133 9.24648 144.038 9.22656 143.94L9.17188 143.674L9.11816 143.407C9.07036 143.173 9.0514 142.936 9.0625 142.698L9.07422 142.432L9.08691 142.165C9.09523 141.987 9.10374 141.809 9.1123 141.631L9.1377 141.098C9.15253 140.791 9.24861 140.504 9.39844 140.243L9.70508 139.71C9.72314 139.678 9.72812 139.659 9.72949 139.652C9.73039 139.648 9.73083 139.645 9.73047 139.643L9.68848 139.375L9.64648 139.108C9.62732 138.987 9.5926 138.86 9.54004 138.729L9.3252 138.196C9.20669 137.901 9.16989 137.586 9.22949 137.268L9.2793 137L9.3291 136.733C9.371 136.51 9.43513 136.29 9.51953 136.073L9.62305 135.807L9.72754 135.54C9.76182 135.452 9.77176 135.377 9.76758 135.31L9.75098 135.043L9.7334 134.776C9.72939 134.714 9.71037 134.634 9.65723 134.535L9.51367 134.269L9.37012 134.001C9.18549 133.657 9.14381 133.267 9.28516 132.885L9.48242 132.352C9.48501 132.344 9.48602 132.34 9.48633 132.338V132.335C9.48583 132.333 9.48425 132.327 9.48145 132.319L9.27637 131.786C9.12558 131.393 9.17489 130.992 9.37305 130.646L9.67773 130.112C9.69489 130.082 9.69919 130.065 9.7002 130.06C9.70076 130.057 9.70056 130.055 9.7002 130.053L9.6084 129.52C9.5924 129.428 9.5562 129.323 9.49219 129.206L9.34668 128.939L9.20117 128.672C9.09216 128.472 9.03231 128.237 9.06152 127.983C9.09031 127.736 9.19763 127.527 9.32617 127.361L9.5332 127.095L9.67188 126.917L9.60449 126.787L9.46875 126.521C9.341 126.269 9.25947 126 9.23828 125.718L9.21875 125.451L9.19824 125.185C9.18166 124.963 9.18562 124.741 9.20996 124.521L9.23926 124.254L9.26855 123.986C9.28555 123.832 9.2952 123.677 9.29688 123.523L9.30273 122.99C9.30521 122.766 9.33026 122.543 9.37598 122.321L9.43066 122.054L9.48535 121.787C9.50922 121.671 9.51719 121.558 9.50977 121.445L9.47461 120.912C9.45924 120.68 9.47014 120.447 9.50781 120.217L9.5957 119.684C9.60974 119.597 9.60712 119.511 9.58691 119.422L9.46582 118.889C9.4344 118.75 9.39005 118.608 9.33203 118.464L9.11719 117.931C9.01271 117.671 8.95822 117.398 8.96387 117.117L8.96973 116.851L8.97461 116.584C8.98062 116.291 9.05665 116.011 9.18457 115.751L9.44629 115.218C9.48255 115.144 9.4864 115.095 9.4834 115.061L9.43652 114.527C9.41799 114.317 9.41353 114.107 9.42383 113.896L9.4375 113.63L9.4502 113.363C9.45937 113.176 9.47268 112.989 9.48926 112.802L9.53613 112.269C9.53916 112.234 9.53507 112.184 9.49902 112.11L9.36914 111.844L9.23828 111.577C9.10254 111.299 9.03428 110.995 9.05762 110.679L9.09668 110.146C9.1186 109.85 9.21199 109.572 9.35547 109.316L9.50586 109.05L9.59375 108.893L9.48047 108.722L9.30566 108.455C9.10375 108.147 9.00206 107.777 9.08691 107.382L9.14453 107.115L9.20117 106.849C9.22975 106.715 9.24484 106.583 9.24707 106.453L9.25195 106.187L9.25684 105.919C9.26168 105.64 9.32409 105.37 9.43457 105.115L9.5498 104.849L9.66602 104.582C9.71415 104.471 9.73784 104.369 9.74512 104.276L9.7666 104.01L9.78711 103.743C9.79513 103.64 9.78787 103.534 9.7627 103.426L9.7002 103.159L9.63867 102.893C9.58035 102.642 9.56237 102.386 9.58691 102.13L9.6377 101.597C9.63829 101.591 9.64076 101.563 9.60156 101.497L9.28125 100.964C9.09634 100.655 9.01245 100.295 9.09277 99.917L9.20605 99.3838C9.25584 99.1495 9.33375 98.9199 9.4375 98.6973L9.56152 98.4307L9.68652 98.1641C9.72055 98.0908 9.72538 98.0397 9.72168 98.001L9.66895 97.4678C9.65732 97.3493 9.6302 97.2257 9.58594 97.0986L9.40039 96.5654C9.28164 96.2243 9.29127 95.8705 9.42285 95.5371L9.52832 95.2705L9.61816 95.0439L9.4873 94.8018L9.34375 94.5352C9.19574 94.26 9.11364 93.9552 9.12793 93.6328L9.15137 93.0996C9.15876 92.9329 9.16228 92.7653 9.16211 92.5986V92.332L9.16113 92.0654C9.16091 91.752 9.24858 91.4572 9.39551 91.1895L9.54199 90.9229L9.63672 90.75L9.52539 90.5693L9.3623 90.3018C9.16746 89.9826 9.0857 89.6066 9.18945 89.2158L9.26074 88.9482L9.33105 88.6816C9.34631 88.6239 9.34635 88.5714 9.33105 88.5137L9.19043 87.9805C9.1252 87.7346 9.09716 87.4835 9.10938 87.2305L9.13477 86.6973C9.14996 86.3847 9.25144 86.0936 9.4082 85.832L9.56738 85.5654L9.72754 85.2988C9.72954 85.2954 9.73103 85.2917 9.73242 85.2891L9.66699 85.0498L9.59473 84.7832C9.52673 84.531 9.50136 84.2727 9.52051 84.0127L9.55957 83.4795C9.56863 83.3561 9.56322 83.2313 9.54395 83.1064L9.46191 82.5732C9.4258 82.3393 9.41747 82.1035 9.43848 81.8682L9.46289 81.6016L9.48633 81.335C9.49865 81.1968 9.5 81.058 9.48926 80.9199L9.46777 80.6533L9.44727 80.3867C9.42823 80.1416 9.4445 79.8968 9.49414 79.6553L9.54883 79.3887L9.60352 79.1211C9.60765 79.1005 9.60969 79.0735 9.58691 79.0225L9.4668 78.7559L9.34766 78.4893C9.20972 78.1811 9.20113 77.8618 9.30078 77.5664L9.42969 77.7578C9.60326 78.018 9.83465 78.2247 10.1172 78.3643L10.3672 78.4883L10.6182 78.6123C10.7954 78.6998 10.9754 78.783 11.1562 78.8613L11.4014 78.9668C11.4232 78.8711 11.4285 78.7932 11.4199 78.7285L11.3848 78.4648L11.3496 78.2002C11.323 77.9997 11.3068 77.7971 11.3008 77.5938L11.293 77.3252L11.2852 77.0654C11.283 77.061 11.2748 77.0442 11.25 77.0176L10.8145 76.5508C10.6724 76.3983 10.5542 76.2051 10.5029 75.9717C10.4513 75.736 10.4788 75.5075 10.5518 75.3047L10.6553 75.0166L10.7588 74.7295C10.7636 74.7162 10.7656 74.7065 10.7666 74.7012V74.7002L10.6631 74.4541L10.5557 74.2021C10.4673 73.9933 10.4001 73.7781 10.3535 73.5586L10.2979 73.2979L10.2422 73.0361C10.1798 72.7414 10.1955 72.4453 10.2744 72.1592L10.3525 71.8789L10.4209 71.6299L10.2715 71.4043L10.1084 71.1572C9.9372 70.8978 9.83034 70.6039 9.81445 70.2852L9.80176 70.0176L9.78809 69.751C9.7798 69.584 9.76805 69.4167 9.75195 69.251L9.72559 68.9854L9.7002 68.7197C9.68432 68.5564 9.66392 68.393 9.63867 68.2305L9.59766 67.9668L9.55664 67.7021C9.50811 67.3898 9.55061 67.0835 9.66211 66.7959L9.76855 66.5205L9.87598 66.2441C9.902 66.177 9.89891 66.1391 9.89355 66.1143L9.83691 65.8525L9.7793 65.5898C9.76003 65.5013 9.72099 65.4009 9.65234 65.2881L9.49609 65.0303L9.33887 64.7715C9.17845 64.5079 9.0795 64.2134 9.07031 63.8965L9.0625 63.6289L9.05469 63.3623C9.04803 63.1309 9.06718 62.899 9.11133 62.6699L9.16406 62.4014L9.21582 62.1318C9.23541 62.03 9.23685 61.9322 9.22266 61.8359L9.18359 61.5693L9.14355 61.3037C9.10116 61.0173 9.12648 60.7324 9.21094 60.457L9.29297 60.1885L9.375 59.9209C9.41359 59.7952 9.43518 59.6741 9.44141 59.5576L9.45508 59.291L9.46973 59.0244C9.47818 58.8647 9.48656 58.7044 9.49512 58.5439C9.49463 58.5385 9.49364 58.5327 9.49316 58.5273L9.44629 57.9941C9.43599 57.8782 9.41982 57.762 9.40137 57.6455L9.33691 57.5244L9.19238 57.2559C8.98749 56.8736 8.98686 56.4492 9.19336 56.0684L9.18066 55.8379C9.16773 55.6077 9.18037 55.3771 9.21777 55.1484L9.30566 54.6133C9.32992 54.4649 9.34388 54.3171 9.34863 54.1709L9.36621 53.6377C9.37128 53.4836 9.39495 53.333 9.43457 53.1865C9.43509 53.1751 9.43588 53.1637 9.43652 53.1523L9.45215 52.8857L9.4668 52.6191C9.48219 52.3457 9.55189 52.0832 9.66895 51.8359L9.66992 51.832L9.64355 51.7422C9.55749 51.4565 9.53678 51.1599 9.59473 50.8633L9.64551 50.6006L9.69727 50.3379C9.73535 50.143 9.78137 49.949 9.83594 49.7578L9.91016 49.5L9.9834 49.2412C9.99528 49.1991 10.0001 49.1444 9.98047 49.0645L9.91016 48.7803L9.84082 48.4961C9.76271 48.1788 9.77278 47.8514 9.89062 47.5371L9.98633 47.2832L10.0811 47.0283C10.1236 46.9148 10.1514 46.7987 10.1641 46.6797L10.1924 46.4111L10.2207 46.1416C10.2435 45.9274 10.2826 45.7157 10.3369 45.5078L10.4053 45.2471L10.4727 44.9873C10.5164 44.8199 10.5582 44.651 10.5977 44.4824L10.6592 44.2197L10.7207 43.958C10.7739 43.7312 10.8526 43.5117 10.9551 43.3018L11.0742 43.0576L11.1934 42.8125C11.2783 42.6386 11.3679 42.4667 11.4619 42.2979L11.5938 42.0605L11.7266 41.8242C11.8237 41.6499 11.928 41.4783 12.0391 41.3115L12.1904 41.085L12.3408 40.8574C12.3849 40.791 12.4136 40.7202 12.4268 40.6396L12.5146 40.0986C12.5479 39.8948 12.5919 39.6932 12.6455 39.4951L12.7158 39.2334L12.7871 38.9717C12.849 38.7431 12.937 38.5234 13.0508 38.3164L13.1797 38.0811L13.3096 37.8457C13.3718 37.7324 13.4226 37.6116 13.4619 37.4834L13.542 37.2217L13.6221 36.9609C13.7263 36.6212 13.9393 36.3502 14.2197 36.1543L14.4639 35.9834L14.708 35.8135C14.8298 35.7284 14.929 35.6399 15.0088 35.5508L15.1895 35.3486L15.3691 35.1475C15.3934 35.1202 15.4155 35.0838 15.4268 35.0176L15.4746 34.7324L15.5225 34.4482C15.5834 34.089 15.7644 33.7762 16.0566 33.5488L16.2783 33.377L16.499 33.2051C16.5811 33.1412 16.6415 33.0722 16.6855 32.999L16.8223 32.7705L16.96 32.543C17.0212 32.4411 17.0735 32.3255 17.1152 32.1953L17.2021 31.9258L17.2881 31.6562C17.3992 31.3096 17.6229 31.0315 17.9346 30.8467L18.1797 30.7012L18.4258 30.5557C18.4571 30.537 18.4689 30.5215 18.4795 30.4951L18.584 30.2344L18.6895 29.9736C18.7955 29.711 18.9515 29.4767 19.1572 29.2803L19.5459 28.9092C19.6377 28.8215 19.7202 28.7232 19.793 28.6152L19.9443 28.3906L20.0957 28.165C20.2082 27.998 20.3289 27.8358 20.4551 27.6797L20.625 27.4697L20.7949 27.2588C20.9965 27.0097 21.2567 26.8339 21.5518 26.7275L21.8271 26.6289L22.1016 26.5293C22.122 26.5219 22.1298 26.5155 22.1309 26.5146C22.1316 26.514 22.1328 26.5129 22.1338 26.5117C22.1352 26.5101 22.1385 26.5064 22.1416 26.501L22.2812 26.2578L22.4209 26.0137C22.5757 25.744 22.7934 25.5243 23.0664 25.3701L23.3037 25.2354L23.541 25.1016C23.7156 25.003 23.8947 24.911 24.0771 24.8262L24.3252 24.7109L24.5742 24.5947C24.6901 24.5408 24.7943 24.4762 24.8867 24.4023L25.0938 24.2373L25.3008 24.0713C25.3466 24.0345 25.3988 23.9753 25.4482 23.875L25.582 23.6035L25.7168 23.332C25.8534 23.0551 26.048 22.8132 26.3096 22.6348L26.7549 22.332C27.0232 22.1491 27.3276 22.0578 27.6416 22.0391L27.9473 22.0205L28.2529 22.0029C28.3711 21.9958 28.451 21.9701 28.5059 21.9414L28.7412 21.8174L28.9766 21.6943C29.1094 21.6247 29.2385 21.5472 29.3633 21.4629L29.584 21.3145L29.8047 21.165C30.0138 21.0238 30.2416 20.9171 30.4844 20.8467L31.0039 20.6963C31.0071 20.6937 31.0199 20.6827 31.0381 20.6553L31.209 20.3984L31.3789 20.1416C31.5621 19.8654 31.815 19.641 32.1416 19.5176L32.6436 19.3281C32.7878 19.2736 32.9296 19.2117 33.0674 19.1426L33.3066 19.0215L33.5469 18.9014C33.8404 18.7542 34.1573 18.707 34.4736 18.7383L34.7715 18.7676L35.0693 18.7979C35.1885 18.8096 35.28 18.799 35.3506 18.7783L35.6045 18.7031L35.8584 18.6289C35.9791 18.5934 36.0974 18.5452 36.2119 18.4834L36.6846 18.2275C36.8779 18.1233 37.0789 18.0365 37.2861 17.9678L37.5381 17.8838L37.79 17.8008C38.0154 17.7261 38.2484 17.6804 38.4863 17.6641L39.0254 17.627C39.0638 17.6242 39.105 17.6128 39.1582 17.5742L39.3896 17.4062L39.6221 17.2373C39.7923 17.1139 39.9676 16.9979 40.1465 16.8896L40.3896 16.7422L40.6328 16.5957C40.9392 16.4105 41.2845 16.3434 41.6377 16.4004L41.9189 16.4453L42.2002 16.4912C42.2852 16.5048 42.3548 16.4986 42.417 16.4795L42.6748 16.4004L42.9336 16.3203C43.2099 16.2356 43.4954 16.2161 43.7803 16.2588L44.3291 16.3408C44.4892 16.3648 44.6467 16.3809 44.8008 16.3887L45.0693 16.4023L45.3369 16.416C45.4124 16.4197 45.4898 16.4081 45.5732 16.376L45.832 16.2754L46.0918 16.1758C46.3745 16.067 46.6728 16.0305 46.9746 16.0732L47.2422 16.1113L47.5107 16.1494C47.549 16.1548 47.594 16.1521 47.6582 16.124L47.9238 16.0078L48.1895 15.8906C48.2972 15.8434 48.438 15.7898 48.5859 15.7686C48.6748 15.7559 49.037 15.7173 49.3027 16.0029L49.4844 16.0049L49.752 16.0078C49.9649 16.0101 50.178 16.0277 50.3896 16.0615L50.6562 16.1045L50.9229 16.1465C51.0774 16.1711 51.2319 16.1882 51.3857 16.1973L51.9189 16.2285C52.0695 16.2374 52.2206 16.2378 52.3711 16.2295L52.9043 16.2002C53.1012 16.1894 53.2991 16.1871 53.4961 16.1924L54.0293 16.2061C54.1709 16.2098 54.3137 16.2033 54.4561 16.1855L54.9893 16.1191C55.179 16.0955 55.3696 16.0771 55.5596 16.0635L55.8262 16.0439L56.0928 16.0254C56.2742 16.0123 56.4563 16.0003 56.6377 15.9902L57.1709 15.9609C57.4312 15.9466 57.6893 15.9775 57.9404 16.0498L58.208 16.127L58.4746 16.2031C58.5157 16.2149 58.5501 16.2153 58.5947 16.2012L59.1279 16.0312C59.3836 15.95 59.6484 15.9142 59.916 15.9287L60.4492 15.958C60.607 15.9666 60.7652 15.9684 60.9229 15.9639L61.1895 15.9561L61.457 15.9482C61.5973 15.9441 61.7388 15.9287 61.8809 15.9023L62.1475 15.8525L62.4141 15.8037C62.6372 15.7623 62.8624 15.7427 63.0879 15.7461L63.6211 15.7539C63.8455 15.7574 64.0696 15.7832 64.291 15.8301L64.8242 15.9434C65.0382 15.9887 65.2514 16.0512 65.4609 16.1299L65.7275 16.2305L65.9736 16.3232L66.2314 16.1963L66.498 16.0664C66.805 15.9166 67.1452 15.8626 67.4922 15.9365L68.0254 16.0498C68.1288 16.0718 68.2293 16.0769 68.3291 16.0654L68.5957 16.0342L68.8623 16.0039C69.083 15.9785 69.3051 15.973 69.5264 15.9883L70.0596 16.0254C70.184 16.0339 70.3096 16.0283 70.4355 16.0088L70.9688 15.9268C71.2029 15.8906 71.4393 15.8821 71.6748 15.9033L72.208 15.9521C72.4585 15.9748 72.7038 16.0348 72.9404 16.1289L73.207 16.2354L73.3721 16.3018L73.5869 16.1416L73.8535 15.9434L73.9893 15.8545C74.1321 15.7723 74.2986 15.7117 74.4854 15.6963ZM83.9385 48.0176C83.8735 48.204 83.8012 48.3887 83.7207 48.5703L83.502 49.0625C83.4312 49.2221 83.362 49.3825 83.2949 49.543L83.0879 50.0391C83.0371 50.1605 82.9991 50.2852 82.9736 50.4131L82.9209 50.6758L82.8691 50.9385C82.8239 51.1652 82.7534 51.385 82.6592 51.5967L82.4404 52.0889C82.3775 52.2304 82.3226 52.3743 82.2754 52.5195L82.1924 52.7734L82.1104 53.0273C82.1002 53.0587 82.092 53.1106 82.1123 53.2002L82.1787 53.4961L82.2461 53.792C82.3195 54.1159 82.305 54.4525 82.168 54.7725L82.0615 55.0195L81.9561 55.2666C81.9015 55.3939 81.8585 55.5244 81.8271 55.6572L81.7656 55.917L81.7051 56.1768C81.659 56.3718 81.5562 56.5946 81.3467 56.7627C81.1353 56.9322 80.8927 56.9837 80.6865 56.9824L80.4258 56.9814L80.165 56.9795C79.9924 56.9784 79.8175 56.9772 79.6406 56.9766L79.1074 56.9746C79.0116 56.9743 78.9108 56.9901 78.8027 57.0264L78.5361 57.1162L78.2695 57.2051C77.9307 57.3188 77.5809 57.3076 77.251 57.1787L76.9844 57.0742L76.792 56.998L76.5654 57.1475L76.2988 57.3213C75.9953 57.5198 75.6323 57.6229 75.2422 57.5479L74.9756 57.4971L74.709 57.4453C74.4627 57.3979 74.2237 57.3149 73.9941 57.2012L73.7275 57.0684L73.5098 56.96L73.292 57.0684L73.0254 57.2002C72.7428 57.34 72.4329 57.4086 72.1094 57.3779L71.5762 57.3271C71.3999 57.3104 71.2231 57.2941 71.0469 57.2783L70.7803 57.2539L70.5127 57.2305C70.355 57.2164 70.1975 57.2088 70.04 57.208L69.7734 57.207L69.5068 57.2051C69.4278 57.2047 69.3404 57.22 69.2412 57.2598L68.9746 57.3672L68.708 57.4736C68.3739 57.6077 68.0188 57.6186 67.6758 57.499L67.4092 57.4062L67.1416 57.3135C67.0612 57.2855 66.9929 57.2794 66.9287 57.2871L66.3955 57.3516C66.2458 57.3697 66.0948 57.3971 65.9434 57.4336L65.6768 57.4971L65.4102 57.5615C65.0276 57.6537 64.6602 57.5741 64.3457 57.3867L63.8125 57.0684C63.7016 57.0023 63.6091 56.9725 63.5342 56.9609L63.2676 56.9189L63.001 56.8779C62.9144 56.8646 62.8279 56.8676 62.7373 56.8887L62.4707 56.9512L62.2041 57.0127C62.017 57.0562 61.8299 57.0963 61.6426 57.1318L61.1094 57.2334C60.9447 57.2647 60.7794 57.2998 60.6143 57.3408L60.0811 57.4736C59.6767 57.574 59.2961 57.4726 58.9824 57.2637L58.7148 57.0859L58.4482 56.9082C58.41 56.8828 58.3853 56.8725 58.374 56.8691C58.3689 56.8676 58.3656 56.8673 58.3643 56.8672C58.3632 56.8671 58.362 56.8671 58.3613 56.8672L57.8281 56.9062C57.6989 56.9157 57.5676 56.9384 57.4336 56.9756L56.9004 57.124C56.7424 57.1679 56.5349 57.1979 56.3135 57.1436C56.0698 57.0836 55.8695 56.9357 55.7383 56.7324L55.6309 56.5664L55.5244 56.4004C55.509 56.3765 55.4579 56.3127 55.3359 56.2139L55.1045 56.0273L54.874 55.8398C54.5643 55.5889 54.3825 55.2381 54.3701 54.832L54.3623 54.542L54.3555 54.3369L54.1924 54.5381C54.1465 54.5946 54.1344 54.6348 54.1309 54.666L54.1006 54.9336L54.0703 55.2002C54.0593 55.2966 54.0627 55.4078 54.0889 55.5352L54.1494 55.8252L54.209 56.1162C54.2561 56.3462 54.2454 56.6497 54.0459 56.9189C53.8595 57.1702 53.5946 57.2733 53.3975 57.3174L53.0684 57.3906L52.7383 57.4639C52.3466 57.5513 51.9512 57.4947 51.6025 57.2705L51.3359 57.0986L51.1104 56.9541L50.9189 57.0312L50.6523 57.1387C50.3761 57.2494 50.083 57.2957 49.7832 57.2656L49.25 57.2129C49.043 57.1921 48.8362 57.1577 48.6309 57.1113L48.3643 57.0518L48.0977 56.9912C48.0145 56.9724 47.9346 56.9709 47.8535 56.9863L47.5869 57.0381L47.3203 57.0889C47.2039 57.1111 47.0815 57.1502 46.9521 57.21L46.4189 57.4561C45.993 57.6526 45.5533 57.5874 45.1924 57.3467L44.9258 57.1689L44.7422 57.0459L44.582 57.1299L44.3154 57.2686C43.9465 57.4605 43.5363 57.4747 43.1533 57.2959L42.8867 57.1719L42.6191 57.0469C42.5054 56.9938 42.418 56.9737 42.3535 56.9688L42.1064 56.9492L41.8594 56.9307C41.6516 56.9149 41.4266 56.8423 41.2373 56.6729C41.0524 56.5071 40.9576 56.299 40.9121 56.1123L40.8486 55.8525L40.7861 55.5938C40.7491 55.4415 40.7048 55.2905 40.6543 55.1416L40.4824 54.6357C40.4104 54.4233 40.3599 54.2042 40.3301 53.9814L40.2939 53.7158L40.2588 53.4492C40.2221 53.1749 40.2419 52.8993 40.3066 52.6289L40.377 52.335L40.415 52.1748L40.251 52.0381L40 51.8281C39.8437 51.6976 39.7023 51.5263 39.6182 51.3076C39.5325 51.0848 39.523 50.8554 39.5664 50.6406L39.625 50.3496L39.6797 50.0732L39.5283 49.8623L39.3604 49.6299C39.2126 49.4258 39.0938 49.2062 39.0088 48.9727L38.917 48.7217L38.9092 48.7002L38.8076 48.8486L38.6484 49.0811C38.5957 49.1581 38.5663 49.231 38.5527 49.3037L38.4551 49.8311C38.4035 50.1081 38.2938 50.3646 38.1357 50.5967L37.9775 50.8291L37.8506 51.0137L37.9355 51.2949L38.0264 51.5967C38.1252 51.9264 38.1325 52.2825 37.9902 52.625L37.8867 52.873L37.7842 53.1211C37.7155 53.2864 37.6458 53.4519 37.5771 53.6172L37.4746 53.8652L37.3711 54.1133C37.3133 54.2525 37.264 54.3946 37.2236 54.5381L37.1514 54.7939L37.0791 55.0508C37.0538 55.1407 37.043 55.2406 37.0498 55.3535L37.0664 55.6357L37.084 55.917C37.0975 56.1406 37.0498 56.3738 36.918 56.585C36.7898 56.79 36.6109 56.9292 36.4326 57.0215L36.1465 57.1689L35.8613 57.3164C35.5827 57.4605 35.2749 57.5456 34.9492 57.5303L34.416 57.5049C34.2082 57.4951 34.0005 57.4725 33.7939 57.4365L33.5273 57.3906L33.2607 57.3438C33.113 57.318 32.9658 57.3021 32.8193 57.2959L32.5527 57.2842L32.2861 57.2734C32.1627 57.2682 32.0381 57.2765 31.9121 57.2998L31.6455 57.3496L31.3789 57.3984C31.0221 57.4645 30.6797 57.3937 30.377 57.2295L30.1104 57.084L29.8438 56.9395C29.8175 56.9252 29.8036 56.9231 29.8018 56.9229H29.8008L29.5342 56.9805L29.2676 57.0391C29.2453 57.0439 29.2321 57.049 29.2256 57.0518L29.0898 57.208L28.9473 57.3691L28.9365 57.4238L28.9062 57.6924L28.876 57.96C28.8733 57.9846 28.8747 58.0202 28.9062 58.0801L29.1816 58.6016C29.3965 59.0099 29.3636 59.448 29.1475 59.8232L28.9893 60.0986L28.8311 60.373C28.7856 60.452 28.7896 60.4858 28.79 60.4902L28.8164 60.7568L28.8418 61.0225C28.8485 61.0907 28.8719 61.1715 28.9258 61.2666L29.0723 61.5244L29.2188 61.7832C29.343 62.0027 29.439 62.232 29.5029 62.4697L29.5732 62.7324L29.6445 62.9941C29.7423 63.3584 29.6851 63.7155 29.5293 64.0322L29.3926 64.3096L29.2568 64.5869C29.2401 64.6209 29.2354 64.6414 29.2344 64.6484C29.2337 64.6535 29.2339 64.6559 29.2344 64.6582L29.2939 64.9219L29.3525 65.1846C29.3924 65.3631 29.4305 65.5423 29.4678 65.7207L29.5234 65.9834L29.5781 66.2471C29.6206 66.4506 29.6509 66.656 29.668 66.8623L29.6895 67.1279L29.7109 67.3945C29.7272 67.5926 29.7347 67.7917 29.7334 67.9912L29.7324 68.2598L29.7305 68.5283C29.7293 68.7047 29.7289 68.8813 29.7295 69.0576L29.7314 69.5947C29.7317 69.6479 29.7439 69.7076 29.7832 69.7803L29.9199 70.0332L30.0566 70.2852C30.2117 70.5723 30.2808 70.8902 30.2471 71.2207L30.2188 71.4932L30.1914 71.7646C30.1776 71.9001 30.1769 72.0324 30.1895 72.1611L30.2158 72.4268L30.2412 72.6924C30.2464 72.7444 30.2655 72.8072 30.3164 72.8857L30.6367 73.3799C30.8404 73.6939 30.9173 74.0583 30.8408 74.4336L30.7275 74.9883C30.7069 75.0897 30.7071 75.178 30.7217 75.2578L30.7695 75.5195L30.8174 75.7822C30.8388 75.8988 30.8752 76.0157 30.9277 76.1328L31.04 76.3838L31.1533 76.6357C31.2779 76.9139 31.3275 77.211 31.3008 77.5146L31.2773 77.7891L31.2529 78.0635C31.2469 78.1328 31.2564 78.1926 31.2812 78.252L31.4922 78.7539C31.6098 79.0347 31.6512 79.3319 31.6191 79.6328L31.5889 79.9111L31.5596 80.1885C31.5473 80.304 31.5529 80.4102 31.5732 80.5088L31.627 80.7705L31.6807 81.0312C31.7067 81.1574 31.7462 81.2821 31.7988 81.4043L31.9053 81.6523L32.0127 81.9014C32.1018 82.1085 32.1703 82.3228 32.2178 82.542L32.3311 83.0635C32.3825 83.3009 32.4008 83.544 32.3887 83.7891L32.3613 84.3457C32.3564 84.4453 32.3694 84.5326 32.3965 84.6123L32.4834 84.8662L32.5693 85.1191C32.6036 85.2193 32.6548 85.3204 32.7266 85.4219L32.8896 85.6523L33.0537 85.8838C33.1834 86.0671 33.2971 86.2574 33.3936 86.4541L33.5117 86.6963L33.6309 86.9375C33.7278 87.1352 33.8067 87.3397 33.8672 87.5498L33.9404 87.8047L34.0137 88.0586C34.0755 88.2734 34.116 88.4945 34.1357 88.7197L34.1592 88.9912L34.1836 89.2627C34.194 89.3814 34.2187 89.4929 34.2578 89.5977L34.3516 89.8467L34.4443 90.0967C34.494 90.2297 34.5535 90.3595 34.623 90.4854L34.8828 90.9541C35.0073 91.1793 35.0928 91.4212 35.1387 91.6748L35.1875 91.9424L35.2354 92.2109C35.2705 92.4053 35.3003 92.6034 35.3232 92.8047L35.3545 93.085L35.3867 93.3643C35.3958 93.4431 35.4193 93.5034 35.4541 93.5557L35.6045 93.7812L35.7539 94.0059C35.8796 94.1946 35.9859 94.395 36.0723 94.6045L36.1758 94.8535L36.2783 95.1035C36.3383 95.249 36.4049 95.392 36.4785 95.5312L36.6055 95.7705L36.7314 96.0088C36.7783 96.0973 36.8393 96.1788 36.918 96.2529L37.3203 96.6318C37.512 96.8127 37.6702 97.0219 37.791 97.2559L37.917 97.498L38.042 97.7412C38.0937 97.8412 38.1583 97.9303 38.2354 98.0098L38.4238 98.2041L38.6133 98.3994C38.6717 98.4595 38.7449 98.5124 38.8408 98.5547L39.1035 98.6699L39.3662 98.7861C39.5223 98.8549 39.7346 98.9583 39.8984 99.1162L39.9648 99.1875L40.0469 99.2832L40.1279 99.3789C40.1518 99.407 40.1903 99.4558 40.2256 99.5205C40.254 99.5727 40.3263 99.7164 40.3164 99.9121C40.3031 100.169 40.1573 100.384 39.957 100.5C39.8036 100.589 39.6591 100.598 39.6045 100.6C39.485 100.603 39.3827 100.577 39.3418 100.566C39.2853 100.552 39.2277 100.534 39.1748 100.515L38.9209 100.424L38.666 100.333C38.5421 100.289 38.416 100.257 38.2871 100.239L38.0205 100.202L37.7549 100.165C37.7367 100.163 37.6838 100.16 37.5801 100.207L37.2822 100.341L36.9834 100.476C36.6732 100.615 36.3227 100.676 35.9629 100.587L35.4453 100.458C35.1932 100.395 34.9554 100.29 34.7344 100.149L34.25 99.8408C34.1582 99.7825 34.0731 99.7507 33.9932 99.7354L33.7314 99.6846L33.4697 99.6348C33.2334 99.5894 33.0049 99.513 32.7861 99.4082L32.5371 99.2891L32.3086 99.1787C32.3053 99.1797 32.3014 99.181 32.2969 99.1826L32.0049 99.2881L31.7139 99.3936C31.4943 99.4728 31.2667 99.4937 31.0449 99.4561L31.1426 99.6514L31.2803 99.9277C31.4419 100.251 31.7028 100.514 32.0654 100.647L32.5791 100.837C32.6878 100.877 32.7862 100.93 32.875 100.996L33.0908 101.156L33.3076 101.316C33.4717 101.438 33.6419 101.551 33.8174 101.654L34.0479 101.79L34.2793 101.926C34.5223 102.069 34.7877 102.155 35.0664 102.19L35.3516 102.226L35.6357 102.262C35.6926 102.269 35.7246 102.286 35.751 102.309L35.958 102.488L36.165 102.667C36.3353 102.814 36.5174 102.946 36.71 103.059L36.9414 103.193L37.1719 103.329C37.377 103.449 37.5954 103.543 37.8242 103.609L38.3438 103.76C38.5085 103.808 38.6722 103.858 38.833 103.911L39.3408 104.079C39.4133 104.103 39.4853 104.143 39.5576 104.207L39.7686 104.395L39.9805 104.582C40.1636 104.744 40.3631 104.882 40.5781 104.992L40.8174 105.114L41.0566 105.237C41.2517 105.337 41.455 105.421 41.6641 105.486L41.9209 105.566L42.1768 105.647C42.3799 105.711 42.5879 105.761 42.7988 105.796L43.0664 105.841L43.334 105.885C43.474 105.908 43.6099 105.942 43.7412 105.987L44.249 106.161C44.3646 106.201 44.4783 106.254 44.5889 106.323L44.8223 106.47L45.0557 106.617C45.2797 106.758 45.523 106.857 45.7812 106.913L46.3086 107.026C46.5544 107.079 46.8056 107.095 47.0586 107.075L47.3408 107.054L47.624 107.031C47.7321 107.023 47.8258 107.034 47.9092 107.059L48.165 107.133L48.4219 107.207C48.606 107.261 48.7918 107.309 48.9785 107.352L49.2383 107.411L49.498 107.47C49.618 107.497 49.737 107.539 49.8555 107.596L50.1035 107.714L50.3506 107.832C50.6558 107.978 50.9843 108.017 51.3115 107.959L51.5938 107.908L51.876 107.858C51.8832 107.857 51.8879 107.857 51.8896 107.856C51.8911 107.857 51.8947 107.86 51.9004 107.863L52.3867 108.166C52.7159 108.371 53.0902 108.426 53.4619 108.332L53.7451 108.261L54.0273 108.189C54.1627 108.155 54.2867 108.14 54.3994 108.141L54.666 108.143L54.9336 108.145C54.9403 108.145 54.9678 108.144 55.0273 108.188L55.2725 108.369L55.5186 108.55C55.8262 108.777 56.2 108.881 56.5977 108.803L56.8711 108.749L57.1455 108.694C57.271 108.67 57.39 108.662 57.5029 108.669L57.7686 108.687L58.0342 108.703C58.1881 108.713 58.3422 108.73 58.4951 108.755L58.7588 108.798L59.0225 108.84C59.2305 108.873 59.4401 108.892 59.6504 108.896L59.917 108.902L60.1826 108.907C60.2934 108.909 60.4069 108.927 60.5234 108.962L60.7881 109.041L61.0518 109.119C61.2491 109.178 61.448 109.228 61.6475 109.267L61.9121 109.318L62.1777 109.37C62.3734 109.408 62.5706 109.439 62.7686 109.461L63.0371 109.49L63.3047 109.521C63.6417 109.558 63.9635 109.484 64.252 109.332L64.7871 109.049C64.9103 108.984 65.0217 108.946 65.1201 108.928L65.6494 108.828C65.8042 108.799 65.9589 108.778 66.1123 108.764L66.376 108.738L66.6406 108.714C66.7734 108.702 66.908 108.701 67.0439 108.713L67.5791 108.76C67.8131 108.78 68.0468 108.773 68.2783 108.737L68.541 108.696L68.8037 108.656C68.9135 108.639 69.0268 108.638 69.1445 108.651L69.415 108.683L69.6846 108.715C69.7988 108.728 69.924 108.759 70.0596 108.812L70.3389 108.92L70.6182 109.029C70.9526 109.16 71.314 109.175 71.665 109.043L71.9238 108.945L72.1816 108.848C72.3303 108.792 72.4791 108.744 72.627 108.706L72.8877 108.639L73.1475 108.571C73.3313 108.524 73.5148 108.472 73.6963 108.416L73.9541 108.337L74.2109 108.258C74.3156 108.226 74.4229 108.209 74.5342 108.208L75.0752 108.204C75.232 108.203 75.392 108.209 75.5537 108.224L75.8291 108.248L76.1055 108.272C76.3491 108.294 76.5917 108.285 76.8311 108.243L77.0967 108.197L77.3613 108.15C77.7284 108.087 78.026 107.888 78.2539 107.632L78.6895 107.142C78.7205 107.107 78.7414 107.092 78.749 107.087H78.7471L79.0107 107.046L79.2744 107.006C79.3499 106.994 79.4442 106.995 79.5625 107.022L79.8555 107.091L80.1494 107.158C80.5542 107.251 80.956 107.163 81.2822 106.891L81.5068 106.704L81.7314 106.517C81.8412 106.425 81.9499 106.354 82.0557 106.302L82.2969 106.184L82.5381 106.064C82.5555 106.056 82.5856 106.045 82.6523 106.055L83.2402 106.143C83.548 106.189 83.8593 106.161 84.1553 106.041L84.4033 105.94L84.6514 105.839C84.749 105.799 84.8546 105.774 84.9697 105.764L85.5205 105.715C85.8639 105.684 86.1709 105.545 86.4229 105.317L86.6357 105.125L86.8486 104.934C86.8634 104.92 86.8734 104.916 86.877 104.914C86.8802 104.913 86.8883 104.91 86.9043 104.909L87.1855 104.895L87.4678 104.88C87.8366 104.861 88.1647 104.711 88.4219 104.452L88.625 104.247L88.8291 104.042C88.9097 103.961 88.9889 103.907 89.0654 103.872L89.3066 103.762L89.5488 103.651C89.7749 103.548 89.9828 103.411 90.1709 103.246L90.3779 103.063L90.5859 102.881C90.6538 102.821 90.7238 102.783 90.7979 102.759L91.0527 102.677L91.3066 102.594C91.4414 102.55 91.5854 102.516 91.7373 102.49L92.0146 102.443L92.292 102.397C92.5838 102.349 92.8562 102.236 93.0947 102.057L93.3096 101.895L93.5244 101.733C93.5688 101.7 93.6255 101.673 93.708 101.66L93.9922 101.615L94.2754 101.569C94.5413 101.527 94.7952 101.443 95.0293 101.312L95.2637 101.18L95.498 101.049C95.7623 100.901 95.9756 100.692 96.1396 100.442L96.4619 99.9521C96.5352 99.8408 96.6135 99.754 96.6924 99.6875L97.1006 99.3438C97.1254 99.3229 97.1673 99.2979 97.25 99.2852L97.5459 99.2393L97.8408 99.1943C98.1296 99.15 98.4037 99.0499 98.6484 98.8848L98.8545 98.7451C98.8277 98.7493 98.8027 98.7579 98.7773 98.7695L98.2793 99C98.0399 99.1105 97.7868 99.178 97.5244 99.2002L97.2578 99.2227L96.9902 99.2451C96.7935 99.2617 96.5955 99.2713 96.3965 99.2725L96.125 99.2734L95.8545 99.2754C95.7664 99.2759 95.6829 99.2926 95.5996 99.3271L95.3477 99.4316L95.0957 99.5352C94.8249 99.6473 94.539 99.6935 94.2471 99.6729L93.6982 99.6338L93.6973 99.6348C93.6931 99.6371 93.6853 99.6422 93.6748 99.6504L93.4375 99.8359L93.2012 100.021C92.9373 100.227 92.6232 100.355 92.2734 100.363L92.0039 100.369L91.7344 100.376C91.5098 100.381 91.2827 100.366 91.0557 100.33L90.7754 100.286L90.5088 100.245L90.2803 100.418L90.0449 100.595C89.8486 100.742 89.6405 100.866 89.4219 100.963L88.9277 101.182C88.8687 101.208 88.7743 101.246 88.666 101.266C88.6119 101.275 88.5168 101.287 88.4033 101.27C88.2846 101.251 88.1029 101.193 87.9561 101.024C87.8076 100.854 87.7739 100.662 87.7744 100.535C87.775 100.416 87.8043 100.321 87.8232 100.269C87.8611 100.163 87.9154 100.076 87.9512 100.022L88.1006 99.7998L88.25 99.5781C88.3197 99.4743 88.3818 99.3558 88.4355 99.2217L88.542 98.9561L88.6484 98.6895C88.7353 98.4726 88.8403 98.2682 88.9639 98.0791L89.251 97.6396C89.4505 97.3344 89.7433 97.142 90.0596 97.0312L90.3633 96.9248L90.4844 96.8818L90.4824 96.751L90.4756 96.4287C90.4682 96.0639 90.5744 95.6952 90.8545 95.4033L91.043 95.208L91.2305 95.0127C91.3401 94.8985 91.4442 94.7795 91.542 94.6562L91.709 94.4443L91.877 94.2334C91.9894 94.0917 92.1029 93.9489 92.2178 93.8057L92.3896 93.5918L92.5605 93.3779C92.6376 93.2818 92.7002 93.181 92.748 93.0742L92.9668 92.584C92.9848 92.5437 92.9992 92.4842 92.9912 92.3896L92.9404 91.79C92.9097 91.4302 92.9977 91.0773 93.2275 90.7773L93.3955 90.5576L93.5645 90.3369C93.609 90.2787 93.6332 90.2213 93.6445 90.1582L93.7402 89.625C93.7889 89.353 93.8899 89.098 94.04 88.8662L94.1895 88.6367L94.3389 88.4062C94.364 88.3673 94.3762 88.3285 94.377 88.2754L94.3809 87.998L94.3838 87.7197C94.3871 87.4672 94.4265 87.2194 94.5029 86.9805L94.584 86.7275L94.665 86.4736C94.7408 86.2373 94.851 86.0146 94.9912 85.8066L95.3057 85.3398C95.3936 85.2094 95.4707 85.077 95.5371 84.9434L95.7793 84.4551C95.8003 84.4127 95.8107 84.3676 95.8057 84.3047L95.7832 84.0234L95.7598 83.7422C95.7373 83.4659 95.7674 83.1918 95.8535 82.9277L96.0195 82.418C96.0457 82.3376 96.0573 82.2513 96.0508 82.1543L96.0312 81.877L96.0127 81.6006C95.9967 81.3633 96.0072 81.1271 96.0459 80.8955L96.0898 80.6338L96.1338 80.3711C96.1774 80.1101 96.268 79.8628 96.3984 79.6318L96.5361 79.3877L96.6748 79.1426C96.7408 79.0257 96.7898 78.909 96.8232 78.793L96.9717 78.2773C97.0233 78.0983 97.0781 77.9193 97.1357 77.7412L97.2188 77.4844L97.2979 77.2393C97.2963 77.2316 97.2924 77.2154 97.2812 77.1904L97.1494 76.8975L97.0186 76.6055C96.9309 76.4107 96.8814 76.1822 96.915 75.9375C96.9489 75.6915 97.0593 75.4841 97.2012 75.3193L97.4053 75.0811L97.5244 74.9424L97.4531 74.7754L97.3291 74.4883C97.2405 74.2824 97.1988 74.0423 97.25 73.79C97.3007 73.541 97.4298 73.3402 97.5791 73.1865L97.8096 72.9492L98.0039 72.748L97.9648 72.5674L97.9043 72.29C97.8473 72.0303 97.833 71.7666 97.8672 71.5039L97.9014 71.2402L97.9355 70.9756C97.9666 70.7376 98.0288 70.5051 98.1191 70.2803L98.3262 69.7666C98.3778 69.6383 98.4143 69.5097 98.4375 69.3828L98.4854 69.1201L98.5332 68.8564V68.8545C98.5332 68.8536 98.5332 68.8499 98.5322 68.8447C98.5302 68.8339 98.524 68.8085 98.5029 68.7686L98.2041 68.2021C98.1017 68.0082 98.0377 67.7759 98.0645 67.5215C98.0913 67.2674 98.202 67.0538 98.3408 66.8857L98.5459 66.6367L98.752 66.3877C98.7544 66.3848 98.756 66.3814 98.7578 66.3789L98.7266 66.1465L98.6895 65.875C98.656 65.6315 98.6551 65.3869 98.6885 65.1445L98.7256 64.8789L98.7617 64.6143C98.7728 64.5339 98.7689 64.4474 98.7441 64.3506L98.6738 64.0781L98.6045 63.8057C98.5448 63.573 98.5118 63.3372 98.5078 63.1006L98.5029 62.833L98.498 62.5664C98.4945 62.3572 98.5054 62.148 98.5293 61.9404L98.5596 61.6758L98.5898 61.4102C98.6147 61.1942 98.6584 60.9801 98.7188 60.7686L98.793 60.5059L98.8682 60.2422C98.9139 60.082 98.9548 59.9214 98.9893 59.7607L99.1025 59.2314C99.1108 59.193 99.1107 59.1485 99.0879 59.085L98.8926 58.5439C98.7878 58.2525 98.758 57.9452 98.8164 57.6357L98.8662 57.3701L98.8867 57.2588L98.8496 57.2295L98.6309 57.2666L98.3643 57.3105C98.1487 57.3463 97.932 57.3642 97.7148 57.3643H97.1816C96.9513 57.3643 96.7219 57.339 96.4951 57.2891L95.9619 57.1719C95.956 57.1705 95.9419 57.1646 95.8955 57.1875L95.6289 57.3193L95.3623 57.4502C94.9549 57.6509 94.5205 57.6169 94.1475 57.3916L93.8799 57.2305L93.626 57.0771L93.4053 57.1514L93.1387 57.2393C92.81 57.3483 92.47 57.3446 92.1445 57.2295L91.6113 57.04C91.5466 57.0171 91.4954 57.0152 91.4463 57.0244L91.1797 57.0742L90.9131 57.125C90.6844 57.1679 90.453 57.1852 90.2217 57.1768L89.6885 57.1572C89.4838 57.1497 89.279 57.1303 89.0752 57.0996L88.542 57.0195C88.4414 57.0044 88.3418 57.0053 88.2402 57.0234L87.707 57.1191C87.4175 57.1709 87.1185 57.1537 86.832 57.041L86.6094 56.9531L86.3877 56.8662C86.1682 56.7798 85.9574 56.6132 85.8428 56.3496C85.7374 56.1072 85.7504 55.866 85.7861 55.6865L85.8438 55.3965L85.8936 55.1455L85.7344 54.9531L85.5469 54.7266C85.3086 54.4381 85.1918 54.0854 85.2246 53.7041L85.2734 53.1396C85.2862 52.9921 85.285 52.8508 85.2725 52.7158L85.248 52.4463L85.2227 52.1768C85.2181 52.1281 85.2024 52.0782 85.1611 52.0195L84.9971 51.7861L84.833 51.5537C84.6996 51.3644 84.5852 51.1662 84.4912 50.96L84.2666 50.4678C84.1668 50.2487 84.0963 50.0189 84.0557 49.7822L84.0098 49.5186L83.9648 49.2549C83.9193 48.9888 83.9255 48.7191 83.9746 48.4521L84.0273 48.1631L84.0742 47.9092L84.0049 47.8262L83.9385 48.0176Z" fill="#303A4B"/>
</g>
<defs>
<clipPath id="clip0_395_2728">
<rect width="128" height="128" fill="white"/>
</clipPath>
</defs>
</svg>
