<svg width="128" height="128" viewBox="0 0 128 128" fill="none" xmlns="http://www.w3.org/2000/svg">
<g clip-path="url(#clip0_395_3029)">
<path d="M77.7969 10.4604C78.1109 10.3729 78.4351 10.3751 78.749 10.4761L79.0137 10.562L79.2793 10.647C79.5651 10.7391 79.8173 10.8952 80.0322 11.1021L80.2451 11.3071L80.459 11.5122C80.4599 11.5129 80.4612 11.5135 80.4619 11.5142L80.4648 11.5151L80.7607 11.5112L81.0557 11.5073C81.4015 11.5031 81.7343 11.6042 82.0156 11.8267L82.2305 11.9966L82.4443 12.1665C82.5749 12.2698 82.7091 12.3685 82.8457 12.4624L83.2949 12.771C83.4992 12.9115 83.6821 13.0787 83.8398 13.27L84.0127 13.48L84.1865 13.6909C84.3489 13.888 84.4782 14.1069 84.5732 14.3442L84.7783 14.856C84.8163 14.9506 84.866 15.0298 84.9268 15.0972L84.9629 15.1372L85.0625 15.0386L85.1875 14.9292C85.4464 14.7298 85.7565 14.6488 86.0752 14.686L86.2344 14.7144L86.5312 14.7847L86.8281 14.856C86.8301 14.8563 86.8325 14.8557 86.834 14.856L87.082 14.7007L87.333 14.5425L87.4736 14.4653C87.6202 14.3967 87.7851 14.3541 87.9629 14.353C88.1395 14.3521 88.303 14.3912 88.4482 14.4546L88.5869 14.5259L88.8545 14.6812L89.1221 14.8354C89.1853 14.8721 89.2117 14.8693 89.2168 14.8687L89.4834 14.8384L89.751 14.8071C89.9229 14.7873 90.1044 14.7646 90.293 14.7388L90.583 14.6987L90.874 14.6587C91.1788 14.6171 91.4831 14.6474 91.7734 14.7573L92.0342 14.856L92.2949 14.9556C92.5897 15.0673 92.84 15.2506 93.0391 15.4907L93.2256 15.7163L93.4131 15.9419C93.4746 16.016 93.5364 16.0617 93.5986 16.0903L94.0967 16.3188C94.465 16.4882 94.7037 16.7932 94.8174 17.1548L94.999 17.731C95.0188 17.7938 95.0371 17.8036 95.0381 17.8042L95.2568 17.9575L95.4746 18.1108C95.7042 18.272 95.8929 18.4768 96.0322 18.7212L96.1611 18.9487L96.291 19.1753C96.4072 19.3793 96.4951 19.5966 96.5547 19.8237L96.8281 19.7212C97.1101 19.6149 97.4038 19.5482 97.6973 19.5522L98.2402 19.5601C98.326 19.5612 98.4086 19.5461 98.4912 19.5132L98.7451 19.4116L99 19.3101C99.2248 19.2202 99.4591 19.1591 99.6992 19.1284L99.9697 19.0933L100.241 19.0591C100.457 19.0316 100.675 19.0197 100.894 19.0239L101.171 19.0298L101.448 19.0347C101.72 19.0401 101.985 19.0952 102.236 19.1978L102.493 19.3022L102.749 19.4067C102.93 19.4805 103.109 19.5583 103.284 19.6392L103.778 19.8677C104.001 19.9705 104.207 20.1007 104.395 20.2583L104.812 20.6099C104.949 20.7247 105.085 20.8374 105.219 20.9468L105.424 21.1147L105.629 21.2817C105.83 21.4457 105.999 21.6408 106.133 21.8628L106.41 22.3237C106.486 22.45 106.568 22.5656 106.653 22.6704L106.814 22.8687L106.977 23.0659C107.092 23.2075 107.204 23.3531 107.312 23.5015L107.464 23.7095L107.616 23.9175C107.69 24.0179 107.781 24.1208 107.891 24.2251L108.305 24.6177C108.544 24.8445 108.691 25.1336 108.728 25.4585L108.736 25.6001L108.742 26.1567C108.743 26.2528 108.762 26.3393 108.795 26.4194L109.004 26.9194C109.11 27.174 109.164 27.4467 109.177 27.7261L109.183 27.8657L109.192 27.8647C109.441 27.8224 109.693 27.8176 109.942 27.8521L110.208 27.8892L110.473 27.9253C110.687 27.9549 110.898 28.0018 111.105 28.0649L111.362 28.1431L111.62 28.2222C111.796 28.2757 111.973 28.3315 112.15 28.3892L112.41 28.4731L112.671 28.5581C112.958 28.6514 113.21 28.811 113.418 29.0288L113.609 29.229L113.801 29.4302C113.962 29.599 114.105 29.7825 114.228 29.98L114.371 30.2134L114.516 30.4468C114.594 30.5725 114.675 30.684 114.76 30.7817L114.927 30.9741L115.093 31.1665C115.149 31.2314 115.226 31.2972 115.33 31.3599L115.574 31.5054L115.817 31.6519C116.055 31.7943 116.261 31.9763 116.428 32.1978L116.592 32.4165L116.756 32.6343C116.98 32.9325 117.065 33.2826 117.033 33.6382L117.006 33.9331L116.979 34.2271C116.977 34.2498 116.98 34.2619 116.98 34.2651C116.981 34.2669 116.983 34.2716 116.988 34.2798L117.309 34.7388C117.509 35.0259 117.603 35.3618 117.567 35.7163L117.54 35.9868L117.514 36.2563C117.496 36.4344 117.479 36.61 117.463 36.7808L117.438 37.0405L117.423 37.2075L117.61 37.3794L117.834 37.5854C117.982 37.7214 118.12 37.8475 118.247 37.9634L118.439 38.1392L118.632 38.314C118.76 38.4311 118.887 38.5477 119.013 38.6626L119.388 39.0063C119.41 39.0271 119.465 39.0648 119.582 39.0962L120.191 39.2583C120.396 39.313 120.609 39.4202 120.777 39.6108C120.905 39.7552 120.983 39.9198 121.023 40.0845L121.053 40.2495L121.086 40.5503L121.119 40.8501L121.342 41.0181L121.574 41.1948C121.93 41.4654 122.099 41.8679 122.052 42.3071L122.021 42.6011L121.988 42.895C121.979 42.9854 121.992 43.0404 122.007 43.0757L122.109 43.3169L122.213 43.5581C122.295 43.7515 122.363 43.9516 122.416 44.1567L122.482 44.4146L122.55 44.6724C122.633 44.9949 122.608 45.3205 122.489 45.6255L122.389 45.8843L122.307 46.0962L122.464 46.3862L122.62 46.6772C122.72 46.8623 122.792 47.0923 122.771 47.3491C122.748 47.6121 122.633 47.8334 122.481 48.0034L122.281 48.229L122.081 48.4536C122.067 48.4693 122.062 48.4799 122.061 48.4829C122.06 48.4839 122.059 48.4862 122.059 48.4878C122.058 48.49 122.058 48.4947 122.058 48.5005L122.056 48.7896L122.054 49.0796C122.05 49.4981 121.861 49.8608 121.528 50.1079L121.294 50.2827L121.152 50.3862L121.273 50.4438C121.417 50.5116 121.565 50.5741 121.72 50.6294L121.984 50.7231L122.248 50.8179C122.629 50.9543 122.896 51.234 123.048 51.5825L123.294 52.1489C123.296 52.1526 123.298 52.1562 123.299 52.1587L123.563 52.2612L123.835 52.3657L123.978 52.4302C124.251 52.5735 124.454 52.8018 124.564 53.0894L124.612 53.2388L124.686 53.522L124.759 53.8042C124.794 53.9416 124.84 54.055 124.891 54.147L125.017 54.3735L125.143 54.5991C125.214 54.728 125.294 54.8563 125.382 54.9819L125.687 55.4175C125.852 55.6548 125.957 55.9224 125.996 56.2095L126.032 56.4712L126.068 56.7339C126.08 56.8179 126.107 56.9052 126.157 56.9966L126.427 57.4868C126.616 57.832 126.642 58.2158 126.512 58.5815L126.32 59.1187C126.29 59.2042 126.284 59.2743 126.29 59.3345L126.347 59.8599C126.363 60.0125 126.389 60.176 126.423 60.3491L126.536 60.9233C126.618 61.3399 126.502 61.7391 126.216 62.0483L126.015 62.2642L125.814 62.481C125.787 62.5106 125.781 62.53 125.778 62.5581L125.755 62.8462L125.731 63.1333C125.708 63.4289 125.621 63.7115 125.468 63.9673L125.325 64.2036L125.184 64.4399C125.018 64.7153 124.784 64.9287 124.504 65.0757L123.988 65.3452C123.884 65.4 123.806 65.4616 123.748 65.5249L123.391 65.9175C123.281 66.0383 123.173 66.1474 123.075 66.2456L123.176 66.3569C123.358 66.5595 123.499 66.7912 123.595 67.0464L123.788 67.562C123.868 67.7755 123.928 67.9952 123.966 68.2192L124.011 68.4888L124.057 68.7583C124.091 68.9638 124.114 69.1701 124.125 69.3755L124.139 69.6421L124.153 69.9087C124.163 70.0972 124.168 70.2853 124.169 70.4702L124.17 70.73L124.171 70.9907C124.171 71.1045 124.185 71.2239 124.216 71.3481L124.282 71.6138L124.348 71.8794C124.413 72.1448 124.427 72.4165 124.386 72.687L124.345 72.9517L124.305 73.2163C124.264 73.4837 124.173 73.7375 124.035 73.9702L123.896 74.2036L123.758 74.438C123.682 74.5666 123.617 74.6961 123.563 74.8237L123.463 75.063L123.363 75.3022C123.273 75.5178 123.155 75.72 123.014 75.9058L122.919 76.0288L122.97 76.0796C123.155 76.2638 123.296 76.4872 123.403 76.7251L123.526 76.9956L123.648 77.2671C123.711 77.4053 123.778 77.5172 123.847 77.6069L124.005 77.814L124.162 78.022C124.176 78.0396 124.213 78.0781 124.313 78.1187L124.605 78.2368L124.896 78.355C125.093 78.4348 125.29 78.5675 125.434 78.7749C125.542 78.9313 125.6 79.1013 125.623 79.2681L125.635 79.4341L125.637 79.7397L125.638 80.0454C125.638 80.1733 125.659 80.2631 125.685 80.3247L125.784 80.5649L125.883 80.8042C125.94 80.9423 126.005 81.0831 126.08 81.2251L126.207 81.4673L126.333 81.7085C126.486 81.9997 126.543 82.3196 126.499 82.646L126.462 82.9155L126.425 83.1841C126.414 83.2663 126.419 83.3509 126.443 83.4409L126.517 83.7104L126.589 83.98C126.657 84.2311 126.685 84.489 126.672 84.7485L126.657 85.0249L126.644 85.3013C126.629 85.5828 126.557 85.8536 126.432 86.106L126.309 86.354L126.185 86.6021C126.123 86.7262 126.073 86.857 126.035 86.9927L125.885 87.5298C125.773 87.9275 125.502 88.2146 125.157 88.3833L124.879 88.519L124.665 88.6226L124.634 88.8794L124.594 89.1987C124.565 89.4273 124.471 89.6802 124.257 89.8784C124.046 90.0731 123.792 90.1477 123.572 90.1665L123.236 90.1948L122.9 90.2241C122.866 90.227 122.845 90.2327 122.835 90.2358L122.717 90.3657L122.746 90.4048L122.938 90.6597C122.985 90.7215 123.023 90.7405 123.055 90.7505L123.334 90.8384L123.614 90.9253C123.932 91.0245 124.198 91.2208 124.374 91.5063L124.443 91.6343L124.563 91.8853L124.684 92.1353C124.727 92.2254 124.782 92.3025 124.852 92.3687L125.051 92.5581L125.249 92.7476C125.516 93.0025 125.661 93.3309 125.685 93.6909L125.703 93.9761L125.722 94.2622C125.727 94.3401 125.747 94.3945 125.775 94.439L126.064 94.894C126.21 95.1232 126.308 95.3746 126.354 95.6421L126.446 96.1655C126.474 96.3259 126.508 96.4892 126.547 96.6538L126.609 96.9204L126.673 97.187C126.759 97.5527 126.694 97.9112 126.513 98.2251L126.367 98.4771L126.221 98.729C126.218 98.7343 126.216 98.7388 126.215 98.7407V98.7437C126.215 98.7461 126.215 98.7518 126.217 98.7593L126.279 99.0464L126.341 99.3325C126.385 99.5371 126.384 99.7622 126.305 99.9849C126.226 100.206 126.085 100.38 125.928 100.51L125.695 100.703L125.484 100.875L125.482 101.141L125.479 101.439C125.476 101.795 125.359 102.137 125.105 102.413L124.921 102.612L124.737 102.812C124.548 103.018 124.32 103.179 124.065 103.294L123.808 103.412L123.596 103.506L123.514 103.807L123.428 104.118C123.395 104.235 123.355 104.359 123.306 104.466C123.3 104.478 123.293 104.49 123.286 104.503L123.425 104.752C123.452 104.801 123.479 104.825 123.515 104.842L123.766 104.968L124.018 105.094C124.331 105.251 124.572 105.501 124.714 105.825L124.937 106.333C125.007 106.494 125.079 106.65 125.151 106.8L125.265 107.038L125.379 107.275C125.46 107.444 125.538 107.616 125.609 107.788L125.709 108.028L125.81 108.268C125.871 108.416 125.939 108.565 126.011 108.714L126.127 108.956L126.243 109.196C126.352 109.421 126.426 109.661 126.462 109.909L126.501 110.172L126.54 110.437C126.567 110.622 126.59 110.809 126.61 110.998L126.669 111.537C126.692 111.748 126.7 111.963 126.694 112.177L126.688 112.453L126.68 112.728C126.671 113.055 126.567 113.36 126.382 113.625L126.056 114.092C125.978 114.204 125.919 114.314 125.878 114.421L125.783 114.668L125.688 114.916C125.609 115.119 125.514 115.315 125.401 115.501L125.265 115.729L125.127 115.957C125.034 116.11 124.94 116.266 124.844 116.42L124.702 116.649L124.56 116.878C124.462 117.036 124.36 117.196 124.256 117.356L123.951 117.825C123.797 118.062 123.587 118.243 123.34 118.365L123.36 118.378L123.589 118.524C123.743 118.623 123.901 118.725 124.061 118.831L124.297 118.987L124.534 119.142C124.839 119.343 125.047 119.634 125.144 119.981L125.222 120.261L125.299 120.542C125.326 120.637 125.366 120.712 125.417 120.774L125.592 120.987L125.768 121.2C126.037 121.527 126.107 121.925 126.031 122.307L125.971 122.61L125.916 122.879L126.078 123.07L126.27 123.295C126.464 123.525 126.604 123.79 126.675 124.084L126.739 124.354L126.805 124.625C126.899 125.018 126.81 125.395 126.602 125.71L126.431 125.967L126.261 126.225C126.253 126.236 126.248 126.244 126.246 126.249L126.296 126.522L126.345 126.799C126.392 127.066 126.392 127.335 126.343 127.601L126.293 127.872L126.242 128.143C126.198 128.384 126.123 128.617 126.018 128.838L125.781 129.336C125.65 129.614 125.453 129.846 125.207 130.025L124.976 130.193L124.743 130.362C124.643 130.435 124.564 130.513 124.505 130.593L124.347 130.806L124.188 131.019C124.007 131.262 123.772 131.446 123.498 131.569L123.247 131.68L122.997 131.792C122.904 131.834 122.829 131.886 122.768 131.946L122.58 132.129L122.394 132.313C122.278 132.426 122.159 132.549 122.04 132.678L121.85 132.884L121.66 133.09C121.46 133.308 121.216 133.473 120.937 133.575L120.429 133.76C120.256 133.823 120.08 133.886 119.906 133.946L119.651 134.034L119.396 134.122C119.086 134.228 118.766 134.234 118.455 134.158L118.173 134.088L117.953 134.034L117.728 134.218L117.478 134.423C117.316 134.555 117.11 134.665 116.865 134.698C116.616 134.73 116.383 134.675 116.186 134.575L115.648 134.301C115.583 134.268 115.543 134.266 115.517 134.269L115.245 134.302L114.974 134.334C114.591 134.38 114.237 134.267 113.947 134.039L113.718 133.858L113.488 133.676C113.44 133.639 113.411 133.634 113.392 133.633L112.854 133.604C112.653 133.593 112.449 133.573 112.245 133.542L111.97 133.501L111.695 133.46C111.556 133.44 111.436 133.436 111.334 133.443L111.093 133.459L110.853 133.476C110.731 133.485 110.601 133.504 110.464 133.535L110.209 133.592L109.955 133.65C109.818 133.681 109.681 133.721 109.548 133.771L109.056 133.957C108.811 134.048 108.555 134.095 108.294 134.094H108.031L107.769 134.093C107.687 134.093 107.598 134.109 107.499 134.147L107.236 134.248L106.974 134.347C106.734 134.439 106.484 134.495 106.229 134.511L105.955 134.529L105.682 134.547C105.36 134.568 105.052 134.496 104.772 134.343L104.276 134.072C104.143 133.999 104.013 133.94 103.886 133.896L103.637 133.809L103.388 133.721C103.272 133.681 103.147 133.652 103.012 133.635L102.736 133.601L102.462 133.567C102.235 133.539 102.011 133.491 101.794 133.421L101.531 133.337L101.448 133.311L101.359 133.413L101.161 133.638C100.898 133.936 100.534 134.11 100.114 134.088L99.8359 134.075L99.5576 134.06C99.4358 134.054 99.3236 134.064 99.2207 134.088L98.9629 134.149L98.7051 134.21C98.4394 134.273 98.1682 134.28 97.8994 134.234L97.6357 134.188L97.3711 134.143C97.3639 134.142 97.3354 134.137 97.2676 134.17L96.9922 134.306L96.7178 134.443C96.3957 134.602 96.0325 134.654 95.666 134.549L95.4023 134.473L95.1377 134.397C94.8432 134.312 94.5845 134.157 94.3643 133.95L94.1455 133.745L93.9971 133.605L93.7441 133.673L93.4258 133.758C93.0277 133.864 92.6099 133.811 92.2568 133.542L92.0791 133.407L91.9307 133.579C91.637 133.919 91.2199 134.068 90.7744 133.984L90.4844 133.929L90.1934 133.875C90.1832 133.873 90.1762 133.872 90.1729 133.872H90.1719C90.171 133.872 90.1677 133.873 90.1641 133.875L89.6797 134.172C89.3606 134.368 88.9952 134.429 88.627 134.338L88.3564 134.272L88.0869 134.206C88.0514 134.197 88.0168 134.197 87.9668 134.215L87.6973 134.317L87.4277 134.417C87.0155 134.572 86.5966 134.504 86.251 134.256L86.0068 134.083L85.7637 133.908C85.6552 133.83 85.5622 133.786 85.4854 133.763L84.9932 133.617C84.8377 133.57 84.6802 133.527 84.5225 133.486L84.2734 133.421L84.0234 133.358C83.9477 133.338 83.8706 133.333 83.7881 133.344L83.5283 133.379L83.2695 133.414C83.1382 133.431 83.0045 133.461 82.8701 133.502L82.6123 133.583L82.3545 133.664C82.1659 133.722 81.975 133.773 81.7842 133.817L81.2646 133.936C81.0393 133.988 80.8095 134.013 80.5781 134.013H80.3105L80.043 134.012C79.9109 134.012 79.7817 134.025 79.6572 134.049L79.1436 134.151C79.0087 134.178 78.8661 134.218 78.7178 134.27L78.4502 134.364L78.1826 134.458C77.9108 134.555 77.6261 134.592 77.3379 134.564L76.7969 134.511C76.5907 134.491 76.3854 134.46 76.1826 134.417L75.916 134.361L75.6494 134.305C75.3336 134.239 75.0578 134.084 74.8281 133.868L74.6133 133.666L74.3994 133.463C74.3263 133.394 74.2639 133.362 74.2129 133.346L73.9619 133.268L73.8506 133.233L73.6934 133.377L73.4639 133.586C73.1991 133.828 72.8701 133.978 72.4961 133.991L72.2129 134L71.9297 134.009C71.7271 134.016 71.5264 134.017 71.3301 134.011L71.0576 134.003L70.7861 133.996C70.6367 133.991 70.492 133.997 70.3545 134.012L70.0967 134.041L69.8379 134.07C69.6932 134.086 69.5452 134.11 69.3965 134.144L69.1357 134.204L68.874 134.262C68.56 134.333 68.2437 134.308 67.9453 134.193L67.6914 134.094L67.4375 133.997C67.4058 133.984 67.3712 133.979 67.3164 133.991L66.7598 134.116C66.4368 134.188 66.1062 134.165 65.7949 134.03L65.5488 133.922L65.3018 133.816C65.1785 133.762 65.0501 133.72 64.917 133.69L64.6533 133.63L64.3887 133.57C64.2166 133.531 64.0479 133.495 63.8838 133.46L63.6309 133.408L63.5615 133.393L63.4473 133.542L63.2549 133.794C63.0283 134.09 62.7086 134.304 62.3086 134.353L62.0322 134.387L61.7568 134.421C61.4346 134.461 61.1208 134.406 60.8291 134.282L60.543 134.16L60.3359 134.071L60.1455 134.207L59.8887 134.39C59.6047 134.592 59.267 134.709 58.8965 134.683L58.623 134.664L58.3496 134.645C58.1268 134.629 57.9061 134.594 57.6895 134.541L57.1582 134.408C56.9291 134.351 56.7078 134.269 56.4971 134.162L56.2529 134.037L56.0078 133.913C55.815 133.815 55.6305 133.704 55.4551 133.581L55.2334 133.424L55.0127 133.269C55.0002 133.26 54.9809 133.249 54.9268 133.25L54.6357 133.257L54.3535 133.264L54.1572 133.48L53.957 133.7C53.8131 133.857 53.6245 133.986 53.3945 134.049C53.1665 134.112 52.9425 134.098 52.7441 134.044L52.4434 133.962L52.1426 133.881C52.1402 133.881 52.1377 133.88 52.1357 133.879L51.9141 134.015L51.6719 134.163C51.4609 134.291 51.2363 134.392 51.001 134.463L50.7344 134.544L50.4668 134.625C50.0685 134.746 49.6798 134.669 49.3525 134.463L49.0898 134.298L48.8262 134.133C48.7239 134.069 48.6505 134.049 48.6035 134.043L48.3467 134.014L48.0889 133.985C48.0501 133.981 47.9751 133.983 47.8545 134.027L47.5537 134.137L47.2529 134.249C46.9105 134.374 46.5337 134.391 46.1709 134.235L45.6611 134.016C45.3961 133.902 45.1579 133.732 44.9453 133.527L44.6982 133.289L44.5723 133.167L44.5684 133.169L44.3389 133.29C44.1898 133.368 44.0375 133.449 43.8848 133.533L43.6504 133.662L43.415 133.79C43.2261 133.893 43.0287 133.981 42.8252 134.053L42.5713 134.144L42.3174 134.234C42.052 134.328 41.7746 134.363 41.4941 134.339L41.2236 134.317L40.9541 134.293C40.8405 134.284 40.7276 134.29 40.6152 134.312L40.3486 134.364L40.083 134.416C39.8682 134.458 39.6491 134.483 39.4297 134.49L39.1572 134.499L38.8838 134.507C38.6812 134.514 38.4763 134.513 38.2715 134.501L37.9951 134.486L37.7178 134.471C37.3551 134.451 37.0352 134.304 36.7773 134.066L36.5576 133.863L36.3379 133.661C36.2539 133.583 36.1787 133.541 36.1143 133.518L35.8633 133.43L35.6133 133.342C35.5658 133.326 35.5238 133.322 35.4756 133.332L34.9561 133.433C34.856 133.453 34.7587 133.487 34.665 133.538L34.4287 133.667L34.1934 133.795C34.042 133.878 33.886 133.966 33.7275 134.057L33.4824 134.199L33.2363 134.34C32.8587 134.558 32.4436 134.557 32.0703 134.398L31.5 134.154C31.4675 134.14 31.4488 134.138 31.4434 134.137C31.4404 134.137 31.439 134.138 31.4375 134.138L31.1758 134.216L30.915 134.294C30.6981 134.36 30.4756 134.404 30.25 134.427L29.9785 134.456L29.7061 134.484C29.39 134.516 29.0824 134.459 28.7988 134.32L28.5488 134.197L28.2988 134.075C28.2502 134.051 28.1988 134.039 28.1318 134.044L27.8457 134.068L27.5605 134.09C27.2492 134.115 26.943 134.061 26.6592 133.921L26.4131 133.801L26.168 133.68C26.0378 133.616 25.9149 133.569 25.8008 133.536L25.5635 133.467L25.3633 133.409L25.1465 133.523L24.9111 133.646C24.7107 133.751 24.5001 133.834 24.2822 133.895L24.0264 133.966L23.7705 134.039C23.4895 134.117 23.2013 134.125 22.917 134.07L22.6445 134.017L22.4355 133.976L22.1865 134.188L21.9316 134.405C21.6463 134.647 21.2798 134.801 20.8623 134.754L20.5889 134.723L20.3145 134.692C20.0294 134.66 19.7603 134.568 19.5127 134.424L19.2617 134.28L19.0107 134.134C18.9549 134.102 18.9099 134.093 18.8633 134.094L18.585 134.104L18.3057 134.114C18.0631 134.122 17.822 134.101 17.585 134.051L17.3145 133.995L17.043 133.937C16.8559 133.898 16.694 133.86 16.5625 133.824L16.3936 133.778L16.2646 133.742C16.2613 133.742 16.2564 133.744 16.252 133.745C16.2374 133.748 16.2172 133.753 16.1934 133.76L15.668 133.924C15.4964 133.978 15.3249 134.034 15.1553 134.089L14.6357 134.259C14.4039 134.335 14.1646 134.381 13.9209 134.395L13.6475 134.41L13.374 134.425C13.2041 134.435 13.0347 134.449 12.8682 134.467L12.5996 134.496L12.3311 134.525C12.0818 134.552 11.8316 134.542 11.585 134.496L11.0498 134.394C10.9063 134.367 10.763 134.35 10.6211 134.345L10.3525 134.335L10.085 134.326C9.90571 134.319 9.72303 134.312 9.53906 134.304L9.26465 134.293L8.98926 134.283C8.65432 134.269 8.34654 134.153 8.08398 133.952L7.85938 133.778L7.63379 133.605C7.61693 133.592 7.59866 133.581 7.5498 133.582L7.25 133.584L6.95117 133.588C6.73445 133.59 6.50816 133.539 6.30273 133.409C6.09976 133.28 5.95938 133.101 5.86621 132.917L5.72363 132.633L5.58105 132.349C5.57847 132.344 5.57526 132.34 5.57324 132.336L5.3252 132.26L5.05566 132.178C4.72419 132.077 4.445 131.875 4.25 131.582L4.09863 131.354L3.94824 131.126C3.84894 130.977 3.7501 130.831 3.65332 130.688L3.50586 130.47L3.3584 130.253C3.33284 130.216 3.28434 130.164 3.18555 130.109L2.91602 129.959L2.64551 129.81C2.25642 129.594 2.01418 129.221 2.00391 128.758L1.99707 128.462L1.99121 128.167C1.98848 128.043 1.96755 127.943 1.93652 127.862L1.84082 127.614L1.74512 127.365C1.67727 127.188 1.61298 127.007 1.55273 126.824L1.46777 126.564L1.38184 126.303C1.28511 126.008 1.27169 125.701 1.33887 125.398L1.45801 124.859C1.48189 124.751 1.48845 124.643 1.47852 124.536L1.4541 124.263L1.42871 123.99C1.40637 123.748 1.41469 123.506 1.45312 123.266L1.49609 122.994L1.54004 122.721C1.59264 122.395 1.73969 122.106 1.96191 121.868L2.15723 121.658L2.35352 121.448C2.47144 121.321 2.57859 121.197 2.67383 121.077L2.83691 120.87L3 120.664C3.04267 120.609 3.08095 120.537 3.10742 120.438L3.25586 119.883C3.32318 119.631 3.42643 119.391 3.56543 119.17L3.86621 118.694C4.00921 118.467 4.18775 118.268 4.39844 118.103L4.50391 118.02C4.30028 117.925 4.11539 117.797 3.95508 117.634L3.57227 117.246C3.41139 117.082 3.26739 116.904 3.14258 116.711L2.99512 116.483L2.84668 116.254C2.70373 116.034 2.60115 115.793 2.53906 115.538L2.47363 115.27L2.4082 115.001C2.36993 114.844 2.32543 114.694 2.27637 114.553L2.19141 114.307L2.10547 114.061C2.08248 113.995 2.03826 113.913 1.95605 113.819L1.75684 113.59L1.55859 113.362C1.4168 113.199 1.30537 112.991 1.27344 112.744C1.24204 112.499 1.29631 112.272 1.38574 112.082L1.51855 111.799L1.65137 111.516C1.68941 111.435 1.68524 111.397 1.68359 111.386L1.64258 111.125L1.60059 110.863C1.56851 110.66 1.54844 110.453 1.54004 110.245L1.51855 109.698C1.51011 109.487 1.51435 109.272 1.53125 109.057L1.55371 108.775L1.5752 108.492L1.59668 108.339C1.66378 107.994 1.86166 107.71 2.14062 107.508L2.38965 107.328L2.63965 107.148C2.76406 107.058 2.85484 106.972 2.91895 106.893L3.08398 106.691L3.24805 106.49C3.2785 106.452 3.31348 106.391 3.33691 106.288L3.46973 105.704C3.53611 105.412 3.66147 105.141 3.85059 104.906L4.2002 104.47C4.26375 104.391 4.33446 104.321 4.40918 104.26C4.36987 104.199 4.33288 104.136 4.30176 104.068L4.17871 103.801L4.05664 103.534C4.03895 103.495 4.02075 103.479 3.99121 103.463L3.48145 103.192C3.13446 103.007 2.89626 102.703 2.80176 102.32L2.7334 102.042L2.66406 101.762C2.65289 101.717 2.63405 101.683 2.59473 101.648L2.16113 101.259C1.89071 101.016 1.72185 100.697 1.68457 100.328L1.65723 100.047L1.62891 99.7681C1.61391 99.6192 1.5872 99.4764 1.55078 99.3403L1.48047 99.0776L1.41016 98.8159C1.33804 98.5467 1.32267 98.2702 1.36328 97.9946L1.40332 97.7241L1.44336 97.4526C1.45838 97.3504 1.45704 97.2457 1.4375 97.1372L1.3877 96.8618L1.33887 96.5874C1.27018 96.2064 1.36073 95.8411 1.58203 95.5347L1.92188 95.064C1.95057 95.0241 1.95951 94.993 1.95996 94.9556L1.96582 94.3892C1.96846 94.1328 2.00684 93.88 2.08203 93.6353L2.24805 93.0981L2.30762 92.9399C2.46862 92.59 2.76978 92.3683 3.10742 92.2593L3.42285 92.1577L3.67188 92.0767L3.71973 91.8774L3.78906 91.5835C3.8674 91.2537 4.03734 90.9546 4.31152 90.73L4.48438 90.5884C4.21502 90.3856 4.0486 90.1014 3.97363 89.7866L3.90039 89.48L3.82812 89.1733C3.80333 89.0693 3.77048 89.0281 3.75684 89.0142L3.57422 88.8286L3.39062 88.6431C3.28825 88.5391 3.17364 88.4341 3.0459 88.3296L2.82617 88.1499L2.60645 87.9712C2.37142 87.779 2.19055 87.5373 2.07617 87.2534L1.97461 87.0005L1.87207 86.7476C1.7901 86.5439 1.72504 86.3343 1.67676 86.1206L1.61719 85.856L1.55762 85.5903C1.52528 85.4472 1.48163 85.3023 1.42676 85.1567L1.22754 84.6294C1.10863 84.3137 1.09342 83.9816 1.18066 83.6567L1.25391 83.3833L1.32812 83.1099C1.35481 83.0104 1.36252 82.9116 1.35254 82.812L1.32422 82.5327L1.2959 82.2524C1.25154 81.8106 1.43358 81.4321 1.73535 81.1616L1.96973 80.9517L2.20508 80.7407C2.27917 80.6742 2.29465 80.6327 2.29785 80.6216L2.36621 80.3706L2.43555 80.1196C2.50498 79.8677 2.61919 79.6338 2.77539 79.4243L3.08594 79.0083C3.1674 78.8991 3.2424 78.7818 3.30859 78.6577L3.55664 78.1909C3.69464 77.9323 3.89042 77.7173 4.13379 77.5542L4.35352 77.4067L4.57422 77.2593C4.57678 77.2573 4.58185 77.2522 4.58887 77.2427C4.59744 77.2309 4.61268 77.2066 4.62793 77.1646L4.73535 76.8677L4.8418 76.5708C4.87293 76.4845 4.89412 76.4171 4.90723 76.3687C4.92104 76.3174 4.92191 76.3036 4.9209 76.3159L4.92871 76.1997L4.76758 76.0259L4.5791 75.8247C4.32238 75.5489 4.19929 75.2034 4.20703 74.8354L4.21289 74.5493L4.21875 74.2622C4.22204 74.1072 4.21302 73.9667 4.19434 73.8413L4.11816 73.3315C4.1111 73.2847 4.09029 73.2183 4.03027 73.1313L3.86133 72.8872L3.69238 72.6421C3.4392 72.2755 3.39578 71.8365 3.58887 71.4263L3.71387 71.1626L3.83789 70.8989C3.88261 70.8038 3.89751 70.7274 3.89844 70.6675L3.90234 70.4077L3.90527 70.1479C3.90885 69.9018 3.95013 69.6597 4.02832 69.4263L4.11133 69.1802L4.19336 68.9341C4.25268 68.7572 4.31747 68.5817 4.38672 68.4097L4.4834 68.1704L4.5791 67.9321C4.59483 67.8928 4.61312 67.8171 4.60449 67.688L4.58301 67.3696L4.56152 67.0522C4.53855 66.7093 4.61336 66.3114 4.92578 66.0103L4.96289 65.9741L4.87012 65.8608C4.83626 65.8195 4.78965 65.7822 4.71582 65.7515L4.19043 65.5327C3.80445 65.3723 3.54048 65.0613 3.44043 64.6597L3.37109 64.3804L3.30176 64.1001C3.29051 64.0552 3.27505 64.0368 3.25488 64.02L2.8291 63.6665C2.66107 63.527 2.50201 63.3733 2.35156 63.2085L2.15723 62.9966L1.96289 62.7837C1.70044 62.496 1.57813 62.1352 1.60645 61.7495L1.64941 61.1694C1.65531 61.0886 1.6429 61.024 1.61719 60.9663L1.50293 60.7124L1.38867 60.4575C1.24585 60.1379 1.22036 59.7944 1.30957 59.4575L1.4541 58.9126C1.48301 58.8032 1.49191 58.6993 1.48535 58.6011L1.46777 58.3325L1.44922 58.063C1.43407 57.8372 1.44153 57.6102 1.4707 57.3853L1.50586 57.1167L1.54004 56.8472C1.56488 56.6559 1.5957 56.4626 1.63086 56.269L1.68066 55.9956L1.73047 55.7212C1.80911 55.2902 2.08274 54.9817 2.42676 54.7954L2.71191 54.6401L2.91992 54.5278L2.9248 54.3149L2.93164 54.0015C2.93967 53.6498 3.05225 53.3071 3.30078 53.0269L3.48242 52.8218L3.66504 52.6167C3.84991 52.4085 4.07193 52.242 4.32227 52.1206L4.57422 51.9985L4.82715 51.8755C4.97841 51.8021 5.12177 51.7258 5.25488 51.647L5.48145 51.5122L5.70898 51.3774C5.83823 51.3008 5.96582 51.2163 6.08887 51.1245L6.30371 50.9644L6.51758 50.8032C6.66964 50.6898 6.83326 50.5739 7.00586 50.4565L7.01172 50.4517C6.89139 50.3372 6.77312 50.2173 6.65918 50.0913L6.47363 49.8872L6.28906 49.6831C6.06424 49.4344 5.93002 49.1321 5.89648 48.7983L5.86914 48.5239L5.8418 48.2505C5.82354 48.0682 5.80547 47.8891 5.78809 47.7153L5.76172 47.4546L5.73633 47.1929C5.72089 47.0388 5.69883 46.8856 5.6709 46.7349L5.62305 46.478L5.57617 46.2222C5.55271 46.0957 5.51479 45.9594 5.46094 45.814L5.36035 45.5435L5.26074 45.2729C5.13766 44.9406 5.1308 44.5878 5.25684 44.2485L5.35352 43.9897L5.4502 43.73C5.52485 43.5294 5.61132 43.3344 5.70996 43.1479L5.83594 42.9097L5.96289 42.6714C5.98239 42.6343 5.99834 42.5819 5.99512 42.4985L5.9834 42.2026L5.9707 41.9067C5.95853 41.5998 6.01724 41.299 6.1543 41.02L6.27637 40.771L6.39941 40.522C6.51657 40.2838 6.67173 40.0691 6.86133 39.8833L7.05957 39.689L7.25879 39.4937C7.41432 39.3414 7.58037 39.2008 7.75391 39.0728L7.97363 38.9097L8.19434 38.7476C8.30517 38.6657 8.40768 38.5737 8.50098 38.4731L8.87207 38.0728C9.10356 37.8234 9.39806 37.6665 9.72656 37.604L10.0059 37.5513L10.2852 37.4976C10.2869 37.4972 10.2892 37.4968 10.29 37.4966V37.4976L10.2949 37.4927C10.2986 37.4891 10.3051 37.482 10.3125 37.4722L10.4961 37.229L10.6787 36.9849L10.6797 36.9829L10.6455 36.7642L10.6045 36.5054C10.5633 36.2477 10.5688 35.9882 10.623 35.7329L10.6777 35.478L10.7314 35.2241C10.7448 35.1608 10.749 35.0735 10.7266 34.9556L10.6699 34.6606L10.6133 34.3647C10.5518 34.0416 10.5783 33.7118 10.7119 33.4009L10.8213 33.1479L10.9297 32.894C11.0583 32.5954 11.2654 32.3522 11.5273 32.1694L11.7686 32.0005L12.0107 31.8325C12.1418 31.7411 12.2522 31.6491 12.3428 31.5591L12.5273 31.3745L12.7129 31.1899C12.8471 31.0564 12.9858 30.9277 13.127 30.8052L13.3213 30.6372L13.5146 30.4683C13.5619 30.4271 13.6154 30.3628 13.665 30.2612L13.7939 29.9976L13.9219 29.7339C14.0627 29.4456 14.2739 29.2024 14.5557 29.0327L14.7881 28.8931L15.0205 28.7524C15.1695 28.6627 15.3212 28.5694 15.4717 28.4731L15.7051 28.3237L15.9395 28.1733C16.2131 27.9984 16.5211 27.9112 16.8438 27.9126L17.1279 27.9146L17.4111 27.9155C17.6303 27.9165 17.8477 27.9311 18.0605 27.9604L18.332 27.9985L18.5381 28.0269L18.6113 27.9595L18.7715 27.8101C18.8144 27.7698 18.8771 27.6954 18.9512 27.5698L19.0986 27.3188L19.2471 27.0679C19.2716 27.026 19.2718 27.0034 19.2695 26.9829L19.2393 26.7085L19.208 26.4351C19.1682 26.0791 19.2566 25.7361 19.4678 25.4438L19.6279 25.2231L19.7871 25.0024C19.8059 24.9763 19.8216 24.9415 19.8242 24.8784L19.8359 24.5884L19.8477 24.2974C19.8615 23.956 19.9778 23.6334 20.207 23.3657L20.3838 23.1597L20.5615 22.9526C20.7394 22.7453 20.9528 22.5764 21.1943 22.4487L21.4424 22.3179L21.6553 22.2046L21.6562 22.2017L21.7334 21.8862L21.8105 21.5698L21.8584 21.4136C21.9176 21.2564 22.0123 21.0996 22.1562 20.9683C22.3514 20.7907 22.5849 20.7069 22.8076 20.6831L23.1133 20.6509L23.418 20.6187C23.4304 20.6173 23.4392 20.615 23.4434 20.6138L23.4453 20.6128L23.4482 20.6108L23.8252 20.1753C24.0186 19.9522 24.2545 19.7768 24.5283 19.6616L24.7822 19.5552L25.0352 19.4487C25.2939 19.3401 25.5682 19.2866 25.8486 19.2886L26.127 19.2905L26.4062 19.2925C26.6187 19.294 26.8292 19.3085 27.0361 19.3345L27.3047 19.3677L27.5723 19.4009C27.7448 19.4225 27.9148 19.4421 28.0801 19.4585L28.3379 19.4839L28.5967 19.5093C28.8045 19.5299 29.0097 19.5666 29.2109 19.6187L29.46 19.6831L29.708 19.7476C29.8564 19.786 30.0068 19.8191 30.1572 19.8462L30.4092 19.8911L30.6367 19.9321L30.7578 19.856L30.9355 19.7417C30.94 19.7383 30.9681 19.7146 31.0078 19.6431L31.1396 19.4038L31.2715 19.1655C31.3816 18.9666 31.511 18.7788 31.6572 18.605L32.0068 18.189C32.1464 18.0232 32.2987 17.8681 32.4609 17.7261L32.6631 17.5483L32.8662 17.3716C33.0468 17.2136 33.2462 17.0794 33.4609 16.9722L33.9434 16.7319C34.0837 16.6618 34.2161 16.5863 34.3398 16.5083L34.5576 16.3716L34.7744 16.2339C34.834 16.1962 34.9039 16.1349 34.9775 16.0356L35.1553 15.7964L35.332 15.5581L35.4395 15.4302C35.6654 15.1941 35.9626 15.0638 36.291 15.061L36.458 15.0708L36.751 15.106L37.0439 15.1401C37.1577 15.1536 37.2426 15.1445 37.3057 15.1265L37.5547 15.0542L37.8047 14.9829C38.0018 14.9263 38.2034 14.8833 38.4072 14.854L38.9248 14.7798C39.1498 14.7476 39.3769 14.7413 39.6035 14.7603L39.8643 14.7817L40.124 14.8032C40.3633 14.8233 40.5975 14.8765 40.8223 14.9614L41.0674 15.0532L41.3125 15.146C41.395 15.1771 41.4836 15.1941 41.5811 15.1948L41.8496 15.1968L42.1191 15.1987C42.3288 15.2004 42.5429 15.2158 42.7598 15.2437L43.0459 15.2808L43.1133 15.2886L43.1191 15.2788L43.2344 15.0444C43.3052 14.9 43.3746 14.7474 43.4424 14.5894L43.5508 14.3364L43.6602 14.0825C43.7795 13.8048 43.9623 13.5664 44.2031 13.3813L44.417 13.2173L44.6318 13.0522C44.8497 12.8851 45.0949 12.765 45.3594 12.6919L45.6289 12.6177L45.8984 12.5425C45.9919 12.5166 46.0615 12.4794 46.1143 12.437L46.3154 12.2749L46.5176 12.1128C46.7237 11.9473 46.9573 11.8255 47.2109 11.7505L47.7051 11.604C47.7818 11.5812 47.8642 11.5412 47.9512 11.4761L48.1748 11.3081L48.3994 11.1401L48.5166 11.061C48.7558 10.9162 49.0261 10.8498 49.3066 10.8716L49.4473 10.8901L49.7197 10.939L49.9912 10.9878C50.1474 11.0159 50.2966 11.0346 50.4375 11.0435L50.6934 11.0591L50.9482 11.0747C51.0004 11.0779 51.0741 11.0707 51.1738 11.0317L51.7227 10.8169C52.0137 10.703 52.3263 10.6762 52.6338 10.7622L52.7656 10.8062L53.0176 10.9048L53.2705 11.0024C53.4969 11.0904 53.7094 11.2072 53.9053 11.3511L54.124 11.5112L54.3418 11.6724C54.4123 11.7241 54.4864 11.7575 54.5664 11.7769L54.8271 11.8403L55.0869 11.9028C55.3601 11.9687 55.6112 12.09 55.8311 12.2661L56.0361 12.4312L56.2422 12.5962C56.3649 12.6945 56.4927 12.7886 56.624 12.8784L56.8428 13.0288L57.0625 13.1782C57.181 13.2592 57.3039 13.335 57.4297 13.4067L57.4443 13.3687C57.5518 13.0712 57.7302 12.8099 57.9814 12.6079L58.1953 12.436L58.4082 12.2651C58.6286 12.0882 58.8798 11.9618 59.1523 11.8882L59.4219 11.8149L59.6924 11.7427C59.8568 11.6983 60.0147 11.6501 60.1641 11.5981L60.4131 11.5112L60.6631 11.4243C60.8259 11.3677 60.9896 11.3094 61.1514 11.2505L61.3994 11.1606L61.6475 11.0698C61.8272 11.0044 62.0111 10.9443 62.1973 10.8901L62.4561 10.8149L62.7139 10.7397C63.033 10.6471 63.3582 10.6603 63.667 10.7661L63.9326 10.8569L64.1992 10.9487C64.2945 10.9813 64.3775 10.9904 64.4512 10.9858L64.7119 10.9702L64.9727 10.9536C65.1226 10.9442 65.283 10.9262 65.4521 10.8999L65.7363 10.856L66.0195 10.812C66.3235 10.7648 66.6289 10.7913 66.9199 10.9009L67.4316 11.0942C67.7138 11.2005 67.958 11.3709 68.1582 11.5933L68.3496 11.8062L68.5381 12.0161L68.54 12.0171C68.5445 12.0182 68.5533 12.02 68.5664 12.021L68.877 12.0444L69.1865 12.0669C69.5781 12.0956 69.9392 12.2688 70.1865 12.6079L70.3535 12.8364L70.5195 13.0649C70.568 13.1314 70.6148 13.1917 70.6592 13.2446C70.8361 13.0001 71.0717 12.816 71.3516 12.7017L71.6084 12.5972L71.8643 12.4927C71.9784 12.446 72.0783 12.3883 72.165 12.3218L72.585 11.9995C72.7764 11.8525 72.9858 11.7333 73.21 11.644L73.4561 11.5464L73.7012 11.4487C73.9189 11.3621 74.1457 11.3028 74.3779 11.272L74.9014 11.2017C75.0826 11.1776 75.2635 11.1571 75.4414 11.1392L75.6973 11.1128L75.9531 11.0874C76.134 11.0692 76.3057 11.0559 76.4658 11.0483L76.5703 11.0444C76.6742 10.8872 76.8121 10.7983 76.8613 10.769C76.9875 10.6942 77.1288 10.6474 77.2422 10.6157L77.5195 10.5386L77.7969 10.4604ZM64.2998 34.0513C64.1991 34.2201 64.0615 34.3471 63.9189 34.439L63.6484 34.6128L63.3789 34.7866C63.2894 34.8443 63.2731 34.8826 63.2715 34.8862L63.167 35.1245L63.0635 35.3638C62.9947 35.5215 62.9245 35.6835 62.8535 35.8491L62.6387 36.3491C62.5393 36.581 62.4075 36.7941 62.2441 36.9858L62.0693 37.1919L61.8945 37.397C61.6854 37.6423 61.4188 37.8112 61.1162 37.9048L60.5713 38.0728C60.5095 38.0919 60.4731 38.1181 60.4443 38.1509L60.2646 38.356L60.0859 38.561C59.8859 38.7893 59.6368 38.9579 59.3477 39.0562L59.0947 39.1421L58.8428 39.228C58.6305 39.3001 58.4131 39.3506 58.1914 39.3794L57.9287 39.4136L57.6748 39.4458C57.6683 39.4496 57.648 39.4628 57.6172 39.4966L57.3975 39.7378L57.1768 39.98C57.0244 40.1469 56.8058 40.301 56.5186 40.3433C56.2324 40.3852 55.98 40.3013 55.7871 40.188L55.502 40.021L55.3203 39.9136L55.1543 40.0278L54.8848 40.2124C54.5872 40.4151 54.2318 40.5282 53.8447 40.4761L53.5703 40.439L53.2949 40.4019C53.0229 40.3652 52.7648 40.2787 52.5244 40.146L52.2773 40.0103L52.0303 39.8735C51.8085 39.7511 51.6061 39.6004 51.4248 39.4224L51.2207 39.2222L51.0176 39.022C50.9356 38.9415 50.8584 38.8907 50.7871 38.8589L50.5518 38.7544L50.3174 38.6489C50.2337 38.6116 50.1248 38.5799 49.9844 38.562L49.6865 38.5249L49.3896 38.4868C49.3738 38.4848 49.3584 38.4805 49.3428 38.478C49.3975 38.7073 49.4104 38.944 49.3711 39.1831L49.3262 39.4565L49.2812 39.731C49.2266 40.0623 49.0744 40.3532 48.8457 40.5913L48.6436 40.8013L48.4424 41.0112C48.4042 41.051 48.3865 41.0877 48.3779 41.1353L48.3271 41.4175L48.2764 41.7007C48.2067 42.0912 47.9867 42.4088 47.6533 42.6157L47.4053 42.77L47.1582 42.9233C47.1281 42.942 47.1141 42.9589 47.1016 42.9927L46.9004 43.5415C46.7683 43.9006 46.512 44.1797 46.1553 44.3354L45.8945 44.4487L45.6338 44.563C45.4669 44.6358 45.3067 44.7087 45.1533 44.7817L44.6709 45.0122C44.5489 45.0703 44.4327 45.1381 44.3232 45.2173L44.1074 45.3745L43.8906 45.5308C43.7528 45.6305 43.6112 45.7365 43.4668 45.8481L43.2412 46.0229L43.0166 46.1968C42.7474 46.4049 42.4305 46.5181 42.0879 46.5239L41.8086 46.5288L41.5283 46.5337C41.3389 46.5369 41.1525 46.5388 40.9697 46.5396L40.4307 46.5415C40.3455 46.5419 40.2508 46.5584 40.1436 46.6001L39.5986 46.813C39.2312 46.9559 38.8436 46.9395 38.4893 46.7612L38.2305 46.6304L37.9717 46.5005C37.8693 46.4491 37.7737 46.4217 37.6836 46.4116L37.1445 46.3511C36.9276 46.3269 36.7125 46.286 36.501 46.228L36.2373 46.1558L35.9727 46.0835C35.6144 45.9851 35.3341 45.7626 35.1377 45.4692L35.0898 45.3979C35.1984 45.6772 35.1538 45.9627 35.1143 46.1216L35.0498 46.3813L34.9844 46.6421C34.9345 46.8428 34.8735 47.0392 34.8008 47.23L34.6133 47.7202C34.5589 47.8629 34.5126 48.0056 34.4736 48.147L34.4062 48.3921L34.3379 48.6382C34.3238 48.6895 34.3145 48.7739 34.333 48.9038L34.377 49.2134L34.4209 49.522C34.4817 49.9486 34.3489 50.3693 33.9883 50.6636L33.543 51.0269C33.4782 51.0797 33.439 51.1346 33.4131 51.1938L33.3027 51.4448L33.1934 51.6968C33.0979 51.9153 32.9784 52.1206 32.835 52.311L32.6689 52.5308L32.5039 52.7495C32.2646 53.0672 31.926 53.2379 31.5605 53.2886L31.252 53.3306L30.9434 53.3735C30.832 53.389 30.7791 53.4188 30.7559 53.436L30.3438 53.7427C30.239 53.8206 30.1333 53.9133 30.0273 54.022L29.832 54.2222L29.6377 54.4214C29.3793 54.6865 29.0451 54.8345 28.6729 54.8433L28.3965 54.8491L28.1191 54.856C28.0728 54.8571 28.0318 54.8687 27.9834 54.9009L27.5107 55.2153C27.2306 55.4015 26.9088 55.494 26.5664 55.4731L26.335 55.4585L26.3467 55.7095C26.3634 56.0721 26.2454 56.4015 26.0342 56.6772L25.8555 56.9116L25.6943 57.1216L25.749 57.3901L25.8086 57.6831C25.8855 58.0611 25.816 58.4461 25.5654 58.77L25.3965 58.9878L25.2285 59.2056C25.1014 59.3697 24.9672 59.5256 24.8262 59.6724L24.6416 59.8647L24.457 60.0562C24.3528 60.1647 24.2581 60.2762 24.1729 60.3892L24.0186 60.5933L23.8643 60.7983C23.7349 60.9698 23.5904 61.1284 23.4316 61.2729L23.2422 61.4448L23.0527 61.6177C23.0475 61.6236 23.0204 61.6581 22.9961 61.7573L22.917 62.0825L22.8369 62.4067C22.7482 62.7692 22.5456 63.1059 22.1865 63.3159L21.9473 63.4565L21.707 63.5962C21.3896 63.7817 21.0389 63.8313 20.6953 63.7847L20.3779 63.7407L20.0605 63.6978C19.9453 63.6822 19.8938 63.6992 19.8789 63.7056L19.4043 63.9067C19.2887 63.9558 19.1685 64.0204 19.0439 64.1021L18.5732 64.4106C18.2919 64.5951 17.9693 64.6851 17.6279 64.6616L17.0869 64.6245C17.0353 64.6211 16.9716 64.6286 16.8877 64.6665L16.3447 64.9126C16.1481 65.0015 15.9227 65.0457 15.6846 65.0112C15.4493 64.9771 15.2495 64.873 15.0889 64.7446L14.8418 64.5474L14.5938 64.3491C14.5016 64.2755 14.4407 64.2559 14.4102 64.2505L14.1543 64.2056L13.8984 64.1597C13.6966 64.1238 13.4974 64.0749 13.3018 64.0122L13.0527 63.9321L12.8047 63.853C12.5651 63.7762 12.3423 63.6616 12.1396 63.5122L11.9277 63.356L11.7168 63.2007C11.6775 63.1718 11.6224 63.1454 11.5361 63.1323L11.251 63.0894L10.9668 63.0464C10.6228 62.9943 10.3121 62.8351 10.0752 62.5649L9.89648 62.3618L9.71875 62.1587C9.65736 62.0888 9.58121 62.0277 9.48633 61.9761L9.23828 61.8403L9.19824 61.8179L9.10645 61.9556C9.09572 61.9716 9.07636 61.9937 9.01855 62.0161L8.47168 62.2271C8.1945 62.3336 7.94698 62.4959 7.74414 62.7163L7.55859 62.9185L7.37305 63.1196C7.1731 63.3371 7.03156 63.5929 6.95117 63.8765L6.87598 64.144L6.7998 64.4116C6.73523 64.6398 6.69584 64.8731 6.68262 65.1099L6.66699 65.3872L6.65234 65.6646C6.64771 65.7474 6.62704 65.8134 6.5957 65.8706L6.46777 66.104L6.33887 66.3364C6.2392 66.5175 6.15053 66.7058 6.07324 66.8999L5.97363 67.1519L5.87305 67.4028C5.79848 67.5902 5.73151 67.7827 5.67285 67.979L5.59375 68.2446L5.51465 68.5093C5.44918 68.7284 5.40475 68.9533 5.38086 69.1812L5.35156 69.4575L5.32324 69.7339C5.28971 70.0546 5.34749 70.3655 5.48633 70.6528L5.61133 70.9126L5.7373 71.1724C5.78434 71.2698 5.80851 71.3618 5.81543 71.4497L5.83691 71.7212L5.85742 71.9937C5.88181 72.3048 5.98779 72.5933 6.16602 72.8472L6.32715 73.0757L6.4873 73.3042C6.5467 73.3889 6.58682 73.476 6.61035 73.5659L6.74707 74.0894C6.83836 74.4385 7.0464 74.7199 7.33398 74.9194L7.56934 75.0835L7.74609 75.2056L7.75586 75.5122L7.7666 75.8442C7.77288 76.0464 7.81905 76.2661 7.94141 76.4692C8.06708 76.6776 8.24792 76.8268 8.45117 76.9214L8.97852 77.1675C9.0366 77.1947 9.07688 77.2297 9.11035 77.2798L9.27051 77.52L9.43066 77.7593C9.60425 78.0194 9.83564 78.2262 10.1182 78.3657L10.3682 78.4897L10.6191 78.6138C10.7963 78.7012 10.9764 78.7845 11.1572 78.8628L11.4121 78.9731L11.668 79.0835C11.871 79.1713 12.0805 79.2439 12.2949 79.3003L12.5654 79.3716L12.835 79.4429C13.0845 79.5084 13.3409 79.5349 13.5986 79.5229L13.8779 79.5103L14.1562 79.4976C14.4116 79.4856 14.6622 79.4362 14.9033 79.3511L15.168 79.2583L15.2871 79.2153C15.3429 79.3997 15.4173 79.5776 15.5107 79.7476L15.7705 80.2202C15.8253 80.3198 15.8643 80.4231 15.8887 80.5308L15.9482 80.7905L16.0068 81.0513C16.0585 81.2796 16.1371 81.4991 16.2412 81.7085L16.3594 81.9468L16.4775 82.1841C16.5115 82.2524 16.5345 82.3343 16.541 82.4351L16.5596 82.7173L16.5771 83.0005C16.5917 83.2249 16.6232 83.4462 16.6719 83.6626L16.7324 83.9321L16.793 84.2007C16.8469 84.4401 16.9315 84.6694 17.0459 84.8853L17.1719 85.1235L17.2988 85.3628C17.4498 85.6476 17.6739 85.8694 17.9404 86.0337L18.46 86.354C18.5439 86.4058 18.5806 86.4522 18.5986 86.4849L18.8545 86.9497C18.9238 87.0754 18.9858 87.2082 19.0391 87.3472L19.1357 87.6011L19.2334 87.855C19.3494 88.1581 19.5462 88.4082 19.8057 88.5962L20.0342 88.7612L20.2627 88.9272C20.2666 88.9301 20.2688 88.9324 20.2695 88.9331V88.9321L20.2705 88.9341C20.2716 88.9367 20.2733 88.9432 20.2754 88.9526L20.3369 89.2368L20.3994 89.521C20.4555 89.7788 20.5478 90.0233 20.6807 90.2485L20.9561 90.7153C21.1371 91.0221 21.4089 91.2336 21.7236 91.3599L22.0049 91.4731L22.2861 91.5854C22.355 91.6131 22.3733 91.6386 22.3799 91.6489L22.5244 91.8745L22.6699 92.1001C22.787 92.2823 22.9174 92.4543 23.0615 92.6147L23.2393 92.812L23.417 93.0103C23.535 93.1416 23.6535 93.2731 23.7715 93.4048L23.9492 93.604L24.127 93.8022C24.2566 93.947 24.3915 94.0871 24.5312 94.2222L24.7227 94.4077L24.9141 94.5923C25.0635 94.7367 25.2227 94.8721 25.3896 94.9966L25.6035 95.1558L25.8184 95.3159C25.9251 95.3956 26.024 95.4851 26.1143 95.5835L26.2949 95.7798L26.4756 95.9771C26.5863 96.0978 26.6947 96.2235 26.7998 96.353L27.1416 96.7749C27.3157 96.9892 27.5277 97.1629 27.7715 97.2925L28.0107 97.4204L28.251 97.5474C28.3021 97.5746 28.3474 97.6141 28.3887 97.6763L28.5439 97.9116L28.7002 98.147C28.8975 98.4447 29.1807 98.6523 29.5225 98.7524L29.7949 98.8315L30.0674 98.9116C30.2121 98.954 30.346 99.0061 30.4678 99.0659L30.708 99.1841L30.9492 99.3032C30.9524 99.3046 30.9747 99.3151 31.0059 99.3774L31.1436 99.6528L31.2812 99.9292C31.4429 100.253 31.7037 100.515 32.0664 100.649L32.5801 100.838C32.6888 100.878 32.7872 100.932 32.876 100.998L33.0918 101.158L33.3086 101.318C33.4727 101.44 33.6429 101.552 33.8184 101.656L34.0488 101.792L34.2803 101.927C34.5232 102.07 34.7888 102.157 35.0674 102.192L35.3525 102.227L35.6367 102.263C35.6935 102.27 35.7255 102.287 35.752 102.31L35.959 102.49L36.166 102.668C36.3363 102.816 36.5183 102.947 36.7109 103.06L36.9424 103.195L37.1729 103.331C37.378 103.451 37.5964 103.544 37.8252 103.611L38.3447 103.761C38.5094 103.809 38.6732 103.859 38.834 103.913L39.3418 104.081C39.4143 104.105 39.4863 104.144 39.5586 104.208L39.7695 104.396L39.9814 104.583C40.1646 104.746 40.364 104.884 40.5791 104.994L40.8184 105.116L41.0576 105.239C41.2526 105.339 41.456 105.422 41.665 105.488L41.9219 105.568L42.1777 105.649C42.3808 105.713 42.589 105.762 42.7998 105.797L43.0674 105.842L43.335 105.886C43.4749 105.909 43.611 105.944 43.7422 105.989L44.25 106.163C44.3655 106.202 44.4793 106.255 44.5898 106.325L44.8232 106.471L45.0566 106.619C45.2807 106.759 45.524 106.859 45.7822 106.915L46.3096 107.028C46.5553 107.081 46.8067 107.096 47.0596 107.077L47.3418 107.055L47.625 107.033C47.733 107.025 47.8268 107.036 47.9102 107.06L48.166 107.134L48.4229 107.208C48.6069 107.262 48.7928 107.311 48.9795 107.353L49.2393 107.413L49.499 107.471C49.6189 107.499 49.7381 107.541 49.8564 107.597L50.1045 107.715L50.3516 107.833C50.6567 107.979 50.9854 108.018 51.3125 107.96L51.5947 107.91L51.877 107.86C51.884 107.859 51.889 107.858 51.8906 107.858C51.8922 107.859 51.8958 107.861 51.9014 107.865L52.3877 108.167C52.7168 108.372 53.0913 108.427 53.4629 108.333L53.7461 108.262L54.0283 108.191C54.1635 108.157 54.2878 108.141 54.4004 108.142L54.667 108.144L54.9346 108.146C54.942 108.146 54.9699 108.146 55.0283 108.189L55.2734 108.371L55.5195 108.551C55.8272 108.778 56.2011 108.882 56.5986 108.804L56.8721 108.75L57.1465 108.696C57.2718 108.671 57.3911 108.663 57.5039 108.67L57.7695 108.688L58.0352 108.705C58.1889 108.714 58.3433 108.732 58.4961 108.756L58.7598 108.799L59.0234 108.841C59.2314 108.875 59.4412 108.894 59.6514 108.898L59.918 108.904L60.1836 108.909C60.2943 108.911 60.4079 108.929 60.5244 108.963L60.7891 109.042L61.0527 109.121C61.2499 109.179 61.449 109.229 61.6484 109.268L61.9131 109.32L62.1787 109.372C62.3743 109.41 62.5717 109.44 62.7695 109.462L63.0381 109.492L63.3057 109.522C63.6425 109.559 63.9646 109.485 64.2529 109.333L64.7881 109.05C64.9111 108.986 65.0227 108.948 65.1211 108.929L65.6504 108.83C65.8051 108.801 65.96 108.779 66.1133 108.765L66.377 108.74L66.6416 108.715C66.7742 108.703 66.9091 108.703 67.0449 108.714L67.5801 108.761C67.8139 108.782 68.048 108.774 68.2793 108.739L68.542 108.698L68.8047 108.658C68.9144 108.641 69.0279 108.639 69.1455 108.653L69.416 108.684L69.6855 108.716C69.7997 108.73 69.9251 108.76 70.0605 108.813L70.3398 108.921L70.6191 109.031C70.9535 109.161 71.3151 109.177 71.666 109.044L71.9248 108.947L72.1826 108.849C72.3311 108.793 72.4802 108.746 72.6279 108.708L72.8887 108.64L73.1484 108.573C73.3321 108.525 73.5159 108.473 73.6973 108.417L73.9551 108.338L74.2119 108.259C74.3164 108.227 74.424 108.21 74.5352 108.209L75.0762 108.206C75.2328 108.204 75.3931 108.211 75.5547 108.225L75.8301 108.25L76.1064 108.274C76.3499 108.295 76.5929 108.286 76.832 108.245L77.0977 108.199L77.3623 108.152C77.7291 108.088 78.0271 107.889 78.2549 107.633L78.6904 107.143C78.7213 107.108 78.7423 107.093 78.75 107.088H78.748L79.0117 107.047L79.2754 107.007C79.3508 106.996 79.4453 106.997 79.5635 107.024L79.8564 107.092L80.1504 107.16C80.555 107.253 80.9571 107.164 81.2832 106.892L81.5078 106.706L81.7324 106.518C81.842 106.427 81.9509 106.355 82.0566 106.303L82.2979 106.185L82.5391 106.066C82.5566 106.057 82.587 106.046 82.6533 106.056L83.2412 106.144C83.5488 106.19 83.8604 106.163 84.1562 106.042L84.4043 105.942L84.6523 105.84C84.7498 105.801 84.8557 105.775 84.9707 105.765L85.5215 105.716C85.8647 105.686 86.172 105.546 86.4238 105.319L86.6367 105.126L86.8496 104.935C86.8642 104.922 86.8743 104.917 86.8779 104.916C86.8814 104.914 86.8898 104.911 86.9053 104.911L87.1865 104.896L87.4688 104.881C87.8373 104.862 88.1658 104.712 88.4229 104.454L88.626 104.249L88.8301 104.043C88.9106 103.963 88.99 103.909 89.0664 103.874L89.3076 103.763L89.5498 103.653C89.7757 103.549 89.9839 103.413 90.1719 103.248L90.3789 103.065L90.5869 102.882C90.6547 102.823 90.7248 102.784 90.7988 102.76L91.0537 102.678L91.3076 102.595C91.4422 102.552 91.5865 102.517 91.7383 102.492L92.0156 102.445L92.293 102.399C92.5846 102.35 92.8573 102.237 93.0957 102.058L93.3105 101.896L93.5254 101.735C93.5697 101.702 93.6267 101.675 93.709 101.662L93.9932 101.617L94.2764 101.571C94.5421 101.528 94.7963 101.444 95.0303 101.313L95.2646 101.181L95.499 101.05C95.7631 100.902 95.9766 100.693 96.1406 100.444L96.4629 99.9536C96.5361 99.8423 96.6146 99.7555 96.6934 99.689L97.1016 99.3452C97.1264 99.3244 97.1685 99.2994 97.251 99.2866L97.5469 99.2407L97.8418 99.1958C98.1304 99.1514 98.4048 99.0512 98.6494 98.8862L98.873 98.7358L99.0957 98.5854C99.3141 98.4379 99.5028 98.2544 99.6592 98.0415L99.9893 97.5923C100.044 97.5177 100.106 97.4625 100.176 97.4214L100.408 97.2837L100.642 97.146C100.902 96.9919 101.113 96.7792 101.268 96.522L101.413 96.2798L101.559 96.0386C101.571 96.0184 101.581 96.0072 101.612 95.9956L101.881 95.896L102.149 95.7954C102.504 95.6627 102.776 95.4092 102.936 95.0669L103.058 94.8062L103.179 94.5444C103.247 94.3967 103.322 94.2596 103.401 94.1343L103.692 93.6753C103.693 93.6744 103.694 93.6728 103.694 93.6724L103.696 93.6714C103.7 93.6687 103.714 93.6593 103.743 93.6499L104.321 93.4644C104.62 93.3685 104.892 93.2055 105.105 92.9614L105.281 92.7593L105.457 92.5581C105.612 92.3804 105.746 92.184 105.855 91.9731L105.982 91.73L106.109 91.4858C106.15 91.4075 106.203 91.3433 106.269 91.2896L106.688 90.9438C106.963 90.718 107.132 90.4174 107.204 90.0825L107.267 89.7944L107.328 89.5063C107.329 89.5009 107.33 89.4955 107.331 89.4927L107.562 89.3335L107.795 89.1733C108.096 88.9658 108.297 88.6689 108.381 88.3149L108.446 88.0386L108.512 87.7612C108.519 87.7304 108.528 87.7183 108.548 87.7026L108.768 87.5269L108.987 87.3521C109.278 87.1201 109.456 86.8026 109.509 86.439L109.55 86.1558L109.583 85.9243L109.822 85.7837L110.089 85.6265C110.356 85.4686 110.585 85.2542 110.744 84.9771L110.878 84.7437L111.012 84.5112C111.153 84.264 111.236 83.9937 111.264 83.7114L111.291 83.4282L111.319 83.146C111.334 82.9994 111.36 82.8626 111.396 82.7368L111.472 82.481L111.547 82.2241C111.58 82.112 111.626 82.0044 111.688 81.9019L111.963 81.439C112.079 81.2447 112.175 81.0402 112.25 80.8276L112.426 80.3257C112.456 80.24 112.505 80.1502 112.578 80.0581L112.938 79.6089C112.996 79.5353 113.042 79.457 113.081 79.3784C113.279 79.39 113.477 79.3739 113.672 79.3296L113.938 79.27L114.202 79.2095C114.313 79.1843 114.429 79.1747 114.55 79.1812L115.104 79.2104C115.495 79.2311 115.847 79.0905 116.121 78.8286L116.332 78.6274L116.542 78.4263C116.65 78.3235 116.753 78.2445 116.85 78.186L117.068 78.0532L117.288 77.9204C117.4 77.8527 117.522 77.7921 117.652 77.7397L117.9 77.6401L118.147 77.5405C118.402 77.4382 118.63 77.2875 118.822 77.0913L119.007 76.9038L119.191 76.7153C119.275 76.6307 119.373 76.5512 119.487 76.478L119.723 76.3267L119.958 76.1763C120.165 76.0439 120.353 75.8869 120.521 75.7075L120.711 75.5044L120.9 75.3003C121.117 75.068 121.26 74.7894 121.324 74.48L121.382 74.2036L121.439 73.9263C121.49 73.6819 121.509 73.4332 121.497 73.1831L121.482 72.897L121.469 72.6108C121.468 72.5934 121.469 72.5854 121.47 72.5845C121.471 72.5824 121.474 72.5761 121.481 72.5659L121.653 72.3403L121.826 72.1147C121.999 71.8883 122.123 71.633 122.188 71.354L122.309 70.8286C122.365 70.5851 122.384 70.3368 122.366 70.0874L122.329 69.5483C122.316 69.3665 122.312 69.2657 122.312 69.2271L122.311 69.1304V69.0337C122.31 68.9672 122.308 68.843 122.307 68.6646L122.304 68.396L122.302 68.1274C122.3 67.9661 122.304 67.7995 122.314 67.6284L122.348 67.0659C122.365 66.7784 122.322 66.4958 122.217 66.2271L122.016 65.7134C121.936 65.5091 121.841 65.312 121.731 65.1226L121.595 64.8843L121.458 64.647C121.307 64.3856 121.099 64.1728 120.85 64.0083L120.355 63.6821C120.261 63.6197 120.207 63.5613 120.175 63.5122L120.036 63.2964L119.896 63.0815C119.85 63.009 119.805 62.9099 119.769 62.7769L119.69 62.4888L119.611 62.1997C119.524 61.8787 119.351 61.5924 119.082 61.3774L119.081 61.3804L118.919 61.5952L118.758 61.8101C118.579 62.0485 118.349 62.2324 118.08 62.3579L117.832 62.4741L117.585 62.5894C117.456 62.6492 117.339 62.7174 117.232 62.7925L117.019 62.9429L116.805 63.0942C116.695 63.1718 116.585 63.2631 116.476 63.3696L116.073 63.7622C115.836 63.9929 115.545 64.1421 115.215 64.1938L114.943 64.2358L114.673 64.2788C114.505 64.3051 114.341 64.3354 114.181 64.3696L113.659 64.481C113.484 64.5183 113.308 64.5548 113.132 64.5913L112.606 64.7007C112.375 64.7485 112.141 64.768 111.905 64.7593L111.368 64.7397C111.152 64.7317 110.937 64.7059 110.726 64.6636L110.463 64.6108L110.201 64.5591C110.115 64.542 110.016 64.539 109.899 64.5571L109.611 64.6011L109.323 64.646C108.966 64.7014 108.613 64.6324 108.304 64.4321L108.068 64.2798L107.832 64.1274C107.624 63.9931 107.436 63.834 107.268 63.6519L107.075 63.4438L106.884 63.2358C106.807 63.1531 106.731 63.0971 106.657 63.0591L106.194 62.8208C105.984 62.7128 105.791 62.5789 105.616 62.4194L105.231 62.0679C105.122 61.9675 105.005 61.8718 104.883 61.7808L104.671 61.6226L104.458 61.4644C104.268 61.323 104.098 61.1598 103.95 60.9751L103.62 60.563C103.443 60.3421 103.322 60.0899 103.255 59.8159L103.126 59.2886C103.106 59.2071 103.074 59.1396 103.027 59.0796L102.865 58.8696L102.703 58.6587C102.551 58.4617 102.431 58.2453 102.346 58.0122L102.164 57.5181C102.128 57.419 102.07 57.3099 101.986 57.1909L101.814 56.9468L101.642 56.7017C101.403 56.363 101.333 55.9594 101.459 55.5562L101.47 55.52L101.244 55.4702C100.976 55.4119 100.726 55.3031 100.498 55.1499L100.264 54.9927L100.029 54.8345C100.02 54.8282 100.015 54.827 100.013 54.8267C100.011 54.8263 100.001 54.8243 99.9795 54.8267L99.6885 54.8579L99.3984 54.8901C99.0205 54.9319 98.6529 54.8304 98.3545 54.5718L98.1455 54.3911L97.9365 54.2095C97.8447 54.1298 97.7478 54.0675 97.6475 54.02L97.4062 53.9058L97.1641 53.7915C96.8883 53.6612 96.6596 53.4652 96.4863 53.2163L96.3311 52.9927L96.1748 52.7681C96.1707 52.7621 96.1581 52.7433 96.0977 52.7241L95.8076 52.6323L95.5186 52.5405C95.1461 52.4227 94.84 52.1712 94.6787 51.7896L94.5693 51.5317L94.4609 51.2739C94.3845 51.0929 94.3122 50.9128 94.2461 50.7349L94.1533 50.4829L94.0596 50.231C94.0008 50.0728 93.9387 49.9177 93.875 49.7671L93.7734 49.5259L93.6709 49.2847C93.6252 49.1766 93.5636 49.0654 93.4824 48.9526L93.3174 48.7241L93.1523 48.4946C92.9015 48.1461 92.8537 47.7369 92.9795 47.3472L93.0713 47.063L93.1631 46.7778C93.1714 46.7521 93.1719 46.7394 93.1719 46.7368C93.1718 46.7356 93.1719 46.7345 93.1719 46.7339C93.1717 46.7331 93.1705 46.7308 93.1689 46.7271L93.0645 46.4712L92.959 46.2153C92.889 46.0452 92.8381 45.9228 92.8076 45.8491L92.7539 45.7192C92.5848 45.8932 92.3899 46.0367 92.166 46.1382L91.9131 46.2524L91.6602 46.3677C91.4165 46.478 91.1593 46.5435 90.8926 46.5649L90.6143 46.5874L90.3369 46.6099C90.1709 46.6232 90.0068 46.6431 89.8467 46.6694L89.5771 46.7144L89.3066 46.7583C88.9906 46.8102 88.6792 46.7701 88.3867 46.6519L88.1191 46.5435L87.8516 46.436C87.7882 46.4105 87.7394 46.4068 87.6924 46.4146L87.4199 46.4595L87.1465 46.5044C86.8625 46.5509 86.5779 46.5347 86.3008 46.4536L86.042 46.3784L85.7832 46.3022C85.6055 46.2502 85.4275 46.1962 85.251 46.1401L84.9941 46.0581L84.7373 45.9771C84.4944 45.8999 84.2677 45.7858 84.0605 45.6372L83.8408 45.48L83.6211 45.3218C83.5016 45.2361 83.377 45.1595 83.248 45.0923L83.0098 44.9683L82.7715 44.8433C82.6128 44.7605 82.4498 44.6764 82.2842 44.5903L82.0352 44.4614L81.7871 44.3315C81.4559 44.1594 81.2223 43.8822 81.0977 43.5396L80.9971 43.2642L80.8975 42.9897C80.8829 42.9498 80.866 42.9302 80.8359 42.9106L80.3516 42.5962C79.9872 42.3593 79.7915 41.9886 79.7754 41.5688L79.7637 41.2681L79.752 40.9683C79.7484 40.8781 79.7278 40.8288 79.709 40.7993L79.5654 40.5757L79.4209 40.3511C79.2546 40.0913 79.1667 39.7998 79.1582 39.4927L79.1504 39.2231L79.1436 38.9536C79.1416 38.8862 79.1249 38.8214 79.0889 38.7534L78.96 38.5103L78.8418 38.2896L78.7852 38.3569L78.6045 38.5679C78.4219 38.781 78.2021 38.9522 77.9492 39.0747L77.7051 39.1929L77.46 39.312C77.2491 39.4141 77.029 39.4918 76.8008 39.5444L76.5361 39.605L76.2705 39.6665C76.0108 39.7264 75.7464 39.7383 75.4814 39.7056L75.2031 39.6714L74.958 39.6411C74.9572 39.6418 74.9559 39.6423 74.9551 39.6431L74.7158 39.8452L74.4756 40.0483C74.1601 40.3151 73.7508 40.4388 73.3145 40.3169L73.043 40.2417L72.7725 40.1655C72.6801 40.1397 72.5924 40.1333 72.5059 40.144L72.2334 40.1782L71.96 40.2114C71.7306 40.2398 71.4996 40.2457 71.2686 40.228L70.7158 40.1851C70.4397 40.1638 70.1752 40.0906 69.9277 39.9663L69.6797 39.8423L69.4326 39.7173C69.2103 39.6055 69.0062 39.4654 68.8213 39.2983L68.6143 39.1118L68.4072 38.9243C68.2566 38.7882 68.1131 38.6491 67.9775 38.5063L67.7939 38.312L67.6094 38.1187C67.5562 38.0627 67.4938 38.0192 67.416 37.9868L66.9141 37.7778C66.7281 37.7003 66.5421 37.6127 66.3564 37.5171L66.1016 37.3862L65.8477 37.2554C65.5548 37.1045 65.3189 36.8782 65.1611 36.5845L65.0303 36.3413L64.8994 36.0972C64.7832 35.8807 64.6963 35.6517 64.6387 35.4126L64.5078 34.8716C64.4653 34.6953 64.4227 34.5247 64.3799 34.3599L64.3145 34.106L64.2998 34.0513Z" fill="#303A4B"/>
</g>
<defs>
<clipPath id="clip0_395_3029">
<rect width="128" height="128" fill="white"/>
</clipPath>
</defs>
</svg>
