<svg width="128" height="128" viewBox="0 0 128 128" fill="none" xmlns="http://www.w3.org/2000/svg">
<path d="M59.7788 8.99414C59.9748 9.00063 60.1503 9.05958 60.2993 9.14258L60.4399 9.2334L60.7026 9.42578L60.8882 9.5625L61.0483 9.48633L61.3198 9.35938C61.6059 9.2251 61.919 9.16228 62.2427 9.19922L62.5093 9.23047L62.7769 9.26074C63.0328 9.29015 63.2808 9.36182 63.5151 9.4707L63.7661 9.58789L64.0181 9.7041C64.0817 9.7337 64.1419 9.74523 64.2056 9.74219L64.479 9.72754L64.7524 9.71387C64.9515 9.70361 65.1519 9.70049 65.3511 9.70508L65.6245 9.71191L65.897 9.71777C66.2867 9.72682 66.6207 9.8954 66.8765 10.1543L67.0913 10.373L67.2808 10.5645L67.5132 10.5381L67.8022 10.5049C68.1019 10.4707 68.4027 10.5052 68.687 10.6201L69.1831 10.8213C69.4332 10.9226 69.6589 11.0694 69.856 11.2539L70.061 11.4463L70.2651 11.6387H70.2661L70.2827 11.6396L70.5776 11.6416L70.8716 11.6436C71.1915 11.6453 71.5025 11.7292 71.7778 11.9092L72.0044 12.0576L72.23 12.2051C72.362 12.2916 72.4988 12.373 72.6382 12.4473L73.1147 12.7012C73.2607 12.7789 73.4123 12.8537 73.5669 12.9248L74.0688 13.1553C74.467 13.3382 74.6967 13.6808 74.7954 14.0547L74.8794 14.373L74.939 14.5967L75.1147 14.6387L75.4116 14.708C75.7235 14.7812 76.0042 14.9439 76.2095 15.2031L76.2925 15.3203L76.4399 15.5518L76.4956 15.6387L76.6206 15.6543L76.8862 15.6865C77.1337 15.7164 77.3747 15.7838 77.605 15.8838L77.8608 15.9951L78.1167 16.1055C78.1775 16.1319 78.2314 16.1393 78.2876 16.1338L78.8306 16.0791C78.9856 16.0633 79.1448 16.0383 79.3052 16.0049L79.5806 15.9473L79.8569 15.8896L80.0073 15.8672C80.3537 15.8342 80.6789 15.9399 80.9507 16.1445L81.1948 16.3291L81.439 16.5127C81.5253 16.5778 81.5936 16.6032 81.6431 16.6123L81.9048 16.6592L82.1665 16.707C82.185 16.7104 82.2306 16.7138 82.3179 16.6777L82.606 16.5576L82.8931 16.4385C83.1639 16.3259 83.452 16.2645 83.7476 16.2744L84.2866 16.292C84.5144 16.2998 84.7405 16.3315 84.9614 16.3857L85.2222 16.4502L85.4819 16.5137C85.7442 16.5781 85.9899 16.6916 86.2144 16.8438L86.4556 17.0078L86.6636 17.1484L86.9214 17.0762L87.2095 16.9932L87.3638 16.958C87.723 16.8978 88.0769 16.9889 88.3716 17.2236L88.604 17.4102L88.8374 17.5957C88.9128 17.6559 88.9745 17.6799 89.0229 17.6895L89.5464 17.791C89.7467 17.8296 89.9457 17.8787 90.1401 17.9395L90.394 18.0195L90.6479 18.0986C90.7356 18.126 90.8345 18.1404 90.9468 18.1367L91.23 18.127L91.5122 18.1172C91.7473 18.109 91.9808 18.1243 92.2095 18.1641L92.7466 18.2578C93.0266 18.3067 93.2875 18.4142 93.522 18.5742L93.7505 18.7295L93.979 18.8857C94.1069 18.9731 94.2383 19.0509 94.3696 19.1182L94.6089 19.2412L94.8481 19.3633C94.9937 19.4377 95.1425 19.5076 95.2915 19.5723L95.7817 19.7852C95.9842 19.873 96.1787 19.9794 96.3628 20.1025L96.5864 20.2529L96.811 20.4023C96.8728 20.4437 96.9444 20.4734 97.0317 20.4883L97.3081 20.5342L97.5835 20.5801C97.902 20.6333 98.1902 20.7739 98.4282 20.9941L98.6304 21.1816L98.8335 21.3691C98.8659 21.3991 98.9025 21.4193 98.9585 21.4297L99.2378 21.4805L99.5181 21.5312C99.7862 21.5799 100.041 21.6744 100.273 21.8174L100.501 21.959L100.731 22.1006C100.957 22.2404 101.154 22.4187 101.319 22.6279L101.494 22.8496L101.669 23.0713C101.782 23.2135 101.894 23.3534 102.007 23.4883L102.361 23.9102C102.433 23.9968 102.513 24.0666 102.598 24.1211L103.045 24.4062C103.231 24.5246 103.406 24.6594 103.567 24.8096L103.76 24.9912L103.955 25.1729C104.004 25.2186 104.069 25.2583 104.158 25.2881L104.428 25.3779L104.698 25.4678C105.062 25.589 105.343 25.8394 105.509 26.1816L105.761 26.7012C105.789 26.7593 105.819 26.7863 105.847 26.8037L106.078 26.9443L106.308 27.084C106.501 27.2012 106.681 27.3374 106.846 27.4893L107.237 27.8486C107.339 27.9427 107.452 28.0315 107.573 28.1123L107.798 28.2637L108.025 28.415C108.242 28.5603 108.431 28.7397 108.586 28.9492L108.747 29.1641L108.907 29.3799C109.011 29.5199 109.117 29.6594 109.222 29.7969L109.384 30.0088L109.546 30.2197C109.639 30.3409 109.74 30.4583 109.845 30.5693L110.029 30.7627L110.211 30.9561C110.403 31.158 110.546 31.3949 110.642 31.6553L110.739 31.916L110.834 32.1777C110.847 32.212 110.864 32.2345 110.898 32.2578L111.361 32.5762C111.533 32.6947 111.7 32.821 111.859 32.9541L112.071 33.1328L112.284 33.3105C112.458 33.4563 112.617 33.6169 112.76 33.79L112.933 33.999L113.105 34.208C113.355 34.5105 113.441 34.8742 113.422 35.2305L113.405 35.5547L113.387 35.8779C113.381 35.9985 113.402 36.0623 113.416 36.0918L113.531 36.3301L113.647 36.5684C113.648 36.5704 113.652 36.577 113.662 36.5869C113.673 36.5981 113.697 36.6178 113.74 36.6406L114.021 36.792L114.303 36.9424C114.495 37.045 114.678 37.2023 114.798 37.4287C114.919 37.656 114.944 37.8969 114.92 38.1143L114.885 38.4297L114.855 38.7021L115.012 38.8467L115.224 39.041C115.468 39.2651 115.638 39.5501 115.707 39.8818L115.761 40.1475L115.817 40.4141C115.831 40.4825 115.859 40.5452 115.907 40.6064L116.077 40.8252L116.248 41.0439C116.428 41.2759 116.55 41.5412 116.606 41.8311L116.708 42.3623C116.726 42.4592 116.761 42.5518 116.812 42.6396L117.087 43.1104C117.209 43.3184 117.304 43.5396 117.369 43.7705L117.513 44.2861C117.551 44.4204 117.6 44.5533 117.661 44.6836L117.889 45.1777C118.053 45.5307 118.048 45.9016 117.936 46.2432L117.838 46.542L117.776 46.7334L117.914 46.8779L118.13 47.1045C118.369 47.3542 118.534 47.669 118.562 48.0381L118.603 48.5771C118.617 48.7641 118.628 48.9518 118.636 49.1387L118.647 49.4082L118.659 49.6768C118.668 49.9006 118.657 50.1257 118.625 50.3496L118.547 50.8965C118.526 51.0451 118.517 51.1907 118.517 51.332L118.518 51.5986L118.519 51.8643C118.52 51.9936 118.534 52.123 118.56 52.251L118.614 52.5127L118.668 52.7744C118.701 52.929 118.74 53.0862 118.787 53.2432L118.865 53.5059L118.943 53.7695C119.01 53.9959 119.05 54.2279 119.064 54.4619L119.095 54.9971C119.114 55.3229 119.034 55.631 118.884 55.9092L118.597 56.4424C118.557 56.5177 118.527 56.5793 118.504 56.626C118.539 56.7051 118.576 56.7921 118.614 56.8848L118.833 57.418C118.956 57.7189 118.992 58.0413 118.924 58.3662L118.813 58.8994C118.8 58.9616 118.802 59.0233 118.822 59.0918L118.898 59.3584L118.975 59.625C119.054 59.9012 119.072 60.1862 119.025 60.4707L118.937 61.0039C118.922 61.0942 118.924 61.1841 118.943 61.2764L118.976 61.4307L118.861 61.2598C118.607 60.8797 118.207 60.6913 117.764 60.7139L117.155 60.7451L116.94 60.541L116.721 60.334L116.598 60.2295C116.342 60.0387 116.035 59.9549 115.714 59.9961L115.552 60.0273L115.268 60.1006L114.984 60.1729C114.957 60.1797 114.94 60.1801 114.906 60.1641L114.635 60.0381L114.364 59.9111C114.058 59.7688 113.725 59.7354 113.4 59.8301L113.261 59.8779L112.998 59.9854L112.735 60.0928C112.559 60.1644 112.388 60.2343 112.221 60.3027L111.993 60.3965C111.967 60.3493 111.941 60.3025 111.919 60.2549L111.697 59.7725C111.647 59.6642 111.608 59.5475 111.583 59.4219L111.475 58.8848C111.406 58.5406 111.226 58.2495 110.965 58.0273L110.746 57.8398L110.525 57.6523C110.518 57.646 110.513 57.6406 110.51 57.6377C110.508 57.6355 110.507 57.6335 110.506 57.6328C110.506 57.632 110.505 57.6302 110.504 57.6289C110.504 57.6267 110.502 57.6219 110.501 57.6162L110.458 57.3398L110.413 57.0625C110.374 56.8232 110.309 56.5913 110.214 56.3711L110.108 56.124L110.002 55.877C109.938 55.7268 109.878 55.5715 109.822 55.4131L109.73 55.1533L109.638 54.8945C109.526 54.5791 109.325 54.32 109.057 54.1279L108.825 53.9609L108.591 53.7939C108.56 53.7717 108.55 53.7542 108.542 53.7266L108.458 53.458L108.375 53.1885L108.327 53.0527C108.197 52.7459 107.968 52.5102 107.673 52.3594L107.409 52.2236L107.144 52.0889C107.085 52.0585 107.068 52.0325 107.059 52.0156L106.807 51.5371C106.679 51.2937 106.507 51.0819 106.294 50.9072L105.876 50.5635C105.873 50.5608 105.856 50.5477 105.842 50.4873L105.783 50.2256C105.768 50.2144 105.754 50.2015 105.739 50.1914L105.292 49.9004C105.142 49.8034 104.992 49.7053 104.841 49.6074L104.617 49.4609L104.391 49.3135C104.211 49.196 104.04 49.0653 103.879 48.9219L103.68 48.7432L103.48 48.5635C103.363 48.4589 103.241 48.3592 103.114 48.2646L102.896 48.1025L102.679 47.9414C102.605 47.8862 102.522 47.8447 102.426 47.8174L102.161 47.7422L101.895 47.666C101.715 47.6147 101.535 47.5619 101.356 47.5078L101.092 47.4277L100.829 47.3486C100.631 47.2889 100.438 47.2202 100.252 47.1426L100.007 47.04L99.7632 46.9385C99.488 46.8237 99.2545 46.6449 99.064 46.4209L98.8765 46.2012L98.6899 45.9814C98.6064 45.8832 98.5196 45.8072 98.4312 45.749L98.2075 45.6016L97.9829 45.4541C97.8643 45.3763 97.7394 45.308 97.6099 45.249L97.1216 45.0264C96.9464 44.9467 96.7728 44.8627 96.603 44.7734L96.3667 44.6484L96.1294 44.5244C96.0357 44.4751 95.9335 44.4391 95.8218 44.418L95.5532 44.3672L95.2837 44.3164C95.0559 44.2734 94.8351 44.2067 94.6235 44.1172L94.3774 44.0137L94.1313 43.9092C93.9554 43.8347 93.7807 43.7554 93.6089 43.6709L93.3696 43.5527L93.1294 43.4346C93.1056 43.4229 93.0654 43.4101 92.9868 43.4189L92.689 43.4521L92.3921 43.4863C92.0152 43.5292 91.6476 43.4327 91.3442 43.1816L91.1274 43.002L90.9097 42.8223C90.8078 42.7378 90.7028 42.6699 90.5952 42.6182L90.3521 42.502L90.1089 42.3848C89.9473 42.3072 89.7856 42.2293 89.6245 42.1523L89.3823 42.0371L89.1392 41.9209C89.0961 41.9004 89.043 41.8873 88.9663 41.8926L88.6802 41.9131L88.394 41.9326C88.061 41.956 87.7373 41.8817 87.4487 41.7031L87.2144 41.5586L86.98 41.4131C86.8869 41.3554 86.793 41.3165 86.6978 41.2939L86.439 41.2334L86.1792 41.1719C86.0139 41.1329 85.8464 41.0967 85.6782 41.0625L85.4155 41.0088L85.1519 40.9551C84.9575 40.9156 84.7649 40.8685 84.5757 40.8135L84.3188 40.7383L84.063 40.6641C83.9075 40.6188 83.7499 40.5781 83.5913 40.543L83.0698 40.4277C82.9226 40.3951 82.7709 40.37 82.6157 40.3535L82.3442 40.3252L82.0728 40.2959C81.6658 40.2527 81.3443 40.0353 81.1167 39.7432L80.7222 39.2354C80.695 39.2005 80.6753 39.1854 80.6685 39.1807C80.6637 39.1775 80.6646 39.1788 80.6685 39.1797L80.4087 39.1211L80.1479 39.0625C79.9685 39.0221 79.7887 38.9798 79.6099 38.9346L79.3501 38.8691L79.0913 38.8027C78.9357 38.7634 78.7766 38.7304 78.6157 38.7021L78.3491 38.6553L78.0815 38.6084C77.8604 38.5696 77.6447 38.5105 77.436 38.4316L76.936 38.2422C76.7187 38.1599 76.5121 38.0534 76.3179 37.9238L75.8667 37.623C75.772 37.5599 75.6716 37.5121 75.5649 37.4785L75.0513 37.3164C74.77 37.2278 74.5215 37.0756 74.312 36.8701L74.1138 36.6758L73.9165 36.4824C73.9 36.4662 73.8821 36.4534 73.8364 36.4473L73.2622 36.3711C72.9118 36.3247 72.5971 36.1672 72.355 35.8984L72.1694 35.6934L71.9849 35.4873C71.8417 35.3283 71.7075 35.1607 71.5845 34.9844L71.4253 34.7549L71.2915 34.5645L70.9858 34.5332L70.6714 34.501C70.2485 34.4577 69.8699 34.2363 69.6636 33.8203L69.5874 33.668C69.5559 33.6592 69.5233 33.6521 69.4917 33.6416L69.2329 33.5557L68.9731 33.4697C68.7205 33.386 68.4587 33.3482 68.1929 33.3594L67.9253 33.3711L67.6587 33.3818C67.4613 33.3902 67.263 33.4072 67.0659 33.4316L66.7993 33.4648L66.5317 33.4971C66.412 33.5119 66.2945 33.5119 66.1782 33.4971L65.9146 33.4639L65.6499 33.4297C65.5928 33.4223 65.5122 33.398 65.4067 33.332L65.1411 33.166L64.8745 32.999C64.6128 32.8353 64.3118 32.7405 63.9897 32.7598L63.8501 32.7754L63.5815 32.8184L63.314 32.8613C63.1712 32.8841 63.0293 32.8953 62.8892 32.8955L62.6216 32.8965H62.354C62.0416 32.8971 61.7475 32.9842 61.481 33.1328L61.2202 33.2783L61.0571 33.3701L60.856 33.249L60.5786 33.084L60.4224 33.0049C60.2581 32.9352 60.0686 32.8968 59.8638 32.9199C59.6616 32.9428 59.4882 33.0201 59.3452 33.1191L59.2114 33.2246L58.9614 33.4492L58.7759 33.6172L58.6206 33.5615L58.3442 33.4639C58.0417 33.3569 57.7199 33.3309 57.3989 33.4102L56.8774 33.5391C56.7113 33.5801 56.5444 33.6185 56.3774 33.6543L56.1147 33.7109L56.1069 33.7119L56.0903 33.875C56.062 34.1464 55.9936 34.4088 55.8735 34.6514L55.7583 34.8848L55.6431 35.1172C55.5566 35.2919 55.4623 35.4637 55.3599 35.6309L55.2222 35.8545L55.0854 36.0781C54.9667 36.2719 54.825 36.4555 54.6636 36.6289L54.2651 37.0566C54.2223 37.1027 54.2109 37.1349 54.2065 37.1631L54.1245 37.7021C54.1121 37.7836 54.1144 37.8715 54.1392 37.9707L54.2095 38.249L54.2788 38.5283C54.3592 38.8509 54.3426 39.18 54.2212 39.4941L54.1216 39.7529L54.021 40.0127C54.0038 40.0574 54.0033 40.0886 54.0112 40.124L54.0698 40.3887L54.1294 40.6533C54.1787 40.8744 54.2056 41.0984 54.2104 41.3232L54.2163 41.5879L54.2222 41.8535C54.2239 41.9347 54.241 42.0141 54.2769 42.0957L54.3862 42.3447L54.4956 42.5928C54.5743 42.7715 54.6469 42.9509 54.7124 43.1299L54.8022 43.376L54.8921 43.623C54.9874 43.8838 55.0248 44.1565 55.0103 44.4326L54.981 44.9951C54.9712 45.1805 54.9613 45.3699 54.9526 45.5625L54.9399 45.8535L54.9272 46.1455C54.9262 46.1687 54.9291 46.1785 54.9292 46.1787V46.1807C54.9299 46.1819 54.9321 46.1847 54.9351 46.1885L55.105 46.4072L55.2759 46.626C55.3743 46.7526 55.4799 46.8756 55.5923 46.9932L55.979 47.3975C56.1393 47.5652 56.2814 47.7464 56.4028 47.9395L56.5454 48.165L56.688 48.3916C56.8186 48.5993 56.9176 48.8233 56.9858 49.0596L57.1362 49.5791C57.1773 49.7211 57.2279 49.8593 57.2876 49.9932L57.5063 50.4854C57.5714 50.6313 57.643 50.775 57.7202 50.916L57.8501 51.1543L57.981 51.3916C58.0527 51.5225 58.1317 51.6462 58.2173 51.7627L58.3745 51.9766L58.5308 52.1904C58.6086 52.2963 58.6787 52.3706 58.7378 52.4199L58.9058 52.5586L59.0728 52.6982C59.1125 52.7315 59.1999 52.8071 59.27 52.915C59.3042 52.9677 59.3754 53.0902 59.3901 53.2617C59.4083 53.4749 59.3318 53.6998 59.1567 53.8604C59.0154 53.9897 58.8621 54.0287 58.7944 54.042C58.7167 54.0573 58.6488 54.0577 58.6069 54.0566C58.5227 54.0545 58.4425 54.0419 58.3833 54.0303L58.1206 53.9785L57.8569 53.9268C57.7049 53.8968 57.5482 53.874 57.3882 53.8584L57.1147 53.8311L56.8413 53.8047C56.5018 53.7715 56.1987 53.6323 55.9487 53.4092L55.7339 53.2168L55.52 53.0254C55.413 52.9298 55.3047 52.8527 55.1968 52.792L54.9624 52.6602L54.729 52.5293C54.7063 52.5166 54.669 52.5019 54.5942 52.5068L54.2974 52.5273L54.0015 52.5469C53.5814 52.5752 53.1996 52.417 52.9243 52.0967L52.731 51.8721L52.5386 51.6475C52.4854 51.5855 52.4426 51.5618 52.4097 51.5508L52.1558 51.4678L51.9019 51.3838C51.8149 51.3552 51.7091 51.3377 51.5796 51.3389L51.2817 51.3418L50.9829 51.3447C50.5882 51.3484 50.2261 51.1976 49.9565 50.8955L49.7651 50.6807L49.5737 50.4668C49.4572 50.3361 49.3395 50.2118 49.2202 50.0957L49.022 49.9033L48.8237 49.71C48.8173 49.7037 48.813 49.702 48.811 49.7012C48.8081 49.6999 48.7965 49.6954 48.772 49.6934L48.48 49.6699L48.187 49.6455C47.797 49.6141 47.4541 49.4336 47.2124 49.1172L47.0386 48.8906L46.8647 48.6631C46.8439 48.6358 46.8311 48.6287 46.8091 48.623L46.5376 48.5537L46.2671 48.4844C45.9937 48.4145 45.7407 48.2927 45.519 48.1162L45.3101 47.9492L45.1001 47.7822C44.9049 47.6267 44.7354 47.4435 44.5913 47.2373L44.271 46.7783C44.237 46.7297 44.2005 46.7024 44.1558 46.6826L43.9058 46.5713L43.6548 46.4609C43.4114 46.3536 43.1917 46.2064 43.0024 46.0195L42.814 45.832L42.6245 45.6455C42.5084 45.5308 42.3884 45.4198 42.2661 45.3125L41.8677 44.9629C41.7079 44.8227 41.5592 44.6704 41.4224 44.5078L41.2515 44.3047L41.0815 44.1025C40.9799 43.9817 40.8723 43.8647 40.7612 43.752L40.5757 43.5625L40.3892 43.373C40.2259 43.2073 40.0835 43.0243 39.9634 42.8252L39.8267 42.5986L39.6899 42.3711C39.6679 42.3345 39.6246 42.2849 39.5337 42.2305L39.27 42.0732L39.0073 41.916C38.8303 41.8103 38.6671 41.66 38.5542 41.457C38.4412 41.2536 38.4003 41.0355 38.4058 40.8271L38.4136 40.5244L38.4214 40.2227C38.4236 40.1395 38.406 40.0951 38.3892 40.0664L38.1138 39.5977C37.9888 39.3856 37.9247 39.1568 37.9165 38.9229L37.645 38.9014L37.4878 38.8975C37.3291 38.9025 37.1654 38.936 37.0073 39.0107C36.8486 39.0859 36.7176 39.1919 36.6128 39.3135L36.5161 39.4395L36.3462 39.6924L36.1772 39.9453C36.1183 40.0329 36.064 40.0756 36.022 40.0986L35.7886 40.2256L35.5562 40.3535C35.5084 40.3796 35.4401 40.4022 35.3374 40.4062L35.0396 40.418L34.7407 40.4297C34.4234 40.4422 34.1235 40.5464 33.8745 40.752L33.771 40.8457L33.3804 41.2383C33.2808 41.3381 33.1773 41.4242 33.0698 41.4971L32.8491 41.6465L32.6294 41.7949C32.5239 41.8664 32.4096 41.9283 32.2856 41.9795L32.0337 42.084L31.7817 42.1875C31.5027 42.3028 31.2644 42.4824 31.0747 42.7158L30.8999 42.9307L30.7251 43.1465C30.6796 43.2025 30.6293 43.2395 30.5688 43.2656L30.3188 43.374L30.0679 43.4824C29.8471 43.578 29.6412 43.6998 29.4526 43.8467L29.2427 44.0098L29.0327 44.1738C28.8868 44.2876 28.742 44.4045 28.5991 44.5234L28.3931 44.6943L28.188 44.8652C28.0962 44.9417 27.9936 45.008 27.8794 45.0635L27.6323 45.1836L27.3862 45.3037C27.0329 45.4754 26.7996 45.7699 26.6772 46.1162L26.5747 46.4053L26.4722 46.6953C26.4599 46.7301 26.4487 46.7474 26.4438 46.7539C26.44 46.7589 26.4377 46.761 26.4351 46.7627L26.2075 46.9062L25.98 47.0488C25.8866 47.1075 25.7726 47.1604 25.6343 47.2031L25.3481 47.291L25.062 47.3799C24.7334 47.4815 24.4455 47.6773 24.2437 47.9746L24.0913 48.1992L23.938 48.4248C23.8524 48.551 23.7598 48.6704 23.6616 48.7822L23.4849 48.9844L23.3081 49.1855C23.1482 49.3676 23.0132 49.5696 22.9048 49.7881L22.7827 50.0352L22.6597 50.2822C22.5898 50.4231 22.5138 50.5569 22.4321 50.6826L22.1411 51.1318C22.1159 51.1706 22.0764 51.2105 22.0034 51.249L21.7456 51.3848L21.4888 51.5195C21.1758 51.6842 20.9534 51.9465 20.8442 52.2725L20.8052 52.416L20.6782 52.9863C20.6551 53.0904 20.6187 53.1641 20.5786 53.2188L20.4224 53.4316L20.2651 53.6455C20.2066 53.7252 20.1306 53.8022 20.0327 53.874L19.8052 54.041L19.5767 54.209C19.2814 54.4256 19.0876 54.7294 19.0151 55.0879L18.9595 55.3662L18.9028 55.6445C18.8955 55.6806 18.8847 55.6973 18.8628 55.7168L18.6528 55.9023L18.4438 56.0889C18.1615 56.3397 18.0039 56.6716 17.9751 57.04L17.9526 57.3301L17.937 57.5361L17.7085 57.668L17.4331 57.8281C17.1221 58.0085 16.886 58.2913 16.8052 58.6602L16.7808 58.8242L16.7554 59.1074L16.731 59.3896C16.7215 59.4971 16.6958 59.5868 16.6587 59.6631L16.5415 59.9023L16.4243 60.1426C16.3855 60.2222 16.3554 60.3048 16.3286 60.3877C16.0371 60.1888 15.6985 60.1042 15.3452 60.1475L15.0698 60.1816L14.7954 60.2148C14.7478 60.2206 14.6949 60.2156 14.6245 60.1846L14.354 60.0664L14.0845 59.9473C13.748 59.7992 13.3814 59.776 13.0249 59.9033L12.7612 59.998L12.4976 60.0918C12.2481 60.1809 12.018 60.3091 11.8101 60.4736L11.5874 60.6494L11.3657 60.8252C11.2516 60.9155 11.1418 60.9848 11.0376 61.0371L10.8101 61.1523L10.5825 61.2666C10.5195 61.2982 10.4311 61.3257 10.3081 61.3379L9.72021 61.3965C9.57906 61.4106 9.44186 61.4419 9.31006 61.4883L9.24365 61.2725C9.15959 60.9957 9.13699 60.7089 9.18213 60.4219L9.2251 60.1553L9.26709 59.8877C9.30316 59.6593 9.36398 59.4335 9.44775 59.2129L9.54932 58.9463L9.6499 58.6797C9.65045 58.6784 9.65144 58.6767 9.65186 58.6758C9.65119 58.6743 9.64978 58.672 9.64893 58.6699L9.53955 58.4033L9.4292 58.1367C9.30976 57.8463 9.26679 57.5347 9.31787 57.2188L9.36182 56.9521L9.40479 56.6855C9.41828 56.6022 9.42746 56.5376 9.43311 56.4912C9.43587 56.4684 9.43717 56.4515 9.43799 56.4414C9.43834 56.4373 9.43879 56.4342 9.43896 56.4336V56.2666C9.43901 56.2431 9.44289 56.2198 9.44482 56.1973L9.4292 56.1621C9.3098 55.8717 9.26675 55.5601 9.31787 55.2441L9.34619 55.0771C9.31614 55.0501 9.28403 55.0204 9.25635 54.9854C9.07536 54.7554 9.08993 54.506 9.104 54.4053C9.13121 54.2123 9.22752 54.0481 9.27197 53.9746L9.40186 53.7607L9.53174 53.5459C9.5607 53.498 9.58218 53.4395 9.59033 53.3613L9.64502 52.832C9.66389 52.65 9.68508 52.4675 9.7085 52.2861L9.77686 51.7588C9.79332 51.6313 9.80688 51.5028 9.81982 51.375L9.7876 51.2441L9.72021 50.9688C9.64761 50.67 9.67305 50.3726 9.78467 50.0977L9.72998 49.8643C9.6619 49.57 9.66448 49.2685 9.74756 48.9746L9.82178 48.7148L9.89502 48.4561C9.93776 48.305 9.97276 48.1522 10.0005 48L10.0483 47.7383L10.0962 47.4756C10.1331 47.2732 10.1821 47.0728 10.2427 46.876L10.3208 46.6201L10.3999 46.3652C10.4388 46.2387 10.4656 46.1079 10.48 45.9746L10.5083 45.708L10.5376 45.4404C10.5584 45.2479 10.5851 45.055 10.6177 44.8643L10.7075 44.335C10.745 44.1157 10.8026 43.9008 10.8794 43.6924L10.9722 43.4414L11.0649 43.1895C11.1143 43.0554 11.1537 42.917 11.1831 42.7754L11.2378 42.5117L11.2935 42.2471C11.3341 42.0515 11.3829 41.857 11.4399 41.666L11.5171 41.4092L11.5933 41.1514C11.6843 40.8467 11.8569 40.5863 12.0845 40.375L12.5181 39.9727C12.5835 39.9118 12.6122 39.8602 12.6265 39.8174L12.7104 39.5645L12.7114 39.5615L12.7095 39.5508C12.6542 39.2221 12.6836 38.8811 12.8413 38.5645L12.9604 38.3252C12.9903 38.1085 13.0381 37.8959 13.105 37.6904L13.189 37.4316L13.2729 37.1738C13.3744 36.8626 13.5621 36.6023 13.811 36.4004L14.2622 36.0352C14.3714 35.9467 14.4595 35.8545 14.5298 35.7617L14.6919 35.5479L14.853 35.335C14.9493 35.2078 15.0399 35.077 15.1245 34.9443L15.4097 34.4971C15.4804 34.3862 15.5585 34.28 15.6401 34.1768L15.6323 34.0918L15.603 33.7627C15.5838 33.5442 15.6133 33.2956 15.7466 33.0645C15.8811 32.8316 16.0835 32.6806 16.2896 32.5898L16.3286 32.5723C16.3876 32.3696 16.4819 32.1769 16.6196 32.0049L16.7866 31.7959L16.9546 31.5859C17.038 31.4818 17.1124 31.369 17.1772 31.2471L17.3052 31.0059L17.4331 30.7656C17.5376 30.5691 17.6591 30.3825 17.7954 30.208L17.9614 29.9951L18.1274 29.7832C18.2696 29.6014 18.4457 29.4694 18.6372 29.377L18.7378 29.2246L18.8843 29.002C19.0419 28.7626 19.2477 28.5664 19.4897 28.416L19.73 28.2676L19.9692 28.1182C19.9811 28.1108 19.9856 28.106 19.9868 28.1045C19.988 28.103 19.9935 28.0961 19.9995 28.0781L20.0894 27.8057L20.1802 27.5332C20.2698 27.263 20.41 27.0163 20.604 26.8057L20.9673 26.4111C21.0987 26.2685 21.2345 26.1296 21.3745 25.9961L21.5679 25.8125L21.7622 25.6279C21.877 25.5186 21.9874 25.4039 22.0933 25.2852L22.272 25.085L22.4497 24.8848C22.5509 24.7712 22.6469 24.6508 22.7368 24.5244L22.895 24.3027L23.0522 24.0811C23.2163 23.8505 23.4244 23.662 23.6685 23.5195L23.9067 23.3809L24.144 23.2422C24.3517 23.121 24.5749 23.0247 24.8091 22.9521L25.0884 22.8652L25.3677 22.7793C25.4328 22.7591 25.4612 22.7335 25.48 22.7109L25.6519 22.5039L25.8237 22.2959C25.9585 22.1329 26.1037 21.9797 26.2583 21.8379L26.4536 21.6592L26.6489 21.4795C26.816 21.3262 26.9988 21.1909 27.1948 21.0752L27.4263 20.9385L27.6577 20.8027C27.7736 20.7343 27.8812 20.6562 27.98 20.5693L28.1792 20.3945L28.3784 20.2188C28.5159 20.0979 28.656 19.978 28.7974 19.8604L29.0024 19.6904L29.2075 19.5195C29.3385 19.4106 29.4681 19.2988 29.5962 19.1855L29.7974 19.0088L29.9976 18.8311C30.1069 18.7344 30.2132 18.6276 30.3149 18.5107L30.4966 18.3018L30.6792 18.0918C30.8451 17.9013 31.0354 17.7375 31.2485 17.6045L31.4761 17.4629L31.7026 17.3213C31.9398 17.1734 32.2019 17.0798 32.4771 17.0352L33.0454 16.9434C33.1768 16.9221 33.2911 16.8869 33.3901 16.8418L33.6323 16.7305L33.8745 16.6201C33.9177 16.6004 33.9672 16.5663 34.02 16.4961L34.1948 16.2617L34.3706 16.0283C34.5359 15.8083 34.7357 15.6203 34.9692 15.4756L35.1978 15.334L35.4253 15.1934C35.5905 15.0911 35.7597 14.9934 35.9312 14.9023L36.1685 14.7764L36.4048 14.6514C36.5987 14.5483 36.8018 14.462 37.0112 14.3936L37.5249 14.2256C37.702 14.1678 37.8809 14.1122 38.0591 14.0596L38.3179 13.9834L38.5757 13.9072C38.7111 13.8672 38.8424 13.8163 38.9683 13.7559L39.2095 13.6396L39.4507 13.5244C39.6082 13.4487 39.7661 13.3709 39.9224 13.293L40.4009 13.0547C40.5654 12.9726 40.7325 12.892 40.8999 12.8135L41.144 12.6992L41.3872 12.585C41.6112 12.48 41.8484 12.4079 42.0933 12.3701L42.3608 12.3291L42.6294 12.2871C42.77 12.2654 42.907 12.2334 43.0386 12.1904L43.2925 12.1074L43.5464 12.0234C43.7431 11.9591 43.9446 11.907 44.1479 11.8672L44.4106 11.8164L44.6733 11.7646C44.7173 11.7561 44.7699 11.7346 44.8345 11.6797L45.0581 11.4902L45.2808 11.2998C45.5586 11.0632 45.9004 10.9376 46.2739 10.9521L46.5542 10.9629L46.8354 10.9746C46.9126 10.9777 46.9757 10.9634 47.0337 10.9365L47.2808 10.8223L47.5269 10.707C47.8563 10.5538 48.2074 10.5379 48.5425 10.624L49.1265 10.7744C49.2004 10.7934 49.2365 10.7855 49.2544 10.7793L49.5054 10.6895L49.7573 10.6006C49.9403 10.5357 50.1266 10.477 50.314 10.4248L50.5728 10.3525L50.8306 10.2812C51.0008 10.2339 51.1717 10.185 51.3413 10.1367L51.855 9.99023C52.0591 9.93207 52.2677 9.88928 52.478 9.86133L52.7437 9.82617L53.0083 9.79102C53.2358 9.76087 53.4665 9.75537 53.6968 9.77441L54.2397 9.81934C54.2445 9.81747 54.2576 9.81168 54.2778 9.79688L54.5249 9.61426L54.7729 9.43164C55.024 9.24669 55.3127 9.12091 55.6313 9.08496L55.8999 9.05469L56.1685 9.02539C56.5027 8.98792 56.8236 9.05964 57.1128 9.20215L57.3931 9.34082L57.6743 9.47949C57.7907 9.53696 57.8799 9.55676 57.9438 9.56055L58.2075 9.57617L58.4712 9.59082C58.4725 9.59088 58.478 9.59075 58.4878 9.58789C58.501 9.58387 58.5277 9.57271 58.5669 9.54688L59.0981 9.19531L59.2456 9.11035C59.401 9.03455 59.5815 8.98787 59.7788 8.99414Z" fill="#303A4B"/>
</svg>
