<svg width="128" height="128" viewBox="0 0 128 128" fill="none" xmlns="http://www.w3.org/2000/svg">
<path d="M10.3687 78.4897L10.6196 78.6138C10.7967 78.7012 10.977 78.7845 11.1577 78.8628L11.4126 78.9731L11.6685 79.0835C11.8715 79.1713 12.081 79.2439 12.2954 79.3003L12.5659 79.3716L12.8354 79.4429C13.085 79.5084 13.3413 79.5349 13.5991 79.5229L13.8784 79.5103L14.1567 79.4976C14.4121 79.4857 14.6626 79.4362 14.9038 79.3511L15.1685 79.2583L15.2866 79.2153C15.2887 79.2221 15.2913 79.2291 15.2935 79.2358C15.3162 79.3089 15.3429 79.3808 15.3716 79.4517C15.4122 79.5521 15.4578 79.6511 15.5103 79.7466L15.77 80.2192C15.8246 80.3185 15.8638 80.4226 15.8882 80.5298L15.9478 80.7896L16.0063 81.0503C16.0579 81.2781 16.1369 81.4985 16.2407 81.7075L16.3589 81.9458L16.4771 82.1831C16.5109 82.2512 16.5339 82.3339 16.5405 82.4341L16.5591 82.7163L16.5767 82.9995C16.5912 83.2235 16.6229 83.4457 16.6714 83.6616L16.7319 83.9312L16.7925 84.1997C16.8016 84.2404 16.8137 84.2807 16.8247 84.3208C16.8541 84.4286 16.8901 84.5342 16.9321 84.6372C16.9664 84.7209 17.003 84.8042 17.0454 84.8843L17.1714 85.1226L17.2466 85.2632L17.2993 85.3628C17.4503 85.6475 17.6744 85.8695 17.9409 86.0337L18.4614 86.354C18.5433 86.4048 18.58 86.4515 18.5981 86.4839L18.854 86.9487C18.9231 87.0741 18.9855 87.2077 19.0386 87.3462L19.1353 87.6001L19.2329 87.854L19.2339 87.856C19.35 88.1586 19.547 88.4084 19.8062 88.5962L20.0347 88.7612L20.2632 88.9272C20.2671 88.9301 20.2693 88.9324 20.27 88.9331C20.271 88.9358 20.273 88.943 20.2749 88.9517L20.3364 89.2358L20.3989 89.52C20.4076 89.56 20.4187 89.6008 20.4292 89.6401L20.2144 89.811C19.9341 90.0315 19.5949 90.1535 19.2222 90.1323L18.6714 90.1011C18.4559 90.0887 18.2405 90.0609 18.0288 90.019L17.7583 89.9663L17.4878 89.9126C17.2934 89.8741 17.0967 89.8283 16.9019 89.7769L16.6294 89.7056L16.3579 89.6333C15.9519 89.5256 15.6595 89.2517 15.4888 88.9028L15.3501 88.6187L15.2114 88.3354C15.1627 88.2365 15.1191 88.1985 15.0991 88.1851L14.8833 88.0396L14.6665 87.895C14.5473 87.8152 14.4139 87.7362 14.269 87.6616L14.0171 87.5327L13.7661 87.4028C13.503 87.2672 13.2765 87.0771 13.103 86.8345L12.9458 86.6138L12.7876 86.3931C12.6671 86.2243 12.5556 86.0468 12.4556 85.8657L12.3257 85.6294L12.1948 85.3931C12.1316 85.2789 12.0541 85.1678 11.9644 85.062L11.7847 84.8491L11.605 84.6372C11.3977 84.3925 11.2683 84.1025 11.2241 83.7856L11.1851 83.5083L11.146 83.23C11.1343 83.1487 11.1081 83.0763 11.0649 83.0103L10.7603 82.5454C10.5293 82.1906 10.5018 81.7886 10.6128 81.4175L10.7036 81.1157L10.7944 80.813C10.8067 80.7714 10.8091 80.7437 10.8091 80.731C10.8089 80.7211 10.8077 80.715 10.8071 80.7134L10.7144 80.4644L10.6226 80.2163C10.5374 79.986 10.4863 79.7446 10.4712 79.4995L10.4546 79.2358L10.439 78.9712C10.4312 78.8484 10.4095 78.7246 10.3745 78.603L10.3374 78.4741L10.3687 78.4897ZM77.7964 10.4585C78.1099 10.371 78.435 10.3736 78.7485 10.4741L79.0132 10.5601L79.2788 10.645C79.5641 10.7369 79.8171 10.8939 80.0317 11.1001L80.2446 11.3052L80.4585 11.5103L80.4614 11.5122L80.4644 11.5132L80.7603 11.5093L81.0552 11.5054C81.4005 11.5011 81.734 11.603 82.0151 11.8247L82.23 11.9946L82.4438 12.1646C82.574 12.2675 82.709 12.3668 82.8452 12.4604L82.9028 12.4995C83.1266 12.5111 83.344 12.5742 83.5454 12.6831L83.7993 12.8198L84.0435 12.9526L84.3188 12.8667L84.5991 12.7808C84.9236 12.6812 85.2575 12.6985 85.564 12.8374L85.6938 12.9038L86.188 13.1929C86.2745 13.2432 86.3534 13.2673 86.4253 13.2759L86.689 13.3071L86.9536 13.3394C87.1935 13.368 87.4277 13.4284 87.6519 13.52L87.9019 13.6226L88.1509 13.7241C88.2523 13.7655 88.3567 13.7921 88.4644 13.8022L88.7319 13.8267L88.9985 13.8521C89.1238 13.8638 89.2601 13.8626 89.4058 13.8462L89.6929 13.814L89.98 13.7808L90.147 13.7729C90.529 13.7791 90.8579 13.9579 91.0952 14.2407L91.2983 14.4839L91.3989 14.604L91.5786 14.5474L91.894 14.4468C92.0977 14.3823 92.3381 14.3568 92.5854 14.4253C92.774 14.4778 92.9318 14.5754 93.0581 14.6948L93.1753 14.8208L93.3696 15.063L93.5503 15.2866L93.7876 15.2905L94.0737 15.2954C94.3656 15.2998 94.6494 15.3654 94.9116 15.4995L95.1509 15.6216L95.3901 15.7446C95.5302 15.8163 95.6743 15.8812 95.8198 15.9399L96.0679 16.0405L96.3169 16.1411C96.5314 16.2277 96.7355 16.3383 96.9263 16.4702L97.1479 16.6235L97.3706 16.7769C97.4791 16.8518 97.5937 16.9153 97.7134 16.9663L97.9604 17.0718L98.2075 17.1763C98.493 17.2979 98.73 17.4907 98.9155 17.7329L99.0913 17.9614L99.2661 18.1909C99.2776 18.2058 99.2856 18.2111 99.2876 18.2124C99.2894 18.2135 99.2955 18.2166 99.3071 18.2192L99.5806 18.2808L99.855 18.3423C100.224 18.4253 100.525 18.64 100.728 18.9507L100.775 19.0239C100.814 19.0236 100.854 19.0212 100.893 19.022L101.17 19.0278L101.448 19.0327C101.719 19.0381 101.985 19.0937 102.236 19.1958L102.493 19.3003L102.749 19.4048C102.929 19.4783 103.109 19.5566 103.284 19.6372L103.778 19.8657C104 19.9682 104.207 20.0993 104.394 20.2563L104.812 20.6079C104.948 20.7224 105.085 20.8357 105.218 20.9448L105.423 21.1128L105.628 21.2798C105.829 21.4434 105.998 21.6394 106.132 21.8608L106.41 22.3218C106.486 22.4476 106.568 22.5639 106.653 22.6685L106.814 22.8667L106.976 23.064C107.091 23.2052 107.204 23.3516 107.312 23.4995L107.463 23.7075L107.616 23.9155C107.689 24.0157 107.781 24.1191 107.89 24.2231L108.304 24.6157C108.53 24.8296 108.672 25.1004 108.718 25.4028C108.86 25.5799 108.953 25.7885 108.999 26.0122L109.059 26.312L109.096 26.4966L109.303 26.5591L109.609 26.6519C109.955 26.7565 110.251 26.9796 110.413 27.3228L110.474 27.478L110.561 27.7495L110.625 27.9507C110.787 27.9794 110.948 28.0152 111.105 28.063L111.362 28.1411L111.62 28.2202C111.795 28.2736 111.973 28.3297 112.15 28.3872L112.41 28.4712L112.67 28.5562C112.957 28.6493 113.21 28.8097 113.417 29.0269L113.609 29.2271L113.8 29.4282C113.961 29.5967 114.105 29.781 114.227 29.978L114.371 30.2114L114.515 30.4448C114.593 30.57 114.675 30.6823 114.759 30.7798L114.926 30.9722L115.092 31.1646C115.148 31.2292 115.226 31.2955 115.33 31.3579L115.574 31.5034L115.817 31.6499C116.054 31.792 116.261 31.9749 116.427 32.1958L116.591 32.4146L116.755 32.6323C116.979 32.9302 117.064 33.2811 117.033 33.6362L117.005 33.9312L116.979 34.2251C116.977 34.245 116.979 34.2583 116.98 34.2632C116.98 34.2648 116.983 34.2702 116.988 34.2778L117.308 34.7368C117.509 35.0236 117.602 35.3602 117.567 35.7144L117.54 35.9849L117.513 36.2544C117.495 36.432 117.478 36.6084 117.462 36.7788L117.438 37.0386L117.422 37.2056L117.61 37.3774L117.833 37.5835C117.981 37.7191 118.12 37.8458 118.247 37.9614L118.439 38.1372L118.631 38.312C118.759 38.4288 118.887 38.5461 119.012 38.6606L119.387 39.0044C119.41 39.0251 119.465 39.0629 119.582 39.0942L120.191 39.2563C120.395 39.3109 120.608 39.4191 120.777 39.6089C120.904 39.7528 120.982 39.9183 121.023 40.0825L121.052 40.2476L121.085 40.5483L121.119 40.8481L121.341 41.0161L121.574 41.1929C121.929 41.4632 122.098 41.8664 122.051 42.3052L122.02 42.5991L121.988 42.8931C121.978 42.9822 121.992 43.0384 122.006 43.0737L122.109 43.3149L122.212 43.5562C122.295 43.7491 122.362 43.9502 122.416 44.1548L122.482 44.4126L122.549 44.6704C122.633 44.9927 122.607 45.3187 122.489 45.6235L122.388 45.8823L122.306 46.0942L122.463 46.3843L122.62 46.6753C122.719 46.8601 122.791 47.0908 122.77 47.3472C122.748 47.61 122.632 47.8315 122.481 48.0015L122.281 48.2271L122.081 48.4517C122.068 48.4661 122.062 48.4771 122.06 48.481C122.06 48.4819 122.059 48.4844 122.058 48.4858C122.058 48.4879 122.057 48.4933 122.057 48.4985L122.055 48.7876L122.053 49.0776C122.05 49.4962 121.861 49.8588 121.528 50.106L121.293 50.2808L121.152 50.3843L121.273 50.4419C121.416 50.5095 121.565 50.5723 121.719 50.6274L121.984 50.7212L122.248 50.8159C122.628 50.9521 122.896 51.2328 123.047 51.5806L123.293 52.147C123.295 52.1501 123.297 52.1543 123.298 52.1567L123.563 52.2593L123.834 52.3638L123.977 52.4282C124.25 52.5713 124.453 52.8006 124.564 53.0874L124.612 53.2368L124.685 53.52L124.758 53.8022C124.794 53.939 124.839 54.0533 124.89 54.145L125.016 54.3716L125.142 54.5972C125.213 54.7256 125.294 54.8548 125.381 54.98L125.686 55.4155C125.852 55.6525 125.956 55.921 125.996 56.2075L126.032 56.4692L126.068 56.7319C126.079 56.8156 126.107 56.9038 126.157 56.9946L126.426 57.4849C126.615 57.8298 126.641 58.214 126.511 58.5796L126.32 59.1167C126.29 59.2016 126.283 59.2727 126.29 59.3325L126.346 59.8579C126.363 60.0101 126.388 60.1746 126.422 60.3472L126.536 60.9214C126.618 61.3379 126.502 61.7371 126.215 62.0464L126.015 62.2622L125.814 62.479C125.787 62.5081 125.78 62.5288 125.778 62.5562L125.755 62.8442L125.732 63.1313C125.708 63.4268 125.622 63.7096 125.468 63.9653L125.326 64.2017L125.184 64.438C125.019 64.7135 124.785 64.9266 124.504 65.0737L124.247 65.2085L123.989 65.3442C123.885 65.399 123.806 65.4607 123.749 65.5239L123.391 65.9165C123.317 65.9976 123.292 66.05 123.285 66.0679L123.215 66.2554L123.151 66.4302C123.151 66.4313 123.151 66.4341 123.151 66.436C123.15 66.4517 123.152 66.485 123.161 66.5347L123.262 67.0913C123.308 67.3428 123.318 67.5978 123.286 67.8491L123.251 68.1108L123.218 68.3726C123.195 68.551 123.17 68.7337 123.143 68.9155L123.104 69.1831L123.064 69.4497C123.037 69.6295 123.01 69.8088 122.982 69.9829L122.941 70.2417L122.9 70.4995C122.866 70.712 122.813 70.9207 122.743 71.1206L122.575 71.5952C122.521 71.7467 122.468 71.904 122.417 72.063L122.336 72.312L122.255 72.5601C122.227 72.6474 122.213 72.7409 122.215 72.8394L122.221 73.106L122.227 73.3716C122.234 73.6631 122.171 73.9459 122.043 74.2075L121.925 74.4487L121.807 74.6909C121.715 74.8785 121.613 75.0567 121.501 75.2202L121.365 75.4185L121.229 75.6177C121.085 75.8286 120.902 76.0062 120.69 76.147L120.481 76.2856L120.273 76.4233C120.272 76.4244 120.269 76.4273 120.267 76.4302C120.26 76.4403 120.245 76.4654 120.229 76.5073L120.121 76.7954L120.013 77.0835C119.86 77.4913 119.538 77.7869 119.091 77.8765L118.517 77.9917C118.403 78.0146 118.277 78.0592 118.141 78.1323L117.867 78.2808L117.983 78.5298C118.071 78.7193 118.123 78.943 118.096 79.1821C118.069 79.4228 117.967 79.6303 117.833 79.7974L117.642 80.0356L117.452 80.2729C117.383 80.3581 117.355 80.4267 117.344 80.4751L117.289 80.7329L117.232 80.9897C117.204 81.1199 117.186 81.2588 117.179 81.4019L117.167 81.6763L117.154 81.9497C117.14 82.2608 117.044 82.5547 116.871 82.814L116.719 83.0405L116.567 83.2671C116.53 83.3228 116.506 83.3862 116.497 83.4624L116.428 84.0171C116.399 84.2592 116.34 84.4962 116.251 84.7222L116.152 84.9771L116.051 85.2319C115.954 85.4813 115.814 85.7087 115.634 85.9077L115.451 86.1108L115.266 86.3149C115.182 86.4087 115.108 86.5138 115.045 86.6274L114.912 86.8706L114.779 87.1138C114.583 87.471 114.26 87.6887 113.893 87.7808L113.592 87.856L113.362 87.9126L113.277 88.1587L113.171 88.4624C113.096 88.6798 112.95 88.9114 112.693 89.0601C112.44 89.2057 112.172 89.2189 111.955 89.186L111.622 89.1353L111.289 89.0854C111.24 89.0782 111.21 89.0793 111.2 89.0806L110.993 89.2085L110.772 89.3442C110.526 89.4949 110.253 89.5814 109.964 89.5981L109.708 89.6128L109.454 89.6274C109.379 89.632 109.285 89.6523 109.174 89.7007L108.639 89.9351C108.276 90.0938 107.879 90.0933 107.513 89.9048L107.269 89.7808L107.329 89.5063C107.33 89.501 107.331 89.4955 107.332 89.4927L107.563 89.3335L107.795 89.1733C108.096 88.9658 108.298 88.6689 108.381 88.3149L108.447 88.0386L108.512 87.7612C108.52 87.7305 108.529 87.7183 108.548 87.7026L108.768 87.5269L108.988 87.3521C109.279 87.1201 109.457 86.8026 109.509 86.439L109.55 86.1558L109.583 85.9243L109.823 85.7837L110.089 85.6265C110.356 85.4687 110.586 85.2542 110.745 84.9771L110.878 84.7437L111.012 84.5112C111.154 84.2641 111.236 83.9936 111.264 83.7114L111.292 83.4282L111.32 83.146C111.334 82.9995 111.36 82.8625 111.397 82.7368L111.472 82.481L111.547 82.2241C111.58 82.112 111.627 82.0043 111.688 81.9019L111.963 81.439C112.079 81.2447 112.176 81.0401 112.25 80.8276L112.426 80.3257C112.456 80.24 112.505 80.1501 112.579 80.0581L112.938 79.6089C112.997 79.5353 113.043 79.457 113.082 79.3784C113.172 79.3837 113.263 79.3811 113.354 79.3745C113.37 79.3734 113.385 79.3721 113.401 79.3706C113.44 79.3669 113.479 79.3619 113.518 79.356C113.531 79.354 113.545 79.3514 113.558 79.3491C113.596 79.3427 113.635 79.3381 113.672 79.3296L113.938 79.27L114.203 79.2095C114.314 79.1843 114.43 79.1747 114.55 79.1812L115.105 79.2104C115.496 79.2311 115.847 79.0905 116.122 78.8286L116.333 78.6274L116.542 78.4263C116.65 78.3235 116.754 78.2445 116.85 78.186L117.069 78.0532L117.289 77.9204C117.401 77.8527 117.522 77.7921 117.653 77.7397L117.901 77.6401L118.148 77.5405C118.403 77.4382 118.63 77.2875 118.823 77.0913L119.007 76.9038L119.192 76.7153C119.275 76.6307 119.373 76.5512 119.488 76.478L119.723 76.3267L119.958 76.1763C120.165 76.0439 120.354 75.8869 120.521 75.7075L120.711 75.5044L120.901 75.3003C121.117 75.068 121.26 74.7893 121.325 74.48L121.382 74.2036L121.44 73.9263C121.491 73.682 121.51 73.4331 121.498 73.1831L121.483 72.897L121.469 72.6108C121.468 72.5942 121.47 72.5858 121.47 72.5845C121.471 72.5823 121.474 72.5759 121.482 72.5659L121.654 72.3403L121.827 72.1147C122 71.8884 122.124 71.6329 122.188 71.354L122.309 70.8286C122.365 70.5852 122.384 70.3367 122.367 70.0874L122.33 69.5483C122.317 69.3669 122.312 69.2658 122.312 69.2271L122.311 69.1304V69.0337C122.311 68.9672 122.309 68.8427 122.307 68.6646L122.304 68.396L122.302 68.1274C122.301 67.9662 122.305 67.7994 122.315 67.6284L122.348 67.0659C122.365 66.7786 122.322 66.4957 122.217 66.2271L122.016 65.7134C121.936 65.5093 121.841 65.3119 121.732 65.1226L121.595 64.8843L121.458 64.647C121.444 64.6216 121.425 64.5982 121.41 64.5737C121.264 64.3463 121.074 64.1558 120.849 64.0073L120.355 63.6812C120.261 63.619 120.206 63.5601 120.174 63.5112L120.15 63.4722L120.037 63.2964L119.897 63.0815C119.878 63.0514 119.86 63.0159 119.841 62.9761C119.829 62.9501 119.818 62.9215 119.807 62.8911C119.794 62.8561 119.78 62.8182 119.769 62.7769L119.691 62.4888L119.612 62.1997C119.579 62.0773 119.533 61.9594 119.474 61.8491C119.377 61.6661 119.242 61.5024 119.071 61.3677L118.856 61.1997L118.64 61.0308C118.637 61.0281 118.633 61.0256 118.629 61.0229C118.589 60.9915 118.546 60.9629 118.503 60.936L118.467 60.9771C118.184 61.299 117.794 61.4196 117.4 61.3608L117.133 61.3218L116.867 61.2778C116.606 61.2385 116.359 61.1543 116.128 61.0278L115.889 60.8999L115.65 60.7661C115.418 60.6386 115.21 60.4761 115.034 60.2778L114.844 60.061L114.711 59.9106L114.534 59.9331L114.261 59.9604C114.138 59.9737 114.034 60.0034 113.945 60.0386L113.711 60.1333L113.478 60.2222C113.169 60.3445 112.821 60.3597 112.489 60.2104L112.29 60.1216L112.083 60.0278C111.819 59.9087 111.608 59.7187 111.439 59.5054L111.255 59.2778L111.078 59.0493C110.944 58.8797 110.826 58.7098 110.739 58.5444L110.65 58.3774L110.561 58.2056C110.566 58.2156 110.564 58.2109 110.544 58.189C110.523 58.1653 110.483 58.1308 110.428 58.0884L109.961 57.7222L109.706 57.7661L109.422 57.811C109.104 57.8608 108.786 57.8202 108.489 57.6831L108.239 57.5718L107.995 57.4556C107.855 57.3912 107.714 57.3342 107.573 57.2886L107.317 57.2104L107.067 57.1274C106.877 57.066 106.685 56.9959 106.5 56.9165L106.011 56.7056C105.922 56.6673 105.828 56.6438 105.734 56.6382L105.467 56.6216L105.206 56.605C104.865 56.5847 104.552 56.4562 104.3 56.2271L104.106 56.0444L103.906 55.8667C103.862 55.8273 103.812 55.7951 103.745 55.7778L103.478 55.7104L103.206 55.644C102.966 55.5833 102.74 55.4896 102.528 55.3667L102.061 55.1001C101.788 54.9421 101.572 54.7163 101.422 54.4438L101.29 54.1938L101.162 53.9663L100.573 53.811C100.369 53.7564 100.169 53.649 100.005 53.4771C99.8423 53.3049 99.7454 53.0972 99.6997 52.894L99.6333 52.5942L99.5669 52.2886C99.5653 52.2817 99.5624 52.2762 99.561 52.272L99.5396 52.2612V52.5942C99.5399 52.7614 99.5453 52.932 99.5562 53.1001L99.5776 53.3774L99.5894 53.605L99.8394 53.7993L100.083 53.9937C100.352 54.2024 100.564 54.4872 100.65 54.8442L100.772 55.355C100.806 55.4986 100.854 55.6426 100.906 55.7827L101 56.0327L101.089 56.2886C101.125 56.3829 101.177 56.4685 101.239 56.5444L101.573 56.9556C101.655 57.0567 101.746 57.1504 101.844 57.2329L102.044 57.3999L102.25 57.5659C102.325 57.6279 102.403 57.6778 102.489 57.7104L102.734 57.7993L102.972 57.894C103.166 57.9672 103.548 58.1427 103.683 58.561L103.728 58.689L103.767 58.8218C103.802 58.9327 103.848 59.1509 103.739 59.3882C103.621 59.6428 103.402 59.7556 103.261 59.7993C103.034 59.8692 102.806 59.8243 102.711 59.8052L102.439 59.7495L102.162 59.6938C102.15 59.6915 102.141 59.6934 102.139 59.6938C102.136 59.6945 102.125 59.7001 102.106 59.7104L101.844 59.8501L101.589 59.9937C101.276 60.1658 100.922 60.2235 100.561 60.144L100.29 60.0884L100.022 60.0278C99.9319 60.008 99.8378 60.0059 99.7446 60.022L99.4722 60.0659L99.1948 60.1167C98.8976 60.1677 98.5979 60.1447 98.311 60.0493L98.0503 59.9604L97.7896 59.8774C97.5648 59.8027 97.3498 59.7001 97.145 59.5776L96.6558 59.2886C96.6193 59.2671 96.59 59.259 96.5503 59.2612L96.2671 59.2778L95.9888 59.2993C95.7028 59.3182 95.4183 59.277 95.1499 59.1724L94.8999 59.0776L94.6499 58.9771C94.3965 58.8782 94.1683 58.733 93.9673 58.5493L93.7554 58.355L93.5396 58.1606C93.5349 58.1564 93.5341 58.1512 93.5337 58.1499V58.1548H92.9448C92.6679 58.1556 92.3962 58.1096 92.1392 58.0054L91.8892 57.8999L91.6392 57.7993C91.4419 57.7191 91.2505 57.6243 91.0669 57.5161L90.8335 57.3833L90.606 57.2437C90.4051 57.1253 90.2147 56.9883 90.0444 56.8276L89.8501 56.6382L89.6499 56.4497C89.6191 56.4209 89.5762 56.3984 89.5054 56.3833L88.939 56.2612C88.5578 56.1799 88.245 55.9545 88.0444 55.6167L87.895 55.3716L87.7505 55.1216C87.6782 54.9998 87.599 54.8965 87.5171 54.811L87.3335 54.6216L87.1499 54.4272C87.122 54.3982 87.0724 54.3619 86.978 54.3325L86.689 54.2437L86.395 54.1548C86.185 54.0893 85.984 53.9658 85.8276 53.772C85.6734 53.5806 85.5995 53.3624 85.5728 53.1548L85.5278 52.8325L85.5005 52.6274L85.3228 52.5659L85.022 52.4604C84.6097 52.3171 84.2951 52.0033 84.1997 51.5444L84.1392 51.2554L84.0835 50.9722C84.0516 50.8187 84.0051 50.6795 83.9556 50.5552L83.856 50.3052L83.7554 50.061C83.7481 50.0552 83.735 50.0446 83.7114 50.0327L83.4282 49.8882L83.3394 49.8442C83.349 49.96 83.3505 50.0766 83.3442 50.1938L83.3335 50.4722L83.3169 50.7495C83.3154 50.784 83.3186 50.8113 83.3394 50.8442L83.4888 51.0776L83.6392 51.3159C83.7587 51.5057 83.862 51.7016 83.9448 51.9048L84.0444 52.1499L84.145 52.3999C84.2506 52.6602 84.2969 52.9368 84.2896 53.2163L84.2837 53.4995L84.272 53.7827C84.2716 53.8019 84.2767 53.8129 84.2778 53.8159C84.2788 53.8184 84.2835 53.8246 84.2896 53.8325L84.6226 54.2661C84.7431 54.4236 84.8569 54.5843 84.9614 54.7437L85.1001 54.9604L85.2446 55.1772C85.3271 55.303 85.4136 55.4194 85.5005 55.5278L85.6558 55.7222L85.8062 55.9106C85.8593 55.9769 85.9405 56.0972 85.9839 56.2554C86.0339 56.4382 86.0333 56.6932 85.8667 56.9224C85.7233 57.1183 85.53 57.197 85.4282 57.2271C85.3173 57.2596 85.2098 57.2694 85.1284 57.272L84.8276 57.2778L84.5278 57.2886C84.3102 57.2954 84.0813 57.2486 83.8726 57.1216C83.6662 56.9954 83.5185 56.8172 83.4224 56.6333L83.2778 56.3501L83.1284 56.0659C83.0755 55.9648 83.0301 55.9289 83.0112 55.9165L82.7944 55.7778L82.5728 55.6382C82.5047 55.595 82.4171 55.554 82.3003 55.5278L81.7339 55.4048C81.4153 55.334 81.1274 55.1744 80.8999 54.9272L80.7173 54.7329L80.5337 54.5327C80.4003 54.3876 80.2708 54.2372 80.1499 54.0825L79.9888 53.8716L79.8228 53.6606C79.715 53.5228 79.6081 53.3852 79.5005 53.2495L79.3335 53.0444L79.1665 52.8325C79.1201 52.7749 79.0581 52.7171 78.9673 52.6665L78.4673 52.3882C78.1645 52.2199 77.9272 51.9654 77.7944 51.6382L77.6948 51.3833L77.5894 51.1274C77.5815 51.1084 77.5668 51.0888 77.522 51.061L77.272 50.9048L77.0171 50.7495C76.726 50.5705 76.5018 50.3128 76.3784 49.9829L76.2837 49.7222L76.1831 49.4663C76.1232 49.3057 76.061 49.1469 75.9946 48.9937L75.8892 48.7495L75.8228 48.6001C75.7254 48.8082 75.5767 48.9896 75.3667 49.1216L75.106 49.2827L74.856 49.439L74.811 49.6997L74.7612 49.9888C74.7088 50.2806 74.5966 50.555 74.4165 50.7944L74.2505 51.0112L74.0894 51.2271C73.9552 51.4053 73.803 51.5704 73.6392 51.7222L73.439 51.9048L73.2446 52.0942C73.0306 52.2926 72.7765 52.4329 72.5005 52.522L71.9448 52.6997C71.8592 52.7273 71.79 52.7498 71.7505 52.7612C71.7492 52.7616 71.7115 52.7753 71.6724 52.7827C71.664 52.7843 71.6258 52.7917 71.5776 52.7944C71.559 52.7955 71.4933 52.7974 71.4116 52.7827C71.371 52.7753 71.2845 52.7537 71.189 52.6997C71.0878 52.6423 70.9317 52.52 70.8608 52.2993C70.7913 52.0796 70.8435 51.8895 70.8892 51.7886C70.9326 51.6927 70.9893 51.6301 71.0171 51.6001C71.0697 51.5435 71.1206 51.5062 71.1392 51.4937C71.1779 51.4677 71.2136 51.4481 71.2222 51.4438C71.2691 51.4206 71.3301 51.4011 71.3335 51.3999L71.3726 51.3833L71.4331 51.189L71.5171 50.9272C71.5572 50.7993 71.5822 50.6689 71.5942 50.5386L71.6226 50.2661L71.645 49.9937C71.6518 49.9175 71.6422 49.8363 71.6108 49.7437L71.522 49.4722L71.4282 49.1938C71.3103 48.8422 71.3273 48.4761 71.478 48.1382L71.6001 47.8774L71.689 47.6606L71.5776 47.4438L71.439 47.1831C71.2314 46.7929 71.2395 46.3686 71.4331 45.9888L71.7114 45.4331L71.6284 45.2104L71.5278 44.9556C71.4345 44.7084 71.3879 44.4468 71.3833 44.1831L71.3784 43.9165L71.3726 43.644C71.3701 43.5086 71.3543 43.3751 71.3276 43.2437L71.2778 42.9771L71.2222 42.7163C71.2037 42.6262 71.1681 42.5333 71.1108 42.439L70.9673 42.1997L70.8169 41.9556C70.6174 41.6258 70.5711 41.2569 70.6558 40.894L70.7222 40.6001L70.7612 40.4048L70.6167 40.2661L70.395 40.0552C70.1016 39.7734 69.9449 39.395 69.9839 38.9722L70.0054 38.6831L70.0337 38.394C70.04 38.325 70.0266 38.2852 70.0112 38.2554L69.7671 37.7778C69.7252 37.6963 69.6661 37.6151 69.5835 37.5386L69.3726 37.3442L69.1665 37.1499C68.9166 36.9186 68.7489 36.6227 68.689 36.2827L68.6392 36.0112L68.5942 35.7388C68.5786 35.6507 68.5455 35.5816 68.5054 35.522L68.3608 35.2993L68.2114 35.0825C68.0844 34.8939 67.9742 34.6901 67.8833 34.4722L67.772 34.1997L67.6724 33.9604L67.4331 33.8833L67.1616 33.7944C66.9034 33.7093 66.6639 33.5835 66.4497 33.4165L66.228 33.2388L66.0835 33.1274L65.8608 33.2104L65.5669 33.311C65.2288 33.4295 64.8636 33.44 64.5112 33.2944L64.2554 33.189L64.0562 33.105L63.9058 33.189L63.6831 33.3052C63.6159 33.3412 63.5455 33.3907 63.478 33.4663L63.3003 33.6714L63.1226 33.8716C63.0573 33.9448 62.9987 34.0312 62.9556 34.1333L62.8501 34.394L62.7388 34.6548C62.6193 34.9387 62.4339 35.183 62.189 35.3716L61.9673 35.5386L61.7505 35.7056C61.6994 35.7449 61.6675 35.7915 61.645 35.8442L61.4331 36.3442C61.345 36.5511 61.2351 36.7467 61.1108 36.9331L60.9614 37.1606L60.811 37.3833C60.7711 37.4434 60.7453 37.5104 60.7339 37.5884L60.6558 38.1333C60.6196 38.3802 60.5497 38.619 60.4448 38.8442L60.3335 39.0825L60.2173 39.3276C60.2002 39.3643 60.1928 39.4076 60.1997 39.4722L60.228 39.7554L60.2612 40.0327C60.3112 40.4859 60.1166 40.8722 59.8169 41.144L59.5776 41.3608L59.4614 41.4604L59.5112 41.5825L59.6333 41.8716C59.7711 42.1966 59.8108 42.56 59.689 42.9224L59.606 43.1831L59.5171 43.439C59.4813 43.5457 59.4599 43.6539 59.4556 43.7612L59.4448 44.0278L59.4331 44.2886C59.426 44.4654 59.4234 44.6451 59.4165 44.8218L59.4058 45.0884L59.395 45.3501C59.3865 45.5672 59.3564 45.7849 59.311 45.9995L59.1997 46.5327C59.1792 46.6297 59.1758 46.7267 59.189 46.8218L59.228 47.0825L59.2612 47.3501C59.2924 47.5755 59.3049 47.8059 59.2896 48.0327L59.2671 48.2993L59.2505 48.5659C59.2397 48.726 59.233 48.8881 59.2339 49.0493L59.2388 49.3218V49.5884C59.2394 49.6903 59.2554 49.7941 59.2896 49.894L59.4673 50.4048C59.5596 50.6751 59.5892 50.96 59.561 51.2437L59.5054 51.7993C59.4953 51.9036 59.5051 52.0009 59.5278 52.0942L59.5942 52.3608L59.6558 52.6216C59.6566 52.625 59.6634 52.6523 59.7222 52.6997L59.9614 52.894L60.2056 53.0884C60.4727 53.304 60.6773 53.5973 60.7505 53.9604L60.8003 54.2222L60.856 54.4771C60.8719 54.5565 60.8871 54.6656 60.8784 54.7827C60.8698 54.8974 60.8297 55.0766 60.6948 55.2437C60.3729 55.6415 59.9121 55.5314 59.7896 55.4937L59.5776 55.4272L59.3667 55.3667C59.0764 55.2769 58.8424 55.0973 58.6558 54.8882L58.4722 54.6831L58.2896 54.4829C58.2553 54.4446 58.2095 54.4096 58.1333 54.3833L57.5776 54.1938C57.1474 54.0466 56.8682 53.7093 56.7671 53.2886L56.6226 52.689C56.6039 52.612 56.5838 52.5879 56.5776 52.5825L56.3726 52.4106L56.1665 52.2329C55.9692 52.0622 55.8045 51.8616 55.6782 51.6333L55.4224 51.1665C55.3312 51.0017 55.2441 50.8349 55.1616 50.6665L54.9282 50.189C54.8626 50.0548 54.7859 49.9248 54.7056 49.7993L54.5669 49.5776L54.4224 49.3501C54.2994 49.1577 54.1946 48.9535 54.1167 48.7388L53.939 48.2388C53.9091 48.1573 53.8631 48.0747 53.7944 47.9937L53.6108 47.7827L53.4331 47.5659C53.2714 47.3751 53.1364 47.1654 53.0337 46.939L52.9224 46.6938L52.8062 46.4438C52.6726 46.1476 52.6351 45.8314 52.6831 45.5161L52.728 45.2271L52.772 44.9438C52.7914 44.8168 52.7915 44.7037 52.7778 44.605L52.7446 44.3442L52.7056 44.0884C52.6924 43.9935 52.6638 43.8886 52.6108 43.7778L52.4888 43.522L52.3999 43.3501L52.3726 43.5942L52.3394 43.8608C52.3094 44.0973 52.2505 44.3275 52.1616 44.5493L52.061 44.8052L51.9614 45.0552C51.9468 45.0919 51.9395 45.1304 51.9497 45.189L52.0005 45.4722L52.0503 45.7495C52.1334 46.2169 51.9407 46.6172 51.645 46.8999L51.3999 47.1333L51.2339 47.2886L51.2778 47.4331L51.3667 47.7104C51.4319 47.918 51.4848 48.128 51.5278 48.3325L51.5835 48.605L51.6392 48.8716C51.7242 49.2761 51.6173 49.6583 51.395 49.9663L51.2114 50.2222L51.0776 50.394L51.1558 50.561L51.2778 50.8325C51.3979 51.0966 51.4658 51.3788 51.4614 51.6724V51.939L51.4556 52.1997C51.4532 52.3603 51.4588 52.5236 51.4673 52.6831L51.478 52.9438L51.4946 53.2104C51.5071 53.4475 51.4858 53.6869 51.439 53.9224L51.3833 54.189L51.3335 54.4604C51.3013 54.622 51.275 54.7886 51.2554 54.9556L51.189 55.5112C51.1776 55.6087 51.1872 55.7031 51.2114 55.7944L51.2778 56.061L51.3501 56.3276C51.3545 56.344 51.3649 56.3682 51.4116 56.4048L51.645 56.5884L51.8833 56.7778C51.9362 56.8193 52.006 56.8749 52.0669 56.9438C52.0974 56.9784 52.1433 57.036 52.1831 57.1108C52.2196 57.1796 52.2846 57.3261 52.272 57.5161C52.2563 57.7416 52.1394 57.9307 51.9839 58.0493C51.8529 58.1486 51.7155 58.1821 51.6499 58.1938C51.5206 58.2164 51.4027 58.2014 51.3442 58.1938L51.0942 58.1606L50.8501 58.1333C50.4118 58.0769 50.1006 57.8014 49.9282 57.4556L49.8003 57.1997L49.6724 56.939C49.6439 56.8827 49.611 56.8517 49.5728 56.8276L49.3394 56.6772L49.106 56.5327C48.8917 56.3992 48.6989 56.2391 48.5337 56.0493L48.356 55.8442L48.1782 55.644C48.0092 55.4498 47.8768 55.227 47.7778 54.9888L47.6724 54.7388L47.5669 54.4829C47.5238 54.3797 47.4681 54.2881 47.3999 54.2056L47.228 53.9995L47.0562 53.7886C46.9118 53.6141 46.7851 53.4258 46.6782 53.2271L46.5503 52.9937L46.4224 52.7554C46.3322 52.5876 46.2469 52.4164 46.1665 52.2437L46.0562 51.9995L45.939 51.7554C45.8775 51.6235 45.8079 51.4935 45.728 51.3667L45.5776 51.1333L45.4331 50.9048C45.3717 50.8073 45.334 50.6991 45.2944 50.5942L45.2612 50.772L45.2056 51.061C45.1404 51.4046 44.9712 51.7102 44.6948 51.939L44.4839 52.1167L44.2671 52.2886C44.0816 52.442 43.8799 52.5744 43.6616 52.6831L43.4058 52.811L43.1948 52.9106L43.0776 53.4937C43.0086 53.8247 42.8491 54.1321 42.5776 54.3667L42.3726 54.5444L42.1724 54.7222C41.9628 54.9032 41.7177 55.0328 41.4556 55.1216L41.189 55.2163L40.9165 55.3052C40.7798 55.3515 40.6607 55.4099 40.5562 55.4722L40.3276 55.605L40.1001 55.7437C40.0573 55.7697 40.0098 55.8119 39.9614 55.8882L39.6499 56.3882C39.4926 56.6393 39.2849 56.8506 39.0278 57.0054L38.7944 57.144L38.5669 57.2827C38.348 57.4143 38.1103 57.5085 37.8608 57.5659L37.5894 57.6274L37.3228 57.689C37.2661 57.702 37.2145 57.7301 37.1616 57.7778L36.7388 58.1548C36.5407 58.3333 36.3193 58.4778 36.0728 58.5776L35.5728 58.7778C35.2752 58.8981 34.9589 58.924 34.6499 58.8774L34.061 58.7886H34.0278L33.7944 58.9438L33.561 59.0942C33.2831 59.2769 32.9668 59.3641 32.6333 59.3501L32.356 59.3384L32.0835 59.3276C31.976 59.323 31.8754 59.3394 31.7837 59.3667L31.5278 59.439L31.272 59.5161C31.1168 59.5623 30.959 59.6145 30.8003 59.6724L30.5444 59.7661L30.2837 59.8608C30.0468 59.9472 29.8014 59.9978 29.5503 60.0112L29.2778 60.0278L29.0112 60.0386C28.8259 60.0484 28.6359 60.0602 28.4497 60.0659L28.1831 60.0718L27.9116 60.0825C27.6086 60.0918 27.3138 60.0209 27.0444 59.8882L26.7896 59.7661L26.5337 59.6382C26.4459 59.5951 26.4031 59.594 26.395 59.5942L26.1665 59.605L25.939 59.6108C25.8931 59.6127 25.8077 59.6144 25.7173 59.6001C25.6838 59.5947 25.5574 59.5755 25.4282 59.4937C25.356 59.4476 25.2423 59.3583 25.1665 59.2056C25.0838 59.0385 25.0789 58.8608 25.1167 58.7104C25.178 58.4699 25.3415 58.3364 25.3667 58.3159C25.4203 58.2727 25.4722 58.2424 25.5005 58.2271C25.5607 58.1945 25.6276 58.1696 25.6782 58.1499L25.9282 58.0552L26.1782 57.9556C26.3779 57.8778 26.5878 57.8122 26.8062 57.7612L27.0894 57.6938L27.3394 57.6333L27.4556 57.4165L27.5894 57.1665C27.7034 56.9506 27.8412 56.7466 28.0005 56.5659L28.1831 56.3608L28.3442 56.1724V56.1665L28.3276 55.9556L28.0776 56.0386C28.071 56.0444 28.0568 56.0638 28.0337 56.1001L27.8608 56.3774L27.6831 56.6499C27.5733 56.8238 27.4173 56.9908 27.1997 57.1001C26.9773 57.2115 26.7414 57.2403 26.522 57.2104L26.228 57.1665L25.9331 57.1274C25.776 57.1059 25.6291 57.0994 25.4946 57.105L25.2222 57.1167L24.9556 57.1274C24.8375 57.1324 24.7241 57.1549 24.6167 57.189L24.3608 57.2661L24.106 57.3501C24.0599 57.3651 23.9957 57.401 23.9116 57.4829L23.6831 57.6997L23.4556 57.9224C23.3069 58.0668 23.1184 58.1876 22.8892 58.2437C22.6566 58.3 22.425 58.2764 22.2222 58.2104L21.645 58.022C21.5839 58.0021 21.5595 58.01 21.5562 58.0112L21.3062 58.105L21.0503 58.1938C20.7716 58.2944 20.4811 58.327 20.189 58.2886L19.9116 58.2495L19.6782 58.2163V58.2222L19.439 58.4272L19.1948 58.6333C19.0357 58.7702 18.8334 58.8826 18.5942 58.9224C18.3543 58.9617 18.1262 58.9231 17.9282 58.8384L17.645 58.7163L17.4448 58.6274L17.3667 58.689L17.1665 58.8276C17.0681 58.8968 16.9627 58.9809 16.8608 59.0825L16.6724 59.2778L16.478 59.4663C16.2895 59.6544 16.0495 59.823 15.7554 59.894L15.561 59.9438L15.3667 59.9888C15.2055 60.0276 15.0277 60.0593 14.8394 60.0825L14.5835 60.1108L14.3335 60.144C13.9972 60.1854 13.6777 60.1073 13.395 59.9604L13.1284 59.8218L12.8999 59.7056L12.6333 59.8325L12.3394 59.9722C12.1558 60.0598 12.0281 60.1275 11.9497 60.1772L11.7837 60.2886L11.6167 60.394C11.4374 60.5078 11.2244 60.5998 11.0054 60.6724L10.728 60.7612L10.4448 60.855C10.3219 60.8957 10.165 60.9368 10.0005 60.939C9.94748 60.9396 9.87737 60.9346 9.79932 60.9194L9.71924 61.0415C9.61062 61.2044 9.5049 61.3613 9.40576 61.5093L9.25635 61.7329L9.10693 61.9556C9.10167 61.9633 9.09244 61.9718 9.07959 61.981C9.07503 61.9844 9.06814 61.9871 9.06201 61.9907C9.055 61.9948 9.04694 62.001 9.0376 62.0054V62.0034C9.03138 62.0064 9.02458 62.0121 9.01709 62.0151L8.47021 62.2261C8.19348 62.3326 7.94526 62.4952 7.74268 62.7153L7.55713 62.9175L7.37158 63.1187C7.17212 63.3358 7.03005 63.5925 6.94971 63.8755L6.87451 64.1431L6.79834 64.4106C6.73396 64.6383 6.69442 64.8727 6.68115 65.1089L6.66553 65.3862L6.65088 65.6636C6.64621 65.7461 6.62541 65.8126 6.59424 65.8696L6.46631 66.103L6.3374 66.3354C6.24794 66.498 6.16763 66.6682 6.09619 66.8413L5.93994 66.8091C5.72687 66.7648 5.5137 66.7049 5.3042 66.6304L5.03271 66.5337L4.76123 66.438C4.39557 66.3073 4.11782 66.0464 3.96143 65.6938L3.84326 65.4272L3.7251 65.1616C3.6925 65.0888 3.65138 65.0377 3.60205 64.9995L3.38135 64.8286L3.15967 64.6577C2.88368 64.4437 2.69804 64.1534 2.61768 63.8149L2.55225 63.5405L2.48779 63.2671C2.4615 63.1571 2.42081 63.0599 2.36865 62.9761L2.2251 62.7466L2.08252 62.5181C1.96305 62.3261 1.86263 62.1218 1.78271 61.9097L1.59131 61.4019C1.52351 61.2218 1.45876 61.036 1.39893 60.8491L1.31396 60.5845L1.229 60.3188C1.09649 59.9024 1.19177 59.5002 1.40674 59.1743L1.58643 58.9038L1.71729 58.7056L1.61963 58.5171L1.47803 58.2378C1.31906 57.9243 1.25574 57.5687 1.34229 57.2046L1.46924 56.6694C1.53399 56.3987 1.65132 56.1464 1.81494 55.9214L1.97998 55.6948L2.14502 55.4673C2.24399 55.3312 2.33497 55.1953 2.41553 55.063L2.55225 54.8374L2.68994 54.6118C2.76785 54.4837 2.84036 54.349 2.90576 54.2104L3.13428 53.7261C3.27941 53.4193 3.51443 53.1819 3.80908 53.0269L4.05615 52.897L4.3042 52.7671C4.37592 52.7293 4.42379 52.6855 4.4585 52.6372L4.76709 52.2056C4.88268 52.0442 5.00898 51.8853 5.14209 51.731L5.32178 51.522L5.50146 51.314C5.72015 51.0608 6.00431 50.8896 6.33057 50.8149L6.86768 50.6919C6.91146 50.6818 6.93341 50.6667 6.95264 50.646L7.07764 50.5103L6.97217 50.3784C6.89157 50.2781 6.79319 50.1744 6.67725 50.0718L6.46143 49.8813L6.24658 49.6899C5.98156 49.4548 5.80859 49.1462 5.76025 48.7876L5.68604 48.2388C5.65761 48.0268 5.64271 47.8128 5.64209 47.6021L5.64111 47.3325V47.063C5.64068 47.0214 5.63008 46.9672 5.58838 46.896L5.43799 46.6411L5.28857 46.3853C5.13389 46.1209 5.04275 45.8278 5.03174 45.5181L5.01221 44.9634C5.00308 44.6987 5.03868 44.4359 5.11768 44.1831L5.28369 43.6519C5.34873 43.444 5.42837 43.2403 5.521 43.0454L5.63818 42.7983L5.75537 42.5503C5.81453 42.4256 5.86284 42.2953 5.89795 42.1626L5.96729 41.8989L6.0376 41.6353C6.1248 41.3067 6.31129 41.0291 6.57178 40.8198L6.79346 40.6411L7.01514 40.4634C7.15538 40.3508 7.28805 40.2398 7.41064 40.1323L7.60693 39.9595L7.8042 39.7876C7.88779 39.7142 7.96113 39.6305 8.02295 39.5376L8.16748 39.3188L8.31299 39.1011C8.45744 38.884 8.63833 38.6962 8.85107 38.5454L9.06299 38.395L9.2749 38.2456C9.32733 38.2083 9.3894 38.1462 9.45264 38.0444L9.61084 37.7896L9.77002 37.5337C9.81581 37.4599 9.84986 37.3999 9.87256 37.356C9.89006 37.3219 9.89798 37.3022 9.8999 37.2974L9.94482 37.1606L9.98877 37.0229C10.0363 36.876 10.1168 36.7 10.2085 36.519L10.3423 36.2563L10.4751 35.9937C10.5472 35.8512 10.601 35.7172 10.6382 35.5952L10.7905 35.0952C10.8458 34.9139 10.9074 34.7338 10.9741 34.5591L11.0659 34.3198L11.1577 34.0796C11.1798 34.0209 11.1958 33.9383 11.1919 33.8257L11.1821 33.5327L11.1714 33.2397C11.1604 32.9194 11.2329 32.6047 11.4019 32.3228L11.5415 32.0894L11.6812 31.8569C11.7704 31.7081 11.8595 31.5542 11.9468 31.3989L12.0825 31.1567L12.2192 30.9146C12.3782 30.6323 12.6086 30.4099 12.8931 30.2593L13.395 29.9937C13.588 29.8916 13.7863 29.8026 13.9868 29.728L14.2437 29.6323L14.5005 29.5376C14.5394 29.5231 14.575 29.4991 14.6128 29.4497L14.9604 28.9946L15.063 28.8745C15.3152 28.6143 15.6538 28.4844 16.022 28.5005L16.313 28.5142L16.605 28.5269C16.6529 28.5289 16.6725 28.5195 16.689 28.5083L17.144 28.1958C17.2502 28.1232 17.3639 28.0661 17.481 28.0249C17.49 28.0011 17.5013 27.9765 17.5103 27.9526L17.7056 27.4272C17.8352 27.0808 18.0805 26.8148 18.4038 26.6489L18.6616 26.5171L18.9185 26.3843C18.9268 26.3799 18.9338 26.3758 18.937 26.3735C18.9388 26.3722 18.9411 26.3703 18.9419 26.3696L18.9438 26.3667C18.945 26.3647 18.9476 26.3601 18.9497 26.355L19.0571 26.0942L19.1636 25.8335C19.2129 25.7133 19.2765 25.6027 19.3521 25.5044L19.3091 25.3364C19.2564 25.1302 19.2446 24.8865 19.3315 24.6421C19.4203 24.394 19.5877 24.21 19.7729 24.0845L20.0269 23.9116L20.2808 23.7397C20.2909 23.7329 20.2981 23.7271 20.3013 23.7241C20.3019 23.7233 20.3029 23.7217 20.3032 23.7212L20.3042 23.7183L20.3687 23.438L20.4321 23.1577C20.498 22.8706 20.6241 22.6045 20.811 22.3745L20.9849 22.1616L21.1577 21.9478C21.3344 21.7308 21.551 21.5547 21.7983 21.4243L22.0454 21.2944L22.2915 21.1646C22.4793 21.0657 22.6724 20.9777 22.8667 20.9028L23.1187 20.8062L23.3706 20.7085C23.533 20.6459 23.6927 20.5826 23.8462 20.519L24.0854 20.4204L24.3247 20.3208C24.5174 20.241 24.7165 20.1763 24.9185 20.1274L25.1685 20.0669L25.4175 20.0063C25.5661 19.9704 25.7147 19.9291 25.8599 19.8823L26.104 19.8042L26.2231 19.7651L26.3706 19.4556C26.5173 19.1467 26.7496 18.8842 27.0757 18.7251L27.3179 18.6069L27.561 18.4888C27.7754 18.3844 28.0029 18.3066 28.2388 18.2554L28.7896 18.1362C28.8898 18.1144 28.9718 18.0782 29.0396 18.0327L29.2603 17.8843L29.48 17.7358C29.5958 17.6579 29.7099 17.5682 29.8188 17.4683L30.022 17.2827L30.2241 17.0972C30.3581 16.9742 30.4945 16.8486 30.6304 16.7231L31.0405 16.3442C31.2928 16.1118 31.602 15.9755 31.9409 15.9419L32.2241 15.9146L32.5063 15.8862C32.6477 15.8722 32.7792 15.8451 32.8989 15.8071L33.1538 15.7261L33.4097 15.645C33.5114 15.6126 33.6094 15.5643 33.7026 15.5005L34.1538 15.1919C34.3735 15.0413 34.6158 14.9317 34.8745 14.8687L35.1353 14.8052L35.397 14.7417C35.6072 14.6906 35.8231 14.6554 36.0405 14.6372L36.5854 14.5923L36.5874 14.5913C36.5917 14.5888 36.6041 14.5808 36.6206 14.564L36.8325 14.3462L37.0444 14.1274L37.1616 14.02C37.2862 13.9195 37.4348 13.8389 37.604 13.7935C37.7727 13.7484 37.9404 13.7437 38.0972 13.7671L38.2515 13.7993L38.5503 13.8804L38.771 13.9399L38.9292 13.7944L39.1528 13.5884C39.446 13.319 39.8241 13.1842 40.2368 13.2407L40.52 13.2798L40.8022 13.3188C40.9338 13.3369 41.0551 13.3372 41.1655 13.3237L41.6929 13.2593C41.7809 13.2484 41.8735 13.2213 41.9692 13.1724L42.2183 13.0444L42.4683 12.9165C42.6652 12.8158 42.8688 12.7306 43.0757 12.6616L43.3345 12.5747L43.5933 12.4888C43.9743 12.3621 44.3532 12.4196 44.6812 12.5845L45.0405 12.7651C45.1379 12.7021 45.2453 12.6495 45.3608 12.6118L45.6235 12.5259L45.8862 12.4409C46.0369 12.3919 46.1772 12.3373 46.3052 12.2788L46.5386 12.1724L46.771 12.0649C46.8187 12.0429 46.8799 12.0011 46.9497 11.9194L47.3325 11.4722C47.5646 11.201 47.8769 11.0169 48.2485 10.9722L48.5181 10.9399L48.7866 10.9087C49.0272 10.8801 49.2703 10.8828 49.5103 10.9175L50.0474 10.9956C50.1334 11.008 50.2151 11.0034 50.2944 10.9829L50.812 10.8481C51.0832 10.7776 51.363 10.766 51.6392 10.8169L52.1567 10.9126C52.3112 10.9412 52.4695 10.9648 52.6274 10.9819L52.8921 11.0103L53.1558 11.0386C53.448 11.0703 53.7224 11.1724 53.9653 11.3364L54.188 11.4868L54.4106 11.6382C54.4407 11.6585 54.485 11.6774 54.561 11.6812L54.855 11.6938L55.1479 11.7075C55.4635 11.7221 55.7667 11.8157 56.0337 11.9956L56.2612 12.1489L56.4878 12.3022C56.5292 12.3302 56.569 12.3614 56.6079 12.3921L56.9995 12.3501C57.2503 12.3229 57.5027 12.3354 57.7505 12.3853L58.2837 12.4927C58.3382 12.5036 58.3935 12.5115 58.4478 12.519L58.5425 12.4263C58.7791 12.1946 59.072 12.0519 59.3931 11.9985L59.6704 11.9536L59.9468 11.9077C60.0469 11.8911 60.1263 11.8593 60.1909 11.8198L60.4146 11.6841L60.6372 11.5474C60.7648 11.4692 60.8982 11.3782 61.0347 11.2759L61.2642 11.103L61.4937 10.9312C61.7393 10.747 62.022 10.6277 62.3296 10.5874L62.6021 10.5522L62.8735 10.5161C63.1719 10.4774 63.4679 10.5143 63.7485 10.6157L64.019 10.7134L64.2866 10.811C64.291 10.8098 64.2992 10.8066 64.3091 10.8022L64.5923 10.6743L64.8755 10.5474C65.1892 10.4066 65.5367 10.3755 65.8716 10.4917L66.0142 10.5503L66.5239 10.7964C66.7196 10.8907 66.9092 10.9975 67.0884 11.1138L67.5493 11.4126C67.6451 11.4748 67.7475 11.5217 67.854 11.5532L68.1157 11.6304L68.3774 11.7065C68.6902 11.7985 68.9578 11.9788 69.1636 12.229L69.188 12.2593C69.2828 12.2652 69.3793 12.281 69.4741 12.3091L69.6216 12.3618L69.8882 12.4751L70.1411 12.5845L70.395 12.4741L70.6616 12.3589L70.7993 12.3081C71.1214 12.2069 71.4578 12.2293 71.771 12.3716L72.1587 12.5474C72.2406 12.4955 72.3244 12.4449 72.4077 12.396L72.6284 12.2671L72.8481 12.1372C73.0259 12.0328 73.2124 11.9417 73.4038 11.8657L73.8784 11.6782C74.011 11.6256 74.1447 11.5638 74.2769 11.4937L74.5093 11.3696L74.7417 11.2466C74.9431 11.1396 75.1561 11.0555 75.3765 10.9956L75.6323 10.9263L75.8872 10.8569C76.0889 10.8023 76.2895 10.764 76.4819 10.7495L76.689 10.7339L76.895 10.7183C76.8988 10.718 76.9041 10.7176 76.9077 10.7173C76.9129 10.7152 76.9182 10.7127 76.9214 10.7114C76.9521 10.6999 76.9862 10.6883 77.0122 10.6802C77.0687 10.6626 77.1483 10.6399 77.2417 10.6138L77.519 10.5366L77.7964 10.4585ZM52.6997 41.4829L52.689 41.5659L52.6948 41.561C52.7094 41.534 52.7105 41.5168 52.7114 41.5112V41.4995L52.6997 41.4556V41.4829Z" fill="#303A4B"/>
</svg>
