<svg width="128" height="128" viewBox="0 0 128 128" fill="none" xmlns="http://www.w3.org/2000/svg">
<path d="M77.937 14.9219L78.4702 14.9688C78.6469 14.9842 78.8258 14.9996 79.0034 15.0146L79.271 15.0371L79.5396 15.0596C79.6712 15.0706 79.8045 15.0694 79.938 15.0547L80.2075 15.0244L80.4771 14.9951C80.7292 14.9673 80.9822 14.9784 81.231 15.0283L81.4976 15.0811L81.7642 15.1348C81.8892 15.1598 82.0155 15.1713 82.1411 15.168L82.4106 15.1602L82.6802 15.1533C82.8808 15.148 83.0825 15.1522 83.2827 15.165L83.5522 15.1816L83.8218 15.1992C84.0221 15.2121 84.2225 15.2347 84.4204 15.2656L84.686 15.3066L84.9517 15.3486C85.1397 15.3781 85.3283 15.4124 85.5151 15.4512L85.7788 15.5059L86.0435 15.5605C86.295 15.6128 86.5347 15.7053 86.7593 15.833L87.2495 16.1123C87.3266 16.1561 87.3986 16.1768 87.4692 16.1826L87.7378 16.2041L88.0073 16.2266C88.2398 16.2455 88.4684 16.2904 88.6899 16.3613L88.9448 16.4424L89.1997 16.5244C89.3587 16.5754 89.5194 16.6235 89.6802 16.667L90.1958 16.8057C90.3461 16.8463 90.5002 16.8811 90.6558 16.9082L91.187 17C91.4731 17.05 91.7375 17.1642 91.9722 17.333L92.1987 17.4951L92.4243 17.6582C92.5247 17.7304 92.6267 17.7839 92.729 17.8213L92.979 17.9121L93.228 18.0029C93.3794 18.0581 93.5342 18.1089 93.6899 18.1543L93.9468 18.2295L94.2026 18.3037C94.4488 18.3755 94.6796 18.4869 94.8901 18.6338L95.1128 18.7891L95.3345 18.9443C95.4521 19.0264 95.574 19.0966 95.6978 19.1562L96.1743 19.3867C96.2295 19.4132 96.3052 19.4339 96.4116 19.4355L96.7085 19.4395L97.0054 19.4443C97.4058 19.4505 97.742 19.6298 97.9702 19.9277L98.062 20.0625L98.3784 20.5957C98.3986 20.6296 98.4148 20.6455 98.4214 20.6514C98.4263 20.6557 98.4291 20.6574 98.4312 20.6582L98.6812 20.7539L98.9321 20.8506C99.1419 20.9312 99.3426 21.0316 99.5317 21.1514L99.7563 21.293L99.98 21.4355C100.053 21.4819 100.142 21.5192 100.252 21.543L100.532 21.6025L100.81 21.6631C101.17 21.7409 101.473 21.941 101.685 22.2432L101.848 22.4756L102.011 22.709C102.103 22.8404 102.2 22.9603 102.299 23.0693L102.482 23.2686L102.645 23.4473C102.653 23.4486 102.665 23.4514 102.679 23.4521L103.004 23.4668L103.33 23.4824C103.668 23.4984 104.005 23.6015 104.285 23.8359L104.491 24.0078L104.697 24.1807C104.839 24.2997 104.98 24.4212 105.119 24.5439L105.321 24.7227L105.522 24.9004C105.777 25.1257 105.936 25.4159 106.021 25.7285L106.104 26.0332L106.177 26.3047L106.383 26.3916L106.647 26.501C106.981 26.6404 107.243 26.8852 107.4 27.2148L107.521 27.4688L107.641 27.7217C107.658 27.7564 107.676 27.7751 107.708 27.793L107.954 27.9277L108.2 28.0625C108.434 28.1913 108.643 28.3569 108.817 28.5596L108.991 28.7627L109.165 28.9648C109.245 29.0581 109.337 29.1449 109.444 29.2236L109.887 29.5518C110.088 29.7001 110.264 29.8737 110.415 30.0713L110.578 30.2852L110.74 30.499C110.863 30.6618 110.979 30.8314 111.084 31.0068L111.223 31.2383L111.363 31.4688C111.454 31.6196 111.546 31.7702 111.638 31.9189L111.921 32.374C112.012 32.52 112.105 32.6647 112.2 32.8076L112.347 33.0312L112.496 33.2539C112.576 33.3759 112.666 33.4942 112.764 33.6074L112.943 33.8125L113.122 34.0166C113.328 34.2536 113.459 34.5344 113.515 34.8398L113.566 35.1191L113.618 35.3984C113.621 35.415 113.625 35.423 113.626 35.4258C113.628 35.4286 113.633 35.4368 113.648 35.4492L113.867 35.6338L114.086 35.8193C114.341 36.0344 114.52 36.3133 114.603 36.6416L114.67 36.9082L114.737 37.1748C114.782 37.3535 114.826 37.5321 114.87 37.709L114.935 37.9727L115 38.2373C115.044 38.4128 115.087 38.5881 115.13 38.7617L115.195 39.0225L115.26 39.2842C115.267 39.3111 115.282 39.3457 115.333 39.3926L115.548 39.5918L115.764 39.79C116.026 40.0315 116.196 40.3459 116.235 40.7119L116.293 41.2607C116.297 41.296 116.308 41.3276 116.342 41.3682L116.528 41.5869L116.713 41.8047C116.945 42.0768 117.068 42.4082 117.067 42.7686L117.065 43.3311C117.064 43.4565 117.08 43.5705 117.109 43.6748L117.251 44.1885C117.287 44.3144 117.335 44.4394 117.396 44.5625L117.64 45.0508C117.771 45.3124 117.836 45.5945 117.836 45.8867V46.4346C117.836 46.6045 117.841 46.7731 117.85 46.9385L117.865 47.207L117.878 47.4746C117.889 47.6697 117.892 47.8665 117.889 48.0625L117.885 48.3311L117.88 48.5957C117.882 48.5996 117.889 48.6155 117.911 48.6416L118.112 48.8809L118.313 49.1211C118.558 49.4139 118.691 49.7845 118.631 50.1943L118.551 50.7432C118.528 50.9015 118.513 51.0573 118.507 51.209L118.498 51.4766L118.487 51.7432C118.482 51.8811 118.488 52.019 118.506 52.1553L118.541 52.4199L118.576 52.6846C118.608 52.9304 118.603 53.1777 118.563 53.4229L118.52 53.6895L118.476 53.9561C118.454 54.0927 118.443 54.2288 118.445 54.3633L118.449 54.6299L118.453 54.8955C118.455 55.075 118.457 55.2556 118.458 55.4355V55.7021L118.458 55.9688C118.459 55.9872 118.463 56.0348 118.518 56.1201L118.69 56.3867L118.861 56.6533C119.038 56.9283 119.147 57.2457 119.137 57.5918L119.122 58.125C119.114 58.3823 119.064 58.635 118.976 58.8789L118.88 59.1455L118.784 59.4121C118.733 59.552 118.697 59.6899 118.674 59.8242L118.628 60.0908L118.583 60.3584C118.561 60.4863 118.553 60.6134 118.558 60.7393L118.568 60.9795C118.327 60.8106 118.053 60.7144 117.763 60.6855L117.175 60.627C117.052 60.6147 116.964 60.5872 116.901 60.5557L116.673 60.4414L116.446 60.3262C116.342 60.2739 116.232 60.2045 116.118 60.1143L115.896 59.9385L115.673 59.7627C115.465 59.5983 115.235 59.4699 114.986 59.3809L114.722 59.2871L114.458 59.1924C114.102 59.0651 113.735 59.0882 113.399 59.2363L113.129 59.3555L112.859 59.4736C112.789 59.5046 112.736 59.5097 112.688 59.5039L112.414 59.4707L112.138 59.4365C112.089 59.4306 112.041 59.4288 111.993 59.4277L111.988 59.6338C111.984 59.7931 111.986 59.9525 111.995 60.1113L112.008 60.3779L112.023 60.6445C112.032 60.8169 112.042 60.9898 112.055 61.1621L112.075 61.4277L112.095 61.6943C112.109 61.8775 112.119 62.0608 112.128 62.2441L112.142 62.5107L112.155 62.7773C112.167 63.0309 112.139 63.2825 112.074 63.5293L112.003 63.7979L111.932 64.0674C111.895 64.2062 111.872 64.3422 111.862 64.4756L111.842 64.7432L111.822 65.0107C111.821 65.0243 111.82 65.0571 111.859 65.123L112.015 65.3848L112.17 65.6475C112.358 65.9637 112.432 66.3297 112.34 66.708L112.211 67.2451C112.169 67.4206 112.128 67.5961 112.088 67.7715L112.028 68.041L111.967 68.3096C111.936 68.4467 111.919 68.5814 111.915 68.7139L111.905 68.9814L111.895 69.248C111.895 69.249 111.895 69.2537 111.899 69.2646C111.903 69.277 111.914 69.3028 111.941 69.3408L112.31 69.8623C112.538 70.1846 112.641 70.5826 112.52 71.001L112.443 71.2705L112.365 71.5391C112.351 71.5873 112.352 71.6241 112.365 71.666L112.446 71.9307L112.528 72.1953C112.62 72.4937 112.629 72.8021 112.555 73.1055L112.424 73.6426C112.406 73.7178 112.406 73.7854 112.421 73.8535L112.48 74.1191L112.54 74.3838C112.582 74.5747 112.619 74.7663 112.649 74.958L112.691 75.2236L112.732 75.4893C112.792 75.8688 112.689 76.2207 112.501 76.5176L112.33 76.7891L112.16 77.0566L112.227 77.2715L112.309 77.5361C112.386 77.7827 112.423 78.0358 112.417 78.293L112.412 78.5596L112.407 78.8271C112.403 78.9904 112.404 79.1535 112.411 79.3164L112.432 79.8496C112.438 80.0031 112.436 80.1568 112.431 80.3105C112.462 80.2292 112.508 80.1446 112.578 80.0576L112.937 79.6084C112.996 79.5347 113.042 79.4566 113.081 79.3779C113.278 79.3895 113.476 79.3734 113.671 79.3291L113.937 79.2695L114.202 79.209C114.313 79.1838 114.429 79.1743 114.549 79.1807L115.104 79.21C115.495 79.2307 115.846 79.0901 116.121 78.8281L116.332 78.627L116.542 78.4258C116.649 78.323 116.753 78.244 116.849 78.1855L117.068 78.0527L117.288 77.9199C117.4 77.8522 117.521 77.7917 117.652 77.7393L117.9 77.6396L118.147 77.54C118.402 77.4377 118.629 77.2871 118.822 77.0908L119.006 76.9033L119.025 76.8838C119.01 76.9346 118.994 76.9853 118.974 77.0352L118.761 77.5684C118.732 77.6425 118.727 77.7003 118.733 77.751L118.765 78.0176L118.798 78.2842C118.816 78.4246 118.844 78.5673 118.884 78.7109L119.035 79.2441C119.117 79.5358 119.125 79.8368 119.056 80.1328L118.995 80.3994L118.932 80.666C118.88 80.8902 118.804 81.1112 118.708 81.3271L118.589 81.5938L118.47 81.8604C118.446 81.9156 118.446 81.9476 118.451 81.9717L118.552 82.5049C118.582 82.6589 118.62 82.8141 118.666 82.9697L118.745 83.2363L118.823 83.5029C118.927 83.8579 118.89 84.2153 118.738 84.54L118.612 84.8066L118.536 84.9678L118.673 85.1641L118.86 85.4307C119.104 85.7806 119.188 86.2172 119.002 86.6514L118.774 87.1846C118.745 87.2515 118.743 87.2984 118.749 87.3369L118.825 87.8701C118.846 88.0154 118.877 88.1626 118.918 88.3105L118.995 88.5771L119.07 88.8438C119.149 89.1239 119.164 89.4129 119.111 89.7002L119.013 90.2334C118.987 90.3743 118.972 90.5152 118.969 90.6543L118.963 90.9209L118.957 91.1875C118.953 91.3552 118.952 91.5237 118.956 91.6914L118.965 92.2246C118.969 92.427 118.962 92.63 118.945 92.832L118.921 93.0986L118.899 93.3652C118.887 93.502 118.887 93.6396 118.899 93.7764L118.922 94.043L118.945 94.3096C118.973 94.6385 118.898 94.952 118.75 95.2344L118.611 95.501L118.516 95.6816L118.63 95.873L118.79 96.1396C118.954 96.4157 119.052 96.7289 119.039 97.0654L119.028 97.333L119.017 97.5996C119.007 97.8557 118.955 98.1071 118.866 98.3496L118.768 98.6162L118.669 98.8828C118.655 98.9226 118.656 98.9467 118.665 98.9756L118.817 99.5088C118.917 99.8595 118.88 100.212 118.732 100.534L118.488 101.067C118.479 101.087 118.477 101.098 118.476 101.102V101.104C118.476 101.106 118.477 101.109 118.478 101.113L118.626 101.646C118.686 101.859 118.729 102.074 118.753 102.29L118.814 102.823C118.844 103.088 118.826 103.353 118.76 103.612L118.625 104.146C118.607 104.218 118.606 104.285 118.621 104.354L118.736 104.888C118.796 105.167 118.795 105.451 118.732 105.729L118.67 105.996L118.61 106.263C118.598 106.314 118.6 106.363 118.619 106.423L118.703 106.689L118.788 106.956C118.87 107.217 118.904 107.487 118.882 107.761L118.861 108.027L118.84 108.294C118.832 108.401 118.839 108.51 118.863 108.621L118.978 109.154C119.051 109.491 119.007 109.824 118.87 110.129L118.75 110.396L118.63 110.659L118.729 110.918L118.831 111.185C118.893 111.347 118.966 111.64 118.828 111.946C118.677 112.279 118.377 112.408 118.177 112.454L117.929 112.512L117.68 112.568C117.448 112.621 117.21 112.64 116.97 112.628L116.437 112.601C116.378 112.598 116.308 112.609 116.222 112.646L115.689 112.876C115.409 112.997 115.107 113.05 114.798 113.018L114.265 112.961C113.992 112.932 113.731 112.849 113.485 112.725L113.218 112.589L113.061 112.509L112.875 112.637L112.609 112.819C112.427 112.944 112.2 113.036 111.94 113.036C111.68 113.036 111.453 112.944 111.271 112.819L111.004 112.636L110.747 112.459L110.538 112.521L110.271 112.598C109.988 112.679 109.694 112.694 109.404 112.638L108.871 112.534C108.859 112.532 108.837 112.528 108.786 112.553L108.519 112.684L108.252 112.813C107.953 112.96 107.622 113.018 107.282 112.958L107.015 112.911L106.749 112.863C106.639 112.844 106.529 112.84 106.421 112.853L106.155 112.884L105.888 112.914C105.67 112.939 105.449 112.946 105.23 112.933L104.697 112.899C104.506 112.888 104.314 112.87 104.124 112.848L103.857 112.816L103.589 112.785C103.382 112.761 103.175 112.722 102.969 112.671L102.703 112.605L102.436 112.539C102.273 112.499 102.109 112.463 101.946 112.434L101.413 112.336C101.399 112.334 101.374 112.331 101.321 112.357L101.054 112.488L100.787 112.619C100.474 112.772 100.128 112.824 99.7759 112.741L99.2427 112.614C99.1536 112.593 99.0678 112.59 98.9829 112.604L98.7163 112.645L98.4497 112.687C98.2074 112.724 97.9624 112.728 97.7192 112.698L97.186 112.632C97.091 112.62 96.9941 112.624 96.895 112.646L96.3618 112.766C96.1182 112.82 95.8698 112.839 95.6216 112.821L95.355 112.803L95.0884 112.783C94.896 112.769 94.7024 112.749 94.5103 112.723L94.2437 112.687L93.9771 112.649C93.7738 112.622 93.5703 112.582 93.3687 112.532L92.8354 112.399C92.7669 112.382 92.7015 112.382 92.6343 112.397L92.3677 112.46L92.1011 112.521C91.873 112.575 91.641 112.603 91.4087 112.604L90.8755 112.605C90.7848 112.606 90.6868 112.622 90.5815 112.66L90.3149 112.757L90.0483 112.853C89.7921 112.945 89.5248 112.991 89.2524 112.983L88.9849 112.975L88.7183 112.967C88.4419 112.958 88.1745 112.893 87.9214 112.782L87.6548 112.665L87.4438 112.573L87.2202 112.699L86.9536 112.849C86.7692 112.952 86.5529 113.016 86.3179 113.009C86.0839 113.001 85.8747 112.925 85.6987 112.815L85.4312 112.65L85.1646 112.484C85.1339 112.465 85.1154 112.459 85.1099 112.458H85.1089L85.1108 112.457L84.8442 112.497L84.5776 112.536C84.4464 112.556 84.3106 112.589 84.1733 112.637L83.9067 112.729L83.6401 112.821C83.3824 112.911 83.1139 112.953 82.8413 112.94L82.5747 112.929L82.3081 112.916C82.0636 112.905 81.8216 112.86 81.5864 112.783L81.0532 112.609C80.9855 112.587 80.9275 112.584 80.8716 112.595L80.605 112.646L80.3384 112.695C80.0823 112.743 79.8223 112.748 79.5649 112.708L79.2983 112.666L79.0308 112.625C78.8531 112.597 78.6743 112.57 78.4966 112.542L77.9634 112.458C77.9464 112.455 77.9158 112.453 77.8569 112.482L77.3237 112.748C76.9993 112.909 76.6376 112.954 76.2759 112.85L76.0093 112.772L75.7417 112.695C75.5541 112.641 75.3654 112.581 75.1782 112.518L74.9116 112.428L74.73 112.365L74.4956 112.539L74.229 112.735C74.054 112.864 73.8306 112.966 73.5698 112.978C73.3062 112.989 73.0726 112.904 72.8843 112.781L72.6177 112.607L72.4829 112.52L72.3433 112.616L72.0767 112.8C71.8914 112.927 71.6573 113.02 71.3892 113.014C71.1227 113.007 70.8957 112.904 70.7183 112.773L70.4507 112.576L70.2964 112.463L70.1694 112.538L69.9028 112.696C69.5697 112.894 69.1795 112.96 68.7856 112.831L68.519 112.744L68.2515 112.656C68.0959 112.605 67.9404 112.562 67.7866 112.528L67.52 112.47L67.2534 112.41C67.1108 112.379 66.9679 112.359 66.8276 112.35L66.561 112.332L66.2944 112.315C66.1745 112.308 66.0524 112.314 65.9302 112.336L65.397 112.43C65.2384 112.458 65.078 112.493 64.9185 112.534L64.3853 112.673C64.061 112.757 63.7329 112.735 63.4233 112.619L63.1567 112.519L62.9233 112.431L62.6743 112.564L62.4077 112.706C62.1136 112.863 61.7833 112.936 61.438 112.886L61.1714 112.848L60.9048 112.809C60.7085 112.78 60.5114 112.744 60.3159 112.699L59.7827 112.578H59.7817C59.7796 112.579 59.7665 112.582 59.7427 112.595L59.4761 112.737L59.2085 112.88C58.9018 113.044 58.5551 113.111 58.1968 113.037L57.9292 112.981L57.6626 112.927C57.4431 112.881 57.2256 112.816 57.0122 112.731L56.7456 112.626L56.4937 112.526L56.2358 112.645L55.9692 112.767C55.7317 112.875 55.483 112.949 55.2271 112.98L54.6938 113.047C54.3212 113.093 53.977 112.986 53.686 112.797L53.4194 112.624L53.1821 112.47L52.9829 112.544L52.7163 112.641C52.4647 112.732 52.2021 112.779 51.9351 112.777L51.4019 112.773C51.1298 112.771 50.864 112.716 50.6108 112.615L50.3442 112.51L50.0776 112.403C49.9819 112.365 49.8973 112.352 49.8218 112.354L49.5552 112.359L49.2886 112.364C49.1566 112.367 49.022 112.383 48.8872 112.411L48.6206 112.468L48.354 112.523C48.0969 112.578 47.8348 112.587 47.5747 112.551L47.0415 112.477C46.8736 112.453 46.7044 112.433 46.5366 112.416L46.0034 112.363C45.863 112.349 45.7216 112.346 45.5815 112.354L45.0483 112.386C44.929 112.393 44.8054 112.415 44.6792 112.453L44.4126 112.533L44.146 112.614C43.9552 112.672 43.7623 112.723 43.5708 112.769L43.0376 112.896C42.7528 112.963 42.4622 112.963 42.1772 112.896L41.644 112.771C41.495 112.737 41.3459 112.711 41.1987 112.695L40.6655 112.639C40.5808 112.63 40.4923 112.637 40.3989 112.663L39.8657 112.813C39.6126 112.885 39.3522 112.913 39.0903 112.895L38.5571 112.857C38.4621 112.851 38.3632 112.86 38.2603 112.888L37.9937 112.961L37.7271 113.033C37.4785 113.101 37.2236 113.129 36.9673 113.115L36.7007 113.1L36.4341 113.085C36.2699 113.076 36.1041 113.071 35.9399 113.071H35.4067C35.071 113.071 34.7619 112.962 34.4917 112.79L34.2251 112.621L34.0649 112.52L33.9106 112.614L33.644 112.777C33.3788 112.939 33.0808 113.043 32.7593 113.052L32.4927 113.06L32.2261 113.066C31.9719 113.073 31.7194 113.039 31.4741 112.968L30.9409 112.812C30.788 112.767 30.6349 112.732 30.4839 112.705L29.9507 112.611C29.9256 112.607 29.8912 112.607 29.8335 112.633L29.3003 112.875C29.0203 113.002 28.7174 113.061 28.4048 113.03L27.8716 112.978C27.7326 112.964 27.5923 112.963 27.4536 112.972L27.187 112.988L26.9204 113.006C26.7302 113.018 26.5384 113.026 26.3481 113.028L25.8149 113.034C25.6231 113.036 25.4296 113.032 25.2378 113.022L24.9712 113.009L24.7046 112.996C24.4824 112.985 24.2603 112.953 24.0415 112.9L23.7749 112.836L23.5083 112.772C23.4418 112.757 23.3782 112.757 23.311 112.773L23.0444 112.84L22.7778 112.905C22.4583 112.984 22.1354 112.964 21.8296 112.853L21.563 112.756L21.2964 112.658C21.2172 112.629 21.1495 112.624 21.0884 112.631L20.8218 112.661L20.5552 112.692C20.3393 112.717 20.1213 112.724 19.9048 112.714L19.6382 112.701L19.3716 112.688C19.1942 112.679 19.0157 112.671 18.8384 112.662L18.5718 112.648L18.3052 112.636C18.2103 112.631 18.1106 112.642 18.0063 112.673L17.4731 112.829C17.0904 112.941 16.714 112.876 16.3882 112.69L16.1216 112.539L15.855 112.387C15.774 112.341 15.7221 112.334 15.6929 112.335L15.1597 112.351C14.9709 112.356 14.781 112.356 14.5923 112.353L14.3257 112.347L14.0581 112.341C13.9484 112.339 13.8351 112.352 13.7192 112.382L13.4526 112.451L13.1851 112.521C12.8978 112.595 12.6036 112.6 12.314 112.533L11.7808 112.41C11.7739 112.409 11.7598 112.405 11.7163 112.426L11.4497 112.554L11.1831 112.683C10.8058 112.865 10.3759 112.867 9.99463 112.625L9.76318 112.479L9.53271 112.332C9.36803 112.227 9.21446 112.079 9.11182 111.879C9.00877 111.677 8.97818 111.464 8.99268 111.266L9.03174 110.732C9.04126 110.601 9.03798 110.469 9.02197 110.337L8.95752 109.804C8.93384 109.608 8.91742 109.412 8.90869 109.216L8.89697 108.949L8.88428 108.683C8.87331 108.435 8.89938 108.188 8.95947 107.946L9.02588 107.68L9.09131 107.413C9.10976 107.338 9.11111 107.268 9.09619 107.196L9.0415 106.93L8.98584 106.663C8.90983 106.297 8.98322 105.944 9.15576 105.637L9.30615 105.37L9.39697 105.209L9.28467 105.034L9.11377 104.768C8.90058 104.434 8.82086 104.033 8.9585 103.624L9.04736 103.357L9.13721 103.091C9.17417 102.981 9.19106 102.877 9.19189 102.778L9.19482 102.512L9.19678 102.245C9.19856 102.038 9.21272 101.831 9.23975 101.625L9.31006 101.092C9.32127 101.005 9.31678 100.918 9.29346 100.825L9.15869 100.292C9.10031 100.061 9.06936 99.8255 9.06787 99.5889L9.06592 99.3223L9.06494 99.0557C9.06404 98.9198 9.05084 98.7824 9.02588 98.6445L8.97803 98.3779L8.9292 98.1113C8.87852 97.8309 8.89023 97.5488 8.96143 97.2734L9.03076 97.0068L9.09912 96.7393C9.14075 96.5783 9.1773 96.417 9.20654 96.2568L9.25439 95.9902L9.30322 95.7236C9.325 95.604 9.33192 95.4853 9.32373 95.3682L9.30518 95.1006L9.28564 94.834C9.27331 94.6584 9.26029 94.4822 9.24658 94.3066L9.20557 93.7734C9.18743 93.5404 9.19587 93.3067 9.23193 93.0752L9.31592 92.542C9.3332 92.4306 9.33403 92.3196 9.31982 92.209L9.25146 91.6758C9.22339 91.4574 9.21389 91.2368 9.22412 91.0176L9.24951 90.4844C9.25978 90.2656 9.28864 90.0471 9.33643 89.8311L9.396 89.5645L9.45459 89.2979C9.45942 89.2756 9.4612 89.2485 9.43994 89.1992L9.32471 88.9326L9.21045 88.666C9.11364 88.4416 9.04221 88.2111 9.00049 87.9756L8.95361 87.708L8.90576 87.4414C8.85424 87.1494 8.87453 86.8571 8.96143 86.5752L9.04443 86.3086L9.12646 86.042C9.14071 85.9954 9.141 85.9572 9.12842 85.9131L8.97607 85.3799C8.90889 85.1444 8.87291 84.9039 8.86963 84.6611L8.86572 84.3936L8.86182 84.127C8.85765 83.7986 8.9556 83.4931 9.1167 83.2217L9.2749 82.9551L9.43213 82.6895L9.36182 82.4561L9.28174 82.1895C9.20204 81.9239 9.17414 81.6492 9.20459 81.373L9.26318 80.8398C9.27078 80.77 9.2642 80.6957 9.23584 80.6113L9.14697 80.3447L9.05713 80.0781C8.95144 79.7635 8.94377 79.4349 9.03857 79.1152L9.19678 78.582C9.25506 78.3856 9.32244 78.189 9.39795 77.9941L9.46826 77.8105C9.63715 78.0456 9.85396 78.2353 10.1167 78.3652L10.3667 78.4893L10.6177 78.6133C10.7948 78.7007 10.975 78.784 11.1558 78.8623L11.4106 78.9727L11.6665 79.083C11.8695 79.1709 12.0791 79.2434 12.2935 79.2998L12.564 79.3711L12.8335 79.4424C13.0831 79.508 13.3393 79.5343 13.5972 79.5225L13.8765 79.5098L14.1548 79.4971C14.4103 79.4852 14.6606 79.4357 14.9019 79.3506L15.1011 79.2803C15.0906 78.9769 15.1751 78.6913 15.3257 78.4375L15.481 78.1758L15.6128 77.9551L15.5259 77.7412L15.4165 77.4717C15.3156 77.2228 15.2548 76.9629 15.2437 76.6963L15.2329 76.4297L15.2212 76.1621C15.2127 75.9585 15.2155 75.7548 15.229 75.5518L15.2466 75.2861L15.2642 75.0195C15.2851 74.7054 15.3939 74.4157 15.5581 74.1572L15.8901 73.6338C15.9094 73.6033 15.9147 73.5864 15.9155 73.583L15.8784 73.3145L15.8413 73.0469C15.8098 72.8178 15.8031 72.5879 15.8218 72.3584L15.8433 72.0918L15.8657 71.8262C15.8827 71.6175 15.9131 71.4096 15.9575 71.2031L16.0151 70.9375L16.0718 70.6729C16.0744 70.6605 16.0793 70.6371 16.0542 70.582L15.9302 70.3115L15.8071 70.041C15.6602 69.719 15.6211 69.3652 15.7241 69.0117L15.8784 68.4824C15.9257 68.3205 15.9681 68.1587 16.0044 67.9971L16.064 67.7314L16.1226 67.4668C16.1264 67.4498 16.1304 67.4244 16.1069 67.3701L15.8726 66.8291C15.7447 66.5342 15.6959 66.2149 15.7524 65.8887L15.7983 65.624L15.8442 65.3584C15.8651 65.2382 15.8714 65.1184 15.8628 64.998L15.8237 64.4629C15.805 64.2016 15.8326 63.9422 15.9028 63.6895L15.9761 63.4258L16.0493 63.1611C16.0623 63.1144 16.0634 63.0702 16.0474 63.0146L15.9692 62.7451L15.8921 62.4756C15.7902 62.1218 15.8265 61.7657 15.9819 61.4404L16.1079 61.1777L16.2329 60.9141C16.2347 60.9104 16.236 60.9075 16.2368 60.9053L16.0649 60.3662C15.9543 60.0196 15.9746 59.664 16.1187 59.333L16.2339 59.0703L16.3481 58.8066C16.3914 58.7072 16.4098 58.6185 16.4126 58.5371V58.5342L16.2749 58.833C16.2169 58.9586 16.1475 59.0825 16.0659 59.2041L15.9946 59.3096L15.9077 59.2744L15.644 59.167L15.5054 59.1191C15.1798 59.0246 14.847 59.0578 14.5415 59.2002L14.27 59.3271L13.9995 59.4531C13.9654 59.469 13.9481 59.4688 13.9214 59.4619L13.6372 59.3896L13.353 59.3164L13.1909 59.2852C12.8699 59.2441 12.563 59.3277 12.3071 59.5186L12.1841 59.623L11.9653 59.8301L11.7505 60.0342L11.1411 60.0029C10.6979 59.9805 10.298 60.1686 10.0444 60.5488L9.88037 60.7949L9.71729 61.041C9.60832 61.2045 9.50323 61.3604 9.40381 61.5088L9.25635 61.7275C9.25092 61.543 9.25048 61.3574 9.25342 61.1729L9.25732 60.9062L9.26221 60.6396C9.26503 60.4625 9.26731 60.2846 9.27002 60.1074L9.27393 59.8398L9.27783 59.5732C9.2794 59.4644 9.26612 59.352 9.23486 59.2363L9.09033 58.7031C9.00438 58.3844 9.01887 58.0603 9.12646 57.751L9.31201 57.2178C9.33677 57.1462 9.3405 57.0864 9.33154 57.0303L9.24561 56.4971C9.19956 56.2087 9.22187 55.9205 9.30713 55.6426L9.47119 55.1094C9.47975 55.0811 9.48052 55.0588 9.46729 55.0215L9.37256 54.7529L9.27686 54.4854C9.18249 54.2195 9.14199 53.9418 9.16357 53.6592L9.18408 53.3926L9.20459 53.127C9.21383 53.0055 9.20875 52.8797 9.18896 52.751L9.10498 52.208C9.05244 51.8653 9.11795 51.5334 9.27881 51.2354L9.4165 50.9795L9.5542 50.7246C9.59425 50.6501 9.60691 50.5902 9.60693 50.5391V50.002C9.60682 49.865 9.59387 49.7222 9.56885 49.5752L9.52197 49.2988L9.4751 49.0215C9.43355 48.7771 9.42369 48.5307 9.44775 48.2861L9.50049 47.749C9.52017 47.5492 9.5492 47.3502 9.58643 47.1533L9.68604 46.624C9.74787 46.2978 9.90687 46.0153 10.1245 45.7812L10.3345 45.5547L10.5444 45.3291C10.5521 45.3207 10.557 45.3129 10.5601 45.3086L10.5591 45.043L10.5562 44.7666C10.5537 44.5088 10.5911 44.2552 10.6704 44.0107L10.7524 43.7559L10.8354 43.502C10.9216 43.237 11.0608 42.9973 11.2417 42.7861L11.4292 42.5674L11.5474 42.4287L11.4663 42.1709L11.3667 41.8535C11.2595 41.5125 11.2477 41.1336 11.4185 40.7734L11.5337 40.5293L11.6499 40.2852C11.7833 40.0044 11.9856 39.7735 12.229 39.5908L12.4771 39.4053L12.7251 39.2188C12.7946 39.1664 12.8098 39.1313 12.814 39.1191L12.8999 38.8672L12.9868 38.6162C13.036 38.4734 13.0788 38.3248 13.1138 38.1719L13.1743 37.9062L13.2349 37.6396C13.3004 37.3539 13.43 37.0935 13.6177 36.8682L13.7915 36.6582L13.9663 36.4492C14.0161 36.3892 14.0509 36.3227 14.0718 36.2451L14.2144 35.7158C14.3016 35.3931 14.4824 35.1188 14.7368 34.9082L14.9546 34.7285L15.1724 34.5479C15.263 34.4727 15.3321 34.3935 15.3833 34.3125L15.5249 34.0889L15.6655 33.8652C15.6692 33.8592 15.6897 33.8216 15.686 33.7188L15.6626 33.0625C15.649 32.6731 15.7733 32.2782 16.1069 31.9902L16.3169 31.8086L16.5269 31.6279C16.625 31.5431 16.7088 31.4509 16.7788 31.3535L17.0913 30.918C17.2806 30.6545 17.5359 30.4651 17.8247 30.3418L18.104 30.2236L18.3823 30.1045C18.4754 30.0646 18.5238 30.0223 18.5503 29.9893L18.8804 29.5771C18.9297 29.5154 18.9751 29.4339 19.0093 29.3252L19.1831 28.7705C19.2678 28.5011 19.4006 28.2525 19.5864 28.0381L19.7622 27.8359L19.937 27.6338C20.1424 27.3972 20.4022 27.2304 20.6909 27.1279L20.9692 27.0293L21.1499 26.9648L21.2007 26.7246L21.2661 26.4092C21.3321 26.0952 21.4684 25.7967 21.6997 25.5537L21.8862 25.3584L22.0718 25.1631C22.2483 24.9778 22.4525 24.8229 22.6782 24.7012L22.9204 24.5703L23.1626 24.4404C23.3416 24.344 23.5258 24.2541 23.7134 24.1729L24.2231 23.9521C24.3063 23.9159 24.373 23.868 24.4282 23.8096L24.6138 23.6143L24.7993 23.418C25.0188 23.1862 25.2916 23.0305 25.5952 22.9502L25.8706 22.8779L26.146 22.8047C26.236 22.7808 26.3016 22.7451 26.3521 22.7031L26.7603 22.3633C26.8507 22.2878 26.9379 22.1955 27.02 22.0859L27.1899 21.8594L27.3608 21.6318C27.5313 21.4047 27.7432 21.2161 27.9937 21.0791L28.228 20.9512L28.4624 20.8223C28.6225 20.7347 28.7853 20.6488 28.9468 20.5645L29.1831 20.4404L29.4204 20.3164C29.5167 20.2659 29.6092 20.1995 29.6968 20.1162L30.0991 19.7334C30.3339 19.5101 30.6198 19.3656 30.938 19.3076L31.2134 19.2578L31.4878 19.207C31.5527 19.1951 31.6046 19.1716 31.6519 19.1328L31.8647 18.957L32.0786 18.7822C32.3054 18.5962 32.5673 18.4669 32.854 18.4023L33.1196 18.3428L33.3862 18.2822C33.5029 18.2559 33.6126 18.2158 33.7144 18.1621L33.9517 18.0371L34.1899 17.9111C34.4285 17.7854 34.6857 17.7078 34.9536 17.6777L35.228 17.6465L35.5015 17.6162C35.706 17.5934 35.9133 17.5804 36.1206 17.5771L36.3989 17.5723L36.6772 17.5684C36.7698 17.5668 36.8483 17.5477 36.9175 17.5166L37.1606 17.4082L37.4028 17.2988C37.622 17.2002 37.8529 17.1312 38.0903 17.0938L38.353 17.0527L38.6157 17.0107C38.6926 16.9985 38.7709 16.9707 38.8511 16.9209L39.0874 16.7744L39.3237 16.627C39.5405 16.4925 39.7739 16.392 40.02 16.3301L40.5376 16.1992C40.7673 16.1415 41.0032 16.1131 41.2407 16.1133H41.5112L41.7817 16.1143C41.808 16.1141 41.8438 16.1082 41.8989 16.0713L42.1431 15.9082L42.3872 15.7441L42.5317 15.6602C42.8251 15.5138 43.1445 15.496 43.4478 15.5898L43.5981 15.6455L43.8833 15.7705L44.1685 15.8965C44.242 15.9286 44.2719 15.922 44.2769 15.9209L44.5376 15.8652L44.7974 15.8096C44.8918 15.7891 44.9966 15.7494 45.1099 15.6846L45.3647 15.5381L45.6206 15.3916C45.9556 15.2001 46.3366 15.1517 46.7134 15.2695L46.9849 15.3545L47.2573 15.4395C47.2882 15.449 47.306 15.4483 47.3325 15.4385L47.5962 15.3398L47.8608 15.2412C47.976 15.1983 48.1062 15.1587 48.2388 15.1406C48.3308 15.1282 48.4671 15.1196 48.6157 15.1543L48.769 15.2061L48.8774 15.2539L48.9106 15.2695C48.9116 15.2693 48.9136 15.2687 48.9146 15.2686C48.934 15.2675 48.96 15.2654 48.9907 15.2617L49.2573 15.2305L49.5239 15.1982C49.7218 15.1745 49.9213 15.1595 50.1196 15.1533L50.3862 15.1445L50.6528 15.1367C50.9065 15.1289 51.1586 15.1615 51.4038 15.2314L51.937 15.3838C52.0283 15.4098 52.1136 15.4154 52.1958 15.4062L52.4624 15.377L52.729 15.3467C53.0057 15.3158 53.2814 15.3435 53.5474 15.4238L53.814 15.5039L54.063 15.5801C54.0654 15.5791 54.0696 15.5778 54.0728 15.5762L54.3394 15.4336L54.606 15.29C54.9193 15.1222 55.2748 15.0592 55.6392 15.1455L55.9058 15.208L56.1733 15.2715C56.3531 15.3141 56.5337 15.3587 56.7134 15.4033L56.98 15.4688L57.2144 15.5273C57.2165 15.5261 57.2197 15.524 57.2222 15.5225L57.7554 15.1768L57.9058 15.0928C58.0637 15.0185 58.246 14.9746 58.4438 14.9844C58.7048 14.9977 58.9273 15.1015 59.1011 15.2314L59.3677 15.4307L59.5483 15.5664L59.6899 15.4961L59.9565 15.3623C60.1755 15.2526 60.402 15.1656 60.6323 15.1064L61.1655 14.9697C61.516 14.8801 61.8644 14.9252 62.1802 15.0752L62.4468 15.2012L62.7144 15.3281C62.7973 15.3674 62.8597 15.3772 62.9087 15.375L63.1753 15.3623L63.4429 15.3496C63.6535 15.3399 63.8654 15.3454 64.0757 15.3652L64.6089 15.416C64.8047 15.4346 65.0015 15.4603 65.1968 15.4941L65.4634 15.541L65.73 15.5869C65.8758 15.6122 66.0221 15.6278 66.1665 15.6328L66.6997 15.6504C66.787 15.6533 66.8803 15.6403 66.981 15.6064L67.2485 15.5166L67.5151 15.4268C67.7112 15.3607 67.9094 15.303 68.1069 15.2549L68.3735 15.1904L68.6401 15.125C68.9667 15.0457 69.2955 15.0731 69.603 15.1943L70.1362 15.4053C70.246 15.4485 70.3474 15.4694 70.4409 15.4736L70.7075 15.4854L70.9741 15.498C71.1359 15.5053 71.2987 15.5072 71.4604 15.5039L71.728 15.498L71.9946 15.4932C72.1553 15.4899 72.3172 15.4803 72.478 15.4658L72.7446 15.4424L73.0112 15.418C73.2091 15.4001 73.4089 15.3903 73.6069 15.3896H73.8735L74.1401 15.3887C74.2369 15.3882 74.3399 15.3716 74.4487 15.335L74.9819 15.1553C75.2156 15.0767 75.4565 15.0284 75.6997 15.0137L75.9663 14.9971L76.2329 14.9814C76.4093 14.9708 76.5868 14.9595 76.7632 14.9482L77.2964 14.915C77.5094 14.9015 77.7242 14.9033 77.937 14.9219ZM78.6597 42.665L78.6479 42.6738L78.6353 42.9062L78.6206 43.1729C78.6032 43.4829 78.5023 43.7709 78.3433 44.0293L78.1851 44.2852L78.0269 44.542C78.0119 44.5662 78.0087 44.5791 78.0083 44.5811C78.0083 44.5812 78.008 44.5828 78.0083 44.585L78.0513 44.8545L78.0942 45.125C78.1454 45.447 78.0997 45.7629 77.9683 46.0566L77.7358 46.5762C77.7214 46.6086 77.721 46.626 77.7271 46.6514L77.7925 46.9229L77.8569 47.1943C77.9238 47.4741 77.9305 47.7593 77.8706 48.042L77.814 48.3057L77.7583 48.5693C77.7513 48.6026 77.7501 48.6455 77.7749 48.7129L77.8765 48.9873L77.978 49.2607C78.0942 49.5752 78.1147 49.9101 78.019 50.2412L77.9438 50.5029L77.8677 50.7656C77.8481 50.8337 77.8447 50.8999 77.8579 50.9727L77.9067 51.2432L77.9565 51.5146C78.0298 51.917 77.9137 52.2873 77.6919 52.5889L77.5044 52.8428L77.3989 52.9854L77.4849 53.1426L77.6382 53.4199C77.8451 53.7946 77.8745 54.2291 77.6587 54.6338L77.521 54.8916L77.3833 55.1504C77.3434 55.2255 77.3336 55.282 77.3345 55.3281L77.3442 55.8633C77.3489 56.1156 77.3151 56.3647 77.2437 56.6074L77.1665 56.8691L77.0884 57.1309C77.0659 57.2072 77.0515 57.2651 77.0425 57.3066C77.0327 57.352 77.0339 57.3613 77.0347 57.3457L77.0288 57.4668L77.0229 57.5869C77.0092 57.8911 76.8382 58.0958 76.729 58.1982C76.6135 58.3065 76.4786 58.3859 76.3608 58.4453L75.8276 58.7148C75.5684 58.8455 75.2888 58.9246 74.9956 58.9336L74.4624 58.9492C74.1989 58.9572 73.9394 58.9185 73.688 58.8369L73.4214 58.75L73.1548 58.6641C73.0393 58.6266 72.9697 58.6229 72.937 58.625L72.7202 58.6387L72.5034 58.6533C72.2962 58.6669 72.0681 58.6525 71.8306 58.6211L71.1978 58.5371C71.1291 58.5281 71.0876 58.5386 71.0493 58.5596L70.7827 58.7061L70.5161 58.8516C70.1222 59.0666 69.6841 59.0628 69.2944 58.8447L68.7612 58.5459C68.6864 58.5041 68.6445 58.5025 68.6235 58.5039L68.3569 58.5215L68.0903 58.54C67.8634 58.5555 67.6365 58.5471 67.4106 58.5156L67.1431 58.4785L66.8765 58.4414C66.8551 58.4385 66.8203 58.4385 66.7573 58.4697L66.2241 58.7334C65.8818 58.9029 65.5024 58.9344 65.1323 58.7998L64.8657 58.7031L64.5991 58.6055C64.524 58.5782 64.4618 58.5742 64.4048 58.582L63.8716 58.6543C63.7198 58.6751 63.567 58.705 63.4136 58.7432L62.8804 58.876C62.6189 58.941 62.3517 58.9573 62.0845 58.9229L61.8179 58.8887L61.5513 58.8535C61.2977 58.8208 61.0512 58.7477 60.8149 58.6406L60.5483 58.5205L60.2817 58.3994C60.2381 58.3797 60.2216 58.3836 60.2085 58.3867L59.9419 58.4512L59.6753 58.5146C59.484 58.5607 59.2919 58.6015 59.1001 58.6357L58.8335 58.6836L58.5669 58.7305C58.2742 58.7827 57.9813 58.7629 57.6987 58.6758L57.1909 58.5195L56.9253 58.6699L56.6587 58.8213C56.2661 59.0432 55.8243 59.0454 55.4292 58.8252L54.896 58.5283C54.8051 58.4777 54.7395 58.4648 54.6938 58.4639L54.4272 58.458L54.1606 58.4531C54.016 58.4502 53.8704 58.4564 53.7251 58.4736L53.4585 58.5059L53.1919 58.5371C53.0842 58.5499 52.9696 58.5793 52.8481 58.6299L52.3149 58.8525C52.1312 58.9289 51.8585 58.9906 51.5669 58.8828C51.268 58.772 51.1007 58.5397 51.0142 58.3467L50.9009 58.0947L50.7886 57.8438C50.7111 57.6709 50.6347 57.495 50.5601 57.3164L50.4517 57.0566L50.3433 56.7959C50.2453 56.5615 50.1818 56.318 50.1567 56.0674L50.1294 55.8018L50.103 55.5361C50.0703 55.2082 50.1422 54.8948 50.2817 54.6104L50.4165 54.334L50.5522 54.0576C50.5586 54.0447 50.5614 54.0355 50.563 54.0303L50.4868 53.7773L50.4077 53.5156C50.3419 53.2989 50.2962 53.0785 50.2729 52.8555L50.2456 52.5898L50.2173 52.3252C50.2052 52.2099 50.1788 52.092 50.1343 51.9717L49.9409 51.4502C49.7838 51.0255 49.8786 50.6124 50.0923 50.2793L50.271 50L50.4507 49.7207C50.4548 49.7143 50.4569 49.7078 50.4595 49.7031L50.4019 49.4824L50.3315 49.2197C50.2904 49.0646 50.2417 48.9093 50.186 48.7539L50.0933 48.4922L49.9995 48.2314C49.8765 47.8877 49.8895 47.5334 50.0161 47.2021L50.1206 46.9287L50.1831 46.7646L50.0298 46.5771L49.8228 46.3232C49.5681 46.0112 49.4354 45.607 49.5503 45.168L49.6216 44.8955L49.6929 44.624C49.7378 44.4525 49.7781 44.281 49.8149 44.1104L49.8735 43.8398L49.9321 43.5684C49.9534 43.4697 49.9554 43.379 49.9419 43.292L49.9155 43.125L49.6831 43.1338C49.5283 43.1399 49.3831 43.1578 49.2476 43.1865L48.981 43.2432L48.8384 43.2734C48.7861 43.3994 48.7082 43.5439 48.6294 43.6807L48.4839 43.9336L48.3384 44.1855C48.2894 44.2705 48.2698 44.342 48.2651 44.4033L48.2456 44.6689L48.2251 44.9355C48.2116 45.115 48.1975 45.2944 48.1821 45.4736L48.1587 45.7402L48.1362 46.0059C48.1243 46.1455 48.1231 46.287 48.1333 46.4307L48.1528 46.7012L48.1714 46.9707C48.1874 47.1977 48.1814 47.424 48.1519 47.6484L48.0815 48.1777C48.0528 48.3954 48.0053 48.61 47.939 48.8213L47.8579 49.0811L47.7769 49.3359C47.7772 49.3374 47.7782 49.3395 47.7788 49.3418C47.7807 49.3485 47.7848 49.3592 47.7915 49.374L47.9194 49.6562L48.0474 49.9375C48.2046 50.2831 48.2335 50.6698 48.0767 51.0449L47.9692 51.3018L47.8628 51.5586C47.8328 51.6304 47.8221 51.6955 47.8267 51.7617L47.8462 52.0322L47.8647 52.3018C47.8887 52.6454 47.7972 52.9669 47.6216 53.249L47.3071 53.7529C47.2948 53.7729 47.2919 53.7834 47.2915 53.7852C47.2915 53.7853 47.2919 53.788 47.2925 53.792L47.3765 54.3369C47.4099 54.553 47.4268 54.7697 47.4272 54.9854L47.4282 55.2529V55.5215C47.4288 55.7841 47.3837 56.0414 47.2954 56.2891L47.2036 56.5469L47.1118 56.8057C47.0483 56.9837 46.982 57.1615 46.9136 57.3389L46.7144 57.8545C46.6627 57.9884 46.5691 58.1808 46.3892 58.3291C46.169 58.5104 45.8801 58.5748 45.5991 58.4951L45.4399 58.4502L45.3872 58.4346C45.3807 58.4376 45.3735 58.4415 45.3657 58.4453L44.8325 58.709C44.5594 58.8439 44.262 58.915 43.9507 58.9004L43.6831 58.8877L43.4165 58.876C43.1863 58.865 42.958 58.8281 42.7329 58.7676L42.4653 58.6963L42.1987 58.624C42.1895 58.6216 42.1852 58.6219 42.1831 58.6221C42.1798 58.6224 42.1675 58.6245 42.145 58.6348L41.6118 58.877C41.2609 59.0366 40.8802 59.049 40.5181 58.9033L40.2515 58.7959L39.9849 58.6895C39.8473 58.6341 39.7136 58.5943 39.5835 58.5693L39.3169 58.5186L39.0503 58.4668C38.9224 58.4423 38.7956 58.433 38.6704 58.4365L38.4038 58.4434L38.1372 58.4512C38.0723 58.453 37.9935 58.4693 37.897 58.5166L37.3638 58.7783C37.0731 58.9209 36.7532 58.9845 36.4214 58.9395L35.8882 58.8672C35.6731 58.838 35.459 58.7914 35.2476 58.7285L34.981 58.6494L34.7183 58.5713C34.7146 58.5726 34.7087 58.5756 34.7017 58.5791L34.4351 58.7119L34.1685 58.8457C33.8127 59.0236 33.4188 59.0452 33.0435 58.8887L32.5103 58.666C32.3775 58.6107 32.2495 58.5726 32.1265 58.5508L31.8599 58.5039L31.5933 58.4561C31.4296 58.427 31.2654 58.4037 31.1021 58.3848L30.8354 58.3535L30.5688 58.3232C30.419 58.3059 30.2689 58.2974 30.1196 58.2979H29.853L29.5864 58.2988C29.537 58.299 29.4699 58.3114 29.3804 58.3584L28.8472 58.6377C28.5503 58.7933 28.2187 58.8626 27.8726 58.8076L27.606 58.7656L27.3384 58.7236C27.3176 58.7204 27.2968 58.7208 27.2759 58.7197C27.284 58.8578 27.2923 58.9959 27.2983 59.1338L27.3218 59.667C27.3291 59.8351 27.3397 60.0036 27.354 60.1719L27.3774 60.4385L27.3999 60.7061C27.4245 60.9949 27.3817 61.2781 27.2808 61.5479L27.1821 61.8125L27.0825 62.0781C27.0439 62.1814 27.0274 62.2761 27.0269 62.3652L27.0229 62.8984C27.0217 63.0919 27.0145 63.2853 27.0005 63.4785L26.9614 64.0117C26.9524 64.1366 26.9573 64.2625 26.9761 64.3896L27.0161 64.6562L27.0552 64.9238L27.1753 65.7236L27.2153 65.9912C27.2693 66.349 27.1873 66.6876 27.0161 66.9844L26.8638 67.249L26.7778 67.3975L26.8911 67.5703L27.0688 67.8398C27.1918 68.0268 27.2789 68.2601 27.269 68.5254C27.2591 68.7891 27.1556 69.0133 27.0239 69.1895L26.8267 69.4531L26.729 69.583L26.8091 69.707L26.9839 69.9766C27.1799 70.2796 27.2834 70.6423 27.2085 71.0322L27.1567 71.2979L27.106 71.5635C27.0608 71.7982 26.9871 72.028 26.8872 72.251L26.7681 72.5156L26.6499 72.7812C26.632 72.8213 26.6342 72.8373 26.6382 72.8535L26.769 73.3887C26.8336 73.6523 26.8495 73.9215 26.812 74.1904L26.7749 74.4561L26.7378 74.7227C26.7348 74.7441 26.7336 74.7801 26.7661 74.8467L26.8979 75.1152L27.0288 75.3838C27.1239 75.5783 27.1741 75.801 27.1499 76.0371C27.1259 76.2699 27.0344 76.4725 26.9165 76.6396L26.731 76.9033L26.5444 77.167C26.4833 77.2536 26.4785 77.2996 26.478 77.3125L26.4692 77.5791L26.4595 77.8457C26.4562 77.9387 26.4693 78.0368 26.5024 78.1426L26.5864 78.4102L26.6694 78.6787C26.7645 78.9826 26.7743 79.2976 26.6919 79.6074L26.6206 79.873L26.5503 80.1387C26.5215 80.2472 26.5103 80.3522 26.5151 80.4551L26.5405 80.9883C26.5462 81.1098 26.5667 81.2347 26.603 81.3633L26.6782 81.6309L26.7544 81.8984C26.8448 82.2178 26.8348 82.5445 26.7271 82.8574L26.6353 83.1221L26.5444 83.3877C26.5102 83.4871 26.4879 83.6061 26.4849 83.75L26.4712 84.377C26.4683 84.5118 26.4446 84.9211 26.0757 85.1602C25.6847 85.4135 25.2906 85.2369 25.1636 85.1719L24.897 85.0361L24.6304 84.8994C24.5547 84.8607 24.5062 84.857 24.4741 84.8594L24.2075 84.8789L23.9409 84.8994C23.6848 84.9187 23.43 84.8958 23.1802 84.833L22.647 84.6982C22.5094 84.6637 22.3737 84.6429 22.2397 84.6338L21.9731 84.6152L21.7065 84.5977C21.5566 84.5875 21.4062 84.5862 21.2563 84.5938L20.9897 84.6074L20.7231 84.6201C20.5409 84.6293 20.3585 84.637 20.1763 84.6426L19.9097 84.6504L19.6421 84.6592C19.5482 84.6621 19.4476 84.6814 19.3384 84.7227L18.8052 84.9238C18.4383 85.0624 18.0588 85.0386 17.7134 84.873L17.1802 84.6172C17.0852 84.5716 17.0078 84.5556 16.9438 84.5547L16.8979 84.5537C16.9399 84.667 16.9887 84.7777 17.0454 84.8848L17.1714 85.123L17.2983 85.3623C17.4493 85.647 17.6735 85.869 17.9399 86.0332L18.4595 86.3535C18.5433 86.4052 18.58 86.4517 18.5981 86.4844L18.854 86.9492C18.9233 87.0749 18.9854 87.2077 19.0386 87.3467L19.1353 87.6006L19.2329 87.8545C19.3489 88.1575 19.5458 88.4077 19.8052 88.5957L20.0337 88.7607L20.2622 88.9268C20.2659 88.9295 20.2682 88.9317 20.269 88.9326V88.9316L20.27 88.9336C20.2711 88.9362 20.2728 88.9427 20.2749 88.9521L20.3364 89.2363L20.3989 89.5205C20.455 89.7783 20.5474 90.0229 20.6802 90.248L20.9556 90.7148C21.1366 91.0215 21.4085 91.2331 21.7231 91.3594L22.0044 91.4727L22.2856 91.585C22.3542 91.6124 22.3726 91.638 22.3794 91.6484L22.5239 91.874L22.6694 92.0996C22.7865 92.2817 22.917 92.4539 23.061 92.6143L23.2388 92.8115L23.4165 93.0098C23.5345 93.141 23.6531 93.2726 23.771 93.4043L23.9487 93.6035L24.1265 93.8018C24.256 93.9464 24.3911 94.0866 24.5308 94.2217L24.7222 94.4072L24.9136 94.5918C25.063 94.7362 25.2223 94.8716 25.3892 94.9961L25.603 95.1553L25.8179 95.3154C25.9246 95.395 26.0236 95.4847 26.1138 95.583L26.2944 95.7793L26.4751 95.9766C26.5857 96.0972 26.6942 96.2231 26.7993 96.3525L27.1411 96.7744C27.3151 96.9887 27.5273 97.1624 27.771 97.292L28.0103 97.4199L28.2505 97.5469C28.3016 97.5741 28.3469 97.6136 28.3882 97.6758L28.5435 97.9111L28.6997 98.1465C28.8969 98.4441 29.1803 98.6518 29.522 98.752L29.7944 98.8311L30.0669 98.9111C30.2117 98.9535 30.3455 99.0056 30.4673 99.0654L30.7075 99.1836L30.9487 99.3027C30.9505 99.3035 30.9731 99.3124 31.0054 99.377L31.1431 99.6523L31.2808 99.9287C31.4424 100.252 31.7034 100.515 32.0659 100.648L32.5796 100.838C32.6883 100.878 32.7867 100.931 32.8755 100.997L33.0913 101.157L33.3081 101.317C33.4722 101.439 33.6424 101.552 33.8179 101.655L34.0483 101.791L34.2798 101.927C34.5227 102.07 34.7883 102.156 35.0669 102.191L35.3521 102.227L35.6362 102.263C35.6931 102.27 35.725 102.287 35.7515 102.31L35.9585 102.489L36.1655 102.668C36.3357 102.815 36.5179 102.947 36.7104 103.06L36.9419 103.194L37.1724 103.33C37.3775 103.45 37.5959 103.544 37.8247 103.61L38.3442 103.761C38.5089 103.808 38.6727 103.859 38.8335 103.912L39.3413 104.08C39.4138 104.104 39.4858 104.144 39.5581 104.208L39.769 104.396L39.981 104.583C40.164 104.745 40.3636 104.883 40.5786 104.993L40.8179 105.115L41.0571 105.238C41.2521 105.338 41.4555 105.421 41.6646 105.487L41.9214 105.567L42.1772 105.648C42.3803 105.712 42.5884 105.762 42.7993 105.797L43.0669 105.842L43.3345 105.886C43.4745 105.909 43.6104 105.943 43.7417 105.988L44.2495 106.162C44.365 106.202 44.4788 106.255 44.5894 106.324L44.8228 106.471L45.0562 106.618C45.2802 106.759 45.5235 106.858 45.7817 106.914L46.3091 107.027C46.5549 107.08 46.8062 107.096 47.0591 107.076L47.3413 107.055L47.6245 107.032C47.7326 107.024 47.8263 107.035 47.9097 107.06L48.1655 107.134L48.4224 107.208C48.6065 107.262 48.7923 107.31 48.979 107.353L49.2388 107.412L49.4985 107.471C49.6185 107.498 49.7375 107.54 49.856 107.597L50.104 107.715L50.3511 107.833C50.6563 107.979 50.9848 108.018 51.312 107.96L51.5942 107.909L51.8765 107.859C51.8836 107.858 51.8883 107.858 51.8901 107.857C51.8916 107.858 51.8952 107.861 51.9009 107.864L52.3872 108.167C52.7164 108.372 53.0907 108.427 53.4624 108.333L53.7456 108.262L54.0278 108.19C54.1632 108.156 54.2872 108.141 54.3999 108.142L54.6665 108.144L54.9341 108.146C54.9407 108.146 54.9682 108.145 55.0278 108.188L55.2729 108.37L55.519 108.551C55.8267 108.778 56.2005 108.882 56.5981 108.804L56.8716 108.75L57.146 108.695C57.2714 108.671 57.3905 108.663 57.5034 108.67L57.769 108.688L58.0347 108.704C58.1885 108.714 58.3427 108.731 58.4956 108.756L58.7593 108.799L59.0229 108.841C59.231 108.874 59.4406 108.893 59.6509 108.897L59.9175 108.903L60.1831 108.908C60.2939 108.91 60.4074 108.928 60.5239 108.963L60.7886 109.042L61.0522 109.12C61.2495 109.179 61.4485 109.229 61.6479 109.268L61.9126 109.319L62.1782 109.371C62.3739 109.409 62.5711 109.44 62.769 109.462L63.0376 109.491L63.3052 109.521C63.6422 109.559 63.964 109.485 64.2524 109.333L64.7876 109.05C64.9109 108.985 65.0221 108.947 65.1206 108.929L65.6499 108.829C65.8047 108.8 65.9594 108.779 66.1128 108.765L66.3765 108.739L66.6411 108.715C66.7739 108.702 66.9085 108.702 67.0444 108.714L67.5796 108.761C67.8136 108.781 68.0473 108.774 68.2788 108.738L68.5415 108.697L68.8042 108.657C68.914 108.64 69.0273 108.639 69.145 108.652L69.4155 108.684L69.6851 108.716C69.7992 108.729 69.9245 108.76 70.0601 108.812L70.3394 108.921L70.6187 109.03C70.9531 109.161 71.3145 109.176 71.6655 109.044L71.9243 108.946L72.1821 108.849C72.3308 108.792 72.4795 108.745 72.6274 108.707L72.8882 108.64L73.1479 108.572C73.3318 108.525 73.5153 108.473 73.6968 108.417L73.9546 108.338L74.2114 108.259C74.3161 108.227 74.4234 108.21 74.5347 108.209L75.0757 108.205C75.2324 108.204 75.3925 108.21 75.5542 108.225L75.8296 108.249L76.106 108.273C76.3495 108.295 76.5922 108.286 76.8315 108.244L77.0972 108.198L77.3618 108.151C77.729 108.088 78.0265 107.889 78.2544 107.633L78.6899 107.143C78.7212 107.107 78.7419 107.093 78.7495 107.088H78.7476L79.0112 107.047L79.2749 107.007C79.3504 106.995 79.4446 106.996 79.563 107.023L79.856 107.092L80.1499 107.159C80.5547 107.252 80.9565 107.164 81.2827 106.892L81.5073 106.705L81.7319 106.518C81.8417 106.426 81.9503 106.355 82.0562 106.303L82.2974 106.185L82.5386 106.065C82.556 106.057 82.5859 106.046 82.6528 106.056L83.2407 106.144C83.5485 106.19 83.8598 106.162 84.1558 106.042L84.4038 105.941L84.6519 105.84C84.7495 105.8 84.855 105.775 84.9702 105.765L85.521 105.716C85.8645 105.685 86.1713 105.546 86.4233 105.318L86.6362 105.126L86.8491 104.935C86.864 104.921 86.8738 104.917 86.8774 104.915C86.8805 104.914 86.8885 104.911 86.9048 104.91L87.186 104.896L87.4683 104.881C87.8371 104.862 88.1651 104.712 88.4224 104.453L88.6255 104.248L88.8296 104.043C88.9103 103.962 88.9894 103.908 89.0659 103.873L89.3071 103.763L89.5493 103.652C89.7755 103.549 89.9832 103.412 90.1714 103.247L90.3784 103.064L90.5864 102.882C90.6543 102.822 90.7242 102.784 90.7983 102.76L91.0532 102.678L91.3071 102.595C91.4419 102.551 91.5859 102.517 91.7378 102.491L92.0151 102.444L92.2925 102.398C92.5844 102.35 92.8566 102.237 93.0952 102.058L93.3101 101.896L93.5249 101.734C93.5693 101.701 93.6259 101.674 93.7085 101.661L93.9927 101.616L94.2759 101.57C94.5418 101.528 94.7956 101.444 95.0298 101.312L95.2642 101.181L95.4985 101.05C95.7629 100.902 95.976 100.693 96.1401 100.443L96.4624 99.9531C96.5358 99.8416 96.6139 99.7551 96.6929 99.6885L97.1011 99.3447C97.1258 99.3238 97.1675 99.299 97.2505 99.2861L97.5464 99.2402L97.8413 99.1953C98.1302 99.1509 98.4041 99.0509 98.6489 98.8857L98.8726 98.7354L99.0952 98.585C99.3139 98.4373 99.5022 98.2542 99.6587 98.041L99.9888 97.5918C100.044 97.5169 100.106 97.4621 100.175 97.4209L100.408 97.2832L100.641 97.1455C100.902 96.9914 101.112 96.7789 101.267 96.5215L101.413 96.2793L101.558 96.0381C101.57 96.0176 101.581 96.0068 101.612 95.9951L101.88 95.8955L102.149 95.7949C102.504 95.6623 102.776 95.4091 102.935 95.0664L103.057 94.8057L103.178 94.5439C103.247 94.396 103.321 94.2593 103.401 94.1338L103.692 93.6748C103.692 93.6739 103.694 93.6723 103.694 93.6719L103.696 93.6709C103.698 93.6689 103.712 93.6594 103.743 93.6494L104.321 93.4639C104.62 93.368 104.891 93.2053 105.105 92.9609L105.281 92.7588L105.457 92.5576C105.612 92.3797 105.745 92.1837 105.855 91.9727L105.982 91.7295L106.109 91.4854C106.15 91.4067 106.203 91.3429 106.268 91.2891L106.688 90.9434C106.963 90.7174 107.132 90.4172 107.204 90.082L107.266 89.7939L107.328 89.5059C107.329 89.5001 107.33 89.495 107.331 89.4922L107.562 89.333L107.794 89.1729C108.096 88.9652 108.297 88.6688 108.38 88.3145L108.446 88.0381L108.511 87.7607C108.519 87.7296 108.528 87.7179 108.547 87.7021L108.767 87.5264L108.987 87.3516C109.278 87.1195 109.456 86.8024 109.508 86.4385L109.549 86.1553L109.583 85.9238L109.822 85.7832L110.088 85.626C110.356 85.4681 110.585 85.254 110.744 84.9766L110.792 84.8926L110.568 85.0068L110.301 85.1436C109.966 85.3145 109.59 85.354 109.219 85.2295L108.953 85.1406L108.685 85.0508C108.517 84.9945 108.349 84.9425 108.182 84.8945L107.916 84.8184L107.649 84.7412C107.501 84.699 107.355 84.6683 107.21 84.6475L106.944 84.6084L106.683 84.5703C106.678 84.5718 106.66 84.5782 106.63 84.5977L106.097 84.9414C105.796 85.1355 105.439 85.237 105.054 85.1689L104.788 85.1221L104.521 85.0742C104.284 85.0323 104.053 84.9605 103.828 84.8623L103.561 84.7461L103.302 84.6328L103.045 84.7373L102.779 84.8447C102.663 84.8917 102.363 85.0013 102.042 84.8711C101.612 84.6962 101.534 84.2863 101.53 84.0898L101.525 83.8721L101.521 83.6543C101.521 83.6693 101.524 83.6282 101.458 83.5176L101.303 83.2539L101.148 82.9893C100.97 82.6863 100.887 82.3373 100.954 81.9697L101.002 81.7021L101.05 81.4346C101.091 81.2082 101.156 80.9849 101.243 80.7656L101.348 80.4971L101.454 80.2295C101.48 80.1623 101.482 80.1143 101.475 80.0732L101.43 79.8076L101.385 79.541C101.349 79.3275 101.33 79.1128 101.328 78.8975L101.325 78.6309L101.323 78.3643C101.322 78.252 101.305 78.1368 101.271 78.0186L101.196 77.7539L101.121 77.4883C101.06 77.2762 101.017 77.0616 100.992 76.8457L100.96 76.5791L100.929 76.3135C100.906 76.1152 100.891 75.9157 100.885 75.7168L100.877 75.4502L100.871 75.1836C100.864 74.9367 100.892 74.6919 100.955 74.4512L101.093 73.916C101.105 73.8702 101.104 73.8303 101.088 73.7812L100.915 73.25C100.79 72.869 100.845 72.4895 101.025 72.1572L101.171 71.8877L101.317 71.6191C101.366 71.5288 101.376 71.4656 101.376 71.4229V71.1562L101.375 70.8896C101.375 70.7079 101.378 70.5255 101.38 70.3438L101.388 69.8105C101.39 69.6656 101.383 69.5201 101.365 69.375L101.333 69.1094L101.299 68.8428C101.282 68.6996 101.254 68.5555 101.214 68.4102L101.143 68.1445L101.071 67.8789C101.029 67.7228 100.979 67.5657 100.921 67.4082L100.824 67.1426L100.726 66.8779C100.634 66.6268 100.585 66.3655 100.585 66.0986L100.587 65.5654C100.588 65.2778 100.654 65.0008 100.771 64.7402L100.891 64.4717L101.012 64.2031C101.049 64.1217 101.055 64.0624 101.051 64.0156L101.031 63.749L101.009 63.4824C100.999 63.3489 100.976 63.2138 100.94 63.0771L100.799 62.5459C100.705 62.1899 100.752 61.8374 100.906 61.5195L101.166 60.9824C101.19 60.931 101.185 60.9133 101.183 60.9062L101.126 60.6406L101.069 60.375C101.017 60.1344 101 59.8903 101.016 59.6455L101.034 59.3789L101.051 59.1113C101.058 59.0143 101.059 58.9172 101.058 58.8203L100.875 58.9033C100.43 59.1024 99.9831 59.0111 99.6313 58.7549L99.3647 58.5605L99.2173 58.4531L99.0913 58.5322L98.8247 58.6973C98.5726 58.8535 98.2952 58.9614 97.9966 58.9951L97.4634 59.0557C97.254 59.0793 97.0435 59.0879 96.8335 59.083L96.3003 59.0713C96.1195 59.0671 95.9381 59.0614 95.7573 59.0547L95.4907 59.0449L95.2231 59.0342C95.0001 59.0258 94.7779 58.9965 94.5581 58.9463L94.2915 58.8857L94.0249 58.8242C93.9571 58.8088 93.8923 58.8097 93.8228 58.8271L93.5562 58.8936L93.2896 58.9609C92.9621 59.043 92.633 59.0168 92.3237 58.8955L91.7905 58.6865C91.6398 58.6274 91.4905 58.5792 91.3433 58.542L91.0757 58.4746L90.8091 58.4072C90.6847 58.3759 90.5631 58.3604 90.4438 58.3594L90.1772 58.3564L89.9106 58.3545C89.8144 58.3537 89.713 58.3689 89.605 58.4043L89.3384 58.4922L89.0718 58.5791C88.8332 58.6574 88.588 58.7029 88.3394 58.7109L88.0728 58.7197L87.8062 58.7275C87.5849 58.7347 87.3639 58.7217 87.144 58.6885L86.8765 58.6484L86.6099 58.6074C86.5309 58.5956 86.4512 58.5994 86.3657 58.6221L86.0991 58.6934L85.8325 58.7637C85.466 58.8609 85.1053 58.8049 84.7856 58.6367L84.519 58.4961L84.2798 58.3691L84.0532 58.4629L83.7866 58.5723C83.428 58.7194 83.0491 58.7128 82.6968 58.5576L82.4302 58.4395L82.1636 58.3223C82.0676 58.28 81.9787 58.2385 81.9048 58.1992C81.861 58.176 81.7265 58.1055 81.6206 57.9932L81.5747 57.9453L81.5288 57.8965C81.4761 57.8405 81.3743 57.7169 81.2485 57.5625L80.8462 57.0684C80.7161 56.9086 80.6111 56.7119 80.5728 56.4805C80.5341 56.2467 80.5701 56.0227 80.6509 55.8242L80.7651 55.5439L80.8794 55.2646C80.9092 55.1915 80.9049 55.1536 80.9009 55.1338L80.8472 54.8711L80.7925 54.6084C80.7685 54.4926 80.7291 54.3742 80.6714 54.2529L80.5493 53.9971L80.4282 53.7422C80.2795 53.4296 80.2405 53.0907 80.3159 52.752L80.3765 52.4766L80.4341 52.2217L80.27 51.9707L80.105 51.7197C79.8724 51.3646 79.8246 50.9505 79.9741 50.5508L80.1831 49.9922C80.2252 49.8796 80.2398 49.7849 80.2388 49.7041L80.2358 49.4365L80.2319 49.1689C80.2319 49.1622 80.2323 49.1314 80.1841 49.0664L79.8149 48.5684C79.6229 48.3091 79.4956 48.0066 79.4771 47.6689L79.4478 47.1357C79.4301 46.8119 79.5117 46.5045 79.6528 46.2256L79.7954 45.9424L79.939 45.6592C79.986 45.5663 79.9877 45.5149 79.9858 45.4922L79.9634 45.2256L79.9409 44.96C79.9356 44.8974 79.9148 44.8254 79.8647 44.7393L79.5718 44.2334C79.4288 43.9872 79.334 43.7194 79.3032 43.4346L79.2749 43.1699L79.2466 42.9043C79.2412 42.8548 79.2338 42.8246 79.229 42.8096L79.2349 42.8164L79.1284 42.6641L79.1196 42.6523L78.9458 42.6475L78.689 42.6387L78.6597 42.665Z" fill="#303A4B"/>
</svg>
