<svg width="128" height="128" viewBox="0 0 128 128" fill="none" xmlns="http://www.w3.org/2000/svg">
<path d="M104.975 93.3979L105.185 93.5728C105.491 93.829 105.642 94.1781 105.676 94.5435L105.705 94.8579L105.733 95.1724C105.735 95.186 105.737 95.1962 105.738 95.2026L105.932 95.3696L106.139 95.5474C106.272 95.6621 106.406 95.7751 106.542 95.8862L106.752 96.0591L106.963 96.2319C107.11 96.3529 107.255 96.4764 107.396 96.6021L107.796 96.9595C108.003 97.1447 108.167 97.3666 108.285 97.6177L108.403 97.8696L108.522 98.1216C108.581 98.2467 108.651 98.3602 108.729 98.4634L108.891 98.6792L109.054 98.894C109.111 98.9692 109.179 99.0337 109.263 99.0874L109.494 99.2349L109.725 99.3823C109.85 99.4625 109.983 99.5349 110.123 99.5991L110.378 99.7153L110.633 99.8325C110.86 99.9364 111.069 100.069 111.256 100.23L111.456 100.402L111.655 100.575C111.785 100.686 111.915 100.796 112.047 100.905L112.25 101.073L112.454 101.241C112.633 101.388 112.793 101.557 112.936 101.744L113.103 101.962L113.271 102.18C113.39 102.336 113.507 102.498 113.622 102.667L113.786 102.905L113.948 103.141L114.227 103.197L114.509 103.251C114.724 103.294 114.932 103.348 115.133 103.415L115.389 103.5L115.644 103.584C115.827 103.645 116.007 103.711 116.184 103.782L116.429 103.88L116.673 103.978C116.932 104.082 117.16 104.238 117.359 104.432L117.57 104.637L117.716 104.779L117.926 104.732L118.218 104.667C118.47 104.61 118.724 104.586 118.976 104.603L119.234 104.621L119.493 104.639C119.715 104.655 119.965 104.699 120.188 104.821L120.331 104.9L120.475 104.978C120.718 105.111 120.875 105.342 120.92 105.606C120.957 105.829 120.907 106.03 120.859 106.167L120.771 106.418L120.684 106.669C120.614 106.867 120.532 107.057 120.438 107.239L120.319 107.464L120.202 107.689C120.139 107.81 120.077 107.95 120.017 108.11L119.913 108.383L119.81 108.658C119.703 108.939 119.539 109.189 119.314 109.393L119.109 109.58L118.904 109.765C118.723 109.93 118.522 110.07 118.305 110.183L118.061 110.309L117.817 110.436C117.595 110.551 117.358 110.634 117.111 110.683L116.837 110.738L116.562 110.793C116.527 110.801 116.496 110.815 116.458 110.854L116.256 111.063L116.055 111.272C115.897 111.435 115.694 111.556 115.455 111.606C115.223 111.654 115.001 111.626 114.808 111.567L114.484 111.467L114.303 111.411L114.211 111.529L114.014 111.778C113.769 112.088 113.415 112.3 112.979 112.299L112.7 112.298H112.421C112.239 112.298 112.059 112.3 111.882 112.303L111.609 112.308L111.344 112.312C111.338 112.315 111.328 112.323 111.312 112.337L111.086 112.55L110.859 112.762C110.696 112.915 110.484 113.037 110.228 113.073C109.975 113.108 109.741 113.052 109.548 112.961L109.25 112.823L109.068 112.737L108.942 112.844L108.706 113.045C108.442 113.269 108.118 113.414 107.748 113.419L107.479 113.423L107.209 113.426C107.027 113.429 106.845 113.431 106.664 113.431L106.396 113.432L106.128 113.433C106 113.434 105.873 113.447 105.747 113.475L105.484 113.534L105.222 113.591C105.042 113.631 104.861 113.669 104.681 113.706L104.416 113.759L104.15 113.813C103.915 113.86 103.676 113.877 103.437 113.864L103.168 113.848L102.899 113.833C102.649 113.819 102.402 113.768 102.163 113.682L101.895 113.585L101.626 113.49C101.498 113.444 101.377 113.417 101.262 113.406L100.997 113.378L100.732 113.352C100.622 113.341 100.509 113.346 100.395 113.366L100.128 113.413L99.8613 113.458C99.6585 113.494 99.4543 113.519 99.25 113.532L98.9824 113.548L98.7148 113.566C98.4814 113.581 98.248 113.569 98.0176 113.529L97.4902 113.437C97.2919 113.403 97.0945 113.359 96.8994 113.306L96.6396 113.235L96.3789 113.164C96.3287 113.15 96.274 113.148 96.2031 113.166L95.9277 113.233L95.6533 113.301C95.3627 113.373 95.0647 113.377 94.7715 113.302L94.5107 113.236L94.251 113.169C94.1223 113.137 93.992 113.116 93.8604 113.109L93.3252 113.08C93.0559 113.065 92.796 112.999 92.5508 112.887L92.3008 112.772L92.0498 112.658C91.9804 112.626 91.9136 112.612 91.8418 112.614L91.5693 112.622L91.2979 112.628C91.0689 112.634 90.8409 112.617 90.6172 112.577L90.3555 112.529L90.0928 112.482C89.9817 112.462 89.8623 112.455 89.7334 112.465L89.4521 112.488L89.1719 112.51C88.71 112.547 88.3325 112.333 88.0752 112.017L87.8672 111.762L87.6592 111.506C87.6429 111.486 87.63 111.476 87.623 111.47L87.3799 111.44L87.1143 111.406C86.917 111.381 86.721 111.347 86.5273 111.305L86.0059 111.192C85.7946 111.146 85.5875 111.083 85.3867 111.003L85.1396 110.905L84.8926 110.807C84.8329 110.784 84.7584 110.769 84.6592 110.775L84.3682 110.792L84.0781 110.808C83.656 110.832 83.2824 110.665 83.0127 110.354L82.8164 110.126L82.6191 109.899C82.5413 109.809 82.4692 109.757 82.4062 109.726L82.1689 109.609L81.9316 109.491C81.8165 109.434 81.6949 109.389 81.5674 109.355L81.3076 109.286L81.0479 109.217C80.955 109.193 80.8416 109.179 80.7031 109.186L80.0957 109.217C79.7564 109.234 79.4202 109.156 79.127 108.952L78.9043 108.796L78.6816 108.642C78.5315 108.538 78.3818 108.432 78.2334 108.327L78.0137 108.17L77.7939 108.015C77.7895 108.012 77.7847 108.009 77.7803 108.006C77.9621 107.911 78.1211 107.783 78.2549 107.632L78.6904 107.142C78.7216 107.107 78.7425 107.092 78.75 107.087H78.748L79.0117 107.046L79.2754 107.006C79.3509 106.995 79.4452 106.996 79.5635 107.023L79.8564 107.091L80.1504 107.159C80.5551 107.252 80.9571 107.164 81.2832 106.891L81.5078 106.705L81.7324 106.517C81.8422 106.425 81.9508 106.354 82.0566 106.302L82.2979 106.184L82.5391 106.065C82.5566 106.056 82.5866 106.045 82.6533 106.055L83.2412 106.143C83.5489 106.189 83.8604 106.162 84.1562 106.042L84.4043 105.941L84.6523 105.839C84.7499 105.8 84.8556 105.774 84.9707 105.764L85.5215 105.715C85.8648 105.685 86.1719 105.545 86.4238 105.318L86.6367 105.125L86.8496 104.934C86.8645 104.921 86.8745 104.916 86.8779 104.915C86.8813 104.913 86.8895 104.91 86.9053 104.91L87.1865 104.895L87.4688 104.88C87.8375 104.861 88.1657 104.711 88.4229 104.453L88.626 104.248L88.8301 104.042C88.9107 103.962 88.9899 103.908 89.0664 103.873L89.3076 103.762L89.5498 103.652C89.7758 103.548 89.9838 103.412 90.1719 103.247L90.3789 103.064L90.5869 102.881C90.6548 102.822 90.7247 102.783 90.7988 102.759L91.0537 102.677L91.3076 102.594C91.4423 102.551 91.5864 102.516 91.7383 102.491L92.0156 102.444L92.293 102.398C92.5847 102.349 92.8572 102.236 93.0957 102.057L93.3105 101.895L93.5254 101.734C93.5698 101.701 93.6265 101.674 93.709 101.661L93.9932 101.616L94.2764 101.57C94.5422 101.527 94.7962 101.443 95.0303 101.312L95.2646 101.18L95.499 101.049C95.7632 100.901 95.9766 100.692 96.1406 100.443L96.4629 99.9526C96.5362 99.8412 96.6145 99.7545 96.6934 99.688L97.1016 99.3442C97.1264 99.3234 97.1682 99.2984 97.251 99.2856L97.5469 99.2397L97.8418 99.1948C98.1305 99.1504 98.4047 99.0503 98.6494 98.8853L98.873 98.7349L99.0957 98.5845C99.3142 98.4369 99.5028 98.2535 99.6592 98.0405L99.9893 97.5913C100.044 97.5166 100.106 97.4615 100.176 97.4204L100.408 97.2827L100.642 97.145C100.902 96.9909 101.112 96.7783 101.268 96.521L101.413 96.2788L101.559 96.0376C101.571 96.0173 101.581 96.0063 101.612 95.9946L101.881 95.895L102.149 95.7944C102.504 95.6618 102.776 95.4084 102.936 95.0659L103.058 94.8052L103.179 94.5435C103.247 94.3956 103.322 94.2587 103.401 94.1333L103.692 93.6743C103.693 93.6734 103.694 93.6718 103.694 93.6714L103.696 93.6704C103.7 93.6679 103.713 93.6585 103.743 93.6489L104.321 93.4634C104.486 93.4105 104.642 93.3358 104.785 93.2397L104.975 93.3979ZM64.9746 15.1929C65.3436 15.1785 65.6753 15.3046 65.9502 15.519L66.4307 15.894C66.4567 15.9143 66.4725 15.9215 66.4775 15.9233C66.4805 15.9244 66.4823 15.9244 66.4844 15.9243L66.7539 15.9175L67.0225 15.9116C67.2219 15.907 67.4232 15.9111 67.625 15.9233L67.8984 15.9399L68.1729 15.9565C68.4782 15.9752 68.7655 16.07 69.0215 16.2388L69.248 16.3892L69.4756 16.5386C69.6066 16.625 69.7395 16.7028 69.873 16.772L70.1074 16.894L70.3418 17.0151C70.5237 17.1094 70.7001 17.2141 70.8691 17.3296L71.0869 17.479L71.3047 17.6274C71.384 17.6816 71.4786 17.7278 71.5928 17.7612L72.1357 17.9194C72.3763 17.9899 72.6038 18.0908 72.8154 18.2222L73.0498 18.3677L73.2832 18.5132C73.6091 18.7157 73.8129 19.0219 73.9092 19.3696L73.9912 19.6655L74.0732 19.9624L74.0742 19.9653L74.3086 20.0913L74.5596 20.2261C74.8094 20.3598 75.0271 20.5381 75.2021 20.7622L75.5342 21.188C75.6241 21.303 75.7223 21.4122 75.8291 21.5151L76.0254 21.7036L76.2217 21.8931C76.4928 22.1544 76.6292 22.4885 76.6582 22.8413L76.6836 23.147L76.6992 23.3501L76.8096 23.4019L77.0498 23.5161C77.2119 23.5931 77.3818 23.6752 77.5586 23.7612L78.084 24.0171C78.4758 24.208 78.717 24.5515 78.7861 24.9673L78.8359 25.2681L78.8857 25.5679C78.9006 25.6574 78.9277 25.6986 78.9463 25.7202L79.2939 26.1226C79.3487 26.1858 79.426 26.251 79.5361 26.312L80.0596 26.6011C80.3791 26.7779 80.6013 27.0574 80.6924 27.4048L80.7236 27.5581L80.8076 28.1401C80.8092 28.1513 80.8112 28.1593 80.8125 28.1636C80.8138 28.1676 80.8153 28.1701 80.8154 28.1704L80.8232 28.1782L81.0361 28.3618L81.248 28.5444C81.4817 28.7459 81.6561 28.9977 81.7578 29.2915L81.9355 29.8071C81.9877 29.9579 82.0458 30.1042 82.1104 30.2456L82.333 30.7319C82.3908 30.8586 82.4587 30.9807 82.5371 31.0972L82.8379 31.5425C82.9253 31.6723 83.0193 31.8 83.1211 31.9243L83.4688 32.3481C83.6426 32.5604 83.7708 32.8003 83.8506 33.063L83.9297 33.3208L84.0078 33.5796C84.057 33.7413 84.1099 33.9015 84.166 34.0591L84.2559 34.312L84.3457 34.564C84.3893 34.6863 84.4287 34.8103 84.4688 34.9341L84.4189 34.936L84.1338 34.9409C83.9826 34.9437 83.8392 34.9344 83.7041 34.9136L83.1709 34.8315C83.0349 34.8106 82.9033 34.7775 82.7773 34.7339L82.5264 34.647L82.2764 34.5601C82.1474 34.5154 82.0191 34.4589 81.8926 34.3901L81.4121 34.1284C81.152 33.987 80.8682 33.9125 80.5723 33.9067L80.2988 33.9009L80.0254 33.896C79.9092 33.8937 79.7998 33.8757 79.6963 33.8433L79.4424 33.7632L79.1875 33.6831C79.0973 33.6548 79.0028 33.6083 78.9043 33.5366L78.6709 33.3667L78.4365 33.1968C78.1517 32.9895 77.8172 32.8866 77.459 32.9106L76.9043 32.9478C76.7711 32.9567 76.6446 32.9505 76.5254 32.9312L76.2627 32.8882L76 32.8462C75.7805 32.8105 75.558 32.7956 75.334 32.8013L74.791 32.8149C74.6626 32.8182 74.5382 32.807 74.418 32.7827L73.8965 32.6772C73.7262 32.6428 73.5557 32.6067 73.3857 32.5698L73.126 32.5142L72.8652 32.4575C72.6914 32.4198 72.5168 32.3817 72.3418 32.3442L72.0801 32.2886L71.8174 32.2319C71.6504 32.1962 71.4835 32.1577 71.3174 32.1167L70.7959 31.9878C70.4749 31.9086 70.1531 31.9345 69.8506 32.0415L69.5742 32.1392L69.4189 32.1948L69.2334 32.0269L68.9834 31.8022L68.8496 31.6968C68.7066 31.5977 68.5332 31.5205 68.3311 31.4976C68.1262 31.4745 67.9367 31.5129 67.7725 31.5825L67.6162 31.6616L67.3389 31.8267L67.1377 31.9478L66.9746 31.856L66.7139 31.7104C66.4473 31.5618 66.1533 31.4748 65.8408 31.4741H65.5732L65.3057 31.4731C65.1656 31.4729 65.0235 31.4617 64.8809 31.439L64.6133 31.396L64.3447 31.353L64.2051 31.3374C63.883 31.3182 63.582 31.4129 63.3203 31.5767L63.0537 31.7437L62.7881 31.9097C62.6827 31.9756 62.602 31.9999 62.5449 32.0073L62.2803 32.0415L62.0166 32.0747C61.9004 32.0895 61.7828 32.0895 61.6631 32.0747L61.3955 32.0425L61.1289 32.0093C60.9319 31.9848 60.7334 31.9678 60.5361 31.9595L60.2695 31.9487L60.002 31.937C59.7362 31.9259 59.4743 31.9637 59.2217 32.0474L58.9619 32.1333L58.7031 32.2192C58.5756 32.2615 58.4486 32.29 58.3232 32.3042L58.0596 32.3335L57.7959 32.3638C57.6495 32.3803 57.5015 32.3878 57.3535 32.3862L56.8203 32.3804C56.6698 32.3787 56.5153 32.3691 56.3584 32.3501L56.0859 32.3169L55.8125 32.2837C55.6104 32.2593 55.4082 32.2434 55.207 32.2368L54.666 32.2192C54.3637 32.2094 54.0724 32.2756 53.8037 32.4097L53.5537 32.5347L53.3037 32.6587C53.3 32.6582 53.2928 32.6575 53.2832 32.6548L52.9971 32.5718L52.7109 32.4878C52.4249 32.4045 52.1275 32.3825 51.8301 32.439L51.5664 32.4888L51.3027 32.5396C51.1338 32.5717 50.9634 32.6017 50.793 32.6294L50.2617 32.7153C50.2037 32.7247 50.1467 32.7379 50.0898 32.7515C50.1465 32.7383 50.204 32.7276 50.2617 32.7183L50.793 32.6323C50.9635 32.6047 51.1337 32.5747 51.3027 32.5425L51.5664 32.4917L51.8301 32.4419C52.1276 32.3853 52.4248 32.4073 52.7109 32.4907L52.9971 32.5747L53.2832 32.6577C53.293 32.6606 53.3 32.6611 53.3037 32.6616L53.5537 32.5376L53.8037 32.4126C54.0726 32.2784 54.3636 32.2123 54.666 32.2222L55.207 32.2397C55.4084 32.2463 55.6103 32.2622 55.8125 32.2866L56.0859 32.3198L56.3584 32.353C56.5154 32.372 56.6697 32.3817 56.8203 32.3833L57.3535 32.3892C57.5016 32.3907 57.6494 32.3833 57.7959 32.3667L58.0596 32.3364L58.3232 32.3071C58.4488 32.2929 58.5755 32.2645 58.7031 32.2222L58.9619 32.1362L59.2217 32.0503C59.4744 31.9665 59.736 31.9288 60.002 31.9399L60.2695 31.9517L60.5361 31.9624C60.7336 31.9707 60.9318 31.9878 61.1289 32.0122L61.3955 32.0454L61.6631 32.0776C61.7829 32.0925 61.9003 32.0925 62.0166 32.0776L62.2803 32.0444L62.5449 32.0103C62.6021 32.0029 62.6825 31.9787 62.7881 31.9126L63.0537 31.7466L63.3203 31.5796C63.5821 31.4157 63.8829 31.3211 64.2051 31.3403L64.3447 31.356L64.6133 31.3989L64.8809 31.4419C65.0236 31.4647 65.1654 31.4758 65.3057 31.4761L65.5732 31.4771H65.8408C66.1534 31.4777 66.4472 31.5647 66.7139 31.7134L66.9746 31.8589L67.1377 31.9507L67.3389 31.8296L67.6162 31.6646L67.7725 31.5854C67.9368 31.5157 68.126 31.4774 68.3311 31.5005C68.5333 31.5234 68.7066 31.6006 68.8496 31.6997L68.9834 31.8052L69.2334 32.0298L69.4189 32.1978L69.5742 32.1421L69.8506 32.0444C70.1532 31.9373 70.4748 31.9115 70.7959 31.9907L71.3174 32.1196C71.4836 32.1607 71.6503 32.1991 71.8174 32.2349L72.0801 32.2915L72.3418 32.3472C72.5169 32.3847 72.6913 32.4227 72.8652 32.4604L73.126 32.5171L73.3857 32.5728C73.5558 32.6096 73.7261 32.6457 73.8965 32.6802L74.418 32.7856C74.5383 32.81 74.6625 32.8211 74.791 32.8179L75.334 32.8042C75.5581 32.7985 75.7804 32.8134 76 32.8491L76.2627 32.8911L76.5254 32.9341C76.6447 32.9535 76.771 32.9597 76.9043 32.9507L77.459 32.9136C77.8173 32.8895 78.1517 32.9924 78.4365 33.1997L78.6709 33.3696L78.9043 33.5396C79.0029 33.6113 79.0973 33.6577 79.1875 33.686L79.4424 33.7661L79.6963 33.8462C79.7999 33.8787 79.909 33.8966 80.0254 33.8989L80.2988 33.9038L80.5723 33.9097C80.8683 33.9154 81.1519 33.9899 81.4121 34.1313L81.8926 34.3931C82.0191 34.4619 82.1473 34.5183 82.2764 34.563L82.5264 34.6499L82.7773 34.7368C82.9034 34.7805 83.0348 34.8135 83.1709 34.8345L83.7041 34.9165C83.8394 34.9373 83.9825 34.9466 84.1338 34.9438L84.4189 34.939L84.7031 34.9331C85.0992 34.9258 85.4507 35.081 85.7188 35.3589L85.9238 35.5718L86.1162 35.772L86.3838 35.7651L86.6738 35.7573L86.8301 35.7622C87.1362 35.7888 87.4075 35.9189 87.6221 36.1304L87.7246 36.2427L87.916 36.4761L88.0762 36.6714L88.3154 36.6636L88.6113 36.6528C88.977 36.6405 89.3085 36.7684 89.5635 37.0171L89.668 37.1313L89.8555 37.3599L89.9922 37.5269L90.2402 37.5073L90.5498 37.4819L90.707 37.478C90.8658 37.4831 91.0293 37.5165 91.1875 37.5913C91.3464 37.6665 91.4772 37.7724 91.582 37.894L91.6787 38.02L91.8486 38.2729L92.0176 38.5259C92.0765 38.6135 92.1308 38.6562 92.1729 38.6792L92.4062 38.8062L92.6387 38.9341C92.6864 38.9602 92.7547 38.9828 92.8574 38.9868L93.1553 38.9985L93.4541 39.0103C93.7715 39.0228 94.0713 39.1269 94.3203 39.3325L94.4238 39.4263L94.8145 39.8188C94.914 39.9187 95.0175 40.0047 95.125 40.0776L95.3457 40.2271L95.5654 40.3755C95.671 40.447 95.7852 40.5088 95.9092 40.5601L96.1611 40.6646L96.2881 40.7163L96.2891 40.7173L96.5244 40.9185L96.6631 41.0366L96.792 40.9829C96.9131 41.0726 97.0232 41.1771 97.1201 41.2964L97.2949 41.5112L97.4697 41.7271C97.5153 41.7831 97.5655 41.82 97.626 41.8462L97.876 41.9546L98.127 42.063C98.3478 42.1586 98.5536 42.2803 98.7422 42.4272L98.9521 42.5903L99.1621 42.7544C99.3081 42.8682 99.4528 42.9851 99.5957 43.104L99.8018 43.2749L100.007 43.4458C100.099 43.5223 100.201 43.5886 100.315 43.644L100.562 43.7642L100.809 43.8843C101.162 44.056 101.395 44.3504 101.518 44.6968L101.62 44.9858L101.723 45.2759C101.735 45.3109 101.746 45.3281 101.751 45.3345C101.755 45.3395 101.757 45.3416 101.76 45.3433L101.987 45.4868L102.215 45.6294C102.308 45.6881 102.422 45.7409 102.561 45.7837L102.847 45.8716L103.133 45.9604C103.462 46.0621 103.749 46.2577 103.951 46.5552L104.104 46.7798L104.257 47.0054C104.342 47.1316 104.435 47.2509 104.533 47.3628L104.71 47.5649L104.887 47.7661C105.047 47.9482 105.182 48.1501 105.29 48.3687L105.412 48.6157L105.535 48.8628C105.605 49.0037 105.681 49.1374 105.763 49.2632L106.054 49.7124C106.079 49.7512 106.118 49.7911 106.191 49.8296L106.449 49.9653L106.706 50.1001C107.019 50.2648 107.241 50.5269 107.351 50.853L107.39 50.9966L107.517 51.5669C107.54 51.6711 107.576 51.7447 107.616 51.7993L107.772 52.0122L107.93 52.2261C107.988 52.3058 108.064 52.3827 108.162 52.4546L108.39 52.6216L108.618 52.7896C108.913 53.0063 109.107 53.3098 109.18 53.6685L109.235 53.9468L109.292 54.2251C109.299 54.2612 109.31 54.2778 109.332 54.2974L109.542 54.4829L109.751 54.6694C110.033 54.9203 110.191 55.2521 110.22 55.6206L110.242 55.9106L110.258 56.1167L110.486 56.2485L110.762 56.4087C111.073 56.5891 111.309 56.8717 111.39 57.2407L111.414 57.4048L111.439 57.688L111.464 57.9702C111.473 58.0778 111.499 58.1673 111.536 58.2437L111.653 58.4829C111.544 58.38 111.434 58.2769 111.326 58.1714L110.922 57.7769C110.895 57.751 110.876 57.7421 110.845 57.7378L110.567 57.6997L110.291 57.6626C110.047 57.6295 109.812 57.5665 109.588 57.4722L109.096 57.2651C108.861 57.1664 108.646 57.0312 108.452 56.8647L108.242 56.6851L108.047 56.5171C108.044 56.5172 108.04 56.5177 108.036 56.5181L107.73 56.5425L107.424 56.5659C106.997 56.5997 106.601 56.4425 106.323 56.1001L106.137 55.8706L105.95 55.6401C105.876 55.5484 105.802 55.4886 105.731 55.4487L105.499 55.3159L105.267 55.1841C105.244 55.1714 105.203 55.1554 105.119 55.1597L104.516 55.1909C104.238 55.2052 103.963 55.174 103.7 55.0874L103.445 55.0034L103.189 54.9194C102.881 54.8178 102.624 54.6312 102.422 54.3882L102.233 54.1616L102.045 53.936C101.943 53.8141 101.838 53.707 101.73 53.6147L101.311 53.2554C101.291 53.2386 101.272 53.2281 101.229 53.2251L100.943 53.2056L100.658 53.186C100.322 53.1632 100.011 53.0417 99.75 52.8208L99.54 52.6421L99.3291 52.4634C99.2775 52.4197 99.2245 52.3947 99.1621 52.3813L98.8945 52.3237L98.626 52.2671C98.3605 52.2104 98.1122 52.1059 97.8867 51.9546L97.6621 51.8042L97.4385 51.6528C97.3829 51.6156 97.3147 51.5881 97.2236 51.5747L96.6553 51.4907C96.213 51.4257 95.8827 51.1554 95.7002 50.7759L95.5674 50.4985L95.4336 50.2212C95.392 50.1348 95.3529 50.0998 95.3281 50.0835L95.1055 49.937L94.8818 49.7915C94.7264 49.6895 94.5727 49.5844 94.4209 49.4771L93.9854 49.1685C93.9097 49.115 93.8208 49.0718 93.7139 49.0415L93.4434 48.9653L93.1729 48.8882C92.9521 48.8257 92.7398 48.7443 92.5381 48.644L92.2979 48.5249L92.0566 48.4048C91.8385 48.2964 91.6372 48.1603 91.4561 47.9976L91.0557 47.6382C90.9271 47.5227 90.7972 47.4089 90.666 47.2974L90.2578 46.9497C90.1116 46.8253 89.968 46.6962 89.8281 46.563L89.6318 46.3765L89.4365 46.1899C89.3415 46.0994 89.2396 46.0208 89.1309 45.9536L88.9043 45.813L88.6768 45.6733C88.5887 45.619 88.4868 45.5746 88.3682 45.5435L88.0947 45.4712L87.8203 45.3999C87.5719 45.3346 87.3375 45.2351 87.1221 45.0991L86.6709 44.814C86.5044 44.7088 86.3426 44.5974 86.1865 44.48L85.9756 44.3218L85.8711 44.2427L85.709 44.3071L85.4424 44.4126C85.1939 44.5104 84.9347 44.566 84.6689 44.5737L84.1357 44.5894C83.959 44.5945 83.7822 44.6001 83.6055 44.606L83.0723 44.6235C82.8133 44.6322 82.5575 44.5974 82.3086 44.522L81.7754 44.3599C81.5749 44.2991 81.375 44.2278 81.1768 44.146L80.6436 43.9253C80.638 43.923 80.634 43.922 80.6318 43.9214C80.6305 43.9218 80.6283 43.9225 80.626 43.9233L80.0928 44.1187C79.9173 44.1828 79.741 44.2478 79.5654 44.314L79.0322 44.5151C78.5853 44.6834 78.1548 44.5691 77.8213 44.3188L77.5547 44.1187L77.293 43.9224L77.0898 43.9741L76.8232 44.0415C76.572 44.105 76.3153 44.1278 76.0576 44.1069L75.5244 44.064C75.3575 44.0505 75.1903 44.0405 75.0234 44.0347L74.7568 44.0249L74.4902 44.0161C74.4358 44.0142 74.3688 44.0246 74.2822 44.0649L74.0156 44.189L73.749 44.314C73.5061 44.4272 73.2507 44.5011 72.9863 44.5278L72.7197 44.5552L72.4531 44.5815C72.2353 44.6035 72.017 44.6075 71.7988 44.5923L71.5322 44.5728L71.2656 44.5542C70.9991 44.5355 70.7411 44.4683 70.4951 44.3599L70.2285 44.2417L70.0059 44.1431L69.7754 44.2642L69.5088 44.4028C69.1889 44.5685 68.8294 44.6224 68.4648 44.5249L68.1982 44.4536L67.9307 44.3823C67.8603 44.3635 67.7967 44.3624 67.7305 44.3765L67.4639 44.4331L67.1963 44.4897C66.9219 44.5482 66.6437 44.5491 66.3691 44.4917L65.8359 44.3804C65.7031 44.3526 65.5722 44.3376 65.4424 44.3364L64.9092 44.3325C64.726 44.3309 64.5425 44.3266 64.3594 44.3208L64.0928 44.313L63.8262 44.3042C63.6033 44.2972 63.381 44.2698 63.1611 44.2212L62.8945 44.1616L62.6279 44.103C62.4798 44.0703 62.3328 44.0475 62.1865 44.0347L61.6533 43.9878C61.632 43.9859 61.5915 43.987 61.5195 44.0259L61.2529 44.1704L60.9863 44.314C60.5887 44.5288 60.1493 44.5192 59.7617 44.2974L59.2285 43.9927C59.1999 43.9763 59.185 43.9734 59.1836 43.9731L58.9199 44.0259L58.6533 44.0776C58.5388 44.1003 58.4167 44.1404 58.2881 44.2017L58.0215 44.3296L57.7549 44.4565C57.4583 44.598 57.1328 44.6543 56.7979 44.5981L56.5303 44.5532L56.2637 44.5093C56.0141 44.4674 55.7724 44.3876 55.54 44.2759L55.2734 44.147L55.0742 44.0513L54.8643 44.1694L54.5967 44.3198C54.3461 44.4607 54.0753 44.5558 53.7881 44.5854L53.2549 44.6401C52.9285 44.6739 52.6156 44.606 52.3311 44.4644L51.7979 44.1987C51.6985 44.1493 51.617 44.1307 51.5488 44.1274L51.0156 44.1021C50.8147 44.0926 50.6134 44.0736 50.4131 44.0444L50.1465 44.0054L49.8945 43.9683C49.8932 43.9689 49.8915 43.9703 49.8896 43.9712C49.8814 43.9752 49.8682 43.9822 49.8516 43.9937L49.3184 44.3608C48.9613 44.6064 48.5199 44.6808 48.0879 44.4849L47.5547 44.2427C47.409 44.1766 47.2657 44.1249 47.126 44.0864L46.5928 43.9399C46.5536 43.9292 46.5197 43.9294 46.4736 43.9448L45.9404 44.1226C45.6683 44.2135 45.3852 44.2462 45.0986 44.2124L44.832 44.1802L44.5645 44.1489C44.3545 44.1241 44.1451 44.0852 43.9375 44.0317L43.6709 43.9624L43.4043 43.894C43.3788 43.8875 43.3545 43.8864 43.3105 43.9038L43.0439 44.0093L42.7773 44.1157C42.6654 44.1602 42.5848 44.2111 42.5264 44.2622L42.335 44.4292L42.1445 44.5952C41.8934 44.8148 41.5918 44.9309 41.2803 44.9712L40.6865 45.0474C40.552 45.0648 40.4406 45.0978 40.3477 45.1401L40.1016 45.2524L39.8564 45.3638C39.8539 45.3665 39.8427 45.3804 39.8281 45.4116L39.6973 45.6919L39.5664 45.9731C39.4301 46.2657 39.2238 46.5223 38.9355 46.6997L38.708 46.8403L38.4805 46.98C38.234 47.1315 37.9616 47.2211 37.6768 47.2583L37.3799 47.2964L37.1045 47.3325L36.9629 47.5425L36.8018 47.7798C36.6702 47.9743 36.5226 48.1534 36.3594 48.3149L36.167 48.5063L35.9746 48.6968C35.7424 48.9264 35.4577 49.0717 35.1445 49.1372L34.8613 49.1958L34.5791 49.2554C34.4654 49.2791 34.3738 49.3163 34.2988 49.3628L33.8457 49.644C33.7136 49.726 33.5848 49.8146 33.4609 49.9087L33.248 50.0698L33.0361 50.2319C32.932 50.311 32.8334 50.4021 32.7412 50.5054L32.5576 50.7104L32.375 50.9155C32.2458 51.0603 32.1106 51.2049 31.9707 51.3481L31.7715 51.5513L31.5723 51.7554C31.2635 52.0711 30.8592 52.1792 30.4561 52.1255L30.1416 52.0835L29.874 52.0474L29.7314 52.1997L29.5352 52.4087C29.3186 52.6387 29.0509 52.8051 28.7402 52.8872L28.2168 53.0259C28.1958 53.0315 28.1678 53.0429 28.1279 53.0903L27.9385 53.3149L27.75 53.5396C27.4319 53.9176 26.9822 54.0248 26.5508 53.938L26.2256 53.8726L25.9561 53.8179L25.8291 53.9497L25.6309 54.1538C25.4171 54.3745 25.1569 54.5367 24.8574 54.6226L24.5986 54.6968L24.3389 54.771C24.319 54.7767 24.2897 54.7893 24.248 54.8403L24.0605 55.0698L23.874 55.2993C23.5881 55.6505 23.1805 55.8004 22.75 55.7544L22.4395 55.7212L22.2109 55.6958L22.085 55.8569L21.9004 56.0913C21.6584 56.3986 21.3182 56.5878 20.917 56.6138L20.3447 56.6509C20.2703 56.6558 20.2213 56.6754 20.1816 56.7017L19.957 56.8501L19.7324 56.9995C19.6076 57.0822 19.4847 57.1736 19.3662 57.2749L19.1562 57.4556L18.9463 57.6353C18.6655 57.8752 18.3251 57.9861 17.9688 57.9819L17.6729 57.978L17.4053 57.9751L17.2363 58.1665L17.043 58.3843C16.8372 58.6161 16.576 58.7621 16.2842 58.8169L16.498 58.353C16.5481 58.2446 16.5871 58.1282 16.6123 58.0024L16.7197 57.4653C16.7888 57.1209 16.9686 56.8301 17.2295 56.6079L17.4492 56.4204L17.6699 56.2329C17.6775 56.2264 17.6821 56.2212 17.6846 56.2183C17.6865 56.2159 17.688 56.2141 17.6885 56.2134C17.6889 56.2127 17.6899 56.211 17.6904 56.2095C17.6911 56.2074 17.6924 56.2029 17.6934 56.1968L17.7373 55.9204L17.7822 55.6431C17.8208 55.4036 17.8862 55.172 17.9805 54.9517L18.0869 54.7046L18.1924 54.4575C18.2567 54.3072 18.3168 54.1522 18.373 53.9937L18.4648 53.7339L18.5566 53.4751C18.6686 53.1595 18.8698 52.9006 19.1377 52.7085L19.3701 52.5415L19.6035 52.3745C19.6347 52.3521 19.6448 52.3348 19.6533 52.3071L19.7363 52.0386L19.8193 51.769L19.8682 51.6333C19.9978 51.3263 20.2269 51.0909 20.5215 50.9399L20.7861 50.8042L21.0508 50.6694C21.1102 50.639 21.1268 50.6131 21.1357 50.5962L21.3877 50.1177C21.5157 49.8741 21.6878 49.6625 21.9004 49.4878L22.3184 49.144C22.3209 49.1421 22.3383 49.1306 22.3525 49.0679L22.4199 48.77L22.4863 48.4731L22.5303 48.3188C22.6523 47.9703 22.9081 47.7003 23.2695 47.561L23.5469 47.4546L23.8242 47.3472C23.9411 47.3021 24.0273 47.2488 24.0918 47.1929L24.293 47.0181L24.4932 46.8442C24.6403 46.7165 24.7932 46.594 24.9502 46.4771L25.165 46.3169L25.3789 46.1567C25.3869 46.1508 25.4118 46.1319 25.4355 46.0581L25.623 45.4761C25.7255 45.1577 25.911 44.873 26.1963 44.6675L26.415 44.5103L26.6348 44.353C26.8422 44.2037 27.07 44.0887 27.3145 44.0073L27.8555 43.8276C27.985 43.7845 28.0984 43.7308 28.1973 43.6685L28.4229 43.5259L28.6367 43.3901C28.6415 43.382 28.6532 43.3623 28.6641 43.3247L28.7559 43.0054L28.8486 42.686C28.9109 42.4714 29.0329 42.2457 29.252 42.0786C29.4719 41.9109 29.7232 41.8532 29.9492 41.8521L30.6055 41.8481C30.6398 41.848 30.6592 41.8435 30.668 41.8413L30.8555 41.6724L31.0527 41.4937C31.1588 41.3975 31.2695 41.3062 31.3818 41.2173L31.4805 41.2261L31.5723 41.2339L31.5186 41.1089L31.7275 40.9517L31.9414 40.7915C32.0878 40.6813 32.2355 40.5728 32.3838 40.4663L32.5996 40.311L32.8164 40.1558C32.9595 40.0531 33.1031 39.9495 33.2471 39.8452L33.4648 39.687L33.6816 39.5298C33.8607 39.4001 34.0503 39.2874 34.249 39.1919L34.4893 39.0757L34.7295 38.9604C34.8489 38.903 34.9638 38.8342 35.0732 38.7534L35.29 38.5933L35.5078 38.4321C35.683 38.3028 35.8671 38.1883 36.0596 38.0894L36.2969 37.9673L36.5342 37.8462C36.8032 37.708 37.0942 37.6454 37.3916 37.645H37.6885L37.9844 37.644C38.0838 37.6439 38.1497 37.6247 38.1963 37.6011L38.4316 37.4819L38.668 37.3618C38.8411 37.2741 39.0178 37.1933 39.1973 37.1187L39.4424 37.0161L39.6875 36.9146C39.7063 36.9066 39.7486 36.8831 39.8066 36.8013L39.9883 36.5454L40.1709 36.2886C40.3618 36.0195 40.6184 35.7999 40.9473 35.6831L41.2002 35.5933L41.4531 35.5044C41.6633 35.4298 41.8798 35.3746 42.1016 35.3394L42.3711 35.2964L42.6396 35.2534C42.7185 35.2409 42.7904 35.2135 42.8604 35.1675L43.3213 34.8647C43.5907 34.6876 43.8944 34.597 44.2148 34.5933L44.4951 34.5894L44.7764 34.5864C44.9301 34.5846 45.0773 34.5719 45.2178 34.5493L45.4824 34.5073L45.748 34.4644C45.9339 34.4345 46.1209 34.4078 46.3086 34.3853L46.5762 34.353L46.8438 34.3218C46.9614 34.3076 47.0731 34.2785 47.1797 34.2358L47.4268 34.1372L47.6748 34.0376C47.7838 33.9939 47.8953 33.9334 48.0088 33.853L48.2432 33.687L48.4766 33.521C48.6639 33.3882 48.8597 33.2732 49.0625 33.1763L49.5566 32.9399C49.6585 32.8913 49.7629 32.85 49.8691 32.8149C49.8393 32.8249 49.8088 32.8333 49.7793 32.8442L49.7773 32.8403C49.6176 32.5675 49.5223 32.2609 49.5293 31.9321L49.541 31.3989C49.5457 31.1803 49.5694 30.9621 49.6113 30.7456L49.7148 30.2124C49.7522 30.02 49.8094 29.831 49.8916 29.6558C49.8758 29.6273 49.8609 29.6037 49.8525 29.5845C49.7885 29.4372 49.7651 29.2818 49.7539 29.1694L49.7266 28.8999L49.7002 28.6304C49.6649 28.276 49.7581 27.9442 49.9443 27.6567L50.2646 27.1626C50.3029 27.1036 50.3079 27.0674 50.3076 27.0435L50.3037 26.7759L50.3008 26.5083C50.2973 26.2272 50.3536 25.9542 50.4697 25.6978L50.5791 25.4565L50.6885 25.2144C50.7632 25.0495 50.8391 24.886 50.916 24.7251L51.0293 24.4897L51.1416 24.2554C51.206 24.1207 51.2631 23.9821 51.3135 23.8413L51.4014 23.5952L51.4893 23.3501C51.5575 23.1594 51.6376 22.9729 51.7285 22.7915L51.9629 22.3228C52.0033 22.242 52.0368 22.1392 52.0566 22.0083L52.1016 21.7153L52.1455 21.4214C52.2129 20.9764 52.4864 20.6353 52.8936 20.4624L53.4502 20.2261C53.534 20.1906 53.5701 20.1546 53.5879 20.1304L53.7432 19.9165L53.8994 19.7036C54.0235 19.5335 54.1601 19.3726 54.3076 19.2222L54.4922 19.0327L54.6777 18.8442C54.8751 18.643 55.1098 18.4914 55.3721 18.3911L55.6279 18.2935L55.8828 18.1958C56.0125 18.1463 56.13 18.0885 56.2354 18.0229L56.4551 17.8862L56.6738 17.7495C56.7082 17.7281 56.76 17.6832 56.8184 17.5864L56.9775 17.3228L57.1357 17.0591C57.3293 16.7376 57.6283 16.495 58.0234 16.4106L58.292 16.353L58.5605 16.2964C58.6127 16.2853 58.6667 16.2606 58.7275 16.2075L59.167 15.8228C59.415 15.6055 59.7129 15.4657 60.0469 15.4263L60.5957 15.3618C60.858 15.3309 61.121 15.3446 61.3809 15.3989L61.6631 15.4575L61.9453 15.5171C62.0925 15.5479 62.2293 15.5622 62.3555 15.564L62.6191 15.5679L62.8838 15.5718C62.9756 15.573 63.0724 15.5584 63.1758 15.5239L63.4385 15.436L63.7021 15.3481C63.9397 15.2688 64.1845 15.2232 64.4336 15.2134L64.7041 15.2026L64.9746 15.1929Z" fill="#303A4B"/>
</svg>
