<svg width="128" height="128" viewBox="0 0 128 128" fill="none" xmlns="http://www.w3.org/2000/svg">
<path d="M79.1914 22.0444C100.595 22.0446 117.954 39.3522 118.041 60.7358C117.95 60.712 117.857 60.6945 117.763 60.6851L117.175 60.6265C117.052 60.6142 116.963 60.5867 116.9 60.5552L116.673 60.4409L116.445 60.3257C116.341 60.2735 116.231 60.2039 116.117 60.1138L115.896 59.938L115.673 59.7622C115.465 59.5978 115.235 59.4694 114.985 59.3804L114.722 59.2866L114.458 59.1919C114.101 59.0646 113.735 59.0876 113.398 59.2358L113.129 59.355L112.929 59.4419C114.194 65.6094 114.858 72.4622 115.119 79.2095C115.504 79.2258 115.849 79.086 116.12 78.8276L116.331 78.6265L116.541 78.4253C116.649 78.3225 116.752 78.2436 116.849 78.1851L117.067 78.0522L117.287 77.9194C117.399 77.8516 117.521 77.7912 117.651 77.7388L117.899 77.6392L118.044 77.5806V105.955H84.3701L84.4043 105.941L84.6523 105.839C84.7499 105.8 84.8556 105.774 84.9707 105.764L85.5215 105.715C85.8647 105.685 86.172 105.545 86.4238 105.318L86.6367 105.125L86.8496 104.934C86.8643 104.921 86.8743 104.916 86.8779 104.915C86.8812 104.913 86.8895 104.91 86.9053 104.91L87.1865 104.895L87.4688 104.88C87.8374 104.861 88.1658 104.711 88.4229 104.453L88.626 104.248L88.8301 104.042C88.9106 103.962 88.9899 103.908 89.0664 103.873L89.3076 103.762L89.5498 103.652C89.7757 103.548 89.9839 103.412 90.1719 103.247L90.3789 103.064L90.5869 102.881C90.5905 102.878 90.595 102.876 90.5986 102.873L94.9326 77.5103C97.2031 47.3944 80.7622 36.091 69.6162 32.1235L69.5742 32.1392L69.4189 32.1948L69.2334 32.0269L69.168 31.9683C68.7253 31.8165 68.292 31.6757 67.8691 31.5464C67.8362 31.5572 67.8037 31.5693 67.7725 31.5825L67.6162 31.6616L67.3389 31.8267L67.1377 31.9478L66.9746 31.856L66.7139 31.7104C66.4473 31.5618 66.1533 31.4748 65.8408 31.4741H65.5732L65.3057 31.4731C65.1656 31.4729 65.0235 31.4617 64.8809 31.439L64.6133 31.396L64.3447 31.353L64.2051 31.3374C63.883 31.3182 63.582 31.4129 63.3203 31.5767L63.0537 31.7437L62.7881 31.9097C62.6828 31.9755 62.602 31.9999 62.5449 32.0073L62.2803 32.0415L62.0166 32.0747C61.9004 32.0895 61.7827 32.0895 61.6631 32.0747L61.3955 32.0425L61.1289 32.0093C60.9319 31.9848 60.7334 31.9678 60.5361 31.9595L60.2695 31.9487L60.002 31.937C59.7362 31.9259 59.4743 31.9636 59.2217 32.0474L58.9619 32.1333L58.7031 32.2192C58.5757 32.2615 58.4486 32.29 58.3232 32.3042L58.0596 32.3335L57.9531 32.3452C46.8282 36.5046 31.0146 47.9373 33.2441 77.5103L37.6963 103.567C37.7391 103.582 37.7816 103.597 37.8252 103.61L38.3447 103.76C38.5095 103.808 38.6731 103.858 38.834 103.912L39.3418 104.08C39.4143 104.104 39.4862 104.143 39.5586 104.208L39.7695 104.395L39.9814 104.583C40.1646 104.745 40.364 104.883 40.5791 104.993L40.8184 105.115L41.0576 105.238C41.2527 105.338 41.456 105.421 41.665 105.487L41.9219 105.567L42.1777 105.648C42.3808 105.712 42.5889 105.761 42.7998 105.796L43.0674 105.841L43.335 105.885C43.436 105.902 43.5343 105.926 43.6309 105.955H9.95508V78.272C10.0073 78.305 10.0608 78.3369 10.1172 78.3647L10.3672 78.4888L10.6182 78.6128C10.7955 78.7003 10.9753 78.7835 11.1562 78.8618L11.4111 78.9722L11.667 79.0825C11.8702 79.1705 12.0794 79.2429 12.2939 79.2993L12.5645 79.3706L12.834 79.4419C12.9043 79.4604 12.9756 79.4736 13.0469 79.4858C13.3051 72.5172 13.9913 65.4242 15.3232 59.0796C15.0571 59.0408 14.7907 59.0838 14.542 59.1997L14.2705 59.3267L14 59.4526C13.9658 59.4685 13.9486 59.4683 13.9219 59.4614L13.6377 59.3892L13.3535 59.3159L13.1914 59.2847C12.8703 59.2435 12.5636 59.3272 12.3076 59.5181L12.1846 59.6226L11.9658 59.8296L11.751 60.0337L11.1416 60.0024C10.6983 59.9798 10.2986 60.1681 10.0449 60.5483L9.95703 60.6782C10.0748 39.321 27.4237 22.0445 48.8086 22.0444H79.1914Z" fill="#303A4B"/>
<path d="M35.3551 54.4055L35.4217 53.8833C35.4464 53.6853 35.4776 53.4883 35.5162 53.2944L35.5717 53.0278L35.6217 52.7611C35.664 52.5492 35.7207 52.3413 35.794 52.1389L35.8884 51.8889L35.9773 51.6333C36.0395 51.4614 36.1068 51.288 36.1717 51.1167L36.3606 50.6167C36.4615 50.3504 36.6156 50.1117 36.8162 49.9111L37.0162 49.7167L37.2162 49.5167C37.3475 49.3853 37.4759 49.2527 37.6051 49.1222L37.7995 48.9222L37.9773 48.7444V48.7333L37.9662 48.1111C37.9584 47.754 38.0578 47.4001 38.3106 47.1111L38.494 46.9055L38.6717 46.7055C38.7374 46.6305 38.7893 46.5454 38.8273 46.45L39.0273 45.9389C39.1525 45.6238 39.3699 45.3743 39.6495 45.1944L39.894 45.0389L40.1329 44.8778L40.1995 44.5944L40.2606 44.3055C40.3098 44.0908 40.4182 43.8888 40.5884 43.7222C40.7558 43.5588 40.9545 43.4596 41.1495 43.4055L41.4662 43.3167L41.7884 43.2278L41.794 43.2222L41.894 43.0278L42.0106 42.7833C42.1351 42.5275 42.3112 42.3013 42.5329 42.1222L42.744 41.9555L42.9495 41.7889C43.0859 41.6787 43.2218 41.5665 43.3551 41.4555L43.5606 41.2833L43.7662 41.1167C43.7956 41.0922 43.8268 41.0503 43.8551 40.9722L43.9551 40.6944L44.0551 40.4222C44.1752 40.0901 44.3965 39.812 44.7162 39.6333L45.194 39.3667C45.217 39.3538 45.2416 39.3337 45.2662 39.2833L45.394 39.0167L45.5162 38.7555C45.688 38.3993 45.9862 38.1493 46.3662 38.0389L46.644 37.9611L46.9273 37.8778C47.0159 37.8518 47.0741 37.8162 47.1162 37.7778L47.3106 37.5944L47.5106 37.4167C47.6402 37.2974 47.7697 37.1764 47.8995 37.0555L48.2884 36.6889C48.4395 36.5482 48.5997 36.416 48.7662 36.2944L48.9829 36.1389L49.1995 35.9778C49.3874 35.8408 49.5907 35.7252 49.8051 35.6333L50.3051 35.4222C50.4508 35.3597 50.591 35.2902 50.7273 35.2167L50.9606 35.0889L51.194 34.9667C51.3567 34.8789 51.5229 34.7928 51.6884 34.7111L51.9273 34.5944L52.1662 34.4722C52.3183 34.3971 52.4723 34.3239 52.6217 34.2444L52.8551 34.1167L53.0884 33.9944C53.1637 33.9543 53.2402 33.896 53.3162 33.8111L53.5051 33.5944L53.6995 33.3778C53.9069 33.146 54.1642 32.9718 54.4662 32.8778L54.7273 32.8L54.9829 32.7222C55.0787 32.6924 55.1696 32.6456 55.2551 32.5833L55.6995 32.2611C55.9023 32.1131 56.1247 31.9941 56.3606 31.9111L56.6106 31.8222L56.8662 31.7333C57.0936 31.6534 57.3301 31.6034 57.5717 31.5833L57.844 31.5611L58.1217 31.5389C58.2907 31.5248 58.4554 31.5055 58.6162 31.4833L58.8829 31.4444L59.144 31.4111C59.3512 31.3825 59.5595 31.3659 59.7662 31.3667H60.0273L60.2884 31.3722C60.375 31.3724 60.4794 31.3565 60.5995 31.3167L60.8717 31.2222L61.1495 31.1333C61.4785 31.0242 61.8234 31.0211 62.1551 31.1389L62.4217 31.2333L62.6106 31.3L62.7662 31.2L62.9884 31.05C63.182 30.9203 63.3935 30.8113 63.6162 30.7222L63.8884 30.6167L64.1551 30.5055C64.4859 30.3731 64.8162 30.3961 65.1051 30.5278L65.3829 30.6944L65.6329 30.8944L65.8829 31.0889C65.9021 31.1039 65.9187 31.1119 65.9273 31.1167L66.1384 31.1L66.3884 31.0833C66.6287 31.0654 66.8731 31.0835 67.1162 31.1333L67.3995 31.1944L67.6884 31.25C67.8252 31.278 67.8937 31.2751 67.9106 31.2722L68.1051 31.2389L68.3051 31.2055C68.5239 31.1681 68.7482 31.172 68.9662 31.2055L69.194 31.2389L69.4273 31.2722C69.7529 31.3227 70.0269 31.4896 70.2495 31.6889L70.4773 31.8889L70.7051 32.0944C70.8028 32.1819 70.8882 32.2331 70.9606 32.2611L71.2051 32.3555L71.4551 32.45C71.5391 32.4823 71.6388 32.5017 71.7551 32.5055L72.3217 32.5278C72.5855 32.5366 72.8433 32.5837 73.0884 32.6778L73.3384 32.7722L73.5884 32.8722C73.7943 32.9513 73.994 33.0468 74.1829 33.1611L74.6384 33.4389C74.781 33.5252 74.9257 33.6102 75.0717 33.6889L75.3106 33.8111L75.544 33.9389C75.6531 33.9976 75.7713 34.047 75.8995 34.0833L76.1662 34.1555L76.4329 34.2333L76.694 34.3389C76.9389 34.4656 77.133 34.6577 77.2717 34.8944L77.4273 35.1555L77.5773 35.4222C77.64 35.5292 77.7084 35.5942 77.7662 35.6389L77.9717 35.8L78.1829 35.9667C78.3181 36.0713 78.457 36.1711 78.594 36.2722L78.8051 36.4333L79.0162 36.5889C79.0989 36.6499 79.1946 36.6995 79.3051 36.7389L79.5662 36.8333L79.8273 36.9222C79.9644 36.971 80.1136 37.0126 80.2773 37.0444L80.5717 37.1055L80.8662 37.1611C81.0803 37.2029 81.2919 37.3 81.4662 37.4667C81.551 37.5481 81.6178 37.6391 81.6717 37.7333L81.794 38.0278L81.8884 38.3389L81.9773 38.65L82.0051 38.7167L82.4495 39.0167C82.5914 39.112 82.7363 39.2066 82.8829 39.3L83.3384 39.5889C83.5506 39.7241 83.738 39.8911 83.8995 40.0833L84.244 40.4944C84.3208 40.5859 84.4111 40.6663 84.5106 40.7389L84.7273 40.9L84.9495 41.0555C85.1268 41.1848 85.2913 41.3325 85.444 41.4889L85.6329 41.6778L85.8162 41.8722C85.9965 42.0569 86.143 42.2667 86.2551 42.5L86.3773 42.75L86.494 42.9944C86.5388 43.0878 86.5941 43.1679 86.6606 43.2333L86.8551 43.4222L87.044 43.6055C87.2269 43.7852 87.3778 43.9934 87.494 44.2222L87.6162 44.4611L87.7384 44.7055C87.7458 44.7198 87.7632 44.7417 87.8217 44.7722L88.3551 45.05C88.6161 45.1858 88.8224 45.3902 88.9495 45.65L89.0495 45.9333L89.1829 46.4889C89.2219 46.6523 89.2652 46.8107 89.3162 46.9611L89.4051 47.2167L89.494 47.4778C89.5405 47.6151 89.5971 47.742 89.6606 47.8611L89.9051 48.3278C89.9291 48.3727 89.9731 48.425 90.0551 48.4833L90.2995 48.6555L90.5384 48.8278C90.7539 48.9803 90.9474 49.1595 91.1051 49.3667L91.2717 49.5833L91.4329 49.8C91.6212 50.0473 91.7385 50.3328 91.7773 50.6389L91.8106 50.9167L91.844 51.2C91.8537 51.2758 91.8797 51.3351 91.9162 51.3889L92.2273 51.8444C92.3595 52.0377 92.4704 52.2447 92.5551 52.4611L92.6495 52.7055L92.7495 52.9555C92.8524 53.2185 92.892 53.4967 92.8829 53.7778L92.8773 54.0667L92.8662 54.3555C92.862 54.4837 92.8735 54.5953 92.8995 54.6889L92.9717 54.9389L93.044 55.1944C93.0601 55.2522 93.0903 55.3196 93.1551 55.3944L93.3495 55.6167L93.5384 55.8333C93.7969 56.1311 93.9097 56.5013 93.8606 56.8944L93.8273 57.1833L93.7884 57.4667C93.7794 57.5386 93.7941 57.5853 93.8106 57.6222L93.9162 57.8667L94.0273 58.1167C94.1166 58.3163 94.1897 58.5231 94.244 58.7333L94.3773 59.2444C94.3996 59.331 94.439 59.4239 94.5051 59.5222L94.8273 60C95.0375 60.3125 95.1126 60.6779 95.044 61.05L94.994 61.3278L94.944 61.6111C94.9324 61.6738 94.9397 61.7158 94.9551 61.7555L95.1551 62.2667C95.233 62.465 95.294 62.6677 95.344 62.8722L95.4106 63.1333L95.4717 63.3944C95.5272 63.622 95.554 63.8538 95.5551 64.0889L95.5606 64.3611V64.6333C95.5615 64.8444 95.5479 65.0569 95.5217 65.2667L95.4884 65.5333L95.4551 65.8055C95.4533 65.8205 95.4495 65.8448 95.4773 65.8944L95.6273 66.15L95.7717 66.4111C95.9458 66.7201 96.013 67.0723 95.9384 67.4333L95.8829 67.7L95.8273 67.9722C95.788 68.1624 95.7435 68.3532 95.694 68.5444L95.6217 68.8167L95.5551 69.0555L95.5606 69.0667L95.8829 69.5889C96.1231 69.977 96.1376 70.4243 95.9217 70.8278L95.7773 71.0944L95.6551 71.3222L95.7551 71.5389L95.8773 71.8055C96.0189 72.1122 96.0652 72.447 95.9884 72.7889L95.9329 73.0555L95.8717 73.3222C95.8245 73.5309 95.76 73.739 95.6829 73.9444L95.5829 74.2111L95.5051 74.4055L95.6662 74.6555L95.8384 74.9278C95.9552 75.1131 96.0377 75.3452 96.0273 75.6055C96.0164 75.865 95.9146 76.086 95.7829 76.2611L95.5884 76.5222L95.394 76.7778C95.3218 76.8738 95.3034 76.9343 95.2995 76.9611L95.2662 77.2167L95.2273 77.4722C95.2229 77.5029 95.2218 77.5646 95.2606 77.6667L95.4829 78.2444C95.6061 78.5685 95.6303 78.9222 95.5106 79.2722L95.4273 79.5278L95.3384 79.7833C95.3115 79.8619 95.2987 79.9443 95.3051 80.0333L95.3273 80.3055L95.344 80.5778C95.3733 80.9854 95.218 81.3408 94.9662 81.6167L94.7551 81.85L94.6551 81.9555L94.7329 82.1167L94.8829 82.4111C94.9826 82.6103 95.0425 82.8553 94.9995 83.1222C94.9561 83.3897 94.8202 83.6032 94.6606 83.7611L94.4273 83.9889L94.1606 84.2555V84.5055L94.1551 84.7722C94.1525 84.8748 94.1645 84.9896 94.1995 85.1167L94.2773 85.4055L94.3551 85.6889C94.4693 86.103 94.3812 86.5087 94.1217 86.8389L93.9329 87.0778L93.7495 87.3167H93.744L93.7773 87.5722L93.8162 87.85C93.8601 88.1778 93.8054 88.4998 93.6551 88.7944L93.5273 89.0444L93.4106 89.2889L93.4051 89.2833L93.3995 89.2889H93.4106L93.4995 89.5722L93.594 89.8611C93.7161 90.2453 93.6681 90.6413 93.444 90.9889L93.1329 91.4778L93.194 91.7444L93.2606 92.0278C93.3274 92.3304 93.315 92.6393 93.2162 92.9389L93.1329 93.1944L93.0495 93.4555C93.0086 93.5796 92.9806 93.7061 92.9662 93.8333L92.9329 94.0944L92.9051 94.3611C92.8784 94.5965 92.8215 94.8271 92.7384 95.05L92.5495 95.5611C92.4953 95.7067 92.4486 95.8527 92.4106 96L92.344 96.2611L92.2773 96.5167C92.2499 96.623 92.2352 96.7351 92.2384 96.85L92.2495 97.1222L92.2551 97.3944C92.265 97.7318 92.1691 98.0474 91.9884 98.3222L91.6662 98.8111C91.6228 98.8774 91.6082 98.9284 91.6051 98.9722L91.5884 99.2444L91.5717 99.5111C91.5658 99.6064 91.5738 99.7128 91.6051 99.8333L91.6773 100.117L91.7551 100.4C91.8257 100.671 91.8447 100.95 91.8051 101.228L91.7662 101.494L91.7273 101.756C91.6877 102.032 91.5945 102.294 91.4384 102.528L91.294 102.739L91.1551 102.95C91.0705 103.077 90.9803 103.219 90.8884 103.378L90.744 103.633L90.594 103.889C90.3771 104.262 90.0219 104.477 89.6051 104.522L89.2995 104.556L89.0551 104.578L88.9495 104.772L88.8051 105.022C88.7785 105.069 88.7412 105.107 88.7106 105.15L88.7551 105.172L89.0217 105.294C89.0903 105.326 89.137 105.327 89.1717 105.322L89.7051 105.256C89.8268 105.24 89.9531 105.213 90.0829 105.167L90.3495 105.067L90.6162 104.972C90.9246 104.861 91.251 104.839 91.5717 104.922L91.8384 104.994L92.1051 105.061C92.2955 105.11 92.4875 105.167 92.6773 105.228L92.944 105.311L93.2106 105.4C93.2232 105.404 93.2305 105.406 93.2329 105.406C93.2366 105.405 93.2484 105.401 93.2662 105.394L93.7995 105.183C94.1369 105.051 94.4962 105.047 94.8384 105.172L95.1051 105.267L95.3717 105.367C95.4539 105.396 95.524 105.406 95.5884 105.4L96.1217 105.344C96.3339 105.324 96.5481 105.323 96.7606 105.333L97.0273 105.344L97.294 105.361C97.4286 105.368 97.5639 105.362 97.6995 105.344L97.9662 105.306L98.2329 105.272C98.4695 105.241 98.7072 105.238 98.944 105.267L99.4773 105.333C99.6804 105.358 99.8867 105.398 100.088 105.444L100.622 105.567C100.64 105.571 100.66 105.569 100.705 105.55L101.238 105.317C101.46 105.22 101.69 105.152 101.922 105.106L102.455 104.994C102.692 104.948 102.932 104.935 103.172 104.95L103.705 104.983C103.959 105 104.21 105.058 104.45 105.15L104.716 105.25L104.983 105.356C105.015 105.368 105.033 105.368 105.055 105.361L105.322 105.278L105.588 105.2C105.835 105.126 106.087 105.087 106.344 105.094L106.611 105.106L106.877 105.111C107.012 105.115 107.152 105.109 107.288 105.089L107.555 105.044L107.822 105.006C108.068 104.969 108.315 104.969 108.561 105.006L109.094 105.083C109.209 105.1 109.324 105.102 109.438 105.089L109.972 105.022C110.146 105.001 110.325 104.984 110.5 104.961L110.766 104.922L111.033 104.889C111.343 104.848 111.649 104.893 111.933 105.011L112.466 105.233C112.507 105.25 112.529 105.249 112.55 105.244L113.083 105.111C113.337 105.047 113.6 105.025 113.861 105.05L114.127 105.072L114.394 105.1C114.546 105.115 114.698 105.119 114.85 105.117H115.116L115.383 105.111C115.653 105.108 115.918 105.157 116.172 105.25L116.438 105.35L116.677 105.433L116.927 105.3L117.194 105.161C117.258 105.127 117.297 105.103 117.316 105.089L117.377 104.994L117.383 104.983L117.338 104.744L117.283 104.478C117.216 104.143 117.262 103.813 117.4 103.511L117.644 102.978C117.675 102.909 117.676 102.864 117.672 102.828L117.605 102.294C117.592 102.192 117.564 102.08 117.511 101.961L117.277 101.428C117.118 101.069 117.116 100.683 117.272 100.322L117.383 100.056L117.483 99.8167L117.372 99.5833L117.244 99.3167C117.081 98.9776 117.055 98.6033 117.183 98.2389L117.277 97.9722L117.366 97.7055C117.402 97.6044 117.418 97.5084 117.416 97.4222L117.405 96.8889C117.401 96.7037 117.397 96.5185 117.4 96.3333L117.405 96.0667V95.8C117.406 95.7283 117.395 95.6448 117.355 95.55L117.238 95.2833L117.127 95.0167C116.999 94.7123 116.966 94.3852 117.038 94.0555L117.094 93.7889L117.155 93.5222C117.193 93.3529 117.23 93.1802 117.261 93.0111L117.305 92.7444L117.355 92.4778C117.382 92.3325 117.399 92.1882 117.405 92.0444L117.427 91.5111C117.436 91.3182 117.451 91.1204 117.472 90.9278L117.5 90.6611L117.533 90.3944C117.543 90.2964 117.533 90.1967 117.511 90.0944L117.455 89.8278L117.394 89.5611C117.35 89.3634 117.314 89.1653 117.288 88.9667L117.222 88.4333C117.181 88.116 117.234 87.8028 117.361 87.5167L117.594 86.9833C117.636 86.8883 117.649 86.8088 117.65 86.7389L117.655 86.4722V86.2055L117.594 86.0722L117.416 85.8055L117.233 85.5389C117.02 85.2251 116.919 84.8415 117.022 84.4333L117.155 83.9C117.199 83.724 117.245 83.5482 117.288 83.3722L117.35 83.1055L117.416 82.8389C117.453 82.6885 117.481 82.5375 117.5 82.3889L117.566 81.8555C117.572 81.8105 117.568 81.7549 117.538 81.6833L117.316 81.15C117.223 80.9281 117.153 80.698 117.111 80.4667L117.011 79.9333C116.962 79.6643 117.001 79.4108 117.094 79.1833L116.977 79.2555L116.75 79.3778C116.594 79.462 116.428 79.549 116.255 79.6389L115.744 79.9055C115.601 79.98 115.229 80.1348 114.85 79.9055C114.497 79.6919 114.436 79.3192 114.422 79.1722L114.366 78.5611C114.345 78.3395 114.333 78.125 114.333 77.9222L114.327 77.6555V77.3889C114.327 77.1702 114.345 76.9513 114.383 76.7333L114.433 76.4611L114.477 76.1944C114.503 76.0464 114.517 75.8952 114.522 75.75L114.533 75.4833L114.538 75.2167C114.539 75.1933 114.536 75.151 114.494 75.0833L114.183 74.5722C113.971 74.2272 113.914 73.8259 114.05 73.4333L114.15 73.1611L114.244 72.8889C114.278 72.7905 114.288 72.7054 114.283 72.6333L114.238 72.1C114.234 72.0443 114.217 71.9736 114.166 71.8889L114.016 71.6333L113.861 71.3833C113.628 70.9952 113.629 70.5607 113.816 70.1722L113.955 69.8889L114.088 69.6055C114.124 69.5321 114.123 69.4993 114.122 69.4889L114.077 69.2222L114.033 68.9611C114.012 68.8364 113.977 68.7092 113.927 68.5833L113.827 68.3278L113.727 68.0667C113.644 67.8568 113.581 67.6405 113.538 67.4222L113.483 67.1611L113.433 66.9C113.408 66.774 113.369 66.6486 113.316 66.5222L113.105 66.0111C112.999 65.7578 112.945 65.4916 112.944 65.2167V64.95L112.938 64.6778C112.938 64.4463 112.968 64.2147 113.016 63.9833L113.072 63.7055L113.133 63.4222C113.161 63.2866 113.173 63.1571 113.172 63.0333L113.161 62.4889C113.16 62.4482 113.153 62.4031 113.116 62.3444L112.961 62.1L112.811 61.8555C112.622 61.5544 112.544 61.2116 112.594 60.8555L112.633 60.5778L112.672 60.2944C112.686 60.1933 112.675 60.1192 112.661 60.0667L112.527 59.5889C112.463 59.359 112.466 59.0665 112.644 58.8C112.804 58.5615 113.038 58.4466 113.211 58.3889L113.505 58.2889L113.8 58.1944L114.144 58.1333C114.265 58.1301 114.394 58.1453 114.522 58.1889C114.645 58.2315 114.752 58.294 114.844 58.3667L115.083 58.6167L115.272 58.8778L115.466 59.1389C115.542 59.2426 115.594 59.2759 115.611 59.2833L115.838 59.3833L116.072 59.4889C116.154 59.5262 116.25 59.5582 116.366 59.5722L116.644 59.6055L116.916 59.6389C117.082 59.6589 117.259 59.6852 117.444 59.7222C117.425 59.5548 117.423 59.3864 117.45 59.2167L117.488 58.9444L117.533 58.6778C117.547 58.5891 117.542 58.5025 117.522 58.4167L117.4 57.8833C117.377 57.7888 117.332 57.6902 117.266 57.5833L117.111 57.3278L116.955 57.0778C116.782 56.7984 116.691 56.479 116.711 56.1389L116.722 55.8722L116.738 55.6055C116.745 55.4949 116.735 55.387 116.711 55.2833L116.65 55.0222L116.588 54.7667C116.509 54.4331 116.551 54.0983 116.666 53.7944L116.777 53.5055L116.888 53.2111L116.9 53.1555L116.722 52.6444C116.646 52.4289 116.592 52.2038 116.561 51.9778L116.522 51.7111L116.488 51.4444C116.486 51.4294 116.477 51.397 116.427 51.3444L116.222 51.1278L116.016 50.9055C115.713 50.5823 115.602 50.1648 115.7 49.7389L115.772 49.4389L115.816 49.2278L115.672 49.0889L115.455 48.8778C115.163 48.5937 115.02 48.2183 115.055 47.8055L115.077 47.5111L115.1 47.2667L114.922 47.0944L114.705 46.8944C114.45 46.653 114.281 46.3426 114.238 45.9833L114.211 45.7055L114.177 45.4278C114.163 45.3113 114.131 45.2075 114.088 45.1111L113.983 44.8667L113.877 44.6167C113.855 44.5666 113.815 44.5134 113.744 44.4555L113.516 44.2722L113.288 44.0833C112.982 43.8332 112.804 43.4891 112.783 43.0944L112.772 42.8L112.755 42.55L112.555 42.4055L112.322 42.2278C112.046 42.0243 111.844 41.7495 111.75 41.4111L111.605 40.8778C111.566 40.7389 111.514 40.6084 111.455 40.4833L111.338 40.2389L111.227 39.9944C111.205 39.948 111.171 39.9042 111.111 39.8611L110.877 39.6944L110.65 39.5333C110.317 39.2959 110.131 38.947 110.088 38.5611L110.055 38.2555L110.022 37.9555C110.018 37.9237 110.013 37.9054 110.011 37.9L110.005 37.8944L109.616 37.5167C109.482 37.3877 109.346 37.2581 109.216 37.1278L109.027 36.9389L108.838 36.7444C108.698 36.6039 108.566 36.4566 108.438 36.3055L108.266 36.1055L108.094 35.9C107.939 35.7156 107.805 35.5089 107.7 35.2889L107.583 35.0389L107.461 34.7889C107.458 34.7874 107.453 34.7815 107.444 34.7778L107.172 34.6722L106.894 34.5611C106.636 34.4583 106.4 34.3142 106.2 34.1222L106.011 33.9389L105.816 33.7555C105.606 33.5538 105.454 33.3077 105.35 33.0389L105.238 32.7611L105.183 32.6167L104.961 32.5944L104.633 32.5667C104.275 32.5327 103.917 32.3915 103.655 32.0833L103.483 31.8778L103.305 31.6722C103.153 31.4925 103.023 31.2926 102.911 31.0778L102.777 30.8167L102.644 30.5611C102.587 30.4517 102.52 30.3629 102.45 30.2944L102.061 29.9167C101.97 29.8292 101.868 29.7526 101.761 29.6889L101.533 29.55L101.3 29.4167C101.179 29.3449 101.051 29.2805 100.916 29.2278L100.405 29.0278C100.272 28.9756 100.131 28.9316 99.9829 28.9L99.7051 28.8444L99.4273 28.7833C99.1397 28.7217 98.8744 28.5985 98.644 28.4111L98.4384 28.2444L98.2273 28.0722C98.0996 27.9684 97.9663 27.8687 97.8329 27.7722L97.6162 27.6167L97.3995 27.4555C97.289 27.3758 97.1708 27.3086 97.0495 27.25L96.5717 27.0167C96.3922 26.9298 96.2152 26.837 96.044 26.7333L95.5884 26.4555C95.4057 26.3448 95.2287 26.216 95.0606 26.0778L94.844 25.9055L94.6329 25.7278C94.5626 25.67 94.4885 25.6337 94.4106 25.6111L94.1551 25.5333L93.894 25.4611C93.7864 25.4299 93.6673 25.4124 93.5384 25.4111L92.9717 25.4C92.7393 25.3976 92.5103 25.3739 92.2884 25.3278L92.0217 25.2778L91.7606 25.2222C91.5093 25.1696 91.2708 25.0754 91.0495 24.9444L90.5829 24.6667C90.4157 24.5677 90.2479 24.4658 90.0829 24.3555L89.8495 24.2L89.6217 24.0444C89.5979 24.0285 89.5772 24.0201 89.544 24.0222L89.2662 24.0444L88.9829 24.0611C88.6615 24.0811 88.3484 24.0085 88.0662 23.85L87.5884 23.5833V23.5889L87.2995 23.6667L87.0162 23.7444C86.7257 23.8226 86.4214 23.8373 86.1217 23.7667L85.8606 23.7055L85.6051 23.6444C85.2897 23.5697 85.0164 23.4012 84.7884 23.1889L84.5551 22.9722L84.4384 22.8611L84.3106 22.9333L84.0217 23.0722C83.7345 23.2152 83.4145 23.2933 83.0773 23.2555L82.8106 23.2278L82.5495 23.2C82.2272 23.1635 81.9388 23.0299 81.6884 22.8444L81.4329 22.6555L81.2273 22.5055L81.0495 22.5722L80.7773 22.6722C80.5114 22.7709 80.2341 22.8172 79.9495 22.8L79.6829 22.7889L79.4162 22.7722C79.3148 22.7661 79.1881 22.7537 79.0717 22.7222C79.0662 22.7207 79.0617 22.713 79.0551 22.7111C78.7267 22.8841 78.3846 22.8507 78.1384 22.7833L77.8717 22.7111L77.6106 22.6389C77.6071 22.6404 77.6048 22.6471 77.5995 22.65L77.0662 22.9389C76.743 23.1144 76.3732 23.1767 75.9995 23.0722L75.7329 22.9944L75.4662 22.9222C75.3738 22.8965 75.2889 22.8906 75.2051 22.9L74.6717 22.9555C74.5075 22.9739 74.3419 22.9998 74.1773 23.0278L73.644 23.1167C73.3911 23.1596 73.1363 23.1616 72.8829 23.1222L72.6162 23.0833L72.3495 23.0389C72.1386 23.0061 71.9295 22.9575 71.7217 22.8944L71.4551 22.8167L71.1884 22.7333C71.0802 22.7005 70.9756 22.6864 70.8773 22.6889L70.6106 22.6944L70.344 22.7055C70.1987 22.7092 70.0516 22.7207 69.9051 22.7444L69.6384 22.7889L69.3717 22.8278C69.1541 22.863 68.9354 22.8805 68.7162 22.8778H68.4495L68.1829 22.8722C67.8961 22.8685 67.6195 22.8024 67.3606 22.6833L67.094 22.5611L66.8273 22.4333C66.7461 22.3963 66.6834 22.3921 66.6329 22.3944L66.3662 22.4055L66.0995 22.4222C66.0203 22.4265 65.9259 22.4463 65.8217 22.4944L65.2884 22.7389C64.9674 22.8867 64.6167 22.9263 64.2662 22.8278L63.9995 22.75L63.7329 22.6778C63.6444 22.6529 63.5628 22.6452 63.4829 22.6555L63.2162 22.6889L62.9495 22.7278C62.726 22.7566 62.5016 22.7603 62.2773 22.7444L62.0106 22.7278L61.744 22.7055C61.6712 22.7003 61.5896 22.7119 61.4995 22.7444L61.2329 22.8389L60.9662 22.9389C60.5777 23.0785 60.185 23.0253 59.844 22.8333L59.3106 22.5333C59.2215 22.4831 59.1577 22.4727 59.1162 22.4722L58.8495 22.4667H58.5829C58.4846 22.4657 58.3806 22.4767 58.2717 22.5111L58.0051 22.5944L57.7384 22.6833C57.4874 22.7625 57.2285 22.7987 56.9662 22.7889L56.4329 22.7667C56.3419 22.7632 56.2467 22.7783 56.144 22.8111L55.6106 22.9778C55.236 23.0977 54.8593 23.0531 54.5273 22.8778L54.2606 22.7333L53.994 22.5944C53.9865 22.5905 53.9809 22.5847 53.9773 22.5833L53.7217 22.6611L53.4551 22.7389C53.2219 22.8062 52.9844 22.8444 52.744 22.85L52.2106 22.8611C51.9165 22.8677 51.6313 22.8032 51.3662 22.6833L51.0995 22.5611L50.8329 22.4444C50.8222 22.4396 50.8147 22.4344 50.8106 22.4333H50.794L50.5273 22.5167L50.2606 22.5944C49.9508 22.6866 49.6316 22.6866 49.3217 22.5944L49.0551 22.5167L48.7884 22.4333C48.714 22.4113 48.645 22.4103 48.5773 22.4222L48.3106 22.4667L48.044 22.5167C47.9386 22.5351 47.8262 22.5695 47.7106 22.6278L47.1884 22.8944C46.8756 23.0519 46.5272 23.1015 46.1773 23.0222L45.9106 22.9611L45.6384 22.9C45.6128 22.8942 45.5957 22.8919 45.5662 22.9055L45.3106 23.0278L45.0551 23.1444C44.8158 23.255 44.5613 23.3268 44.2995 23.35L43.7773 23.3944C43.6342 23.4071 43.4899 23.4294 43.3495 23.4611L43.0884 23.5222L42.8273 23.5778C42.5546 23.6393 42.2788 23.6401 42.0051 23.5889L41.7273 23.5389L41.444 23.4889C41.3104 23.4639 41.1824 23.455 41.0606 23.4611L40.794 23.4722L40.5217 23.4833C40.4937 23.4847 40.4601 23.496 40.4106 23.5333L40.1773 23.7055L39.9495 23.8833C39.6977 24.0731 39.4037 24.1928 39.0829 24.2222L38.8162 24.2444L38.544 24.2722C38.4332 24.2826 38.3273 24.3045 38.2273 24.3444L37.9829 24.4444L37.7329 24.5444C37.5487 24.618 37.3614 24.6822 37.1717 24.7389L36.6606 24.8944C36.5195 24.9366 36.3789 24.9851 36.244 25.0444L36.0051 25.15L35.7606 25.2611C35.4961 25.3774 35.2138 25.4276 34.9273 25.4222L34.3495 25.4111C34.3404 25.411 34.335 25.4108 34.3329 25.4111L34.3273 25.4167L33.9051 25.7833C33.7582 25.9104 33.6081 26.0304 33.4606 26.15L33.0384 26.4944C32.7557 26.7236 32.4151 26.8268 32.0662 26.8222L31.7717 26.8167H31.4717C31.3274 26.8148 31.1966 26.8279 31.0773 26.8555L30.8051 26.9167L30.5329 26.9833C30.514 26.9879 30.4965 26.992 30.4717 27.0222L30.2884 27.25L30.1106 27.4722C29.8809 27.7546 29.57 27.9336 29.2106 27.9944L28.644 28.0944H28.6217C28.6207 28.0953 28.6152 28.1 28.6106 28.1055L28.4329 28.3278L28.2551 28.5444C28.1369 28.6894 28.0206 28.8346 27.9051 28.9778L27.7273 29.1944L27.5551 29.4111C27.3043 29.7218 26.9556 29.8816 26.5829 29.9167L26.2773 29.9444L26.0217 29.9722L25.9162 30.1555L25.7662 30.4055C25.6566 30.5906 25.5393 30.7661 25.4162 30.9333L25.094 31.3778C24.8491 31.7104 24.4933 31.8733 24.1217 31.9167L23.7995 31.9555L23.5773 31.9778L23.5106 32.1444L23.3995 32.4167C23.2946 32.6701 23.1483 32.9014 22.9606 33.1L22.7829 33.2944L22.5995 33.4889C22.4391 33.6585 22.2572 33.8046 22.0606 33.9333L21.6051 34.2333C21.5642 34.2604 21.5315 34.296 21.5051 34.35L21.2606 34.85C21.1523 35.0711 21.0173 35.2737 20.8551 35.4555L20.6773 35.6555L20.5051 35.85C20.2746 36.1084 19.9749 36.2626 19.6606 36.3444L19.0273 36.5111C18.991 36.5208 18.9683 36.5233 18.9606 36.5278L18.9662 36.5333L18.8106 36.75L18.6551 36.9722C18.6253 37.0149 18.5971 37.0828 18.5829 37.1889L18.5384 37.4889L18.4995 37.7944C18.4386 38.2474 18.1692 38.6027 17.7551 38.7833L17.4662 38.9055L17.1829 39.0278C17.0974 39.0651 17.0618 39.1033 17.044 39.1278L16.7329 39.5722C16.6973 39.623 16.67 39.6892 16.6551 39.7833L16.6051 40.0722L16.5606 40.3611C16.525 40.5851 16.4768 40.8025 16.4106 41.0111L16.3273 41.2722L16.244 41.5278C16.172 41.7543 16.0732 41.9713 15.9495 42.1722L15.8106 42.4L15.6717 42.6222C15.5189 42.8704 15.3112 43.0721 15.0717 43.2333L14.8217 43.4055L14.6717 43.5L14.694 43.7055L14.7273 44.0167C14.7626 44.3632 14.6968 44.7185 14.4829 45.0278L14.3273 45.25L14.1773 45.4722C14.1174 45.5588 14.0736 45.6519 14.044 45.75L13.9662 46L13.8884 46.2555C13.7876 46.5894 13.5823 46.8593 13.3217 47.0611L13.0773 47.25L12.9273 47.3611L12.9662 47.5444L13.0217 47.85C13.1058 48.2943 12.9663 48.7177 12.6273 49.0222L12.1717 49.4333C12.1467 49.4559 12.134 49.4701 12.1329 49.4722L12.0662 50.0055C12.0306 50.2731 11.9458 50.5299 11.8162 50.7667L11.6829 51.0111L11.5495 51.25C11.5046 51.3319 11.4757 51.4147 11.4662 51.5L11.4384 51.7667L11.4106 52.0389C11.3923 52.2031 11.3796 52.3678 11.3717 52.5333L11.3551 52.8055L11.344 53.0778C11.33 53.3662 11.2509 53.6403 11.1162 53.8944L10.9829 54.1444L10.8551 54.3944C10.8185 54.4638 10.8009 54.5253 10.7995 54.5889L10.7884 55.1333C10.7869 55.2224 10.8039 55.3232 10.844 55.4389L10.944 55.7222L11.0384 56.0055C11.1403 56.2989 11.1753 56.609 11.1106 56.9222L10.9995 57.4444C10.9525 57.6702 10.8781 57.8952 10.7829 58.1111L10.6717 58.3667L10.5551 58.6278C10.5516 58.6356 10.5502 58.6419 10.5495 58.6444V58.65C10.5498 58.6521 10.5527 58.6589 10.5551 58.6667L10.6329 58.9333L10.7162 59.2055C10.7221 59.2249 10.7217 59.2472 10.7273 59.2667C10.8658 59.2262 11.0027 59.2088 11.1329 59.2167L11.6773 59.25C11.7589 59.255 11.8079 59.2412 11.8384 59.2278L12.0606 59.1278L12.2829 59.0333C12.5098 58.9327 12.7508 58.8766 12.9995 58.8667L13.4662 58.8444C13.4873 58.8436 13.5383 58.8368 13.6217 58.7889L13.8662 58.65L14.1106 58.5055C14.2524 58.4239 14.4558 58.3417 14.694 58.3444C14.9607 58.3478 15.1956 58.4609 15.3662 58.6444L15.5051 58.7889L15.6384 58.9333C15.9996 59.3237 15.9241 59.8037 15.7829 60.1111L15.6662 60.3611L15.5551 60.6111C15.5452 60.6326 15.5398 60.6531 15.5495 60.7L15.6606 61.2667C15.7167 61.5392 15.7261 61.8151 15.6717 62.0889L15.6162 62.35L15.5662 62.6111C15.532 62.7823 15.4983 62.9561 15.4662 63.1278L15.3662 63.65C15.3113 63.9439 15.1859 64.2132 15.0106 64.45L14.8329 64.6889L14.6551 64.9333C14.6186 64.9827 14.616 65.0043 14.6162 65.0111L14.6273 65.5555C14.6298 65.6884 14.6427 65.8256 14.6717 65.9667L14.7329 66.2444L14.7884 66.5222C14.8336 66.7402 14.8658 66.9604 14.8773 67.1778L14.8884 67.4444L14.9051 67.7167C14.9188 67.9787 14.8872 68.2378 14.8106 68.4889L14.7273 68.75L14.6495 69.0055C14.5859 69.214 14.5073 69.4212 14.4106 69.6222L14.2884 69.8778L14.1773 70.0944L14.2884 70.3667L14.4051 70.6444C14.5117 70.9005 14.5754 71.1685 14.5829 71.4444L14.5884 71.7111L14.5995 71.9778C14.6078 72.2853 14.5329 72.5813 14.394 72.85L14.2606 73.1055L14.1273 73.3667C14.0874 73.4441 14.0722 73.5058 14.0717 73.5611V74.1C14.0707 74.3504 14.0301 74.5989 13.9551 74.8389L13.7884 75.3611C13.7516 75.4791 13.7332 75.5958 13.7273 75.7111L13.7162 75.9778L13.6995 76.2444C13.6927 76.3807 13.699 76.5219 13.7162 76.6611L13.7829 77.1944C13.7997 77.3307 13.828 77.4743 13.8717 77.6167L13.9551 77.8833L14.0384 78.1555C14.1335 78.4649 14.1559 78.9044 13.8329 79.2611L13.6995 79.4055L13.5662 79.5555C13.3042 79.8447 12.9534 79.9377 12.6551 79.95L12.0884 79.9722C11.7572 79.9852 11.4406 79.8977 11.1606 79.7111L10.9329 79.5611L10.7106 79.4111C10.7132 79.4457 10.7084 79.4812 10.7162 79.5167L10.7717 79.7833L10.8329 80.05C10.9088 80.396 10.8584 80.7363 10.7106 81.0444L10.4551 81.5778C10.4345 81.6206 10.4368 81.6325 10.4384 81.6389L10.5051 81.9055L10.5662 82.1722C10.6105 82.3588 10.6516 82.5465 10.6884 82.7333L10.7384 83L10.794 83.2667C10.8446 83.5241 10.8502 83.7851 10.8106 84.0444L10.7717 84.3111L10.7273 84.5778C10.7084 84.7025 10.7069 84.8267 10.7162 84.95L10.7329 85.2167L10.7551 85.4833C10.7672 85.6436 10.7866 85.806 10.8106 85.9667L10.8884 86.5C10.9403 86.8498 10.8665 87.1828 10.7051 87.4778L10.5551 87.7444L10.4106 88.0111C10.3736 88.0786 10.3758 88.1127 10.3773 88.1278L10.4329 88.6611C10.4425 88.7524 10.4691 88.8541 10.5217 88.9667L10.6495 89.2333L10.7717 89.5C10.9561 89.8928 10.932 90.3142 10.7273 90.6833L10.5829 90.95L10.4329 91.2167C10.3889 91.2964 10.3819 91.3466 10.3829 91.3778L10.394 91.6444L10.3995 91.9111C10.4066 92.1164 10.4053 92.3227 10.3884 92.5278L10.344 93.0611C10.3416 93.0895 10.3445 93.1371 10.3829 93.2111L10.6606 93.7444C10.8445 94.1003 10.8699 94.4983 10.7106 94.8778L10.594 95.1444L10.4829 95.4111C10.4787 95.421 10.4782 95.4296 10.4773 95.4333V95.45L10.5662 95.7167L10.6495 95.9833C10.724 96.215 10.7684 96.4545 10.7829 96.6944L10.8162 97.2278C10.8306 97.4681 10.8146 97.7076 10.7662 97.9444L10.6551 98.4778C10.6456 98.5238 10.6502 98.5725 10.6717 98.6333L10.7662 98.9L10.8551 99.1667C10.9452 99.4216 10.9906 99.6855 10.9829 99.9555L10.9773 100.222L10.9662 100.489C10.9603 100.688 10.9454 100.89 10.9217 101.089L10.894 101.356L10.8606 101.622C10.8369 101.821 10.8026 102.019 10.7606 102.217L10.6495 102.75C10.6426 102.783 10.6399 102.819 10.6606 102.872L10.7717 103.139L10.8773 103.406C10.9948 103.702 11.0271 104.021 10.9662 104.339L10.8662 104.872C10.8644 104.882 10.8623 104.891 10.8606 104.9C11.0741 104.866 11.2894 104.858 11.5051 104.889L12.0384 104.967C12.1807 104.987 12.325 104.996 12.4662 104.994H12.7329L12.9995 104.989C13.1513 104.987 13.3029 104.978 13.4551 104.961L13.9884 104.906C14.2825 104.873 14.5743 104.91 14.8495 105.011L15.1162 105.111L15.3829 105.206C15.4599 105.234 15.5248 105.241 15.5829 105.233L16.1162 105.167C16.2763 105.146 16.4388 105.121 16.5995 105.089L16.8662 105.033L17.1329 104.983C17.3927 104.931 17.6547 104.924 17.9162 104.967L18.1829 105.011L18.4495 105.05C18.648 105.082 18.8467 105.127 19.044 105.178L19.5773 105.311C19.6595 105.332 19.7391 105.336 19.8162 105.322L20.3495 105.233C20.5421 105.2 20.7343 105.17 20.9273 105.15L21.4606 105.094C21.6607 105.074 21.8658 105.063 22.0662 105.061L22.3329 105.056H22.5995C22.8434 105.054 23.0847 105.086 23.3217 105.15L23.8551 105.294C23.9461 105.319 24.0328 105.327 24.1162 105.317L24.6495 105.25C24.7925 105.232 24.9371 105.201 25.0829 105.161L25.6162 105.017C25.9244 104.932 26.2392 104.935 26.544 105.028L27.0773 105.194C27.1458 105.215 27.2067 105.217 27.2662 105.206L27.5329 105.15L27.7995 105.1C28.0992 105.041 28.3995 105.057 28.6884 105.15L28.9551 105.239L29.2217 105.322C29.2616 105.335 29.2895 105.334 29.3273 105.322L29.594 105.244L29.8606 105.161C30.1098 105.085 30.3678 105.047 30.6273 105.056L31.1606 105.078C31.417 105.086 31.6677 105.134 31.9106 105.222L32.1773 105.317L32.444 105.417C32.4741 105.428 32.4911 105.425 32.5162 105.417L32.7829 105.328L33.0495 105.244C33.2538 105.178 33.4592 105.124 33.6662 105.083L33.9329 105.028L34.1995 104.978C34.4643 104.926 34.7343 104.923 34.9995 104.972L35.5329 105.072C35.7753 105.117 36.0106 105.198 36.2384 105.306L36.5051 105.433L36.7717 105.556C36.8183 105.578 36.8389 105.575 36.8495 105.572L37.3829 105.45C37.5605 105.41 37.7385 105.372 37.9162 105.333L38.1829 105.272L38.4495 105.217C38.7294 105.156 39.0147 105.159 39.294 105.222L39.494 105.267C39.4035 105.169 39.322 105.064 39.2495 104.95L39.0829 104.694L38.9217 104.439C38.8772 104.369 38.8368 104.345 38.8106 104.333L38.5662 104.217L38.3162 104.106C38.1526 104.031 38.0224 103.967 37.9217 103.922L37.7662 103.856L37.6106 103.783C37.2049 103.601 37.0516 103.222 36.994 102.956L36.8829 102.433C36.8672 102.361 36.8302 102.28 36.7662 102.189L36.5995 101.95L36.4273 101.706C36.2613 101.468 36.1488 101.2 36.0995 100.911L36.0551 100.65L36.0051 100.389C35.9622 100.137 35.9628 99.8818 35.9995 99.6278L36.0384 99.35L36.0829 99.0722C36.0948 98.99 36.0866 98.9191 36.0662 98.8555L35.8995 98.3444C35.8041 98.0474 35.7966 97.7393 35.8606 97.4389L35.9217 97.1611L35.9773 96.8778C36.0016 96.7634 36.0055 96.6633 35.994 96.5722L35.9606 96.3055L35.9273 96.0444C35.9162 95.9566 35.8874 95.866 35.8384 95.7722L35.5829 95.2722C35.4751 95.0667 35.3857 94.8524 35.3217 94.6333L35.2495 94.3778L35.1717 94.1222C35.097 93.8662 35.068 93.5994 35.0884 93.3333L35.1329 92.7889C35.1463 92.6131 35.158 92.4358 35.1662 92.2611L35.1884 91.7167C35.1953 91.5697 35.192 91.4243 35.1773 91.2833L35.1217 90.75C35.1183 90.7214 35.1066 90.6775 35.0551 90.6111L34.6884 90.1333C34.5202 89.9166 34.3884 89.6755 34.3051 89.4167L34.1384 88.9055C34.0268 88.5584 34.0555 88.2089 34.1773 87.8889L34.3995 87.3111L34.4106 87.2722L34.2217 86.7611C34.1393 86.5427 34.0803 86.319 34.0495 86.0889L34.0106 85.8222L33.9773 85.5611C33.9476 85.3381 33.9406 85.1101 33.9551 84.8833L33.9717 84.6055L33.9829 84.35L33.9773 84.3389L33.7717 84.1055L33.5606 83.8722C33.3584 83.6428 33.2045 83.3726 33.1329 83.0667L33.0773 82.8055L33.0162 82.5444C32.9565 82.2884 32.9406 82.0282 32.9717 81.7667L33.0384 81.2111C33.0436 81.1677 33.0368 81.1351 33.0162 81.0944L32.8884 80.8444L32.7662 80.5944C32.6253 80.3171 32.5624 80.0174 32.5829 79.7055L32.5995 79.4278L32.6162 79.1555C32.6205 79.0888 32.6104 79.029 32.5829 78.9667L32.4717 78.7167L32.3606 78.4611C32.2298 78.1646 32.19 77.8497 32.2384 77.5333L32.3273 76.9667C32.3533 76.7966 32.3719 76.6304 32.3829 76.4722L32.4162 75.9389C32.4225 75.8473 32.4165 75.7535 32.3884 75.6611L32.3051 75.4L32.2273 75.1389C32.1482 74.8785 32.1203 74.61 32.144 74.3389L32.1662 74.0667L32.1884 73.8C32.2024 73.6397 32.2108 73.4778 32.2106 73.3222V72.7944C32.2104 72.5994 32.2175 72.4017 32.2329 72.2055L32.2551 71.9333L32.2773 71.6667C32.2938 71.4562 32.3214 71.2465 32.3662 71.0389L32.4273 70.7722L32.4829 70.5055C32.4855 70.4926 32.4895 70.4675 32.4662 70.4167L32.3384 70.15L32.2162 69.8778C32.0429 69.4992 32.0556 69.0924 32.2495 68.7222L32.3829 68.4555L32.5217 68.1944L32.444 67.9333L32.3551 67.6611C32.2478 67.3137 32.2723 66.9574 32.4217 66.6278L32.544 66.3667L32.6606 66.1055C32.7015 66.0154 32.715 65.9373 32.7162 65.8667L32.7273 65.3333C32.73 65.1413 32.7396 64.9488 32.7551 64.7555L32.7773 64.4889L32.794 64.2167C32.8121 63.9921 32.8544 63.7717 32.9162 63.5555L32.9884 63.3L33.0662 63.0389C33.0801 62.9891 33.0838 62.9266 33.0662 62.8444L33.0051 62.5611L32.944 62.2833C32.8495 61.843 32.99 61.4376 33.2773 61.1333L33.494 60.9055L33.7106 60.6722C33.7884 60.5901 33.8177 60.5309 33.8273 60.4944L33.9606 59.9833C34.0007 59.8317 34.0342 59.675 34.0606 59.5222L34.1051 59.2667L34.1495 59.0055C34.1631 58.9269 34.1668 58.8305 34.144 58.7111L34.0884 58.4222L34.0329 58.1278C33.9838 57.8721 33.9675 57.6158 33.994 57.3611L34.0217 57.0944L34.0495 56.8222C34.0713 56.6127 34.1065 56.4052 34.1551 56.2L34.2162 55.9333L34.2829 55.6722C34.3672 55.3161 34.5752 55.0296 34.844 54.8167L35.0884 54.6222L35.3384 54.4278C35.3547 54.4149 35.3584 54.4028 35.3606 54.4L35.3551 54.4055ZM78.6829 21.2944L79.0051 21.1611C79.0641 21.1485 79.2833 21.104 79.5162 21.2278C79.5863 21.2654 79.6406 21.3182 79.6884 21.3667H79.7662L80.0329 21.3833C80.1041 21.3876 80.1867 21.3746 80.2829 21.3389L80.8273 21.1389L81.1495 21.0667C81.3612 21.0468 81.5659 21.0833 81.7551 21.1667L82.0273 21.3222L82.2773 21.5111L82.5329 21.7C82.6227 21.7666 82.6828 21.7802 82.7106 21.7833L82.9717 21.8167L83.2329 21.8444C83.2454 21.8459 83.2938 21.8471 83.3884 21.8L83.6773 21.6555L83.9606 21.5167C84.158 21.4184 84.3967 21.3566 84.6551 21.3944C84.7851 21.4137 84.9052 21.456 85.0106 21.5111L85.2884 21.7111L85.5217 21.9278L85.7606 22.15C85.8476 22.2308 85.9051 22.2545 85.9329 22.2611L86.1884 22.3222L86.4495 22.3833C86.4922 22.3931 86.5534 22.3965 86.644 22.3722L87.2217 22.2167C87.4878 22.1454 87.7605 22.1445 88.0217 22.2278L88.2829 22.3389L88.5217 22.4778L88.7662 22.6111C88.8053 22.6329 88.8417 22.6421 88.894 22.6389L89.1773 22.6222L89.4551 22.6055C89.7966 22.584 90.125 22.6702 90.4106 22.8611L90.644 23.0167L90.8717 23.1722C91.0156 23.2683 91.1611 23.3592 91.3051 23.4444L91.544 23.5833L91.7773 23.7222C91.8664 23.7746 91.9596 23.8079 92.0551 23.8278L92.5773 23.9389C92.7024 23.9649 92.8373 23.9761 92.9829 23.9778L93.2717 23.9833L93.5551 23.9889C93.8056 23.9915 94.0505 24.0254 94.2884 24.0944L94.5495 24.1667L94.8106 24.2444C95.0779 24.3224 95.3237 24.4511 95.5384 24.6278L95.7495 24.8055L95.9662 24.9833C96.0826 25.0789 96.2003 25.1653 96.3217 25.2389L96.5551 25.3778L96.7829 25.5167C96.9158 25.5971 97.0551 25.6717 97.194 25.7389L97.4329 25.85L97.6717 25.9667C97.8688 26.062 98.0549 26.177 98.2329 26.3055L98.6662 26.6167C98.8219 26.7292 98.9783 26.8511 99.1273 26.9722L99.5384 27.3055C99.5845 27.343 99.646 27.3771 99.7273 27.3944L100.005 27.45L100.277 27.5111C100.498 27.5582 100.715 27.6192 100.922 27.7L101.433 27.9C101.639 27.9806 101.839 28.0822 102.027 28.1944L102.261 28.3278L102.488 28.4667C102.691 28.587 102.88 28.7305 103.05 28.8944L103.438 29.2722C103.627 29.4547 103.783 29.6654 103.905 29.9L104.038 30.1611L104.172 30.4167C104.239 30.5463 104.315 30.6573 104.394 30.75L104.566 30.9555L104.716 31.1389C104.723 31.1411 104.739 31.1474 104.766 31.15L105.094 31.1778L105.427 31.2111C105.631 31.2305 105.849 31.2903 106.044 31.4278C106.143 31.4976 106.225 31.5818 106.294 31.6722L106.461 31.9667L106.672 32.5222C106.71 32.6206 106.755 32.6849 106.8 32.7278L106.994 32.9111L107.183 33.0944C107.238 33.147 107.316 33.1966 107.422 33.2389L107.694 33.35L107.972 33.4555C108.31 33.5904 108.582 33.8338 108.744 34.1722L108.866 34.4278L108.983 34.6778C109.038 34.7938 109.103 34.8955 109.177 34.9833L109.522 35.3944C109.624 35.5152 109.731 35.6316 109.844 35.7444L110.038 35.9333L110.6 36.4944L110.794 36.6833L110.994 36.8667C111.259 37.1218 111.394 37.4495 111.433 37.7944L111.472 38.1L111.5 38.3889L111.705 38.5389L111.938 38.7055C112.185 38.882 112.38 39.1112 112.511 39.3889L112.744 39.8778C112.837 40.0766 112.912 40.2861 112.972 40.5L113.044 40.7611L113.122 41.0278C113.126 41.0421 113.13 41.0567 113.166 41.0833L113.4 41.2611L113.638 41.4333C113.884 41.6149 114.05 41.8579 114.127 42.1389L114.177 42.4333L114.188 42.7278L114.2 42.9944L114.411 43.1667L114.638 43.35C114.869 43.5376 115.056 43.7737 115.177 44.05L115.283 44.2944L115.394 44.5389C115.495 44.7686 115.559 45.0105 115.588 45.2611L115.622 45.5389L115.655 45.8111C115.656 45.8187 115.654 45.8257 115.655 45.8278C115.656 45.8299 115.664 45.8433 115.683 45.8611L115.9 46.0611L116.111 46.2667C116.411 46.5504 116.557 46.927 116.522 47.3389L116.494 47.6333L116.472 47.8778L116.666 48.0667L116.883 48.2778C117.209 48.5947 117.327 49.0204 117.227 49.4555L117.155 49.7555L117.1 49.9889L117.261 50.1555L117.466 50.3722C117.692 50.6128 117.847 50.909 117.894 51.25L117.933 51.5167L117.966 51.7833C117.984 51.9128 118.017 52.0421 118.061 52.1667L118.155 52.4222L118.244 52.6778C118.369 53.0304 118.34 53.39 118.216 53.7167L118.105 54.0111L117.994 54.3C117.964 54.3799 117.969 54.4194 117.972 54.4333L118.094 54.9555C118.151 55.1957 118.175 55.442 118.161 55.6889L118.127 56.2222C118.126 56.2406 118.127 56.2729 118.161 56.3278L118.316 56.5778L118.477 56.8278C118.618 57.0543 118.722 57.2986 118.783 57.5555L118.905 58.0889C118.968 58.3546 118.98 58.6247 118.938 58.8944L118.894 59.1667L118.855 59.4333C118.844 59.5041 118.848 59.5777 118.872 59.6555L118.955 59.9222L119.033 60.1889C119.075 60.3272 119.19 60.8114 118.772 61.1389C118.596 61.2753 118.404 61.3099 118.283 61.3167C118.16 61.3234 118.045 61.3083 117.955 61.2889L117.288 61.1444C117.083 61.1 116.9 61.0688 116.744 61.05L116.2 60.9833C115.951 60.9534 115.709 60.8863 115.483 60.7833L115.25 60.6778L115.022 60.5722C114.73 60.4392 114.497 60.2242 114.316 59.9778L114.127 59.7167L114.044 59.6055L114.011 59.6167L114.033 59.6833C114.107 59.949 114.115 60.2244 114.077 60.4944L114 61.05C113.998 61.0631 113.999 61.0707 114 61.0722C114 61.0733 114 61.083 114.011 61.1L114.322 61.5889C114.488 61.8541 114.578 62.1536 114.583 62.4722L114.588 62.7389L114.594 63.0111C114.597 63.2464 114.571 63.4823 114.522 63.7167L114.466 63.9944L114.405 64.2778C114.376 64.4172 114.36 64.552 114.361 64.6778L114.366 64.9444V65.2111C114.366 65.2936 114.381 65.3762 114.416 65.4611L114.627 65.9722C114.716 66.1848 114.783 66.4042 114.827 66.6278L114.883 66.8889L114.933 67.15C114.958 67.2806 114.997 67.4123 115.05 67.5444L115.15 67.8055L115.25 68.0611C115.335 68.2781 115.401 68.5 115.438 68.7278L115.483 68.9944L115.527 69.2555C115.584 69.5993 115.515 69.9311 115.372 70.2278L115.233 70.5111L115.127 70.7278L115.233 70.9055L115.388 71.1611C115.54 71.4145 115.638 71.6956 115.661 71.9944L115.677 72.2611L115.7 72.5222C115.721 72.804 115.68 73.084 115.588 73.35L115.488 73.6278L115.405 73.85L115.55 74.0833L115.705 74.3389C115.874 74.6134 115.971 74.9268 115.961 75.2611L115.955 75.5278L115.944 75.7944C115.937 76.0068 115.914 76.2216 115.877 76.4333L115.833 76.7055L115.788 76.9722C115.764 77.1127 115.749 77.253 115.75 77.3889V77.6555L115.755 77.9222C115.755 78.0342 115.757 78.1545 115.766 78.2833C115.87 78.2288 115.971 78.1795 116.066 78.1278L116.522 77.8833C116.558 77.8638 116.61 77.8226 116.672 77.7333L116.844 77.4833L117.016 77.2278C117.1 77.1051 117.363 76.7692 117.822 76.8C118.039 76.8147 118.203 76.9076 118.322 77.0111L118.55 77.2944L118.872 77.8389C118.984 78.029 119.057 78.2586 119.044 78.5111C119.03 78.7605 118.935 78.975 118.811 79.15L118.433 79.6833C118.425 79.6939 118.42 79.7049 118.416 79.7111L118.461 79.9444L118.511 80.2111C118.533 80.3353 118.571 80.4663 118.627 80.6L118.85 81.1333C118.968 81.4161 119.016 81.7181 118.977 82.0278L118.911 82.5611C118.885 82.767 118.85 82.9736 118.8 83.1778L118.666 83.7111C118.622 83.8898 118.578 84.0713 118.533 84.25L118.411 84.7389L118.594 85.0055L118.772 85.2722C118.956 85.5433 119.078 85.8629 119.077 86.2111V86.4778L119.072 86.7444C119.071 87.0286 119.008 87.3025 118.894 87.5611L118.661 88.0944C118.63 88.1639 118.628 88.2118 118.633 88.25L118.7 88.7833C118.72 88.9385 118.748 89.0938 118.783 89.25L118.844 89.5167L118.9 89.7833C118.956 90.0356 118.972 90.2934 118.944 90.55L118.888 91.0833C118.871 91.2462 118.857 91.4095 118.85 91.5722L118.827 92.1055C118.818 92.3155 118.793 92.5248 118.755 92.7333L118.655 93.2667C118.621 93.4531 118.585 93.6415 118.544 93.8278L118.483 94.0944L118.427 94.3611C118.422 94.3863 118.417 94.4161 118.438 94.4667L118.55 94.7333L118.666 95C118.775 95.2594 118.831 95.5341 118.827 95.8167V96.0833L118.822 96.35C118.82 96.5185 118.823 96.687 118.827 96.8555L118.838 97.3889C118.845 97.6582 118.8 97.9234 118.711 98.1778L118.616 98.4444L118.527 98.7L118.783 99.2333C118.955 99.5928 118.965 99.9852 118.805 100.356L118.688 100.622L118.583 100.867L118.694 101.117L118.811 101.383C118.915 101.62 118.985 101.869 119.016 102.122L119.083 102.656C119.122 102.974 119.068 103.282 118.938 103.567L118.694 104.1C118.67 104.152 118.673 104.18 118.677 104.2L118.733 104.467L118.783 104.733C118.83 104.967 118.865 105.34 118.644 105.667L118.555 105.794L118.466 105.928C118.305 106.163 118.056 106.317 117.855 106.422L117.322 106.7C116.979 106.879 116.593 106.921 116.216 106.783L115.683 106.583C115.581 106.546 115.485 106.532 115.4 106.533L115.133 106.539H114.866C114.663 106.541 114.458 106.536 114.255 106.517L113.988 106.489L113.722 106.467C113.628 106.458 113.533 106.464 113.433 106.489L112.9 106.622C112.566 106.706 112.233 106.673 111.922 106.544L111.388 106.322C111.318 106.293 111.261 106.294 111.216 106.3L110.683 106.367C110.503 106.391 110.324 106.417 110.144 106.439L109.877 106.467L109.611 106.5C109.37 106.529 109.128 106.524 108.888 106.489L108.355 106.411C108.248 106.395 108.14 106.395 108.033 106.411L107.766 106.45L107.5 106.494C107.281 106.527 107.059 106.54 106.838 106.533L106.572 106.522L106.305 106.517C106.208 106.514 106.107 106.529 106 106.561L105.733 106.639L105.466 106.722C105.134 106.822 104.792 106.806 104.472 106.683L104.205 106.578L103.938 106.478C103.823 106.433 103.712 106.406 103.611 106.4L103.077 106.367C102.964 106.36 102.85 106.371 102.733 106.394L102.466 106.444L102.2 106.5C102.076 106.525 101.945 106.564 101.811 106.622L101.277 106.856C100.969 106.991 100.636 107.028 100.3 106.95L99.7662 106.828C99.6124 106.792 99.4575 106.763 99.3051 106.744L99.0384 106.711L98.7717 106.683C98.6535 106.669 98.5346 106.668 98.4162 106.683L97.8829 106.75C97.6632 106.779 97.4423 106.789 97.2217 106.778L96.9551 106.767L96.6884 106.75C96.546 106.743 96.4034 106.747 96.2606 106.761L95.994 106.789L95.7273 106.811C95.4379 106.839 95.1539 106.799 94.8829 106.7L94.6162 106.606L94.3495 106.506C94.3425 106.503 94.3341 106.5 94.3329 106.5C94.331 106.5 94.3275 106.503 94.3217 106.506L93.7884 106.717C93.4628 106.845 93.1145 106.863 92.7773 106.756L92.5106 106.667L92.244 106.583C92.0786 106.53 91.9087 106.482 91.744 106.439L91.4773 106.372L91.2106 106.3C91.177 106.292 91.1454 106.295 91.0995 106.311L90.5662 106.5C90.3416 106.581 90.1101 106.637 89.8773 106.667L89.344 106.733C89.0241 106.773 88.7131 106.72 88.4273 106.589L87.894 106.344C87.8853 106.341 87.8794 106.339 87.8773 106.339L87.6106 106.428L87.344 106.511C87.1775 106.566 87.0109 106.625 86.844 106.689L86.5773 106.794L86.3106 106.894C85.8698 107.062 85.4411 106.957 85.1051 106.711L84.8384 106.517L84.5717 106.317C84.4829 106.252 84.3736 106.172 84.294 106.089C84.2714 106.065 84.2381 106.026 84.2051 105.978C84.179 105.94 84.1102 105.837 84.0829 105.689C84.048 105.5 84.0852 105.217 84.3217 105.011C84.5002 104.857 84.6958 104.837 84.7551 104.833L84.8273 104.828H84.8662C84.8937 104.82 84.9405 104.807 85.0051 104.783L85.2217 104.7L85.444 104.617C85.6959 104.524 85.9591 104.496 86.2217 104.517L86.4829 104.539L86.7384 104.556C86.8059 104.561 86.8912 104.556 86.994 104.522L87.2717 104.428L87.544 104.339C87.5521 104.336 87.559 104.334 87.5606 104.333V104.328C87.5622 104.326 87.5685 104.322 87.5717 104.317L87.7106 104.067L87.8551 103.817L88.044 103.561C88.2548 103.339 88.5334 103.211 88.844 103.178L89.1495 103.144L89.394 103.117L89.5106 102.922L89.6606 102.667C89.7652 102.486 89.8681 102.316 89.9717 102.161L90.1162 101.95L90.2551 101.739C90.2874 101.69 90.3108 101.632 90.3217 101.556L90.3606 101.289L90.3995 101.028C90.4101 100.954 90.4049 100.867 90.3773 100.761L90.3051 100.478L90.2273 100.194C90.1608 99.9392 90.1329 99.6771 90.1495 99.4167L90.1829 98.8833C90.2028 98.5716 90.309 98.2837 90.4773 98.0278L90.7995 97.5389C90.8304 97.4915 90.8334 97.463 90.8329 97.4389L90.8273 97.1667L90.8162 96.8944C90.8089 96.6481 90.8384 96.4046 90.8995 96.1667L91.0329 95.6444C91.0835 95.4479 91.1446 95.253 91.2162 95.0611L91.3106 94.8055L91.4051 94.5555C91.4484 94.4394 91.475 94.3185 91.4884 94.2L91.5217 93.9389L91.5495 93.6722C91.5752 93.4461 91.6278 93.2223 91.6995 93.0055L91.8662 92.4944C91.8797 92.4537 91.8875 92.4045 91.8717 92.3333L91.8051 92.0555L91.744 91.7722C91.6611 91.3977 91.7313 91.0263 91.9384 90.7055L92.094 90.4611L92.2217 90.2555L92.144 90.0055L92.0551 89.7222C91.9419 89.3677 91.9561 88.9907 92.1329 88.6444L92.2606 88.3944L92.3884 88.15C92.4074 88.1128 92.4106 88.0802 92.4051 88.0389L92.3717 87.7611L92.3329 87.4833C92.2813 87.0929 92.3965 86.7335 92.6273 86.4389L92.8162 86.2L92.9662 86L92.9051 85.7833L92.8273 85.5C92.758 85.2498 92.7265 84.9943 92.7329 84.7389L92.7384 84.4667L92.744 84.2L92.7829 83.9111C92.8509 83.6364 93.0023 83.4011 93.194 83.2111L93.4273 82.9778L93.5217 82.8778L93.4606 82.75L93.3162 82.4555C93.2193 82.2624 93.1574 82.0289 93.1884 81.7722C93.2204 81.5123 93.3373 81.2937 93.4884 81.1278L93.7051 80.8944L93.9162 80.6611L93.9217 80.6444L93.9106 80.4055L93.8884 80.1333C93.8687 79.8575 93.9044 79.5841 93.994 79.3222L94.0773 79.0667L94.1662 78.8111V78.8055C94.1656 78.7982 94.1663 78.7797 94.1551 78.75L93.9329 78.1722C93.8249 77.8885 93.7771 77.5838 93.8217 77.2722L93.8551 77.0167L93.894 76.7611C93.9391 76.4458 94.0762 76.1608 94.2606 75.9167L94.4551 75.6611L94.5384 75.5444L94.4606 75.4167L94.2884 75.1444C94.073 74.8038 93.9988 74.3882 94.1551 73.9722L94.2551 73.7111L94.3551 73.4444C94.4107 73.2964 94.4505 73.1486 94.4829 73.0055L94.544 72.7444L94.6051 72.4778C94.6073 72.468 94.6109 72.4486 94.5884 72.4L94.4662 72.1333L94.3384 71.8667C94.1586 71.4774 94.1807 71.0622 94.3773 70.6944L94.5217 70.4278L94.6162 70.2444L94.5106 70.0778L94.3495 69.8167C94.1501 69.4954 94.072 69.12 94.1717 68.7333L94.3162 68.1889C94.3602 68.0194 94.3983 67.8506 94.4329 67.6833L94.4884 67.4111L94.544 67.1444V67.1333C94.5423 67.1288 94.5387 67.1216 94.5329 67.1111L94.3884 66.85L94.2384 66.5944C94.0737 66.3023 94.001 65.9724 94.044 65.6278L94.0773 65.3611L94.1106 65.0889C94.1293 64.9392 94.139 64.7892 94.1384 64.6389V64.3667L94.1329 64.0944C94.1322 63.9692 94.1172 63.8456 94.0884 63.7278L94.0273 63.4722L93.9662 63.2111C93.9317 63.0698 93.8824 62.9292 93.8273 62.7889L93.6273 62.2778C93.5104 61.9795 93.4871 61.6663 93.544 61.3555L93.594 61.0722L93.6495 60.7944L93.3273 60.3167C93.1788 60.0959 93.0656 59.856 92.9995 59.6L92.8662 59.0889C92.8321 58.9567 92.7847 58.8227 92.7273 58.6944L92.6217 58.45L92.5106 58.2055C92.3807 57.915 92.339 57.6041 92.3773 57.2944L92.4162 57.0055L92.444 56.7389L92.2717 56.5444L92.0829 56.3278C91.8937 56.1099 91.7501 55.8588 91.6717 55.5778L91.5995 55.3222L91.5329 55.0667C91.4647 54.8217 91.4357 54.5688 91.444 54.3111L91.4551 54.0222L91.4606 53.7278C91.4638 53.6235 91.4482 53.5399 91.4217 53.4722L91.3273 53.2278L91.2273 52.9778C91.1827 52.8638 91.1284 52.7515 91.0551 52.6444L90.8995 52.4222L90.744 52.1944C90.5753 51.9482 90.4702 51.6725 90.4329 51.3778L90.3995 51.1L90.3662 50.8167C90.3578 50.7515 90.337 50.703 90.3051 50.6611L89.9717 50.2278C89.9092 50.1458 89.8285 50.0647 89.7217 49.9889L89.2329 49.6444C88.9935 49.4746 88.7902 49.258 88.6495 48.9944L88.5273 48.7667L88.4051 48.5333C88.3035 48.343 88.2145 48.1414 88.144 47.9333L88.0606 47.6778L87.9717 47.4167C87.9059 47.2223 87.8484 47.0218 87.7995 46.8167L87.7329 46.5389L87.6717 46.2944L87.4329 46.1722L87.1662 46.0389C86.8726 45.8863 86.628 45.6565 86.4717 45.35L86.3495 45.1055L86.2273 44.8667C86.1804 44.7742 86.1205 44.6922 86.0495 44.6222L85.8551 44.4333L85.6662 44.2444C85.479 44.0603 85.3245 43.8482 85.2106 43.6111L85.094 43.3611L84.9773 43.1167C84.9304 43.019 84.8689 42.9322 84.7995 42.8611L84.6106 42.6722L84.4273 42.4778C84.3305 42.3786 84.2243 42.2884 84.1106 42.2055L83.8884 42.05L83.6717 41.8889C83.4801 41.7492 83.3071 41.5865 83.1551 41.4055L82.9829 41.2L82.8106 41C82.7437 40.9203 82.6689 40.8474 82.5773 40.7889L82.344 40.6444L82.1162 40.5C81.9596 40.4002 81.8071 40.2966 81.6551 40.1944L81.4329 40.0444L81.2106 39.9C80.8971 39.6893 80.7073 39.3761 80.6106 39.0444L80.5217 38.7333L80.4606 38.5278L80.2995 38.5L80.0051 38.4444C79.7777 38.4002 79.5587 38.3411 79.3495 38.2667L78.8273 38.0778C78.5919 37.9938 78.3715 37.8807 78.1717 37.7333L77.9606 37.5778L77.7495 37.4167C77.6036 37.3089 77.4545 37.2002 77.3106 37.0889L77.1051 36.9278L76.894 36.7667C76.6725 36.5953 76.4911 36.3808 76.3495 36.1389L76.1995 35.8778L76.044 35.6111C76.0389 35.6027 76.0351 35.5973 76.0329 35.5944L75.7829 35.5278L75.5162 35.45C75.2915 35.3866 75.0752 35.3037 74.8717 35.1944L74.6329 35.0667L74.3995 34.9389C74.2325 34.849 74.0679 34.7541 73.9051 34.6555L73.6717 34.5167L73.444 34.3778C73.3271 34.3071 73.2043 34.2488 73.0773 34.2L72.8273 34.1L72.5773 34.0055C72.4902 33.9723 72.3916 33.954 72.2773 33.95L71.9884 33.9389L71.7051 33.9278C71.4429 33.919 71.1874 33.8714 70.944 33.7778L70.694 33.6833L70.4495 33.5889C70.1936 33.49 69.961 33.3398 69.7551 33.1555L69.2995 32.7444C69.22 32.6737 69.1914 32.6748 69.2106 32.6778L68.9773 32.6444L68.7495 32.6111C68.6621 32.5976 68.5968 32.5978 68.5495 32.6055L68.1495 32.6722C67.9002 32.7148 67.6414 32.6941 67.3995 32.6444L67.1162 32.5889L66.8329 32.5278C66.697 32.4999 66.5837 32.4933 66.494 32.5L66.2495 32.5222L65.9995 32.5389C65.6127 32.5678 65.2766 32.4186 65.0106 32.2111L64.7551 32.0111L64.5717 31.8667L64.4162 31.9389L64.144 32.0444C64.0066 32.0994 63.8871 32.1636 63.7829 32.2333L63.5551 32.3833L63.3329 32.5333C62.9869 32.7646 62.5876 32.8008 62.2106 32.6667L61.6773 32.4778C61.6562 32.4705 61.6385 32.4704 61.5995 32.4833L61.3217 32.5722L61.044 32.6667C60.796 32.7488 60.5409 32.7953 60.2829 32.7944L60.0217 32.7889H59.7606C59.6225 32.7884 59.481 32.797 59.3384 32.8167L59.0773 32.8555L58.8106 32.8889C58.623 32.9147 58.4326 32.9394 58.2384 32.9555L57.9606 32.9778L57.6884 33C57.565 33.0102 57.4483 33.0338 57.3384 33.0722L56.8273 33.25C56.7261 33.2857 56.6306 33.3384 56.5384 33.4055L56.3162 33.5667L56.094 33.7333C55.8843 33.8861 55.6525 34.0008 55.4051 34.0778L55.1495 34.1555L54.8884 34.2389C54.8479 34.2517 54.8074 34.2755 54.7606 34.3278L54.5662 34.5444L54.3773 34.7555C54.1986 34.9558 53.9912 35.1244 53.7551 35.25L53.5217 35.3722L53.2884 35.5C53.1261 35.5863 52.959 35.6685 52.794 35.75L52.5606 35.8667L52.3217 35.9833C52.1709 36.0578 52.0201 36.1366 51.8717 36.2167L51.6384 36.3444L51.4051 36.4667C51.23 36.5611 51.0457 36.6485 50.8606 36.7278L50.6162 36.8389L50.3662 36.9444C50.249 36.9947 50.1389 37.0544 50.0384 37.1278L49.8217 37.2833L49.6051 37.4444C49.485 37.5321 49.3698 37.6262 49.2606 37.7278L49.0662 37.9111L48.8662 38.0944C48.7344 38.2171 48.6033 38.34 48.4717 38.4611L48.2773 38.6444L48.0829 38.8222C47.8641 39.0236 47.6037 39.1626 47.3217 39.2444L47.044 39.3222L46.7829 39.3944L46.6717 39.6389L46.5495 39.9C46.4061 40.1975 46.1834 40.4407 45.8884 40.6055L45.4106 40.8722L45.4051 40.8778C45.4028 40.8819 45.3983 40.8936 45.394 40.9055L45.294 41.1778L45.194 41.4555C45.0893 41.7447 44.9193 42.0034 44.6773 42.2055L44.2662 42.55C44.1275 42.6654 43.9857 42.78 43.844 42.8944L43.6329 43.0611L43.4273 43.2333C43.3709 43.279 43.3227 43.33 43.2884 43.4L43.1717 43.65L43.0551 43.8944C42.8678 44.2792 42.5292 44.4992 42.1662 44.6L41.8495 44.6889L41.6162 44.75L41.5829 44.9111L41.5217 45.1944C41.4379 45.5625 41.2256 45.8712 40.9051 46.0778L40.4162 46.3889C40.3736 46.4165 40.3593 46.442 40.3495 46.4667L40.2495 46.7222L40.1495 46.9722C40.0526 47.216 39.9163 47.4414 39.744 47.6389L39.5606 47.8444L39.3884 48.0389C39.3874 48.0432 39.3881 48.0555 39.3884 48.0778L39.3995 48.7C39.4082 49.0749 39.288 49.4419 39.0051 49.7278L38.8106 49.9222L38.6162 50.1222C38.4852 50.2545 38.3549 50.3891 38.2217 50.5222L38.0217 50.7222L37.8217 50.9167C37.7576 50.9808 37.7149 51.047 37.6884 51.1167L37.594 51.3722L37.4995 51.6222C37.4372 51.7867 37.3759 51.9517 37.3162 52.1167L37.2217 52.3722L37.1329 52.6222C37.0841 52.7569 37.0446 52.8964 37.0162 53.0389L36.9662 53.3055L36.9106 53.5722C36.879 53.7311 36.8532 53.8922 36.8329 54.0555L36.7662 54.6C36.7172 54.9937 36.508 55.3113 36.2217 55.5389L35.9717 55.7389L35.7273 55.9333C35.6963 55.9579 35.678 55.9744 35.6717 55.9833C35.6668 55.9906 35.6669 55.9972 35.6662 56L35.6051 56.2611L35.5384 56.5278C35.5039 56.6737 35.4817 56.8235 35.4662 56.9722L35.4384 57.2389L35.4106 57.5111C35.4001 57.6144 35.4022 57.7304 35.4273 57.8611L35.4829 58.15L35.5384 58.4444C35.5896 58.7117 35.6013 58.9831 35.5551 59.25L35.5051 59.5055L35.4606 59.7667C35.4271 59.96 35.3888 60.1536 35.3384 60.3444L35.2662 60.6L35.1995 60.8611C35.1185 61.166 34.9543 61.4277 34.744 61.65L34.5273 61.8833L34.3495 62.0667L34.394 62.2667L34.4551 62.55C34.5175 62.8423 34.5164 63.1416 34.4329 63.4333L34.3551 63.6889L34.2829 63.9444C34.2469 64.0702 34.2268 64.2014 34.2162 64.3333L34.1717 64.8667C34.1587 65.0299 34.1518 65.1945 34.1495 65.3555L34.144 65.6222L34.1384 65.8833C34.1345 66.1656 34.0712 66.4387 33.9551 66.6944L33.8384 66.9555L33.7162 67.2167C33.7137 67.2223 33.7112 67.2258 33.7106 67.2278C33.7108 67.2287 33.7145 67.2331 33.7162 67.2389L33.8829 67.7833C33.9972 68.1516 33.957 68.5227 33.7829 68.8555L33.644 69.1167L33.5273 69.3278L33.6329 69.5555L33.7551 69.8278C33.8949 70.1328 33.9447 70.465 33.8717 70.8055L33.7606 71.3389C33.7291 71.485 33.7055 71.6313 33.694 71.7778L33.6717 72.0444L33.6495 72.3167C33.6372 72.4751 33.6328 72.6326 33.6329 72.7889V73.3222C33.633 73.5204 33.6281 73.7214 33.6106 73.9222L33.5829 74.1889L33.5606 74.4611C33.5528 74.5507 33.5617 74.6402 33.5884 74.7278L33.6662 74.9889L33.7495 75.25C33.8269 75.5049 33.8566 75.7676 33.8384 76.0333L33.8217 76.3055L33.7995 76.5722C33.7857 76.7721 33.7645 76.9765 33.7329 77.1833L33.644 77.75C33.6351 77.8094 33.6438 77.8508 33.6606 77.8889L33.8829 78.3889C34.0033 78.6611 34.058 78.9528 34.0384 79.25L34.0162 79.5222L33.9995 79.8C33.9964 79.8513 34.006 79.8969 34.0329 79.95L34.1606 80.2L34.2829 80.45C34.4308 80.741 34.4885 81.0588 34.4495 81.3833L34.4162 81.6555L34.3829 81.9333C34.3703 82.0382 34.3787 82.1331 34.3995 82.2222L34.5217 82.7444C34.5314 82.7848 34.5557 82.846 34.6273 82.9278L34.8384 83.1667L35.044 83.4C35.2877 83.6764 35.4363 84.0292 35.4106 84.4278L35.3773 84.9722C35.3685 85.1093 35.3713 85.2434 35.3884 85.3722L35.4217 85.6333L35.4606 85.9C35.4768 86.0213 35.5044 86.1418 35.5495 86.2611L35.644 86.5167L35.744 86.7667C35.8781 87.1213 35.8533 87.4856 35.7273 87.8167L35.5051 88.3944C35.4914 88.4305 35.4888 88.4536 35.4884 88.4611L35.494 88.4722L35.5717 88.7278L35.6551 88.9833C35.6818 89.0664 35.7317 89.1594 35.8106 89.2611L35.994 89.5L36.1829 89.7389C36.3762 89.9885 36.5046 90.2803 36.5384 90.6055L36.594 91.1389C36.616 91.3517 36.6208 91.5673 36.6106 91.7833L36.5884 92.3278C36.5796 92.5163 36.564 92.7051 36.5495 92.8944L36.5329 93.1722L36.5106 93.4444C36.5031 93.5437 36.5129 93.6348 36.5384 93.7222L36.6106 93.9778L36.6884 94.2389C36.7246 94.3623 36.7733 94.4866 36.8384 94.6111L36.9717 94.8611L37.0995 95.1111C37.223 95.347 37.3047 95.5975 37.3384 95.8611L37.4051 96.3944C37.438 96.6555 37.4269 96.9189 37.3717 97.1778L37.3106 97.4555L37.2495 97.7389C37.2342 97.8119 37.2408 97.8665 37.2551 97.9111L37.4217 98.4222C37.5109 98.7003 37.5302 98.9905 37.4884 99.2778L37.4495 99.55L37.4106 99.8278C37.3939 99.9429 37.3939 100.052 37.4106 100.15L37.4995 100.672C37.5099 100.733 37.5358 100.805 37.594 100.889L37.7662 101.133L37.9329 101.372C38.0941 101.603 38.2121 101.858 38.2717 102.133L38.3273 102.394L38.3606 102.561L38.4995 102.628C38.6056 102.675 38.7448 102.735 38.9106 102.811L39.1551 102.928L39.4051 103.039C39.7085 103.178 39.9481 103.4 40.1217 103.672L40.444 104.183C40.506 104.281 40.5751 104.346 40.6384 104.389L40.8662 104.544L41.094 104.694C41.1869 104.757 41.2864 104.807 41.394 104.839L41.6606 104.917L41.9217 104.994C41.9652 105.007 42.0181 105.014 42.094 104.994L42.3829 104.922L42.6662 104.844C42.7934 104.812 43.0522 104.76 43.3162 104.861C43.4717 104.921 43.6202 105.037 43.7217 105.206C43.8172 105.364 43.8432 105.525 43.844 105.644V105.828L43.8495 106.011C43.8512 106.268 43.7465 106.527 43.5273 106.711C43.3389 106.869 43.1198 106.923 42.9662 106.944L42.6995 106.983L42.4329 107.017C42.1796 107.052 41.9234 107.047 41.6717 107L41.1384 106.9C40.9915 106.873 40.845 106.858 40.6995 106.85L40.4329 106.833L40.1662 106.822C39.9476 106.81 39.7264 106.777 39.5106 106.728L38.9773 106.606C38.902 106.589 38.8299 106.589 38.7551 106.606L38.4884 106.667L38.2217 106.722C38.0458 106.761 37.8699 106.799 37.694 106.839L37.1606 106.961C36.8158 107.039 36.4751 106.99 36.1662 106.844L35.6329 106.589C35.5061 106.529 35.3839 106.493 35.2717 106.472L34.7384 106.372C34.6492 106.356 34.5614 106.355 34.4717 106.372L34.2051 106.428L33.9384 106.478C33.7915 106.506 33.6436 106.546 33.494 106.594L33.2273 106.683L32.9606 106.767C32.6302 106.875 32.286 106.873 31.9606 106.756L31.694 106.656L31.4273 106.561C31.3164 106.521 31.2139 106.498 31.1162 106.494L30.8495 106.489L30.5829 106.478C30.4868 106.475 30.3837 106.49 30.2773 106.522L30.0106 106.606L29.744 106.683C29.4276 106.78 29.1029 106.778 28.7884 106.678L28.5217 106.594L28.2551 106.506C28.1894 106.484 28.1323 106.484 28.0773 106.494L27.8106 106.544L27.544 106.6C27.2479 106.659 26.9477 106.643 26.6606 106.556L26.1273 106.389C26.0786 106.374 26.0394 106.377 25.994 106.389L25.4606 106.533C25.2517 106.591 25.0391 106.635 24.8273 106.661L24.294 106.728C24.0218 106.762 23.7473 106.738 23.4829 106.667L22.9495 106.522C22.8329 106.491 22.7204 106.477 22.6106 106.478H22.344L22.0773 106.483C21.9221 106.485 21.7662 106.495 21.6106 106.511L21.0773 106.567C20.9164 106.583 20.7553 106.605 20.594 106.633L20.0606 106.722C19.7822 106.771 19.5007 106.759 19.2273 106.689L18.694 106.556C18.5364 106.515 18.3781 106.481 18.2217 106.456L17.9551 106.411L17.6884 106.372C17.5957 106.357 17.5051 106.359 17.4106 106.378L17.144 106.428L16.8773 106.483C16.6834 106.522 16.4885 106.553 16.294 106.578L15.7606 106.644C15.4631 106.682 15.167 106.647 14.8884 106.544L14.3551 106.344C14.2761 106.316 14.2101 106.31 14.1495 106.317L13.8829 106.344L13.6162 106.378C13.4146 106.4 13.2127 106.409 13.0106 106.411L12.744 106.417H12.4773C12.2629 106.419 12.0461 106.409 11.8329 106.378L11.2995 106.3C11.2118 106.288 11.1246 106.29 11.0329 106.311L10.4995 106.433C10.373 106.463 10.0815 106.514 9.79952 106.361C9.42502 106.157 9.3593 105.781 9.37174 105.561L9.39397 105.161C9.40381 104.989 9.4286 104.802 9.46619 104.606L9.52174 104.339L9.57174 104.072C9.5788 104.035 9.57805 103.992 9.55508 103.933L9.34397 103.4C9.22462 103.099 9.18683 102.778 9.25508 102.456L9.31619 102.189L9.37174 101.922C9.40505 101.765 9.4309 101.606 9.44952 101.45L9.48286 101.183L9.51063 100.917C9.52917 100.761 9.54489 100.605 9.54952 100.45L9.56063 99.9167C9.56314 99.8318 9.55155 99.7389 9.51619 99.6389L9.3273 99.1055C9.22369 98.8117 9.19752 98.503 9.26063 98.1944L9.37174 97.6611C9.39594 97.5433 9.40642 97.4254 9.39952 97.3111L9.36619 96.7778C9.35912 96.6629 9.33348 96.5453 9.29397 96.4222L9.1273 95.8889C9.01642 95.5439 9.03363 95.1896 9.17174 94.8611L9.28841 94.5944L9.38286 94.3722L9.25508 94.1333L9.12174 93.8667C8.97557 93.5851 8.90028 93.2716 8.9273 92.9444L8.97174 92.4111C8.98412 92.2611 8.98803 92.1109 8.98286 91.9611L8.96063 91.4278C8.94947 91.1045 9.03723 90.8013 9.18841 90.5278L9.33841 90.2611L9.46063 90.0389L9.36063 89.8389L9.23286 89.5722C9.1193 89.33 9.04407 89.0747 9.01619 88.8111L8.96063 88.2778C8.9247 87.9372 9.00882 87.6149 9.16619 87.3278L9.45508 86.7944C9.4837 86.7422 9.48392 86.7193 9.48286 86.7111L9.40508 86.1778C9.37594 85.983 9.35317 85.7841 9.33841 85.5889L9.31619 85.3222L9.29952 85.0555C9.28209 84.824 9.28664 84.5913 9.32174 84.3611L9.36619 84.0944L9.40508 83.8278C9.41944 83.7325 9.41869 83.6361 9.39952 83.5389L9.34397 83.2722L9.29397 83.0055C9.26077 82.8374 9.22288 82.6684 9.18286 82.5L9.12174 82.2333L9.05508 81.9667C8.97246 81.6178 9.02213 81.273 9.17174 80.9611L9.4273 80.4278C9.44946 80.3812 9.44604 80.365 9.44397 80.3555L9.38286 80.0889L9.3273 79.8222C9.26964 79.5597 9.25807 79.2933 9.29952 79.0278L9.34397 78.7611L9.38286 78.4944L9.46619 78.2055C9.51574 78.0924 9.59635 77.9731 9.72174 77.8722C9.96452 77.6769 10.2272 77.6663 10.4273 77.7111L10.6051 77.7722L10.794 77.85L10.9773 77.9333C11.1478 78.0092 11.3204 78.112 11.494 78.2278L11.9495 78.5278C11.9705 78.5418 11.9895 78.5517 12.0329 78.55L12.3162 78.5389L12.5773 78.5278L12.6384 78.4611L12.594 78.3055L12.5106 78.0333C12.4436 77.8153 12.3992 77.5942 12.3717 77.3722L12.3384 77.1L12.3051 76.8333C12.2781 76.6149 12.2665 76.3962 12.2773 76.1778L12.294 75.9111L12.3051 75.6444C12.317 75.4058 12.3613 75.1685 12.4329 74.9389L12.5162 74.6722L12.5995 74.4111C12.6329 74.3037 12.649 74.1985 12.6495 74.0944V73.5555C12.6509 73.2571 12.7254 72.9728 12.8606 72.7111L12.994 72.4555L13.1273 72.1944C13.1647 72.122 13.1786 72.0651 13.1773 72.0167L13.1662 71.75L13.1606 71.4833C13.1585 71.4029 13.1421 71.3044 13.094 71.1889L12.8606 70.6333C12.7108 70.274 12.7066 69.883 12.8829 69.5167L13.1273 69.0055C13.1938 68.8672 13.2468 68.7301 13.2884 68.5944L13.3717 68.3333L13.4495 68.0722C13.4777 67.9793 13.488 67.885 13.4829 67.7889L13.4662 67.5222L13.4551 67.25C13.4475 67.1077 13.4252 66.9616 13.394 66.8111L13.2829 66.2555C13.2363 66.0304 13.2091 65.8037 13.2051 65.5778L13.1995 65.3055L13.194 65.0389C13.1876 64.6837 13.3091 64.3613 13.5106 64.0889L13.6884 63.8444L13.8717 63.6C13.9351 63.5138 13.9615 63.4435 13.9717 63.3889L14.0217 63.1278L14.0662 62.8667C14.0993 62.6893 14.1364 62.5103 14.1717 62.3333L14.2217 62.0722L14.2773 61.8111C14.2917 61.7381 14.2927 61.6516 14.2717 61.55L14.2106 61.2722L14.1551 60.9889C14.09 60.6739 14.1159 60.3553 14.244 60.0555C14.023 60.17 13.7866 60.256 13.5273 60.2667L13.2884 60.2778L13.0551 60.2833C12.9909 60.2859 12.9277 60.3038 12.8606 60.3333L12.6384 60.4333L12.4162 60.5278C12.1519 60.645 11.8691 60.6895 11.5884 60.6722L11.3162 60.6555L11.2162 60.6444L11.1829 60.7167L11.0551 60.9444C11.0214 61.0046 10.9577 61.1089 10.8606 61.2C10.7757 61.2791 10.4906 61.5023 10.1051 61.3778C9.78396 61.2739 9.66293 61.0037 9.63286 60.9333C9.58914 60.8304 9.56653 60.7265 9.55508 60.6555L9.51063 60.3667L9.46063 60.0833C9.43493 59.924 9.39996 59.7703 9.35508 59.6222L9.27174 59.35L9.19397 59.0778C9.08971 58.734 9.11055 58.3833 9.25508 58.0555L9.37174 57.7944L9.48286 57.5333C9.54025 57.403 9.57973 57.2772 9.60508 57.1555L9.71619 56.6333C9.72284 56.6004 9.72667 56.5509 9.69952 56.4722L9.49952 55.9055C9.41026 55.648 9.36181 55.3819 9.36619 55.1111L9.3773 54.5667C9.38233 54.2706 9.45654 53.988 9.59397 53.7278L9.86063 53.2278C9.90111 53.1512 9.91834 53.0775 9.92174 53.0055L9.93841 52.7389L9.94952 52.4667C9.95879 52.2708 9.97221 52.0723 9.99397 51.8778L10.0273 51.6111L10.0551 51.3444C10.0857 51.0709 10.1673 50.8078 10.2995 50.5667L10.4329 50.3278L10.5662 50.0833C10.613 49.9979 10.6429 49.9121 10.6551 49.8222L10.6884 49.55L10.7273 49.2833C10.7764 48.9138 10.9612 48.6062 11.2217 48.3722L11.4495 48.1667L11.6051 48.0222L11.5662 47.8111L11.5106 47.5055C11.4709 47.2975 11.4754 47.0695 11.5606 46.8444C11.6459 46.6194 11.7935 46.4461 11.9606 46.3167L12.2051 46.1278L12.4495 45.9333C12.5159 45.8818 12.5254 45.8506 12.5273 45.8444L12.6051 45.5889L12.6829 45.3389C12.7557 45.0977 12.8616 44.8685 13.0051 44.6611L13.3162 44.2167L13.3106 44.2222C13.3115 44.2185 13.3145 44.1992 13.3106 44.1611L13.2829 43.85L13.2495 43.5389C13.2286 43.333 13.2518 43.1092 13.3495 42.8944C13.4479 42.6786 13.601 42.5133 13.7773 42.3944L14.0273 42.2278L14.2773 42.0555C14.3724 41.9915 14.4283 41.9303 14.4606 41.8778L14.5995 41.6555L14.7384 41.4278C14.7997 41.3282 14.8505 41.2194 14.8884 41.1L14.9717 40.8389L15.0551 40.5833C15.0983 40.4472 15.1298 40.2975 15.1551 40.1389L15.1995 39.85L15.2495 39.5611C15.2953 39.272 15.3966 38.9978 15.5662 38.7555L15.8773 38.3111C16.0664 38.0423 16.3258 37.8544 16.6162 37.7278L16.8995 37.6L17.0995 37.5111L17.1329 37.3L17.1717 37C17.212 36.7009 17.3128 36.4133 17.4884 36.1611L17.7995 35.7167L17.9773 35.5055C18.1746 35.3173 18.4176 35.1995 18.6717 35.1333L19.3051 34.9667C19.4083 34.9394 19.4395 34.9106 19.444 34.9055L19.6162 34.7055L19.794 34.5111C19.8658 34.4305 19.9284 34.3336 19.9829 34.2222L20.2273 33.7222C20.3633 33.4443 20.5669 33.2153 20.8273 33.0444L21.2829 32.7444C21.3886 32.6752 21.4836 32.5984 21.5662 32.5111L21.7495 32.3167L21.9273 32.1222C21.9828 32.0635 22.0366 31.9837 22.0829 31.8722L22.1995 31.6L22.3106 31.3222C22.4946 30.879 22.8788 30.6288 23.3217 30.5778L23.6384 30.5444L23.9551 30.5055H23.9662L24.1106 30.3111L24.2717 30.0889C24.3647 29.9624 24.4578 29.8288 24.544 29.6833L24.6884 29.4333L24.8384 29.1833L25.0273 28.9333C25.2432 28.7132 25.5275 28.5903 25.8384 28.5611L26.144 28.5333L26.4495 28.5H26.4606L26.6217 28.3L26.7995 28.0833C26.9162 27.9388 27.0358 27.7907 27.1551 27.6444L27.3329 27.4278L27.5106 27.2055C27.7406 26.9243 28.05 26.7487 28.4051 26.6889L28.6884 26.6389L28.9717 26.5944C28.9802 26.593 28.9863 26.5896 28.9884 26.5889H28.994C28.9957 26.5874 29.0002 26.5836 29.0051 26.5778L29.1884 26.35L29.3717 26.1278C29.5881 25.8622 29.8712 25.6738 30.2106 25.5944L30.4829 25.5333L30.7495 25.4722C30.9888 25.4164 31.2374 25.3913 31.4884 25.3944H31.7884L32.0884 25.4C32.1168 25.4003 32.1303 25.3953 32.1329 25.3944L32.1384 25.3889L32.3551 25.2167L32.5662 25.0444C32.7011 24.9351 32.8365 24.8225 32.9717 24.7055L33.1829 24.5222L33.3995 24.3389C33.6777 24.0987 34.0154 23.982 34.3773 23.9889L34.9551 24C35.0528 24.0017 35.1285 23.9819 35.1884 23.9555L35.4273 23.85L35.6717 23.7444C35.861 23.6612 36.057 23.5869 36.2551 23.5278L36.5106 23.4555L36.7662 23.3778C36.9148 23.3334 37.0605 23.2799 37.2051 23.2222L37.4551 23.1222L37.6995 23.0278C37.9289 22.9362 38.1698 22.8782 38.4162 22.8555L38.6829 22.8278L38.9551 22.8055C38.9918 22.802 39.0324 22.7864 39.0884 22.7444L39.3217 22.5722L39.5551 22.3944C39.8145 22.1992 40.1172 22.0834 40.4495 22.0667L40.7217 22.05L40.9884 22.0389C41.2265 22.0269 41.4674 22.0445 41.7051 22.0889L41.9884 22.1389L42.2662 22.1944C42.3636 22.2126 42.4454 22.2105 42.5162 22.1944L42.7717 22.1333L43.0329 22.0722C43.2359 22.0262 43.4423 21.9962 43.6495 21.9778L43.9106 21.9555L44.1773 21.9333C44.2662 21.9253 44.3605 21.8963 44.4606 21.85L44.9717 21.6167C45.2814 21.4736 45.615 21.4359 45.9495 21.5111L46.494 21.6333C46.503 21.6354 46.5079 21.6335 46.5106 21.6333C46.5133 21.633 46.5277 21.6332 46.5495 21.6222L46.8106 21.4889L47.0717 21.3611C47.3023 21.2448 47.5428 21.161 47.794 21.1167L48.0662 21.0667L48.3329 21.0222C48.6227 20.9714 48.9128 20.9886 49.194 21.0722L49.4606 21.15L49.7273 21.2333C49.7725 21.2468 49.8104 21.2465 49.8551 21.2333L50.1217 21.15L50.3884 21.0722C50.7384 20.9676 51.0918 20.9984 51.4162 21.1444L51.9495 21.3889C52.0399 21.4298 52.116 21.4402 52.1773 21.4389L52.7106 21.4278C52.8239 21.4252 52.9401 21.407 53.0606 21.3722L53.594 21.2167L53.8717 21.1667C54.1469 21.1446 54.4167 21.2097 54.6606 21.3389L55.194 21.6167L55.1884 21.6222H55.1829L55.1773 21.6278L55.194 21.6222H55.1884L55.194 21.6167V21.6222L55.444 21.5389L55.7106 21.4555C55.9627 21.375 56.2246 21.3345 56.4884 21.3444L57.0217 21.3667C57.1132 21.3698 57.208 21.3547 57.3106 21.3222L57.844 21.1555C58.0899 21.0777 58.343 21.0416 58.5995 21.0444H58.8662L59.1329 21.05C59.4469 21.0536 59.7442 21.1443 60.0106 21.2944L60.2773 21.4444L60.5217 21.5889L60.7495 21.5L61.0162 21.4055C61.2816 21.3098 61.5612 21.2687 61.844 21.2889L62.1106 21.3055L62.3773 21.3278C62.5066 21.3369 62.6361 21.3333 62.7662 21.3167L63.0329 21.2833L63.2995 21.2444C63.5743 21.2089 63.8498 21.231 64.1162 21.3055L64.3829 21.3833L64.6495 21.4555L64.6606 21.4611C64.661 21.4611 64.6725 21.4598 64.694 21.45L64.9606 21.3278L65.2273 21.2C65.4786 21.084 65.7456 21.0148 66.0217 21L66.2884 20.9833L66.5551 20.9722C66.8587 20.9561 67.1501 21.0196 67.4217 21.1444L67.9551 21.3889C68.0507 21.4329 68.1313 21.4489 68.1995 21.45L68.4662 21.4555H68.7329C68.8685 21.4573 69.0068 21.4499 69.144 21.4278L69.6773 21.3389C69.8854 21.3052 70.0957 21.2887 70.3051 21.2833L70.5717 21.2722L70.8384 21.2667C71.0956 21.2602 71.3523 21.2971 71.5995 21.3722L71.8662 21.4555L72.1329 21.5333C72.279 21.5777 72.4232 21.611 72.5662 21.6333L72.8329 21.6778L73.0995 21.7167C73.2008 21.7324 73.3033 21.7338 73.4051 21.7167L73.6717 21.6722L73.9384 21.6222C74.1285 21.5899 74.3202 21.5658 74.5106 21.5444L74.7773 21.5111L75.044 21.4833C75.3151 21.453 75.587 21.4767 75.8495 21.55L76.1162 21.6278L76.3717 21.7C76.3755 21.6984 76.3816 21.6926 76.3884 21.6889L76.9217 21.4C77.1635 21.269 77.4295 21.2037 77.7051 21.2222L77.9773 21.2667L78.244 21.3389L78.4884 21.4111L78.5329 21.3833L78.6829 21.2944Z" fill="#303A4B"/>
</svg>
