<svg width="128" height="128" viewBox="0 0 128 128" fill="none" xmlns="http://www.w3.org/2000/svg">
<path d="M64.2051 31.3413L64.3447 31.3569L64.6133 31.3999L64.8809 31.4429C65.0237 31.4657 65.1654 31.4768 65.3057 31.4771L65.5732 31.478H65.8408C66.1534 31.4786 66.4472 31.5657 66.7139 31.7144L66.9746 31.8599L67.1377 31.9517L67.3389 31.8306L67.6162 31.6655L67.7725 31.5864C67.9368 31.5167 68.126 31.4784 68.3311 31.5015C68.5333 31.5243 68.7066 31.6016 68.8496 31.7007L68.9834 31.8062L69.2334 32.0308L69.4189 32.1987L69.5742 32.1431L69.8506 32.0454C70.1532 31.9383 70.4748 31.9124 70.7959 31.9917L71.3174 32.1206C71.4836 32.1616 71.6503 32.2001 71.8174 32.2358L72.0801 32.2925L72.3418 32.3481C72.5169 32.3856 72.6913 32.4237 72.8652 32.4614L73.126 32.5181L73.3857 32.5737C73.5558 32.6106 73.7261 32.6467 73.8965 32.6812L74.418 32.7866C74.5383 32.811 74.6625 32.8221 74.791 32.8188L75.334 32.8052C75.5582 32.7995 75.7804 32.8144 76 32.8501L76.2627 32.8921L76.5254 32.9351C76.6447 32.9545 76.7709 32.9606 76.9043 32.9517L77.459 32.9146C77.8173 32.8904 78.1517 32.9934 78.4365 33.2007L78.6709 33.3706L78.9043 33.5405C79.0029 33.6123 79.0973 33.6587 79.1875 33.687L79.4424 33.7671L79.6963 33.8472C79.7999 33.8797 79.909 33.8976 80.0254 33.8999L80.2988 33.9048L80.5723 33.9106C80.8683 33.9164 81.1519 33.9908 81.4121 34.1323L81.8926 34.394C82.0191 34.4629 82.1473 34.5193 82.2764 34.564L82.5264 34.6509L82.7773 34.7378C82.9034 34.7815 83.0348 34.8144 83.1709 34.8354L83.7041 34.9175C83.8394 34.9383 83.9825 34.9476 84.1338 34.9448L84.4189 34.9399L84.7031 34.9341C85.0992 34.9268 85.4507 35.082 85.7188 35.3599L85.9238 35.5728L86.1162 35.7729L86.3838 35.7661L86.6738 35.7583L86.8301 35.7632C87.1362 35.7898 87.4075 35.9199 87.6221 36.1313L87.7246 36.2437L87.916 36.4771L88.0762 36.6724L88.3154 36.6646L88.6113 36.6538C88.977 36.6414 89.3085 36.7694 89.5635 37.0181L89.668 37.1323L89.8555 37.3608L89.9922 37.5278L90.2402 37.5083L90.5498 37.4829L90.707 37.479C90.8658 37.484 91.0293 37.5175 91.1875 37.5923C91.3463 37.6675 91.4772 37.7734 91.582 37.895L91.6787 38.021L91.8486 38.2739L92.0176 38.5269C92.0765 38.6144 92.1308 38.6571 92.1729 38.6802L92.4062 38.8071L92.6387 38.9351C92.6864 38.9612 92.7547 38.9838 92.8574 38.9878L93.1553 38.9995L93.4541 39.0112C93.7715 39.0237 94.0713 39.1279 94.3203 39.3335L94.4238 39.4272L94.8145 39.8198C94.914 39.9197 95.0175 40.0057 95.125 40.0786L95.3457 40.228L95.5654 40.3765C95.6709 40.448 95.7853 40.5098 95.9092 40.561L96.1611 40.6655L96.4131 40.769C96.6922 40.8844 96.9304 41.0639 97.1201 41.2974L97.2949 41.5122L97.4697 41.728C97.5153 41.784 97.5656 41.821 97.626 41.8472L97.876 41.9556L98.127 42.064C98.3477 42.1595 98.5536 42.2813 98.7422 42.4282L98.9521 42.5913L99.1621 42.7554C99.308 42.8691 99.4528 42.986 99.5957 43.105L99.8018 43.2759L100.007 43.4468C100.099 43.5232 100.201 43.5895 100.315 43.645L100.562 43.7651L100.809 43.8853C101.162 44.057 101.395 44.3514 101.518 44.6978L101.62 44.9868L101.723 45.2769C101.735 45.3118 101.746 45.329 101.751 45.3354C101.755 45.3404 101.757 45.3426 101.76 45.3442L101.987 45.4878L102.215 45.6304C102.308 45.6891 102.422 45.7419 102.561 45.7847L102.847 45.8726L103.133 45.9614C103.462 46.063 103.749 46.2587 103.951 46.5562L104.104 46.7808L104.257 47.0063C104.342 47.1325 104.435 47.2519 104.533 47.3638L104.71 47.5659L104.887 47.7671C105.047 47.9492 105.182 48.1511 105.29 48.3696L105.412 48.6167L105.535 48.8638C105.605 49.0047 105.681 49.1384 105.763 49.2642L106.054 49.7134C106.079 49.7522 106.118 49.7921 106.191 49.8306L106.449 49.9663L106.706 50.1011C107.019 50.2657 107.241 50.5279 107.351 50.854L107.39 50.9976L107.517 51.5679C107.54 51.672 107.576 51.7457 107.616 51.8003L107.772 52.0132L107.93 52.2271C107.988 52.3067 108.064 52.3837 108.162 52.4556L108.39 52.6226L108.618 52.7905C108.913 53.0072 109.107 53.3108 109.18 53.6694L109.235 53.9478L109.292 54.2261C109.299 54.2621 109.31 54.2788 109.332 54.2983L109.542 54.4839L109.751 54.6704C110.033 54.9213 110.191 55.2531 110.22 55.6216L110.242 55.9116L110.258 56.1177L110.486 56.2495L110.762 56.4097C111.073 56.5901 111.309 56.8727 111.39 57.2417L111.414 57.4058L111.439 57.689L111.464 57.9712C111.473 58.0787 111.499 58.1683 111.536 58.2446L111.653 58.4839L111.771 58.7241C111.898 58.9847 111.96 59.2645 111.962 59.5522L111.964 59.8345L111.965 60.0835L112.187 60.2817L112.413 60.4849C112.431 60.5012 112.448 60.5189 112.466 60.5356C112.381 60.4995 112.296 60.4656 112.211 60.4331L111.961 60.3374L111.711 60.2427C111.628 60.2112 111.538 60.1932 111.435 60.1929H111.155L110.877 60.1919C110.546 60.1911 110.236 60.0929 109.965 59.9048L109.734 59.7446L109.504 59.5854C109.346 59.4759 109.189 59.3636 109.032 59.2495L108.805 59.0835L108.576 58.9165C108.546 58.8947 108.526 58.889 108.494 58.8892L108.214 58.8921L107.935 58.894C107.689 58.8962 107.447 58.8674 107.212 58.8062L106.953 58.7388L106.695 58.6714C106.449 58.6072 106.217 58.5047 106.001 58.3677L105.768 58.2202L105.551 58.0825C105.548 58.083 105.544 58.0836 105.54 58.0845L105.24 58.1519L104.941 58.2202C104.524 58.3149 104.109 58.2148 103.784 57.9155L103.567 57.7153L103.35 57.5142C103.263 57.4339 103.181 57.3854 103.105 57.356L102.607 57.1606C102.583 57.1513 102.541 57.1416 102.459 57.1577L102.162 57.2163L101.865 57.2739C101.592 57.3278 101.316 57.3366 101.043 57.2886L100.779 57.2427L100.515 57.1958C100.195 57.1394 99.9138 56.9914 99.6787 56.7798L99.46 56.5835L99.2412 56.3862C99.1232 56.28 99.0036 56.1896 98.8838 56.1138L98.6504 55.9653L98.416 55.8179C98.3943 55.8042 98.3739 55.7961 98.3311 55.7993L98.0459 55.8218L97.7607 55.8433C97.4249 55.8688 97.0992 55.7932 96.8096 55.6118L96.5762 55.4653L96.3418 55.3188C96.2845 55.283 96.2286 55.2646 96.165 55.2603L95.8916 55.2427L95.6182 55.2241C95.3471 55.2061 95.0858 55.1386 94.8408 55.021L94.3545 54.7866C94.3249 54.7725 94.2855 54.7617 94.2168 54.77L93.9268 54.8062L93.6377 54.8413C93.3039 54.8821 92.8305 54.8193 92.5508 54.3765L92.4414 54.2026L92.3311 54.0298C92.1708 53.776 92.1116 53.4918 92.1064 53.2222L92.0967 52.689C92.0932 52.5031 92.0927 52.3172 92.0957 52.1313L92.1006 51.8647L92.1045 51.5981C92.106 51.5055 92.091 51.4076 92.0557 51.3022L91.9668 51.0356L91.877 50.769C91.804 50.5515 91.7518 50.3301 91.7207 50.1069L91.6465 49.5737C91.6129 49.3326 91.6115 49.0904 91.6436 48.8491L91.6797 48.5825L91.7148 48.3159C91.7376 48.1445 91.7583 47.9726 91.7764 47.8013L91.8037 47.5347L91.832 47.2681C91.8522 47.077 91.8781 46.8856 91.9092 46.6948L91.9531 46.4282L91.9961 46.1616C92.0172 46.0322 92.0245 45.9036 92.0186 45.7759L92.0059 45.5093L91.9941 45.2427C91.9893 45.1393 91.968 45.0301 91.9268 44.9146L91.832 44.6479L91.7783 44.5005L91.75 44.4956C91.6106 44.4699 91.4402 44.4229 91.2549 44.3647L90.7217 44.1968C90.7076 44.1924 90.6999 44.1927 90.6963 44.1929C90.6926 44.193 90.6812 44.1938 90.6611 44.2017L90.3945 44.3062L90.1279 44.4116C89.8797 44.5093 89.621 44.565 89.3555 44.5728L89.0889 44.5806L88.8213 44.5884C88.6448 44.5935 88.4675 44.5991 88.291 44.605L87.7578 44.6226C87.4991 44.6311 87.2438 44.5963 86.9951 44.521L86.4619 44.3589C86.2615 44.2981 86.0615 44.2268 85.8633 44.145L85.3301 43.9243C85.3248 43.9221 85.3206 43.921 85.3184 43.9204C85.317 43.9208 85.3149 43.9215 85.3125 43.9224L85.0449 44.02L84.7783 44.1177C84.603 44.1818 84.4273 44.2469 84.252 44.313L83.7188 44.5142C83.2717 44.6826 82.8414 44.5681 82.5078 44.3179L82.2412 44.1177L81.9795 43.9214L81.7754 43.9731L81.5088 44.0405C81.2577 44.104 81.0016 44.1267 80.7441 44.106L80.4775 44.0845L80.21 44.063C80.0433 44.0495 79.8765 44.0395 79.71 44.0337L79.4434 44.0239L79.1768 44.0151C79.1223 44.0132 79.0543 44.0237 78.9678 44.064L78.7012 44.188L78.4346 44.313C78.1919 44.4261 77.937 44.5001 77.6729 44.5269L77.4062 44.5542L77.1396 44.5806C76.9218 44.6026 76.7025 44.6066 76.4844 44.5913L76.2178 44.5718L75.9512 44.5532C75.6846 44.5345 75.4266 44.4673 75.1807 44.3589L74.9141 44.2407L74.6924 44.1431L74.4619 44.2632L74.1953 44.4019C73.8752 44.5678 73.5152 44.6216 73.1504 44.5239L72.6172 44.3813C72.5467 44.3625 72.4824 44.3614 72.416 44.3755L71.8828 44.4888C71.6084 44.5473 71.3303 44.5481 71.0557 44.4907L70.5225 44.3794C70.3897 44.3516 70.2578 44.3366 70.1279 44.3354L69.5947 44.3315C69.4119 44.33 69.2287 44.3256 69.0459 44.3198L68.7783 44.312L68.5117 44.3032C68.289 44.2962 68.0673 44.2687 67.8477 44.2202L67.5811 44.1606L67.3145 44.1021C67.1663 44.0693 67.0184 44.0465 66.8721 44.0337L66.3389 43.9868C66.3175 43.985 66.2775 43.9863 66.2061 44.0249L65.9395 44.1694L65.6729 44.313C65.2752 44.528 64.8359 44.5181 64.4482 44.2964L64.1816 44.144L63.9141 43.9917C63.887 43.9762 63.8727 43.9727 63.8701 43.9722L63.6055 44.0249L63.3389 44.0767C63.2242 44.0993 63.1023 44.1393 62.9736 44.2007L62.707 44.3286L62.4404 44.4556C62.1438 44.597 61.8184 44.6533 61.4834 44.5972L61.2168 44.5522L60.9502 44.5083C60.7007 44.4664 60.4589 44.3866 60.2266 44.2749L59.96 44.146L59.7598 44.0503L59.5498 44.1685L59.2832 44.3188C59.0327 44.4598 58.7618 44.5547 58.4746 44.5845L58.208 44.6118L57.9404 44.6392C57.6142 44.6728 57.302 44.6049 57.0176 44.4634L56.4844 44.1978C56.3849 44.1482 56.3026 44.1297 56.2344 44.1265L55.7012 44.1011C55.5002 44.0917 55.299 44.0726 55.0986 44.0435L54.832 44.0044L54.5801 43.9673C54.5787 43.9679 54.5769 43.9693 54.5752 43.9702C54.567 43.9742 54.5537 43.9813 54.5371 43.9927L54.0039 44.3599C53.647 44.6053 53.2063 44.6796 52.7744 44.4839L52.2412 44.2417C52.0955 44.1756 51.9522 44.1239 51.8125 44.0854L51.2793 43.939C51.2401 43.9282 51.2062 43.9285 51.1602 43.9438L50.627 44.1216C50.3547 44.2126 50.0709 44.2453 49.7842 44.2114L49.5176 44.1792L49.251 44.1479C49.041 44.1231 48.8317 44.0842 48.624 44.0308L48.3574 43.9614L48.0908 43.8931C48.0653 43.8865 48.0409 43.8855 47.9971 43.9028L47.7305 44.0083L47.4639 44.1147C47.2668 44.1929 47.0681 44.2611 46.8691 44.3198L46.6025 44.3989L46.3359 44.4771C45.9697 44.5852 45.6046 44.5377 45.2783 44.3716L44.7451 44.1001C44.6242 44.0385 44.5137 44.0023 44.4131 43.9849L43.8799 43.8931C43.8758 43.894 43.8596 43.8987 43.8311 43.9155L43.5635 44.0737L43.2969 44.2319C43.0193 44.3965 42.7051 44.4922 42.3672 44.4761L41.834 44.4507C41.5447 44.4368 41.269 44.3562 41.0127 44.2261L40.7461 44.0903L40.498 43.9644L40.2627 44.0581L39.9961 44.1636C39.7777 44.2499 39.555 44.3147 39.3291 44.356L39.0625 44.4048L38.7949 44.4526C38.4736 44.5112 38.1568 44.4709 37.8613 44.3481L37.5947 44.2368L37.3281 44.1265C37.2209 44.0819 37.1243 44.0611 37.0361 44.0571L36.5029 44.0337C36.4684 44.0322 36.4378 44.0385 36.3965 44.063L36.1602 44.2036L36.1406 44.2144L36.1465 44.2368L36.2129 44.5034C36.256 44.6775 36.3007 44.8518 36.3467 45.0259L36.4873 45.5591C36.5931 45.9593 36.5013 46.3417 36.2969 46.6597L36.125 46.9263L35.9795 47.1519L36.0566 47.3462L36.1621 47.6128C36.2785 47.9066 36.3154 48.2194 36.2578 48.5356L36.1602 49.0688C36.1563 49.0903 36.1547 49.12 36.1807 49.1763L36.3037 49.4429L36.4277 49.7095C36.635 50.158 36.541 50.6106 36.2793 50.9644L36.082 51.231L35.918 51.4517L35.9824 51.6226L36.084 51.8892C36.193 52.1764 36.2291 52.4801 36.1797 52.7876L36.0938 53.3208C36.0487 53.6008 35.9434 53.8674 35.7646 54.0991L35.6172 54.2896L35.4707 54.48C35.3284 54.6644 35.1312 54.7994 34.8955 54.8589C34.673 54.9149 34.4595 54.8934 34.2822 54.8481L33.9805 54.771L33.7559 54.7134L33.6094 54.854L33.3936 55.0601C33.1102 55.3296 32.7464 55.4676 32.3457 55.436L32.0596 55.4136L31.7744 55.3911C31.6998 55.3852 31.6476 55.3972 31.6045 55.4175L31.3613 55.5327L31.1172 55.6479C30.9818 55.7119 30.8477 55.7853 30.7158 55.8687L30.4824 56.0171L30.248 56.1646C29.936 56.3617 29.5843 56.4226 29.2324 56.3677L28.9395 56.3218L28.6748 56.2798L28.4795 56.4458L28.2578 56.6333C27.9535 56.8906 27.579 56.9966 27.1875 56.9419L26.8965 56.9009L26.6318 56.8628L26.4346 57.0347L26.2139 57.2241C25.9385 57.4608 25.6007 57.5878 25.2305 57.5786L24.668 57.5649C24.5974 57.5632 24.5434 57.5764 24.4941 57.6021L24.2539 57.728L24.0127 57.854C23.8467 57.9407 23.6793 58.0253 23.5117 58.1069L23.2695 58.2251L23.0264 58.3433C22.803 58.452 22.5673 58.5265 22.3223 58.5669L21.791 58.6548C21.6246 58.6822 21.459 58.713 21.2949 58.7476L21.0332 58.8022L20.7715 58.8579C20.5956 58.8949 20.4184 58.9313 20.2422 58.9673L19.9805 59.021L19.7178 59.0747C19.5774 59.1034 19.4396 59.142 19.3057 59.1909L19.0557 59.2827L18.8047 59.3745C18.693 59.4153 18.5819 59.4715 18.4727 59.5444L18.2412 59.6987L18.0098 59.854C17.6881 60.0689 17.3206 60.1288 16.957 60.061L16.6611 60.0054L16.4287 59.9614L16.2607 60.1235L16.0449 60.3296C15.8853 60.4823 15.7007 60.5866 15.502 60.6431L15.501 60.603C15.4864 60.2681 15.5709 59.9456 15.7607 59.6626L15.9141 59.4351L16.0664 59.2075C16.1479 59.0859 16.2174 58.962 16.2754 58.8364L16.498 58.354C16.5481 58.2456 16.5871 58.1292 16.6123 58.0034L16.7197 57.4663C16.7888 57.1219 16.9686 56.8311 17.2295 56.6089L17.4492 56.4214L17.6699 56.2339C17.6775 56.2274 17.6821 56.2222 17.6846 56.2192C17.6865 56.2169 17.688 56.2151 17.6885 56.2144C17.6889 56.2137 17.6899 56.2119 17.6904 56.2104C17.6911 56.2084 17.6924 56.2038 17.6934 56.1978L17.7373 55.9214L17.7822 55.644C17.8208 55.4046 17.8862 55.173 17.9805 54.9526L18.0869 54.7056L18.1924 54.4585C18.2567 54.3082 18.3168 54.1532 18.373 53.9946L18.4648 53.7349L18.5566 53.4761C18.6686 53.1605 18.8698 52.9016 19.1377 52.7095L19.3701 52.5425L19.6035 52.3755C19.6347 52.3531 19.6448 52.3358 19.6533 52.3081L19.7363 52.0396L19.8193 51.77L19.8682 51.6343C19.9978 51.3273 20.227 51.0918 20.5215 50.9409L20.7861 50.8052L21.0508 50.6704C21.1102 50.64 21.1268 50.6141 21.1357 50.5972L21.3877 50.1187C21.5157 49.8751 21.6878 49.6635 21.9004 49.4888L22.3184 49.145C22.3209 49.1431 22.3383 49.1316 22.3525 49.0688L22.4199 48.771L22.4863 48.4741L22.5303 48.3198C22.6523 47.9713 22.9081 47.7013 23.2695 47.562L23.5469 47.4556L23.8242 47.3481C23.9411 47.3031 24.0273 47.2498 24.0918 47.1938L24.293 47.019L24.4932 46.8452C24.6403 46.7175 24.7932 46.595 24.9502 46.478L25.165 46.3179L25.3789 46.1577C25.3869 46.1518 25.4118 46.1329 25.4355 46.0591L25.623 45.4771C25.7255 45.1587 25.911 44.8739 26.1963 44.6685L26.415 44.5112L26.6348 44.354C26.8422 44.2047 27.07 44.0897 27.3145 44.0083L27.8555 43.8286C27.985 43.7855 28.0983 43.7318 28.1973 43.6694L28.4229 43.5269L28.6367 43.3911C28.6416 43.383 28.6532 43.3633 28.6641 43.3257L28.7559 43.0063L28.8486 42.687C28.9109 42.4724 29.0329 42.2467 29.252 42.0796C29.4719 41.9119 29.7232 41.8542 29.9492 41.853L30.6055 41.8491C30.6398 41.8489 30.6592 41.8444 30.668 41.8423L30.8555 41.6733L31.0527 41.4946C31.2005 41.3607 31.3552 41.2338 31.5146 41.1138L31.7275 40.9526L31.9414 40.7925C32.0878 40.6823 32.2355 40.5738 32.3838 40.4673L32.5996 40.312L32.8164 40.1567C32.9595 40.054 33.1031 39.9505 33.2471 39.8462L33.4648 39.688L33.6816 39.5308C33.8607 39.4011 34.0503 39.2884 34.249 39.1929L34.4893 39.0767L34.7295 38.9614C34.8489 38.904 34.9638 38.8352 35.0732 38.7544L35.29 38.5942L35.5078 38.4331C35.683 38.3038 35.8671 38.1892 36.0596 38.0903L36.2969 37.9683L36.5342 37.8472C36.8032 37.709 37.0942 37.6464 37.3916 37.646H37.6885L37.9844 37.645C38.0838 37.6449 38.1496 37.6257 38.1963 37.6021L38.4316 37.4829L38.668 37.3628C38.8411 37.2751 39.0178 37.1943 39.1973 37.1196L39.4424 37.0171L39.6875 36.9155C39.7063 36.9076 39.7486 36.8841 39.8066 36.8022L39.9883 36.5464L40.1709 36.2896C40.3618 36.0205 40.6184 35.8009 40.9473 35.6841L41.2002 35.5942L41.4531 35.5054C41.6633 35.4308 41.8798 35.3756 42.1016 35.3403L42.3711 35.2974L42.6396 35.2544C42.7185 35.2419 42.7904 35.2145 42.8604 35.1685L43.3213 34.8657C43.5907 34.6886 43.8944 34.5979 44.2148 34.5942L44.4951 34.5903L44.7764 34.5874C44.9301 34.5856 45.0773 34.5729 45.2178 34.5503L45.4824 34.5083L45.748 34.4653C45.9339 34.4355 46.1209 34.4088 46.3086 34.3862L46.5762 34.354L46.8438 34.3228C46.9614 34.3086 47.0731 34.2795 47.1797 34.2368L47.4268 34.1382L47.6748 34.0386C47.7838 33.9948 47.8953 33.9344 48.0088 33.854L48.2432 33.688L48.4766 33.522C48.6639 33.3892 48.8597 33.2742 49.0625 33.1772L49.5566 32.9409C49.7812 32.8336 50.0168 32.759 50.2617 32.7192L50.793 32.6333C50.9636 32.6056 51.1337 32.5757 51.3027 32.5435L51.5664 32.4927L51.8301 32.4429C52.1276 32.3863 52.4248 32.4083 52.7109 32.4917L52.9971 32.5757L53.2832 32.6587C53.2929 32.6615 53.3 32.6621 53.3037 32.6626L53.5537 32.5386L53.8037 32.4136C54.0726 32.2794 54.3636 32.2133 54.666 32.2231L55.207 32.2407C55.4084 32.2473 55.6103 32.2631 55.8125 32.2876L56.0859 32.3208L56.3584 32.354C56.5155 32.373 56.6697 32.3826 56.8203 32.3843L57.3535 32.3901C57.5016 32.3917 57.6493 32.3843 57.7959 32.3677L58.0596 32.3374L58.3232 32.3081C58.4488 32.2939 58.5754 32.2655 58.7031 32.2231L58.9619 32.1372L59.2217 32.0513C59.4744 31.9675 59.736 31.9298 60.002 31.9409L60.2695 31.9526L60.5361 31.9634C60.7336 31.9717 60.9318 31.9887 61.1289 32.0132L61.3955 32.0464L61.6631 32.0786C61.7829 32.0935 61.9002 32.0935 62.0166 32.0786L62.2803 32.0454L62.5449 32.0112C62.6021 32.0039 62.6824 31.9797 62.7881 31.9136L63.0537 31.7476L63.3203 31.5806C63.5821 31.4167 63.8829 31.3221 64.2051 31.3413Z" fill="#303A4B"/>
</svg>
