<svg width="128" height="128" viewBox="0 0 128 128" fill="none" xmlns="http://www.w3.org/2000/svg">
<path d="M100.198 97.6904C100.31 97.7742 100.425 97.8464 100.544 97.9062L101.017 98.1436C101.186 98.2291 101.353 98.3209 101.518 98.416L101.746 98.5488L101.975 98.6797C101.996 98.692 102.046 98.7144 102.151 98.7129L102.466 98.707L102.78 98.7031C103.124 98.698 103.465 98.7885 103.755 99.0117L103.97 99.1768L104.187 99.3428C104.322 99.4473 104.461 99.5498 104.602 99.6494L104.824 99.8076L105.047 99.9648C105.142 100.032 105.259 100.124 105.354 100.243C105.426 100.335 105.61 100.606 105.519 100.96L105.634 101.154L105.773 101.388C105.782 101.402 105.8 101.427 105.865 101.456L106.42 101.7C106.764 101.852 107.035 102.116 107.175 102.484L107.374 103.011C107.449 103.21 107.514 103.414 107.568 103.622L107.64 103.896L107.711 104.172C107.808 104.545 107.732 104.9 107.536 105.195L107.444 105.319L107.247 105.557L107.05 105.796C107.029 105.821 107.019 105.84 107.013 105.851L107.009 106.03L107.006 106.249C107.003 106.405 106.95 106.856 106.487 107.035C106.298 107.108 106.124 107.094 106.013 107.071C105.9 107.048 105.801 107.009 105.728 106.972L105.482 106.849L105.235 106.726C104.897 106.557 104.666 106.277 104.533 105.945L104.418 105.66L104.304 105.375C104.291 105.344 104.282 105.332 104.281 105.331L104.041 105.206L103.8 105.082C103.669 105.014 103.533 104.956 103.392 104.906L103.134 104.815L102.875 104.726C102.762 104.686 102.646 104.649 102.53 104.616L102.66 104.729L102.878 104.912C103.165 105.156 103.333 105.483 103.372 105.854L103.434 106.433C103.46 106.683 103.456 106.932 103.417 107.176L103.374 107.443L103.332 107.71C103.313 107.833 103.309 107.942 103.319 108.037L103.37 108.527C103.395 108.768 103.38 109.01 103.331 109.249L103.278 109.509L103.225 109.77C103.203 109.876 103.168 110.018 103.1 110.149C103.057 110.23 102.833 110.627 102.344 110.591L102.186 110.579C101.929 110.56 101.748 110.418 101.691 110.373C101.604 110.304 101.523 110.222 101.45 110.142L101.269 109.94L101.088 109.741C101.041 109.689 100.977 109.64 100.884 109.6L100.616 109.484L100.349 109.368C100.073 109.249 99.8299 109.073 99.6396 108.834L99.4727 108.625L99.3066 108.416C99.2463 108.34 99.1743 108.277 99.0898 108.224L98.6338 107.938C98.3921 107.786 98.1918 107.587 98.0361 107.349L97.8848 107.117L97.7314 106.885C97.6391 106.744 97.5423 106.606 97.4414 106.473L97.2754 106.253L97.1113 106.034H97.1094C97.1052 106.033 97.0966 106.03 97.084 106.027L96.7891 105.973L96.4951 105.918C96.1738 105.858 95.8754 105.715 95.6357 105.475L95.4463 105.284L95.2559 105.093C95.0963 104.932 94.9513 104.755 94.8213 104.563L94.6611 104.326L94.502 104.09C94.4356 103.992 94.3616 103.917 94.2842 103.857L94.0713 103.693L93.8574 103.531C93.7611 103.458 93.6562 103.396 93.542 103.346L93.293 103.237L93.0439 103.128C92.8313 103.035 92.6301 102.92 92.4434 102.784L92.0107 102.468C92.0014 102.461 91.9904 102.456 91.9805 102.45L92.0146 102.444L92.292 102.398C92.5838 102.35 92.8562 102.237 93.0947 102.058L93.3096 101.896L93.5244 101.734C93.5688 101.701 93.6255 101.674 93.708 101.661L93.9922 101.616L94.2754 101.57C94.5413 101.528 94.7952 101.444 95.0293 101.312L95.2637 101.181L95.498 101.05C95.7624 100.902 95.9755 100.693 96.1396 100.443L96.4619 99.9531C96.5352 99.8416 96.6135 99.7551 96.6924 99.6885L97.1006 99.3447C97.1253 99.3239 97.1672 99.299 97.25 99.2861L97.5459 99.2402L97.8408 99.1953C98.1296 99.1509 98.4037 99.0508 98.6484 98.8857L98.8721 98.7354L99.0947 98.585C99.3133 98.4374 99.5017 98.2541 99.6582 98.041L99.9883 97.5918C99.9979 97.5787 100.01 97.5675 100.02 97.5557L100.198 97.6904ZM70.7979 12.3076C71.1202 12.2061 71.4561 12.2287 71.7695 12.3711L72.3027 12.6133C72.4251 12.6689 72.5397 12.7027 72.6465 12.7188L72.9131 12.7578L73.1797 12.7979C73.2749 12.8121 73.3704 12.8104 73.4678 12.791L73.7354 12.7373L74.002 12.6836C74.2126 12.6413 74.4251 12.6147 74.6377 12.6035L74.9043 12.5889L75.1709 12.5752C75.3914 12.5636 75.6124 12.5715 75.832 12.5996L76.3652 12.668C76.4035 12.6728 76.4514 12.6701 76.5205 12.6396L77.0537 12.4033C77.3942 12.2529 77.7628 12.236 78.1182 12.3652L78.3848 12.4619L78.6514 12.5596C78.7911 12.6104 78.9283 12.647 79.0615 12.6699L79.3271 12.7158L79.5938 12.7607C79.6834 12.7761 79.7724 12.7754 79.8643 12.7568L80.1309 12.7031L80.3975 12.6484C80.6388 12.5995 80.8834 12.5847 81.1279 12.6045L81.3936 12.626L81.6582 12.6475C81.7688 12.6564 81.8843 12.6499 82.0049 12.627L82.5479 12.5234C82.8965 12.4571 83.2377 12.5171 83.5439 12.6826L83.7979 12.8193L84.042 12.9521L84.3174 12.8662L84.5977 12.7803C84.9224 12.6804 85.2558 12.6979 85.5625 12.8369L85.6924 12.9033L86.1865 13.1924C86.2731 13.2428 86.3518 13.2668 86.4238 13.2754L86.6875 13.3066L86.9521 13.3389C87.1922 13.3675 87.426 13.4278 87.6504 13.5195L87.9004 13.6221L88.1494 13.7236C88.251 13.7651 88.3551 13.7916 88.4629 13.8018L88.7305 13.8262L88.9971 13.8516C89.1225 13.8633 89.2584 13.8622 89.4043 13.8457L89.6914 13.8135L89.9785 13.7803L90.1455 13.7725C90.5278 13.7784 90.8563 13.9573 91.0938 14.2402L91.2969 14.4834L91.3975 14.6035L91.5771 14.5469L91.8926 14.4463C92.0964 14.3816 92.3363 14.3562 92.584 14.4248C92.7727 14.4772 92.9302 14.5748 93.0566 14.6943L93.1738 14.8203L93.3682 15.0625L93.5488 15.2861L93.7861 15.29L94.0723 15.2949C94.3643 15.2993 94.6477 15.3649 94.9102 15.499L95.1494 15.6211L95.3887 15.7441C95.5288 15.8158 95.6727 15.8807 95.8184 15.9395L96.0664 16.04L96.3154 16.1406C96.5301 16.2273 96.734 16.3377 96.9248 16.4697L97.1465 16.623L97.3691 16.7764C97.4776 16.8514 97.5921 16.9148 97.7119 16.9658L97.959 17.0713L98.2061 17.1758C98.4917 17.2974 98.7284 17.4901 98.9141 17.7324L99.0898 17.9609L99.2646 18.1904C99.2759 18.2051 99.284 18.2106 99.2861 18.2119C99.2876 18.2128 99.2933 18.2159 99.3057 18.2188L99.5791 18.2803L99.8535 18.3418C100.223 18.4247 100.523 18.6393 100.727 18.9502L100.885 19.1934L101.044 19.4355C101.066 19.4685 101.078 19.474 101.092 19.4785L101.354 19.5654L101.617 19.6514C101.793 19.7094 101.971 19.7692 102.149 19.8291L102.415 19.918L102.682 20.0078C103.081 20.1424 103.354 20.4373 103.496 20.8027L103.608 21.0918L103.712 21.3594L104.204 21.5234C104.42 21.5955 104.628 21.6843 104.826 21.79L105.068 21.9199L105.311 22.0488C105.592 22.1995 105.816 22.421 105.974 22.6963L106.113 22.9395L106.252 23.1826C106.327 23.3133 106.409 23.4334 106.496 23.541L106.832 23.957C106.908 24.0509 106.995 24.1352 107.092 24.209L107.306 24.3711L107.52 24.5342C107.645 24.6296 107.778 24.7218 107.917 24.8096L108.15 24.957L108.385 25.1045C108.723 25.3181 108.922 25.6447 108.997 26.0117L109.058 26.3115L109.095 26.4961L109.302 26.5586L109.607 26.6514C109.954 26.756 110.249 26.9789 110.411 27.3223L110.473 27.4775L110.56 27.749L110.647 28.0205C110.695 28.1682 110.751 28.305 110.814 28.4307L110.936 28.6719L111.057 28.9121C111.062 28.923 111.077 28.948 111.138 28.9795L111.405 29.1182L111.674 29.2559C111.93 29.3881 112.157 29.5655 112.339 29.791L112.508 30.001L112.678 30.2119C112.895 30.4822 113.003 30.8016 113.021 31.1328L113.038 31.4365L113.056 31.7412C113.064 31.8872 113.088 32.0098 113.123 32.1113L113.21 32.3662L113.298 32.6221C113.333 32.7253 113.382 32.8193 113.444 32.9043L113.602 33.1191L113.759 33.335C113.862 33.4756 113.966 33.617 114.072 33.7578L114.234 33.9736L114.396 34.1885C114.527 34.3617 114.642 34.5448 114.743 34.7354L114.868 34.9707L114.992 35.207C115.045 35.3061 115.115 35.4042 115.203 35.5L115.395 35.708L115.587 35.916C115.867 36.2197 115.973 36.6016 115.928 36.9912L115.894 37.2939L115.864 37.542L116.037 37.7021L116.256 37.9053C116.484 38.1169 116.657 38.3768 116.749 38.6826L116.826 38.9404L116.903 39.1973C116.984 39.4656 117.004 39.7434 116.976 40.0215L116.946 40.3105L116.917 40.585L117.101 40.7969L117.293 41.0195C117.476 41.2321 117.617 41.4733 117.705 41.7402L117.79 41.9961L117.874 42.252C117.975 42.5591 117.979 42.8752 117.907 43.1816L117.84 43.4717L117.782 43.7119L117.943 43.9131L118.132 44.1475C118.364 44.4368 118.485 44.7912 118.445 45.1777L118.416 45.4551L118.388 45.7324C118.374 45.8693 118.374 46.0005 118.388 46.125L118.417 46.3896L118.446 46.6553C118.466 46.8313 118.486 47.0081 118.506 47.1846L118.535 47.4512L118.564 47.7168C118.589 47.9361 118.594 48.1572 118.579 48.3779L118.562 48.6465L118.543 48.9141C118.535 49.0357 118.541 49.1569 118.562 49.2764L118.609 49.54L118.655 49.8047C118.685 49.9753 118.718 50.147 118.752 50.3184L118.806 50.584L118.858 50.8486C118.909 51.1006 118.917 51.3565 118.885 51.6113L118.852 51.8799L118.817 52.1475C118.795 52.3213 118.775 52.4952 118.757 52.668L118.7 53.2012C118.677 53.4225 118.633 53.6425 118.569 53.8594L118.413 54.3926C118.403 54.4288 118.402 54.4585 118.416 54.5L118.506 54.7666L118.595 55.0332C118.666 55.246 118.72 55.4623 118.755 55.6797L119.013 57.2793C119.044 57.4712 119.069 57.6642 119.088 57.8564L119.141 58.3896C119.17 58.6891 119.123 58.982 119.013 59.2578L118.798 59.791C118.732 59.9557 118.672 60.1204 118.617 60.2842L118.528 60.5518L118.443 60.8047C118.444 60.8057 118.445 60.8075 118.445 60.8086L118.511 60.9414C118.284 60.7962 118.03 60.7122 117.763 60.6855L117.175 60.627C117.052 60.6147 116.963 60.5872 116.9 60.5557L116.673 60.4414L116.445 60.3262C116.341 60.274 116.231 60.2043 116.117 60.1143L116.058 60.0664C116.053 60.1713 116.061 60.2719 116.083 60.3691L116.141 60.6299L116.199 60.8906C116.249 61.1156 116.274 61.3449 116.274 61.5762V62.1162C116.274 62.1728 116.288 62.2313 116.324 62.2988L116.592 62.7969C116.757 63.1048 116.81 63.445 116.747 63.7891L116.696 64.0664L116.646 64.3447C116.639 64.3823 116.642 64.4048 116.656 64.4336L116.9 64.9355C117.04 65.2217 117.094 65.5313 117.06 65.8486L117.03 66.123L117 66.3984C116.983 66.5521 116.977 66.702 116.979 66.8467L116.989 67.376C116.993 67.581 116.985 67.7874 116.965 67.9932L116.938 68.2607L116.911 68.5283C116.909 68.5465 116.91 68.5811 116.945 68.6465L117.236 69.1758C117.459 69.5809 117.44 70.0267 117.211 70.4131L117.052 70.6807L116.94 70.8682L117.038 71.0479L117.183 71.3154C117.397 71.7101 117.392 72.1487 117.171 72.5381L117.021 72.8037L116.901 73.0107L116.998 73.2158L117.125 73.4854C117.29 73.8334 117.312 74.2171 117.165 74.5859L117.061 74.8496L116.955 75.1143C116.916 75.2113 116.901 75.2988 116.901 75.3799V75.6465L116.902 75.9131C116.903 76.0487 116.915 76.1874 116.939 76.3271L117.035 76.8643C117.087 77.1576 117.066 77.4519 116.977 77.7354L116.811 78.2607C116.772 78.3821 116.75 78.5011 116.742 78.6182L116.727 78.8838L116.71 79.1504C116.701 79.293 116.702 79.4376 116.714 79.583L116.736 79.8516L116.758 80.1201C116.771 80.279 116.791 80.4401 116.818 80.6016L116.863 80.8721L116.908 81.1436C116.948 81.3811 116.958 81.6202 116.938 81.8584L116.893 82.3916C116.874 82.6036 116.841 82.8144 116.792 83.0225L116.729 83.2852L116.668 83.5469C116.647 83.635 116.643 83.7262 116.656 83.8232L116.693 84.0957L116.73 84.3691C116.79 84.8072 116.62 85.1848 116.355 85.4668L116.128 85.709L115.995 85.8496L116.057 85.9883L116.183 86.2725C116.362 86.679 116.332 87.1213 116.068 87.498L115.896 87.7432L115.725 87.9893C115.723 87.9913 115.722 87.9935 115.721 87.9951L115.767 88.2588L115.814 88.5352C115.858 88.7846 115.865 89.0359 115.834 89.2852L115.802 89.5498L115.769 89.8154C115.732 90.1073 115.627 90.3779 115.469 90.6221L115.312 90.8643L115.153 91.1074C115.107 91.1787 115.09 91.2374 115.086 91.2881L115.064 91.5537L115.042 91.8203C115.026 92.0136 115.003 92.2063 114.974 92.3975L114.934 92.6602L114.894 92.9238C114.863 93.1263 114.82 93.3269 114.766 93.5244L114.695 93.7812L114.624 94.0381C114.598 94.133 114.586 94.236 114.592 94.3486L114.619 94.9033C114.63 95.1178 114.626 95.3315 114.609 95.543L114.588 95.8145L114.566 96.085C114.542 96.3869 114.444 96.6694 114.28 96.9219L114.128 97.1553L113.976 97.3896C113.883 97.5326 113.796 97.6768 113.716 97.8203L113.584 98.0566L113.451 98.2939C113.401 98.3832 113.369 98.4758 113.352 98.5732L113.304 98.8379L113.257 99.1016C113.221 99.3038 113.174 99.5041 113.115 99.7002L113.038 99.9561L112.962 100.212C112.921 100.349 112.89 100.493 112.867 100.643L112.827 100.916L112.786 101.189C112.743 101.478 112.637 101.748 112.47 101.988L112.314 102.211L112.159 102.435C112.026 102.626 111.868 102.805 111.679 102.943L111.518 103.062L111.356 103.179C111.29 103.227 111.164 103.309 110.991 103.34C110.783 103.377 110.534 103.333 110.337 103.153C110.174 103.005 110.116 102.828 110.094 102.736C110.069 102.634 110.062 102.537 110.062 102.463L110.06 102.196L110.057 101.93C110.054 101.629 110.128 101.342 110.262 101.077L110.393 100.818L110.521 100.562L110.435 100.294L110.346 100.021C110.261 99.7602 110.223 99.4908 110.24 99.2178L110.273 98.6865C110.282 98.5503 110.278 98.4112 110.263 98.2715L110.234 98.0029L110.205 97.7344C110.185 97.5496 110.167 97.3642 110.151 97.1797L110.106 96.6426C110.081 96.335 110.139 96.0368 110.265 95.7598L110.383 95.5L110.501 95.2393C110.57 95.0876 110.63 94.9359 110.681 94.7852L110.856 94.2598C110.895 94.1457 110.915 94.0344 110.92 93.9258L110.931 93.6592L110.942 93.3926C110.947 93.2936 110.935 93.1882 110.903 93.0762L110.827 92.8057L110.752 92.5352C110.68 92.2785 110.652 92.015 110.673 91.75L110.694 91.4844L110.715 91.2178C110.726 91.0811 110.725 90.9433 110.713 90.8047L110.688 90.5361L110.664 90.2686C110.644 90.0495 110.644 89.8298 110.662 89.6113L110.707 89.0801C110.728 88.8359 110.781 88.5957 110.867 88.3633L110.965 88.1006L111.049 87.8691L110.912 87.6055L110.771 87.334C110.571 86.9503 110.566 86.5218 110.776 86.1328L110.918 85.8701L111.018 85.6855L110.907 85.4834L110.759 85.2129C110.607 84.9356 110.52 84.6264 110.537 84.2979L110.551 84.0322L110.564 83.7656C110.576 83.5443 110.608 83.3241 110.659 83.1064L110.723 82.8408L110.785 82.5762C110.821 82.4238 110.849 82.2707 110.868 82.1191L110.901 81.8535L110.936 81.5869C110.946 81.5064 110.94 81.4227 110.915 81.332L110.841 81.0645L110.768 80.7969C110.701 80.555 110.668 80.3077 110.673 80.0586L110.679 79.793L110.684 79.5264C110.689 79.2829 110.728 79.0422 110.798 78.8066L110.877 78.54L110.956 78.2744C110.973 78.218 110.973 78.1692 110.96 78.1162L110.827 77.583C110.775 77.373 110.738 77.1606 110.717 76.9482L110.689 76.6816L110.663 76.416C110.635 76.1339 110.67 75.8547 110.759 75.5869L110.848 75.3203L110.937 75.0527C110.996 74.8735 111.057 74.6935 111.118 74.5137L111.209 74.2451L111.301 73.9775C111.338 73.8681 111.354 73.7659 111.354 73.6699V73.4033L111.355 73.1357C111.356 72.9656 111.353 72.795 111.348 72.625L111.339 72.3574L111.331 72.0908C111.33 72.0512 111.317 71.9912 111.266 71.9053L111.107 71.6426L110.95 71.3809C110.809 71.1457 110.715 70.8847 110.694 70.6055L110.69 70.4844V69.9512C110.69 69.8177 110.678 69.6938 110.655 69.5791L110.651 69.5625L110.524 69.5928C110.166 69.6769 109.806 69.628 109.482 69.4443L108.988 69.1631C108.924 69.1263 108.869 69.1146 108.817 69.1143L108.548 69.1123L108.277 69.1104C108.144 69.1094 108.005 69.1213 107.861 69.1475L107.582 69.1982L107.304 69.249C107.022 69.3002 106.738 69.2933 106.459 69.2207L106.2 69.1533L105.941 69.085C105.75 69.0351 105.56 68.9776 105.372 68.9121L104.86 68.7344C104.711 68.6824 104.561 68.6377 104.41 68.6006L104.15 68.5371L103.891 68.4727C103.739 68.4355 103.586 68.4056 103.433 68.3828L103.168 68.3438L102.904 68.3047C102.646 68.2664 102.399 68.1839 102.167 68.0625L101.918 67.9326L101.728 67.833L101.46 67.9551L101.167 68.0879C100.811 68.2495 100.405 68.2796 100.017 68.0889L99.7666 67.9658L99.5166 67.8438C99.3848 67.779 99.2529 67.7265 99.1211 67.6875L98.6055 67.5352C98.5841 67.5289 98.5476 67.5229 98.4775 67.5449L98.1934 67.6348L97.9082 67.7246C97.5556 67.8353 97.1845 67.818 96.8408 67.6455L96.5918 67.5205L96.3418 67.3955C96.2538 67.3514 96.1703 67.3288 96.0879 67.3223L95.5547 67.2793C95.3222 67.2608 95.0937 67.2155 94.8711 67.1445L94.6143 67.0635L94.3574 66.9814C94.163 66.9194 93.9709 66.8463 93.7812 66.7637L93.5293 66.6533L93.2764 66.5439C93.2442 66.53 93.2129 66.5248 93.1631 66.5342L92.6045 66.6396C92.3107 66.6956 92.0133 66.6832 91.7246 66.5938L91.4678 66.5146L91.2109 66.4346C90.987 66.3652 90.7707 66.2702 90.5635 66.1514L90.3164 66.0098L90.1543 65.917L89.9072 66.042L89.6123 66.1904C89.4228 66.2859 89.1951 66.3486 88.9453 66.3252C88.6918 66.3013 88.4753 66.1942 88.3037 66.0508L88.0664 65.8516L87.8291 65.6533C87.6788 65.5276 87.4965 65.3666 87.3887 65.2012L87.3262 65.1055L87.2637 65.0088C87.2253 64.9499 87.1503 64.8379 87.0371 64.6699L86.8662 64.417L86.6963 64.1641C86.4894 63.8569 86.3951 63.4925 86.4688 63.1074L86.5215 62.8359L86.5732 62.5635C86.5958 62.4452 86.6008 62.3323 86.5908 62.2246L86.542 61.6934C86.5333 61.6003 86.5079 61.5028 86.4609 61.3994L86.3438 61.1416L86.2275 60.8848C86.1208 60.6497 86.0495 60.4031 86.0205 60.1484L85.9902 59.8828L85.9609 59.6182C85.9239 59.2914 85.9905 58.9776 86.125 58.6914L86.2559 58.4121L86.3486 58.2129L86.2354 58.0391L86.0693 57.7861C85.8858 57.506 85.7828 57.1825 85.8037 56.832L85.8203 56.5625L85.8359 56.293C85.8436 56.1639 85.8377 56.0365 85.8184 55.9111L85.7783 55.6475L85.7373 55.3828C85.6906 55.0791 85.7267 54.7793 85.8281 54.4951L86.0254 53.9424C86.051 53.8706 86.0502 53.8241 86.043 53.7891L85.9873 53.5254L85.9326 53.2646L85.8379 53.1943L85.6807 53.0791C85.6364 53.0464 85.5552 52.998 85.4219 52.9424L84.9199 52.7334C84.8449 52.7021 84.7711 52.667 84.6973 52.6318C84.6916 52.7458 84.6821 52.8585 84.667 52.9688L84.5947 53.498C84.5563 53.7787 84.4568 54.0423 84.3125 54.2852L84.1611 54.541L84.0566 54.7148L84.1631 54.9229L84.3057 55.2021C84.4746 55.5337 84.5277 55.9132 84.3975 56.2939L84.3086 56.5547L84.2188 56.8154C84.1566 56.9969 84.0907 57.1786 84.0215 57.3594L83.9229 57.6191L83.8369 57.8428L83.9775 58.1172L84.1201 58.3965C84.2759 58.7011 84.3459 59.0465 84.2725 59.4053L84.2188 59.668L84.1641 59.9316C84.1402 60.0484 84.1309 60.1661 84.1367 60.2852L84.1504 60.5537L84.1631 60.8223C84.1783 61.1326 84.1091 61.4301 83.9717 61.7031L83.8428 61.96L83.7129 62.2178C83.704 62.2355 83.7017 62.2456 83.7012 62.249C83.7009 62.2511 83.7003 62.2577 83.7031 62.2705L83.8262 62.8154C83.9077 63.1763 83.8486 63.5306 83.6738 63.8457L83.5322 64.1025L83.3896 64.3584C83.3505 64.4289 83.3239 64.4825 83.3076 64.5205C83.2901 64.5614 83.2904 64.5693 83.2939 64.5518L83.2373 64.8389C83.1764 65.1446 82.967 65.3593 82.7207 65.46C82.5191 65.5422 82.318 65.5408 82.1836 65.5293L81.917 65.5059L81.6504 65.4834C81.545 65.4743 81.4385 65.4803 81.3291 65.5039L81.0615 65.5625L80.7949 65.6201C80.6533 65.6508 80.5094 65.6937 80.3633 65.749L79.8301 65.9502C79.5356 66.0616 79.2238 66.0936 78.9102 66.0332L78.6436 65.9814L78.377 65.9307C78.1911 65.8948 78.0051 65.855 77.8193 65.8125L77.5527 65.752L77.2861 65.6904C77.2746 65.6878 77.2575 65.6839 77.2119 65.7051L76.9453 65.8291L76.6787 65.9541C76.3286 66.1173 75.9468 66.1336 75.582 65.9883L75.0488 65.7754C75.0306 65.7681 75.0214 65.7676 75.0195 65.7676C75.0181 65.7675 75.0121 65.7673 74.999 65.7715L74.4658 65.9453C74.2364 66.02 74.0021 66.0665 73.7646 66.084L73.498 66.1045L73.2314 66.124C73.0377 66.1382 72.8433 66.1456 72.6494 66.1465L72.1162 66.1484C71.7575 66.1501 71.436 66.02 71.165 65.8262L70.8984 65.6357L70.6699 65.4717L70.4893 65.5381L70.2227 65.6357C69.9864 65.7218 69.7431 65.7748 69.4951 65.792L68.9619 65.8291C68.8246 65.8386 68.6853 65.8599 68.5449 65.8936L68.2783 65.958L68.0117 66.0215C67.7898 66.0747 67.5655 66.1066 67.3398 66.1152L67.0723 66.125L66.8057 66.1348C66.4787 66.1471 66.1724 66.0588 65.8975 65.9043L65.6309 65.7549L65.3643 65.6045C65.2621 65.547 65.1802 65.5253 65.1162 65.5195L64.8496 65.4951L64.583 65.4717C64.5141 65.4655 64.4389 65.4739 64.3525 65.5049L63.8193 65.6963C63.6346 65.7627 63.4496 65.826 63.2646 65.8857L62.9971 65.9717L62.7305 66.0576C62.435 66.153 62.1282 66.1701 61.8232 66.1016L61.5566 66.041L61.29 65.9814C61.1425 65.9482 60.9952 65.925 60.8496 65.9121L60.3164 65.8652C60.1604 65.8514 60.0044 65.8442 59.8486 65.8447L59.5811 65.8457L59.3145 65.8467C59.0782 65.8475 58.8437 65.8196 58.6123 65.7637L58.0791 65.6348C58.0044 65.6167 57.9341 65.6163 57.8613 65.6318L57.3281 65.7451C57.169 65.7792 57.0088 65.8205 56.8486 65.8682L56.3154 66.0264C56.0558 66.1036 55.7884 66.1335 55.5186 66.1104L55.251 66.0869L54.9844 66.0645C54.7141 66.0412 54.4544 65.9654 54.208 65.8486L53.9414 65.7227L53.7471 65.6309L53.54 65.7539L53.2734 65.9111C53.0841 66.0225 52.8582 66.0928 52.6094 66.0801C52.363 66.0673 52.1487 65.9758 51.9746 65.8555L51.708 65.6709L51.5273 65.5459L51.375 65.626L51.1084 65.7656C50.8628 65.894 50.6013 65.9802 50.3271 66.0117L50.0596 66.042L49.793 66.0732C49.5191 66.1046 49.247 66.0799 48.9824 66.0039L48.7158 65.9268L48.4492 65.8506C48.4229 65.843 48.4018 65.842 48.3633 65.8564L47.8301 66.0576C47.3782 66.2279 46.9453 66.1067 46.6133 65.8525L46.3467 65.6484L46.2334 65.5615L46.1299 65.6377L45.8633 65.832C45.5847 66.0342 45.2482 66.1665 44.8711 66.1445L44.3379 66.1133C44.0859 66.0985 43.8388 66.0442 43.5996 65.9561L43.333 65.8584L43.0664 65.7598C42.924 65.7073 42.7837 65.6685 42.6465 65.6426L42.3799 65.5918L42.1133 65.542C41.9945 65.5195 41.8777 65.5126 41.7617 65.5205L41.4941 65.5391L41.2275 65.5566C41.0925 65.566 40.9551 65.5875 40.8154 65.6221L40.5479 65.6895L40.2793 65.7559C40.1507 65.7878 40.0255 65.8329 39.9043 65.8926L39.4043 66.1387C39.037 66.3194 38.647 66.3118 38.292 66.1729L37.7139 65.9463C37.6328 65.9146 37.5953 65.9208 37.582 65.9238L37.3213 65.9834L37.0615 66.043C36.953 66.0677 36.8421 66.1078 36.7295 66.168L36.2334 66.4336C35.9654 66.5769 35.6727 66.6507 35.3662 66.6455L35.0947 66.6416L34.8242 66.6367C34.6861 66.6344 34.5508 66.644 34.4189 66.666L33.8936 66.7539C33.7005 66.7861 33.5058 66.8116 33.3105 66.8291L33.0439 66.8525L32.7773 66.877C32.6587 66.8876 32.5416 66.9128 32.4258 66.9531L32.1699 67.042L31.915 67.1309C31.739 67.1921 31.5617 67.2511 31.3848 67.3076L31.1279 67.3896L30.8721 67.4717C30.689 67.5301 30.5043 67.5836 30.3193 67.6318L30.0596 67.6992L29.8008 67.7666C29.6569 67.8041 29.5135 67.8516 29.3711 67.9082L29.1172 68.0088L28.8643 68.1094C28.5024 68.2532 28.1309 68.2294 27.7949 68.0957L27.5059 67.9805L27.2627 67.8828L27.0801 67.999L26.835 68.1533C26.4959 68.3671 26.1091 68.4174 25.7295 68.3076L25.4453 68.2256L25.1621 68.1436C25.0689 68.1166 25.0004 68.1168 24.9473 68.127L24.6855 68.1768L24.4229 68.2266C24.2596 68.2578 24.0966 68.2929 23.9346 68.332L23.6748 68.3945L23.415 68.458C23.2026 68.5093 22.9868 68.542 22.7686 68.5566L22.501 68.5742L22.2334 68.5928C22.1398 68.599 22.0466 68.6207 21.9521 68.6621L21.7002 68.7734L21.4482 68.8838C21.2328 68.9783 21.0102 69.0484 20.7812 69.0918L20.5186 69.1416L20.2568 69.1904C20.0861 69.2227 19.9154 69.2569 19.7451 69.292L19.4834 69.3457L19.2217 69.4004C19.0717 69.4314 18.9225 69.4699 18.7744 69.5166L18.5176 69.5977L18.2598 69.6787C18.0399 69.748 17.8163 69.7932 17.5908 69.8096L17.3418 69.8271L17.3154 69.8281L17.29 69.9062L17.2158 70.127L17.373 70.3916L17.5332 70.6631C17.7124 70.9663 17.8005 71.3201 17.7295 71.6943L17.6787 71.959L17.6289 72.2246C17.5985 72.3846 17.5742 72.5451 17.5557 72.7051L17.5244 72.9717L17.4932 73.2373C17.4691 73.4452 17.4318 73.6526 17.3809 73.8584L17.3145 74.124L17.249 74.3906C17.2231 74.4953 17.2149 74.5965 17.2227 74.6963L17.2432 74.9639L17.2646 75.2305C17.2794 75.4194 17.2891 75.609 17.2949 75.7979L17.3037 76.0645L17.3115 76.332C17.3176 76.5317 17.3142 76.732 17.3018 76.9316L17.2686 77.4648C17.2575 77.6413 17.2474 77.8186 17.2373 77.9951L17.2217 78.2617L17.2061 78.5293C17.1994 78.6467 17.2081 78.765 17.2314 78.8848L17.2832 79.1514L17.3359 79.418C17.3718 79.6011 17.4054 79.7847 17.4365 79.9678L17.4814 80.2334L17.5264 80.5C17.5679 80.7445 17.5736 80.9912 17.5439 81.2373L17.5117 81.5049L17.4795 81.7715C17.453 81.9911 17.4072 82.2099 17.3428 82.4258L17.1826 82.9629C17.1712 83.001 17.1713 83.0289 17.1836 83.0654L17.3633 83.5947C17.4696 83.9095 17.476 84.2371 17.3828 84.5557L17.3037 84.8252L17.2246 85.0938C17.2109 85.1406 17.212 85.1767 17.2246 85.2178L17.3887 85.7471C17.4535 85.957 17.502 86.1697 17.5332 86.3838L17.5713 86.6494L17.6104 86.915C17.632 87.0635 17.6629 87.213 17.7031 87.3623L17.7744 87.627L17.8457 87.8906C17.9127 88.1395 17.9388 88.3946 17.9229 88.6514L17.8896 89.1865C17.8756 89.4115 17.8396 89.6358 17.7822 89.8574L17.7119 90.127L17.6426 90.3965C17.6411 90.4022 17.6399 90.4064 17.6396 90.4082C17.6396 90.4092 17.6396 90.4105 17.6396 90.4111C17.6398 90.4124 17.6413 90.4223 17.6504 90.4414L17.7764 90.7031L17.9014 90.9639C18.0279 91.227 18.0978 91.5104 18.0957 91.8057L18.0938 92.0723L18.0918 92.3398C18.0906 92.4974 18.0962 92.6556 18.1084 92.8125L18.1494 93.3438C18.1711 93.6227 18.1334 93.8976 18.0449 94.1621L17.9541 94.4346L17.8633 94.7061C17.8259 94.8179 17.8099 94.9198 17.8105 95.0137L17.8135 95.2812L17.8154 95.5479C17.8158 95.5956 17.8279 95.6561 17.8721 95.7363L18.0146 95.9951L18.1572 96.2549C18.3653 96.6328 18.371 97.0511 18.1914 97.4336L18.0625 97.709L17.9326 97.9834C17.8778 98.1001 17.8524 98.2005 17.8447 98.2861L17.8213 98.5547L17.7979 98.8223C17.7843 98.975 17.7789 99.1288 17.7822 99.2812L17.7881 99.5488L17.7939 99.8174C17.7956 99.8938 17.8126 99.9752 17.8535 100.065L17.9717 100.325L18.0898 100.584C18.2063 100.84 18.2751 101.128 18.2451 101.431L18.2236 101.653L18.2012 101.876C18.195 101.938 18.1811 102.038 18.1406 102.145C18.1125 102.218 17.9902 102.512 17.6406 102.611C17.2747 102.715 17.0113 102.509 16.9424 102.45C16.8514 102.372 16.7903 102.284 16.7568 102.232L16.6377 102.05L16.5195 101.867C16.4033 101.688 16.3104 101.489 16.2373 101.279L16.1504 101.028L16.0625 100.776C16.0429 100.72 16.0065 100.658 15.9375 100.589L15.5234 100.177C15.3125 99.9667 15.1515 99.7168 15.0586 99.4297L14.9766 99.1738L14.8936 98.918C14.8388 98.7486 14.7831 98.578 14.7275 98.4092L14.5596 97.8994C14.486 97.6755 14.4403 97.4441 14.4209 97.208L14.376 96.6631C14.3658 96.539 14.3411 96.4207 14.3027 96.3086L14.2158 96.0557L14.1289 95.8018C14.0254 95.499 14.0162 95.1858 14.0811 94.8809L14.1426 94.5918L14.1797 94.416L13.998 94.2549L13.7539 94.0361C13.5921 93.8912 13.4485 93.6944 13.3848 93.4424C13.3207 93.1884 13.3545 92.9445 13.4346 92.7363L13.5488 92.4404L13.6299 92.2285L13.5078 92.0771L13.3193 91.8418C13.03 91.4806 12.9716 91.0368 13.1328 90.6162L13.2441 90.3262L13.3467 90.0566L13.2334 89.8525L13.0957 89.6055C12.9301 89.3082 12.8663 88.9775 12.9141 88.6377L12.9521 88.3623L12.9912 88.0879C13.002 88.0109 12.995 87.944 12.9736 87.8799L12.8877 87.623L12.8027 87.3662C12.7382 87.1729 12.6833 86.9766 12.6387 86.7793L12.5791 86.5186L12.5205 86.2568C12.4601 85.989 12.4548 85.7166 12.501 85.4463L12.5479 85.1729L12.5928 84.9062C12.5909 84.9025 12.5879 84.896 12.583 84.8887L12.416 84.6387L12.249 84.3877C12.0016 84.0159 11.9683 83.5822 12.1455 83.1777L12.2676 82.8984L12.3906 82.6191C12.4375 82.512 12.4508 82.4289 12.4502 82.3652L12.4482 82.0986L12.4453 81.832C12.4451 81.8144 12.4413 81.7746 12.3936 81.7041L12.2207 81.4502L12.0488 81.1963C11.8141 80.8501 11.7469 80.4362 11.8955 80.0264L11.9951 79.752L12.0791 79.5215L11.9434 79.2969L11.7891 79.0391C11.5726 78.6781 11.5369 78.2644 11.7002 77.8701L11.8135 77.5967L11.9092 77.3652L11.7871 77.1436L11.6436 76.8828C11.4778 76.5802 11.4094 76.2391 11.4727 75.8857L11.5205 75.6172L11.5693 75.3486C11.6034 75.1584 11.6422 74.9679 11.6855 74.7783L11.7471 74.5098L11.8047 74.2568C11.8026 74.2527 11.799 74.2468 11.7949 74.2402L11.6328 73.9775L11.4697 73.7139C11.2604 73.3737 11.1957 72.973 11.3369 72.5723L11.5264 72.0352C11.5698 71.9118 11.5941 71.7948 11.6025 71.6836L11.6436 71.1504C11.6614 70.9141 11.7075 70.6805 11.7812 70.4521L11.8672 70.1865L11.9453 69.9453L11.6523 69.4082C11.4492 69.036 11.428 68.6138 11.6221 68.2207L11.7529 67.957L11.8828 67.6934C11.885 67.6889 11.8867 67.6851 11.8877 67.6826L11.8057 67.4141L11.7227 67.1445C11.6194 66.8067 11.6362 66.4581 11.7773 66.1309L11.8867 65.876L11.9971 65.6211C12.0188 65.5704 12.025 65.5239 12.0176 65.4688L11.9805 65.1934L11.9443 64.9189C11.9085 64.6522 11.9199 64.3848 11.9824 64.123L12.0449 63.8633L12.1064 63.6025C12.1517 63.4134 12.2035 63.2249 12.2617 63.0381L12.3428 62.7803L12.4229 62.5225C12.4247 62.5166 12.4322 62.4954 12.4102 62.4346L12.3066 62.1494L12.2031 61.8652C12.0448 61.4288 12.1332 60.9894 12.4219 60.6426L12.8223 60.1621C12.8739 60.0999 12.8756 60.0692 12.876 60.0635L12.8945 59.7959L12.9121 59.5293C12.9166 59.4609 12.9065 59.3808 12.8789 59.2852C12.673 59.3116 12.479 59.3908 12.3076 59.5186L12.1846 59.623L11.9658 59.8301L11.751 60.0342L11.1416 60.0029C10.6982 59.9803 10.2986 60.1685 10.0449 60.5488L9.88086 60.7949L9.71777 61.041C9.60885 61.2044 9.50368 61.3604 9.4043 61.5088L9.25488 61.7324L9.10547 61.9551C9.09599 61.9692 9.07917 61.9854 9.03613 62.0049L9.04883 61.9404C9.06359 61.8625 9.06215 61.786 9.04297 61.7051L8.97949 61.4385L8.91602 61.1709C8.83418 60.8268 8.87779 60.486 9.02148 60.1748L9.14551 59.9082L9.26855 59.6416C9.29199 59.5908 9.2886 59.5666 9.28516 59.5498L9.17578 59.0166C9.12769 58.7834 9.10752 58.5472 9.11719 58.3105L9.13867 57.7773C9.14443 57.6366 9.14013 57.4949 9.12402 57.3535L9.09277 57.0869L9.0625 56.8203C9.02854 56.5221 9.07057 56.2293 9.17676 55.9521L9.38184 55.4189C9.38142 55.418 9.38041 55.4162 9.37988 55.415L9.26855 55.1484L9.15625 54.8818C9.05746 54.6468 8.99118 54.4031 8.96289 54.1533L8.93262 53.8867L8.90234 53.6191C8.85992 53.2419 8.97435 52.897 9.16895 52.6084L9.34961 52.3418L9.52344 52.085L9.45996 51.8711L9.38184 51.6045C9.32262 51.4017 9.27414 51.1966 9.23828 50.9912L9.19238 50.7227L9.14551 50.4541C9.08623 50.1142 9.14357 49.7833 9.29492 49.4834L9.42578 49.2236L9.55664 48.9648C9.55873 48.9607 9.55979 48.9571 9.56055 48.9551L9.55957 48.9531L9.39746 48.4043C9.33219 48.1833 9.28612 47.9589 9.26074 47.7334L9.22949 47.459L9.19922 47.1846C9.16499 46.8798 9.20872 46.58 9.32812 46.2979L9.43652 46.042L9.54395 45.7871C9.62408 45.5978 9.71356 45.4115 9.81055 45.2285L9.94141 44.9805L10.0732 44.7324C10.091 44.6988 10.096 44.6718 10.0908 44.6318L10.0166 44.0732C9.96478 43.6809 10.0807 43.3163 10.3232 43.0205L10.5117 42.791L10.6709 42.5967L10.6182 42.3486L10.5557 42.0576C10.4745 41.6759 10.5468 41.2924 10.7861 40.9678L10.9541 40.7402L11.123 40.5117C11.1449 40.482 11.1506 40.4617 11.1504 40.4307L11.1475 40.1504L11.1455 39.8691C11.1428 39.5292 11.2452 39.2097 11.4482 38.9355L11.7803 38.4883C11.8624 38.3775 11.9288 38.2649 11.9805 38.1514L12.0898 37.9092L12.2002 37.668C12.2782 37.4964 12.3611 37.3265 12.4473 37.1592L12.5684 36.9229L12.6895 36.6875C12.7335 36.602 12.7651 36.5062 12.7812 36.3984L12.8213 36.126L12.8623 35.8545C12.9116 35.5259 13.0574 35.233 13.2861 34.9941L13.4785 34.792L13.6719 34.5908C13.6886 34.5733 13.6965 34.5594 13.7002 34.5244L13.7305 34.2412L13.7598 33.958C13.7982 33.5915 13.9648 33.2689 14.2441 33.0264L14.458 32.8418L14.6709 32.6562C14.7569 32.5816 14.8196 32.504 14.8643 32.4258L14.9951 32.1963L15.126 31.9678C15.139 31.9449 15.1604 31.892 15.1592 31.7822L15.1553 31.4658L15.1514 31.1484C15.1475 30.8229 15.2219 30.4985 15.4082 30.2109L15.7012 29.7598C15.8979 29.4564 16.1851 29.2585 16.501 29.1416L16.8037 29.0293L17.1074 28.918C17.1118 28.9164 17.1158 28.9136 17.1191 28.9121L17.2109 28.6953L17.3154 28.4434C17.3818 28.2836 17.4465 28.1192 17.5088 27.9521L17.7041 27.4268C17.8336 27.0797 18.0787 26.8145 18.4023 26.6484L18.6602 26.5166L18.917 26.3838C18.926 26.3792 18.9323 26.3754 18.9355 26.373C18.9379 26.3713 18.9397 26.3698 18.9404 26.3691C18.9408 26.3687 18.9415 26.3676 18.9424 26.3662C18.9434 26.3647 18.9456 26.3609 18.9482 26.3545L19.0557 26.0938L19.1621 25.833C19.3043 25.486 19.5621 25.2264 19.8994 25.0752L20.4268 24.8389C20.4453 24.8306 20.4533 24.8239 20.4551 24.8223C20.4565 24.8209 20.4605 24.8164 20.4658 24.8057L20.5889 24.5547L20.7119 24.3027C20.7936 24.1358 20.8761 23.9665 20.959 23.7959L21.084 23.5391L21.208 23.2822C21.3375 23.0157 21.522 22.7855 21.7607 22.6055L21.9766 22.4424L22.1924 22.2803C22.3365 22.1716 22.4813 22.063 22.625 21.9551L23.0547 21.6309C23.2723 21.4674 23.5171 21.3501 23.7793 21.2744L24.0576 21.1943L24.3369 21.1133C24.4196 21.0893 24.4717 21.0564 24.5088 21.0205L24.7012 20.834L24.8926 20.6475C25.0946 20.4514 25.3319 20.3051 25.5957 20.209L25.8545 20.1143L26.0967 20.0264C26.0988 20.0227 26.1024 20.0181 26.1055 20.0117L26.3691 19.4551C26.5158 19.1458 26.7477 18.8839 27.0742 18.7246L27.3164 18.6064L27.5596 18.4883C27.7742 18.3837 28.0011 18.3062 28.2373 18.2549L28.7881 18.1357C28.8888 18.1139 28.9701 18.0779 29.0381 18.0322L29.2588 17.8838L29.4785 17.7354C29.5948 17.6572 29.708 17.568 29.8174 17.4678L30.0205 17.2822L30.2227 17.0967C30.357 16.9734 30.4926 16.8484 30.6289 16.7227L31.0391 16.3438C31.2914 16.1109 31.6002 15.975 31.9395 15.9414L32.2227 15.9141L32.5049 15.8857C32.6466 15.8717 32.7775 15.8447 32.8975 15.8066L33.1523 15.7256L33.4082 15.6445C33.5103 15.612 33.6076 15.5641 33.7012 15.5L34.1523 15.1914C34.3723 15.0405 34.6139 14.9313 34.873 14.8682L35.1338 14.8047L35.3955 14.7412C35.606 14.69 35.8213 14.655 36.0391 14.6367L36.584 14.5918L36.5859 14.5908C36.5893 14.5889 36.6012 14.5819 36.6191 14.5635L36.8311 14.3457L37.043 14.127L37.1602 14.0195C37.2849 13.9186 37.4329 13.8385 37.6025 13.793C37.7715 13.7477 37.9387 13.7431 38.0957 13.7666L38.25 13.7988L38.5488 13.8799L38.7695 13.9395L38.9277 13.7939L39.1514 13.5879C39.4447 13.3181 39.8222 13.1837 40.2354 13.2402L40.5186 13.2793L40.8008 13.3184C40.9326 13.3365 41.0535 13.3367 41.1641 13.3232L41.6914 13.2588C41.7797 13.248 41.8717 13.221 41.9678 13.1719L42.2168 13.0439L42.4668 12.916C42.664 12.8151 42.867 12.7303 43.0742 12.6611L43.333 12.5742L43.5918 12.4883C43.9731 12.3612 44.3515 12.4191 44.6797 12.584L45.2461 12.8691C45.2761 12.8842 45.295 12.8893 45.3018 12.8906L45.5566 12.8252L45.8174 12.7598C46.0196 12.7084 46.2245 12.6698 46.4307 12.6445L46.6953 12.6113L46.96 12.5791C47.1746 12.5528 47.3914 12.5448 47.6074 12.5537L47.873 12.5645L48.1396 12.5752H48.2969L48.3711 12.5508L48.4785 12.5146L48.6299 12.4775C48.7855 12.449 48.9498 12.4456 49.084 12.4473L49.3506 12.4512L49.6172 12.4541C49.7414 12.4556 49.8675 12.4438 49.9951 12.417L50.2617 12.3604L50.5283 12.3047C50.8982 12.2268 51.2532 12.3034 51.5615 12.4795L52.0947 12.7842C52.1081 12.7918 52.1188 12.7965 52.125 12.7988C52.1272 12.7996 52.1296 12.8004 52.1309 12.8008L52.3926 12.7441L52.6592 12.6875C52.8684 12.6428 53.0799 12.6128 53.291 12.5977L53.5576 12.5781L53.8242 12.5596C54.0293 12.5449 54.2352 12.5415 54.4404 12.5508L54.707 12.5635L54.9736 12.5752C55.106 12.5812 55.2394 12.5749 55.373 12.5557L55.6396 12.5166L55.9062 12.4785C56.092 12.4517 56.2789 12.4284 56.4648 12.4082L56.998 12.3496C57.2491 12.3223 57.501 12.3349 57.749 12.3848L58.2822 12.4922C58.4243 12.5208 58.566 12.5376 58.7061 12.5439L58.9736 12.5557L59.2402 12.5674C59.3694 12.5731 59.5 12.5665 59.6309 12.5459L59.8975 12.5039L60.1641 12.4609C60.3973 12.4241 60.6325 12.4159 60.8672 12.4355L61.1348 12.458L61.4014 12.4805C61.5572 12.4935 61.7135 12.4993 61.8691 12.498L62.1357 12.4961L62.4023 12.4932C62.5262 12.4922 62.6524 12.478 62.7803 12.4482L63.0469 12.3857L63.3135 12.3242C63.5599 12.2669 63.811 12.2465 64.0625 12.2656L64.5957 12.3066C64.756 12.3189 64.917 12.3247 65.0771 12.3252L65.6104 12.3271C65.8252 12.3279 66.0404 12.3456 66.2539 12.3799L66.5205 12.4229L66.7881 12.4658C66.9895 12.4982 67.1907 12.5416 67.3906 12.5947L67.6572 12.665L67.9111 12.7334C67.9153 12.7317 67.9218 12.729 67.9297 12.7246L68.4629 12.4277L68.5996 12.3613C68.8764 12.2436 69.177 12.221 69.4727 12.3086L69.6201 12.3613L69.8867 12.4746L70.1396 12.584L70.3936 12.4736L70.6602 12.3584L70.7979 12.3076Z" fill="#303A4B"/>
</svg>
