<svg width="128" height="128" viewBox="0 0 128 128" fill="none" xmlns="http://www.w3.org/2000/svg">
<path d="M61.2241 12.8652L61.7573 12.9082C61.9433 12.9231 62.1315 12.9419 62.3198 12.9639L62.5894 12.9951L62.8599 13.0264C63.0841 13.0526 63.3048 13.1004 63.52 13.168L63.7798 13.249L64.0386 13.3311C64.196 13.3805 64.3542 13.424 64.5112 13.4619L64.772 13.5244L65.0317 13.5879C65.2417 13.6386 65.4481 13.7062 65.6489 13.79L65.8989 13.8945L66.1499 13.999C66.3325 14.0752 66.5119 14.1583 66.687 14.2471L66.9272 14.3682L67.1665 14.4902C67.2113 14.5129 67.2633 14.5255 67.3354 14.5225L67.6177 14.5107L67.8999 14.498C68.2827 14.4815 68.6333 14.6159 68.9097 14.876L69.1187 15.0723L69.2993 15.2422L69.5874 15.2129L69.894 15.1816C70.2345 15.1469 70.5789 15.2093 70.8843 15.4053L71.1108 15.5518L71.3384 15.6973C71.5781 15.8513 71.7767 16.0534 71.9351 16.2891L72.0991 16.5322L72.2622 16.7754C72.2748 16.7941 72.284 16.8017 72.2866 16.8037C72.2877 16.8046 72.291 16.8078 72.3003 16.8105L72.8335 16.9648C73.0397 17.0246 73.2425 17.0968 73.439 17.1816L73.6929 17.292L73.9458 17.4014C74.1568 17.4926 74.3583 17.6035 74.5464 17.7334L74.77 17.8887L74.9937 18.043C75.1947 18.1819 75.3752 18.3463 75.5327 18.5332L75.7085 18.7412L75.8833 18.9492C75.9754 19.0586 76.0768 19.1609 76.1851 19.2539L76.3911 19.4307L76.5981 19.6074C76.6267 19.6319 76.6547 19.6576 76.6812 19.6836C76.7155 19.6838 76.7503 19.6842 76.7847 19.6846L77.3198 19.6904C77.568 19.693 77.8128 19.7319 78.0503 19.8057L78.5679 19.9658C78.6021 19.9764 78.6427 19.9811 78.7056 19.9639L78.9839 19.8867L79.2622 19.8105C79.5518 19.7309 79.8518 19.7184 80.1489 19.7861L80.4097 19.8457L80.6714 19.9053C80.8523 19.9466 81.0336 19.9904 81.2134 20.0371L81.4731 20.1045L81.7339 20.1729C81.8582 20.2051 81.9848 20.2241 82.1128 20.2295L82.3804 20.2402L82.6489 20.252C82.9341 20.264 83.2073 20.3377 83.4604 20.4668L83.7095 20.5947L83.9595 20.7217C83.9701 20.7271 83.9766 20.729 83.979 20.7295C83.9812 20.7297 83.9915 20.73 84.0112 20.7256L84.2915 20.6631L84.5728 20.5996L84.7261 20.5742C85.0307 20.5414 85.3204 20.6172 85.5708 20.7793L85.6929 20.8672L85.9302 21.0576L86.1284 21.2178L86.355 21.1621L86.6392 21.0908C86.9551 21.0122 87.2819 21.021 87.5962 21.1377L87.8491 21.2324L88.1021 21.3262C88.2965 21.3985 88.4882 21.4832 88.6743 21.5781L89.1606 21.8262C89.169 21.8304 89.1843 21.8389 89.2349 21.8291L89.5259 21.7715L89.8159 21.7148L89.9663 21.6934C90.3147 21.6629 90.6498 21.7675 90.9263 22.002L91.1489 22.1914L91.3491 22.3604L91.6206 22.3223L91.9155 22.2803C92.2018 22.2393 92.4904 22.2528 92.77 22.335L93.2856 22.4873C93.5563 22.567 93.8017 22.702 94.0171 22.8828L94.2339 23.0654L94.4507 23.2471C94.5389 23.3212 94.6277 23.3736 94.7163 23.4082L94.9644 23.5049L95.2134 23.6016C95.4234 23.6835 95.6249 23.7866 95.8149 23.9092L96.0405 24.0547L96.2661 24.2012C96.3915 24.2821 96.5217 24.3537 96.6538 24.417L96.8931 24.5322L97.1333 24.6465C97.1946 24.6757 97.2755 24.6983 97.3862 24.7021L97.6831 24.7129L97.98 24.7227C98.2041 24.7303 98.4319 24.7973 98.6313 24.9424C98.7771 25.0486 98.8861 25.1811 98.9663 25.3193L99.0376 25.46L99.1724 25.7637L99.2544 25.9492H99.7222C99.9312 25.9494 100.152 25.997 100.356 26.1191C100.509 26.2112 100.63 26.3324 100.722 26.4658L100.804 26.6025L100.947 26.874L101.088 27.1465C101.134 27.233 101.176 27.2685 101.203 27.2852L101.426 27.4258L101.65 27.5654C101.769 27.6402 101.897 27.7083 102.032 27.7676L102.279 27.876L102.527 27.9854C102.687 28.0559 102.85 28.1259 103.015 28.1943L103.27 28.3008L103.525 28.4062C103.774 28.5098 104 28.6562 104.194 28.8438L104.581 29.2168C104.667 29.3004 104.764 29.3739 104.872 29.4365L105.107 29.5732L105.342 29.7109C105.52 29.8141 105.692 29.9258 105.857 30.0459L106.076 30.2051L106.294 30.3633C106.506 30.5172 106.687 30.7052 106.835 30.9209L106.991 31.1465L107.147 31.3721C107.259 31.5354 107.367 31.7033 107.468 31.874L107.608 32.1104L107.749 32.3467C107.805 32.4415 107.872 32.5221 107.948 32.5889L108.149 32.7646L108.35 32.9414C108.536 33.1048 108.696 33.2935 108.828 33.5039L108.971 33.7324L109.114 33.9619C109.198 34.096 109.287 34.2255 109.38 34.3486L109.541 34.5596L109.701 34.7715C109.803 34.9061 109.908 35.0398 110.014 35.1709L110.181 35.376L110.348 35.582C110.451 35.7092 110.559 35.8346 110.669 35.957L110.847 36.1553L111.026 36.3525C111.129 36.4668 111.239 36.5791 111.357 36.6865L111.559 36.8701L111.76 37.0547C111.974 37.2499 112.136 37.486 112.243 37.7549L112.343 38.0088L112.443 38.2617C112.473 38.3382 112.517 38.4047 112.577 38.4639L112.771 38.6562L112.966 38.8496C113.133 39.0142 113.279 39.1956 113.404 39.3916L113.548 39.6172L113.692 39.8428C113.858 40.1043 113.944 40.3969 113.963 40.7002L113.982 40.9932L114 41.2871C114.004 41.3354 114.014 41.3489 114.022 41.3574L114.204 41.5625L114.385 41.7666C114.488 41.8825 114.603 41.9975 114.727 42.1104L115.155 42.499C115.393 42.715 115.565 42.9864 115.648 43.3037L115.717 43.5674L115.786 43.8301C115.809 43.92 115.849 44.0043 115.906 44.084L116.066 44.3076L116.227 44.5322C116.439 44.828 116.523 45.1712 116.496 45.5215L116.473 45.8164L116.45 46.1113C116.445 46.1702 116.457 46.1948 116.467 46.2109L116.611 46.4443L116.754 46.6768C116.854 46.8377 116.951 47.0014 117.046 47.166L117.184 47.4043L117.321 47.6426C117.535 48.0151 117.531 48.4199 117.405 48.7803L117.188 49.3975C117.171 49.4465 117.166 49.4793 117.165 49.4971C117.164 49.5103 117.165 49.5175 117.166 49.5195L117.241 49.7734L117.317 50.0264C117.356 50.1575 117.406 50.289 117.469 50.4189L117.588 50.6641L117.707 50.9092C117.781 51.0626 117.86 51.2179 117.944 51.373L118.209 51.8672C118.352 52.1322 118.428 52.4216 118.427 52.7246L118.425 53.2676C118.425 53.4835 118.408 53.7001 118.375 53.916L118.334 54.1904L118.294 54.4531C118.297 54.4572 118.301 54.4645 118.307 54.4736L118.483 54.7236L118.66 54.9736C118.904 55.3203 118.973 55.7383 118.824 56.1514L118.724 56.4277L118.625 56.7031C118.607 56.7508 118.611 56.7725 118.617 56.79L118.698 57.0537L118.78 57.3164C118.873 57.6169 118.881 57.9277 118.804 58.2324L118.737 58.501L118.669 58.7686C118.637 58.8979 118.62 59.0246 118.617 59.1475L118.61 59.4141L118.603 59.6816C118.598 59.8913 118.579 60.1011 118.545 60.3096L118.502 60.5762L118.459 60.8438C118.456 60.8637 118.454 60.8843 118.451 60.9043C118.24 60.7822 118.007 60.7107 117.764 60.6865L117.176 60.6279C117.053 60.6157 116.965 60.5882 116.902 60.5566L116.674 60.4424L116.447 60.3271C116.343 60.2749 116.233 60.2054 116.119 60.1152L115.897 59.9395L115.674 59.7637C115.553 59.668 115.424 59.5862 115.289 59.5156L115.314 59.6836C115.344 59.8888 115.362 60.0957 115.369 60.3027L115.377 60.5723L115.386 60.8428C115.393 61.0486 115.388 61.2546 115.372 61.46L115.351 61.7295L115.33 61.998C115.308 62.2773 115.228 62.5442 115.102 62.7939L114.838 63.3154L114.925 63.5879L115.014 63.8623C115.125 64.2061 115.11 64.5637 114.961 64.8994L114.848 65.1562L114.735 65.4121C114.657 65.5874 114.577 65.761 114.497 65.9326L114.379 66.1826L114.284 66.3848L114.416 66.6758L114.549 66.9697C114.73 67.3672 114.723 67.8193 114.444 68.21L114.104 68.6846C114.06 68.7462 114.048 68.7929 114.044 68.832L114.024 69.1006L114.002 69.3701C113.983 69.6249 113.924 69.8719 113.825 70.1074L113.616 70.6035C113.539 70.7864 113.455 70.9664 113.364 71.1426L113.24 71.3818L113.117 71.6211C113.064 71.7238 113.026 71.83 113.002 71.9404L112.948 72.2012L112.892 72.4619C112.87 72.5677 112.861 72.6877 112.87 72.8232L112.907 73.4053C112.932 73.7991 112.797 74.1626 112.519 74.4453L112.316 74.6523L112.113 74.8584C112.022 74.951 111.851 75.1072 111.609 75.1699C111.47 75.2059 111.296 75.2135 111.117 75.1475C110.94 75.0822 110.816 74.9672 110.737 74.8604L110.641 74.7314L110.546 74.6025C110.275 74.2359 110.351 73.8108 110.42 73.5752L110.5 73.3008L110.582 73.0254C110.619 72.899 110.637 72.7787 110.639 72.6641L110.651 72.1211C110.653 72.0192 110.639 71.9213 110.608 71.8252L110.524 71.5674L110.441 71.3105C110.38 71.1216 110.327 70.9304 110.282 70.7393L110.219 70.4805L110.158 70.2207C110.126 70.0874 110.082 69.9556 110.027 69.8262L109.92 69.5771L109.815 69.3281C109.717 69.0988 109.653 68.8589 109.625 68.6113L109.596 68.3447L109.566 68.0771C109.548 67.9119 109.525 67.7464 109.498 67.582L109.454 67.3164L109.411 67.0518C109.392 66.9369 109.357 66.8266 109.309 66.7207L109.198 66.4756L109.085 66.2305C109.035 66.1191 108.969 66.0104 108.888 65.9053L108.546 65.4639C108.395 65.2677 108.271 65.055 108.18 64.8271L107.985 64.3369C107.869 64.0477 107.841 63.7424 107.875 63.4414L107.946 62.832C107.956 62.7465 107.941 62.7063 107.931 62.6865L107.811 62.4463L107.69 62.2051C107.653 62.1316 107.599 62.0599 107.52 61.9902L107.306 61.8008L107.091 61.6113C106.838 61.387 106.666 61.0989 106.594 60.7646L106.477 60.2178C106.464 60.1569 106.44 60.1146 106.407 60.0781L106.038 59.6797C105.862 59.4902 105.721 59.2755 105.615 59.04L105.392 58.5439C105.329 58.4031 105.258 58.2663 105.179 58.1338L105.041 57.9004L104.903 57.667C104.86 57.5951 104.805 57.533 104.733 57.4795L104.51 57.3154L104.289 57.1514C104.05 56.9752 103.862 56.7508 103.728 56.4873L103.601 56.2363L103.473 55.9863C103.423 55.8878 103.362 55.8053 103.291 55.7363L103.095 55.5479L102.899 55.3594C102.78 55.2447 102.657 55.133 102.531 55.0264L102.322 54.8516L102.114 54.6758C102.11 54.6725 102.107 54.6704 102.106 54.6699L102.104 54.6689C102.102 54.6682 102.092 54.6662 102.074 54.666L101.954 54.665L101.958 54.7812C101.967 55.0421 101.937 55.2997 101.867 55.5498L101.792 55.8164L101.717 56.083C101.623 56.4198 101.424 56.696 101.151 56.9014L100.917 57.0781L100.682 57.2539C100.668 57.2648 100.663 57.2718 100.662 57.2734C100.661 57.2745 100.657 57.2812 100.653 57.2988L100.591 57.585L100.53 57.8701C100.483 58.0882 100.377 58.2976 100.202 58.4668C100.031 58.6317 99.8269 58.7259 99.6304 58.7764L98.9917 58.9404C98.9369 58.9545 98.903 58.9694 98.8853 58.9795C98.8768 58.9843 98.8713 58.9881 98.8687 58.9902C98.8665 58.992 98.866 58.9938 98.8657 58.9941L98.5259 59.3887C98.4241 59.5071 98.3254 59.6318 98.229 59.7617L98.0688 59.9766L97.9097 60.1914C97.82 60.3122 97.7336 60.4445 97.6499 60.5879L97.5054 60.834L97.3618 61.0811C97.2192 61.3255 97.033 61.5361 96.8032 61.7031L96.3657 62.0215C96.2216 62.1263 96.0778 62.232 95.9341 62.3379L95.4985 62.6582C95.4531 62.6917 95.3946 62.7322 95.3325 62.7666C95.3023 62.7833 95.2507 62.8096 95.187 62.8311C95.1448 62.8453 94.9873 62.8982 94.7905 62.8555C94.6749 62.8302 94.5384 62.7694 94.4233 62.6494C94.3098 62.5308 94.2569 62.3962 94.2358 62.29C94.1998 62.1074 94.2453 61.9612 94.2583 61.9199C94.2917 61.8138 94.3442 61.7264 94.3677 61.6885L94.481 61.5059L94.5942 61.3223C94.7367 61.0923 94.9347 60.9113 95.1499 60.7676L95.3813 60.6123L95.5542 60.4961L95.5737 60.2158L95.5942 59.9004C95.6171 59.5601 95.7332 59.2259 95.9839 58.9551L96.3452 58.5645C96.4508 58.4505 96.5535 58.3297 96.6528 58.2012L96.9888 57.7676C97.0021 57.7503 97.0065 57.7395 97.0063 57.71L97.0044 57.1533C97.0031 56.853 97.0721 56.5635 97.2114 56.2969L97.3394 56.0527L97.4673 55.8076L97.4663 55.8047L97.3931 55.5332L97.3208 55.2617C97.2273 54.9114 97.2654 54.5605 97.4146 54.2393L97.5386 53.9717L97.6636 53.7041C97.6747 53.68 97.6761 53.6683 97.6763 53.667V53.665C97.676 53.6641 97.6752 53.6615 97.6743 53.6582L97.5317 53.1309C97.4927 52.9868 97.4466 52.855 97.394 52.7354L97.2915 52.5029L97.2349 52.374L97.0513 52.3359L96.7798 52.2793C96.3689 52.1931 96.0674 51.9327 95.8794 51.5986L95.7241 51.3232L95.5688 51.0469C95.5592 51.0299 95.5508 51.0199 95.5464 51.0146L95.3032 50.9385L95.0444 50.8574C94.7807 50.7746 94.5405 50.6419 94.3306 50.4619L93.9204 50.1104C93.9165 50.109 93.8996 50.1037 93.8657 50.1035L93.2466 50.1016C92.8849 50.1001 92.5326 49.9834 92.2515 49.7158L92.0532 49.5283L91.856 49.3398C91.7567 49.2454 91.6515 49.1629 91.5415 49.0928L91.3159 48.9492L91.0913 48.8066C90.9289 48.7031 90.7693 48.594 90.6138 48.4805L90.3989 48.3232L90.1831 48.166C90.0095 48.0393 89.8452 47.8984 89.6919 47.7451L89.5005 47.5527L89.3081 47.3613C89.307 47.3602 89.3063 47.3593 89.3042 47.3584C89.2996 47.3565 89.2832 47.3505 89.2505 47.3477L88.9448 47.3213L88.6392 47.2939C88.3158 47.2654 88.0039 47.157 87.7397 46.9434L87.5317 46.7754L87.3237 46.6064C87.0988 46.4245 86.9232 46.1974 86.7925 45.9414L86.519 45.4062C86.4736 45.3174 86.4274 45.2688 86.3872 45.2402L85.9517 44.9316C85.8946 44.8913 85.8198 44.8568 85.7173 44.8359L85.4312 44.7773L85.145 44.7197C84.7063 44.63 84.3894 44.3425 84.2241 43.9541L84.1021 43.666L84.0093 43.4482L83.811 43.416L83.52 43.3672C83.2771 43.327 83.043 43.2624 82.8218 43.1709L82.3198 42.9639C82.0154 42.8378 81.7707 42.6284 81.5903 42.3613L81.2661 41.8809C81.2272 41.8234 81.1918 41.798 81.1587 41.7832L80.6665 41.5645C80.5565 41.5155 80.4357 41.4779 80.3052 41.4541L80.0298 41.4043L79.7534 41.3535C79.3351 41.2771 79.0234 41.0208 78.8296 40.6816L78.6733 40.4062L78.5562 40.2012L78.3706 40.1953L78.0796 40.1865C77.7981 40.1775 77.5241 40.1168 77.2681 39.9961L76.7876 39.7695C76.5569 39.6607 76.3462 39.515 76.1558 39.3398L75.9419 39.1436L75.7271 38.9463C75.6533 38.8786 75.5832 38.8394 75.5161 38.8174L75.2603 38.7334L75.0034 38.6484C74.9897 38.644 74.9522 38.6347 74.8687 38.6592L74.5688 38.748L74.2681 38.8359C73.891 38.9465 73.491 38.9118 73.1392 38.6797L72.6665 38.3672C72.6607 38.3634 72.6566 38.3617 72.6558 38.3613C72.6534 38.3614 72.6488 38.3615 72.6431 38.3623L72.3618 38.4043L72.0796 38.4463C71.6787 38.5053 71.306 38.3866 71.0063 38.1367L70.7749 37.9434L70.5435 37.751C70.466 37.6865 70.4033 37.6601 70.354 37.6494L70.0923 37.5918L69.8306 37.5352C69.8177 37.5324 69.7783 37.5268 69.6948 37.5605L69.4048 37.6777L69.1138 37.7949C68.8173 37.9147 68.4945 37.9651 68.1646 37.9033L67.6431 37.8057C67.4661 37.7725 67.2877 37.7378 67.1108 37.7021L66.8511 37.6494L66.5903 37.5967C66.3965 37.5576 66.2028 37.5103 66.0112 37.4541L65.7524 37.3779L65.4937 37.3027C65.2844 37.2413 65.0785 37.1617 64.8765 37.0664L64.6206 36.9463L64.3647 36.8252C64.2495 36.7709 64.1369 36.7357 64.0269 36.7168L63.7622 36.6709L63.4966 36.626C63.39 36.6077 63.2814 36.6044 63.1694 36.6182L62.8979 36.6523L62.6274 36.6855C62.448 36.7077 62.2687 36.7303 62.0903 36.7529L61.5513 36.8213C61.2409 36.8605 60.9372 36.8135 60.6528 36.6934L60.3892 36.582L60.145 36.4785L59.8882 36.5928L59.6187 36.7119C59.3452 36.8328 59.0521 36.8931 58.7485 36.873L58.2153 36.8379C58.0428 36.8265 57.8697 36.8166 57.6968 36.8086L57.4302 36.7959L57.1626 36.7842C57.0767 36.7803 56.9883 36.7923 56.894 36.8242L56.3687 37.002C56.1307 37.0824 55.8855 37.1275 55.6362 37.1357L55.1069 37.1533C54.8469 37.1618 54.5892 37.1258 54.3384 37.0498L53.7915 36.8838C53.7301 36.8653 53.6878 36.8678 53.6509 36.8779L53.3901 36.9492L53.1294 37.0215C52.8796 37.0901 52.6234 37.1167 52.3647 37.1006L52.0933 37.083L51.8228 37.0664C51.7802 37.0638 51.7373 37.0704 51.6831 37.0996L51.4341 37.2344L51.1851 37.3682C50.8686 37.5386 50.5195 37.5871 50.1704 37.5137L49.8892 37.4541L49.6089 37.3955C49.5523 37.3837 49.5185 37.3896 49.4897 37.4014L49.2378 37.5039L48.9868 37.6064C48.7643 37.6971 48.5327 37.759 48.2954 37.791L47.7642 37.8633C47.5944 37.8862 47.4239 37.9112 47.2544 37.9395L46.9897 37.9844L46.7241 38.0283C46.5683 38.0543 46.4138 38.0874 46.2612 38.127L46.0015 38.1943L45.7417 38.2607C45.6319 38.2892 45.5255 38.3331 45.4224 38.3926L45.1851 38.5293L44.9487 38.666C44.8252 38.7374 44.7052 38.8203 44.5894 38.915L44.3716 39.0928L44.1548 39.2705C43.9507 39.4374 43.714 39.5746 43.4448 39.6406L43.2329 39.6924L43.1089 39.7217L42.9985 39.9199L42.8677 40.1533C42.7406 40.38 42.5765 40.5827 42.3833 40.7617L42.1675 40.9619L41.9507 41.1621C41.9421 41.1701 41.9362 41.1759 41.9341 41.1787C41.934 41.1793 41.9341 41.1805 41.9341 41.1816L41.9097 41.459L41.8843 41.7354C41.8645 41.9561 41.8287 42.1723 41.7749 42.3828L41.7085 42.6416L41.6421 42.8994C41.5793 43.1451 41.4791 43.3774 41.3442 43.5938L41.1968 43.8301L41.0688 44.0342L41.1499 44.3174L41.2329 44.6104C41.3548 45.041 41.2542 45.4638 40.9653 45.7969L40.7632 46.0303L40.5601 46.2646C40.4922 46.3429 40.4654 46.4056 40.4546 46.4541L40.3354 46.9893C40.3156 47.0785 40.3133 47.1697 40.3286 47.2656L40.4165 47.8145C40.4328 47.9159 40.4672 48.021 40.5249 48.1299L40.6636 48.3906L40.8013 48.6514C40.9679 48.9654 41.0247 49.3164 40.9438 49.6738L40.8823 49.9453L40.8208 50.2158C40.7978 50.3176 40.7942 50.4137 40.8062 50.5068L40.8403 50.7744L40.8755 51.042C40.883 51.0999 40.9025 51.1538 40.9429 51.21L41.2671 51.6592C41.435 51.8921 41.5479 52.1533 41.6021 52.4355L41.6538 52.7051L41.7056 52.9756C41.7152 53.0258 41.7339 53.0593 41.7632 53.0908L41.9468 53.2881L42.1313 53.4854C42.2984 53.6642 42.4398 53.8643 42.5542 54.082L42.6821 54.3262L42.811 54.5703C42.8622 54.6678 42.9258 54.7532 43.0024 54.8281L43.1978 55.0195L43.394 55.2109C43.4416 55.2573 43.4973 55.2917 43.5708 55.3145L44.1079 55.4805C44.3489 55.5549 44.5757 55.6608 44.7837 55.7998L45.0063 55.9492L45.229 56.0977C45.2372 56.1031 45.2491 56.1124 45.2944 56.1094L45.8667 56.0703C46.1704 56.0496 46.4711 56.101 46.7505 56.2373L46.9878 56.3525L47.2241 56.4688C47.4352 56.5718 47.6393 56.7044 47.8354 56.8594L48.0249 57.0088C48.2302 56.9272 48.4837 56.8634 48.7515 56.8965L48.8716 56.918L49.2231 57C49.2555 57.0076 49.4083 57.0417 49.5493 57.1484C49.6263 57.2068 49.801 57.3648 49.8345 57.6426C49.8696 57.9359 49.7231 58.1403 49.6411 58.2275C49.5059 58.3712 49.3401 58.427 49.314 58.4365C49.2499 58.46 49.1829 58.4773 49.1245 58.4912L48.5718 58.624C48.3282 58.6821 48.0934 58.6663 47.8774 58.5957C47.5349 58.6932 47.1904 58.6426 46.8843 58.4785L46.6147 58.334L46.3442 58.1895C46.2644 58.1468 46.2192 58.1441 46.1978 58.1455L45.9341 58.1641L45.6714 58.1826C45.4523 58.1979 45.233 58.1925 45.0151 58.167L44.7544 58.1367L44.4927 58.1064C44.401 58.0958 44.3003 58.0992 44.189 58.123L43.9155 58.1826L43.6411 58.2412C43.2955 58.3151 42.9501 58.2673 42.6372 58.0986L42.3931 57.9668L42.1675 57.8447C42.1628 57.8457 42.1564 57.8473 42.1489 57.8496L41.8472 57.9414L41.5464 58.0332C41.3325 58.0984 41.0813 58.1164 40.8276 58.0264C40.5764 57.937 40.3944 57.7677 40.269 57.5898L40.0815 57.3242L39.895 57.0586C39.8663 57.0179 39.8445 56.9981 39.8345 56.9902C39.8315 56.9879 39.8289 56.9861 39.8276 56.9854L39.5776 56.9072L39.3267 56.8301C39.0616 56.7477 38.822 56.6115 38.6157 56.4258L38.4214 56.25L38.2261 56.0752C38.2235 56.0728 38.2186 56.0681 38.2075 56.0635C38.1946 56.0582 38.1686 56.0505 38.1255 56.0459L37.8179 56.0127L37.5093 55.9805C37.0767 55.9346 36.7012 55.6969 36.5103 55.2695L36.2759 54.7461C36.275 54.7441 36.2744 54.742 36.2739 54.7412V54.7402C36.273 54.7394 36.2708 54.7375 36.269 54.7363C36.2648 54.7336 36.2566 54.7288 36.2446 54.7236L35.6821 54.4795C35.3349 54.3285 35.0582 54.0627 34.9204 53.6865L34.8237 53.4238L34.7271 53.1602C34.637 52.9142 34.5873 52.658 34.5767 52.3955L34.5649 52.1094L34.5532 51.8242C34.5517 51.7886 34.5434 51.7669 34.52 51.7383L34.1567 51.2949C33.9615 51.0563 33.8303 50.7783 33.7798 50.4697L33.7368 50.2021L33.6929 49.9346C33.6645 49.7611 33.6341 49.5867 33.6021 49.4131L33.5024 48.8779C33.4643 48.6712 33.4391 48.4622 33.4263 48.252L33.3931 47.707C33.3785 47.4667 33.3942 47.2268 33.439 46.9902L33.5405 46.4531C33.5824 46.2323 33.6435 46.0158 33.7241 45.8057L33.8228 45.5498L33.897 45.3525C33.8487 45.4335 33.8037 45.5172 33.7622 45.6035L33.6411 45.8535L33.521 46.1035C33.4166 46.3206 33.2887 46.5221 33.1362 46.7051L32.7964 47.1133C32.656 47.2818 32.5002 47.4389 32.3306 47.583L32.1206 47.7607L31.9116 47.9385C31.8208 48.0157 31.7446 48.1003 31.6821 48.1934L31.5327 48.417L31.3833 48.6396C31.3323 48.7156 31.2932 48.803 31.2681 48.9062L31.2017 49.1787L31.1362 49.4512C31.0739 49.7081 30.9708 49.9498 30.8257 50.1699L30.6792 50.3916L30.5327 50.6143C30.4871 50.6836 30.4536 50.7636 30.4341 50.8594L30.3228 51.4023C30.2713 51.6543 30.1831 51.8937 30.0562 52.1162L29.9243 52.3477L29.7915 52.5801C29.6615 52.8078 29.4937 53.0085 29.2954 53.1826L29.0806 53.3721L28.8794 53.5469L28.8706 53.835L28.8599 54.1318C28.8469 54.5004 28.7074 54.843 28.4331 55.1094L28.0327 55.498C27.9488 55.5796 27.8841 55.6657 27.8354 55.7559L27.5815 56.2266C27.5204 56.3399 27.4704 56.4616 27.4312 56.5918L27.2729 57.1172C27.1727 57.4502 26.9703 57.7214 26.6958 57.9209L26.4604 58.0918L26.2261 58.2627C26.2083 58.2756 26.2025 58.2839 26.2017 58.2852C26.2008 58.2864 26.1977 58.2904 26.1948 58.3018L26.1274 58.5732L26.0591 58.8457C25.9912 59.118 25.8726 59.3699 25.7007 59.5928L25.5366 59.8057L25.3726 60.0176C25.2606 60.1627 25.1478 60.3075 25.0337 60.4502L24.8657 60.6592L24.6987 60.8682C24.5749 61.0231 24.444 61.1726 24.3071 61.3174L24.1226 61.5137L23.937 61.71C23.9022 61.7469 23.871 61.7969 23.8501 61.877L23.7769 62.1582L23.7036 62.4385C23.6126 62.7875 23.4103 63.0827 23.105 63.2871L22.8716 63.4434L22.6392 63.5986C22.5796 63.6385 22.5344 63.687 22.4995 63.751L22.3657 63.998L22.231 64.2451C22.1341 64.4228 22.0382 64.5828 21.9448 64.7217L21.8286 64.8955L21.7114 65.0693C21.6767 65.121 21.6349 65.2017 21.5942 65.3223L21.4263 65.8223C21.3571 66.0273 21.2702 66.2266 21.1665 66.4199L21.0386 66.6592L20.9097 66.8984C20.8367 67.0345 20.7719 67.1738 20.7153 67.3154L20.5161 67.8154C20.4414 68.0027 20.3566 68.1883 20.2632 68.3721L20.1372 68.6201L20.0132 68.8623C20.0138 68.8657 20.0151 68.8712 20.0171 68.8779L20.1011 69.1631L20.1851 69.4473C20.2634 69.7133 20.296 69.9877 20.27 70.2637L20.2456 70.5273L20.2202 70.79C20.2018 70.9848 20.1753 71.1799 20.1411 71.373L20.0952 71.6338L20.0493 71.8955C20.0046 72.1484 19.9176 72.3918 19.7974 72.624L19.6606 72.8887L19.5854 73.0322L19.7056 73.2031L19.8901 73.4648C19.9297 73.5209 19.98 73.5963 20.019 73.6797C20.0382 73.7206 20.0671 73.7908 20.0845 73.8779C20.0995 73.9536 20.1242 74.1348 20.0317 74.3359C19.9188 74.5812 19.7052 74.7045 19.5229 74.7441C19.3726 74.7767 19.2474 74.7553 19.1919 74.7432C19.0746 74.7175 18.9747 74.6678 18.9204 74.6396L18.6743 74.5127L18.4272 74.3848C18.0787 74.2039 17.8413 73.8986 17.7544 73.5137L17.6938 73.2441L17.6323 72.9756C17.6058 72.858 17.566 72.751 17.5132 72.6533L17.3862 72.418L17.2583 72.1826C17.1909 72.0583 17.1119 71.9359 17.022 71.8164L16.6899 71.375C16.4584 71.067 16.3789 70.7055 16.4214 70.3428L16.4565 70.041L16.4878 69.7725L16.3159 69.5957L16.1138 69.3857C15.9086 69.1733 15.7519 68.9231 15.6626 68.6377L15.5024 68.126C15.4227 67.8709 15.3912 67.6064 15.4048 67.3389L15.4341 66.7744C15.4407 66.6439 15.4308 66.5246 15.4077 66.416L15.353 66.1572L15.2974 65.8975C15.2835 65.8328 15.2527 65.7582 15.1899 65.6719L14.8442 65.1953C14.6033 64.8637 14.5284 64.4679 14.6372 64.0703L14.7144 63.7881L14.7866 63.5234L14.6304 63.2744L14.4702 63.0176C14.3506 62.8254 14.2757 62.5907 14.2944 62.3311C14.313 62.0767 14.4171 61.8618 14.5435 61.6934L14.7417 61.4287L14.9263 61.1816L14.8687 60.9756L14.7915 60.7031C14.7275 60.4764 14.6861 60.2453 14.6694 60.0127L14.6499 59.7383L14.6304 59.4629C14.6259 59.4016 14.6187 59.3603 14.6128 59.3359C14.61 59.3246 14.6074 59.3186 14.6069 59.3174L14.6138 59.3291L14.5425 59.2012L14.272 59.3281L14.0015 59.4541C13.9672 59.4701 13.95 59.4697 13.9233 59.4629L13.6392 59.3906L13.355 59.3174L13.1929 59.2861C12.8717 59.2449 12.5651 59.3286 12.3091 59.5195L12.186 59.624L11.9673 59.8311L11.7524 60.0352L11.1431 60.0039C10.6996 59.9813 10.3 60.1694 10.0464 60.5498L9.88232 60.7959L9.71924 61.042C9.61029 61.2054 9.50516 61.3614 9.40576 61.5098L9.25635 61.7334L9.10693 61.9561C9.09613 61.9721 9.07731 61.9942 9.01904 62.0166L8.92139 62.0537V61.9404C8.9205 61.7197 8.93935 61.499 8.97803 61.2803L9.02588 61.0137L9.07275 60.7471C9.10843 60.5455 9.15486 60.3436 9.21143 60.1436L9.36182 59.6104C9.38488 59.5285 9.38884 59.4537 9.37744 59.3799L9.29541 58.8467C9.2736 58.7057 9.25558 58.5146 9.29053 58.3164C9.2934 58.2872 9.29645 58.2571 9.30127 58.2275L9.34521 57.96L9.38916 57.6914C9.41288 57.5462 9.44658 57.4024 9.48877 57.2607L9.48779 57.1846C9.48465 56.9861 9.491 56.787 9.50635 56.5889L9.54736 56.0596C9.55326 55.9826 9.54509 55.8941 9.51221 55.791L9.42432 55.5166L9.33643 55.2412C9.24036 54.9398 9.22382 54.6241 9.3042 54.3115L9.43896 53.7881C9.48113 53.6241 9.51979 53.4597 9.5542 53.2959L9.60889 53.0342L9.66455 52.7715C9.71522 52.5306 9.79944 52.2989 9.91455 52.0791L10.0435 51.832L10.1733 51.585C10.2279 51.4806 10.2626 51.3792 10.2808 51.2803L10.3276 51.0205L10.3755 50.7607C10.3948 50.6549 10.4005 50.5398 10.3892 50.415L10.3638 50.1357L10.3384 49.8574C10.3177 49.6314 10.3162 49.4057 10.3354 49.1826L10.3589 48.9121L10.3823 48.6426C10.398 48.4608 10.4148 48.2771 10.4321 48.0938L10.4575 47.8203L10.4839 47.5479C10.5135 47.2363 10.6242 46.9489 10.8062 46.6973L10.9722 46.4678L11.1372 46.2393C11.1942 46.1604 11.2286 46.0836 11.2466 46.0059L11.3071 45.7432L11.3677 45.4814C11.4134 45.2832 11.4691 45.0867 11.5347 44.8945L11.6216 44.6406L11.7075 44.3867C11.8149 44.0722 12.0123 43.8152 12.2632 43.6162L12.5015 43.4277L12.519 43.4131C12.5339 43.3894 12.5485 43.3652 12.564 43.3418L12.7114 43.1172L12.7124 43.0195L12.7144 42.7285L12.7241 42.5742C12.7667 42.2208 12.9465 41.9161 13.2339 41.6973L13.4692 41.5176L13.6763 41.3594L13.6851 41.1064L13.6968 40.8125C13.7101 40.4728 13.8284 40.1536 14.061 39.8926C14.0964 39.722 14.162 39.555 14.2642 39.3984L14.4116 39.1719L14.5591 38.9463C14.704 38.7243 14.8859 38.5319 15.0972 38.3691L15.3257 38.1924L15.4224 38.1172L15.5288 37.8867C15.5371 37.8685 15.5457 37.8501 15.5542 37.832L15.563 37.7451L15.5903 37.4482C15.626 37.0577 15.8092 36.7131 16.1333 36.4736L16.3638 36.3027L16.5942 36.1328C16.6522 36.09 16.6823 36.0478 16.7017 36.0029L16.8101 35.7529L16.9175 35.5039C16.9808 35.3572 17.0653 35.2275 17.1655 35.1143C17.2501 34.8203 17.4251 34.5598 17.7026 34.376L17.936 34.2217L18.1694 34.0664C18.2455 34.0161 18.303 33.9586 18.3511 33.8975C18.4497 33.6402 18.6127 33.4254 18.8276 33.2627C18.9678 33.1096 19.1312 32.9814 19.314 32.8789L19.5337 32.7549L19.6968 32.3066C19.7878 32.0554 19.9187 31.8244 20.0913 31.6211L20.2642 31.418L20.436 31.2148C20.5098 31.128 20.5752 31.028 20.6304 30.9131L20.7505 30.6621L20.8716 30.4111C21.0274 30.0869 21.2823 29.8463 21.604 29.7012L22.1313 29.4629C22.2411 29.4134 22.3256 29.3557 22.3921 29.293L22.7788 28.9277C22.7963 28.9112 22.8282 28.8739 22.853 28.7803L22.9331 28.4795L23.0122 28.1797L23.0649 28.0225C23.1281 27.8672 23.2246 27.7185 23.3638 27.5938C23.5481 27.4287 23.7656 27.3425 23.9751 27.3066L24.2915 27.2529L24.6069 27.1992C24.7286 27.1784 24.794 27.1431 24.8286 27.1172L25.2544 26.7988C25.2799 26.7797 25.3146 26.7445 25.3472 26.6641L25.4595 26.3857L25.5718 26.1084C25.6723 25.8605 25.8061 25.632 25.9771 25.4307L26.1528 25.2236L26.3296 25.0156C26.4737 24.8459 26.6312 24.6898 26.8022 24.5488L27.0103 24.3779L27.2173 24.207C27.361 24.0886 27.5069 23.9722 27.6538 23.8584L27.8667 23.6934L28.0786 23.5293C28.3416 23.3256 28.6484 23.2204 28.9663 23.1895L29.2739 23.1592L29.5298 23.1338L29.6421 22.9414L29.7905 22.6875C29.9517 22.4114 30.1785 22.1841 30.4712 22.0352L30.7114 21.9131L30.9526 21.791C31.122 21.7049 31.2931 21.6225 31.4653 21.5439L31.7095 21.4316L31.9546 21.3203C32.0104 21.2948 32.0646 21.2548 32.1187 21.1875L32.2974 20.9658L32.4771 20.7432L32.5737 20.6338C32.8108 20.394 33.1164 20.26 33.4536 20.2354L33.7495 20.2139L34.0444 20.1924C34.1987 20.1811 34.3392 20.157 34.4663 20.1221L34.73 20.0498L34.9937 19.9766C35.0386 19.9641 35.077 19.9428 35.1177 19.8994L35.3101 19.6934L35.5024 19.4883C35.7037 19.2733 35.9466 19.11 36.2261 19.0098L36.479 18.9189L36.731 18.8281C36.8796 18.7749 37.0252 18.7157 37.1665 18.6504L37.6489 18.4277C37.7078 18.4005 37.7729 18.354 37.8423 18.2734L38.0356 18.0498L38.228 17.8262C38.4503 17.5683 38.7395 17.386 39.0845 17.3154L39.353 17.2607L39.6206 17.2061C39.7389 17.1819 39.849 17.1443 39.9517 17.0928L40.1909 16.9717L40.4312 16.8516C40.6016 16.766 40.7748 16.6852 40.9497 16.6084L41.4419 16.3916C41.7446 16.2588 42.066 16.2296 42.3813 16.2783L42.6812 16.3252L42.98 16.3711C43.0103 16.3757 43.0261 16.3738 43.0308 16.373C43.0337 16.3726 43.0362 16.3727 43.0405 16.3701L43.5093 16.0908C43.6484 16.008 43.7867 15.9177 43.9233 15.8203L44.1519 15.6572L44.3794 15.4951C44.7049 15.2633 45.0842 15.199 45.4575 15.2744L45.7524 15.334L45.9829 15.3809L46.1538 15.2188L46.3735 15.0107C46.6043 14.7923 46.883 14.6338 47.2056 14.5693L47.4692 14.5166L47.7319 14.4639C47.9644 14.4175 48.2019 14.4003 48.4409 14.4102L48.7173 14.4219L48.9946 14.4326C49.1737 14.44 49.3519 14.4458 49.5278 14.4492L49.8003 14.4541L50.0728 14.46C50.1231 14.4609 50.1719 14.45 50.229 14.418L50.4741 14.2803L50.7202 14.1426C50.9604 14.0077 51.2196 13.9195 51.4937 13.8867L51.7583 13.8555L52.0229 13.8232C52.1666 13.8061 52.3101 13.7793 52.4526 13.7422L52.7134 13.6748L52.9731 13.6064C53.1565 13.5587 53.3414 13.5152 53.5259 13.4756L53.7876 13.4189L54.0493 13.3633C54.3786 13.2927 54.7039 13.3337 55.0044 13.4531L55.2847 13.5654L55.5298 13.6631L55.7456 13.5391L56.0024 13.3936C56.3163 13.2153 56.6719 13.1521 57.0356 13.2324L57.3071 13.292L57.5796 13.3525C57.6713 13.3728 57.754 13.3728 57.8325 13.3584L58.0962 13.3105L58.3608 13.2617C58.6174 13.2146 58.8769 13.2123 59.1343 13.2549L59.3999 13.2988L59.6655 13.3438C59.6776 13.3457 59.7072 13.3493 59.772 13.3174L60.0435 13.1826L60.3149 13.0488C60.5952 12.9106 60.9025 12.8396 61.2241 12.8652Z" fill="#303A4B"/>
</svg>
