<svg width="128" height="128" viewBox="0 0 128 128" fill="none" xmlns="http://www.w3.org/2000/svg">
<path d="M108.194 3.2334L108.472 3.25C108.707 3.26072 108.939 3.29412 109.167 3.35547L109.439 3.42773L109.706 3.5C109.778 3.51964 109.851 3.52585 109.927 3.51074L110.2 3.45508L110.478 3.40039C110.737 3.34878 111.001 3.33622 111.261 3.37207L111.528 3.41113L111.8 3.4502C112.025 3.48127 112.246 3.53178 112.461 3.60547L112.722 3.69434L112.978 3.7832C113.115 3.83005 113.257 3.86371 113.4 3.88867L113.667 3.93848L113.939 3.9834C114.292 4.04493 114.588 4.22723 114.817 4.4834L115.016 4.71094L115.216 4.93359C115.294 5.02083 115.367 5.07066 115.427 5.09961L115.906 5.32227C115.984 5.35913 116.083 5.38771 116.206 5.40039L116.5 5.43359L116.789 5.46094C117.087 5.49155 117.369 5.59036 117.623 5.75586L117.85 5.90039L118.078 6.0498C118.319 6.2069 118.518 6.41347 118.672 6.65527L118.828 6.89453L118.978 7.13281C119.001 7.16896 119.026 7.19378 119.067 7.21094L119.333 7.31641L119.6 7.42773C119.863 7.53659 120.098 7.69391 120.294 7.90039L120.483 8.09961L120.672 8.29395C120.811 8.43921 120.941 8.59413 121.067 8.75L121.411 9.17188C121.544 9.33624 121.667 9.50869 121.778 9.68848L121.922 9.92188L122.067 10.1504C122.234 10.4204 122.315 10.723 122.328 11.0332L122.338 11.333L122.35 11.6387C122.354 11.7477 122.377 11.8146 122.4 11.8555L122.656 12.3115C122.735 12.4552 122.819 12.6007 122.906 12.7441L123.183 13.2002C123.245 13.3008 123.323 13.408 123.427 13.5166L123.639 13.7334L123.844 13.9443C123.995 14.1005 124.113 14.3027 124.161 14.5391C124.207 14.7712 124.177 14.9947 124.111 15.1885L123.9 15.7891C123.863 15.8978 123.868 15.9612 123.873 15.9893L123.917 16.25L123.966 16.5059C123.988 16.6246 124.025 16.7462 124.078 16.8721L124.289 17.3828C124.369 17.5773 124.433 17.771 124.483 17.9609L124.544 18.2002L124.605 18.4336C124.628 18.5218 124.661 18.6536 124.661 18.7891C124.66 18.8488 124.659 19.0045 124.572 19.167C124.539 19.2273 124.487 19.2885 124.422 19.3496V19.4053L124.417 19.6719C124.407 19.9221 124.356 20.1686 124.272 20.4053L124.094 20.917C124.091 20.9273 124.082 20.9504 124.1 21.0107L124.278 21.5889C124.407 22.0038 124.332 22.4253 124.05 22.7666L123.672 23.2217C123.585 23.3276 123.523 23.4304 123.483 23.5225L123.383 23.7607L123.278 24.0059C123.226 24.1271 123.181 24.2561 123.15 24.3887L123.088 24.6445L123.028 24.9053C122.973 25.1383 122.89 25.3616 122.778 25.5723L122.656 25.8057L122.528 26.0439C122.479 26.1363 122.437 26.2427 122.411 26.3662L122.355 26.6445L122.294 26.9219C122.207 27.3295 121.951 27.6408 121.594 27.8223L121.328 27.9609L121.055 28.0947C120.969 28.1387 120.929 28.1832 120.906 28.2168L120.605 28.6504C120.545 28.7383 120.491 28.8504 120.444 28.9834L120.344 29.2607L120.25 29.5391C120.118 29.91 119.851 30.1961 119.478 30.3447L118.944 30.5557C118.881 30.5808 118.837 30.6139 118.805 30.6553L118.639 30.8721L118.466 31.0889C118.259 31.3561 117.984 31.5411 117.661 31.6328L117.389 31.7109L117.123 31.7891C116.951 31.8376 116.783 31.8869 116.623 31.9385L116.367 32.0225L116.127 32.0947C116.124 32.0973 116.108 32.1105 116.088 32.1445L115.922 32.4277L115.761 32.7051C115.56 33.0486 115.232 33.3095 114.789 33.3613L114.233 33.4277C114.11 33.4421 113.992 33.4659 113.88 33.498C113.944 33.5848 114.009 33.6721 114.074 33.7588L114.236 33.9746L114.398 34.1895C114.528 34.3628 114.644 34.5457 114.745 34.7363L114.87 34.9717L114.994 35.208C115.046 35.3072 115.116 35.405 115.205 35.501L115.396 35.709L115.588 35.917C115.869 36.2207 115.974 36.6025 115.929 36.9922L115.895 37.2949L115.866 37.543L116.039 37.7031L116.257 37.9062C116.485 38.1179 116.659 38.3777 116.75 38.6836L116.828 38.9414L116.905 39.1982C116.985 39.4667 117.006 39.7443 116.977 40.0225L116.948 40.3115L116.918 40.5859L117.102 40.7979L117.294 41.0205C117.478 41.2332 117.619 41.4741 117.707 41.7412L117.792 41.9971L117.875 42.2529C117.976 42.5601 117.98 42.8762 117.909 43.1826L117.841 43.4727L117.784 43.7129L117.945 43.9141L118.133 44.1484C118.366 44.4378 118.486 44.7921 118.447 45.1787L118.417 45.4561L118.389 45.7334C118.375 45.8703 118.375 46.0015 118.389 46.126L118.418 46.3906L118.448 46.6562C118.467 46.8324 118.488 47.009 118.507 47.1855L118.537 47.4521L118.566 47.7178C118.59 47.9372 118.595 48.1581 118.581 48.3789L118.563 48.6475L118.544 48.915C118.536 49.0368 118.543 49.1578 118.564 49.2773L118.611 49.541L118.657 49.8057C118.687 49.9764 118.719 50.1479 118.753 50.3193L118.807 50.585L118.86 50.8506C118.91 51.1024 118.919 51.3576 118.886 51.6123L118.853 51.8809L118.819 52.1484C118.797 52.3223 118.777 52.4962 118.758 52.6689L118.702 53.2021C118.678 53.4234 118.634 53.6435 118.571 53.8604L118.415 54.3936C118.404 54.4298 118.404 54.4594 118.417 54.501L118.507 54.7676L118.596 55.0342C118.668 55.2471 118.721 55.4632 118.756 55.6807L118.799 55.9473L118.842 56.2148C118.871 56.3922 118.9 56.5698 118.928 56.7471L119.014 57.2803C119.045 57.4723 119.07 57.6651 119.089 57.8574L119.142 58.3906C119.172 58.6901 119.125 58.983 119.014 59.2588L118.799 59.792C118.733 59.9566 118.673 60.1214 118.619 60.2852L118.53 60.5527L118.445 60.8057C118.445 60.8067 118.446 60.8084 118.447 60.8096L118.512 60.9424C118.285 60.7971 118.031 60.7132 117.764 60.6865L117.176 60.6279C117.053 60.6157 116.965 60.5882 116.902 60.5566L116.674 60.4424L116.447 60.3271C116.343 60.2749 116.233 60.2055 116.119 60.1152L115.897 59.9395L115.674 59.7637C115.466 59.5992 115.236 59.4709 114.987 59.3818L114.723 59.2881L114.459 59.1934C114.432 59.1837 114.405 59.1759 114.377 59.168L114.489 59.3447C114.568 59.4708 114.655 59.5846 114.745 59.6836L114.922 59.8838L115.106 60.0781C115.285 60.2752 115.422 60.5017 115.517 60.75L115.611 61.0059L115.711 61.2559C115.738 61.324 115.777 61.3935 115.844 61.4619L116.25 61.8672C116.472 62.09 116.63 62.3641 116.706 62.6729L116.839 63.2061C116.898 63.4466 116.92 63.6921 116.912 63.9395L116.906 64.2119L116.895 64.4834C116.889 64.6623 116.882 64.8422 116.878 65.0166L116.867 65.5508C116.863 65.6993 116.868 65.8504 116.883 66L116.939 66.5332C116.956 66.7045 116.978 66.8781 117 67.0508L117.034 67.3223L117.067 67.5889C117.111 67.9237 117.046 68.2473 116.895 68.5391L116.761 68.8008L116.628 69.0557L116.8 69.5723C116.888 69.838 116.926 70.1148 116.9 70.3945L116.844 70.9277C116.834 71.0355 116.84 71.1417 116.861 71.2451L116.917 71.5059L116.967 71.7617C116.996 71.9032 117.037 72.0433 117.083 72.1777L117.167 72.4229L117.255 72.6729C117.309 72.8279 117.366 72.9855 117.428 73.1445L117.528 73.4004L117.539 73.4336L117.839 73.3779L118 74.0508L118.022 74.1445L117.333 74.3115L117.456 74.9111L117.344 74.9336L117.089 74.9893L116.856 74.8613L116.789 74.8223C116.58 74.7073 116.472 74.5194 116.439 74.4619C116.387 74.3713 116.339 74.2711 116.3 74.1729L116.206 73.917L116.106 73.667C116.037 73.4907 115.972 73.3133 115.912 73.1396L115.823 72.8896L115.739 72.6445C115.671 72.4493 115.614 72.2484 115.573 72.0449L115.522 71.7832L115.472 71.5283C115.423 71.2867 115.41 71.0406 115.433 70.7949L115.456 70.5283L115.484 70.2617C115.491 70.189 115.48 70.1069 115.45 70.0166L115.272 69.4834C115.151 69.1165 115.188 68.7419 115.361 68.4062L115.5 68.1445L115.633 67.8838C115.661 67.8297 115.659 67.7967 115.656 67.7725L115.623 67.5059L115.589 67.2334C115.565 67.0477 115.541 66.8624 115.522 66.6777L115.495 66.4111L115.467 66.1396C115.447 65.9343 115.44 65.7279 115.445 65.5225L115.45 65.25L115.456 64.9834C115.46 64.8029 115.466 64.6182 115.472 64.4336L115.484 64.1611L115.489 63.8896C115.493 63.7738 115.483 63.6588 115.456 63.5449L115.323 63.0117C115.311 62.965 115.291 62.9193 115.245 62.8721L114.839 62.4668C114.64 62.2665 114.485 62.0315 114.383 61.7666L114.284 61.5117L114.189 61.2617C114.156 61.1758 114.11 61.0993 114.05 61.0332L113.873 60.8389L113.689 60.6396C113.54 60.4752 113.404 60.2934 113.284 60.1006L113.133 59.8613L113 59.6504C112.961 59.6282 112.881 59.5949 112.75 59.5615L112.376 59.4668L112.139 59.4375C112.077 59.4299 112.015 59.4266 111.955 59.4268C111.951 59.3772 111.944 59.3282 111.937 59.2793L111.867 59.1895L111.8 59.1113L111.889 59.0391C111.86 58.9308 111.821 58.8246 111.771 58.7217L111.654 58.4814L111.537 58.2422C111.499 58.1659 111.474 58.0762 111.464 57.9688L111.44 57.6865L111.415 57.4033L111.39 57.2393C111.309 56.8701 111.073 56.5877 110.762 56.4072L110.487 56.2471L110.258 56.1152L110.243 55.9092L110.22 55.6201C110.192 55.2513 110.034 54.919 109.751 54.668L109.542 54.4814L109.333 54.2959C109.311 54.2764 109.3 54.2595 109.292 54.2236L109.236 53.9453L109.18 53.667C109.108 53.3083 108.914 53.0048 108.619 52.7881L108.391 52.6201L108.163 52.4531C108.065 52.3813 107.989 52.3042 107.93 52.2246L107.773 52.0107L107.617 51.7979C107.577 51.7433 107.54 51.6695 107.517 51.5654L107.39 50.9951L107.351 50.8516C107.242 50.5254 107.02 50.2634 106.707 50.0986L106.45 49.9639L106.192 49.8281C106.119 49.7897 106.079 49.7497 106.054 49.7109L105.763 49.2617C105.682 49.136 105.606 49.0022 105.536 48.8613L105.413 48.6143L105.291 48.3672C105.182 48.1486 105.047 47.9468 104.887 47.7646L104.71 47.5635L104.534 47.3613C104.435 47.2495 104.343 47.1301 104.257 47.0039L104.104 46.7793L103.952 46.5537C103.75 46.2562 103.462 46.0606 103.133 45.959L102.847 45.8701L102.561 45.7822C102.423 45.7395 102.309 45.6866 102.215 45.6279L101.988 45.4854L101.76 45.3418C101.758 45.3401 101.755 45.3379 101.751 45.333C101.747 45.3267 101.736 45.3095 101.723 45.2744L101.621 44.9844L101.518 44.6953C101.396 44.3488 101.163 44.0546 100.809 43.8828L100.563 43.7627L100.316 43.6426C100.202 43.5871 100.099 43.5207 100.007 43.4443L99.8022 43.2734L99.5962 43.1025C99.4533 42.9836 99.3085 42.8667 99.1626 42.7529L98.9526 42.5889L98.7427 42.4258C98.5541 42.2788 98.3482 42.1571 98.1274 42.0615L97.8774 41.9531L97.6265 41.8447C97.5661 41.8186 97.5157 41.7815 97.4702 41.7256L97.2954 41.5098L97.1206 41.2949C96.9308 41.0614 96.6928 40.882 96.4136 40.7666L96.1616 40.6631L95.9097 40.5586C95.7858 40.5074 95.6714 40.4455 95.5659 40.374L95.3462 40.2256L95.1255 40.0762C95.018 40.0033 94.9144 39.9172 94.8149 39.8174L94.4243 39.4248L94.3208 39.3311C94.0718 39.1254 93.772 39.0213 93.4546 39.0088L93.1558 38.9971L92.8579 38.9854C92.7554 38.9813 92.6869 38.9587 92.6392 38.9326L92.4067 38.8047L92.1733 38.6777C92.1313 38.6547 92.0769 38.6119 92.0181 38.5244L91.8491 38.2715L91.6792 38.0186L91.5825 37.8926C91.4777 37.7709 91.3469 37.665 91.188 37.5898C91.0298 37.5151 90.8663 37.4816 90.7075 37.4766L90.5503 37.4805L90.3101 37.5C90.4579 37.5812 90.5955 37.6811 90.7173 37.8047L90.9077 37.998L91.0972 38.1914C91.2185 38.3147 91.3428 38.436 91.4673 38.5547L91.6616 38.7402L91.8569 38.9268C92.0945 39.1533 92.2468 39.4354 92.3276 39.7422L92.4048 40.0381L92.4829 40.334C92.5141 40.4527 92.5563 40.532 92.5972 40.585L92.9214 41.0029C93.0157 41.1246 93.1161 41.2423 93.2212 41.3545L93.4019 41.5479L93.5825 41.7402C93.6366 41.7979 93.715 41.8581 93.8286 41.9141L94.0991 42.0469L94.3696 42.1807C94.6576 42.3222 94.8924 42.5425 95.0347 42.8379L95.0894 42.9688L95.1841 43.2285L95.2788 43.4893C95.3259 43.6187 95.3835 43.7384 95.4507 43.8477L95.5913 44.0752L95.7319 44.3037C95.795 44.4061 95.8738 44.5057 95.9692 44.6016L96.1685 44.8008L96.3667 45.001C96.6167 45.2517 96.7633 45.5661 96.7983 45.916L96.855 46.4844C96.868 46.6142 96.8956 46.73 96.9351 46.832L97.1284 47.3301C97.1868 47.4807 97.2508 47.6305 97.3198 47.7783L97.4341 48.0225L97.5474 48.2656C97.664 48.5153 97.7281 48.7815 97.7388 49.0566L97.7485 49.3301L97.7593 49.6035C97.7603 49.6281 97.7672 49.6611 97.8062 49.7129L97.9849 49.9492L98.1636 50.1865C98.3687 50.4581 98.4871 50.7788 98.4849 51.1309L98.481 51.6797C98.4796 51.8819 98.4699 52.0844 98.4517 52.2852L98.4263 52.5566L98.4019 52.8281C98.3906 52.9519 98.3942 53.0744 98.4126 53.1943L98.4536 53.4619L98.4956 53.7285C98.5386 54.0074 98.5211 54.287 98.4458 54.5586L98.3726 54.8223L98.2993 55.0869C98.2728 55.1828 98.2634 55.2794 98.271 55.3779L98.2915 55.6504L98.313 55.9229C98.3292 56.1319 98.3331 56.3421 98.3247 56.5508L98.314 56.8213L98.3032 57.0928C98.2957 57.2793 98.286 57.4649 98.2739 57.6475L98.2388 58.1768C98.2219 58.4315 98.1634 58.6798 98.0669 58.917L97.8599 59.4248C97.8117 59.5432 97.7785 59.6632 97.7603 59.7832L97.7202 60.0479L97.6802 60.3135C97.6571 60.4651 97.642 60.6177 97.6353 60.7695L97.6235 61.0352L97.6118 61.3018C97.6029 61.5008 97.5842 61.6997 97.5571 61.8965L97.4849 62.4219C97.4637 62.5758 97.4494 62.7319 97.4419 62.8877L97.4292 63.1543L97.4165 63.4199C97.404 63.6802 97.346 63.934 97.2495 64.1777L97.145 64.4424L97.0649 64.6475L97.2056 64.8857L97.3647 65.1553C97.5699 65.5015 97.6277 65.907 97.4741 66.3086L97.3726 66.5762L97.27 66.8438C97.2132 66.9922 97.1671 67.1413 97.1323 67.29L97.0054 67.835C96.9973 67.87 96.999 67.8967 97.0142 67.9336L97.1216 68.1934L97.229 68.4541C97.32 68.6745 97.3861 68.9014 97.4243 69.1328L97.4673 69.3965L97.5112 69.6592C97.5426 69.8494 97.5679 70.0427 97.5874 70.2363L97.6147 70.5049L97.6411 70.7734C97.6551 70.9118 97.6813 71.048 97.7183 71.1797L97.8628 71.6953C97.8962 71.8141 97.9433 71.9298 98.0044 72.041L98.2661 72.5156C98.3746 72.713 98.4645 72.9202 98.5337 73.1338L98.6157 73.3896L98.6987 73.6455C98.7318 73.7476 98.7795 73.8422 98.8413 73.9297L99.1519 74.3691C99.2604 74.5226 99.3687 74.6812 99.4751 74.8438L99.6284 75.0781L99.7534 75.2676L100.013 75.2979L100.309 75.333C100.548 75.361 100.778 75.4097 100.993 75.4844L101.23 75.5674L101.466 75.6494C101.569 75.6852 101.671 75.7291 101.77 75.7783L101.752 75.4053L102.911 76.1475L102.995 76.2012L102.649 76.7402L103.237 76.7129L103.246 76.8965L103.255 77.1064L103.149 77.2891L103.111 77.3535C102.962 77.6068 102.715 77.7048 102.524 77.7207C102.366 77.7337 102.236 77.6947 102.173 77.6729C102.039 77.6261 101.914 77.5494 101.82 77.4873L101.572 77.3242L101.325 77.1602C101.201 77.0781 101.091 77.0245 100.999 76.9922L100.762 76.9102L100.525 76.8281C100.424 76.7931 100.298 76.7633 100.144 76.7451L99.8481 76.7109L99.5522 76.6758C99.1618 76.6298 98.8169 76.4346 98.5913 76.0898L98.438 75.8564L98.2856 75.623C98.1884 75.4743 98.09 75.3293 97.9917 75.1904L97.8354 74.9707L97.6802 74.751C97.5354 74.5462 97.4235 74.3226 97.3462 74.084L97.2632 73.8281L97.1802 73.5713C97.1389 73.444 97.0855 73.3203 97.02 73.2012L96.8892 72.9639L96.7583 72.7256C96.6456 72.5205 96.5568 72.3046 96.4937 72.0801L96.3491 71.5645C96.2897 71.3528 96.2482 71.1356 96.2261 70.916L96.1997 70.6475L96.1724 70.3789C96.1558 70.2147 96.1344 70.0509 96.1079 69.8906L96.064 69.6279L96.021 69.3643C96.0013 69.2455 95.9665 69.1228 95.9146 68.9971L95.8071 68.7363L95.6997 68.4766C95.5721 68.1673 95.5443 67.8376 95.6206 67.5107L95.6841 67.2393L95.7476 66.9668C95.7974 66.7535 95.8625 66.5423 95.9419 66.335L96.0435 66.0674L96.1255 65.8525L95.9819 65.6113L95.8218 65.3418C95.6164 64.995 95.5589 64.5866 95.7183 64.1836L95.9272 63.6543C95.9702 63.5458 95.9911 63.4452 95.9956 63.3516L96.021 62.8203C96.0305 62.6225 96.0487 62.4244 96.0757 62.2285L96.1118 61.9658L96.1479 61.7021C96.169 61.5489 96.184 61.3937 96.1909 61.2383L96.2026 60.9727L96.2144 60.7061C96.2234 60.5036 96.2434 60.3008 96.2739 60.0996L96.314 59.834L96.355 59.5693C96.3904 59.3364 96.4531 59.1083 96.5425 58.8887L96.7495 58.3809C96.7905 58.2799 96.8123 58.1809 96.8188 58.083L96.854 57.5537C96.8653 57.3836 96.8753 57.2098 96.8823 57.0352L96.8931 56.7637L96.9038 56.4932C96.91 56.3408 96.907 56.1868 96.895 56.0332L96.8735 55.7607L96.853 55.4883C96.8325 55.2242 96.8574 54.9613 96.9282 54.7061L97.0015 54.4424L97.0747 54.1777C97.0968 54.0979 97.1012 54.0221 97.0894 53.9453L97.0483 53.6787L97.0073 53.4111C96.9711 53.1756 96.9642 52.9371 96.9858 52.6992L97.0347 52.1562C97.0493 51.9953 97.058 51.8325 97.0591 51.6699L97.0601 51.3955L97.062 51.1211C97.0621 51.1078 97.0614 51.0872 97.0288 51.0439L96.8501 50.8066L96.6714 50.5703C96.4725 50.307 96.3516 49.9978 96.3384 49.6582L96.3169 49.1113C96.3134 49.0225 96.2942 48.943 96.2593 48.8682L96.145 48.624L96.0317 48.3799C95.9493 48.2034 95.8722 48.0244 95.8022 47.8438L95.6089 47.3457C95.5201 47.1162 95.4648 46.8745 95.4399 46.626L95.4116 46.3418L95.3833 46.0566C95.3813 46.0376 95.3777 46.0281 95.3765 46.0254C95.3749 46.0224 95.3704 46.0154 95.3599 46.0049L95.1606 45.8057L94.9624 45.6055C94.7932 45.4357 94.6448 45.2498 94.521 45.0488L94.2397 44.5938C94.1202 44.3996 94.0208 44.1925 93.9419 43.9756L93.8481 43.7148L93.7573 43.4648C93.754 43.4628 93.7488 43.4601 93.7427 43.457L93.4722 43.3242L93.2017 43.1904C92.9552 43.0692 92.7311 42.9121 92.5444 42.7129L92.3638 42.5195L92.1831 42.3271C92.0476 42.1825 91.9188 42.0308 91.7974 41.874L91.4731 41.4561C91.2984 41.2303 91.1803 40.9714 91.1079 40.6963L90.9517 40.1045C90.9287 40.0174 90.8979 39.9774 90.8755 39.9561L90.6812 39.7695L90.4858 39.584C90.3504 39.4549 90.2163 39.3224 90.0845 39.1885L89.894 38.9961L89.7036 38.8027C89.6666 38.7653 89.6157 38.7316 89.5347 38.707L88.9761 38.5371C88.7734 38.4756 88.576 38.4082 88.3862 38.334L88.1294 38.2324L87.8716 38.1318C87.6269 38.0361 87.4021 37.902 87.2046 37.7295L87.0054 37.5547L86.8052 37.3809C86.6049 37.2058 86.4394 36.9955 86.3071 36.7617L86.1616 36.5029L86.0151 36.2451C85.9766 36.1772 85.9411 36.1483 85.9126 36.1328L85.6753 36.0049L85.439 35.876C85.3685 35.8379 85.2812 35.8091 85.1714 35.7969L84.8813 35.7646L84.5903 35.7324C84.2633 35.6959 83.9582 35.5713 83.7046 35.3477L83.5005 35.167L83.2964 34.9873C83.2358 34.9339 83.177 34.8776 83.1177 34.8213C83.0009 34.8003 82.887 34.7732 82.7778 34.7354L82.5269 34.6484L82.2769 34.5615C82.1479 34.5168 82.0196 34.4604 81.8931 34.3916L81.6528 34.2607L81.4126 34.1309C81.1523 33.9892 80.8689 33.9139 80.5728 33.9082L80.2993 33.9023L80.0259 33.8975C79.9097 33.8951 79.8002 33.8772 79.6968 33.8447L79.4429 33.7646L79.188 33.6846C79.0978 33.6562 79.0033 33.6098 78.9048 33.5381L78.731 33.4111C78.4392 33.4239 78.1623 33.3483 77.9146 33.2129L77.6401 33.0625L77.3735 32.917L76.9048 32.9492C76.8244 32.9546 76.7467 32.9525 76.6714 32.9473C76.7838 33.0644 76.8886 33.1893 76.9839 33.3213L77.145 33.5381L77.3003 33.7607C77.4013 33.9007 77.5079 34.0388 77.6118 34.1719L77.7729 34.3828L77.9399 34.5938C78.0332 34.713 78.1333 34.8282 78.2397 34.9385L78.6177 35.3271C78.7462 35.4602 78.8729 35.5993 79.0005 35.7383L79.1899 35.9385L79.3726 36.1436C79.6161 36.4091 79.7445 36.7343 79.7622 37.083L79.7788 37.377L79.7896 37.6719C79.7919 37.7128 79.8025 37.7276 79.8169 37.7441L80.0005 37.9551L80.1899 38.1719C80.4004 38.4133 80.5395 38.7001 80.5845 39.0215L80.6177 39.2939L80.6558 39.5605C80.6782 39.7215 80.711 39.8825 80.7456 40.0381L80.8003 40.2998L80.8618 40.5605C80.9061 40.7596 80.9387 40.9636 80.9614 41.166L80.9897 41.4268L81.0229 41.6943C81.0492 41.9283 81.0423 42.1652 81.0122 42.3994L80.978 42.6719L80.9448 42.9385C80.9404 42.9731 80.942 43.0205 80.9731 43.0879L81.0952 43.3555L81.2231 43.6221C81.3752 43.9525 81.4051 44.3154 81.2896 44.6719L81.2007 44.9385L81.1177 45.2051C81.077 45.331 81.0493 45.4524 81.0396 45.5713L81.0171 45.8379L81.0005 46.1055C80.9895 46.2421 80.9881 46.3817 81.0005 46.5215L81.0229 46.7881L81.0503 47.0605C81.0708 47.2929 81.0613 47.5247 81.0288 47.7549L80.9956 48.0215L80.9565 48.2832C80.9213 48.5319 80.846 48.7741 80.7397 49.0049L80.6226 49.2666L80.5005 49.5273C80.4857 49.5601 80.4849 49.5774 80.4897 49.5996L80.6118 50.1436C80.6643 50.3753 80.6924 50.6091 80.6899 50.8438V51.1104L80.6841 51.377C80.6816 51.6072 80.6533 51.8392 80.6011 52.0664L80.5396 52.333L80.478 52.6055C80.4533 52.7146 80.4483 52.8218 80.4565 52.9268L80.4731 53.1943L80.4956 53.4658C80.5037 53.567 80.5303 53.6664 80.5728 53.7666L80.6782 54.0215L80.7896 54.2773C80.8674 54.4608 80.9379 54.6443 81.0005 54.8271L81.0845 55.083L81.1733 55.333C81.2536 55.5685 81.2957 55.8149 81.3062 56.0664L81.3286 56.6328C81.3291 56.6414 81.3339 56.6469 81.3345 56.6494V56.6553L81.3394 56.6602L81.5337 56.8662L81.7231 57.0713C81.8978 57.2586 82.0415 57.4686 82.1509 57.6992L82.2671 57.9492L82.3843 58.1943C82.4396 58.311 82.5093 58.4238 82.5894 58.5273L82.606 58.5439L82.7114 57.749L83.7563 59.4551L83.8062 59.5381L83.3003 59.8438L83.8511 59.9219L83.8286 60.0938L83.8003 60.2998L83.6675 60.4609L83.6284 60.5049C83.4901 60.6676 83.2955 60.7554 83.1011 60.7666C82.9353 60.7756 82.8032 60.7302 82.7339 60.6992C82.6002 60.6393 82.4983 60.5477 82.4399 60.4941L82.3062 60.3721L82.1782 60.2549C82.0503 60.1373 81.9197 59.988 81.7954 59.8271L81.4614 59.3936C81.3191 59.2093 81.2004 59.0098 81.1011 58.7998L80.8677 58.3105C80.8229 58.2158 80.761 58.1269 80.6841 58.0439L80.4897 57.8379L80.3003 57.6328C80.0563 57.3708 79.9265 57.0434 79.9116 56.6885L79.895 56.4102L79.8843 56.127C79.8791 56.0026 79.8561 55.8918 79.8228 55.7939L79.7397 55.5381L79.6558 55.2881C79.6045 55.1382 79.5435 54.987 79.478 54.833L79.3726 54.5771L79.2622 54.3213C79.1613 54.0833 79.099 53.8343 79.0786 53.5771L79.0562 53.3047L79.0337 53.0381C79.0137 52.7849 79.0324 52.5314 79.0894 52.2832L79.1558 52.0166L79.2173 51.7441C79.2472 51.6133 79.2609 51.4843 79.2622 51.3604L79.2671 51.0938V50.8271C79.2682 50.7081 79.257 50.5831 79.228 50.4551L79.1675 50.1885L79.106 49.916C79.0295 49.5788 79.0688 49.2429 79.2114 48.9326L79.3286 48.6719L79.4507 48.4102C79.5023 48.2977 79.5307 48.1899 79.5454 48.0879L79.6226 47.5547C79.6396 47.4335 79.6454 47.3079 79.6343 47.1826L79.606 46.916L79.5845 46.6436C79.5652 46.4255 79.5611 46.2053 79.5786 45.9883L79.6011 45.7275L79.6226 45.4609C79.6415 45.2268 79.689 44.9931 79.7622 44.7666L79.8511 44.499L79.9341 44.2324L79.9399 44.2275L79.9282 44.2158L79.6841 43.6826C79.5507 43.3939 79.492 43.0783 79.5337 42.7549L79.5669 42.4883L79.606 42.2217C79.6218 42.0987 79.6194 41.9755 79.606 41.8555L79.5786 41.5879L79.5454 41.3213C79.5284 41.1705 79.5061 41.0204 79.4731 40.8721L79.4116 40.6055L79.356 40.3438C79.3133 40.1518 79.278 39.9575 79.2505 39.7607L79.2114 39.4883L79.1733 39.2217C79.1682 39.1847 79.1541 39.1474 79.1177 39.1055L78.9341 38.8936L78.7456 38.6768C78.5139 38.4107 78.3906 38.0907 78.3726 37.7441L78.3394 37.1553C78.3382 37.1318 78.3357 37.1199 78.3345 37.1162C78.3339 37.1148 78.3331 37.1108 78.3286 37.1055L78.1392 36.8994L77.9565 36.6992C77.8371 36.5691 77.715 36.4404 77.5952 36.3164L77.2173 35.9268C77.0757 35.7802 76.9416 35.6256 76.8169 35.4658L76.6558 35.2549L76.4897 35.0439C76.3752 34.8972 76.2616 34.7472 76.1509 34.5938L75.8286 34.1494C75.7507 34.0417 75.663 33.9442 75.5669 33.8555L75.3677 33.6719L75.2036 33.5176C75.1838 33.5205 75.1641 33.526 75.144 33.5283L74.8784 33.5586L74.6138 33.5898C74.347 33.6205 74.0801 33.5999 73.8198 33.5332L73.2788 33.3945C73.1739 33.3677 73.0763 33.3608 72.9839 33.3691L72.7173 33.3926L72.4517 33.417C72.1745 33.442 71.8998 33.4091 71.6353 33.3252L71.3647 33.2393L71.0933 33.1533C71.0211 33.1305 70.964 33.1293 70.9126 33.1396L70.6489 33.1924L70.3843 33.2461C70.2544 33.2723 70.1214 33.3122 69.9868 33.3672L69.7456 33.4648L69.8511 33.7334L69.9565 34.0107C70.0792 34.3393 70.0875 34.6927 69.9673 35.0332L69.8784 35.2949L69.7837 35.5498C69.7449 35.6595 69.7276 35.7682 69.7231 35.8721L69.7007 36.4053C69.6958 36.5236 69.704 36.643 69.728 36.7607L69.7837 37.0225L69.8335 37.2832C69.876 37.4909 69.9054 37.7015 69.9175 37.9111L69.9341 38.1719L69.9448 38.4336C69.9575 38.6551 69.9511 38.8828 69.9224 39.1113L69.8843 39.3945L69.8511 39.6836L70.0171 39.9004L70.1841 40.1221C70.3102 40.2903 70.425 40.4649 70.5288 40.6387L70.6616 40.8672L70.8003 41.0889C70.8598 41.1885 70.9127 41.2956 70.9673 41.4004L71.0894 40.6504L72.062 42.6172L72.106 42.7061L71.5894 42.9609L72.1226 43.0498L72.0952 43.2275L72.062 43.4219L71.9282 43.5723L71.895 43.6172C71.7452 43.7894 71.5362 43.87 71.3394 43.8721C71.1736 43.8731 71.0423 43.821 70.978 43.7891C70.8501 43.7253 70.7512 43.6325 70.6948 43.5781L70.5669 43.4502L70.4341 43.3281C70.261 43.1611 70.1318 42.9477 70.0337 42.7393L69.8003 42.2393C69.7312 42.0923 69.6561 41.9521 69.5786 41.8223L69.4448 41.5947L69.3062 41.3672C69.2294 41.2388 69.1432 41.1081 69.0454 40.9775L68.8784 40.75L68.7065 40.5283C68.4821 40.2282 68.3943 39.8727 68.4399 39.5059L68.4731 39.2168L68.5122 38.9336C68.5311 38.7833 68.5361 38.6442 68.5288 38.5166L68.4946 37.9941C68.4866 37.8543 68.4689 37.7082 68.4399 37.5664L68.3892 37.3057L68.3335 37.0449C68.2863 36.814 68.2689 36.5798 68.2788 36.3447L68.3003 35.8115C68.311 35.5615 68.361 35.3154 68.4448 35.0781L68.5337 34.8164L68.6284 34.5557V34.5449C68.6284 34.5432 68.6302 34.5319 68.6226 34.5107L68.5171 34.2334L68.4175 33.9609C68.3962 33.9042 68.3781 33.8463 68.3628 33.7881C68.229 33.7356 68.1036 33.6769 67.9946 33.6045L67.7759 33.46L67.5581 33.3145C67.3478 33.1746 67.1607 33.0015 66.9966 32.8027L66.8091 32.5742L66.6216 32.3467C66.5689 32.283 66.5227 32.2549 66.4829 32.2402L66.23 32.1475L65.9761 32.0537C65.8855 32.0204 65.7868 32.0017 65.6782 32L65.3989 31.9961L65.1196 31.9912C64.7662 31.9857 64.4454 31.8618 64.1763 31.6455L63.9458 31.4609L63.9282 31.4463L63.9106 31.4609L63.6802 31.6455C63.411 31.8618 63.0903 31.9858 62.7368 31.9912L62.603 31.9932C62.5814 31.9992 62.5627 32.0066 62.5454 32.0088L62.2808 32.043L62.0171 32.0762C61.9444 32.0854 61.8712 32.0863 61.7974 32.084L61.6265 32.1475L61.3735 32.2402C61.3338 32.255 61.2874 32.2831 61.2349 32.3467L61.0474 32.5742L60.8599 32.8027C60.6958 33.0015 60.5086 33.1746 60.2983 33.3145L60.0806 33.46L59.8618 33.6045C59.7975 33.6472 59.7276 33.6853 59.6538 33.7207C59.6359 33.8019 59.613 33.8823 59.5835 33.9609L59.4839 34.2334L59.3784 34.5107C59.3707 34.532 59.3726 34.5432 59.3726 34.5449V34.5557L59.4673 34.8164L59.5562 35.0781C59.6399 35.3154 59.69 35.5616 59.7007 35.8115L59.7222 36.3447C59.732 36.5798 59.7147 36.814 59.6675 37.0449L59.6118 37.3057L59.561 37.5664C59.532 37.7082 59.5144 37.8542 59.5063 37.9941L59.4722 38.5166C59.4648 38.6442 59.4699 38.7833 59.4888 38.9336L59.5278 39.2168L59.561 39.5059C59.6067 39.8726 59.5188 40.2283 59.2944 40.5283L59.1226 40.75L58.9556 40.9775C58.8577 41.1081 58.7716 41.2388 58.6948 41.3672L58.5562 41.5947L58.4224 41.8223C58.3448 41.9521 58.2699 42.0922 58.2007 42.2393L57.9673 42.7393C57.8692 42.9478 57.74 43.1611 57.5669 43.3281L57.4341 43.4502L57.3062 43.5781C57.2499 43.6324 57.151 43.7252 57.0229 43.7891C56.9588 43.821 56.8275 43.8731 56.6616 43.8721C56.4648 43.8701 56.2559 43.7893 56.106 43.6172L56.0728 43.5723L55.939 43.4219L55.9058 43.2275L55.8784 43.0498L56.4116 42.9609L55.895 42.7061L55.939 42.6172L56.9116 40.6504L57.0337 41.4004C57.0883 41.2955 57.1411 41.1886 57.2007 41.0889L57.3394 40.8672L57.4722 40.6387C57.5761 40.4648 57.6908 40.2903 57.8169 40.1221L57.9839 39.9004L58.1499 39.6836L58.1167 39.3945L58.0786 39.1113C58.0499 38.8828 58.0434 38.6551 58.0562 38.4336L58.0669 38.1719L58.0835 37.9111C58.0956 37.7015 58.125 37.4909 58.1675 37.2832L58.2173 37.0225L58.2729 36.7607C58.297 36.643 58.3052 36.5236 58.3003 36.4053L58.2778 35.8721C58.2734 35.7683 58.256 35.6595 58.2173 35.5498L58.1226 35.2949L58.0337 35.0332C57.9135 34.6927 57.9217 34.3394 58.0444 34.0107L58.1499 33.7334L58.2231 33.5449L58.2046 33.5039L58.1304 33.4736L57.8687 33.3672C57.734 33.3122 57.6011 33.2723 57.4712 33.2461L57.2065 33.1924L56.9429 33.1396C56.8915 33.1294 56.8344 33.1304 56.7622 33.1533L56.4907 33.2393L56.2202 33.3252C55.9556 33.409 55.681 33.4421 55.4038 33.417L55.1382 33.3926L54.8716 33.3691C54.7791 33.3609 54.6816 33.3677 54.5767 33.3945L54.0356 33.5332C53.7753 33.5998 53.5085 33.6205 53.2417 33.5898L52.9771 33.5586L52.9351 33.5537L52.811 33.6719L52.6118 33.8555C52.5156 33.9443 52.4281 34.0417 52.3501 34.1494L52.0278 34.5938C51.917 34.7473 51.8036 34.8971 51.689 35.0439L51.5229 35.2549L51.3618 35.4658C51.2371 35.6256 51.103 35.7801 50.9614 35.9268L50.5835 36.3164C50.4636 36.4405 50.3417 36.5691 50.2222 36.6992L50.0396 36.8994L49.8501 37.1055C49.8454 37.1109 49.8448 37.1148 49.8442 37.1162C49.843 37.1196 49.8406 37.1314 49.8394 37.1553L49.8062 37.7441C49.7881 38.0907 49.6647 38.4107 49.4331 38.6768L49.2446 38.8936L49.061 39.1055C49.0244 39.1475 49.0105 39.1847 49.0054 39.2217L48.9673 39.4883L48.9282 39.7607C48.9007 39.9575 48.8654 40.1518 48.8228 40.3438L48.7671 40.6055L48.7056 40.8721C48.6726 41.0205 48.6503 41.1705 48.6333 41.3213L48.6001 41.5879L48.5728 41.8555C48.5593 41.9756 48.5569 42.0987 48.5728 42.2217L48.6118 42.4883L48.645 42.7549C48.6867 43.0782 48.628 43.3939 48.4946 43.6826L48.2505 44.2158L48.2388 44.2275L48.2446 44.2324L48.3276 44.499L48.4165 44.7666C48.4897 44.9931 48.5372 45.2269 48.5562 45.4609L48.5776 45.7275L48.6001 45.9883C48.6176 46.2053 48.6135 46.4255 48.5942 46.6436L48.5728 46.916L48.5444 47.1826C48.5333 47.3079 48.5391 47.4334 48.5562 47.5547L48.6333 48.0879C48.648 48.1898 48.6764 48.2977 48.728 48.4102L48.8501 48.6719L48.9673 48.9326C49.1099 49.2429 49.1491 49.5789 49.0728 49.916L49.0112 50.1885L48.9507 50.4551C48.9216 50.5832 48.9105 50.7081 48.9116 50.8271V51.0938L48.9165 51.3604C48.9178 51.4843 48.9315 51.6133 48.9614 51.7441L49.0229 52.0166L49.0894 52.2832C49.1463 52.5314 49.165 52.7849 49.145 53.0381L49.1226 53.3047L49.1001 53.5771C49.0798 53.8344 49.0174 54.0832 48.9165 54.3213L48.8062 54.5771L48.7007 54.833C48.6352 54.9871 48.5743 55.1382 48.5229 55.2881L48.439 55.5381L48.356 55.7939C48.3226 55.8918 48.2996 56.0025 48.2944 56.127L48.2837 56.4102L48.2671 56.6885C48.2523 57.0433 48.1224 57.3708 47.8784 57.6328L47.689 57.8379L47.4946 58.0439C47.4176 58.1269 47.3559 58.2157 47.311 58.3105L47.0776 58.7998C46.9783 59.0099 46.8596 59.2092 46.7173 59.3936L46.3833 59.8271C46.259 59.988 46.1284 60.1372 46.0005 60.2549L45.8726 60.3721L45.7388 60.4941C45.6804 60.5476 45.5786 60.6392 45.4448 60.6992C45.3756 60.7302 45.2435 60.7756 45.0776 60.7666C44.8832 60.7554 44.6887 60.6675 44.5503 60.5049L44.5112 60.4609L44.3784 60.2998L44.3501 60.0938L44.3276 59.9219L44.8784 59.8438L44.3726 59.5381L44.4224 59.4551L45.4673 57.749L45.5728 58.5439L45.5894 58.5273C45.6694 58.4237 45.7391 58.3111 45.7944 58.1943L45.9116 57.9492L46.0278 57.6992C46.1372 57.4686 46.2809 57.2586 46.4556 57.0713L46.645 56.8662L46.8394 56.6602L46.8442 56.6553V56.6494C46.8448 56.6469 46.8496 56.6414 46.8501 56.6328L46.8726 56.0664C46.883 55.8148 46.925 55.5686 47.0054 55.333L47.0942 55.083L47.1782 54.8271C47.2408 54.6442 47.3112 54.4609 47.3892 54.2773L47.5005 54.0215L47.606 53.7666C47.6484 53.6664 47.675 53.567 47.6831 53.4658L47.7056 53.1943L47.7222 52.9268C47.7304 52.8218 47.7254 52.7145 47.7007 52.6055L47.6392 52.333L47.5776 52.0664C47.5254 51.8392 47.4971 51.6072 47.4946 51.377L47.4888 51.1104V50.8438C47.4863 50.609 47.5144 50.3753 47.5669 50.1436L47.689 49.5996C47.6938 49.5775 47.6929 49.56 47.6782 49.5273L47.5562 49.2666L47.439 49.0049C47.3328 48.7741 47.2574 48.5319 47.2222 48.2832L47.1831 48.0215L47.1499 47.7549C47.1174 47.5247 47.1079 47.2929 47.1284 47.0605L47.1558 46.7881L47.1782 46.5215C47.1907 46.3817 47.1892 46.2421 47.1782 46.1055L47.1616 45.8379L47.1392 45.5713C47.1294 45.4525 47.1017 45.331 47.061 45.2051L46.978 44.9385L46.8892 44.6719C46.7736 44.3153 46.8035 43.9526 46.9556 43.6221L47.0835 43.3555L47.2056 43.0879C47.2366 43.0205 47.2383 42.9731 47.2339 42.9385L47.2007 42.6719L47.1665 42.3994C47.1364 42.1652 47.1295 41.9283 47.1558 41.6943L47.189 41.4268L47.2173 41.166C47.24 40.9635 47.2726 40.7596 47.3169 40.5605L47.3784 40.2998L47.4331 40.0381C47.4678 39.8825 47.5005 39.7216 47.5229 39.5605L47.561 39.2939L47.5942 39.0215C47.6392 38.7 47.7782 38.4133 47.9888 38.1719L48.1782 37.9551L48.3618 37.7441C48.3762 37.7276 48.3868 37.7127 48.3892 37.6719L48.3999 37.377L48.4165 37.083C48.4342 36.7342 48.5625 36.4092 48.8062 36.1436L48.9888 35.9385L49.1782 35.7383C49.3059 35.5993 49.4325 35.4602 49.561 35.3271L49.939 34.9385C50.0455 34.8282 50.1455 34.7131 50.2388 34.5938L50.4058 34.3828L50.5669 34.1719C50.6708 34.0388 50.7774 33.9007 50.8784 33.7607L51.0337 33.5381L51.1948 33.3213C51.2782 33.2057 51.3687 33.0956 51.4653 32.9912L51.3872 32.9453C51.3029 32.8956 51.241 32.8817 51.1958 32.8799L50.9292 32.8701L50.6626 32.8594C50.6338 32.8584 50.5791 32.8642 50.4897 32.9131L50.2153 33.0625L49.9409 33.2129C49.6406 33.377 49.2976 33.4564 48.937 33.3926L48.729 33.3555C48.6437 33.4068 48.5592 33.4613 48.4771 33.5195L48.2437 33.6855L48.0093 33.8516C47.8959 33.9318 47.7842 33.9924 47.6753 34.0361L47.4272 34.1357L47.1802 34.2344C47.0737 34.277 46.9617 34.3062 46.8442 34.3203L46.5767 34.3516L46.3091 34.3838C46.1215 34.4063 45.9343 34.433 45.7485 34.4629L45.4829 34.5059L45.2183 34.5479C45.1434 34.5599 45.0664 34.5679 44.9878 34.5742C44.8487 34.7192 44.7065 34.8581 44.5601 34.9873L44.356 35.167L44.1519 35.3477C43.8982 35.5712 43.5932 35.696 43.2661 35.7324L42.9751 35.7646L42.6851 35.7969C42.5753 35.8091 42.4879 35.8379 42.4175 35.876L42.1812 36.0049L41.9438 36.1328C41.9154 36.1483 41.8797 36.1774 41.8413 36.2451L41.6948 36.5029L41.5493 36.7617C41.417 36.9955 41.2515 37.2058 41.0513 37.3809L40.8511 37.5547L40.6519 37.7295C40.4544 37.9019 40.2295 38.0361 39.9849 38.1318L39.7271 38.2324L39.4702 38.334C39.2805 38.4082 39.083 38.4757 38.8804 38.5371L38.3218 38.707C38.2409 38.7316 38.1898 38.7654 38.1528 38.8027L37.9624 38.9961L37.772 39.1885C37.6402 39.3223 37.506 39.4549 37.3706 39.584L37.1753 39.7695L36.981 39.9561C36.9586 39.9775 36.9277 40.0177 36.9048 40.1045L36.7485 40.6963C36.6761 40.9714 36.5581 41.2304 36.3833 41.4561L36.0591 41.874C35.9376 42.0307 35.8088 42.1825 35.6733 42.3271L35.4927 42.5195L35.312 42.7129C35.1253 42.9121 34.9013 43.0693 34.6548 43.1904L34.3843 43.3242L34.1138 43.457C34.1076 43.4601 34.1023 43.4629 34.0991 43.4648L34.0083 43.7148L33.9146 43.9756C33.8356 44.1925 33.7362 44.3996 33.6167 44.5938L33.3354 45.0488C33.2117 45.2498 33.0633 45.4357 32.894 45.6055L32.6958 45.8057L32.4966 46.0049C32.4862 46.0153 32.4815 46.0224 32.48 46.0254C32.4786 46.0284 32.4751 46.0381 32.4731 46.0566L32.4448 46.3418L32.4165 46.626C32.3917 46.8745 32.3364 47.1162 32.2476 47.3457L32.0542 47.8438C31.9843 48.0243 31.9071 48.2034 31.8247 48.3799L31.7114 48.624L31.5972 48.8682C31.5623 48.9429 31.5431 49.0226 31.5396 49.1113L31.5181 49.6582C31.5049 49.9978 31.3839 50.3069 31.1851 50.5703L31.0063 50.8066L30.8276 51.0439C30.7952 51.087 30.7944 51.1079 30.7944 51.1211L30.7964 51.3955L30.7974 51.6699C30.7985 51.8325 30.8071 51.9953 30.8218 52.1562L30.8706 52.6992C30.8923 52.9372 30.8854 53.1756 30.8491 53.4111L30.8081 53.6787L30.7671 53.9453C30.7553 54.022 30.7597 54.098 30.7817 54.1777L30.855 54.4424L30.9282 54.7061C30.9991 54.9613 31.0239 55.2242 31.0034 55.4883L30.9829 55.7607L30.9614 56.0332C30.9495 56.1868 30.9465 56.3408 30.9526 56.4932L30.9634 56.7637L30.9741 57.0352C30.9812 57.2098 30.9912 57.3836 31.0024 57.5537L31.0376 58.083C31.0441 58.1809 31.0659 58.2799 31.1069 58.3809L31.314 58.8887C31.4034 59.1084 31.466 59.3363 31.5015 59.5693L31.5425 59.834L31.5825 60.0996C31.6131 60.3008 31.633 60.5035 31.6421 60.7061L31.6538 60.9727L31.6655 61.2383C31.6725 61.3937 31.6874 61.5489 31.7085 61.7021L31.7446 61.9658L31.7808 62.2285C31.8077 62.4244 31.8259 62.6224 31.8354 62.8203L31.8608 63.3516C31.8654 63.4452 31.8863 63.5458 31.9292 63.6543L32.1382 64.1836C32.2977 64.5866 32.2401 64.9949 32.0347 65.3418L31.8745 65.6113L31.731 65.8525L31.813 66.0674L31.9146 66.335C31.9939 66.5424 32.059 66.7535 32.1089 66.9668L32.1724 67.2393L32.2358 67.5107C32.3122 67.8376 32.2844 68.1672 32.1567 68.4766L32.0493 68.7363L31.9419 68.9971C31.89 69.1227 31.8551 69.2455 31.8354 69.3643L31.7925 69.6279L31.7485 69.8906C31.7221 70.0509 31.7006 70.2147 31.6841 70.3789L31.6567 70.6475L31.6304 70.916C31.6082 71.1356 31.5668 71.3528 31.5073 71.5645L31.3628 72.0801C31.2997 72.3045 31.2108 72.5205 31.0981 72.7256L30.9673 72.9639L30.8364 73.2012C30.771 73.3202 30.7175 73.444 30.6763 73.5713L30.5933 73.8281L30.5103 74.084C30.4329 74.3226 30.321 74.5462 30.1763 74.751L30.021 74.9707L29.8647 75.1904C29.7665 75.3293 29.668 75.4744 29.5708 75.623L29.4185 75.8564L29.2651 76.0898C29.0395 76.4346 28.6947 76.6299 28.3042 76.6758L28.0083 76.7109L27.7124 76.7451C27.558 76.7633 27.4322 76.7931 27.3315 76.8281L27.0942 76.9102L26.8579 76.9922C26.7652 77.0245 26.6558 77.0782 26.5317 77.1602L26.2847 77.3242L26.0366 77.4873C25.9427 77.5494 25.8172 77.6262 25.6831 77.6729C25.62 77.6948 25.4906 77.7337 25.3325 77.7207C25.1419 77.7047 24.8942 77.6068 24.7456 77.3535L24.7075 77.2891L24.6011 77.1064L24.6108 76.8965L24.6196 76.7129L25.2075 76.7402L24.8618 76.2012L24.9458 76.1475L26.104 75.4053L26.0864 75.7783C26.1856 75.7291 26.2873 75.6852 26.3901 75.6494L26.6265 75.5674L26.8638 75.4844C27.0784 75.4097 27.3084 75.3611 27.5474 75.333L27.8433 75.2979L28.103 75.2676L28.228 75.0781L28.3813 74.8438C28.4877 74.6813 28.596 74.5226 28.7046 74.3691L29.0151 73.9297C29.077 73.8422 29.1246 73.7476 29.1577 73.6455L29.2407 73.3896L29.3228 73.1338C29.392 72.9203 29.4819 72.7129 29.5903 72.5156L29.8521 72.041C29.9132 71.9298 29.9603 71.8141 29.9937 71.6953L30.1382 71.1797C30.1752 71.048 30.2014 70.9117 30.2153 70.7734L30.2417 70.5049L30.269 70.2363C30.2886 70.0427 30.3138 69.8493 30.3452 69.6592L30.3892 69.3965L30.4321 69.1328C30.4704 68.9015 30.5365 68.6744 30.6274 68.4541L30.7349 68.1934L30.8423 67.9336C30.8575 67.8967 30.8592 67.8701 30.8511 67.835L30.7241 67.29C30.6893 67.1413 30.6432 66.9922 30.5864 66.8438L30.4839 66.5762L30.3823 66.3086C30.2288 65.9071 30.2866 65.5014 30.4917 65.1553L30.6509 64.8857L30.7915 64.6475L30.7114 64.4424L30.6069 64.1777C30.5105 63.934 30.4525 63.6802 30.4399 63.4199L30.4272 63.1543L30.4146 62.8877C30.407 62.7319 30.3928 62.5758 30.3716 62.4219L30.2993 61.8965C30.2722 61.6997 30.2535 61.5008 30.2446 61.3018L30.2329 61.0352L30.2212 60.7695C30.2144 60.6177 30.1993 60.4651 30.1763 60.3135L30.1362 60.0479L30.0962 59.7832C30.0779 59.6632 30.0448 59.5433 29.9966 59.4248L29.7896 58.917C29.6931 58.6798 29.6346 58.4315 29.6177 58.1768L29.5825 57.6475C29.5704 57.4649 29.5608 57.2793 29.5532 57.0928L29.5425 56.8213L29.5317 56.5508C29.5233 56.3421 29.5272 56.1319 29.5435 55.9229L29.5649 55.6504L29.5854 55.3779C29.5931 55.2793 29.5837 55.1829 29.5571 55.0869L29.4839 54.8223L29.4106 54.5586C29.3353 54.287 29.3179 54.0074 29.3608 53.7285L29.4028 53.4619L29.4438 53.1943C29.4623 53.0744 29.4658 52.9519 29.4546 52.8281L29.4302 52.5566L29.4048 52.2852C29.3865 52.0844 29.3769 51.8819 29.3755 51.6797L29.3716 51.1309C29.3693 50.7789 29.4879 50.458 29.6929 50.1865L29.8716 49.9492L30.0503 49.7129C30.0893 49.6611 30.0962 49.6281 30.0972 49.6035L30.1079 49.3301L30.1177 49.0566C30.1284 48.7816 30.1925 48.5152 30.3091 48.2656L30.4224 48.0225L30.5366 47.7783C30.6056 47.6306 30.6697 47.4806 30.728 47.3301L30.9214 46.832C30.9608 46.73 30.9885 46.6142 31.0015 46.4844L31.0581 45.916C31.0931 45.5663 31.2399 45.2516 31.4897 45.001L31.688 44.8008L31.8872 44.6016C31.9827 44.5058 32.0614 44.406 32.1245 44.3037L32.2651 44.0752L32.4058 43.8477C32.473 43.7384 32.5306 43.6187 32.5776 43.4893L32.6724 43.2285L32.7671 42.9688L32.8218 42.8379C32.964 42.5426 33.199 42.3222 33.4868 42.1807L33.7573 42.0469L34.0278 41.9141C34.1414 41.8582 34.2198 41.7979 34.2739 41.7402L34.4546 41.5479L34.6353 41.3545C34.7403 41.2423 34.8408 41.1246 34.9351 41.0029L35.2593 40.585C35.3002 40.5321 35.3423 40.4527 35.3735 40.334L35.4517 40.0381L35.5288 39.7422C35.6096 39.4355 35.7621 39.1532 35.9995 38.9268L36.1948 38.7402L36.3892 38.5547C36.5136 38.436 36.6379 38.3146 36.7593 38.1914L36.9487 37.998L37.1392 37.8047C37.1953 37.7478 37.2549 37.6953 37.3169 37.6475C37.0458 37.6576 36.7808 37.7182 36.5347 37.8447L36.2974 37.9658L36.0601 38.0879C35.8677 38.1868 35.6834 38.3014 35.5083 38.4307L35.2905 38.5918L35.0737 38.752C34.9643 38.8327 34.8492 38.9017 34.73 38.959L34.4897 39.0742L34.2495 39.1904C34.051 39.2859 33.8611 39.3987 33.6821 39.5283L33.4653 39.6855L33.2476 39.8428C33.1037 39.947 32.9599 40.0516 32.8169 40.1543L32.6001 40.3096L32.3843 40.4648C32.2361 40.5712 32.0882 40.6799 31.9419 40.79L31.728 40.9502L31.5151 41.1113C31.3558 41.2313 31.2009 41.3583 31.0532 41.4922L30.856 41.6709L30.6685 41.8398C30.6595 41.842 30.6397 41.8465 30.606 41.8467L29.9497 41.8506C29.7237 41.8518 29.4723 41.9094 29.2524 42.0771C29.0336 42.2443 28.9114 42.47 28.8491 42.6846L28.7563 43.0039L28.6646 43.3232C28.6536 43.3609 28.6419 43.3808 28.6372 43.3887L28.4233 43.5244L28.1978 43.667C28.0989 43.7292 27.9853 43.7831 27.856 43.8262L27.3149 44.0059C27.0708 44.0872 26.8424 44.2015 26.6353 44.3506L26.4155 44.5088L26.1968 44.666C25.9117 44.8715 25.7259 45.1563 25.6235 45.4746L25.436 46.0566C25.4122 46.1305 25.3872 46.1495 25.3794 46.1553L25.1655 46.3154L24.9507 46.4756C24.7939 46.5924 24.6416 46.7152 24.4946 46.8428L24.2935 47.0166L24.0923 47.1914C24.0278 47.2472 23.9414 47.3007 23.8247 47.3457L23.5474 47.4531L23.27 47.5596C22.9088 47.699 22.6527 47.9689 22.5308 48.3174L22.4868 48.4717L22.4204 48.7686L22.353 49.0664C22.3385 49.1302 22.3208 49.141 22.3188 49.1426L21.9009 49.4863C21.6885 49.661 21.5161 49.8727 21.3882 50.1162L21.1362 50.5947C21.1273 50.6117 21.1102 50.6378 21.0513 50.668L20.7866 50.8027L20.522 50.9385C20.2276 51.0894 19.9982 51.3249 19.8687 51.6318L19.8198 51.7676L19.7368 52.0371L19.6538 52.3057C19.6453 52.3331 19.6351 52.3508 19.604 52.373L19.3706 52.54L19.1382 52.707C18.8704 52.8992 18.669 53.1581 18.5571 53.4736L18.3735 53.9912C18.3173 54.1499 18.2572 54.3056 18.1929 54.4561L18.0874 54.7031L17.981 54.9502C17.8868 55.1705 17.8212 55.4022 17.7827 55.6416L17.7378 55.9189L17.6938 56.1953C17.6928 56.2014 17.6915 56.2061 17.6909 56.208C17.6903 56.2095 17.6892 56.2114 17.689 56.2119C17.6883 56.2129 17.6867 56.2148 17.6851 56.2168C17.6825 56.2198 17.6777 56.2252 17.6704 56.2314L17.4497 56.4189L17.23 56.6064C16.9693 56.8287 16.7892 57.1195 16.7202 57.4639L16.6128 58.001C16.5875 58.1266 16.5486 58.2432 16.4985 58.3516L16.2759 58.834C16.2389 58.9138 16.1953 58.9919 16.1489 59.0703L16.1997 59.1113L16.1333 59.1895L15.9888 59.3721L15.7554 59.4336L15.2495 59.5615C15.1194 59.5949 15.0392 59.6283 14.9995 59.6504L14.8667 59.8613L14.7163 60.1006C14.5956 60.2934 14.4601 60.4752 14.311 60.6396L14.1274 60.8389L13.9497 61.0332C13.8898 61.0993 13.8439 61.1759 13.811 61.2617L13.7163 61.5117L13.6167 61.7666C13.5147 62.0315 13.3601 62.2665 13.1606 62.4668L12.7554 62.8721C12.7087 62.9192 12.6887 62.9651 12.6772 63.0117L12.5444 63.5449C12.5166 63.6588 12.5071 63.7738 12.5112 63.8896L12.5161 64.1611L12.5278 64.4336C12.5344 64.6182 12.5405 64.8029 12.5444 64.9834L12.5503 65.25L12.5552 65.5225C12.5595 65.7279 12.5533 65.9343 12.5327 66.1396L12.5054 66.4111L12.478 66.6777C12.4594 66.8624 12.4349 67.0477 12.4106 67.2334L12.3774 67.5059L12.3442 67.7725C12.3411 67.7967 12.3389 67.8297 12.3667 67.8838L12.4995 68.1445L12.6392 68.4062C12.8122 68.742 12.8492 69.1165 12.728 69.4834L12.5503 70.0166C12.5205 70.1069 12.5094 70.189 12.5161 70.2617L12.5444 70.5283L12.5669 70.7949C12.5901 71.0406 12.5769 71.2867 12.5278 71.5283L12.478 71.7832L12.4272 72.0449C12.3859 72.2484 12.3291 72.4494 12.2612 72.6445L12.1772 72.8896L12.0884 73.1396C12.028 73.3133 11.963 73.4907 11.894 73.667L11.7944 73.917L11.6997 74.1729C11.6612 74.2711 11.6129 74.3713 11.561 74.4619C11.5279 74.5196 11.4198 74.7075 11.2114 74.8223L11.144 74.8613L10.9106 74.9893L10.6558 74.9336L10.5444 74.9111L10.6665 74.3115L9.97803 74.1445L9.99951 74.0508L10.1606 73.3779L10.4614 73.4336L10.4722 73.4004L10.5718 73.1445C10.6339 72.9855 10.6907 72.8279 10.7446 72.6729L10.8335 72.4229L10.9165 72.1777C10.9632 72.0433 11.004 71.9032 11.0327 71.7617L11.0835 71.5059L11.1392 71.2451C11.1602 71.1417 11.166 71.0355 11.1558 70.9277L11.1001 70.3945C11.074 70.1148 11.1119 69.838 11.1997 69.5723L11.3716 69.0557L11.2388 68.8008L11.105 68.5391C10.954 68.2473 10.8893 67.9237 10.9331 67.5889L10.9663 67.3223L10.9995 67.0508C11.0221 66.8781 11.0438 66.7045 11.061 66.5332L11.1167 66C11.1317 65.8504 11.1365 65.6993 11.1333 65.5508L11.1216 65.0166C11.1178 64.8422 11.1114 64.6623 11.105 64.4834L11.0942 64.2119L11.0884 63.9395C11.0795 63.6922 11.1018 63.4466 11.1606 63.2061L11.2944 62.6729C11.3703 62.3641 11.5277 62.09 11.7495 61.8672L12.1558 61.4619C12.2234 61.3936 12.2623 61.3239 12.2886 61.2559L12.3892 61.0059L12.4829 60.75C12.5783 60.5018 12.7153 60.2751 12.894 60.0781L13.0776 59.8838L13.2554 59.6836C13.3425 59.5876 13.4264 59.477 13.5034 59.3555L13.354 59.3174L13.1919 59.2861C12.8708 59.245 12.564 59.3286 12.3081 59.5195L12.1851 59.624L11.9663 59.8311L11.7515 60.0352L11.1421 60.0039C10.6988 59.9814 10.299 60.1695 10.0454 60.5498L9.88135 60.7959L9.71826 61.042C9.60938 61.2053 9.50413 61.3615 9.40479 61.5098L9.25537 61.7334L9.10596 61.9561C9.09651 61.97 9.07988 61.9866 9.0376 62.0059L9.05029 61.9414C9.06507 61.8634 9.06363 61.787 9.04443 61.7061L8.98096 61.4385L8.91748 61.1719C8.83556 60.8277 8.87926 60.4871 9.02295 60.1758L9.14697 59.9092L9.27002 59.6426C9.29344 59.5918 9.29007 59.5676 9.28662 59.5508L9.17725 59.0176C9.12911 58.7843 9.10898 58.5483 9.11865 58.3115L9.14014 57.7783C9.14591 57.6375 9.14161 57.496 9.12549 57.3545L9.09424 57.0879L9.06396 56.8213C9.02995 56.523 9.07204 56.2303 9.17822 55.9531L9.3833 55.4199C9.38292 55.4189 9.38192 55.4173 9.38135 55.416L9.27002 55.1494L9.15771 54.8828C9.05884 54.6477 8.99265 54.4042 8.96436 54.1543L8.93408 53.8877L8.90381 53.6201C8.86131 53.2428 8.9758 52.898 9.17041 52.6094L9.35107 52.3428L9.5249 52.0859L9.46143 51.8721L9.3833 51.6055C9.32404 51.4026 9.27563 51.1977 9.23975 50.9922L9.19385 50.7236L9.14697 50.4551C9.08763 50.1151 9.14504 49.7843 9.29639 49.4844L9.42725 49.2246L9.55811 48.9658C9.5601 48.9618 9.56125 48.9581 9.56201 48.9561L9.56104 48.9541L9.39893 48.4053C9.3336 48.1841 9.2876 47.96 9.26221 47.7344L9.23096 47.46L9.20068 47.1855C9.16641 46.8808 9.2102 46.581 9.32959 46.2988L9.43799 46.043L9.54541 45.7881C9.62551 45.5989 9.71507 45.4124 9.81201 45.2295L9.94287 44.9814L10.0747 44.7334C10.0925 44.6998 10.0975 44.6727 10.0923 44.6328L10.0181 44.0742C9.96618 43.6818 10.0822 43.3173 10.3247 43.0215L10.5132 42.792L10.6724 42.5977L10.6196 42.3496L10.5571 42.0586C10.4759 41.6768 10.5482 41.2934 10.7876 40.9688L10.9556 40.7412L11.1245 40.5127C11.1463 40.4831 11.1521 40.4626 11.1519 40.4316L11.1489 40.1504L11.147 39.8701C11.1442 39.53 11.2476 39.2107 11.4507 38.9365L11.6157 38.7129L11.7817 38.4893C11.8638 38.3785 11.9303 38.2658 11.9819 38.1523L12.0923 37.9102L12.2017 37.6689C12.2797 37.4974 12.3626 37.3274 12.4487 37.1602L12.5698 36.9238L12.6909 36.6885C12.7349 36.603 12.7665 36.5071 12.7827 36.3994L12.8228 36.127L12.8638 35.8545C12.9131 35.526 13.059 35.2339 13.2876 34.9951L13.48 34.793L13.6733 34.5918C13.69 34.5744 13.698 34.5603 13.7017 34.5254L13.7319 34.2422L13.7612 33.959C13.781 33.7706 13.835 33.5939 13.9204 33.4336C13.6878 33.3399 13.4868 33.1932 13.3228 33.0059L13.1226 32.7773L12.9282 32.5557C12.8756 32.4954 12.8386 32.4781 12.8169 32.4717L12.562 32.4004L12.312 32.3223C12.1135 32.2646 11.9175 32.1946 11.728 32.1113L11.4839 32.0059L11.2446 31.9004C11.0798 31.828 10.9109 31.7541 10.7446 31.6777L10.5005 31.5615L10.2563 31.4502C10.0545 31.3573 9.8593 31.2444 9.67822 31.1162L9.46143 30.9668L9.24463 30.8115C9.023 30.6547 8.8362 30.4555 8.68896 30.2275L8.53955 30L8.38916 29.7666C8.29186 29.6159 8.19578 29.4661 8.1001 29.3223L7.95557 29.1055L7.81689 28.9004C7.80709 28.8963 7.79113 28.8886 7.76709 28.8828L7.43896 28.8057L7.11182 28.7334C6.91524 28.6876 6.70911 28.5973 6.53369 28.4385C6.35401 28.2751 6.24234 28.0678 6.18896 27.8496L6.1167 27.5664L6.05029 27.2832C6.01262 27.1275 5.96466 26.9836 5.91162 26.8555L5.81201 26.6113L5.70557 26.3613C5.65248 26.2333 5.58944 26.1093 5.51709 25.9941L5.37842 25.7725L5.23975 25.5439C5.09535 25.314 4.9961 25.0614 4.95068 24.7939L4.90576 24.5332L4.86182 24.2666C4.84703 24.1795 4.81865 24.0975 4.77295 24.0225L4.62842 23.7939L4.48975 23.5615C4.39821 23.4124 4.29954 23.2604 4.20068 23.1055L3.90088 22.6279C3.69961 22.3122 3.63383 21.9525 3.70557 21.5889L3.76123 21.3057L3.81689 21.0273C3.82735 20.9741 3.82125 20.9367 3.80615 20.9004L3.70068 20.6445L3.58936 20.3887C3.4742 20.114 3.42873 19.8207 3.45557 19.5225L3.47803 19.25L3.50635 18.9834C3.52187 18.8126 3.53014 18.6404 3.53955 18.4717L3.57275 17.9385C3.58088 17.7921 3.57779 17.6408 3.56689 17.4893L3.54443 17.2168L3.52783 16.9443C3.50442 16.6202 3.57772 16.3084 3.73389 16.0273L3.8667 15.7832L4.00635 15.5332C4.02009 15.5081 4.02887 15.4823 4.02295 15.4385L3.98389 15.1553L3.94482 14.8662C3.89026 14.4638 4.01038 14.0872 4.28369 13.7891L4.47803 13.5723L4.67822 13.3555C4.74644 13.2808 4.78053 13.2117 4.80029 13.1504L4.8833 12.9004L4.96729 12.6445C5.01127 12.5076 5.04469 12.3603 5.07275 12.2051L5.17236 11.6504C5.23861 11.2852 5.43472 10.9805 5.72803 10.7607L5.95557 10.5889L6.18896 10.417C6.33242 10.3097 6.46864 10.2012 6.59521 10.0947L6.80029 9.92188L7.00635 9.74414C7.00909 9.73703 7.01346 9.72305 7.01709 9.7002L7.06689 9.39453L7.11182 9.08887C7.16315 8.76286 7.30081 8.45501 7.53955 8.20508L7.72217 8.01074L7.91162 7.81152C8.04954 7.66719 8.19602 7.52726 8.34521 7.39453L8.54443 7.2168L8.75049 7.0332C8.99664 6.8151 9.2913 6.69011 9.60596 6.63867L9.90576 6.58887L10.1226 6.5498L10.2339 6.32227L10.3618 6.03906L10.5229 5.77246C10.7089 5.52807 10.9749 5.35409 11.312 5.2998L11.8784 5.21094C12.0768 5.1791 12.2735 5.15037 12.4673 5.12793L12.7397 5.09473L12.9614 5.06641L13.1392 4.79395L13.3228 4.5166C13.5149 4.22459 13.7883 3.98376 14.1509 3.87207L14.4116 3.79395L14.6782 3.71094C14.9192 3.63713 15.1697 3.60124 15.4224 3.59961L15.7007 3.59473H15.978C16.242 3.59332 16.503 3.63518 16.7563 3.7168L17.0396 3.81152L17.3169 3.90039C17.4186 3.93321 17.4977 3.93477 17.5562 3.92773L17.8169 3.90039L18.0728 3.86621C18.1606 3.85558 18.2652 3.82804 18.3833 3.77246L18.6509 3.64453L18.9175 3.52246C19.2825 3.35055 19.6843 3.34313 20.0562 3.52246L20.3169 3.64453L20.5728 3.77246C20.6698 3.81933 20.7608 3.83929 20.8394 3.84473L21.1001 3.86621L21.3667 3.88281C21.5207 3.89343 21.6823 3.89775 21.8452 3.89453L22.1167 3.88867L22.395 3.88281C22.7477 3.87612 23.0718 3.99118 23.3452 4.20508L23.5728 4.37793L23.7778 4.54395L24.0894 4.49414L24.395 4.4502C24.7496 4.39708 25.1105 4.45564 25.4282 4.66699L25.6558 4.82227L25.8892 4.97168C26.0633 5.08776 26.23 5.21475 26.3892 5.34961L26.6001 5.52734L26.8062 5.70508C26.9785 5.8512 27.1402 6.0129 27.2837 6.18848L27.4556 6.40039L27.6333 6.61621C27.6391 6.62336 27.6501 6.63512 27.6948 6.64453L28.2729 6.7666C28.5469 6.82428 28.8063 6.92911 29.0396 7.08301L29.2729 7.2334L29.5005 7.38867L29.7173 7.56641C29.9122 7.76121 30.0421 8.00221 30.106 8.2666L30.1782 8.57227L30.2505 8.87207C30.2592 8.90774 30.2685 8.9263 30.2729 8.93359C30.2766 8.93929 30.2804 8.94174 30.2837 8.94434L30.4946 9.11133L30.7114 9.27734C30.9106 9.43294 31.0798 9.6199 31.2222 9.82812L31.3726 10.0498L31.5278 10.2666C31.6251 10.4089 31.7222 10.553 31.8228 10.6943L31.978 10.917L32.1333 11.1328C32.3012 11.3688 32.413 11.6377 32.4614 11.9219L32.5063 12.1943L32.5562 12.4668C32.5848 12.6349 32.6139 12.7993 32.6509 12.9551L32.7729 13.4668C32.7738 13.4713 32.7796 13.5043 32.8394 13.5557L33.0786 13.7559L33.312 13.9551C33.6258 14.2251 33.8051 14.6083 33.7612 15.0498L33.7173 15.4902L34.1538 15.1924C34.3738 15.0416 34.6154 14.9322 34.8745 14.8691L35.1353 14.8057L35.397 14.7422C35.6074 14.691 35.8228 14.6559 36.0405 14.6377L36.313 14.6152L36.5864 14.5928C36.5883 14.5918 36.6007 14.5849 36.6206 14.5645L36.8325 14.3467L37.0444 14.1279L37.1616 14.0205C37.2864 13.9196 37.4344 13.8395 37.604 13.7939C37.773 13.7487 37.9401 13.7441 38.0972 13.7676L38.2515 13.7998L38.5503 13.8809L38.771 13.9404L38.9292 13.7949L39.1528 13.5889C39.4462 13.3191 39.8237 13.1846 40.2368 13.2412L40.52 13.2803L40.8022 13.3193C40.934 13.3374 41.0549 13.3377 41.1655 13.3242L41.6929 13.2598C41.7812 13.249 41.8732 13.2219 41.9692 13.1729L42.2183 13.0449L42.4683 12.917C42.6654 12.8161 42.8685 12.7312 43.0757 12.6621L43.3345 12.5752L43.5942 12.4893L43.7368 12.4502C44.0689 12.3785 44.3941 12.4406 44.6812 12.585L44.9644 12.7275L45.2485 12.8701C45.2787 12.8852 45.2967 12.8903 45.3032 12.8916L45.5581 12.8262L45.8188 12.7598C46.0211 12.7085 46.226 12.6708 46.4321 12.6455L46.6968 12.6123L46.9614 12.5801C47.1761 12.5538 47.3928 12.5458 47.6089 12.5547L47.8755 12.5654L48.1411 12.5762H48.2983L48.3726 12.5518L48.48 12.5156L48.6313 12.4785C48.787 12.45 48.9513 12.4466 49.0854 12.4482L49.3521 12.4521L49.6187 12.4551C49.7429 12.4566 49.869 12.4448 49.9966 12.418L50.2632 12.3613L50.5298 12.3057C50.8998 12.2278 51.2547 12.3043 51.563 12.4805L52.0962 12.7852C52.1098 12.7929 52.1203 12.7975 52.1265 12.7998C52.1288 12.8007 52.131 12.8014 52.1323 12.8018L52.394 12.7451L52.6606 12.6885C52.8698 12.6438 53.0814 12.6138 53.2925 12.5986L53.5591 12.5791L53.8257 12.5605C54.0308 12.5459 54.2367 12.5425 54.4419 12.5518L54.7085 12.5645L54.9751 12.5762C55.1075 12.5821 55.2409 12.5759 55.3745 12.5566L55.6411 12.5176L55.9077 12.4795C56.0935 12.4527 56.2804 12.4294 56.4663 12.4092L56.9995 12.3506C57.2506 12.3233 57.5024 12.3358 57.7505 12.3857L58.2837 12.4932C58.426 12.5218 58.5682 12.5387 58.7085 12.5449L59.2417 12.5684C59.3709 12.5741 59.5015 12.5675 59.6323 12.5469L59.8989 12.5049L60.1655 12.4619C60.3988 12.4251 60.6339 12.4169 60.8687 12.4365L61.1362 12.459L61.4028 12.4814C61.5587 12.4945 61.715 12.5003 61.8706 12.499L62.1372 12.4971L62.4038 12.4941C62.5276 12.4931 62.6539 12.4789 62.7817 12.4492L63.0483 12.3867L63.3149 12.3252C63.5614 12.2679 63.8125 12.2474 64.064 12.2666L64.5972 12.3076C64.7575 12.3199 64.9184 12.3256 65.0786 12.3262L65.6118 12.3281C65.8267 12.3288 66.0418 12.3466 66.2554 12.3809L66.522 12.4238L66.7896 12.4668C66.991 12.4992 67.1921 12.5426 67.3921 12.5957L67.6587 12.666L67.9126 12.7344C67.9167 12.7327 67.9234 12.7299 67.9312 12.7256L68.4644 12.4287L68.6011 12.3623C68.8779 12.2446 69.1784 12.2219 69.4741 12.3096L69.6216 12.3623L69.8882 12.4756L70.1411 12.585L70.395 12.4746L70.6616 12.3594L70.7993 12.3086C71.1217 12.2071 71.4575 12.2296 71.771 12.3721L72.3042 12.6143C72.4267 12.6699 72.5411 12.7037 72.6479 12.7197L72.9146 12.7588L73.1812 12.7988C73.2766 12.8131 73.3727 12.8115 73.4702 12.792L74.0034 12.6846C74.2141 12.6423 74.4266 12.6157 74.6392 12.6045L74.9058 12.5898L75.1724 12.5762C75.3929 12.5646 75.6139 12.5725 75.8335 12.6006L76.3667 12.6689C76.4049 12.6738 76.4529 12.671 76.522 12.6406L77.0552 12.4043C77.3957 12.2539 77.7642 12.2369 78.1196 12.3662L78.3862 12.4629L78.6528 12.5605C78.7926 12.6114 78.9297 12.648 79.063 12.6709L79.3286 12.7168L79.5952 12.7617C79.6848 12.7771 79.7739 12.7764 79.8657 12.7578L80.1323 12.7041L80.3989 12.6494C80.6403 12.6005 80.8849 12.5857 81.1294 12.6055L81.395 12.627L81.6597 12.6484C81.7702 12.6574 81.8858 12.6508 82.0063 12.6279L82.5493 12.5244C82.8981 12.4581 83.2392 12.518 83.5454 12.6836L83.7993 12.8203L84.0435 12.9531L84.3188 12.8672L84.5991 12.7812C84.9239 12.6814 85.2573 12.6988 85.564 12.8379L85.6938 12.9043L86.188 13.1934C86.2747 13.2439 86.3532 13.2678 86.4253 13.2764L86.689 13.3076L86.9536 13.3398C87.1938 13.3685 87.4274 13.4287 87.6519 13.5205L87.9019 13.623L88.1509 13.7246C88.2525 13.7661 88.3565 13.7925 88.4644 13.8027L88.7319 13.8271L88.9985 13.8525C89.124 13.8643 89.2598 13.8632 89.4058 13.8467L89.6929 13.8145L89.98 13.7812L90.147 13.7734C90.5294 13.7794 90.8578 13.9582 91.0952 14.2412L91.2983 14.4844L91.3989 14.6045L91.5786 14.5479L91.895 14.4473L92.0542 14.4072C92.2189 14.3759 92.3999 14.3743 92.5854 14.4258C92.7743 14.4782 92.9316 14.5757 93.0581 14.6953L93.1753 14.8213L93.3696 15.0635L93.5503 15.2871L93.7876 15.291L94.0737 15.2959C94.1064 15.2964 94.139 15.2997 94.1714 15.3018C94.175 15.2696 94.1781 15.2372 94.1831 15.2051L94.2222 14.9385L94.2661 14.667C94.3177 14.338 94.4675 14.0489 94.689 13.8115L94.8892 13.5996L95.0503 13.417L95.0112 13.1387L94.9663 12.8281C94.915 12.4741 94.9703 12.1085 95.1831 11.7891L95.3384 11.5615L95.4888 11.333C95.5702 11.2107 95.6426 11.0831 95.7056 10.9502L95.939 10.4502C96.0841 10.1429 96.318 9.90812 96.605 9.74414L96.8667 9.59473L97.1226 9.4502C97.1302 9.44584 97.1359 9.44101 97.1392 9.43848L97.144 9.43359C97.1449 9.43197 97.1475 9.42407 97.1499 9.41699L97.3384 8.87207C97.4273 8.61226 97.557 8.37142 97.7329 8.16113L98.0884 7.73926C98.2892 7.50023 98.5446 7.32903 98.8335 7.22168L99.105 7.11621L99.3774 7.0166C99.4645 6.9843 99.5263 6.9419 99.5718 6.89453L99.7612 6.7002L99.9438 6.50586C100.078 6.36524 100.223 6.22877 100.367 6.09473L100.766 5.7168C100.98 5.5177 101.236 5.37374 101.516 5.28906L101.778 5.21094L102.044 5.12793C102.242 5.06827 102.444 5.01844 102.644 4.97754L103.177 4.86621C103.203 4.86092 103.236 4.84834 103.283 4.7998L103.489 4.58887L103.7 4.37207L103.961 4.16699C104.06 4.10964 104.169 4.06535 104.289 4.03906C104.407 4.0132 104.523 4.00774 104.633 4.0166L104.944 4.07812L105.255 4.18359L105.533 4.27246L105.716 4.15039L105.956 3.98926C106.14 3.86419 106.332 3.75261 106.533 3.65527L106.794 3.52734L107.05 3.40527C107.323 3.27319 107.617 3.20793 107.922 3.22168L108.194 3.2334ZM10.3335 73.7451C10.3296 73.7509 10.3278 73.7555 10.3276 73.7559L10.3335 73.75L10.3384 73.7393L10.3335 73.7451ZM117.667 73.75L117.672 73.7559C117.672 73.7555 117.67 73.751 117.667 73.7451L117.662 73.7393L117.667 73.75ZM88.3159 36.6621L88.1509 36.667C88.2175 36.7232 88.2956 36.7709 88.3892 36.8076L88.9048 37.0088C89.0582 37.0688 89.2201 37.1245 89.3892 37.1758L89.811 37.3037L89.6685 37.1299L89.564 37.0156C89.309 36.7669 88.9776 36.639 88.6118 36.6514L88.3159 36.6621ZM87.5454 36.0615C87.6079 36.1719 87.6748 36.2519 87.7407 36.3096L87.8823 36.4336L87.7251 36.2412L87.6226 36.1289C87.5968 36.1035 87.5698 36.0796 87.5425 36.0566L87.5454 36.0615Z" fill="#303A4B"/>
</svg>
