<svg width="128" height="128" viewBox="0 0 128 128" fill="none" xmlns="http://www.w3.org/2000/svg">
<path d="M37.5957 105.991C37.7366 105.996 37.8749 106.032 37.9678 106.061L38.2178 106.137L38.4678 106.212C38.7749 106.305 39.0367 106.484 39.2334 106.739L39.3916 106.944L39.542 107.14C39.5521 107.145 39.5774 107.156 39.625 107.167L39.9531 107.239L40.2803 107.312C40.4819 107.356 40.7009 107.448 40.8818 107.626C41.0223 107.764 41.1128 107.928 41.1631 108.098L41.2002 108.269L41.2842 108.851C41.3102 109.031 41.3401 109.201 41.373 109.359L41.4268 109.62L41.4814 109.882C41.5031 109.986 41.5411 110.091 41.5986 110.198L41.7314 110.444L41.8643 110.691C41.9888 110.923 42.0733 111.17 42.1162 111.43L42.2061 111.973C42.2542 112.264 42.2333 112.555 42.1475 112.836L42.0664 113.104L41.9844 113.372C41.9413 113.513 41.9112 113.652 41.8945 113.786L41.8623 114.053L41.8291 114.318C41.8073 114.494 41.7852 114.673 41.7637 114.854L41.7314 115.129L41.6992 115.402C41.662 115.716 41.5419 116.003 41.3477 116.25L41.0039 116.688C40.8831 116.841 40.7611 116.99 40.6387 117.132L40.4658 117.332L40.2939 117.532C40.1976 117.644 40.1029 117.767 40.0117 117.901L39.6953 118.366C39.5235 118.618 39.2976 118.817 39.0332 118.965L38.7715 119.111L38.5088 119.258C38.1723 119.445 37.7978 119.491 37.4268 119.393L36.8428 119.238C36.6105 119.177 36.3872 119.097 36.1748 118.999L35.916 118.879L35.6562 118.759C35.337 118.611 35.0887 118.371 34.9316 118.056L34.8047 117.8L34.6768 117.544C34.5851 117.36 34.5021 117.179 34.4287 117.001L34.2295 116.519C34.1985 116.443 34.1499 116.365 34.0742 116.284L33.8799 116.076L33.6865 115.869C33.4023 115.565 33.2902 115.176 33.3604 114.771L33.4092 114.487L33.458 114.203C33.4646 114.165 33.4606 114.145 33.4473 114.119L33.1855 113.619C33.0228 113.307 32.973 112.961 33.0537 112.612L33.1768 112.081C33.1953 112.001 33.1981 111.918 33.1816 111.827L33.1309 111.551L33.0811 111.275C33.0354 111.024 33.0266 110.771 33.0547 110.518L33.1152 109.965C33.1416 109.727 33.1954 109.494 33.2744 109.268L33.3662 109.002L33.459 108.736C33.5385 108.508 33.6436 108.29 33.7725 108.084L33.9238 107.842L34.0762 107.6C34.2728 107.286 34.5622 107.074 34.9033 106.964L35.1953 106.869L35.4873 106.775C35.621 106.732 35.7192 106.681 35.79 106.629L36.002 106.474L36.2139 106.317C36.4311 106.158 36.7734 105.995 37.1699 106.095C37.1804 106.089 37.1909 106.082 37.2012 106.077C37.3726 105.989 37.535 105.989 37.5957 105.991ZM15.6367 80.6553C15.9472 80.5118 16.2214 80.6197 16.375 80.7285L16.4336 80.7744L16.4902 80.8252L16.5469 80.875C16.6331 80.9512 16.7012 81.0444 16.7363 81.0938C16.7825 81.1587 16.8329 81.2369 16.8867 81.3232L17.0371 81.5654L17.1875 81.8066C17.4066 82.1583 17.4408 82.5566 17.3115 82.9355L17.2148 83.2178L17.1748 83.334L17.293 83.4395L17.5273 83.6494C17.8675 83.9528 18.0117 84.3704 17.9453 84.8135L17.8975 85.1309L17.8818 85.2324L17.9336 85.2559L18.2051 85.3779C18.4687 85.496 18.7057 85.6617 18.8965 85.8838L19.0674 86.083L19.2383 86.2812C19.3743 86.4396 19.4998 86.6088 19.6143 86.7871L19.7598 87.0137L19.9053 87.2412C20.0218 87.4228 20.1238 87.612 20.2109 87.8086L20.3203 88.0537L20.4287 88.2988C20.4893 88.4355 20.5513 88.5526 20.6133 88.6514L20.7373 88.8486L20.8604 89.0459C20.9756 89.2295 21.066 89.4265 21.1221 89.6357L21.1748 89.834L21.2285 90.0322C21.3013 90.3041 21.2855 90.5908 21.2402 90.8516L21.1309 91.4805C21.0612 91.8814 20.8413 92.2258 20.4736 92.4395L19.9561 92.7402C19.6981 92.8899 19.4173 92.9823 19.1211 93.0166L18.9531 93.0361C18.9632 93.0579 18.9732 93.0788 18.9805 93.0996L19.1416 93.2061L19.3604 93.3516C19.4456 93.408 19.5351 93.4493 19.6309 93.4766L19.8818 93.5469L20.1318 93.6182C20.4067 93.6964 20.6521 93.8356 20.8633 94.0254L21.2656 94.3867C21.5025 94.5997 21.6662 94.8674 21.749 95.1738L21.8203 95.4375L21.8906 95.7012C21.9241 95.8253 21.9701 95.9414 22.0283 96.0498L22.1553 96.2852L22.2822 96.5215C22.4411 96.8177 22.4935 97.1423 22.4463 97.4697L22.4062 97.7451L22.3662 98.0195V98.0244C22.3663 98.0246 22.3687 98.0362 22.3838 98.0596L22.5479 98.3125L22.7109 98.5664C22.8795 98.8273 22.9841 99.1193 23.0049 99.4346L23.0234 99.71L23.041 99.9863C23.0627 100.315 22.9859 100.629 22.8262 100.911L22.6846 101.163L22.542 101.415C22.4486 101.58 22.3591 101.739 22.2754 101.892L22.1475 102.126L22.0195 102.359C21.9364 102.511 21.8562 102.66 21.7803 102.806L21.6631 103.031L21.5459 103.256C21.5107 103.323 21.4777 103.418 21.459 103.549L21.417 103.845L21.375 104.14C21.3144 104.563 21.0682 104.919 20.6543 105.1L20.3955 105.212L20.1377 105.324C19.9292 105.415 19.7181 105.486 19.5059 105.533L19.2607 105.589L19.0156 105.644C18.8662 105.677 18.7084 105.715 18.5439 105.757C18.6226 105.789 18.7225 105.843 18.8135 105.938C18.8668 105.994 18.9071 106.059 18.9404 106.126L19.0312 106.157L19.2783 106.239C19.4294 106.29 19.5912 106.339 19.7637 106.387L20.0391 106.463L20.3154 106.539C20.5274 106.598 20.7344 106.715 20.8936 106.91C21.0104 107.053 21.0802 107.212 21.1182 107.368L21.1465 107.522L21.1846 107.832L21.2236 108.142C21.2368 108.247 21.2638 108.288 21.2734 108.301L21.5898 108.703C21.7445 108.9 21.8636 109.119 21.9453 109.355L22.0293 109.599L22.1133 109.843C22.1428 109.928 22.1927 110.025 22.2725 110.133L22.6221 110.607C22.8328 110.893 22.9414 111.231 22.9121 111.598L22.8906 111.872L22.8682 112.146C22.8496 112.378 22.8077 112.605 22.7422 112.827L22.665 113.09L22.5869 113.353C22.5677 113.418 22.5637 113.486 22.5781 113.566L22.6777 114.123C22.7309 114.418 22.7145 114.716 22.623 115.004L22.54 115.264L22.458 115.524C22.3586 115.837 22.1728 116.098 21.9248 116.303L21.6992 116.488L21.4746 116.673C21.3732 116.756 21.3055 116.835 21.2607 116.904L21.125 117.115L20.9893 117.327C20.9318 117.417 20.8712 117.537 20.8125 117.693L20.7041 117.984L20.5947 118.274C20.4539 118.651 20.1803 118.938 19.7998 119.088L19.5186 119.198L19.2383 119.309C18.929 119.43 18.6027 119.463 18.2754 119.404L17.9785 119.352L17.6826 119.299C17.3745 119.244 17.0891 119.12 16.8428 118.922L16.6211 118.743L16.3984 118.564C16.2712 118.462 16.1382 118.368 16 118.28L15.7588 118.127L15.5176 117.975C15.268 117.817 15.0611 117.61 14.9043 117.359L14.6055 116.881C14.4078 116.564 14.3487 116.21 14.4004 115.856L14.4902 115.245C14.5002 115.177 14.4862 115.16 14.4854 115.158L14.3506 114.922L14.2148 114.685C14.1135 114.507 14.0192 114.322 13.9316 114.13L13.8125 113.869L13.6943 113.608C13.5641 113.322 13.5115 113.015 13.5459 112.7L13.6064 112.149C13.6407 111.837 13.7556 111.55 13.9336 111.296L14.1074 111.05L14.2441 110.855L14.1523 110.594L14.0459 110.291C13.9212 109.935 13.9189 109.545 14.1055 109.18L14.2334 108.931L14.3613 108.681C14.4485 108.51 14.5378 108.339 14.6289 108.169L14.7627 107.919L14.8955 107.67C15.0571 107.368 15.3015 107.138 15.6045 106.988L15.8662 106.858L16.1289 106.729C16.2405 106.673 16.3414 106.603 16.4326 106.518L16.8604 106.115C16.9592 106.022 17.0793 105.926 17.2197 105.852C17.0956 105.801 16.9769 105.73 16.8691 105.636L16.6621 105.455L16.4541 105.274C16.3584 105.191 16.2506 105.117 16.1299 105.054L15.8789 104.921L15.627 104.788C15.2616 104.595 15.0278 104.267 14.957 103.865L14.9072 103.581L14.8574 103.296C14.8334 103.16 14.7967 103.044 14.752 102.945L14.5352 102.471C14.4522 102.289 14.3789 102.102 14.3154 101.91L14.2324 101.658L14.1484 101.407C14.1048 101.276 14.0474 101.138 13.9746 100.994L13.7129 100.477C13.5636 100.181 13.5041 99.8582 13.5498 99.5254L13.626 98.9746C13.6573 98.747 13.7096 98.5236 13.7832 98.3066L13.8721 98.0459L13.9609 97.7842C13.9919 97.6927 14.0061 97.5962 14.0029 97.4912L13.9941 97.209L13.9863 96.9268C13.9772 96.6278 14.0361 96.3372 14.165 96.0664L14.2852 95.8154L14.4043 95.5645C14.5395 95.2809 14.7425 95.0475 14.998 94.8701L15.4746 94.54C15.5621 94.4792 15.6208 94.4159 15.6611 94.3525L15.8047 94.127L15.9473 93.9023L16.0254 93.792C16.2174 93.5452 16.4815 93.3762 16.7959 93.3076L17.3096 93.1963C17.3554 93.1863 17.379 93.1754 17.3877 93.1709L17.5322 93.0381L17.6152 92.9609C17.6044 92.9564 17.5928 92.9529 17.582 92.9482L17.3135 92.8301L17.0439 92.7129C16.7688 92.5923 16.5285 92.4155 16.3359 92.1816L16.1602 91.9678L15.9834 91.7539C15.8966 91.6485 15.801 91.5533 15.6963 91.4688L15.4824 91.2969L15.2686 91.124C14.9761 90.8879 14.8044 90.5644 14.7627 90.1973L14.7305 89.917L14.6992 89.6357C14.6954 89.6026 14.685 89.5743 14.6504 89.5361L14.4531 89.3193L14.2568 89.1025C13.9964 88.8157 13.8672 88.4524 13.9082 88.0557L13.9365 87.7764L13.9658 87.4971C13.971 87.4455 13.9636 87.3937 13.9336 87.3301L13.8096 87.0664L13.6846 86.8018C13.4923 86.3936 13.5352 85.9626 13.7646 85.5967L13.9277 85.3369L14.0898 85.0771C14.1386 84.9993 14.1454 84.9514 14.1455 84.9258L14.1465 84.6592V84.3926C14.1471 84.1809 14.1628 83.9686 14.1934 83.7568L14.2715 83.2178C14.3186 82.893 14.4599 82.6033 14.6816 82.3643L14.8691 82.1611L15.0576 81.958C15.0946 81.918 15.0971 81.8988 15.0977 81.8945L15.1318 81.6484L15.167 81.4033C15.179 81.3184 15.2032 81.1668 15.2676 81.0293C15.291 80.9794 15.39 80.7694 15.6367 80.6553ZM25.6992 94.3262C25.7378 94.3277 25.8628 94.3337 26.001 94.4033C26.0786 94.4425 26.1832 94.5132 26.2676 94.6348C26.3161 94.7047 26.3487 94.7807 26.3691 94.8564L26.4668 94.9346L26.6758 95.1016C26.8959 95.2778 27.0706 95.4953 27.1982 95.7461L27.3223 95.9902L27.4424 96.2246L27.7021 96.3174L27.9648 96.4102C28.2176 96.5 28.4504 96.6318 28.6611 96.7998L28.8887 96.9814L29.1162 97.1621C29.3674 97.3624 29.554 97.6185 29.6738 97.9141L29.7871 98.1943L29.8096 98.25L29.8711 98.2432L30.1729 98.2061L30.3223 98.1953C30.4756 98.1932 30.6384 98.2177 30.7988 98.2852C31.0172 98.3771 31.1851 98.5294 31.3037 98.708L31.4551 98.9355L31.6055 99.1631C31.7053 99.3136 31.8092 99.4686 31.916 99.6279L32.0771 99.8682L32.2373 100.108C32.4545 100.433 32.5276 100.817 32.4141 101.207L32.3369 101.471L32.2607 101.733C32.1747 102.028 32.0169 102.287 31.8037 102.504L31.6006 102.711L31.3965 102.918C31.3961 102.921 31.3956 102.926 31.3955 102.934L31.3936 103.238L31.3916 103.542C31.3904 103.756 31.3382 103.991 31.1895 104.202C31.0405 104.413 30.8357 104.541 30.6338 104.613L30.3486 104.716L30.0635 104.817C30.028 104.83 30.0179 104.842 30.0049 104.864L29.8555 105.12L29.7061 105.377C29.5974 105.564 29.4164 105.763 29.1357 105.857C29.0681 105.88 29.0006 105.894 28.9355 105.901C29.2149 105.921 29.4737 106.024 29.6895 106.207L29.7988 106.311L29.998 106.521L30.1973 106.731C30.2977 106.837 30.4073 106.932 30.5264 107.016L30.7637 107.182L31 107.349C31.3275 107.579 31.5232 107.916 31.5684 108.309L31.6016 108.602L31.6357 108.895C31.6475 108.997 31.6757 109.076 31.7139 109.14L31.8545 109.376L31.9961 109.611C32.116 109.812 32.213 110.024 32.2881 110.246L32.377 110.508L32.4658 110.771C32.5828 111.117 32.5625 111.47 32.4336 111.798L32.2148 112.353C32.1774 112.448 32.1711 112.518 32.1758 112.571L32.1992 112.835L32.2217 113.1C32.2365 113.269 32.2548 113.443 32.2754 113.622L32.3066 113.9L32.3389 114.178C32.368 114.432 32.36 114.686 32.3145 114.938L32.2646 115.212L32.2148 115.485C32.1446 115.872 31.9254 116.178 31.623 116.392L31.3701 116.569L31.1182 116.747C31.0202 116.816 30.9739 116.875 30.9512 116.916L30.6992 117.365C30.6039 117.536 30.4971 117.706 30.3809 117.875L30.0664 118.332C29.8729 118.613 29.6039 118.813 29.2812 118.92L28.75 119.096C28.5224 119.171 28.2856 119.22 28.042 119.246L27.4521 119.309C26.9995 119.356 26.5993 119.172 26.332 118.816L26.1494 118.574L25.9668 118.331C25.8592 118.188 25.7578 118.068 25.6631 117.969L25.4863 117.785L25.3096 117.601C25.1211 117.404 24.9813 117.173 24.8906 116.917L24.8037 116.673L24.7178 116.429C24.6829 116.33 24.6337 116.237 24.5693 116.146L24.2627 115.717C24.1647 115.58 24.0574 115.435 23.9424 115.283L23.5869 114.814C23.4025 114.572 23.2786 114.295 23.2285 113.991L23.1826 113.718L23.1377 113.443C23.0885 113.145 23.1133 112.848 23.2061 112.562L23.2949 112.288L23.3828 112.016C23.4518 111.803 23.535 111.597 23.6318 111.399L23.7539 111.15L23.877 110.9C23.8804 110.893 23.8806 110.889 23.8809 110.887C23.8812 110.882 23.8815 110.868 23.875 110.842L23.8037 110.55L23.7314 110.259C23.6301 109.846 23.7223 109.429 24.0244 109.104L24.2197 108.894L24.4141 108.685C24.5535 108.535 24.6932 108.393 24.832 108.263L25.0215 108.084L25.2109 107.906C25.2431 107.876 25.2777 107.83 25.3047 107.749L25.3945 107.477L25.4854 107.205C25.6201 106.802 25.929 106.499 26.3721 106.408L26.6357 106.354L26.8994 106.3C27.0773 106.263 27.2485 106.237 27.3975 106.228C27.4422 106.179 27.4871 106.142 27.5225 106.117C27.6315 106.041 27.7402 106.007 27.7959 105.991C27.9167 105.958 28.0493 105.945 28.1592 105.938L28.4512 105.918L28.7158 105.9C28.598 105.888 28.489 105.859 28.3955 105.821L28.1172 105.707L27.8389 105.594C27.6965 105.536 27.5912 105.511 27.5195 105.503L27.291 105.478L27.0615 105.452C26.7775 105.42 26.5182 105.313 26.293 105.146L26.0977 105.002L25.9033 104.857C25.7661 104.756 25.6254 104.648 25.4824 104.534L25.2764 104.37L25.0713 104.206C24.869 104.045 24.6984 103.853 24.5625 103.633L24.4229 103.406L24.2822 103.18C24.1516 102.968 24.0549 102.741 23.9922 102.5L23.9248 102.241L23.8574 101.983C23.8209 101.843 23.7736 101.702 23.7158 101.562L23.5068 101.054C23.3724 100.727 23.3617 100.382 23.4629 100.05L23.5459 99.7773L23.6279 99.5059C23.6492 99.4357 23.6505 99.3779 23.6387 99.3223L23.5811 99.0537L23.5234 98.7861C23.4662 98.5189 23.4612 98.2477 23.5098 97.9785L23.5566 97.7139L23.6045 97.4502C23.6403 97.2515 23.6863 97.054 23.7412 96.8594L23.8145 96.6006L23.8877 96.3408C23.9391 96.1588 23.9947 95.9756 24.0547 95.792L24.2266 95.2666C24.3201 94.9811 24.5304 94.6183 24.9688 94.4902L25.1484 94.4385L25.3281 94.3857C25.3877 94.3683 25.482 94.3417 25.5732 94.3311C25.5997 94.328 25.6453 94.3241 25.6992 94.3262ZM102.812 94.6729C103.211 94.7059 103.381 95.0234 103.403 95.0635C103.486 95.2147 103.515 95.3899 103.528 95.4717L103.572 95.7402L103.616 96.0078C103.633 96.112 103.665 96.204 103.709 96.2871L103.833 96.5195L103.957 96.751C104.072 96.9661 104.154 97.1946 104.203 97.4336L104.256 97.6914L104.308 97.9492C104.359 98.1997 104.367 98.4536 104.333 98.707L104.297 98.9707L104.262 99.2334C104.254 99.2926 104.258 99.3604 104.286 99.4443L104.468 99.9854C104.568 100.284 104.588 100.598 104.513 100.91L104.386 101.436C104.342 101.617 104.295 101.798 104.246 101.979L104.176 102.239L104.104 102.5C104.05 102.7 103.984 102.897 103.906 103.092L103.703 103.602C103.597 103.868 103.438 104.103 103.23 104.3L103.029 104.49L102.829 104.681C102.666 104.835 102.492 104.974 102.308 105.096L101.86 105.391C101.721 105.483 101.571 105.586 101.413 105.699L101.165 105.877L100.918 106.055C100.856 106.099 100.786 106.137 100.714 106.171L100.858 106.238L101.094 106.347C101.201 106.396 101.323 106.439 101.463 106.471L101.739 106.533L102.015 106.596C102.345 106.671 102.633 106.842 102.854 107.103L103.034 107.314L103.214 107.525C103.409 107.755 103.542 108.022 103.607 108.316L103.729 108.861C103.746 108.941 103.779 109.013 103.832 109.083L104.176 109.534C104.438 109.879 104.494 110.29 104.375 110.685L104.288 110.974L104.201 111.262C104.181 111.33 104.189 111.359 104.193 111.373L104.279 111.629L104.365 111.884C104.468 112.19 104.476 112.509 104.388 112.819L104.313 113.078L104.24 113.337C104.195 113.495 104.157 113.65 104.125 113.802L104.071 114.053L104.018 114.305C104.005 114.366 104.001 114.45 104.023 114.565L104.135 115.149C104.213 115.559 104.107 115.965 103.801 116.275L103.603 116.477L103.405 116.678C103.354 116.73 103.32 116.787 103.299 116.856L103.217 117.127L103.135 117.396C103.05 117.676 102.908 117.928 102.716 118.147L102.333 118.583C102.034 118.923 101.621 119.054 101.196 118.989L100.893 118.942L100.588 118.896C100.496 118.883 100.423 118.891 100.356 118.915L100.081 119.015L99.8057 119.113C99.4049 119.258 98.9855 119.204 98.6357 118.943L98.4072 118.773L98.1787 118.603C97.9879 118.46 97.8144 118.301 97.6611 118.125L97.4834 117.921L97.3066 117.716C97.145 117.53 97.0112 117.325 96.9082 117.102L96.6855 116.617C96.6329 116.503 96.5657 116.391 96.4834 116.281L96.3174 116.059L96.1504 115.836C95.9895 115.621 95.8693 115.384 95.793 115.127L95.6367 114.602C95.576 114.397 95.5282 114.189 95.4941 113.978L95.4062 113.435C95.3707 113.214 95.3538 112.992 95.3555 112.769L95.3594 112.218C95.3614 111.952 95.4086 111.693 95.499 111.443L95.5938 111.181L95.6895 110.919C95.765 110.711 95.8555 110.509 95.9609 110.317L96.0918 110.079L96.2227 109.84C96.3148 109.672 96.4087 109.51 96.5039 109.354L96.6387 109.134L96.7725 108.914C96.7856 108.892 96.8081 108.843 96.8105 108.741L96.8174 108.435L96.8242 108.129C96.8334 107.741 96.987 107.375 97.3076 107.112L97.5234 106.936L97.7393 106.758C97.9632 106.574 98.2197 106.444 98.502 106.375L98.7656 106.311L99.0303 106.246C99.1924 106.207 99.3004 106.173 99.3643 106.148L99.5205 106.088L99.5371 106.081L99.3877 106.003L99.1182 105.862C98.8997 105.748 98.6981 105.617 98.5186 105.466L98.3164 105.297L98.1143 105.127C97.9528 104.991 97.8027 104.845 97.665 104.688L97.4951 104.495L97.3252 104.301C97.1886 104.145 97.0628 103.981 96.9492 103.806L96.6641 103.366C96.54 103.175 96.4383 102.971 96.3594 102.757L96.2686 102.51L96.1768 102.263C96.1216 102.113 96.0602 101.961 95.9922 101.809L95.7695 101.309C95.6407 101.019 95.5994 100.712 95.6299 100.402L95.6885 99.8066L95.7119 99.6523C95.7863 99.3019 95.9916 99.0124 96.2939 98.8145L96.8096 98.4766C97.0215 98.3378 97.2453 98.2241 97.4775 98.1553L97.7002 98.0889L97.9229 98.0234C98.1271 97.963 98.3516 97.9243 98.5879 97.9023L98.8955 97.874L99.1514 97.8496L99.249 97.6895L99.3906 97.4551C99.535 97.2166 99.7232 97.0128 99.9531 96.8535L100.17 96.7031L100.383 96.5547C100.384 96.5514 100.388 96.5461 100.39 96.5381L100.459 96.2627L100.527 95.9873L100.58 95.8271C100.644 95.6701 100.743 95.5227 100.883 95.4014C101.065 95.244 101.276 95.1635 101.474 95.127L101.79 95.0684L102.106 95.0107C102.116 95.0089 102.126 95.0056 102.135 95.0039L102.141 94.9961L102.199 94.9219C102.294 94.8163 102.496 94.6469 102.812 94.6729ZM90.4004 105.724C90.4855 105.718 90.6966 105.717 90.8994 105.866C90.9971 105.938 91.0641 106.024 91.1104 106.11L91.1953 106.137L91.4453 106.212C91.7115 106.292 91.9523 106.428 92.1582 106.616L92.5352 106.962C92.6677 107.083 92.7987 107.207 92.9268 107.334L93.1084 107.515L93.291 107.695C93.4319 107.835 93.5666 107.985 93.6953 108.144L93.8652 108.354L94.0352 108.562C94.2284 108.801 94.3502 109.079 94.3955 109.383L94.4355 109.65L94.4756 109.917C94.4886 110.004 94.5178 110.092 94.5693 110.183L94.709 110.429L94.8496 110.674C95.0402 111.009 95.0799 111.383 94.9707 111.749L94.8066 112.298C94.7651 112.437 94.7408 112.566 94.7314 112.685L94.7109 112.944L94.6914 113.205C94.678 113.377 94.6645 113.549 94.6523 113.722L94.6152 114.245C94.5964 114.511 94.5281 114.766 94.4111 115.005L94.2949 115.241L94.1797 115.478C94.1781 115.481 94.1619 115.516 94.1768 115.614L94.2246 115.934L94.2734 116.254C94.3062 116.472 94.2905 116.731 94.1533 116.977C94.0148 117.224 93.7992 117.373 93.5918 117.458L93.2969 117.578L93.0039 117.697L92.9004 117.992L92.7959 118.291C92.7271 118.487 92.6096 118.684 92.4199 118.838C92.2276 118.994 92.0052 119.069 91.7881 119.089L91.4912 119.115L91.1943 119.143C90.928 119.167 90.6632 119.151 90.4062 119.089L90.1465 119.026L89.8857 118.964C89.7367 118.928 89.5757 118.897 89.4033 118.873L88.8232 118.791C88.6117 118.761 88.3947 118.679 88.2109 118.516C88.0287 118.354 87.9212 118.151 87.8633 117.953L87.7783 117.66L87.6924 117.367C87.6902 117.366 87.6874 117.363 87.6836 117.361L87.4043 117.217L87.126 117.071C86.7436 116.872 86.4784 116.521 86.4463 116.057L86.4258 115.769L86.4062 115.479C86.3996 115.385 86.3756 115.304 86.3359 115.229L86.2031 114.98L86.0703 114.732C85.8999 114.413 85.8561 114.062 85.9355 113.712L85.999 113.433L86.0625 113.152C86.1009 112.983 86.1319 112.821 86.1543 112.666L86.1924 112.402L86.2305 112.14C86.2539 111.978 86.2725 111.817 86.2861 111.657L86.3086 111.397L86.3301 111.137C86.3533 110.866 86.4309 110.608 86.5586 110.369L86.6826 110.136L86.8076 109.902C86.8405 109.841 86.8607 109.772 86.8652 109.691L86.8799 109.42L86.8955 109.148C86.9121 108.854 86.9973 108.573 87.1533 108.319L87.4287 107.87C87.5104 107.737 87.5922 107.593 87.6729 107.437L87.8057 107.18L87.9375 106.924L88.0117 106.797C88.1963 106.515 88.4702 106.319 88.8057 106.233L89.085 106.163L89.3633 106.092C89.5263 106.05 89.6284 106.013 89.6846 105.987L89.8525 105.909L90.0215 105.831C90.0849 105.802 90.2305 105.735 90.4004 105.724ZM109.739 92.8311C109.877 92.8283 110.015 92.856 110.111 92.8789L110.367 92.9404L110.624 93.002C110.848 93.0553 111.065 93.1332 111.273 93.2354L111.764 93.4756C112.018 93.5998 112.237 93.773 112.418 93.9902L112.594 94.2012L112.769 94.4121C112.956 94.6374 113.085 94.8968 113.152 95.1816L113.217 95.4502L113.28 95.7178C113.322 95.8937 113.364 96.0652 113.405 96.2305L113.469 96.4824L113.532 96.7354C113.587 96.9541 113.618 97.177 113.624 97.4023L113.631 97.6631L113.638 97.9229C113.641 98.0551 113.656 98.1855 113.682 98.3135L113.785 98.8193C113.804 98.9103 113.842 99.0225 113.912 99.1562L114.201 99.7031C114.299 99.8884 114.361 100.109 114.344 100.351C114.327 100.594 114.233 100.805 114.105 100.976L113.925 101.218L113.744 101.461C113.671 101.559 113.637 101.64 113.621 101.702L113.559 101.954L113.496 102.207C113.473 102.3 113.46 102.418 113.466 102.565L113.489 103.175C113.497 103.385 113.458 103.613 113.336 103.823C113.214 104.034 113.036 104.181 112.849 104.278L112.579 104.419L112.31 104.559C112.192 104.62 112.113 104.683 112.061 104.74L111.709 105.127C111.488 105.369 111.206 105.528 110.881 105.587L110.628 105.632L110.375 105.678C110.225 105.705 110.067 105.74 109.903 105.782L109.654 105.846C109.774 105.841 109.95 105.861 110.119 105.99C110.147 106.012 110.172 106.035 110.195 106.059L110.371 106.102L110.627 106.165C110.838 106.217 111.045 106.288 111.249 106.377L111.502 106.487L111.756 106.598C112.005 106.706 112.228 106.858 112.423 107.048L112.624 107.244L112.826 107.44C113.079 107.688 113.229 108 113.271 108.347L113.342 108.923C113.355 109.03 113.385 109.115 113.424 109.185L113.557 109.42L113.688 109.655C113.795 109.845 113.886 110.043 113.963 110.248L114.06 110.506L114.155 110.764C114.295 111.138 114.254 111.518 114.092 111.854L113.958 112.13L113.825 112.405C113.809 112.439 113.804 112.46 113.803 112.47C113.802 112.477 113.802 112.482 113.803 112.486L113.858 112.749L113.914 113.011C113.95 113.18 113.99 113.358 114.033 113.543L114.1 113.828L114.166 114.112C114.233 114.401 114.237 114.695 114.173 114.985L114.112 115.259L114.051 115.532C113.966 115.915 113.737 116.212 113.432 116.417L113.171 116.593L112.909 116.768C112.8 116.841 112.746 116.904 112.719 116.947L112.583 117.164L112.447 117.382C112.338 117.556 112.215 117.723 112.079 117.883L111.737 118.285C111.542 118.515 111.297 118.684 111.014 118.785L110.764 118.875L110.513 118.964C110.26 119.054 109.996 119.095 109.728 119.084L109.459 119.073L109.191 119.062C108.934 119.052 108.683 119 108.441 118.91L108.18 118.813L107.919 118.716C107.591 118.593 107.327 118.372 107.15 118.069L106.869 117.587C106.811 117.488 106.74 117.399 106.654 117.32L106.242 116.939C106.005 116.721 105.84 116.448 105.761 116.133L105.693 115.865L105.626 115.599C105.576 115.399 105.535 115.198 105.505 114.998L105.465 114.731L105.424 114.466C105.391 114.248 105.377 114.028 105.383 113.808L105.396 113.274C105.401 113.111 105.4 112.948 105.395 112.787L105.386 112.524L105.376 112.261C105.371 112.129 105.355 111.988 105.324 111.84L105.267 111.562L105.209 111.284C105.149 110.996 105.154 110.704 105.228 110.418L105.296 110.152L105.364 109.886C105.452 109.546 105.646 109.266 105.909 109.054L106.144 108.864L106.378 108.674C106.448 108.617 106.469 108.575 106.478 108.552L106.565 108.305L106.653 108.059C106.719 107.874 106.796 107.684 106.883 107.49L107.004 107.223L107.124 106.956L107.202 106.809C107.292 106.665 107.417 106.533 107.585 106.437C107.751 106.341 107.926 106.3 108.09 106.292L108.251 106.294L108.557 106.316L108.854 106.338L108.913 106.283L109.056 106.146C109.105 106.099 109.174 106.037 109.243 105.988C109.25 105.983 109.288 105.955 109.348 105.925C109.04 106.001 108.729 105.99 108.43 105.902L108.144 105.818L107.857 105.735C107.531 105.64 107.25 105.457 107.034 105.19L106.667 104.737C106.454 104.474 106.332 104.165 106.301 103.831L106.272 103.532L106.245 103.233C106.234 103.112 106.205 103.026 106.173 102.963L106.053 102.73L105.934 102.498C105.87 102.375 105.792 102.247 105.697 102.113L105.529 101.876L105.362 101.64C105.125 101.303 105.059 100.906 105.174 100.513L105.256 100.232L105.337 99.9521C105.362 99.8651 105.363 99.7963 105.352 99.7383L105.301 99.4727L105.249 99.2061C105.204 98.972 105.188 98.735 105.201 98.4971L105.23 97.9561C105.242 97.7516 105.265 97.5467 105.297 97.3428L105.383 96.8018C105.441 96.4369 105.628 96.134 105.898 95.9062L106.127 95.7139L106.355 95.5205C106.392 95.4898 106.395 95.4737 106.397 95.4609L106.452 95.1855L106.506 94.9111C106.559 94.6391 106.662 94.3838 106.811 94.1494L106.965 93.9053L107.119 93.6621C107.323 93.3408 107.628 93.1275 107.995 93.041L108.28 92.9736L108.564 92.9072C108.804 92.851 109.101 92.8191 109.391 92.9141C109.541 92.8393 109.682 92.8322 109.739 92.8311ZM33.9395 101.274C34.0705 101.196 34.3942 101.079 34.7129 101.302L34.7148 101.304L34.9697 101.371L35.2246 101.438C35.4042 101.484 35.5873 101.536 35.7725 101.593L36.3018 101.755C36.6089 101.849 36.8743 102.023 37.0801 102.272L37.2529 102.482L37.4141 102.677L37.668 102.703L37.9404 102.73C38.1731 102.754 38.4006 102.803 38.6211 102.877L39.1309 103.047C39.2625 103.091 39.4432 103.168 39.5938 103.318C39.7713 103.495 39.8851 103.755 39.8457 104.05L39.8252 104.199L39.8057 104.348C39.7513 104.752 39.4645 105.001 39.2627 105.133L39.0557 105.268L38.8477 105.403C38.5961 105.568 38.3102 105.656 38.0059 105.654L37.7646 105.652L37.5244 105.651C37.4048 105.651 37.2627 105.66 37.0986 105.684L36.8115 105.724L36.5234 105.765C36.1273 105.821 35.7454 105.709 35.4453 105.429L35.2402 105.237L35.0352 105.045C34.9077 104.926 34.7746 104.809 34.6367 104.692L34.416 104.506L34.1953 104.32C33.9369 104.103 33.7585 103.821 33.6738 103.492L33.5312 102.941C33.4742 102.719 33.4283 102.433 33.502 102.153L33.543 101.999L33.5791 101.863C33.5858 101.763 33.6141 101.657 33.6758 101.552L33.6914 101.524L33.7441 101.447C33.7615 101.425 33.8266 101.342 33.9395 101.274ZM93.5889 100.729C93.64 100.709 93.8193 100.644 94.0391 100.692C94.1703 100.722 94.3162 100.792 94.4326 100.925C94.5445 101.053 94.5889 101.192 94.6055 101.294L94.6172 101.366L94.6289 101.438C94.6532 101.588 94.627 101.713 94.6094 101.779C94.5898 101.853 94.5629 101.918 94.54 101.966C94.4945 102.062 94.4345 102.158 94.375 102.246L94.2236 102.471L94.0713 102.694C93.9943 102.808 93.933 102.922 93.8848 103.035L93.7842 103.271L93.6836 103.507C93.5873 103.733 93.4567 103.94 93.2949 104.124L92.9609 104.505C92.8402 104.642 92.7137 104.778 92.583 104.91L92.4014 105.094L92.2188 105.278C91.9553 105.545 91.6095 105.681 91.2305 105.656L90.9766 105.639L90.7217 105.622C90.5975 105.614 90.4709 105.617 90.3428 105.633L90.0859 105.664L89.8281 105.695C89.5273 105.732 89.2335 105.686 88.958 105.574L88.4404 105.363C88.3653 105.333 88.2583 105.282 88.1572 105.198C88.0587 105.117 87.8916 104.941 87.8652 104.659C87.8381 104.369 87.9773 104.159 88.0732 104.054C88.1669 103.951 88.2724 103.885 88.3438 103.846L88.5811 103.716L88.8174 103.586C88.9213 103.529 89.0229 103.455 89.1211 103.364L89.3301 103.171L89.5381 102.978C89.6551 102.869 89.7665 102.751 89.8721 102.626L90.0586 102.405L90.2451 102.184C90.477 101.909 90.7874 101.729 91.1533 101.68L91.7002 101.605C91.8453 101.586 91.9742 101.557 92.0879 101.521L92.5605 101.37C92.6399 101.345 92.7256 101.302 92.8164 101.236L93.0361 101.077L93.2559 100.919C93.3342 100.862 93.4553 100.779 93.5889 100.729ZM111.93 80.8076C112.058 80.8081 112.155 80.8437 112.191 80.8584L112.29 80.9072L112.313 80.9209C112.438 80.9946 112.514 81.0918 112.564 81.1787C112.584 81.2019 112.607 81.2292 112.635 81.2617L112.809 81.4688L112.982 81.6748C113.162 81.8885 113.293 82.1332 113.371 82.4014L113.446 82.6611L113.521 82.9199C113.553 83.0269 113.6 83.1335 113.666 83.2393L113.816 83.4785L113.966 83.7178C114.168 84.0404 114.226 84.4071 114.143 84.7734L114.078 85.0547L114.014 85.335C113.992 85.4278 113.994 85.5053 114.009 85.5732L114.065 85.8369L114.122 86.1016C114.181 86.3757 114.181 86.6536 114.122 86.9277L114.065 87.1904L114.008 87.4531C113.96 87.6756 113.89 87.8914 113.797 88.0986L113.688 88.3418L113.579 88.585C113.579 88.5858 113.576 88.5903 113.575 88.6025C113.574 88.6163 113.575 88.645 113.586 88.6914L113.657 89.0039L113.729 89.3164C113.778 89.5295 113.782 89.7819 113.674 90.0312C113.565 90.2818 113.377 90.4521 113.184 90.5615L112.909 90.7168L112.646 90.8652L112.589 91.1621L112.528 91.4707C112.488 91.6753 112.399 91.8902 112.229 92.0703C112.058 92.2525 111.844 92.3556 111.631 92.4023L111.049 92.5293C110.771 92.5902 110.486 92.6006 110.205 92.542L109.95 92.4883L109.695 92.4355C109.568 92.409 109.448 92.3956 109.335 92.3945L108.847 92.3906C108.597 92.3884 108.35 92.3405 108.111 92.2578L107.584 92.0742C107.233 91.9526 106.915 91.6897 106.807 91.2568L106.75 91.0312L106.693 90.8047C106.626 90.5348 106.631 90.2607 106.701 89.9941L106.763 89.7627L106.823 89.5312C106.894 89.2664 107.024 89.0298 107.195 88.8223L107.539 88.4043C107.552 88.3883 107.577 88.3509 107.587 88.2588L107.655 87.6338C107.692 87.2998 107.824 86.9469 108.136 86.6953L108.322 86.5449L108.508 86.3955C108.5 86.4021 108.499 86.4053 108.504 86.3975C108.509 86.388 108.522 86.3642 108.534 86.3193L108.613 86.0254L108.693 85.7324C108.787 85.3866 108.996 85.0631 109.36 84.877L109.585 84.7627L109.81 84.6475C109.887 84.6077 109.962 84.5535 110.032 84.4814L110.215 84.2939L110.374 84.1299L110.371 83.8936L110.366 83.627C110.361 83.3238 110.433 83.0342 110.572 82.7686L110.703 82.5195L110.833 82.2715C110.915 82.1146 110.983 81.9751 111.038 81.8545L111.13 81.6514L111.22 81.4541C111.229 81.3562 111.262 81.2151 111.369 81.0791C111.543 80.8583 111.783 80.8072 111.93 80.8076ZM108.303 51.4922C108.392 51.4869 108.526 51.4962 108.668 51.5684C108.818 51.6449 108.923 51.7648 108.983 51.8887C109.084 52.0943 109.053 52.2805 109.047 52.3164C109.046 52.3203 109.044 52.3243 109.043 52.3281L109.218 52.502C109.409 52.6929 109.556 52.9171 109.656 53.168L109.752 53.4092L109.849 53.6504C109.877 53.7212 109.917 53.7839 109.975 53.8418L110.16 54.0293L110.346 54.2158C110.52 54.3914 110.667 54.5927 110.789 54.8135L110.931 55.0684L111.072 55.3242C111.169 55.4977 111.251 55.6498 111.317 55.7793L111.411 55.9619L111.505 56.1436C111.616 56.359 111.675 56.5908 111.694 56.8262L111.714 57.0586L111.729 57.2383C111.734 57.2447 111.742 57.2538 111.753 57.2637L111.988 57.4746L112.223 57.6855C112.522 57.9536 112.699 58.3189 112.682 58.7441L112.658 59.3242C112.653 59.4583 112.664 59.5878 112.691 59.7129L112.812 60.2695C112.854 60.4607 112.888 60.6297 112.914 60.7744L112.984 61.1729C113.007 61.2998 113.009 61.4615 112.946 61.6309C112.882 61.8055 112.767 61.9371 112.641 62.0273C112.417 62.1864 112.163 62.2127 112.013 62.2178L111.353 62.2393C111.351 62.2393 111.349 62.2392 111.347 62.2393L111.205 62.4141L111.032 62.6279C110.892 62.8013 110.738 62.9612 110.57 63.1074L110.365 63.2871L110.16 63.4658C109.914 63.6811 109.62 63.8088 109.299 63.8496L109.021 63.8857L108.742 63.9209C108.665 63.9307 108.605 63.9549 108.552 63.9912L108.328 64.1445L108.104 64.2979C107.897 64.4395 107.673 64.5488 107.435 64.624L107.178 64.7051L106.922 64.7861C106.757 64.8382 106.587 64.8938 106.413 64.9531L106.145 65.0439L105.877 65.1357C105.535 65.2525 105.182 65.2418 104.849 65.1094L104.313 64.8965C104.043 64.7888 103.802 64.6277 103.604 64.4102L103.424 64.2129L103.244 64.0146C103.16 63.9221 103.073 63.8477 102.984 63.7881L102.776 63.6484L102.569 63.5078C102.263 63.3014 102.073 62.995 102.017 62.6357L101.978 62.3828L101.938 62.1309C101.905 61.9186 101.892 61.7045 101.899 61.4902L101.917 60.9824C101.922 60.8296 101.923 60.6708 101.918 60.5059L101.91 60.2363L101.901 59.9668C101.891 59.616 102.002 59.2917 102.216 59.0195L102.558 58.584C102.609 58.5189 102.639 58.4544 102.654 58.3857L102.714 58.124L102.774 57.8623C102.817 57.6741 102.866 57.4845 102.921 57.2949L102.998 57.0303L103.075 56.7646L103.122 56.6279C103.247 56.3201 103.473 56.085 103.761 55.9307L104.023 55.79L104.286 55.6484C104.344 55.6175 104.358 55.5936 104.364 55.5801L104.483 55.3379L104.602 55.0967C104.693 54.9103 104.796 54.73 104.909 54.5557L105.056 54.3291L105.202 54.1035C105.287 53.9728 105.368 53.833 105.445 53.6846L105.576 53.4336L105.708 53.1816L105.789 53.0459C105.994 52.7462 106.3 52.5682 106.646 52.5039L106.952 52.4463L107.258 52.3896L107.305 52.375C107.305 52.375 107.306 52.3742 107.308 52.3721L107.48 52.1504L107.654 51.9287C107.711 51.8559 107.753 51.8026 107.776 51.7734C107.782 51.7666 107.79 51.7566 107.798 51.7471C107.801 51.7438 107.811 51.7317 107.824 51.7178C107.828 51.7141 107.849 51.6914 107.878 51.666C107.885 51.6598 107.934 51.6156 108.008 51.5762C108.035 51.5618 108.146 51.5015 108.303 51.4922ZM19.2617 51.7031C19.5263 51.5874 19.773 51.6405 19.9131 51.6895C20.0582 51.7402 20.1854 51.8191 20.2852 51.8916L20.7168 52.2061C20.8336 52.291 20.9602 52.3699 21.0957 52.4424L21.3398 52.5732L21.585 52.7041C21.8059 52.8224 22.0072 52.969 22.1855 53.1436L22.3789 53.333L22.5732 53.5234C22.7924 53.7379 22.9449 53.9978 23.0361 54.2861L23.125 54.5654L23.2129 54.8447C23.2533 54.9727 23.3039 55.0763 23.3604 55.1602L23.5078 55.3799L23.6562 55.5986C23.7321 55.7111 23.8176 55.8187 23.9141 55.9199L24.2852 56.3086C24.3913 56.42 24.5084 56.5313 24.6367 56.6416L24.8545 56.8291L25.0713 57.0156C25.3715 57.2738 25.5339 57.624 25.5449 58.0146L25.5527 58.3076L25.5615 58.6006C25.5653 58.7338 25.5851 58.8458 25.6162 58.9404L25.6992 59.1914L25.7812 59.4414C25.8674 59.7031 25.897 59.975 25.8701 60.249L25.8438 60.5127L25.8184 60.7773C25.8167 60.7941 25.8161 60.8325 25.8555 60.9062L26.1426 61.4434C26.3187 61.773 26.3691 62.1391 26.2773 62.5068L26.2051 62.7939L26.1338 63.0811C26.0441 63.4406 25.8375 63.7396 25.5352 63.9512L25.0449 64.293C24.8203 64.4501 24.5761 64.569 24.3135 64.6406L24.0479 64.7129L23.7812 64.7861C23.5973 64.8363 23.412 64.8838 23.2256 64.9287L22.9551 64.9932L22.6855 65.0586C22.397 65.1281 22.1033 65.1287 21.8145 65.0586L21.5469 64.9932L21.2793 64.9287C21.0604 64.8755 20.8479 64.8038 20.6436 64.7129L20.1494 64.4922C20.0772 64.4602 19.9925 64.4397 19.8877 64.4375L19.5977 64.4316L19.3086 64.4258C18.8537 64.4162 18.4898 64.1809 18.2646 63.8193L18.0996 63.5537L17.957 63.3262L17.7197 63.3066L17.4229 63.2812C17.0511 63.2499 16.7119 63.0896 16.4619 62.791L16.2842 62.5781L16.1055 62.3652C15.9717 62.2055 15.8464 62.0393 15.7295 61.8682L15.5732 61.6406L15.418 61.4131C15.2979 61.2372 15.1943 61.0612 15.1143 60.8867L14.9365 60.498C14.7405 60.0705 14.8674 59.6598 15.0762 59.3711L15.2354 59.1514L15.3945 58.9307C15.4323 58.8784 15.4522 58.8274 15.46 58.7686L15.4951 58.5029L15.5303 58.2363C15.5753 57.8958 15.7295 57.6 15.9619 57.3613L16.1631 57.1543L16.3643 56.9482C16.4978 56.8111 16.6191 56.6861 16.7275 56.5742L16.8906 56.4062L16.9629 56.3301L16.9102 56.042L16.8516 55.7178C16.7723 55.2809 16.8936 54.8499 17.2412 54.5332L17.4688 54.3262L17.6963 54.1182C17.6975 54.1171 17.6982 54.1152 17.6992 54.1143L17.707 53.8457L17.7139 53.5596C17.7232 53.1877 17.8667 52.8508 18.1318 52.5869L18.333 52.3867L18.5332 52.1865C18.6628 52.0575 18.8492 51.8839 19.0547 51.7939L19.1582 51.748L19.2617 51.7031ZM28.6289 41.8379C28.8355 41.7305 29.0249 41.7573 29.0928 41.7705C29.2288 41.797 29.3236 41.859 29.332 41.8643C29.361 41.8822 29.3826 41.8986 29.3926 41.9062C29.4243 41.9308 29.4486 41.9545 29.4512 41.957C29.4582 41.9638 29.4642 41.97 29.4678 41.9736C29.4808 41.9867 29.4971 42.0031 29.5107 42.0176C29.5409 42.0497 29.587 42.0995 29.6475 42.165L29.8281 42.3613L30.0098 42.5576C30.1285 42.6862 30.2478 42.8142 30.3672 42.9404L30.5488 43.1328L30.7314 43.3262C30.7817 43.3792 30.8536 43.4323 30.959 43.4795L31.5 43.7217C31.8253 43.8673 32.0683 44.1179 32.1953 44.4453L32.2432 44.5908L32.3936 45.1533C32.437 45.3161 32.4868 45.4668 32.542 45.6055L32.7412 46.1055C32.7989 46.2505 32.8617 46.3898 32.9307 46.5225L33.0518 46.7549L33.1719 46.9863C33.209 47.0578 33.2669 47.1347 33.3555 47.2148L33.7871 47.6055C34.0148 47.8116 34.1872 48.0645 34.2871 48.3594L34.375 48.6182L34.4629 48.8779C34.5402 49.1062 34.589 49.3414 34.6084 49.582L34.6299 49.8574L34.6523 50.1318C34.666 50.3014 34.6847 50.4766 34.709 50.6572L34.748 50.9463L34.7861 51.2354C34.8164 51.4608 34.7873 51.7032 34.6641 51.9287C34.5443 52.1479 34.3651 52.2979 34.1865 52.3994L33.9014 52.5625L33.6152 52.7246C33.5078 52.7857 33.4836 52.8291 33.4814 52.833L33.3594 53.0557L33.2373 53.2793C33.143 53.4522 33.0023 53.6136 32.8047 53.7246C32.6082 53.8349 32.3997 53.871 32.208 53.8652L31.6846 53.8496C31.6359 53.8481 31.5802 53.8575 31.5098 53.8926L31.2588 54.0176L31.0068 54.1426C30.7562 54.2674 30.4883 54.3411 30.209 54.3613L29.9287 54.3818L29.6484 54.4014C29.1938 54.4342 28.8194 54.2278 28.5625 53.9102L28.3604 53.6611L28.1582 53.4111C28.1313 53.378 28.114 53.3653 28.1094 53.3623L27.8555 53.3145L27.5938 53.2656C27.3654 53.2226 27.1445 53.1531 26.9326 53.0586L26.6904 52.9512L26.4492 52.8438C26.2967 52.7757 26.1405 52.7092 25.9814 52.6455L25.4795 52.4443C25.2479 52.3516 25.0334 52.2269 24.8389 52.0713L24.6299 51.9043L24.4199 51.7373C24.3167 51.6548 24.2045 51.5809 24.082 51.5166L23.5957 51.2607C23.252 51.0802 23.0275 50.7843 22.9131 50.4375L22.8174 50.1475L22.7217 49.8584C22.7088 49.8194 22.6972 49.7978 22.6914 49.7881L22.5264 49.6738L22.3418 49.5459C21.9555 49.2779 21.8506 48.8571 21.8516 48.5146L21.8525 48.1992L21.8535 47.8828L21.8662 47.709C21.8925 47.5274 21.9648 47.3265 22.1279 47.1543C22.3457 46.9245 22.6232 46.8531 22.8408 46.8408L23.4717 46.8057C23.4853 46.8049 23.4951 46.802 23.501 46.8008L23.6807 46.6064L23.8691 46.4014C23.9904 46.2695 24.0986 46.1484 24.1934 46.0381L24.3447 45.8613L24.4961 45.6855C24.5597 45.6114 24.6278 45.5133 24.6982 45.3857L24.833 45.1426L24.9668 44.8994C25.0877 44.6805 25.2367 44.4809 25.4121 44.3027L25.6074 44.1045L25.8018 43.9072C25.9747 43.7315 26.1691 43.5789 26.3818 43.4512L26.626 43.3047L26.8691 43.1582C27.0469 43.0515 27.221 42.9572 27.3896 42.875L27.6104 42.7666L27.832 42.6592C27.9102 42.6211 27.968 42.5775 28.0127 42.5312L28.1719 42.3662L28.2822 42.251C28.3294 42.1061 28.4314 41.9406 28.6289 41.8379ZM99.0674 41.6309C99.1517 41.6219 99.3748 41.614 99.585 41.7803C99.8145 41.9622 99.8534 42.2096 99.8545 42.333C99.8546 42.3506 99.8526 42.3676 99.8516 42.3838L100.021 42.5137C100.189 42.6436 100.349 42.7874 100.501 42.9434L100.695 43.1426L100.89 43.3428C101.015 43.4711 101.127 43.5816 101.225 43.6748L101.383 43.8262L101.542 43.9766C101.698 44.125 101.836 44.3017 101.961 44.4941L102.27 44.9707L102.271 44.9727L102.531 45.0371L102.798 45.1025C102.988 45.1493 103.182 45.202 103.379 45.2607L103.659 45.3447L103.938 45.4277C104.35 45.5504 104.652 45.8453 104.781 46.2568L104.869 46.5342L104.956 46.8115C104.998 46.9451 105.05 47.0566 105.107 47.1494L105.246 47.373L105.386 47.5957C105.469 47.7287 105.569 47.8795 105.688 48.0469L105.879 48.3115L106.069 48.5771C106.18 48.7309 106.316 48.9847 106.283 49.3008C106.247 49.6501 106.029 49.8787 105.834 50.0049L105.602 50.1553L105.368 50.3057C105.217 50.4033 105.069 50.5015 104.924 50.5996L104.699 50.752L104.475 50.9033C104.301 51.0204 104.122 51.1264 103.936 51.2217L103.694 51.3457L103.454 51.4688C103.3 51.5478 103.149 51.6286 103.001 51.71L102.77 51.8369L102.538 51.9648C102.461 52.0075 102.387 52.0656 102.317 52.1455L102.136 52.3555L101.953 52.5645C101.784 52.7581 101.59 52.9228 101.371 53.0547L101.141 53.1934L100.911 53.332C100.765 53.4203 100.616 53.5121 100.468 53.6084L100.003 53.9092C99.6593 54.1317 99.2713 54.1686 98.9033 54.0713L98.6045 53.9932L98.3057 53.9141C98.1687 53.8779 98.0682 53.8711 97.9971 53.877L97.7451 53.8984L97.4932 53.9189C97.4012 53.9267 97.2928 53.9506 97.167 53.999L96.8975 54.1025L96.6279 54.207C96.3125 54.3284 95.9809 54.3486 95.6533 54.2705L95.085 54.1357C94.6829 54.0398 94.3717 53.7831 94.1963 53.4131L94.0703 53.1465L93.9434 52.8789C93.878 52.7411 93.801 52.6126 93.7139 52.4941L93.3701 52.0273C93.1554 51.7355 93.0553 51.3916 93.0879 51.0264L93.1133 50.7432L93.1387 50.4609C93.1653 50.1638 93.2582 49.8837 93.4131 49.6289L93.5605 49.3857L93.709 49.1416C93.7302 49.1066 93.7386 49.0759 93.7354 49.0293L93.7148 48.7422L93.6953 48.4541C93.6748 48.1594 93.7173 47.8689 93.8311 47.5938L94.04 47.0898C94.1584 46.8038 94.3453 46.564 94.585 46.374L94.8115 46.1943L95.0371 46.0156C95.0848 45.9778 95.1061 45.9431 95.1191 45.9043L95.207 45.6426L95.2959 45.3809L95.3486 45.2461C95.4875 44.9422 95.7258 44.7161 96.0234 44.5762L96.292 44.4502L96.5596 44.3242C96.6532 44.2802 96.706 44.2337 96.7383 44.1934L97.0645 43.7852C97.1517 43.6761 97.2335 43.5572 97.3096 43.4287L97.4482 43.1953L97.5869 42.9609C97.7154 42.7438 97.8752 42.5473 98.0615 42.3711L98.2754 42.1689L98.4883 41.9678C98.5563 41.9034 98.6236 41.8409 98.6729 41.8008C98.6842 41.7915 98.7131 41.7685 98.749 41.7451C98.763 41.736 98.8086 41.7057 98.8721 41.6797C98.9019 41.6675 98.9727 41.641 99.0674 41.6309ZM40.127 35.2832C40.3251 35.2455 40.5324 35.2929 40.6963 35.417L40.7637 35.4746L40.8203 35.5293C40.8203 35.5293 40.8216 35.5308 40.8242 35.5332C40.8272 35.5361 40.8316 35.54 40.8369 35.5449C40.8476 35.555 40.8625 35.5689 40.8809 35.5859C40.9175 35.6201 40.9682 35.6673 41.0332 35.7275L41.2295 35.9092L41.4258 36.0918C41.6438 36.2938 41.8024 36.5397 41.9033 36.8164L42 37.0811L42.0967 37.3467C42.139 37.4627 42.192 37.5584 42.252 37.6387L42.4092 37.8486L42.5654 38.0586C42.6317 38.1472 42.7141 38.2324 42.8145 38.3125L43.0322 38.4854L43.249 38.6592C43.5386 38.8902 43.7156 39.2059 43.7676 39.5684L43.8076 39.8496L43.8379 40.0664L44.0957 40.2139L44.376 40.373C44.6772 40.5451 44.9289 40.7992 45.0645 41.1465L45.1641 41.4014L45.2627 41.6553C45.343 41.8612 45.4065 42.0734 45.4521 42.29L45.5088 42.5576L45.5645 42.8262C45.6079 43.0322 45.6394 43.2399 45.6582 43.4492L45.6826 43.7217L45.707 43.9932C45.7321 44.2722 45.7001 44.5481 45.6143 44.8145L45.5273 45.0811L45.4414 45.3486C45.4397 45.3533 45.4325 45.3726 45.4561 45.4336L45.5693 45.7275L45.6826 46.0205C45.7583 46.2161 45.7982 46.4496 45.7451 46.6973C45.6912 46.9484 45.5557 47.1483 45.3936 47.2969L45.1738 47.499L44.9541 47.7002C44.8414 47.8034 44.7437 47.9131 44.6602 48.0283L44.4912 48.2607L44.3223 48.4941C44.1077 48.7901 43.8078 48.9869 43.4521 49.0674L43.1699 49.1309L42.8877 49.1953C42.6155 49.2568 42.339 49.2676 42.0635 49.2246L41.7871 49.1816L41.5117 49.1387C41.2942 49.1047 41.0812 49.0551 40.874 48.9902L40.6143 48.9092L40.3555 48.8281C40.1372 48.7598 39.9279 48.6702 39.7285 48.5596L39.4932 48.4287L39.2568 48.2979C39.1615 48.245 39.0548 48.2034 38.9336 48.1758L38.6582 48.1133L38.3818 48.0508C38.0093 47.9658 37.7089 47.7464 37.5078 47.4297L37.3525 47.1836L37.1963 46.9375C37.1647 46.8878 37.1352 46.8668 37.1025 46.8525L36.5928 46.6318C36.2174 46.4688 35.9699 46.1656 35.8516 45.7988L35.666 45.2227C35.6558 45.1909 35.6462 45.1765 35.6436 45.1729C35.6416 45.1703 35.6398 45.169 35.6367 45.167L35.4102 45.0215L35.1826 44.875C34.9794 44.7441 34.796 44.5889 34.6348 44.4102L34.457 44.2129L34.2803 44.0166C34.1708 43.8953 34.0566 43.7755 33.9385 43.6582L33.7471 43.4688L33.5566 43.2793C33.4106 43.1343 33.2726 42.9817 33.1436 42.8213L32.8057 42.4014C32.6496 42.2073 32.5242 41.9937 32.4307 41.7627L32.3291 41.5117L32.2275 41.2617C32.1229 41.0034 32.0196 40.5284 32.375 40.1387L32.4902 40.0127L32.6055 39.8857C32.623 39.8663 32.6751 39.7962 32.7588 39.6387L32.9014 39.3721L33.043 39.1055L33.127 38.9678C33.2209 38.8339 33.3437 38.7141 33.5 38.624C33.7069 38.5048 33.9289 38.4623 34.1367 38.4658L34.4492 38.4717L34.7197 38.4756L34.8545 38.3037L35.0312 38.0791C35.2247 37.8324 35.4748 37.6417 35.7783 37.5342L36.0273 37.4463L36.2754 37.3584C36.4106 37.3105 36.547 37.2516 36.6846 37.1816L37.1768 36.9316C37.4987 36.768 37.8468 36.7357 38.1865 36.8076L38.4805 36.8691L38.7266 36.9209L38.8857 36.7871L39.0977 36.6074C39.1601 36.5545 39.2071 36.4935 39.2422 36.418L39.3594 36.1641L39.4775 35.9111C39.5191 35.8217 39.5676 35.723 39.6201 35.6416C39.6397 35.6113 39.6976 35.5229 39.791 35.4443C39.835 35.4073 39.9503 35.3168 40.127 35.2832ZM87.2637 35.4414C87.4619 35.3709 87.6419 35.3952 87.7588 35.4297C87.9647 35.4905 88.1191 35.622 88.2002 35.6963L88.3965 35.877L88.5928 36.0566C88.6706 36.1279 88.7377 36.1686 88.793 36.1914L89.0078 36.2793L89.2227 36.3682C89.4227 36.4505 89.6193 36.5621 89.8105 36.6943L90.0498 36.8594L90.2607 37.0059L90.4775 36.9502L90.7432 36.8809C91.1013 36.7883 91.4531 36.8539 91.7451 37.0576L91.8672 37.1533L92.0742 37.3369L92.2822 37.5215C92.3892 37.6164 92.4794 37.6787 92.5518 37.7178L92.748 37.8232L92.9434 37.9297C93.1285 38.0296 93.3085 38.1586 93.4824 38.3066L93.7021 38.4941L93.9219 38.6807C94.0006 38.7477 94.0587 38.7719 94.0947 38.7812L94.332 38.8428L94.5684 38.9033C94.7901 38.9604 95.0534 39.0761 95.2441 39.3125L95.3203 39.4219L95.4961 39.7051C95.718 40.0649 95.6508 40.4517 95.5664 40.7012L95.4805 40.9531L95.3955 41.2061C95.3514 41.3364 95.3149 41.4792 95.2881 41.6357L95.1904 42.2061C95.1188 42.6236 94.8701 42.9494 94.5049 43.1406L93.9736 43.418C93.9019 43.4555 93.8759 43.49 93.8623 43.5137L93.7285 43.7451L93.5957 43.9775C93.4793 44.1804 93.3399 44.3675 93.1797 44.5371L92.998 44.7295L92.8154 44.9229C92.6682 45.0787 92.5098 45.2227 92.3398 45.3535L92.1289 45.5156L91.9189 45.6777C91.8766 45.7104 91.8327 45.7595 91.793 45.8438L91.668 46.1074L91.543 46.3721C91.3906 46.695 91.1407 46.9492 90.8027 47.0947L90.5498 47.2041L90.2959 47.3135C90.2519 47.3324 90.2099 47.3631 90.166 47.4238L89.8223 47.8984C89.6194 48.1787 89.342 48.3816 89.0029 48.4795L88.7334 48.5566L88.4648 48.6348C88.2041 48.71 87.9355 48.7374 87.6641 48.7197L87.0879 48.6826C87.0064 48.6773 86.9458 48.69 86.8936 48.7139L86.3975 48.9404C86.0843 49.0835 85.745 49.1145 85.4092 49.0234L85.1504 48.9541L84.8926 48.8838C84.6472 48.8172 84.4172 48.7127 84.209 48.5674L84.0039 48.4248L83.7988 48.2812C83.6021 48.1439 83.43 47.9788 83.2861 47.7871L82.9932 47.3984C82.8665 47.2298 82.7568 47.0462 82.6621 46.8516L82.5479 46.6162L82.4326 46.3809C82.2959 46.0996 82.2469 45.7955 82.2842 45.4863L82.3154 45.2236L82.3477 44.9609C82.3737 44.7452 82.4178 44.5329 82.4805 44.3262L82.5557 44.0762L82.6318 43.8262C82.6605 43.7316 82.6752 43.6306 82.6738 43.5205L82.6699 43.25L82.667 42.9795C82.6628 42.6433 82.765 42.3295 82.9629 42.0596L83.124 41.8389L83.2861 41.6182C83.3526 41.5275 83.3998 41.4356 83.4316 41.3418L83.5156 41.0928L83.6006 40.8447C83.6524 40.692 83.701 40.5346 83.7461 40.373L83.8184 40.1123L83.8916 39.8516C83.9485 39.6474 84.019 39.4478 84.1025 39.2529L84.3154 38.7549C84.4262 38.4966 84.5869 38.2689 84.793 38.0781L84.9932 37.8936L85.1934 37.708C85.2479 37.6575 85.2907 37.5969 85.3223 37.5186L85.4268 37.2598L85.5312 37C85.6628 36.6739 85.8932 36.4165 86.1992 36.2471L86.6934 35.9736C86.7234 35.957 86.7474 35.9424 86.7656 35.9307C86.7672 35.9297 86.7681 35.9277 86.7695 35.9268L86.7871 35.8975L86.8457 35.793C86.9215 35.6599 87.056 35.5154 87.2637 35.4414ZM65.8643 30.6172C66.0853 30.5224 66.3392 30.4864 66.6006 30.5508C66.8537 30.6132 67.0546 30.7541 67.2061 30.9092L67.4619 31.1719L67.4707 31.1826L67.5518 31.1016C67.6043 31.0489 67.6899 30.9701 67.8027 30.9092C67.8995 30.8569 68.1762 30.7341 68.4941 30.8789C68.8075 31.0218 68.8978 31.3057 68.9229 31.4092C68.9525 31.5319 68.9519 31.6472 68.9482 31.7217L68.9209 32.2822C68.9218 32.2848 68.9281 32.3006 68.9512 32.3291L69.1523 32.5781L69.3535 32.8262C69.4829 32.9861 69.5884 33.1847 69.625 33.4189C69.662 33.6564 69.6208 33.8825 69.5342 34.0811L69.4141 34.3555L69.2949 34.6299C69.2615 34.7065 69.2599 34.756 69.2646 34.791L69.3008 35.0576L69.3369 35.3252C69.3674 35.5491 69.3762 35.7741 69.3623 35.999L69.3457 36.2666L69.3291 36.5332C69.3191 36.695 69.3145 36.859 69.3154 37.0244L69.3174 37.2969L69.3184 37.5684C69.3197 37.8036 69.2951 38.0367 69.2432 38.2656L69.1826 38.5293L69.123 38.793C69.079 38.9872 69.0274 39.1798 68.9678 39.3701L68.8867 39.6279L68.8057 39.8867C68.7579 40.0393 68.7161 40.1958 68.6807 40.3555L68.5615 40.8926C68.5109 41.1206 68.4371 41.3418 68.3398 41.5547L68.1094 42.0586C67.9989 42.3003 67.8494 42.5181 67.665 42.71L67.4707 42.9121L67.2764 43.1152C67.0877 43.3115 66.8685 43.4692 66.623 43.5869L66.3701 43.709L66.1162 43.8301C66.0343 43.8694 65.9641 43.923 65.9014 43.9941L65.7129 44.207L65.5254 44.4189C65.2725 44.7055 64.9345 44.8678 64.5527 44.8848L64.2686 44.8975L63.9854 44.9092C63.7054 44.9215 63.4307 44.881 63.167 44.7861L62.9043 44.6914L62.6416 44.5977C62.4396 44.525 62.2398 44.4389 62.043 44.3408L61.7842 44.2109L61.5244 44.082C61.2489 43.9447 61.0154 43.7475 60.8369 43.4951L60.6738 43.2637L60.5098 43.0322C60.3256 42.7716 60.2212 42.476 60.1924 42.1611L60.165 41.8662L60.1387 41.5723C60.1366 41.5502 60.1322 41.54 60.1309 41.5371C60.1295 41.5343 60.1253 41.5275 60.1133 41.5156L59.9072 41.3115L59.7002 41.1074C59.476 40.8862 59.3154 40.6165 59.2373 40.3057L59.1709 40.042L59.1045 39.7773C59.0674 39.6298 59.0204 39.4842 58.9648 39.3408L58.8662 39.085L58.7666 38.8291C58.6501 38.5287 58.6263 38.2137 58.6855 37.9014L58.7383 37.6191L58.792 37.3369C58.8299 37.1371 58.8727 36.9403 58.9199 36.7471L59.0527 36.2041C59.0611 36.1696 59.0591 36.1451 59.0449 36.1104L58.9395 35.8516L58.833 35.5918C58.7555 35.4018 58.6856 35.2072 58.6221 35.0098L58.5352 34.7393L58.4473 34.4688C58.3562 34.1857 58.3311 33.8912 58.3799 33.5957L58.4248 33.3262L58.4688 33.0576C58.5098 32.8092 58.5867 32.5715 58.7012 32.3486L58.8203 32.1172L58.9395 31.8848C59.0299 31.7088 59.1676 31.5427 59.3643 31.4258C59.5602 31.3093 59.7703 31.2682 59.9648 31.2705L60.2305 31.2734L60.4951 31.2764C60.6768 31.2785 60.859 31.283 61.041 31.2891L61.3076 31.2979L61.5732 31.3066C61.6638 31.3096 61.7315 31.2961 61.7852 31.2754L62.0117 31.1885L62.2383 31.1006C62.4294 31.0268 62.6323 30.9684 62.8447 30.9238L63.1143 30.8672L63.3848 30.8105C63.5661 30.7725 63.6693 30.7491 63.7119 30.7373L63.8125 30.709L63.9141 30.6807L64.04 30.6553C64.1622 30.6397 64.2704 30.6504 64.3418 30.6602C64.451 30.6751 64.5637 30.7026 64.6709 30.7344L64.9346 30.8125L65.1973 30.8906C65.1979 30.8908 65.1992 30.8911 65.2051 30.8906C65.2128 30.89 65.2356 30.8868 65.2744 30.8701L65.5693 30.7432L65.8643 30.6172ZM75.792 31.8359C75.9739 31.8385 76.1445 31.8391 76.3027 31.8379L76.7949 31.834C77.0932 31.8317 77.3751 31.9126 77.6318 32.043L77.8945 32.1768L78.1582 32.3105C78.4197 32.4434 78.6468 32.6245 78.8311 32.8535L79.0088 33.0742L79.1865 33.2959C79.2022 33.3154 79.2309 33.3416 79.3076 33.3633L79.6113 33.4492L79.9141 33.5352C80.0384 33.5703 80.1187 33.5701 80.166 33.5625L80.4209 33.5215L80.6748 33.4805C80.9608 33.4344 81.2463 33.4595 81.5195 33.5518L81.7676 33.6357L82.0166 33.7197C82.2408 33.7955 82.4521 33.8995 82.6416 34.0371L83.0127 34.3066C83.1949 34.4391 83.4015 34.6848 83.3975 35.0439C83.3939 35.3541 83.2303 35.5798 83.1211 35.7021L82.9316 35.9141L82.7773 36.0859L82.8242 36.3789L82.875 36.6924C82.9364 37.076 82.8576 37.4724 82.5771 37.7949L82.3945 38.0049L82.2129 38.2139C82.0709 38.3771 81.9184 38.5311 81.7559 38.6748L81.3379 39.0439C81.3121 39.0667 81.297 39.0898 81.2871 39.1328L81.1602 39.6875C81.108 39.9154 81.035 40.1357 80.9414 40.3477L80.7168 40.8574C80.5437 41.2495 80.2172 41.4894 79.8428 41.5967L79.2295 41.7725C79.2232 41.7743 79.218 41.7758 79.2139 41.7773L79.0977 41.998L78.9688 42.2432C78.8342 42.4983 78.649 42.7164 78.415 42.8877L78.2002 43.0459L77.9844 43.2031C77.9057 43.2607 77.8292 43.3371 77.7568 43.4375L77.5879 43.6719L77.4199 43.9062C77.2098 44.198 76.916 44.3975 76.5625 44.4814L76.2881 44.5469L76.0127 44.6123C75.7338 44.6785 75.4501 44.6864 75.168 44.6367L74.8857 44.5869L74.6045 44.5371C74.4983 44.5184 74.4241 44.5249 74.374 44.5371L74.1348 44.5957L73.8945 44.6543C73.599 44.7265 73.2986 44.7106 73.0117 44.6055L72.7812 44.5215L72.5518 44.4375C72.3003 44.3453 72.0778 44.2012 71.8887 44.0127L71.7119 43.8369L71.5361 43.6611C71.4112 43.5366 71.2806 43.4013 71.1455 43.2559L70.9512 43.0469L70.7568 42.8369C70.459 42.516 70.3602 42.1027 70.4648 41.6865L70.5361 41.4033L70.6074 41.1191C70.6521 40.9413 70.6894 40.7739 70.7197 40.6172L70.7695 40.3613L70.8193 40.1045C70.8368 40.0145 70.8388 39.9215 70.8242 39.8223L70.7852 39.5566L70.7461 39.292C70.708 39.0336 70.7157 38.7741 70.7695 38.5186L70.8232 38.2607L70.8779 38.0039C70.9272 37.77 71.0063 37.5446 71.1152 37.3311L71.2373 37.0938L71.3584 36.8564C71.3675 36.8386 71.3801 36.8053 71.3711 36.7314L71.2988 36.1396C71.2581 35.8053 71.313 35.4696 71.4893 35.166L71.625 34.9316L71.7617 34.6982C71.8776 34.4988 72.0134 34.3126 72.1689 34.1406L72.5381 33.7324C72.6534 33.6049 72.7634 33.4773 72.8682 33.3496L73.0371 33.1436L73.1982 32.9453L73.1934 32.8428C73.1744 32.4907 73.3723 32.2341 73.582 32.1006C73.7532 31.9917 73.9386 31.9544 74.0625 31.9375L74.3242 31.9023L74.5859 31.8662C74.7974 31.8374 75.0137 31.8251 75.2334 31.8281L75.792 31.8359ZM53.666 31.5645C53.7315 31.5552 53.8612 31.5455 54.0107 31.5967C54.1789 31.6544 54.3301 31.7769 54.4199 31.9531C54.4274 31.9603 54.4358 31.9686 54.4453 31.9775C54.4678 31.9987 54.4946 32.0239 54.5264 32.0527L54.7324 32.2393L54.9385 32.4268C55.1901 32.655 55.3532 32.9454 55.4199 33.2764L55.4756 33.5537L55.5312 33.8301C55.5591 33.9683 55.5991 34.0938 55.6484 34.207L55.7539 34.4502L55.8604 34.6934C55.9305 34.8543 56.0013 35.0156 56.0723 35.1758L56.2871 35.6602C56.3644 35.8345 56.436 36.0116 56.5029 36.1904L56.5967 36.4395L56.6895 36.6875C56.7236 36.7788 56.777 36.8764 56.8574 36.9795L57.2188 37.4424C57.4216 37.7024 57.5443 38.0073 57.5645 38.3438L57.5977 38.8945C57.6079 39.0662 57.6219 39.238 57.6406 39.4082L57.6709 39.6807L57.7012 39.9541C57.7265 40.1844 57.7277 40.4159 57.7061 40.6475L57.6807 40.9238L57.6543 41.2002C57.636 41.3959 57.6132 41.5934 57.585 41.792L57.5049 42.3545C57.4588 42.6788 57.3241 42.9719 57.1133 43.2197L56.7363 43.6631C56.5259 43.9104 56.2576 44.0916 55.9404 44.1846L55.6758 44.2617L55.4111 44.3398C55.2182 44.3964 55.0334 44.4426 54.8574 44.4775L54.6289 44.5225L54.4014 44.5674C54.1656 44.6141 53.9266 44.6182 53.6895 44.582L53.4521 44.5459L53.2139 44.5098C52.9936 44.4762 52.7799 44.4139 52.5742 44.3252L52.3457 44.2266L52.1182 44.1289C52.0816 44.1132 52.0106 44.0941 51.8857 44.0977L51.5791 44.1064L51.2715 44.1152C50.8443 44.1274 50.4461 43.9495 50.1934 43.5674L50.0371 43.3301L49.8799 43.0928C49.86 43.0627 49.8403 43.0463 49.8018 43.0322L49.5312 42.9336L49.2617 42.835C48.9481 42.7206 48.6824 42.5208 48.4922 42.2383L48.3389 42.0117L48.1865 41.7842C48.0934 41.6458 47.9967 41.5127 47.8975 41.3848L47.7334 41.1738L47.5693 40.9619C47.4952 40.8665 47.4072 40.7769 47.3037 40.6934L47.0869 40.5176L46.8701 40.3428C46.6599 40.1731 46.4842 39.9708 46.3486 39.7373L46.2119 39.5029L46.0762 39.2686C45.9721 39.0893 45.8783 38.9038 45.7949 38.7139L45.6855 38.4658L45.5771 38.2178C45.5316 38.1139 45.471 38.0148 45.3936 37.9209L45.2158 37.707L45.0391 37.4922C44.7494 37.1412 44.7039 36.7178 44.7988 36.332L44.8779 36.0098L44.9482 35.7256L44.8164 35.5762L44.627 35.3623C44.5715 35.2994 44.5011 35.209 44.4482 35.0947C44.3965 34.9829 44.3318 34.782 44.3936 34.5439C44.4603 34.287 44.6355 34.1303 44.7803 34.0498C44.9125 33.9764 45.0439 33.9502 45.1299 33.9385L45.3828 33.9043L45.6367 33.8701C45.8613 33.8396 46.0914 33.8348 46.3252 33.8535L46.6084 33.876L46.8916 33.8994C46.9354 33.9029 46.9754 33.8962 47.0273 33.8672L47.2832 33.7236L47.5391 33.5811C47.6205 33.5356 47.6819 33.4798 47.7314 33.4111L47.8994 33.1787L48.0674 32.9453C48.2367 32.7104 48.4485 32.5164 48.7012 32.373L48.9424 32.2373L49.1826 32.1006C49.3905 31.9827 49.6103 31.89 49.8398 31.8223L50.1064 31.7432L50.373 31.665C50.6332 31.5883 50.9005 31.5598 51.1709 31.5811L51.4463 31.6025L51.7207 31.624C51.9977 31.6459 52.263 31.7208 52.5098 31.8486L52.752 31.9746L52.8486 32.0244L52.9238 31.9707L53.1387 31.8154C53.2164 31.7593 53.3103 31.6948 53.4033 31.6484C53.4409 31.6297 53.5392 31.5825 53.666 31.5645Z" fill="#303A4B"/>
</svg>
