<svg width="128" height="128" viewBox="0 0 128 128" fill="none" xmlns="http://www.w3.org/2000/svg">
<path d="M20.1938 117.237L20.4526 117.226L21.1636 117.194L21.1675 117.295L21.1733 117.426L21.1313 117.551L20.9673 118.042C20.9266 118.163 20.9141 118.24 20.9126 118.278L21.0298 118.502L21.1636 118.763C21.3384 119.101 21.3754 119.477 21.2534 119.846L21.0737 120.387C21.0309 120.516 21.005 120.641 20.9956 120.759L20.9751 121.027L20.9546 121.294C20.952 121.327 20.9524 121.348 20.9536 121.356L21.0493 121.527L21.1528 121.712C21.1853 121.77 21.2059 121.807 21.2173 121.826C21.216 121.824 21.2142 121.821 21.2124 121.818C21.2088 121.813 21.1911 121.789 21.1646 121.76C21.1582 121.753 21.1437 121.741 21.1265 121.725C21.1109 121.71 21.0922 121.69 21.0688 121.672C21.0434 121.653 20.998 121.62 20.936 121.592L20.9331 121.591C20.875 121.565 20.7638 121.525 20.6196 121.529L20.644 122.076L21.3755 122.109L21.3804 122.208L21.2271 122.216L21.3687 122.233L21.356 122.334L21.2769 122.925L20.6821 122.951L20.5767 122.949C20.3646 122.929 20.2265 122.819 20.2114 122.808C20.1615 122.77 20.1273 122.733 20.1128 122.717C20.0821 122.683 20.0597 122.651 20.0513 122.639C20.0316 122.611 20.013 122.582 20.0015 122.563C19.976 122.521 19.9446 122.465 19.9097 122.402L19.7046 122.035C19.5517 121.761 19.5145 121.461 19.5366 121.182L19.5581 120.914L19.5786 120.646C19.5976 120.407 19.6467 120.17 19.7231 119.939L19.814 119.669L19.8979 119.41L19.7651 119.156L19.6313 118.894C19.4061 118.458 19.49 117.97 19.6177 117.59L19.7827 117.099L20.1938 117.237ZM17.7534 116.493L18.0835 116.635L18.4194 116.679L18.354 117.177C18.3077 117.524 18.2432 117.842 18.145 118.09L17.9478 118.586C17.8682 118.786 17.7733 118.981 17.6626 119.167L17.5249 119.398L17.3862 119.629C17.2907 119.789 17.1925 119.949 17.0913 120.107L16.9448 120.336L16.7983 120.563C16.7895 120.577 16.7849 120.589 16.7817 120.596L16.7954 120.776L16.811 120.987C16.8168 121.064 16.8303 121.255 16.7573 121.445C16.7154 121.554 16.6073 121.758 16.3599 121.868C16.1058 121.981 15.8753 121.921 15.7563 121.87L15.6714 121.835L15.5034 121.763L15.3911 121.619L15.2642 121.455L15.7339 121.088L15.4243 120.955C15.3997 121.027 15.3946 121.08 15.394 121.089C15.3931 121.105 15.3931 121.108 15.3921 121.095L15.3813 120.937L15.1304 120.83L15.1694 120.738L15.6421 119.632L15.6782 119.677L15.7476 119.567L15.8931 119.34C15.9859 119.195 16.078 119.049 16.1655 118.902L16.3022 118.671L16.4399 118.438C16.5123 118.317 16.576 118.19 16.6274 118.061L16.8228 117.565C16.8556 117.483 16.901 117.303 16.9429 116.989L17.0093 116.491L17.022 116.396L17.0601 116.307L17.0991 116.214L17.7534 116.493ZM107.362 115.807L107.619 115.844L108.04 115.745L108.157 116.25C108.247 116.641 108.285 117.134 108.019 117.547L107.86 117.794L107.704 118.035L107.763 118.301L107.827 118.579C107.881 118.816 107.907 119.056 107.903 119.295L107.899 119.564L107.894 119.832C107.889 120.112 107.823 120.407 107.644 120.666L107.405 121.013C107.364 121.072 107.328 121.124 107.298 121.163C107.285 121.181 107.264 121.208 107.242 121.234C107.232 121.245 107.207 121.274 107.173 121.305C107.158 121.319 107.12 121.354 107.066 121.387C107.051 121.396 106.903 121.493 106.689 121.492L106.584 121.484L105.995 121.4L105.972 120.806L105.968 120.704L106.112 120.699L105.961 120.678L105.974 120.58L106.707 120.617L106.783 120.075C106.639 120.057 106.525 120.086 106.464 120.106L106.461 120.107C106.397 120.13 106.349 120.157 106.322 120.174C106.297 120.189 106.276 120.207 106.259 120.221C106.241 120.235 106.225 120.246 106.218 120.252C106.189 120.279 106.169 120.301 106.165 120.306C106.179 120.286 106.201 120.254 106.235 120.205L106.354 120.031L106.467 119.87C106.469 119.862 106.471 119.841 106.471 119.809L106.481 119.271C106.483 119.153 106.47 119.027 106.44 118.895L106.313 118.339C106.227 117.961 106.299 117.589 106.505 117.27L106.665 117.022L106.802 116.811C106.804 116.773 106.801 116.695 106.772 116.57L106.654 116.066L106.624 115.937L106.642 115.807L106.657 115.708L107.362 115.807ZM110.826 115.218L110.855 115.31L110.859 115.406L110.876 115.907C110.888 116.223 110.916 116.406 110.941 116.492L111.089 117.005C111.128 117.139 111.178 117.27 111.239 117.398L111.354 117.643L111.468 117.886C111.541 118.041 111.618 118.195 111.697 118.349L111.82 118.59L111.878 118.703L111.919 118.663L112.283 119.81L112.314 119.905L112.053 119.986L112.027 120.143C112.025 120.156 112.026 120.152 112.027 120.137C112.027 120.126 112.026 120.073 112.008 120.001L111.687 120.104L112.121 120.515L111.978 120.665L111.852 120.797L111.678 120.853L111.591 120.88C111.468 120.919 111.233 120.957 110.991 120.82C110.755 120.687 110.667 120.474 110.635 120.361C110.581 120.166 110.612 119.976 110.625 119.9L110.661 119.691L110.693 119.513C110.69 119.506 110.686 119.494 110.678 119.479L110.555 119.238L110.431 118.998C110.346 118.831 110.263 118.662 110.183 118.493L110.068 118.249L109.953 118.007C109.86 117.811 109.783 117.608 109.723 117.4L109.575 116.889C109.501 116.633 109.468 116.309 109.456 115.959L109.437 115.457L109.777 115.445L110.118 115.336L110.795 115.121L110.826 115.218ZM14.9155 114.986L15.1265 115.151L15.5308 115.281L15.3735 115.772C15.2591 116.13 15.0891 116.511 14.7993 116.762L14.3892 117.118C14.3178 117.18 14.2604 117.251 14.2163 117.333L14.0884 117.571L13.9604 117.811C13.8089 118.093 13.5862 118.314 13.314 118.472L13.0659 118.616L12.895 118.714L12.4399 119.296L12.3784 119.374L11.9263 119.02L12.0757 119.54L11.9565 119.575L11.6079 119.675L11.3228 119.45L11.2944 119.428C10.9897 119.188 11.0033 118.848 11.0308 118.71C11.0569 118.581 11.1134 118.485 11.1362 118.447C11.1894 118.36 11.2571 118.281 11.3062 118.228L11.5601 117.948C11.7121 117.782 11.9051 117.645 12.104 117.529L12.6011 117.241C12.6594 117.207 12.6884 117.173 12.7075 117.138L12.8364 116.899L12.9634 116.66C13.0897 116.425 13.2558 116.218 13.4575 116.043L13.6636 115.865L13.8687 115.688C13.8528 115.701 13.8686 115.693 13.9028 115.63C13.9361 115.568 13.976 115.473 14.019 115.339L14.1763 114.849L14.2153 114.727L14.2944 114.627L14.356 114.547L14.9155 114.986ZM113.74 113.811L113.809 113.917L113.836 114.043L113.946 114.546C113.976 114.684 114.006 114.782 114.034 114.847C114.062 114.912 114.076 114.922 114.062 114.907L114.249 115.104L114.437 115.301C114.621 115.494 114.766 115.717 114.87 115.963L114.973 116.212L115.079 116.462C115.094 116.499 115.12 116.536 115.174 116.575L115.641 116.91C115.828 117.044 116.008 117.199 116.143 117.379L116.37 117.682C116.413 117.74 116.473 117.824 116.517 117.916C116.536 117.956 116.584 118.056 116.597 118.188C116.611 118.327 116.593 118.668 116.266 118.877L116.236 118.896L115.93 119.093L115.592 118.96L115.478 118.914L115.676 118.41L115.192 118.72L115.138 118.636L114.741 118.013L114.581 117.899L114.347 117.731C114.091 117.548 113.89 117.307 113.766 117.012L113.663 116.762L113.557 116.512C113.521 116.426 113.472 116.35 113.407 116.281L113.032 115.888C112.767 115.61 112.635 115.215 112.555 114.848L112.446 114.344L112.862 114.253L113.087 114.108L113.686 113.726L113.74 113.811ZM20.9556 90.7148C21.1366 91.0214 21.4085 91.2331 21.7231 91.3594L22.0044 91.4727L22.2856 91.585C22.3543 91.6125 22.3727 91.6381 22.3794 91.6484L22.5239 91.874L22.6694 92.0996C22.7864 92.2817 22.917 92.454 23.061 92.6143L23.2388 92.8115L23.4165 93.0098C23.5344 93.141 23.6531 93.2727 23.771 93.4043L23.9487 93.6035L24.1265 93.8018C24.256 93.9464 24.3911 94.0867 24.5308 94.2217L24.7222 94.4072L24.9136 94.5918C25.0629 94.7362 25.2223 94.8717 25.3892 94.9961L25.603 95.1553L25.8179 95.3154C25.9245 95.395 26.0236 95.4847 26.1138 95.583L26.2944 95.7793L26.4751 95.9766C26.5857 96.0972 26.6943 96.2231 26.7993 96.3525L27.1411 96.7744C27.3151 96.9886 27.5274 97.1624 27.771 97.292L28.0103 97.4199L28.2505 97.5469C28.3016 97.5741 28.347 97.6136 28.3882 97.6758L28.5435 97.9111L28.6997 98.1465C28.897 98.444 29.1804 98.6518 29.522 98.752L29.7944 98.8311L30.0669 98.9111C30.2117 98.9535 30.3455 99.0056 30.4673 99.0654L30.7075 99.1836L30.9487 99.3027C30.9517 99.304 30.974 99.3143 31.0054 99.377L31.1431 99.6523L31.2808 99.9287C31.4424 100.252 31.7034 100.515 32.0659 100.648L32.5796 100.838C32.6561 100.866 32.726 100.903 32.7925 100.944C32.7641 100.985 32.7354 101.027 32.7046 101.066L32.3667 101.5C32.2246 101.682 32.0648 101.85 31.8892 101.999L31.6802 102.176L31.4731 102.353C31.2888 102.509 31.0861 102.641 30.8687 102.746L30.6235 102.863L30.3784 102.982C30.2247 103.057 30.077 103.132 29.937 103.207L29.7104 103.329L29.4849 103.451C29.4194 103.487 29.3456 103.543 29.269 103.631L29.0806 103.85L28.8911 104.067C28.71 104.276 28.4819 104.428 28.2183 104.508C28.2301 104.64 28.2412 104.769 28.2544 104.892L28.2837 105.154L28.311 105.418C28.3255 105.552 28.3512 105.682 28.3872 105.805L28.4614 106.052L28.5337 106.301C28.5983 106.522 28.6343 106.749 28.6431 106.979L28.6528 107.238L28.6636 107.496C28.6656 107.548 28.6825 107.63 28.7397 107.745L28.8794 108.027L29.02 108.309C29.1769 108.624 29.2393 108.984 29.1392 109.353L29.0688 109.611L28.9976 109.871C28.969 109.976 28.922 110.125 28.8364 110.258C28.7875 110.333 28.6188 110.551 28.3403 110.615L28.3306 110.637L28.2183 110.879C28.1924 110.935 28.1719 111.013 28.1714 111.123L28.1694 111.424V111.726C28.1674 112.162 27.9649 112.542 27.5942 112.782L27.0962 113.104C26.9913 113.172 26.9171 113.244 26.8647 113.312L26.7036 113.523L26.5425 113.735C26.4513 113.855 26.3601 113.987 26.2729 114.13L26.1245 114.375L25.9761 114.619C25.7829 114.936 25.4918 115.156 25.1343 115.255L24.8589 115.332L24.5825 115.408C24.3956 115.46 24.2138 115.509 24.0376 115.555L23.52 115.689C23.4744 115.701 23.4141 115.73 23.3394 115.798L22.8921 116.207C22.7359 116.35 22.5366 116.466 22.2974 116.509C22.0587 116.551 21.833 116.511 21.6382 116.433L21.0698 116.204C20.9318 116.149 20.8168 116.121 20.7251 116.112L20.4702 116.087L20.2134 116.062C20.0759 116.048 19.9312 116.044 19.7808 116.049L19.2397 116.066C18.975 116.075 18.7144 116.037 18.4634 115.952L18.2075 115.867L17.9517 115.78C17.7398 115.709 17.5343 115.618 17.3384 115.509L16.8638 115.243C16.5574 115.072 16.3375 114.81 16.2056 114.496L16.0923 114.228L15.9995 114.006L15.7026 113.924L15.3892 113.837C15.19 113.781 14.981 113.676 14.813 113.494C14.6417 113.308 14.5532 113.084 14.5239 112.862L14.4839 112.568L14.4458 112.273C14.4184 112.065 14.397 111.862 14.3833 111.666L14.3647 111.395L14.3481 111.162C14.3443 111.159 14.339 111.154 14.3335 111.149L14.0737 110.942L13.8159 110.734C13.5192 110.496 13.3005 110.158 13.2769 109.733L13.2612 109.456L13.2466 109.178C13.2332 108.934 13.2493 108.69 13.2964 108.451L13.4038 107.905C13.4279 107.783 13.4371 107.658 13.4302 107.532L13.4146 107.254L13.3989 106.977C13.3826 106.682 13.433 106.393 13.5493 106.122L13.769 105.613C13.8375 105.454 13.9013 105.293 13.9614 105.134L14.1548 104.623C14.2565 104.354 14.4144 104.116 14.6196 103.916L14.8179 103.722L15.0181 103.526C15.0501 103.495 15.0777 103.454 15.0952 103.384L15.1665 103.097L15.2378 102.809C15.348 102.367 15.6583 102.055 16.0815 101.925L16.3726 101.836L16.6646 101.746C16.7485 101.72 16.7858 101.688 16.8062 101.665L16.9839 101.463L17.1606 101.261C17.3449 101.051 17.5681 100.884 17.8228 100.769L18.0659 100.659L18.3081 100.55C18.487 100.469 18.6693 100.394 18.853 100.328L18.9341 100.298L18.9087 100.05L18.8794 99.7656C18.8557 99.534 18.8536 99.3013 18.8726 99.0723L18.895 98.7949L18.9185 98.5195C18.9229 98.4643 18.9136 98.4164 18.8892 98.3662L18.7651 98.1162L18.6431 97.8662C18.5311 97.6386 18.4534 97.3973 18.4116 97.1475L18.3208 96.6025C18.2768 96.3376 18.2804 96.07 18.3325 95.8066L18.3862 95.5381L18.439 95.2686C18.5038 94.9426 18.6635 94.6598 18.8882 94.4277L19.0981 94.2109L19.2544 94.0498L19.1978 93.79L19.1304 93.4746C19.0568 93.128 19.0848 92.764 19.2632 92.4297L19.395 92.1836L19.5259 91.9395C19.6607 91.6873 19.8441 91.4692 20.0688 91.293L20.2915 91.1191L20.5151 90.9434C20.63 90.8532 20.7321 90.7565 20.8208 90.6553L20.8794 90.5869L20.9556 90.7148ZM110.244 85.5215C110.18 85.7098 110.105 85.8958 110.02 86.0762L109.794 86.5547C109.723 86.7066 109.651 86.8642 109.581 87.0264L109.471 87.2812L109.361 87.5352C109.235 87.8265 109.035 88.0694 108.773 88.249L108.659 88.3271L108.673 88.3389C108.886 88.4889 109.071 88.6712 109.223 88.8828L109.541 89.3242C109.619 89.4335 109.711 89.5399 109.817 89.6406L110.023 89.8359L110.228 90.0312C110.435 90.2283 110.597 90.4625 110.707 90.7266L110.813 90.9824L110.92 91.2393C111.066 91.5893 111.059 91.9539 110.953 92.292L110.855 92.5996L110.775 92.8535L110.915 93.0283L111.102 93.2637C111.304 93.5164 111.436 93.8134 111.469 94.1445L111.496 94.417L111.524 94.6904C111.55 94.9577 111.528 95.2238 111.458 95.4834L111.316 96.0176C111.25 96.2623 111.15 96.4941 111.017 96.71L110.872 96.9473L110.724 97.1846C110.695 97.2323 110.681 97.2784 110.68 97.334L110.677 97.6113L110.673 97.8896C110.67 98.1195 110.645 98.3498 110.599 98.5781L110.543 98.8584L110.495 99.1035L110.573 99.1406C110.749 99.224 110.923 99.3154 111.093 99.4131L111.324 99.5459L111.556 99.6787C111.798 99.8181 112.004 100.005 112.167 100.231L112.325 100.45L112.481 100.668C112.499 100.693 112.534 100.728 112.615 100.762L112.897 100.88L113.178 100.996C113.587 101.166 113.866 101.507 113.933 101.957L113.976 102.25L114.02 102.542C114.031 102.614 114.054 102.658 114.083 102.692L114.443 103.118C114.628 103.337 114.762 103.589 114.837 103.866L114.981 104.393C115.026 104.557 115.073 104.723 115.126 104.889L115.295 105.417C115.385 105.698 115.408 105.99 115.364 106.281L115.322 106.556L115.28 106.831C115.261 106.956 115.258 107.081 115.27 107.205L115.325 107.759C115.349 108.002 115.342 108.246 115.305 108.487L115.264 108.763L115.221 109.037C115.157 109.458 114.908 109.774 114.589 109.982L114.312 110.164L114.034 110.346C114.028 110.35 114.022 110.354 114.018 110.357L113.979 110.587L113.934 110.854C113.902 111.048 113.862 111.249 113.815 111.454L113.749 111.743L113.68 112.032C113.63 112.25 113.521 112.465 113.333 112.634C113.148 112.799 112.93 112.882 112.726 112.919L112.405 112.976L112.102 113.029L111.989 113.241L111.85 113.497C111.689 113.797 111.444 114.036 111.123 114.178L110.874 114.287L110.625 114.396C110.42 114.487 110.207 114.558 109.989 114.608L109.726 114.67L109.462 114.73C109.205 114.79 108.942 114.804 108.679 114.771L108.411 114.734L108.142 114.7C107.993 114.681 107.848 114.672 107.71 114.672H107.453L107.196 114.673C107.104 114.673 106.987 114.689 106.844 114.731L106.55 114.818L106.257 114.904C106.056 114.964 105.827 114.982 105.593 114.917C105.359 114.852 105.171 114.717 105.03 114.56L104.625 114.11C104.557 114.035 104.499 114.001 104.455 113.984L104.203 113.893L103.953 113.801C103.782 113.738 103.604 113.672 103.423 113.603L103.157 113.5L102.889 113.397C102.543 113.264 102.275 113.017 102.113 112.684L101.988 112.427L101.864 112.168C101.791 112.017 101.713 111.878 101.633 111.75L101.493 111.523L101.353 111.298C101.308 111.225 101.241 111.146 101.143 111.068L100.678 110.7C100.332 110.425 100.167 110.027 100.207 109.593L100.235 109.293L100.262 108.993C100.272 108.883 100.259 108.803 100.239 108.745L100.15 108.494L100.142 108.472C99.8717 108.381 99.7247 108.148 99.6831 108.068C99.6104 107.928 99.5785 107.774 99.5601 107.667L99.5132 107.402L99.4683 107.138C99.4038 106.761 99.5015 106.409 99.688 106.11L99.854 105.844L100.021 105.577C100.089 105.468 100.114 105.387 100.121 105.336L100.189 104.824C100.22 104.596 100.278 104.372 100.364 104.158L100.46 103.918L100.557 103.679C100.605 103.559 100.642 103.433 100.669 103.301L100.722 103.041L100.777 102.782C100.802 102.662 100.826 102.535 100.85 102.404C100.595 102.3 100.382 102.126 100.222 101.9L100.054 101.666L99.8872 101.43C99.8194 101.334 99.7518 101.272 99.6899 101.23L99.4771 101.088L99.2642 100.944C99.1319 100.856 98.9922 100.766 98.8462 100.678L98.6128 100.536L98.3804 100.396C98.1741 100.27 97.9853 100.12 97.8169 99.9463L97.6265 99.751L97.436 99.5547C97.3565 99.4728 97.2811 99.3864 97.2104 99.2969C97.2228 99.2939 97.2356 99.2884 97.2505 99.2861L97.5464 99.2402L97.8413 99.1953C98.1301 99.1509 98.4042 99.0508 98.6489 98.8857L98.8726 98.7354L99.0952 98.585C99.3138 98.4374 99.5022 98.2541 99.6587 98.041L99.9888 97.5918C100.044 97.5169 100.106 97.4621 100.175 97.4209L100.408 97.2832L100.641 97.1455C100.902 96.9914 101.112 96.7789 101.267 96.5215L101.413 96.2793L101.558 96.0381C101.571 96.0176 101.58 96.0069 101.612 95.9951L101.88 95.8955L102.149 95.7949C102.504 95.6623 102.776 95.4089 102.935 95.0664L103.057 94.8057L103.178 94.5439C103.247 94.396 103.321 94.2593 103.401 94.1338L103.692 93.6748L103.694 93.6719L103.696 93.6709C103.698 93.6689 103.712 93.6594 103.743 93.6494L104.321 93.4639C104.62 93.368 104.892 93.2052 105.105 92.9609L105.281 92.7588L105.457 92.5576C105.612 92.3797 105.745 92.1837 105.855 91.9727L105.982 91.7295L106.109 91.4854C106.15 91.4067 106.203 91.3429 106.268 91.2891L106.688 90.9434C106.963 90.7175 107.132 90.417 107.204 90.082L107.266 89.7939L107.328 89.5059C107.329 89.5003 107.33 89.4951 107.331 89.4922L107.562 89.333L107.794 89.1729C108.096 88.9653 108.297 88.6686 108.38 88.3145L108.446 88.0381L108.511 87.7607C108.519 87.7296 108.528 87.7179 108.547 87.7021L108.767 87.5264L108.987 87.3516C109.278 87.1196 109.456 86.8023 109.508 86.4385L109.549 86.1553L109.583 85.9238L109.822 85.7832L110.088 85.626C110.142 85.5942 110.193 85.5579 110.244 85.5215ZM70.7974 12.3086C71.1197 12.2071 71.4556 12.2297 71.769 12.3721L72.3022 12.6143C72.4246 12.6699 72.5392 12.7037 72.646 12.7197L72.9126 12.7588L73.1792 12.7988C73.2744 12.8131 73.37 12.8113 73.4673 12.792L73.7349 12.7383L74.0015 12.6846C74.2121 12.6423 74.4247 12.6157 74.6372 12.6045L74.9038 12.5898L75.1704 12.5762C75.3909 12.5646 75.612 12.5725 75.8315 12.6006L76.3647 12.6689C76.4029 12.6738 76.4511 12.6709 76.52 12.6406L77.0532 12.4043C77.3937 12.2538 77.7623 12.237 78.1177 12.3662L78.3843 12.4629L78.6509 12.5605C78.7906 12.6114 78.9278 12.6479 79.061 12.6709L79.3267 12.7168L79.5933 12.7617C79.6828 12.7771 79.772 12.7763 79.8638 12.7578L80.1304 12.7041L80.397 12.6494C80.6383 12.6005 80.883 12.5857 81.1274 12.6055L81.3931 12.627L81.6577 12.6484C81.7682 12.6574 81.8839 12.6508 82.0044 12.6279L82.5474 12.5244C82.8961 12.458 83.2372 12.5181 83.5435 12.6836L83.7974 12.8203L84.0415 12.9531L84.3169 12.8672L84.5972 12.7812C84.9219 12.6814 85.2553 12.6989 85.562 12.8379L85.6919 12.9043L86.186 13.1934C86.2726 13.2439 86.3513 13.2677 86.4233 13.2764L86.687 13.3076L86.9517 13.3398C87.1918 13.3685 87.4255 13.4288 87.6499 13.5205L87.8999 13.623L88.1489 13.7246C88.2505 13.7661 88.3546 13.7925 88.4624 13.8027L88.73 13.8271L88.9966 13.8525C89.1219 13.8643 89.2579 13.8631 89.4038 13.8467L89.6909 13.8145L89.978 13.7812L90.145 13.7734C90.5275 13.7793 90.8558 13.9581 91.0933 14.2412L91.2964 14.4844L91.397 14.6045L91.5767 14.5479L91.8921 14.4473C92.0959 14.3826 92.3358 14.3572 92.5835 14.4258C92.7724 14.4782 92.9296 14.5757 93.0562 14.6953L93.1733 14.8213L93.3677 15.0635L93.5483 15.2871L93.7856 15.291L94.0718 15.2959C94.3639 15.3002 94.6472 15.3658 94.9097 15.5L95.1489 15.6221L95.3882 15.7451C95.5284 15.8169 95.6721 15.8816 95.8179 15.9404L96.0659 16.041L96.3149 16.1416C96.5297 16.2283 96.7334 16.3386 96.9243 16.4707L97.146 16.624L97.3687 16.7773C97.4772 16.8525 97.5915 16.9157 97.7114 16.9668L97.9585 17.0723L98.2056 17.1768C98.4914 17.2984 98.7279 17.4909 98.9136 17.7334L99.0894 17.9619L99.2642 18.1914C99.2757 18.2065 99.2837 18.2116 99.2856 18.2129C99.2866 18.2135 99.2919 18.2167 99.3052 18.2197L99.5786 18.2812L99.853 18.3428C100.223 18.4256 100.523 18.6401 100.726 18.9512L100.884 19.1943L101.043 19.4365C101.065 19.4696 101.078 19.475 101.091 19.4795L101.354 19.5664L101.617 19.6523C101.793 19.7104 101.971 19.7701 102.149 19.8301L102.415 19.9189L102.681 20.0088C103.081 20.1434 103.354 20.4381 103.496 20.8037L103.608 21.0928L103.711 21.3604L104.204 21.5244C104.42 21.5965 104.628 21.6853 104.826 21.791L105.068 21.9209L105.31 22.0498C105.592 22.2005 105.815 22.4218 105.973 22.6973L106.113 22.9404L106.251 23.1836C106.326 23.3144 106.408 23.4342 106.496 23.542L106.832 23.958C106.908 24.052 106.994 24.1361 107.091 24.21L107.305 24.3721L107.519 24.5352C107.645 24.6307 107.778 24.7227 107.917 24.8105L108.15 24.958L108.384 25.1055C108.722 25.3191 108.922 25.6454 108.997 26.0127L109.057 26.3125L109.094 26.4971L109.301 26.5596L109.607 26.6523C109.953 26.7569 110.249 26.9796 110.411 27.3232L110.472 27.4785L110.559 27.75L110.647 28.0215C110.695 28.1692 110.751 28.3059 110.814 28.4316L110.935 28.6729L111.056 28.9131C111.062 28.9239 111.076 28.9488 111.137 28.9805L111.405 29.1191L111.673 29.2568C111.93 29.3891 112.156 29.5663 112.338 29.792L112.507 30.002L112.677 30.2129C112.895 30.4833 113.002 30.8024 113.021 31.1338L113.038 31.4375L113.055 31.7422C113.064 31.8882 113.088 32.0107 113.123 32.1123L113.209 32.3672L113.297 32.623C113.333 32.7263 113.382 32.8202 113.444 32.9053L113.601 33.1201L113.758 33.3359C113.861 33.4767 113.966 33.6179 114.072 33.7588L114.234 33.9746L114.396 34.1895C114.526 34.3628 114.642 34.5456 114.743 34.7363L114.868 34.9717L114.992 35.208C115.044 35.3072 115.114 35.405 115.203 35.501L115.394 35.709L115.586 35.917C115.867 36.2207 115.972 36.6024 115.927 36.9922L115.893 37.2949L115.864 37.543L116.037 37.7031L116.255 37.9062C116.483 38.1179 116.657 38.3776 116.749 38.6836L116.826 38.9414L116.903 39.1982C116.983 39.4667 117.004 39.7443 116.975 40.0225L116.946 40.3115L116.917 40.5859L117.1 40.7979L117.292 41.0205C117.476 41.2332 117.617 41.4741 117.705 41.7412L117.79 41.9971L117.874 42.2529C117.974 42.5601 117.978 42.8762 117.907 43.1826L117.839 43.4727L117.782 43.7129L117.943 43.9141L118.131 44.1484C118.364 44.4378 118.484 44.792 118.445 45.1787L118.416 45.4561L118.387 45.7334C118.373 45.8702 118.373 46.0015 118.387 46.126L118.417 46.3906L118.446 46.6562C118.465 46.8324 118.486 47.009 118.505 47.1855L118.535 47.4521L118.564 47.7178C118.588 47.9371 118.593 48.1582 118.579 48.3789L118.561 48.6475L118.542 48.915C118.534 49.0367 118.541 49.1579 118.562 49.2773L118.609 49.541L118.655 49.8057C118.685 49.9764 118.717 50.1479 118.751 50.3193L118.805 50.585L118.858 50.8496C118.908 51.1016 118.917 51.3574 118.884 51.6123L118.851 51.8809L118.817 52.1484C118.795 52.3222 118.775 52.4962 118.756 52.6689L118.7 53.2021C118.676 53.4234 118.632 53.6435 118.569 53.8604L118.413 54.3936C118.402 54.4297 118.402 54.4595 118.416 54.501L118.505 54.7676L118.594 55.0342C118.666 55.2471 118.719 55.4632 118.754 55.6807L119.012 57.2803C119.043 57.4722 119.068 57.6651 119.087 57.8574L119.14 58.3906C119.17 58.6901 119.123 58.983 119.012 59.2588L118.797 59.792C118.731 59.9565 118.671 60.1215 118.617 60.2852L118.528 60.5527L118.443 60.8057C118.443 60.8067 118.444 60.8084 118.445 60.8096L118.51 60.9424C118.283 60.7972 118.029 60.7131 117.762 60.6865L117.174 60.6279C117.052 60.6156 116.963 60.5882 116.9 60.5566L116.672 60.4424L116.445 60.3271C116.341 60.2749 116.231 60.2054 116.117 60.1152L115.895 59.9395L115.672 59.7637C115.464 59.5993 115.234 59.4709 114.985 59.3818L114.721 59.2881L114.458 59.1934C114.101 59.0662 113.734 59.0891 113.398 59.2373L113.128 59.3564L112.858 59.4746C112.788 59.5054 112.735 59.5107 112.687 59.5049L112.413 59.4717L112.137 59.4375C112.076 59.43 112.014 59.4266 111.954 59.4268C111.937 59.1824 111.879 58.9449 111.77 58.7217L111.653 58.4814L111.536 58.2422C111.498 58.1659 111.473 58.0763 111.463 57.9688L111.439 57.6865L111.414 57.4033L111.389 57.2393C111.309 56.8702 111.072 56.5877 110.761 56.4072L110.486 56.2471L110.257 56.1152L110.242 55.9092L110.219 55.6191C110.191 55.2506 110.033 54.9189 109.75 54.668L109.542 54.4814L109.332 54.2959C109.31 54.2764 109.299 54.2596 109.292 54.2236L109.235 53.9453L109.179 53.667C109.107 53.3083 108.913 53.0048 108.618 52.7881L108.389 52.6201L108.162 52.4531C108.064 52.3813 107.988 52.3042 107.929 52.2246L107.772 52.0107L107.616 51.7979C107.576 51.7432 107.539 51.6696 107.516 51.5654L107.389 50.9951L107.35 50.8516C107.241 50.5255 107.019 50.2634 106.706 50.0986L106.449 49.9639L106.191 49.8281C106.118 49.7897 106.078 49.7496 106.053 49.7109L105.762 49.2617C105.681 49.136 105.605 49.0022 105.535 48.8613L105.412 48.6143L105.29 48.3672C105.181 48.1486 105.046 47.9468 104.886 47.7646L104.709 47.5635L104.533 47.3613C104.435 47.2495 104.342 47.13 104.256 47.0039L104.103 46.7783L103.951 46.5537C103.749 46.2563 103.461 46.0606 103.132 45.959L102.846 45.8701L102.56 45.7822C102.422 45.7395 102.308 45.6865 102.214 45.6279L101.987 45.4854L101.759 45.3418C101.757 45.3401 101.754 45.3378 101.75 45.333C101.746 45.3266 101.735 45.3094 101.722 45.2744L101.62 44.9844L101.517 44.6953C101.395 44.3489 101.161 44.0546 100.808 43.8828L100.562 43.7627L100.315 43.6426C100.201 43.5872 100.098 43.5207 100.006 43.4443L99.8013 43.2734L99.5952 43.1025C99.4524 42.9837 99.3075 42.8666 99.1616 42.7529L98.9517 42.5889L98.7417 42.4258C98.6018 42.3168 98.4524 42.2215 98.2944 42.1406C98.5439 42.3644 98.7015 42.6499 98.7778 42.9639L98.8481 43.2539L98.9136 43.5205L99.1411 43.6416L99.397 43.7764C99.6417 43.9054 99.8599 44.0757 100.039 44.2871L100.211 44.4912L100.384 44.6963C100.589 44.9393 100.713 45.2265 100.764 45.5332L100.811 45.8213L100.859 46.1094L100.86 46.1123L101.085 46.2793L101.315 46.4482C101.452 46.5491 101.647 46.7055 101.773 46.915L101.822 47.0088L101.875 47.124L101.893 47.1641L101.907 47.2061L101.954 47.3555L101.578 47.4727L101.333 47.6494L100.756 48.0654L100.698 47.9844L100.631 47.8916L100.596 47.7812L100.565 47.6777L100.557 47.6602C100.553 47.6563 100.546 47.6514 100.541 47.6465C100.523 47.632 100.5 47.6141 100.472 47.5938L100.013 47.2559C99.707 47.0303 99.5168 46.7113 99.4556 46.3418L99.4087 46.0537L99.3608 45.7646C99.3481 45.6881 99.3235 45.6442 99.2983 45.6143L99.1245 45.4092L98.9517 45.2041C98.8999 45.143 98.8301 45.0854 98.7349 45.0352L98.2231 44.7656C97.866 44.5774 97.63 44.2629 97.5366 43.8789L97.4663 43.5889L97.396 43.2998C97.3798 43.2333 97.3581 43.2097 97.3452 43.1982L97.144 43.0205L96.9419 42.8428C96.8434 42.7562 96.7342 42.6782 96.6157 42.6094L96.1411 42.334C95.9083 42.1988 95.7042 42.0242 95.5366 41.8135L95.2026 41.3936C95.1298 41.3021 95.0468 41.2218 94.9546 41.1533L94.7407 40.9941L94.5269 40.8359C94.3925 40.7363 94.2556 40.6387 94.1177 40.5449L93.6782 40.2461C93.4116 40.0647 93.2173 39.8155 93.0854 39.5332L92.9565 39.2578L92.8706 39.0732L92.6675 39.0537L92.3647 39.0234C91.9452 38.9822 91.5893 38.7652 91.3677 38.3984L91.2134 38.1436L91.0776 37.917L90.8384 37.8818L90.5542 37.8389C90.2997 37.8005 90.0544 37.7282 89.8257 37.6172L89.5864 37.501L89.3481 37.3848C89.1841 37.3051 89.0198 37.2232 88.8579 37.1396L88.6216 37.0176L88.3862 36.8965C88.1846 36.7924 87.9936 36.6663 87.8149 36.5215L87.6011 36.3486L87.3872 36.1748C87.3249 36.1244 87.2597 36.0927 87.189 36.0752L86.9272 36.0107L86.6646 35.9463C86.5064 35.9074 86.3584 35.8465 86.2222 35.7676L86.1157 35.7705L85.9233 35.5703L85.7183 35.3574C85.6175 35.253 85.5055 35.1653 85.3833 35.0977L85.1919 35.1074L84.9038 35.1201C84.6261 35.1323 84.3606 35.0711 84.1216 34.9414C83.9748 34.9435 83.8352 34.9353 83.7036 34.915L83.1704 34.833C83.0345 34.812 82.9027 34.7789 82.7769 34.7354L82.5259 34.6484L82.2759 34.5615C82.1603 34.5215 82.0458 34.4705 81.9321 34.4111L81.8071 34.4229C81.5037 34.4498 81.2045 34.4018 80.9243 34.2764L80.6763 34.165L80.4272 34.0537C80.4041 34.0435 80.3789 34.0383 80.3315 34.0479L79.7729 34.1611C79.3761 34.2416 78.9978 34.1433 78.6851 33.9111L78.4429 33.7305L78.1997 33.5508C78.1267 33.4966 78.0732 33.4809 78.0356 33.4766L77.5024 33.416C77.2993 33.3932 77.0961 33.3593 76.895 33.3145L76.6294 33.2559L76.3862 33.2002C76.3793 33.203 76.3671 33.208 76.3511 33.2178L76.0767 33.3867L75.8013 33.5547C75.6196 33.666 75.4011 33.7438 75.1558 33.7432C74.944 33.7425 74.7531 33.681 74.5874 33.5898C74.3293 33.6163 74.0717 33.5967 73.8198 33.5322L73.7192 33.5059L73.6831 33.5293C73.4323 33.6842 73.1553 33.7906 72.8569 33.8213L72.5942 33.8477L72.3315 33.875C72.0179 33.907 71.7143 33.8467 71.4341 33.7246L71.1558 33.6035L70.9761 33.5234L70.8188 33.6406L70.5747 33.8213C70.2277 34.0783 69.8106 34.1061 69.4448 34.0596L69.4419 34.0742L69.395 34.0635L69.3931 34.0693L69.3667 34.0566L69.144 34.0068L68.7642 33.9336L68.7661 33.918C68.4798 33.8435 68.2069 33.7461 67.9937 33.6045L67.7749 33.46L67.5571 33.3145C67.347 33.1747 67.1596 33.0013 66.9956 32.8027L66.8081 32.5742L66.6206 32.3467C66.5682 32.2833 66.5216 32.255 66.4819 32.2402L66.229 32.1475L65.9751 32.0537C65.8846 32.0204 65.7857 32.0017 65.6772 32L65.3979 31.9961L65.1187 31.9912C64.7654 31.9857 64.4444 31.8616 64.1753 31.6455L63.9448 31.4609L63.8286 31.3682C63.8234 31.3693 63.8182 31.3709 63.813 31.3721L63.6294 31.458L63.3306 31.5957C63.2976 31.6108 63.2627 31.6213 63.229 31.6338L63.0532 31.7451L62.7876 31.9111C62.6823 31.977 62.6015 32.0014 62.5444 32.0088L62.2798 32.043L62.0161 32.0762C61.9 32.0909 61.7822 32.091 61.6626 32.0762L61.395 32.0439L61.1284 32.0107C60.9315 31.9863 60.7329 31.9693 60.5356 31.9609L60.269 31.9502L60.0015 31.9385C59.7357 31.9274 59.4737 31.9651 59.2212 32.0488L58.9614 32.1348L58.7026 32.2207C58.5752 32.2629 58.4481 32.2914 58.3228 32.3057L58.0591 32.335L57.7954 32.3652C57.6491 32.3818 57.5009 32.3893 57.353 32.3877L56.8198 32.3818C56.6694 32.3802 56.5147 32.3705 56.3579 32.3516L56.0854 32.3184L55.812 32.2852C55.61 32.2607 55.4077 32.2449 55.2065 32.2383L54.6655 32.2207C54.3633 32.2109 54.0719 32.277 53.8032 32.4111L53.5532 32.5361L53.3032 32.6602C53.2995 32.6597 53.292 32.6589 53.2827 32.6562L52.9966 32.5732L52.7104 32.4893C52.4245 32.406 52.1269 32.3839 51.8296 32.4404L51.5659 32.4902L51.3022 32.541C51.1334 32.5732 50.9629 32.6032 50.7925 32.6309L50.2612 32.7168C50.0165 32.7565 49.7806 32.8313 49.5562 32.9385L49.062 33.1748C48.8593 33.2717 48.6633 33.3868 48.4761 33.5195L48.2427 33.6855L48.0083 33.8516C47.895 33.9318 47.7832 33.9924 47.6743 34.0361L47.4263 34.1357L47.1792 34.2344C47.0728 34.277 46.9607 34.3062 46.8433 34.3203L46.5757 34.3516L46.3081 34.3838C46.1207 34.4063 45.9332 34.4331 45.7476 34.4629L45.4819 34.5059L45.2173 34.5479C45.1424 34.5599 45.0655 34.568 44.9868 34.5742C44.8476 34.7193 44.7057 34.858 44.5591 34.9873L44.355 35.167L44.1509 35.3477C43.8972 35.5713 43.5923 35.6959 43.2651 35.7324L42.9741 35.7646L42.6841 35.7969C42.5742 35.8091 42.487 35.8378 42.4165 35.876L42.1802 36.0049L41.9429 36.1328C41.9144 36.1483 41.8789 36.177 41.8403 36.2451L41.6938 36.5029L41.5483 36.7617C41.416 36.9956 41.2507 37.2058 41.0503 37.3809L40.8511 37.5547L40.6509 37.7295C40.4533 37.9021 40.2287 38.0361 39.9839 38.1318L39.7261 38.2324L39.4692 38.334C39.2794 38.4082 39.0822 38.4756 38.8794 38.5371L38.6001 38.6221L38.3208 38.7061C38.2397 38.7307 38.1889 38.7652 38.1519 38.8027L37.9614 38.9961L37.771 39.1885C37.639 39.3225 37.5052 39.4548 37.3696 39.584L37.1743 39.7695L36.98 39.9561C36.9576 39.9774 36.9268 40.0172 36.9038 40.1045L36.7476 40.6963C36.6751 40.9715 36.5572 41.2303 36.3823 41.4561L36.0581 41.874C35.9365 42.0309 35.808 42.1824 35.6724 42.3271L35.4917 42.5195L35.311 42.7129C35.1243 42.9122 34.9005 43.0692 34.6538 43.1904L34.3833 43.3242L34.1128 43.457C34.1065 43.4602 34.1014 43.4628 34.0981 43.4648L34.0073 43.7148L33.9136 43.9756C33.8346 44.1926 33.7353 44.3995 33.6157 44.5938L33.3345 45.0488C33.2106 45.2499 33.0624 45.4356 32.8931 45.6055L32.6948 45.8057L32.4956 46.0049C32.4848 46.0158 32.4805 46.0225 32.479 46.0254C32.4777 46.0282 32.4741 46.0377 32.4722 46.0566L32.4438 46.3418L32.4155 46.626C32.3907 46.8745 32.3354 47.1162 32.2466 47.3457L32.0532 47.8438C31.9832 48.0244 31.9062 48.2033 31.8237 48.3799L31.7104 48.624L31.5962 48.8682C31.5613 48.943 31.5421 49.0225 31.5386 49.1113L31.5171 49.6582C31.5039 49.9979 31.383 50.3069 31.1841 50.5703L31.0054 50.8066L30.8267 51.0439C30.794 51.0872 30.7934 51.1078 30.7935 51.1211L30.7954 51.3955L30.7964 51.6699C30.7975 51.8325 30.8062 51.9954 30.8208 52.1562L30.8696 52.6992C30.8913 52.9371 30.8844 53.1756 30.8481 53.4111L30.8071 53.6787L30.7661 53.9453C30.7543 54.022 30.7587 54.098 30.7808 54.1777L30.854 54.4424L30.9272 54.7061C30.998 54.9613 31.0229 55.2243 31.0024 55.4883L30.9819 55.7607L30.9604 56.0332C30.9485 56.1868 30.9455 56.3409 30.9517 56.4932L30.9624 56.7637L30.9731 57.0352C30.9802 57.2096 30.9902 57.3829 31.0015 57.5527L31.019 57.8184L31.0366 58.083C31.0432 58.1808 31.065 58.28 31.106 58.3809L31.313 58.8887C31.4023 59.1083 31.465 59.3364 31.5005 59.5693L31.5415 59.834L31.5815 60.0996C31.6121 60.3007 31.6321 60.5036 31.6411 60.7061L31.6528 60.9727L31.6646 61.2383C31.6715 61.3937 31.6865 61.549 31.7075 61.7021L31.7437 61.9658L31.7798 62.2285C31.8067 62.4243 31.825 62.6225 31.8345 62.8203L31.8599 63.3516C31.8644 63.4452 31.8854 63.5459 31.9282 63.6543L32.1372 64.1836C32.2966 64.5866 32.2391 64.995 32.0337 65.3418L31.8735 65.6113L31.73 65.8525L31.812 66.0674L31.9136 66.335C31.9929 66.5423 32.0581 66.7536 32.1079 66.9668L32.1714 67.2383L32.2349 67.5107C32.3112 67.8376 32.2835 68.1672 32.1558 68.4766L32.0483 68.7363L31.9409 68.9971C31.889 69.1228 31.8541 69.2454 31.8345 69.3643L31.7915 69.6279L31.7476 69.8906C31.7211 70.0509 31.6997 70.2147 31.6831 70.3789L31.6558 70.6475L31.6294 70.916C31.6073 71.1356 31.5658 71.3528 31.5063 71.5645L31.3618 72.0801C31.2987 72.3046 31.2099 72.5204 31.0972 72.7256L30.9663 72.9639L30.8354 73.2012C30.7699 73.3203 30.7166 73.4439 30.6753 73.5713L30.5923 73.8281L30.5093 74.084C30.4319 74.3227 30.3202 74.5461 30.1753 74.751L30.02 74.9707L29.8638 75.1904C29.7654 75.3294 29.6682 75.4742 29.5708 75.623L29.2642 76.0898C29.0385 76.4347 28.6938 76.6299 28.3032 76.6758L28.0073 76.7109L27.7114 76.7451C27.5569 76.7633 27.4312 76.7931 27.3306 76.8281L27.0933 76.9102L26.8569 76.9922C26.7641 77.0245 26.655 77.078 26.5308 77.1602L26.2837 77.3242L26.0356 77.4873C25.9417 77.5495 25.8164 77.6261 25.6821 77.6729C25.6191 77.6947 25.4898 77.7337 25.3315 77.7207C25.141 77.7048 24.8933 77.6065 24.7446 77.3535L24.7065 77.2891L24.6001 77.1064L24.6099 76.8965L24.6187 76.7129L25.2065 76.7402L24.8608 76.2012L24.9448 76.1475L26.103 75.4053L26.0854 75.7783C26.1847 75.729 26.2862 75.6853 26.3892 75.6494L26.6255 75.5674L26.8628 75.4844C27.0775 75.4097 27.3073 75.3611 27.5464 75.333L27.8423 75.2979L28.1021 75.2676L28.2271 75.0781L28.3804 74.8438C28.4868 74.6811 28.595 74.5227 28.7036 74.3691L29.0142 73.9297C29.0761 73.8421 29.1236 73.7477 29.1567 73.6455L29.2397 73.3896L29.3218 73.1328C29.391 72.9193 29.4809 72.7129 29.5894 72.5156L29.8511 72.041C29.9123 71.9297 29.9592 71.8142 29.9927 71.6953L30.1372 71.1797C30.1742 71.0479 30.2004 70.9118 30.2144 70.7734L30.2407 70.5049L30.2681 70.2363C30.2876 70.0427 30.3129 69.8494 30.3442 69.6592L30.3882 69.3965L30.4312 69.1328C30.4694 68.9014 30.5355 68.6745 30.6265 68.4541L30.7339 68.1934L30.8413 67.9336C30.8565 67.8967 30.8582 67.87 30.8501 67.835L30.7231 67.29C30.6884 67.1414 30.6422 66.9921 30.5854 66.8438L30.4829 66.5762L30.3813 66.3086C30.2278 65.907 30.2856 65.5015 30.4907 65.1553L30.6499 64.8857L30.7905 64.6475L30.7104 64.4424L30.606 64.1777C30.5096 63.9341 30.4515 63.6801 30.439 63.4199L30.4263 63.1543L30.4136 62.8877C30.4061 62.732 30.3918 62.5758 30.3706 62.4219L30.2983 61.8965C30.2713 61.6997 30.2525 61.5007 30.2437 61.3018L30.2319 61.0352L30.2202 60.7695C30.2134 60.6178 30.1983 60.465 30.1753 60.3135L30.1353 60.0479L30.0952 59.7832C30.0769 59.6633 30.0437 59.5432 29.9956 59.4248L29.7886 58.917C29.6921 58.6799 29.6336 58.4314 29.6167 58.1768L29.5815 57.6475C29.5695 57.465 29.5598 57.2793 29.5522 57.0928L29.5415 56.8213L29.5308 56.5508C29.5223 56.3421 29.5262 56.1319 29.5425 55.9229L29.564 55.6504L29.5845 55.3779C29.5921 55.2794 29.5827 55.1828 29.5562 55.0869L29.4829 54.8223L29.4097 54.5586C29.3344 54.2871 29.3169 54.0074 29.3599 53.7285L29.4019 53.4619L29.4429 53.1943C29.4613 53.0744 29.4648 52.9519 29.4536 52.8281L29.4292 52.5566L29.4038 52.2852C29.3855 52.0845 29.3759 51.8819 29.3745 51.6797L29.3706 51.1309C29.3683 50.7788 29.4868 50.4581 29.6919 50.1865L29.8706 49.9492L30.0493 49.7129C30.0884 49.6611 30.0952 49.6281 30.0962 49.6035L30.1069 49.3301L30.1167 49.0566C30.1274 48.7815 30.1915 48.5153 30.3081 48.2656L30.4214 48.0225L30.5356 47.7783C30.6047 47.6305 30.6687 47.4807 30.7271 47.3301L30.9204 46.832C30.9599 46.73 30.9875 46.6143 31.0005 46.4844L31.0571 45.916C31.0921 45.5661 31.2388 45.2517 31.4888 45.001L31.687 44.8008L31.8862 44.6016C31.9819 44.5057 32.0604 44.4062 32.1235 44.3037L32.2642 44.0752L32.4048 43.8477C32.4721 43.7383 32.5295 43.6188 32.5767 43.4893L32.6714 43.2285L32.7661 42.9688L32.8208 42.8379C32.9631 42.5424 33.1978 42.3222 33.4858 42.1807L33.7563 42.0469L34.0269 41.9141C34.1407 41.8581 34.2188 41.798 34.2729 41.7402L34.4536 41.5479L34.6343 41.3545C34.7395 41.2421 34.8397 41.1248 34.9341 41.0029L35.2583 40.585C35.2993 40.5321 35.3413 40.4529 35.3726 40.334L35.4507 40.0381L35.5278 39.7422C35.6086 39.4353 35.7609 39.1533 35.9985 38.9268L36.1938 38.7402L36.3882 38.5547C36.5128 38.4359 36.6368 38.3148 36.7583 38.1914L36.9478 37.998L37.1382 37.8047C37.1942 37.7478 37.253 37.6953 37.3149 37.6475C37.0442 37.6577 36.7795 37.7185 36.5337 37.8447L36.2964 37.9658L36.0591 38.0879C35.8667 38.1868 35.6824 38.3014 35.5073 38.4307L35.2896 38.5918L35.0728 38.752C34.9634 38.8327 34.8482 38.9016 34.729 38.959L34.4888 39.0742L34.2485 39.1904C34.05 39.2859 33.8601 39.3987 33.6812 39.5283L33.4644 39.6855L33.2466 39.8438C33.1028 39.9479 32.9589 40.0517 32.8159 40.1543L32.5991 40.3096L32.3833 40.4648C32.2351 40.5712 32.0872 40.6799 31.9409 40.79L31.7271 40.9502L31.5142 41.1113C31.3548 41.2313 31.2 41.3583 31.0522 41.4922L30.855 41.6709L30.6675 41.8398C30.6586 41.842 30.6386 41.8465 30.605 41.8467L29.9487 41.8506C29.7228 41.8518 29.4713 41.9096 29.2515 42.0771C29.0325 42.2443 28.9104 42.4699 28.8481 42.6846L28.7554 43.0039L28.6636 43.3232C28.6526 43.3609 28.641 43.3807 28.6362 43.3887L28.4224 43.5244L28.1968 43.667C28.098 43.7292 27.9843 43.7831 27.855 43.8262L27.314 44.0059C27.0696 44.0872 26.8415 44.2023 26.6343 44.3516L26.4146 44.5088L26.1958 44.666C25.9106 44.8715 25.725 45.1563 25.6226 45.4746L25.4351 46.0566C25.4114 46.1302 25.3864 46.1493 25.3784 46.1553L25.1646 46.3154L24.9497 46.4756C24.7928 46.5925 24.6397 46.7151 24.4927 46.8428L24.2925 47.0166L24.0913 47.1914C24.0269 47.2472 23.9404 47.3007 23.8237 47.3457L23.5464 47.4531L23.269 47.5596C22.9078 47.6989 22.6517 47.9688 22.5298 48.3174L22.4858 48.4717L22.4194 48.7686L22.3521 49.0664C22.3379 49.1289 22.3205 49.1406 22.3179 49.1426L21.8999 49.4863C21.6874 49.661 21.5152 49.8727 21.3872 50.1162L21.1353 50.5947C21.1263 50.6117 21.1093 50.6377 21.0503 50.668L20.7856 50.8027L20.521 50.9385C20.2266 51.0894 19.9972 51.3249 19.8677 51.6318L19.8188 51.7676L19.7358 52.0371L19.6528 52.3057C19.6443 52.3333 19.6341 52.3507 19.603 52.373L19.3696 52.54L19.1372 52.707C18.8694 52.8992 18.668 53.1581 18.5562 53.4736L18.4644 53.7324L18.3726 53.9922C18.3163 54.1508 18.2562 54.3057 18.1919 54.4561L18.0864 54.7031L17.98 54.9502C17.8857 55.1706 17.8203 55.4021 17.7817 55.6416L17.7368 55.9189L17.6929 56.1953C17.6919 56.2015 17.6906 56.206 17.6899 56.208C17.6894 56.2095 17.6883 56.2113 17.688 56.2119C17.6874 56.2128 17.6859 56.2147 17.6841 56.2168C17.6815 56.2198 17.6768 56.2251 17.6694 56.2314L17.4487 56.4189L17.229 56.6064C16.9682 56.8287 16.7883 57.1195 16.7192 57.4639L16.6118 58.001C16.5866 58.1267 16.5477 58.2431 16.4976 58.3516L16.2749 58.834C16.2169 58.9595 16.1474 59.0835 16.0659 59.2051L15.9946 59.3105L15.9077 59.2754L15.644 59.168L15.5054 59.1201C15.1797 59.0255 14.8471 59.0587 14.5415 59.2012L14.27 59.3281L13.9995 59.4541C13.9653 59.47 13.9482 59.4698 13.9214 59.4629L13.6372 59.3906L13.353 59.3174L13.1909 59.2861C12.8698 59.245 12.5631 59.3286 12.3071 59.5195L12.1841 59.624L11.9653 59.8311L11.7505 60.0352L11.1411 60.0039C10.6978 59.9814 10.298 60.1695 10.0444 60.5498L9.88037 60.7959L9.71729 61.042C9.60835 61.2054 9.5032 61.3614 9.40381 61.5098L9.25439 61.7334L9.10498 61.9561C9.09549 61.9701 9.07863 61.9864 9.03564 62.0059L9.04834 61.9414C9.06312 61.8634 9.06168 61.787 9.04248 61.7061L8.979 61.4395L8.91553 61.1719C8.83365 60.8279 8.87744 60.4869 9.021 60.1758L9.14502 59.9092L9.26807 59.6426C9.2915 59.5918 9.28811 59.5676 9.28467 59.5508L9.17529 59.0176C9.12718 58.7844 9.10705 58.5482 9.1167 58.3115L9.13818 57.7783C9.14395 57.6375 9.13964 57.4959 9.12354 57.3545L9.09229 57.0879L9.06201 56.8213C9.02802 56.5232 9.07019 56.2302 9.17627 55.9531L9.38135 55.4199C9.38095 55.4189 9.37994 55.4172 9.37939 55.416L9.26807 55.1494L9.15576 54.8828C9.05693 54.6477 8.9907 54.4041 8.9624 54.1543L8.93213 53.8877L8.90186 53.6201C8.85938 53.2429 8.97402 52.8979 9.16846 52.6094L9.34912 52.3428L9.52295 52.0859L9.45947 51.8721L9.38135 51.6055C9.3221 51.4026 9.27367 51.1976 9.23779 50.9922L9.19189 50.7236L9.14502 50.4551C9.0857 50.1153 9.14323 49.7842 9.29443 49.4844L9.42529 49.2246L9.55615 48.9658C9.55809 48.962 9.55931 48.9582 9.56006 48.9561L9.55908 48.9541L9.39697 48.4053C9.33167 48.1842 9.28565 47.9599 9.26025 47.7344L9.229 47.46L9.19873 47.1855C9.16447 46.8809 9.20836 46.5809 9.32764 46.2988L9.43604 46.043L9.54346 45.7881C9.62352 45.599 9.71317 45.4124 9.81006 45.2295L9.94092 44.9814L10.0728 44.7334C10.0905 44.6998 10.0955 44.6727 10.0903 44.6328L10.0161 44.0742C9.96424 43.682 10.0805 43.3173 10.3228 43.0215L10.5112 42.792L10.6704 42.5977L10.6177 42.3496L10.5552 42.0586C10.474 41.677 10.5465 41.2933 10.7856 40.9688L10.9536 40.7412L11.1226 40.5127C11.1444 40.4831 11.1501 40.4626 11.1499 40.4316L11.147 40.1514L11.145 39.8701C11.1423 39.5303 11.2449 39.2106 11.4478 38.9365L11.7798 38.4893C11.8618 38.3786 11.9284 38.2657 11.98 38.1523L12.0894 37.9102L12.1997 37.6689C12.2777 37.4975 12.3607 37.3274 12.4468 37.1602L12.5679 36.9238L12.689 36.6885C12.733 36.603 12.7646 36.507 12.7808 36.3994L12.8208 36.127L12.8618 35.8555C12.911 35.527 13.0571 35.234 13.2856 34.9951L13.478 34.793L13.6714 34.5918C13.688 34.5743 13.696 34.5602 13.6997 34.5254L13.73 34.2422L13.7593 33.959C13.7977 33.5926 13.9646 33.2699 14.2437 33.0273L14.4575 32.8428L14.6704 32.6572C14.7563 32.5827 14.8191 32.5049 14.8638 32.4268L14.9946 32.1973L15.1255 31.9688C15.1385 31.9459 15.1599 31.8929 15.1587 31.7832L15.1548 31.4668L15.1509 31.1494C15.147 30.824 15.2216 30.4994 15.4077 30.2119L15.7007 29.7607C15.8973 29.4575 16.1848 29.2595 16.5005 29.1426L16.8032 29.0303L17.1069 28.9189C17.1111 28.9174 17.1154 28.9146 17.1187 28.9131L17.2104 28.6963L17.3149 28.4443C17.3813 28.2848 17.446 28.12 17.5083 27.9531L17.7036 27.4277C17.8331 27.0809 18.0784 26.8155 18.4019 26.6494L18.6597 26.5176L18.9165 26.3848C18.9251 26.3804 18.9317 26.3764 18.9351 26.374C18.937 26.3726 18.939 26.3709 18.9399 26.3701C18.9403 26.3698 18.9412 26.3683 18.9419 26.3672C18.9428 26.3657 18.9452 26.3616 18.9478 26.3555L19.0552 26.0947L19.1616 25.834C19.3038 25.4871 19.5619 25.2275 19.8989 25.0762L20.4263 24.8398C20.4436 24.8321 20.4521 24.8254 20.4546 24.8232C20.4559 24.8219 20.4601 24.8171 20.4653 24.8066L20.5884 24.5557L20.7114 24.3037C20.793 24.137 20.8757 23.9673 20.9585 23.7969L21.0835 23.54L21.2075 23.2832C21.3369 23.0169 21.5218 22.7864 21.7603 22.6064L21.9761 22.4434L22.1919 22.2812C22.3359 22.1727 22.481 22.0639 22.6245 21.9561L23.0542 21.6318C23.2717 21.4684 23.5168 21.3511 23.7788 21.2754L24.0571 21.1953L24.3364 21.1143C24.4189 21.0904 24.4712 21.0572 24.5083 21.0215L24.7007 20.835L24.8921 20.6484C25.094 20.4524 25.3316 20.306 25.5952 20.21L25.854 20.1152L26.0962 20.0273C26.0983 20.0238 26.102 20.0188 26.105 20.0127L26.3687 19.4561C26.5153 19.1469 26.7474 18.8849 27.0737 18.7256L27.3159 18.6074L27.5591 18.4893C27.7736 18.3847 28.0007 18.3072 28.2368 18.2559L28.7876 18.1367C28.8881 18.1149 28.9697 18.0787 29.0376 18.0332L29.2583 17.8848L29.478 17.7363C29.5941 17.6583 29.7077 17.5689 29.8169 17.4688L30.02 17.2832L30.2222 17.0977C30.3564 16.9745 30.4923 16.8492 30.6284 16.7236L31.0386 16.3447C31.2909 16.1119 31.5998 15.9761 31.939 15.9424L32.2222 15.915L32.5044 15.8867C32.646 15.8727 32.7771 15.8456 32.897 15.8076L33.1519 15.7266L33.4077 15.6455C33.5097 15.6131 33.6072 15.5649 33.7007 15.501L34.1519 15.1924C34.3717 15.0416 34.6136 14.9323 34.8726 14.8691L35.1333 14.8057L35.395 14.7422C35.6054 14.691 35.8209 14.656 36.0386 14.6377L36.5835 14.5928L36.5854 14.5918C36.5887 14.5899 36.6009 14.5826 36.6187 14.5645L36.8306 14.3467L37.0425 14.1279L37.1597 14.0205C37.2843 13.9197 37.4326 13.8395 37.6021 13.7939C37.771 13.7486 37.9382 13.7441 38.0952 13.7676L38.2495 13.7998L38.5483 13.8809L38.769 13.9404L38.9272 13.7949L39.1509 13.5889C39.4441 13.3191 39.8218 13.1847 40.2349 13.2412L40.5181 13.2803L40.8003 13.3193C40.932 13.3374 41.053 13.3376 41.1636 13.3242L41.6909 13.2598C41.7791 13.249 41.8714 13.2218 41.9673 13.1729L42.2163 13.0449L42.4663 12.917C42.6634 12.8162 42.8666 12.7312 43.0737 12.6621L43.3325 12.5752L43.5913 12.4893C43.9726 12.3621 44.351 12.42 44.6792 12.585L45.2456 12.8701C45.2756 12.8852 45.2944 12.8902 45.3013 12.8916L45.5562 12.8262L45.8169 12.7607C46.0191 12.7094 46.2241 12.6708 46.4302 12.6455L46.6948 12.6123L46.9595 12.5801C47.1741 12.5538 47.3909 12.5458 47.6069 12.5547L47.8726 12.5654L48.1392 12.5762H48.2964L48.3706 12.5518L48.478 12.5156L48.6294 12.4785C48.7849 12.45 48.9493 12.4466 49.0835 12.4482L49.3501 12.4521L49.6167 12.4551C49.7408 12.4566 49.8671 12.4447 49.9946 12.418L50.2612 12.3613L50.5278 12.3057C50.8978 12.2278 51.2527 12.3043 51.561 12.4805L52.0942 12.7852C52.1077 12.7928 52.1183 12.7974 52.1245 12.7998C52.1267 12.8006 52.129 12.8014 52.1304 12.8018L52.3921 12.7451L52.6587 12.6885C52.8678 12.6438 53.0795 12.6138 53.2905 12.5986L53.5571 12.5791L53.8237 12.5605C54.0288 12.5459 54.2348 12.5425 54.4399 12.5518L54.7065 12.5645L54.9731 12.5762C55.1055 12.5822 55.239 12.5759 55.3726 12.5566L55.6392 12.5176L55.9058 12.4795C56.0915 12.4527 56.2785 12.4294 56.4644 12.4092L56.9976 12.3506C57.2486 12.3233 57.5005 12.3359 57.7485 12.3857L58.2817 12.4932C58.4238 12.5218 58.5655 12.5386 58.7056 12.5449L58.9731 12.5566L59.2397 12.5684C59.3689 12.5741 59.4996 12.5675 59.6304 12.5469L59.897 12.5049L60.1636 12.4619C60.3967 12.4251 60.632 12.4169 60.8667 12.4365L61.1343 12.459L61.4009 12.4814C61.5567 12.4945 61.7131 12.5002 61.8687 12.499L62.1353 12.4971L62.4019 12.4941C62.5256 12.4932 62.652 12.4789 62.7798 12.4492L63.0464 12.3867L63.313 12.3252C63.5593 12.2679 63.8106 12.2475 64.062 12.2666L64.5952 12.3076C64.7555 12.3199 64.9165 12.3256 65.0767 12.3262L65.6099 12.3281C65.8247 12.3288 66.0399 12.3466 66.2534 12.3809L66.52 12.4238L66.7876 12.4668C66.989 12.4992 67.1902 12.5426 67.3901 12.5957L67.6567 12.666L67.9106 12.7344C67.9147 12.7327 67.9215 12.7298 67.9292 12.7256L68.4624 12.4287L68.5991 12.3623C68.8759 12.2445 69.1765 12.222 69.4722 12.3096L69.6196 12.3623L69.8862 12.4756L70.1392 12.585L70.3931 12.4746L70.6597 12.3594L70.7974 12.3086ZM96.6499 40.9277C96.7045 40.9963 96.772 41.0553 96.855 41.1035L97.0464 41.2139C96.9138 41.069 96.7619 40.9477 96.5903 40.8535L96.6499 40.9277Z" fill="#303A4B"/>
</svg>
