<svg width="128" height="128" viewBox="0 0 128 128" fill="none" xmlns="http://www.w3.org/2000/svg">
<g clip-path="url(#clip0_393_4920)">
<path d="M93.3108 3.13334L101.201 41.6891L67.2001 32.5787L93.3108 3.13334Z" fill="#FF3187"/>
<path d="M93.6344 3.88371L92.9814 4.16527L93.6344 3.88371ZM93.8425 4.38551L93.1819 4.64865L93.8425 4.38551ZM94.043 4.88887L94.7036 4.62573L94.043 4.88887ZM94.0799 5.4257L94.7741 5.57986L94.0799 5.4257ZM93.9533 5.996L93.2591 5.84184L93.9533 5.996ZM93.9021 6.55086L94.6125 6.51884L93.9021 6.55086ZM93.9143 6.82056L94.6246 6.78855L93.9143 6.82056ZM93.9264 7.09027L93.216 7.12228L93.9264 7.09027ZM94.136 7.59176L94.6773 7.13066L94.136 7.59176ZM94.3334 7.82355L93.7921 8.28466L94.3334 7.82355ZM94.5309 8.05535L93.9895 8.51645L94.5309 8.05535ZM94.6884 8.5675L93.9844 8.46728L94.6884 8.5675ZM94.6086 9.12822L95.3126 9.22843L94.6086 9.12822ZM94.6498 9.66416L93.9721 9.87944L94.6498 9.66416ZM94.8122 10.1753L95.4899 9.96003L94.8122 10.1753ZM94.9753 10.6863L95.6524 10.4692L94.9753 10.6863ZM95.0572 10.9418L94.38 11.1589L95.0572 10.9418ZM95.194 11.7303L94.4862 11.6616L95.194 11.7303ZM95.1401 12.2858L95.8478 12.3545L95.1401 12.2858ZM95.2974 12.798L95.8565 12.3585L95.2974 12.798ZM95.4817 13.0324L94.9226 13.4719L95.4817 13.0324ZM95.666 13.2669L96.2251 12.8274L95.666 13.2669ZM95.8596 13.7717L95.1489 13.796L95.8596 13.7717ZM95.8781 14.3123L96.5888 14.288L95.8781 14.3123ZM95.8542 14.8616L96.5603 14.9454L95.8542 14.8616ZM95.8211 15.1405L96.5272 15.2243L95.8211 15.1405ZM95.788 15.4195L95.0818 15.3357L95.788 15.4195ZM95.7404 15.9736L95.0302 15.9362L95.7404 15.9736ZM95.7114 16.5239L96.4215 16.5614L95.7114 16.5239ZM95.7526 17.0599L95.0573 17.2086L95.7526 17.0599ZM95.8642 17.5814L96.5596 17.4327L95.8642 17.5814ZM96.0231 18.0933L96.6809 17.8232L96.0231 18.0933ZM96.1261 18.3444L96.784 18.0743L96.1261 18.3444ZM96.2292 18.5955L95.5714 18.8656L96.2292 18.5955ZM96.442 19.0964L97.0931 18.8105L96.442 19.0964ZM96.5516 19.3461L95.9005 19.6319L96.5516 19.3461ZM96.6612 19.5959L97.3124 19.3101L96.6612 19.5959ZM96.83 20.1057L97.5234 19.9481L96.83 20.1057ZM96.8891 20.3658L97.5825 20.2082L96.8891 20.3658ZM96.9483 20.6259L96.2548 20.7836L96.9483 20.6259ZM96.9951 21.1607L97.7055 21.1924L96.9951 21.1607ZM96.9706 21.7101L96.2602 21.6784L96.9706 21.7101ZM97.0394 22.2404L97.7173 22.0254L97.0394 22.2404ZM97.1205 22.496L96.4427 22.711L97.1205 22.496ZM97.2016 22.7516L97.8794 22.5366L97.2016 22.7516ZM97.298 23.2763L96.5881 23.3169L97.298 23.2763ZM97.3134 23.5453L96.6035 23.5859L97.3134 23.5453ZM97.3288 23.8144L98.0388 23.7737L97.3288 23.8144ZM97.491 24.3256L98.0991 23.9571L97.491 24.3256ZM97.6377 24.5677L97.0295 24.9362L97.6377 24.5677ZM97.7844 24.8099L98.3926 24.4414L97.7844 24.8099ZM98.0261 25.3048L97.3604 25.5549L98.0261 25.3048ZM98.1211 25.5576L98.7867 25.3075L98.1211 25.5576ZM98.216 25.8103L98.8817 25.5603L98.216 25.8103ZM98.2968 26.6104L99.0077 26.6288L98.2968 26.6104ZM98.2897 26.884L97.5789 26.8656L98.2897 26.884ZM98.2439 27.4378L97.5395 27.3404L98.2439 27.4378ZM98.1664 27.998L98.8708 28.0955L98.1664 27.998ZM98.1599 28.5438L98.8658 28.458L98.1599 28.5438ZM98.1922 28.8093L97.4863 28.8951L98.1922 28.8093ZM98.2244 29.0749L98.9304 28.9892L98.2244 29.0749ZM98.4323 29.5768L97.8615 30.0009L98.4323 29.5768ZM98.6078 29.8131L99.1786 29.3889L98.6078 29.8131ZM98.7834 30.0493L99.3542 29.6252L98.7834 30.0493ZM98.8974 30.5704L98.2024 30.4201L98.8974 30.5704ZM98.7742 31.14L99.4693 31.2903L98.7742 31.14ZM99.3783 32.1051L98.87 32.6024L99.3783 32.1051ZM99.6033 32.6035L98.8922 32.6116L99.6033 32.6035ZM99.6095 33.1466L100.321 33.1385L99.6095 33.1466ZM99.5939 33.6942L100.303 33.7422L99.5939 33.6942ZM99.5752 33.9702L98.8657 33.9221L99.5752 33.9702ZM99.5565 34.2462L100.266 34.2943L99.5565 34.2462ZM99.6364 34.7742L100.299 34.515L99.6364 34.7742ZM99.7351 35.0262L99.0729 35.2854L99.7351 35.0262ZM99.8337 35.2783L99.1715 35.5374L99.8337 35.2783ZM99.9568 35.7975L100.665 35.7327L99.9568 35.7975ZM100.006 36.3318L99.2975 36.3966L100.006 36.3318ZM100.155 36.8456L99.5216 37.1679L100.155 36.8456ZM100.281 37.0921L100.915 36.7698L100.281 37.0921ZM100.406 37.3386L99.7723 37.661L100.406 37.3386ZM100.643 37.8346L101.292 37.5448L100.643 37.8346ZM100.865 38.3334L101.515 38.0436L100.865 38.3334ZM101.005 38.8492L101.712 38.7734L101.005 38.8492ZM101.062 39.3819L101.769 39.3061L101.062 39.3819ZM101.105 39.9176L100.395 39.9539L101.105 39.9176ZM101.118 40.187L101.829 40.1508L101.118 40.187ZM101.132 40.4564L101.842 40.4201L101.132 40.4564ZM101.118 41.0149L100.41 40.9459L101.118 41.0149ZM101.061 41.5932L101.769 41.6622L101.061 41.5932ZM100.784 41.7827L100.52 42.443L100.784 41.7827ZM100.534 41.683L100.798 41.0227L100.534 41.683ZM100.285 41.5834L100.021 42.2437L100.285 41.5834ZM99.8061 41.3102L99.3772 41.8774L99.8061 41.3102ZM99.3469 40.9631L99.7758 40.3958L99.3469 40.9631ZM98.8295 40.8335L98.9368 41.5364L98.8295 40.8335ZM98.2538 40.9214L98.3611 41.6243L98.2538 40.9214ZM97.7101 40.89L97.9109 40.2078L97.7101 40.89ZM97.1983 40.7393L96.9975 41.4215L97.1983 40.7393ZM96.6809 40.6096L96.8255 39.9134L96.6809 40.6096ZM96.1578 40.501L96.3024 39.8048L96.1578 40.501ZM95.6547 40.318L95.9891 39.6904L95.6547 40.318ZM95.4132 40.1893L95.7476 39.5617L95.4132 40.1893ZM95.1716 40.0605L94.8372 40.6881L95.1716 40.0605ZM94.6598 39.9098L94.7174 39.2011L94.6598 39.9098ZM94.1194 39.8659L94.0618 40.5747L94.1194 39.8659ZM93.6043 39.7279L93.2998 40.3705L93.6043 39.7279ZM93.3593 39.6118L93.6638 38.9692L93.3593 39.6118ZM93.1143 39.4957L92.8098 40.1383L93.1143 39.4957ZM92.586 39.4069L92.5179 38.699L92.586 39.4069ZM92.3026 39.4341L92.3707 40.142L92.3026 39.4341ZM92.0192 39.4614L92.0873 40.1692L92.0192 39.4614ZM91.4836 39.3998L91.7198 38.729L91.4836 39.3998ZM90.9791 39.2221L90.7429 39.8929L90.9791 39.2221ZM90.5083 38.9183L90.0096 39.4252L90.5083 38.9183ZM90.2898 38.7034L90.7886 38.1965L90.2898 38.7034ZM90.0714 38.4884L89.5726 38.9953L90.0714 38.4884ZM89.5959 38.2021L89.4057 38.8873L89.5959 38.2021ZM89.339 38.1307L89.1487 38.8159L89.339 38.1307ZM89.082 38.0594L89.2723 37.3742L89.082 38.0594ZM88.5607 37.9443L88.6769 37.2427L88.5607 37.9443ZM88.2964 37.9005L88.1802 38.602L88.2964 37.9005ZM87.487 37.8303L87.5309 38.5401L87.487 37.8303ZM86.9255 37.8651L86.8816 37.1553L86.9255 37.8651ZM86.3729 37.8669L86.3323 38.5769L86.3729 37.8669ZM86.1009 37.8514L86.1414 37.1414L86.1009 37.8514ZM85.829 37.8359L85.7885 38.5458L85.829 37.8359ZM85.346 37.5781L84.8099 38.0453L85.346 37.5781ZM85.1348 37.3358L84.5987 37.803L85.1348 37.3358ZM84.9236 37.0935L85.4597 36.6263L84.9236 37.0935ZM84.4011 36.983L84.6782 37.6379L84.4011 36.983ZM84.0897 37.1148L83.8126 36.4599L84.0897 37.1148ZM83.7783 37.2465L84.0555 37.9014L83.7783 37.2465ZM83.2407 37.1925L82.7895 37.7421L83.2407 37.1925ZM83.0144 37.0067L82.5632 37.5564L83.0144 37.0067ZM82.7881 36.821L83.2393 36.2713L82.7881 36.821ZM82.2795 36.6583L82.2214 35.9496L82.2795 36.6583ZM81.715 36.7046L81.7731 37.4133L81.715 36.7046ZM80.6422 36.5869L80.767 35.8868L80.6422 36.5869ZM80.1596 36.3275L79.6647 36.8382L80.1596 36.3275ZM79.7212 35.9027L80.2161 35.3921L79.7212 35.9027ZM79.2509 35.5975L79.4975 34.9305L79.2509 35.5975ZM78.7485 35.4118L78.5019 36.0787L78.7485 35.4118ZM77.6857 35.2569L77.7399 34.5478L77.6857 35.2569ZM77.1307 35.2676L77.2087 35.9744L77.1307 35.2676ZM76.8462 35.299L76.7682 34.5921L76.8462 35.299ZM76.5617 35.3303L76.6397 36.0372L76.5617 35.3303ZM76.0155 35.3083L75.8732 36.005L76.0155 35.3083ZM75.492 35.2014L75.6343 34.5047L75.492 35.2014ZM75.0094 34.9417L74.5241 35.4615L75.0094 34.9417ZM74.7886 34.7355L75.2739 34.2158L74.7886 34.7355ZM74.5678 34.5293L74.0824 35.0491L74.5678 34.5293ZM74.0784 34.2952L74.0049 35.0025L74.0784 34.2952ZM73.5412 34.2394L73.6146 33.5321L73.5412 34.2394ZM71.7422 33.741L71.9228 34.4288L71.7422 33.741ZM71.4452 33.819L71.2646 33.1312L71.4452 33.819ZM70.9196 33.7201L70.4846 34.2827L70.9196 33.7201ZM70.4622 33.3664L70.8972 32.8039L70.4622 33.3664ZM69.9829 33.0944L69.7303 33.7591L69.9829 33.0944ZM69.4818 32.904L69.7344 32.2392L69.4818 32.904ZM68.9564 32.8043L68.9449 33.5153L68.9564 32.8043ZM68.4066 32.7954L68.4181 32.0844L68.4066 32.7954ZM67.9638 32.7581L67.8273 33.456L67.9638 32.7581ZM67.6279 32.6924L67.7644 31.9946L67.6279 32.6924ZM67.6582 32.479L67.1793 31.9533L67.6582 32.479ZM67.8565 32.2984L67.3776 31.7727L67.8565 32.2984ZM68.0547 32.1178L67.5758 31.5921L68.0547 32.1178ZM68.4106 31.7206L68.9856 32.1391L68.4106 31.7206ZM68.5683 31.504L67.9934 31.0855L68.5683 31.504ZM68.726 31.2874L69.3009 31.7059L68.726 31.2874ZM69.0242 30.8391L69.6322 31.208L69.0242 30.8391ZM69.3055 30.3756L68.6976 30.0067L69.3055 30.3756ZM69.5822 29.9082L70.1981 30.2637L69.5822 29.9082ZM69.8544 29.4367L69.2385 29.0812L69.8544 29.4367ZM70.1789 29.0116L69.6748 28.51L70.1789 29.0116ZM70.3673 28.8223L70.8713 29.3239L70.3673 28.8223ZM70.5557 28.633L70.0517 28.1314L70.5557 28.633ZM71.4712 27.3064L70.8789 26.9129L71.4712 27.3064ZM71.6202 27.0821L72.2126 27.4755L71.6202 27.0821ZM71.7692 26.8577L71.1768 26.4643L71.7692 26.8577ZM72.136 26.4702L72.5624 27.0393L72.136 26.4702ZM72.3539 26.307L72.7802 26.8761L72.3539 26.307ZM72.5717 26.1438L72.9981 26.7129L72.5717 26.1438ZM72.9833 25.7959L72.4927 25.2811L72.9833 25.7959ZM73.177 25.6113L72.6864 25.0965L73.177 25.6113ZM73.3707 25.4267L73.8613 25.9415L73.3707 25.4267ZM73.7764 25.0736L73.334 24.5169L73.7764 25.0736ZM74.2003 24.7367L74.6428 25.2934L74.2003 24.7367ZM74.5369 24.3223L73.9025 24.0009L74.5369 24.3223ZM74.786 23.8304L75.4204 24.1517L74.786 23.8304ZM75.203 23.4873L75.4272 24.1621L75.203 23.4873ZM75.4953 23.3902L75.2711 22.7153L75.4953 23.3902ZM75.7877 23.293L75.5635 22.6182L75.7877 23.293ZM76.2403 22.9816L76.8099 23.4074L76.2403 22.9816ZM76.5608 22.5529L75.9913 22.1271L76.5608 22.5529ZM76.8498 22.0964L77.4777 22.4303L76.8498 22.0964ZM77.1074 21.612L76.4796 21.2781L77.1074 21.612ZM77.3678 21.1301L76.7444 20.788L77.3678 21.1301ZM77.4994 20.8903L78.1228 21.2324L77.4994 20.8903ZM77.6309 20.6506L77.0075 20.3085L77.6309 20.6506ZM77.8926 20.1698L77.2669 19.8319L77.8926 20.1698ZM78.5803 19.354L78.7923 20.0327L78.5803 19.354ZM79.1747 19.1683L78.9627 18.4895L79.1747 19.1683ZM79.5379 18.7775L78.8437 18.6238L79.5379 18.7775ZM79.6699 18.1817L78.9756 18.028L79.6699 18.1817ZM80.028 17.7865L79.8032 17.1118L80.028 17.7865ZM80.6123 17.5918L80.8371 18.2664L80.6123 17.5918ZM81.7594 16.1141L82.1098 16.7329L81.7594 16.1141ZM82.0047 15.9752L81.6544 15.3564L82.0047 15.9752ZM82.3688 15.5852L83.0116 15.8893L82.3688 15.5852ZM82.4876 15.3342L83.1304 15.6382L82.4876 15.3342ZM82.6064 15.0831L83.2492 15.3872L82.6064 15.0831ZM82.9744 14.6966L82.6351 14.0717L82.9744 14.6966ZM83.473 14.4259L83.8123 15.0508L83.473 14.4259ZM83.9241 14.1131L83.4547 13.579L83.9241 14.1131ZM84.3278 13.7583L84.7973 14.2925L84.3278 13.7583ZM84.6452 13.3269L83.9978 13.0326L84.6452 13.3269ZM84.7606 13.0729L84.1133 12.7786L84.7606 13.0729ZM84.8761 12.8188L85.5235 13.1131L84.8761 12.8188ZM85.1301 12.3313L84.5185 11.9685L85.1301 12.3313ZM85.2686 12.0977L85.8802 12.4605L85.2686 12.0977ZM85.4072 11.8641L84.7956 11.5014L85.4072 11.8641ZM85.7127 11.4222L86.2676 11.867L85.7127 11.4222ZM86.0467 11.0056L86.6015 11.4503L86.0467 11.0056ZM86.4354 10.6375L86.0199 10.0604L86.4354 10.6375ZM86.6572 10.4778L87.0728 11.0548L86.6572 10.4778ZM86.879 10.318L87.2946 10.8951L86.879 10.318ZM87.326 10.0016L87.7323 10.5852L87.326 10.0016ZM87.7764 9.68813L87.3702 9.10447L87.7764 9.68813ZM88.0716 9.23706L88.7634 9.4016L88.0716 9.23706ZM88.2116 8.64839L87.5198 8.48386L88.2116 8.64839ZM88.4866 8.17941L88.9477 8.72068L88.4866 8.17941ZM88.6915 8.00476L89.1527 8.54604L88.6915 8.00476ZM88.8965 7.83011L88.4353 7.28884L88.8965 7.83011ZM89.3019 7.47678L88.8287 6.94598L89.3019 7.47678ZM89.5023 7.2981L89.9755 7.8289L89.5023 7.2981ZM89.7028 7.11942L89.2295 6.58862L89.7028 7.11942ZM90.098 6.75707L89.6102 6.23966L90.098 6.75707ZM90.2928 6.57341L90.7806 7.09082L90.2928 6.57341ZM90.4876 6.38975L89.9998 5.87234L90.4876 6.38975ZM90.7761 5.93277L90.1035 5.70213L90.7761 5.93277ZM90.9635 5.38616L91.6362 5.61681L90.9635 5.38616ZM91.3619 5.02655L91.5557 5.71074L91.3619 5.02655ZM91.6665 4.94025L91.8603 5.62444L91.6665 4.94025ZM91.9711 4.85396L91.7773 4.16977L91.9711 4.85396ZM92.4294 4.54752L93.0125 4.95458L92.4294 4.54752ZM92.7367 4.10726L92.1537 3.7002L92.7367 4.10726ZM93.0158 3.71665L92.4429 3.29532L93.0158 3.71665ZM93.1412 3.54619L93.714 3.96752L93.1412 3.54619ZM93.2666 3.37572L92.6937 2.95438L93.2666 3.37572ZM93.3717 3.18727L93.8435 2.65522L93.3717 3.18727ZM93.3311 3.15132L92.8593 3.68337L93.3311 3.15132ZM93.4187 3.38346L92.7657 3.66503L93.4187 3.38346ZM93.5265 3.63359L92.8736 3.91515L92.9814 4.16527L93.6344 3.88371L94.2874 3.60214L94.1795 3.35202L93.5265 3.63359ZM93.6344 3.88371L92.9814 4.16527C93.0507 4.32595 93.1175 4.48707 93.1819 4.64865L93.8425 4.38551L94.5031 4.12237C94.4338 3.94838 94.3619 3.77496 94.2874 3.60214L93.6344 3.88371ZM93.8425 4.38551L93.1819 4.64865L93.2821 4.90032L93.9427 4.63719L94.6034 4.37405L94.5031 4.12237L93.8425 4.38551ZM93.9427 4.63719L93.2821 4.90032L93.3823 5.152L94.043 4.88887L94.7036 4.62573L94.6034 4.37405L93.9427 4.63719ZM94.043 4.88887L93.3823 5.152C93.3922 5.17673 93.3995 5.20932 93.3857 5.27154L94.0799 5.4257L94.7741 5.57986C94.8447 5.26188 94.8274 4.93658 94.7036 4.62573L94.043 4.88887ZM94.0799 5.4257L93.3857 5.27154L93.3224 5.55669L94.0166 5.71085L94.7108 5.86501L94.7741 5.57986L94.0799 5.4257ZM94.0166 5.71085L93.3224 5.55669L93.2591 5.84184L93.9533 5.996L94.6475 6.15016L94.7108 5.86501L94.0166 5.71085ZM93.9533 5.996L93.2591 5.84184C93.2044 6.08805 93.1806 6.33568 93.1917 6.58287L93.9021 6.55086L94.6125 6.51884C94.6074 6.40642 94.6177 6.28415 94.6475 6.15016L93.9533 5.996ZM93.9021 6.55086L93.1917 6.58287L93.2039 6.85258L93.9143 6.82056L94.6246 6.78855L94.6125 6.51884L93.9021 6.55086ZM93.9143 6.82056L93.2039 6.85258L93.216 7.12228L93.9264 7.09027L94.6368 7.05825L94.6246 6.78855L93.9143 6.82056ZM93.9264 7.09027L93.216 7.12228C93.2321 7.47991 93.3743 7.79424 93.5946 8.05287L94.136 7.59176L94.6773 7.13066C94.6344 7.08023 94.6369 7.06023 94.6368 7.05825L93.9264 7.09027ZM94.136 7.59176L93.5946 8.05287L93.7921 8.28466L94.3334 7.82355L94.8748 7.36245L94.6773 7.13066L94.136 7.59176ZM94.3334 7.82355L93.7921 8.28466L93.9895 8.51645L94.5309 8.05535L95.0722 7.59424L94.8748 7.36245L94.3334 7.82355ZM94.5309 8.05535L93.9895 8.51645C94.0011 8.53002 93.9951 8.52734 93.9893 8.50833C93.9866 8.49954 93.9849 8.49032 93.9842 8.48172C93.9836 8.47325 93.9842 8.4681 93.9844 8.46728L94.6884 8.5675L95.3924 8.66771C95.4501 8.26253 95.3248 7.89076 95.0722 7.59424L94.5309 8.05535ZM94.6884 8.5675L93.9844 8.46728L93.9445 8.74764L94.6485 8.84786L95.3525 8.94807L95.3924 8.66771L94.6884 8.5675ZM94.6485 8.84786L93.9445 8.74764L93.9045 9.028L94.6086 9.12822L95.3126 9.22843L95.3525 8.94807L94.6485 8.84786ZM94.6086 9.12822L93.9045 9.028C93.8637 9.31464 93.8838 9.60151 93.9721 9.87944L94.6498 9.66416L95.3276 9.44887C95.3076 9.38603 95.3002 9.31561 95.3126 9.22843L94.6086 9.12822ZM94.6498 9.66416L93.9721 9.87944L94.0533 10.135L94.731 9.91974L95.4088 9.70445L95.3276 9.44887L94.6498 9.66416ZM94.731 9.91974L94.0533 10.135L94.1345 10.3906L94.8122 10.1753L95.4899 9.96003L95.4088 9.70445L94.731 9.91974ZM94.8122 10.1753L94.1345 10.3906C94.1888 10.5616 94.2433 10.7325 94.2981 10.9034L94.9753 10.6863L95.6524 10.4692C95.598 10.2995 95.5439 10.1298 95.4899 9.96003L94.8122 10.1753ZM94.9753 10.6863L94.2981 10.9034L94.38 11.1589L95.0572 10.9418L95.7343 10.7247L95.6524 10.4692L94.9753 10.6863ZM95.0572 10.9418L94.38 11.1589L94.4619 11.4143L95.1391 11.1972L95.8162 10.9801L95.7343 10.7247L95.0572 10.9418ZM95.1391 11.1972L94.4619 11.4143C94.4858 11.4887 94.4952 11.5689 94.4862 11.6616L95.194 11.7303L95.9018 11.7991C95.9287 11.5215 95.9016 11.2463 95.8162 10.9801L95.1391 11.1972ZM95.194 11.7303L94.4862 11.6616L94.4592 11.9393L95.167 12.0081L95.8748 12.0768L95.9018 11.7991L95.194 11.7303ZM95.167 12.0081L94.4592 11.9393L94.4323 12.217L95.1401 12.2858L95.8478 12.3545L95.8748 12.0768L95.167 12.0081ZM95.1401 12.2858L94.4323 12.217C94.3953 12.5978 94.5109 12.9481 94.7383 13.2374L95.2974 12.798L95.8565 12.3585C95.8495 12.3496 95.8463 12.344 95.8452 12.342C95.8442 12.3402 95.8447 12.3409 95.8457 12.3438C95.8466 12.3469 95.8473 12.3503 95.8476 12.3534C95.8479 12.3563 95.8476 12.357 95.8478 12.3545L95.1401 12.2858ZM95.2974 12.798L94.7383 13.2374L94.9226 13.4719L95.4817 13.0324L96.0408 12.593L95.8565 12.3585L95.2974 12.798ZM95.4817 13.0324L94.9226 13.4719L95.107 13.7064L95.666 13.2669L96.2251 12.8274L96.0408 12.593L95.4817 13.0324ZM95.666 13.2669L95.107 13.7064C95.1466 13.7567 95.1484 13.7823 95.1489 13.796L95.8596 13.7717L96.5703 13.7474C96.5584 13.4007 96.4312 13.0897 96.2251 12.8274L95.666 13.2669ZM95.8596 13.7717L95.1489 13.796L95.1581 14.0663L95.8688 14.042L96.5795 14.0177L96.5703 13.7474L95.8596 13.7717ZM95.8688 14.042L95.1581 14.0663L95.1674 14.3366L95.8781 14.3123L96.5888 14.288L96.5795 14.0177L95.8688 14.042ZM95.8781 14.3123L95.1674 14.3366C95.1722 14.4793 95.166 14.6263 95.148 14.7777L95.8542 14.8616L96.5603 14.9454C96.5865 14.7249 96.5962 14.5057 96.5888 14.288L95.8781 14.3123ZM95.8542 14.8616L95.148 14.7777L95.1149 15.0567L95.8211 15.1405L96.5272 15.2243L96.5603 14.9454L95.8542 14.8616ZM95.8211 15.1405L95.1149 15.0567L95.0818 15.3357L95.788 15.4195L96.4941 15.5033L96.5272 15.2243L95.8211 15.1405ZM95.788 15.4195L95.0818 15.3357C95.0579 15.5368 95.0407 15.737 95.0302 15.9362L95.7404 15.9736L96.4505 16.011C96.4593 15.8434 96.4738 15.6742 96.4941 15.5033L95.788 15.4195ZM95.7404 15.9736L95.0302 15.9362L95.0157 16.2114L95.7259 16.2488L96.436 16.2862L96.4505 16.011L95.7404 15.9736ZM95.7259 16.2488L95.0157 16.2114L95.0012 16.4865L95.7114 16.5239L96.4215 16.5614L96.436 16.2862L95.7259 16.2488ZM95.7114 16.5239L95.0012 16.4865C94.9884 16.7303 95.0066 16.9716 95.0573 17.2086L95.7526 17.0599L96.448 16.9112C96.4243 16.8004 96.415 16.6845 96.4215 16.5614L95.7114 16.5239ZM95.7526 17.0599L95.0573 17.2086L95.113 17.4694L95.8084 17.3207L96.5038 17.1719L96.448 16.9112L95.7526 17.0599ZM95.8084 17.3207L95.113 17.4694L95.1688 17.7302L95.8642 17.5814L96.5596 17.4327L96.5038 17.1719L95.8084 17.3207ZM95.8642 17.5814L95.1688 17.7302C95.215 17.9462 95.2807 18.1575 95.3652 18.3634L96.0231 18.0933L96.6809 17.8232C96.628 17.6944 96.5877 17.5643 96.5596 17.4327L95.8642 17.5814ZM96.0231 18.0933L95.3652 18.3634L95.4683 18.6145L96.1261 18.3444L96.784 18.0743L96.6809 17.8232L96.0231 18.0933ZM96.1261 18.3444L95.4683 18.6145L95.5714 18.8656L96.2292 18.5955L96.8871 18.3254L96.784 18.0743L96.1261 18.3444ZM96.2292 18.5955L95.5714 18.8656C95.6423 19.0383 95.7155 19.2105 95.7908 19.3822L96.442 19.0964L97.0931 18.8105C97.0223 18.6492 96.9536 18.4875 96.8871 18.3254L96.2292 18.5955ZM96.442 19.0964L95.7908 19.3822L95.9005 19.6319L96.5516 19.3461L97.2027 19.0603L97.0931 18.8105L96.442 19.0964ZM96.5516 19.3461L95.9005 19.6319L96.0101 19.8817L96.6612 19.5959L97.3124 19.3101L97.2027 19.0603L96.5516 19.3461ZM96.6612 19.5959L96.0101 19.8817C96.0655 20.0079 96.1074 20.1349 96.1366 20.2634L96.83 20.1057L97.5234 19.9481C97.4738 19.7297 97.4032 19.5169 97.3124 19.3101L96.6612 19.5959ZM96.83 20.1057L96.1366 20.2634L96.1957 20.5235L96.8891 20.3658L97.5825 20.2082L97.5234 19.9481L96.83 20.1057ZM96.8891 20.3658L96.1957 20.5235L96.2548 20.7836L96.9483 20.6259L97.6417 20.4683L97.5825 20.2082L96.8891 20.3658ZM96.9483 20.6259L96.2548 20.7836C96.2797 20.893 96.2902 21.0075 96.2847 21.129L96.9951 21.1607L97.7055 21.1924C97.7165 20.9477 97.6956 20.7056 97.6417 20.4683L96.9483 20.6259ZM96.9951 21.1607L96.2847 21.129L96.2725 21.4037L96.9829 21.4354L97.6933 21.4671L97.7055 21.1924L96.9951 21.1607ZM96.9829 21.4354L96.2725 21.4037L96.2602 21.6784L96.9706 21.7101L97.681 21.7418L97.6933 21.4671L96.9829 21.4354ZM96.9706 21.7101L96.2602 21.6784C96.2484 21.9429 96.2816 22.2033 96.3616 22.4554L97.0394 22.2404L97.7173 22.0254C97.6891 21.9367 97.6765 21.8436 97.681 21.7418L96.9706 21.7101ZM97.0394 22.2404L96.3616 22.4554L96.4427 22.711L97.1205 22.496L97.7983 22.281L97.7173 22.0254L97.0394 22.2404ZM97.1205 22.496L96.4427 22.711L96.5237 22.9666L97.2016 22.7516L97.8794 22.5366L97.7983 22.281L97.1205 22.496ZM97.2016 22.7516L96.5237 22.9666C96.5598 23.0802 96.5812 23.1965 96.5881 23.3169L97.298 23.2763L98.008 23.2356C97.9944 22.9973 97.9515 22.7639 97.8794 22.5366L97.2016 22.7516ZM97.298 23.2763L96.5881 23.3169L96.6035 23.5859L97.3134 23.5453L98.0234 23.5047L98.008 23.2356L97.298 23.2763ZM97.3134 23.5453L96.6035 23.5859L96.6189 23.855L97.3288 23.8144L98.0388 23.7737L98.0234 23.5047L97.3134 23.5453ZM97.3288 23.8144L96.6189 23.855C96.6361 24.1562 96.7279 24.4385 96.8828 24.6941L97.491 24.3256L98.0991 23.9571C98.0584 23.8898 98.0421 23.8312 98.0388 23.7737L97.3288 23.8144ZM97.491 24.3256L96.8828 24.6941L97.0295 24.9362L97.6377 24.5677L98.2459 24.1992L98.0991 23.9571L97.491 24.3256ZM97.6377 24.5677L97.0295 24.9362L97.1762 25.1784L97.7844 24.8099L98.3926 24.4414L98.2459 24.1992L97.6377 24.5677ZM97.7844 24.8099L97.1762 25.1784C97.2524 25.304 97.3133 25.4295 97.3604 25.5549L98.0261 25.3048L98.6918 25.0547C98.6123 24.8431 98.5121 24.6386 98.3926 24.4414L97.7844 24.8099ZM98.0261 25.3048L97.3604 25.5549L97.4554 25.8077L98.1211 25.5576L98.7867 25.3075L98.6918 25.0547L98.0261 25.3048ZM98.1211 25.5576L97.4554 25.8077L97.5503 26.0604L98.216 25.8103L98.8817 25.5603L98.7867 25.3075L98.1211 25.5576ZM98.216 25.8103L97.5503 26.0604C97.581 26.142 97.5954 26.2262 97.593 26.3184L98.3039 26.3367L99.0148 26.3551C99.0218 26.0824 98.9777 25.8157 98.8817 25.5603L98.216 25.8103ZM98.3039 26.3367L97.593 26.3184L97.5859 26.592L98.2968 26.6104L99.0077 26.6288L99.0148 26.3551L98.3039 26.3367ZM98.2968 26.6104L97.5859 26.592L97.5789 26.8656L98.2897 26.884L99.0006 26.9024L99.0077 26.6288L98.2968 26.6104ZM98.2897 26.884L97.5789 26.8656C97.5749 27.0208 97.5618 27.179 97.5395 27.3404L98.2439 27.4378L98.9483 27.5352C98.9777 27.3231 98.9952 27.1121 99.0006 26.9024L98.2897 26.884ZM98.2439 27.4378L97.5395 27.3404L97.5008 27.6205L98.2052 27.7179L98.9096 27.8154L98.9483 27.5352L98.2439 27.4378ZM98.2052 27.7179L97.5008 27.6205L97.462 27.9006L98.1664 27.998L98.8708 28.0955L98.9096 27.8154L98.2052 27.7179ZM98.1664 27.998L97.462 27.9006C97.4283 28.1446 97.4247 28.3882 97.454 28.6295L98.1599 28.5438L98.8658 28.458C98.8521 28.3452 98.8529 28.2249 98.8708 28.0955L98.1664 27.998ZM98.1599 28.5438L97.454 28.6295L97.4863 28.8951L98.1922 28.8093L98.8981 28.7236L98.8658 28.458L98.1599 28.5438ZM98.1922 28.8093L97.4863 28.8951L97.5185 29.1607L98.2244 29.0749L98.9304 28.9892L98.8981 28.7236L98.1922 28.8093ZM98.2244 29.0749L97.5185 29.1607C97.5564 29.4724 97.6783 29.7545 97.8615 30.0009L98.4323 29.5768L99.003 29.1526C98.9521 29.0841 98.9355 29.0316 98.9304 28.9892L98.2244 29.0749ZM98.4323 29.5768L97.8615 30.0009L98.0371 30.2372L98.6078 29.8131L99.1786 29.3889L99.003 29.1526L98.4323 29.5768ZM98.6078 29.8131L98.0371 30.2372L98.2126 30.4735L98.7834 30.0493L99.3542 29.6252L99.1786 29.3889L98.6078 29.8131ZM98.7834 30.0493L98.2126 30.4735C98.2155 30.4773 98.2146 30.4768 98.2123 30.472C98.21 30.4669 98.2071 30.4593 98.205 30.4497C98.2029 30.4401 98.2022 30.4315 98.2023 30.425C98.2023 30.4188 98.2031 30.4168 98.2024 30.4201L98.8974 30.5704L99.5925 30.7207C99.6774 30.328 99.5921 29.9453 99.3542 29.6252L98.7834 30.0493ZM98.8974 30.5704L98.2024 30.4201L98.1408 30.7049L98.8358 30.8552L99.5309 31.0055L99.5925 30.7207L98.8974 30.5704ZM98.8358 30.8552L98.1408 30.7049L98.0792 30.9897L98.7742 31.14L99.4693 31.2903L99.5309 31.0055L98.8358 30.8552ZM98.7742 31.14L98.0792 30.9897C97.9825 31.4367 98.1288 31.8449 98.4263 32.1489L98.9345 31.6516L99.4428 31.1542C99.4329 31.1441 99.4497 31.1579 99.4621 31.1976C99.468 31.2166 99.4712 31.2361 99.4719 31.2543C99.4725 31.2723 99.4705 31.2848 99.4693 31.2903L98.7742 31.14ZM98.9345 31.6516L98.4263 32.1489L98.6481 32.3757L99.1564 31.8783L99.6647 31.381L99.4428 31.1542L98.9345 31.6516ZM99.1564 31.8783L98.6481 32.3757L98.87 32.6024L99.3783 32.1051L99.8866 31.6078L99.6647 31.381L99.1564 31.8783ZM99.3783 32.1051L98.87 32.6024C98.8949 32.6279 98.8992 32.6397 98.8974 32.6357C98.8966 32.6339 98.8951 32.63 98.8939 32.6246C98.8927 32.6192 98.8923 32.6145 98.8922 32.6116L99.6033 32.6035L100.314 32.5954C100.31 32.2007 100.139 31.8663 99.8866 31.6078L99.3783 32.1051ZM99.6033 32.6035L98.8922 32.6116L98.8953 32.8831L99.6064 32.875L100.317 32.8669L100.314 32.5954L99.6033 32.6035ZM99.6064 32.875L98.8953 32.8831L98.8984 33.1547L99.6095 33.1466L100.321 33.1385L100.317 32.8669L99.6064 32.875ZM99.6095 33.1466L98.8984 33.1547C98.9003 33.3167 98.8956 33.4804 98.8844 33.6461L99.5939 33.6942L100.303 33.7422C100.317 33.5399 100.323 33.3386 100.321 33.1385L99.6095 33.1466ZM99.5939 33.6942L98.8844 33.6461L98.8657 33.9221L99.5752 33.9702L100.285 34.0182L100.303 33.7422L99.5939 33.6942ZM99.5752 33.9702L98.8657 33.9221L98.847 34.1982L99.5565 34.2462L100.266 34.2943L100.285 34.0182L99.5752 33.9702ZM99.5565 34.2462L98.847 34.1982C98.8276 34.4844 98.8694 34.7655 98.9742 35.0334L99.6364 34.7742L100.299 34.515C100.272 34.4469 100.26 34.376 100.266 34.2943L99.5565 34.2462ZM99.6364 34.7742L98.9742 35.0334L99.0729 35.2854L99.7351 35.0262L100.397 34.7671L100.299 34.515L99.6364 34.7742ZM99.7351 35.0262L99.0729 35.2854L99.1715 35.5374L99.8337 35.2783L100.496 35.0191L100.397 34.7671L99.7351 35.0262ZM99.8337 35.2783L99.1715 35.5374C99.2131 35.6437 99.2385 35.7513 99.2486 35.8622L99.9568 35.7975L100.665 35.7327C100.643 35.4873 100.586 35.2488 100.496 35.0191L99.8337 35.2783ZM99.9568 35.7975L99.2486 35.8622L99.2731 36.1294L99.9812 36.0646L100.689 35.9999L100.665 35.7327L99.9568 35.7975ZM99.9812 36.0646L99.2731 36.1294L99.2975 36.3966L100.006 36.3318L100.714 36.2671L100.689 35.9999L99.9812 36.0646ZM100.006 36.3318L99.2975 36.3966C99.3222 36.6673 99.3984 36.9257 99.5216 37.1679L100.155 36.8456L100.789 36.5232C100.745 36.4367 100.722 36.3526 100.714 36.2671L100.006 36.3318ZM100.155 36.8456L99.5216 37.1679L99.6469 37.4144L100.281 37.0921L100.915 36.7698L100.789 36.5232L100.155 36.8456ZM100.281 37.0921L99.6469 37.4144L99.7723 37.661L100.406 37.3386L101.04 37.0163L100.915 36.7698L100.281 37.0921ZM100.406 37.3386L99.7723 37.661C99.8505 37.8148 99.9242 37.9692 99.9935 38.1244L100.643 37.8346L101.292 37.5448C101.213 37.3674 101.129 37.1913 101.04 37.0163L100.406 37.3386ZM100.643 37.8346L99.9935 38.1244L100.105 38.3738L100.754 38.084L101.404 37.7942L101.292 37.5448L100.643 37.8346ZM100.754 38.084L100.105 38.3738L100.216 38.6232L100.865 38.3334L101.515 38.0436L101.404 37.7942L100.754 38.084ZM100.865 38.3334L100.216 38.6232C100.261 38.723 100.287 38.8228 100.298 38.925L101.005 38.8492L101.712 38.7734C101.685 38.5205 101.619 38.2764 101.515 38.0436L100.865 38.3334ZM101.005 38.8492L100.298 38.925L100.327 39.1913L101.034 39.1156L101.741 39.0398L101.712 38.7734L101.005 38.8492ZM101.034 39.1156L100.327 39.1913L100.355 39.4577L101.062 39.3819L101.769 39.3061L101.741 39.0398L101.034 39.1156ZM101.062 39.3819L100.355 39.4577C100.373 39.622 100.386 39.7874 100.395 39.9539L101.105 39.9176L101.815 39.8814C101.805 39.6887 101.79 39.4969 101.769 39.3061L101.062 39.3819ZM101.105 39.9176L100.395 39.9539L100.408 40.2233L101.118 40.187L101.829 40.1508L101.815 39.8814L101.105 39.9176ZM101.118 40.187L100.408 40.2233L100.422 40.4926L101.132 40.4564L101.842 40.4201L101.829 40.1508L101.118 40.187ZM101.132 40.4564L100.422 40.4926C100.429 40.6345 100.426 40.7854 100.41 40.9459L101.118 41.0149L101.825 41.084C101.847 40.8589 101.853 40.6374 101.842 40.4201L101.132 40.4564ZM101.118 41.0149L100.41 40.9459L100.382 41.235L101.09 41.3041L101.797 41.3731L101.825 41.084L101.118 41.0149ZM101.09 41.3041L100.382 41.235L100.354 41.5241L101.061 41.5932L101.769 41.6622L101.797 41.3731L101.09 41.3041ZM101.061 41.5932L100.354 41.5241C100.354 41.5226 100.355 41.5135 100.358 41.4986C100.362 41.4838 100.368 41.4597 100.381 41.4298C100.408 41.369 100.465 41.2741 100.577 41.1978C100.822 41.0306 101.046 41.1218 101.048 41.1223L100.784 41.7827L100.52 42.443C100.688 42.51 101.041 42.6028 101.379 42.3724C101.692 42.1587 101.753 41.8221 101.769 41.6622L101.061 41.5932ZM100.784 41.7827L101.048 41.1223L100.798 41.0227L100.534 41.683L100.271 42.3434L100.52 42.443L100.784 41.7827ZM100.534 41.683L100.798 41.0227L100.549 40.923L100.285 41.5834L100.021 42.2437L100.271 42.3434L100.534 41.683ZM100.285 41.5834L100.549 40.923C100.446 40.8818 100.341 40.8231 100.235 40.7429L99.8061 41.3102L99.3772 41.8774C99.5773 42.0286 99.7919 42.1521 100.021 42.2437L100.285 41.5834ZM99.8061 41.3102L100.235 40.7429L100.005 40.5694L99.5765 41.1366L99.1477 41.7039L99.3772 41.8774L99.8061 41.3102ZM99.5765 41.1366L100.005 40.5694L99.7758 40.3958L99.3469 40.9631L98.9181 41.5303L99.1477 41.7039L99.5765 41.1366ZM99.3469 40.9631L99.7758 40.3958C99.4676 40.1628 99.1013 40.0726 98.7222 40.1305L98.8295 40.8335L98.9368 41.5364C98.9432 41.5355 98.9449 41.5358 98.9427 41.5357C98.9403 41.5356 98.9358 41.5351 98.93 41.5337C98.9242 41.5322 98.9195 41.5304 98.9165 41.5289C98.9137 41.5275 98.9142 41.5274 98.9181 41.5303L99.3469 40.9631ZM98.8295 40.8335L98.7222 40.1305L98.4343 40.1744L98.5417 40.8774L98.649 41.5804L98.9368 41.5364L98.8295 40.8335ZM98.5417 40.8774L98.4343 40.1744L98.1465 40.2184L98.2538 40.9214L98.3611 41.6243L98.649 41.5804L98.5417 40.8774ZM98.2538 40.9214L98.1465 40.2184C98.048 40.2334 97.9727 40.226 97.9109 40.2078L97.7101 40.89L97.5092 41.5721C97.7887 41.6544 98.0758 41.6679 98.3611 41.6243L98.2538 40.9214ZM97.7101 40.89L97.9109 40.2078L97.655 40.1325L97.4542 40.8146L97.2533 41.4968L97.5092 41.5721L97.7101 40.89ZM97.4542 40.8146L97.655 40.1325L97.3991 40.0571L97.1983 40.7393L96.9975 41.4215L97.2533 41.4968L97.4542 40.8146ZM97.1983 40.7393L97.3991 40.0571C97.21 40.0014 97.0187 39.9535 96.8255 39.9134L96.6809 40.6096L96.5363 41.3059C96.6917 41.3382 96.8454 41.3767 96.9975 41.4215L97.1983 40.7393ZM96.6809 40.6096L96.8255 39.9134L96.564 39.8591L96.4194 40.5553L96.2748 41.2516L96.5363 41.3059L96.6809 40.6096ZM96.4194 40.5553L96.564 39.8591L96.3024 39.8048L96.1578 40.501L96.0133 41.1973L96.2748 41.2516L96.4194 40.5553ZM96.1578 40.501L96.3024 39.8048C96.1959 39.7827 96.092 39.7452 95.9891 39.6904L95.6547 40.318L95.3203 40.9456C95.5396 41.0624 95.7711 41.147 96.0133 41.1973L96.1578 40.501ZM95.6547 40.318L95.9891 39.6904L95.7476 39.5617L95.4132 40.1893L95.0788 40.8168L95.3203 40.9456L95.6547 40.318ZM95.4132 40.1893L95.7476 39.5617L95.506 39.433L95.1716 40.0605L94.8372 40.6881L95.0788 40.8168L95.4132 40.1893ZM95.1716 40.0605L95.506 39.433C95.2601 39.3019 94.9954 39.2237 94.7174 39.2011L94.6598 39.9098L94.6022 40.6186C94.6845 40.6253 94.761 40.6475 94.8372 40.6881L95.1716 40.0605ZM94.6598 39.9098L94.7174 39.2011L94.4473 39.1791L94.3896 39.8879L94.332 40.5966L94.6022 40.6186L94.6598 39.9098ZM94.3896 39.8879L94.4473 39.1791L94.1771 39.1571L94.1194 39.8659L94.0618 40.5747L94.332 40.5966L94.3896 39.8879ZM94.1194 39.8659L94.1771 39.1571C94.0826 39.1494 93.9945 39.1258 93.9088 39.0852L93.6043 39.7279L93.2998 40.3705C93.5407 40.4846 93.7961 40.5531 94.0618 40.5747L94.1194 39.8659ZM93.6043 39.7279L93.9088 39.0852L93.6638 38.9692L93.3593 39.6118L93.0548 40.2544L93.2998 40.3705L93.6043 39.7279ZM93.3593 39.6118L93.6638 38.9692L93.4188 38.8531L93.1143 39.4957L92.8098 40.1383L93.0548 40.2544L93.3593 39.6118ZM93.1143 39.4957L93.4188 38.8531C93.1336 38.7179 92.828 38.6692 92.5179 38.699L92.586 39.4069L92.654 40.1147C92.7219 40.1082 92.7685 40.1187 92.8098 40.1383L93.1143 39.4957ZM92.586 39.4069L92.5179 38.699L92.2346 38.7263L92.3026 39.4341L92.3707 40.142L92.654 40.1147L92.586 39.4069ZM92.3026 39.4341L92.2346 38.7263L91.9512 38.7535L92.0192 39.4614L92.0873 40.1692L92.3707 40.142L92.3026 39.4341ZM92.0192 39.4614L91.9512 38.7535C91.8584 38.7624 91.7842 38.7517 91.7198 38.729L91.4836 39.3998L91.2474 40.0705C91.5193 40.1663 91.8022 40.1966 92.0873 40.1692L92.0192 39.4614ZM91.4836 39.3998L91.7198 38.729L91.4675 38.6402L91.2313 39.3109L90.9951 39.9817L91.2474 40.0705L91.4836 39.3998ZM91.2313 39.3109L91.4675 38.6402L91.2152 38.5514L90.9791 39.2221L90.7429 39.8929L90.9951 39.9817L91.2313 39.3109ZM90.9791 39.2221L91.2152 38.5514C91.159 38.5316 91.0891 38.4922 91.0071 38.4114L90.5083 38.9183L90.0096 39.4252C90.2188 39.6311 90.4628 39.7942 90.7429 39.8929L90.9791 39.2221ZM90.5083 38.9183L91.0071 38.4114L90.7886 38.1965L90.2898 38.7034L89.7911 39.2102L90.0096 39.4252L90.5083 38.9183ZM90.2898 38.7034L90.7886 38.1965L90.5701 37.9815L90.0714 38.4884L89.5726 38.9953L89.7911 39.2102L90.2898 38.7034ZM90.0714 38.4884L90.5701 37.9815C90.3514 37.7663 90.0902 37.6013 89.7862 37.5169L89.5959 38.2021L89.4057 38.8873C89.4443 38.898 89.5 38.9238 89.5726 38.9953L90.0714 38.4884ZM89.5959 38.2021L89.7862 37.5169L89.5292 37.4455L89.339 38.1307L89.1487 38.8159L89.4057 38.8873L89.5959 38.2021ZM89.339 38.1307L89.5292 37.4455L89.2723 37.3742L89.082 38.0594L88.8918 38.7446L89.1487 38.8159L89.339 38.1307ZM89.082 38.0594L89.2723 37.3742C89.0765 37.3198 88.878 37.276 88.6769 37.2427L88.5607 37.9443L88.4445 38.6458C88.5959 38.6709 88.745 38.7038 88.8918 38.7446L89.082 38.0594ZM88.5607 37.9443L88.6769 37.2427L88.4125 37.1989L88.2964 37.9005L88.1802 38.602L88.4445 38.6458L88.5607 37.9443ZM88.2964 37.9005L88.4125 37.1989L88.1482 37.1552L88.032 37.8567L87.9159 38.5583L88.1802 38.602L88.2964 37.9005ZM88.032 37.8567L88.1482 37.1552C87.9165 37.1168 87.681 37.1058 87.443 37.1206L87.487 37.8303L87.5309 38.5401C87.6672 38.5316 87.7951 38.5383 87.9159 38.5583L88.032 37.8567ZM87.487 37.8303L87.443 37.1206L87.1623 37.1379L87.2062 37.8477L87.2501 38.5574L87.5309 38.5401L87.487 37.8303ZM87.2062 37.8477L87.1623 37.1379L86.8816 37.1553L86.9255 37.8651L86.9694 38.5748L87.2501 38.5574L87.2062 37.8477ZM86.9255 37.8651L86.8816 37.1553C86.7216 37.1652 86.5656 37.1656 86.4134 37.157L86.3729 37.8669L86.3323 38.5769C86.5426 38.5889 86.7551 38.5881 86.9694 38.5748L86.9255 37.8651ZM86.3729 37.8669L86.4134 37.157L86.1414 37.1414L86.1009 37.8514L86.0604 38.5614L86.3323 38.5769L86.3729 37.8669ZM86.1009 37.8514L86.1414 37.1414L85.8695 37.1259L85.829 37.8359L85.7885 38.5458L86.0604 38.5614L86.1009 37.8514ZM85.829 37.8359L85.8695 37.1259C85.8746 37.1262 85.8815 37.1272 85.8894 37.1294C85.8973 37.1316 85.9033 37.1343 85.9071 37.1363C85.9149 37.1405 85.9053 37.1376 85.882 37.1109L85.346 37.5781L84.8099 38.0453C85.052 38.3231 85.3819 38.5226 85.7885 38.5458L85.829 37.8359ZM85.346 37.5781L85.882 37.1109L85.6709 36.8686L85.1348 37.3358L84.5987 37.803L84.8099 38.0453L85.346 37.5781ZM85.1348 37.3358L85.6709 36.8686L85.4597 36.6263L84.9236 37.0935L84.3876 37.5607L84.5987 37.803L85.1348 37.3358ZM84.9236 37.0935L85.4597 36.6263C85.3092 36.4535 85.1015 36.3055 84.8346 36.249C84.5715 36.1934 84.326 36.2426 84.124 36.3281L84.4011 36.983L84.6782 37.6379C84.6838 37.6355 84.6292 37.6593 84.5403 37.6405C84.4476 37.6208 84.3974 37.572 84.3876 37.5607L84.9236 37.0935ZM84.4011 36.983L84.124 36.3281L83.8126 36.4599L84.0897 37.1148L84.3669 37.7696L84.6782 37.6379L84.4011 36.983ZM84.0897 37.1148L83.8126 36.4599L83.5012 36.5916L83.7783 37.2465L84.0555 37.9014L84.3669 37.7696L84.0897 37.1148ZM83.7783 37.2465L83.5012 36.5916C83.4801 36.6006 83.5041 36.5858 83.5593 36.5914C83.5866 36.5941 83.6143 36.6012 83.6399 36.6122C83.6651 36.6231 83.6824 36.6351 83.6919 36.6429L83.2407 37.1925L82.7895 37.7421C82.9638 37.8853 83.1763 37.9823 83.4172 38.0065C83.6517 38.03 83.869 37.9803 84.0555 37.9014L83.7783 37.2465ZM83.2407 37.1925L83.6919 36.6429L83.4656 36.4571L83.0144 37.0067L82.5632 37.5564L82.7895 37.7421L83.2407 37.1925ZM83.0144 37.0067L83.4656 36.4571L83.2393 36.2713L82.7881 36.821L82.3369 37.3706L82.5632 37.5564L83.0144 37.0067ZM82.7881 36.821L83.2393 36.2713C82.9511 36.0348 82.6004 35.9185 82.2214 35.9496L82.2795 36.6583L82.3376 37.367C82.342 37.3667 82.3427 37.367 82.3405 37.3668C82.3382 37.3665 82.3348 37.3659 82.3312 37.3647C82.3276 37.3636 82.3257 37.3625 82.326 37.3627C82.3264 37.3629 82.33 37.365 82.3369 37.3706L82.7881 36.821ZM82.2795 36.6583L82.2214 35.9496L81.9392 35.9727L81.9972 36.6814L82.0553 37.3902L82.3376 37.367L82.2795 36.6583ZM81.9972 36.6814L81.9392 35.9727L81.6569 35.9958L81.715 36.7046L81.7731 37.4133L82.0553 37.3902L81.9972 36.6814ZM81.715 36.7046L81.6569 35.9958C81.5262 36.0065 81.4059 36.0006 81.2939 35.9807L81.1692 36.6807L81.0445 37.3808C81.2839 37.4235 81.5274 37.4334 81.7731 37.4133L81.715 36.7046ZM81.1692 36.6807L81.2939 35.9807L81.0305 35.9337L80.9057 36.6338L80.781 37.3339L81.0445 37.3808L81.1692 36.6807ZM80.9057 36.6338L81.0305 35.9337L80.767 35.8868L80.6422 36.5869L80.5175 37.2869L80.781 37.3339L80.9057 36.6338ZM80.6422 36.5869L80.767 35.8868C80.7497 35.8837 80.7135 35.8741 80.6544 35.8169L80.1596 36.3275L79.6647 36.8382C79.8978 37.0641 80.1834 37.2274 80.5175 37.2869L80.6422 36.5869ZM80.1596 36.3275L80.6544 35.8169L80.4353 35.6045L79.9404 36.1151L79.4455 36.6258L79.6647 36.8382L80.1596 36.3275ZM79.9404 36.1151L80.4353 35.6045L80.2161 35.3921L79.7212 35.9027L79.2264 36.4134L79.4455 36.6258L79.9404 36.1151ZM79.7212 35.9027L80.2161 35.3921C80.0089 35.1913 79.7698 35.0312 79.4975 34.9305L79.2509 35.5975L79.0043 36.2645C79.0669 36.2876 79.1414 36.331 79.2264 36.4134L79.7212 35.9027ZM79.2509 35.5975L79.4975 34.9305L79.2463 34.8376L78.9997 35.5046L78.7531 36.1716L79.0043 36.2645L79.2509 35.5975ZM78.9997 35.5046L79.2463 34.8376L78.9951 34.7448L78.7485 35.4118L78.5019 36.0787L78.7531 36.1716L78.9997 35.5046ZM78.7485 35.4118L78.9951 34.7448C78.7649 34.6597 78.5262 34.6079 78.281 34.5892L78.2268 35.2982L78.1726 36.0073C78.288 36.0161 78.3971 36.04 78.5019 36.0787L78.7485 35.4118ZM78.2268 35.2982L78.281 34.5892L78.0104 34.5685L77.9562 35.2775L77.9021 35.9866L78.1726 36.0073L78.2268 35.2982ZM77.9562 35.2775L78.0104 34.5685L77.7399 34.5478L77.6857 35.2569L77.6315 35.9659L77.9021 35.9866L77.9562 35.2775ZM77.6857 35.2569L77.7399 34.5478C77.5132 34.5305 77.2839 34.5352 77.0527 34.5607L77.1307 35.2676L77.2087 35.9744C77.3568 35.958 77.4975 35.9557 77.6315 35.9659L77.6857 35.2569ZM77.1307 35.2676L77.0527 34.5607L76.7682 34.5921L76.8462 35.299L76.9242 36.0058L77.2087 35.9744L77.1307 35.2676ZM76.8462 35.299L76.7682 34.5921L76.4837 34.6235L76.5617 35.3303L76.6397 36.0372L76.9242 36.0058L76.8462 35.299ZM76.5617 35.3303L76.4837 34.6235C76.3623 34.6369 76.2548 34.6314 76.1578 34.6116L76.0155 35.3083L75.8732 36.005C76.1252 36.0565 76.3818 36.0656 76.6397 36.0372L76.5617 35.3303ZM76.0155 35.3083L76.1578 34.6116L75.896 34.5581L75.7537 35.2548L75.6115 35.9516L75.8732 36.005L76.0155 35.3083ZM75.7537 35.2548L75.896 34.5581L75.6343 34.5047L75.492 35.2014L75.3497 35.8981L75.6115 35.9516L75.7537 35.2548ZM75.492 35.2014L75.6343 34.5047C75.6044 34.4986 75.559 34.482 75.4948 34.422L75.0094 34.9417L74.5241 35.4615C74.7543 35.6764 75.0305 35.8329 75.3497 35.8981L75.492 35.2014ZM75.0094 34.9417L75.4948 34.422L75.2739 34.2158L74.7886 34.7355L74.3033 35.2553L74.5241 35.4615L75.0094 34.9417ZM74.7886 34.7355L75.2739 34.2158L75.0531 34.0096L74.5678 34.5293L74.0824 35.0491L74.3033 35.2553L74.7886 34.7355ZM74.5678 34.5293L75.0531 34.0096C74.8068 33.7796 74.5031 33.6244 74.1518 33.5879L74.0784 34.2952L74.0049 35.0025C74.0117 35.0032 74.0343 35.0041 74.0824 35.0491L74.5678 34.5293ZM74.0784 34.2952L74.1518 33.5879L73.8832 33.56L73.8098 34.2673L73.7363 34.9746L74.0049 35.0025L74.0784 34.2952ZM73.8098 34.2673L73.8832 33.56L73.6146 33.5321L73.5412 34.2394L73.4677 34.9467L73.7363 34.9746L73.8098 34.2673ZM73.5412 34.2394L73.6146 33.5321C73.5558 33.526 73.498 33.5067 73.4339 33.4638L73.0385 34.0549L72.643 34.6459C72.8911 34.8119 73.1684 34.9156 73.4677 34.9467L73.5412 34.2394ZM73.0385 34.0549L73.4339 33.4638L73.1998 33.3072L72.8043 33.8983L72.4089 34.4893L72.643 34.6459L73.0385 34.0549ZM72.8043 33.8983L73.1998 33.3072L72.9656 33.1506L72.5702 33.7416L72.1748 34.3327L72.4089 34.4893L72.8043 33.8983ZM72.5702 33.7416L72.9656 33.1506C72.6239 32.922 72.2336 32.8767 71.8586 32.9752L72.0392 33.663L72.2198 34.3508C72.2391 34.3457 72.2354 34.35 72.2162 34.3471C72.2073 34.3458 72.1981 34.3433 72.1896 34.34C72.1813 34.3367 72.1763 34.3337 72.1748 34.3327L72.5702 33.7416ZM72.0392 33.663L71.8586 32.9752L71.5616 33.0532L71.7422 33.741L71.9228 34.4288L72.2198 34.3508L72.0392 33.663ZM71.7422 33.741L71.5616 33.0532L71.2646 33.1312L71.4452 33.819L71.6258 34.5067L71.9228 34.4288L71.7422 33.741ZM71.4452 33.819L71.2646 33.1312C71.2525 33.1343 71.2665 33.1287 71.2968 33.1344C71.3109 33.137 71.3242 33.1414 71.3355 33.1466C71.3467 33.1518 71.353 33.1563 71.3545 33.1575L70.9196 33.7201L70.4846 34.2827C70.8239 34.545 71.2297 34.6108 71.6258 34.5067L71.4452 33.819ZM70.9196 33.7201L71.3545 33.1575L71.1259 32.9807L70.6909 33.5433L70.2559 34.1058L70.4846 34.2827L70.9196 33.7201ZM70.6909 33.5433L71.1259 32.9807L70.8972 32.8039L70.4622 33.3664L70.0272 33.929L70.2559 34.1058L70.6909 33.5433ZM70.4622 33.3664L70.8972 32.8039C70.6936 32.6465 70.473 32.5199 70.2355 32.4297L69.9829 33.0944L69.7303 33.7591C69.8269 33.7959 69.9258 33.8506 70.0272 33.929L70.4622 33.3664ZM69.9829 33.0944L70.2355 32.4297L69.985 32.3345L69.7324 32.9992L69.4798 33.6639L69.7303 33.7591L69.9829 33.0944ZM69.7324 32.9992L69.985 32.3345L69.7344 32.2392L69.4818 32.904L69.2292 33.5687L69.4798 33.6639L69.7324 32.9992ZM69.4818 32.904L69.7344 32.2392C69.4883 32.1457 69.2314 32.0976 68.9679 32.0933L68.9564 32.8043L68.9449 33.5153C69.0478 33.517 69.1412 33.5353 69.2292 33.5687L69.4818 32.904ZM68.9564 32.8043L68.9679 32.0933L68.693 32.0889L68.6815 32.7999L68.67 33.5109L68.9449 33.5153L68.9564 32.8043ZM68.6815 32.7999L68.693 32.0889L68.4181 32.0844L68.4066 32.7954L68.3951 33.5064L68.67 33.5109L68.6815 32.7999ZM68.4066 32.7954L68.4181 32.0844C68.2549 32.0818 68.154 32.0707 68.1002 32.0602L67.9638 32.7581L67.8273 33.456C67.9975 33.4893 68.1918 33.5031 68.3951 33.5064L68.4066 32.7954ZM67.9638 32.7581L68.1002 32.0602L67.9323 32.0274L67.7958 32.7253L67.6594 33.4232L67.8273 33.456L67.9638 32.7581ZM67.7958 32.7253L67.9323 32.0274L67.7644 31.9946L67.6279 32.6924L67.4914 33.3903L67.6594 33.4232L67.7958 32.7253ZM67.6279 32.6924L67.7644 31.9946C67.7896 31.9995 67.9188 32.0252 68.0464 32.1418C68.1178 32.207 68.185 32.2979 68.2253 32.414C68.2651 32.5289 68.2677 32.6368 68.2556 32.7226C68.2338 32.8757 68.1645 32.9684 68.1529 32.9841C68.1334 33.0102 68.123 33.0176 68.1371 33.0047L67.6582 32.479L67.1793 31.9533C67.1274 32.0006 67.0661 32.062 67.0111 32.1361C66.9639 32.1997 66.8742 32.3341 66.8475 32.5227C66.8135 32.7615 66.8925 33.014 67.0872 33.1918C67.2403 33.3316 67.4102 33.3745 67.4914 33.3903L67.6279 32.6924ZM67.6582 32.479L68.1371 33.0047L68.3354 32.8241L67.8565 32.2984L67.3776 31.7727L67.1793 31.9533L67.6582 32.479ZM67.8565 32.2984L68.3354 32.8241L68.5336 32.6435L68.0547 32.1178L67.5758 31.5921L67.3776 31.7727L67.8565 32.2984ZM68.0547 32.1178L68.5336 32.6435C68.7013 32.4907 68.8521 32.3224 68.9856 32.1391L68.4106 31.7206L67.8357 31.3021C67.7589 31.4076 67.6725 31.5041 67.5758 31.5921L68.0547 32.1178ZM68.4106 31.7206L68.9856 32.1391L69.1432 31.9225L68.5683 31.504L67.9934 31.0855L67.8357 31.3021L68.4106 31.7206ZM68.5683 31.504L69.1432 31.9225L69.3009 31.7059L68.726 31.2874L68.151 30.8689L67.9934 31.0855L68.5683 31.504ZM68.726 31.2874L69.3009 31.7059C69.4178 31.5452 69.5282 31.3792 69.6322 31.208L69.0242 30.8391L68.4163 30.4701C68.3328 30.6078 68.2443 30.7407 68.151 30.8689L68.726 31.2874ZM69.0242 30.8391L69.6322 31.208L69.7728 30.9763L69.1649 30.6073L68.557 30.2384L68.4163 30.4701L69.0242 30.8391ZM69.1649 30.6073L69.7728 30.9763L69.9134 30.7446L69.3055 30.3756L68.6976 30.0067L68.557 30.2384L69.1649 30.6073ZM69.3055 30.3756L69.9134 30.7446C70.0099 30.5856 70.1048 30.4253 70.1981 30.2637L69.5822 29.9082L68.9663 29.5527C68.8782 29.7054 68.7886 29.8567 68.6976 30.0067L69.3055 30.3756ZM69.5822 29.9082L70.1981 30.2637L70.3342 30.028L69.7183 29.6724L69.1024 29.3169L68.9663 29.5527L69.5822 29.9082ZM69.7183 29.6724L70.3342 30.028L70.4702 29.7922L69.8544 29.4367L69.2385 29.0812L69.1024 29.3169L69.7183 29.6724ZM69.8544 29.4367L70.4702 29.7922C70.5307 29.6874 70.6016 29.595 70.6829 29.5133L70.1789 29.0116L69.6748 28.51C69.5049 28.6807 69.3594 28.8717 69.2385 29.0812L69.8544 29.4367ZM70.1789 29.0116L70.6829 29.5133L70.8713 29.3239L70.3673 28.8223L69.8632 28.3207L69.6748 28.51L70.1789 29.0116ZM70.3673 28.8223L70.8713 29.3239L71.0597 29.1346L70.5557 28.633L70.0517 28.1314L69.8632 28.3207L70.3673 28.8223ZM70.5557 28.633L71.0597 29.1346C71.2223 28.9712 71.3657 28.7913 71.4894 28.5958L70.8887 28.2154L70.2879 27.835C70.2189 27.9438 70.1403 28.0423 70.0517 28.1314L70.5557 28.633ZM70.8887 28.2154L71.4894 28.5958L71.634 28.3676L71.0332 27.9872L70.4324 27.6067L70.2879 27.835L70.8887 28.2154ZM71.0332 27.9872L71.634 28.3676L71.7785 28.1394L71.1777 27.7589L70.5769 27.3785L70.4324 27.6067L71.0332 27.9872ZM71.1777 27.7589L71.7785 28.1394C71.8721 27.9915 71.9671 27.845 72.0636 27.6998L71.4712 27.3064L70.8789 26.9129C70.7767 27.0668 70.676 27.222 70.5769 27.3785L71.1777 27.7589ZM71.4712 27.3064L72.0636 27.6998L72.2126 27.4755L71.6202 27.0821L71.0278 26.6886L70.8789 26.9129L71.4712 27.3064ZM71.6202 27.0821L72.2126 27.4755L72.3615 27.2512L71.7692 26.8577L71.1768 26.4643L71.0278 26.6886L71.6202 27.0821ZM71.7692 26.8577L72.3615 27.2512C72.4155 27.17 72.4814 27.1 72.5624 27.0393L72.136 26.4702L71.7096 25.9011C71.5002 26.058 71.3215 26.2464 71.1768 26.4643L71.7692 26.8577ZM72.136 26.4702L72.5624 27.0393L72.7802 26.8761L72.3539 26.307L71.9275 25.7379L71.7096 25.9011L72.136 26.4702ZM72.3539 26.307L72.7802 26.8761L72.9981 26.7129L72.5717 26.1438L72.1453 25.5747L71.9275 25.7379L72.3539 26.307ZM72.5717 26.1438L72.9981 26.7129C73.1654 26.5875 73.3241 26.4535 73.4739 26.3107L72.9833 25.7959L72.4927 25.2811C72.3842 25.3845 72.2685 25.4824 72.1453 25.5747L72.5717 26.1438ZM72.9833 25.7959L73.4739 26.3107L73.6676 26.1261L73.177 25.6113L72.6864 25.0965L72.4927 25.2811L72.9833 25.7959ZM73.177 25.6113L73.6676 26.1261L73.8613 25.9415L73.3707 25.4267L72.8802 24.9119L72.6864 25.0965L73.177 25.6113ZM73.3707 25.4267L73.8613 25.9415C73.9749 25.8332 74.0941 25.7295 74.2189 25.6303L73.7764 25.0736L73.334 24.5169C73.1762 24.6423 73.0249 24.774 72.8802 24.9119L73.3707 25.4267ZM73.7764 25.0736L74.2189 25.6303L74.4308 25.4618L73.9884 24.9051L73.5459 24.3484L73.334 24.5169L73.7764 25.0736ZM73.9884 24.9051L74.4308 25.4618L74.6428 25.2934L74.2003 24.7367L73.7579 24.18L73.5459 24.3484L73.9884 24.9051ZM74.2003 24.7367L74.6428 25.2934C74.8658 25.1161 75.0428 24.8972 75.1712 24.6436L74.5369 24.3223L73.9025 24.0009C73.8648 24.0753 73.8175 24.1326 73.7579 24.18L74.2003 24.7367ZM74.5369 24.3223L75.1712 24.6436L75.2958 24.3976L74.6614 24.0763L74.0271 23.755L73.9025 24.0009L74.5369 24.3223ZM74.6614 24.0763L75.2958 24.3976L75.4204 24.1517L74.786 23.8304L74.1516 23.5091L74.0271 23.755L74.6614 24.0763ZM74.786 23.8304L75.4204 24.1517C75.4199 24.1526 75.4181 24.1558 75.4147 24.1602C75.4112 24.1646 75.4075 24.1682 75.4044 24.1708C75.4013 24.1732 75.4005 24.1734 75.4034 24.1718C75.4064 24.1702 75.4139 24.1666 75.4272 24.1621L75.203 23.4873L74.9788 22.8125C74.6287 22.9288 74.3297 23.1575 74.1516 23.5091L74.786 23.8304ZM75.203 23.4873L75.4272 24.1621L75.7195 24.065L75.4953 23.3902L75.2711 22.7153L74.9788 22.8125L75.203 23.4873ZM75.4953 23.3902L75.7195 24.065L76.0119 23.9679L75.7877 23.293L75.5635 22.6182L75.2711 22.7153L75.4953 23.3902ZM75.7877 23.293L76.0119 23.9679C76.3232 23.8645 76.6034 23.6835 76.8099 23.4074L76.2403 22.9816L75.6708 22.5558C75.6636 22.5654 75.6421 22.5921 75.5635 22.6182L75.7877 23.293ZM76.2403 22.9816L76.8099 23.4074L76.9701 23.193L76.4006 22.7672L75.831 22.3414L75.6708 22.5558L76.2403 22.9816ZM76.4006 22.7672L76.9701 23.193L77.1303 22.9787L76.5608 22.5529L75.9913 22.1271L75.831 22.3414L76.4006 22.7672ZM76.5608 22.5529L77.1303 22.9787C77.2595 22.806 77.3752 22.623 77.4777 22.4303L76.8498 22.0964L76.222 21.7625C76.1528 21.8927 76.0758 22.0141 75.9913 22.1271L76.5608 22.5529ZM76.8498 22.0964L77.4777 22.4303L77.6065 22.1881L76.9786 21.8542L76.3508 21.5203L76.222 21.7625L76.8498 22.0964ZM76.9786 21.8542L77.6065 22.1881L77.7353 21.9459L77.1074 21.612L76.4796 21.2781L76.3508 21.5203L76.9786 21.8542ZM77.1074 21.612L77.7353 21.9459C77.8197 21.7872 77.905 21.6293 77.9912 21.4722L77.3678 21.1301L76.7444 20.788C76.6552 20.9505 76.5669 21.1139 76.4796 21.2781L77.1074 21.612ZM77.3678 21.1301L77.9912 21.4722L78.1228 21.2324L77.4994 20.8903L76.8759 20.5482L76.7444 20.788L77.3678 21.1301ZM77.4994 20.8903L78.1228 21.2324L78.2543 20.9927L77.6309 20.6506L77.0075 20.3085L76.8759 20.5482L77.4994 20.8903ZM77.6309 20.6506L78.2543 20.9927C78.3428 20.8314 78.4308 20.6698 78.5183 20.5077L77.8926 20.1698L77.2669 19.8319C77.1809 19.9912 77.0944 20.15 77.0075 20.3085L77.6309 20.6506ZM77.8926 20.1698L78.5183 20.5077L78.6485 20.2667L78.0228 19.9288L77.3971 19.5909L77.2669 19.8319L77.8926 20.1698ZM78.0228 19.9288L78.6485 20.2667L78.7786 20.0257L78.1529 19.6878L77.5272 19.3499L77.3971 19.5909L78.0228 19.9288ZM78.1529 19.6878L78.7786 20.0257C78.7778 20.0272 78.7757 20.0306 78.7722 20.0349C78.7686 20.0391 78.7651 20.0423 78.7626 20.0442C78.7602 20.0461 78.7603 20.0456 78.7644 20.0435C78.7687 20.0414 78.7775 20.0374 78.7923 20.0327L78.5803 19.354L78.3683 18.6752C78.0193 18.7842 77.7144 19.0033 77.5272 19.3499L78.1529 19.6878ZM78.5803 19.354L78.7923 20.0327L79.0895 19.9399L78.8775 19.2611L78.6655 18.5823L78.3683 18.6752L78.5803 19.354ZM78.8775 19.2611L79.0895 19.9399L79.3868 19.847L79.1747 19.1683L78.9627 18.4895L78.6655 18.5823L78.8775 19.2611ZM79.1747 19.1683L79.3868 19.847C79.8219 19.7111 80.1318 19.3849 80.2322 18.9313L79.5379 18.7775L78.8437 18.6238C78.845 18.6176 78.8558 18.5803 78.8933 18.54C78.9302 18.5003 78.9636 18.4892 78.9627 18.4895L79.1747 19.1683ZM79.5379 18.7775L80.2322 18.9313L80.2982 18.6334L79.6039 18.4796L78.9096 18.3259L78.8437 18.6238L79.5379 18.7775ZM79.6039 18.4796L80.2982 18.6334L80.3642 18.3354L79.6699 18.1817L78.9756 18.028L78.9096 18.3259L79.6039 18.4796ZM79.6699 18.1817L80.3642 18.3354C80.3634 18.3391 80.354 18.3732 80.3194 18.4114C80.3035 18.4289 80.2872 18.4418 80.2734 18.4504C80.26 18.4588 80.2519 18.4614 80.2528 18.4611L80.028 17.7865L79.8032 17.1118C79.374 17.2548 79.0742 17.5825 78.9756 18.028L79.6699 18.1817ZM80.028 17.7865L80.2528 18.4611L80.5449 18.3638L80.3202 17.6891L80.0954 17.0145L79.8032 17.1118L80.028 17.7865ZM80.3202 17.6891L80.5449 18.3638L80.8371 18.2664L80.6123 17.5918L80.3875 16.9171L80.0954 17.0145L80.3202 17.6891ZM80.6123 17.5918L80.8371 18.2664C81.2298 18.1356 81.5347 17.8535 81.6708 17.4419L80.9956 17.2188L80.3204 16.9957C80.3211 16.9935 80.324 16.9856 80.3309 16.9744C80.3379 16.9629 80.3471 16.9511 80.3583 16.9402C80.382 16.9171 80.3987 16.9134 80.3875 16.9171L80.6123 17.5918ZM80.9956 17.2188L81.6708 17.4419L81.7619 17.1663L81.0867 16.9432L80.4115 16.72L80.3204 16.9957L80.9956 17.2188ZM81.0867 16.9432L81.7619 17.1663L81.8529 16.8907L81.1778 16.6675L80.5026 16.4444L80.4115 16.72L81.0867 16.9432ZM81.1778 16.6675L81.8529 16.8907C81.856 16.8815 81.8584 16.8766 81.8594 16.8747C81.8604 16.8728 81.8605 16.873 81.8596 16.8742C81.8592 16.8747 81.8587 16.8752 81.8583 16.8756C81.8578 16.8761 81.8576 16.8763 81.8576 16.8763C81.8576 16.8762 81.8581 16.8758 81.8591 16.8751C81.8602 16.8744 81.8619 16.8733 81.8645 16.8718L81.5141 16.253L81.1638 15.6342C80.8416 15.8166 80.6169 16.0985 80.5026 16.4444L81.1778 16.6675ZM81.5141 16.253L81.8645 16.8718L82.1098 16.7329L81.7594 16.1141L81.4091 15.4953L81.1638 15.6342L81.5141 16.253ZM81.7594 16.1141L82.1098 16.7329L82.3551 16.594L82.0047 15.9752L81.6544 15.3564L81.4091 15.4953L81.7594 16.1141ZM82.0047 15.9752L82.3551 16.594C82.6442 16.4303 82.8687 16.1914 83.0116 15.8893L82.3688 15.5852L81.726 15.2811C81.7105 15.3139 81.6923 15.3349 81.6544 15.3564L82.0047 15.9752ZM82.3688 15.5852L83.0116 15.8893L83.1304 15.6382L82.4876 15.3342L81.8448 15.0301L81.726 15.2811L82.3688 15.5852ZM82.4876 15.3342L83.1304 15.6382L83.2492 15.3872L82.6064 15.0831L81.9636 14.779L81.8448 15.0301L82.4876 15.3342ZM82.6064 15.0831L83.2492 15.3872C83.2624 15.3593 83.2772 15.3414 83.3138 15.3216L82.9744 14.6966L82.6351 14.0717C82.3393 14.2323 82.1087 14.4721 81.9636 14.779L82.6064 15.0831ZM82.9744 14.6966L83.3138 15.3216L83.563 15.1862L83.2237 14.5613L82.8844 13.9363L82.6351 14.0717L82.9744 14.6966ZM83.2237 14.5613L83.563 15.1862L83.8123 15.0508L83.473 14.4259L83.1336 13.801L82.8844 13.9363L83.2237 14.5613ZM83.473 14.4259L83.8123 15.0508C84.0225 14.9367 84.217 14.8025 84.3936 14.6473L83.9241 14.1131L83.4547 13.579C83.3621 13.6604 83.2558 13.7347 83.1336 13.801L83.473 14.4259ZM83.9241 14.1131L84.3936 14.6473L84.5954 14.4699L84.126 13.9357L83.6565 13.4016L83.4547 13.579L83.9241 14.1131ZM84.126 13.9357L84.5954 14.4699L84.7973 14.2925L84.3278 13.7583L83.8584 13.2242L83.6565 13.4016L84.126 13.9357ZM84.3278 13.7583L84.7973 14.2925C85.0104 14.1052 85.1755 13.8786 85.2925 13.6211L84.6452 13.3269L83.9978 13.0326C83.9608 13.1139 83.9144 13.1749 83.8584 13.2242L84.3278 13.7583ZM84.6452 13.3269L85.2925 13.6211L85.408 13.3671L84.7606 13.0729L84.1133 12.7786L83.9978 13.0326L84.6452 13.3269ZM84.7606 13.0729L85.408 13.3671L85.5235 13.1131L84.8761 12.8188L84.2287 12.5246L84.1133 12.7786L84.7606 13.0729ZM84.8761 12.8188L85.5235 13.1131C85.5901 12.9666 85.6629 12.827 85.7417 12.694L85.1301 12.3313L84.5185 11.9685C84.4126 12.147 84.3161 12.3324 84.2287 12.5246L84.8761 12.8188ZM85.1301 12.3313L85.7417 12.694L85.8802 12.4605L85.2686 12.0977L84.657 11.7349L84.5185 11.9685L85.1301 12.3313ZM85.2686 12.0977L85.8802 12.4605L86.0188 12.2269L85.4072 11.8641L84.7956 11.5014L84.657 11.7349L85.2686 12.0977ZM85.4072 11.8641L86.0188 12.2269C86.0945 12.0993 86.1774 11.9795 86.2676 11.867L85.7127 11.4222L85.1578 10.9775C85.0253 11.1428 84.9046 11.3175 84.7956 11.5014L85.4072 11.8641ZM85.7127 11.4222L86.2676 11.867L86.4346 11.6586L85.8797 11.2139L85.3248 10.7692L85.1578 10.9775L85.7127 11.4222ZM85.8797 11.2139L86.4346 11.6586L86.6015 11.4503L86.0467 11.0056L85.4918 10.5608L85.3248 10.7692L85.8797 11.2139ZM86.0467 11.0056L86.6015 11.4503C86.6717 11.3628 86.7541 11.2843 86.851 11.2146L86.4354 10.6375L86.0199 10.0604C85.821 10.2036 85.6443 10.3705 85.4918 10.5608L86.0467 11.0056ZM86.4354 10.6375L86.851 11.2146L87.0728 11.0548L86.6572 10.4778L86.2417 9.90071L86.0199 10.0604L86.4354 10.6375ZM86.6572 10.4778L87.0728 11.0548L87.2946 10.8951L86.879 10.318L86.4635 9.74099L86.2417 9.90071L86.6572 10.4778ZM86.879 10.318L87.2946 10.8951C87.4394 10.7908 87.5852 10.6876 87.7323 10.5852L87.326 10.0016L86.9198 9.41793C86.7666 9.52459 86.6145 9.63227 86.4635 9.74099L86.879 10.318ZM87.326 10.0016L87.7323 10.5852L87.9574 10.4285L87.5512 9.84486L87.145 9.2612L86.9198 9.41793L87.326 10.0016ZM87.5512 9.84486L87.9574 10.4285L88.1826 10.2718L87.7764 9.68813L87.3702 9.10447L87.145 9.2612L87.5512 9.84486ZM87.7764 9.68813L88.1826 10.2718C88.4914 10.0569 88.6808 9.74902 88.7634 9.4016L88.0716 9.23706L87.3798 9.07253C87.3731 9.10037 87.3668 9.1091 87.3677 9.1076C87.368 9.10718 87.3689 9.10599 87.3702 9.10469C87.3714 9.10341 87.3717 9.10337 87.3702 9.10447L87.7764 9.68813ZM88.0716 9.23706L88.7634 9.4016L88.8334 9.10727L88.1416 8.94273L87.4498 8.77819L87.3798 9.07253L88.0716 9.23706ZM88.1416 8.94273L88.8334 9.10727L88.9034 8.81293L88.2116 8.64839L87.5198 8.48386L87.4498 8.77819L88.1416 8.94273ZM88.2116 8.64839L88.9034 8.81293C88.9196 8.74461 88.94 8.72727 88.9477 8.72068L88.4866 8.17941L88.0254 7.63814C87.7598 7.86442 87.5968 8.15973 87.5198 8.48386L88.2116 8.64839ZM88.4866 8.17941L88.9477 8.72068L89.1527 8.54604L88.6915 8.00476L88.2303 7.46349L88.0254 7.63814L88.4866 8.17941ZM88.6915 8.00476L89.1527 8.54604L89.3577 8.37139L88.8965 7.83011L88.4353 7.28884L88.2303 7.46349L88.6915 8.00476ZM88.8965 7.83011L89.3577 8.37139C89.4984 8.25152 89.6375 8.13025 89.7751 8.00759L89.3019 7.47678L88.8287 6.94598C88.699 7.06156 88.5679 7.17584 88.4353 7.28884L88.8965 7.83011ZM89.3019 7.47678L89.7751 8.00759L89.9755 7.8289L89.5023 7.2981L89.0291 6.7673L88.8287 6.94598L89.3019 7.47678ZM89.5023 7.2981L89.9755 7.8289L90.176 7.65022L89.7028 7.11942L89.2295 6.58862L89.0291 6.7673L89.5023 7.2981ZM89.7028 7.11942L90.176 7.65022C90.3145 7.52672 90.4511 7.40147 90.5858 7.27449L90.098 6.75707L89.6102 6.23966C89.4851 6.35756 89.3582 6.47388 89.2295 6.58862L89.7028 7.11942ZM90.098 6.75707L90.5858 7.27449L90.7806 7.09082L90.2928 6.57341L89.805 6.056L89.6102 6.23966L90.098 6.75707ZM90.2928 6.57341L90.7806 7.09082L90.9754 6.90716L90.4876 6.38975L89.9998 5.87234L89.805 6.056L90.2928 6.57341ZM90.4876 6.38975L90.9754 6.90716C91.1958 6.69936 91.3519 6.44594 91.4488 6.16342L90.7761 5.93277L90.1035 5.70213C90.0754 5.78402 90.0391 5.83525 89.9998 5.87234L90.4876 6.38975ZM90.7761 5.93277L91.4488 6.16342L91.5425 5.89011L90.8698 5.65947L90.1972 5.42882L90.1035 5.70213L90.7761 5.93277ZM90.8698 5.65947L91.5425 5.89011L91.6362 5.61681L90.9635 5.38616L90.2909 5.15551L90.1972 5.42882L90.8698 5.65947ZM90.9635 5.38616L91.6362 5.61681C91.6344 5.62206 91.6299 5.63313 91.6208 5.64721C91.6116 5.66152 91.5998 5.6754 91.5865 5.68743C91.5586 5.71265 91.5404 5.71508 91.5557 5.71074L91.3619 5.02655L91.168 4.34237C90.7658 4.45631 90.4371 4.72912 90.2909 5.15551L90.9635 5.38616ZM91.3619 5.02655L91.5557 5.71074L91.8603 5.62444L91.6665 4.94025L91.4726 4.25607L91.168 4.34237L91.3619 5.02655ZM91.6665 4.94025L91.8603 5.62444L92.1649 5.53814L91.9711 4.85396L91.7773 4.16977L91.4726 4.25607L91.6665 4.94025ZM91.9711 4.85396L92.1649 5.53814C92.4963 5.44427 92.7999 5.25906 93.0125 4.95458L92.4294 4.54752L91.8463 4.14047C91.8462 4.14065 91.8464 4.14036 91.8466 4.14013C91.8468 4.13993 91.8458 4.14097 91.8427 4.14306C91.8366 4.14714 91.8176 4.15833 91.7773 4.16977L91.9711 4.85396ZM92.4294 4.54752L93.0125 4.95458L93.1661 4.73445L92.5831 4.32739L92 3.92033L91.8463 4.14047L92.4294 4.54752ZM92.5831 4.32739L93.1661 4.73445L93.3198 4.51431L92.7367 4.10726L92.1537 3.7002L92 3.92033L92.5831 4.32739ZM92.7367 4.10726L93.3198 4.51431C93.4198 4.37115 93.5093 4.24587 93.5886 4.13799L93.0158 3.71665L92.4429 3.29532C92.3551 3.41473 92.2586 3.54985 92.1537 3.7002L92.7367 4.10726ZM93.0158 3.71665L93.5886 4.13799L93.714 3.96752L93.1412 3.54619L92.5683 3.12485L92.4429 3.29532L93.0158 3.71665ZM93.1412 3.54619L93.714 3.96752L93.8394 3.79705L93.2666 3.37572L92.6937 2.95438L92.5683 3.12485L93.1412 3.54619ZM93.2666 3.37572L93.8394 3.79705C93.8855 3.7344 93.9367 3.6613 93.9766 3.58976C93.9935 3.5594 94.0307 3.49057 94.0561 3.4024C94.0683 3.35982 94.0909 3.26951 94.0845 3.15453C94.0777 3.0337 94.0329 2.82324 93.8435 2.65522L93.3717 3.18727L92.8999 3.71933C92.7138 3.5543 92.6708 3.34843 92.6644 3.23377C92.6584 3.12496 92.6797 3.04242 92.6893 3.00919C92.7008 2.96933 92.7133 2.94039 92.7196 2.92664C92.7266 2.91134 92.7322 2.90103 92.7345 2.89698C92.7393 2.88827 92.7312 2.90339 92.6937 2.95438L93.2666 3.37572ZM93.3717 3.18727L93.8435 2.65522L93.8232 2.63724L93.3514 3.1693L92.8796 3.70135L92.8999 3.71933L93.3717 3.18727ZM93.3514 3.1693L93.8232 2.63724L93.8029 2.61926L93.3311 3.15132L92.8593 3.68337L92.8796 3.70135L93.3514 3.1693ZM93.3311 3.15132L93.8029 2.61926C93.7817 2.60046 93.7438 2.56899 93.6913 2.53801C93.6449 2.51058 93.5425 2.45675 93.3996 2.44251C93.2322 2.42584 93.0303 2.46776 92.8629 2.6128C92.717 2.73914 92.6629 2.88773 92.6422 2.96303C92.6041 3.1021 92.6195 3.21738 92.6217 3.23603C92.6263 3.27646 92.6335 3.30847 92.6375 3.32486C92.651 3.38127 92.6705 3.4327 92.6775 3.45137C92.6984 3.5066 92.7293 3.58053 92.7657 3.66503L93.4187 3.38346L94.0717 3.1019C94.0362 3.01965 94.0166 2.97151 94.0082 2.94936C94.0007 2.92934 94.0109 2.95325 94.0205 2.99332C94.0235 3.00561 94.03 3.03424 94.0344 3.07198C94.0362 3.08793 94.0516 3.20122 94.0139 3.33899C93.9934 3.41365 93.9395 3.56176 93.794 3.6878C93.6269 3.83255 93.4255 3.87435 93.2586 3.85773C93.1161 3.84354 93.0144 3.78993 92.9686 3.76291C92.9168 3.73232 92.8797 3.70143 92.8593 3.68337L93.3311 3.15132ZM93.4187 3.38346L92.7657 3.66503L92.8736 3.91515L93.5265 3.63359L94.1795 3.35202L94.0717 3.1019L93.4187 3.38346Z" fill="#FF3187"/>
<mask id="mask0_393_4920" style="mask-type:alpha" maskUnits="userSpaceOnUse" x="66" y="2" width="36" height="41">
<path d="M93.3975 2.44312C93.5388 2.45719 93.6412 2.51057 93.6884 2.53827L93.8038 2.62075L93.8414 2.65407C94.0051 2.7993 94.056 2.97785 94.0724 3.10117L94.1776 3.3538L94.289 3.60203C94.363 3.77348 94.4326 3.94633 94.5014 4.11893L94.6053 4.37628L94.7048 4.62739C94.8275 4.93706 94.8419 5.26078 94.7718 5.57748L94.7117 5.86571L94.6482 6.14795C94.6185 6.28194 94.6066 6.40588 94.6117 6.5183L94.6268 6.78623L94.6336 7.059C94.6338 7.06466 94.6409 7.08441 94.6786 7.12869L94.8756 7.35942L95.0711 7.5958C95.26 7.81794 95.3819 8.08073 95.4046 8.36963L95.394 8.66603L95.3527 8.94817L95.313 9.22466C95.3006 9.31179 95.308 9.38524 95.328 9.44806L95.4087 9.70525L95.4909 9.95679C95.5447 10.1261 95.5994 10.2972 95.6536 10.4665L95.8148 10.9818C95.8997 11.2474 95.9272 11.5215 95.9003 11.7983L95.8719 12.0779L95.8466 12.342C95.8479 12.3444 95.8497 12.3492 95.8542 12.3552L96.0378 12.5945L96.2229 12.8281C96.4289 13.0903 96.5568 13.4021 96.5687 13.7487L96.577 14.0158L96.5906 14.2894C96.5979 14.5056 96.5852 14.7233 96.5593 14.9422L96.5297 15.2224L96.4956 15.5004C96.4754 15.6713 96.4594 15.8444 96.4506 16.0121L96.4353 16.284L96.4186 16.5616C96.4123 16.6832 96.423 16.7982 96.4461 16.9077L96.5593 17.4324C96.5874 17.5633 96.627 17.6933 96.6795 17.8215L96.8889 18.3265C96.9552 18.4878 97.0218 18.6521 97.0923 18.8127L97.2037 19.0609L97.3104 19.3079C97.4011 19.5145 97.4749 19.7285 97.5245 19.9465L97.5807 20.2083L97.6439 20.4669C97.6978 20.7038 97.7136 20.946 97.7028 21.1903L97.6932 21.4638L97.6821 21.7429C97.6779 21.843 97.6891 21.9347 97.7165 22.022L97.8777 22.5374C97.9494 22.7637 97.993 22.9958 98.0067 23.2331L98.0218 23.5011L98.0415 23.7712C98.0447 23.8286 98.061 23.887 98.1016 23.9542L98.2432 24.1993L98.391 24.4401C98.5105 24.6374 98.6126 24.844 98.6921 25.0557L98.786 25.3053L98.8796 25.5598C98.9755 25.8152 99.0241 26.0833 99.0171 26.3559L99.0065 26.6291L99.0014 26.9048C98.9959 27.1134 98.9771 27.3235 98.948 27.5345L98.9067 27.8166L98.8727 28.0946C98.8548 28.2237 98.8542 28.3437 98.8678 28.4563L98.9318 28.991C98.9373 29.033 98.9536 29.0867 99.0034 29.1538L99.1757 29.39L99.3538 29.6268C99.5318 29.8669 99.623 30.1415 99.622 30.4296L99.5896 30.7202L99.4919 31.1945L99.6669 31.3789L99.8874 31.6048C100.14 31.8629 100.308 32.1993 100.313 32.5934L100.315 32.8639L100.323 33.1369C100.325 33.3368 100.318 33.5395 100.305 33.7416L100.282 34.0168L100.266 34.2943C100.26 34.3757 100.272 34.4485 100.298 34.5164L100.498 35.0177C100.587 35.2466 100.641 35.4851 100.664 35.7294L100.688 36.0009L100.715 36.2669C100.723 36.3521 100.746 36.4363 100.79 36.5225L101.038 37.0147C101.127 37.1894 101.214 37.3658 101.293 37.543L101.405 37.7915L101.515 38.0453C101.618 38.277 101.685 38.5199 101.712 38.7714L101.739 39.0374L101.77 39.3047C101.791 39.4953 101.807 39.6878 101.817 39.8804L101.831 40.149L101.84 40.4163C101.851 40.6334 101.844 40.8589 101.822 41.0838L101.797 41.3712L101.771 41.6626C101.756 41.8229 101.691 42.1613 101.379 42.3745C101.043 42.6033 100.689 42.5106 100.521 42.4437L100.023 42.2415C99.7943 42.1502 99.5776 42.0293 99.378 41.8787L99.1493 41.7021L98.9247 41.5328L98.6473 41.5797L98.3597 41.623C98.0753 41.6662 97.7881 41.6549 97.5096 41.5732L97.2549 41.4938L96.9989 41.4191C96.847 41.3744 96.6899 41.3391 96.5346 41.3068L96.2743 41.2482L96.0125 41.1953C95.7708 41.145 95.5385 41.0635 95.3197 40.947L95.0781 40.8185L94.8378 40.6854C94.7622 40.6451 94.6852 40.6234 94.6035 40.6165L94.0617 40.5745C93.7965 40.5529 93.541 40.4843 93.3005 40.3705L92.8103 40.136C92.7696 40.1168 92.7222 40.1059 92.656 40.1119L92.0892 40.1673C91.8041 40.1947 91.5192 40.1638 91.2473 40.0681L90.9941 39.983L90.7424 39.8923C90.463 39.7939 90.2188 39.6313 90.01 39.4261L89.7914 39.2119L89.574 38.9929C89.5026 38.9226 89.4464 38.8957 89.4079 38.8847L89.1504 38.8157L88.8941 38.742C88.7473 38.7012 88.5935 38.6692 88.4421 38.6441L87.913 38.5589C87.7937 38.5394 87.6677 38.53 87.5333 38.5381L87.2528 38.5549L86.9708 38.5774C86.7567 38.5907 86.5427 38.5903 86.3326 38.5783L86.0597 38.5628L85.7891 38.5429C85.3827 38.5195 85.0498 38.321 84.8078 38.0433L84.5963 37.8027L84.5131 37.7056L84.3682 37.7709L84.0576 37.9C83.8713 37.9788 83.6494 38.0273 83.4151 38.0038C83.1752 37.9792 82.9632 37.8817 82.7894 37.7391L82.5622 37.5569L82.3363 37.37C82.3315 37.366 82.329 37.3626 82.3275 37.3616L82.0558 37.3868L81.7725 37.414C81.5274 37.4341 81.2842 37.4234 81.0453 37.381L80.5189 37.2854C80.1856 37.226 79.8989 37.0636 79.6661 36.8385L79.2286 36.4109C79.1437 36.3286 79.0659 36.2867 79.0032 36.2636L78.7528 36.1682L78.5011 36.0775C78.3965 36.0389 78.2847 36.0146 78.1695 36.0058L77.6284 35.9649C77.4953 35.955 77.3539 35.9561 77.2069 35.9723L76.6372 36.0381C76.381 36.0661 76.1247 36.0574 75.8743 36.0065L75.6125 35.9535L75.3522 35.8949C75.0336 35.8298 74.7551 35.6754 74.5252 35.461L74.3051 35.2524L74.0834 35.0494C74.0357 35.0048 74.0119 34.9998 74.0049 34.9991L73.4669 34.9469C73.1686 34.9159 72.8919 34.8118 72.6445 34.6467L72.41 34.4919L72.2063 34.3503L71.9202 34.4294L71.6238 34.5056C71.2282 34.609 70.8211 34.5416 70.4822 34.2796L70.0246 33.9275C69.924 33.85 69.8266 33.7932 69.7306 33.7567L69.4804 33.6604L69.2287 33.5697C69.1408 33.5363 69.0466 33.5182 68.9437 33.5166L68.3941 33.5078C68.1914 33.5045 67.9981 33.4864 67.8283 33.4533L67.6583 33.4199L67.488 33.3914C67.406 33.3751 67.2387 33.3298 67.0875 33.1921C66.8934 33.0147 66.8128 32.762 66.846 32.5238C66.8728 32.3352 66.9661 32.2005 67.0133 32.1369C67.0683 32.063 67.1266 31.998 67.1785 31.9507L67.3755 31.774L67.573 31.5913C67.6697 31.5033 67.7596 31.4044 67.8364 31.2989L67.9917 31.0817L68.1535 30.8663C68.2458 30.7394 68.3316 30.6064 68.4144 30.4701L68.7003 30.0068C68.7907 29.8578 68.8776 29.7058 68.9651 29.5541L69.1039 29.3153L69.2358 29.0797C69.3566 28.8704 69.5064 28.6787 69.6761 28.5081L69.8642 28.323L70.0529 28.1319C70.1413 28.043 70.2201 27.9408 70.2889 27.8322L70.4303 27.6062L70.5767 27.3805C70.6755 27.2246 70.7777 27.068 70.8795 26.9147L71.0266 26.6902L71.1787 26.4661C71.3233 26.2483 71.5 26.0575 71.7093 25.9006L71.9267 25.7344L72.1473 25.5751C72.2695 25.4835 72.383 25.3845 72.4908 25.282L72.6836 25.0981L72.878 24.9085C73.022 24.7712 73.1762 24.6438 73.3332 24.5189L73.5465 24.3455L73.7582 24.1778C73.8173 24.1306 73.8669 24.0725 73.9043 23.9986L74.0271 23.7555L74.1514 23.5067C74.3289 23.157 74.627 22.93 74.9751 22.8135L75.2726 22.7143L75.5618 22.6199C75.6371 22.5949 75.6624 22.5676 75.6706 22.557L75.9934 22.1259C76.0773 22.0134 76.1545 21.8912 76.2234 21.7619L76.4795 21.2775C76.5668 21.1134 76.6547 20.9476 76.7439 20.7852L76.8755 20.5505L77.0096 20.3104C77.0963 20.1525 77.1785 19.9904 77.2643 19.8317L77.3974 19.5914L77.5258 19.3498L77.6869 19.1109C77.8679 18.8981 78.1069 18.7544 78.3684 18.6727L78.6635 18.5789L78.8653 18.5127L78.9109 18.3237L78.9717 18.0286C79.0705 17.5833 79.3752 17.2563 79.8044 17.1133L80.0951 17.0133L80.3372 16.9285L80.4108 16.7177L80.5017 16.4428C80.616 16.0972 80.8401 15.8133 81.162 15.631L81.4104 15.4964L81.6556 15.3548C81.6922 15.3338 81.7115 15.3136 81.7267 15.2818L81.8453 15.0316L81.9662 14.7768C82.1112 14.4715 82.3383 14.23 82.6328 14.0698L82.8815 13.9342L83.1364 13.8013C83.2578 13.7353 83.3634 13.6574 83.4555 13.5765L83.8601 13.2249C83.916 13.1757 83.961 13.1124 83.9979 13.0313L84.1131 12.775L84.2261 12.5232C84.3131 12.3316 84.4125 12.1475 84.518 11.9695L84.7928 11.5023C84.9016 11.3189 85.0255 11.1432 85.1577 10.9783L85.3227 10.7698L85.4934 10.5627C85.6459 10.3725 85.8207 10.2029 86.0195 10.0597L86.461 9.74021C86.6119 9.63149 86.769 9.52156 86.9222 9.41491L87.1423 9.26156L87.3685 9.10381C87.3707 9.09932 87.373 9.08907 87.3771 9.07174L87.4493 8.77969L87.5178 8.4826C87.5949 8.15876 87.7607 7.8612 88.026 7.63505L88.2273 7.46456L88.4349 7.28968C88.5668 7.1773 88.6972 7.06155 88.8261 6.94662L89.0305 6.76482L89.2275 6.5881C89.3562 6.47338 89.4841 6.35328 89.6092 6.2354L89.8076 6.05302L90.0005 5.86913C90.0391 5.83224 90.0754 5.78185 90.103 5.70148L90.1995 5.42808L90.2904 5.15316C90.4368 4.72759 90.7674 4.45504 91.1692 4.34122L91.7787 4.17191C91.818 4.1607 91.8368 4.14692 91.8431 4.14268L91.8446 4.13702L92.0008 3.92005L92.1526 3.69685C92.2568 3.54764 92.3566 3.41538 92.4439 3.29668L92.5709 3.12447L92.6374 3.02705C92.6409 3.00759 92.6364 2.98538 92.6421 2.96459C92.6628 2.88918 92.7186 2.73681 92.8643 2.61063C93.0308 2.46721 93.231 2.42695 93.3975 2.44312Z" fill="#FF3187"/>
</mask>
<g mask="url(#mask0_393_4920)">
<path d="M95.1241 28.6495L95.2999 32.0031L98.5437 32.8723L95.4085 34.0758L95.5843 37.4294L93.4709 34.8196L90.3357 36.0231L92.1647 33.2066L90.0513 30.5968L93.2951 31.4659L95.1241 28.6495Z" fill="#F9F7A9"/>
<path d="M94.9629 28.0257C95.3268 27.9623 95.5684 28.1742 95.6633 28.2881C95.7533 28.3962 95.7987 28.509 95.819 28.5656C95.8434 28.6338 95.8617 28.7033 95.875 28.7647L95.9312 29.0271L95.9928 29.2909C96.0605 29.6042 96.033 29.9203 95.9287 30.217L95.8339 30.4849L95.7377 30.7582C95.7377 30.7582 95.7324 30.7635 95.7348 30.7689L95.849 31.0296L95.9125 31.1789L95.934 31.1846L96.1397 31.211C96.4072 31.2449 96.6543 31.3526 96.8709 31.4874L97.1083 31.6316L97.3443 31.7811C97.4471 31.8449 97.5488 31.8919 97.6519 31.921L97.9095 31.9901L98.1656 32.0644C98.2845 32.098 98.5137 32.1755 98.686 32.3764C98.7861 32.4934 98.8682 32.6532 98.8829 32.8433C98.8966 33.024 98.848 33.1769 98.7933 33.2852L98.7194 33.4321L98.647 33.5738C98.4603 33.9391 98.1024 34.0818 97.8611 34.1454L97.3413 34.2822C97.0872 34.3489 96.822 34.3717 96.5572 34.3539L96.4738 34.3431L96.4777 34.3499C96.4887 34.5749 96.4751 34.7999 96.4408 35.0244L96.4025 35.296L96.3589 35.5661C96.3484 35.6367 96.3543 35.7057 96.3769 35.778L96.456 36.0408L96.542 36.2996C96.5827 36.4302 96.6275 36.6283 96.5921 36.8422C96.5487 37.1031 96.3853 37.3574 96.0975 37.4861L95.9604 37.5472L95.8286 37.6096C95.3048 37.8439 94.8743 37.4982 94.7145 37.3456L94.5222 37.1618L94.3245 36.9766C94.1949 36.8527 94.0653 36.7262 93.936 36.6021L93.7437 36.4183L93.546 36.233C93.4943 36.1835 93.4569 36.1477 93.4305 36.1273C93.422 36.1208 93.4162 36.1164 93.4129 36.114L93.1805 36.0086C93.1756 36.0066 93.1539 35.9975 93.1068 35.9831C93.0514 35.9662 92.9728 35.9448 92.8761 35.9213L92.5634 35.8432L92.4078 35.8015L92.3207 35.9335L92.1396 36.2013C91.9182 36.5231 91.5325 36.8068 91.0149 36.7282L90.7716 36.6917L90.523 36.6539C90.3366 36.6252 90.0119 36.5254 89.8382 36.1828C89.6775 35.8656 89.763 35.5601 89.8216 35.4076L90.0162 34.8961L90.1389 34.6529C90.2814 34.426 90.4821 34.2524 90.7164 34.129L90.9857 33.9826L91.1257 33.9108L91.117 33.7072L91.0955 33.3794C91.0936 33.3424 91.0933 33.3132 91.0903 33.2917L91.0492 33.2519L90.938 33.1301C90.8363 33.0166 90.7319 32.8709 90.6243 32.7125L90.4757 32.4943L90.3231 32.2694C90.243 32.1516 90.1516 32.0432 90.0551 31.9388L89.8779 31.7417L89.6952 31.5433C89.6553 31.5 89.6039 31.4444 89.5605 31.3806C89.539 31.349 89.5071 31.2963 89.4795 31.2324C89.4565 31.179 89.4061 31.0479 89.4194 30.877C89.4371 30.6544 89.5634 30.4296 89.7862 30.3023C89.9582 30.2049 90.1223 30.2054 90.1853 30.2079C90.3189 30.2137 90.431 30.2521 90.4741 30.2681L90.6615 30.3413L90.8557 30.4106C90.8557 30.4106 90.8675 30.4125 90.8947 30.4153C90.9236 30.4182 90.9678 30.421 91.0268 30.4162L91.5908 30.3717C91.8483 30.3508 92.1031 30.3674 92.3527 30.4263L92.6131 30.4846L92.8721 30.5483C92.9449 30.5655 93.0173 30.5642 93.0904 30.5492L93.3285 30.498L93.3336 30.4361L93.3468 30.1291C93.3625 29.7769 93.4825 29.4376 93.743 29.1654L93.9337 28.9692L94.1189 28.7715C94.2394 28.6461 94.302 28.5776 94.3221 28.5499L94.4712 28.3368L94.6235 28.1763C94.7039 28.1123 94.8174 28.0513 94.9629 28.0257ZM94.4886 31.4703C94.3227 31.6752 94.1115 31.7961 93.8948 31.8403L93.3729 31.942C93.0982 31.9981 92.8198 31.9977 92.547 31.9335L92.2879 31.8699L92.0275 31.8116C91.9331 31.7893 91.8283 31.7759 91.7126 31.7847L91.798 31.9169C91.8892 32.0511 91.9576 32.1319 91.9984 32.1777L92.1042 32.298L92.2154 32.4198C92.4614 32.6953 92.5061 33.0677 92.5185 33.3063L92.5346 33.6327L92.5492 33.9644C92.5559 34.0959 92.5354 34.2315 92.4979 34.3705C92.5271 34.3757 92.5584 34.3759 92.5866 34.3828L93.212 34.5389C93.4215 34.5899 93.6325 34.65 93.7843 34.721L93.9074 34.777L94.0251 34.8315C94.2164 34.921 94.3943 35.069 94.5349 35.2039L94.7258 35.3931L94.9235 35.5784C94.9294 35.5841 94.9361 35.5891 94.9421 35.5949C94.9439 35.5138 94.9432 35.4326 94.9556 35.3512L94.9939 35.0796L95.0375 34.8095C95.0577 34.6766 95.0625 34.5458 95.0562 34.4176L95.0472 34.1506L95.0314 33.8876C95.0212 33.6796 95.0644 33.361 95.334 33.1232C95.586 32.9015 95.887 32.8823 96.0683 32.8943L96.3617 32.9154L96.4869 32.9202L96.3536 32.8385L96.1161 32.6943C96.0237 32.6368 95.9743 32.6264 95.9623 32.6244L95.7512 32.5966L95.5455 32.5702C95.0734 32.51 94.8009 32.1703 94.6653 31.8627L94.551 31.602L94.4886 31.4703Z" fill="#F9F7A9"/>
<path d="M78.6208 20.1785L78.7695 23.0162L81.5143 23.7517L78.8614 24.77L79.0101 27.6077L77.2219 25.3994L74.569 26.4177L76.1166 24.0346L74.3284 21.8262L77.0731 22.5617L78.6208 20.1785Z" fill="#F9F7A9"/>
<path d="M78.9815 19.5623L79.0001 19.5788C79.1605 19.6837 79.2339 19.8258 79.2371 19.8321C79.2579 19.8701 79.2718 19.9033 79.2774 19.9176C79.2891 19.9472 79.2952 19.9736 79.2992 19.9867C79.3078 20.0156 79.3157 20.0477 79.322 20.0734C79.3354 20.1281 79.3528 20.2042 79.3722 20.2939L79.4284 20.5562L79.49 20.8201C79.5577 21.1333 79.5302 21.4495 79.4259 21.7461L79.3311 22.0141L79.2902 22.1239L79.2995 22.1321L79.4585 22.2898C79.4585 22.2898 79.4723 22.2918 79.4975 22.2945L79.7652 22.3259L80.0343 22.352C80.3228 22.3829 80.5942 22.4783 80.8395 22.631L81.3115 22.9301C81.4036 22.9875 81.5646 23.093 81.6779 23.2583C81.7403 23.3497 81.8283 23.5198 81.818 23.7445C81.8065 23.9908 81.6829 24.1737 81.5582 24.2845L81.3913 24.4353C81.3094 24.5082 81.1827 24.6036 81.0349 24.7137L80.59 25.0431C80.3629 25.2123 80.1027 25.3395 79.8095 25.3804L79.5772 25.4101L79.5178 25.4172L79.4517 25.5778L79.3799 25.7599L79.5221 25.959L79.705 26.2209C79.799 26.3515 79.9206 26.5527 79.9391 26.807C79.9614 27.117 79.8247 27.3936 79.6014 27.5735L79.447 27.6989L79.2873 27.8229C79.0999 27.9739 78.8592 28.0608 78.5978 28.035C78.3618 28.0113 78.1716 27.9037 78.0384 27.8046L77.8174 27.6418L77.5979 27.4737C77.3079 27.2574 77.1198 26.9618 77.0381 26.6221L76.9726 26.3514L76.8591 26.367C76.8015 26.3723 76.7333 26.3888 76.6518 26.4323L76.4166 26.559L76.1759 26.6844C75.888 26.8387 75.5716 26.9003 75.256 26.898L74.9124 26.8922L74.5674 26.8918C74.4985 26.8913 74.4087 26.8871 74.3198 26.8715C74.2778 26.8639 74.1945 26.8493 74.1066 26.8086C74.0385 26.7768 73.8175 26.66 73.7203 26.383C73.6091 26.0632 73.7506 25.8068 73.8274 25.7042C73.9027 25.604 73.9897 25.5414 74.0273 25.5162C74.1106 25.4609 74.2005 25.4197 74.2611 25.3948L74.5583 25.2732L74.7022 25.2082L74.702 25.0586L74.6913 24.7337C74.6847 24.474 74.7229 24.1569 74.8971 23.88L74.7827 23.7919C74.4917 23.5555 74.3269 23.2313 74.267 22.883L74.1639 22.2802C74.1425 22.155 74.1261 22.0063 74.1387 21.8593C74.149 21.7402 74.1926 21.4363 74.4687 21.2288L74.5532 21.1709L74.6338 21.1063L74.8297 20.9977C75.0249 20.9224 75.2091 20.9415 75.3114 20.96C75.46 20.987 75.5988 21.0409 75.7067 21.0947L76.1931 21.34C76.3457 21.4163 76.4894 21.4834 76.6223 21.5413L76.6838 21.5693L76.767 21.4305C76.9208 21.1572 77.1435 20.9431 77.4058 20.785L77.659 20.6343L77.847 20.5121L77.8514 20.496L77.8627 20.3035C77.8671 20.2364 77.8707 20.173 77.8765 20.1232C77.8788 20.1032 77.8839 20.0595 77.8945 20.013C77.8973 20.0008 77.9156 19.9278 77.9566 19.8456C77.9717 19.8154 78.0331 19.6856 78.1767 19.5824C78.2618 19.5218 78.395 19.4572 78.563 19.4501C78.6481 19.4466 78.7275 19.4575 78.797 19.4783L78.9815 19.5623ZM77.7433 22.5951C77.653 22.7558 77.496 22.9529 77.2342 23.0569C76.9562 23.1666 76.6888 23.122 76.492 23.0363L76.2699 22.9423L76.0546 22.8443C75.9322 22.791 75.8065 22.7315 75.6762 22.6682L75.6826 22.6871L75.8899 22.8577L76.1027 23.0298C76.2252 23.1292 76.3953 23.2985 76.4685 23.5534C76.5537 23.8541 76.4693 24.1368 76.3219 24.3366L76.2047 24.495L76.1179 24.604C76.1173 24.6087 76.1196 24.6147 76.119 24.6216C76.1175 24.6398 76.1156 24.6642 76.1164 24.6956L76.1217 25.0192L76.1241 25.1176C76.3172 25.0317 76.5197 24.9664 76.7334 24.9472L76.975 24.9257L77.222 24.9056L77.5812 24.9386C77.7058 24.9727 77.8315 25.0319 77.9446 25.128C77.9887 25.1656 78.0132 25.2177 78.0475 25.2591L78.1318 25.0516L78.2442 24.7826L78.3765 24.5248C78.5396 24.2815 78.7914 24.0848 79.1462 24.0351L79.3799 23.9999L79.6122 23.9701C79.63 23.9677 79.675 23.959 79.744 23.9077L79.9173 23.7758C79.9064 23.7738 79.8961 23.7684 79.8851 23.7672L79.616 23.7411L79.3484 23.7097C79.0372 23.6767 78.7329 23.561 78.4896 23.33L78.3213 23.1641L78.1461 23.0022C77.9896 22.8532 77.876 22.6581 77.8337 22.4296L77.7433 22.5951Z" fill="#F9F7A9"/>
<path d="M93.782 10.9898L93.9781 14.7303L97.5962 15.6998L94.0992 17.0422L94.2953 20.7828L91.938 17.8718L88.4411 19.2141L90.4811 16.0727L88.1239 13.1617L91.742 14.1312L93.782 10.9898Z" fill="#F9F7A9"/>
<path d="M93.7418 10.3465C94.0119 10.3157 94.2004 10.4462 94.2516 10.4831L94.3949 10.6136L94.535 10.7777C94.6644 10.9308 94.7395 11.1466 94.7068 11.3816C94.6955 11.4613 94.6668 11.5279 94.64 11.588L94.6514 11.6313C94.7191 11.9446 94.6916 12.2607 94.5873 12.5574L94.4925 12.8253L94.3962 13.0986C94.3962 13.0986 94.391 13.1039 94.3934 13.1093L94.6218 13.6307C94.6475 13.6889 94.6705 13.7246 94.6832 13.7449L94.7761 13.8273L94.8945 13.9223C94.9365 13.957 95.0239 14.0195 95.1716 14.1116L95.4076 14.2611L95.6451 14.4052C95.7486 14.4697 95.8541 14.5173 95.958 14.5466L96.2142 14.621L96.4717 14.69C96.5745 14.7189 96.6865 14.7348 96.8052 14.7333L97.0815 14.7326L97.3592 14.7265L97.6805 14.7723C97.7969 14.8088 98.133 14.9484 98.2098 15.3513C98.2716 15.6803 98.0989 15.9178 98.0538 15.9766C97.9855 16.0654 97.9063 16.1391 97.8481 16.1861L97.3645 16.5742C97.0737 16.8085 96.7218 16.9284 96.3388 16.9032L96.0454 16.8821L95.8475 16.8694L95.7027 17.0664L95.5138 17.3206C95.3878 17.4922 95.2392 17.6675 95.0759 17.7957L95.0913 17.8458L95.1704 18.1086C95.2784 18.4547 95.2496 18.8056 95.1155 19.1291L95.0032 19.3981L94.8948 19.6739C94.8665 19.742 94.8644 19.7823 94.8695 19.8109L94.919 20.0772L94.963 20.3421C94.9755 20.411 94.9929 20.5146 94.9838 20.6295C94.977 20.7139 94.9413 21.0076 94.6628 21.2049C94.3548 21.4228 94.0393 21.3282 93.9337 21.2856C93.813 21.2367 93.7202 21.1659 93.667 21.1221L93.4743 20.9612L93.2762 20.7989C93.1538 20.6983 93.0212 20.5921 92.8826 20.4863L92.667 20.325L92.4475 20.1569C92.1114 19.9003 91.9565 19.5325 91.928 19.155L91.9188 19.0605C91.7397 19.1021 91.5568 19.135 91.369 19.1375L90.8028 19.1469C90.7413 19.1477 90.7012 19.1623 90.6661 19.185L90.4372 19.3307L90.207 19.4818C89.8931 19.6844 89.5387 19.7427 89.19 19.6925L88.8862 19.6456L88.581 19.6041C88.4443 19.5841 88.1955 19.5327 87.9937 19.3489C87.8766 19.242 87.7784 19.0894 87.7398 18.9013C87.7032 18.7213 87.7345 18.5623 87.7758 18.445L87.834 18.2708L87.899 18.0927C87.9871 17.843 88.1461 17.6341 88.3152 17.4623L88.5058 17.266L88.695 17.0752C88.803 16.9654 88.9026 16.8483 88.9946 16.7298L89.1598 16.521L89.3265 16.3069C89.3347 16.2962 89.3356 16.2834 89.3405 16.2761L89.3449 16.1738L89.3451 16.0013C89.3453 15.9684 89.3399 15.8795 89.3014 15.7135L89.2348 15.4253L89.1629 15.1357L88.9362 14.9945L88.6987 14.8503C88.4784 14.7162 88.2785 14.5533 88.1113 14.3593L87.9355 14.1569L87.7611 13.9492C87.7264 13.9087 87.6841 13.8549 87.6464 13.7977C87.6289 13.771 87.5954 13.7161 87.5668 13.644C87.5524 13.6076 87.5276 13.5453 87.5173 13.464C87.5074 13.3857 87.5033 13.2419 87.5736 13.0822C87.7577 12.6647 88.1673 12.6484 88.2748 12.6547C88.3942 12.6617 88.4871 12.6958 88.5191 12.7086L88.7047 12.8101L88.9129 12.9349L89.0609 13.0264L89.0663 13.0278L89.662 12.8653C89.9167 12.795 90.1821 12.7825 90.4425 12.8502L90.7051 12.9435L90.9483 13.0662L91.1929 13.1835C91.255 13.2133 91.3049 13.2219 91.35 13.2198L91.6008 13.2065L91.6123 13.1636L91.6896 12.8967C91.7561 12.6561 91.8521 12.4267 91.9814 12.2157L92.1226 11.989L92.2585 11.7608C92.4234 11.4916 92.6567 11.2893 92.9253 11.14L93.1036 11.0325L93.105 11.0272C93.1079 10.9868 93.1155 10.8777 93.1716 10.7574C93.2347 10.6224 93.4079 10.3857 93.7418 10.3465ZM92.9099 13.8161C92.8579 14.0026 92.7554 14.2068 92.5664 14.3683C92.3703 14.535 92.1381 14.6065 91.9248 14.6162L91.4123 14.6399C91.117 14.653 90.8314 14.5871 90.569 14.46L90.3552 14.3567C90.4444 14.4942 90.5111 14.6459 90.5497 14.8114L90.6162 15.0995L90.6882 15.3891C90.7379 15.6031 90.7689 15.8211 90.7665 16.0198L90.7649 16.1977L90.7647 16.3701C90.7597 16.7034 90.6045 16.9825 90.4491 17.1828L90.1187 17.6004C89.9919 17.7638 89.857 17.9231 89.7105 18.072L89.6091 18.1713L89.6635 18.1399L89.8938 17.9888C90.1633 17.8146 90.4656 17.725 90.7824 17.7208L91.064 17.7214L91.3524 17.7182C91.4827 17.7164 91.5823 17.6972 91.6578 17.6735L91.8908 17.5979L92.1171 17.5262C92.3434 17.4544 92.7168 17.4346 93.0126 17.7259C93.1276 17.8398 93.196 17.9698 93.2369 18.0909L93.2977 18.4005L93.3206 18.7229L93.3488 19.0468L93.3474 19.0522L93.5283 19.1927L93.5576 19.2121C93.567 19.1861 93.5686 19.1573 93.5792 19.1316L93.8067 18.5829C93.8166 18.5587 93.8181 18.5421 93.8182 18.54L93.8143 18.5332L93.7298 18.2689L93.6507 18.0062C93.5803 17.781 93.4691 17.2229 93.9501 16.8671L94.0798 16.7696L94.208 16.6774C94.214 16.6718 94.224 16.659 94.241 16.6402C94.2731 16.6046 94.3175 16.5514 94.3704 16.4793L94.5539 16.2237L94.7428 15.9694C94.825 15.8575 94.9246 15.7642 95.0319 15.6846C94.9871 15.66 94.9393 15.6407 94.8957 15.6136L94.6582 15.4694L94.4222 15.3199C94.256 15.2164 94.1059 15.1153 93.9906 15.0202L93.8737 14.9199L93.7554 14.8249C93.546 14.6518 93.4131 14.4055 93.3238 14.2031L93.2096 13.9425L93.0901 13.6804C93.0555 13.6017 93.0304 13.5211 93.0105 13.4405L92.9099 13.8161Z" fill="#F9F7A9"/>
<path d="M80.2327 32.0218C80.131 32.4011 79.7411 32.6263 79.3618 32.5246C78.9824 32.423 78.7573 32.033 78.8589 31.6537C78.9606 31.2743 79.3505 31.0492 79.7298 31.1508C80.1092 31.2525 80.3343 31.6424 80.2327 32.0218Z" fill="#F9F7A9"/>
<path d="M79.6324 30.3765C79.7855 30.3797 79.9206 30.4232 80.031 30.4775L80.2895 30.6503L80.538 30.8607L80.7825 31.0642C80.8718 31.14 80.9955 31.2569 81.0842 31.3981C81.1256 31.4646 81.2154 31.6256 81.2128 31.841C81.2091 32.1203 81.0546 32.3452 80.8546 32.4697L80.6884 32.5747C80.6859 32.5763 80.6809 32.5782 80.6748 32.5825C80.6628 32.591 80.6449 32.6053 80.6243 32.6208C80.5831 32.6517 80.5299 32.6967 80.4631 32.7501L80.2514 32.9177L80.0382 33.0907C79.9379 33.1709 79.6495 33.3782 79.2693 33.2987C78.8293 33.2063 78.676 32.8319 78.6302 32.6789L78.4897 32.2156C78.3895 31.877 78.4316 31.525 78.6198 31.2152L78.7363 31.0163L78.8582 30.8189L78.9822 30.6566C79.1276 30.5019 79.3443 30.3708 79.6324 30.3765Z" fill="#F9F7A9"/>
<path d="M82.6565 16.1067C82.5549 16.4861 82.1649 16.7112 81.7856 16.6096C81.4062 16.5079 81.1811 16.118 81.2827 15.7386C81.3844 15.3593 81.7743 15.1342 82.1537 15.2358C82.533 15.3375 82.7582 15.7274 82.6565 16.1067Z" fill="#F9F7A9"/>
<path d="M82.0563 14.4624C82.2093 14.4657 82.3444 14.5092 82.4548 14.5635L82.7133 14.7363L82.9618 14.9466L83.2063 15.1502C83.2957 15.2259 83.4194 15.3428 83.508 15.4841C83.5495 15.5505 83.6392 15.7115 83.6366 15.9269C83.6329 16.2062 83.4784 16.4312 83.2784 16.5556L83.1122 16.6606C83.1097 16.6623 83.1048 16.6641 83.0986 16.6685C83.0866 16.6769 83.0687 16.6912 83.0481 16.7067C83.0069 16.7377 82.9537 16.7826 82.8869 16.8361L82.6752 17.0036L82.4621 17.1766C82.3617 17.2569 82.0733 17.4642 81.6931 17.3847C81.2531 17.2923 81.0998 16.9179 81.054 16.7648L80.9136 16.3016C80.8134 15.963 80.8554 15.6109 81.0436 15.3011L81.1601 15.1023L81.282 14.9049L81.4061 14.7426C81.5514 14.5879 81.7681 14.4567 82.0563 14.4624Z" fill="#F9F7A9"/>
<path d="M92.47 6.95732C92.3683 7.33668 91.9784 7.5618 91.5991 7.46015C91.2197 7.35851 90.9946 6.96858 91.0962 6.58922C91.1979 6.20987 91.5878 5.98475 91.9672 6.08639C92.3465 6.18804 92.5716 6.57797 92.47 6.95732Z" fill="#F9F7A9"/>
<path d="M91.8697 5.31203C92.0228 5.31528 92.1579 5.35878 92.2683 5.41307L92.5268 5.58587L92.7753 5.79623L93.0198 5.99979C93.1091 6.07554 93.2328 6.19246 93.3215 6.33368C93.3629 6.40013 93.4527 6.56114 93.4501 6.77651C93.4464 7.05585 93.2919 7.28076 93.0919 7.40521L92.9257 7.51023C92.9232 7.51189 92.9183 7.51373 92.9121 7.51808C92.9001 7.52651 92.8822 7.54082 92.8616 7.55631C92.8204 7.58728 92.7672 7.63223 92.7004 7.68567L92.4887 7.85325L92.2755 8.0262C92.1752 8.10647 91.8868 8.31379 91.5066 8.23428C91.0666 8.14188 90.9133 7.76746 90.8675 7.61441L90.727 7.15116C90.6268 6.81259 90.6689 6.46053 90.8571 6.15073L90.9736 5.95189L91.0955 5.7545L91.2195 5.59217C91.3649 5.43746 91.5816 5.30631 91.8697 5.31203Z" fill="#F9F7A9"/>
<path d="M98.1965 25.4241C98.0949 25.8035 97.705 26.0286 97.3256 25.927C96.9463 25.8253 96.7211 25.4354 96.8228 25.056C96.9244 24.6767 97.3144 24.4515 97.6937 24.5532C98.0731 24.6548 98.2982 25.0448 98.1965 25.4241Z" fill="#F9F7A9"/>
<path d="M97.5963 23.7798C97.7493 23.7831 97.8844 23.8266 97.9948 23.8808L98.2534 24.0536L98.5018 24.264L98.7464 24.4676C98.8357 24.5433 98.9594 24.6602 99.048 24.8015C99.0895 24.8679 99.1792 25.0289 99.1767 25.2443C99.1729 25.5236 99.0185 25.7485 98.8184 25.873L98.6522 25.978C98.6498 25.9797 98.6448 25.9815 98.6386 25.9859C98.6267 25.9943 98.6088 26.0086 98.5881 26.0241C98.5469 26.0551 98.4937 26.1 98.4269 26.1534L98.2152 26.321L98.0021 26.494C97.9018 26.5742 97.6133 26.7816 97.2332 26.7021C96.7931 26.6096 96.6399 26.2352 96.594 26.0822L96.4536 25.6189C96.3534 25.2804 96.3954 24.9283 96.5836 24.6185L96.7002 24.4197L96.8221 24.2223L96.9461 24.0599C97.0915 23.9052 97.3082 23.7741 97.5963 23.7798Z" fill="#F9F7A9"/>
</g>
</g>
<defs>
<clipPath id="clip0_393_4920">
<rect width="128" height="128" fill="white"/>
</clipPath>
</defs>
</svg>
