<svg width="128" height="128" viewBox="0 0 128 128" fill="none" xmlns="http://www.w3.org/2000/svg">
<path d="M10.6675 67.9111C12.042 67.9112 13.1567 69.0258 13.1567 70.4004V73.5996C13.1567 74.9741 12.042 76.0888 10.6675 76.0889C10.5468 76.0888 10.4281 76.0772 10.312 76.0605V78.9336C10.3119 79.5224 9.83442 79.9998 9.24561 80C8.65673 79.9998 8.17838 79.5225 8.17822 78.9336V70.4004C8.17822 69.0259 9.29303 67.9113 10.6675 67.9111ZM117.333 67.9111C118.708 67.9111 119.823 69.0258 119.823 70.4004V78.9336C119.823 79.5225 119.345 80 118.756 80C118.167 79.9999 117.69 79.5225 117.69 78.9336V76.0596C117.574 76.0763 117.455 76.0889 117.333 76.0889C115.959 76.0886 114.845 74.974 114.845 73.5996V70.4004C114.845 69.026 115.959 67.9114 117.333 67.9111Z" fill="white"/>
<path d="M11.5212 67.9096L11.5224 68.6207L11.5212 67.9096ZM11.9913 68.1247L11.4524 68.5887L11.9913 68.1247ZM12.7142 68.9921L13.2824 68.5645L12.7142 68.9921ZM13.0463 69.4334L12.4781 69.861L13.0463 69.4334ZM13.3017 69.9297L13.9781 69.7103L13.3017 69.9297ZM13.3912 70.2055L12.7147 70.4249L13.3912 70.2055ZM13.4806 70.4812L14.157 70.2618L13.4806 70.4812ZM13.4569 71.0236L12.8023 70.746L13.4569 71.0236ZM13.2308 71.5569L13.8855 71.8345L13.2308 71.5569ZM13.0684 72.0902L12.3691 71.9608L13.0684 72.0902ZM12.9697 72.6236L13.6689 72.753L12.9697 72.6236ZM12.9246 73.1497L12.2136 73.1615L12.9246 73.1497ZM12.9332 73.6686L13.6442 73.6568L12.9332 73.6686ZM12.8083 74.6947L12.1071 74.5765L12.8083 74.6947ZM12.5762 75.1355L12.0784 74.6278L12.5762 75.1355ZM12.3871 75.3209L12.885 75.8287L12.3871 75.3209ZM12.1981 75.5062L11.7003 74.9984L12.1981 75.5062ZM11.7476 75.6856L11.7639 74.9746L11.7476 75.6856ZM11.4861 75.6796L11.4698 76.3905L11.4861 75.6796ZM10.7517 75.855L10.28 75.3229L10.7517 75.855ZM10.5402 76.0425L10.0685 75.5104L10.5402 76.0425ZM10.3287 76.23L10.8004 76.7621L10.3287 76.23ZM10.4478 77.7508L9.74562 77.6386L10.4478 77.7508ZM10.2014 78.7584L9.5839 78.4058L10.2014 78.7584ZM9.96431 79.1737L10.5818 79.5263L9.96431 79.1737ZM9.67352 79.5824L9.1334 79.1198L9.67352 79.5824ZM9.32906 79.9846L9.86918 80.4472L9.32906 79.9846ZM8.99843 79.9712L9.57053 79.5488L8.99843 79.9712ZM8.68165 79.5421L8.10955 79.9644L8.68165 79.5421ZM8.41689 79.0957L9.06319 78.7992L8.41689 79.0957ZM8.31052 78.864L7.66422 79.1606L8.31052 78.864ZM8.20416 78.6322L7.55785 78.9288L8.20416 78.6322ZM8.17242 78.1338L8.85722 78.3254L8.17242 78.1338ZM8.32168 77.6004L7.63687 77.4088L8.32168 77.6004ZM8.47184 76.5338L7.76387 76.4669L8.47184 76.5338ZM8.51754 76.0004L7.80853 75.9458L8.51754 76.0004ZM8.57353 74.9338L7.86257 74.9487L8.57353 74.9338ZM8.40117 73.8671L9.01541 73.5088L8.40117 73.8671ZM8.09005 73.3338L7.47581 73.6921L8.09005 73.3338ZM8.07637 72.8004L8.70415 73.1344L8.07637 72.8004ZM8.36013 72.2671L7.73234 71.9331L8.36013 72.2671ZM8.52687 71.7338L7.81883 71.6677L8.52687 71.7338ZM8.5921 70.6859L7.88149 70.7128L8.5921 70.6859ZM8.57361 69.391L7.8626 69.3786L8.57361 69.391ZM8.81826 68.7056L8.46598 68.0878L8.81826 68.7056ZM10.2528 68.0707L10.0367 67.3932L10.2528 68.0707ZM10.5389 67.9726L10.2323 67.331L10.5389 67.9726ZM10.5817 67.9521L10.2751 67.3105L10.5817 67.9521ZM10.6246 67.9316L10.318 67.29L10.6246 67.9316ZM10.952 67.9106L10.9508 67.1995L10.952 67.9106ZM118.167 67.9536L118.131 68.6638L118.167 67.9536ZM118.646 68.1615L119.14 67.65L118.646 68.1615ZM118.846 68.3552L118.352 68.8667L118.846 68.3552ZM119.047 68.549L118.553 69.0605L119.047 68.549ZM119.466 68.9528L119.959 68.4403L119.466 68.9528ZM119.684 69.1628L119.191 69.6753L119.684 69.1628ZM119.902 69.3729L120.395 68.8604L119.902 69.3729ZM120.138 69.8764L120.848 69.8349L120.138 69.8764ZM120.172 70.4634L119.462 70.5049L120.172 70.4634ZM120.033 71.2902L119.35 71.0897L120.033 71.2902ZM119.954 71.5569L120.637 71.7574L119.954 71.5569ZM119.76 72.0902L120.411 72.3745L119.76 72.0902ZM119.527 72.6235L118.875 72.3393L119.527 72.6235ZM119.606 73.1569L119.033 73.5774L119.606 73.1569ZM119.802 73.4235L120.375 73.0031L119.802 73.4235ZM119.997 73.6902L119.424 74.1107L119.997 73.6902ZM120.005 74.2235L120.587 74.6328L120.005 74.2235ZM119.817 74.4902L120.399 74.8995L119.817 74.4902ZM119.63 74.7569L119.048 74.3476L119.63 74.7569ZM119.58 75.2902L118.949 75.6177L119.58 75.2902ZM119.857 75.8235L120.488 75.4961L119.857 75.8235ZM119.897 76.3569L120.565 76.6022L119.897 76.3569ZM119.701 76.8902L119.034 76.6449L119.701 76.8902ZM119.734 77.4235L119.096 77.7366L119.734 77.4235ZM119.996 77.9569L120.634 77.6439L119.996 77.9569ZM120.098 78.5102L120.806 78.5803L120.098 78.5102ZM120.07 78.7969L119.362 78.7267L120.07 78.7969ZM120.041 79.0835L120.749 79.1536L120.041 79.0835ZM119.763 79.5276L119.384 78.9259L119.763 79.5276ZM119.513 79.685L119.134 79.0833L119.513 79.685ZM119.263 79.8424L119.642 80.4441L119.263 79.8424ZM118.699 79.9936L118.713 79.2827L118.699 79.9936ZM118.072 79.9812L118.058 80.6921L118.072 79.9812ZM117.835 79.663L118.525 79.8322L117.835 79.663ZM117.988 79.0391L117.297 78.8699L117.988 79.0391ZM118.016 78.4605L118.716 78.3355L118.016 78.4605ZM117.921 77.9272L117.221 78.0522L117.921 77.9272ZM117.819 77.3938L118.515 77.2505L117.819 77.3938ZM117.709 76.8605L117.012 77.0038L117.709 76.8605ZM117.532 76.4459L116.984 76.8991L117.532 76.4459ZM117.287 76.1499L117.835 75.6967L117.287 76.1499ZM116.938 75.895L116.635 76.538L116.938 75.895ZM116.485 75.6811L116.182 76.3241L116.485 75.6811ZM116.025 75.4575L116.343 74.8212L116.025 75.4575ZM115.791 75.3408L116.109 74.7045L115.791 75.3408ZM115.557 75.2241L115.24 75.8603L115.557 75.2241ZM115.166 74.8745L115.756 74.4766L115.166 74.8745ZM114.852 74.4086L114.262 74.8065L114.852 74.4086ZM114.665 73.8987L115.372 73.8239L114.665 73.8987ZM114.607 73.3448L113.899 73.4196L114.607 73.3448ZM114.623 72.8012L115.324 72.9208L114.623 72.8012ZM114.668 72.5345L113.967 72.4149L114.668 72.5345ZM114.714 72.2678L115.415 72.3874L114.714 72.2678ZM114.738 71.7345L115.447 71.6776L114.738 71.7345ZM114.695 71.2012L113.986 71.2581L114.695 71.2012ZM114.729 70.3903L114.021 70.3189L114.729 70.3903ZM114.756 70.1183L115.464 70.1897L114.756 70.1183ZM115.007 69.6746L114.573 69.1108L115.007 69.6746ZM115.453 69.3315L115.02 68.7677L115.453 69.3315ZM115.891 68.6557L116.545 68.9346L115.891 68.6557ZM115.999 68.4036L115.345 68.1247L115.999 68.4036ZM116.37 68.1058L116.248 67.4051L116.37 68.1058ZM116.633 68.0602L116.512 67.3595L116.633 68.0602ZM116.897 68.0145L117.018 68.7152L116.897 68.0145ZM117.204 67.9544L117.428 68.629L117.204 67.9544ZM117.29 67.9256L117.515 68.6002L117.29 67.9256ZM11.2366 67.9101L11.2379 68.6212L11.5224 68.6207L11.5212 67.9096L11.5199 67.1985L11.2353 67.199L11.2366 67.9101ZM11.5212 67.9096L11.5224 68.6207C11.5252 68.6207 11.5091 68.6207 11.4852 68.6098C11.4613 68.5989 11.4507 68.5866 11.4524 68.5887L11.9913 68.1247L12.5302 67.6608C12.2711 67.3597 11.917 67.1978 11.5199 67.1985L11.5212 67.9096ZM11.9913 68.1247L11.4524 68.5887L11.638 68.8043L12.1769 68.3403L12.7159 67.8763L12.5302 67.6608L11.9913 68.1247ZM12.1769 68.3403L11.638 68.8043L11.8236 69.0199L12.3626 68.5559L12.9015 68.0919L12.7159 67.8763L12.1769 68.3403ZM12.3626 68.5559L11.8236 69.0199C11.9375 69.1521 12.045 69.2854 12.146 69.4197L12.7142 68.9921L13.2824 68.5645C13.1621 68.4046 13.0351 68.2471 12.9015 68.0919L12.3626 68.5559ZM12.7142 68.9921L12.146 69.4197L12.312 69.6403L12.8802 69.2127L13.4484 68.7852L13.2824 68.5645L12.7142 68.9921ZM12.8802 69.2127L12.312 69.6403L12.4781 69.861L13.0463 69.4334L13.6145 69.0058L13.4484 68.7852L12.8802 69.2127ZM13.0463 69.4334L12.4781 69.861C12.5391 69.942 12.5888 70.0365 12.6253 70.1491L13.3017 69.9297L13.9781 69.7103C13.8954 69.4554 13.7748 69.2189 13.6145 69.0058L13.0463 69.4334ZM13.3017 69.9297L12.6253 70.1491L12.7147 70.4249L13.3912 70.2055L14.0676 69.9861L13.9781 69.7103L13.3017 69.9297ZM13.3912 70.2055L12.7147 70.4249L12.8042 70.7006L13.4806 70.4812L14.157 70.2618L14.0676 69.9861L13.3912 70.2055ZM13.4806 70.4812L12.8042 70.7006C12.8071 70.7095 12.8082 70.7153 12.8086 70.7184C12.809 70.7214 12.809 70.723 12.809 70.7237C12.8089 70.7244 12.8088 70.7259 12.8081 70.7288C12.8075 70.7318 12.8059 70.7374 12.8023 70.746L13.4569 71.0236L14.1116 71.3012C14.2539 70.9656 14.2694 70.6083 14.157 70.2618L13.4806 70.4812ZM13.4569 71.0236L12.8023 70.746L12.6892 71.0126L13.3439 71.2902L13.9986 71.5678L14.1116 71.3012L13.4569 71.0236ZM13.3439 71.2902L12.6892 71.0126L12.5761 71.2793L13.2308 71.5569L13.8855 71.8345L13.9986 71.5678L13.3439 71.2902ZM13.2308 71.5569L12.5761 71.2793C12.4819 71.5015 12.4121 71.7288 12.3691 71.9608L13.0684 72.0902L13.7676 72.2197C13.7905 72.0961 13.8289 71.9679 13.8855 71.8345L13.2308 71.5569ZM13.0684 72.0902L12.3691 71.9608L12.3198 72.2275L13.019 72.3569L13.7182 72.4863L13.7676 72.2197L13.0684 72.0902ZM13.019 72.3569L12.3198 72.2275L12.2704 72.4941L12.9697 72.6236L13.6689 72.753L13.7182 72.4863L13.019 72.3569ZM12.9697 72.6236L12.2704 72.4941C12.2293 72.7164 12.2099 72.9391 12.2136 73.1615L12.9246 73.1497L13.6356 73.1379C13.6336 73.0143 13.6442 72.8863 13.6689 72.753L12.9697 72.6236ZM12.9246 73.1497L12.2136 73.1615L12.2179 73.4209L12.9289 73.4091L13.6399 73.3973L13.6356 73.1379L12.9246 73.1497ZM12.9289 73.4091L12.2179 73.4209L12.2222 73.6804L12.9332 73.6686L13.6442 73.6568L13.6399 73.3973L12.9289 73.4091ZM12.9332 73.6686L12.2222 73.6804C12.2244 73.8099 12.2147 73.938 12.1932 74.0654L12.8945 74.1836L13.5957 74.3018C13.6316 74.0884 13.6478 73.8732 13.6442 73.6568L12.9332 73.6686ZM12.8945 74.1836L12.1932 74.0654L12.1502 74.3209L12.8514 74.4391L13.5526 74.5573L13.5957 74.3018L12.8945 74.1836ZM12.8514 74.4391L12.1502 74.3209L12.1071 74.5765L12.8083 74.6947L13.5095 74.8129L13.5526 74.5573L12.8514 74.4391ZM12.8083 74.6947L12.1071 74.5765C12.1039 74.5954 12.0996 74.6069 12.0784 74.6278L12.5762 75.1355L13.074 75.6433C13.3048 75.4171 13.4553 75.1347 13.5095 74.8129L12.8083 74.6947ZM12.5762 75.1355L12.0784 74.6278L11.8893 74.8131L12.3871 75.3209L12.885 75.8287L13.074 75.6433L12.5762 75.1355ZM12.3871 75.3209L11.8893 74.8131L11.7003 74.9984L12.1981 75.5062L12.6959 76.014L12.885 75.8287L12.3871 75.3209ZM12.1981 75.5062L11.7003 74.9984C11.6984 75.0003 11.7076 74.9911 11.728 74.983C11.7372 74.9793 11.746 74.977 11.7533 74.9758C11.7605 74.9745 11.7644 74.9746 11.7639 74.9746L11.7476 75.6856L11.7313 76.3965C12.1 76.4049 12.4348 76.27 12.6959 76.014L12.1981 75.5062ZM11.7476 75.6856L11.7639 74.9746L11.5024 74.9686L11.4861 75.6796L11.4698 76.3905L11.7313 76.3965L11.7476 75.6856ZM11.4861 75.6796L11.5024 74.9686L11.2409 74.9626L11.2246 75.6736L11.2083 76.3845L11.4698 76.3905L11.4861 75.6796ZM11.2246 75.6736L11.2409 74.9626C10.872 74.9542 10.5434 75.0893 10.28 75.3229L10.7517 75.855L11.2234 76.3872C11.2307 76.3807 11.2349 76.378 11.2357 76.3775C11.2364 76.377 11.2346 76.3782 11.2304 76.3798C11.2261 76.3815 11.2212 76.3828 11.2163 76.3837C11.214 76.3841 11.2121 76.3843 11.2106 76.3844C11.2099 76.3844 11.2093 76.3845 11.2089 76.3845C11.2085 76.3845 11.2083 76.3845 11.2083 76.3845L11.2246 75.6736ZM10.7517 75.855L10.28 75.3229L10.0685 75.5104L10.5402 76.0425L11.0119 76.5746L11.2234 76.3872L10.7517 75.855ZM10.5402 76.0425L10.0685 75.5104L9.85698 75.6979L10.3287 76.23L10.8004 76.7621L11.0119 76.5746L10.5402 76.0425ZM10.3287 76.23L9.85698 75.6979C9.7028 75.8345 9.56717 76.0201 9.50522 76.2582C9.44326 76.4963 9.47124 76.7244 9.5393 76.919L10.2105 76.6841L10.8817 76.4493C10.8876 76.466 10.9042 76.5296 10.8816 76.6163C10.859 76.703 10.8136 76.7504 10.8004 76.7621L10.3287 76.23ZM10.2105 76.6841L9.5393 76.919L9.63261 77.1857L10.3038 76.9508L10.975 76.7159L10.8817 76.4493L10.2105 76.6841ZM10.3038 76.9508L9.63261 77.1857L9.72592 77.4523L10.3971 77.2175L11.0683 76.9826L10.975 76.7159L10.3038 76.9508ZM10.3971 77.2175L9.72592 77.4523C9.75103 77.5241 9.75455 77.5827 9.74562 77.6386L10.4478 77.7508L11.15 77.863C11.1979 77.5633 11.1676 77.2664 11.0683 76.9826L10.3971 77.2175ZM10.4478 77.7508L9.74562 77.6386L9.703 77.9052L10.4052 78.0175L11.1074 78.1297L11.15 77.863L10.4478 77.7508ZM10.4052 78.0175L9.703 77.9052L9.66039 78.1719L10.3626 78.2841L11.0648 78.3963L11.1074 78.1297L10.4052 78.0175ZM10.3626 78.2841L9.66039 78.1719C9.64376 78.276 9.61533 78.3507 9.5839 78.4058L10.2014 78.7584L10.8189 79.111C10.9456 78.8893 11.0246 78.6478 11.0648 78.3963L10.3626 78.2841ZM10.2014 78.7584L9.5839 78.4058L9.46534 78.6134L10.0829 78.966L10.7004 79.3187L10.8189 79.111L10.2014 78.7584ZM10.0829 78.966L9.46534 78.6134L9.34678 78.821L9.96431 79.1737L10.5818 79.5263L10.7004 79.3187L10.0829 78.966ZM9.96431 79.1737L9.34678 78.821C9.29225 78.9165 9.22208 79.0163 9.1334 79.1198L9.67352 79.5824L10.2136 80.0449C10.3546 79.8803 10.4783 79.7076 10.5818 79.5263L9.96431 79.1737ZM9.67352 79.5824L9.1334 79.1198L8.96117 79.321L9.50129 79.7835L10.0414 80.246L10.2136 80.0449L9.67352 79.5824ZM9.50129 79.7835L8.96117 79.321L8.78894 79.5221L9.32906 79.9846L9.86918 80.4472L10.0414 80.246L9.50129 79.7835ZM9.32906 79.9846L8.78894 79.5221C8.79518 79.5148 8.82688 79.4787 8.88892 79.443C8.95629 79.4042 9.06019 79.366 9.18916 79.3713C9.3178 79.3765 9.41727 79.4227 9.47979 79.4654C9.5375 79.5049 9.56549 79.542 9.57053 79.5488L8.99843 79.9712L8.42634 80.3935C8.52931 80.533 8.75732 80.7771 9.13141 80.7923C9.50785 80.8076 9.75516 80.5803 9.86918 80.4472L9.32906 79.9846ZM8.99843 79.9712L9.57053 79.5488L9.41214 79.3343L8.84004 79.7566L8.26794 80.179L8.42634 80.3935L8.99843 79.9712ZM8.84004 79.7566L9.41214 79.3343L9.25374 79.1197L8.68165 79.5421L8.10955 79.9644L8.26794 80.179L8.84004 79.7566ZM8.68165 79.5421L9.25374 79.1197C9.17581 79.0142 9.11284 78.9073 9.06319 78.7992L8.41689 79.0957L7.77058 79.3923C7.86276 79.5932 7.97629 79.7839 8.10955 79.9644L8.68165 79.5421ZM8.41689 79.0957L9.06319 78.7992L8.95683 78.5674L8.31052 78.864L7.66422 79.1606L7.77058 79.3923L8.41689 79.0957ZM8.31052 78.864L8.95683 78.5674L8.85046 78.3356L8.20416 78.6322L7.55785 78.9288L7.66422 79.1606L8.31052 78.864ZM8.20416 78.6322L8.85046 78.3356C8.85018 78.335 8.85079 78.3362 8.85149 78.339C8.8522 78.3418 8.85259 78.3445 8.85272 78.3465C8.85284 78.3485 8.85263 78.3483 8.85296 78.3454C8.85331 78.3424 8.8543 78.3358 8.85722 78.3254L8.17242 78.1338L7.48762 77.9421C7.39668 78.2671 7.41048 78.6076 7.55785 78.9288L8.20416 78.6322ZM8.17242 78.1338L8.85722 78.3254L8.93185 78.0587L8.24705 77.8671L7.56225 77.6754L7.48762 77.9421L8.17242 78.1338ZM8.24705 77.8671L8.93185 78.0587L9.00648 77.7921L8.32168 77.6004L7.63687 77.4088L7.56225 77.6754L8.24705 77.8671ZM8.32168 77.6004L9.00648 77.7921C9.06727 77.5748 9.10854 77.3553 9.12944 77.1339L8.42148 77.0671L7.71352 77.0002C7.70085 77.1344 7.67559 77.2704 7.63687 77.4088L8.32168 77.6004ZM8.42148 77.0671L9.12944 77.1339L9.15462 76.8673L8.44666 76.8004L7.7387 76.7336L7.71352 77.0002L8.42148 77.0671ZM8.44666 76.8004L9.15462 76.8673L9.1798 76.6006L8.47184 76.5338L7.76387 76.4669L7.7387 76.7336L8.44666 76.8004ZM8.47184 76.5338L9.1798 76.6006C9.19697 76.4187 9.21256 76.2369 9.22656 76.055L8.51754 76.0004L7.80853 75.9458C7.79516 76.1195 7.78027 76.2932 7.76387 76.4669L8.47184 76.5338ZM8.51754 76.0004L9.22656 76.055L9.24708 75.7883L8.53807 75.7338L7.82906 75.6792L7.80853 75.9458L8.51754 76.0004ZM8.53807 75.7338L9.24708 75.7883L9.26761 75.5217L8.5586 75.4671L7.84958 75.4125L7.82906 75.6792L8.53807 75.7338ZM8.5586 75.4671L9.26761 75.5217C9.28307 75.3208 9.2887 75.1199 9.28448 74.9188L8.57353 74.9338L7.86257 74.9487C7.86582 75.1032 7.86149 75.2578 7.84958 75.4125L8.5586 75.4671ZM8.57353 74.9338L9.28448 74.9188L9.27888 74.6522L8.56793 74.6671L7.85698 74.682L7.86257 74.9487L8.57353 74.9338ZM8.56793 74.6671L9.27888 74.6522L9.27329 74.3855L8.56233 74.4004L7.85138 74.4153L7.85698 74.682L8.56793 74.6671ZM8.56233 74.4004L9.27329 74.3855C9.26665 74.0691 9.17034 73.7744 9.01541 73.5088L8.40117 73.8671L7.78694 74.2254C7.83942 74.3154 7.85056 74.3762 7.85138 74.4153L8.56233 74.4004ZM8.40117 73.8671L9.01541 73.5088L8.85985 73.2421L8.24561 73.6004L7.63137 73.9587L7.78694 74.2254L8.40117 73.8671ZM8.24561 73.6004L8.85985 73.2421L8.70428 72.9754L8.09005 73.3338L7.47581 73.6921L7.63137 73.9587L8.24561 73.6004ZM8.09005 73.3338L8.70428 72.9754C8.70319 72.9736 8.71848 73.0004 8.71972 73.0489C8.72099 73.0981 8.70672 73.1296 8.70415 73.1344L8.07637 72.8004L7.44858 72.4664C7.23517 72.8675 7.25128 73.3072 7.47581 73.6921L8.09005 73.3338ZM8.07637 72.8004L8.70415 73.1344L8.84603 72.8678L8.21825 72.5338L7.59046 72.1997L7.44858 72.4664L8.07637 72.8004ZM8.21825 72.5338L8.84603 72.8678L8.98791 72.6011L8.36013 72.2671L7.73234 71.9331L7.59046 72.1997L8.21825 72.5338ZM8.36013 72.2671L8.98791 72.6011C9.12109 72.3508 9.20855 72.0826 9.23491 71.7998L8.52687 71.7338L7.81883 71.6677C7.81205 71.7405 7.78834 71.8278 7.73234 71.9331L8.36013 72.2671ZM8.52687 71.7338L9.23491 71.7998L9.25978 71.5331L8.55174 71.4671L7.8437 71.4011L7.81883 71.6677L8.52687 71.7338ZM8.55174 71.4671L9.25978 71.5331L9.28464 71.2664L8.5766 71.2004L7.86856 71.1344L7.8437 71.4011L8.55174 71.4671ZM8.5766 71.2004L9.28464 71.2664C9.30387 71.0602 9.31021 70.8576 9.3027 70.659L8.5921 70.6859L7.88149 70.7128C7.88648 70.8447 7.88249 70.9851 7.86856 71.1344L8.5766 71.2004ZM8.5921 70.6859L9.3027 70.659L9.29333 70.4112L8.58272 70.438L7.87212 70.4649L7.88149 70.7128L8.5921 70.6859ZM8.58272 70.438L9.29333 70.4112L9.28396 70.1633L8.57335 70.1902L7.86275 70.2171L7.87212 70.4649L8.58272 70.438ZM8.57335 70.1902L9.28396 70.1633C9.27825 70.0125 9.27679 69.8512 9.2798 69.6791L8.56879 69.6666L7.85779 69.6542C7.85438 69.8497 7.85595 70.0374 7.86275 70.2171L8.57335 70.1902ZM8.56879 69.6666L9.2798 69.6791L9.28461 69.4034L8.57361 69.391L7.8626 69.3786L7.85779 69.6542L8.56879 69.6666ZM8.57361 69.391L9.28461 69.4034L9.28942 69.1277L8.57842 69.1153L7.86742 69.1029L7.8626 69.3786L8.57361 69.391ZM8.57842 69.1153L9.28942 69.1277C9.28924 69.138 9.2855 69.1813 9.25448 69.2343C9.2231 69.2879 9.1851 69.315 9.17054 69.3233L8.81826 68.7056L8.46598 68.0878C8.08621 68.3044 7.8749 68.674 7.86742 69.1029L8.57842 69.1153ZM8.81826 68.7056L9.17054 69.3233L9.40558 69.1892L9.05329 68.5715L8.70101 67.9538L8.46598 68.0878L8.81826 68.7056ZM9.05329 68.5715L9.40558 69.1892L9.64061 69.0552L9.28833 68.4375L8.93604 67.8198L8.70101 67.9538L9.05329 68.5715ZM9.28833 68.4375L9.64061 69.0552C9.75671 68.989 9.87066 68.9391 9.98269 68.9033L9.76652 68.2259L9.55034 67.5484C9.33816 67.6161 9.13332 67.7073 8.93604 67.8198L9.28833 68.4375ZM9.76652 68.2259L9.98269 68.9033L10.2259 68.8257L10.0097 68.1483L9.7935 67.4708L9.55034 67.5484L9.76652 68.2259ZM10.0097 68.1483L10.2259 68.8257L10.469 68.7481L10.2528 68.0707L10.0367 67.3932L9.7935 67.4708L10.0097 68.1483ZM10.2528 68.0707L10.469 68.7481C10.6049 68.7048 10.7611 68.6545 10.8455 68.6142L10.5389 67.9726L10.2323 67.331C10.2548 67.3202 10.268 67.3158 10.2558 67.3204C10.2487 67.323 10.2358 67.3277 10.2153 67.3347C10.1746 67.3486 10.1157 67.368 10.0367 67.3932L10.2528 68.0707ZM10.5389 67.9726L10.8455 68.6142L10.8883 68.5937L10.5817 67.9521L10.2751 67.3105L10.2323 67.331L10.5389 67.9726ZM10.5817 67.9521L10.8883 68.5937L10.9312 68.5732L10.6246 67.9316L10.318 67.29L10.2751 67.3105L10.5817 67.9521ZM10.6246 67.9316L10.9312 68.5732C10.8999 68.5882 10.8731 68.598 10.8549 68.6041C10.836 68.6103 10.8202 68.6146 10.8091 68.6173C10.7875 68.6226 10.7721 68.6251 10.7666 68.6259C10.7602 68.6268 10.7575 68.627 10.7596 68.6268C10.7615 68.6267 10.7659 68.6263 10.7734 68.6258C10.7887 68.6248 10.8112 68.6238 10.8423 68.623C10.8731 68.6223 10.9099 68.6218 10.9533 68.6217L10.952 67.9106L10.9508 67.1995C10.8502 67.1997 10.7586 67.2016 10.6824 67.2065C10.645 67.2089 10.6007 67.2126 10.5557 67.2194C10.5317 67.223 10.4281 67.2374 10.318 67.29L10.6246 67.9316ZM10.952 67.9106L10.9533 68.6217L11.2379 68.6212L11.2366 67.9101L11.2353 67.199L10.9508 67.1995L10.952 67.9106ZM117.889 67.9394L117.853 68.6496L118.131 68.6638L118.167 67.9536L118.203 67.2434L117.925 67.2292L117.889 67.9394ZM118.167 67.9536L118.131 68.6638C118.138 68.6641 118.142 68.6649 118.143 68.6651C118.144 68.6654 118.143 68.6653 118.142 68.6648C118.141 68.6644 118.141 68.6641 118.142 68.6647C118.143 68.6654 118.146 68.6678 118.152 68.673L118.646 68.1615L119.14 67.65C118.883 67.4018 118.561 67.2616 118.203 67.2434L118.167 67.9536ZM118.646 68.1615L118.152 68.673L118.352 68.8667L118.846 68.3552L119.34 67.8437L119.14 67.65L118.646 68.1615ZM118.846 68.3552L118.352 68.8667L118.553 69.0605L119.047 68.549L119.541 68.0375L119.34 67.8437L118.846 68.3552ZM119.047 68.549L118.553 69.0605C118.687 69.19 118.827 69.3249 118.973 69.4653L119.466 68.9528L119.959 68.4403C119.813 68.3005 119.674 68.1663 119.541 68.0375L119.047 68.549ZM119.466 68.9528L118.973 69.4653L119.191 69.6753L119.684 69.1628L120.177 68.6503L119.959 68.4403L119.466 68.9528ZM119.684 69.1628L119.191 69.6753L119.409 69.8854L119.902 69.3729L120.395 68.8604L120.177 68.6503L119.684 69.1628ZM119.902 69.3729L119.409 69.8854C119.418 69.8932 119.422 69.8988 119.424 69.9016C119.426 69.9043 119.427 69.9054 119.426 69.9051C119.426 69.9047 119.426 69.9047 119.427 69.9057C119.427 69.9068 119.428 69.9106 119.428 69.9179L120.138 69.8764L120.848 69.8349C120.826 69.4546 120.666 69.1203 120.395 68.8604L119.902 69.3729ZM120.138 69.8764L119.428 69.9179L119.445 70.2114L120.155 70.1699L120.865 70.1284L120.848 69.8349L120.138 69.8764ZM120.155 70.1699L119.445 70.2114L119.462 70.5049L120.172 70.4634L120.882 70.4219L120.865 70.1284L120.155 70.1699ZM120.172 70.4634L119.462 70.5049C119.469 70.6236 119.457 70.7282 119.429 70.823L120.111 71.0235L120.793 71.224C120.87 70.9634 120.898 70.6945 120.882 70.4219L120.172 70.4634ZM120.111 71.0235L119.429 70.823L119.35 71.0897L120.033 71.2902L120.715 71.4907L120.793 71.224L120.111 71.0235ZM120.033 71.2902L119.35 71.0897L119.272 71.3564L119.954 71.5569L120.637 71.7574L120.715 71.4907L120.033 71.2902ZM119.954 71.5569L119.272 71.3564C119.229 71.5043 119.174 71.6541 119.108 71.8059L119.76 72.0902L120.411 72.3745C120.5 72.1707 120.576 71.965 120.637 71.7574L119.954 71.5569ZM119.76 72.0902L119.108 71.8059L118.992 72.0726L119.643 72.3569L120.295 72.6412L120.411 72.3745L119.76 72.0902ZM119.643 72.3569L118.992 72.0726L118.875 72.3393L119.527 72.6235L120.179 72.9078L120.295 72.6412L119.643 72.3569ZM119.527 72.6235L118.875 72.3393C118.681 72.7848 118.777 73.2288 119.033 73.5774L119.606 73.1569L120.18 72.7364C120.168 72.7199 120.185 72.7372 120.192 72.7857C120.196 72.8094 120.196 72.8343 120.192 72.8581C120.189 72.8815 120.183 72.8985 120.179 72.9078L119.527 72.6235ZM119.606 73.1569L119.033 73.5774L119.228 73.844L119.802 73.4235L120.375 73.0031L120.18 72.7364L119.606 73.1569ZM119.802 73.4235L119.228 73.844L119.424 74.1107L119.997 73.6902L120.571 73.2697L120.375 73.0031L119.802 73.4235ZM119.997 73.6902L119.424 74.1107C119.423 74.1094 119.387 74.0583 119.386 73.9673C119.385 73.8754 119.419 73.8203 119.424 73.8143L120.005 74.2235L120.587 74.6328C120.716 74.449 120.812 74.2162 120.808 73.9464C120.804 73.6777 120.702 73.4488 120.571 73.2697L119.997 73.6902ZM120.005 74.2235L119.424 73.8143L119.236 74.0809L119.817 74.4902L120.399 74.8995L120.587 74.6328L120.005 74.2235ZM119.817 74.4902L119.236 74.0809L119.048 74.3476L119.63 74.7569L120.211 75.1661L120.399 74.8995L119.817 74.4902ZM119.63 74.7569L119.048 74.3476C118.93 74.5161 118.837 74.7212 118.816 74.9581C118.793 75.1987 118.848 75.4231 118.949 75.6177L119.58 75.2902L120.212 74.9627C120.22 74.9796 120.238 75.0262 120.232 75.089C120.226 75.1481 120.205 75.1755 120.211 75.1661L119.63 74.7569ZM119.58 75.2902L118.949 75.6177L119.088 75.8844L119.719 75.5569L120.35 75.2294L120.212 74.9627L119.58 75.2902ZM119.719 75.5569L119.088 75.8844L119.226 76.151L119.857 75.8235L120.488 75.4961L120.35 75.2294L119.719 75.5569ZM119.857 75.8235L119.226 76.151C119.23 76.1587 119.23 76.1614 119.23 76.1595C119.229 76.1573 119.228 76.1519 119.227 76.1438C119.227 76.1357 119.227 76.1277 119.228 76.1208C119.229 76.114 119.23 76.1108 119.23 76.1115L119.897 76.3569L120.565 76.6022C120.704 76.2251 120.667 75.8397 120.488 75.4961L119.857 75.8235ZM119.897 76.3569L119.23 76.1115L119.132 76.3782L119.799 76.6235L120.467 76.8689L120.565 76.6022L119.897 76.3569ZM119.799 76.6235L119.132 76.3782L119.034 76.6449L119.701 76.8902L120.369 77.1355L120.467 76.8689L119.799 76.6235ZM119.701 76.8902L119.034 76.6449C118.898 77.014 118.927 77.3933 119.096 77.7366L119.734 77.4235L120.373 77.1105C120.369 77.103 120.368 77.0999 120.369 77.1012C120.369 77.1026 120.37 77.1069 120.37 77.1133C120.371 77.1199 120.37 77.1261 120.37 77.1312C120.369 77.1361 120.368 77.1377 120.369 77.1355L119.701 76.8902ZM119.734 77.4235L119.096 77.7366L119.226 78.0032L119.865 77.6902L120.503 77.3772L120.373 77.1105L119.734 77.4235ZM119.865 77.6902L119.226 78.0032L119.357 78.2699L119.996 77.9569L120.634 77.6439L120.503 77.3772L119.865 77.6902ZM119.996 77.9569L119.357 78.2699C119.388 78.3327 119.396 78.3849 119.39 78.4401L120.098 78.5102L120.806 78.5803C120.838 78.2533 120.778 77.9366 120.634 77.6439L119.996 77.9569ZM120.098 78.5102L119.39 78.4401L119.362 78.7267L120.07 78.7969L120.777 78.867L120.806 78.5803L120.098 78.5102ZM120.07 78.7969L119.362 78.7267L119.333 79.0134L120.041 79.0835L120.749 79.1536L120.777 78.867L120.07 78.7969ZM120.041 79.0835L119.333 79.0134C119.333 79.0134 119.334 79.0118 119.334 79.0088C119.335 79.0057 119.336 79.0015 119.338 78.9963C119.341 78.9854 119.347 78.9728 119.355 78.9602C119.372 78.9328 119.388 78.9231 119.384 78.9259L119.763 79.5276L120.142 80.1293C120.489 79.9109 120.708 79.5696 120.749 79.1536L120.041 79.0835ZM119.763 79.5276L119.384 78.9259L119.134 79.0833L119.513 79.685L119.892 80.2867L120.142 80.1293L119.763 79.5276ZM119.513 79.685L119.134 79.0833L118.884 79.2407L119.263 79.8424L119.642 80.4441L119.892 80.2867L119.513 79.685ZM119.263 79.8424L118.884 79.2407C118.842 79.2669 118.793 79.2842 118.713 79.2827L118.699 79.9936L118.685 80.7046C119.024 80.7113 119.35 80.6278 119.642 80.4441L119.263 79.8424ZM118.699 79.9936L118.713 79.2827L118.4 79.2764L118.386 79.9874L118.372 80.6984L118.685 80.7046L118.699 79.9936ZM118.386 79.9874L118.4 79.2764L118.086 79.2702L118.072 79.9812L118.058 80.6921L118.372 80.6984L118.386 79.9874ZM118.072 79.9812L118.086 79.2702C118.089 79.2703 118.131 79.2708 118.194 79.2948C118.262 79.321 118.353 79.375 118.426 79.4735C118.499 79.5711 118.523 79.67 118.529 79.7364C118.532 79.7683 118.531 79.7927 118.529 79.8077C118.528 79.8227 118.526 79.8312 118.525 79.8322L117.835 79.663L117.144 79.4938C117.099 79.678 117.058 80.0184 117.286 80.3236C117.518 80.6349 117.862 80.6883 118.058 80.6921L118.072 79.9812ZM117.835 79.663L118.525 79.8322L118.602 79.5203L117.911 79.3511L117.22 79.1819L117.144 79.4938L117.835 79.663ZM117.911 79.3511L118.602 79.5203L118.678 79.2083L117.988 79.0391L117.297 78.8699L117.22 79.1819L117.911 79.3511ZM117.988 79.0391L118.678 79.2083C118.749 78.9216 118.769 78.6274 118.716 78.3355L118.016 78.4605L117.316 78.5855C117.328 78.6492 117.329 78.7407 117.297 78.8699L117.988 79.0391ZM118.016 78.4605L118.716 78.3355L118.669 78.0689L117.969 78.1938L117.269 78.3188L117.316 78.5855L118.016 78.4605ZM117.969 78.1938L118.669 78.0689L118.621 77.8022L117.921 77.9272L117.221 78.0522L117.269 78.3188L117.969 78.1938ZM117.921 77.9272L118.621 77.8022C118.588 77.6183 118.553 77.4344 118.515 77.2505L117.819 77.3938L117.122 77.5371C117.158 77.7089 117.191 77.8805 117.221 78.0522L117.921 77.9272ZM117.819 77.3938L118.515 77.2505L118.46 76.9839L117.764 77.1272L117.067 77.2705L117.122 77.5371L117.819 77.3938ZM117.764 77.1272L118.46 76.9839L118.406 76.7172L117.709 76.8605L117.012 77.0038L117.067 77.2705L117.764 77.1272ZM117.709 76.8605L118.406 76.7172C118.355 76.4702 118.26 76.2105 118.08 75.9927L117.532 76.4459L116.984 76.8991C116.974 76.8877 116.976 76.886 116.983 76.903C116.991 76.9203 117.002 76.9524 117.012 77.0038L117.709 76.8605ZM117.532 76.4459L118.08 75.9927L117.957 75.8447L117.409 76.2979L116.861 76.7511L116.984 76.8991L117.532 76.4459ZM117.409 76.2979L117.957 75.8447L117.835 75.6967L117.287 76.1499L116.739 76.6031L116.861 76.7511L117.409 76.2979ZM117.287 76.1499L117.835 75.6967C117.67 75.4971 117.46 75.3549 117.242 75.252L116.938 75.895L116.635 76.538C116.719 76.5778 116.741 76.6055 116.739 76.6031L117.287 76.1499ZM116.938 75.895L117.242 75.252L117.015 75.145L116.712 75.7881L116.408 76.4311L116.635 76.538L116.938 75.895ZM116.712 75.7881L117.015 75.145L116.789 75.0381L116.485 75.6811L116.182 76.3241L116.408 76.4311L116.712 75.7881ZM116.485 75.6811L116.789 75.0381C116.643 74.9691 116.494 74.8968 116.343 74.8212L116.025 75.4575L115.707 76.0937C115.868 76.1737 116.026 76.2505 116.182 76.3241L116.485 75.6811ZM116.025 75.4575L116.343 74.8212L116.109 74.7045L115.791 75.3408L115.474 75.977L115.707 76.0937L116.025 75.4575ZM115.791 75.3408L116.109 74.7045L115.875 74.5878L115.557 75.2241L115.24 75.8603L115.474 75.977L115.791 75.3408ZM115.557 75.2241L115.875 74.5878C115.837 74.5688 115.797 74.5382 115.756 74.4766L115.166 74.8745L114.577 75.2724C114.745 75.5213 114.966 75.7237 115.24 75.8603L115.557 75.2241ZM115.166 74.8745L115.756 74.4766L115.598 74.2436L115.009 74.6415L114.42 75.0394L114.577 75.2724L115.166 74.8745ZM115.009 74.6415L115.598 74.2436L115.441 74.0107L114.852 74.4086L114.262 74.8065L114.42 75.0394L115.009 74.6415ZM114.852 74.4086L115.441 74.0107C115.401 73.9509 115.38 73.8917 115.372 73.8239L114.665 73.8987L113.958 73.9736C113.99 74.275 114.093 74.5557 114.262 74.8065L114.852 74.4086ZM114.665 73.8987L115.372 73.8239L115.343 73.5469L114.636 73.6218L113.929 73.6966L113.958 73.9736L114.665 73.8987ZM114.636 73.6218L115.343 73.5469L115.314 73.27L114.607 73.3448L113.899 73.4196L113.929 73.6966L114.636 73.6218ZM114.607 73.3448L115.314 73.27C115.301 73.1482 115.305 73.0324 115.324 72.9208L114.623 72.8012L113.922 72.6816C113.88 72.9255 113.873 73.1721 113.899 73.4196L114.607 73.3448ZM114.623 72.8012L115.324 72.9208L115.369 72.6541L114.668 72.5345L113.967 72.4149L113.922 72.6816L114.623 72.8012ZM114.668 72.5345L115.369 72.6541L115.415 72.3874L114.714 72.2678L114.013 72.1482L113.967 72.4149L114.668 72.5345ZM114.714 72.2678L115.415 72.3874C115.455 72.152 115.466 71.915 115.447 71.6776L114.738 71.7345L114.029 71.7914C114.038 71.9096 114.033 72.0281 114.013 72.1482L114.714 72.2678ZM114.738 71.7345L115.447 71.6776L115.425 71.4109L114.716 71.4678L114.008 71.5248L114.029 71.7914L114.738 71.7345ZM114.716 71.4678L115.425 71.4109L115.404 71.1443L114.695 71.2012L113.986 71.2581L114.008 71.5248L114.716 71.4678ZM114.695 71.2012L115.404 71.1443C115.393 71.0102 115.394 70.8735 115.409 70.7339L114.701 70.6624L113.994 70.591C113.971 70.8141 113.968 71.0366 113.986 71.2581L114.695 71.2012ZM114.701 70.6624L115.409 70.7339L115.436 70.4618L114.729 70.3903L114.021 70.3189L113.994 70.591L114.701 70.6624ZM114.729 70.3903L115.436 70.4618L115.464 70.1897L114.756 70.1183L114.048 70.0468L114.021 70.3189L114.729 70.3903ZM114.756 70.1183L115.464 70.1897C115.464 70.1887 115.463 70.1921 115.461 70.1987C115.459 70.2054 115.456 70.2132 115.452 70.2211C115.447 70.229 115.443 70.2348 115.44 70.2382C115.437 70.2416 115.436 70.2414 115.44 70.2384L115.007 69.6746L114.573 69.1108C114.274 69.3406 114.087 69.6642 114.048 70.0468L114.756 70.1183ZM115.007 69.6746L115.44 70.2384L115.663 70.0669L115.23 69.5031L114.796 68.9393L114.573 69.1108L115.007 69.6746ZM115.23 69.5031L115.663 70.0669L115.886 69.8953L115.453 69.3315L115.02 68.7677L114.796 68.9393L115.23 69.5031ZM115.453 69.3315L115.886 69.8953C116.129 69.7086 116.317 69.4703 116.438 69.1867L115.784 68.9078L115.13 68.6289C115.107 68.6815 115.074 68.7256 115.02 68.7677L115.453 69.3315ZM115.784 68.9078L116.438 69.1867L116.545 68.9346L115.891 68.6557L115.237 68.3768L115.13 68.6289L115.784 68.9078ZM115.891 68.6557L116.545 68.9346L116.653 68.6824L115.999 68.4036L115.345 68.1247L115.237 68.3768L115.891 68.6557ZM115.999 68.4036L116.653 68.6824C116.65 68.6896 116.633 68.7235 116.59 68.7577C116.547 68.7923 116.507 68.8038 116.491 68.8065L116.37 68.1058L116.248 67.4051C115.828 67.4779 115.508 67.7414 115.345 68.1247L115.999 68.4036ZM116.37 68.1058L116.491 68.8065L116.755 68.7608L116.633 68.0602L116.512 67.3595L116.248 67.4051L116.37 68.1058ZM116.633 68.0602L116.755 68.7608L117.018 68.7152L116.897 68.0145L116.775 67.3138L116.512 67.3595L116.633 68.0602ZM116.897 68.0145L117.018 68.7152C117.108 68.6996 117.183 68.686 117.242 68.6745C117.281 68.6669 117.362 68.6512 117.428 68.629L117.204 67.9544L116.979 67.2798C116.997 67.2738 117.009 67.2705 117.011 67.2701C117.014 67.2693 117.015 67.2692 117.011 67.27C117.004 67.2716 116.991 67.2745 116.969 67.2788C116.925 67.2874 116.861 67.299 116.775 67.3138L116.897 68.0145ZM117.204 67.9544L117.428 68.629L117.472 68.6146L117.247 67.94L117.022 67.2654L116.979 67.2798L117.204 67.9544ZM117.247 67.94L117.472 68.6146L117.515 68.6002L117.29 67.9256L117.065 67.251L117.022 67.2654L117.247 67.94ZM117.29 67.9256L117.515 68.6002C117.487 68.6096 117.464 68.6153 117.448 68.6186C117.432 68.6221 117.419 68.6243 117.41 68.6257C117.392 68.6283 117.38 68.6292 117.377 68.6294C117.371 68.6299 117.374 68.6294 117.393 68.6294C117.428 68.6294 117.487 68.631 117.575 68.6355L117.611 67.9253L117.648 67.2151C117.55 67.2101 117.463 67.2071 117.392 67.2072C117.356 67.2072 117.316 67.208 117.276 67.2108C117.254 67.2124 117.164 67.218 117.065 67.251L117.29 67.9256ZM117.611 67.9253L117.575 68.6355L117.853 68.6496L117.889 67.9394L117.925 67.2292L117.648 67.2151L117.611 67.9253Z" fill="white"/>
</svg>
