<svg width="128" height="128" viewBox="0 0 128 128" fill="none" xmlns="http://www.w3.org/2000/svg">
<path d="M47.62 38.6584L50.0334 38.0501L49.9365 37.6658L49.7251 37.3305L47.62 38.6584ZM46.6003 37.0419L48.7054 35.714L46.6003 37.0419ZM44.988 32.6872L42.5554 33.2138L44.988 32.6872ZM44.808 30.8075L42.3195 30.7622L44.808 30.8075ZM44.4422 27.0497L42.2058 28.142L44.4422 27.0497ZM43.2274 23.5057L40.7407 23.4009L43.2274 23.5057ZM42.3633 16.9083L42.5748 14.4284L42.0138 14.3805L41.4867 14.5789L42.3633 16.9083ZM42.1577 16.9856L39.7443 17.5939L40.4255 20.2967L43.0343 19.3151L42.1577 16.9856ZM47.6444 38.7553L50.0578 38.1471L50.0334 38.0501L47.62 38.6584L45.2066 39.2666L45.231 39.3636L47.6444 38.7553ZM47.62 38.6584L49.7251 37.3305L48.7054 35.714L46.6003 37.0419L44.4952 38.3697L45.5149 39.9862L47.62 38.6584ZM46.6003 37.0419L48.7054 35.714C48.0533 34.6801 47.8501 34.1452 47.8157 33.9861L45.3831 34.5127L42.9506 35.0392C43.1796 36.0971 43.7879 37.2483 44.4952 38.3697L46.6003 37.0419ZM45.3831 34.5127L47.8157 33.9861L47.6181 33.0734L45.1855 33.5999L42.753 34.1265L42.9506 35.0392L45.3831 34.5127ZM45.1855 33.5999L47.6181 33.0734L47.4205 32.1606L44.988 32.6872L42.5554 33.2138L42.753 34.1265L45.1855 33.5999ZM44.988 32.6872L47.4205 32.1606C47.3309 31.7466 47.2881 31.3122 47.2965 30.8528L44.808 30.8075L42.3195 30.7622C42.3044 31.5922 42.3816 32.4109 42.5554 33.2138L44.988 32.6872ZM44.808 30.8075L47.2965 30.8528L47.3141 29.8859L44.8256 29.8406L42.3371 29.7953L42.3195 30.7622L44.808 30.8075ZM44.8256 29.8406L47.3141 29.8859L47.3317 28.9189L44.8432 28.8736L42.3547 28.8283L42.3371 29.7953L44.8256 29.8406ZM44.8432 28.8736L47.3317 28.9189C47.3504 27.8862 47.133 26.8877 46.6785 25.9573L44.4422 27.0497L42.2058 28.142C42.3095 28.3543 42.3594 28.5718 42.3547 28.8283L44.8432 28.8736ZM44.4422 27.0497L46.6785 25.9573L46.2599 25.1003L44.0235 26.1926L41.7872 27.285L42.2058 28.142L44.4422 27.0497ZM44.0235 26.1926L46.2599 25.1003L45.8413 24.2433L43.6049 25.3356L41.3686 26.428L41.7872 27.285L44.0235 26.1926ZM43.6049 25.3356L45.8413 24.2433C45.7479 24.052 45.7037 23.8545 45.714 23.6106L43.2274 23.5057L40.7407 23.4009C40.6963 24.4541 40.9038 25.4766 41.3686 26.428L43.6049 25.3356ZM43.2274 23.5057L45.714 23.6106L45.7551 22.6378L43.2684 22.5329L40.7817 22.428L40.7407 23.4009L43.2274 23.5057ZM43.2684 22.5329L45.7551 22.6378L45.7961 21.6649L43.3094 21.56L40.8227 21.4551L40.7817 22.428L43.2684 22.5329ZM43.3094 21.56L45.7961 21.6649C45.8317 20.8207 45.7678 19.9865 45.5984 19.168L43.1612 19.6723L40.7239 20.1767C40.8069 20.578 40.8418 21.0022 40.8227 21.4551L43.3094 21.56ZM43.1612 19.6723L45.5984 19.168L45.4091 18.2532L42.9719 18.7575L40.5346 19.2619L40.7239 20.1767L43.1612 19.6723ZM42.9719 18.7575L45.4091 18.2532L45.2198 17.3384L42.7826 17.8427L40.3453 18.347L40.5346 19.2619L42.9719 18.7575ZM42.7826 17.8427L45.2198 17.3384C45.1516 17.0085 45.072 16.6678 44.976 16.3761C44.933 16.2453 44.849 16.0055 44.7066 15.7539C44.6374 15.6316 44.4956 15.3998 44.2585 15.1652C44.0385 14.9476 43.513 14.5084 42.6898 14.4382L42.4783 16.9181L42.2667 19.398C41.4627 19.3294 40.9571 18.9013 40.7579 18.7042C40.5415 18.4901 40.4212 18.2882 40.3743 18.2052C40.3181 18.106 40.2852 18.0288 40.2714 17.9951C40.2559 17.9573 40.2484 17.9342 40.2477 17.9322C40.2471 17.9303 40.2572 17.9618 40.2768 18.0408C40.2955 18.1162 40.3184 18.217 40.3453 18.347L42.7826 17.8427ZM42.4783 16.9181L42.6898 14.4382L42.5748 14.4284L42.3633 16.9083L42.1517 19.3882L42.2667 19.398L42.4783 16.9181ZM42.3633 16.9083L41.4867 14.5789L41.2812 14.6562L42.1577 16.9856L43.0343 19.3151L43.2399 19.2377L42.3633 16.9083ZM42.1577 16.9856L44.5712 16.3774L44.5467 16.2804L42.1333 16.8887L39.7199 17.4969L39.7443 17.5939L42.1577 16.9856Z" fill="black"/>
<path d="M80.3795 38.6584L77.9661 38.0501L78.063 37.6658L78.2744 37.3305L80.3795 38.6584ZM81.3992 37.0419L79.2941 35.714L81.3992 37.0419ZM83.0115 32.6872L85.4441 33.2138L83.0115 32.6872ZM83.1915 30.8075L85.68 30.7622L83.1915 30.8075ZM83.5574 27.0497L85.7937 28.142L83.5574 27.0497ZM84.7722 23.5057L87.2588 23.4009L84.7722 23.5057ZM85.6362 16.9083L85.4247 14.4284L85.9858 14.3805L86.5128 14.5789L85.6362 16.9083ZM85.8418 16.9856L88.2552 17.5939L87.574 20.2967L84.9652 19.3151L85.8418 16.9856ZM80.3551 38.7553L77.9417 38.1471L77.9661 38.0501L80.3795 38.6584L82.793 39.2666L82.7685 39.3636L80.3551 38.7553ZM80.3795 38.6584L78.2744 37.3305L79.2941 35.714L81.3992 37.0419L83.5043 38.3697L82.4846 39.9862L80.3795 38.6584ZM81.3992 37.0419L79.2941 35.714C79.9463 34.6801 80.1494 34.1452 80.1838 33.9861L82.6164 34.5127L85.0489 35.0392C84.8199 36.0971 84.2116 37.2483 83.5043 38.3697L81.3992 37.0419ZM82.6164 34.5127L80.1838 33.9861L80.3814 33.0734L82.814 33.5999L85.2465 34.1265L85.0489 35.0392L82.6164 34.5127ZM82.814 33.5999L80.3814 33.0734L80.579 32.1606L83.0115 32.6872L85.4441 33.2138L85.2465 34.1265L82.814 33.5999ZM83.0115 32.6872L80.579 32.1606C80.6686 31.7466 80.7114 31.3122 80.7031 30.8528L83.1915 30.8075L85.68 30.7622C85.6951 31.5922 85.6179 32.4109 85.4441 33.2138L83.0115 32.6872ZM83.1915 30.8075L80.7031 30.8528L80.6855 29.8859L83.1739 29.8406L85.6624 29.7953L85.68 30.7622L83.1915 30.8075ZM83.1739 29.8406L80.6855 29.8859L80.6679 28.9189L83.1563 28.8736L85.6448 28.8283L85.6624 29.7953L83.1739 29.8406ZM83.1563 28.8736L80.6679 28.9189C80.6491 27.8862 80.8665 26.8877 81.321 25.9573L83.5574 27.0497L85.7937 28.142C85.69 28.3543 85.6401 28.5718 85.6448 28.8283L83.1563 28.8736ZM83.5574 27.0497L81.321 25.9573L81.7396 25.1003L83.976 26.1926L86.2123 27.285L85.7937 28.142L83.5574 27.0497ZM83.976 26.1926L81.7396 25.1003L82.1582 24.2433L84.3946 25.3356L86.6309 26.428L86.2123 27.285L83.976 26.1926ZM84.3946 25.3356L82.1582 24.2433C82.2516 24.052 82.2958 23.8545 82.2855 23.6106L84.7722 23.5057L87.2588 23.4009C87.3033 24.4541 87.0957 25.4766 86.6309 26.428L84.3946 25.3356ZM84.7722 23.5057L82.2855 23.6106L82.2444 22.6378L84.7311 22.5329L87.2178 22.428L87.2588 23.4009L84.7722 23.5057ZM84.7311 22.5329L82.2444 22.6378L82.2034 21.6649L84.6901 21.56L87.1768 21.4551L87.2178 22.428L84.7311 22.5329ZM84.6901 21.56L82.2034 21.6649C82.1678 20.8207 82.2317 19.9865 82.4011 19.168L84.8384 19.6723L87.2756 20.1767C87.1926 20.578 87.1577 21.0022 87.1768 21.4551L84.6901 21.56ZM84.8384 19.6723L82.4011 19.168L82.5904 18.2532L85.0276 18.7575L87.4649 19.2619L87.2756 20.1767L84.8384 19.6723ZM85.0276 18.7575L82.5904 18.2532L82.7797 17.3384L85.2169 17.8427L87.6542 18.347L87.4649 19.2619L85.0276 18.7575ZM85.2169 17.8427L82.7797 17.3384C82.8479 17.0085 82.9275 16.6678 83.0235 16.3761C83.0666 16.2453 83.1506 16.0055 83.2929 15.7539C83.3621 15.6316 83.5039 15.3998 83.741 15.1652C83.961 14.9476 84.4865 14.5084 85.3097 14.4382L85.5212 16.9181L85.7328 19.398C86.5368 19.3294 87.0424 18.9013 87.2416 18.7042C87.458 18.4901 87.5783 18.2882 87.6253 18.2052C87.6814 18.106 87.7143 18.0288 87.7281 17.9951C87.7436 17.9573 87.7512 17.9342 87.7518 17.9322C87.7525 17.9303 87.7423 17.9618 87.7227 18.0408C87.704 18.1162 87.6811 18.217 87.6542 18.347L85.2169 17.8427ZM85.5212 16.9181L85.3097 14.4382L85.4247 14.4284L85.6362 16.9083L85.8478 19.3882L85.7328 19.398L85.5212 16.9181ZM85.6362 16.9083L86.5128 14.5789L86.7183 14.6562L85.8418 16.9856L84.9652 19.3151L84.7597 19.2377L85.6362 16.9083ZM85.8418 16.9856L83.4284 16.3774L83.4528 16.2804L85.8662 16.8887L88.2796 17.4969L88.2552 17.5939L85.8418 16.9856Z" fill="black"/>
<circle cx="40.8888" cy="13.8664" r="4.62222" fill="black"/>
<path d="M45.2436 14.6183L44.5736 14.3801L45.2436 14.6183ZM45.1563 15.1497L45.8674 15.145L45.1563 15.1497ZM45.16 15.711L44.4489 15.7156L45.16 15.711ZM44.957 16.1762L45.4329 16.7046L44.957 16.1762ZM44.5472 16.5452L44.0713 16.0168L44.5472 16.5452ZM44.1595 16.9134L43.6555 16.4118L44.1595 16.9134ZM43.9768 17.0971L43.4727 16.5955L43.9768 17.0971ZM43.794 17.2808L44.298 17.7824L43.794 17.2808ZM43.3984 17.621L42.9769 17.0483L43.3984 17.621ZM42.9729 17.9342L43.3944 18.5069L42.9729 17.9342ZM42.4882 18.0734L42.4429 18.7831L42.4882 18.0734ZM41.9443 18.0387L41.9897 17.329L41.9443 18.0387ZM41.4272 18.0882L41.2402 17.4021L41.4272 18.0882ZM40.9367 18.2218L41.1237 18.9079L40.9367 18.2218ZM40.4195 18.3205L40.3369 17.6142L40.4195 18.3205ZM40.1475 18.3523L40.0649 17.646L40.1475 18.3523ZM39.8756 18.3841L39.9582 19.0904L39.8756 18.3841ZM39.3946 18.2356L38.9301 18.774L39.3946 18.2356ZM39.1856 18.0553L39.6501 17.5169L39.1856 18.0553ZM38.9766 17.875L39.4411 17.3365L38.9766 17.875ZM38.5137 17.602L38.7575 16.934L38.5137 17.602ZM38.0058 17.4167L37.762 18.0847L38.0058 17.4167ZM37.0347 16.8458L37.4292 16.2541L37.0347 16.8458ZM36.74 16.0978L36.0321 16.1647L36.74 16.0978ZM36.5396 15.2691L35.9307 15.6363L36.5396 15.2691ZM36.2501 14.7889L35.6411 15.1561L36.2501 14.7889ZM36.1958 14.2794L36.8699 14.5059L36.1958 14.2794ZM36.2864 14.01L35.6123 13.7835L36.2864 14.01ZM36.3769 13.7405L35.7028 13.514L36.3769 13.7405ZM36.6064 12.1679L35.954 11.8851L36.6064 12.1679ZM37.1476 11.2793L36.7436 10.6941L37.1476 11.2793ZM38.1793 10.4658L37.6845 9.95507L38.1793 10.4658ZM38.3611 10.2896L38.856 10.8003L38.3611 10.2896ZM40.1406 9.14037L40.1323 9.85144L40.1406 9.14037ZM41.2755 8.95018L41.1171 8.25694L41.2755 8.95018ZM41.7801 9.10949L41.2755 9.61052L41.7801 9.10949ZM42.2246 9.55715L42.7292 9.05613L42.2246 9.55715ZM42.6517 9.92415L42.2443 10.507L42.6517 9.92415ZM43.0614 10.2105L43.4688 9.62764L43.0614 10.2105ZM43.4763 10.4901L43.089 11.0865L43.4763 10.4901ZM43.8964 10.7628L44.2836 10.1664L43.8964 10.7628ZM44.2525 11.1042L44.8316 10.6916L44.2525 11.1042ZM44.3985 11.3092L43.8193 11.7218L44.3985 11.3092ZM44.5445 11.5142L45.1237 11.1016L44.5445 11.5142ZM44.8209 11.9411L44.2076 12.3011L44.8209 11.9411ZM44.9511 12.1631L45.5644 11.8031L44.9511 12.1631ZM45.3559 12.8573L44.7398 13.2123L45.3559 12.8573ZM45.5001 13.1076L46.1163 12.7526L45.5001 13.1076ZM45.6444 13.3579L46.2605 13.0029L45.6444 13.3579ZM45.7192 13.6728L46.2035 14.1935L45.7192 13.6728ZM45.6498 13.7373L46.1341 14.258L45.6498 13.7373ZM45.5804 13.8018L45.0962 13.2811L45.5804 13.8018ZM45.3328 14.3677L44.6628 14.1294L44.5736 14.3801L45.2436 14.6183L45.9136 14.8566L46.0028 14.606L45.3328 14.3677ZM45.2436 14.6183L44.5736 14.3801C44.485 14.6294 44.4435 14.8891 44.4452 15.1543L45.1563 15.1497L45.8674 15.145C45.8667 15.0361 45.8834 14.9416 45.9136 14.8566L45.2436 14.6183ZM45.1563 15.1497L44.4452 15.1543L44.4471 15.435L45.1581 15.4303L45.8692 15.4257L45.8674 15.145L45.1563 15.1497ZM45.1581 15.4303L44.4471 15.435L44.4489 15.7156L45.16 15.711L45.8711 15.7063L45.8692 15.4257L45.1581 15.4303ZM45.16 15.711L44.4489 15.7156C44.4489 15.7203 44.4484 15.706 44.4584 15.6831C44.463 15.6727 44.4683 15.6638 44.4734 15.6569C44.4783 15.6502 44.4816 15.6473 44.481 15.6478L44.957 16.1762L45.4329 16.7046C45.7234 16.4428 45.8736 16.0924 45.8711 15.7063L45.16 15.711ZM44.957 16.1762L44.481 15.6478L44.2762 15.8323L44.7521 16.3607L45.228 16.8891L45.4329 16.7046L44.957 16.1762ZM44.7521 16.3607L44.2762 15.8323L44.0713 16.0168L44.5472 16.5452L45.0231 17.0736L45.228 16.8891L44.7521 16.3607ZM44.5472 16.5452L44.0713 16.0168C43.9257 16.148 43.787 16.2796 43.6555 16.4118L44.1595 16.9134L44.6636 17.415C44.7757 17.3023 44.8955 17.1885 45.0231 17.0736L44.5472 16.5452ZM44.1595 16.9134L43.6555 16.4118L43.4727 16.5955L43.9768 17.0971L44.4808 17.5987L44.6636 17.415L44.1595 16.9134ZM43.9768 17.0971L43.4727 16.5955L43.2899 16.7792L43.794 17.2808L44.298 17.7824L44.4808 17.5987L43.9768 17.0971ZM43.794 17.2808L43.2899 16.7792C43.1942 16.8753 43.09 16.965 42.9769 17.0483L43.3984 17.621L43.82 18.1937C43.9905 18.0682 44.15 17.9311 44.298 17.7824L43.794 17.2808ZM43.3984 17.621L42.9769 17.0483L42.7642 17.2049L43.1857 17.7776L43.6072 18.3503L43.82 18.1937L43.3984 17.621ZM43.1857 17.7776L42.7642 17.2049L42.5514 17.3615L42.9729 17.9342L43.3944 18.5069L43.6072 18.3503L43.1857 17.7776ZM42.9729 17.9342L42.5514 17.3615C42.5477 17.3642 42.5461 17.365 42.5464 17.3648C42.5467 17.3646 42.5477 17.3642 42.5491 17.3638C42.5504 17.3634 42.5504 17.3636 42.5486 17.3638C42.5468 17.3639 42.5419 17.3643 42.5335 17.3637L42.4882 18.0734L42.4429 18.7831C42.7854 18.8049 43.1134 18.7138 43.3944 18.5069L42.9729 17.9342ZM42.4882 18.0734L42.5335 17.3637L42.2616 17.3464L42.2163 18.0561L42.171 18.7657L42.4429 18.7831L42.4882 18.0734ZM42.2163 18.0561L42.2616 17.3464L41.9897 17.329L41.9443 18.0387L41.899 18.7484L42.171 18.7657L42.2163 18.0561ZM41.9443 18.0387L41.9897 17.329C41.7358 17.3128 41.4845 17.3355 41.2402 17.4021L41.4272 18.0882L41.6142 18.7742C41.6968 18.7517 41.7903 18.7414 41.899 18.7484L41.9443 18.0387ZM41.4272 18.0882L41.2402 17.4021L40.9949 17.4689L41.1819 18.155L41.3689 18.8411L41.6142 18.7742L41.4272 18.0882ZM41.1819 18.155L40.9949 17.4689L40.7497 17.5358L40.9367 18.2218L41.1237 18.9079L41.3689 18.8411L41.1819 18.155ZM40.9367 18.2218L40.7497 17.5358C40.623 17.5703 40.4856 17.5968 40.3369 17.6142L40.4195 18.3205L40.5021 19.0268C40.716 19.0018 40.9235 18.9625 41.1237 18.9079L40.9367 18.2218ZM40.4195 18.3205L40.3369 17.6142L40.0649 17.646L40.1475 18.3523L40.2302 19.0586L40.5021 19.0268L40.4195 18.3205ZM40.1475 18.3523L40.0649 17.646L39.793 17.6778L39.8756 18.3841L39.9582 19.0904L40.2302 19.0586L40.1475 18.3523ZM39.8756 18.3841L39.793 17.6778C39.7919 17.6779 39.8067 17.6765 39.8291 17.6834C39.8514 17.6903 39.8617 17.6994 39.8591 17.6972L39.3946 18.2356L38.9301 18.774C39.2189 19.0232 39.5772 19.135 39.9582 19.0904L39.8756 18.3841ZM39.3946 18.2356L39.8591 17.6972L39.6501 17.5169L39.1856 18.0553L38.7211 18.5937L38.9301 18.774L39.3946 18.2356ZM39.1856 18.0553L39.6501 17.5169L39.4411 17.3365L38.9766 17.875L38.5121 18.4134L38.7211 18.5937L39.1856 18.0553ZM38.9766 17.875L39.4411 17.3365C39.238 17.1614 39.0093 17.0259 38.7575 16.934L38.5137 17.602L38.2698 18.27C38.3566 18.3017 38.4364 18.3482 38.5121 18.4134L38.9766 17.875ZM38.5137 17.602L38.7575 16.934L38.5035 16.8413L38.2597 17.5093L38.0159 18.1773L38.2698 18.27L38.5137 17.602ZM38.2597 17.5093L38.5035 16.8413L38.2496 16.7487L38.0058 17.4167L37.762 18.0847L38.0159 18.1773L38.2597 17.5093ZM38.0058 17.4167L38.2496 16.7487C38.1367 16.7074 38.0227 16.6498 37.9074 16.5729L37.5129 17.1646L37.1184 17.7562C37.3218 17.8919 37.5364 18.0023 37.762 18.0847L38.0058 17.4167ZM37.5129 17.1646L37.9074 16.5729L37.6683 16.4135L37.2738 17.0052L36.8793 17.5968L37.1184 17.7562L37.5129 17.1646ZM37.2738 17.0052L37.6683 16.4135L37.4292 16.2541L37.0347 16.8458L36.6402 17.4374L36.8793 17.5968L37.2738 17.0052ZM37.0347 16.8458L37.4292 16.2541C37.4289 16.2539 37.4334 16.2569 37.4403 16.264C37.4473 16.2713 37.4548 16.2808 37.4614 16.2921C37.4759 16.3167 37.4765 16.3324 37.4758 16.3252L36.7679 16.3921L36.0599 16.459C36.0979 16.8613 36.2968 17.2085 36.6402 17.4374L37.0347 16.8458ZM36.7679 16.3921L37.4758 16.3252L37.448 16.0308L36.74 16.0978L36.0321 16.1647L36.0599 16.459L36.7679 16.3921ZM36.74 16.0978L37.448 16.0308L37.4202 15.7365L36.7122 15.8035L36.0043 15.8704L36.0321 16.1647L36.74 16.0978ZM36.7122 15.8035L37.4202 15.7365C37.3921 15.44 37.3032 15.1583 37.1486 14.9019L36.5396 15.2691L35.9307 15.6363C35.9691 15.7 35.9952 15.7745 36.0043 15.8704L36.7122 15.8035ZM36.5396 15.2691L37.1486 14.9019L37.0038 14.6618L36.3948 15.029L35.7859 15.3962L35.9307 15.6363L36.5396 15.2691ZM36.3948 15.029L37.0038 14.6618L36.859 14.4217L36.2501 14.7889L35.6411 15.1561L35.7859 15.3962L36.3948 15.029ZM36.2501 14.7889L36.859 14.4217C36.8586 14.421 36.8611 14.4251 36.8641 14.4337C36.8672 14.4425 36.8699 14.4536 36.8712 14.4662C36.8742 14.4937 36.8687 14.5094 36.8699 14.5059L36.1958 14.2794L35.5218 14.0529C35.396 14.4272 35.4351 14.8145 35.6411 15.1561L36.2501 14.7889ZM36.1958 14.2794L36.8699 14.5059L36.9604 14.2365L36.2864 14.01L35.6123 13.7835L35.5218 14.0529L36.1958 14.2794ZM36.2864 14.01L36.9604 14.2365L37.051 13.967L36.3769 13.7405L35.7028 13.514L35.6123 13.7835L36.2864 14.01ZM36.3769 13.7405L37.051 13.967C37.1319 13.7263 37.1786 13.4795 37.1864 13.2286L36.4756 13.2065L35.7649 13.1845C35.7617 13.2864 35.7426 13.3956 35.7028 13.514L36.3769 13.7405ZM36.4756 13.2065L37.1864 13.2286L37.1946 12.964L36.4838 12.942L35.7731 12.9199L35.7649 13.1845L36.4756 13.2065ZM36.4838 12.942L37.1946 12.964L37.2028 12.6995L36.4921 12.6774L35.7813 12.6553L35.7731 12.9199L36.4838 12.942ZM36.4921 12.6774L37.2028 12.6995C37.2055 12.6137 37.2235 12.5322 37.2589 12.4507L36.6064 12.1679L35.954 11.8851C35.8478 12.1301 35.7896 12.3884 35.7813 12.6553L36.4921 12.6774ZM36.6064 12.1679L37.2589 12.4507L37.3651 12.2057L36.7126 11.9229L36.0601 11.6401L35.954 11.8851L36.6064 12.1679ZM36.7126 11.9229L37.3651 12.2057L37.4712 11.9608L36.8188 11.678L36.1663 11.3952L36.0601 11.6401L36.7126 11.9229ZM36.8188 11.678L37.4712 11.9608C37.4883 11.9213 37.5111 11.8925 37.5516 11.8645L37.1476 11.2793L36.7436 10.6941C36.4873 10.8711 36.2907 11.1081 36.1663 11.3952L36.8188 11.678ZM37.1476 11.2793L37.5516 11.8645L37.7743 11.7108L37.3703 11.1256L36.9663 10.5404L36.7436 10.6941L37.1476 11.2793ZM37.3703 11.1256L37.7743 11.7108L37.997 11.5571L37.593 10.9718L37.189 10.3866L36.9663 10.5404L37.3703 11.1256ZM37.593 10.9718L37.997 11.5571C38.1755 11.4338 38.3411 11.2992 38.4923 11.1526L37.9975 10.6419L37.5026 10.1312C37.4115 10.2196 37.3073 10.3049 37.189 10.3866L37.593 10.9718ZM37.9975 10.6419L38.4923 11.1526L38.6741 10.9765L38.1793 10.4658L37.6845 9.95507L37.5026 10.1312L37.9975 10.6419ZM38.1793 10.4658L38.6741 10.9765L38.856 10.8003L38.3611 10.2896L37.8663 9.7789L37.6845 9.95507L38.1793 10.4658ZM38.3611 10.2896L38.856 10.8003C39.0093 10.6517 39.1558 10.4813 39.2963 10.2932L38.7265 9.86764L38.1568 9.44208C38.0525 9.58172 37.9553 9.69262 37.8663 9.7789L38.3611 10.2896ZM38.7265 9.86764L39.2963 10.2932L39.4798 10.0474L38.9101 9.62185L38.3404 9.19629L38.1568 9.44208L38.7265 9.86764ZM38.9101 9.62185L39.4798 10.0474L39.6634 9.80162L39.0937 9.37606L38.524 8.9505L38.3404 9.19629L38.9101 9.62185ZM39.0937 9.37606L39.6634 9.80162C39.6701 9.79268 39.6603 9.80865 39.6286 9.82494C39.6137 9.83261 39.5983 9.83804 39.5839 9.84128C39.5698 9.84445 39.5601 9.84474 39.5568 9.8447L39.5651 9.13364L39.5734 8.42258C39.1373 8.41748 38.7719 8.61866 38.524 8.9505L39.0937 9.37606ZM39.5651 9.13364L39.5568 9.8447L39.8445 9.84807L39.8528 9.13701L39.8612 8.42595L39.5734 8.42258L39.5651 9.13364ZM39.8528 9.13701L39.8445 9.84807L40.1323 9.85144L40.1406 9.14037L40.1489 8.42931L39.8612 8.42595L39.8528 9.13701ZM40.1406 9.14037L40.1323 9.85144C40.3806 9.85434 40.6266 9.82789 40.8692 9.77247L40.7108 9.07922L40.5524 8.38598C40.4184 8.41658 40.2843 8.4309 40.1489 8.42931L40.1406 9.14037ZM40.7108 9.07922L40.8692 9.77247L41.1515 9.70795L40.9931 9.0147L40.8348 8.32146L40.5524 8.38598L40.7108 9.07922ZM40.9931 9.0147L41.1515 9.70795L41.4339 9.64343L41.2755 8.95018L41.1171 8.25694L40.8348 8.32146L40.9931 9.0147ZM41.2755 8.95018L41.4339 9.64343C41.4168 9.64734 41.3765 9.65095 41.3288 9.63587C41.2839 9.62171 41.267 9.60197 41.2755 9.61052L41.7801 9.10949L42.2848 8.60847C41.9821 8.30357 41.5692 8.15365 41.1171 8.25694L41.2755 8.95018ZM41.7801 9.10949L41.2755 9.61052L41.4977 9.83435L42.0024 9.33332L42.507 8.8323L42.2848 8.60847L41.7801 9.10949ZM42.0024 9.33332L41.4977 9.83435L41.72 10.0582L42.2246 9.55715L42.7292 9.05613L42.507 8.8323L42.0024 9.33332ZM42.2246 9.55715L41.72 10.0582C41.8907 10.2301 42.0653 10.3819 42.2443 10.507L42.6517 9.92415L43.0591 9.34129C42.9649 9.2755 42.8549 9.18265 42.7292 9.05613L42.2246 9.55715ZM42.6517 9.92415L42.2443 10.507L42.4492 10.6502L42.8565 10.0673L43.2639 9.48446L43.0591 9.34129L42.6517 9.92415ZM42.8565 10.0673L42.4492 10.6502L42.654 10.7934L43.0614 10.2105L43.4688 9.62764L43.2639 9.48446L42.8565 10.0673ZM43.0614 10.2105L42.654 10.7934C42.7972 10.8935 42.9422 10.9912 43.089 11.0865L43.4763 10.4901L43.8636 9.89365C43.7303 9.80712 43.5987 9.71845 43.4688 9.62764L43.0614 10.2105ZM43.4763 10.4901L43.089 11.0865L43.2991 11.2229L43.6863 10.6264L44.0736 10.03L43.8636 9.89365L43.4763 10.4901ZM43.6863 10.6264L43.2991 11.2229L43.5091 11.3592L43.8964 10.7628L44.2836 10.1664L44.0736 10.03L43.6863 10.6264ZM43.8964 10.7628L43.5091 11.3592C43.5738 11.4013 43.6275 11.4526 43.6733 11.5168L44.2525 11.1042L44.8316 10.6916C44.6827 10.4825 44.499 10.3063 44.2836 10.1664L43.8964 10.7628ZM44.2525 11.1042L43.6733 11.5168L43.8193 11.7218L44.3985 11.3092L44.9777 10.8966L44.8316 10.6916L44.2525 11.1042ZM44.3985 11.3092L43.8193 11.7218L43.9654 11.9268L44.5445 11.5142L45.1237 11.1016L44.9777 10.8966L44.3985 11.3092ZM44.5445 11.5142L43.9654 11.9268C44.0503 12.046 44.1311 12.1708 44.2076 12.3011L44.8209 11.9411L45.4341 11.5812C45.3369 11.4156 45.2335 11.2557 45.1237 11.1016L44.5445 11.5142ZM44.8209 11.9411L44.2076 12.3011L44.3379 12.5231L44.9511 12.1631L45.5644 11.8031L45.4341 11.5812L44.8209 11.9411ZM44.9511 12.1631L44.3379 12.5231L44.4682 12.745L45.0814 12.3851L45.6947 12.0251L45.5644 11.8031L44.9511 12.1631ZM45.0814 12.3851L44.4682 12.745C44.5539 12.8912 44.6445 13.0469 44.7398 13.2123L45.3559 12.8573L45.9721 12.5023C45.8751 12.334 45.7826 12.1749 45.6947 12.0251L45.0814 12.3851ZM45.3559 12.8573L44.7398 13.2123L44.884 13.4626L45.5001 13.1076L46.1163 12.7526L45.9721 12.5023L45.3559 12.8573ZM45.5001 13.1076L44.884 13.4626L45.0282 13.713L45.6444 13.3579L46.2605 13.0029L46.1163 12.7526L45.5001 13.1076ZM45.6444 13.3579L45.0282 13.713C45.0644 13.7757 45.0546 13.7735 45.0433 13.7263C45.0373 13.7008 45.0223 13.6276 45.0367 13.5275C45.0528 13.416 45.1067 13.2713 45.2349 13.1521L45.7192 13.6728L46.2035 14.1935C46.5193 13.8998 46.4555 13.5174 46.427 13.3974C46.3908 13.2452 46.3205 13.107 46.2605 13.0029L45.6444 13.3579ZM45.7192 13.6728L45.2349 13.1521L45.1655 13.2166L45.6498 13.7373L46.1341 14.258L46.2035 14.1935L45.7192 13.6728ZM45.6498 13.7373L45.1655 13.2166L45.0962 13.2811L45.5804 13.8018L46.0647 14.3226L46.1341 14.258L45.6498 13.7373ZM45.5804 13.8018L45.0962 13.2811C44.9788 13.3903 44.9083 13.5188 44.8708 13.5934C44.8263 13.6819 44.7871 13.7798 44.7519 13.8787L45.4219 14.117L46.0919 14.3553C46.1036 14.3224 46.1139 14.2957 46.1226 14.2745C46.1315 14.253 46.1378 14.2395 46.1414 14.2324C46.1453 14.2246 46.1436 14.2291 46.1355 14.2412C46.1312 14.2477 46.1238 14.2582 46.1131 14.2713C46.1025 14.2842 46.0866 14.3022 46.0647 14.3226L45.5804 13.8018ZM45.4219 14.117L44.7519 13.8787L44.6628 14.1294L45.3328 14.3677L46.0028 14.606L46.0919 14.3553L45.4219 14.117Z" fill="black"/>
<circle cx="4.62222" cy="4.62222" r="4.62222" transform="matrix(-1 0 0 1 91.7329 9.24414)" fill="black"/>
<path d="M82.7559 14.6183L83.4259 14.3801L82.7559 14.6183ZM82.8432 15.1497L82.1321 15.145L82.8432 15.1497ZM82.8395 15.711L83.5506 15.7156L82.8395 15.711ZM83.0426 16.1762L82.5667 16.7046L83.0426 16.1762ZM83.4523 16.5452L83.9282 16.0168L83.4523 16.5452ZM83.84 16.9134L84.344 16.4118L83.84 16.9134ZM84.0228 17.0971L84.5268 16.5955L84.0228 17.0971ZM84.2055 17.2808L83.7015 17.7824L84.2055 17.2808ZM84.6011 17.621L85.0226 17.0483L84.6011 17.621ZM85.0266 17.9342L84.6051 18.5069L85.0266 17.9342ZM85.5113 18.0734L85.5566 18.7831L85.5113 18.0734ZM86.0552 18.0387L86.0099 17.329L86.0552 18.0387ZM86.5723 18.0882L86.7593 17.4021L86.5723 18.0882ZM87.0628 18.2218L86.8758 18.9079L87.0628 18.2218ZM87.58 18.3205L87.6626 17.6142L87.58 18.3205ZM87.852 18.3523L87.9346 17.646L87.852 18.3523ZM88.1239 18.3841L88.0413 19.0904L88.1239 18.3841ZM88.6049 18.2356L89.0694 18.774L88.6049 18.2356ZM88.8139 18.0553L88.3494 17.5169L88.8139 18.0553ZM89.0229 17.875L88.5584 17.3365L89.0229 17.875ZM89.4859 17.602L89.2421 16.934L89.4859 17.602ZM89.9937 17.4167L90.2375 18.0847L89.9937 17.4167ZM90.9648 16.8458L90.5703 16.2541L90.9648 16.8458ZM91.2595 16.0978L91.9674 16.1647L91.2595 16.0978ZM91.4599 15.2691L92.0689 15.6363L91.4599 15.2691ZM91.7494 14.7889L92.3584 15.1561L91.7494 14.7889ZM91.8037 14.2794L91.1296 14.5059L91.8037 14.2794ZM91.7132 14.01L92.3872 13.7835L91.7132 14.01ZM91.6226 13.7405L92.2967 13.514L91.6226 13.7405ZM91.3931 12.1679L92.0455 11.8851L91.3931 12.1679ZM90.8519 11.2793L91.2559 10.6941L90.8519 11.2793ZM89.8202 10.4658L90.315 9.95507L89.8202 10.4658ZM89.6384 10.2896L89.1436 10.8003L89.6384 10.2896ZM87.8589 9.14037L87.8672 9.85144L87.8589 9.14037ZM86.724 8.95018L86.8824 8.25694L86.724 8.95018ZM86.2194 9.10949L86.724 9.61052L86.2194 9.10949ZM85.7749 9.55715L85.2703 9.05613L85.7749 9.55715ZM85.3478 9.92415L85.7552 10.507L85.3478 9.92415ZM84.9381 10.2105L84.5307 9.62764L84.9381 10.2105ZM84.5232 10.4901L84.9105 11.0865L84.5232 10.4901ZM84.1031 10.7628L83.7159 10.1664L84.1031 10.7628ZM83.7471 11.1042L83.1679 10.6916L83.7471 11.1042ZM83.601 11.3092L84.1802 11.7218L83.601 11.3092ZM83.455 11.5142L82.8758 11.1016L83.455 11.5142ZM83.1786 11.9411L83.7919 12.3011L83.1786 11.9411ZM83.0484 12.1631L82.4351 11.8031L83.0484 12.1631ZM82.6436 12.8573L83.2597 13.2123L82.6436 12.8573ZM82.4994 13.1076L81.8832 12.7526L82.4994 13.1076ZM82.3551 13.3579L81.739 13.0029L82.3551 13.3579ZM82.2803 13.6728L81.796 14.1935L82.2803 13.6728ZM82.3497 13.7373L81.8654 14.258L82.3497 13.7373ZM82.4191 13.8018L82.9033 13.2811L82.4191 13.8018ZM82.6668 14.3677L83.3368 14.1294L83.4259 14.3801L82.7559 14.6183L82.0859 14.8566L81.9968 14.606L82.6668 14.3677ZM82.7559 14.6183L83.4259 14.3801C83.5146 14.6294 83.556 14.8891 83.5543 15.1543L82.8432 15.1497L82.1321 15.145C82.1328 15.0361 82.1161 14.9416 82.0859 14.8566L82.7559 14.6183ZM82.8432 15.1497L83.5543 15.1543L83.5525 15.435L82.8414 15.4303L82.1303 15.4257L82.1321 15.145L82.8432 15.1497ZM82.8414 15.4303L83.5525 15.435L83.5506 15.7156L82.8395 15.711L82.1284 15.7063L82.1303 15.4257L82.8414 15.4303ZM82.8395 15.711L83.5506 15.7156C83.5506 15.7203 83.5511 15.706 83.5411 15.6831C83.5365 15.6727 83.5312 15.6638 83.5262 15.6569C83.5212 15.6502 83.518 15.6473 83.5185 15.6478L83.0426 16.1762L82.5667 16.7046C82.2761 16.4428 82.1259 16.0924 82.1284 15.7063L82.8395 15.711ZM83.0426 16.1762L83.5185 15.6478L83.7233 15.8323L83.2474 16.3607L82.7715 16.8891L82.5667 16.7046L83.0426 16.1762ZM83.2474 16.3607L83.7233 15.8323L83.9282 16.0168L83.4523 16.5452L82.9764 17.0736L82.7715 16.8891L83.2474 16.3607ZM83.4523 16.5452L83.9282 16.0168C84.0738 16.148 84.2125 16.2796 84.344 16.4118L83.84 16.9134L83.3359 17.415C83.2238 17.3023 83.104 17.1885 82.9764 17.0736L83.4523 16.5452ZM83.84 16.9134L84.344 16.4118L84.5268 16.5955L84.0228 17.0971L83.5187 17.5987L83.3359 17.415L83.84 16.9134ZM84.0228 17.0971L84.5268 16.5955L84.7096 16.7792L84.2055 17.2808L83.7015 17.7824L83.5187 17.5987L84.0228 17.0971ZM84.2055 17.2808L84.7096 16.7792C84.8053 16.8753 84.9095 16.965 85.0226 17.0483L84.6011 17.621L84.1796 18.1937C84.009 18.0682 83.8495 17.9311 83.7015 17.7824L84.2055 17.2808ZM84.6011 17.621L85.0226 17.0483L85.2353 17.2049L84.8138 17.7776L84.3923 18.3503L84.1796 18.1937L84.6011 17.621ZM84.8138 17.7776L85.2353 17.2049L85.4481 17.3615L85.0266 17.9342L84.6051 18.5069L84.3923 18.3503L84.8138 17.7776ZM85.0266 17.9342L85.4481 17.3615C85.4518 17.3642 85.4534 17.365 85.4532 17.3648C85.4528 17.3646 85.4518 17.3642 85.4504 17.3638C85.4491 17.3634 85.4491 17.3636 85.4509 17.3638C85.4528 17.3639 85.4576 17.3643 85.466 17.3637L85.5113 18.0734L85.5566 18.7831C85.2142 18.8049 84.8861 18.7138 84.6051 18.5069L85.0266 17.9342ZM85.5113 18.0734L85.466 17.3637L85.7379 17.3464L85.7832 18.0561L85.8285 18.7657L85.5566 18.7831L85.5113 18.0734ZM85.7832 18.0561L85.7379 17.3464L86.0099 17.329L86.0552 18.0387L86.1005 18.7484L85.8285 18.7657L85.7832 18.0561ZM86.0552 18.0387L86.0099 17.329C86.2637 17.3128 86.515 17.3355 86.7593 17.4021L86.5723 18.0882L86.3853 18.7742C86.3027 18.7517 86.2092 18.7414 86.1005 18.7484L86.0552 18.0387ZM86.5723 18.0882L86.7593 17.4021L87.0046 17.4689L86.8176 18.155L86.6306 18.8411L86.3853 18.7742L86.5723 18.0882ZM86.8176 18.155L87.0046 17.4689L87.2498 17.5358L87.0628 18.2218L86.8758 18.9079L86.6306 18.8411L86.8176 18.155ZM87.0628 18.2218L87.2498 17.5358C87.3765 17.5703 87.5139 17.5968 87.6626 17.6142L87.58 18.3205L87.4974 19.0268C87.2835 19.0018 87.0761 18.9625 86.8758 18.9079L87.0628 18.2218ZM87.58 18.3205L87.6626 17.6142L87.9346 17.646L87.852 18.3523L87.7694 19.0586L87.4974 19.0268L87.58 18.3205ZM87.852 18.3523L87.9346 17.646L88.2065 17.6778L88.1239 18.3841L88.0413 19.0904L87.7694 19.0586L87.852 18.3523ZM88.1239 18.3841L88.2065 17.6778C88.2077 17.6779 88.1928 17.6765 88.1704 17.6834C88.1481 17.6903 88.1378 17.6994 88.1404 17.6972L88.6049 18.2356L89.0694 18.774C88.7806 19.0232 88.4223 19.135 88.0413 19.0904L88.1239 18.3841ZM88.6049 18.2356L88.1404 17.6972L88.3494 17.5169L88.8139 18.0553L89.2784 18.5937L89.0694 18.774L88.6049 18.2356ZM88.8139 18.0553L88.3494 17.5169L88.5584 17.3365L89.0229 17.875L89.4874 18.4134L89.2784 18.5937L88.8139 18.0553ZM89.0229 17.875L88.5584 17.3365C88.7615 17.1614 88.9903 17.0259 89.2421 16.934L89.4859 17.602L89.7297 18.27C89.6429 18.3017 89.5631 18.3482 89.4874 18.4134L89.0229 17.875ZM89.4859 17.602L89.2421 16.934L89.496 16.8413L89.7398 17.5093L89.9836 18.1773L89.7297 18.27L89.4859 17.602ZM89.7398 17.5093L89.496 16.8413L89.7499 16.7487L89.9937 17.4167L90.2375 18.0847L89.9836 18.1773L89.7398 17.5093ZM89.9937 17.4167L89.7499 16.7487C89.8628 16.7074 89.9768 16.6498 90.0921 16.5729L90.4867 17.1646L90.8812 17.7562C90.6777 17.8919 90.4631 18.0023 90.2375 18.0847L89.9937 17.4167ZM90.4867 17.1646L90.0921 16.5729L90.3312 16.4135L90.7257 17.0052L91.1202 17.5968L90.8812 17.7562L90.4867 17.1646ZM90.7257 17.0052L90.3312 16.4135L90.5703 16.2541L90.9648 16.8458L91.3593 17.4374L91.1202 17.5968L90.7257 17.0052ZM90.9648 16.8458L90.5703 16.2541C90.5706 16.2539 90.5661 16.2569 90.5592 16.264C90.5522 16.2713 90.5447 16.2808 90.5381 16.2921C90.5236 16.3167 90.523 16.3324 90.5237 16.3252L91.2316 16.3921L91.9396 16.459C91.9016 16.8613 91.7027 17.2085 91.3593 17.4374L90.9648 16.8458ZM91.2316 16.3921L90.5237 16.3252L90.5515 16.0308L91.2595 16.0978L91.9674 16.1647L91.9396 16.459L91.2316 16.3921ZM91.2595 16.0978L90.5515 16.0308L90.5793 15.7365L91.2873 15.8035L91.9953 15.8704L91.9674 16.1647L91.2595 16.0978ZM91.2873 15.8035L90.5793 15.7365C90.6074 15.44 90.6963 15.1583 90.8509 14.9019L91.4599 15.2691L92.0689 15.6363C92.0305 15.7 92.0043 15.7745 91.9953 15.8704L91.2873 15.8035ZM91.4599 15.2691L90.8509 14.9019L90.9957 14.6618L91.6047 15.029L92.2136 15.3962L92.0689 15.6363L91.4599 15.2691ZM91.6047 15.029L90.9957 14.6618L91.1405 14.4217L91.7494 14.7889L92.3584 15.1561L92.2136 15.3962L91.6047 15.029ZM91.7494 14.7889L91.1405 14.4217C91.1409 14.421 91.1384 14.4251 91.1354 14.4337C91.1323 14.4425 91.1296 14.4536 91.1283 14.4662C91.1253 14.4937 91.1308 14.5094 91.1296 14.5059L91.8037 14.2794L92.4778 14.0529C92.6035 14.4272 92.5644 14.8145 92.3584 15.1561L91.7494 14.7889ZM91.8037 14.2794L91.1296 14.5059L91.0391 14.2365L91.7132 14.01L92.3872 13.7835L92.4778 14.0529L91.8037 14.2794ZM91.7132 14.01L91.0391 14.2365L90.9485 13.967L91.6226 13.7405L92.2967 13.514L92.3872 13.7835L91.7132 14.01ZM91.6226 13.7405L90.9485 13.967C90.8677 13.7263 90.8209 13.4795 90.8131 13.2286L91.5239 13.2065L92.2346 13.1845C92.2378 13.2864 92.2569 13.3956 92.2967 13.514L91.6226 13.7405ZM91.5239 13.2065L90.8131 13.2286L90.8049 12.964L91.5157 12.942L92.2264 12.9199L92.2346 13.1845L91.5239 13.2065ZM91.5157 12.942L90.8049 12.964L90.7967 12.6995L91.5075 12.6774L92.2182 12.6553L92.2264 12.9199L91.5157 12.942ZM91.5075 12.6774L90.7967 12.6995C90.794 12.6137 90.776 12.5322 90.7406 12.4507L91.3931 12.1679L92.0455 11.8851C92.1517 12.1301 92.2099 12.3884 92.2182 12.6553L91.5075 12.6774ZM91.3931 12.1679L90.7406 12.4507L90.6344 12.2057L91.2869 11.9229L91.9394 11.6401L92.0455 11.8851L91.3931 12.1679ZM91.2869 11.9229L90.6344 12.2057L90.5283 11.9608L91.1807 11.678L91.8332 11.3952L91.9394 11.6401L91.2869 11.9229ZM91.1807 11.678L90.5283 11.9608C90.5112 11.9213 90.4884 11.8925 90.4479 11.8645L90.8519 11.2793L91.2559 10.6941C91.5123 10.8711 91.7088 11.1081 91.8332 11.3952L91.1807 11.678ZM90.8519 11.2793L90.4479 11.8645L90.2252 11.7108L90.6292 11.1256L91.0332 10.5404L91.2559 10.6941L90.8519 11.2793ZM90.6292 11.1256L90.2252 11.7108L90.0025 11.5571L90.4065 10.9718L90.8105 10.3866L91.0332 10.5404L90.6292 11.1256ZM90.4065 10.9718L90.0025 11.5571C89.824 11.4338 89.6584 11.2992 89.5072 11.1526L90.002 10.6419L90.4969 10.1312C90.5881 10.2196 90.6922 10.3049 90.8105 10.3866L90.4065 10.9718ZM90.002 10.6419L89.5072 11.1526L89.3254 10.9765L89.8202 10.4658L90.315 9.95507L90.4969 10.1312L90.002 10.6419ZM89.8202 10.4658L89.3254 10.9765L89.1436 10.8003L89.6384 10.2896L90.1332 9.7789L90.315 9.95507L89.8202 10.4658ZM89.6384 10.2896L89.1436 10.8003C88.9902 10.6517 88.8437 10.4813 88.7033 10.2932L89.273 9.86764L89.8427 9.44208C89.947 9.58172 90.0442 9.69262 90.1332 9.7789L89.6384 10.2896ZM89.273 9.86764L88.7033 10.2932L88.5197 10.0474L89.0894 9.62185L89.6591 9.19629L89.8427 9.44208L89.273 9.86764ZM89.0894 9.62185L88.5197 10.0474L88.3361 9.80162L88.9058 9.37606L89.4755 8.9505L89.6591 9.19629L89.0894 9.62185ZM88.9058 9.37606L88.3361 9.80162C88.3294 9.79268 88.3392 9.80865 88.3709 9.82494C88.3858 9.83261 88.4012 9.83804 88.4156 9.84128C88.4297 9.84445 88.4394 9.84474 88.4428 9.8447L88.4344 9.13364L88.4261 8.42258C88.8622 8.41748 89.2276 8.61866 89.4755 8.9505L88.9058 9.37606ZM88.4344 9.13364L88.4428 9.8447L88.155 9.84807L88.1467 9.13701L88.1383 8.42595L88.4261 8.42258L88.4344 9.13364ZM88.1467 9.13701L88.155 9.84807L87.8672 9.85144L87.8589 9.14037L87.8506 8.42931L88.1383 8.42595L88.1467 9.13701ZM87.8589 9.14037L87.8672 9.85144C87.6189 9.85434 87.3729 9.82789 87.1304 9.77247L87.2888 9.07922L87.4471 8.38598C87.5811 8.41658 87.7152 8.4309 87.8506 8.42931L87.8589 9.14037ZM87.2888 9.07922L87.1304 9.77247L86.848 9.70795L87.0064 9.0147L87.1648 8.32146L87.4471 8.38598L87.2888 9.07922ZM87.0064 9.0147L86.848 9.70795L86.5656 9.64343L86.724 8.95018L86.8824 8.25694L87.1648 8.32146L87.0064 9.0147ZM86.724 8.95018L86.5656 9.64343C86.5827 9.64734 86.623 9.65095 86.6707 9.63587C86.7156 9.62171 86.7325 9.60197 86.724 9.61052L86.2194 9.10949L85.7147 8.60847C86.0175 8.30357 86.4303 8.15365 86.8824 8.25694L86.724 8.95018ZM86.2194 9.10949L86.724 9.61052L86.5018 9.83435L85.9971 9.33332L85.4925 8.8323L85.7147 8.60847L86.2194 9.10949ZM85.9971 9.33332L86.5018 9.83435L86.2795 10.0582L85.7749 9.55715L85.2703 9.05613L85.4925 8.8323L85.9971 9.33332ZM85.7749 9.55715L86.2795 10.0582C86.1088 10.2301 85.9342 10.3819 85.7552 10.507L85.3478 9.92415L84.9405 9.34129C85.0346 9.2755 85.1447 9.18265 85.2703 9.05613L85.7749 9.55715ZM85.3478 9.92415L85.7552 10.507L85.5503 10.6502L85.143 10.0673L84.7356 9.48446L84.9405 9.34129L85.3478 9.92415ZM85.143 10.0673L85.5503 10.6502L85.3455 10.7934L84.9381 10.2105L84.5307 9.62764L84.7356 9.48446L85.143 10.0673ZM84.9381 10.2105L85.3455 10.7934C85.2023 10.8935 85.0573 10.9912 84.9105 11.0865L84.5232 10.4901L84.1359 9.89365C84.2692 9.80712 84.4008 9.71845 84.5307 9.62764L84.9381 10.2105ZM84.5232 10.4901L84.9105 11.0865L84.7004 11.2229L84.3132 10.6264L83.9259 10.03L84.1359 9.89365L84.5232 10.4901ZM84.3132 10.6264L84.7004 11.2229L84.4904 11.3592L84.1031 10.7628L83.7159 10.1664L83.9259 10.03L84.3132 10.6264ZM84.1031 10.7628L84.4904 11.3592C84.4257 11.4013 84.372 11.4526 84.3262 11.5168L83.7471 11.1042L83.1679 10.6916C83.3168 10.4825 83.5005 10.3063 83.7159 10.1664L84.1031 10.7628ZM83.7471 11.1042L84.3262 11.5168L84.1802 11.7218L83.601 11.3092L83.0218 10.8966L83.1679 10.6916L83.7471 11.1042ZM83.601 11.3092L84.1802 11.7218L84.0341 11.9268L83.455 11.5142L82.8758 11.1016L83.0218 10.8966L83.601 11.3092ZM83.455 11.5142L84.0341 11.9268C83.9492 12.046 83.8684 12.1708 83.7919 12.3011L83.1786 11.9411L82.5654 11.5812C82.6626 11.4156 82.766 11.2557 82.8758 11.1016L83.455 11.5142ZM83.1786 11.9411L83.7919 12.3011L83.6616 12.5231L83.0484 12.1631L82.4351 11.8031L82.5654 11.5812L83.1786 11.9411ZM83.0484 12.1631L83.6616 12.5231L83.5314 12.745L82.9181 12.3851L82.3048 12.0251L82.4351 11.8031L83.0484 12.1631ZM82.9181 12.3851L83.5314 12.745C83.4456 12.8912 83.355 13.0469 83.2597 13.2123L82.6436 12.8573L82.0274 12.5023C82.1244 12.334 82.2169 12.1749 82.3048 12.0251L82.9181 12.3851ZM82.6436 12.8573L83.2597 13.2123L83.1155 13.4626L82.4994 13.1076L81.8832 12.7526L82.0274 12.5023L82.6436 12.8573ZM82.4994 13.1076L83.1155 13.4626L82.9713 13.713L82.3551 13.3579L81.739 13.0029L81.8832 12.7526L82.4994 13.1076ZM82.3551 13.3579L82.9713 13.713C82.9351 13.7757 82.9449 13.7735 82.9562 13.7263C82.9622 13.7008 82.9772 13.6276 82.9628 13.5275C82.9468 13.416 82.8928 13.2713 82.7646 13.1521L82.2803 13.6728L81.796 14.1935C81.4802 13.8998 81.544 13.5174 81.5725 13.3974C81.6087 13.2452 81.679 13.107 81.739 13.0029L82.3551 13.3579ZM82.2803 13.6728L82.7646 13.1521L82.834 13.2166L82.3497 13.7373L81.8654 14.258L81.796 14.1935L82.2803 13.6728ZM82.3497 13.7373L82.834 13.2166L82.9033 13.2811L82.4191 13.8018L81.9348 14.3226L81.8654 14.258L82.3497 13.7373ZM82.4191 13.8018L82.9033 13.2811C83.0208 13.3903 83.0912 13.5188 83.1287 13.5934C83.1732 13.6819 83.2124 13.7798 83.2476 13.8787L82.5776 14.117L81.9076 14.3553C81.8959 14.3224 81.8857 14.2957 81.8769 14.2745C81.868 14.253 81.8617 14.2395 81.8581 14.2324C81.8542 14.2246 81.8559 14.2291 81.864 14.2412C81.8683 14.2477 81.8757 14.2582 81.8864 14.2713C81.897 14.2842 81.913 14.3022 81.9348 14.3226L82.4191 13.8018ZM82.5776 14.117L83.2476 13.8787L83.3368 14.1294L82.6668 14.3677L81.9968 14.606L81.9076 14.3553L82.5776 14.117Z" fill="black"/>
</svg>
