<svg width="128" height="128" viewBox="0 0 128 128" fill="none" xmlns="http://www.w3.org/2000/svg">
<path d="M97.4222 34.2338L98.1179 34.3811L98.1333 34.3082V34.2338H97.4222ZM97.3199 34.7171L98.0156 34.8644L97.3199 34.7171ZM97.2806 35.4671L96.5886 35.6307L97.2806 35.4671ZM97.3437 35.7338L98.0357 35.5702L97.3437 35.7338ZM97.4067 36.0005L98.0987 35.8368L97.4067 36.0005ZM97.5512 36.5338L98.2313 36.3262L97.5512 36.5338ZM97.6326 36.8005L98.3127 36.5928L97.6326 36.8005ZM97.714 37.0671L97.0338 37.2747L97.714 37.0671ZM97.6907 37.6005L98.3526 37.8603L97.6907 37.6005ZM97.4814 38.1338L98.1433 38.3936L97.4814 38.1338ZM97.4707 38.6671L96.8 38.9035L97.4707 38.6671ZM97.5647 38.9338L98.2354 38.6974L97.5647 38.9338ZM97.6587 39.2005L98.3294 38.9641L97.6587 39.2005ZM97.7618 40.0005L97.0508 40.0126L97.7618 40.0005ZM97.7793 40.8005L98.4901 40.7779L97.7793 40.8005ZM97.7963 41.3338L97.0855 41.3564L97.7963 41.3338ZM97.6647 41.8626L97.0375 41.5275L97.6647 41.8626ZM97.3845 42.3869L98.0117 42.7221L97.3845 42.3869ZM96.9778 42.5564L97.2113 41.8847L96.9778 42.5564ZM96.4445 42.371L96.2109 43.0426L96.4445 42.371ZM95.9111 42.3593L95.7044 41.6789L95.9111 42.3593ZM95.6445 42.4403L95.8512 43.1207L95.6445 42.4403ZM95.3778 42.5213L95.171 41.841L95.3778 42.5213ZM94.8445 42.6095L94.8634 43.3203L94.8445 42.6095ZM94.3111 42.6237L94.2922 41.9128L94.3111 42.6237ZM93.7778 42.5093L93.4831 43.1565L93.7778 42.5093ZM93.5111 42.3879L93.8058 41.7407L93.5111 42.3879ZM93.2445 42.2664L92.9497 42.9136L93.2445 42.2664ZM92.4445 42.4806L92.0657 41.8788L92.4445 42.4806ZM92.1778 42.6485L92.5566 43.2503L92.1778 42.6485ZM91.6445 42.7397L91.8407 42.0562L91.6445 42.7397ZM91.1111 42.5866L90.9148 43.27L91.1111 42.5866ZM90.6222 42.4124L90.9081 41.7613L90.6222 42.4124ZM90.4 42.3149L90.1141 42.966L90.4 42.3149ZM90.1778 42.2173L90.4636 41.5662L90.1778 42.2173ZM89.9556 42.3045H89.2445V42.4846L89.3301 42.643L89.9556 42.3045ZM90.0556 42.4893V43.2005H91.2489L90.681 42.1509L90.0556 42.4893ZM97.4222 34.1338H96.7111V34.2338H97.4222H98.1333V34.1338H97.4222ZM97.4222 34.2338L96.7265 34.0865L96.6242 34.5698L97.3199 34.7171L98.0156 34.8644L98.1179 34.3811L97.4222 34.2338ZM97.3199 34.7171L96.6242 34.5698C96.549 34.9251 96.5101 35.299 96.5886 35.6307L97.2806 35.4671L97.9726 35.3035C97.967 35.2797 97.9544 35.1536 98.0156 34.8644L97.3199 34.7171ZM97.2806 35.4671L96.5886 35.6307L96.6516 35.8974L97.3437 35.7338L98.0357 35.5702L97.9726 35.3035L97.2806 35.4671ZM97.3437 35.7338L96.6516 35.8974L96.7147 36.1641L97.4067 36.0005L98.0987 35.8368L98.0357 35.5702L97.3437 35.7338ZM97.4067 36.0005L96.7147 36.1641C96.7603 36.3569 96.8124 36.5493 96.871 36.7414L97.5512 36.5338L98.2313 36.3262C98.1814 36.1627 98.1372 35.9996 98.0987 35.8368L97.4067 36.0005ZM97.5512 36.5338L96.871 36.7414L96.9524 37.0081L97.6326 36.8005L98.3127 36.5928L98.2313 36.3262L97.5512 36.5338ZM97.6326 36.8005L96.9524 37.0081L97.0338 37.2747L97.714 37.0671L98.3941 36.8595L98.3127 36.5928L97.6326 36.8005ZM97.714 37.0671L97.0338 37.2747C97.0399 37.2946 97.0417 37.3077 97.0287 37.3407L97.6907 37.6005L98.3526 37.8603C98.4793 37.5376 98.4966 37.1952 98.3941 36.8595L97.714 37.0671ZM97.6907 37.6005L97.0287 37.3407L96.9241 37.6073L97.586 37.8671L98.248 38.1269L98.3526 37.8603L97.6907 37.6005ZM97.586 37.8671L96.9241 37.6073L96.8194 37.874L97.4814 38.1338L98.1433 38.3936L98.248 38.1269L97.586 37.8671ZM97.4814 38.1338L96.8194 37.874C96.6881 38.2084 96.6798 38.5623 96.8 38.9035L97.4707 38.6671L98.1414 38.4307C98.1388 38.4235 98.1379 38.4191 98.1376 38.4172C98.1373 38.4154 98.1373 38.4147 98.1373 38.4147C98.1373 38.4146 98.1373 38.4135 98.1379 38.4108C98.1385 38.4079 98.1399 38.4023 98.1433 38.3936L97.4814 38.1338ZM97.4707 38.6671L96.8 38.9035L96.894 39.1702L97.5647 38.9338L98.2354 38.6974L98.1414 38.4307L97.4707 38.6671ZM97.5647 38.9338L96.894 39.1702L96.988 39.4369L97.6587 39.2005L98.3294 38.9641L98.2354 38.6974L97.5647 38.9338ZM97.6587 39.2005L96.988 39.4369C97.0268 39.5469 97.0446 39.649 97.0462 39.7459L97.7572 39.7338L98.4682 39.7217C98.4638 39.463 98.4159 39.2096 98.3294 38.9641L97.6587 39.2005ZM97.7572 39.7338L97.0462 39.7459L97.0508 40.0126L97.7618 40.0005L98.4728 39.9884L98.4682 39.7217L97.7572 39.7338ZM97.7618 40.0005L97.0508 40.0126L97.0553 40.2792L97.7663 40.2671L98.4773 40.255L98.4728 39.9884L97.7618 40.0005ZM97.7663 40.2671L97.0553 40.2792C97.0584 40.4605 97.0628 40.6418 97.0686 40.8231L97.7793 40.8005L98.4901 40.7779C98.4845 40.6036 98.4803 40.4293 98.4773 40.255L97.7663 40.2671ZM97.7793 40.8005L97.0686 40.8231L97.077 41.0897L97.7878 41.0671L98.4986 41.0445L98.4901 40.7779L97.7793 40.8005ZM97.7878 41.0671L97.077 41.0897L97.0855 41.3564L97.7963 41.3338L98.507 41.3112L98.4986 41.0445L97.7878 41.0671ZM97.7963 41.3338L97.0855 41.3564C97.0868 41.3959 97.079 41.4498 97.0375 41.5275L97.6647 41.8626L98.2919 42.1977C98.4371 41.9259 98.5171 41.6272 98.507 41.3112L97.7963 41.3338ZM97.6647 41.8626L97.0375 41.5275L96.8974 41.7897L97.5246 42.1248L98.1518 42.4599L98.2919 42.1977L97.6647 41.8626ZM97.5246 42.1248L96.8974 41.7897L96.7573 42.0518L97.3845 42.3869L98.0117 42.7221L98.1518 42.4599L97.5246 42.1248ZM97.3845 42.3869L96.7573 42.0518C96.761 42.045 96.8101 41.9578 96.9393 41.904C97.0743 41.8477 97.183 41.8749 97.2113 41.8847L96.9778 42.5564L96.7443 43.2281C96.9504 43.2997 97.2157 43.3295 97.4863 43.2168C97.7511 43.1065 97.9147 42.9036 98.0117 42.7221L97.3845 42.3869ZM96.9778 42.5564L97.2113 41.8847L96.9447 41.792L96.7111 42.4637L96.4776 43.1353L96.7443 43.2281L96.9778 42.5564ZM96.7111 42.4637L96.9447 41.792L96.678 41.6993L96.4445 42.371L96.2109 43.0426L96.4776 43.1353L96.7111 42.4637ZM96.4445 42.371L96.678 41.6993C96.3601 41.5887 96.0281 41.5805 95.7044 41.6789L95.9111 42.3593L96.1179 43.0397C96.1497 43.03 96.1733 43.0295 96.2109 43.0426L96.4445 42.371ZM95.9111 42.3593L95.7044 41.6789L95.4377 41.7599L95.6445 42.4403L95.8512 43.1207L96.1179 43.0397L95.9111 42.3593ZM95.6445 42.4403L95.4377 41.7599L95.171 41.841L95.3778 42.5213L95.5845 43.2017L95.8512 43.1207L95.6445 42.4403ZM95.3778 42.5213L95.171 41.841C95.0515 41.8773 94.9368 41.8957 94.8255 41.8986L94.8445 42.6095L94.8634 43.3203C95.1076 43.3138 95.3485 43.2735 95.5845 43.2017L95.3778 42.5213ZM94.8445 42.6095L94.8255 41.8986L94.5589 41.9057L94.5778 42.6166L94.5967 43.3274L94.8634 43.3203L94.8445 42.6095ZM94.5778 42.6166L94.5589 41.9057L94.2922 41.9128L94.3111 42.6237L94.33 43.3345L94.5967 43.3274L94.5778 42.6166ZM94.3111 42.6237L94.2922 41.9128C94.2327 41.9144 94.1618 41.9028 94.0725 41.8622L93.7778 42.5093L93.4831 43.1565C93.7494 43.2778 94.0339 43.3424 94.33 43.3345L94.3111 42.6237ZM93.7778 42.5093L94.0725 41.8622L93.8058 41.7407L93.5111 42.3879L93.2164 43.035L93.4831 43.1565L93.7778 42.5093ZM93.5111 42.3879L93.8058 41.7407L93.5392 41.6193L93.2445 42.2664L92.9497 42.9136L93.2164 43.035L93.5111 42.3879ZM93.2445 42.2664L93.5392 41.6193C93.1248 41.4305 92.6945 41.483 92.3324 41.711L92.7111 42.3128L93.0899 42.9147C93.1 42.9083 93.0816 42.9221 93.0394 42.9257C92.9949 42.9296 92.9615 42.919 92.9497 42.9136L93.2445 42.2664ZM92.7111 42.3128L92.3324 41.711L92.0657 41.8788L92.4445 42.4806L92.8232 43.0825L93.0899 42.9147L92.7111 42.3128ZM92.4445 42.4806L92.0657 41.8788L91.799 42.0466L92.1778 42.6485L92.5566 43.2503L92.8232 43.0825L92.4445 42.4806ZM92.1778 42.6485L91.799 42.0466C91.7762 42.061 91.7743 42.0572 91.7912 42.0543C91.7993 42.0529 91.8089 42.0522 91.819 42.0528C91.829 42.0534 91.8366 42.055 91.8407 42.0562L91.6445 42.7397L91.4482 43.4232C91.848 43.538 92.2332 43.4538 92.5566 43.2503L92.1778 42.6485ZM91.6445 42.7397L91.8407 42.0562L91.5741 41.9796L91.3778 42.6631L91.1815 43.3466L91.4482 43.4232L91.6445 42.7397ZM91.3778 42.6631L91.5741 41.9796L91.3074 41.9031L91.1111 42.5866L90.9148 43.27L91.1815 43.3466L91.3778 42.6631ZM91.1111 42.5866L91.3074 41.9031C91.1559 41.8596 91.0234 41.8119 90.9081 41.7613L90.6222 42.4124L90.3364 43.0635C90.5174 43.143 90.7107 43.2114 90.9148 43.27L91.1111 42.5866ZM90.6222 42.4124L90.9081 41.7613L90.6859 41.6637L90.4 42.3149L90.1141 42.966L90.3364 43.0635L90.6222 42.4124ZM90.4 42.3149L90.6859 41.6637L90.4636 41.5662L90.1778 42.2173L89.8919 42.8684L90.1141 42.966L90.4 42.3149ZM90.1778 42.2173L90.4636 41.5662C90.3815 41.5301 90.2152 41.4607 90.0276 41.4563C89.9297 41.454 89.7183 41.4665 89.5224 41.6248C89.2995 41.805 89.2445 42.0502 89.2445 42.2121H89.9556H90.6667C90.6667 42.3433 90.6209 42.5656 90.4165 42.7308C90.2392 42.8742 90.0555 42.8796 89.9946 42.8781C89.8811 42.8755 89.8259 42.8394 89.8919 42.8684L90.1778 42.2173ZM89.9556 42.2121H89.2445V42.3045H89.9556H90.6667V42.2121H89.9556ZM89.9556 42.3045L89.3301 42.643L89.4301 42.8278L90.0556 42.4893L90.681 42.1509L90.581 41.9661L89.9556 42.3045ZM90.0556 42.4893V41.7782H89.9556V42.4893V43.2005H90.0556V42.4893Z" fill="#DD2E44"/>
<path d="M97.4222 54.8336L98.1179 54.6863L98.1333 54.7591V54.8336H97.4222ZM97.3199 54.3503L98.0156 54.203L97.3199 54.3503ZM97.2806 53.6003L96.5886 53.4366L97.2806 53.6003ZM97.3437 53.3336L98.0357 53.4972L97.3437 53.3336ZM97.4067 53.0669L98.0987 53.2306L97.4067 53.0669ZM97.5512 52.5336L98.2313 52.7412L97.5512 52.5336ZM97.6326 52.2669L98.3127 52.4745L97.6326 52.2669ZM97.714 52.0003L97.0338 51.7927L97.714 52.0003ZM97.6907 51.4669L98.3526 51.2071L97.6907 51.4669ZM97.4814 50.9336L98.1433 50.6738L97.4814 50.9336ZM97.4707 50.4003L96.8 50.1639L97.4707 50.4003ZM97.5647 50.1336L98.2354 50.37L97.5647 50.1336ZM97.6587 49.8669L98.3294 50.1033L97.6587 49.8669ZM97.7618 49.0669L97.0508 49.0548L97.7618 49.0669ZM97.7793 48.2669L98.4901 48.2895L97.7793 48.2669ZM97.7963 47.7336L97.0855 47.711L97.7963 47.7336ZM97.6647 47.2048L97.0375 47.5399L97.6647 47.2048ZM97.3845 46.6804L98.0117 46.3453L97.3845 46.6804ZM96.9778 46.511L97.2113 47.1827L96.9778 46.511ZM96.4445 46.6964L96.2109 46.0248L96.4445 46.6964ZM95.9111 46.7081L95.7044 47.3885L95.9111 46.7081ZM95.6445 46.6271L95.8512 45.9467L95.6445 46.6271ZM95.3778 46.546L95.171 47.2264L95.3778 46.546ZM94.8445 46.4579L94.8634 45.747L94.8445 46.4579ZM94.3111 46.4437L94.2922 47.1546L94.3111 46.4437ZM93.7778 46.5581L93.4831 45.9109L93.7778 46.5581ZM93.5111 46.6795L93.8058 47.3267L93.5111 46.6795ZM93.2445 46.801L92.9497 46.1538L93.2445 46.801ZM92.4445 46.5867L92.0657 47.1886L92.4445 46.5867ZM92.1778 46.4189L92.5566 45.8171L92.1778 46.4189ZM91.6445 46.3277L91.8407 47.0112L91.6445 46.3277ZM91.1111 46.4808L90.9148 45.7973L91.1111 46.4808ZM90.6222 46.655L90.9081 47.3061L90.6222 46.655ZM90.4 46.7525L90.1141 46.1014L90.4 46.7525ZM90.1778 46.8501L90.4636 47.5012L90.1778 46.8501ZM89.9556 46.7628H89.2445V46.5828L89.3301 46.4244L89.9556 46.7628ZM90.0556 46.578V45.8669H91.2489L90.681 46.9165L90.0556 46.578ZM97.4222 54.9336H96.7111V54.8336H97.4222H98.1333V54.9336H97.4222ZM97.4222 54.8336L96.7265 54.9809L96.6242 54.4976L97.3199 54.3503L98.0156 54.203L98.1179 54.6863L97.4222 54.8336ZM97.3199 54.3503L96.6242 54.4976C96.549 54.1423 96.5101 53.7684 96.5886 53.4366L97.2806 53.6003L97.9726 53.7639C97.967 53.7877 97.9544 53.9138 98.0156 54.203L97.3199 54.3503ZM97.2806 53.6003L96.5886 53.4366L96.6516 53.17L97.3437 53.3336L98.0357 53.4972L97.9726 53.7639L97.2806 53.6003ZM97.3437 53.3336L96.6516 53.17L96.7147 52.9033L97.4067 53.0669L98.0987 53.2306L98.0357 53.4972L97.3437 53.3336ZM97.4067 53.0669L96.7147 52.9033C96.7603 52.7105 96.8124 52.518 96.871 52.326L97.5512 52.5336L98.2313 52.7412C98.1814 52.9047 98.1372 53.0678 98.0987 53.2306L97.4067 53.0669ZM97.5512 52.5336L96.871 52.326L96.9524 52.0593L97.6326 52.2669L98.3127 52.4745L98.2313 52.7412L97.5512 52.5336ZM97.6326 52.2669L96.9524 52.0593L97.0338 51.7927L97.714 52.0003L98.3941 52.2079L98.3127 52.4745L97.6326 52.2669ZM97.714 52.0003L97.0338 51.7927C97.0399 51.7728 97.0417 51.7597 97.0287 51.7267L97.6907 51.4669L98.3526 51.2071C98.4793 51.5298 98.4966 51.8722 98.3941 52.2079L97.714 52.0003ZM97.6907 51.4669L97.0287 51.7267L96.9241 51.4601L97.586 51.2003L98.248 50.9405L98.3526 51.2071L97.6907 51.4669ZM97.586 51.2003L96.9241 51.4601L96.8194 51.1934L97.4814 50.9336L98.1433 50.6738L98.248 50.9405L97.586 51.2003ZM97.4814 50.9336L96.8194 51.1934C96.6881 50.8589 96.6798 50.505 96.8 50.1639L97.4707 50.4003L98.1414 50.6367C98.1388 50.6439 98.1379 50.6483 98.1376 50.6502C98.1373 50.652 98.1373 50.6527 98.1373 50.6527C98.1373 50.6528 98.1373 50.6539 98.1379 50.6566C98.1385 50.6594 98.1399 50.6651 98.1433 50.6738L97.4814 50.9336ZM97.4707 50.4003L96.8 50.1639L96.894 49.8972L97.5647 50.1336L98.2354 50.37L98.1414 50.6367L97.4707 50.4003ZM97.5647 50.1336L96.894 49.8972L96.988 49.6305L97.6587 49.8669L98.3294 50.1033L98.2354 50.37L97.5647 50.1336ZM97.6587 49.8669L96.988 49.6305C97.0268 49.5205 97.0446 49.4183 97.0462 49.3215L97.7572 49.3336L98.4682 49.3457C98.4638 49.6044 98.4159 49.8578 98.3294 50.1033L97.6587 49.8669ZM97.7572 49.3336L97.0462 49.3215L97.0508 49.0548L97.7618 49.0669L98.4728 49.079L98.4682 49.3457L97.7572 49.3336ZM97.7618 49.0669L97.0508 49.0548L97.0553 48.7882L97.7663 48.8003L98.4773 48.8124L98.4728 49.079L97.7618 49.0669ZM97.7663 48.8003L97.0553 48.7882C97.0584 48.6069 97.0628 48.4256 97.0686 48.2443L97.7793 48.2669L98.4901 48.2895C98.4845 48.4638 98.4803 48.6381 98.4773 48.8124L97.7663 48.8003ZM97.7793 48.2669L97.0686 48.2443L97.077 47.9777L97.7878 48.0003L98.4986 48.0229L98.4901 48.2895L97.7793 48.2669ZM97.7878 48.0003L97.077 47.9777L97.0855 47.711L97.7963 47.7336L98.507 47.7562L98.4986 48.0229L97.7878 48.0003ZM97.7963 47.7336L97.0855 47.711C97.0868 47.6715 97.079 47.6176 97.0375 47.5399L97.6647 47.2048L98.2919 46.8696C98.4371 47.1415 98.5171 47.4401 98.507 47.7562L97.7963 47.7336ZM97.6647 47.2048L97.0375 47.5399L96.8974 47.2777L97.5246 46.9426L98.1518 46.6075L98.2919 46.8696L97.6647 47.2048ZM97.5246 46.9426L96.8974 47.2777L96.7573 47.0155L97.3845 46.6804L98.0117 46.3453L98.1518 46.6075L97.5246 46.9426ZM97.3845 46.6804L96.7573 47.0155C96.761 47.0224 96.8101 47.1096 96.9393 47.1634C97.0743 47.2196 97.183 47.1925 97.2113 47.1827L96.9778 46.511L96.7443 45.8393C96.9504 45.7676 97.2157 45.7379 97.4863 45.8506C97.7511 45.9609 97.9147 46.1637 98.0117 46.3453L97.3845 46.6804ZM96.9778 46.511L97.2113 47.1827L96.9447 47.2754L96.7111 46.6037L96.4776 45.932L96.7443 45.8393L96.9778 46.511ZM96.7111 46.6037L96.9447 47.2754L96.678 47.3681L96.4445 46.6964L96.2109 46.0248L96.4776 45.932L96.7111 46.6037ZM96.4445 46.6964L96.678 47.3681C96.3601 47.4786 96.0281 47.4869 95.7044 47.3885L95.9111 46.7081L96.1179 46.0277C96.1497 46.0374 96.1733 46.0378 96.2109 46.0248L96.4445 46.6964ZM95.9111 46.7081L95.7044 47.3885L95.4377 47.3075L95.6445 46.6271L95.8512 45.9467L96.1179 46.0277L95.9111 46.7081ZM95.6445 46.6271L95.4377 47.3075L95.171 47.2264L95.3778 46.546L95.5845 45.8656L95.8512 45.9467L95.6445 46.6271ZM95.3778 46.546L95.171 47.2264C95.0515 47.1901 94.9368 47.1717 94.8255 47.1688L94.8445 46.4579L94.8634 45.747C95.1076 45.7535 95.3485 45.7939 95.5845 45.8656L95.3778 46.546ZM94.8445 46.4579L94.8255 47.1688L94.5589 47.1617L94.5778 46.4508L94.5967 45.74L94.8634 45.747L94.8445 46.4579ZM94.5778 46.4508L94.5589 47.1617L94.2922 47.1546L94.3111 46.4437L94.33 45.7329L94.5967 45.74L94.5778 46.4508ZM94.3111 46.4437L94.2922 47.1546C94.2327 47.153 94.1618 47.1646 94.0725 47.2052L93.7778 46.5581L93.4831 45.9109C93.7494 45.7896 94.0339 45.725 94.33 45.7329L94.3111 46.4437ZM93.7778 46.5581L94.0725 47.2052L93.8058 47.3267L93.5111 46.6795L93.2164 46.0323L93.4831 45.9109L93.7778 46.5581ZM93.5111 46.6795L93.8058 47.3267L93.5392 47.4481L93.2445 46.801L92.9497 46.1538L93.2164 46.0323L93.5111 46.6795ZM93.2445 46.801L93.5392 47.4481C93.1248 47.6368 92.6945 47.5844 92.3324 47.3564L92.7111 46.7546L93.0899 46.1527C93.1 46.1591 93.0816 46.1453 93.0394 46.1416C92.9949 46.1378 92.9615 46.1484 92.9497 46.1538L93.2445 46.801ZM92.7111 46.7546L92.3324 47.3564L92.0657 47.1886L92.4445 46.5867L92.8232 45.9849L93.0899 46.1527L92.7111 46.7546ZM92.4445 46.5867L92.0657 47.1886L91.799 47.0208L92.1778 46.4189L92.5566 45.8171L92.8232 45.9849L92.4445 46.5867ZM92.1778 46.4189L91.799 47.0208C91.7762 47.0064 91.7743 47.0102 91.7912 47.0131C91.7993 47.0145 91.8089 47.0152 91.819 47.0146C91.829 47.014 91.8366 47.0124 91.8407 47.0112L91.6445 46.3277L91.4482 45.6442C91.848 45.5294 92.2332 45.6136 92.5566 45.8171L92.1778 46.4189ZM91.6445 46.3277L91.8407 47.0112L91.5741 47.0877L91.3778 46.4042L91.1815 45.7208L91.4482 45.6442L91.6445 46.3277ZM91.3778 46.4042L91.5741 47.0877L91.3074 47.1643L91.1111 46.4808L90.9148 45.7973L91.1815 45.7208L91.3778 46.4042ZM91.1111 46.4808L91.3074 47.1643C91.1559 47.2078 91.0234 47.2555 90.9081 47.3061L90.6222 46.655L90.3364 46.0038C90.5174 45.9244 90.7107 45.8559 90.9148 45.7973L91.1111 46.4808ZM90.6222 46.655L90.9081 47.3061L90.6859 47.4036L90.4 46.7525L90.1141 46.1014L90.3364 46.0038L90.6222 46.655ZM90.4 46.7525L90.6859 47.4036L90.4636 47.5012L90.1778 46.8501L89.8919 46.199L90.1141 46.1014L90.4 46.7525ZM90.1778 46.8501L90.4636 47.5012C90.3815 47.5373 90.2152 47.6067 90.0276 47.6111C89.9297 47.6133 89.7183 47.6009 89.5224 47.4426C89.2995 47.2624 89.2445 47.0172 89.2445 46.8552H89.9556H90.6667C90.6667 46.7241 90.6209 46.5018 90.4165 46.3366C90.2392 46.1932 90.0555 46.1878 89.9946 46.1892C89.8811 46.1919 89.8259 46.2279 89.8919 46.199L90.1778 46.8501ZM89.9556 46.8552H89.2445V46.7628H89.9556H90.6667V46.8552H89.9556ZM89.9556 46.7628L89.3301 46.4244L89.4301 46.2396L90.0556 46.578L90.681 46.9165L90.581 47.1013L89.9556 46.7628ZM90.0556 46.578V47.2891H89.9556V46.578V45.8669H90.0556V46.578Z" fill="#DD2E44"/>
<path d="M101.689 34.2338L100.993 34.3811L100.978 34.3082V34.2338H101.689ZM101.791 34.7171L101.096 34.8644L101.791 34.7171ZM101.831 35.4671L102.523 35.6307L101.831 35.4671ZM101.768 35.7338L101.076 35.5702L101.768 35.7338ZM101.705 36.0005L101.013 35.8368L101.705 36.0005ZM101.56 36.5338L100.88 36.3262L101.56 36.5338ZM101.479 36.8005L100.799 36.5928L101.479 36.8005ZM101.397 37.0671L102.077 37.2747L101.397 37.0671ZM101.421 37.6005L100.759 37.8603L101.421 37.6005ZM101.63 38.1338L100.968 38.3936L101.63 38.1338ZM101.641 38.6671L102.311 38.9035L101.641 38.6671ZM101.547 38.9338L100.876 38.6974L101.547 38.9338ZM101.453 39.2005L100.782 38.9641L101.453 39.2005ZM101.35 40.0005L102.061 40.0126L101.35 40.0005ZM101.332 40.8005L100.621 40.7779L101.332 40.8005ZM101.315 41.3338L102.026 41.3564L101.315 41.3338ZM101.447 41.8626L102.074 41.5275L101.447 41.8626ZM101.727 42.3869L101.1 42.7221L101.727 42.3869ZM102.134 42.5564L101.9 41.8847L102.134 42.5564ZM102.667 42.371L102.9 43.0426L102.667 42.371ZM103.2 42.3593L103.407 41.6789L103.2 42.3593ZM103.467 42.4403L103.26 43.1207L103.467 42.4403ZM103.734 42.5213L103.94 41.841L103.734 42.5213ZM104.267 42.6095L104.248 43.3203L104.267 42.6095ZM104.8 42.6237L104.819 41.9128L104.8 42.6237ZM105.334 42.5093L105.628 43.1565L105.334 42.5093ZM105.6 42.3879L105.305 41.7407L105.6 42.3879ZM105.867 42.2664L106.162 42.9136L105.867 42.2664ZM106.667 42.4806L107.046 41.8788L106.667 42.4806ZM106.934 42.6485L106.555 43.2503L106.934 42.6485ZM107.467 42.7397L107.271 42.0562L107.467 42.7397ZM108 42.5866L108.196 43.27L108 42.5866ZM108.489 42.4124L108.203 41.7613L108.489 42.4124ZM108.711 42.3149L108.997 42.966L108.711 42.3149ZM108.934 42.2173L108.648 41.5662L108.934 42.2173ZM109.156 42.3045H109.867V42.4846L109.781 42.643L109.156 42.3045ZM109.056 42.4893V43.2005H107.862L108.43 42.1509L109.056 42.4893ZM101.689 34.1338H102.4V34.2338H101.689H100.978V34.1338H101.689ZM101.689 34.2338L102.385 34.0865L102.487 34.5698L101.791 34.7171L101.096 34.8644L100.993 34.3811L101.689 34.2338ZM101.791 34.7171L102.487 34.5698C102.562 34.9251 102.601 35.299 102.523 35.6307L101.831 35.4671L101.139 35.3035C101.144 35.2797 101.157 35.1536 101.096 34.8644L101.791 34.7171ZM101.831 35.4671L102.523 35.6307L102.46 35.8974L101.768 35.7338L101.076 35.5702L101.139 35.3035L101.831 35.4671ZM101.768 35.7338L102.46 35.8974L102.397 36.1641L101.705 36.0005L101.013 35.8368L101.076 35.5702L101.768 35.7338ZM101.705 36.0005L102.397 36.1641C102.351 36.3569 102.299 36.5493 102.24 36.7414L101.56 36.5338L100.88 36.3262C100.93 36.1627 100.974 35.9996 101.013 35.8368L101.705 36.0005ZM101.56 36.5338L102.24 36.7414L102.159 37.0081L101.479 36.8005L100.799 36.5928L100.88 36.3262L101.56 36.5338ZM101.479 36.8005L102.159 37.0081L102.077 37.2747L101.397 37.0671L100.717 36.8595L100.799 36.5928L101.479 36.8005ZM101.397 37.0671L102.077 37.2747C102.071 37.2946 102.07 37.3077 102.083 37.3407L101.421 37.6005L100.759 37.8603C100.632 37.5376 100.615 37.1952 100.717 36.8595L101.397 37.0671ZM101.421 37.6005L102.083 37.3407L102.187 37.6073L101.525 37.8671L100.863 38.1269L100.759 37.8603L101.421 37.6005ZM101.525 37.8671L102.187 37.6073L102.292 37.874L101.63 38.1338L100.968 38.3936L100.863 38.1269L101.525 37.8671ZM101.63 38.1338L102.292 37.874C102.423 38.2084 102.432 38.5623 102.311 38.9035L101.641 38.6671L100.97 38.4307C100.973 38.4235 100.973 38.4191 100.974 38.4172C100.974 38.4154 100.974 38.4147 100.974 38.4147C100.974 38.4146 100.974 38.4135 100.973 38.4108C100.973 38.4079 100.971 38.4023 100.968 38.3936L101.63 38.1338ZM101.641 38.6671L102.311 38.9035L102.217 39.1702L101.547 38.9338L100.876 38.6974L100.97 38.4307L101.641 38.6671ZM101.547 38.9338L102.217 39.1702L102.123 39.4369L101.453 39.2005L100.782 38.9641L100.876 38.6974L101.547 38.9338ZM101.453 39.2005L102.123 39.4369C102.085 39.5469 102.067 39.649 102.065 39.7459L101.354 39.7338L100.643 39.7217C100.647 39.463 100.695 39.2096 100.782 38.9641L101.453 39.2005ZM101.354 39.7338L102.065 39.7459L102.061 40.0126L101.35 40.0005L100.639 39.9884L100.643 39.7217L101.354 39.7338ZM101.35 40.0005L102.061 40.0126L102.056 40.2792L101.345 40.2671L100.634 40.255L100.639 39.9884L101.35 40.0005ZM101.345 40.2671L102.056 40.2792C102.053 40.4605 102.049 40.6418 102.043 40.8231L101.332 40.8005L100.621 40.7779C100.627 40.6036 100.631 40.4293 100.634 40.255L101.345 40.2671ZM101.332 40.8005L102.043 40.8231L102.034 41.0897L101.324 41.0671L100.613 41.0445L100.621 40.7779L101.332 40.8005ZM101.324 41.0671L102.034 41.0897L102.026 41.3564L101.315 41.3338L100.604 41.3112L100.613 41.0445L101.324 41.0671ZM101.315 41.3338L102.026 41.3564C102.025 41.3959 102.032 41.4498 102.074 41.5275L101.447 41.8626L100.819 42.1977C100.674 41.9259 100.594 41.6272 100.604 41.3112L101.315 41.3338ZM101.447 41.8626L102.074 41.5275L102.214 41.7897L101.587 42.1248L100.96 42.4599L100.819 42.1977L101.447 41.8626ZM101.587 42.1248L102.214 41.7897L102.354 42.0518L101.727 42.3869L101.1 42.7221L100.96 42.4599L101.587 42.1248ZM101.727 42.3869L102.354 42.0518C102.35 42.045 102.301 41.9578 102.172 41.904C102.037 41.8477 101.928 41.8749 101.9 41.8847L102.134 42.5564L102.367 43.2281C102.161 43.2997 101.896 43.3295 101.625 43.2168C101.36 43.1065 101.197 42.9036 101.1 42.7221L101.727 42.3869ZM102.134 42.5564L101.9 41.8847L102.167 41.792L102.4 42.4637L102.634 43.1353L102.367 43.2281L102.134 42.5564ZM102.4 42.4637L102.167 41.792L102.433 41.6993L102.667 42.371L102.9 43.0426L102.634 43.1353L102.4 42.4637ZM102.667 42.371L102.433 41.6993C102.751 41.5887 103.083 41.5805 103.407 41.6789L103.2 42.3593L102.993 43.0397C102.962 43.03 102.938 43.0295 102.9 43.0426L102.667 42.371ZM103.2 42.3593L103.407 41.6789L103.674 41.7599L103.467 42.4403L103.26 43.1207L102.993 43.0397L103.2 42.3593ZM103.467 42.4403L103.674 41.7599L103.94 41.841L103.734 42.5213L103.527 43.2017L103.26 43.1207L103.467 42.4403ZM103.734 42.5213L103.94 41.841C104.06 41.8773 104.175 41.8957 104.286 41.8986L104.267 42.6095L104.248 43.3203C104.004 43.3138 103.763 43.2735 103.527 43.2017L103.734 42.5213ZM104.267 42.6095L104.286 41.8986L104.552 41.9057L104.534 42.6166L104.515 43.3274L104.248 43.3203L104.267 42.6095ZM104.534 42.6166L104.552 41.9057L104.819 41.9128L104.8 42.6237L104.781 43.3345L104.515 43.3274L104.534 42.6166ZM104.8 42.6237L104.819 41.9128C104.879 41.9144 104.95 41.9028 105.039 41.8622L105.334 42.5093L105.628 43.1565C105.362 43.2778 105.077 43.3424 104.781 43.3345L104.8 42.6237ZM105.334 42.5093L105.039 41.8622L105.305 41.7407L105.6 42.3879L105.895 43.035L105.628 43.1565L105.334 42.5093ZM105.6 42.3879L105.305 41.7407L105.572 41.6193L105.867 42.2664L106.162 42.9136L105.895 43.035L105.6 42.3879ZM105.867 42.2664L105.572 41.6193C105.987 41.4305 106.417 41.483 106.779 41.711L106.4 42.3128L106.021 42.9147C106.011 42.9083 106.03 42.9221 106.072 42.9257C106.116 42.9296 106.15 42.919 106.162 42.9136L105.867 42.2664ZM106.4 42.3128L106.779 41.711L107.046 41.8788L106.667 42.4806L106.288 43.0825L106.021 42.9147L106.4 42.3128ZM106.667 42.4806L107.046 41.8788L107.312 42.0466L106.934 42.6485L106.555 43.2503L106.288 43.0825L106.667 42.4806ZM106.934 42.6485L107.312 42.0466C107.335 42.061 107.337 42.0572 107.32 42.0543C107.312 42.0529 107.302 42.0522 107.292 42.0528C107.282 42.0534 107.275 42.055 107.271 42.0562L107.467 42.7397L107.663 43.4232C107.263 43.538 106.878 43.4538 106.555 43.2503L106.934 42.6485ZM107.467 42.7397L107.271 42.0562L107.537 41.9796L107.734 42.6631L107.93 43.3466L107.663 43.4232L107.467 42.7397ZM107.734 42.6631L107.537 41.9796L107.804 41.9031L108 42.5866L108.196 43.27L107.93 43.3466L107.734 42.6631ZM108 42.5866L107.804 41.9031C107.955 41.8596 108.088 41.8119 108.203 41.7613L108.489 42.4124L108.775 43.0635C108.594 43.143 108.401 43.2114 108.196 43.27L108 42.5866ZM108.489 42.4124L108.203 41.7613L108.425 41.6637L108.711 42.3149L108.997 42.966L108.775 43.0635L108.489 42.4124ZM108.711 42.3149L108.425 41.6637L108.648 41.5662L108.934 42.2173L109.219 42.8684L108.997 42.966L108.711 42.3149ZM108.934 42.2173L108.648 41.5662C108.73 41.5301 108.896 41.4607 109.084 41.4563C109.182 41.454 109.393 41.4665 109.589 41.6248C109.812 41.805 109.867 42.0502 109.867 42.2121H109.156H108.445C108.445 42.3433 108.49 42.5656 108.695 42.7308C108.872 42.8742 109.056 42.8796 109.117 42.8781C109.23 42.8755 109.285 42.8394 109.219 42.8684L108.934 42.2173ZM109.156 42.2121H109.867V42.3045H109.156H108.445V42.2121H109.156ZM109.156 42.3045L109.781 42.643L109.681 42.8278L109.056 42.4893L108.43 42.1509L108.53 41.9661L109.156 42.3045ZM109.056 42.4893V41.7782H109.156V42.4893V43.2005H109.056V42.4893Z" fill="#DD2E44"/>
<path d="M101.689 54.8336L100.993 54.6863L100.978 54.7591V54.8336H101.689ZM101.791 54.3503L101.096 54.203L101.791 54.3503ZM101.831 53.6003L102.523 53.4366L101.831 53.6003ZM101.768 53.3336L101.076 53.4972L101.768 53.3336ZM101.705 53.0669L101.013 53.2306L101.705 53.0669ZM101.56 52.5336L100.88 52.7412L101.56 52.5336ZM101.479 52.2669L100.799 52.4745L101.479 52.2669ZM101.397 52.0003L102.077 51.7927L101.397 52.0003ZM101.421 51.4669L100.759 51.2071L101.421 51.4669ZM101.63 50.9336L100.968 50.6738L101.63 50.9336ZM101.641 50.4003L102.311 50.1639L101.641 50.4003ZM101.547 50.1336L100.876 50.37L101.547 50.1336ZM101.453 49.8669L100.782 50.1033L101.453 49.8669ZM101.35 49.0669L102.061 49.0548L101.35 49.0669ZM101.332 48.2669L100.621 48.2895L101.332 48.2669ZM101.315 47.7336L102.026 47.711L101.315 47.7336ZM101.447 47.2048L102.074 47.5399L101.447 47.2048ZM101.727 46.6804L101.1 46.3453L101.727 46.6804ZM102.134 46.511L101.9 47.1827L102.134 46.511ZM102.667 46.6964L102.9 46.0248L102.667 46.6964ZM103.2 46.7081L103.407 47.3885L103.2 46.7081ZM103.467 46.6271L103.26 45.9467L103.467 46.6271ZM103.734 46.546L103.94 47.2264L103.734 46.546ZM104.267 46.4579L104.248 45.747L104.267 46.4579ZM104.8 46.4437L104.819 47.1546L104.8 46.4437ZM105.334 46.5581L105.628 45.9109L105.334 46.5581ZM105.6 46.6795L105.305 47.3267L105.6 46.6795ZM105.867 46.801L106.162 46.1538L105.867 46.801ZM106.667 46.5867L107.046 47.1886L106.667 46.5867ZM106.934 46.4189L106.555 45.8171L106.934 46.4189ZM107.467 46.3277L107.271 47.0112L107.467 46.3277ZM108 46.4808L108.196 45.7973L108 46.4808ZM108.489 46.655L108.203 47.3061L108.489 46.655ZM108.711 46.7525L108.997 46.1014L108.711 46.7525ZM108.934 46.8501L108.648 47.5012L108.934 46.8501ZM109.156 46.7628H109.867V46.5828L109.781 46.4244L109.156 46.7628ZM109.056 46.578V45.8669H107.862L108.43 46.9165L109.056 46.578ZM101.689 54.9336H102.4V54.8336H101.689H100.978V54.9336H101.689ZM101.689 54.8336L102.385 54.9809L102.487 54.4976L101.791 54.3503L101.096 54.203L100.993 54.6863L101.689 54.8336ZM101.791 54.3503L102.487 54.4976C102.562 54.1423 102.601 53.7684 102.523 53.4366L101.831 53.6003L101.139 53.7639C101.144 53.7877 101.157 53.9138 101.096 54.203L101.791 54.3503ZM101.831 53.6003L102.523 53.4366L102.46 53.17L101.768 53.3336L101.076 53.4972L101.139 53.7639L101.831 53.6003ZM101.768 53.3336L102.46 53.17L102.397 52.9033L101.705 53.0669L101.013 53.2306L101.076 53.4972L101.768 53.3336ZM101.705 53.0669L102.397 52.9033C102.351 52.7105 102.299 52.518 102.24 52.326L101.56 52.5336L100.88 52.7412C100.93 52.9047 100.974 53.0678 101.013 53.2306L101.705 53.0669ZM101.56 52.5336L102.24 52.326L102.159 52.0593L101.479 52.2669L100.799 52.4745L100.88 52.7412L101.56 52.5336ZM101.479 52.2669L102.159 52.0593L102.077 51.7927L101.397 52.0003L100.717 52.2079L100.799 52.4745L101.479 52.2669ZM101.397 52.0003L102.077 51.7927C102.071 51.7728 102.07 51.7597 102.083 51.7267L101.421 51.4669L100.759 51.2071C100.632 51.5298 100.615 51.8722 100.717 52.2079L101.397 52.0003ZM101.421 51.4669L102.083 51.7267L102.187 51.4601L101.525 51.2003L100.863 50.9405L100.759 51.2071L101.421 51.4669ZM101.525 51.2003L102.187 51.4601L102.292 51.1934L101.63 50.9336L100.968 50.6738L100.863 50.9405L101.525 51.2003ZM101.63 50.9336L102.292 51.1934C102.423 50.8589 102.432 50.505 102.311 50.1639L101.641 50.4003L100.97 50.6367C100.973 50.6439 100.973 50.6483 100.974 50.6502C100.974 50.652 100.974 50.6527 100.974 50.6527C100.974 50.6528 100.974 50.6539 100.973 50.6566C100.973 50.6594 100.971 50.6651 100.968 50.6738L101.63 50.9336ZM101.641 50.4003L102.311 50.1639L102.217 49.8972L101.547 50.1336L100.876 50.37L100.97 50.6367L101.641 50.4003ZM101.547 50.1336L102.217 49.8972L102.123 49.6305L101.453 49.8669L100.782 50.1033L100.876 50.37L101.547 50.1336ZM101.453 49.8669L102.123 49.6305C102.085 49.5205 102.067 49.4183 102.065 49.3215L101.354 49.3336L100.643 49.3457C100.647 49.6044 100.695 49.8578 100.782 50.1033L101.453 49.8669ZM101.354 49.3336L102.065 49.3215L102.061 49.0548L101.35 49.0669L100.639 49.079L100.643 49.3457L101.354 49.3336ZM101.35 49.0669L102.061 49.0548L102.056 48.7882L101.345 48.8003L100.634 48.8124L100.639 49.079L101.35 49.0669ZM101.345 48.8003L102.056 48.7882C102.053 48.6069 102.049 48.4256 102.043 48.2443L101.332 48.2669L100.621 48.2895C100.627 48.4638 100.631 48.6381 100.634 48.8124L101.345 48.8003ZM101.332 48.2669L102.043 48.2443L102.034 47.9777L101.324 48.0003L100.613 48.0229L100.621 48.2895L101.332 48.2669ZM101.324 48.0003L102.034 47.9777L102.026 47.711L101.315 47.7336L100.604 47.7562L100.613 48.0229L101.324 48.0003ZM101.315 47.7336L102.026 47.711C102.025 47.6715 102.032 47.6176 102.074 47.5399L101.447 47.2048L100.819 46.8696C100.674 47.1415 100.594 47.4401 100.604 47.7562L101.315 47.7336ZM101.447 47.2048L102.074 47.5399L102.214 47.2777L101.587 46.9426L100.96 46.6075L100.819 46.8696L101.447 47.2048ZM101.587 46.9426L102.214 47.2777L102.354 47.0155L101.727 46.6804L101.1 46.3453L100.96 46.6075L101.587 46.9426ZM101.727 46.6804L102.354 47.0155C102.35 47.0224 102.301 47.1096 102.172 47.1634C102.037 47.2196 101.928 47.1925 101.9 47.1827L102.134 46.511L102.367 45.8393C102.161 45.7676 101.896 45.7379 101.625 45.8506C101.36 45.9609 101.197 46.1637 101.1 46.3453L101.727 46.6804ZM102.134 46.511L101.9 47.1827L102.167 47.2754L102.4 46.6037L102.634 45.932L102.367 45.8393L102.134 46.511ZM102.4 46.6037L102.167 47.2754L102.433 47.3681L102.667 46.6964L102.9 46.0248L102.634 45.932L102.4 46.6037ZM102.667 46.6964L102.433 47.3681C102.751 47.4786 103.083 47.4869 103.407 47.3885L103.2 46.7081L102.993 46.0277C102.962 46.0374 102.938 46.0378 102.9 46.0248L102.667 46.6964ZM103.2 46.7081L103.407 47.3885L103.674 47.3075L103.467 46.6271L103.26 45.9467L102.993 46.0277L103.2 46.7081ZM103.467 46.6271L103.674 47.3075L103.94 47.2264L103.734 46.546L103.527 45.8656L103.26 45.9467L103.467 46.6271ZM103.734 46.546L103.94 47.2264C104.06 47.1901 104.175 47.1717 104.286 47.1688L104.267 46.4579L104.248 45.747C104.004 45.7535 103.763 45.7939 103.527 45.8656L103.734 46.546ZM104.267 46.4579L104.286 47.1688L104.552 47.1617L104.534 46.4508L104.515 45.74L104.248 45.747L104.267 46.4579ZM104.534 46.4508L104.552 47.1617L104.819 47.1546L104.8 46.4437L104.781 45.7329L104.515 45.74L104.534 46.4508ZM104.8 46.4437L104.819 47.1546C104.879 47.153 104.95 47.1646 105.039 47.2052L105.334 46.5581L105.628 45.9109C105.362 45.7896 105.077 45.725 104.781 45.7329L104.8 46.4437ZM105.334 46.5581L105.039 47.2052L105.305 47.3267L105.6 46.6795L105.895 46.0323L105.628 45.9109L105.334 46.5581ZM105.6 46.6795L105.305 47.3267L105.572 47.4481L105.867 46.801L106.162 46.1538L105.895 46.0323L105.6 46.6795ZM105.867 46.801L105.572 47.4481C105.987 47.6368 106.417 47.5844 106.779 47.3564L106.4 46.7546L106.021 46.1527C106.011 46.1591 106.03 46.1453 106.072 46.1416C106.116 46.1378 106.15 46.1484 106.162 46.1538L105.867 46.801ZM106.4 46.7546L106.779 47.3564L107.046 47.1886L106.667 46.5867L106.288 45.9849L106.021 46.1527L106.4 46.7546ZM106.667 46.5867L107.046 47.1886L107.312 47.0208L106.934 46.4189L106.555 45.8171L106.288 45.9849L106.667 46.5867ZM106.934 46.4189L107.312 47.0208C107.335 47.0064 107.337 47.0102 107.32 47.0131C107.312 47.0145 107.302 47.0152 107.292 47.0146C107.282 47.014 107.275 47.0124 107.271 47.0112L107.467 46.3277L107.663 45.6442C107.263 45.5294 106.878 45.6136 106.555 45.8171L106.934 46.4189ZM107.467 46.3277L107.271 47.0112L107.537 47.0877L107.734 46.4042L107.93 45.7208L107.663 45.6442L107.467 46.3277ZM107.734 46.4042L107.537 47.0877L107.804 47.1643L108 46.4808L108.196 45.7973L107.93 45.7208L107.734 46.4042ZM108 46.4808L107.804 47.1643C107.955 47.2078 108.088 47.2555 108.203 47.3061L108.489 46.655L108.775 46.0038C108.594 45.9244 108.401 45.8559 108.196 45.7973L108 46.4808ZM108.489 46.655L108.203 47.3061L108.425 47.4036L108.711 46.7525L108.997 46.1014L108.775 46.0038L108.489 46.655ZM108.711 46.7525L108.425 47.4036L108.648 47.5012L108.934 46.8501L109.219 46.199L108.997 46.1014L108.711 46.7525ZM108.934 46.8501L108.648 47.5012C108.73 47.5373 108.896 47.6067 109.084 47.6111C109.182 47.6133 109.393 47.6009 109.589 47.4426C109.812 47.2624 109.867 47.0172 109.867 46.8552H109.156H108.445C108.445 46.7241 108.49 46.5018 108.695 46.3366C108.872 46.1932 109.056 46.1878 109.117 46.1892C109.23 46.1919 109.285 46.2279 109.219 46.199L108.934 46.8501ZM109.156 46.8552H109.867V46.7628H109.156H108.445V46.8552H109.156ZM109.156 46.7628L109.781 46.4244L109.681 46.2396L109.056 46.578L108.43 46.9165L108.53 47.1013L109.156 46.7628ZM109.056 46.578V47.2891H109.156V46.578V45.8669H109.056V46.578Z" fill="#DD2E44"/>
</svg>
