<svg width="128" height="128" viewBox="0 0 128 128" fill="none" xmlns="http://www.w3.org/2000/svg">
<path d="M79.0204 83.5094C78.7826 83.6311 78.6894 83.8389 78.6574 83.9247L78.6029 84.3348L78.6046 84.541L78.614 84.6878L78.6046 84.6959L78.4352 84.9062L78.2726 85.1205C78.1235 85.3077 77.9951 85.5144 77.8924 85.7354L77.7747 85.9897L77.6688 86.2237L77.4041 86.3095L77.1232 86.3995C76.7956 86.5031 76.5194 86.6986 76.3142 86.9762L76.1397 87.2108L75.9705 87.444C75.9205 87.5118 75.8654 87.5548 75.8059 87.5842L75.3067 87.8282C75.218 87.8719 75.1239 87.8974 75.0231 87.9074L74.743 87.934L74.4644 87.966C74.3467 87.9775 74.2231 87.9705 74.0923 87.9476L73.5147 87.8447C73.2 87.7891 72.8791 87.817 72.5764 87.9442L72.0796 88.1532C71.9779 88.1958 71.8721 88.2236 71.7623 88.2353L71.2265 88.2937C71.0083 88.3172 70.7954 88.3587 70.5875 88.419L70.0847 88.5607C69.9238 88.6075 69.7604 88.6558 69.5981 88.6982L68.5709 88.9642L68.3034 89.0392L68.0829 89.0963L67.8674 88.9513L67.6248 88.7903C67.3822 88.6257 67.1117 88.5143 66.8151 88.4777L66.5534 88.4422L66.2984 88.4107C66.2463 88.4043 66.2025 88.3876 66.1578 88.3552L65.9463 88.2034L65.7335 88.0462C65.4512 87.8415 65.0707 87.7435 64.7104 87.6856L64.28 87.6192L64.1828 87.5984L63.8143 88.9678L63.9129 88.994L63.9508 89.0071L63.9858 89.0095L64.4891 89.0915C64.6297 89.1142 64.7332 89.1404 64.8064 89.1643C64.8588 89.1815 64.8868 89.1939 64.8956 89.1986L65.1085 89.3558L65.32 89.5076C65.5583 89.6805 65.8316 89.7856 66.1243 89.8216L66.3807 89.8585L66.641 89.8886C66.6888 89.8945 66.7492 89.9134 66.8276 89.9666L67.0701 90.1276L67.3087 90.2954C67.6298 90.5131 68.0127 90.5864 68.4017 90.4829L68.6706 90.4133L68.9382 90.3382L69.96 90.0736C70.1339 90.0281 70.3064 89.9779 70.4789 89.9278L70.7303 89.8569L70.9803 89.7807C71.106 89.7442 71.2414 89.7208 71.3798 89.706L71.9156 89.6475C72.1627 89.621 72.4019 89.5586 72.6309 89.4623L73.1277 89.2533C73.1561 89.2415 73.1949 89.2349 73.2638 89.2468L73.8414 89.3497C74.0936 89.3943 74.3481 89.4015 74.6002 89.377L75.1603 89.3238C75.4305 89.2974 75.6924 89.2255 75.936 89.1057L76.1856 88.9837L76.4338 88.8563C76.7056 88.7221 76.9333 88.527 77.1121 88.2847L77.2827 88.0569L77.4572 87.8223C77.4812 87.7898 77.5041 87.7671 77.5483 87.7528L77.8305 87.6682L78.1114 87.5783C78.4826 87.4608 78.7779 87.2111 78.9448 86.8517L79.0612 86.592L79.1829 86.3309C79.2409 86.206 79.3105 86.0966 79.385 86.0032L79.549 85.7943L79.7183 85.584C79.8838 85.3762 80.0107 85.1121 80.0271 84.8039L80.0779 84.7563L80.0317 84.7109L80.0357 84.7041L80.0215 84.2946C80.0188 84.3199 80.012 84.3681 79.9915 84.4229C79.9803 84.4527 79.9503 84.511 79.8999 84.5786L79.6022 84.2712L80.1524 84.0024L80.0825 83.8656L79.9742 83.6469L79.7564 83.5369L79.6847 83.5038L79.4078 83.432C79.2926 83.4235 79.1574 83.4397 79.0204 83.5094Z" fill="#0C151D"/>
</svg>
