<svg width="128" height="128" viewBox="0 0 128 128" fill="none" xmlns="http://www.w3.org/2000/svg">
<path d="M77.8277 82.361L78.0166 81.8499L78.1777 81.911L78.3777 81.9832L78.5055 82.1554L78.5389 82.1999C78.7298 82.4615 78.6884 82.7476 78.6277 82.9054C78.5753 83.0403 78.4934 83.1315 78.4555 83.1721C78.3716 83.2617 78.2706 83.3372 78.1944 83.3888L77.9944 83.5221L77.8 83.6554C77.5841 83.8016 77.3418 83.8978 77.0889 83.9554L76.8166 84.0165L76.55 84.0777L75.7666 84.261L75.5111 84.3221C75.3476 84.3607 75.1835 84.4055 75.0222 84.4499L74.7666 84.5165L74.5111 84.5888C74.3521 84.6325 74.1884 84.6793 74.0222 84.7332L73.7555 84.8221L73.4944 84.9054C73.2354 84.9894 72.9662 85.0268 72.6944 85.011L72.15 84.9777C71.822 84.9586 71.5215 84.8423 71.2611 84.6554L71.0166 84.4832L70.7777 84.3054C70.7308 84.2717 70.7067 84.2718 70.6944 84.2721L70.4222 84.2832L70.15 84.2888C69.8572 84.2968 69.5709 84.2399 69.3055 84.1165L69.0555 83.9999L68.8111 83.8832C68.7861 83.8716 68.7594 83.8686 68.7111 83.8777L68.4277 83.9277L68.1444 83.9832C67.8113 84.0459 67.4754 84.0026 67.1666 83.8499L66.9222 83.7277L66.6722 83.6054C66.6028 83.5712 66.5365 83.5558 66.4666 83.5554H65.9222C65.7112 83.5545 65.5018 83.5396 65.2944 83.511L65.0277 83.4721L64.7611 83.4388C64.706 83.4311 64.6456 83.4341 64.5722 83.461L64.3111 83.5554L64.0444 83.6554C63.6946 83.7837 63.332 83.7694 62.9944 83.6332L62.45 83.411C62.3992 83.3905 62.3778 83.3968 62.3666 83.3999L62.1055 83.4721L61.8444 83.5388C61.7292 83.57 61.6139 83.6193 61.5 83.6832L61.0111 83.961C60.7995 84.0799 60.5756 84.1706 60.3444 84.2332L60.0833 84.3054L59.8277 84.3721C59.5682 84.4422 59.3008 84.461 59.0333 84.4332L58.4777 84.3777C58.4083 84.3704 58.3496 84.3769 58.2944 84.3999L57.7944 84.611C57.4719 84.7454 57.1324 84.7572 56.8055 84.6721L56.5166 84.5999L56.2333 84.5221C56.0982 84.4869 55.9822 84.4764 55.8833 84.4777H55.6222L55.3666 84.4832C55.2364 84.4851 55.1022 84.497 54.9666 84.5221L54.4444 84.6221C54.1167 84.6829 53.7909 84.6363 53.4944 84.4888L53.25 84.3665L53.0111 84.2443C52.9123 84.1952 52.8127 84.1655 52.7166 84.1499L52.4666 84.111L52.2111 84.0665C51.9795 84.0289 51.7528 83.9629 51.5389 83.8665L51.3055 83.761L51.0666 83.6554C50.9164 83.5877 50.6962 83.4871 50.4 83.361L49.9944 83.1888L49.9277 83.1721L50.3389 81.8054L50.4333 81.8332L50.4722 81.8499L50.5055 81.861L50.9555 82.0554C51.2534 82.1823 51.4861 82.2817 51.65 82.3554L51.8889 82.461L52.1222 82.5665C52.2228 82.6119 52.3303 82.6433 52.4389 82.661L52.6944 82.7054L52.95 82.7443C53.192 82.7839 53.4238 82.8623 53.6444 82.9721L53.8889 83.0943L54.1277 83.211C54.152 83.2231 54.1632 83.2258 54.1833 83.2221L54.4444 83.1721L54.7055 83.1277C54.9178 83.0882 55.1313 83.0641 55.3444 83.061L55.6055 83.0554H55.8611C56.1053 83.0519 56.3512 83.0863 56.5944 83.1499L57.1611 83.2943C57.2102 83.3072 57.2322 83.3048 57.2444 83.2999L57.5 83.1943L57.75 83.0888C58.0298 82.9723 58.3278 82.9296 58.6277 82.961L58.9 82.9888L59.1777 83.0221C59.2793 83.0327 59.3714 83.0226 59.4555 82.9999L59.7111 82.9277L59.9722 82.861C60.0839 82.8308 60.1971 82.786 60.3111 82.7221L60.8 82.4443C61.0125 82.3248 61.2392 82.2298 61.4722 82.1665L61.7333 82.0999L61.9944 82.0277C62.3308 81.9365 62.6659 81.9688 62.9777 82.0943L63.2555 82.2054L63.5277 82.3165C63.5355 82.3196 63.5412 82.3213 63.5444 82.3221L63.5555 82.3165L63.8166 82.2221L64.0833 82.1221C64.3629 82.0196 64.6574 81.9865 64.9555 82.0277L65.2222 82.0665L65.4889 82.0999C65.6329 82.1198 65.779 82.1325 65.9277 82.1332H66.4722C66.7634 82.1345 67.0452 82.2045 67.3055 82.3332L67.55 82.4554L67.8 82.5777C67.8208 82.5878 67.8418 82.5911 67.8833 82.5832L68.1611 82.5332L68.4444 82.4777C68.7716 82.4157 69.1039 82.4516 69.4111 82.5943L69.6555 82.711L69.9055 82.8277C69.9725 82.8588 70.0398 82.8685 70.1111 82.8665L70.6555 82.8554C71.0073 82.8458 71.3301 82.9574 71.6055 83.1554L71.8444 83.3277L72.0889 83.4999C72.1489 83.543 72.1923 83.553 72.2277 83.5554L72.5055 83.5721L72.7777 83.5888C72.8704 83.5941 72.9623 83.5857 73.0555 83.5554L73.3166 83.4665L73.5833 83.3832C73.7691 83.323 73.9525 83.2663 74.1333 83.2165L74.3889 83.1443L74.6444 83.0777C74.8225 83.0287 75.0031 82.9814 75.1833 82.9388L75.4389 82.8777L75.7 82.8165C75.8653 82.7775 76.0331 82.7337 76.2055 82.6943L75.5166 82.4443L77.5666 81.8332L77.6666 81.8054L77.8277 82.361Z" fill="#0C151D"/>
</svg>
