<svg width="128" height="128" viewBox="0 0 128 128" fill="none" xmlns="http://www.w3.org/2000/svg">
<path d="M54.7611 85.3166L55.2944 85.3832C55.5255 85.4145 55.7546 85.4741 55.9777 85.5555L56.2444 85.6555L56.5111 85.7499C56.583 85.776 56.6405 85.78 56.6944 85.7721L57.2277 85.6943C57.4414 85.6626 57.6573 85.6483 57.8722 85.6499H58.4055C58.528 85.6508 58.6515 85.6388 58.7777 85.611L59.0444 85.5555L59.3111 85.4943C59.5202 85.4481 59.7332 85.4167 59.9444 85.3999L60.4777 85.3555C60.7637 85.3329 61.0434 85.3795 61.3111 85.4777L61.5777 85.5721L61.8444 85.6721C61.9321 85.7043 62.0081 85.7106 62.0777 85.7055L62.3444 85.6888L62.6111 85.6666C62.75 85.656 62.8917 85.6335 63.0333 85.5999L63.3 85.5388L63.5666 85.4721C63.8465 85.4055 64.1351 85.4011 64.4166 85.461L64.6833 85.5166L64.95 85.5777C65.0515 85.599 65.1519 85.6006 65.25 85.5888L65.5166 85.5555L65.7833 85.5277C66.0659 85.4938 66.3465 85.5195 66.6166 85.6055L66.8833 85.6888L67.15 85.7777C67.2401 85.8061 67.3219 85.8122 67.4 85.8055L67.6666 85.7832L67.9333 85.7555C68.1503 85.7358 68.3717 85.739 68.5889 85.7555L68.8555 85.7721L69.1222 85.7943C69.2238 85.8019 69.3265 85.7917 69.4333 85.7666L69.7 85.7055L69.9666 85.6388C70.1473 85.5959 70.3304 85.5567 70.5111 85.5166L70.7777 85.4555L71.0444 85.3999C71.4423 85.3115 71.8188 85.4126 72.1277 85.6166L72.3944 85.7888L72.6555 85.9666L72.8777 85.9055L73.1444 85.8277C73.4269 85.7492 73.7171 85.7365 74.0055 85.7943L74.5389 85.9055C74.642 85.9262 74.744 85.9287 74.8444 85.9166L75.3777 85.8499C75.4955 85.8354 75.6223 85.804 75.75 85.7555L76.2833 85.5555C76.547 85.4555 76.8225 85.4063 77.1055 85.4221L77.6389 85.4555C77.74 85.4612 77.8674 85.4692 77.9833 85.4999C78.0366 85.5141 78.142 85.5486 78.25 85.6221C78.3615 85.6983 78.5777 85.8947 78.5777 86.2332V86.561L78.3944 86.7666L78.2944 86.8777L77.8666 86.4888V87.111H76.1666V87.1055C75.9656 87.1756 75.7641 87.2352 75.5555 87.261L75.0222 87.3277C74.7684 87.3589 74.5121 87.3502 74.2611 87.2999L73.7277 87.1888C73.6619 87.1755 73.5939 87.1799 73.5222 87.1999L73.2555 87.2721L72.9889 87.3499C72.5821 87.4625 72.1918 87.3665 71.8722 87.1555L71.3389 86.7999L71.3277 86.7943L71.0889 86.8443L70.8222 86.9055C70.6488 86.944 70.4734 86.981 70.3 87.0221L70.0333 87.0888L69.7666 87.1499C69.5193 87.2086 69.2638 87.2302 69.0111 87.211L68.7444 87.1888L68.4777 87.1721C68.3407 87.1618 68.2038 87.1598 68.0666 87.1721L67.8 87.1999L67.5333 87.2221C67.2569 87.2472 66.9806 87.2172 66.7166 87.1332L66.45 87.0443L66.1833 86.961C66.0989 86.9344 66.0221 86.9301 65.95 86.9388L65.6833 86.9721L65.4166 86.9999C65.1605 87.0306 64.9027 87.0203 64.65 86.9666L64.1166 86.8555C64.0438 86.8402 63.9744 86.838 63.9 86.8555L63.6333 86.9221L63.3666 86.9832C63.1539 87.0339 62.9376 87.0667 62.7222 87.0832L62.4555 87.1055L62.1889 87.1221C61.9035 87.1439 61.6227 87.1034 61.3555 87.0055L61.0889 86.9055L60.8222 86.811C60.7346 86.7789 60.6582 86.7666 60.5889 86.7721L60.0555 86.8166C59.912 86.828 59.7677 86.8511 59.6222 86.8832L59.3555 86.9443L59.0889 86.9999C58.8602 87.0505 58.6269 87.0739 58.3944 87.0721H57.8611C57.7209 87.0711 57.5802 87.079 57.4389 87.0999L56.9055 87.1777C56.6044 87.2224 56.3051 87.192 56.0222 87.0888L55.7555 86.9888L55.4889 86.8943C55.3567 86.8461 55.2298 86.8112 55.1055 86.7943L54.8389 86.761L54.5722 86.7221C54.5007 86.7125 54.4266 86.7195 54.3444 86.7443L54.0777 86.8277L53.8111 86.9055C53.6288 86.9613 53.4434 87.0155 53.2611 87.0666L52.9944 87.1443L52.7277 87.2166C52.3944 87.3099 52.0555 87.2869 51.7389 87.161L51.2055 86.9499C51.2196 86.9552 51.2064 86.9499 51.15 86.9499C51.0901 86.9501 50.9977 86.9551 50.8722 86.9832L50.3889 87.0943L50.3111 87.111H50.1333V85.9555L50.0777 85.7055L50.1333 85.6943V85.6888H50.1555L50.5611 85.5999C50.9323 85.5167 51.3519 85.4787 51.7277 85.6277L52.2611 85.8388C52.298 85.8535 52.3183 85.8554 52.3389 85.8499L52.6055 85.7721L52.8722 85.6999C53.0434 85.652 53.2176 85.6024 53.3889 85.5499L53.9222 85.3832C54.1944 85.2998 54.4779 85.2783 54.7611 85.3166Z" fill="#0C151D"/>
<path d="M75.022 86.3999L75.0609 86.4443L75.6498 86.3388L75.6609 86.4166L75.6998 86.6166L75.6275 86.8055L75.5998 86.8777C75.5415 87.0298 75.4488 87.1318 75.3942 87.1832C75.3342 87.2397 75.2708 87.2805 75.222 87.311C75.1246 87.372 75.0122 87.4273 74.9053 87.4721L74.6331 87.5832L74.3609 87.6999C74.2875 87.7307 74.256 87.7642 74.2387 87.7888L74.0831 88.0055L73.9275 88.2277C73.7982 88.4117 73.6515 88.5836 73.4887 88.7388L73.0998 89.1055C73.0209 89.1806 72.9562 89.2683 72.8998 89.3666L72.7609 89.5999L72.6275 89.8388C72.5751 89.93 72.5116 90.0276 72.4442 90.111C72.4106 90.1524 72.3634 90.2088 72.2998 90.261C72.2445 90.3063 72.1186 90.4013 71.9331 90.4332L71.8664 90.4443L71.8053 90.4499C71.6263 90.4803 71.4797 90.4379 71.4164 90.4166C71.3411 90.391 71.273 90.359 71.2275 90.3332C71.1366 90.2814 71.0448 90.2156 70.9609 90.1499L70.7387 89.9777L70.522 89.8055C70.3207 89.648 70.1433 89.465 69.9998 89.2555L69.8498 89.0332L69.6998 88.8166C69.5736 88.6324 69.4676 88.4337 69.3775 88.2277L69.2664 87.9777L69.1553 87.7332C69.1281 87.6709 69.0444 87.5295 68.8442 87.3055L68.5164 86.9443L68.522 86.9388L68.4831 86.911L69.472 85.8888L69.5775 85.9943L69.9053 86.361C70.1387 86.6223 70.3432 86.8922 70.4609 87.161L70.572 87.411L70.6775 87.661C70.7323 87.786 70.7975 87.9023 70.872 88.011L71.022 88.2332L71.172 88.4499C71.2288 88.5329 71.3028 88.6114 71.3942 88.6832L71.5664 88.8166L71.6664 88.6555C71.7899 88.4409 71.9432 88.2481 72.122 88.0777L72.3164 87.8943L72.5053 87.7055C72.6006 87.6146 72.6907 87.5188 72.7664 87.411L72.9164 87.1888L73.072 86.9721C73.2601 86.7044 73.5184 86.5114 73.8109 86.3888L74.0831 86.2721L74.1775 86.2332V86.2221L74.4609 85.9499L74.5331 85.8832L75.022 86.3999Z" fill="#0C151D"/>
</svg>
