<svg width="128" height="128" viewBox="0 0 128 128" fill="none" xmlns="http://www.w3.org/2000/svg">
<path d="M79.522 81.8165H79.5276L80.5609 82.1943L79.9054 82.861C79.9024 82.8712 79.9031 82.883 79.8998 82.8943L79.7776 83.3165C79.7177 83.5228 79.6232 83.7264 79.5109 83.9221L79.3776 84.1554L79.2387 84.3943C79.0791 84.6721 78.853 84.8908 78.572 85.0388L78.322 85.1665L78.072 85.2999C78.0094 85.333 77.9585 85.3779 77.9165 85.4388L77.7554 85.6721L77.5943 85.8999C77.4006 86.1805 77.1348 86.3895 76.8054 86.4943L76.2832 86.661C76.045 86.7368 75.7991 86.7779 75.5498 86.7832L75.0054 86.7943C74.8281 86.7981 74.6558 86.8004 74.4887 86.8054L74.2332 86.811L73.9776 86.8221C73.8955 86.8246 73.8002 86.8411 73.6887 86.8832L73.1554 87.0832C72.9278 87.1696 72.6929 87.2317 72.4554 87.261L71.922 87.3277C71.6679 87.3589 71.4123 87.3504 71.1609 87.2999L70.6276 87.1888C70.5623 87.1756 70.4987 87.1802 70.4276 87.1999L70.1609 87.2721L69.8943 87.3499C69.4873 87.4635 69.0976 87.3661 68.7776 87.1554L68.2276 86.7888L67.9887 86.8443L67.722 86.9054C67.5483 86.944 67.3736 86.9809 67.1998 87.0221L66.9332 87.0888L66.6665 87.1499C66.4191 87.2086 66.1637 87.2302 65.9109 87.211L65.6443 87.1888L65.3776 87.1721C65.2406 87.1618 65.1037 87.1597 64.9665 87.1721L64.6998 87.1999L64.4332 87.2221C64.1568 87.2472 63.8804 87.2171 63.6165 87.1332L63.3498 87.0443L63.0832 86.961C63.0001 86.9349 62.9264 86.9305 62.8554 86.9388L62.5887 86.9721L62.322 86.9999C62.0661 87.0307 61.8078 87.02 61.5554 86.9665L61.022 86.8554C60.9484 86.8398 60.8752 86.8377 60.7998 86.8554L60.5332 86.9221L60.2665 86.9832C60.0534 87.0339 59.8378 87.0667 59.622 87.0832L59.3554 87.1054L59.0887 87.1221C58.8032 87.1439 58.5226 87.1035 58.2554 87.0054L57.9887 86.9054L57.722 86.811C57.6346 86.7789 57.558 86.7666 57.4887 86.7721L56.9554 86.8165C56.8118 86.828 56.6676 86.8511 56.522 86.8832L56.2554 86.9443L55.9887 86.9999C55.76 87.0505 55.5267 87.0738 55.2943 87.0721H54.7609C54.6069 87.071 54.4514 87.075 54.2943 87.0888L54.022 87.111L53.7554 87.1388C53.4089 87.1693 53.0792 87.0784 52.7943 86.8888L52.3276 86.5777C52.1782 86.4781 52.036 86.3846 51.8998 86.2999L51.4665 86.0332C51.3814 85.9803 51.2839 85.9383 51.172 85.9054L50.9165 85.8277L50.6554 85.7554C50.4327 85.6902 50.2171 85.5967 50.0109 85.4832L49.522 85.2165C49.1802 85.0282 48.9523 84.7222 48.8609 84.3499L48.7943 84.0721L48.7276 83.7888C48.7129 83.7312 48.6534 83.596 48.4887 83.3665L48.2443 83.0221L48.2276 83.011L48.2332 83.0054L48.2054 82.9721L48.3832 82.8443L48.7109 82.4888L49.1943 81.9665L49.2665 82.0332L49.322 82.0832L49.3609 82.1443L49.6443 82.5332C49.8543 82.8257 50.0341 83.1407 50.1109 83.4554L50.1776 83.7332L50.2332 83.9777L50.4554 84.1054L50.6998 84.2388C50.8185 84.304 50.9368 84.354 51.0554 84.3888L51.3109 84.461L51.572 84.5388C51.8009 84.6059 52.0159 84.7029 52.2165 84.8277L52.6498 85.0943C52.7998 85.1876 52.956 85.2874 53.1165 85.3943L53.5832 85.7054C53.5995 85.7162 53.6091 85.7216 53.6109 85.7221C53.6135 85.7226 53.6188 85.7228 53.6276 85.7221L53.8998 85.6943L54.1665 85.6721C54.3684 85.6543 54.5716 85.6484 54.772 85.6499H55.3054C55.4285 85.6508 55.5563 85.6391 55.6832 85.611L55.9498 85.5554L56.2165 85.4943C56.4248 85.4484 56.634 85.4166 56.8443 85.3999L57.3776 85.3554C57.6637 85.3327 57.9431 85.3795 58.2109 85.4777L58.4776 85.5721L58.7443 85.6721C58.8315 85.7041 58.9082 85.7104 58.9776 85.7054L59.2443 85.6888L59.5109 85.6665C59.6505 85.6559 59.7964 85.6338 59.9387 85.5999L60.2054 85.5388L60.472 85.4721C60.7511 85.4061 61.0358 85.4013 61.3165 85.461L61.5832 85.5165L61.8498 85.5777C61.9517 85.5992 62.0514 85.6006 62.1498 85.5888L62.4165 85.5554L62.6832 85.5277C62.9661 85.4936 63.246 85.5195 63.5165 85.6054L63.7832 85.6888L64.0498 85.7777C64.1412 85.8066 64.2264 85.8126 64.3054 85.8054L64.572 85.7832L64.8387 85.7554C65.055 85.7359 65.2723 85.739 65.4887 85.7554L65.7554 85.7721L66.022 85.7943C66.1246 85.8021 66.2308 85.7922 66.3387 85.7665L66.6054 85.7054L66.872 85.6388C67.0515 85.5962 67.2314 85.5564 67.4109 85.5165L67.6776 85.4554L67.9443 85.3999L68.2387 85.3665C68.5262 85.3673 68.7956 85.4634 69.0276 85.6165L69.2943 85.7888L69.5554 85.961L69.7776 85.9054L70.0443 85.8277C70.3268 85.749 70.617 85.7367 70.9054 85.7943L71.4387 85.9054C71.5426 85.9264 71.6487 85.929 71.7498 85.9165L72.2832 85.8499C72.4002 85.8353 72.523 85.8036 72.6498 85.7554L73.1832 85.5554C73.4256 85.4635 73.6761 85.4078 73.9332 85.3999L74.1887 85.3888L74.4443 85.3832C74.6166 85.3781 74.7955 85.3759 74.9776 85.3721L75.2498 85.3665L75.5165 85.361C75.6273 85.3587 75.7399 85.3403 75.8498 85.3054L76.372 85.1388C76.3913 85.1326 76.407 85.1241 76.4276 85.0943L76.7498 84.6277C76.9216 84.3794 77.1434 84.1794 77.4109 84.0388L77.6609 83.911L77.9109 83.7777C77.9579 83.7525 77.9844 83.7245 78.0054 83.6888L78.1443 83.4499L78.2776 83.211C78.3458 83.092 78.389 82.997 78.4109 82.9221L78.472 82.711L79.1276 82.8943L79.0387 83.1554C79.3103 83.2533 79.5371 83.1592 79.6387 83.0999C79.6543 83.0907 79.6639 83.0705 79.6776 83.061L79.2387 82.6054L79.1276 82.8943L78.472 82.711L78.5332 82.4999C78.5538 82.4288 78.5709 82.3676 78.5832 82.3277C78.5887 82.3097 78.5939 82.2897 78.5998 82.2721C78.6022 82.2649 78.6079 82.2436 78.6165 82.2221C78.6197 82.2141 78.6362 82.1856 78.6554 82.1499C78.6607 82.14 78.6761 82.1066 78.7054 82.0665V82.061L78.772 81.9888V81.9943C78.8037 81.9617 78.8531 81.9126 78.922 81.8721C79.024 81.8127 79.2504 81.7182 79.522 81.8165Z" fill="#0C151D"/>
</svg>
