<svg width="24" height="24" viewBox="0 0 24 24" fill="none" xmlns="http://www.w3.org/2000/svg">
<path d="M4.96344 10.1503L4.7998 11.6231L6.27257 12.114L7.25441 13.2595L8.89081 14.8959L11.3454 16.205L14.6182 15.7141L17.2365 12.9322L17.5637 11.6231L19.3638 11.2958L19.2001 10.1503L18.3819 8.84122L16.9092 7.85938L14.9455 8.3503L13.8 8.84122L11.6727 10.6413L10.3636 9.1685L8.07261 7.85938L6.43621 8.51394L4.96344 10.1503Z" fill="#010820"/>
<path d="M4.30751 10.9935C4.51528 10.9284 4.73168 10.9117 4.94785 10.9415L5.35495 10.9935C5.53135 11.0178 5.70622 11.0643 5.87656 11.1277L6.08011 11.2057L6.28366 11.2793C6.33854 11.2997 6.38242 11.3027 6.4236 11.2966L6.83071 11.236C6.99382 11.2113 7.15861 11.2001 7.32263 11.2013H7.72973C7.82321 11.202 7.91751 11.1927 8.01386 11.171L8.21741 11.1277L8.42096 11.0801C8.58062 11.044 8.74321 11.0195 8.9044 11.0065L9.31151 10.9718C9.52977 10.9542 9.74327 10.9905 9.94761 11.0671L10.1512 11.1407L10.3547 11.2187C10.4216 11.2437 10.4796 11.2486 10.5328 11.2446L10.7364 11.2317L10.9399 11.2143C11.046 11.2061 11.1541 11.1886 11.2622 11.1624L11.4658 11.1147L11.6693 11.0628C11.8829 11.0108 12.1032 11.0074 12.3181 11.0541L12.5217 11.0974L12.7253 11.145C12.8027 11.1617 12.8794 11.1629 12.9542 11.1537L13.1578 11.1277L13.3614 11.1061C13.5771 11.0797 13.7912 11.0997 13.9975 11.1667L14.201 11.2317L14.4046 11.3009C14.4733 11.3231 14.5358 11.3279 14.5954 11.3226L14.7989 11.3053L15.0025 11.2836C15.1682 11.2683 15.3371 11.2708 15.5029 11.2836L15.7064 11.2966L15.91 11.3139C15.9875 11.3198 16.0659 11.3119 16.1475 11.2923L16.351 11.2446L16.5546 11.1927C16.6925 11.1593 16.8323 11.1287 16.9702 11.0974L17.1737 11.0498L17.3773 11.0065C17.681 10.9376 17.9684 11.0163 18.2042 11.1754L18.4078 11.3096L18.6071 11.4482L18.7767 11.4006L18.9802 11.3399C19.1959 11.2787 19.4174 11.2689 19.6376 11.3139L20.0447 11.4006C20.1234 11.4167 20.2013 11.4187 20.2779 11.4092L20.685 11.3572C20.7749 11.3459 20.8716 11.3214 20.9691 11.2836L21.3762 11.1277C21.5775 11.0498 21.7878 11.0114 22.0039 11.0238L22.411 11.0498C22.4881 11.0542 22.5854 11.0605 22.6739 11.0844C22.7146 11.0955 22.795 11.1224 22.8774 11.1797C22.9626 11.2391 23.1276 11.3922 23.1276 11.6561V11.786C23.1276 12.0921 22.8846 12.3403 22.5848 12.3403H21.813L21.8724 12.1411C21.8378 12.1456 21.7981 12.1472 21.7579 12.1628L21.3508 12.3187C21.1776 12.3857 21.0014 12.4344 20.8207 12.4572L20.4136 12.5092C20.2199 12.5336 20.0242 12.5268 19.8326 12.4876L19.4255 12.4009C19.3753 12.3906 19.3234 12.394 19.2686 12.4096L19.0651 12.4659L18.8615 12.5265C18.551 12.6143 18.2531 12.5394 18.0091 12.375L17.602 12.0978L17.5935 12.0935L17.4112 12.1324L17.2076 12.1801C17.0753 12.2101 16.9414 12.2389 16.809 12.271L16.6055 12.323L16.4019 12.3706C16.2131 12.4164 16.0181 12.4332 15.8252 12.4183L15.6216 12.4009L15.4181 12.3879C15.3135 12.3799 15.209 12.3783 15.1043 12.3879L14.9007 12.4096L14.6972 12.4269C14.4862 12.4465 14.2752 12.4231 14.0738 12.3576L13.8702 12.2883L13.6667 12.2234C13.6023 12.2026 13.5436 12.1993 13.4886 12.2061L13.285 12.232L13.0815 12.2537C12.8859 12.2776 12.6891 12.2696 12.4963 12.2277L12.0891 12.1411C12.0336 12.1292 11.9806 12.1275 11.9238 12.1411L11.7202 12.1931L11.5167 12.2407C11.3543 12.2802 11.1892 12.3058 11.0247 12.3187L10.8212 12.336L10.6176 12.349C10.3998 12.3659 10.1855 12.3344 9.98153 12.258L9.77798 12.1801L9.57443 12.1065C9.50757 12.0814 9.44923 12.0718 9.39632 12.0761L8.98921 12.1108C8.87963 12.1197 8.76955 12.1377 8.65844 12.1628L8.45489 12.2104L8.25134 12.2537C8.07679 12.2931 7.8987 12.3113 7.72125 12.31H7.31415C7.20714 12.3092 7.09977 12.3153 6.99186 12.3316L6.58475 12.3923C6.35487 12.4271 6.12646 12.4034 5.91048 12.323L5.70693 12.245L5.50338 12.1714C5.4025 12.1338 5.30561 12.1066 5.21077 12.0935L5.00722 12.0675L4.80367 12.0372C4.74909 12.0296 4.69257 12.0351 4.6298 12.0545L4.42625 12.1194L4.22269 12.1801C4.08359 12.2236 3.94206 12.2658 3.80287 12.3057L3.59931 12.3663L3.39576 12.4226C3.14131 12.4954 2.88261 12.4774 2.64092 12.3793L2.23382 12.2147C2.24703 12.2199 2.23497 12.2146 2.18293 12.2147C2.13095 12.2149 2.05492 12.2225 1.94969 12.245L1.55531 12.3273L1.50018 12.3403H1.41537C1.11558 12.3403 0.872559 12.0921 0.872559 11.786C0.872559 11.5084 1.07402 11.2894 1.33479 11.249L1.33055 11.2446L1.72493 11.158C2.01594 11.0956 2.34505 11.0677 2.63244 11.184L3.03954 11.3486C3.06773 11.3601 3.08321 11.3615 3.09891 11.3572L3.30247 11.2966L3.50602 11.2403C3.63668 11.2029 3.76966 11.1643 3.9004 11.1234L4.30751 10.9935Z" fill="#010820"/>
<path d="M8.31785 7.00014C8.53904 6.99646 8.73575 7.06644 8.90082 7.16889L9.13094 7.30696L9.35594 7.45015C9.53691 7.5625 9.70643 7.68731 9.85709 7.82345L10.031 7.98198L10.2099 8.14051C10.2805 8.20429 10.3644 8.2627 10.4605 8.30926L10.9105 8.52404C11.1889 8.65904 11.4067 8.87435 11.5446 9.15303L11.652 9.37804L11.7645 9.59793C11.8387 9.74836 11.9096 9.90046 11.9793 10.0479L11.9946 10.0837C12.0116 10.0456 12.0202 10.0033 12.0407 9.96612L12.1583 9.75134L12.281 9.53656C12.3764 9.3634 12.4816 9.19657 12.6032 9.04053L12.7566 8.8462L12.9049 8.65188C13.0358 8.48402 13.1843 8.33149 13.3498 8.19676L13.5441 8.04334L13.7384 7.88482C13.938 7.72294 14.1647 7.60717 14.4135 7.5422L14.6538 7.48083L14.889 7.41947C15.1276 7.35728 15.3756 7.34152 15.6203 7.37344L15.8555 7.40413L16.0959 7.43481C16.1238 7.43845 16.1837 7.43889 16.2851 7.39901L16.5612 7.29162L16.8323 7.18423C17.1052 7.07668 17.3966 7.05972 17.6709 7.15866L17.9419 7.29674L18.1618 7.45015L18.3868 7.60356C18.6636 7.79372 18.8518 8.06202 18.9442 8.38085L19.0209 8.64677L19.0977 8.9178C19.1185 8.98922 19.1475 9.02099 19.1692 9.04053L19.3585 9.20928L19.5425 9.37292C19.7238 9.53414 19.8755 9.72262 19.9926 9.93544L20.1153 10.1604L20.238 10.3803C20.3992 10.6734 20.4568 11.0546 20.2585 11.4184L20.1613 11.5974L20.0642 11.7815C20.0316 11.8412 20.0657 11.7914 20.0795 11.6895C20.0842 11.6544 20.0977 11.5101 20.0181 11.3468L19.6908 11.623L19.6755 11.6281L19.8545 12.2264L19.7266 12.2622L19.6602 12.2827L19.5988 12.2878L19.5221 12.2929C19.4004 12.3035 19.1224 12.2898 18.9238 12.0372C18.7535 11.8203 18.7759 11.5885 18.7857 11.5156C18.8073 11.3551 18.88 11.2141 18.9136 11.1525L19.0107 10.9735L19.0363 10.9224L18.9647 10.7894L18.842 10.5695C18.7954 10.4849 18.7408 10.4098 18.6732 10.3496L18.484 10.186L18.2999 10.0173C18.0738 9.81576 17.9214 9.56306 17.8397 9.28087L17.763 9.01496L17.6863 8.74393C17.6759 8.70884 17.6656 8.69647 17.6453 8.68256L17.4203 8.52915L17.2618 8.41665L17.0368 8.5087L16.7658 8.61609C16.5027 8.71975 16.2181 8.77166 15.9271 8.7337L15.6868 8.70302L15.4515 8.67234C15.3775 8.66268 15.3004 8.66206 15.2214 8.68256L14.9811 8.74904L14.7458 8.81041C14.6781 8.82806 14.6173 8.85722 14.5617 8.90246L14.3725 9.05587L14.1782 9.2144C14.0882 9.28764 14.0078 9.37011 13.9379 9.45986L13.7896 9.65418L13.6362 9.8485C13.5581 9.94901 13.4878 10.0543 13.4265 10.1656L13.1913 10.5951C13.1761 10.6227 13.1676 10.6542 13.1708 10.7025L13.1861 10.9582L13.2066 11.2139C13.2121 11.2918 13.2132 11.4079 13.181 11.5309C13.1476 11.6576 13.0566 11.854 12.8435 11.9809C12.6316 12.1061 12.4205 12.0868 12.2964 12.0576C12.1744 12.0289 12.0763 11.9757 12.01 11.9349L11.5702 11.669C11.3248 11.5178 11.1239 11.3073 10.9975 11.04L10.8952 10.8201L10.5884 10.1758L10.481 9.95589L10.3685 9.736C10.3626 9.72406 10.3595 9.71681 10.3582 9.71554L10.1128 9.59281L9.88778 9.48542C9.68534 9.38725 9.50137 9.26192 9.33549 9.11212L9.15651 8.95359L8.97753 8.78995C8.89146 8.71233 8.78702 8.63522 8.66559 8.55983L8.44058 8.42176L8.32808 8.35017L8.21046 8.43199L7.98034 8.58029C7.76224 8.71943 7.52005 8.82215 7.26442 8.86666L6.79395 8.94848C6.68297 8.9678 6.55622 9.00372 6.42065 9.05587L6.17007 9.15303L6.06269 9.18883L6.05757 9.35247L6.04734 9.64907C6.03748 9.96397 5.94451 10.2789 5.72518 10.5389L5.40812 10.9173C5.40678 10.919 5.40059 10.9246 5.39278 10.9377C5.38265 10.9549 5.36725 10.9797 5.35187 11.0144C5.32069 11.0849 5.28583 11.185 5.2496 11.3162L5.12687 11.7713L5.08596 11.9145L4.99391 12.0218L4.96834 12.0474L4.47231 11.623L4.42117 11.5718L3.86377 11.4235L3.9865 10.9684C4.07689 10.6412 4.20565 10.3114 4.40583 10.0735L4.56435 9.8843L4.72799 9.68998V9.68486C4.73132 9.67531 4.74201 9.65056 4.74334 9.60815L4.74845 9.31156L4.75868 9.01496L4.8047 8.71836C4.83326 8.61855 4.87405 8.51681 4.93766 8.42176C5.06766 8.22761 5.25258 8.10161 5.44392 8.028L5.9553 7.83368C6.1592 7.75536 6.36439 7.69543 6.56895 7.65981L6.80418 7.6189L7.04453 7.57799C7.10462 7.56719 7.18129 7.54032 7.27465 7.48083L7.50988 7.32742L7.74511 7.17912L8.00591 7.05128C8.10168 7.01957 8.20777 7.00218 8.31785 7.00014Z" fill="#010820"/>
<path d="M17.7887 11.4522L17.8756 11.4983L17.9421 11.5648L17.9779 11.6057C18.2086 11.8364 18.1942 12.1194 18.1824 12.2142C18.1679 12.3317 18.1256 12.4342 18.0955 12.5057L17.9728 12.8023C17.8704 13.0445 17.6853 13.2271 17.5125 13.3648L17.3131 13.5284L17.1086 13.687C17.0425 13.7397 16.9931 13.8008 16.9551 13.8711L16.8375 14.0961L16.7148 14.3211C16.5883 14.5551 16.4143 14.753 16.1983 14.9091L15.7892 15.2057C15.6827 15.2827 15.5787 15.3706 15.4824 15.4665L15.1244 15.8245C14.9436 16.0047 14.731 16.1454 14.4954 16.2438L14.2602 16.341L14.025 16.4433C13.8062 16.5346 13.5757 16.591 13.3397 16.612L13.084 16.6325L12.8283 16.6581C12.7226 16.6676 12.6142 16.6921 12.5011 16.7348L12.2505 16.8268L11.9948 16.924C11.6056 17.0705 11.2132 17.0005 10.8953 16.7654L10.6652 16.5916L10.4402 16.4228C10.3151 16.3302 10.2012 16.2659 10.1027 16.2183L9.88793 16.1109L9.67316 16.0086C9.5332 15.9411 9.39198 15.8743 9.25383 15.8092L9.04416 15.712L8.8345 15.6097C8.74246 15.5663 8.62986 15.5274 8.49699 15.4972L8.2413 15.441L7.9805 15.3796C7.58499 15.2897 7.28801 15.0252 7.15719 14.6432L7.07025 14.3927L6.98843 14.137C6.97605 14.1008 6.9602 14.0858 6.9373 14.0705L6.72252 13.9273L6.50263 13.779C6.13164 13.5306 5.98561 13.0973 5.91454 12.7409L5.81738 12.2653L6.40035 12.1477L6.43615 12.1119L6.90661 11.6568L6.92707 11.6824L7.06514 11.8204L7.10094 12.0096L7.1981 12.4852C7.22248 12.6075 7.24695 12.6803 7.26458 12.7153L7.66345 12.9813C7.93042 13.1598 8.12285 13.4115 8.22596 13.7125L8.3129 13.9682L8.36403 14.1267L8.52767 14.1625L8.78848 14.2239C9.0011 14.2722 9.20308 14.3394 9.3919 14.4285L9.60156 14.5256L10.2459 14.8324L10.4556 14.9347L10.6703 15.037C10.856 15.1266 11.0384 15.2419 11.2175 15.3745L11.4476 15.5433L11.6113 15.666L11.7851 15.6046L12.0357 15.5075C12.2558 15.4242 12.4841 15.3746 12.7158 15.354L12.9664 15.3285L13.2221 15.308C13.3244 15.2989 13.423 15.2713 13.5187 15.2313L13.9892 15.037C14.0682 15.004 14.1384 14.9591 14.1988 14.8989L14.3778 14.7148L14.5619 14.5358C14.706 14.3923 14.8587 14.26 15.0221 14.1421L15.2267 13.9938L15.4312 13.8506C15.4856 13.8114 15.5299 13.7608 15.5642 13.6972L15.6818 13.4722L15.8046 13.2523C15.9276 13.0243 16.093 12.8256 16.2955 12.6642L16.4949 12.5057L16.6892 12.3472L16.3006 12.1375L16.9091 11.5136L16.9347 11.4932L17.3949 11.9432L17.6864 11.396L17.7887 11.4522Z" fill="#010820"/>
</svg>
