<svg width="128" height="128" viewBox="0 0 128 128" fill="none" xmlns="http://www.w3.org/2000/svg">
<path d="M56.3555 84.6222L56.1777 86.2222L57.7777 86.7555L58.8444 88L60.6222 89.7777L63.2888 91.2L66.8444 90.6666L69.6888 87.6444L70.0444 86.2222L72 85.8666L71.8222 84.6222L70.9333 83.2L69.3333 82.1333L67.2 82.6666L65.9555 83.2L63.6444 85.1555L62.2222 83.5555L59.7333 82.1333L57.9555 82.8444L56.3555 84.6222Z" fill="#FF9797"/>
<path d="M54.7611 85.3166L55.2944 85.3832C55.5255 85.4145 55.7546 85.4741 55.9777 85.5555L56.2444 85.6555L56.5111 85.7499C56.583 85.776 56.6405 85.78 56.6944 85.7721L57.2277 85.6943C57.4414 85.6626 57.6573 85.6483 57.8722 85.6499H58.4055C58.528 85.6508 58.6515 85.6388 58.7777 85.611L59.0444 85.5555L59.3111 85.4943C59.5202 85.4481 59.7332 85.4167 59.9444 85.3999L60.4777 85.3555C60.7637 85.3329 61.0434 85.3795 61.3111 85.4777L61.5777 85.5721L61.8444 85.6721C61.9321 85.7043 62.0081 85.7106 62.0777 85.7055L62.3444 85.6888L62.6111 85.6666C62.75 85.656 62.8917 85.6335 63.0333 85.5999L63.3 85.5388L63.5666 85.4721C63.8465 85.4055 64.1351 85.4011 64.4166 85.461L64.6833 85.5166L64.95 85.5777C65.0515 85.599 65.1519 85.6006 65.25 85.5888L65.5166 85.5555L65.7833 85.5277C66.0659 85.4938 66.3465 85.5195 66.6166 85.6055L66.8833 85.6888L67.15 85.7777C67.2401 85.8061 67.3219 85.8122 67.4 85.8055L67.6666 85.7832L67.9333 85.7555C68.1503 85.7358 68.3717 85.739 68.5889 85.7555L68.8555 85.7721L69.1222 85.7943C69.2238 85.8019 69.3265 85.7917 69.4333 85.7666L69.7 85.7055L69.9666 85.6388C70.1473 85.5959 70.3304 85.5567 70.5111 85.5166L70.7777 85.4555L71.0444 85.3999C71.4423 85.3115 71.8188 85.4126 72.1277 85.6166L72.3944 85.7888L72.6555 85.9666L72.8777 85.9055L73.1444 85.8277C73.4269 85.7492 73.7171 85.7365 74.0055 85.7943L74.5389 85.9055C74.642 85.9262 74.744 85.9287 74.8444 85.9166L75.3777 85.8499C75.4955 85.8354 75.6223 85.804 75.75 85.7555L76.2833 85.5555C76.547 85.4555 76.8225 85.4063 77.1055 85.4221L77.6389 85.4555C77.74 85.4612 77.8674 85.4692 77.9833 85.4999C78.0366 85.5141 78.142 85.5486 78.25 85.6221C78.3615 85.6983 78.5777 85.8947 78.5777 86.2332V86.561L78.5333 86.6055C78.4439 86.8959 78.1864 87.111 77.8666 87.111H76.1666V87.1055C75.9656 87.1756 75.7641 87.2352 75.5555 87.261L75.0222 87.3277C74.7684 87.3589 74.5121 87.3502 74.2611 87.2999L73.7277 87.1888C73.6619 87.1755 73.5939 87.1799 73.5222 87.1999L73.2555 87.2721L72.9889 87.3499C72.5821 87.4625 72.1918 87.3665 71.8722 87.1555L71.3389 86.7999L71.3277 86.7943L71.0889 86.8443L70.8222 86.9055C70.6488 86.944 70.4734 86.981 70.3 87.0221L70.0333 87.0888L69.7666 87.1499C69.5193 87.2086 69.2638 87.2302 69.0111 87.211L68.7444 87.1888L68.4777 87.1721C68.3407 87.1618 68.2038 87.1598 68.0666 87.1721L67.8 87.1999L67.5333 87.2221C67.2569 87.2472 66.9806 87.2172 66.7166 87.1332L66.45 87.0443L66.1833 86.961C66.0989 86.9344 66.0221 86.9301 65.95 86.9388L65.6833 86.9721L65.4166 86.9999C65.1605 87.0306 64.9027 87.0203 64.65 86.9666L64.1166 86.8555C64.0438 86.8402 63.9744 86.838 63.9 86.8555L63.6333 86.9221L63.3666 86.9832C63.1539 87.0339 62.9376 87.0667 62.7222 87.0832L62.4555 87.1055L62.1889 87.1221C61.9035 87.1439 61.6227 87.1034 61.3555 87.0055L61.0889 86.9055L60.8222 86.811C60.7346 86.7789 60.6582 86.7666 60.5889 86.7721L60.0555 86.8166C59.912 86.828 59.7677 86.8511 59.6222 86.8832L59.3555 86.9443L59.0889 86.9999C58.8602 87.0505 58.6269 87.0739 58.3944 87.0721H57.8611C57.7209 87.0711 57.5802 87.079 57.4389 87.0999L56.9055 87.1777C56.6044 87.2224 56.3051 87.192 56.0222 87.0888L55.7555 86.9888L55.4889 86.8943C55.3567 86.8461 55.2298 86.8112 55.1055 86.7943L54.8389 86.761L54.5722 86.7221C54.5007 86.7125 54.4266 86.7195 54.3444 86.7443L54.0777 86.8277L53.8111 86.9055C53.6288 86.9613 53.4434 87.0155 53.2611 87.0666L52.9944 87.1443L52.7277 87.2166C52.3944 87.3099 52.0555 87.2869 51.7389 87.161L51.2055 86.9499C51.2196 86.9552 51.2064 86.9499 51.15 86.9499C51.0901 86.9501 50.9977 86.9551 50.8722 86.9832L50.3889 87.0943L50.3111 87.111H50.1333C49.7406 87.111 49.4222 86.7926 49.4222 86.3999C49.4222 86.0072 49.7406 85.6888 50.1333 85.6888H50.1555L50.5611 85.5999C50.9323 85.5167 51.3519 85.4787 51.7277 85.6277L52.2611 85.8388C52.298 85.8535 52.3183 85.8554 52.3389 85.8499L52.6055 85.7721L52.8722 85.6999C53.0434 85.652 53.2176 85.6024 53.3889 85.5499L53.9222 85.3832C54.1944 85.2998 54.4779 85.2783 54.7611 85.3166Z" fill="#0C151D"/>
<path d="M60 81.2C60.2403 81.196 60.454 81.272 60.6334 81.3833L60.8834 81.5333L61.1278 81.6889C61.3244 81.8109 61.5086 81.9465 61.6723 82.0944L61.8612 82.2666L62.0556 82.4389C62.1323 82.5082 62.2234 82.5716 62.3278 82.6222L62.8167 82.8555C63.1191 83.0022 63.3558 83.2361 63.5056 83.5389L63.6223 83.7833L63.7445 84.0222C63.8251 84.1856 63.9021 84.3509 63.9778 84.5111L63.9945 84.55C64.0129 84.5085 64.0223 84.4626 64.0445 84.4222L64.1723 84.1889L64.3056 83.9555C64.4092 83.7674 64.5236 83.5862 64.6556 83.4166L64.8223 83.2055L64.9834 82.9944C65.1255 82.812 65.2869 82.6463 65.4667 82.5L65.6778 82.3333L65.8889 82.1611C66.1057 81.9852 66.352 81.8594 66.6223 81.7889L66.8834 81.7222L67.1389 81.6555C67.3982 81.588 67.6675 81.5708 67.9334 81.6055L68.1889 81.6389L68.45 81.6722C68.4804 81.6761 68.5454 81.6766 68.6556 81.6333L68.9556 81.5166L69.25 81.4C69.5466 81.2831 69.8631 81.2647 70.1612 81.3722L70.4556 81.5222L70.6945 81.6889L70.9389 81.8555C71.2396 82.0621 71.444 82.3536 71.5445 82.7L71.6278 82.9889L71.7112 83.2833C71.7338 83.3609 71.7653 83.3954 71.7889 83.4166L71.9945 83.6L72.1945 83.7777C72.3914 83.9529 72.5562 84.1577 72.6834 84.3889L72.8167 84.6333L72.95 84.8722C73.1251 85.1905 73.1878 85.6047 72.9723 86L72.8667 86.1944L72.7612 86.3944C72.7258 86.4592 72.7629 86.4051 72.7778 86.2944C72.783 86.2563 72.7976 86.0996 72.7112 85.9222L72.3556 86.2166L72.7723 86.6722L72.6667 86.7611L72.4945 86.9222L72.2556 86.9444L72.1723 86.95C72.0401 86.9615 71.7381 86.9466 71.5223 86.6722C71.3373 86.4366 71.3616 86.1847 71.3723 86.1055C71.3957 85.9312 71.4746 85.778 71.5112 85.7111L71.6167 85.5166L71.6445 85.4611L71.5667 85.3166L71.4334 85.0777C71.3828 84.9858 71.3235 84.9042 71.25 84.8389L71.0445 84.6611L70.8445 84.4777C70.5988 84.2588 70.4333 83.9843 70.3445 83.6777L70.2612 83.3889L70.1778 83.0944C70.1665 83.0563 70.1554 83.0429 70.1334 83.0277L69.8889 82.8611L69.7167 82.7389L69.4723 82.8389L69.1778 82.9555C68.892 83.0681 68.5828 83.1245 68.2667 83.0833L68.0056 83.05L67.75 83.0166C67.6697 83.0061 67.5858 83.0055 67.5 83.0277L67.2389 83.1L66.9834 83.1666C66.9098 83.1858 66.8438 83.2175 66.7834 83.2666L66.5778 83.4333L66.3667 83.6055C66.269 83.6851 66.1815 83.7747 66.1056 83.8722L65.9445 84.0833L65.7778 84.2944C65.693 84.4036 65.6167 84.518 65.55 84.6389L65.2945 85.1055C65.278 85.1355 65.2688 85.1697 65.2723 85.2222L65.2889 85.5L65.3112 85.7777C65.3172 85.8624 65.3184 85.9885 65.2834 86.1222C65.247 86.2598 65.1482 86.4732 64.9167 86.6111C64.6865 86.7471 64.4571 86.7261 64.3223 86.6944C64.1898 86.6632 64.0832 86.6054 64.0112 86.5611L63.5334 86.2722C63.2667 86.1079 63.0486 85.8792 62.9112 85.5889L62.8 85.35L62.4667 84.65L62.35 84.4111L62.2278 84.1722C62.2214 84.1592 62.2181 84.1513 62.2167 84.15L61.95 84.0166L61.7056 83.9C61.4857 83.7933 61.2858 83.6572 61.1056 83.4944L60.9112 83.3222L60.7167 83.1444C60.6232 83.0601 60.5097 82.9763 60.3778 82.8944L60.1334 82.7444L60.0112 82.6666L59.8834 82.7555L59.6334 82.9166C59.3964 83.0678 59.1333 83.1794 58.8556 83.2277L58.3445 83.3166C58.2239 83.3376 58.0862 83.3766 57.9389 83.4333L57.6667 83.5389L57.55 83.5777L57.5445 83.7555L57.5334 84.0777C57.5227 84.4199 57.4217 84.762 57.1834 85.0444L56.8389 85.4555C56.8363 85.459 56.8163 85.486 56.7889 85.55C56.7599 85.6183 56.7265 85.7145 56.6945 85.8444L56.5778 86.3166L56.5389 86.4777L56.4278 86.6055L56.3612 86.6833L55.8223 86.2222L55.6723 86.0889L55.1945 85.9777L55.3112 85.5055C55.3969 85.1574 55.5284 84.8023 55.75 84.5389L55.9223 84.3333L56.1 84.1222V84.1166C56.1037 84.1063 56.1153 84.0794 56.1167 84.0333L56.1223 83.7111L56.1334 83.3889L56.1834 83.0666C56.2144 82.9582 56.2587 82.8477 56.3278 82.7444C56.469 82.5335 56.67 82.3966 56.8778 82.3166L57.4334 82.1055C57.6549 82.0204 57.8778 81.9553 58.1 81.9166L58.3556 81.8722L58.6167 81.8277C58.682 81.816 58.7653 81.7868 58.8667 81.7222L59.1223 81.5555L59.3778 81.3944L59.6612 81.2555C59.7652 81.2211 59.8805 81.2022 60 81.2Z" fill="#0C151D"/>
<path d="M70.0111 85.9535L70.2722 85.9757L70.4556 86.1591L70.4945 86.2035C70.7451 86.4542 70.7295 86.7616 70.7167 86.8646C70.7008 86.9923 70.6549 87.1037 70.6222 87.1813L70.4889 87.5035C70.3777 87.7667 70.1766 87.9651 69.9889 88.1146L69.7722 88.2924L69.55 88.4646C69.4782 88.5219 69.4246 88.5883 69.3833 88.6646L69.2556 88.9091L69.1222 89.1535C68.9849 89.4078 68.7958 89.6228 68.5611 89.7924L68.1167 90.1146C68.0009 90.1982 67.8879 90.2937 67.7833 90.398L67.3945 90.7869C67.198 90.9826 66.967 91.1355 66.7111 91.2424L66.4556 91.348L66.2 91.4591C65.9623 91.5583 65.712 91.6195 65.4556 91.6424L65.1778 91.6646L64.9 91.6924C64.7851 91.7028 64.6674 91.7294 64.5445 91.7757L64.2722 91.8757L63.9945 91.9813C63.5716 92.1405 63.1453 92.0644 62.8 91.8091L62.55 91.6202L62.3056 91.4369C62.1697 91.3363 62.0459 91.2664 61.9389 91.2146L61.7056 91.098L61.4722 90.9869C61.3202 90.9135 61.1668 90.841 61.0167 90.7702L60.7889 90.6646L60.5611 90.5535C60.4611 90.5064 60.3388 90.4641 60.1945 90.4313L59.9167 90.3702L59.6333 90.3035C59.2037 90.2059 58.881 89.9185 58.7389 89.5035L58.6445 89.2313L58.5556 88.9535C58.5421 88.9142 58.5249 88.8979 58.5 88.8813L58.2667 88.7257L58.0278 88.5646C57.6188 88.2908 57.4686 87.8225 57.4056 87.4369L57.3222 86.9424L57.8556 86.8535L57.9556 86.7535L58.4667 86.2591L58.5333 86.3313L58.6889 86.4924L58.7278 86.7146L58.8056 87.2091C58.8228 87.3141 58.8471 87.3761 58.8611 87.4091L59.0556 87.5424L59.2889 87.698C59.5789 87.8919 59.788 88.1654 59.9 88.4924L59.9945 88.7702L60.05 88.9424L60.2278 88.9813L60.5111 89.048C60.7421 89.1005 60.9615 89.1734 61.1667 89.2702L61.3945 89.3757L62.0945 89.7091L62.3222 89.8202L62.5556 89.9313C62.7573 90.0286 62.9555 90.1539 63.15 90.298L63.4 90.4813L63.5778 90.6146L63.7667 90.548L64.0389 90.4424C64.278 90.352 64.5261 90.2981 64.7778 90.2757L65.05 90.248L65.3278 90.2257C65.4389 90.2159 65.5461 90.1858 65.65 90.1424L66.1611 89.9313C66.2469 89.8955 66.3232 89.8467 66.3889 89.7813L66.5833 89.5813L66.7833 89.3869C66.9399 89.231 67.1058 89.0872 67.2833 88.9591L67.5056 88.798L67.7278 88.6424C67.7868 88.5999 67.8349 88.5448 67.8722 88.4757L68 88.2313L68.1333 87.9924C68.267 87.7447 68.4467 87.5289 68.6667 87.3535L68.7667 87.2702L68.2333 87.2257L69.2889 86.1535L69.3611 86.0813L69.8056 86.5202L69.8556 85.9424L70.0111 85.9535Z" fill="#0C151D"/>
</svg>
