<svg width="128" height="128" viewBox="0 0 128 128" fill="none" xmlns="http://www.w3.org/2000/svg">
<ellipse cx="63.9998" cy="87.9999" rx="11.3778" ry="3.73333" fill="#0C151D"/>
<path d="M62.811 83.5166C63.1441 83.341 63.5181 83.2979 63.8887 83.4166L64.161 83.4999L64.4276 83.5888C64.4753 83.604 64.5154 83.6068 64.561 83.5944L64.8276 83.5166L65.0998 83.4444C65.3582 83.3742 65.6225 83.3522 65.8887 83.3777L66.161 83.3999L66.4276 83.4277C66.6527 83.4496 66.8766 83.4951 67.0943 83.561L67.6165 83.7166C67.7882 83.7686 67.9582 83.8217 68.1276 83.8722L68.3887 83.9499L68.6443 84.0277C68.6608 84.0326 68.6957 84.0394 68.7665 84.0166L69.3443 83.8277L69.6443 83.7666C69.8449 83.748 70.0448 83.7729 70.2332 83.8499L70.5054 84.0055L70.7443 84.1722L70.9776 84.3444C71.1143 84.4429 71.2518 84.5274 71.3832 84.5999L71.6165 84.7333L71.8554 84.861C71.968 84.9232 72.0812 84.9728 72.1943 85.0055L72.4498 85.0777L72.6998 85.1499C72.8149 85.1829 72.945 85.2063 73.0887 85.2166L73.3721 85.2388L73.6554 85.2555C73.9841 85.2791 74.2661 85.4203 74.4721 85.6499L74.6498 85.911L74.7887 86.1666L74.9221 86.4222C74.9497 86.4738 74.9811 86.4972 75.0165 86.5166L75.5054 86.7833C75.6153 86.8434 75.7446 86.9292 75.8554 87.0444C75.9635 87.1575 76.1301 87.384 76.111 87.6999L76.0998 87.8166L76.0943 87.9333C76.086 88.0605 76.0579 88.2336 76.0221 88.4166L75.9665 88.6888L75.911 88.9666C75.8709 89.1712 75.7806 89.3786 75.6165 89.5499C75.4525 89.7202 75.2505 89.8207 75.0554 89.8722L74.7721 89.9499L74.4832 90.0222C74.3183 90.0657 74.175 90.1162 74.0498 90.1666L73.811 90.261L73.5776 90.3555C73.4422 90.4101 73.3051 90.4694 73.1721 90.5388L72.7165 90.7833C72.5529 90.8686 72.3818 90.9489 72.211 91.0277L71.7332 91.2499C71.5873 91.3172 71.4366 91.3917 71.2887 91.4722L71.0498 91.6055L70.8054 91.7333C70.5336 91.8809 70.2373 91.9553 69.9276 91.9444L69.3832 91.9222C69.349 91.9209 69.3096 91.9283 69.2554 91.961L68.7554 92.261C68.5013 92.4153 68.2222 92.5119 67.9221 92.5333L67.6498 92.5555L67.3832 92.5722C67.0965 92.5923 66.8131 92.5473 66.5443 92.4499L66.2721 92.3499L65.9943 92.2499C65.8854 92.2107 65.7911 92.1983 65.711 92.1999L65.4498 92.2055L65.1832 92.211C65.0039 92.2147 64.8238 92.215 64.6443 92.2166L64.3776 92.2222H64.111C63.939 92.2237 63.7662 92.2286 63.5943 92.2333L63.3276 92.2388L63.0665 92.2444C62.8439 92.2504 62.6199 92.2366 62.3998 92.1999L62.1387 92.1555L61.8721 92.111C61.8479 92.1075 61.8059 92.1081 61.7332 92.1388L61.4554 92.261L61.1776 92.3777C60.7614 92.5558 60.3202 92.5066 59.9554 92.2444L59.711 92.0666L59.461 91.8888C59.4498 91.8808 59.4429 91.8742 59.4387 91.8722L59.1721 91.9055L58.8998 91.9444C58.6294 91.979 58.358 91.959 58.0943 91.8888L57.8332 91.8222L57.5776 91.7499C57.4706 91.7214 57.3558 91.7098 57.2332 91.711H56.9554L56.6776 91.7166C56.3753 91.7198 56.0842 91.6484 55.8165 91.5055L55.5776 91.3777L55.3332 91.2499C55.1408 91.1471 54.9569 91.0307 54.7832 90.8999L54.5665 90.7333L54.3498 90.5722C54.3163 90.547 54.2691 90.526 54.1887 90.5166L53.5998 90.4499C53.2218 90.4071 52.8904 90.2252 52.6498 89.9222L52.4665 89.6999L52.2887 89.4722C52.1022 89.237 51.9768 88.9683 51.9054 88.6777L51.8332 88.3777L51.7554 88.0777C51.657 87.6721 51.7404 87.2654 52.011 86.9333L52.1998 86.7055L52.3887 86.4722C52.5321 86.2964 52.6841 86.1335 52.8443 85.9833L53.0498 85.7888L53.2554 85.5999C53.4481 85.4195 53.6646 85.2735 53.9054 85.1666L54.161 85.0555L54.411 84.9444C54.5893 84.8655 54.7693 84.791 54.9498 84.7222L55.2054 84.6222L55.461 84.5277C55.6656 84.4497 55.8746 84.3881 56.0887 84.3444L56.6221 84.2333C56.8083 84.1953 56.9963 84.163 57.1832 84.1333L57.4498 84.0888L57.711 84.0499C57.9748 84.008 58.2425 84.0151 58.5054 84.0666L58.7887 84.1222L59.0665 84.1722C59.1391 84.1864 59.1915 84.1823 59.2387 84.1666L59.7498 83.9999C59.9468 83.9345 60.1472 83.8801 60.3498 83.8388L60.611 83.7833L60.8721 83.7333C61.1355 83.6796 61.4072 83.6763 61.6721 83.7222L62.2054 83.811C62.2167 83.813 62.24 83.8201 62.2887 83.7944L62.811 83.5166ZM63.211 84.911L62.9498 85.0499C62.6491 85.2085 62.3137 85.2763 61.9665 85.2166L61.6943 85.1666L61.4276 85.1222C61.3344 85.106 61.2464 85.1051 61.161 85.1222L60.8943 85.1777L60.6332 85.2333C60.4869 85.2631 60.3429 85.3025 60.1998 85.3499L59.6887 85.5166C59.3952 85.6141 59.0882 85.6311 58.7887 85.5722L58.2332 85.461C58.1253 85.4398 58.0282 85.436 57.9387 85.4499L57.4054 85.5388C57.2387 85.5653 57.0719 85.5938 56.9054 85.6277L56.6387 85.6833L56.3721 85.7333C56.2339 85.7615 56.0994 85.8048 55.9665 85.8555L55.711 85.9499L55.4554 86.0499C55.299 86.1096 55.144 86.1757 54.9887 86.2444L54.7332 86.3555L54.4832 86.4666C54.3902 86.5078 54.3066 86.5648 54.2276 86.6388L54.0221 86.8277L53.8165 87.0222C53.7049 87.1269 53.5945 87.2424 53.4887 87.3722L53.2998 87.5999L53.1498 87.7888L53.211 88.0388L53.2832 88.3388C53.3089 88.4441 53.3539 88.5239 53.4054 88.5888L53.5832 88.8166L53.7554 89.0333L53.7498 89.0388H53.761L53.7554 89.0333L54.3443 89.0999C54.6548 89.1351 54.9502 89.2467 55.2054 89.4388L55.6387 89.761C55.7538 89.8477 55.877 89.9258 56.0054 89.9944L56.2443 90.1222L56.4887 90.2499C56.5417 90.2781 56.5943 90.2949 56.661 90.2944L56.9387 90.2888H57.2165C57.4634 90.2862 57.7077 90.3146 57.9443 90.3777L58.1998 90.4499L58.461 90.5166C58.5398 90.5374 58.6233 90.545 58.7165 90.5333L58.9943 90.4944L59.2665 90.461L59.5443 90.4555C59.8176 90.4751 60.0731 90.5741 60.2943 90.7333L60.5387 90.911L60.7054 91.0277L60.8943 90.9499L61.1721 90.8333C61.464 90.7085 61.78 90.6574 62.1054 90.711L62.3721 90.7555L62.6332 90.7999C62.7636 90.8217 62.8965 90.8257 63.0276 90.8222L63.2887 90.8166L63.5554 90.811C63.7365 90.8061 63.9187 90.8015 64.0998 90.7999H64.3665L64.6332 90.7944C64.8067 90.7928 64.9822 90.7924 65.1554 90.7888L65.4165 90.7833L65.6832 90.7777C65.9554 90.7721 66.221 90.8238 66.4776 90.9166L66.7554 91.011L67.0332 91.111C67.1306 91.1461 67.2116 91.1605 67.2832 91.1555L67.5498 91.1333L67.8221 91.1166C67.8786 91.1124 67.9418 91.0948 68.0165 91.0499L68.2665 90.8944L68.5165 90.7444C68.7925 90.577 69.1039 90.4882 69.4332 90.4999L69.9776 90.5222C70.0317 90.5241 70.0775 90.5105 70.1276 90.4833L70.3721 90.3555L70.611 90.2222C70.785 90.1275 70.9582 90.0363 71.1332 89.9555L71.3776 89.8444L71.6165 89.7333C71.7661 89.6643 71.9135 89.5962 72.0554 89.5222L72.2887 89.3999L72.5165 89.2833C72.6893 89.1931 72.8656 89.1109 73.0443 89.0388L73.2832 88.9388L73.5165 88.8444C73.7049 88.7684 73.9081 88.7064 74.1221 88.6499L74.4054 88.5722L74.5443 88.5333L74.5721 88.4166L74.6276 88.1388C74.6438 88.0562 74.6477 87.9915 74.6554 87.9444L74.5776 87.8999L74.3332 87.7666C74.0441 87.6085 73.8193 87.376 73.6665 87.0888L73.5332 86.8333L73.4387 86.6666L73.2721 86.6555L72.9832 86.6333C72.7499 86.6165 72.5233 86.5792 72.3054 86.5166L71.8054 86.3722C71.5852 86.3089 71.3695 86.2231 71.1665 86.111L70.9332 85.9777L70.6943 85.8444C70.5102 85.7427 70.3283 85.6285 70.1498 85.4999L69.911 85.3277L69.7276 85.1944L69.4998 85.2722L69.211 85.3666C68.8996 85.4682 68.566 85.4862 68.2387 85.3888L67.9832 85.311L67.7221 85.2388C67.5495 85.1875 67.3745 85.1306 67.1998 85.0777L66.6776 84.9222C66.5482 84.8831 66.419 84.857 66.2887 84.8444L66.0221 84.8166L65.7554 84.7944C65.6664 84.7857 65.572 84.7894 65.4721 84.8166L65.2054 84.8888L64.9332 84.9666C64.6196 85.052 64.2974 85.0438 63.9887 84.9444L63.7221 84.8555L63.4665 84.7722L63.211 84.911Z" fill="#0C151D"/>
</svg>
