<svg width="24" height="24" viewBox="0 0 24 24" fill="none" xmlns="http://www.w3.org/2000/svg">
<path d="M12.0177 3.01648L12.1378 3.04675L12.1818 3.05945C12.3531 3.11123 12.4631 3.21001 12.5197 3.2655C12.5801 3.32487 12.6206 3.38431 12.6447 3.42175C12.6919 3.49538 12.727 3.56417 12.7453 3.60925C12.784 3.70482 12.8161 3.81615 12.8449 3.92273L12.9259 4.20984L13.0011 4.50378C13.0357 4.63183 13.089 4.75612 13.1574 4.87878L13.4572 5.41687C13.6596 5.78082 13.6991 6.17969 13.6203 6.56726L13.5519 6.89929L13.4884 7.23621L13.4826 7.28699L13.7824 7.8241C13.8624 7.96737 13.9568 8.10978 14.0646 8.24988L14.258 8.50574L14.4582 8.75574C14.7544 9.14073 14.8159 9.60388 14.7023 10.0438L14.6144 10.3817L14.5519 10.6005L14.715 10.7567L14.965 11.0009C15.3354 11.3561 15.4803 11.835 15.3644 12.3329L15.2833 12.6708L15.2277 12.8954L15.3966 13.0585L15.6466 13.2958C16.0098 13.6407 16.1664 14.1115 16.0656 14.6093L15.9962 14.9403L15.9279 15.2782V15.3534L16.0714 15.6219L16.2091 15.8973C16.3267 16.1235 16.4258 16.3602 16.4962 16.6034L16.6593 17.1796C16.6891 17.2819 16.7429 17.3816 16.8156 17.4852L16.9972 17.7479L17.1779 18.0048C17.3831 18.2973 17.5035 18.6389 17.5031 19.0116V19.58C17.5028 19.7779 17.4496 20.191 17.0597 20.4432C16.7031 20.6735 16.3291 20.5942 16.1652 20.5438L15.5646 20.3553C15.5611 20.3569 15.5589 20.3649 15.5529 20.368L14.9523 20.6561C14.6492 20.8036 14.3198 20.8849 13.9767 20.8749L13.6769 20.869L13.3761 20.8563C13.1249 20.8489 12.8739 20.8172 12.6261 20.7626L12.3253 20.7001L12.0255 20.6307C11.9915 20.6234 11.9527 20.6261 11.8947 20.6493L11.2941 20.8876C10.8787 21.0537 10.445 21.0342 10.0499 20.8436L9.74917 20.7001L9.44936 20.5497C9.29658 20.476 9.14577 20.4276 9.00503 20.3934L8.42983 20.2499L8.33608 20.3055L8.14858 20.4247C8.04052 20.4905 7.87289 20.5641 7.66128 20.5682C7.42718 20.572 7.212 20.4887 7.05386 20.3553C6.79473 20.1361 6.72157 19.8247 6.69155 19.6864L6.61636 19.3553L6.54116 19.0175C6.46168 18.6494 6.4834 18.2647 6.64761 17.9042L6.89761 17.3544C6.97791 17.1781 7.06133 17.001 7.13589 16.8231L7.24819 16.5477L7.36733 16.2665C7.46352 16.037 7.58022 15.8158 7.71694 15.6034L7.88589 15.3407L8.04214 15.0966V15.0907L7.96108 14.7528L7.88589 14.4149C7.83214 14.18 7.82962 13.9204 7.91714 13.6649C8.00455 13.4113 8.1641 13.2106 8.34292 13.0585L8.61147 12.827L8.74917 12.7079L8.69253 12.5272L8.58022 12.1825C8.46645 11.8328 8.42915 11.4519 8.53628 11.076L8.61733 10.788L8.70522 10.5009C8.80034 10.1672 8.97618 9.8758 9.21206 9.63171L9.44936 9.38757L9.66225 9.16296L9.64272 8.88757L9.61147 8.56238C9.58646 8.27998 9.59731 7.9991 9.64956 7.72449L9.70522 7.43054L9.76186 7.12976C9.81287 6.86278 9.89927 6.60589 10.0187 6.36121L10.1564 6.08581L10.2873 5.81726C10.3459 5.69715 10.3867 5.57044 10.4123 5.44226L10.4748 5.14831L10.5314 4.84753C10.5811 4.59733 10.6564 4.35742 10.7628 4.13464L10.8751 3.9032L10.9816 3.67175C11.0238 3.58379 11.0835 3.47844 11.1505 3.38464C11.181 3.34206 11.2446 3.25598 11.3439 3.17859C11.4193 3.12005 11.6723 2.94474 12.0177 3.01648Z" fill="#010820"/>
</svg>
