<svg width="128" height="128" viewBox="0 0 128 128" fill="none" xmlns="http://www.w3.org/2000/svg">
<path d="M58.3105 70.3994H69.6883V76.7994H58.3105V70.3994Z" fill="#FF984F"/>
<path d="M59.1105 70.2123L58.9486 69.5199L59.1105 70.2123ZM61.7772 70.5869L61.3894 69.9908L61.7772 70.5869ZM62.3105 70.2399L61.9228 69.6438L62.3105 70.2399ZM62.8439 70.1811L62.5629 70.8344L62.8439 70.1811ZM64.4439 70.374L64.3118 69.6752L64.4439 70.374ZM64.9772 70.3438L64.9233 71.0529L64.9772 70.3438ZM68.1772 70.6782L67.9476 70.0052L68.1772 70.6782ZM68.7105 70.4963L68.9402 71.1693L68.7105 70.4963ZM69.1572 70.4927L69.4679 69.8531L69.1572 70.4927ZM69.5171 70.6675L69.2064 71.3072L69.5171 70.6675ZM69.6004 71.0216L68.9319 70.7792L69.6004 71.0216ZM69.407 71.555L70.0755 71.7974L69.407 71.555ZM69.904 72.6216L69.333 73.0454L69.904 72.6216ZM70.0273 73.155L70.7121 73.3466L70.0273 73.155ZM69.878 73.6883L69.1932 73.4967L69.878 73.6883ZM69.7849 74.2216L70.4943 74.2709L69.7849 74.2216ZM69.8222 75.2883L70.4937 75.0544L69.8222 75.2883ZM69.915 75.555L69.2435 75.7888L69.915 75.555ZM70.0079 75.8216L70.6795 75.5878L70.0079 75.8216ZM69.9088 76.2459L70.3599 76.7956L69.9088 76.2459ZM69.7168 76.4035L69.2656 75.8538L69.7168 76.4035ZM69.5248 76.5611L69.9759 77.1107L69.5248 76.5611ZM69.0661 76.7531L68.975 76.0478L69.0661 76.7531ZM68.5328 76.822L68.6238 77.5272L68.5328 76.822ZM67.9994 76.7916L67.8315 77.4826L67.9994 76.7916ZM67.4661 76.662L67.634 75.971L67.4661 76.662ZM66.9328 76.5675L66.8543 77.2743L66.9328 76.5675ZM66.3994 76.5083L66.4779 75.8016L66.3994 76.5083ZM65.8661 76.4808L65.8605 75.7697L65.8661 76.4808ZM65.5994 76.4829L65.5939 75.7718L65.5994 76.4829ZM65.3328 76.485L65.3383 77.1961L65.3328 76.485ZM64.7994 76.5413L64.6578 75.8444L64.7994 76.5413ZM64.5328 76.5955L64.6744 77.2923L64.5328 76.5955ZM64.2661 76.6496L64.1245 75.9528L64.2661 76.6496ZM63.1994 76.4801L63.3909 75.7953L63.1994 76.4801ZM61.5994 76.9267L61.7191 76.2257L61.5994 76.9267ZM61.3328 76.8812L61.2131 77.5822L61.3328 76.8812ZM61.0661 76.8357L61.1857 76.1347L61.0661 76.8357ZM60.5328 76.7328L60.3831 77.4279L60.5328 76.7328ZM59.9994 76.6179L60.1491 75.9228L59.9994 76.6179ZM59.4661 76.7177L59.105 76.1051L59.4661 76.7177ZM58.5395 76.914L57.8935 77.2111L58.5395 76.914ZM58.2864 76.3635L58.9324 76.0664L58.2864 76.3635ZM58.095 75.8216L57.404 75.9897L58.095 75.8216ZM58.1056 74.755L58.6692 75.1886L58.1056 74.755ZM58.029 72.6216L57.365 72.3673L58.029 72.6216ZM58.2333 72.0883L57.5692 71.834L58.2333 72.0883ZM58.4607 70.6661L57.8411 71.015L58.4607 70.6661ZM58.3606 70.4883L58.9802 70.1394L58.3606 70.4883ZM58.8439 70.2747L59.0058 70.9671L59.2725 70.9047L59.1105 70.2123L58.9486 69.5199L58.6819 69.5822L58.8439 70.2747ZM59.1105 70.2123L59.2725 70.9047C59.4026 70.8743 59.5302 70.8585 59.6563 70.8562L59.6439 70.1452L59.6314 69.4342C59.402 69.4383 59.1741 69.4671 58.9486 69.5199L59.1105 70.2123ZM59.6439 70.1452L59.6563 70.8562L59.923 70.8516L59.9105 70.1406L59.8981 69.4296L59.6314 69.4342L59.6439 70.1452ZM59.9105 70.1406L59.923 70.8516L60.1897 70.8469L60.1772 70.1359L60.1648 69.4249L59.8981 69.4296L59.9105 70.1406ZM60.1772 70.1359L60.1897 70.8469C60.2162 70.8464 60.2661 70.852 60.3493 70.901L60.7105 70.2885L61.0718 69.676C60.7994 69.5153 60.4937 69.4191 60.1648 69.4249L60.1772 70.1359ZM60.7105 70.2885L60.3493 70.901L60.616 71.0583L60.9772 70.4458L61.3385 69.8333L61.0718 69.676L60.7105 70.2885ZM60.9772 70.4458L60.616 71.0583L60.8826 71.2156L61.2439 70.6031L61.6051 69.9906L61.3385 69.8333L60.9772 70.4458ZM61.2439 70.6031L60.8826 71.2156C61.0683 71.3251 61.2885 71.3958 61.5321 71.3884C61.7744 71.3811 61.9881 71.2981 62.165 71.1829L61.7772 70.5869L61.3894 69.9908C61.3886 69.9913 61.4244 69.9688 61.489 69.9669C61.5548 69.9649 61.5972 69.9859 61.6051 69.9906L61.2439 70.6031ZM61.7772 70.5869L62.165 71.1829L62.4317 71.0095L62.0439 70.4134L61.6561 69.8173L61.3894 69.9908L61.7772 70.5869ZM62.0439 70.4134L62.4317 71.0095L62.6983 70.836L62.3105 70.2399L61.9228 69.6438L61.6561 69.8173L62.0439 70.4134ZM62.3105 70.2399L62.6983 70.836C62.7112 70.8276 62.6955 70.8408 62.6551 70.8453C62.6358 70.8474 62.6163 70.8468 62.5982 70.844C62.5805 70.8411 62.5684 70.8367 62.5629 70.8344L62.8439 70.1811L63.1249 69.5279C62.705 69.3473 62.2773 69.4132 61.9228 69.6438L62.3105 70.2399ZM62.8439 70.1811L62.5629 70.8344L62.8296 70.9491L63.1105 70.2958L63.3915 69.6426L63.1249 69.5279L62.8439 70.1811ZM63.1105 70.2958L62.8296 70.9491L63.0962 71.0638L63.3772 70.4105L63.6582 69.7573L63.3915 69.6426L63.1105 70.2958ZM63.3772 70.4105L63.0962 71.0638C63.3946 71.1921 63.7159 71.2353 64.0427 71.1735L63.9105 70.4748L63.7784 69.7761C63.7497 69.7815 63.7154 69.7819 63.6582 69.7573L63.3772 70.4105ZM63.9105 70.4748L64.0427 71.1735L64.3093 71.1231L64.1772 70.4244L64.0451 69.7256L63.7784 69.7761L63.9105 70.4748ZM64.1772 70.4244L64.3093 71.1231L64.576 71.0727L64.4439 70.374L64.3118 69.6752L64.0451 69.7256L64.1772 70.4244ZM64.4439 70.374L64.576 71.0727C64.6934 71.0505 64.8087 71.0442 64.9233 71.0529L64.9772 70.3438L65.0311 69.6347C64.7902 69.6164 64.5499 69.6302 64.3118 69.6752L64.4439 70.374ZM64.9772 70.3438L64.9233 71.0529L65.19 71.0731L65.2439 70.3641L65.2978 69.655L65.0311 69.6347L64.9772 70.3438ZM65.2439 70.3641L65.19 71.0731L65.4567 71.0934L65.5105 70.3843L65.5644 69.6753L65.2978 69.655L65.2439 70.3641ZM65.5105 70.3843L65.4567 71.0934C65.6023 71.1045 65.7487 71.1255 65.8961 71.1568L66.0439 70.4613L66.1916 69.7657C65.9835 69.7214 65.7744 69.6912 65.5644 69.6753L65.5105 70.3843ZM66.0439 70.4613L65.8961 71.1568L66.1628 71.2135L66.3105 70.5179L66.4583 69.8223L66.1916 69.7657L66.0439 70.4613ZM66.3105 70.5179L66.1628 71.2135L66.4295 71.2701L66.5772 70.5745L66.725 69.879L66.4583 69.8223L66.3105 70.5179ZM66.5772 70.5745L66.4295 71.2701C66.6257 71.3118 66.8223 71.3454 67.0193 71.3709L67.1105 70.6657L67.2018 69.9605C67.0432 69.9399 66.8843 69.9128 66.725 69.879L66.5772 70.5745ZM67.1105 70.6657L67.0193 71.3709L67.286 71.4054L67.3772 70.7002L67.4685 69.995L67.2018 69.9605L67.1105 70.6657ZM67.3772 70.7002L67.286 71.4054L67.5526 71.4399L67.6439 70.7347L67.7351 70.0295L67.4685 69.995L67.3772 70.7002ZM67.6439 70.7347L67.5526 71.4399C67.8436 71.4776 68.131 71.4453 68.4068 71.3512L68.1772 70.6782L67.9476 70.0052C67.8678 70.0324 67.7997 70.0378 67.7351 70.0295L67.6439 70.7347ZM68.1772 70.6782L68.4068 71.3512L68.6735 71.2603L68.4439 70.5872L68.2143 69.9142L67.9476 70.0052L68.1772 70.6782ZM68.4439 70.5872L68.6735 71.2603L68.9402 71.1693L68.7105 70.4963L68.4809 69.8232L68.2143 69.9142L68.4439 70.5872ZM68.7105 70.4963L68.9402 71.1693C68.9749 71.1574 68.9799 71.1608 68.9612 71.161C68.939 71.1611 68.896 71.1564 68.8465 71.1323L69.1572 70.4927L69.4679 69.8531C69.1205 69.6843 68.7629 69.727 68.4809 69.8232L68.7105 70.4963ZM69.1572 70.4927L68.8465 71.1323L69.0265 71.2198L69.3372 70.5801L69.6479 69.9405L69.4679 69.8531L69.1572 70.4927ZM69.3372 70.5801L69.0265 71.2198L69.2064 71.3072L69.5171 70.6675L69.8279 70.0279L69.6479 69.9405L69.3372 70.5801ZM69.5171 70.6675L69.2064 71.3072C69.1606 71.2849 69.1002 71.2453 69.0448 71.1792C68.988 71.1115 68.9528 71.0352 68.9357 70.9626C68.9049 70.8313 68.9413 70.7532 68.9319 70.7792L69.6004 71.0216L70.2689 71.2641C70.324 71.1123 70.3788 70.8863 70.3202 70.637C70.252 70.3471 70.0584 70.1399 69.8279 70.0279L69.5171 70.6675ZM69.6004 71.0216L68.9319 70.7792L68.8352 71.0458L69.5037 71.2883L70.1722 71.5308L70.2689 71.2641L69.6004 71.0216ZM69.5037 71.2883L68.8352 71.0458L68.7385 71.3125L69.407 71.555L70.0755 71.7974L70.1722 71.5308L69.5037 71.2883ZM69.407 71.555L68.7385 71.3125C68.5777 71.7557 68.6911 72.1806 68.9371 72.5121L69.5082 72.0883L70.0792 71.6645C70.0632 71.6429 70.0754 71.6516 70.0826 71.6891C70.0861 71.7076 70.0873 71.7283 70.0855 71.7496C70.0837 71.7706 70.0793 71.787 70.0755 71.7974L69.407 71.555ZM69.5082 72.0883L68.9371 72.5121L69.1351 72.7788L69.7061 72.355L70.2771 71.9312L70.0792 71.6645L69.5082 72.0883ZM69.7061 72.355L69.1351 72.7788L69.333 73.0454L69.904 72.6216L70.475 72.1978L70.2771 71.9312L69.7061 72.355ZM69.904 72.6216L69.333 73.0454C69.3528 73.0722 69.3466 73.073 69.3409 73.0485C69.3381 73.0363 69.3363 73.0211 69.3367 73.0043C69.3371 72.9876 69.3396 72.9735 69.3425 72.9633L70.0273 73.155L70.7121 73.3466C70.8331 72.9141 70.7088 72.5128 70.475 72.1978L69.904 72.6216ZM70.0273 73.155L69.3425 72.9633L69.2679 73.23L69.9527 73.4216L70.6375 73.6133L70.7121 73.3466L70.0273 73.155ZM69.9527 73.4216L69.2679 73.23L69.1932 73.4967L69.878 73.6883L70.5628 73.8799L70.6375 73.6133L69.9527 73.4216ZM69.878 73.6883L69.1932 73.4967C69.1309 73.7193 69.0913 73.9447 69.0755 74.1723L69.7849 74.2216L70.4943 74.2709C70.5032 74.143 70.5256 74.0129 70.5628 73.8799L69.878 73.6883ZM69.7849 74.2216L69.0755 74.1723L69.057 74.439L69.7664 74.4883L70.4758 74.5376L70.4943 74.2709L69.7849 74.2216ZM69.7664 74.4883L69.057 74.439L69.0384 74.7057L69.7478 74.755L70.4572 74.8043L70.4758 74.5376L69.7664 74.4883ZM69.7478 74.755L69.0384 74.7057C69.019 74.9848 69.0589 75.2588 69.1506 75.5222L69.8222 75.2883L70.4937 75.0544C70.4616 74.9623 70.4519 74.8807 70.4572 74.8043L69.7478 74.755ZM69.8222 75.2883L69.1506 75.5222L69.2435 75.7888L69.915 75.555L70.5866 75.3211L70.4937 75.0544L69.8222 75.2883ZM69.915 75.555L69.2435 75.7888L69.3363 76.0555L70.0079 75.8216L70.6795 75.5878L70.5866 75.3211L69.915 75.555ZM70.0079 75.8216L69.3363 76.0555C69.3359 76.0543 69.3151 75.9934 69.3371 75.8992C69.3611 75.7967 69.4185 75.7284 69.4576 75.6962L69.9088 76.2459L70.3599 76.7956C70.5271 76.6584 70.665 76.4668 70.722 76.2228C70.7771 75.9873 70.7418 75.7668 70.6795 75.5878L70.0079 75.8216ZM69.9088 76.2459L69.4576 75.6962L69.2656 75.8538L69.7168 76.4035L70.1679 76.9532L70.3599 76.7956L69.9088 76.2459ZM69.7168 76.4035L69.2656 75.8538L69.0736 76.0114L69.5248 76.5611L69.9759 77.1107L70.1679 76.9532L69.7168 76.4035ZM69.5248 76.5611L69.0736 76.0114C69.0572 76.0249 69.0319 76.0405 68.975 76.0478L69.0661 76.7531L69.1572 77.4584C69.4558 77.4198 69.7364 77.3074 69.9759 77.1107L69.5248 76.5611ZM69.0661 76.7531L68.975 76.0478L68.7084 76.0823L68.7994 76.7875L68.8905 77.4928L69.1572 77.4584L69.0661 76.7531ZM68.7994 76.7875L68.7084 76.0823L68.4417 76.1167L68.5328 76.822L68.6238 77.5272L68.8905 77.4928L68.7994 76.7875ZM68.5328 76.822L68.4417 76.1167C68.3522 76.1283 68.2622 76.1236 68.1674 76.1006L67.9994 76.7916L67.8315 77.4826C68.0922 77.5459 68.3578 77.5616 68.6238 77.5272L68.5328 76.822ZM67.9994 76.7916L68.1674 76.1006L67.9007 76.0358L67.7328 76.7268L67.5648 77.4178L67.8315 77.4826L67.9994 76.7916ZM67.7328 76.7268L67.9007 76.0358L67.634 75.971L67.4661 76.662L67.2982 77.3529L67.5648 77.4178L67.7328 76.7268ZM67.4661 76.662L67.634 75.971C67.4275 75.9208 67.2198 75.8839 67.0112 75.8608L66.9328 76.5675L66.8543 77.2743C67.0013 77.2906 67.1492 77.3167 67.2982 77.3529L67.4661 76.662ZM66.9328 76.5675L67.0112 75.8608L66.7445 75.8312L66.6661 76.5379L66.5877 77.2447L66.8543 77.2743L66.9328 76.5675ZM66.6661 76.5379L66.7445 75.8312L66.4779 75.8016L66.3994 76.5083L66.321 77.2151L66.5877 77.2447L66.6661 76.5379ZM66.3994 76.5083L66.4779 75.8016C66.2724 75.7788 66.0666 75.7681 65.8605 75.7697L65.8661 76.4808L65.8717 77.1919C66.0212 77.1908 66.1709 77.1985 66.321 77.2151L66.3994 76.5083ZM65.8661 76.4808L65.8605 75.7697L65.5939 75.7718L65.5994 76.4829L65.605 77.194L65.8717 77.1919L65.8661 76.4808ZM65.5994 76.4829L65.5939 75.7718L65.3272 75.7739L65.3328 76.485L65.3383 77.1961L65.605 77.194L65.5994 76.4829ZM65.3328 76.485L65.3272 75.7739C65.1028 75.7757 64.8795 75.7994 64.6578 75.8444L64.7994 76.5413L64.941 77.2381C65.0749 77.2109 65.2072 77.1971 65.3383 77.1961L65.3328 76.485ZM64.7994 76.5413L64.6578 75.8444L64.3912 75.8986L64.5328 76.5955L64.6744 77.2923L64.941 77.2381L64.7994 76.5413ZM64.5328 76.5955L64.3912 75.8986L64.1245 75.9528L64.2661 76.6496L64.4077 77.3465L64.6744 77.2923L64.5328 76.5955ZM64.2661 76.6496L64.1245 75.9528C64.0591 75.9661 63.9955 75.9643 63.9243 75.9444L63.7328 76.6293L63.5413 77.3141C63.8256 77.3936 64.1175 77.4055 64.4077 77.3465L64.2661 76.6496ZM63.7328 76.6293L63.9243 75.9444L63.6576 75.8699L63.4661 76.5547L63.2746 77.2395L63.5413 77.3141L63.7328 76.6293ZM63.4661 76.5547L63.6576 75.8699L63.3909 75.7953L63.1994 76.4801L63.0079 77.165L63.2746 77.2395L63.4661 76.5547ZM63.1994 76.4801L63.3909 75.7953C63.0206 75.6918 62.6556 75.7476 62.3325 75.9192L62.6661 76.5472L62.9997 77.1752C63.011 77.1692 63.0182 77.1665 63.0214 77.1655C63.0244 77.1645 63.0243 77.1648 63.0215 77.1652C63.0187 77.1655 63.0151 77.1657 63.0116 77.1654C63.0081 77.1651 63.0067 77.1646 63.0079 77.165L63.1994 76.4801ZM62.6661 76.5472L62.3325 75.9192L62.0658 76.0609L62.3994 76.6889L62.733 77.3169L62.9997 77.1752L62.6661 76.5472ZM62.3994 76.6889L62.0658 76.0609L61.7991 76.2026L62.1328 76.8306L62.4664 77.4586L62.733 77.3169L62.3994 76.6889ZM62.1328 76.8306L61.7991 76.2026C61.7432 76.2323 61.7239 76.2266 61.7191 76.2257L61.5994 76.9267L61.4798 77.6277C61.8306 77.6876 62.1668 77.6177 62.4664 77.4586L62.1328 76.8306ZM61.5994 76.9267L61.7191 76.2257L61.4524 76.1802L61.3328 76.8812L61.2131 77.5822L61.4798 77.6277L61.5994 76.9267ZM61.3328 76.8812L61.4524 76.1802L61.1857 76.1347L61.0661 76.8357L60.9465 77.5367L61.2131 77.5822L61.3328 76.8812ZM61.0661 76.8357L61.1857 76.1347C61.0181 76.1061 60.8503 76.0737 60.6825 76.0376L60.5328 76.7328L60.3831 77.4279C60.5707 77.4684 60.7585 77.5046 60.9465 77.5367L61.0661 76.8357ZM60.5328 76.7328L60.6825 76.0376L60.4158 75.9802L60.2661 76.6754L60.1164 77.3705L60.3831 77.4279L60.5328 76.7328ZM60.2661 76.6754L60.4158 75.9802L60.1491 75.9228L59.9994 76.6179L59.8497 77.3131L60.1164 77.3705L60.2661 76.6754ZM59.9994 76.6179L60.1491 75.9228C59.773 75.8418 59.4143 75.9227 59.105 76.1051L59.4661 76.7177L59.8272 77.3303C59.8548 77.314 59.8664 77.3126 59.8635 77.3131C59.8623 77.3134 59.8596 77.3137 59.856 77.3137C59.8525 77.3136 59.8502 77.3132 59.8497 77.3131L59.9994 76.6179ZM59.4661 76.7177L59.105 76.1051L58.8383 76.2622L59.1994 76.8749L59.5605 77.4875L59.8272 77.3303L59.4661 76.7177ZM59.1994 76.8749L58.8383 76.2622L58.5717 76.4194L58.9328 77.032L59.2939 77.6447L59.5605 77.4875L59.1994 76.8749ZM58.9328 77.032L58.5717 76.4194C58.5743 76.4179 58.6051 76.3997 58.6608 76.3879C58.7208 76.3752 58.8077 76.3706 58.9056 76.4C59.1134 76.4624 59.1837 76.6127 59.1856 76.6169L58.5395 76.914L57.8935 77.2111C57.9798 77.3988 58.1578 77.6605 58.4967 77.7622C58.8306 77.8624 59.1208 77.7467 59.2939 77.6447L58.9328 77.032ZM58.5395 76.914L59.1856 76.6169L59.059 76.3416L58.4129 76.6388L57.7669 76.9359L57.8935 77.2111L58.5395 76.914ZM58.4129 76.6388L59.059 76.3416L58.9324 76.0664L58.2864 76.3635L57.6403 76.6606L57.7669 76.9359L58.4129 76.6388ZM58.2864 76.3635L58.9324 76.0664C58.8652 75.9202 58.8173 75.7827 58.7859 75.6536L58.095 75.8216L57.404 75.9897C57.459 76.2161 57.5388 76.4399 57.6403 76.6606L58.2864 76.3635ZM58.095 75.8216L58.7859 75.6536L58.7211 75.3869L58.0301 75.555L57.3391 75.723L57.404 75.9897L58.095 75.8216ZM58.0301 75.555L58.7211 75.3869L58.6562 75.1203L57.9653 75.2883L57.2743 75.4563L57.3391 75.723L58.0301 75.555ZM57.9653 75.2883L58.6562 75.1203C58.659 75.1315 58.661 75.1458 58.6608 75.162C58.6606 75.1783 58.6584 75.1922 58.6556 75.2026C58.6502 75.2231 58.6462 75.2184 58.6692 75.1886L58.1056 74.755L57.5419 74.3214C57.3065 74.6274 57.1687 75.0219 57.2743 75.4563L57.9653 75.2883ZM58.1056 74.755L58.6692 75.1886L58.8743 74.9219L58.3107 74.4883L57.7471 74.0547L57.5419 74.3214L58.1056 74.755ZM58.3107 74.4883L58.8743 74.9219L59.0795 74.6552L58.5159 74.2216L57.9522 73.788L57.7471 74.0547L58.3107 74.4883ZM58.5159 74.2216L59.0795 74.6552C59.2168 74.4767 59.3277 74.2428 59.3312 73.9638C59.3346 73.6838 59.2288 73.4463 59.0929 73.2637L58.5225 73.6883L57.9521 74.1129C57.9485 74.1081 57.9078 74.0484 57.909 73.9461C57.9103 73.845 57.9517 73.7888 57.9522 73.788L58.5159 74.2216ZM58.5225 73.6883L59.0929 73.2637L58.8944 72.997L58.324 73.4216L57.7536 73.8463L57.9521 74.1129L58.5225 73.6883ZM58.324 73.4216L58.8944 72.997L58.6958 72.7303L58.1254 73.155L57.555 73.5796L57.7536 73.8463L58.324 73.4216ZM58.1254 73.155L58.6958 72.7303C58.6806 72.7099 58.6945 72.7209 58.7018 72.7618C58.7055 72.782 58.7065 72.8042 58.7043 72.8265C58.702 72.8486 58.6971 72.8655 58.6931 72.876L58.029 72.6216L57.365 72.3673C57.1942 72.8131 57.3052 73.2441 57.555 73.5796L58.1254 73.155ZM58.029 72.6216L58.6931 72.876L58.7952 72.6093L58.1312 72.355L57.4671 72.1006L57.365 72.3673L58.029 72.6216ZM58.1312 72.355L58.7952 72.6093L58.8974 72.3426L58.2333 72.0883L57.5692 71.834L57.4671 72.1006L58.1312 72.355ZM58.2333 72.0883L58.8974 72.3426C58.9817 72.1224 59.0435 71.8982 59.081 71.6703L58.3793 71.555L57.6776 71.4396C57.6566 71.5673 57.6211 71.6986 57.5692 71.834L58.2333 72.0883ZM58.3793 71.555L59.081 71.6703L59.1248 71.4036L58.4231 71.2883L57.7214 71.173L57.6776 71.4396L58.3793 71.555ZM58.4231 71.2883L59.1248 71.4036L59.1686 71.137L58.4669 71.0216L57.7652 70.9063L57.7214 71.173L58.4231 71.2883ZM58.4669 71.0216L59.1686 71.137C59.187 71.0252 59.2003 70.9049 59.1983 70.787C59.1965 70.6856 59.1833 70.5 59.0803 70.3172L58.4607 70.6661L57.8411 71.015C57.8026 70.9467 57.7881 70.8891 57.7825 70.8607C57.7765 70.8307 57.7763 70.8126 57.7763 70.8119C57.7762 70.8102 57.7764 70.817 57.7748 70.8345C57.7733 70.8516 57.7703 70.8752 57.7652 70.9063L58.4669 71.0216ZM58.4607 70.6661L59.0803 70.3172L59.0303 70.2283L58.4106 70.5772L57.791 70.9261L57.8411 71.015L58.4607 70.6661ZM58.4106 70.5772L59.0303 70.2283L58.9802 70.1394L58.3606 70.4883L57.741 70.8372L57.791 70.9261L58.4106 70.5772ZM58.3606 70.4883L58.9802 70.1394C59.0539 70.2702 59.1012 70.4696 59.0257 70.6829C58.9615 70.8642 58.8416 70.9578 58.7969 70.9891C58.7152 71.0461 58.6643 71.047 58.7392 71.0295L58.5772 70.337L58.4153 69.6446C58.3124 69.6687 58.1365 69.7155 57.9826 69.823C57.9018 69.8795 57.7589 69.9994 57.685 70.2081C57.5998 70.4488 57.6507 70.6768 57.741 70.8372L58.3606 70.4883ZM58.5772 70.337L58.7392 71.0295L59.0058 70.9671L58.8439 70.2747L58.6819 69.5822L58.4153 69.6446L58.5772 70.337Z" fill="#FF984F"/>
</svg>
