<svg width="128" height="128" viewBox="0 0 128 128" fill="none" xmlns="http://www.w3.org/2000/svg">
<path d="M59.7334 73.0661C59.7334 71.5933 60.9273 70.3994 62.4001 70.3994H65.6001C67.0728 70.3994 68.2667 71.5933 68.2667 73.0661C68.2667 74.5388 67.0728 75.7327 65.6001 75.7327H62.4001C60.9273 75.7327 59.7334 74.5388 59.7334 73.0661Z" fill="#FF984F"/>
<path d="M63.2001 70.2123L63.0381 69.5199L63.2001 70.2123ZM65.3334 70.6031L64.9721 71.2156L65.3334 70.6031ZM66.9321 70.5509L67.5259 70.1597L66.9321 70.5509ZM67.0956 70.7992L66.5018 71.1904L67.0956 70.7992ZM67.2592 71.0475L66.6653 71.4387L67.2592 71.0475ZM67.6063 71.4898L68.1229 71.0011L67.6063 71.4898ZM67.7898 71.6838L67.2732 72.1725L67.7898 71.6838ZM67.9733 71.8778L67.4567 72.3665L67.9733 71.8778ZM68.1827 72.3398L68.8905 72.2714L68.1827 72.3398ZM68.2086 72.6078L67.5008 72.6762L68.2086 72.6078ZM68.2345 72.8758L67.5267 72.9442L68.2345 72.8758ZM68.149 73.3777L67.507 73.0719L68.149 73.3777ZM68.0376 73.6116L67.3956 73.3058L68.0376 73.6116ZM67.9262 73.8455L68.5682 74.1513L67.9262 73.8455ZM67.649 74.2494L67.1398 73.7531L67.649 74.2494ZM67.3174 74.5896L67.8266 75.086L67.3174 74.5896ZM66.9867 74.9632L67.5392 75.411L66.9867 74.9632ZM66.6569 75.3702L66.1044 74.9225L66.6569 75.3702ZM66.2301 75.6157L66.3427 76.3178L66.2301 75.6157ZM65.7065 75.6996L65.594 74.9974L65.7065 75.6996ZM65.178 75.6448L64.9355 76.3133L65.178 75.6448ZM64.6446 75.4514L64.8871 74.7829L64.6446 75.4514ZM63.8446 75.7505L63.4208 75.1795L63.8446 75.7505ZM63.578 75.9484L63.1542 75.3774L63.578 75.9484ZM63.043 76.0706L63.2363 75.3862L63.043 76.0706ZM62.7747 75.9948L62.5814 76.6791L62.7747 75.9948ZM62.5063 75.919L62.3131 76.6033L62.5063 75.919ZM61.979 75.7561L61.7524 76.4302L61.979 75.7561ZM60.919 75.391L60.6739 76.0585L60.919 75.391ZM60.3531 75.1831L60.5983 74.5156L60.3531 75.1831ZM59.8758 73.6032L59.1849 73.7717L59.8758 73.6032ZM59.7497 73.0865L59.0588 73.255L59.7497 73.0865ZM59.8205 72.5991L59.2065 72.2403L59.8205 72.5991ZM60.3963 71.7456L59.9053 71.2312L60.3963 71.7456ZM60.7446 71.413L61.2357 71.9274L60.7446 71.413ZM61.5357 70.9155L61.1992 70.289L61.5357 70.9155ZM61.906 70.7276L61.6031 70.0842L61.906 70.7276ZM62.2354 70.5725L62.5382 71.2159L62.2354 70.5725ZM62.9334 70.2747L63.0954 70.9671L63.362 70.9047L63.2001 70.2123L63.0381 69.5199L62.7714 69.5822L62.9334 70.2747ZM63.2001 70.2123L63.362 70.9047C63.4921 70.8743 63.6198 70.8585 63.7459 70.8562L63.7334 70.1452L63.7209 69.4342C63.4915 69.4383 63.2636 69.4671 63.0381 69.5199L63.2001 70.2123ZM63.7334 70.1452L63.7459 70.8562L64.0125 70.8516L64.0001 70.1406L63.9876 69.4296L63.7209 69.4342L63.7334 70.1452ZM64.0001 70.1406L64.0125 70.8516L64.2792 70.8469L64.2667 70.1359L64.2543 69.4249L63.9876 69.4296L64.0001 70.1406ZM64.2667 70.1359L64.2792 70.8469C64.3058 70.8464 64.3556 70.852 64.4388 70.901L64.8001 70.2885L65.1613 69.676C64.8889 69.5153 64.5833 69.4191 64.2543 69.4249L64.2667 70.1359ZM64.8001 70.2885L64.4388 70.901L64.7055 71.0583L65.0667 70.4458L65.428 69.8333L65.1613 69.676L64.8001 70.2885ZM65.0667 70.4458L64.7055 71.0583L64.9721 71.2156L65.3334 70.6031L65.6947 69.9906L65.428 69.8333L65.0667 70.4458ZM65.3334 70.6031L64.9721 71.2156C65.3411 71.4332 65.7565 71.4628 66.1516 71.308L65.8922 70.6459L65.6328 69.9838C65.6271 69.986 65.6275 69.9852 65.6335 69.9843C65.6397 69.9833 65.6492 69.9825 65.6608 69.9834C65.6724 69.9843 65.6823 69.9865 65.6895 69.9889C65.6965 69.9912 65.6982 69.9927 65.6947 69.9906L65.3334 70.6031ZM65.8922 70.6459L66.1516 71.308L66.4437 71.1936L66.1843 70.5315L65.9249 69.8694L65.6328 69.9838L65.8922 70.6459ZM66.1843 70.5315L66.4437 71.1936L66.7358 71.0791L66.4764 70.417L66.217 69.7549L65.9249 69.8694L66.1843 70.5315ZM66.4764 70.417L66.7358 71.0791C66.7335 71.08 66.6536 71.1101 66.536 71.0756C66.4129 71.0394 66.3522 70.9633 66.3382 70.9421L66.9321 70.5509L67.5259 70.1597C67.4029 69.9729 67.2117 69.7918 66.9368 69.711C66.6673 69.6318 66.414 69.6777 66.217 69.7549L66.4764 70.417ZM66.9321 70.5509L66.3382 70.9421L66.5018 71.1904L67.0956 70.7992L67.6895 70.408L67.5259 70.1597L66.9321 70.5509ZM67.0956 70.7992L66.5018 71.1904L66.6653 71.4387L67.2592 71.0475L67.853 70.6563L67.6895 70.408L67.0956 70.7992ZM67.2592 71.0475L66.6653 71.4387C66.7947 71.635 66.9358 71.8158 67.0896 71.9785L67.6063 71.4898L68.1229 71.0011C68.0321 70.9051 67.9417 70.791 67.853 70.6563L67.2592 71.0475ZM67.6063 71.4898L67.0896 71.9785L67.2732 72.1725L67.7898 71.6838L68.3064 71.1951L68.1229 71.0011L67.6063 71.4898ZM67.7898 71.6838L67.2732 72.1725L67.4567 72.3665L67.9733 71.8778L68.4899 71.3892L68.3064 71.1951L67.7898 71.6838ZM67.9733 71.8778L67.4567 72.3665C67.4666 72.3769 67.4691 72.3825 67.4697 72.3839C67.4704 72.3854 67.4733 72.392 67.4749 72.4083L68.1827 72.3398L68.8905 72.2714C68.8582 71.9367 68.7219 71.6344 68.4899 71.3892L67.9733 71.8778ZM68.1827 72.3398L67.4749 72.4083L67.5008 72.6762L68.2086 72.6078L68.9164 72.5394L68.8905 72.2714L68.1827 72.3398ZM68.2086 72.6078L67.5008 72.6762L67.5267 72.9442L68.2345 72.8758L68.9423 72.8074L68.9164 72.5394L68.2086 72.6078ZM68.2345 72.8758L67.5267 72.9442C67.5321 72.9998 67.5236 73.0372 67.507 73.0719L68.149 73.3777L68.791 73.6835C68.923 73.4064 68.9715 73.1092 68.9423 72.8074L68.2345 72.8758ZM68.149 73.3777L67.507 73.0719L67.3956 73.3058L68.0376 73.6116L68.6796 73.9174L68.791 73.6835L68.149 73.3777ZM68.0376 73.6116L67.3956 73.3058L67.2842 73.5397L67.9262 73.8455L68.5682 74.1513L68.6796 73.9174L68.0376 73.6116ZM67.9262 73.8455L67.2842 73.5397C67.2404 73.6316 67.1912 73.7003 67.1398 73.7531L67.649 74.2494L68.1582 74.7458C68.3279 74.5717 68.4635 74.3712 68.5682 74.1513L67.9262 73.8455ZM67.649 74.2494L67.1398 73.7531L66.974 73.9232L67.4832 74.4195L67.9924 74.9159L68.1582 74.7458L67.649 74.2494ZM67.4832 74.4195L66.974 73.9232L66.8082 74.0933L67.3174 74.5896L67.8266 75.086L67.9924 74.9159L67.4832 74.4195ZM67.3174 74.5896L66.8082 74.0933C66.6811 74.2237 66.5565 74.3647 66.4342 74.5155L66.9867 74.9632L67.5392 75.411C67.6368 75.2905 67.7327 75.1824 67.8266 75.086L67.3174 74.5896ZM66.9867 74.9632L66.4342 74.5155L66.2693 74.719L66.8218 75.1667L67.3743 75.6145L67.5392 75.411L66.9867 74.9632ZM66.8218 75.1667L66.2693 74.719L66.1044 74.9225L66.6569 75.3702L67.2094 75.8179L67.3743 75.6145L66.8218 75.1667ZM66.6569 75.3702L66.1044 74.9225C66.1022 74.9252 66.102 74.9251 66.104 74.9234C66.106 74.9216 66.1092 74.9192 66.1132 74.9169C66.1172 74.9146 66.1204 74.9133 66.1221 74.9127C66.1238 74.9121 66.1226 74.9127 66.1176 74.9135L66.2301 75.6157L66.3427 76.3178C66.6878 76.2625 66.9876 76.0916 67.2094 75.8179L66.6569 75.3702ZM66.2301 75.6157L66.1176 74.9135L65.8558 74.9555L65.9683 75.6576L66.0808 76.3598L66.3427 76.3178L66.2301 75.6157ZM65.9683 75.6576L65.8558 74.9555L65.594 74.9974L65.7065 75.6996L65.819 76.4017L66.0808 76.3598L65.9683 75.6576ZM65.7065 75.6996L65.594 74.9974C65.547 75.005 65.4928 75.0026 65.4204 74.9763L65.178 75.6448L64.9355 76.3133C65.2187 76.416 65.5169 76.4502 65.819 76.4017L65.7065 75.6996ZM65.178 75.6448L65.4204 74.9763L65.1538 74.8796L64.9113 75.5481L64.6689 76.2166L64.9355 76.3133L65.178 75.6448ZM64.9113 75.5481L65.1538 74.8796L64.8871 74.7829L64.6446 75.4514L64.4022 76.1199L64.6689 76.2166L64.9113 75.5481ZM64.6446 75.4514L64.8871 74.7829C64.4439 74.6222 64.019 74.7355 63.6875 74.9816L64.1113 75.5526L64.5351 76.1236C64.5567 76.1076 64.548 76.1199 64.5105 76.127C64.492 76.1305 64.4713 76.1318 64.45 76.1299C64.429 76.1281 64.4127 76.1237 64.4022 76.1199L64.6446 75.4514ZM64.1113 75.5526L63.6875 74.9816L63.4208 75.1795L63.8446 75.7505L64.2684 76.3215L64.5351 76.1236L64.1113 75.5526ZM63.8446 75.7505L63.4208 75.1795L63.1542 75.3774L63.578 75.9484L64.0018 76.5194L64.2684 76.3215L63.8446 75.7505ZM63.578 75.9484L63.1542 75.3774C63.1281 75.3968 63.1278 75.3903 63.1526 75.3846C63.1649 75.3818 63.18 75.38 63.1966 75.3805C63.213 75.3809 63.2267 75.3835 63.2363 75.3862L63.043 76.0706L62.8497 76.7549C63.2824 76.8771 63.6849 76.7546 64.0018 76.5194L63.578 75.9484ZM63.043 76.0706L63.2363 75.3862L62.968 75.3104L62.7747 75.9948L62.5814 76.6791L62.8497 76.7549L63.043 76.0706ZM62.7747 75.9948L62.968 75.3104L62.6996 75.2346L62.5063 75.919L62.3131 76.6033L62.5814 76.6791L62.7747 75.9948ZM62.5063 75.919L62.6996 75.2346C62.5317 75.1872 62.3671 75.1364 62.2056 75.0821L61.979 75.7561L61.7524 76.4302C61.9363 76.492 62.1232 76.5497 62.3131 76.6033L62.5063 75.919ZM61.979 75.7561L62.2056 75.0821L61.9466 74.995L61.72 75.669L61.4934 76.3431L61.7524 76.4302L61.979 75.7561ZM61.72 75.669L61.9466 74.995L61.6876 74.9079L61.461 75.5819L61.2344 76.256L61.4934 76.3431L61.72 75.669ZM61.461 75.5819L61.6876 74.9079C61.5217 74.8521 61.3472 74.7907 61.1641 74.7234L60.919 75.391L60.6739 76.0585C60.868 76.1298 61.0549 76.1956 61.2344 76.256L61.461 75.5819ZM60.919 75.391L61.1641 74.7234L60.8812 74.6195L60.6361 75.2871L60.3909 75.9546L60.6739 76.0585L60.919 75.391ZM60.6361 75.2871L60.8812 74.6195L60.5983 74.5156L60.3531 75.1831L60.108 75.8507L60.3909 75.9546L60.6361 75.2871ZM60.3531 75.1831L60.5983 74.5156C60.6081 74.5192 60.6531 74.5396 60.6952 74.5941C60.7369 74.6479 60.7438 74.694 60.7443 74.6985L60.0373 74.7748L59.3303 74.8511C59.3527 75.0586 59.4233 75.2742 59.5702 75.4641C59.7176 75.6547 59.9096 75.7778 60.108 75.8507L60.3531 75.1831ZM60.0373 74.7748L60.7443 74.6985L60.7115 74.3941L60.0045 74.4704L59.2975 74.5467L59.3303 74.8511L60.0373 74.7748ZM60.0045 74.4704L60.7115 74.3941L60.6786 74.0897L59.9716 74.166L59.2646 74.2423L59.2975 74.5467L60.0045 74.4704ZM59.9716 74.166L60.6786 74.0897C60.6539 73.8602 60.617 73.6414 60.5666 73.4347L59.8758 73.6032L59.1849 73.7717C59.2185 73.9095 59.2456 74.0658 59.2646 74.2423L59.9716 74.166ZM59.8758 73.6032L60.5666 73.4347L60.5036 73.1763L59.8127 73.3449L59.1219 73.5134L59.1849 73.7717L59.8758 73.6032ZM59.8127 73.3449L60.5036 73.1763L60.4405 72.918L59.7497 73.0865L59.0588 73.255L59.1219 73.5134L59.8127 73.3449ZM59.7497 73.0865L60.4405 72.918C60.4398 72.915 60.4403 72.9159 60.4405 72.9201C60.4408 72.9245 60.4406 72.9306 60.4396 72.9377C60.4386 72.9449 60.4369 72.9509 60.4354 72.9551C60.4339 72.9593 60.4331 72.9603 60.4345 72.9578L59.8205 72.5991L59.2065 72.2403C59.0241 72.5526 58.9733 72.9042 59.0588 73.255L59.7497 73.0865ZM59.8205 72.5991L60.4345 72.9578L60.5684 72.7288L59.9544 72.37L59.3404 72.0112L59.2065 72.2403L59.8205 72.5991ZM59.9544 72.37L60.5684 72.7288L60.7022 72.4997L60.0882 72.1409L59.4743 71.7822L59.3404 72.0112L59.9544 72.37ZM60.0882 72.1409L60.7022 72.4997C60.7613 72.3985 60.8238 72.3205 60.8873 72.2599L60.3963 71.7456L59.9053 71.2312C59.7365 71.3923 59.5936 71.5779 59.4743 71.7822L60.0882 72.1409ZM60.3963 71.7456L60.8873 72.2599L61.0615 72.0937L60.5705 71.5793L60.0794 71.0649L59.9053 71.2312L60.3963 71.7456ZM60.5705 71.5793L61.0615 72.0937L61.2357 71.9274L60.7446 71.413L60.2536 70.8986L60.0794 71.0649L60.5705 71.5793ZM60.7446 71.413L61.2357 71.9274C61.307 71.8593 61.3819 71.8052 61.4609 71.7628L61.1244 71.1363L60.788 70.5098C60.5928 70.6146 60.4145 70.745 60.2536 70.8986L60.7446 71.413ZM61.1244 71.1363L61.4609 71.7628L61.6665 71.6524L61.33 71.0259L60.9936 70.3994L60.788 70.5098L61.1244 71.1363ZM61.33 71.0259L61.6665 71.6524L61.8721 71.542L61.5357 70.9155L61.1992 70.289L60.9936 70.3994L61.33 71.0259ZM61.5357 70.9155L61.8721 71.542C62.001 71.4727 62.113 71.4161 62.2088 71.371L61.906 70.7276L61.6031 70.0842C61.4794 70.1424 61.3444 70.211 61.1992 70.289L61.5357 70.9155ZM61.906 70.7276L62.2088 71.371L62.3735 71.2934L62.0707 70.65L61.7678 70.0066L61.6031 70.0842L61.906 70.7276ZM62.0707 70.65L62.3735 71.2934L62.5382 71.2159L62.2354 70.5725L61.9325 69.9291L61.7678 70.0066L62.0707 70.65ZM62.2354 70.5725L62.5382 71.2159C62.6001 71.1868 62.6699 71.152 62.7317 71.1139C62.7597 71.0967 62.8127 71.0627 62.8672 71.0134C62.8941 70.989 62.9419 70.9427 62.9875 70.8749C63.0283 70.8142 63.1112 70.6721 63.1112 70.4711H62.4001H61.689C61.689 70.2741 61.7701 70.1366 61.8075 70.081C61.8497 70.0182 61.8923 69.9776 61.9123 69.9594C61.9531 69.9225 61.9855 69.9032 61.986 69.9029C61.993 69.8986 61.9804 69.9066 61.9325 69.9291L62.2354 70.5725ZM62.4001 70.4711H63.1112V70.4472H62.4001H61.689V70.4711H62.4001ZM62.4001 70.4472H63.1112V70.4233H62.4001H61.689V70.4472H62.4001ZM62.4001 70.4233H63.1112C63.1112 70.5923 63.0517 70.722 63.0018 70.8008C62.953 70.8777 62.8999 70.9283 62.8683 70.9556C62.8069 71.0084 62.7519 71.0364 62.7361 71.0443C62.698 71.0635 62.6735 71.0703 62.6856 71.0664C62.7011 71.0614 62.7446 71.0491 62.8287 71.0295L62.6667 70.337L62.5048 69.6446C62.4111 69.6665 62.3212 69.6895 62.2478 69.7132C62.2155 69.7237 62.1577 69.7433 62.0973 69.7736C62.0704 69.7871 62.0071 69.8203 61.9402 69.8779C61.9025 69.9104 61.689 70.0947 61.689 70.4233H62.4001ZM62.6667 70.337L62.8287 71.0295L63.0954 70.9671L62.9334 70.2747L62.7714 69.5822L62.5048 69.6446L62.6667 70.337Z" fill="#FF984F"/>
</svg>
