<svg width="128" height="128" viewBox="0 0 128 128" fill="none" xmlns="http://www.w3.org/2000/svg">
<path d="M64.0006 61.8662L68.2672 76.0884H59.7339L64.0006 61.8662Z" fill="#FF984F"/>
<path d="M64.2088 62.639L64.8954 62.4539L64.2088 62.639ZM64.4112 63.1351L63.7901 63.4813L64.4112 63.1351ZM64.6771 63.6121L65.2983 63.2658L64.6771 63.6121ZM64.7497 64.1471L65.4465 64.2891L64.7497 64.1471ZM64.6289 64.7402L63.9321 64.5982L64.6289 64.7402ZM64.7016 65.2752L65.3225 64.9284L64.7016 65.2752ZM64.8348 65.5136L64.214 65.8604L64.8348 65.5136ZM64.968 65.7521L64.3472 66.0989L64.968 65.7521ZM65.2753 66.2167L64.7117 66.6504L65.2753 66.2167ZM65.6234 66.6691L66.187 66.2354L65.6234 66.6691ZM65.5633 67.8008L64.8749 67.6228L65.5633 67.8008ZM65.7065 68.3146L66.1986 67.8012L65.7065 68.3146ZM66.2999 69.2502L66.9922 69.4127L66.2999 69.2502ZM66.1594 69.8492L65.4671 69.6867L66.1594 69.8492ZM66.3119 70.3603L66.8015 69.8446L66.3119 70.3603ZM66.7576 70.7834L66.2679 71.2991L66.7576 70.7834ZM66.9203 71.2914L67.6173 71.4326L66.9203 71.2914ZM66.8002 71.8842L66.1033 71.743L66.8002 71.8842ZM66.8654 72.4215L67.4963 72.0933L66.8654 72.4215ZM67.1159 72.9031L66.4851 73.2313L67.1159 72.9031ZM67.3154 73.4001L67.9984 73.2024L67.3154 73.4001ZM67.4637 73.9125L66.7806 74.1102L67.4637 73.9125ZM67.6992 74.3986L67.1172 74.8072L67.6992 74.3986ZM67.8607 74.6286L67.2787 75.0371L67.8607 74.6286ZM68.0221 74.8586L68.6041 74.45L68.0221 74.8586ZM68.1832 75.3428L67.4721 75.3419L68.1832 75.3428ZM68.1826 75.8513L68.8937 75.8522L68.1826 75.8513ZM67.9157 76.0237L67.7069 76.7035L67.9157 76.0237ZM67.3823 75.8599L67.5911 75.1801L67.3823 75.8599ZM66.849 75.9078L67.1601 76.5472L66.849 75.9078ZM66.3157 76.1672L66.0046 75.5278L66.3157 76.1672ZM65.7823 76.2891L65.7615 76.9999L65.7823 76.2891ZM65.249 76.2735L65.2281 76.9843L65.249 76.2735ZM64.7157 76.2069L64.8688 75.5124L64.7157 76.2069ZM64.1823 76.0893L64.0292 76.7837L64.1823 76.0893ZM63.649 76.1375L63.9139 76.7974L63.649 76.1375ZM63.3823 76.2446L63.6472 76.9045L63.3823 76.2446ZM63.1157 76.3516L62.8507 75.6917L63.1157 76.3516ZM62.5823 76.3299L62.2732 76.9703L62.5823 76.3299ZM62.3157 76.2012L62.6248 75.5608L62.3157 76.2012ZM62.049 76.0725L62.3581 75.4321L62.049 76.0725ZM60.5484 75.7867L60.9194 76.3934L60.5484 75.7867ZM60.2138 75.9913L59.8428 75.3846L60.2138 75.9913ZM59.9819 75.7958L59.287 75.9466L59.9819 75.7958ZM60.3379 73.6753L59.682 73.4005L60.3379 73.6753ZM60.5451 73.1807L61.201 73.4555L60.5451 73.1807ZM60.7991 72.7L60.2013 72.3148L60.7991 72.7ZM61.0998 72.2334L61.6975 72.6186L61.0998 72.2334ZM61.1812 71.701L60.4882 71.8607L61.1812 71.701ZM61.0434 71.1029L61.7363 70.9432L61.0434 71.1029ZM61.2164 70.598L61.6771 71.1396L61.2164 70.598ZM61.7003 70.1863L61.2395 69.6447L61.7003 70.1863ZM61.8418 69.672L61.1656 69.8921L61.8418 69.672ZM61.7414 69.3634L62.4176 69.1433L61.7414 69.3634ZM61.6409 69.0549L60.9647 69.275L61.6409 69.0549ZM61.6136 68.4899L60.9297 68.2949L61.6136 68.4899ZM61.6867 68.2334L61.0028 68.0385L61.6867 68.2334ZM61.7598 67.9769L62.4437 68.1719L61.7598 67.9769ZM62.0419 67.5047L61.531 67.01L62.0419 67.5047ZM62.2508 67.289L62.7616 67.7837L62.2508 67.289ZM62.4597 67.0733L61.9489 66.5785L62.4597 67.0733ZM62.6431 66.5715L63.3514 66.5083L62.6431 66.5715ZM62.6176 66.2854L61.9093 66.3486L62.6176 66.2854ZM62.5921 65.9993L61.8838 66.0625V66.0625L62.5921 65.9993ZM62.6167 65.4499L63.3153 65.5829L62.6167 65.4499ZM62.6669 65.1865L61.9683 65.0536L62.6669 65.1865ZM62.717 64.9232L62.0184 64.7902L62.717 64.9232ZM63.0044 64.1742L62.3654 63.862L63.0044 64.1742ZM63.2936 63.4257L63.9912 63.5638L63.2936 63.4257ZM63.3457 63.1629L62.6481 63.0248L63.3457 63.1629ZM63.3977 62.9001L62.7001 62.762L63.3977 62.9001ZM63.5478 62.4326L62.9064 62.1254L63.5478 62.4326ZM63.7438 62.0233L64.3852 62.3305L63.7438 62.0233ZM63.8816 61.8305L63.6772 62.5116L63.8816 61.8305ZM63.9609 61.8543L64.1652 61.1732L63.9609 61.8543ZM64.07 62.1238L64.7566 61.9387L64.07 62.1238ZM64.1394 62.3814L63.4528 62.5664L63.5222 62.824L64.2088 62.639L64.8954 62.4539L64.826 62.1963L64.1394 62.3814ZM64.2088 62.639L63.5222 62.824C63.584 63.0533 63.6738 63.2727 63.7901 63.4813L64.4112 63.1351L65.0323 62.7888C64.9714 62.6794 64.9262 62.5681 64.8954 62.4539L64.2088 62.639ZM64.4112 63.1351L63.7901 63.4813L63.9231 63.7198L64.5442 63.3736L65.1653 63.0273L65.0323 62.7888L64.4112 63.1351ZM64.5442 63.3736L63.9231 63.7198L64.056 63.9584L64.6771 63.6121L65.2983 63.2658L65.1653 63.0273L64.5442 63.3736ZM64.6771 63.6121L64.056 63.9584C64.0572 63.9605 64.0574 63.9611 64.0572 63.9605C64.0569 63.9599 64.057 63.9597 64.0571 63.9607C64.0573 63.9618 64.059 63.9751 64.0529 64.0052L64.7497 64.1471L65.4465 64.2891C65.5168 63.9442 65.4788 63.5897 65.2983 63.2658L64.6771 63.6121ZM64.7497 64.1471L64.0529 64.0052L63.9925 64.3017L64.6893 64.4437L65.3861 64.5856L65.4465 64.2891L64.7497 64.1471ZM64.6893 64.4437L63.9925 64.3017L63.9321 64.5982L64.6289 64.7402L65.3257 64.8822L65.3861 64.5856L64.6893 64.4437ZM64.6289 64.7402L63.9321 64.5982C63.8618 64.9434 63.8999 65.2981 64.0808 65.622L64.7016 65.2752L65.3225 64.9284C65.3213 64.9263 65.3212 64.9257 65.3214 64.9263C65.3216 64.927 65.3216 64.9272 65.3215 64.9264C65.3213 64.9253 65.3196 64.9121 65.3257 64.8822L64.6289 64.7402ZM64.7016 65.2752L64.0808 65.622L64.214 65.8604L64.8348 65.5136L65.4557 65.1669L65.3225 64.9284L64.7016 65.2752ZM64.8348 65.5136L64.214 65.8604L64.3472 66.0989L64.968 65.7521L65.5889 65.4053L65.4557 65.1669L64.8348 65.5136ZM64.968 65.7521L64.3472 66.0989C64.4537 66.2895 64.5754 66.4733 64.7117 66.6504L65.2753 66.2167L65.8388 65.7831C65.743 65.6586 65.66 65.5326 65.5889 65.4053L64.968 65.7521ZM65.2753 66.2167L64.7117 66.6504L64.8858 66.8766L65.4493 66.4429L66.0129 66.0093L65.8388 65.7831L65.2753 66.2167ZM65.4493 66.4429L64.8858 66.8766L65.0598 67.1028L65.6234 66.6691L66.187 66.2354L66.0129 66.0093L65.4493 66.4429ZM65.6234 66.6691L65.0598 67.1028C65.0575 67.0998 65.0523 67.0923 65.0469 67.0804C65.0414 67.0683 65.0372 67.0549 65.0348 67.0414C65.0296 67.013 65.0353 67.0022 65.0309 67.0191L65.7194 67.1971L66.4079 67.3751C66.509 66.9842 66.4502 66.5776 66.187 66.2354L65.6234 66.6691ZM65.7194 67.1971L65.0309 67.0191L64.9529 67.3209L65.6414 67.4989L66.3298 67.677L66.4079 67.3751L65.7194 67.1971ZM65.6414 67.4989L64.9529 67.3209L64.8749 67.6228L65.5633 67.8008L66.2518 67.9788L66.3298 67.677L65.6414 67.4989ZM65.5633 67.8008L64.8749 67.6228C64.8229 67.8239 64.8124 68.0459 64.8751 68.271C64.938 68.4969 65.0626 68.6824 65.2145 68.828L65.7065 68.3146L66.1986 67.8012C66.203 67.8054 66.2299 67.8347 66.2451 67.8892C66.2601 67.9431 66.2518 67.9789 66.2518 67.9788L65.5633 67.8008ZM65.7065 68.3146L65.2145 68.828L65.4357 69.0401L65.9278 68.5267L66.4198 68.0133L66.1986 67.8012L65.7065 68.3146ZM65.9278 68.5267L65.4357 69.0401L65.657 69.2521L66.149 68.7387L66.6411 68.2253L66.4198 68.0133L65.9278 68.5267ZM66.149 68.7387L65.657 69.2521C65.6548 69.25 65.6302 69.2242 65.6153 69.1738C65.6085 69.1507 65.606 69.1295 65.6058 69.1126C65.6056 69.0962 65.6077 69.0873 65.6077 69.0877L66.2999 69.2502L66.9922 69.4127C67.0963 68.9694 66.971 68.5415 66.6411 68.2253L66.149 68.7387ZM66.2999 69.2502L65.6077 69.0877L65.5374 69.3872L66.2297 69.5497L66.9219 69.7122L66.9922 69.4127L66.2999 69.2502ZM66.2297 69.5497L65.5374 69.3872L65.4671 69.6867L66.1594 69.8492L66.8516 70.0117L66.9219 69.7122L66.2297 69.5497ZM66.1594 69.8492L65.4671 69.6867C65.3625 70.132 65.4902 70.5607 65.8223 70.876L66.3119 70.3603L66.8015 69.8446C66.8034 69.8464 66.8285 69.8723 66.8437 69.9234C66.8508 69.9469 66.8534 69.9685 66.8536 69.9858C66.8538 70.0026 66.8516 70.0118 66.8516 70.0117L66.1594 69.8492ZM66.3119 70.3603L65.8223 70.876L66.0451 71.0876L66.5347 70.5718L67.0243 70.0561L66.8015 69.8446L66.3119 70.3603ZM66.5347 70.5718L66.0451 71.0876L66.2679 71.2991L66.7576 70.7834L67.2472 70.2677L67.0243 70.0561L66.5347 70.5718ZM66.7576 70.7834L66.2679 71.2991C66.2689 71.3 66.247 71.2785 66.2325 71.2332C66.2178 71.1873 66.2226 71.1543 66.2234 71.1502L66.9203 71.2914L67.6173 71.4326C67.7069 70.9903 67.5699 70.5741 67.2472 70.2677L66.7576 70.7834ZM66.9203 71.2914L66.2234 71.1502L66.1633 71.4466L66.8603 71.5878L67.5572 71.729L67.6173 71.4326L66.9203 71.2914ZM66.8603 71.5878L66.1633 71.4466L66.1033 71.743L66.8002 71.8842L67.4972 72.0254L67.5572 71.729L66.8603 71.5878ZM66.8002 71.8842L66.1033 71.743C66.0348 72.0807 66.0674 72.4282 66.2345 72.7496L66.8654 72.4215L67.4963 72.0933C67.4938 72.0885 67.493 72.0857 67.4924 72.0811C67.4917 72.0755 67.4905 72.0583 67.4972 72.0254L66.8002 71.8842ZM66.8654 72.4215L66.2345 72.7496L66.3598 72.9905L66.9907 72.6623L67.6216 72.3342L67.4963 72.0933L66.8654 72.4215ZM66.9907 72.6623L66.3598 72.9905L66.4851 73.2313L67.1159 72.9031L67.7468 72.575L67.6216 72.3342L66.9907 72.6623ZM67.1159 72.9031L66.4851 73.2313C66.5473 73.3509 66.5961 73.473 66.6323 73.5979L67.3154 73.4001L67.9984 73.2024C67.9357 72.9857 67.8516 72.7764 67.7468 72.575L67.1159 72.9031ZM67.3154 73.4001L66.6323 73.5979L66.7064 73.854L67.3895 73.6563L68.0726 73.4586L67.9984 73.2024L67.3154 73.4001ZM67.3895 73.6563L66.7064 73.854L66.7806 74.1102L67.4637 73.9125L68.1467 73.7147L68.0726 73.4586L67.3895 73.6563ZM67.4637 73.9125L66.7806 74.1102C66.853 74.3603 66.967 74.5931 67.1172 74.8072L67.6992 74.3986L68.2813 73.99C68.2163 73.8975 68.1732 73.8062 68.1467 73.7147L67.4637 73.9125ZM67.6992 74.3986L67.1172 74.8072L67.2787 75.0371L67.8607 74.6286L68.4427 74.22L68.2813 73.99L67.6992 74.3986ZM67.8607 74.6286L67.2787 75.0371L67.4401 75.2671L68.0221 74.8586L68.6041 74.45L68.4427 74.22L67.8607 74.6286ZM68.0221 74.8586L67.4401 75.2671C67.4728 75.3137 67.4721 75.3343 67.4721 75.3419L68.1832 75.3428L68.8944 75.3437C68.8948 75.0123 68.7867 74.7101 68.6041 74.45L68.0221 74.8586ZM68.1832 75.3428L67.4721 75.3419L67.4718 75.5962L68.1829 75.5971L68.894 75.5979L68.8944 75.3437L68.1832 75.3428ZM68.1829 75.5971L67.4718 75.5962L67.4715 75.8505L68.1826 75.8513L68.8937 75.8522L68.894 75.5979L68.1829 75.5971ZM68.1826 75.8513L67.4715 75.8505C67.4715 75.844 67.4719 75.5908 67.73 75.4242C67.8464 75.349 67.9584 75.3333 68.0247 75.3326C68.0872 75.3319 68.1242 75.3439 68.1244 75.3439L67.9157 76.0237L67.7069 76.7035C67.8525 76.7482 68.1846 76.8236 68.5014 76.619C68.8485 76.3949 68.8935 76.0282 68.8937 75.8522L68.1826 75.8513ZM67.9157 76.0237L68.1244 75.3439L67.8578 75.262L67.649 75.9418L67.4402 76.6216L67.7069 76.7035L67.9157 76.0237ZM67.649 75.9418L67.8578 75.262L67.5911 75.1801L67.3823 75.8599L67.1736 76.5397L67.4402 76.6216L67.649 75.9418ZM67.3823 75.8599L67.5911 75.1801C67.2296 75.0691 66.8664 75.1085 66.5379 75.2683L66.849 75.9078L67.1601 76.5472C67.1703 76.5423 67.1766 76.5402 67.1792 76.5394C67.1817 76.5387 67.1815 76.539 67.1792 76.5392C67.1768 76.5394 67.1742 76.5394 67.1721 76.5391C67.1701 76.5389 67.1704 76.5387 67.1736 76.5397L67.3823 75.8599ZM66.849 75.9078L66.5379 75.2683L66.2712 75.398L66.5823 76.0375L66.8934 76.6769L67.1601 76.5472L66.849 75.9078ZM66.5823 76.0375L66.2712 75.398L66.0046 75.5278L66.3157 76.1672L66.6267 76.8067L66.8934 76.6769L66.5823 76.0375ZM66.3157 76.1672L66.0046 75.5278C65.9183 75.5697 65.8538 75.5798 65.8032 75.5783L65.7823 76.2891L65.7615 76.9999C66.0664 77.0089 66.3574 76.9377 66.6267 76.8067L66.3157 76.1672ZM65.7823 76.2891L65.8032 75.5783L65.5365 75.5705L65.5157 76.2813L65.4948 76.9921L65.7615 76.9999L65.7823 76.2891ZM65.5157 76.2813L65.5365 75.5705L65.2698 75.5627L65.249 76.2735L65.2281 76.9843L65.4948 76.9921L65.5157 76.2813ZM65.249 76.2735L65.2698 75.5627C65.1376 75.5588 65.0041 75.5423 64.8688 75.5124L64.7157 76.2069L64.5625 76.9013C64.7828 76.9498 65.0048 76.9777 65.2281 76.9843L65.249 76.2735ZM64.7157 76.2069L64.8688 75.5124L64.6021 75.4536L64.449 76.1481L64.2959 76.8425L64.5625 76.9013L64.7157 76.2069ZM64.449 76.1481L64.6021 75.4536L64.3354 75.3948L64.1823 76.0893L64.0292 76.7837L64.2959 76.8425L64.449 76.1481ZM64.1823 76.0893L64.3354 75.3948C64.0105 75.3232 63.6872 75.3559 63.3841 75.4776L63.649 76.1375L63.9139 76.7974C63.9663 76.7764 63.9986 76.7769 64.0292 76.7837L64.1823 76.0893ZM63.649 76.1375L63.3841 75.4776L63.1174 75.5846L63.3823 76.2446L63.6472 76.9045L63.9139 76.7974L63.649 76.1375ZM63.3823 76.2446L63.1174 75.5846L62.8507 75.6917L63.1157 76.3516L63.3806 77.0115L63.6472 76.9045L63.3823 76.2446ZM63.1157 76.3516L62.8507 75.6917C62.8484 75.6926 62.8503 75.6916 62.8561 75.6906C62.862 75.6895 62.8696 75.6889 62.8779 75.6892C62.8861 75.6895 62.8923 75.6907 62.8957 75.6916C62.8989 75.6925 62.8976 75.6925 62.8915 75.6895L62.5823 76.3299L62.2732 76.9703C62.6248 77.1401 63.0109 77.16 63.3806 77.0115L63.1157 76.3516ZM62.5823 76.3299L62.8915 75.6895L62.6248 75.5608L62.3157 76.2012L62.0065 76.8416L62.2732 76.9703L62.5823 76.3299ZM62.3157 76.2012L62.6248 75.5608L62.3581 75.4321L62.049 76.0725L61.7398 76.7128L62.0065 76.8416L62.3157 76.2012ZM62.049 76.0725L62.3581 75.4321C62.1387 75.3261 61.9138 75.2439 61.6836 75.1879L61.5157 75.8789L61.3477 76.5699C61.4731 76.6004 61.6037 76.6471 61.7398 76.7128L62.049 76.0725ZM61.5157 75.8789L61.6836 75.1879L61.417 75.1231L61.249 75.8141L61.081 76.5051L61.3477 76.5699L61.5157 75.8789ZM61.249 75.8141L61.417 75.1231L61.1503 75.0583L60.9823 75.7492L60.8143 76.4402L61.081 76.5051L61.249 75.8141ZM60.9823 75.7492L61.1503 75.0583C60.8634 74.9885 60.5056 74.9793 60.1774 75.18L60.5484 75.7867L60.9194 76.3934C60.8711 76.4229 60.8268 76.4325 60.8017 76.4347C60.7802 76.4365 60.7818 76.4323 60.8143 76.4402L60.9823 75.7492ZM60.5484 75.7867L60.1774 75.18L60.0101 75.2823L60.3811 75.889L60.7521 76.4957L60.9194 76.3934L60.5484 75.7867ZM60.3811 75.889L60.0101 75.2823L59.8428 75.3846L60.2138 75.9913L60.5848 76.598L60.7521 76.4957L60.3811 75.889ZM60.2138 75.9913L59.8428 75.3846C59.8835 75.3597 59.9821 75.3087 60.1252 75.3064C60.286 75.3038 60.4287 75.364 60.5305 75.4499C60.6187 75.5242 60.6564 75.6001 60.6675 75.6243C60.6801 75.652 60.6808 75.663 60.6768 75.6449L59.9819 75.7958L59.287 75.9466C59.3137 76.0697 59.3827 76.3424 59.6139 76.5373C59.7544 76.6557 59.94 76.7318 60.148 76.7285C60.3383 76.7254 60.4884 76.6569 60.5848 76.598L60.2138 75.9913ZM59.9819 75.7958L60.6768 75.6449L60.6122 75.3471L59.9173 75.498L59.2223 75.6488L59.287 75.9466L59.9819 75.7958ZM59.9173 75.498L60.6122 75.3471L60.5475 75.0493L59.8526 75.2002L59.1577 75.351L59.2223 75.6488L59.9173 75.498ZM59.8526 75.2002L60.5475 75.0493C60.5325 74.9799 60.5441 74.9579 60.5467 74.9522L59.8995 74.6575L59.2524 74.3627C59.1062 74.6836 59.0866 75.0234 59.1577 75.351L59.8526 75.2002ZM59.8995 74.6575L60.5467 74.9522L60.6583 74.7073L60.0111 74.4125L59.364 74.1178L59.2524 74.3627L59.8995 74.6575ZM60.0111 74.4125L60.6583 74.7073L60.7698 74.4623L60.1227 74.1676L59.4755 73.8728L59.364 74.1178L60.0111 74.4125ZM60.1227 74.1676L60.7698 74.4623C60.8472 74.2925 60.9218 74.1217 60.9937 73.9501L60.3379 73.6753L59.682 73.4005C59.6157 73.5587 59.5469 73.7161 59.4755 73.8728L60.1227 74.1676ZM60.3379 73.6753L60.9937 73.9501L61.0974 73.7028L60.4415 73.428L59.7856 73.1532L59.682 73.4005L60.3379 73.6753ZM60.4415 73.428L61.0974 73.7028L61.201 73.4555L60.5451 73.1807L59.8892 72.9059L59.7856 73.1532L60.4415 73.428ZM60.5451 73.1807L61.201 73.4555C61.2534 73.3303 61.3184 73.207 61.3968 73.0852L60.7991 72.7L60.2013 72.3148C60.0793 72.5042 59.975 72.7012 59.8892 72.9059L60.5451 73.1807ZM60.7991 72.7L61.3968 73.0852L61.5472 72.8519L60.9494 72.4667L60.3517 72.0815L60.2013 72.3148L60.7991 72.7ZM60.9494 72.4667L61.5472 72.8519L61.6975 72.6186L61.0998 72.2334L60.502 71.8482L60.3517 72.0815L60.9494 72.4667ZM61.0998 72.2334L61.6975 72.6186C61.9132 72.2839 61.9582 71.906 61.8741 71.5414L61.1812 71.701L60.4882 71.8607C60.4911 71.8731 60.4916 71.88 60.4917 71.8819C60.4918 71.8837 60.4916 71.8814 60.4924 71.8762C60.4932 71.8708 60.4947 71.8647 60.4971 71.8586C60.4993 71.8526 60.5015 71.8491 60.502 71.8482L61.0998 72.2334ZM61.1812 71.701L61.8741 71.5414L61.8052 71.2423L61.1123 71.402L60.4193 71.5616L60.4882 71.8607L61.1812 71.701ZM61.1123 71.402L61.8052 71.2423L61.7363 70.9432L61.0434 71.1029L60.3504 71.2626L60.4193 71.5616L61.1123 71.402ZM61.0434 71.1029L61.7363 70.9432C61.7386 70.9531 61.7452 70.9982 61.7249 71.0576C61.705 71.1156 61.6752 71.1413 61.6771 71.1396L61.2164 70.598L60.7556 70.0563C60.5963 70.1919 60.457 70.3704 60.3794 70.5966C60.3014 70.8243 60.3022 71.0533 60.3504 71.2626L61.0434 71.1029ZM61.2164 70.598L61.6771 71.1396L61.9191 70.9338L61.4583 70.3921L60.9976 69.8505L60.7556 70.0563L61.2164 70.598ZM61.4583 70.3921L61.9191 70.9338L62.161 70.728L61.7003 70.1863L61.2395 69.6447L60.9976 69.8505L61.4583 70.3921ZM61.7003 70.1863L62.161 70.728C62.3292 70.5849 62.4741 70.3913 62.5423 70.1435C62.6101 69.8969 62.5851 69.6582 62.518 69.4518L61.8418 69.672L61.1656 69.8921C61.1658 69.8927 61.1617 69.8804 61.1605 69.8571C61.1592 69.8328 61.1614 69.8013 61.171 69.7662C61.192 69.6898 61.2326 69.6505 61.2395 69.6447L61.7003 70.1863ZM61.8418 69.672L62.518 69.4518L62.4176 69.1433L61.7414 69.3634L61.0652 69.5835L61.1656 69.8921L61.8418 69.672ZM61.7414 69.3634L62.4176 69.1433L62.3171 68.8348L61.6409 69.0549L60.9647 69.275L61.0652 69.5835L61.7414 69.3634ZM61.6409 69.0549L62.3171 68.8348C62.2843 68.7341 62.2952 68.6927 62.2975 68.6848L61.6136 68.4899L60.9297 68.2949C60.8345 68.629 60.8636 68.9643 60.9647 69.275L61.6409 69.0549ZM61.6136 68.4899L62.2975 68.6848L62.3706 68.4283L61.6867 68.2334L61.0028 68.0385L60.9297 68.2949L61.6136 68.4899ZM61.6867 68.2334L62.3706 68.4283L62.4437 68.1719L61.7598 67.9769L61.0759 67.782L61.0028 68.0385L61.6867 68.2334ZM61.7598 67.9769L62.4437 68.1719C62.4564 68.1271 62.4845 68.0699 62.5527 67.9994L62.0419 67.5047L61.531 67.01C61.3207 67.2272 61.1607 67.4848 61.0759 67.782L61.7598 67.9769ZM62.0419 67.5047L62.5527 67.9994L62.7616 67.7837L62.2508 67.289L61.74 66.7943L61.531 67.01L62.0419 67.5047ZM62.2508 67.289L62.7616 67.7837L62.9705 67.568L62.4597 67.0733L61.9489 66.5785L61.74 66.7943L62.2508 67.289ZM62.4597 67.0733L62.9705 67.568C63.2461 67.2835 63.3877 66.9153 63.3514 66.5083L62.6431 66.5715L61.9348 66.6346C61.9349 66.6354 61.9345 66.6311 61.9355 66.6231C61.9365 66.6149 61.9386 66.6054 61.9422 66.5958C61.9498 66.5748 61.9578 66.5693 61.9489 66.5785L62.4597 67.0733ZM62.6431 66.5715L63.3514 66.5083L63.3259 66.2222L62.6176 66.2854L61.9093 66.3486L61.9348 66.6346L62.6431 66.5715ZM62.6176 66.2854L63.3259 66.2222L63.3004 65.9362L62.5921 65.9993L61.8838 66.0625L61.9093 66.3486L62.6176 66.2854ZM62.5921 65.9993L63.3004 65.9362C63.2888 65.8063 63.295 65.6894 63.3153 65.5829L62.6167 65.4499L61.9182 65.3169C61.8716 65.5616 61.8614 65.8109 61.8838 66.0625L62.5921 65.9993ZM62.6167 65.4499L63.3153 65.5829L63.3654 65.3195L62.6669 65.1865L61.9683 65.0536L61.9182 65.3169L62.6167 65.4499ZM62.6669 65.1865L63.3654 65.3195L63.4156 65.0561L62.717 64.9232L62.0184 64.7902L61.9683 65.0536L62.6669 65.1865ZM62.717 64.9232L63.4156 65.0561C63.4371 64.9432 63.4731 64.8347 63.5247 64.7291L62.8857 64.417L62.2468 64.1048C62.1402 64.3231 62.0638 64.552 62.0184 64.7902L62.717 64.9232ZM62.8857 64.417L63.5247 64.7291L63.6433 64.4863L63.0044 64.1742L62.3654 63.862L62.2468 64.1048L62.8857 64.417ZM63.0044 64.1742L63.6433 64.4863L63.7619 64.2435L63.123 63.9313L62.484 63.6192L62.3654 63.862L63.0044 64.1742ZM63.123 63.9313L63.7619 64.2435C63.8678 64.0269 63.9445 63.7999 63.9912 63.5638L63.2936 63.4257L62.5961 63.2876C62.5734 63.402 62.5364 63.5121 62.484 63.6192L63.123 63.9313ZM63.2936 63.4257L63.9912 63.5638L64.0432 63.301L63.3457 63.1629L62.6481 63.0248L62.5961 63.2876L63.2936 63.4257ZM63.3457 63.1629L64.0432 63.301L64.0953 63.0382L63.3977 62.9001L62.7001 62.762L62.6481 63.0248L63.3457 63.1629ZM63.3977 62.9001L64.0953 63.0382C64.1204 62.9113 64.1536 62.8139 64.1891 62.7398L63.5478 62.4326L62.9064 62.1254C62.8112 62.3243 62.7444 62.5385 62.7001 62.762L63.3977 62.9001ZM63.5478 62.4326L64.1891 62.7398L64.2871 62.5352L63.6458 62.228L63.0045 61.9208L62.9064 62.1254L63.5478 62.4326ZM63.6458 62.228L64.2871 62.5352L64.3852 62.3305L63.7438 62.0233L63.1025 61.7161L63.0045 61.9208L63.6458 62.228ZM63.7438 62.0233L64.3852 62.3305C64.4131 62.2723 64.4197 62.2669 64.4059 62.2861C64.4019 62.2918 64.3653 62.3444 64.2949 62.3992C64.2425 62.44 64.005 62.61 63.6772 62.5116L63.8816 61.8305L64.0859 61.1494C63.7449 61.0471 63.4917 61.2221 63.4212 61.277C63.3327 61.3459 63.2757 61.4216 63.2487 61.4594C63.189 61.5429 63.14 61.6379 63.1025 61.7161L63.7438 62.0233ZM63.8816 61.8305L63.6772 62.5116L63.7169 62.5235L63.9212 61.8424L64.1256 61.1613L64.0859 61.1494L63.8816 61.8305ZM63.9212 61.8424L63.7169 62.5235L63.7566 62.5354L63.9609 61.8543L64.1652 61.1732L64.1256 61.1613L63.9212 61.8424ZM63.9609 61.8543L63.7566 62.5354C63.6095 62.4913 63.516 62.4107 63.473 62.3685C63.4264 62.3227 63.3978 62.281 63.3843 62.26C63.3694 62.2367 63.3601 62.2186 63.3559 62.2099C63.3513 62.2006 63.349 62.1949 63.3488 62.1945C63.3487 62.1942 63.3522 62.203 63.3591 62.2246C63.3656 62.2453 63.3737 62.273 63.3834 62.3088L64.07 62.1238L64.7566 61.9387C64.731 61.8439 64.7016 61.7458 64.6671 61.6608C64.6509 61.6206 64.6231 61.5571 64.5809 61.4912C64.5595 61.458 64.5233 61.4066 64.4695 61.3538C64.4193 61.3044 64.3189 61.2193 64.1652 61.1732L63.9609 61.8543ZM64.07 62.1238L63.3834 62.3088L63.4528 62.5664L64.1394 62.3814L64.826 62.1963L64.7566 61.9387L64.07 62.1238Z" fill="#FF984F"/>
</svg>
