<svg width="80" height="80" viewBox="0 0 80 80" fill="none" xmlns="http://www.w3.org/2000/svg">
<circle cx="40" cy="40" r="40" fill="white"/>
<g clip-path="url(#clip0_452_2529)">
<rect x="10" y="10" width="60" height="60" rx="30" fill="white"/>
<circle cx="13.8537" cy="13.8537" r="3.85366" fill="#CDDAFF"/>
<path d="M13.5664 9.46094C13.6968 9.45211 13.8246 9.47228 13.9453 9.51562L14.1211 9.59766L14.2969 9.70312L14.4492 9.79297L14.6484 9.72266L14.8594 9.64844C15.0932 9.56708 15.342 9.55877 15.5859 9.64453L15.7734 9.71094L15.9648 9.77734C16.2016 9.86102 16.3893 10.0169 16.5195 10.2266L16.7383 10.5781C16.777 10.6404 16.8206 10.6866 16.8672 10.7188L17.0312 10.8281L17.1914 10.9375C17.4116 11.0887 17.5501 11.3119 17.5977 11.5703L17.6328 11.7656L17.6719 11.9648C17.6875 12.0493 17.7105 12.1201 17.7422 12.1797L17.8281 12.3438L17.918 12.5078C17.985 12.6337 18.0471 12.7654 18.1016 12.9023L18.1719 13.082L18.2422 13.2656C18.2726 13.342 18.3061 13.4308 18.3203 13.5234C18.3314 13.5961 18.3484 13.7804 18.2344 13.957L18.2109 13.9961C18.2109 14.0062 18.2106 14.0183 18.2109 14.0312L18.2188 14.2227L18.2227 14.4141C18.2282 14.6208 18.1874 14.8215 18.0977 15.0078L18.0117 15.1797L17.9297 15.3516C17.8553 15.5058 17.7606 15.649 17.6484 15.7773L17.4062 16.0586C17.3725 16.0972 17.3408 16.1461 17.3203 16.2109L17.2617 16.3984L17.2031 16.5898C17.1316 16.8154 16.994 17.0061 16.7969 17.1445L16.4844 17.3633C16.3105 17.4849 16.112 17.5614 15.9023 17.5859L15.7109 17.6055L15.5156 17.6289C15.5033 17.6303 15.4911 17.6344 15.4688 17.6562L15.1719 17.9453C15.067 18.0491 14.9315 18.138 14.7617 18.1719C14.5923 18.2055 14.4328 18.1758 14.2969 18.1211L14.1016 18.0469L13.9492 17.9844L13.7734 18.0977L13.5742 18.2227C13.3318 18.3748 13.034 18.4321 12.7344 18.3086L12.5508 18.2344L12.3633 18.1562C12.2422 18.1064 12.1211 18.0561 12 18.0078L11.8164 17.9336L11.6289 17.8633C11.4537 17.7934 11.2947 17.6941 11.1523 17.5703L11 17.4375L10.8516 17.3086C10.6847 17.1632 10.5618 16.9809 10.4883 16.7734L10.4219 16.582L10.3516 16.3867C10.3199 16.2974 10.281 16.2246 10.2383 16.1641L10.1289 16.0117L10.0234 15.8594C9.91427 15.705 9.8359 15.5318 9.79297 15.3477L9.75 15.168L9.71094 14.9844C9.66839 14.8013 9.65843 14.6154 9.6875 14.4297L9.71875 14.2461L9.74609 14.0586C9.75814 13.9813 9.75899 13.9074 9.75 13.8359L9.73047 13.6562L9.70703 13.4766C9.69237 13.36 9.67539 13.2347 9.65625 13.1016L9.625 12.8984L9.59766 12.6953C9.5604 12.4362 9.61745 12.1813 9.77734 11.9648L9.89453 11.8086L10.0117 11.6484C10.0709 11.5682 10.1238 11.4816 10.168 11.3906L10.2539 11.2148L10.3398 11.0352C10.4548 10.7987 10.6452 10.6276 10.8867 10.5352L11.0781 10.4609L11.2695 10.3906C11.3065 10.3762 11.3355 10.3532 11.3633 10.3164L11.4883 10.1523L11.6133 9.98438L11.7617 9.82812C11.9242 9.69248 12.1277 9.62128 12.3516 9.625L12.5547 9.62891L12.7617 9.63281C12.8528 9.63428 12.933 9.62182 13.0039 9.60156L13.1875 9.55078L13.3711 9.49609L13.5664 9.46094ZM13.4609 10.5117L13.2773 10.5625C13.1052 10.6116 12.9275 10.6357 12.7461 10.6328L12.5391 10.6289L12.3789 10.625L12.2852 10.7539L12.1602 10.9219C12.0215 11.1047 11.8405 11.2418 11.625 11.3242L11.4336 11.3984L11.2461 11.4688C11.2422 11.4702 11.2358 11.468 11.2344 11.4688V11.4727H11.2383L11.1523 11.6484L11.0664 11.8281C10.9957 11.9738 10.9123 12.1122 10.8164 12.2422L10.6992 12.4023L10.5859 12.5547L10.6172 12.7578L10.6445 12.9609C10.6643 13.0987 10.6838 13.2288 10.6992 13.3516L10.7227 13.5312L10.7422 13.7109C10.7633 13.8785 10.7607 14.0473 10.7344 14.2148L10.707 14.3984L10.6758 14.5859C10.6669 14.6441 10.6703 14.7003 10.6836 14.7578L10.7266 14.9414L10.7695 15.1211C10.7831 15.1793 10.8053 15.2324 10.8398 15.2812L10.9453 15.4336L11.0547 15.5859C11.1555 15.7285 11.2335 15.8869 11.293 16.0547L11.3633 16.2461L11.4297 16.4375C11.4474 16.4874 11.4742 16.5254 11.5078 16.5547L11.6562 16.6836L11.8086 16.8164C11.8661 16.8664 11.9294 16.9054 12 16.9336L12.1836 17.0078L12.3711 17.082C12.4958 17.1318 12.6215 17.183 12.7461 17.2344L12.9297 17.3086L13.0586 17.3633L13.2422 17.25L13.4414 17.125L13.6328 17.0312C13.7687 16.981 13.9141 16.9608 14.0625 16.9805L14.2852 17.0391L14.4766 17.1172L14.5547 17.1484L14.6172 17.0898L14.7617 16.9453C14.9342 16.7745 15.1516 16.6657 15.3984 16.6367L15.7891 16.5898C15.8376 16.5839 15.8759 16.5708 15.9102 16.5469L16.2227 16.3281C16.233 16.3209 16.2418 16.311 16.25 16.2852L16.3086 16.0977L16.3672 15.9062C16.4265 15.719 16.5226 15.547 16.6523 15.3984L16.7734 15.2578L16.8984 15.1172C16.9493 15.0587 16.9914 14.9923 17.0273 14.918L17.1133 14.7461L17.1953 14.5742C17.2159 14.5315 17.2238 14.4884 17.2227 14.4414L17.2188 14.25L17.2109 14.0586C17.2088 13.9816 17.2132 13.9 17.2227 13.8242C17.2292 13.7718 17.2475 13.6793 17.2969 13.582L17.2422 13.4531L17.1719 13.2734C17.1303 13.1689 17.0841 13.0683 17.0352 12.9766L16.9492 12.8125L16.8594 12.6523C16.7752 12.4944 16.7202 12.3225 16.6875 12.1445L16.6484 11.9492L16.6133 11.7578L16.4648 11.6523L16.3047 11.543C16.1367 11.4276 15.9978 11.2782 15.8906 11.1055L15.6719 10.7539C15.6566 10.7294 15.6461 10.7235 15.6328 10.7188L15.4453 10.6523L15.2539 10.5859C15.2465 10.5833 15.2303 10.5788 15.1875 10.5938L14.9805 10.668L14.7695 10.7383C14.5045 10.8309 14.2205 10.8181 13.9648 10.668L13.7891 10.5625L13.6211 10.4648L13.4609 10.5117Z" fill="#CDDAFF"/>
<circle cx="8.85366" cy="47.2521" r="3.85366" fill="#CDDAFF"/>
<path d="M8.20703 42.8633L8.60547 42.9492C8.74296 42.9792 8.87468 43.0098 9 43.043L9.17969 43.0938L9.35547 43.1406C9.37885 43.1468 9.42112 43.1501 9.48828 43.1328L9.69141 43.0781L9.89844 43.0273L10.1172 42.9961C10.1922 42.9953 10.2695 43.0052 10.3477 43.0273C10.4268 43.0498 10.4981 43.0836 10.5625 43.125L10.7344 43.2695L10.8711 43.4219L11.0078 43.5703C11.0522 43.6189 11.0989 43.6494 11.1445 43.668L11.3203 43.7383L11.5 43.8125C11.6904 43.89 11.8572 44.0086 11.9922 44.1641L12.1172 44.3047L12.2422 44.4492C12.3334 44.5543 12.42 44.6648 12.5039 44.7773L12.6172 44.9297L12.7344 45.0859C12.8568 45.2502 12.9393 45.4354 12.9766 45.6367L13.0117 45.8281L13.0469 46.0156C13.0659 46.1183 13.0912 46.221 13.125 46.3203L13.25 46.6875C13.2758 46.7635 13.3017 46.8504 13.3125 46.9375C13.3208 47.0049 13.3322 47.1741 13.2344 47.3398L13.2031 47.3945L13.1914 47.4141L13.168 47.5195L13.1406 47.7031L13.1094 47.8867C13.0974 47.9581 13.0943 48.0424 13.1055 48.1406L13.1523 48.5547C13.1705 48.715 13.1435 48.8902 13.0469 49.0508C12.9528 49.2069 12.8162 49.3074 12.6836 49.3711L12.4766 49.4727L12.2656 49.5742C12.2372 49.5879 12.2256 49.5988 12.2227 49.6016L12.1562 49.7617L12.0859 49.9336C12.0306 50.066 11.9642 50.1984 11.8906 50.332L11.793 50.5117L11.6914 50.6953C11.5673 50.9197 11.3728 51.0844 11.125 51.168L10.9375 51.2344L10.75 51.2969C10.617 51.3417 10.4829 51.3813 10.3516 51.418L9.98438 51.5195C9.83574 51.561 9.68431 51.5923 9.53125 51.6094L9.34375 51.6289L9.15234 51.6523C8.94654 51.6751 8.74377 51.6478 8.55078 51.5742L8.36719 51.5039L8.1875 51.4375C8.17244 51.4318 8.14611 51.4244 8.08984 51.4375L7.875 51.4844L7.66406 51.5352C7.51411 51.5704 7.3396 51.5714 7.16797 51.5C6.99839 51.429 6.87757 51.3077 6.79688 51.1797L6.5625 50.8047C6.49774 50.7016 6.43749 50.6212 6.38281 50.5625L6.25781 50.4336L6.13672 50.3008C6.08775 50.2485 6.02758 50.1998 5.95703 50.1562L5.63672 49.9609C5.51726 49.8872 5.39647 49.8016 5.27344 49.7109L5.10547 49.5859L4.93359 49.4609C4.80178 49.3638 4.68626 49.2215 4.63672 49.0352C4.58973 48.8562 4.61596 48.6858 4.66406 48.5469L4.74219 48.3242L4.82031 48.0977C4.83558 48.0535 4.84153 48.0211 4.84375 48C4.84539 47.984 4.84417 47.9756 4.84375 47.9727L4.77344 47.6289C4.74713 47.5036 4.72596 47.3737 4.70703 47.2422L4.67969 47.0586L4.65234 46.8789C4.62804 46.7099 4.62864 46.5368 4.65234 46.3672L4.67969 46.1836L4.70312 45.9961C4.72843 45.8155 4.78653 45.642 4.87109 45.4805L4.95703 45.3164L5.04297 45.1484C5.09185 45.055 5.13751 44.9525 5.17969 44.8438L5.25391 44.6562L5.32422 44.4688C5.44464 44.1594 5.70464 43.9813 6.00391 43.9336L6.22266 43.9023L6.44141 43.8672C6.47101 43.8625 6.4898 43.8547 6.49609 43.8516L6.5 43.8477L6.62891 43.707L6.75781 43.5703C6.86746 43.4522 6.99102 43.3455 7.125 43.25L7.45312 43.0156L7.62891 42.918C7.8101 42.8391 8.00747 42.8201 8.20703 42.8633ZM7.86719 43.9492L7.70703 44.0625C7.62491 44.121 7.5533 44.1842 7.49219 44.25L7.36328 44.3867L7.23438 44.5273C7.05995 44.7151 6.83396 44.818 6.59766 44.8555L6.37891 44.8867L6.22266 44.9102L6.18359 45.0195L6.11328 45.207C6.0585 45.3483 5.99706 45.4845 5.92969 45.6133L5.84375 45.7773L5.75391 45.9453C5.72242 46.0056 5.70464 46.07 5.69531 46.1367L5.66797 46.3203L5.64062 46.5078C5.62992 46.5853 5.63007 46.6606 5.64062 46.7344L5.69531 47.1016C5.71126 47.2122 5.72846 47.3192 5.75 47.4219L5.78906 47.5938L5.82422 47.7656C5.87231 47.9947 5.83725 48.2239 5.76562 48.4297L5.6875 48.6523L5.65234 48.7461L5.69531 48.7812L5.86719 48.9062C5.97107 48.9828 6.07036 49.0516 6.16406 49.1094L6.48438 49.3047C6.62628 49.3922 6.7544 49.4967 6.86719 49.6172L6.98828 49.75L7.11328 49.8789C7.2203 49.9936 7.31894 50.1282 7.41016 50.2734L7.52734 50.4609L7.57031 50.5273L7.64844 50.5117L7.85938 50.4609C8.08529 50.4079 8.32139 50.4138 8.54688 50.5L8.90625 50.6406C8.95305 50.6585 8.99708 50.6614 9.04297 50.6562L9.23047 50.6367L9.42188 50.6172C9.52079 50.6061 9.61825 50.5855 9.71484 50.5586L9.89844 50.5078L10.0859 50.457C10.1993 50.4254 10.3132 50.3869 10.4297 50.3477L10.6211 50.2852L10.8086 50.2227C10.8095 50.2215 10.813 50.217 10.8164 50.2109L10.9141 50.0312L11.0156 49.8516C11.0738 49.7459 11.1198 49.6434 11.1602 49.5469L11.2344 49.375L11.3047 49.2031C11.4108 48.9492 11.6101 48.7784 11.832 48.6719L12.043 48.5703L12.1367 48.5234L12.1328 48.4609L12.1094 48.2539C12.0891 48.075 12.0922 47.8959 12.1211 47.7227L12.1523 47.5391L12.1836 47.3516C12.1952 47.2827 12.2068 47.216 12.2227 47.1562C12.2341 47.1131 12.2555 47.0473 12.2891 46.9805L12.2383 46.8242L12.1797 46.6406C12.1305 46.496 12.0903 46.3492 12.0625 46.1992L12.0273 46.0078L11.9922 45.8203C11.9828 45.7693 11.9641 45.7246 11.9336 45.6836L11.8164 45.5273L11.7031 45.375C11.6337 45.2819 11.5593 45.1918 11.4844 45.1055L11.2344 44.8164C11.2037 44.7817 11.1667 44.7568 11.1211 44.7383L10.9453 44.6641L10.7656 44.5938C10.5746 44.5159 10.4079 44.3975 10.2695 44.2461L10.1328 44.0938L10.0586 44.0117L9.94141 44.0469L9.73828 44.1016C9.53158 44.1549 9.31467 44.1617 9.10156 44.1055L8.92188 44.0586L8.74609 44.0117C8.63551 43.9825 8.5162 43.9532 8.39062 43.9258L8.19531 43.8828L8.01172 43.8438L7.86719 43.9492Z" fill="#CDDAFF"/>
<circle cx="19.5582" cy="30.5529" r="3.85366" fill="#CDDAFF"/>
<path d="M20.5015 26.0742L20.8843 26.1758C21.0642 26.2226 21.2325 26.297 21.3882 26.3984L21.5562 26.5078L21.7202 26.6133C21.869 26.7103 22.0029 26.8272 22.1187 26.9609L22.2437 27.1055L22.3726 27.2539C22.4695 27.366 22.5579 27.482 22.6382 27.6016L22.7437 27.7539L22.8452 27.9102C22.9257 28.03 22.9977 28.1535 23.0601 28.2812L23.1382 28.4453L23.2163 28.6055C23.235 28.6438 23.2714 28.6954 23.3374 28.7539L23.6577 29.0352C23.7733 29.1378 23.8743 29.2806 23.9116 29.4648C23.9485 29.6485 23.9109 29.8201 23.8491 29.957L23.7593 30.1562L23.7397 30.1953C23.8367 30.3105 23.8697 30.4482 23.8765 30.5547C23.8844 30.683 23.8575 30.801 23.8296 30.8867L23.771 31.0664L23.7124 31.2422C23.7066 31.2601 23.7001 31.2988 23.7163 31.3672L23.7671 31.5781L23.8179 31.793C23.8846 32.0754 23.8303 32.3666 23.6265 32.6016L23.4976 32.7539L23.3647 32.9062C23.267 33.0189 23.1641 33.1233 23.0601 33.2227L22.7866 33.4883C22.6486 33.6201 22.4872 33.7218 22.3101 33.793L21.9585 33.9336C21.8558 33.9749 21.7594 34.0205 21.6733 34.0664L21.5171 34.1484L21.3647 34.2305C21.2955 34.2674 21.2199 34.3177 21.1421 34.3828L20.9937 34.5117L20.8413 34.6367C20.6117 34.8289 20.3233 34.8891 20.0366 34.8047L19.8452 34.7461L19.6577 34.6914C19.5784 34.668 19.5092 34.6615 19.4507 34.6641L19.271 34.6719L19.0952 34.6797C19.017 34.6831 18.9185 34.6971 18.8022 34.7266L18.5913 34.7812L18.3765 34.8359C18.1009 34.9056 17.8154 34.8596 17.5757 34.6719L17.4155 34.5508L17.2593 34.4258C17.1281 34.3231 17.0061 34.2072 16.8999 34.082L16.7749 33.9375L16.6499 33.7891C16.5734 33.699 16.4946 33.6126 16.4155 33.5312L16.2866 33.3984L16.1577 33.2617C16.0026 33.1021 15.9015 32.9077 15.8569 32.6914L15.7788 32.3164C15.7671 32.2596 15.7449 32.2102 15.7124 32.1641L15.5991 32.0078L15.4897 31.8516C15.373 31.6876 15.2975 31.5034 15.2632 31.3047L15.228 31.1172L15.1968 30.9336C15.1549 30.6914 15.1992 30.4558 15.314 30.2461L15.4116 30.0703L15.5054 29.8945C15.5346 29.8411 15.5472 29.8002 15.5483 29.7656L15.5562 29.3984C15.5601 29.2552 15.5728 29.1089 15.5952 28.9609L15.6265 28.7656L15.6577 28.5742C15.6878 28.3758 15.756 28.1883 15.8647 28.0195L15.9702 27.8555L16.0796 27.6914C16.1896 27.5213 16.3302 27.3778 16.5015 27.2695L16.6694 27.1641L16.8335 27.0625C16.9775 26.9715 17.1297 26.8963 17.2905 26.8438L17.4741 26.7852L17.6538 26.7266C17.761 26.6916 17.8637 26.6514 17.9624 26.6094L18.1343 26.5391L18.3022 26.4648C18.4786 26.3899 18.6654 26.3533 18.8569 26.3555L19.0405 26.3594H19.2241C19.2624 26.3598 19.3188 26.3538 19.3921 26.3203L19.5835 26.2305L19.7788 26.1406C20.0045 26.0376 20.2534 26.0096 20.5015 26.0742ZM20.1929 27.0508L20.0015 27.1406L19.8062 27.2305C19.6204 27.3152 19.4195 27.3618 19.2124 27.3594H19.0288L18.8452 27.3555C18.7919 27.3549 18.7417 27.3659 18.6929 27.3867L18.5249 27.457L18.3569 27.5312C18.2309 27.5849 18.0997 27.6322 17.9663 27.6758L17.7827 27.7383L17.603 27.7969C17.523 27.823 17.4446 27.8584 17.3687 27.9062L17.2007 28.0117L17.0366 28.1172C16.9879 28.1481 16.9505 28.1863 16.9194 28.2344L16.8101 28.3984L16.7046 28.5625C16.6733 28.6114 16.655 28.6634 16.646 28.7227L16.6147 28.918L16.5874 29.1133C16.5708 29.2232 16.5589 29.3271 16.5562 29.4258L16.5483 29.793C16.5424 30.0005 16.4823 30.1959 16.3843 30.375L16.2866 30.5508L16.1929 30.7266C16.1858 30.7395 16.1818 30.7469 16.1812 30.75C16.1809 30.7516 16.1802 30.7557 16.1812 30.7617L16.2163 30.9492L16.2476 31.1367C16.2562 31.1854 16.2719 31.2308 16.3022 31.2734L16.4155 31.4258L16.5249 31.582C16.6389 31.7421 16.7155 31.921 16.7554 32.1133L16.7944 32.3008L16.8335 32.4922C16.8406 32.5255 16.8537 32.547 16.8726 32.5664L17.0054 32.6992L17.1343 32.8359C17.2289 32.9333 17.3216 33.0346 17.4116 33.1406L17.5366 33.2891L17.6655 33.4375C17.7256 33.5082 17.7939 33.575 17.8726 33.6367L18.0327 33.7617L18.1499 33.8555L18.3452 33.8125L18.5562 33.7578C18.7242 33.7152 18.8922 33.6866 19.0522 33.6797L19.228 33.6719L19.4077 33.6641C19.5873 33.6563 19.7652 33.6832 19.939 33.7344L20.1304 33.7891L20.2515 33.8242L20.3491 33.7422L20.5015 33.6172C20.6255 33.5133 20.7551 33.4208 20.8921 33.3477L21.2046 33.1836C21.3245 33.1197 21.4509 33.0611 21.5835 33.0078L21.7593 32.9375L21.939 32.8633C21.9972 32.8397 22.0495 32.8093 22.0952 32.7656L22.3687 32.5C22.4487 32.4235 22.5287 32.3402 22.6069 32.25L22.7397 32.0977L22.8335 31.9844L22.7944 31.8086L22.7437 31.5977C22.6924 31.3813 22.6916 31.1537 22.7632 30.9336L22.8218 30.7539L22.8257 30.7344C22.6802 30.5829 22.6574 30.3957 22.6655 30.2812C22.6747 30.1534 22.7166 30.0355 22.7554 29.9492L22.8452 29.7461L22.8765 29.6758L22.8335 29.6406L22.6733 29.5C22.5275 29.3707 22.4035 29.219 22.3179 29.043L22.1616 28.7227C22.1197 28.6366 22.0694 28.5485 22.0132 28.4648L21.8101 28.1602C21.7533 28.0756 21.6867 27.9894 21.6147 27.9062L21.4897 27.7617L21.3608 27.6133C21.3077 27.5521 21.2449 27.4998 21.1733 27.4531L20.8452 27.2344C20.7805 27.1922 20.7101 27.1605 20.6343 27.1406L20.439 27.0938L20.2476 27.043C20.2391 27.0408 20.2262 27.0356 20.1929 27.0508Z" fill="#CDDAFF"/>
<circle cx="19.5582" cy="63.9513" r="3.85366" fill="#CDDAFF"/>
<path d="M18.3921 59.5586C18.5793 59.5094 18.7728 59.518 18.9585 59.5781L19.3569 59.7109C19.431 59.7349 19.4887 59.7389 19.5327 59.7344L19.7202 59.7109L19.9038 59.6914C20.1263 59.6675 20.3432 59.7121 20.5405 59.8164L20.8687 59.9883C20.9141 60.0123 20.9698 60.0302 21.0366 60.0352L21.2319 60.0508L21.4312 60.0625C21.6465 60.0786 21.8376 60.1646 21.9858 60.3086L22.1187 60.4688L22.2241 60.6367L22.3335 60.8008C22.3903 60.8882 22.4465 60.9643 22.5054 61.0273L22.6304 61.1562L22.7515 61.2891C22.8402 61.3841 22.9263 61.483 23.0093 61.5859L23.1265 61.7305L23.2397 61.8711C23.3153 61.9649 23.3939 62.0649 23.478 62.168L23.6069 62.3242L23.7319 62.4805C23.826 62.5956 23.8945 62.7358 23.9155 62.8984C23.9362 63.0589 23.9098 63.2096 23.8569 63.3398L23.7749 63.5391L23.7397 63.6133C23.8214 63.715 23.8662 63.8177 23.8804 63.8984C23.8996 64.008 23.8959 64.116 23.8843 64.2031L23.8569 64.3867L23.8335 64.5742C23.8178 64.6923 23.8034 64.8147 23.7905 64.9375L23.7515 65.3203C23.7329 65.4966 23.687 65.668 23.6187 65.832L23.4702 66.1914C23.4093 66.3378 23.3366 66.4813 23.2515 66.6172L23.1421 66.7852L23.0366 66.957C22.9194 67.1436 22.758 67.2905 22.564 67.3945L22.3882 67.4883L22.2124 67.5859C22.021 67.6885 21.8113 67.7394 21.5952 67.7422L21.3882 67.7461H21.2241L21.0952 67.9219L20.9546 68.1094C20.8675 68.2283 20.7434 68.3467 20.5718 68.4102C20.3954 68.475 20.2177 68.4661 20.064 68.418L19.8647 68.3555L19.6616 68.293C19.5289 68.2514 19.4031 68.2113 19.2866 68.1758L18.9351 68.0664C18.8471 68.0396 18.7583 68.0214 18.6694 68.0117L18.4858 67.9922L18.3062 67.9727C18.1627 67.9572 18.017 67.9336 17.8726 67.8984L17.4976 67.8047C17.2833 67.7525 17.0941 67.6459 16.939 67.4883L16.6694 67.2188C16.5429 67.0903 16.4399 66.943 16.3608 66.7812L16.2788 66.6094L16.1968 66.4414C16.1839 66.415 16.1575 66.3819 16.1069 66.3477L15.9351 66.2344L15.7632 66.1172C15.5763 65.9906 15.429 65.8206 15.3335 65.6133L15.2515 65.4336L15.1655 65.25C15.0526 65.0041 15.0491 64.7425 15.1343 64.4961L15.2046 64.293L15.2749 64.0938C15.277 64.0877 15.2786 64.0837 15.2788 64.082L15.2749 64.0742C15.2741 64.0713 15.2737 64.0648 15.271 64.0586L15.1851 63.8633L15.0952 63.6641C14.9933 63.4348 14.9678 63.1835 15.0366 62.9336L15.0874 62.7422L15.1421 62.5469C15.2071 62.3106 15.3415 62.1117 15.5288 61.9609L15.6968 61.8281L15.8608 61.6953C15.9417 61.6303 16.0018 61.5665 16.0444 61.5078L16.1538 61.3594L16.2593 61.2109C16.3302 61.1132 16.4044 61.0106 16.478 60.9062L16.5913 60.7461L16.7007 60.5898C16.8179 60.4237 16.9689 60.2876 17.146 60.1875L17.314 60.0938L17.4819 59.9961C17.6028 59.9278 17.7265 59.8627 17.853 59.8008L18.0327 59.7148L18.2085 59.6289L18.3921 59.5586ZM16.0757 64.832L16.1577 65.0117L16.2437 65.1953C16.2593 65.2288 16.283 65.2601 16.3257 65.2891L16.6694 65.5234C16.8487 65.6451 16.9979 65.8046 17.0952 66.0039L17.2593 66.3398C17.2904 66.4036 17.3324 66.463 17.3843 66.5156L17.6499 66.7891C17.6729 66.8124 17.6975 66.8273 17.7319 66.8359L17.9194 66.8789L18.1069 66.9258C18.2115 66.9512 18.3137 66.9699 18.4116 66.9805L18.5952 67L18.7749 67.0195C18.9269 67.0359 19.0771 67.0647 19.2241 67.1094L19.4038 67.1641L19.5796 67.2188C19.699 67.2551 19.8274 67.2937 19.9624 67.3359L20.1616 67.3984L20.2241 67.4141L20.2866 67.332L20.4233 67.1445L20.5679 66.9844C20.7266 66.8409 20.9284 66.7494 21.1655 66.7461H21.3765L21.5835 66.7422C21.6443 66.7413 21.6948 66.7272 21.7397 66.7031L22.0913 66.5156C22.1328 66.4934 22.1647 66.464 22.189 66.4258L22.2944 66.2539L22.4038 66.0859C22.4602 65.996 22.5053 65.9025 22.5444 65.8086L22.6226 65.6289L22.6968 65.4453C22.7281 65.3696 22.7471 65.2932 22.7554 65.2148L22.7944 64.832C22.8083 64.7001 22.8243 64.5692 22.8413 64.4414L22.8687 64.2539L22.8765 64.1641C22.6991 64.0042 22.6784 63.7942 22.6851 63.6836C22.6925 63.5625 22.7321 63.4494 22.7671 63.3633L22.8491 63.1641L22.896 63.0352L22.8335 62.957L22.7046 62.8008C22.6195 62.6966 22.5392 62.5954 22.4624 62.5L22.3452 62.3555L22.2319 62.2148C22.1631 62.1294 22.0936 62.0464 22.021 61.9688L21.896 61.8398L21.7749 61.7109C21.6718 61.6006 21.5795 61.4759 21.4937 61.3438L21.3843 61.1797L21.3062 61.0547L21.1577 61.0469L20.9624 61.0312C20.7667 61.0168 20.5781 60.9669 20.4038 60.875L20.2358 60.7852L20.0718 60.6992C20.0495 60.6876 20.0321 60.685 20.0093 60.6875L19.6421 60.7266C19.4404 60.7484 19.2397 60.7222 19.0483 60.6602L18.8491 60.5977L18.6499 60.5312L18.6421 60.5273L18.4702 60.6133L18.2944 60.6992C18.1853 60.7526 18.0776 60.8087 17.9741 60.8672L17.8062 60.9609L17.6382 61.0586C17.5907 61.0854 17.5495 61.1181 17.5171 61.1641L17.4077 61.3242L17.2944 61.4844C17.2189 61.5915 17.145 61.6959 17.0718 61.7969L16.9624 61.9453L16.853 62.0977C16.7518 62.2369 16.6284 62.3609 16.4897 62.4727L16.3218 62.6094L16.1577 62.7422C16.1245 62.7689 16.1132 62.7898 16.1069 62.8125L16.0522 63.0039L15.9976 63.1992C15.995 63.2085 15.9936 63.2225 16.0093 63.2578L16.0952 63.457L16.1851 63.6523C16.2942 63.8979 16.309 64.1654 16.2202 64.4219L16.1499 64.6211L16.0796 64.8242L16.0757 64.832Z" fill="#CDDAFF"/>
<circle cx="29.8346" cy="13.8537" r="3.85366" fill="#CDDAFF"/>
<path d="M28.6841 9.58984C28.8743 9.53145 29.0722 9.53747 29.2622 9.60156L29.6528 9.73438C29.7351 9.76196 29.8015 9.77056 29.8521 9.76953L30.2036 9.76172C30.3437 9.7589 30.4844 9.76509 30.6255 9.78125L30.8052 9.80078L30.9849 9.82422C31.1599 9.8443 31.3298 9.89264 31.4888 9.96875L31.6489 10.0469L31.813 10.125C31.8843 10.1592 31.9719 10.1871 32.0747 10.2109L32.481 10.3047C32.697 10.3547 32.8918 10.457 33.0552 10.6094L33.2036 10.7461L33.3481 10.8828C33.5658 11.0865 33.6556 11.3584 33.645 11.6328L33.6333 11.8555L33.6255 12.082C33.6218 12.178 33.6381 12.2324 33.6489 12.2578L33.7192 12.4219L33.7856 12.582C33.8388 12.707 33.8892 12.8366 33.9302 12.9688L33.981 13.1445L34.0356 13.3203C34.0718 13.437 34.0933 13.5026 34.1021 13.5273L34.1216 13.582L34.1411 13.6328C34.1609 13.6885 34.1916 13.7937 34.2271 13.9219L34.2817 14.1211L34.3364 14.3242C34.377 14.4718 34.3813 14.634 34.3286 14.7969C34.2764 14.9578 34.1795 15.0843 34.0708 15.1797L33.7349 15.4766C33.685 15.5203 33.6774 15.5461 33.6763 15.5508L33.6333 15.7344L33.5864 15.918C33.5461 16.0842 33.4861 16.244 33.4028 16.3945L33.3091 16.5664L33.2114 16.7344C33.093 16.9476 32.9152 17.1063 32.6919 17.1992L32.5083 17.2734L32.3286 17.3516C32.2394 17.3886 32.1594 17.4315 32.0903 17.4805L31.938 17.5898L31.7856 17.6953C31.651 17.7908 31.5063 17.8693 31.3521 17.9297L31.1763 18L31.0005 18.0664C30.8595 18.1215 30.7122 18.1654 30.563 18.1992L30.188 18.2852C30.0414 18.3183 29.8918 18.3447 29.7388 18.3594L29.5396 18.375L29.3403 18.3945C29.1345 18.4143 28.9297 18.3898 28.7349 18.3203L28.3599 18.1875C28.18 18.1233 28.0148 18.0279 27.8677 17.9062L27.563 17.6562C27.496 17.6008 27.4213 17.5523 27.3403 17.5156L26.9731 17.3516C26.753 17.2523 26.5779 17.091 26.4614 16.8789L26.3677 16.7031L26.27 16.5273C26.1942 16.389 26.13 16.2473 26.0786 16.1016L26.0122 15.918L25.9497 15.7383C25.8917 15.5729 25.8593 15.4011 25.8521 15.2266L25.8442 15.043L25.8364 14.8555C25.8316 14.7401 25.8233 14.6288 25.813 14.5234L25.7974 14.3477L25.7778 14.1758C25.7727 14.1237 25.7582 14.055 25.7192 13.9688L25.6333 13.7773L25.5474 13.5898C25.4274 13.324 25.4331 13.0285 25.5942 12.7656L25.6958 12.5977L25.7974 12.4336C25.8252 12.3882 25.8417 12.3353 25.8481 12.2734L25.8716 12.0742L25.8911 11.875C25.9169 11.6264 26.0226 11.4009 26.2075 11.2266L26.3521 11.0938L26.4927 10.957C26.5864 10.8688 26.6792 10.7819 26.77 10.6953L26.9106 10.5625L27.0474 10.4336C27.1869 10.3006 27.348 10.1982 27.5278 10.1289L27.7075 10.0586L27.8833 9.99219C27.9783 9.95569 28.0713 9.9102 28.1606 9.85938L28.3286 9.76562L28.4966 9.66797L28.6841 9.58984ZM28.8208 10.6328L28.6567 10.7305C28.5239 10.806 28.3849 10.8711 28.2427 10.9258L28.0669 10.9922L27.8872 11.0625C27.8303 11.0844 27.779 11.1142 27.7349 11.1562L27.5981 11.2891L27.4614 11.418C27.3689 11.5062 27.2755 11.5977 27.1802 11.6875L27.0356 11.8203L26.895 11.9531C26.8919 11.9561 26.8876 11.9604 26.8872 11.9609V11.9766L26.8638 12.1758L26.8442 12.3789C26.8228 12.5843 26.7572 12.7804 26.6489 12.957L26.5474 13.1211L26.481 13.2305L26.5435 13.3672L26.6294 13.5586C26.7045 13.7252 26.7563 13.8991 26.7739 14.0781L26.7896 14.25L26.8091 14.4258C26.8214 14.5509 26.8309 14.6799 26.8364 14.8125L26.8521 15.1875C26.8552 15.2605 26.8692 15.3327 26.895 15.4062L26.9575 15.5859L27.02 15.7695C27.0525 15.8617 27.0942 15.9542 27.145 16.0469L27.2427 16.2227L27.3364 16.3984C27.3479 16.4194 27.36 16.4309 27.3833 16.4414L27.7505 16.6055C27.9121 16.6785 28.0633 16.7701 28.1997 16.8828L28.3521 17.0117L28.5044 17.1367C28.5614 17.1838 28.6247 17.2207 28.6958 17.2461L29.0708 17.3789C29.1266 17.3988 29.183 17.4079 29.2427 17.4023L29.6411 17.3633C29.7539 17.3524 29.8653 17.3321 29.9692 17.3086L30.1567 17.2695L30.3442 17.2266C30.4456 17.2036 30.5439 17.1732 30.6372 17.1367L30.813 17.0664L30.9888 17C31.0682 16.9689 31.1402 16.9267 31.2075 16.8789L31.3599 16.7734L31.5122 16.6641C31.6452 16.5698 31.7885 16.4896 31.9419 16.4258L32.3091 16.2773C32.3213 16.2722 32.3267 16.2673 32.3286 16.2656C32.3303 16.2641 32.335 16.2595 32.3403 16.25L32.4341 16.0781L32.5278 15.9102C32.5689 15.8359 32.5989 15.7606 32.6177 15.6836L32.7036 15.3164C32.7616 15.0766 32.9001 14.88 33.0747 14.7266L33.2427 14.5781L33.3442 14.4883L33.3169 14.3867L33.2622 14.1875C33.2442 14.1221 33.2306 14.07 33.2192 14.0312C33.2136 14.0118 33.2072 13.9958 33.2036 13.9844C33.2008 13.9755 33.2003 13.9704 33.1997 13.9688L33.1802 13.9141L33.1606 13.8633C33.1442 13.8169 33.1178 13.731 33.0825 13.6172L32.9731 13.2656C32.9421 13.1653 32.907 13.069 32.8677 12.9766L32.7271 12.6484C32.645 12.4557 32.6176 12.2479 32.6255 12.043L32.6372 11.8164L32.645 11.5938L32.52 11.4766L32.3716 11.3398C32.3413 11.312 32.3053 11.293 32.2544 11.2812L32.0513 11.2344L31.8521 11.1875C31.6872 11.1495 31.5294 11.0972 31.3833 11.0273L31.0552 10.8711C30.9962 10.8428 30.9356 10.8238 30.8716 10.8164L30.6919 10.7969L30.5122 10.7734C30.4142 10.7622 30.3176 10.7598 30.2231 10.7617L29.8716 10.7695C29.6883 10.7733 29.5074 10.7387 29.3325 10.6797L29.1372 10.6133L28.9575 10.5547L28.8208 10.6328Z" fill="#CDDAFF"/>
<circle cx="29.8346" cy="47.2521" r="3.85366" fill="#CDDAFF"/>
<path d="M30.2622 42.7148C30.4497 42.7156 30.6324 42.7497 30.8091 42.8125L31.1841 42.9453C31.4132 43.0273 31.5959 43.1764 31.731 43.3711L31.8521 43.5469L31.9731 43.7188C31.9999 43.7573 32.02 43.7665 32.0278 43.7695L32.2075 43.8359L32.3833 43.8984C32.5834 43.9695 32.7577 44.0865 32.895 44.25L33.0122 44.3945L33.1333 44.5352C33.2509 44.6758 33.3391 44.8345 33.3989 45.0078L33.4614 45.1797L33.52 45.3555C33.542 45.4191 33.5761 45.4792 33.6216 45.5391L33.7349 45.6914L33.8521 45.8438C34.0026 46.0419 34.0725 46.2777 34.0513 46.5273L34.0356 46.7148L34.02 46.8789C34.1585 47.0401 34.1649 47.2236 34.1606 47.3086C34.1556 47.4091 34.1312 47.5075 34.106 47.5859L34.0474 47.7617L33.9927 47.9414C33.964 48.0303 33.9449 48.1207 33.9341 48.2109L33.8872 48.5781C33.8679 48.7394 33.8302 48.8971 33.7739 49.0508L33.7075 49.2305L33.645 49.4102C33.5885 49.5641 33.5119 49.709 33.4224 49.8477L33.2114 50.1758C33.0976 50.3515 32.9482 50.4946 32.7661 50.5977L32.5942 50.6914L32.4263 50.7891C32.2614 50.8822 32.0821 50.9437 31.895 50.9727L31.7075 51L31.5161 51.0312C31.4683 51.0387 31.4281 51.0546 31.3911 51.082L31.2388 51.1953L31.0825 51.3086C30.9114 51.4352 30.7171 51.5146 30.5044 51.5391L30.3169 51.5625L30.1294 51.582C30.0091 51.5957 29.8843 51.6121 29.7583 51.6289L29.5669 51.6523L29.3716 51.6797C29.1022 51.7155 28.849 51.6414 28.6411 51.4766L28.481 51.3477L28.3208 51.2227C28.2468 51.1641 28.1786 51.1212 28.1138 51.0938L27.7778 50.9531C27.6725 50.9087 27.5598 50.8648 27.4419 50.8203L27.2583 50.75L27.0708 50.6797C26.8729 50.6049 26.6996 50.4871 26.5591 50.3281L26.4302 50.1797L26.3013 50.0352C26.153 49.8672 26.0588 49.6681 26.02 49.4492L25.9849 49.25L25.9497 49.0547C25.9404 49.0015 25.9222 48.9557 25.8911 48.9141L25.6489 48.5938C25.5353 48.4429 25.4488 48.2739 25.3911 48.0938L25.3325 47.9023L25.27 47.7109C25.2093 47.5209 25.1873 47.3239 25.2036 47.125L25.2192 46.9258L25.2349 46.7227C25.2555 46.4755 25.3559 46.2558 25.5161 46.0742L25.6606 45.9102L25.8013 45.75C25.861 45.6824 25.8955 45.6241 25.9146 45.5742L25.981 45.3984L26.0474 45.2266C26.1214 45.0303 26.2426 44.8613 26.4028 44.7266L26.5435 44.6055L26.688 44.4883C26.7989 44.395 26.9129 44.3066 27.0317 44.2305L27.1802 44.1367L27.3325 44.0391C27.3392 44.033 27.3585 44.01 27.3833 43.9531L27.4771 43.7422L27.5669 43.5312C27.6787 43.2748 27.8857 43.0623 28.188 42.9844L28.3794 42.9375L28.5708 42.8867C28.7167 42.8491 28.864 42.8214 29.0122 42.8008L29.4028 42.7461C29.5554 42.725 29.7092 42.7145 29.8638 42.7148H30.2622ZM29.5396 43.7344L29.3442 43.7617L29.1528 43.7891C29.0424 43.8043 28.9307 43.8271 28.8208 43.8555L28.6294 43.9062L28.4771 43.9414L28.3911 44.1406L28.3013 44.3555C28.212 44.5598 28.0755 44.7519 27.8716 44.8828L27.7192 44.9766L27.5708 45.0742C27.4901 45.1259 27.4081 45.1831 27.3286 45.25L27.188 45.3711L27.0435 45.4922C27.0138 45.5173 26.994 45.5438 26.981 45.5781L26.9185 45.7539L26.8521 45.9258C26.784 46.1063 26.6799 46.2688 26.5513 46.4141L26.4067 46.5742L26.2661 46.7344C26.2389 46.7651 26.2326 46.7861 26.231 46.8047L26.2153 47.0078L26.1997 47.207C26.1941 47.2755 26.2023 47.3408 26.2231 47.4062L26.2817 47.5977L26.3442 47.7891C26.3683 47.8641 26.4043 47.932 26.4497 47.9922L26.5669 48.1523L26.688 48.3086C26.8155 48.4775 26.8973 48.6708 26.9341 48.8789L26.9692 49.0781L27.0044 49.2734C27.0119 49.3162 27.0285 49.345 27.0513 49.3711L27.1802 49.5195L27.3091 49.6641C27.3402 49.6993 27.3778 49.7239 27.4263 49.7422L27.7935 49.8828C27.922 49.9313 28.0467 49.9816 28.1646 50.0312L28.5005 50.1719C28.6587 50.2386 28.8082 50.3282 28.9458 50.4375L29.1021 50.5664L29.2544 50.6836L29.4341 50.6641L29.6294 50.6367C29.7608 50.6192 29.8898 50.6042 30.0161 50.5898L30.2036 50.5664L30.3911 50.5469C30.4251 50.5428 30.4557 50.5321 30.4888 50.5078L30.6411 50.3906L30.7974 50.2773C30.9653 50.1533 31.1577 50.0749 31.3638 50.043L31.5513 50.0117L31.7427 49.9844C31.8097 49.974 31.8733 49.9523 31.9341 49.918L32.1021 49.8203L32.2739 49.7266C32.3157 49.7028 32.3459 49.6722 32.3716 49.6328L32.5825 49.3047C32.6323 49.2275 32.6732 49.1488 32.7036 49.0664L32.8364 48.707C32.8667 48.6242 32.8851 48.5397 32.895 48.457L32.9185 48.2734L32.938 48.0898C32.9565 47.9353 32.9915 47.7817 33.0396 47.6328L33.0981 47.457L33.1294 47.3516C33.0594 47.2417 33.0315 47.1342 33.0239 47.0742C33.0131 46.9864 33.0171 46.8961 33.0239 46.8164L33.0396 46.6289L33.0552 46.4492L32.9419 46.2969L32.8247 46.1445C32.7172 46.0031 32.6324 45.8472 32.5747 45.6797L32.5161 45.5078L32.4536 45.332C32.4337 45.2749 32.407 45.2228 32.3677 45.1758L32.2466 45.0352L32.1294 44.8945C32.1088 44.87 32.0831 44.8525 32.0474 44.8398L31.6958 44.7148C31.4662 44.6334 31.2851 44.48 31.1528 44.2891L31.0317 44.1133L30.9106 43.9414C30.8854 43.9049 30.8655 43.8931 30.8481 43.8867L30.4731 43.7539C30.4032 43.7292 30.3326 43.7152 30.2583 43.7148H29.8638C29.7553 43.7145 29.6459 43.7197 29.5396 43.7344Z" fill="#CDDAFF"/>
<circle cx="40.5392" cy="30.5529" r="3.85366" fill="#CDDAFF"/>
<path d="M40.7363 26.1289C40.9774 25.999 41.2537 25.9642 41.5293 26.0664L41.7168 26.1328L41.9082 26.2031C42.1156 26.2806 42.2932 26.4104 42.4355 26.5781L42.7012 26.8906C42.7075 26.8981 42.7117 26.9017 42.7129 26.9023C42.7147 26.9033 42.7223 26.9075 42.7402 26.9102L43.1699 26.9727C43.3183 26.9945 43.4721 27.0537 43.6035 27.1719C43.6697 27.2314 43.7238 27.2966 43.7637 27.3672L43.8496 27.582L43.9004 27.793L43.9551 28.0039C43.9843 28.1188 44.0178 28.213 44.0527 28.2891L44.2012 28.6172C44.2232 28.6648 44.2624 28.7177 44.3223 28.7773L44.6113 29.0664C44.7163 29.171 44.8024 29.3094 44.8379 29.4766C44.8726 29.6418 44.8484 29.7983 44.7988 29.9336L44.7285 30.1328L44.7051 30.1875C44.7677 30.2554 44.8126 30.322 44.8379 30.375C44.8773 30.458 44.9071 30.5479 44.9277 30.6328L44.9746 30.832L45.0254 31.0352C45.0845 31.2811 45.057 31.5302 44.9395 31.7578L44.8457 31.9375L44.7559 32.1133C44.6584 32.3017 44.5201 32.4606 44.3496 32.5859L44.1855 32.707L44.0176 32.8281C43.9963 32.844 43.9913 32.8572 43.9863 32.875L43.9316 33.0664L43.877 33.2617C43.8051 33.5174 43.6441 33.7275 43.4004 33.8516L43.0566 34.0234C42.9267 34.0894 42.7943 34.1498 42.6621 34.1992L42.4902 34.2617L42.3223 34.3242C42.2121 34.3654 42.1015 34.41 41.9941 34.4531L41.8301 34.5195L41.6621 34.5859C41.5162 34.6445 41.3647 34.6859 41.209 34.7109L41.0293 34.7383L40.8496 34.7695C40.7732 34.7818 40.6836 34.806 40.5801 34.8477L40.3809 34.9297L40.1816 35.0078C40.0396 35.065 39.8725 35.0902 39.6973 35.0508C39.5241 35.0117 39.3865 34.9199 39.2832 34.8125L38.9785 34.4922C38.9202 34.4313 38.8736 34.4083 38.8457 34.3984L38.6738 34.3359L38.502 34.2773C38.3976 34.2405 38.2822 34.2035 38.1582 34.168L37.959 34.1094L37.7598 34.0547C37.5179 33.9854 37.3117 33.8394 37.1699 33.625L37.0605 33.4609L36.9512 33.293C36.8869 33.1959 36.8178 33.0998 36.7441 33.0078L36.4941 32.6953C36.3709 32.5414 36.2778 32.3684 36.2207 32.1797L36.1621 31.9883L36.1074 31.7969C36.0349 31.5573 36.0462 31.3145 36.1309 31.0859L36.2051 30.8828L36.2793 30.6836C36.2986 30.6314 36.2999 30.6 36.2949 30.5781L36.248 30.3906L36.2051 30.1992C36.1654 30.0264 36.1526 29.85 36.1621 29.6719L36.1699 29.4727L36.1816 29.2734L36.2207 29.0547C36.2822 28.8516 36.4124 28.6833 36.5879 28.5625L36.7676 28.4414L36.9434 28.3164C36.9977 28.279 37.0173 28.2489 37.0254 28.2305L37.1035 28.0586L37.1777 27.8867C37.2429 27.739 37.3246 27.5983 37.4199 27.4648L37.5332 27.3047L37.6504 27.1445L37.7988 26.9805C37.9638 26.8407 38.169 26.7735 38.3848 26.7734H38.791L38.916 26.6172L39.0527 26.4453C39.1464 26.3276 39.2805 26.2158 39.459 26.1641C39.6395 26.1122 39.814 26.1369 39.959 26.1914L40.1621 26.2656L40.3457 26.3398L40.7363 26.1289ZM41.0137 27.1133L40.8184 27.2188C40.566 27.3548 40.2844 27.3808 40.0098 27.2773L39.8066 27.2031L39.7441 27.1758L39.6973 27.2383L39.5605 27.4141C39.3767 27.6445 39.1149 27.7738 38.8145 27.7734H38.4316L38.3496 27.8867L38.2324 28.0469C38.1755 28.1268 38.128 28.2071 38.0918 28.2891L38.0176 28.4648L37.9395 28.6367C37.8459 28.848 37.6933 29.0143 37.5098 29.1406L37.334 29.2656L37.1777 29.3672L37.1699 29.5234L37.1582 29.7266C37.1537 29.8138 37.1634 29.8975 37.1816 29.9766L37.2246 30.1641L37.2676 30.3555C37.3205 30.5863 37.2967 30.8156 37.2168 31.0312L37.1426 31.2305L37.0684 31.4336C37.0541 31.4724 37.0596 31.4918 37.0645 31.5078L37.1191 31.6992L37.1777 31.8906C37.198 31.9575 37.2318 32.016 37.2754 32.0703L37.5254 32.3828C37.6183 32.4988 37.7056 32.619 37.7871 32.7422L37.8965 32.9102L38.0059 33.0742C38.0083 33.0778 38.0089 33.0812 38.0098 33.082H38.0137C38.0153 33.0832 38.0199 33.0899 38.0332 33.0938L38.2324 33.1484L38.4316 33.207C38.5729 33.2475 38.7082 33.2876 38.834 33.332L39.1777 33.457C39.3803 33.5286 39.5563 33.6494 39.7012 33.8008L39.8535 33.9609L39.9199 34.0312L40.0059 34L40.2051 33.9219C40.3664 33.8569 40.531 33.8073 40.6934 33.7812L40.8691 33.7539L41.0488 33.7227C41.1321 33.7093 41.2147 33.6869 41.291 33.6562L41.4551 33.5898L41.623 33.5234C41.7374 33.4775 41.8537 33.4344 41.9707 33.3906L42.1426 33.3242L42.3145 33.2617C42.4094 33.2261 42.5056 33.1825 42.6035 33.1328L42.7754 33.0469L42.9199 32.9727L42.9707 32.7969L43.0215 32.6055C43.088 32.3665 43.2299 32.1689 43.4277 32.0234L43.7559 31.7812C43.8047 31.7453 43.8402 31.7041 43.8652 31.6562L43.959 31.4766L44.0527 31.2891V31.2695L44.002 31.0703L43.9551 30.8711C43.953 30.8626 43.9491 30.8545 43.9473 30.8477L43.8926 30.8125C43.6844 30.6643 43.6492 30.4409 43.6504 30.3125C43.6517 30.1878 43.6847 30.0716 43.7168 29.9844L43.7871 29.7852L43.8223 29.6914L43.7598 29.6289L43.6152 29.4883C43.4822 29.3557 43.373 29.2012 43.2949 29.0312L43.2168 28.8711L43.1426 28.707C43.0776 28.5656 43.0277 28.4094 42.9863 28.2461L42.9316 28.0391L42.9082 27.9414L42.8105 27.9297L42.5957 27.8984C42.339 27.8609 42.1111 27.7413 41.9395 27.5391L41.8066 27.3828L41.6738 27.2227C41.6382 27.1806 41.5987 27.1563 41.5566 27.1406L41.3691 27.0703L41.2051 27.0078L41.0137 27.1133Z" fill="#CDDAFF"/>
<circle cx="40.5392" cy="63.9513" r="3.85366" fill="#CDDAFF"/>
<path d="M40.7871 59.4492L40.9824 59.457C41.1295 59.4638 41.2767 59.4779 41.4238 59.5L41.6191 59.5312L41.8184 59.5586C42.0246 59.5896 42.2169 59.667 42.3887 59.7852L42.7168 60.0117C42.818 60.0813 42.9221 60.1484 43.0254 60.2109L43.3613 60.4141C43.6007 60.5596 43.7452 60.7848 43.8027 61.043L43.8965 61.4648C43.9099 61.5253 43.9292 61.5484 43.9395 61.5586L44.0723 61.6914L44.2051 61.8203C44.3044 61.9186 44.4047 62.0268 44.502 62.1406L44.7676 62.4531C44.9669 62.6866 45.0281 62.9787 44.9473 63.2695L44.8887 63.4727L44.834 63.6758C44.8312 63.6858 44.8283 63.6948 44.8262 63.7031C44.8931 63.8582 44.8734 64.0057 44.8652 64.0586C44.8531 64.137 44.831 64.2169 44.8066 64.2891L44.748 64.4688L44.6855 64.6445C44.6758 64.6733 44.6699 64.716 44.6816 64.7812L44.7207 64.9883L44.7598 65.1992C44.8024 65.4344 44.7725 65.6703 44.666 65.8906L44.4941 66.25C44.374 66.4978 44.1685 66.6639 43.9238 66.7539L43.7207 66.832L43.5137 66.9062C43.4243 66.9393 43.3726 66.976 43.3418 67.0039L43.209 67.1211L43.0762 67.2422C42.9997 67.3116 42.9213 67.3911 42.8418 67.4766L42.5762 67.7578C42.46 67.8827 42.3297 67.9938 42.1855 68.0898L42.0176 68.2031L41.8457 68.3164C41.6559 68.4429 41.442 68.5131 41.2129 68.5195L41.0098 68.5234L40.8105 68.5312C40.5765 68.5376 40.3559 68.4745 40.1582 68.3555L39.9746 68.2461L39.7949 68.1367C39.7505 68.1099 39.7185 68.1046 39.6934 68.1055L39.3027 68.1211C39.0441 68.1301 38.8043 68.0421 38.6113 67.8672L38.4668 67.7383L38.3262 67.6094C38.2835 67.5707 38.2296 67.5408 38.166 67.5195L37.9785 67.4531L37.7871 67.3906C37.5997 67.3278 37.4297 67.2299 37.2793 67.1016L36.9746 66.8438C36.7952 66.6906 36.6722 66.4925 36.6113 66.2656L36.5566 66.0703L36.5059 65.8711C36.4786 65.7695 36.4426 65.6743 36.4004 65.5859L36.3184 65.4102L36.2324 65.2344C36.138 65.0365 36.1008 64.8236 36.1191 64.6055L36.1348 64.4102L36.1504 64.2109C36.1594 64.1049 36.1606 64.0009 36.1543 63.8984L36.1309 63.5156C36.1198 63.3368 36.1385 63.1584 36.1816 62.9844L36.2285 62.793L36.2754 62.6055C36.3267 62.4003 36.4231 62.2152 36.5645 62.0586L36.8301 61.7695C36.9255 61.6639 37.0211 61.562 37.1191 61.4688L37.3848 61.2188C37.4568 61.1502 37.5252 61.0742 37.5879 60.9961L37.7012 60.8555L37.8145 60.7109C37.9071 60.5954 38.0118 60.486 38.123 60.3828L38.2637 60.25L38.4043 60.1211C38.5681 59.9692 38.7661 59.8717 38.9863 59.832L39.1738 59.7969L39.3652 59.7617C39.4565 59.7452 39.5478 59.7198 39.6387 59.6836L39.8223 59.6094L40.002 59.5391C40.1889 59.4646 40.3869 59.4285 40.5879 59.4375L40.7871 59.4492ZM40.373 60.4648L40.1895 60.5391L40.0098 60.6133C39.8578 60.6738 39.7004 60.7174 39.541 60.7461L39.3535 60.7812L39.1621 60.8164C39.132 60.8221 39.108 60.8332 39.084 60.8555L38.9434 60.9844L38.8027 61.1172C38.7259 61.1885 38.6561 61.2606 38.5957 61.3359L38.4824 61.4805L38.3652 61.625C38.2751 61.7373 38.1764 61.8424 38.0723 61.9414L37.9395 62.0664L37.8105 62.1953C37.7323 62.2698 37.6517 62.3497 37.5723 62.4375L37.4395 62.5859L37.3066 62.7305C37.2742 62.7667 37.2551 62.8041 37.2441 62.8477L37.1504 63.2227C37.1315 63.2986 37.1261 63.3764 37.1309 63.4531L37.1543 63.8359C37.1638 63.9888 37.1596 64.1426 37.1465 64.2969L37.1152 64.6875C37.1116 64.7299 37.1172 64.7679 37.1348 64.8047L37.2207 64.9805L37.3027 65.1562C37.3724 65.3021 37.4282 65.4546 37.4707 65.6133L37.5254 65.8086L37.5762 66.0078C37.5853 66.0411 37.5995 66.0619 37.623 66.082L37.7754 66.2109L37.9277 66.3438C37.9802 66.3884 38.0385 66.4194 38.1035 66.4414L38.2949 66.5078L38.4863 66.5703C38.6754 66.6338 38.846 66.7331 38.9941 66.8672L39.1387 66.9961L39.2715 67.1172L39.4629 67.1133L39.6582 67.1055C39.8934 67.0969 40.1138 67.1626 40.3105 67.2812L40.4941 67.3906L40.6738 67.5C40.7168 67.5258 40.7505 67.5321 40.7832 67.5312L40.9824 67.5273L41.1855 67.5195C41.2231 67.5184 41.2548 67.5085 41.291 67.4844L41.4629 67.3711L41.6309 67.2578C41.7134 67.2028 41.7852 67.1431 41.8457 67.0781L41.9785 66.9375L42.1113 66.793C42.2082 66.6889 42.3052 66.5899 42.4043 66.5L42.5371 66.3828L42.6699 66.2617C42.8148 66.1306 42.9865 66.0363 43.1699 65.9688L43.373 65.8906L43.5801 65.8164C43.5878 65.8136 43.5925 65.8103 43.5957 65.8086L43.6816 65.6367L43.7676 65.457C43.7758 65.4399 43.7825 65.4193 43.7754 65.3789L43.7363 65.168L43.6973 64.9609C43.6589 64.7498 43.6701 64.5325 43.7402 64.3242L43.7988 64.1484L43.8574 63.9688C43.8014 63.8227 43.8129 63.6841 43.8184 63.6406C43.8281 63.5643 43.8476 63.4836 43.8691 63.4062L43.9277 63.2031L43.9668 63.0547L43.873 62.9453L43.7402 62.7891C43.6593 62.6944 43.5796 62.608 43.502 62.5312L43.3691 62.4023L43.2363 62.2695C43.0696 62.1045 42.9685 61.8989 42.9199 61.6797L42.873 61.4688L42.8262 61.2617L42.8223 61.2578L42.6738 61.168L42.5059 61.0664C42.386 60.9938 42.2672 60.9163 42.1504 60.8359L41.8223 60.6094C41.7753 60.5771 41.7258 60.5553 41.6699 60.5469L41.4746 60.5195L41.2754 60.4883C41.1614 60.4712 41.048 60.4622 40.9355 60.457L40.7402 60.4453L40.5449 60.4375C40.486 60.4348 40.4291 60.4425 40.373 60.4648Z" fill="#CDDAFF"/>
<circle cx="61.8537" cy="63.9513" r="3.85366" fill="#CDDAFF"/>
<path d="M63.1172 59.6523C63.2659 59.6456 63.4124 59.6778 63.5469 59.75L63.7383 59.8867L63.8828 60.0273L64.0312 60.168C64.0656 60.2004 64.1057 60.2236 64.1602 60.2383L64.3633 60.293L64.5625 60.3477C64.8386 60.4212 65.0563 60.5998 65.1758 60.8633L65.3477 61.2383C65.4006 61.3554 65.4514 61.4666 65.5039 61.5703L65.6758 61.9062C65.7208 61.9949 65.7728 62.0868 65.8359 62.1758L65.9531 62.3359L66.0664 62.5C66.1926 62.6782 66.2684 62.8795 66.2891 63.0977L66.3281 63.4883C66.3355 63.5663 66.3372 63.6482 66.332 63.7266C66.3279 63.7886 66.315 63.9232 66.2344 64.0508L66.1992 64.1094L66.1797 64.1367C66.1729 64.1575 66.1646 64.1937 66.1523 64.2461L66.1094 64.4297L66.0664 64.6094C66.0349 64.7447 66.0002 64.8781 65.957 65.0078L65.8984 65.1797L65.8398 65.3555C65.7932 65.4952 65.7362 65.6313 65.668 65.7617L65.582 65.9219L65.5 66.082C65.4372 66.2021 65.3667 66.3218 65.293 66.4375L65.1953 66.5898L65.0977 66.7461C65.0259 66.8588 64.9454 66.9723 64.8633 67.0859L64.75 67.2461L64.6328 67.4062C64.4804 67.6163 64.265 67.7524 64.0117 67.8008L63.8164 67.8359L63.6211 67.875C63.5387 67.8908 63.467 67.9185 63.4023 67.9531L63.2344 68.0391L63.0664 68.1289C62.8306 68.2551 62.5719 68.2762 62.3242 68.1992L62.1367 68.1367L61.9453 68.0781C61.8622 68.0523 61.791 68.0427 61.7305 68.043H61.5547L61.375 68.0469C61.3104 68.0473 61.2253 68.0565 61.1172 68.0859L60.9023 68.1445L60.6914 68.2031C60.5506 68.2416 60.3878 68.2524 60.2227 68.2031C60.0553 68.153 59.9212 68.0518 59.8242 67.9336L59.6953 67.7734L59.5625 67.6133C59.5083 67.5472 59.4532 67.5021 59.4023 67.4727L59.0742 67.2852C58.9191 67.1955 58.783 67.0795 58.6641 66.9453L58.4141 66.6641C58.3279 66.5669 58.2394 66.4659 58.1523 66.3633L58.0273 66.2148L57.8984 66.0625C57.6973 65.8247 57.6499 65.5343 57.7188 65.2578L57.7734 65.043L57.8281 64.832C57.835 64.8043 57.8324 64.7875 57.832 64.7812C57.8317 64.7766 57.8323 64.774 57.832 64.7734L57.7539 64.6055L57.6797 64.4336C57.6239 64.3093 57.5685 64.1758 57.5156 64.0352L57.3672 63.6367C57.3147 63.4971 57.2902 63.3379 57.3242 63.1719C57.3584 63.0062 57.4426 62.8689 57.543 62.7617L57.6914 62.6016L57.8398 62.4453C57.9339 62.3449 58.0179 62.2495 58.0898 62.1641L58.207 62.0273L58.3242 61.8867V61.8828C58.325 61.8813 58.3267 61.879 58.3281 61.875C58.3317 61.8654 58.3375 61.846 58.3398 61.8125L58.3555 61.5898L58.3711 61.3711L58.4062 61.168C58.4598 60.9704 58.5719 60.7906 58.7578 60.6602L58.9219 60.5469L59.082 60.4336C59.2365 60.3257 59.4078 60.2476 59.5898 60.1992L59.9648 60.0977C60.0944 60.0632 60.2212 60.033 60.3438 60.0039L60.6953 59.918C60.8319 59.8856 60.9713 59.8637 61.1094 59.8477L61.2891 59.8281L61.4648 59.8047C61.6183 59.7869 61.7723 59.7856 61.9258 59.8008L62.1055 59.8203L62.2812 59.8359C62.3236 59.8401 62.3891 59.839 62.4805 59.8125L62.6875 59.75L62.8984 59.6914L63.1172 59.6523ZM62.9648 60.7109L62.7578 60.7734C62.5709 60.8276 62.377 60.851 62.1836 60.832L62.0039 60.8164L61.8281 60.7969C61.7463 60.7888 61.6646 60.7913 61.582 60.8008L61.4023 60.8203L61.2266 60.8398C61.1286 60.8512 61.0282 60.8673 60.9297 60.8906L60.75 60.9336L60.5742 60.9766C60.4611 61.0034 60.344 61.0342 60.2227 61.0664L60.0352 61.1172L59.8438 61.1641C59.7762 61.1821 59.715 61.213 59.6562 61.2539L59.4922 61.3672L59.3633 61.4531L59.3516 61.6602L59.3359 61.8828C59.3198 62.1125 59.2497 62.3412 59.0898 62.5312L58.9688 62.6719L58.8516 62.8086C58.7665 62.9096 58.6741 63.018 58.5703 63.1289L58.4219 63.2852L58.332 63.375L58.375 63.4844L58.4531 63.6836C58.4995 63.8069 58.5437 63.9207 58.5898 64.0234L58.668 64.1953L58.7461 64.3633C58.8507 64.5962 58.8546 64.843 58.7969 65.0742L58.7422 65.2852L58.6992 65.4609L58.7891 65.5664L58.9141 65.7188C58.9963 65.8157 59.0792 65.9087 59.1602 66L59.2852 66.1406L59.4102 66.2852C59.458 66.339 59.513 66.3824 59.5742 66.418L59.9023 66.6055C60.0679 66.7011 60.21 66.8281 60.332 66.9766L60.4648 67.1406L60.5234 67.2109L60.6406 67.1797L60.8516 67.1211C61.0255 67.0736 61.2005 67.0478 61.3711 67.0469L61.5469 67.043H61.7227C61.8978 67.042 62.0726 67.0723 62.2422 67.125L62.4336 67.1836L62.6094 67.2383L62.7617 67.1602L62.9297 67.0703C63.0877 66.9858 63.2564 66.9245 63.4336 66.8906L63.6289 66.8555L63.8242 66.8164L63.9375 66.6602L64.0547 66.5C64.1258 66.4016 64.1935 66.3058 64.2539 66.2109L64.4492 65.8984C64.5079 65.8063 64.5639 65.7115 64.6133 65.6172L64.6953 65.457L64.7812 65.2969C64.8245 65.214 64.8609 65.1282 64.8906 65.0391L64.9492 64.8633L65.0078 64.6914C65.0409 64.5918 65.0691 64.4887 65.0938 64.3828L65.1367 64.2031L65.1797 64.0195C65.1956 63.9514 65.2115 63.8862 65.2305 63.8281C65.2469 63.7778 65.2747 63.701 65.3203 63.6289L65.332 63.6055C65.3315 63.5983 65.3328 63.5904 65.332 63.582L65.3125 63.3867L65.2969 63.1914C65.293 63.15 65.2766 63.1157 65.25 63.0781L65.1367 62.9141L65.0234 62.7539C64.9334 62.627 64.8536 62.4943 64.7852 62.3594L64.6133 62.0234C64.5531 61.9046 64.4925 61.7789 64.4336 61.6484L64.3516 61.4609L64.2773 61.3008L63.9023 61.207C63.6898 61.1503 63.4999 61.0432 63.3398 60.8906L63.1914 60.75L63.1094 60.668L62.9648 60.7109Z" fill="#CDDAFF"/>
<circle cx="50.8156" cy="13.8537" r="3.85366" fill="#CDDAFF"/>
<path d="M50.1143 9.44922L50.3096 9.46875L50.5049 9.48438C50.6057 9.49395 50.7058 9.49698 50.8018 9.48828L50.9932 9.46875L51.1846 9.45312H51.376C51.5631 9.47248 51.7375 9.54681 51.8877 9.66406L52.0439 9.78906L52.2041 9.91016H52.2236L52.6611 9.86328L52.8994 9.87109C52.9811 9.88501 53.0649 9.91189 53.1455 9.95703C53.2271 10.0028 53.2937 10.0613 53.3486 10.125L53.4775 10.3242L53.5674 10.5234L53.6572 10.7188C53.7043 10.821 53.7528 10.8991 53.7979 10.957L54.0166 11.2383C54.0828 11.3234 54.1537 11.4089 54.2275 11.4922L54.4697 11.7656C54.5608 11.8685 54.6498 11.9776 54.7354 12.0938L54.8525 12.2539L54.9697 12.4102C55.0927 12.5772 55.1725 12.7679 55.208 12.9727L55.2393 13.1641L55.2744 13.3555C55.288 13.4342 55.2989 13.5217 55.2979 13.6055C55.2969 13.6729 55.2875 13.8212 55.1963 13.9609L55.1846 13.9727C55.185 13.9765 55.1879 13.9802 55.1885 13.9844L55.2158 14.1797L55.2393 14.375C55.2671 14.5905 55.2408 14.8029 55.1572 15.0039L55.083 15.1836L55.0049 15.3672C54.9528 15.492 54.9009 15.6164 54.8447 15.7383L54.6807 16.0898C54.5769 16.3139 54.4073 16.4847 54.1924 16.5938L54.0088 16.6836L53.8291 16.7773C53.7298 16.8276 53.644 16.8785 53.5752 16.9297L53.2939 17.1406C53.2688 17.1593 53.2262 17.1991 53.1807 17.2812L53.0752 17.4766L52.9658 17.668C52.8951 17.7955 52.79 17.92 52.6377 18.0039C52.4831 18.0889 52.3182 18.1131 52.165 18.0977L51.958 18.0742L51.751 18.0547C51.7313 18.0528 51.7163 18.0562 51.6885 18.0742L51.5088 18.1914L51.3252 18.3086C51.0848 18.4645 50.7996 18.5117 50.5166 18.4141L50.1338 18.2812C50.0206 18.2422 49.91 18.2095 49.8018 18.1836L49.6143 18.1367L49.4268 18.0938C49.2318 18.0472 49.0535 17.9591 48.8955 17.8359L48.5908 17.6016C48.4982 17.5293 48.4038 17.4578 48.3096 17.3945L48.1533 17.293L47.9971 17.1875C47.8652 17.099 47.7423 16.9961 47.6299 16.8828L47.4932 16.7461L47.3604 16.6094C47.1927 16.4401 47.0897 16.232 47.0557 16L47.0283 15.8047L46.9971 15.6055C46.9851 15.5247 46.9629 15.4579 46.9346 15.4023L46.8525 15.2383L46.7705 15.0781C46.7038 14.9476 46.6473 14.8099 46.5986 14.668L46.5361 14.4883L46.4736 14.3047C46.3921 14.066 46.4008 13.8196 46.4971 13.5898L46.5752 13.4102L46.6494 13.2305C46.6945 13.1233 46.7318 13.019 46.7627 12.9219L46.8174 12.75L46.8721 12.582C46.8968 12.504 46.916 12.4158 46.9268 12.3164L46.9463 12.1211L46.9697 11.9258L47.0049 11.7461C47.0562 11.5697 47.1544 11.4126 47.2979 11.2852L47.4385 11.1562L47.583 11.0312C47.7092 10.9194 47.8473 10.8252 47.9971 10.75L48.1611 10.668L48.3252 10.582C48.3255 10.5819 48.348 10.5764 48.376 10.5234L48.5791 10.1328C48.6996 9.90312 48.8912 9.72258 49.1533 9.63672L49.5283 9.51172C49.7181 9.44998 49.9156 9.43036 50.1143 9.44922ZM49.8369 10.4648L49.6494 10.5234L49.4658 10.5859H49.4697L49.4658 10.5977L49.3643 10.793L49.2627 10.9844C49.1556 11.189 48.9945 11.3661 48.7744 11.4766L48.6104 11.5586L48.4463 11.6445C48.3762 11.6797 48.3103 11.7251 48.2471 11.7812L48.1025 11.9062L47.9619 12.0312L47.9424 12.2266L47.9189 12.4219C47.9018 12.5811 47.8719 12.7353 47.8252 12.8828L47.7705 13.0547L47.7158 13.2227C47.6749 13.3515 47.6271 13.4845 47.5713 13.6172L47.4971 13.7969L47.4189 13.9766V13.9805L47.4814 14.1641L47.5439 14.3438C47.5779 14.4427 47.6171 14.5349 47.6611 14.6211L47.8252 14.9492C47.9073 15.11 47.9629 15.2811 47.9893 15.4609L48.0166 15.6562L48.0439 15.8555C48.0483 15.8844 48.0599 15.8948 48.0713 15.9062L48.3369 16.1797C48.4033 16.2466 48.4758 16.3044 48.5518 16.3555L48.8643 16.5664C48.9787 16.6432 49.0933 16.7261 49.2041 16.8125L49.3564 16.9297L49.5088 17.0508C49.5538 17.0857 49.6025 17.1079 49.6572 17.1211L49.8447 17.1641L50.0322 17.2109C50.174 17.2448 50.3193 17.2868 50.4619 17.3359L50.6533 17.4023L50.8018 17.4531L50.9619 17.3516L51.1416 17.2344C51.3536 17.0964 51.5971 17.0329 51.8525 17.0586L52.0596 17.082L52.1416 17.0898L52.2002 16.9883L52.3057 16.7969C52.4033 16.6206 52.532 16.4581 52.6963 16.3359L52.8369 16.2305L52.9814 16.125C53.1016 16.0359 53.234 15.9547 53.376 15.8828L53.5557 15.793L53.7393 15.6992C53.765 15.6861 53.7704 15.6767 53.7744 15.668L53.8525 15.4922L53.9346 15.3203C53.9859 15.2092 54.0354 15.0946 54.083 14.9805L54.1572 14.8008L54.2354 14.6211C54.2511 14.5834 54.2563 14.5467 54.251 14.5039L54.2236 14.3086L54.2002 14.1133C54.1899 14.0341 54.181 13.9489 54.1846 13.8672C54.1874 13.8027 54.1982 13.6581 54.2861 13.5234L54.2549 13.332L54.2236 13.1406C54.2148 13.091 54.193 13.0472 54.1611 13.0039L54.0479 12.8477L53.9307 12.6875C53.8615 12.5936 53.7896 12.5086 53.7197 12.4297L53.5986 12.2891L53.4775 12.1523C53.3903 12.0538 53.3069 11.9536 53.2275 11.8516L53.0088 11.5703C52.908 11.4407 52.8199 11.295 52.7471 11.1367L52.6572 10.9414L52.626 10.8711L52.5439 10.8828L52.3252 10.9062C52.0643 10.9329 51.808 10.8684 51.5908 10.6992L51.4307 10.5742L51.2705 10.4531L51.2666 10.4492L51.083 10.4648L50.8916 10.4844C50.7326 10.4988 50.5718 10.4957 50.4111 10.4805L50.2158 10.4648L50.0205 10.4453C49.9578 10.4394 49.8963 10.4455 49.8369 10.4648Z" fill="#CDDAFF"/>
<circle cx="50.8156" cy="47.2521" r="3.85366" fill="#CDDAFF"/>
<path d="M50.9268 42.6875L51.1221 42.7227L51.3213 42.7578C51.5334 42.7962 51.7265 42.8833 51.8955 43.0156L52.0557 43.1406L52.2197 43.2695C52.3012 43.3332 52.3766 43.3808 52.4463 43.4141L52.6104 43.4922L52.7705 43.5664C52.8303 43.5949 52.9078 43.623 53.0088 43.6406L53.2197 43.6758L53.4268 43.7109C53.5744 43.7367 53.7257 43.8012 53.8525 43.9219C53.9785 44.0418 54.0489 44.1885 54.083 44.332L54.1338 44.543L54.1807 44.75C54.1925 44.8001 54.2099 44.8191 54.2197 44.8281L54.3643 44.957L54.5049 45.0859C54.638 45.2052 54.7526 45.3422 54.8447 45.4961L54.9463 45.6641L55.0439 45.832L55.1299 46.0117C55.1939 46.1959 55.1968 46.3906 55.1455 46.582L55.0947 46.7812L55.0479 46.9453C55.129 47.0741 55.1468 47.2023 55.1494 47.2656C55.1529 47.3536 55.1432 47.4417 55.1299 47.5195L55.0674 47.8867C55.051 47.9821 55.0417 48.0844 55.04 48.1914L55.0361 48.3906L55.0322 48.5859C55.0291 48.7944 54.9804 48.9946 54.8838 49.1797L54.7939 49.3555L54.7041 49.5273C54.5891 49.7473 54.408 49.907 54.1885 50.0078L54.001 50.0977L53.8135 50.1836C53.7351 50.2196 53.6812 50.2571 53.6455 50.293L53.5166 50.4219L53.3916 50.5508C53.2474 50.697 53.0727 50.8016 52.876 50.8594L52.7002 50.9102L52.5283 50.9609C52.4591 50.9813 52.3929 51.0102 52.3291 51.0508L52.1729 51.1523L52.0166 51.25C51.8385 51.3635 51.6388 51.427 51.4268 51.4336L51.2471 51.4375L51.0635 51.4453C50.9373 51.4492 50.8109 51.4495 50.6846 51.4492H50.3213C50.2334 51.449 50.1318 51.457 50.0166 51.4766L49.5947 51.5469C49.4436 51.5725 49.2761 51.5641 49.1143 51.4883C48.9536 51.4128 48.8404 51.2903 48.7627 51.1641L48.6455 50.9766L48.5283 50.7852C48.4672 50.686 48.4098 50.6156 48.3604 50.5664L48.1104 50.3164C48.038 50.2444 47.9602 50.1757 47.8799 50.1094L47.7393 49.9922L47.6025 49.8789C47.4956 49.7906 47.3907 49.6929 47.29 49.5898L47.0244 49.3164C46.9179 49.2072 46.8171 49.0891 46.7236 48.9609L46.6025 48.793L46.4814 48.6289C46.3016 48.3823 46.2638 48.0898 46.3564 47.8086L46.4893 47.4023C46.515 47.3237 46.5204 47.2615 46.5166 47.2109L46.5049 47.0195L46.4893 46.832C46.4778 46.6876 46.4729 46.5404 46.4775 46.3906L46.4854 46.1914L46.4893 45.9922C46.4972 45.7373 46.5938 45.506 46.7666 45.3203L46.9033 45.1719L47.04 45.0273C47.0804 44.984 47.1135 44.933 47.1338 44.8711L47.2588 44.4805L47.3525 44.2773C47.4674 44.0924 47.6441 43.962 47.8604 43.8984L48.2666 43.7812C48.4026 43.7414 48.5307 43.7022 48.6494 43.668L48.8252 43.6172L49.0049 43.5664C49.0954 43.5402 49.18 43.5073 49.2588 43.4688L49.4189 43.3906L49.5752 43.3125C49.6431 43.2793 49.7248 43.2289 49.8174 43.1562L49.9893 43.0195L50.1611 42.8867C50.3752 42.7184 50.6411 42.6366 50.9268 42.6875ZM50.6104 43.8047L50.4385 43.9414C50.3023 44.0485 50.1608 44.1404 50.0166 44.2109L49.6963 44.3672C49.5639 44.4318 49.4259 44.4858 49.2822 44.5273L49.1025 44.5781L48.9268 44.6289C48.8096 44.6627 48.6826 44.6988 48.5479 44.7383L48.3447 44.7969L48.1924 44.8398L48.1455 44.9844L48.083 45.1797C48.0187 45.377 47.916 45.5549 47.7744 45.707L47.6377 45.8555L47.501 46C47.4967 46.0046 47.4941 46.0103 47.4932 46.0117H47.4893C47.489 46.0128 47.4894 46.0181 47.4893 46.0234L47.4854 46.2227L47.4775 46.4219C47.474 46.5369 47.4769 46.648 47.4854 46.7539L47.5166 47.1289C47.5325 47.3283 47.5008 47.5252 47.4385 47.7148L47.3721 47.918L47.3174 48.0781L47.4111 48.207L47.5322 48.3711C47.5999 48.4639 47.6682 48.5483 47.7393 48.6211L48.0049 48.8945C48.0821 48.9737 48.1615 49.0452 48.2393 49.1094L48.376 49.2227L48.5166 49.3359C48.6201 49.4214 48.7191 49.5117 48.8135 49.6055L48.9385 49.7305L49.0674 49.8555C49.1846 49.9721 49.2871 50.1109 49.3799 50.2617L49.4971 50.4531L49.5518 50.5391L49.6377 50.5273L49.8447 50.4922C50.0073 50.4644 50.1677 50.449 50.3213 50.4492H50.6846C50.7999 50.4495 50.9171 50.4489 51.0322 50.4453L51.2158 50.4375L51.3955 50.4336C51.4248 50.4327 51.4495 50.424 51.4775 50.4062L51.6338 50.3086L51.79 50.207C51.9323 50.1163 52.0856 50.0474 52.2471 50L52.4189 49.9492L52.5947 49.8984C52.6294 49.8882 52.6566 49.8721 52.6807 49.8477L52.9307 49.5898C53.0633 49.4555 53.2232 49.3525 53.3955 49.2734L53.7705 49.1016C53.8027 49.0868 53.8118 49.0731 53.8174 49.0625L53.9971 48.7188C54.0207 48.6735 54.0314 48.6246 54.0322 48.5703L54.0361 48.375L54.04 48.1758C54.0424 48.0202 54.0574 47.8679 54.083 47.7188L54.1143 47.5352L54.1377 47.3828C54.0243 47.2228 54.0253 47.0487 54.0283 46.9844C54.0329 46.8923 54.0535 46.7997 54.0752 46.7188L54.126 46.5195L54.1768 46.3281L54.0869 46.1758L53.9854 46.0078C53.9439 45.9388 53.897 45.8785 53.8408 45.8281L53.6963 45.7031L53.5557 45.5742C53.3754 45.4129 53.2614 45.2066 53.208 44.9805L53.1611 44.7734L53.1338 44.6719L53.0479 44.6602L52.8408 44.625C52.6652 44.5945 52.4962 44.5428 52.3408 44.4688L52.1768 44.3945L52.0166 44.3164C51.8718 44.2473 51.7344 44.158 51.6025 44.0547L51.4385 43.9297L51.2783 43.8047C51.2335 43.7695 51.1894 43.7508 51.1416 43.7422L50.9463 43.707L50.7744 43.6758L50.6104 43.8047Z" fill="#CDDAFF"/>
<circle cx="69.8537" cy="47.2521" r="3.85366" fill="#CDDAFF"/>
<path d="M70.0039 42.8359L70.3789 42.9375C70.4584 42.9588 70.5423 42.97 70.6289 42.9688L70.8242 42.9648L71.0234 42.9609C71.2621 42.9578 71.4861 43.0305 71.6797 43.1719L71.8398 43.2852L71.9961 43.4023C72.1115 43.4866 72.2229 43.5734 72.3281 43.6641L72.4727 43.7891L72.6133 43.9102C72.6918 43.9778 72.7783 44.0438 72.8711 44.1055L73.1992 44.3242C73.4167 44.4692 73.5603 44.6807 73.6172 44.9336L73.7031 45.3242C73.7241 45.4177 73.7567 45.5012 73.793 45.5742L73.875 45.7383L73.957 45.9062C74.0577 46.1087 74.0926 46.3284 74.0625 46.5508L74.0352 46.7422L74.0156 46.8672C74.0966 46.9528 74.1448 47.044 74.168 47.1016C74.1979 47.1762 74.2238 47.2598 74.2422 47.3398L74.2852 47.5391L74.332 47.7383C74.3668 47.8911 74.3609 48.0577 74.2969 48.2188C74.2342 48.3758 74.1281 48.4943 74.0156 48.582L73.8359 48.7227L73.6992 48.8242L73.7266 49L73.7578 49.2266C73.7963 49.4986 73.7395 49.7805 73.5391 50.0078L73.4062 50.1562L73.2734 50.3086C73.1459 50.4529 72.9944 50.5701 72.8242 50.6602L72.4727 50.8477C72.3758 50.899 72.2849 50.9576 72.1992 51.0195L72.043 51.1328L71.8828 51.2461C71.642 51.42 71.363 51.4516 71.0977 51.3828L70.6758 51.2734C70.6191 51.2589 70.5972 51.2682 70.5938 51.2695L70.25 51.3945C70.0466 51.4696 69.8334 51.485 69.6211 51.4375L69.4414 51.3984L69.2656 51.3594C69.1858 51.3414 69.1017 51.3323 69.0117 51.332H68.8203L68.6328 51.3281C68.3857 51.3278 68.1582 51.2422 67.9727 51.0781L67.832 50.957L67.6914 50.832C67.6756 50.8181 67.6458 50.7999 67.5859 50.7891L67.375 50.75L67.1641 50.7148C66.8591 50.6612 66.6117 50.4681 66.5 50.1641L66.4336 49.9766L66.3633 49.7852C66.316 49.6565 66.2681 49.5309 66.2266 49.4141L66.168 49.2422L66.1055 49.0703C66.0877 49.0204 66.0574 48.9673 66.0078 48.9102L65.7422 48.6055C65.5591 48.395 65.479 48.1283 65.5273 47.8477L65.5625 47.6562L65.5938 47.4648C65.6043 47.4037 65.6046 47.3428 65.5898 47.2812L65.4961 46.8984C65.4494 46.7025 65.4452 46.5025 65.4844 46.3047L65.5625 45.9219C65.5953 45.7568 65.6449 45.595 65.7148 45.4414L65.7969 45.2656L65.8789 45.0859C65.98 44.8641 66.1462 44.6935 66.3555 44.5781L66.5352 44.4766L66.7148 44.3789C66.77 44.3485 66.805 44.316 66.8281 44.2812L67.0391 43.9609C67.1694 43.7654 67.3517 43.6212 67.5742 43.543L67.9336 43.418C68.0737 43.3688 68.2171 43.3297 68.3594 43.3008L68.5352 43.2656L68.7148 43.2266C68.7732 43.2147 68.8379 43.1913 68.9102 43.1484L69.0859 43.0469L69.2578 42.9414C69.4272 42.8408 69.6156 42.7933 69.8086 42.8047L70.0039 42.8359ZM69.5977 43.9062L69.4219 44.0078C69.2632 44.1021 69.0936 44.1705 68.9141 44.207L68.7344 44.2461L68.5586 44.2812C68.4627 44.3008 68.3647 44.3286 68.2656 44.3633L67.9062 44.4883C67.8904 44.4939 67.8823 44.4989 67.8711 44.5156L67.6602 44.8359C67.5415 45.0139 67.3805 45.1519 67.1953 45.2539L67.0156 45.3555L66.8359 45.4531C66.8056 45.4699 66.7963 45.4843 66.7891 45.5L66.625 45.8594C66.5871 45.9429 66.5605 46.0288 66.543 46.1172L66.4648 46.5C66.454 46.5555 66.455 46.6107 66.4688 46.668L66.5625 47.0508C66.6082 47.2427 66.6154 47.4383 66.582 47.6328L66.5469 47.8242L66.5195 47.9766L66.6289 48.1016L66.7617 48.25C66.8865 48.3931 66.983 48.5555 67.0469 48.7344L67.1094 48.9102L67.1719 49.082C67.2118 49.1944 67.255 49.3128 67.3008 49.4375L67.3711 49.6289L67.4102 49.7422L67.5469 49.7656L67.7578 49.8008C67.9759 49.8392 68.1798 49.9303 68.3516 50.082L68.6328 50.332H68.8242H69.0117C69.1721 50.3323 69.3299 50.3481 69.4844 50.3828L69.6641 50.4219L69.8398 50.4609C69.8619 50.4658 69.8787 50.4655 69.9023 50.457L70.2461 50.332C70.4727 50.2484 70.7063 50.2518 70.9258 50.3086L71.1367 50.3633L71.3281 50.4102L71.457 50.3203L71.6133 50.207C71.7376 50.1172 71.8705 50.0375 72.0078 49.9648L72.3594 49.7773C72.4227 49.7437 72.4754 49.6989 72.5234 49.6445L72.6562 49.4961L72.7695 49.3672L72.7383 49.1406L72.7031 48.9102C72.6568 48.5825 72.7759 48.2795 73.0391 48.0742L73.2227 47.9336L73.3281 47.8477L73.3125 47.7617L73.2656 47.5625C73.2605 47.5401 73.2542 47.5223 73.25 47.5078L73.2031 47.4648C73.0596 47.3308 73.0224 47.1634 73.0117 47.0742C72.9999 46.9752 73.0081 46.8764 73.0195 46.793L73.0469 46.6055L73.0703 46.418C73.0742 46.3899 73.0723 46.3713 73.0625 46.3516L72.9805 46.1836L72.8945 46.0195C72.8201 45.8699 72.7678 45.7092 72.7305 45.543L72.6836 45.3477L72.6406 45.1523L72.4805 45.0469L72.3164 44.9375C72.1907 44.8539 72.0722 44.7639 71.9609 44.668L71.8164 44.5469L71.6758 44.4219C71.5916 44.3493 71.501 44.2801 71.4062 44.2109L71.25 44.0938L71.0898 43.9805C71.0729 43.9681 71.0598 43.9606 71.0352 43.9609L70.8398 43.9648L70.6406 43.9688C70.4642 43.9711 70.2908 43.9478 70.1211 43.9023L69.9336 43.8516L69.7578 43.8047L69.5977 43.9062Z" fill="#CDDAFF"/>
<circle cx="61.5202" cy="30.5529" r="3.85366" fill="#CDDAFF"/>
<path d="M60.9438 26.2539L61.1392 26.3242L61.3384 26.3906C61.4152 26.4174 61.4718 26.4245 61.5142 26.4219L61.8735 26.3984C62.0107 26.3894 62.1501 26.3891 62.2915 26.3945L62.479 26.4023L62.6704 26.4062C62.8892 26.4149 63.095 26.4853 63.2759 26.6094L63.4282 26.7148L63.5845 26.8203C63.6286 26.8505 63.6875 26.8768 63.7681 26.8945L63.9712 26.9414L64.1743 26.9844C64.4221 27.0388 64.6412 27.1723 64.7954 27.3828L64.9087 27.543L65.0259 27.7031C65.0996 27.8038 65.178 27.9018 65.2563 28L65.5063 28.3125C65.6828 28.534 65.7406 28.8 65.7017 29.0664L65.6704 29.2812L65.6392 29.4922C65.6212 29.6148 65.6155 29.7219 65.6157 29.8125V30.1094L65.7368 30.2344C65.8292 30.3687 65.8421 30.5192 65.8345 30.6211C65.8251 30.7467 65.7818 30.858 65.7446 30.9375L65.6626 31.1133L65.5806 31.2852C65.5612 31.3266 65.5548 31.3683 65.5571 31.4141L65.5688 31.6055L65.5767 31.7969C65.5878 32.0109 65.5467 32.2223 65.4478 32.4141L65.3618 32.5781L65.2759 32.7461C65.2294 32.8361 65.1829 32.9363 65.1431 33.0469L65.0767 33.2383L65.0063 33.4336C64.8978 33.7346 64.6575 33.9281 64.3579 33.9922L64.147 34.0352L63.936 34.082C63.8322 34.1042 63.7524 34.1329 63.6938 34.1641L63.3735 34.3359C63.2432 34.4051 63.1072 34.4611 62.9673 34.5078L62.6235 34.625C62.4719 34.6756 62.3141 34.7088 62.1548 34.7227L61.7954 34.7539C61.6511 34.7664 61.5064 34.7666 61.3618 34.7578L61.1782 34.7461L60.9985 34.7344C60.8213 34.7234 60.65 34.6833 60.4868 34.6133L60.3188 34.543L60.1548 34.4727C60.0482 34.4268 59.9413 34.3788 59.8345 34.3359L59.6665 34.2695L59.5024 34.2031C59.3731 34.1513 59.2447 34.0914 59.1196 34.0234L58.9556 33.9336L58.7915 33.8477C58.6275 33.7585 58.4856 33.6392 58.3657 33.4961L58.2446 33.3555L58.1274 33.2109C57.9936 33.0513 57.9035 32.8673 57.8618 32.6641L57.8228 32.4766L57.7876 32.293C57.767 32.1923 57.74 32.0997 57.7095 32.0156L57.647 31.8477L57.5884 31.6836C57.5618 31.611 57.5222 31.5304 57.4673 31.4414L57.2563 31.0977C57.1032 30.8497 57.0734 30.5598 57.1899 30.2852L57.2681 30.1055L57.3423 29.9258C57.3835 29.8286 57.4149 29.7357 57.436 29.6484L57.522 29.2969C57.5479 29.1893 57.5738 29.075 57.5962 28.957L57.6665 28.582C57.7094 28.3563 57.8168 28.1529 57.9829 27.9922L58.1196 27.8633L58.2524 27.7305C58.375 27.6119 58.5135 27.5109 58.6626 27.4297L58.8267 27.3398L58.9868 27.2539C59.088 27.1988 59.1868 27.1428 59.2798 27.0859L59.4321 26.9922L59.5806 26.8984C59.6447 26.8592 59.7161 26.8041 59.7915 26.7305L59.9399 26.5898L60.0845 26.4453C60.1888 26.3434 60.3239 26.2585 60.4868 26.2227C60.568 26.2049 60.6489 26.2006 60.7251 26.207L60.9438 26.2539ZM60.6392 27.3047L60.4907 27.4453C60.3701 27.5632 60.2413 27.6699 60.104 27.7539L59.9517 27.8438L59.8032 27.9375C59.6956 28.0034 59.5823 28.0662 59.4673 28.1289L59.1392 28.3086C59.0714 28.3456 59.0066 28.3923 58.9478 28.4492L58.8149 28.582L58.6782 28.7109C58.6629 28.7257 58.6519 28.7405 58.647 28.7656L58.6118 28.957L58.5767 29.1445C58.5514 29.2773 58.5247 29.4068 58.4946 29.5312L58.4087 29.8828C58.3736 30.0281 58.325 30.1731 58.2642 30.3164L58.186 30.4961L58.1313 30.6172L58.2095 30.7422L58.3188 30.9141C58.4047 31.0531 58.4727 31.1979 58.5259 31.3438L58.5884 31.5078L58.647 31.6719C58.6959 31.8063 58.7343 31.9481 58.7642 32.0938L58.8032 32.2773L58.8423 32.4648C58.8513 32.5076 58.8681 32.5406 58.8931 32.5703L59.0103 32.7109L59.1313 32.8555C59.1705 32.9021 59.2149 32.9397 59.2681 32.9688L59.4321 33.0586L59.5962 33.1445C59.6886 33.1947 59.7814 33.2404 59.8735 33.2773L60.0376 33.3438L60.2056 33.4102C60.3201 33.4561 60.4352 33.5017 60.5493 33.5508L60.7134 33.625L60.8813 33.6953C60.9385 33.7197 60.9981 33.7344 61.061 33.7383L61.2407 33.75L61.4204 33.7578C61.5164 33.7637 61.6138 33.7661 61.7095 33.7578L62.0688 33.7266C62.1499 33.7195 62.2299 33.7015 62.3071 33.6758L62.479 33.6172L62.6509 33.5625C62.7385 33.5333 62.8233 33.4964 62.9048 33.4531L63.2251 33.2812C63.3791 33.1993 63.5481 33.1435 63.7251 33.1055L63.9399 33.0586L64.0884 33.0234L64.1353 32.9023L64.2056 32.707C64.2587 32.5596 64.3171 32.4172 64.3853 32.2852L64.4712 32.1211L64.5571 31.9531C64.5726 31.9231 64.5825 31.8926 64.5806 31.8516L64.5688 31.6602L64.5571 31.4648C64.5465 31.2557 64.5894 31.053 64.6782 30.8633L64.7563 30.6875L64.7603 30.6719C64.704 30.5947 64.6684 30.5187 64.6509 30.457C64.6231 30.3592 64.616 30.2604 64.6157 30.1758V29.8164C64.6153 29.6677 64.6272 29.5097 64.6509 29.3477L64.6821 29.1367L64.7134 28.9219L64.6001 28.7812L64.4751 28.625C64.388 28.5159 64.3033 28.405 64.2212 28.293L63.9868 27.9727L63.979 27.9648C63.9762 27.9637 63.9708 27.9627 63.9634 27.9609L63.7563 27.918L63.5532 27.8711C63.3615 27.829 63.18 27.7555 63.0181 27.6445L62.8657 27.5391L62.7095 27.4336C62.6849 27.4168 62.6625 27.4075 62.6313 27.4062L62.4438 27.3984L62.2563 27.3945C62.1477 27.3904 62.0411 27.3918 61.9399 27.3984L61.5806 27.4219C61.3844 27.4347 61.1907 27.4003 61.0063 27.3359L60.811 27.2695L60.7095 27.2305L60.6392 27.3047Z" fill="#CDDAFF"/>
</g>
<defs>
<clipPath id="clip0_452_2529">
<rect x="10" y="10" width="60" height="60" rx="30" fill="white"/>
</clipPath>
</defs>
</svg>
