<svg width="80" height="80" viewBox="0 0 80 80" fill="none" xmlns="http://www.w3.org/2000/svg">
<circle cx="40" cy="40" r="40" fill="white"/>
<path d="M30.1406 61.1259C28.8856 61.3049 27.7269 61.1954 26.6728 60.8969C20.9612 59.2798 20.7474 52.414 25.0386 48.3125C26.7299 46.696 28.5259 44.784 29.9005 42.3308C32.8637 37.0426 31.3304 32.3198 40.3603 32.3198C49.3902 32.3198 47.9675 37.0426 51.0052 42.3308C51.8374 43.7795 52.8138 45.0395 53.8232 46.1614C58.9974 51.9124 58.3153 61.1259 50.5792 61.1259C47.1727 61.1259 44.6179 59.1823 40.3599 59.1823C36.1019 59.1823 36.9535 60.1541 30.1406 61.1259Z" fill="#FFE2DE"/>
<path d="M41.3062 31.6011H41.4976C41.7671 31.6033 41.9993 31.714 42.1851 31.8745L42.3608 32.0269L42.4585 32.1128L42.564 32.062L42.7632 31.9604C42.9501 31.8669 43.161 31.8273 43.3726 31.8706L43.5835 31.9409L43.7593 32.0269L43.9312 32.1089C44.0285 32.1559 44.127 32.1984 44.2241 32.23L44.4038 32.2847L44.5835 32.3433C44.7043 32.3825 44.8236 32.4243 44.9429 32.4644L45.1187 32.5229L45.2983 32.5815C45.4503 32.6326 45.5945 32.7021 45.7319 32.7847L45.8921 32.8784L46.0522 32.9761C46.1165 33.0147 46.1919 33.0464 46.2788 33.0698L46.4702 33.1206L46.6616 33.1753C46.8649 33.23 47.0349 33.3414 47.1577 33.4995L47.2632 33.6714L47.353 33.855L47.4429 34.0347C47.4854 34.1214 47.5344 34.1931 47.5835 34.2495L47.7007 34.3862L47.8218 34.5269C47.9107 34.6291 47.9984 34.7337 48.0796 34.8433L48.2983 35.1401C48.3918 35.2663 48.4738 35.404 48.5405 35.5464L48.6968 35.8823C48.7636 36.0251 48.8157 36.1738 48.853 36.3276L48.8999 36.5112L48.9429 36.6948C48.9578 36.7556 48.9834 36.812 49.021 36.8667L49.1304 37.0269L49.2397 37.1831C49.2937 37.2611 49.3577 37.3402 49.4351 37.4175L49.5796 37.562L49.728 37.7065C49.8904 37.8687 50.0049 38.0718 50.0483 38.3042L50.0796 38.4917L50.1147 38.6753C50.1342 38.7794 50.1612 38.882 50.1929 38.98L50.2515 39.1558L50.3062 39.3354C50.3335 39.4202 50.3703 39.5032 50.4155 39.5815L50.5093 39.7417L50.603 39.9058C50.6803 40.0395 50.7462 40.1792 50.7983 40.3237L50.8608 40.4995L50.9272 40.6753C50.9665 40.784 51.0079 40.8922 51.0522 40.9995L51.1929 41.3433C51.2407 41.4591 51.2898 41.5778 51.3374 41.6948L51.4077 41.8667L51.478 42.0425C51.5324 42.1762 51.5822 42.3145 51.6226 42.4565L51.6733 42.644L51.728 42.8315C51.7497 42.908 51.7817 42.9749 51.8218 43.0347L51.9272 43.1909L52.0327 43.3511C52.0617 43.3938 52.1029 43.4347 52.1616 43.4722L52.3296 43.5815L52.5015 43.6909C52.6474 43.7841 52.7804 43.8909 52.896 44.0151L53.0249 44.1558L53.1499 44.2925C53.2955 44.4494 53.3926 44.6361 53.4468 44.8394L53.5015 45.0347L53.5522 45.2339C53.5725 45.31 53.6041 45.3679 53.6382 45.4136L53.8647 45.7183C53.9349 45.8121 54.0067 45.9031 54.0796 45.9917L54.1968 46.1362L54.3179 46.2808C54.3856 46.363 54.4564 46.4434 54.5327 46.519L54.6655 46.6479L54.7983 46.7808C54.8926 46.8742 54.9855 46.9712 55.0757 47.0698L55.2007 47.2065L55.3296 47.3472C55.4406 47.4685 55.5354 47.6018 55.6147 47.7456L55.7046 47.9097L55.7983 48.0737C55.8655 48.1958 55.926 48.3212 55.9819 48.4487L56.1304 48.7925C56.1839 48.9148 56.2359 49.0391 56.2827 49.1636L56.3491 49.3394L56.4155 49.5112C56.4467 49.594 56.4869 49.6759 56.5366 49.7534L56.6382 49.9136L56.7397 50.0698C56.8296 50.21 56.9012 50.3619 56.9546 50.519L57.0171 50.6948L57.0757 50.8706C57.1136 50.9821 57.1537 51.0955 57.1968 51.2065L57.2671 51.3823L57.3335 51.5581C57.4183 51.7769 57.4284 52.0077 57.3765 52.23L57.3296 52.4253L57.2827 52.6245C57.2762 52.6524 57.2822 52.662 57.2866 52.6714L57.4507 53.0229C57.5456 53.2246 57.582 53.4447 57.5522 53.6675L57.5249 53.855L57.5015 54.0425C57.4996 54.0571 57.4973 54.0846 57.521 54.1323L57.6187 54.3198L57.7124 54.5112C57.8207 54.7298 57.8598 54.9735 57.8022 55.2222L57.7554 55.4097L57.7124 55.5972C57.6819 55.7283 57.6503 55.8595 57.6147 55.9878L57.5132 56.355C57.4739 56.4967 57.4249 56.6375 57.3687 56.7729L57.2983 56.9448L57.2241 57.1206C57.177 57.234 57.1318 57.3476 57.0874 57.4604L57.0171 57.6362L56.9507 57.8081C56.9099 57.9118 56.872 58.0205 56.8374 58.1323L56.7788 58.3198L56.7202 58.5034C56.6342 58.782 56.4385 58.9776 56.189 59.0854L55.9937 59.1714L55.7944 59.2573C55.7105 59.2938 55.6581 59.3313 55.6265 59.3628L55.5015 59.4878L55.3726 59.6128C55.3478 59.6376 55.3142 59.6834 55.2827 59.7651L55.2046 59.9683L55.1304 60.1675C55.0475 60.3826 54.9095 60.5718 54.7163 60.7104L54.5601 60.8237L54.3999 60.937C54.1695 61.1024 53.9036 61.1455 53.646 61.1011L53.4233 61.062L53.2749 61.0347L53.1733 61.1636L53.0327 61.3433C52.9398 61.4594 52.8091 61.5682 52.6382 61.6245C52.4644 61.6816 52.2925 61.6683 52.1421 61.6206L51.939 61.5581L51.7358 61.4917C51.6564 61.4665 51.5958 61.4636 51.5522 61.4683L51.1851 61.5073C51.0966 61.517 51.0015 61.5356 50.9038 61.5659L50.7163 61.6284L50.5249 61.687C50.3049 61.7553 50.0752 61.7558 49.853 61.687L49.6694 61.6284L49.4858 61.5737C49.3557 61.5334 49.2252 61.4902 49.0991 61.4448L48.9233 61.3823L48.7437 61.3159C48.7412 61.3151 48.7374 61.3159 48.7319 61.3159C48.7249 61.3161 48.7097 61.3159 48.6851 61.3237L48.478 61.394L48.2671 61.4604C47.9811 61.5533 47.6822 61.5122 47.4351 61.3159L47.271 61.187L47.1108 61.0581C47.0529 61.0121 47.0011 60.9883 46.9546 60.9761L46.7749 60.9292L46.5913 60.8823C46.5224 60.8644 46.4461 60.8548 46.3608 60.8589L46.1616 60.8667L45.9624 60.8784C45.6902 60.891 45.4427 60.7961 45.2476 60.6167L45.0952 60.4722L44.9429 60.3315C44.9003 60.2926 44.867 60.2785 44.8413 60.2729L44.6538 60.2339L44.4702 60.1987C44.3286 60.1689 44.1897 60.1278 44.0522 60.0815L43.8726 60.0229L43.6929 59.9604C43.5611 59.9161 43.4286 59.8671 43.2983 59.812L43.1226 59.7378L42.978 59.6753L42.7749 59.7808L42.5679 59.8862C42.4383 59.9525 42.2858 59.9994 42.1187 59.9917C41.9486 59.9837 41.7958 59.9207 41.6694 59.8315L41.4937 59.7104L41.3179 59.5854C41.3124 59.5816 41.3087 59.579 41.3062 59.5776L41.1304 59.6089L40.939 59.6362C40.7245 59.6701 40.5121 59.6474 40.3101 59.5737L40.1226 59.5073L39.9937 59.4604L39.8452 59.5698L39.6616 59.7065C39.5382 59.7978 39.3856 59.8677 39.2085 59.8784C39.0308 59.8889 38.8694 59.8374 38.7358 59.7612L38.5366 59.6479L38.353 59.5425L38.2163 59.6011L38.0327 59.6753C37.907 59.7268 37.7811 59.7736 37.6577 59.8198L37.4819 59.8862L37.3022 59.9526C37.1926 59.9937 37.0841 60.0385 36.978 60.0854L36.8062 60.1636L36.6343 60.2378C36.4247 60.3306 36.2023 60.3561 35.9819 60.3237L35.7749 60.2925L35.5718 60.2612C35.5518 60.2583 35.5396 60.2607 35.5366 60.2612C35.5346 60.2616 35.5325 60.2631 35.5288 60.2651L35.3608 60.3628L35.1968 60.4604C35.0171 60.5665 34.8195 60.6263 34.6108 60.6362L34.4194 60.644L34.2358 60.6519C34.2318 60.6549 34.2283 60.6633 34.2202 60.6714L33.9077 60.9917C33.6934 61.2113 33.3993 61.3164 33.0796 61.2417L32.8765 61.1948L32.6772 61.1479C32.5886 61.1271 32.5091 61.1195 32.439 61.1245L32.2476 61.1401L32.0601 61.1519C31.9979 61.1565 31.938 61.1737 31.8765 61.2026L31.5249 61.3667C31.3644 61.4426 31.1961 61.4945 31.021 61.519L30.8335 61.5464L30.6499 61.5698C30.4725 61.5945 30.292 61.593 30.1147 61.562L29.7319 61.4917C29.662 61.4795 29.5985 61.4839 29.5405 61.4956L29.3569 61.5308L29.1772 61.5698C29.0757 61.5903 28.9678 61.6163 28.8569 61.6519L28.6616 61.7144L28.4702 61.7769C28.2059 61.8613 27.9347 61.8304 27.6968 61.6909L27.5249 61.5854L27.3491 61.4839C27.2933 61.4512 27.2432 61.44 27.2007 61.437L27.0132 61.4214L26.8257 61.4097C26.8103 61.4086 26.7974 61.406 26.7866 61.4058L26.7827 61.4097L26.7124 61.4487C26.5498 61.5415 26.3852 61.5337 26.2905 61.519C26.1904 61.5035 26.0961 61.4718 26.0171 61.437L25.8374 61.3589L25.6616 61.2808C25.551 61.2319 25.4393 61.1845 25.3257 61.1401L25.146 61.0698L24.9624 60.9995C24.7496 60.9163 24.5765 60.7747 24.4429 60.5933L24.2007 60.2651C24.1843 60.243 24.1666 60.2286 24.1343 60.2183L23.7358 60.0933C23.4967 60.0169 23.2963 59.8672 23.1616 59.6479L23.0601 59.48L22.9546 59.312C22.8883 59.2041 22.8226 59.0978 22.7554 58.9956L22.5444 58.6753C22.4459 58.5253 22.3698 58.364 22.3218 58.1909L22.271 58.0034L22.2202 57.8198C22.1941 57.7255 22.16 57.6342 22.1187 57.5503L21.9546 57.2144C21.8873 57.0778 21.8309 56.9347 21.7866 56.7886L21.7319 56.605L21.6733 56.4253C21.6251 56.2658 21.5999 56.0994 21.5913 55.9331L21.5796 55.7456L21.5718 55.5581C21.5677 55.4788 21.5495 55.3953 21.521 55.3081L21.396 54.9253C21.3166 54.6817 21.3291 54.4291 21.4312 54.1948L21.5132 54.0112L21.5913 53.8276C21.6471 53.6995 21.7051 53.5738 21.7632 53.4526L21.8491 53.2808L21.9312 53.105C21.9819 52.9993 22.0269 52.8949 22.0679 52.7925L22.1382 52.6206L22.2046 52.4526C22.2046 52.4527 22.2043 52.4488 22.2046 52.4409C22.2049 52.4303 22.2056 52.4087 22.1968 52.3745L22.1382 52.1519L22.0796 51.9331C22.0202 51.7049 22.0188 51.4631 22.1069 51.23L22.1772 51.0503L22.2437 50.8706L22.3335 50.6909C22.4369 50.5276 22.5843 50.4027 22.7515 50.3159L22.9507 50.2144L23.0835 50.1401L23.0874 49.9956L23.0913 49.7729L23.1187 49.5503C23.1724 49.3338 23.3051 49.144 23.521 49.019L23.6968 48.9175L23.8726 48.812C23.9202 48.7844 23.948 48.7565 23.9663 48.7261L24.064 48.5581L24.1616 48.394C24.2737 48.2033 24.4329 48.0532 24.6265 47.9487L24.9702 47.7612C25.0214 47.7336 25.0582 47.6998 25.0874 47.6597L25.314 47.355C25.4231 47.2049 25.5545 47.0759 25.7085 46.9722L25.8687 46.8667L26.0249 46.7573C26.0967 46.709 26.1611 46.6549 26.2163 46.5933L26.4663 46.312C26.5683 46.1978 26.6822 46.0924 26.8022 45.9956L26.9507 45.8745L27.0913 45.7573C27.0927 45.7525 27.0976 45.7448 27.0991 45.7339L27.1616 45.2964L27.2202 45.0776C27.2497 45.0058 27.2888 44.9356 27.3413 44.8706C27.4464 44.7407 27.5808 44.6562 27.7202 44.605L27.9272 44.5269L28.1343 44.4526C28.1578 44.444 28.1692 44.4362 28.1733 44.4331L28.271 44.2651L28.3687 44.1011C28.4288 43.9975 28.4885 43.894 28.5444 43.7886L28.6304 43.6206L28.7202 43.4526C28.764 43.37 28.8011 43.2807 28.8296 43.187L28.8843 43.0034L28.9429 42.8159C28.9867 42.6719 29.0377 42.5321 29.0991 42.3979L29.1772 42.23L29.2554 42.0581C29.3199 41.9171 29.3965 41.7827 29.4858 41.6558L29.5952 41.5034L29.7007 41.3511C29.7792 41.2397 29.8631 41.1273 29.9507 41.019L30.0718 40.8706L30.1929 40.7183C30.249 40.6489 30.2973 40.5763 30.3335 40.4995L30.4116 40.3315L30.4937 40.1597C30.5016 40.1429 30.509 40.1115 30.5015 40.0542L30.4741 39.8472L30.4468 39.6362C30.4125 39.376 30.4707 39.116 30.6382 38.8979L30.7593 38.7417L30.8765 38.5854C30.9304 38.5151 30.9716 38.4432 31.0015 38.3706L31.0757 38.1987L31.146 38.0269C31.2125 37.865 31.3013 37.7117 31.4116 37.5737L31.5366 37.4214L31.6577 37.2651C31.6633 37.258 31.6654 37.2539 31.6655 37.2534C31.6662 37.2508 31.6697 37.2444 31.6694 37.2339L31.6616 37.0308L31.6577 36.8276C31.6526 36.6144 31.6972 36.4062 31.7983 36.2144L31.8843 36.0464L31.9741 35.8823C32.0479 35.7423 32.136 35.6109 32.2358 35.4878L32.353 35.3394L32.4741 35.1909C32.4904 35.1704 32.5078 35.1376 32.5171 35.0776L32.5796 34.6558C32.6031 34.5013 32.669 34.3442 32.7944 34.2144C32.9178 34.0868 33.0688 34.0176 33.2124 33.9839L33.4351 33.9331L33.6538 33.8823L33.7319 33.73L33.8218 33.5503C33.9302 33.3416 34.0962 33.1738 34.314 33.0698L34.4858 32.9878L34.6538 32.9097C34.741 32.8681 34.8292 32.816 34.9116 32.7573L35.0679 32.644L35.2241 32.5347C35.3907 32.416 35.5805 32.3375 35.7827 32.3042L36.1577 32.2417C36.2345 32.229 36.311 32.2035 36.3843 32.1675L36.5601 32.0815L36.7319 31.9956L36.9351 31.9253C37.1373 31.8792 37.342 31.9047 37.5288 31.9839L37.7319 32.0737L37.9351 32.1597C38.0012 32.1877 38.0373 32.1852 38.0522 32.1831L38.4194 32.1284C38.5565 32.1078 38.695 32.0935 38.8335 32.0854L39.0171 32.0737L39.2046 32.062C39.288 32.057 39.3747 32.0447 39.4624 32.019L39.8296 31.9097C39.9501 31.8744 40.0754 31.8393 40.2007 31.8003L40.3921 31.7378L40.5835 31.6792C40.7576 31.625 40.9377 31.5959 41.1187 31.5972L41.3062 31.6011ZM40.8804 32.6323L40.689 32.6948L40.4976 32.7534C40.3671 32.794 40.2369 32.8337 40.1108 32.8706L39.9272 32.9253L39.7437 32.9761C39.5855 33.0224 39.4219 33.0526 39.2593 33.062L38.8921 33.0854C38.7839 33.0917 38.6749 33.1006 38.5679 33.1167L38.2007 33.1714C37.9713 33.2056 37.7482 33.164 37.5444 33.0776L37.3413 32.9917L37.1421 32.9058L37.0015 32.98L36.8257 33.0659C36.6659 33.1444 36.4969 33.1972 36.3218 33.2261L36.1343 33.2573L35.9429 33.2886C35.8937 33.2969 35.8499 33.3161 35.8062 33.3472L35.6499 33.4604L35.4897 33.5737C35.3617 33.6648 35.2277 33.745 35.0874 33.812L34.9155 33.8901L34.7437 33.9722C34.7341 33.9767 34.7229 33.9835 34.7085 34.0112L34.6187 34.1909L34.5249 34.3667C34.3869 34.6329 34.1492 34.7923 33.8804 34.855L33.6616 34.9058L33.5483 34.9292L33.5366 35.0151L33.5054 35.2261C33.4725 35.4427 33.3895 35.6487 33.2476 35.8237L33.1304 35.9683L33.0093 36.1167C32.9509 36.1889 32.8999 36.2657 32.8569 36.3472L32.771 36.5151L32.6812 36.6792C32.6655 36.709 32.6563 36.7481 32.6577 36.8042L32.6655 37.2104C32.6716 37.4595 32.5964 37.693 32.439 37.8901L32.3179 38.0464L32.1929 38.1987C32.1388 38.2665 32.1003 38.3364 32.0718 38.4058L31.9976 38.5776L31.9272 38.7534C31.8622 38.9114 31.7746 39.0579 31.6694 39.1948L31.5522 39.3511L31.439 39.4956V39.5034H31.4351V39.4995L31.4312 39.5034H31.439L31.4937 39.9253C31.5231 40.1484 31.4992 40.3745 31.3999 40.5854L31.3179 40.7573L31.2358 40.9253C31.1648 41.0761 31.0757 41.2168 30.9702 41.3472L30.8491 41.4995L30.728 41.6479C30.6541 41.7393 30.5863 41.8327 30.521 41.9253L30.3022 42.23C30.248 42.307 30.2046 42.3908 30.1655 42.4761L30.0874 42.644L30.0093 42.8159C29.9673 42.9077 29.9311 43.0062 29.8999 43.1089L29.8413 43.2925L29.7866 43.48C29.74 43.6333 29.6774 43.7811 29.603 43.9214L29.5132 44.0894L29.4272 44.2534C29.365 44.3708 29.2989 44.4898 29.2319 44.605L29.1382 44.769L29.0405 44.9331C28.9091 45.159 28.7071 45.3062 28.478 45.3901L28.271 45.4683L28.1382 45.5151L28.1187 45.6558L28.0874 45.8745C28.0518 46.1248 27.941 46.3629 27.728 46.5347L27.5796 46.6519L27.4272 46.7729C27.3492 46.836 27.2773 46.9034 27.2124 46.9761L26.9624 47.2573C26.8506 47.3824 26.7233 47.4913 26.5835 47.5854L26.4272 47.6948L26.2671 47.8003C26.2095 47.8391 26.1624 47.8865 26.1226 47.9409L26.0093 48.0972L25.896 48.2495C25.7764 48.4136 25.6247 48.5439 25.4468 48.6401L25.2749 48.7339L25.0991 48.8276C25.0636 48.847 25.0424 48.8721 25.0249 48.9019L24.8296 49.23C24.7183 49.4193 24.5637 49.5706 24.3765 49.6792L24.1968 49.7808L24.0874 49.8394V50.0073L24.0835 50.23C24.0817 50.3805 24.0473 50.5394 23.9585 50.6831C23.8697 50.8266 23.7438 50.9265 23.6108 50.9956L23.2124 51.2065C23.1942 51.216 23.1812 51.2187 23.1772 51.2222L23.1108 51.4019L23.0444 51.5854C23.0415 51.5936 23.0328 51.6186 23.0483 51.6792L23.1069 51.9019L23.1655 52.1206C23.2242 52.3454 23.2281 52.5894 23.1343 52.8237L23.064 52.9917L22.9976 53.1636C22.9478 53.2879 22.8935 53.4134 22.8335 53.5386L22.7476 53.7104L22.6655 53.8862C22.613 53.9957 22.5603 54.1088 22.5093 54.2261L22.4312 54.4097L22.3491 54.5972C22.3473 54.6015 22.3455 54.6038 22.3452 54.605L22.4116 54.8042L22.4741 54.9956C22.5284 55.1615 22.5588 55.3314 22.5679 55.5034L22.5796 55.6948L22.5874 55.8823C22.5919 55.9681 22.6094 56.0539 22.6343 56.1362L22.7437 56.4956C22.7723 56.5905 22.8058 56.685 22.8491 56.7729L22.9351 56.9409L23.0171 57.1089C23.0866 57.25 23.1427 57.3973 23.1851 57.5503L23.2358 57.7378L23.2866 57.9214C23.307 57.9952 23.339 58.0655 23.3804 58.1284L23.5913 58.4487C23.6639 58.5592 23.735 58.6728 23.8062 58.7886L23.9116 58.9565L24.0132 59.1245C24.0154 59.1281 24.0166 59.1317 24.0171 59.1323C24.0171 59.1323 24.0249 59.1352 24.0405 59.1401L24.2358 59.2026L24.4351 59.2651C24.6656 59.3382 24.861 59.4792 25.0054 59.6753L25.1265 59.8394L25.2476 59.9995C25.2742 60.0357 25.2981 60.0548 25.3257 60.0659L25.5093 60.1362L25.689 60.2065C25.8163 60.2563 25.9436 60.3118 26.0679 60.3667L26.2437 60.4448L26.3687 60.4956C26.4733 60.4392 26.5782 60.4211 26.6499 60.4136C26.7312 60.4052 26.8162 60.4041 26.896 60.4097L27.0835 60.4253L27.271 60.437C27.479 60.4516 27.6751 60.5164 27.853 60.6206L28.0288 60.7222L28.1851 60.8159L28.3569 60.7612L28.5483 60.6987C28.6925 60.6524 28.8367 60.6179 28.978 60.5894L29.1616 60.5503L29.3413 60.5151C29.5269 60.4777 29.7173 60.4748 29.9038 60.5073L30.0952 60.5425L30.2866 60.5737C30.3653 60.5875 30.4395 60.5911 30.5093 60.5815L30.6968 60.5542L30.8804 60.5308C30.9524 60.5207 31.0269 60.4985 31.0991 60.4644L31.271 60.3823L31.4468 60.2964C31.617 60.2159 31.7981 60.1697 31.9858 60.1558L32.1772 60.1401L32.3647 60.1284C32.545 60.1152 32.7254 60.1296 32.9038 60.1714L33.1069 60.2183L33.2319 60.2495L33.3452 60.1323L33.5015 59.9761C33.6773 59.7959 33.9075 59.6692 34.1812 59.6558L34.3726 59.6479L34.564 59.6362C34.6086 59.634 34.6486 59.6249 34.689 59.6011L35.0171 59.4058C35.2339 59.2778 35.4762 59.2376 35.7163 59.2729L35.9233 59.3042L36.1265 59.3354C36.179 59.3432 36.2078 59.3326 36.228 59.3237L36.3999 59.2495L36.5757 59.1714C36.6988 59.1169 36.824 59.0666 36.9507 59.019L37.1304 58.9526L37.3062 58.8862C37.4199 58.8436 37.537 58.7973 37.6538 58.7495L37.8374 58.6753L38.0171 58.6011L38.2319 58.5425C38.4456 58.5122 38.6522 58.5643 38.8335 58.6675L39.0327 58.7808L39.146 58.8433L39.2515 58.769L39.4312 58.6323L39.6226 58.5229C39.7548 58.4639 39.8985 58.4319 40.0483 58.4448L40.2749 58.4956L40.4624 58.5659L40.6538 58.6362C40.7033 58.6541 40.7441 58.6579 40.7827 58.6519L41.1655 58.5894L41.3647 58.5776C41.5589 58.5874 41.7388 58.6581 41.896 58.769L42.0718 58.8901L42.1733 58.9604L42.3179 58.8901L42.5249 58.7847C42.7057 58.6923 42.9119 58.6458 43.1226 58.6792L43.3335 58.7417L43.5093 58.8159L43.689 58.8901C43.7961 58.9355 43.9024 58.9791 44.0093 59.0151L44.189 59.0737L44.3687 59.1362C44.4697 59.1702 44.5735 59.1965 44.6772 59.2183L45.0444 59.2964C45.2644 59.3426 45.4574 59.449 45.6187 59.5972L45.771 59.7378L45.9233 59.8745L46.1147 59.8706L46.314 59.8589C46.4939 59.8503 46.6725 59.8685 46.8452 59.9136L47.0249 59.9604L47.2085 60.0073C47.4028 60.0583 47.5797 60.1524 47.7358 60.2769L47.896 60.4058L48.0054 60.4917L48.1655 60.4409L48.3726 60.3745C48.5997 60.3003 48.8446 60.2886 49.0835 60.3745L49.2593 60.4409L49.439 60.5034C49.5499 60.5433 49.6634 60.581 49.7788 60.6167L49.9663 60.6753L50.1499 60.7339C50.1737 60.7412 50.1956 60.7401 50.228 60.73L50.4155 60.6714L50.6069 60.6128C50.7618 60.5646 50.9188 60.5323 51.0757 60.5151L51.2593 60.4956L51.4429 60.4722C51.6447 60.4501 51.8446 60.4776 52.0366 60.5386L52.2397 60.605L52.3179 60.6284L52.3921 60.5386L52.5366 60.3589L52.7007 60.1987C52.7619 60.1519 52.8306 60.1116 52.9077 60.0815C52.9866 60.0509 53.0672 60.0331 53.146 60.0269L53.3765 60.0386L53.5952 60.0776L53.8179 60.1128C53.8226 60.1136 53.8265 60.1125 53.8296 60.1128L53.9741 60.0112L54.1343 59.8979C54.1523 59.885 54.1761 59.8619 54.1968 59.8081L54.2749 59.6089L54.3491 59.4058C54.421 59.2193 54.5258 59.0446 54.6694 58.9019L54.7944 58.7769L54.9233 58.6519C55.0598 58.5165 55.2231 58.4157 55.3999 58.3394L55.5952 58.2534L55.7788 58.1714L55.8257 58.0229L55.8804 57.8394C55.9221 57.7041 55.9706 57.569 56.021 57.4409L56.0874 57.269L56.1577 57.0933C56.2043 56.975 56.253 56.8565 56.3022 56.7378L56.3726 56.562L56.4468 56.3862C56.4867 56.2897 56.5202 56.1907 56.5483 56.0894L56.6499 55.7222C56.6819 55.6069 56.7122 55.489 56.7397 55.3706L56.8257 54.9956V54.9878C56.825 54.9839 56.8227 54.9742 56.814 54.9565L56.6265 54.5737C56.5253 54.3695 56.478 54.1445 56.5093 53.9097L56.5366 53.7222L56.5601 53.5347C56.5637 53.5073 56.5597 53.4812 56.5444 53.4487L56.3804 53.0972C56.2754 52.8732 56.255 52.6335 56.3101 52.3979L56.4038 51.9995C56.4131 51.9585 56.406 51.9374 56.3999 51.9214L56.3335 51.7456L56.2632 51.5659C56.2155 51.4429 56.1725 51.3188 56.1304 51.1948L56.0679 51.0151L56.0093 50.8394C55.9825 50.7606 55.946 50.685 55.8999 50.6128L55.7944 50.4526L55.6929 50.2925C55.606 50.157 55.5344 50.0124 55.478 49.8628L55.4116 49.6909L55.3452 49.5151C55.3048 49.4077 55.2626 49.3006 55.2163 49.1948L55.0679 48.8511C55.024 48.7508 54.9723 48.6541 54.9194 48.5581L54.7397 48.23C54.6988 48.1557 54.6493 48.0864 54.5913 48.0229L54.4663 47.8823L54.3374 47.7456C54.2583 47.6591 54.1776 47.5734 54.0952 47.4917L53.9624 47.3589L53.8296 47.23C53.7295 47.1308 53.6337 47.0259 53.5444 46.9175L53.3101 46.6284C53.2266 46.5269 53.1438 46.4227 53.064 46.3159L52.8374 46.0112C52.7208 45.8551 52.6376 45.6801 52.5874 45.4917L52.5366 45.2925L52.4819 45.0972C52.4658 45.0366 52.443 44.9979 52.4194 44.9722L52.2905 44.8354L52.1655 44.6987C52.1119 44.641 52.0432 44.5823 51.9624 44.5308L51.7944 44.4253L51.6226 44.3159C51.4549 44.2089 51.3119 44.0717 51.2007 43.9058L50.9897 43.5933C50.8896 43.4437 50.8165 43.2788 50.7671 43.105L50.6577 42.73C50.627 42.6217 50.5924 42.5162 50.5522 42.4175L50.4819 42.2456L50.4116 42.0698C50.3648 41.9546 50.3181 41.84 50.271 41.7261L50.1968 41.5542L50.1265 41.3823C50.0761 41.2604 50.0305 41.135 49.9858 41.0112L49.9233 40.8394L49.8569 40.6636C49.8251 40.5754 49.7877 40.4889 49.7397 40.4058L49.646 40.2417L49.5522 40.0815C49.4722 39.943 49.4061 39.7959 49.3569 39.644L49.2983 39.4644L49.2397 39.2886C49.1948 39.1495 49.1614 39.004 49.1343 38.8589L49.0991 38.6753L49.064 38.4878C49.0608 38.4711 49.0525 38.4492 49.021 38.4175L48.8765 38.269L48.728 38.1245C48.611 38.0076 48.5065 37.8812 48.4155 37.7495L48.1968 37.437C48.0901 37.2825 48.0145 37.1116 47.9702 36.9292L47.9272 36.7456L47.8804 36.562C47.8585 36.4724 47.8286 36.3855 47.7905 36.3042L47.6343 35.9683C47.5958 35.8861 47.5473 35.8101 47.4937 35.7378L47.2749 35.4409C47.2091 35.3521 47.1395 35.2655 47.0679 35.1831L46.9468 35.0425L46.8257 34.9058C46.7141 34.7774 46.6211 34.6325 46.5444 34.4761L46.4546 34.2925L46.3726 34.1284L46.2124 34.0854L46.0171 34.0347C45.8472 33.9888 45.6855 33.9209 45.5366 33.8315L45.3765 33.7378L45.2163 33.6401C45.1409 33.595 45.0612 33.5587 44.978 33.5308L44.2749 33.2964L43.9155 33.1792C43.7738 33.1331 43.6342 33.0773 43.4976 33.0112L43.3218 32.9253L43.1929 32.8628L43.0093 32.9565L42.8101 33.0542C42.67 33.1243 42.5014 33.1645 42.3218 33.1401C42.1443 33.1156 41.9955 33.0366 41.8804 32.937L41.7046 32.7847L41.5327 32.6323C41.508 32.6109 41.4907 32.6032 41.4858 32.6011H41.2983L41.1108 32.5972C41.0389 32.5967 40.9618 32.607 40.8804 32.6323Z" fill="#FFE2DE"/>
<circle cx="21.6304" cy="38.3834" r="6.63045" fill="#FFE2DE"/>
<path d="M20.7305 31.2217L20.9297 31.3037L21.1328 31.3857C21.1839 31.4063 21.2074 31.3993 21.2148 31.3975L21.582 31.3115C21.7548 31.2698 21.9323 31.2517 22.1094 31.2646L22.2969 31.2803L22.4844 31.292C22.6484 31.3041 22.8083 31.3391 22.9648 31.3896L23.1445 31.4482L23.3242 31.5029C23.4573 31.546 23.5873 31.5969 23.7148 31.6514L23.8867 31.7256L24.0586 31.7959C24.1973 31.8552 24.3304 31.9258 24.457 32.0068L24.6133 32.1084L24.7656 32.2061C24.7883 32.2206 24.827 32.2365 24.8945 32.2412L25.1055 32.2568L25.3164 32.2686C25.5752 32.2858 25.8153 32.392 25.9961 32.5967L26.2539 32.8857C26.2965 32.934 26.3487 32.9773 26.4141 33.0107L26.5898 33.1006L26.7695 33.1943L26.9414 33.3037C27.0961 33.4297 27.2035 33.5991 27.2578 33.7959L27.3125 33.999L27.3672 34.1982C27.3875 34.2719 27.4146 34.3246 27.4453 34.3623L27.5664 34.5068L27.6836 34.6514C27.7855 34.7766 27.8728 34.9134 27.9453 35.0576L28.0312 35.2256L28.1133 35.3936C28.1644 35.4951 28.2214 35.5966 28.2812 35.6982L28.3789 35.8623L28.4766 36.0303C28.5734 36.1947 28.6381 36.3731 28.668 36.5615L28.6992 36.7529L28.7266 36.9404C28.7494 37.0855 28.7639 37.2319 28.7695 37.3779L28.7852 37.7607C28.7901 37.8919 28.79 38.0089 28.7852 38.1006L28.7812 38.2021L28.7773 38.3076C28.7755 38.3425 28.7713 38.3743 28.7695 38.3975C28.7692 38.402 28.7662 38.4071 28.7656 38.4131C28.7682 38.4404 28.7726 38.4766 28.7773 38.5225L28.8164 38.9053C28.8412 39.1486 28.783 39.3786 28.6562 39.5811L28.5469 39.7529L28.4414 39.9248C28.4268 39.9482 28.4239 39.9643 28.4258 39.9873L28.4414 40.1865L28.457 40.3818C28.4724 40.5671 28.4588 40.7528 28.4141 40.9326L28.3203 41.3076C28.2661 41.5257 28.1561 41.7185 27.9961 41.874L27.8516 42.0107L27.7109 42.1514C27.6346 42.2254 27.5684 42.3013 27.5117 42.3779L27.3984 42.5264L27.2891 42.6787C27.2328 42.7548 27.1796 42.8395 27.1328 42.9326L27.043 43.1084L26.957 43.2842C26.8622 43.4732 26.7242 43.6342 26.5508 43.7568L26.2383 43.9756C26.0692 44.0951 25.8784 44.1745 25.6758 44.21L25.4766 44.2451L25.3047 44.2725L25.207 44.4521L25.1016 44.6475C24.9689 44.8885 24.7499 45.0726 24.4531 45.1279L24.2617 45.167L24.0703 45.2021C23.9967 45.2159 23.9273 45.242 23.8594 45.2803L23.6836 45.3779L23.5117 45.4717C23.2722 45.6066 23.0086 45.6314 22.7539 45.5576L22.3477 45.4404C22.2784 45.4204 22.2275 45.418 22.1875 45.4248L22 45.4561L21.8164 45.4873C21.6736 45.512 21.5287 45.53 21.3828 45.5381L21.1914 45.5498L21.0039 45.5576C20.876 45.5647 20.7424 45.5744 20.6094 45.5811L20.4141 45.5889L20.2148 45.6006C19.8961 45.6165 19.6349 45.4679 19.457 45.2451L19.3164 45.0654L19.2148 44.9404L19.0664 44.9717L18.8438 45.0146C18.5431 45.0723 18.232 44.9971 18.0117 44.7373L17.8828 44.5811L17.75 44.4248C17.7072 44.3742 17.6609 44.3412 17.6133 44.3193L17.4375 44.2373L17.2617 44.1592C17.0028 44.0403 16.8354 43.8236 16.7539 43.5693L16.6875 43.3662L16.6406 43.2256L16.4648 43.1865L16.2383 43.1318C15.9652 43.066 15.7185 42.8975 15.5938 42.6045L15.5156 42.4248L15.4375 42.2412C15.3863 42.1209 15.3347 42.0024 15.2852 41.8857L15.1367 41.5342C15.089 41.4219 15.0395 41.3086 14.9883 41.1982L14.9102 41.0264L14.8281 40.8545C14.7259 40.6343 14.7076 40.3972 14.7539 40.167L14.793 39.9639L14.832 39.7646C14.8356 39.7469 14.8363 39.7357 14.8359 39.7334C14.8356 39.7313 14.8352 39.7277 14.832 39.7217L14.7383 39.5498L14.6445 39.374C14.5508 39.1982 14.4964 39.0074 14.4844 38.8076L14.4609 38.4326C14.4473 38.2062 14.5023 37.9904 14.6094 37.7959L14.707 37.6162L14.7969 37.4561L14.7227 37.2646L14.6523 37.0615C14.5632 36.81 14.5667 36.5372 14.7031 36.2842L14.793 36.1123L14.8867 35.9443C14.9595 35.8094 15.0416 35.6792 15.1328 35.5576L15.3594 35.2529C15.3924 35.2088 15.4194 35.1579 15.4336 35.0967L15.4766 34.9092L15.5195 34.7178C15.5635 34.5284 15.6444 34.3525 15.7578 34.1943L15.8672 34.0381L15.9766 33.8857C16.1187 33.6876 16.3162 33.5526 16.5391 33.4795L16.7383 33.417L16.875 33.3701L16.9258 33.1904L16.9844 32.9678L17.0781 32.7412C17.1219 32.668 17.1788 32.5981 17.2539 32.5381C17.4067 32.416 17.584 32.3722 17.7422 32.3701L17.9648 32.3662H18.1875C18.2619 32.3651 18.2897 32.3474 18.2969 32.3428L18.4492 32.2451L18.6055 32.1436C18.6549 32.1112 18.7129 32.0593 18.7773 31.9795L18.9141 31.8076L19.0547 31.6396C19.2073 31.4507 19.4079 31.3073 19.6562 31.249L19.8477 31.2061L20.0352 31.1631C20.2737 31.1071 20.5117 31.1331 20.7305 31.2217ZM20.0742 32.1787L19.8867 32.2256C19.8817 32.2268 19.8634 32.2298 19.832 32.2686L19.6953 32.4365L19.5547 32.6084C19.4364 32.7548 19.3023 32.8835 19.1484 32.9834L18.9922 33.085L18.8398 33.1826C18.6429 33.31 18.4209 33.3633 18.1992 33.3662H17.9102L17.8359 33.6631C17.759 33.9568 17.5604 34.1976 17.25 34.2998L16.8516 34.4326C16.8086 34.4467 16.7947 34.4599 16.7891 34.4678L16.6797 34.6201L16.5703 34.7764C16.5359 34.8243 16.5111 34.8796 16.4961 34.9443L16.4492 35.1357L16.4062 35.3232C16.3615 35.516 16.2791 35.6959 16.1602 35.8545L15.9336 36.1592C15.8728 36.2402 15.8152 36.3252 15.7656 36.417L15.6758 36.5889L15.5938 36.7295L15.668 36.9326L15.7383 37.1357C15.8301 37.3953 15.8188 37.6727 15.6797 37.9248L15.4844 38.2764C15.462 38.3169 15.4596 38.3457 15.4609 38.3701L15.4727 38.5576L15.4844 38.749C15.4876 38.7996 15.4985 38.8514 15.5273 38.9053L15.7148 39.249C15.8344 39.4726 15.8613 39.7177 15.8125 39.96L15.7344 40.3662C15.7264 40.406 15.7295 40.4221 15.7344 40.4326L15.8164 40.6045L15.8945 40.7803C15.9502 40.9003 16.0067 41.0216 16.0586 41.1436L16.207 41.4951C16.2567 41.6119 16.3081 41.7301 16.3594 41.8506L16.4375 42.0342L16.4883 42.1631L16.6992 42.2139L16.9258 42.2686C17.2277 42.3414 17.4722 42.5407 17.5742 42.8584L17.6406 43.0615L17.7031 43.2607L17.8555 43.3311L18.0312 43.4092C18.2187 43.4952 18.379 43.6235 18.5117 43.7803L18.6445 43.9326L18.7188 44.0186L18.8789 43.9912L19.1016 43.9482L19.3359 43.9326C19.4148 43.9375 19.4946 43.9539 19.5742 43.9834C19.6542 44.013 19.7259 44.0528 19.7891 44.1006L19.9531 44.2646L20.0977 44.4404L20.2188 44.5967L20.3633 44.5928L20.5625 44.5811C20.6927 44.5745 20.8203 44.5685 20.9453 44.5615L21.3281 44.5381C21.4354 44.5321 21.5408 44.5208 21.6445 44.5029L21.832 44.4717L22.0156 44.4404C22.2226 44.4047 22.43 44.4216 22.6289 44.4795L22.832 44.5381L23.0273 44.5928L23.1953 44.5029L23.3672 44.4092C23.5297 44.3176 23.7036 44.2519 23.8867 44.2178L24.0781 44.1826L24.2305 44.1514L24.332 43.9717L24.4414 43.7764L24.5586 43.6006C24.6938 43.4426 24.8783 43.3311 25.1016 43.292L25.3008 43.2568L25.5039 43.2217C25.5701 43.2101 25.6195 43.1879 25.6602 43.1592L25.8164 43.0498L25.9766 42.9404C26.0129 42.9148 26.0396 42.8806 26.0625 42.835L26.1523 42.6592L26.2383 42.4834C26.3093 42.3419 26.3925 42.2093 26.4844 42.085L26.5938 41.9326L26.707 41.7842C26.7982 41.6609 26.8985 41.5425 27.0117 41.4326L27.1562 41.2959L27.2969 41.1553C27.3262 41.1268 27.3434 41.1016 27.3516 41.0693L27.3984 40.8779L27.4453 40.6904C27.4627 40.6199 27.4673 40.5464 27.4609 40.4678L27.4297 40.0693C27.4097 39.8281 27.466 39.5976 27.5938 39.3936L27.7031 39.2217L27.8086 39.0498C27.8236 39.0257 27.8252 39.0165 27.8242 39.0068L27.7852 38.624C27.7786 38.5606 27.7727 38.5105 27.7695 38.4756C27.7681 38.4594 27.7666 38.443 27.7656 38.4287C27.7653 38.423 27.7619 38.4086 27.7617 38.3936C27.7617 38.3887 27.7632 38.3659 27.7656 38.3389C27.7663 38.3319 27.7696 38.3062 27.7773 38.2725C27.7777 38.2665 27.777 38.2599 27.7773 38.2529L27.7812 38.1475L27.7891 38.0459C27.7915 37.9996 27.7898 37.9176 27.7852 37.7959L27.7773 37.6084L27.7734 37.417C27.7694 37.3104 27.7551 37.2034 27.7383 37.0967L27.7109 36.9092L27.6797 36.7178C27.6696 36.6546 27.6506 36.5951 27.6172 36.5381L27.5156 36.3701L27.418 36.2061C27.3475 36.0863 27.2838 35.9642 27.2227 35.8428L27.0508 35.5068C27.0108 35.4273 26.9624 35.3531 26.9062 35.2842L26.7891 35.1357L26.6719 34.9912C26.5448 34.835 26.4555 34.6569 26.4023 34.4639L26.3477 34.2607L26.293 34.0693L25.957 33.9014C25.7848 33.8131 25.632 33.6947 25.5039 33.5498L25.375 33.4053L25.2578 33.2686H25.25L25.0391 33.2529L24.8281 33.2412C24.6165 33.227 24.4103 33.1674 24.2266 33.0498L24.0742 32.9482L23.918 32.8506C23.838 32.7994 23.7525 32.7556 23.6641 32.7178L23.4922 32.6436L23.3242 32.5693C23.2245 32.5268 23.1207 32.4901 23.0156 32.4561L22.8359 32.3975L22.6602 32.3389C22.5791 32.3126 22.4949 32.2982 22.4102 32.292L22.2227 32.2764L22.0352 32.2646C21.9626 32.2594 21.8898 32.2626 21.8164 32.2803L21.6328 32.3271L21.4492 32.3701C21.2108 32.4277 20.9742 32.399 20.7578 32.3115L20.5547 32.2295L20.3555 32.1475C20.3065 32.1276 20.2805 32.1323 20.2656 32.1357L20.0742 32.1787ZM27.8047 38.1904C27.8015 38.1982 27.7994 38.2068 27.7969 38.2139C27.8023 38.1989 27.8096 38.1803 27.8203 38.1592C27.8134 38.173 27.8075 38.1836 27.8047 38.1904Z" fill="#FFE2DE"/>
<circle cx="31.0924" cy="24.6304" r="6.63045" fill="#FFE2DE"/>
<path d="M30.1924 17.4688L30.3916 17.5508L30.5947 17.6328C30.6458 17.6533 30.6693 17.6463 30.6768 17.6445L31.0439 17.5586C31.2168 17.5169 31.3942 17.4988 31.5713 17.5117L31.7588 17.5273L31.9463 17.5391C32.1103 17.5512 32.2703 17.5861 32.4268 17.6367L32.6064 17.6953L32.7861 17.75C32.9192 17.7931 33.0493 17.844 33.1768 17.8984L33.3486 17.9727L33.5205 18.043C33.6592 18.1023 33.7923 18.1728 33.9189 18.2539L34.0752 18.3555L34.2275 18.4531C34.2502 18.4677 34.2889 18.4836 34.3564 18.4883L34.5674 18.5039L34.7783 18.5156C35.0371 18.5329 35.2772 18.6391 35.458 18.8438L35.7158 19.1328C35.7584 19.181 35.8106 19.2243 35.876 19.2578L36.0518 19.3477L36.2314 19.4414L36.4033 19.5508C36.558 19.6768 36.6654 19.8462 36.7197 20.043L36.7744 20.2461L36.8291 20.4453C36.8495 20.519 36.8765 20.5717 36.9072 20.6094L37.0283 20.7539L37.1455 20.8984C37.2474 21.0236 37.3347 21.1604 37.4072 21.3047L37.4932 21.4727L37.5752 21.6406C37.6263 21.7422 37.6833 21.8437 37.7432 21.9453L37.8408 22.1094L37.9385 22.2773C38.0353 22.4418 38.1 22.6201 38.1299 22.8086L38.1611 23L38.1885 23.1875C38.2113 23.3325 38.2258 23.479 38.2314 23.625L38.2471 24.0078C38.2521 24.1389 38.252 24.256 38.2471 24.3477L38.2432 24.4492L38.2393 24.5547C38.2374 24.5896 38.2332 24.6214 38.2314 24.6445C38.2311 24.649 38.2281 24.6542 38.2275 24.6602C38.2302 24.6875 38.2345 24.7237 38.2393 24.7695L38.2783 25.1523C38.3032 25.3956 38.2449 25.6257 38.1182 25.8281L38.0088 26L37.9033 26.1719C37.8887 26.1953 37.8858 26.2114 37.8877 26.2344L37.9033 26.4336L37.9189 26.6289C37.9343 26.8141 37.9207 26.9998 37.876 27.1797L37.7822 27.5547C37.728 27.7728 37.618 27.9656 37.458 28.1211L37.3135 28.2578L37.1729 28.3984C37.0965 28.4725 37.0303 28.5484 36.9736 28.625L36.8604 28.7734L36.751 28.9258C36.6948 29.0019 36.6415 29.0866 36.5947 29.1797L36.5049 29.3555L36.4189 29.5312C36.3241 29.7202 36.1861 29.8813 36.0127 30.0039L35.7002 30.2227C35.5312 30.3422 35.3404 30.4216 35.1377 30.457L34.9385 30.4922L34.7666 30.5195L34.6689 30.6992L34.5635 30.8945C34.4309 31.1356 34.2118 31.3197 33.915 31.375L33.7236 31.4141L33.5322 31.4492C33.4586 31.4629 33.3893 31.4891 33.3213 31.5273L33.1455 31.625L32.9736 31.7188C32.7341 31.8537 32.4706 31.8785 32.2158 31.8047L31.8096 31.6875C31.7403 31.6675 31.6894 31.6651 31.6494 31.6719L31.4619 31.7031L31.2783 31.7344C31.1355 31.7591 30.9906 31.777 30.8447 31.7852L30.6533 31.7969L30.4658 31.8047C30.3379 31.8118 30.2043 31.8215 30.0713 31.8281L29.876 31.8359L29.6768 31.8477C29.358 31.8636 29.0968 31.7149 28.9189 31.4922L28.7783 31.3125L28.6768 31.1875L28.5283 31.2188L28.3057 31.2617C28.005 31.3194 27.6939 31.2442 27.4736 30.9844L27.3447 30.8281L27.2119 30.6719C27.1691 30.6213 27.1228 30.5883 27.0752 30.5664L26.8994 30.4844L26.7236 30.4062C26.4647 30.2874 26.2973 30.0707 26.2158 29.8164L26.1494 29.6133L26.1025 29.4727L25.9268 29.4336L25.7002 29.3789C25.4271 29.3131 25.1804 29.1446 25.0557 28.8516L24.9775 28.6719L24.8994 28.4883C24.8482 28.3679 24.7967 28.2495 24.7471 28.1328L24.5986 27.7812C24.5509 27.669 24.5014 27.5557 24.4502 27.4453L24.3721 27.2734L24.29 27.1016C24.1878 26.8814 24.1695 26.6443 24.2158 26.4141L24.2549 26.2109L24.2939 26.0117C24.2975 25.994 24.2982 25.9828 24.2979 25.9805C24.2975 25.9784 24.2971 25.9748 24.2939 25.9688L24.2002 25.7969L24.1064 25.6211C24.0127 25.4452 23.9583 25.2544 23.9463 25.0547L23.9229 24.6797C23.9092 24.4533 23.9643 24.2375 24.0713 24.043L24.1689 23.8633L24.2588 23.7031L24.1846 23.5117L24.1143 23.3086C24.0251 23.0571 24.0286 22.7842 24.165 22.5312L24.2549 22.3594L24.3486 22.1914C24.4214 22.0565 24.5035 21.9263 24.5947 21.8047L24.8213 21.5C24.8543 21.4558 24.8813 21.405 24.8955 21.3438L24.9385 21.1562L24.9814 20.9648C25.0254 20.7755 25.1063 20.5995 25.2197 20.4414L25.3291 20.2852L25.4385 20.1328C25.5806 19.9346 25.7781 19.7997 26.001 19.7266L26.2002 19.6641L26.3369 19.6172L26.3877 19.4375L26.4463 19.2148L26.54 18.9883C26.5838 18.9151 26.6407 18.8451 26.7158 18.7852C26.8686 18.6631 27.0459 18.6192 27.2041 18.6172L27.4268 18.6133H27.6494C27.7238 18.6122 27.7516 18.5945 27.7588 18.5898L27.9111 18.4922L28.0674 18.3906C28.1168 18.3583 28.1748 18.3063 28.2393 18.2266L28.376 18.0547L28.5166 17.8867C28.6692 17.6977 28.8698 17.5544 29.1182 17.4961L29.3096 17.4531L29.4971 17.4102C29.7356 17.3542 29.9737 17.3802 30.1924 17.4688ZM29.5361 18.4258L29.3486 18.4727C29.3436 18.4738 29.3253 18.4768 29.2939 18.5156L29.1572 18.6836L29.0166 18.8555C28.8983 19.0019 28.7642 19.1306 28.6104 19.2305L28.4541 19.332L28.3018 19.4297C28.1048 19.5571 27.8828 19.6104 27.6611 19.6133H27.3721L27.2979 19.9102C27.2209 20.2039 27.0223 20.4447 26.7119 20.5469L26.3135 20.6797C26.2705 20.6938 26.2567 20.7069 26.251 20.7148L26.1416 20.8672L26.0322 21.0234C25.9978 21.0714 25.973 21.1266 25.958 21.1914L25.9111 21.3828L25.8682 21.5703C25.8234 21.763 25.741 21.9429 25.6221 22.1016L25.3955 22.4062C25.3347 22.4873 25.2771 22.5723 25.2275 22.6641L25.1377 22.8359L25.0557 22.9766L25.1299 23.1797L25.2002 23.3828C25.292 23.6424 25.2807 23.9197 25.1416 24.1719L24.9463 24.5234C24.9239 24.564 24.9215 24.5928 24.9229 24.6172L24.9346 24.8047L24.9463 24.9961C24.9495 25.0467 24.9604 25.0985 24.9893 25.1523L25.1768 25.4961C25.2963 25.7197 25.3232 25.9647 25.2744 26.207L25.1963 26.6133C25.1883 26.6531 25.1915 26.6692 25.1963 26.6797L25.2783 26.8516L25.3564 27.0273C25.4121 27.1474 25.4687 27.2686 25.5205 27.3906L25.6689 27.7422C25.7186 27.859 25.77 27.9772 25.8213 28.0977L25.8994 28.2812L25.9502 28.4102L26.1611 28.4609L26.3877 28.5156C26.6896 28.5884 26.9341 28.7878 27.0361 29.1055L27.1025 29.3086L27.165 29.5078L27.3174 29.5781L27.4932 29.6562C27.6806 29.7423 27.841 29.8706 27.9736 30.0273L28.1064 30.1797L28.1807 30.2656L28.3408 30.2383L28.5635 30.1953L28.7979 30.1797C28.8767 30.1846 28.9565 30.201 29.0361 30.2305C29.1161 30.2601 29.1878 30.2998 29.251 30.3477L29.415 30.5117L29.5596 30.6875L29.6807 30.8438L29.8252 30.8398L30.0244 30.8281C30.1546 30.8216 30.2822 30.8155 30.4072 30.8086L30.79 30.7852C30.8973 30.7791 31.0027 30.7679 31.1064 30.75L31.2939 30.7188L31.4775 30.6875C31.6845 30.6517 31.8919 30.6686 32.0908 30.7266L32.2939 30.7852L32.4893 30.8398L32.6572 30.75L32.8291 30.6562C32.9916 30.5647 33.1655 30.499 33.3486 30.4648L33.54 30.4297L33.6924 30.3984L33.7939 30.2188L33.9033 30.0234L34.0205 29.8477C34.1557 29.6897 34.3402 29.5781 34.5635 29.5391L34.7627 29.5039L34.9658 29.4688C35.032 29.4572 35.0814 29.435 35.1221 29.4062L35.2783 29.2969L35.4385 29.1875C35.4748 29.1618 35.5015 29.1276 35.5244 29.082L35.6143 28.9062L35.7002 28.7305C35.7712 28.589 35.8544 28.4564 35.9463 28.332L36.0557 28.1797L36.1689 28.0312C36.2601 27.908 36.3604 27.7896 36.4736 27.6797L36.6182 27.543L36.7588 27.4023C36.7881 27.3739 36.8053 27.3487 36.8135 27.3164L36.8604 27.125L36.9072 26.9375C36.9246 26.867 36.9292 26.7934 36.9229 26.7148L36.8916 26.3164C36.8716 26.0752 36.9279 25.8446 37.0557 25.6406L37.165 25.4688L37.2705 25.2969C37.2855 25.2728 37.2871 25.2636 37.2861 25.2539L37.2471 24.8711C37.2405 24.8077 37.2346 24.7575 37.2314 24.7227C37.23 24.7065 37.2285 24.69 37.2275 24.6758C37.2272 24.6701 37.2238 24.6557 37.2236 24.6406C37.2236 24.6358 37.2251 24.613 37.2275 24.5859C37.2282 24.579 37.2316 24.5532 37.2393 24.5195C37.2396 24.5136 37.2389 24.507 37.2393 24.5L37.2432 24.3945L37.251 24.293C37.2534 24.2467 37.2517 24.1647 37.2471 24.043L37.2393 23.8555L37.2354 23.6641C37.2313 23.5574 37.217 23.4505 37.2002 23.3438L37.1729 23.1562L37.1416 22.9648C37.1316 22.9016 37.1126 22.8422 37.0791 22.7852L36.9775 22.6172L36.8799 22.4531C36.8094 22.3334 36.7457 22.2113 36.6846 22.0898L36.5127 21.7539C36.4727 21.6744 36.4243 21.6002 36.3682 21.5312L36.251 21.3828L36.1338 21.2383C36.0067 21.0821 35.9175 20.9039 35.8643 20.7109L35.8096 20.5078L35.7549 20.3164L35.4189 20.1484C35.2467 20.0602 35.0939 19.9418 34.9658 19.7969L34.8369 19.6523L34.7197 19.5156H34.7119L34.501 19.5L34.29 19.4883C34.0784 19.474 33.8722 19.4145 33.6885 19.2969L33.5361 19.1953L33.3799 19.0977C33.2999 19.0465 33.2144 19.0026 33.126 18.9648L32.9541 18.8906L32.7861 18.8164C32.6864 18.7738 32.5826 18.7372 32.4775 18.7031L32.2979 18.6445L32.1221 18.5859C32.041 18.5597 31.9568 18.5453 31.8721 18.5391L31.6846 18.5234L31.4971 18.5117C31.4245 18.5064 31.3517 18.5096 31.2783 18.5273L31.0947 18.5742L30.9111 18.6172C30.6727 18.6747 30.4361 18.6461 30.2197 18.5586L30.0166 18.4766L29.8174 18.3945C29.7684 18.3747 29.7424 18.3794 29.7275 18.3828L29.5361 18.4258ZM37.2666 24.4375C37.2634 24.4452 37.2613 24.4539 37.2588 24.4609C37.2642 24.446 37.2715 24.4274 37.2822 24.4062C37.2753 24.4201 37.2694 24.4307 37.2666 24.4375Z" fill="#FFE2DE"/>
<circle cx="48.1417" cy="24.6304" r="6.63045" fill="#FFE2DE"/>
<path d="M47.2417 17.4688L47.4409 17.5508L47.644 17.6328C47.6951 17.6533 47.7186 17.6463 47.7261 17.6445L48.0933 17.5586C48.2661 17.5169 48.4435 17.4988 48.6206 17.5117L48.8081 17.5273L48.9956 17.5391C49.1596 17.5512 49.3196 17.5861 49.4761 17.6367L49.6558 17.6953L49.8354 17.75C49.9685 17.7931 50.0986 17.844 50.2261 17.8984L50.3979 17.9727L50.5698 18.043C50.7085 18.1023 50.8416 18.1728 50.9683 18.2539L51.1245 18.3555L51.2769 18.4531C51.2996 18.4677 51.3382 18.4836 51.4058 18.4883L51.6167 18.5039L51.8276 18.5156C52.0865 18.5329 52.3265 18.6391 52.5073 18.8438L52.7651 19.1328C52.8077 19.181 52.8599 19.2243 52.9253 19.2578L53.1011 19.3477L53.2808 19.4414L53.4526 19.5508C53.6073 19.6768 53.7148 19.8462 53.769 20.043L53.8237 20.2461L53.8784 20.4453C53.8988 20.519 53.9259 20.5717 53.9565 20.6094L54.0776 20.7539L54.1948 20.8984C54.2967 21.0236 54.384 21.1604 54.4565 21.3047L54.5425 21.4727L54.6245 21.6406C54.6756 21.7422 54.7327 21.8437 54.7925 21.9453L54.8901 22.1094L54.9878 22.2773C55.0846 22.4418 55.1494 22.6201 55.1792 22.8086L55.2104 23L55.2378 23.1875C55.2607 23.3325 55.2751 23.479 55.2808 23.625L55.2964 24.0078C55.3014 24.1389 55.3013 24.256 55.2964 24.3477L55.2925 24.4492L55.2886 24.5547C55.2867 24.5896 55.2826 24.6214 55.2808 24.6445C55.2804 24.649 55.2774 24.6542 55.2769 24.6602C55.2795 24.6875 55.2838 24.7237 55.2886 24.7695L55.3276 25.1523C55.3525 25.3956 55.2942 25.6257 55.1675 25.8281L55.0581 26L54.9526 26.1719C54.938 26.1953 54.9351 26.2114 54.937 26.2344L54.9526 26.4336L54.9683 26.6289C54.9836 26.8141 54.97 26.9998 54.9253 27.1797L54.8315 27.5547C54.7773 27.7728 54.6673 27.9656 54.5073 28.1211L54.3628 28.2578L54.2222 28.3984C54.1458 28.4725 54.0796 28.5484 54.0229 28.625L53.9097 28.7734L53.8003 28.9258C53.7441 29.0019 53.6908 29.0866 53.644 29.1797L53.5542 29.3555L53.4683 29.5312C53.3734 29.7202 53.2354 29.8813 53.062 30.0039L52.7495 30.2227C52.5805 30.3422 52.3897 30.4216 52.187 30.457L51.9878 30.4922L51.8159 30.5195L51.7183 30.6992L51.6128 30.8945C51.4802 31.1356 51.2611 31.3197 50.9644 31.375L50.7729 31.4141L50.5815 31.4492C50.5079 31.4629 50.4386 31.4891 50.3706 31.5273L50.1948 31.625L50.0229 31.7188C49.7835 31.8537 49.5199 31.8785 49.2651 31.8047L48.8589 31.6875C48.7897 31.6675 48.7387 31.6651 48.6987 31.6719L48.5112 31.7031L48.3276 31.7344C48.1848 31.7591 48.0399 31.777 47.894 31.7852L47.7026 31.7969L47.5151 31.8047C47.3873 31.8118 47.2536 31.8215 47.1206 31.8281L46.9253 31.8359L46.7261 31.8477C46.4073 31.8636 46.1461 31.7149 45.9683 31.4922L45.8276 31.3125L45.7261 31.1875L45.5776 31.2188L45.355 31.2617C45.0543 31.3194 44.7432 31.2442 44.5229 30.9844L44.394 30.8281L44.2612 30.6719C44.2184 30.6213 44.1721 30.5883 44.1245 30.5664L43.9487 30.4844L43.7729 30.4062C43.514 30.2874 43.3466 30.0707 43.2651 29.8164L43.1987 29.6133L43.1519 29.4727L42.9761 29.4336L42.7495 29.3789C42.4764 29.3131 42.2297 29.1446 42.105 28.8516L42.0269 28.6719L41.9487 28.4883C41.8975 28.3679 41.846 28.2495 41.7964 28.1328L41.6479 27.7812C41.6002 27.669 41.5507 27.5557 41.4995 27.4453L41.4214 27.2734L41.3394 27.1016C41.2372 26.8814 41.2188 26.6443 41.2651 26.4141L41.3042 26.2109L41.3433 26.0117C41.3468 25.994 41.3475 25.9828 41.3472 25.9805C41.3468 25.9784 41.3464 25.9748 41.3433 25.9688L41.2495 25.7969L41.1558 25.6211C41.062 25.4452 41.0077 25.2544 40.9956 25.0547L40.9722 24.6797C40.9585 24.4533 41.0136 24.2375 41.1206 24.043L41.2183 23.8633L41.3081 23.7031L41.2339 23.5117L41.1636 23.3086C41.0744 23.0571 41.0779 22.7842 41.2144 22.5312L41.3042 22.3594L41.3979 22.1914C41.4707 22.0565 41.5528 21.9263 41.644 21.8047L41.8706 21.5C41.9037 21.4558 41.9306 21.405 41.9448 21.3438L41.9878 21.1562L42.0308 20.9648C42.0747 20.7755 42.1556 20.5995 42.269 20.4414L42.3784 20.2852L42.4878 20.1328C42.63 19.9346 42.8274 19.7997 43.0503 19.7266L43.2495 19.6641L43.3862 19.6172L43.437 19.4375L43.4956 19.2148L43.5894 18.9883C43.6331 18.9151 43.69 18.8451 43.7651 18.7852C43.918 18.6631 44.0952 18.6192 44.2534 18.6172L44.4761 18.6133H44.6987C44.7731 18.6122 44.8009 18.5945 44.8081 18.5898L44.9604 18.4922L45.1167 18.3906C45.1661 18.3583 45.2241 18.3063 45.2886 18.2266L45.4253 18.0547L45.5659 17.8867C45.7185 17.6977 45.9191 17.5544 46.1675 17.4961L46.3589 17.4531L46.5464 17.4102C46.7849 17.3542 47.023 17.3802 47.2417 17.4688ZM46.5854 18.4258L46.3979 18.4727C46.3929 18.4738 46.3746 18.4768 46.3433 18.5156L46.2065 18.6836L46.0659 18.8555C45.9476 19.0019 45.8135 19.1306 45.6597 19.2305L45.5034 19.332L45.3511 19.4297C45.1541 19.5571 44.9321 19.6104 44.7104 19.6133H44.4214L44.3472 19.9102C44.2702 20.2039 44.0716 20.4447 43.7612 20.5469L43.3628 20.6797C43.3198 20.6938 43.306 20.7069 43.3003 20.7148L43.1909 20.8672L43.0815 21.0234C43.0471 21.0714 43.0224 21.1266 43.0073 21.1914L42.9604 21.3828L42.9175 21.5703C42.8727 21.763 42.7904 21.9429 42.6714 22.1016L42.4448 22.4062C42.384 22.4873 42.3264 22.5723 42.2769 22.6641L42.187 22.8359L42.105 22.9766L42.1792 23.1797L42.2495 23.3828C42.3413 23.6424 42.33 23.9197 42.1909 24.1719L41.9956 24.5234C41.9732 24.564 41.9708 24.5928 41.9722 24.6172L41.9839 24.8047L41.9956 24.9961C41.9988 25.0467 42.0098 25.0985 42.0386 25.1523L42.2261 25.4961C42.3456 25.7197 42.3725 25.9647 42.3237 26.207L42.2456 26.6133C42.2376 26.6531 42.2408 26.6692 42.2456 26.6797L42.3276 26.8516L42.4058 27.0273C42.4615 27.1474 42.518 27.2686 42.5698 27.3906L42.7183 27.7422C42.7679 27.859 42.8193 27.9772 42.8706 28.0977L42.9487 28.2812L42.9995 28.4102L43.2104 28.4609L43.437 28.5156C43.7389 28.5884 43.9834 28.7878 44.0854 29.1055L44.1519 29.3086L44.2144 29.5078L44.3667 29.5781L44.5425 29.6562C44.73 29.7423 44.8903 29.8706 45.0229 30.0273L45.1558 30.1797L45.23 30.2656L45.3901 30.2383L45.6128 30.1953L45.8472 30.1797C45.926 30.1846 46.0058 30.201 46.0854 30.2305C46.1654 30.2601 46.2371 30.2998 46.3003 30.3477L46.4644 30.5117L46.6089 30.6875L46.73 30.8438L46.8745 30.8398L47.0737 30.8281C47.2039 30.8216 47.3315 30.8155 47.4565 30.8086L47.8394 30.7852C47.9466 30.7791 48.052 30.7679 48.1558 30.75L48.3433 30.7188L48.5269 30.6875C48.7338 30.6517 48.9412 30.6686 49.1401 30.7266L49.3433 30.7852L49.5386 30.8398L49.7065 30.75L49.8784 30.6562C50.0409 30.5647 50.2148 30.499 50.3979 30.4648L50.5894 30.4297L50.7417 30.3984L50.8433 30.2188L50.9526 30.0234L51.0698 29.8477C51.2051 29.6897 51.3895 29.5781 51.6128 29.5391L51.812 29.5039L52.0151 29.4688C52.0813 29.4572 52.1307 29.435 52.1714 29.4062L52.3276 29.2969L52.4878 29.1875C52.5241 29.1618 52.5508 29.1276 52.5737 29.082L52.6636 28.9062L52.7495 28.7305C52.8205 28.589 52.9037 28.4564 52.9956 28.332L53.105 28.1797L53.2183 28.0312C53.3094 27.908 53.4098 27.7896 53.5229 27.6797L53.6675 27.543L53.8081 27.4023C53.8375 27.3739 53.8546 27.3487 53.8628 27.3164L53.9097 27.125L53.9565 26.9375C53.974 26.867 53.9785 26.7934 53.9722 26.7148L53.9409 26.3164C53.921 26.0752 53.9772 25.8446 54.105 25.6406L54.2144 25.4688L54.3198 25.2969C54.3348 25.2728 54.3364 25.2636 54.3354 25.2539L54.2964 24.8711C54.2898 24.8077 54.2839 24.7575 54.2808 24.7227C54.2793 24.7065 54.2778 24.69 54.2769 24.6758C54.2765 24.6701 54.2732 24.6557 54.2729 24.6406C54.2729 24.6358 54.2744 24.613 54.2769 24.5859C54.2775 24.579 54.2809 24.5532 54.2886 24.5195C54.2889 24.5136 54.2882 24.507 54.2886 24.5L54.2925 24.3945L54.3003 24.293C54.3028 24.2467 54.301 24.1647 54.2964 24.043L54.2886 23.8555L54.2847 23.6641C54.2806 23.5574 54.2663 23.4505 54.2495 23.3438L54.2222 23.1562L54.1909 22.9648C54.1809 22.9016 54.1619 22.8422 54.1284 22.7852L54.0269 22.6172L53.9292 22.4531C53.8587 22.3334 53.795 22.2113 53.7339 22.0898L53.562 21.7539C53.522 21.6744 53.4736 21.6002 53.4175 21.5312L53.3003 21.3828L53.1831 21.2383C53.056 21.0821 52.9668 20.9039 52.9136 20.7109L52.8589 20.5078L52.8042 20.3164L52.4683 20.1484C52.296 20.0602 52.1432 19.9418 52.0151 19.7969L51.8862 19.6523L51.769 19.5156H51.7612L51.5503 19.5L51.3394 19.4883C51.1277 19.474 50.9216 19.4145 50.7378 19.2969L50.5854 19.1953L50.4292 19.0977C50.3492 19.0465 50.2637 19.0026 50.1753 18.9648L50.0034 18.8906L49.8354 18.8164C49.7358 18.7738 49.6319 18.7372 49.5269 18.7031L49.3472 18.6445L49.1714 18.5859C49.0903 18.5597 49.0061 18.5453 48.9214 18.5391L48.7339 18.5234L48.5464 18.5117C48.4738 18.5064 48.4011 18.5096 48.3276 18.5273L48.144 18.5742L47.9604 18.6172C47.722 18.6747 47.4854 18.6461 47.269 18.5586L47.0659 18.4766L46.8667 18.3945C46.8177 18.3747 46.7918 18.3794 46.7769 18.3828L46.5854 18.4258ZM54.3159 24.4375C54.3127 24.4452 54.3106 24.4539 54.3081 24.4609C54.3135 24.446 54.3208 24.4274 54.3315 24.4062C54.3246 24.4201 54.3187 24.4307 54.3159 24.4375Z" fill="#FFE2DE"/>
<circle cx="58.7301" cy="37.7569" r="6.63045" fill="#FFE2DE"/>
<path d="M57.8301 30.5952L58.0293 30.6772L58.2324 30.7593C58.2835 30.7798 58.307 30.7728 58.3145 30.771L58.6816 30.6851C58.8545 30.6434 59.0319 30.6253 59.209 30.6382L59.3965 30.6538L59.584 30.6655C59.748 30.6776 59.908 30.7126 60.0645 30.7632L60.2441 30.8218L60.4238 30.8765C60.5569 30.9196 60.6869 30.9705 60.8145 31.0249L60.9863 31.0991L61.1582 31.1694C61.2969 31.2287 61.43 31.2993 61.5566 31.3804L61.7129 31.4819L61.8652 31.5796C61.8879 31.5941 61.9266 31.6101 61.9941 31.6147L62.2051 31.6304L62.416 31.6421C62.6748 31.6593 62.9149 31.7656 63.0957 31.9702L63.3535 32.2593C63.3961 32.3075 63.4483 32.3508 63.5137 32.3843L63.6895 32.4741L63.8691 32.5679L64.041 32.6772C64.1957 32.8033 64.3031 32.9727 64.3574 33.1694L64.4121 33.3726L64.4668 33.5718C64.4872 33.6455 64.5142 33.6982 64.5449 33.7358L64.666 33.8804L64.7832 34.0249C64.8851 34.1501 64.9724 34.2869 65.0449 34.4312L65.1309 34.5991L65.2129 34.7671C65.264 34.8686 65.321 34.9702 65.3809 35.0718L65.4785 35.2358L65.5762 35.4038C65.673 35.5682 65.7377 35.7466 65.7676 35.9351L65.7988 36.1265L65.8262 36.314C65.849 36.459 65.8635 36.6055 65.8691 36.7515L65.8848 37.1343C65.8897 37.2654 65.8896 37.3824 65.8848 37.4741L65.8809 37.5757L65.877 37.6812C65.8751 37.7161 65.8709 37.7478 65.8691 37.771C65.8688 37.7755 65.8658 37.7807 65.8652 37.7866C65.8679 37.8139 65.8722 37.8502 65.877 37.896L65.916 38.2788C65.9409 38.5221 65.8826 38.7522 65.7559 38.9546L65.6465 39.1265L65.541 39.2983C65.5264 39.3217 65.5235 39.3378 65.5254 39.3608L65.541 39.5601L65.5566 39.7554C65.572 39.9406 65.5584 40.1263 65.5137 40.3062L65.4199 40.6812C65.3657 40.8992 65.2557 41.092 65.0957 41.2476L64.9512 41.3843L64.8105 41.5249C64.7342 41.599 64.668 41.6749 64.6113 41.7515L64.498 41.8999L64.3887 42.0522C64.3324 42.1283 64.2792 42.213 64.2324 42.3062L64.1426 42.4819L64.0566 42.6577C63.9618 42.8467 63.8238 43.0077 63.6504 43.1304L63.3379 43.3491C63.1689 43.4687 62.9781 43.548 62.7754 43.5835L62.5762 43.6187L62.4043 43.646L62.3066 43.8257L62.2012 44.021C62.0685 44.262 61.8495 44.4462 61.5527 44.5015L61.3613 44.5405L61.1699 44.5757C61.0963 44.5894 61.027 44.6155 60.959 44.6538L60.7832 44.7515L60.6113 44.8452C60.3718 44.9802 60.1082 45.0049 59.8535 44.9312L59.4473 44.814C59.378 44.7939 59.3271 44.7916 59.2871 44.7983L59.0996 44.8296L58.916 44.8608C58.7732 44.8855 58.6283 44.9035 58.4824 44.9116L58.291 44.9233L58.1035 44.9312C57.9756 44.9383 57.842 44.9479 57.709 44.9546L57.5137 44.9624L57.3145 44.9741C56.9957 44.99 56.7345 44.8414 56.5566 44.6187L56.416 44.439L56.3145 44.314L56.166 44.3452L55.9434 44.3882C55.6427 44.4459 55.3316 44.3706 55.1113 44.1108L54.9824 43.9546L54.8496 43.7983C54.8068 43.7478 54.7605 43.7147 54.7129 43.6929L54.5371 43.6108L54.3613 43.5327C54.1024 43.4138 53.935 43.1971 53.8535 42.9429L53.7871 42.7397L53.7402 42.5991L53.5645 42.5601L53.3379 42.5054C53.0648 42.4396 52.8181 42.271 52.6934 41.978L52.6152 41.7983L52.5371 41.6147C52.4859 41.4944 52.4343 41.3759 52.3848 41.2593L52.2363 40.9077C52.1886 40.7954 52.1391 40.6822 52.0879 40.5718L52.0098 40.3999L51.9277 40.228C51.8255 40.0078 51.8072 39.7707 51.8535 39.5405L51.8926 39.3374L51.9316 39.1382C51.9352 39.1205 51.9359 39.1093 51.9355 39.1069C51.9352 39.1049 51.9348 39.1012 51.9316 39.0952L51.8379 38.9233L51.7441 38.7476C51.6504 38.5717 51.596 38.3809 51.584 38.1812L51.5605 37.8062C51.5469 37.5798 51.602 37.3639 51.709 37.1694L51.8066 36.9897L51.8965 36.8296L51.8223 36.6382L51.752 36.4351C51.6628 36.1835 51.6663 35.9107 51.8027 35.6577L51.8926 35.4858L51.9863 35.3179C52.0591 35.1829 52.1412 35.0528 52.2324 34.9312L52.459 34.6265C52.492 34.5823 52.519 34.5315 52.5332 34.4702L52.5762 34.2827L52.6191 34.0913C52.6631 33.9019 52.744 33.726 52.8574 33.5679L52.9668 33.4116L53.0762 33.2593C53.2183 33.0611 53.4158 32.9261 53.6387 32.853L53.8379 32.7905L53.9746 32.7437L54.0254 32.564L54.084 32.3413L54.1777 32.1147C54.2215 32.0416 54.2784 31.9716 54.3535 31.9116C54.5063 31.7895 54.6836 31.7457 54.8418 31.7437L55.0645 31.7397H55.2871C55.3615 31.7386 55.3893 31.721 55.3965 31.7163L55.5488 31.6187L55.7051 31.5171C55.7545 31.4847 55.8125 31.4328 55.877 31.353L56.0137 31.1812L56.1543 31.0132C56.3069 30.8242 56.5075 30.6808 56.7559 30.6226L56.9473 30.5796L57.1348 30.5366C57.3733 30.4806 57.6113 30.5066 57.8301 30.5952ZM57.1738 31.5522L56.9863 31.5991C56.9813 31.6003 56.963 31.6033 56.9316 31.6421L56.7949 31.8101L56.6543 31.9819C56.536 32.1284 56.4019 32.2571 56.248 32.3569L56.0918 32.4585L55.9395 32.5562C55.7425 32.6835 55.5205 32.7369 55.2988 32.7397H55.0098L54.9355 33.0366C54.8586 33.3304 54.66 33.5711 54.3496 33.6733L53.9512 33.8062C53.9082 33.8203 53.8943 33.8334 53.8887 33.8413L53.7793 33.9937L53.6699 34.1499C53.6355 34.1979 53.6107 34.2531 53.5957 34.3179L53.5488 34.5093L53.5059 34.6968C53.4611 34.8895 53.3787 35.0694 53.2598 35.228L53.0332 35.5327C52.9724 35.6138 52.9148 35.6988 52.8652 35.7905L52.7754 35.9624L52.6934 36.103L52.7676 36.3062L52.8379 36.5093C52.9297 36.7689 52.9184 37.0462 52.7793 37.2983L52.584 37.6499C52.5616 37.6905 52.5592 37.7193 52.5605 37.7437L52.5723 37.9312L52.584 38.1226C52.5872 38.1731 52.5981 38.2249 52.627 38.2788L52.8145 38.6226C52.934 38.8462 52.9609 39.0912 52.9121 39.3335L52.834 39.7397C52.826 39.7796 52.8292 39.7957 52.834 39.8062L52.916 39.978L52.9941 40.1538C53.0498 40.2738 53.1063 40.3951 53.1582 40.5171L53.3066 40.8687C53.3563 40.9854 53.4077 41.1036 53.459 41.2241L53.5371 41.4077L53.5879 41.5366L53.7988 41.5874L54.0254 41.6421C54.3273 41.7149 54.5718 41.9143 54.6738 42.2319L54.7402 42.4351L54.8027 42.6343L54.9551 42.7046L55.1309 42.7827C55.3183 42.8688 55.4787 42.9971 55.6113 43.1538L55.7441 43.3062L55.8184 43.3921L55.9785 43.3647L56.2012 43.3218L56.4355 43.3062C56.5144 43.311 56.5942 43.3275 56.6738 43.3569C56.7538 43.3865 56.8255 43.4263 56.8887 43.4741L57.0527 43.6382L57.1973 43.814L57.3184 43.9702L57.4629 43.9663L57.6621 43.9546C57.7923 43.9481 57.9199 43.942 58.0449 43.9351L58.4277 43.9116C58.535 43.9056 58.6404 43.8944 58.7441 43.8765L58.9316 43.8452L59.1152 43.814C59.3222 43.7782 59.5296 43.7951 59.7285 43.853L59.9316 43.9116L60.127 43.9663L60.2949 43.8765L60.4668 43.7827C60.6293 43.6911 60.8032 43.6254 60.9863 43.5913L61.1777 43.5562L61.3301 43.5249L61.4316 43.3452L61.541 43.1499L61.6582 42.9741C61.7934 42.8161 61.9779 42.7046 62.2012 42.6655L62.4004 42.6304L62.6035 42.5952C62.6697 42.5836 62.7191 42.5615 62.7598 42.5327L62.916 42.4233L63.0762 42.314C63.1125 42.2883 63.1392 42.2541 63.1621 42.2085L63.252 42.0327L63.3379 41.8569C63.4089 41.7155 63.4921 41.5828 63.584 41.4585L63.6934 41.3062L63.8066 41.1577C63.8978 41.0344 63.9981 40.916 64.1113 40.8062L64.2559 40.6694L64.3965 40.5288C64.4258 40.5003 64.443 40.4751 64.4512 40.4429L64.498 40.2515L64.5449 40.064C64.5623 39.9934 64.5669 39.9199 64.5605 39.8413L64.5293 39.4429C64.5093 39.2017 64.5656 38.9711 64.6934 38.7671L64.8027 38.5952L64.9082 38.4233C64.9232 38.3993 64.9248 38.39 64.9238 38.3804L64.8848 37.9976C64.8782 37.9341 64.8723 37.884 64.8691 37.8491C64.8677 37.8329 64.8662 37.8165 64.8652 37.8022C64.8649 37.7965 64.8615 37.7821 64.8613 37.7671C64.8613 37.7622 64.8628 37.7395 64.8652 37.7124C64.8659 37.7055 64.8693 37.6797 64.877 37.646C64.8773 37.6401 64.8766 37.6334 64.877 37.6265L64.8809 37.521L64.8887 37.4194C64.8911 37.3731 64.8894 37.2912 64.8848 37.1694L64.877 36.9819L64.873 36.7905C64.869 36.6839 64.8547 36.577 64.8379 36.4702L64.8105 36.2827L64.7793 36.0913C64.7693 36.0281 64.7503 35.9686 64.7168 35.9116L64.6152 35.7437L64.5176 35.5796C64.4471 35.4599 64.3834 35.3378 64.3223 35.2163L64.1504 34.8804C64.1104 34.8008 64.062 34.7267 64.0059 34.6577L63.8887 34.5093L63.7715 34.3647C63.6444 34.2086 63.5552 34.0304 63.502 33.8374L63.4473 33.6343L63.3926 33.4429L63.0566 33.2749C62.8844 33.1867 62.7316 33.0682 62.6035 32.9233L62.4746 32.7788L62.3574 32.6421H62.3496L62.1387 32.6265L61.9277 32.6147C61.7161 32.6005 61.5099 32.541 61.3262 32.4233L61.1738 32.3218L61.0176 32.2241C60.9376 32.1729 60.8521 32.1291 60.7637 32.0913L60.5918 32.0171L60.4238 31.9429C60.3241 31.9003 60.2203 31.8636 60.1152 31.8296L59.9355 31.771L59.7598 31.7124C59.6787 31.6862 59.5945 31.6717 59.5098 31.6655L59.3223 31.6499L59.1348 31.6382C59.0622 31.6329 58.9894 31.6361 58.916 31.6538L58.7324 31.7007L58.5488 31.7437C58.3104 31.8012 58.0738 31.7725 57.8574 31.6851L57.6543 31.603L57.4551 31.521C57.4061 31.5012 57.3801 31.5059 57.3652 31.5093L57.1738 31.5522ZM64.9043 37.564C64.9011 37.5717 64.899 37.5803 64.8965 37.5874C64.9019 37.5725 64.9092 37.5539 64.9199 37.5327C64.913 37.5466 64.9071 37.5572 64.9043 37.564Z" fill="#FFE2DE"/>
</svg>
