<svg width="128" height="128" viewBox="0 0 128 128" fill="none" xmlns="http://www.w3.org/2000/svg">
<circle cx="12.6218" cy="76.6223" r="0.888889" fill="#CDCDCD"/>
<path d="M12.6168 77.3814L12.5748 76.6715L12.6168 77.3814ZM12.3234 77.3988L12.2814 76.6889L12.3234 77.3988ZM12.0299 77.4161L12.0719 78.126L12.0299 77.4161ZM13.5545 76.4154L14.2502 76.5625L13.5545 76.4154ZM13.5399 76.4843L12.8442 76.3372L13.5399 76.4843ZM13.3606 76.8077L12.8079 76.3603L13.3606 76.8077ZM13.2105 76.9932L12.6577 76.5457L12.5076 76.7312L13.0603 77.1786L13.613 77.626L13.7632 77.4406L13.2105 76.9932ZM13.0603 77.1786L12.5076 76.7312C12.5169 76.7197 12.5285 76.7082 12.542 76.6977C12.5555 76.6873 12.5683 76.6801 12.5787 76.6753C12.5993 76.6659 12.6024 76.6699 12.5748 76.6715L12.6168 77.3814L12.6588 78.0913C13.0041 78.0708 13.3589 77.94 13.613 77.626L13.0603 77.1786ZM12.6168 77.3814L12.5748 76.6715L12.2814 76.6889L12.3234 77.3988L12.3654 78.1086L12.6588 78.0913L12.6168 77.3814ZM12.3234 77.3988L12.2814 76.6889L11.9879 76.7063L12.0299 77.4161L12.0719 78.126L12.3654 78.1086L12.3234 77.3988ZM12.0299 77.4161L11.9879 76.7063C11.9904 76.7061 12.033 76.7033 12.0977 76.7215C12.168 76.7412 12.2692 76.7879 12.3571 76.8872C12.4456 76.9872 12.4807 77.0956 12.4917 77.1729C12.5017 77.2434 12.4923 77.2887 12.4913 77.2937L11.7948 77.1503L11.0983 77.0069C11.0622 77.1824 11.0308 77.5344 11.2918 77.8295C11.5488 78.1201 11.8972 78.1363 12.0719 78.126L12.0299 77.4161ZM11.7948 77.1503L12.4913 77.2937L12.5496 77.0105L11.8531 76.8671L11.1566 76.7237L11.0983 77.0069L11.7948 77.1503ZM11.8531 76.8671L12.5496 77.0105L12.6079 76.7274L11.9114 76.5839L11.2149 76.4405L11.1566 76.7237L11.8531 76.8671ZM11.9114 76.5839L12.6079 76.7274C12.6152 76.6921 12.6181 76.7052 12.5951 76.7404C12.5678 76.7824 12.5145 76.8381 12.4328 76.8741L12.1467 76.223L11.8606 75.572C11.4418 75.756 11.2761 76.1433 11.2149 76.4405L11.9114 76.5839ZM12.1467 76.223L12.4328 76.8741L12.6097 76.7963L12.3237 76.1453L12.0376 75.4942L11.8606 75.572L12.1467 76.223ZM12.3237 76.1453L12.6097 76.7963L12.7867 76.7185L12.5006 76.0675L12.2145 75.4165L12.0376 75.4942L12.3237 76.1453ZM12.5006 76.0675L12.7867 76.7185C12.7458 76.7365 12.7037 76.7433 12.6688 76.7423C12.6369 76.7414 12.6246 76.7345 12.6363 76.7392L12.9004 76.0789L13.1646 75.4187C12.8843 75.3065 12.5475 75.2702 12.2145 75.4165L12.5006 76.0675ZM12.9004 76.0789L12.6363 76.7392L12.8592 76.8283L13.1233 76.1681L13.3874 75.5078L13.1646 75.4187L12.9004 76.0789ZM13.1233 76.1681L12.8592 76.8283L13.0821 76.9175L13.3462 76.2572L13.6103 75.597L13.3874 75.5078L13.1233 76.1681ZM13.3462 76.2572L13.0821 76.9175C13.1377 76.9397 13.1217 76.9396 13.0797 76.9077C13.0585 76.8916 12.9949 76.8409 12.9385 76.7477C12.8748 76.6425 12.8158 76.4714 12.8587 76.2682L13.5545 76.4154L14.2502 76.5625C14.3489 76.0959 14.0022 75.8224 13.9397 75.775C13.8283 75.6904 13.7033 75.6342 13.6103 75.597L13.3462 76.2572ZM13.5545 76.4154L12.8587 76.2682L12.8442 76.3372L13.5399 76.4843L14.2356 76.6315L14.2502 76.5625L13.5545 76.4154ZM13.5399 76.4843L12.8442 76.3372L12.8296 76.4061L13.5253 76.5533L14.221 76.7005L14.2356 76.6315L13.5399 76.4843ZM13.5253 76.5533L12.8296 76.4061C12.8375 76.3686 12.8473 76.3396 12.8542 76.3212C12.8614 76.3023 12.8679 76.2883 12.872 76.28C12.8762 76.2716 12.8792 76.2662 12.8803 76.2643C12.8815 76.2623 12.8815 76.2625 12.8799 76.2649C12.8765 76.2702 12.8692 76.281 12.8565 76.298C12.8441 76.3147 12.828 76.3354 12.8079 76.3603L13.3606 76.8077L13.9133 77.2552C13.9713 77.1835 14.0272 77.1097 14.0737 77.0379C14.1067 76.9869 14.1871 76.8606 14.221 76.7005L13.5253 76.5533ZM13.3606 76.8077L12.8079 76.3603L12.6577 76.5457L13.2105 76.9932L13.7632 77.4406L13.9133 77.2552L13.3606 76.8077Z" fill="#CDCDCD"/>
<circle cx="115.378" cy="76.6223" r="0.888889" fill="#CDCDCD"/>
<path d="M115.844 77.2508L116.435 77.6474L115.844 77.2508ZM115.402 77.4519L115.383 78.1628L115.402 77.4519ZM114.8 77.4353L114.781 78.1462L114.8 77.4353ZM115.647 76.0688L115.353 76.7161L115.647 76.0688ZM116.072 76.2618L116.366 75.6145L116.072 76.2618ZM116.28 76.4243L115.57 76.3777L116.28 76.4243ZM116.271 76.5563L115.561 76.5097L116.271 76.5563ZM116.126 76.8318L115.536 76.4352L116.126 76.8318ZM115.985 77.0413L115.395 76.6447L115.254 76.8542L115.844 77.2508L116.435 77.6474L116.575 77.4379L115.985 77.0413ZM115.844 77.2508L115.254 76.8542C115.277 76.8193 115.318 76.7819 115.369 76.7586C115.414 76.7378 115.44 76.7416 115.422 76.7411L115.402 77.4519L115.383 78.1628C115.773 78.1735 116.177 78.031 116.435 77.6474L115.844 77.2508ZM115.402 77.4519L115.422 76.7411L115.121 76.7328L115.101 77.4436L115.082 78.1545L115.383 78.1628L115.402 77.4519ZM115.101 77.4436L115.121 76.7328L114.82 76.7245L114.8 77.4353L114.781 78.1462L115.082 78.1545L115.101 77.4436ZM114.8 77.4353L114.82 76.7245C114.82 76.7245 114.822 76.7245 114.826 76.7249C114.829 76.7252 114.835 76.7258 114.842 76.7269C114.856 76.7291 114.881 76.7341 114.913 76.7452C114.976 76.7676 115.084 76.8221 115.173 76.9427C115.266 77.0681 115.29 77.2011 115.288 77.2952C115.287 77.3791 115.266 77.431 115.263 77.4376L114.604 77.1694L113.946 76.9011C113.883 77.056 113.769 77.4349 114.029 77.7867C114.267 78.1095 114.632 78.142 114.781 78.1462L114.8 77.4353ZM114.604 77.1694L115.263 77.4376L115.368 77.18L114.709 76.9117L114.051 76.6435L113.946 76.9011L114.604 77.1694ZM114.709 76.9117L115.368 77.18L115.473 76.9223L114.814 76.6541L114.156 76.3859L114.051 76.6435L114.709 76.9117ZM114.814 76.6541L115.473 76.9223C115.496 76.8661 115.514 76.834 115.523 76.819C115.533 76.8032 115.528 76.8165 115.5 76.8396L115.048 76.2904L114.596 75.7412C114.377 75.9212 114.244 76.169 114.156 76.3859L114.814 76.6541ZM115.048 76.2904L115.5 76.8396L115.629 76.7335L115.177 76.1843L114.725 75.6351L114.596 75.7412L115.048 76.2904ZM115.177 76.1843L115.629 76.7335L115.758 76.6275L115.306 76.0783L114.854 75.5291L114.725 75.6351L115.177 76.1843ZM115.306 76.0783L115.758 76.6275C115.676 76.6949 115.573 76.731 115.476 76.7337C115.392 76.736 115.346 76.7132 115.353 76.7161L115.647 76.0688L115.942 75.4214C115.666 75.2961 115.231 75.2191 114.854 75.5291L115.306 76.0783ZM115.647 76.0688L115.353 76.7161L115.565 76.8126L115.859 76.1653L116.154 75.518L115.942 75.4214L115.647 76.0688ZM115.859 76.1653L115.565 76.8126L115.777 76.9091L116.072 76.2618L116.366 75.6145L116.154 75.518L115.859 76.1653ZM116.072 76.2618L115.777 76.9091C115.829 76.9329 115.823 76.9351 115.792 76.9109C115.776 76.8987 115.727 76.8591 115.679 76.7879C115.629 76.7141 115.557 76.5709 115.57 76.3777L116.28 76.4243L116.989 76.4709C117.003 76.2557 116.924 76.0893 116.857 75.9909C116.792 75.8952 116.718 75.8298 116.668 75.7904C116.567 75.7121 116.455 75.6551 116.366 75.6145L116.072 76.2618ZM116.28 76.4243L115.57 76.3777L115.566 76.4437L116.275 76.4903L116.985 76.5369L116.989 76.4709L116.28 76.4243ZM116.275 76.4903L115.566 76.4437L115.561 76.5097L116.271 76.5563L116.98 76.6029L116.985 76.5369L116.275 76.4903ZM116.271 76.5563L115.561 76.5097C115.565 76.4607 115.573 76.4226 115.579 76.3994C115.585 76.3753 115.591 76.3574 115.595 76.3472C115.602 76.3278 115.607 76.3198 115.603 76.3268C115.6 76.3324 115.594 76.3444 115.582 76.3638C115.57 76.3828 115.555 76.4065 115.536 76.4352L116.126 76.8318L116.716 77.2284C116.77 77.1487 116.821 77.0673 116.862 76.9895C116.886 76.9436 116.968 76.7905 116.98 76.6029L116.271 76.5563ZM116.126 76.8318L115.536 76.4352L115.395 76.6447L115.985 77.0413L116.575 77.4379L116.716 77.2284L116.126 76.8318Z" fill="#CDCDCD"/>
<circle cx="11.5554" cy="63.1115" r="0.888889" fill="#CDCDCD"/>
<path d="M11.5504 63.8707L11.5084 63.1608L11.5504 63.8707ZM11.257 63.888L11.215 63.1782L11.257 63.888ZM10.9635 63.9054L11.0055 64.6153L10.9635 63.9054ZM12.4881 62.9046L13.1838 63.0518L12.4881 62.9046ZM12.4735 62.9736L11.7778 62.8264L12.4735 62.9736ZM12.2942 63.297L11.7415 62.8496L12.2942 63.297ZM12.144 63.4824L11.5913 63.035L11.4412 63.2204L11.9939 63.6679L12.5466 64.1153L12.6967 63.9299L12.144 63.4824ZM11.9939 63.6679L11.4412 63.2204C11.4505 63.209 11.4621 63.1974 11.4756 63.187C11.4891 63.1766 11.5019 63.1693 11.5123 63.1646C11.5329 63.1552 11.536 63.1592 11.5084 63.1608L11.5504 63.8707L11.5924 64.5805C11.9377 64.5601 12.2924 64.4293 12.5466 64.1153L11.9939 63.6679ZM11.5504 63.8707L11.5084 63.1608L11.215 63.1782L11.257 63.888L11.299 64.5979L11.5924 64.5805L11.5504 63.8707ZM11.257 63.888L11.215 63.1782L10.9215 63.1955L10.9635 63.9054L11.0055 64.6153L11.299 64.5979L11.257 63.888ZM10.9635 63.9054L10.9215 63.1955C10.924 63.1954 10.9666 63.1925 11.0313 63.2107C11.1016 63.2305 11.2028 63.2771 11.2907 63.3765C11.3791 63.4765 11.4142 63.5849 11.4252 63.6621C11.4353 63.7326 11.4259 63.778 11.4249 63.783L10.7284 63.6396L10.0319 63.4962C9.99577 63.6717 9.96441 64.0237 10.2254 64.3187C10.4824 64.6093 10.8308 64.6256 11.0055 64.6153L10.9635 63.9054ZM10.7284 63.6396L11.4249 63.783L11.4832 63.4998L10.7867 63.3564L10.0902 63.213L10.0319 63.4962L10.7284 63.6396ZM10.7867 63.3564L11.4832 63.4998L11.5415 63.2166L10.845 63.0732L10.1485 62.9298L10.0902 63.213L10.7867 63.3564ZM10.845 63.0732L11.5415 63.2166C11.5488 63.1814 11.5517 63.1945 11.5287 63.2297C11.5014 63.2716 11.4481 63.3274 11.3663 63.3633L11.0803 62.7123L10.7942 62.0612C10.3754 62.2453 10.2097 62.6326 10.1485 62.9298L10.845 63.0732ZM11.0803 62.7123L11.3663 63.3633L11.5433 63.2856L11.2572 62.6345L10.9712 61.9835L10.7942 62.0612L11.0803 62.7123ZM11.2572 62.6345L11.5433 63.2856L11.7203 63.2078L11.4342 62.5568L11.1481 61.9057L10.9712 61.9835L11.2572 62.6345ZM11.4342 62.5568L11.7203 63.2078C11.6794 63.2257 11.6372 63.2326 11.6024 63.2316C11.5705 63.2307 11.5582 63.2237 11.5699 63.2284L11.834 62.5682L12.0982 61.9079C11.8179 61.7958 11.4811 61.7594 11.1481 61.9057L11.4342 62.5568ZM11.834 62.5682L11.5699 63.2284L11.7928 63.3176L12.0569 62.6573L12.321 61.9971L12.0982 61.9079L11.834 62.5682ZM12.0569 62.6573L11.7928 63.3176L12.0156 63.4067L12.2798 62.7465L12.5439 62.0863L12.321 61.9971L12.0569 62.6573ZM12.2798 62.7465L12.0156 63.4067C12.0713 63.429 12.0553 63.4289 12.0133 63.397C11.9921 63.3809 11.9285 63.3302 11.8721 63.2369C11.8084 63.1317 11.7494 62.9606 11.7923 62.7574L12.4881 62.9046L13.1838 63.0518C13.2825 62.5852 12.9357 62.3117 12.8733 62.2642C12.7619 62.1796 12.6369 62.1234 12.5439 62.0863L12.2798 62.7465ZM12.4881 62.9046L11.7923 62.7574L11.7778 62.8264L12.4735 62.9736L13.1692 63.1208L13.1838 63.0518L12.4881 62.9046ZM12.4735 62.9736L11.7778 62.8264L11.7632 62.8954L12.4589 63.0426L13.1546 63.1898L13.1692 63.1208L12.4735 62.9736ZM12.4589 63.0426L11.7632 62.8954C11.7711 62.8579 11.7809 62.8289 11.7878 62.8105C11.795 62.7915 11.8015 62.7775 11.8056 62.7693C11.8098 62.7608 11.8128 62.7555 11.8139 62.7536C11.8151 62.7516 11.8151 62.7517 11.8135 62.7542C11.8101 62.7595 11.8027 62.7702 11.7901 62.7872C11.7777 62.804 11.7616 62.8246 11.7415 62.8496L12.2942 63.297L12.8469 63.7444C12.9049 63.6728 12.9608 63.599 13.0073 63.5271C13.0403 63.4762 13.1207 63.3499 13.1546 63.1898L12.4589 63.0426ZM12.2942 63.297L11.7415 62.8496L11.5913 63.035L12.144 63.4824L12.6967 63.9299L12.8469 63.7444L12.2942 63.297Z" fill="#CDCDCD"/>
<circle cx="8.71115" cy="66.3108" r="0.888889" fill="#CDCDCD"/>
<path d="M8.70614 67.0699L8.66414 66.36L8.70614 67.0699ZM8.41272 67.0872L8.37072 66.3774L8.41272 67.0872ZM8.11929 67.1046L8.16129 67.8145L8.11929 67.1046ZM9.64382 66.1038L10.3395 66.251L9.64382 66.1038ZM9.62923 66.1728L8.93351 66.0256L9.62923 66.1728ZM9.44992 66.4962L8.89722 66.0488L9.44992 66.4962ZM9.29981 66.6816L8.7471 66.2342L8.59698 66.4196L9.14969 66.8671L9.70239 67.3145L9.85251 67.1291L9.29981 66.6816ZM9.14969 66.8671L8.59698 66.4196C8.60623 66.4082 8.61782 66.3967 8.63137 66.3862C8.64486 66.3758 8.65766 66.3685 8.66805 66.3638C8.68862 66.3544 8.69176 66.3584 8.66414 66.36L8.70614 67.0699L8.74814 67.7798C9.09345 67.7593 9.44821 67.6285 9.70239 67.3145L9.14969 66.8671ZM8.70614 67.0699L8.66414 66.36L8.37072 66.3774L8.41272 67.0872L8.45472 67.7971L8.74814 67.7798L8.70614 67.0699ZM8.41272 67.0872L8.37072 66.3774L8.07729 66.3947L8.11929 67.1046L8.16129 67.8145L8.45472 67.7971L8.41272 67.0872ZM8.11929 67.1046L8.07729 66.3947C8.07979 66.3946 8.12235 66.3917 8.18703 66.4099C8.25734 66.4297 8.35857 66.4763 8.44644 66.5757C8.53491 66.6757 8.57001 66.7841 8.58101 66.8613C8.59105 66.9318 8.5817 66.9772 8.58067 66.9822L7.88417 66.8388L7.18767 66.6954C7.15153 66.8709 7.12017 67.2229 7.38115 67.518C7.63819 67.8086 7.98658 67.8248 8.16129 67.8145L8.11929 67.1046ZM7.88417 66.8388L8.58067 66.9822L8.63898 66.699L7.94248 66.5556L7.24598 66.4122L7.18767 66.6954L7.88417 66.8388ZM7.94248 66.5556L8.63898 66.699L8.69728 66.4158L8.00078 66.2724L7.30428 66.129L7.24598 66.4122L7.94248 66.5556ZM8.00078 66.2724L8.69728 66.4158C8.70454 66.3806 8.70742 66.3937 8.68448 66.4289C8.65715 66.4708 8.60391 66.5266 8.52211 66.5625L8.23605 65.9115L7.94999 65.2605C7.53116 65.4445 7.36548 65.8318 7.30428 66.129L8.00078 66.2724ZM8.23605 65.9115L8.52211 66.5625L8.69907 66.4848L8.41301 65.8337L8.12695 65.1827L7.94999 65.2605L8.23605 65.9115ZM8.41301 65.8337L8.69907 66.4848L8.87603 66.407L8.58996 65.756L8.3039 65.1049L8.12695 65.1827L8.41301 65.8337ZM8.58996 65.756L8.87603 66.407C8.8352 66.425 8.79301 66.4318 8.75812 66.4308C8.72627 66.4299 8.71392 66.4229 8.72567 66.4276L8.9898 65.7674L9.25392 65.1071C8.97365 64.995 8.63689 64.9586 8.3039 65.1049L8.58996 65.756ZM8.9898 65.7674L8.72567 66.4276L8.94854 66.5168L9.21267 65.8565L9.4768 65.1963L9.25392 65.1071L8.9898 65.7674ZM9.21267 65.8565L8.94854 66.5168L9.17141 66.6059L9.43554 65.9457L9.69967 65.2855L9.4768 65.1963L9.21267 65.8565ZM9.43554 65.9457L9.17141 66.6059C9.22704 66.6282 9.21103 66.6281 9.16904 66.5962C9.14785 66.5801 9.08423 66.5294 9.02782 66.4361C8.96417 66.3309 8.90512 66.1599 8.94811 65.9567L9.64382 66.1038L10.3395 66.251C10.4382 65.7844 10.0915 65.5109 10.0291 65.4635C9.91763 65.3789 9.79262 65.3227 9.69967 65.2855L9.43554 65.9457ZM9.64382 66.1038L8.94811 65.9567L8.93351 66.0256L9.62923 66.1728L10.3249 66.32L10.3395 66.251L9.64382 66.1038ZM9.62923 66.1728L8.93351 66.0256L8.91892 66.0946L9.61464 66.2418L10.3103 66.389L10.3249 66.32L9.62923 66.1728ZM9.61464 66.2418L8.91892 66.0946C8.92685 66.0571 8.93663 66.0281 8.94358 66.0097C8.95074 65.9907 8.95729 65.9767 8.96135 65.9685C8.96554 65.96 8.9686 65.9547 8.96969 65.9528C8.97084 65.9508 8.97083 65.9509 8.96923 65.9534C8.96581 65.9587 8.95851 65.9694 8.94587 65.9864C8.93343 66.0032 8.9174 66.0238 8.89722 66.0488L9.44992 66.4962L10.0026 66.9436C10.0606 66.872 10.1166 66.7982 10.1631 66.7263C10.1961 66.6754 10.2765 66.5491 10.3103 66.389L9.61464 66.2418ZM9.44992 66.4962L8.89722 66.0488L8.7471 66.2342L9.29981 66.6816L9.85251 67.1291L10.0026 66.9436L9.44992 66.4962Z" fill="#CDCDCD"/>
<circle cx="118.933" cy="68.4445" r="0.888889" fill="#CDCDCD"/>
<path d="M119.4 69.073L119.99 69.4696L119.4 69.073ZM118.958 69.2742L118.939 69.985L118.958 69.2742ZM118.356 69.2576L118.336 69.9684L118.356 69.2576ZM119.203 67.891L118.908 68.5383L119.203 67.891ZM119.627 68.0841L119.922 67.4368L119.627 68.0841ZM119.835 68.2466L119.126 68.2L119.835 68.2466ZM119.827 68.3786L119.117 68.332L119.827 68.3786ZM119.681 68.654L119.091 68.2574L119.681 68.654ZM119.541 68.8635L118.95 68.4669L118.81 68.6764L119.4 69.073L119.99 69.4696L120.131 69.2601L119.541 68.8635ZM119.4 69.073L118.81 68.6764C118.833 68.6416 118.873 68.6042 118.924 68.5809C118.97 68.5601 118.995 68.5638 118.978 68.5634L118.958 69.2742L118.939 69.985C119.328 69.9958 119.732 69.8533 119.99 69.4696L119.4 69.073ZM118.958 69.2742L118.978 68.5634L118.677 68.5551L118.657 69.2659L118.638 69.9767L118.939 69.985L118.958 69.2742ZM118.657 69.2659L118.677 68.5551L118.376 68.5467L118.356 69.2576L118.336 69.9684L118.638 69.9767L118.657 69.2659ZM118.356 69.2576L118.376 68.5467C118.376 68.5468 118.378 68.5468 118.381 68.5471C118.385 68.5474 118.391 68.548 118.398 68.5492C118.412 68.5514 118.437 68.5563 118.468 68.5675C118.532 68.5899 118.64 68.6444 118.729 68.7649C118.821 68.8903 118.846 69.0233 118.844 69.1174C118.842 69.2013 118.821 69.2533 118.819 69.2599L118.16 68.9916L117.501 68.7234C117.438 68.8782 117.325 69.2572 117.584 69.6089C117.822 69.9317 118.187 69.9643 118.336 69.9684L118.356 69.2576ZM118.16 68.9916L118.819 69.2599L118.924 69.0022L118.265 68.734L117.606 68.4658L117.501 68.7234L118.16 68.9916ZM118.265 68.734L118.924 69.0022L119.028 68.7446L118.37 68.4764L117.711 68.2081L117.606 68.4658L118.265 68.734ZM118.37 68.4764L119.028 68.7446C119.051 68.6884 119.069 68.6563 119.079 68.6412C119.089 68.6254 119.084 68.6388 119.055 68.6619L118.604 68.1127L118.152 67.5634C117.933 67.7435 117.8 67.9913 117.711 68.2081L118.37 68.4764ZM118.604 68.1127L119.055 68.6619L119.184 68.5558L118.733 68.0066L118.281 67.4574L118.152 67.5634L118.604 68.1127ZM118.733 68.0066L119.184 68.5558L119.313 68.4498L118.862 67.9005L118.41 67.3513L118.281 67.4574L118.733 68.0066ZM118.862 67.9005L119.313 68.4498C119.231 68.5171 119.129 68.5533 119.031 68.556C118.948 68.5583 118.902 68.5354 118.908 68.5383L119.203 67.891L119.497 67.2437C119.222 67.1184 118.787 67.0414 118.41 67.3513L118.862 67.9005ZM119.203 67.891L118.908 68.5383L119.121 68.6349L119.415 67.9875L119.709 67.3402L119.497 67.2437L119.203 67.891ZM119.415 67.9875L119.121 68.6349L119.333 68.7314L119.627 68.0841L119.922 67.4368L119.709 67.3402L119.415 67.9875ZM119.627 68.0841L119.333 68.7314C119.385 68.7551 119.378 68.7574 119.347 68.7332C119.332 68.721 119.283 68.6814 119.235 68.6101C119.185 68.5363 119.113 68.3932 119.126 68.2L119.835 68.2466L120.545 68.2932C120.559 68.078 120.479 67.9116 120.413 67.8132C120.348 67.7174 120.274 67.652 120.223 67.6127C120.123 67.5343 120.011 67.4774 119.922 67.4368L119.627 68.0841ZM119.835 68.2466L119.126 68.2L119.121 68.266L119.831 68.3126L120.54 68.3592L120.545 68.2932L119.835 68.2466ZM119.831 68.3126L119.121 68.266L119.117 68.332L119.827 68.3786L120.536 68.4252L120.54 68.3592L119.831 68.3126ZM119.827 68.3786L119.117 68.332C119.12 68.283 119.128 68.2448 119.134 68.2217C119.14 68.1976 119.147 68.1797 119.151 68.1695C119.158 68.1501 119.163 68.142 119.159 68.149C119.156 68.1547 119.149 68.1666 119.137 68.186C119.126 68.2051 119.11 68.2287 119.091 68.2574L119.681 68.654L120.272 69.0506C120.325 68.971 120.376 68.8895 120.417 68.8118C120.442 68.7658 120.524 68.6128 120.536 68.4252L119.827 68.3786ZM119.681 68.654L119.091 68.2574L118.95 68.4669L119.541 68.8635L120.131 69.2601L120.272 69.0506L119.681 68.654Z" fill="#CDCDCD"/>
</svg>
