<svg width="128" height="128" viewBox="0 0 128 128" fill="none" xmlns="http://www.w3.org/2000/svg">
<path d="M66.2993 74.8061C66.4727 74.935 66.6462 75.1312 66.7154 75.4087C66.7673 75.617 66.7458 75.8125 66.6925 75.9797L66.6299 76.1369L66.3688 76.6832C66.3052 76.8163 66.2667 76.9381 66.2456 77.0481L66.1945 77.3138L66.1441 77.5789C66.1264 77.6712 66.0994 77.7947 66.0555 77.9025C66.0434 77.9324 65.981 78.0923 65.8268 78.2195C65.7311 78.2983 65.5559 78.4002 65.3195 78.3853C65.276 78.3825 65.2355 78.374 65.1973 78.3649L65.0956 78.4178L64.8633 78.5374C64.5676 78.6903 64.2388 78.7396 63.9052 78.6639L63.6616 78.6087L63.4187 78.5542C63.1878 78.5017 62.9684 78.4149 62.7668 78.2907L62.5731 78.1721L62.3794 78.0522C62.2244 77.9567 62.0656 77.8451 61.9038 77.7194L61.6853 77.5497L61.4655 77.3799C61.3085 77.2579 61.1699 77.0932 61.0871 76.8817C61.0042 76.67 60.9944 76.4545 61.0273 76.258L61.0736 75.986L61.1192 75.7134C61.1774 75.366 61.3508 75.0541 61.6498 74.8344L61.856 74.683L62.0615 74.5323C62.1518 74.466 62.2363 74.4011 62.3168 74.3404L63.179 75.4717C63.0916 75.5376 63.0003 75.6071 62.9036 75.6781L62.6974 75.8295L62.5196 75.9595L62.4754 76.2211L62.4551 76.346L62.557 76.4264L62.7755 76.5962C62.9053 76.6969 63.0224 76.778 63.1256 76.8416L63.3187 76.9609L63.5131 77.0802C63.5697 77.115 63.6411 77.1453 63.7338 77.1664L63.9767 77.2223L64.21 77.274L64.4423 77.1545L64.6733 77.0349C64.7157 77.013 64.763 76.99 64.8123 76.9683L64.848 76.7813C64.8945 76.538 64.9767 76.3004 65.0867 76.07L65.2166 75.7976L65.2256 75.7789L65.2077 75.7665L64.9644 75.5856C64.8957 75.5345 64.8338 75.4938 64.779 75.4615L65.8065 74.4395C65.8084 74.4408 65.8102 74.4423 65.812 74.4436L66.056 74.6252L66.2993 74.8061Z" fill="#CDCDCD"/>
</svg>
