<svg width="128" height="128" viewBox="0 0 128 128" fill="none" xmlns="http://www.w3.org/2000/svg">
<circle cx="12.6218" cy="76.6223" r="0.888889" fill="#CDCDCD"/>
<path d="M12.6168 77.3814L12.5748 76.6715L12.6168 77.3814ZM12.3234 77.3988L12.2814 76.6889L12.3234 77.3988ZM12.0299 77.4161L12.0719 78.126L12.0299 77.4161ZM13.5545 76.4154L14.2502 76.5625L13.5545 76.4154ZM13.5399 76.4843L12.8442 76.3372L13.5399 76.4843ZM13.3606 76.8077L12.8079 76.3603L13.3606 76.8077ZM13.2105 76.9932L12.6577 76.5457L12.5076 76.7312L13.0603 77.1786L13.613 77.626L13.7632 77.4406L13.2105 76.9932ZM13.0603 77.1786L12.5076 76.7312C12.5169 76.7197 12.5285 76.7082 12.542 76.6977C12.5555 76.6873 12.5683 76.6801 12.5787 76.6753C12.5993 76.6659 12.6024 76.6699 12.5748 76.6715L12.6168 77.3814L12.6588 78.0913C13.0041 78.0708 13.3589 77.94 13.613 77.626L13.0603 77.1786ZM12.6168 77.3814L12.5748 76.6715L12.2814 76.6889L12.3234 77.3988L12.3654 78.1086L12.6588 78.0913L12.6168 77.3814ZM12.3234 77.3988L12.2814 76.6889L11.9879 76.7063L12.0299 77.4161L12.0719 78.126L12.3654 78.1086L12.3234 77.3988ZM12.0299 77.4161L11.9879 76.7063C11.9904 76.7061 12.033 76.7033 12.0977 76.7215C12.168 76.7412 12.2692 76.7879 12.3571 76.8872C12.4456 76.9872 12.4807 77.0956 12.4917 77.1729C12.5017 77.2434 12.4923 77.2887 12.4913 77.2937L11.7948 77.1503L11.0983 77.0069C11.0622 77.1824 11.0308 77.5344 11.2918 77.8295C11.5488 78.1201 11.8972 78.1363 12.0719 78.126L12.0299 77.4161ZM11.7948 77.1503L12.4913 77.2937L12.5496 77.0105L11.8531 76.8671L11.1566 76.7237L11.0983 77.0069L11.7948 77.1503ZM11.8531 76.8671L12.5496 77.0105L12.6079 76.7274L11.9114 76.5839L11.2149 76.4405L11.1566 76.7237L11.8531 76.8671ZM11.9114 76.5839L12.6079 76.7274C12.6152 76.6921 12.6181 76.7052 12.5951 76.7404C12.5678 76.7824 12.5145 76.8381 12.4328 76.8741L12.1467 76.223L11.8606 75.572C11.4418 75.756 11.2761 76.1433 11.2149 76.4405L11.9114 76.5839ZM12.1467 76.223L12.4328 76.8741L12.6097 76.7963L12.3237 76.1453L12.0376 75.4942L11.8606 75.572L12.1467 76.223ZM12.3237 76.1453L12.6097 76.7963L12.7867 76.7185L12.5006 76.0675L12.2145 75.4165L12.0376 75.4942L12.3237 76.1453ZM12.5006 76.0675L12.7867 76.7185C12.7458 76.7365 12.7037 76.7433 12.6688 76.7423C12.6369 76.7414 12.6246 76.7345 12.6363 76.7392L12.9004 76.0789L13.1646 75.4187C12.8843 75.3065 12.5475 75.2702 12.2145 75.4165L12.5006 76.0675ZM12.9004 76.0789L12.6363 76.7392L12.8592 76.8283L13.1233 76.1681L13.3874 75.5078L13.1646 75.4187L12.9004 76.0789ZM13.1233 76.1681L12.8592 76.8283L13.0821 76.9175L13.3462 76.2572L13.6103 75.597L13.3874 75.5078L13.1233 76.1681ZM13.3462 76.2572L13.0821 76.9175C13.1377 76.9397 13.1217 76.9396 13.0797 76.9077C13.0585 76.8916 12.9949 76.8409 12.9385 76.7477C12.8748 76.6425 12.8158 76.4714 12.8587 76.2682L13.5545 76.4154L14.2502 76.5625C14.3489 76.0959 14.0022 75.8224 13.9397 75.775C13.8283 75.6904 13.7033 75.6342 13.6103 75.597L13.3462 76.2572ZM13.5545 76.4154L12.8587 76.2682L12.8442 76.3372L13.5399 76.4843L14.2356 76.6315L14.2502 76.5625L13.5545 76.4154ZM13.5399 76.4843L12.8442 76.3372L12.8296 76.4061L13.5253 76.5533L14.221 76.7005L14.2356 76.6315L13.5399 76.4843ZM13.5253 76.5533L12.8296 76.4061C12.8375 76.3686 12.8473 76.3396 12.8542 76.3212C12.8614 76.3023 12.8679 76.2883 12.872 76.28C12.8762 76.2716 12.8792 76.2662 12.8803 76.2643C12.8815 76.2623 12.8815 76.2625 12.8799 76.2649C12.8765 76.2702 12.8692 76.281 12.8565 76.298C12.8441 76.3147 12.828 76.3354 12.8079 76.3603L13.3606 76.8077L13.9133 77.2552C13.9713 77.1835 14.0272 77.1097 14.0737 77.0379C14.1067 76.9869 14.1871 76.8606 14.221 76.7005L13.5253 76.5533ZM13.3606 76.8077L12.8079 76.3603L12.6577 76.5457L13.2105 76.9932L13.7632 77.4406L13.9133 77.2552L13.3606 76.8077Z" fill="#CDCDCD"/>
<circle cx="115.378" cy="76.6223" r="0.888889" fill="#CDCDCD"/>
<path d="M115.844 77.2508L116.435 77.6474L115.844 77.2508ZM115.402 77.4519L115.383 78.1628L115.402 77.4519ZM114.8 77.4353L114.781 78.1462L114.8 77.4353ZM115.647 76.0688L115.353 76.7161L115.647 76.0688ZM116.072 76.2618L116.366 75.6145L116.072 76.2618ZM116.28 76.4243L115.57 76.3777L116.28 76.4243ZM116.271 76.5563L115.561 76.5097L116.271 76.5563ZM116.126 76.8318L115.536 76.4352L116.126 76.8318ZM115.985 77.0413L115.395 76.6447L115.254 76.8542L115.844 77.2508L116.435 77.6474L116.575 77.4379L115.985 77.0413ZM115.844 77.2508L115.254 76.8542C115.277 76.8193 115.318 76.7819 115.369 76.7586C115.414 76.7378 115.44 76.7416 115.422 76.7411L115.402 77.4519L115.383 78.1628C115.773 78.1735 116.177 78.031 116.435 77.6474L115.844 77.2508ZM115.402 77.4519L115.422 76.7411L115.121 76.7328L115.101 77.4436L115.082 78.1545L115.383 78.1628L115.402 77.4519ZM115.101 77.4436L115.121 76.7328L114.82 76.7245L114.8 77.4353L114.781 78.1462L115.082 78.1545L115.101 77.4436ZM114.8 77.4353L114.82 76.7245C114.82 76.7245 114.822 76.7245 114.826 76.7249C114.829 76.7252 114.835 76.7258 114.842 76.7269C114.856 76.7291 114.881 76.7341 114.913 76.7452C114.976 76.7676 115.084 76.8221 115.173 76.9427C115.266 77.0681 115.29 77.2011 115.288 77.2952C115.287 77.3791 115.266 77.431 115.263 77.4376L114.604 77.1694L113.946 76.9011C113.883 77.056 113.769 77.4349 114.029 77.7867C114.267 78.1095 114.632 78.142 114.781 78.1462L114.8 77.4353ZM114.604 77.1694L115.263 77.4376L115.368 77.18L114.709 76.9117L114.051 76.6435L113.946 76.9011L114.604 77.1694ZM114.709 76.9117L115.368 77.18L115.473 76.9223L114.814 76.6541L114.156 76.3859L114.051 76.6435L114.709 76.9117ZM114.814 76.6541L115.473 76.9223C115.496 76.8661 115.514 76.834 115.523 76.819C115.533 76.8032 115.528 76.8165 115.5 76.8396L115.048 76.2904L114.596 75.7412C114.377 75.9212 114.244 76.169 114.156 76.3859L114.814 76.6541ZM115.048 76.2904L115.5 76.8396L115.629 76.7335L115.177 76.1843L114.725 75.6351L114.596 75.7412L115.048 76.2904ZM115.177 76.1843L115.629 76.7335L115.758 76.6275L115.306 76.0783L114.854 75.5291L114.725 75.6351L115.177 76.1843ZM115.306 76.0783L115.758 76.6275C115.676 76.6949 115.573 76.731 115.476 76.7337C115.392 76.736 115.346 76.7132 115.353 76.7161L115.647 76.0688L115.942 75.4214C115.666 75.2961 115.231 75.2191 114.854 75.5291L115.306 76.0783ZM115.647 76.0688L115.353 76.7161L115.565 76.8126L115.859 76.1653L116.154 75.518L115.942 75.4214L115.647 76.0688ZM115.859 76.1653L115.565 76.8126L115.777 76.9091L116.072 76.2618L116.366 75.6145L116.154 75.518L115.859 76.1653ZM116.072 76.2618L115.777 76.9091C115.829 76.9329 115.823 76.9351 115.792 76.9109C115.776 76.8987 115.727 76.8591 115.679 76.7879C115.629 76.7141 115.557 76.5709 115.57 76.3777L116.28 76.4243L116.989 76.4709C117.003 76.2557 116.924 76.0893 116.857 75.9909C116.792 75.8952 116.718 75.8298 116.668 75.7904C116.567 75.7121 116.455 75.6551 116.366 75.6145L116.072 76.2618ZM116.28 76.4243L115.57 76.3777L115.566 76.4437L116.275 76.4903L116.985 76.5369L116.989 76.4709L116.28 76.4243ZM116.275 76.4903L115.566 76.4437L115.561 76.5097L116.271 76.5563L116.98 76.6029L116.985 76.5369L116.275 76.4903ZM116.271 76.5563L115.561 76.5097C115.565 76.4607 115.573 76.4226 115.579 76.3994C115.585 76.3753 115.591 76.3574 115.595 76.3472C115.602 76.3278 115.607 76.3198 115.603 76.3268C115.6 76.3324 115.594 76.3444 115.582 76.3638C115.57 76.3828 115.555 76.4065 115.536 76.4352L116.126 76.8318L116.716 77.2284C116.77 77.1487 116.821 77.0673 116.862 76.9895C116.886 76.9436 116.968 76.7905 116.98 76.6029L116.271 76.5563ZM116.126 76.8318L115.536 76.4352L115.395 76.6447L115.985 77.0413L116.575 77.4379L116.716 77.2284L116.126 76.8318Z" fill="#CDCDCD"/>
</svg>
