<svg width="128" height="128" viewBox="0 0 128 128" fill="none" xmlns="http://www.w3.org/2000/svg">
<g clip-path="url(#clip0_393_4835)">
<path d="M13.7554 71.8818L14.0093 71.9336L14.2632 71.9844C14.4317 72.0187 14.6002 72.053 14.7681 72.0869L15.02 72.1387L15.2729 72.1895C15.4697 72.2292 15.6636 72.2812 15.854 72.3447L16.0991 72.4258L16.3433 72.5078C16.4123 72.5308 16.5033 72.5456 16.6235 72.54L16.9175 72.5264L17.2104 72.5127H17.356C17.6923 72.5306 18.0044 72.6672 18.2476 72.9268L18.439 73.1309L18.6294 73.335C18.6783 73.3871 18.7305 73.4196 18.7915 73.4404L19.0513 73.5293L19.312 73.6182C19.6557 73.7353 19.9252 73.9652 20.1011 74.2764L20.2407 74.5225L20.3794 74.7686C20.4448 74.8843 20.5163 74.9784 20.5903 75.0547L20.771 75.2412L20.9517 75.4268C21.067 75.5455 21.1844 75.6638 21.3042 75.7803L21.4917 75.9619L21.6792 76.1445C21.8218 76.2832 21.9575 76.4295 22.0854 76.583L22.2544 76.7852L22.4224 76.9873C22.5243 77.1095 22.6337 77.2318 22.7495 77.3535L22.938 77.5527L23.1274 77.751C23.3179 77.9513 23.4648 78.1833 23.562 78.4424L23.6567 78.6943L23.7505 78.9463C23.827 79.1503 23.8868 79.3598 23.9292 79.5732L23.9819 79.8369L24.0337 80.0996C24.0467 80.165 24.0761 80.2373 24.1353 80.3184L24.3071 80.5537L24.48 80.79C24.6628 81.0405 24.7798 81.3262 24.8149 81.6387L24.8452 81.9121L24.8765 82.1846C24.8971 82.3682 24.9169 82.5523 24.936 82.7363L24.9927 83.2832C25.0047 83.3986 25.014 83.5616 24.9771 83.7246C24.9496 83.8458 24.8552 84.1048 24.6001 84.2539L24.5962 84.3027L24.5718 84.5684C24.5506 84.8062 24.4994 85.0385 24.4185 85.2637L24.2368 85.7695C24.1838 85.9169 24.1386 86.0632 24.1021 86.208L24.0386 86.4609L23.9751 86.7129C23.9532 86.7997 23.9435 86.9025 23.9526 87.0254L23.9741 87.3115L23.9946 87.5986C24.0195 87.935 23.9436 88.2627 23.7554 88.5527L23.6079 88.7803L23.4595 89.0088C23.3202 89.2233 23.1497 89.4125 22.9517 89.5762L22.7358 89.7549L22.519 89.9336C22.4438 89.9958 22.3963 90.0584 22.3647 90.1201L22.2466 90.3525L22.1274 90.584C22.0222 90.79 21.8935 90.9809 21.7417 91.1553L21.5708 91.3516L21.4009 91.5479C21.2971 91.6671 21.1959 91.7903 21.0981 91.918L20.7778 92.3359C20.7092 92.4255 20.6422 92.5375 20.5806 92.6758L20.4595 92.9492L20.3374 93.2227C20.1596 93.6215 19.8209 93.8849 19.3872 93.9561L19.0942 94.0039L18.8013 94.0527C18.7762 94.0568 18.7641 94.0624 18.7603 94.0645C18.7569 94.0663 18.7515 94.07 18.7427 94.0801L18.5562 94.2939L18.3696 94.5088C18.0771 94.8448 17.6731 94.9747 17.2593 94.9268L16.9536 94.8906L16.6479 94.8555C16.6443 94.8551 16.6409 94.8547 16.6382 94.8545L16.436 95.0176L16.2183 95.1924C16.0393 95.3363 15.8483 95.4627 15.646 95.5713L15.3999 95.7041L15.1538 95.8359C14.9342 95.9537 14.7017 96.0409 14.4595 96.0957L14.1919 96.1562L13.9233 96.2168C13.6315 96.2828 13.3359 96.2766 13.0474 96.2031L12.7729 96.1328L12.4976 96.0625C12.3043 96.0133 12.115 95.9605 11.9302 95.9043L11.6685 95.8252L11.4077 95.7461C11.3049 95.7149 11.2044 95.7015 11.105 95.7041L10.5718 95.7178C10.3938 95.7225 10.2118 95.7278 10.0269 95.7324L9.74951 95.7393L9.47314 95.7461C9.06581 95.7563 8.71379 95.5876 8.45166 95.3066L8.24658 95.0859L8.04053 94.8652C7.98492 94.8056 7.94828 94.7926 7.93018 94.7881L7.67334 94.7256L7.41553 94.6631C7.29653 94.6342 7.15792 94.6154 6.99854 94.6094L6.69775 94.5977L6.396 94.5869C6.03508 94.5733 5.6949 94.4426 5.42529 94.1777L5.22803 93.9834L5.02979 93.7891C4.82844 93.5911 4.67258 93.3578 4.56006 93.0986L4.44287 92.8262L4.32471 92.5537C4.27171 92.4316 4.21302 92.3429 4.15576 92.2783L3.98389 92.085L3.81299 91.8916C3.70462 91.7696 3.59374 91.6493 3.48096 91.5312L3.30225 91.3447L3.12451 91.1582C3.00782 91.0361 2.88826 90.9127 2.76709 90.7891L2.58252 90.6006L2.39697 90.4111C2.26305 90.2744 2.13251 90.1318 2.00537 89.9844L1.82861 89.7803L1.65186 89.5752C1.47453 89.3695 1.34051 89.1356 1.25439 88.8779L1.17041 88.624L1.08545 88.3701C1.03008 88.2043 0.973693 88.0394 0.916504 87.876L0.828613 87.626L0.741699 87.375C0.66135 87.1453 0.613244 86.9073 0.599121 86.6641L0.584473 86.3975L0.568848 86.1309C0.564496 86.056 0.544807 85.9788 0.502441 85.8955L0.374512 85.6455L0.247559 85.3965C0.109928 85.1262 0.0421089 84.8323 0.0541992 84.5264L0.0756836 83.9873C0.0814705 83.8415 0.0767847 83.6944 0.0620117 83.5469L0.034668 83.2764L0.00830078 83.0059C-0.0269996 82.6533 0.0633475 82.3223 0.248535 82.0342L0.406738 81.7881L0.560059 81.5498L0.492676 81.2686L0.42334 80.9805C0.339573 80.6295 0.376079 80.268 0.561035 79.9395L0.695801 79.7002L0.82959 79.4619C0.916562 79.3074 1.00081 79.1537 1.08154 79.002L1.20654 78.7676L1.33154 78.5322C1.37448 78.4515 1.40755 78.3553 1.42529 78.2393L1.46826 77.9561L1.51221 77.6719L1.54736 77.5078C1.65382 77.1389 1.9158 76.8698 2.25537 76.7188L2.54248 76.5908L2.74268 76.501L2.76807 76.2744L2.8042 75.958C2.84544 75.5922 3.00311 75.245 3.31592 74.9941L3.53076 74.8223L3.74463 74.6504C3.86095 74.5571 3.97076 74.456 4.07275 74.3467L4.26025 74.1445L4.44873 73.9434C4.66478 73.712 4.93176 73.5521 5.23291 73.4648L5.50635 73.3857L5.78076 73.3057C5.94693 73.2575 6.10481 73.2054 6.25342 73.1494L6.41064 73.0898L7.01904 74.3809L7.00537 74.3867L6.75439 74.4805C6.56908 74.5502 6.37651 74.6141 6.17725 74.6719L5.90283 74.751L5.62842 74.8311C5.56403 74.8497 5.52224 74.8772 5.48779 74.9141L5.30029 75.1152L5.11182 75.3164C4.96331 75.4755 4.80394 75.6237 4.63428 75.7598L4.42041 75.9316L4.22217 76.0898C4.22074 76.0959 4.21868 76.1048 4.21729 76.1172L4.18115 76.4336L4.146 76.75C4.09442 77.2064 3.83146 77.5744 3.40576 77.7637L3.11963 77.8906L2.90186 77.9863L2.87451 78.1709L2.83154 78.4541C2.79147 78.7164 2.71131 78.9673 2.5874 79.2002L2.3374 79.6709C2.25134 79.8326 2.16204 79.9954 2.06982 80.1592L1.93506 80.3984L1.80322 80.6299C1.80359 80.6337 1.80479 80.6406 1.80713 80.6504L1.87549 80.9385L1.94482 81.2266C2.03495 81.6042 1.97286 81.9814 1.76123 82.3105L1.44482 82.8027C1.41914 82.8427 1.42254 82.8563 1.42334 82.8643L1.45068 83.1348L1.47705 83.4053C1.49837 83.6181 1.50503 83.8313 1.49658 84.0439L1.4751 84.583C1.4731 84.6356 1.48332 84.6885 1.51514 84.751L1.76904 85.251C1.89606 85.5006 1.9725 85.7682 1.98877 86.0488L2.00342 86.3154L2.01904 86.582C2.02556 86.6942 2.04724 86.8015 2.0835 86.9053L2.17139 87.1562L2.25928 87.4062C2.31872 87.5762 2.37659 87.7478 2.43408 87.9199L2.51904 88.1738L2.604 88.4268C2.63084 88.507 2.67122 88.5794 2.729 88.6465L2.90576 88.8516L3.08252 89.0557C3.19038 89.1808 3.30029 89.3014 3.4126 89.416L3.59814 89.6055L3.78271 89.7939C3.90797 89.9218 4.03191 90.0492 4.15283 90.1758L4.33057 90.3623L4.50928 90.5488C4.63399 90.6794 4.75663 90.8123 4.87646 90.9473L5.04736 91.1406L5.21924 91.334C5.39001 91.5264 5.52523 91.7482 5.62939 91.9883L5.74756 92.2598L5.86475 92.5322C5.90958 92.6355 5.96484 92.7134 6.02686 92.7744L6.2251 92.9688L6.42041 93.1611C6.4211 93.1614 6.42229 93.1619 6.42334 93.1621C6.42793 93.163 6.43664 93.1645 6.44971 93.165L6.75049 93.1768L7.05225 93.1875C7.29403 93.1966 7.52811 93.227 7.75146 93.2812L8.26514 93.4062C8.58972 93.4851 8.86242 93.6616 9.08057 93.8955L9.28662 94.1162L9.479 94.3223L9.71436 94.3174L9.9917 94.3105C10.1759 94.3059 10.3575 94.3006 10.5347 94.2959L11.0679 94.2822C11.3235 94.2755 11.5756 94.3103 11.8208 94.3848L12.0825 94.4639L12.3433 94.5439C12.5066 94.5936 12.676 94.6405 12.8491 94.6846L13.1235 94.7549L13.3989 94.8242C13.4767 94.844 13.5442 94.8439 13.6099 94.8291L13.8784 94.7686L14.146 94.708C14.2613 94.6819 14.3727 94.6401 14.481 94.582L14.9731 94.3184C15.0983 94.2512 15.216 94.173 15.3267 94.084L15.7622 93.7344L15.8804 93.6484C16.1634 93.4659 16.4878 93.4045 16.813 93.4424L17.1177 93.4785L17.355 93.5059L17.4829 93.3604L17.6694 93.1455C17.9079 92.8717 18.22 92.7059 18.5708 92.6484L18.8647 92.6006L19.0718 92.5664L19.1597 92.3701L19.2817 92.0967C19.3826 91.8703 19.5041 91.6598 19.6489 91.4707L19.9692 91.0527C20.0848 90.9019 20.2041 90.7551 20.3276 90.6133L20.4985 90.418L20.6694 90.2217C20.7448 90.1351 20.8082 90.0405 20.8608 89.9375L20.98 89.7051L21.0981 89.4736C21.2246 89.226 21.4006 89.0141 21.6138 88.8379L21.8296 88.6592L22.0464 88.4805C22.1367 88.4058 22.2092 88.3236 22.2671 88.2344L22.4146 88.0068L22.563 87.7783C22.5718 87.7647 22.5799 87.749 22.5767 87.7041L22.5552 87.417L22.5337 87.1309C22.5145 86.8717 22.5333 86.6146 22.5962 86.3652L22.6597 86.1123L22.7231 85.8604C22.7714 85.6692 22.8298 85.4786 22.8979 85.2891L22.9897 85.0361L23.0806 84.7832C23.1207 84.6715 23.1454 84.558 23.1558 84.4424L23.2026 83.9111C23.213 83.7948 23.2357 83.643 23.2964 83.4971C23.3309 83.4143 23.4059 83.2672 23.5493 83.1504L23.522 82.8838C23.5032 82.7037 23.4836 82.5235 23.4634 82.3438L23.4321 82.0703L23.4019 81.7979C23.3961 81.7468 23.3779 81.6926 23.3315 81.6289L23.1587 81.3926L22.9868 81.1572C22.8165 80.924 22.6959 80.6625 22.6392 80.377L22.5864 80.1133L22.5347 79.8496C22.5074 79.7123 22.4687 79.5779 22.4194 79.4463L22.23 78.9424C22.2013 78.8658 22.1587 78.7962 22.0972 78.7314L21.9077 78.5332L21.7192 78.334C21.5829 78.1907 21.4522 78.0456 21.3296 77.8984L21.1616 77.6963L20.9927 77.4941C20.8962 77.3784 20.7948 77.2679 20.688 77.1641L20.5005 76.9824L20.313 76.7998C20.1835 76.6739 20.0561 76.5465 19.9312 76.418L19.7505 76.2324L19.5698 76.0459C19.4036 75.8747 19.261 75.6809 19.1411 75.4688L19.0024 75.2227L18.8628 74.9756C18.8598 74.9704 18.8574 74.9667 18.856 74.9648H18.853L18.5933 74.876L18.3325 74.7871C18.0468 74.6898 17.797 74.5272 17.5913 74.3076L17.4009 74.1035L17.2427 73.9346L16.9829 73.9473L16.689 73.9609C16.4181 73.9735 16.1498 73.9421 15.8931 73.8564L15.6489 73.7754L15.4038 73.6934C15.2687 73.6483 15.1312 73.6112 14.9917 73.583L14.4858 73.4814C14.3174 73.4474 14.1481 73.4124 13.979 73.3779L13.7261 73.3271L13.4722 73.2754C13.3197 73.2444 13.1661 73.2086 13.0112 73.1719L13.4761 71.8203C13.5699 71.8417 13.6631 71.8631 13.7554 71.8818Z" fill="#CDCDCD"/>
<path d="M114.359 71.8818L114.105 71.9336L113.852 71.9844C113.683 72.0187 113.515 72.053 113.347 72.0869L113.095 72.1387L112.842 72.1895C112.645 72.2292 112.451 72.2812 112.261 72.3447L112.016 72.4258L111.771 72.5078C111.702 72.5308 111.611 72.5456 111.491 72.54L111.197 72.5264L110.904 72.5127H110.759C110.422 72.5305 110.11 72.6672 109.867 72.9268L109.676 73.1309L109.485 73.335C109.436 73.3872 109.384 73.4196 109.323 73.4404L109.063 73.5293L108.803 73.6182C108.459 73.7353 108.19 73.9651 108.014 74.2764L107.874 74.5225L107.735 74.7686C107.67 74.8844 107.599 74.9784 107.524 75.0547L107.344 75.2412L107.163 75.4268C107.048 75.5455 106.93 75.6637 106.811 75.7803L106.623 75.9619L106.436 76.1445C106.293 76.2833 106.157 76.4294 106.029 76.583L105.86 76.7852L105.692 76.9873C105.59 77.1096 105.481 77.2317 105.365 77.3535L105.177 77.5527L104.987 77.751C104.797 77.9513 104.65 78.1832 104.553 78.4424L104.458 78.6943L104.364 78.9463C104.288 79.1503 104.228 79.3597 104.186 79.5732L104.133 79.8369L104.081 80.0996C104.068 80.165 104.039 80.2373 103.979 80.3184L103.808 80.5537L103.635 80.79C103.452 81.0405 103.335 81.3261 103.3 81.6387L103.27 81.9121L103.238 82.1846C103.218 82.3682 103.198 82.5523 103.179 82.7363L103.122 83.2832C103.11 83.3986 103.101 83.5615 103.138 83.7246C103.165 83.8458 103.26 84.1048 103.515 84.2539L103.519 84.3027L103.543 84.5684C103.564 84.8062 103.615 85.0385 103.696 85.2637L103.878 85.7695C103.931 85.9169 103.976 86.0632 104.013 86.208L104.076 86.4609L104.14 86.7129C104.162 86.7997 104.171 86.9026 104.162 87.0254L104.141 87.3115L104.12 87.5986C104.095 87.935 104.171 88.2627 104.359 88.5527L104.507 88.7803L104.655 89.0088C104.794 89.2232 104.965 89.4126 105.163 89.5762L105.379 89.7549L105.596 89.9336C105.671 89.9957 105.719 90.0585 105.75 90.1201L105.868 90.3525L105.987 90.584C106.093 90.7899 106.221 90.981 106.373 91.1553L106.544 91.3516L106.714 91.5479C106.818 91.667 106.919 91.7904 107.017 91.918L107.337 92.3359C107.405 92.4255 107.473 92.5377 107.534 92.6758L107.655 92.9492L107.777 93.2227C107.955 93.6214 108.294 93.885 108.728 93.9561L109.021 94.0039L109.313 94.0527C109.339 94.0569 109.351 94.0625 109.354 94.0645C109.358 94.0663 109.364 94.0703 109.372 94.0801L109.559 94.2939L109.745 94.5088C110.038 94.8447 110.442 94.9748 110.855 94.9268L111.161 94.8906L111.467 94.8555C111.47 94.8551 111.474 94.8547 111.477 94.8545L111.679 95.0176L111.896 95.1924C112.075 95.3362 112.266 95.4627 112.469 95.5713L112.715 95.7041L112.961 95.8359C113.18 95.9537 113.413 96.0409 113.655 96.0957L113.923 96.1562L114.191 96.2168C114.483 96.2827 114.779 96.2766 115.067 96.2031L115.342 96.1328L115.617 96.0625C115.81 96.0133 116 95.9605 116.185 95.9043L116.446 95.8252L116.707 95.7461C116.81 95.7149 116.91 95.7015 117.01 95.7041L117.543 95.7178C117.721 95.7225 117.903 95.7278 118.088 95.7324L118.365 95.7393L118.642 95.7461C119.049 95.7562 119.401 95.5877 119.663 95.3066L119.868 95.0859L120.074 94.8652C120.13 94.8053 120.167 94.7925 120.185 94.7881L120.441 94.7256L120.699 94.6631C120.818 94.6343 120.957 94.6154 121.116 94.6094L121.417 94.5977L121.719 94.5869C122.08 94.5732 122.42 94.4427 122.689 94.1777L122.887 93.9834L123.085 93.7891C123.286 93.5911 123.442 93.3579 123.555 93.0986L123.672 92.8262L123.79 92.5537C123.843 92.4314 123.902 92.343 123.959 92.2783L124.131 92.085L124.302 91.8916C124.41 91.7695 124.521 91.6494 124.634 91.5312L124.812 91.3447L124.99 91.1582C125.107 91.036 125.226 90.9128 125.348 90.7891L125.532 90.6006L125.718 90.4111C125.852 90.2744 125.982 90.1319 126.109 89.9844L126.286 89.7803L126.463 89.5752C126.64 89.3694 126.774 89.1357 126.86 88.8779L126.944 88.624L127.029 88.3701C127.085 88.2043 127.141 88.0395 127.198 87.876L127.286 87.626L127.373 87.375C127.453 87.1453 127.502 86.9073 127.516 86.6641L127.53 86.3975L127.546 86.1309C127.55 86.056 127.57 85.9789 127.612 85.8955L127.74 85.6455L127.867 85.3965C128.005 85.1262 128.073 84.8323 128.061 84.5264L128.039 83.9873C128.033 83.8414 128.038 83.6944 128.053 83.5469L128.08 83.2764L128.106 83.0059C128.142 82.6534 128.051 82.3222 127.866 82.0342L127.708 81.7881L127.555 81.5498L127.622 81.2686L127.691 80.9805C127.775 80.6296 127.739 80.268 127.554 79.9395L127.419 79.7002L127.285 79.4619C127.198 79.3075 127.114 79.1536 127.033 79.002L126.908 78.7676L126.783 78.5322C126.74 78.4516 126.707 78.3553 126.689 78.2393L126.646 77.9561L126.603 77.6719L126.567 77.5078C126.461 77.139 126.199 76.8698 125.859 76.7188L125.572 76.5908L125.372 76.501L125.347 76.2744L125.311 75.958C125.269 75.5923 125.111 75.245 124.799 74.9941L124.584 74.8223L124.37 74.6504C124.254 74.5571 124.144 74.4559 124.042 74.3467L123.854 74.1445L123.666 73.9434C123.45 73.7121 123.183 73.5521 122.882 73.4648L122.608 73.3857L122.334 73.3057C122.168 73.2575 122.01 73.2053 121.861 73.1494L121.703 73.0898L121.095 74.3809L121.109 74.3867L121.36 74.4805C121.546 74.5502 121.738 74.6141 121.938 74.6719L122.212 74.751L122.486 74.8311C122.551 74.8497 122.593 74.8772 122.627 74.9141L122.814 75.1152L123.003 75.3164C123.151 75.4755 123.311 75.6237 123.48 75.7598L123.694 75.9316L123.893 76.0898C123.894 76.0959 123.896 76.1049 123.897 76.1172L123.934 76.4336L123.969 76.75C124.02 77.2065 124.283 77.5744 124.709 77.7637L124.995 77.8906L125.213 77.9863L125.24 78.1709L125.283 78.4541C125.323 78.7163 125.403 78.9674 125.527 79.2002L125.777 79.6709C125.863 79.8325 125.953 79.9954 126.045 80.1592L126.18 80.3984L126.312 80.6299C126.311 80.6337 126.31 80.6406 126.308 80.6504L126.239 80.9385L126.17 81.2266C126.08 81.6043 126.142 81.9813 126.354 82.3105L126.67 82.8027C126.695 82.8425 126.692 82.8563 126.691 82.8643L126.664 83.1348L126.638 83.4053C126.616 83.6181 126.61 83.8312 126.618 84.0439L126.64 84.583C126.642 84.6356 126.631 84.6885 126.6 84.751L126.346 85.251C126.219 85.5007 126.142 85.7682 126.126 86.0488L126.111 86.3154L126.096 86.582C126.089 86.6942 126.068 86.8015 126.031 86.9053L125.943 87.1562L125.855 87.4062C125.796 87.5762 125.738 87.7477 125.681 87.9199L125.596 88.1738L125.511 88.4268C125.484 88.5071 125.444 88.5794 125.386 88.6465L125.209 88.8516L125.032 89.0557C124.924 89.1808 124.815 89.3013 124.702 89.416L124.517 89.6055L124.332 89.7939C124.207 89.9219 124.083 90.0491 123.962 90.1758L123.784 90.3623L123.605 90.5488C123.481 90.6794 123.358 90.8123 123.238 90.9473L123.067 91.1406L122.896 91.334C122.725 91.5265 122.59 91.7481 122.485 91.9883L122.367 92.2598L122.25 92.5322C122.205 92.6355 122.15 92.7134 122.088 92.7744L121.89 92.9688L121.694 93.1611C121.694 93.1613 121.693 93.1618 121.691 93.1621C121.687 93.163 121.678 93.1645 121.665 93.165L121.364 93.1768L121.062 93.1875C120.821 93.1966 120.587 93.227 120.363 93.2812L119.85 93.4062C119.525 93.4851 119.252 93.6615 119.034 93.8955L118.828 94.1162L118.636 94.3223L118.4 94.3174L118.123 94.3105C117.939 94.3059 117.757 94.3006 117.58 94.2959L117.047 94.2822C116.791 94.2755 116.539 94.3103 116.294 94.3848L116.032 94.4639L115.771 94.5439C115.608 94.5936 115.439 94.6405 115.266 94.6846L114.991 94.7549L114.716 94.8242C114.638 94.844 114.571 94.8439 114.505 94.8291L114.236 94.7686L113.969 94.708C113.853 94.6819 113.742 94.6401 113.634 94.582L113.142 94.3184C113.016 94.2512 112.899 94.1729 112.788 94.084L112.353 93.7344L112.234 93.6484C111.951 93.4659 111.627 93.4046 111.302 93.4424L110.997 93.4785L110.76 93.5059L110.632 93.3604L110.445 93.1455C110.207 92.8718 109.895 92.706 109.544 92.6484L109.25 92.6006L109.043 92.5664L108.955 92.3701L108.833 92.0967C108.732 91.8704 108.611 91.6597 108.466 91.4707L108.146 91.0527C108.03 90.902 107.911 90.7551 107.787 90.6133L107.616 90.418L107.445 90.2217C107.37 90.1351 107.307 90.0404 107.254 89.9375L107.135 89.7051L107.017 89.4736C106.89 89.2261 106.714 89.014 106.501 88.8379L106.285 88.6592L106.068 88.4805C105.978 88.4059 105.906 88.3235 105.848 88.2344L105.7 88.0068L105.552 87.7783C105.543 87.7647 105.535 87.7491 105.538 87.7041L105.56 87.417L105.581 87.1309C105.6 86.8718 105.581 86.6146 105.519 86.3652L105.455 86.1123L105.392 85.8604C105.343 85.6692 105.285 85.4785 105.217 85.2891L105.125 85.0361L105.034 84.7832C104.994 84.6715 104.969 84.558 104.959 84.4424L104.912 83.9111C104.902 83.7949 104.879 83.6429 104.818 83.4971C104.784 83.4143 104.709 83.2671 104.565 83.1504L104.593 82.8838C104.612 82.7037 104.631 82.5235 104.651 82.3438L104.683 82.0703L104.713 81.7979C104.719 81.7467 104.737 81.6927 104.783 81.6289L104.956 81.3926L105.128 81.1572C105.298 80.9239 105.419 80.6625 105.476 80.377L105.528 80.1133L105.58 79.8496C105.607 79.7123 105.646 79.5779 105.695 79.4463L105.885 78.9424C105.914 78.8657 105.956 78.7962 106.018 78.7314L106.207 78.5332L106.396 78.334C106.532 78.1906 106.662 78.0456 106.785 77.8984L106.953 77.6963L107.122 77.4941C107.219 77.3783 107.32 77.268 107.427 77.1641L107.614 76.9824L107.802 76.7998C107.931 76.6739 108.059 76.5466 108.184 76.418L108.364 76.2324L108.545 76.0459C108.711 75.8747 108.854 75.6809 108.974 75.4688L109.112 75.2227L109.252 74.9756C109.255 74.9701 109.257 74.9667 109.259 74.9648H109.262L109.521 74.876L109.782 74.7871C110.068 74.6897 110.318 74.5273 110.523 74.3076L110.714 74.1035L110.872 73.9346L111.132 73.9473L111.426 73.9609C111.697 73.9734 111.965 73.9421 112.222 73.8564L112.466 73.7754L112.711 73.6934C112.846 73.6483 112.984 73.6112 113.123 73.583L113.629 73.4814C113.797 73.4474 113.967 73.4124 114.136 73.3779L114.389 73.3271L114.643 73.2754C114.795 73.2444 114.948 73.2085 115.103 73.1719L114.638 71.8203C114.544 71.8417 114.451 71.8631 114.359 71.8818Z" fill="#CDCDCD"/>
</g>
<defs>
<clipPath id="clip0_393_4835">
<rect width="128" height="128" fill="white"/>
</clipPath>
</defs>
</svg>
