<svg width="128" height="128" viewBox="0 0 128 128" fill="none" xmlns="http://www.w3.org/2000/svg">
<path d="M69.7627 73.6143C69.9764 73.5822 70.2378 73.5975 70.4834 73.7441C70.6677 73.8542 70.7911 74.0074 70.8721 74.1631L70.9395 74.3184L71.1426 74.8887C71.1922 75.0277 71.2513 75.1409 71.3145 75.2334L71.4668 75.457L71.6191 75.6797C71.6722 75.7573 71.7407 75.8636 71.7861 75.9707C71.7987 76.0004 71.8681 76.1575 71.8496 76.3564C71.838 76.4798 71.7866 76.676 71.6094 76.833C71.5768 76.8619 71.5421 76.8846 71.5088 76.9053L71.4746 77.0146L71.3955 77.2637C71.2954 77.5811 71.0984 77.8491 70.8096 78.0322L70.5986 78.166L70.3887 78.2998C70.1887 78.4265 69.9724 78.5208 69.7422 78.5762L69.5215 78.6299L69.2998 78.6826C69.1228 78.7252 68.9318 78.759 68.7285 78.7852L68.4541 78.8203L68.1787 78.8564C67.9815 78.8818 67.767 78.8639 67.5586 78.7734C67.3501 78.6829 67.1904 78.538 67.0742 78.376L66.9141 78.1514L66.7529 77.9268C66.5477 77.6405 66.4489 77.2976 66.5039 76.9307L66.542 76.6777L66.5801 76.4258C66.5967 76.3149 66.6103 76.2093 66.624 76.1094L68.0342 76.2959C68.0192 76.4043 68.0041 76.5181 67.9863 76.6367L67.9482 76.8896L67.915 77.1074L68.0693 77.3232L68.1436 77.4258L68.2725 77.4102L68.5469 77.375C68.7099 77.354 68.8498 77.3282 68.9678 77.2998L69.1885 77.2471L69.4102 77.1934C69.4748 77.1778 69.5466 77.1485 69.627 77.0977L69.8379 76.9648L70.0391 76.8359L70.1182 76.5869L70.1963 76.3389C70.2106 76.2934 70.2277 76.2435 70.2471 76.1934L70.1396 76.0361C69.9999 75.8316 69.8894 75.6058 69.8037 75.3652L69.7021 75.0811L69.6953 75.0615L69.6738 75.0654L69.374 75.1104C69.2892 75.1231 69.2169 75.1392 69.1553 75.1553V73.7051C69.1575 73.7047 69.1598 73.7044 69.1621 73.7041L69.4629 73.6592L69.7627 73.6143Z" fill="#CDCDCD"/>
</svg>
