<svg width="42" height="42" viewBox="0 0 42 42" fill="none" xmlns="http://www.w3.org/2000/svg">
<path d="M10.269 3.34766C10.2733 3.34246 10.2848 3.33009 10.2964 3.30469L10.394 3.09766L10.4878 2.88672L10.6011 2.69531C10.6472 2.63529 10.7031 2.57994 10.769 2.53125C10.9054 2.43112 11.0633 2.37998 11.2183 2.37109L11.4214 2.35938L11.6284 2.34766C11.7347 2.34156 11.8322 2.3279 11.9175 2.30469L12.1011 2.25391L12.2808 2.20312C12.3097 2.19524 12.3426 2.18154 12.3784 2.14453L12.519 1.99609L12.6597 1.85156C12.786 1.72103 12.9277 1.60994 13.0854 1.52344L13.2534 1.43359L13.4214 1.33984C13.6153 1.23394 13.8287 1.18835 14.0464 1.19531L14.2456 1.19922L14.4409 1.20312H14.4448L14.5972 1.0625L14.7495 0.917969C14.8615 0.813424 15.0053 0.733816 15.1714 0.703125C15.2519 0.688466 15.3306 0.687671 15.4058 0.695312L15.6245 0.746094L16.0542 0.894531C16.1308 0.921236 16.1717 0.917151 16.187 0.914062L16.3667 0.878906L16.5503 0.84375C16.5615 0.841352 16.5927 0.830087 16.644 0.78125L16.8081 0.625L16.9683 0.46875C17.1353 0.308961 17.3408 0.191932 17.5815 0.152344L17.9565 0.0898438C18.0932 0.0674678 18.2326 0.0515753 18.3706 0.0390625L18.5581 0.0234375L18.7456 0.00390625C18.9701 -0.0164458 19.1876 0.0288421 19.3862 0.121094L19.5815 0.214844L19.7769 0.304688C19.854 0.34067 19.9148 0.353918 19.9604 0.355469L20.1479 0.359375L20.3315 0.367188C20.4542 0.370765 20.5797 0.372236 20.7026 0.375L20.8862 0.378906L21.0737 0.382812C21.1563 0.384669 21.2408 0.378216 21.3276 0.359375L21.5151 0.316406L21.7026 0.277344C21.9139 0.231158 22.1296 0.23817 22.3354 0.304688L22.5151 0.367188L22.6987 0.425781C22.7767 0.450968 22.8536 0.462358 22.9292 0.464844L23.1167 0.472656L23.3042 0.476562C23.348 0.477689 23.4077 0.469791 23.4878 0.4375L23.6909 0.355469L23.8901 0.273438C24.0731 0.199641 24.2723 0.174172 24.4683 0.214844L24.6636 0.277344L24.8394 0.359375L25.0151 0.4375C25.1024 0.476366 25.1931 0.504848 25.2808 0.523438L25.6479 0.601562C25.8421 0.642819 26.0222 0.724793 26.1831 0.839844L26.3433 0.957031L26.5073 1.07031C26.5253 1.08314 26.5352 1.08671 26.5542 1.08594L26.9526 1.07031C27.1525 1.06157 27.3484 1.09175 27.5347 1.16797L27.7104 1.23828L27.8823 1.3125C28.0324 1.37407 28.1776 1.45004 28.312 1.54297L28.4683 1.65234L28.6284 1.76172C28.6843 1.80023 28.7417 1.82835 28.8042 1.84375L28.9878 1.88672L29.1714 1.93359C29.3501 1.9776 29.5186 2.04992 29.6714 2.15234L29.8276 2.25781L29.9878 2.36328C30.1001 2.43879 30.2084 2.51975 30.3159 2.60156L30.4683 2.71484L30.6167 2.82812C30.6188 2.82969 30.6226 2.83417 30.6284 2.83594C30.6358 2.83794 30.6508 2.83994 30.6753 2.83984L30.894 2.83594H31.1089C31.3002 2.83446 31.4899 2.87907 31.6558 2.98047L31.8159 3.10156L31.9526 3.23438L32.0933 3.36719C32.2201 3.48663 32.3321 3.62315 32.4253 3.77344L32.5308 3.94531L32.6401 4.11719C32.6686 4.16315 32.694 4.18654 32.7183 4.19922L32.8862 4.28516L33.0503 4.37109C33.1838 4.44056 33.3124 4.52043 33.4331 4.60938L33.5854 4.71875L33.7339 4.83203C33.8564 4.92244 33.972 5.02287 34.0776 5.13281L34.2065 5.26562L34.3354 5.40234C34.4155 5.4857 34.498 5.56605 34.5815 5.64453L34.7183 5.77344L34.8511 5.89844C34.9246 5.96743 35.005 6.03367 35.0894 6.09375L35.394 6.3125C35.4594 6.35902 35.5409 6.40037 35.6362 6.4375L35.8315 6.51172L36.0229 6.58984C36.2278 6.66961 36.3892 6.80847 36.4917 6.99219L36.5776 7.19141L36.6323 7.39062L36.6909 7.58984C36.7178 7.68224 36.7533 7.75762 36.7925 7.82031L36.8901 7.98047L36.9917 8.14062C37.014 8.17591 37.0478 8.20951 37.1011 8.24219L37.4448 8.45312C37.6458 8.57636 37.7997 8.75379 37.8901 8.97656L37.9644 9.15234L38.0347 9.33203C38.0794 9.44228 38.1257 9.5517 38.1753 9.65625L38.2573 9.82422L38.3394 9.99609C38.3806 10.0828 38.4289 10.1645 38.4839 10.2422L38.5933 10.3945L38.6987 10.5469C38.796 10.6843 38.8744 10.8343 38.9331 10.9922L39.0659 11.3438C39.0755 11.3696 39.0928 11.4016 39.1362 11.4375L39.2964 11.5703L39.4565 11.6992C39.6147 11.8285 39.7463 11.9861 39.8354 12.1719L39.9995 12.5156C40.0564 12.6344 40.1111 12.7542 40.1636 12.875L40.2378 13.0508L40.3159 13.2227C40.4028 13.423 40.4297 13.6381 40.4097 13.8516L40.3901 14.0547L40.3706 14.2617C40.3656 14.3149 40.3756 14.3456 40.3862 14.3672L40.4683 14.5391L40.5542 14.707C40.6155 14.83 40.6733 14.955 40.7261 15.082L40.8003 15.2578L40.8706 15.4336C40.96 15.6489 40.9773 15.8752 40.9331 16.0977L40.894 16.3008L40.855 16.4766L40.9722 16.6367L41.0972 16.8008C41.2438 16.9964 41.3203 17.2305 41.3081 17.4844L41.2925 17.8672C41.2858 18.0068 41.2741 18.1463 41.2573 18.2852L41.2104 18.668C41.2017 18.7419 41.2047 18.8115 41.2183 18.8789L41.2573 19.0625L41.2925 19.2461C41.3168 19.3657 41.344 19.4884 41.3706 19.6094L41.4097 19.793L41.4487 19.9805C41.4863 20.1519 41.4923 20.3482 41.4214 20.543L41.4292 20.5508C41.4804 20.6324 41.5168 20.7243 41.5425 20.8008L41.605 20.9883L41.6714 21.1797C41.7355 21.371 41.7595 21.5718 41.7378 21.7734L41.7183 21.9609L41.6948 22.1484C41.6768 22.3159 41.6403 22.4815 41.5815 22.6406L41.5112 22.8242L41.4448 23.0078C41.4069 23.1101 41.3778 23.2123 41.355 23.3125L41.269 23.6797C41.2425 23.7963 41.2173 23.9145 41.1948 24.0312L41.1245 24.3984C41.1027 24.5119 41.0856 24.6275 41.0698 24.7422L41.0425 24.9258L41.019 25.1133C41.0036 25.2261 40.9883 25.3411 40.98 25.457L40.9683 25.6445L40.9526 25.8359C40.9431 25.9684 40.932 26.1016 40.9175 26.2344L40.8979 26.4258L40.8745 26.6172C40.8536 26.8087 40.798 26.9907 40.7065 27.1602L40.6167 27.3281L40.5229 27.5C40.4445 27.6451 40.3507 27.7834 40.2417 27.9102L40.1128 28.0586L39.98 28.2109L39.9761 28.2188L39.9722 28.2227C39.9721 28.2229 39.9722 28.2291 39.9722 28.2422L39.9683 28.4453V28.6445C39.9668 28.9502 39.8216 29.2044 39.5854 29.375L39.4136 29.5039L39.2612 29.6094L39.2573 29.7773L39.2534 29.9805C39.248 30.1553 39.222 30.3267 39.1753 30.4922L39.1206 30.6797L39.0698 30.8672C38.9967 31.1256 38.8312 31.3251 38.6128 31.457L38.4292 31.5664L38.2495 31.6758C38.1779 31.719 38.1334 31.7619 38.105 31.8008L37.9956 31.9531L37.8862 32.1016C37.8627 32.1341 37.8401 32.1803 37.8276 32.25L37.7925 32.4531L37.7534 32.6562C37.7144 32.8759 37.6224 33.0805 37.4683 33.25L37.3394 33.3906L37.2144 33.5312C37.127 33.6273 37.0378 33.7227 36.9487 33.8164L36.6909 34.0898C36.5971 34.1885 36.4978 34.2825 36.3979 34.375L36.2612 34.5039L36.1206 34.6328C36.0163 34.7293 35.9062 34.8206 35.7925 34.9062L35.644 35.0195L35.4917 35.1328C35.4593 35.1572 35.4304 35.191 35.4058 35.2422L35.3198 35.4258L35.2339 35.6055C35.1099 35.8652 34.8892 36.0341 34.6206 36.1055L34.2144 36.2148C34.1411 36.2345 34.0933 36.2629 34.062 36.2891L33.7808 36.5234C33.691 36.5985 33.6024 36.679 33.5151 36.7578L33.3745 36.8789L33.2378 37.0039C33.1862 37.0505 33.136 37.1131 33.0894 37.1914L32.9839 37.3672L32.8823 37.5391C32.7768 37.7159 32.6352 37.8673 32.4604 37.9805L32.3003 38.0859L32.144 38.1875C31.9764 38.2958 31.7895 38.3628 31.5933 38.3945L31.394 38.4258L31.1948 38.4609C31.1224 38.4727 31.0668 38.4922 31.0229 38.5195L30.8667 38.6211L30.7065 38.7188C30.6179 38.7743 30.5296 38.8348 30.4448 38.9023L30.2964 39.0234L30.1479 39.1406C29.9763 39.2772 29.7779 39.3616 29.562 39.3906L29.3667 39.4141L29.1753 39.4414H29.1714C29.1692 39.4433 29.165 39.4469 29.1597 39.4531L29.0229 39.6133L28.8901 39.7734C28.7329 39.9595 28.5235 40.0946 28.2729 40.1406L28.0854 40.1719L27.8979 40.207C27.755 40.2333 27.6099 40.2546 27.4644 40.2656L27.2729 40.2773L27.0815 40.293C26.98 40.3007 26.881 40.3171 26.7886 40.3398L26.6089 40.3828L26.4292 40.4297C26.3422 40.4512 26.2561 40.48 26.1714 40.5195L25.9995 40.6016L25.8276 40.6797C25.721 40.7296 25.6113 40.7826 25.5034 40.8398L25.3315 40.9336L25.1597 41.0234C24.9251 41.1479 24.6692 41.1692 24.4214 41.1016L24.0229 40.9922C23.9406 40.9697 23.8694 40.9675 23.812 40.9727L23.4448 41.0039C23.3927 41.0086 23.3345 41.0245 23.269 41.0586L23.0894 41.1523L22.9136 41.2461C22.718 41.3484 22.501 41.3985 22.2769 41.3828L22.0894 41.3672L21.9019 41.3555C21.772 41.3464 21.64 41.3363 21.5112 41.3242L21.3237 41.3047L21.1362 41.2891L20.5854 41.2422L20.3979 41.2266C20.2567 41.2152 20.1154 41.1976 19.9761 41.1719L19.6089 41.1016C19.6021 41.1003 19.5804 41.0984 19.5308 41.1211L19.1401 41.3008C18.9279 41.3985 18.6933 41.4382 18.4526 41.3906L18.2651 41.3555L18.0815 41.3164C17.9833 41.297 17.8818 41.2853 17.7808 41.2812L17.5933 41.2734L17.4019 41.2656C17.2034 41.2576 17.013 41.2093 16.8354 41.1211L16.6597 41.0312L16.4839 40.9453C16.4211 40.9143 16.3591 40.8967 16.2964 40.8906L16.1089 40.8711L15.9214 40.8555C15.722 40.836 15.5313 40.7728 15.3589 40.6719L15.1909 40.5742L15.0269 40.4766H14.9917L14.5698 40.5547C14.3241 40.5997 14.0731 40.565 13.8472 40.4297L13.6831 40.332L13.5151 40.2305C13.357 40.1356 13.2163 40.0154 13.0933 39.875L12.9565 39.7188L12.8628 39.6133L12.6948 39.6445L12.4722 39.6836C12.3203 39.7101 12.1471 39.7023 11.98 39.625C11.8123 39.5472 11.6946 39.4196 11.6167 39.2852L11.5034 39.0898L11.4097 38.9258L11.2651 38.918L11.0581 38.9023C10.8015 38.8832 10.5685 38.777 10.3901 38.582L10.1245 38.293C10.1004 38.2669 10.074 38.2519 10.0386 38.2422L9.85107 38.1914L9.65967 38.1367C9.46836 38.084 9.29335 37.9945 9.14014 37.8672L8.9917 37.7461L8.84717 37.625C8.74014 37.5359 8.63809 37.4413 8.53857 37.3438L8.40186 37.2109L8.26904 37.0781C8.16462 36.9758 8.06406 36.8685 7.97217 36.7539L7.85498 36.6055L7.73389 36.457C7.66337 36.3691 7.59054 36.2856 7.51514 36.207L7.38623 36.0742L7.25732 35.9375C7.24496 35.9248 7.21913 35.9061 7.15967 35.8906L6.74561 35.7812C6.44411 35.7039 6.21597 35.4971 6.12061 35.1953L6.05811 34.9961L6.00732 34.8359L5.84326 34.7852L5.64014 34.7188C5.49683 34.6721 5.35473 34.5887 5.24561 34.457C5.13804 34.3266 5.08311 34.1768 5.06201 34.0312L5.03076 33.8125L5.00732 33.6641L4.87451 33.6172L4.67139 33.5391C4.45859 33.458 4.26785 33.3258 4.12842 33.1328L4.01904 32.9805L3.90967 32.8242C3.78252 32.6482 3.70705 32.4494 3.6792 32.2383L3.65186 32.0273L3.62451 31.8203L3.47217 31.707L3.31201 31.5898C3.15744 31.4742 3.02606 31.3326 2.92529 31.168L2.82764 31.0039L2.72607 30.8438C2.67391 30.7585 2.61356 30.6741 2.54639 30.5938L2.42529 30.4453L2.30029 30.2969C2.15035 30.1175 2.06428 29.9055 2.04248 29.6758L2.02295 29.4727L2.00342 29.2734C1.9923 29.1544 1.97667 29.0399 1.95654 28.9297L1.92139 28.7383L1.89014 28.5508C1.86873 28.4338 1.84277 28.3195 1.81592 28.207L1.77295 28.0234L1.72998 27.8438C1.71006 27.7603 1.67894 27.6782 1.64014 27.6016L1.55811 27.4336L1.47217 27.2695C1.39525 27.1177 1.33746 26.9558 1.3042 26.7891L1.23389 26.4219C1.22713 26.3893 1.21111 26.3492 1.17139 26.3008L1.03857 26.1406L0.905762 25.9844C0.735588 25.7775 0.658428 25.5223 0.690918 25.25L0.737793 24.8516C0.747875 24.767 0.746439 24.6903 0.733887 24.6211L0.69873 24.4375L0.66748 24.2539C0.650427 24.1603 0.623202 24.0663 0.589355 23.9727L0.526855 23.793L0.460449 23.6133C0.422821 23.5092 0.378074 23.4039 0.327637 23.2969L0.241699 23.1172L0.155762 22.9336C0.072393 22.7562 0.0268776 22.5673 0.019043 22.3711L0.00341797 21.9883C-0.00220128 21.8423 -0.000383037 21.6964 0.0112305 21.5508L0.0424805 21.168C0.0530272 21.0366 0.0668622 20.9044 0.081543 20.7734L0.101074 20.5859L0.124512 20.3945C0.147357 20.1924 0.213806 20.0028 0.315918 19.8281L0.421387 19.6445L0.507324 19.5039L0.433105 19.3516L0.347168 19.1562C0.238916 18.918 0.215474 18.6533 0.315918 18.3945L0.38623 18.2109L0.460449 18.0312C0.470663 18.0046 0.472577 17.9769 0.464355 17.9375L0.425293 17.7422L0.382324 17.543C0.340026 17.3397 0.343065 17.132 0.397949 16.9297L0.44873 16.7461L0.495605 16.5664C0.541769 16.3962 0.613157 16.2332 0.706543 16.082L0.91748 15.7461C0.935056 15.7177 0.942093 15.6913 0.940918 15.6602L0.933105 15.4648L0.925293 15.2656C0.919016 15.0952 0.932419 14.9269 0.968262 14.7617L1.00732 14.5742L1.05029 14.3906C1.07915 14.2583 1.11208 14.123 1.14795 13.9922L1.19873 13.8125L1.24561 13.6289C1.31515 13.3754 1.47598 13.1789 1.67529 13.0391L1.86279 12.9102L1.96436 12.8359L1.94482 12.7031L1.90186 12.4805C1.8525 12.2056 1.90824 11.9181 2.1167 11.6875L2.24951 11.543L2.38232 11.3945C2.48036 11.2862 2.58291 11.1812 2.69092 11.082L2.83545 10.9492L2.98389 10.8164C3.05502 10.7511 3.11229 10.6823 3.15967 10.6133L3.37061 10.3086C3.42427 10.2304 3.47105 10.1462 3.51123 10.0586L3.58936 9.88672L3.66748 9.71875C3.70519 9.63652 3.73689 9.54241 3.76123 9.44141L3.85498 9.05078C3.91744 8.79319 4.07155 8.58112 4.29639 8.44141L4.46436 8.33594L4.63623 8.23047C4.69566 8.19354 4.73658 8.15431 4.76514 8.11328L4.87061 7.95703L4.97607 7.80469C5.04098 7.71044 5.10705 7.61173 5.16748 7.51172L5.26514 7.35156L5.36279 7.1875C5.4795 6.99443 5.64444 6.8456 5.84326 6.74609L6.01904 6.66016L6.19873 6.57031C6.27333 6.53297 6.33103 6.48828 6.37842 6.44141L6.51123 6.3125L6.64404 6.17969C6.7166 6.10769 6.78613 6.03134 6.85107 5.94922L7.08545 5.65234C7.19722 5.51133 7.32836 5.38983 7.47998 5.29297L7.64014 5.19141L7.79639 5.09375C7.87644 5.0427 7.95066 4.98164 8.01904 4.91797L8.29248 4.66797C8.34356 4.62041 8.39511 4.55589 8.44092 4.47656L8.64404 4.125L8.76514 3.95703C8.89922 3.80802 9.07529 3.70914 9.28076 3.66797L9.47998 3.625L9.6792 3.58594C9.77699 3.56638 9.86244 3.53835 9.93701 3.50391L10.1089 3.42578L10.269 3.34766ZM18.6479 1.01562L18.4604 1.03516C18.3463 1.04551 18.2297 1.05962 18.1167 1.07812L17.9292 1.10938L17.7456 1.14062C17.7373 1.14198 17.7077 1.14547 17.6597 1.19141L17.4995 1.34766L17.3354 1.5C17.1735 1.65514 16.9774 1.77758 16.7456 1.82422L16.5659 1.85938L16.3823 1.89453C16.1554 1.94015 15.9307 1.91288 15.7222 1.83984L15.5073 1.76172L15.3628 1.71094L15.2808 1.79297L15.1284 1.9375C14.934 2.11889 14.6857 2.21574 14.4136 2.20703L14.2144 2.19922L14.0112 2.19531C13.9623 2.19393 13.93 2.20346 13.9019 2.21875L13.7339 2.30859L13.5659 2.40234C13.5017 2.43765 13.439 2.48428 13.3784 2.54688L13.2378 2.69141L13.0972 2.83984C12.9458 2.99636 12.7602 3.10942 12.5464 3.16797L12.1792 3.26953C12.021 3.31255 11.8562 3.33795 11.687 3.34766L11.48 3.35938L11.3667 3.36328L11.3042 3.51172L11.2065 3.71875C11.1053 3.94143 10.9406 4.14037 10.6948 4.25391L10.5269 4.33594L10.355 4.41406C10.2038 4.4837 10.0419 4.53293 9.87451 4.56641L9.67529 4.60547L9.49951 4.64062L9.40967 4.80078L9.3042 4.97656C9.21372 5.13324 9.10642 5.27697 8.97607 5.39844L8.83936 5.52344L8.70264 5.65234C8.58955 5.75763 8.46615 5.85022 8.33545 5.93359L8.1792 6.03516L8.01904 6.13672C7.96087 6.17387 7.90982 6.21891 7.8667 6.27344L7.75342 6.42188L7.63623 6.57031C7.54649 6.68377 7.449 6.78968 7.34717 6.89062L7.21436 7.02344L7.08154 7.15234C6.9538 7.2787 6.80602 7.38377 6.64404 7.46484L6.46826 7.55078L6.28857 7.64062C6.25146 7.65935 6.23235 7.68019 6.21826 7.70312L6.02295 8.03125C5.95252 8.14779 5.87654 8.26039 5.80029 8.37109L5.69482 8.52344L5.58936 8.67969C5.47679 8.84294 5.33119 8.97395 5.16357 9.07812L4.9917 9.1875L4.82373 9.28906L4.78076 9.48047L4.73389 9.67578C4.69562 9.83454 4.64375 9.98835 4.57764 10.1328L4.49951 10.3047L4.42139 10.4727C4.35771 10.6115 4.28088 10.7455 4.19482 10.8711L4.08936 11.0273L3.98389 11.1797C3.89133 11.3145 3.78242 11.4379 3.65967 11.5508L3.51123 11.6836L3.3667 11.8203C3.28117 11.8989 3.19792 11.9809 3.12061 12.0664L2.9917 12.2109L2.88623 12.3242L2.9292 12.5273L2.96826 12.75C2.9951 12.8995 2.98768 13.0644 2.92139 13.2266C2.85487 13.3892 2.74224 13.5138 2.6167 13.6016L2.43311 13.7305L2.24951 13.8555C2.22569 13.8721 2.21755 13.8864 2.21436 13.8906H2.21045L2.15967 14.0742L2.11279 14.2578C2.08162 14.3715 2.05192 14.4866 2.02686 14.6016L1.98779 14.7891L1.94482 14.9727C1.92715 15.0537 1.92187 15.1398 1.92529 15.2305L1.9292 15.4258L1.93701 15.625C1.94538 15.8549 1.88957 16.0741 1.76904 16.2695L1.66357 16.4375L1.55811 16.6094C1.51338 16.6819 1.4802 16.7553 1.46045 16.8281L1.41357 17.0117L1.36279 17.1914C1.35157 17.2328 1.3505 17.281 1.36279 17.3398L1.40186 17.5352L1.44482 17.7344C1.49095 17.9564 1.47339 18.1808 1.39014 18.3945L1.31982 18.5742L1.25732 18.7422L1.34326 18.9375L1.43311 19.1328C1.5582 19.408 1.54425 19.7053 1.39014 19.9688L1.28467 20.1484L1.1792 20.332C1.13964 20.3997 1.12227 20.4581 1.1167 20.5078L1.09717 20.6953L1.07373 20.8867C1.06022 21.0074 1.04827 21.129 1.03857 21.25L1.02295 21.4375L1.00732 21.6289C0.998777 21.7356 0.999329 21.8424 1.00342 21.9492L1.01123 22.1406L1.01514 22.332C1.01746 22.3878 1.03259 22.4453 1.06201 22.5078L1.14795 22.6875L1.23389 22.8711C1.29685 23.0048 1.35321 23.1389 1.40186 23.2734L1.46436 23.4531L1.53076 23.6328C1.58325 23.7781 1.6246 23.9278 1.65186 24.0781L1.68311 24.2617L1.71826 24.4453C1.74957 24.6191 1.75135 24.7956 1.72998 24.9727L1.70654 25.1719L1.68311 25.3516L1.94092 25.6641C2.07468 25.8267 2.17213 26.0161 2.21436 26.2266L2.24951 26.4102L2.28857 26.5938C2.30397 26.6709 2.32677 26.7453 2.36279 26.8164L2.53467 27.1523C2.60828 27.298 2.6647 27.4506 2.70264 27.6094L2.74561 27.793L2.78857 27.9727C2.81966 28.1028 2.84606 28.237 2.87061 28.3711L2.90576 28.5586L2.94092 28.75C2.96649 28.89 2.98582 29.0332 2.99951 29.1797L3.01904 29.3789L3.03857 29.582C3.04207 29.6177 3.05059 29.6379 3.06592 29.6562L3.31592 29.9531C3.41423 30.0707 3.50275 30.1952 3.58154 30.3242L3.77686 30.6445C3.80719 30.6942 3.84984 30.7443 3.90967 30.7891L4.06982 30.9062L4.23389 31.0273C4.45369 31.1919 4.58188 31.4258 4.6167 31.6914L4.67139 32.1055C4.67976 32.1696 4.69834 32.2104 4.71826 32.2383L4.82764 32.3945L4.94092 32.5469C4.94947 32.5585 4.96966 32.5796 5.02686 32.6016L5.22998 32.6797L5.43701 32.7578C5.57554 32.8107 5.70894 32.8977 5.81201 33.0273C5.9143 33.1563 5.96667 33.3042 5.98779 33.4492L6.01904 33.668L6.03467 33.7969L6.15186 33.8359L6.35889 33.9023C6.57311 33.9723 6.74696 34.1065 6.85889 34.293L6.94873 34.4922L7.01123 34.6953L7.05029 34.8281L7.19873 34.8672L7.40576 34.9219C7.62028 34.9769 7.82049 35.0798 7.97998 35.2461L8.10889 35.3789L8.23779 35.5156C8.33381 35.6158 8.42687 35.722 8.51514 35.832L8.63232 35.9805L8.75342 36.1289C8.82044 36.2124 8.8927 36.2931 8.96826 36.3672L9.10107 36.4961L9.23779 36.6289C9.31811 36.7076 9.40144 36.7836 9.48779 36.8555L9.77686 37.0977C9.81655 37.1307 9.86526 37.1553 9.92529 37.1719L10.1167 37.2266L10.3042 37.2773C10.5207 37.3368 10.7109 37.4516 10.8628 37.6172L11.1284 37.9062H11.1323L11.3354 37.9219L11.5425 37.9375C11.8612 37.9612 12.1049 38.1387 12.2534 38.3945L12.3667 38.5898L12.4175 38.6758L12.5229 38.6602L12.7456 38.6211L12.9722 38.6094C13.1205 38.6184 13.263 38.6621 13.3901 38.7461L13.5698 38.9023L13.7065 39.0586L13.8433 39.2188C13.9038 39.2878 13.9686 39.3378 14.0308 39.375L14.1948 39.4727L14.3628 39.5742H14.3667C14.3712 39.5741 14.3796 39.5723 14.3901 39.5703L14.812 39.4922C15.0562 39.4479 15.3057 39.4816 15.5308 39.6133L15.8667 39.8086C15.9163 39.8374 15.9641 39.8542 16.0151 39.8594L16.2065 39.8789L16.394 39.8945C16.5822 39.9129 16.7638 39.9665 16.9331 40.0508L17.105 40.1367L17.2808 40.2266C17.3347 40.2533 17.3873 40.2633 17.4409 40.2656L17.8237 40.2812C17.9758 40.2874 18.128 40.3065 18.2769 40.3359L18.4604 40.3711L18.6479 40.4102C18.656 40.4116 18.6776 40.4151 18.7222 40.3945L19.1128 40.2148C19.3216 40.1188 19.5506 40.0775 19.7886 40.1211L19.9722 40.1523L20.1597 40.1875C20.2645 40.2068 20.3698 40.2219 20.4761 40.2305L20.6636 40.2461L20.8511 40.2578C20.9772 40.2679 21.1034 40.2811 21.23 40.293L21.4175 40.3086L21.605 40.3281C21.7254 40.3394 21.8467 40.3509 21.9683 40.3594L22.1597 40.3711L22.3472 40.3828C22.3749 40.3848 22.4065 40.3815 22.4487 40.3594L22.6284 40.2656L22.8042 40.1719C22.9762 40.0819 23.1611 40.0252 23.355 40.0078L23.5386 39.9922L23.7261 39.9766C23.9142 39.9599 24.1015 39.9774 24.2847 40.0273L24.6831 40.1367H24.6909L24.8628 40.0508L25.0347 39.957C25.1569 39.8922 25.2796 39.8306 25.4019 39.7734L25.5737 39.6953L25.7456 39.6133C25.8891 39.5462 26.0383 39.4946 26.1909 39.457L26.3706 39.4141L26.5503 39.3672C26.6977 39.3309 26.8495 39.3087 27.0034 39.2969L27.1987 39.2812L27.3901 39.2656C27.5004 39.2572 27.6106 39.2463 27.7183 39.2266L28.0933 39.1562C28.0975 39.1555 28.0994 39.1534 28.1011 39.1523C28.104 39.1505 28.1117 39.1441 28.1245 39.1289L28.3979 38.8086C28.5618 38.6152 28.781 38.484 29.0425 38.4492L29.2339 38.4258L29.4292 38.3984C29.4703 38.3929 29.5003 38.3805 29.5269 38.3594L29.6753 38.2383L29.8237 38.1211C29.9372 38.0308 30.0542 37.947 30.1753 37.8711L30.3354 37.7734L30.4917 37.6719C30.6579 37.5678 30.8417 37.5039 31.0347 37.4727L31.2339 37.4414L31.4331 37.4062C31.5029 37.395 31.5575 37.3758 31.6011 37.3477L31.7573 37.2461L31.9175 37.1406C31.9529 37.1175 31.9897 37.0831 32.0229 37.0273L32.1245 36.8516L32.23 36.6797C32.3227 36.5243 32.4337 36.3812 32.5659 36.2617L32.7065 36.1367L32.8433 36.0156C32.9397 35.9285 33.037 35.8409 33.1362 35.7578L33.2808 35.6406L33.4214 35.5195C33.5791 35.3877 33.7642 35.3022 33.9604 35.25L34.1636 35.1953L34.3433 35.1445L34.4175 34.9922L34.5034 34.8125C34.5932 34.6244 34.722 34.4627 34.8901 34.3359L35.0425 34.2227L35.1909 34.1055C35.2777 34.0401 35.3616 33.9719 35.4409 33.8984L35.5815 33.7695L35.7183 33.6406C35.8025 33.5627 35.8852 33.4817 35.9644 33.3984L36.0933 33.2617L36.2261 33.125C36.3096 33.0371 36.3941 32.9494 36.4761 32.8594L36.6011 32.7188L36.73 32.5781C36.7453 32.5612 36.7598 32.5351 36.769 32.4844L36.8081 32.2812L36.8433 32.0742C36.8791 31.8734 36.9526 31.6831 37.0737 31.5156L37.1831 31.3633L37.2925 31.2148C37.4094 31.0536 37.5602 30.9231 37.73 30.8203L37.9136 30.7109L38.0933 30.5977C38.0984 30.5945 38.1024 30.5918 38.105 30.5898L38.2144 30.2227C38.2378 30.1399 38.2503 30.0479 38.2534 29.9492L38.2612 29.7461L38.2651 29.5391L38.2964 29.3242C38.3514 29.1188 38.4753 28.9441 38.6519 28.8164L38.8276 28.6914L38.9683 28.5859L38.9722 28.4375V28.2383C38.9734 27.9863 39.0569 27.7509 39.2222 27.5586L39.355 27.4062L39.4839 27.2578C39.5482 27.183 39.6008 27.1035 39.644 27.0234L39.7378 26.8555L39.8276 26.6875C39.8579 26.6314 39.8755 26.5707 39.8823 26.5078L39.9019 26.3164L39.9253 26.1289C39.9385 26.0081 39.9479 25.8859 39.9565 25.7656L39.9722 25.5742L39.9839 25.3828C39.9938 25.2461 40.0084 25.1107 40.0269 24.9766L40.0542 24.7891L40.0776 24.6055C40.0959 24.4727 40.1188 24.3384 40.144 24.207L40.2144 23.8398C40.239 23.7121 40.2674 23.5844 40.2964 23.457L40.3354 23.2734L40.3784 23.0898C40.4112 22.9456 40.4549 22.8018 40.5073 22.6602L40.6401 22.293C40.6712 22.209 40.6936 22.1264 40.7026 22.043L40.7222 21.8555L40.7417 21.6641C40.747 21.6138 40.743 21.5582 40.7222 21.4961L40.6597 21.3086L40.6284 21.2227C40.5665 21.1963 40.5015 21.1567 40.4448 21.0938C40.3266 20.9618 40.3084 20.813 40.3081 20.7383C40.3078 20.6031 40.3614 20.4884 40.3823 20.4414L40.437 20.3164L40.4761 20.2227C40.4754 20.2165 40.4748 20.2076 40.4722 20.1953L40.4331 20.0078L40.394 19.8242C40.3663 19.6982 40.3374 19.5702 40.312 19.4453L40.2769 19.2617L40.2378 19.0781C40.2023 18.9027 40.1968 18.725 40.2183 18.5469L40.2651 18.1641C40.2789 18.0498 40.2869 17.9352 40.2925 17.8203L40.3003 17.6289L40.312 17.4375V17.4297C40.3115 17.428 40.3079 17.4177 40.2964 17.4023L40.1714 17.2383L40.0464 17.0703C39.8794 16.8475 39.8157 16.5801 39.8706 16.3047L39.9097 16.1055L39.9526 15.9023C39.9613 15.8581 39.956 15.8339 39.9487 15.8164L39.8745 15.6406L39.8042 15.4648C39.7602 15.359 39.7107 15.2547 39.6597 15.1523L39.5737 14.9844L39.4917 14.8164C39.3898 14.6121 39.3537 14.3893 39.3745 14.168L39.394 13.9609L39.4136 13.7578C39.4194 13.6962 39.4116 13.6526 39.3979 13.6211L39.3198 13.4492L39.2456 13.2734C39.1979 13.1636 39.1489 13.0532 39.0972 12.9453L39.0151 12.7773L38.9331 12.6055C38.913 12.5636 38.8787 12.5215 38.8237 12.4766L38.6636 12.3438L38.5073 12.2148C38.3388 12.0772 38.206 11.9003 38.1284 11.6914L37.9956 11.3398C37.967 11.2632 37.929 11.191 37.8823 11.125L37.7769 10.9727L37.6675 10.8203C37.5786 10.6947 37.4992 10.5612 37.4331 10.4219L37.355 10.2539L37.2729 10.082C37.2152 9.96015 37.1605 9.83425 37.1089 9.70703L37.0347 9.53125L36.9644 9.35156C36.9583 9.33658 36.9497 9.32204 36.9214 9.30469L36.5776 9.09375C36.4026 8.98625 36.2543 8.844 36.144 8.66797L36.0425 8.51172L35.9448 8.35156C35.8516 8.20259 35.7801 8.03961 35.73 7.86719L35.6714 7.66797L35.6245 7.50391L35.4683 7.44531L35.2729 7.37109C35.1088 7.30716 34.9553 7.22432 34.8159 7.125L34.6636 7.01562L34.5073 6.90625C34.3875 6.82083 34.2738 6.72872 34.1675 6.62891L34.0308 6.5L33.8979 6.375C33.8015 6.28444 33.705 6.18969 33.6128 6.09375L33.4839 5.96094L33.355 5.82422C33.2886 5.7552 33.2167 5.69325 33.1401 5.63672L32.9917 5.52344L32.8394 5.41406C32.7608 5.35621 32.6771 5.30347 32.5894 5.25781L32.4253 5.17188L32.2573 5.08594C32.0598 4.98312 31.9033 4.82958 31.7886 4.64453L31.6831 4.47266L31.5737 4.29688C31.5239 4.2168 31.469 4.14968 31.4097 4.09375L31.269 3.96094L31.1323 3.83594H30.9019L30.6831 3.83984C30.4459 3.84146 30.2119 3.77761 30.0112 3.625L29.8589 3.51172L29.7104 3.39844C29.6187 3.32859 29.5252 3.25986 29.4292 3.19531L29.1167 2.98438C29.061 2.94693 28.9992 2.91862 28.9331 2.90234L28.7495 2.85938L28.5659 2.8125C28.3836 2.76761 28.2126 2.69266 28.0581 2.58594L27.9019 2.47656L27.7417 2.36719C27.6653 2.31433 27.5855 2.26805 27.5034 2.23438L27.3315 2.16406L27.1558 2.09375C27.1105 2.07523 27.0592 2.06358 26.9956 2.06641L26.7964 2.07812L26.6011 2.08594C26.3565 2.09681 26.1238 2.02842 25.9253 1.88672L25.7612 1.76953L25.6011 1.65234C25.5454 1.61251 25.4922 1.58908 25.4409 1.57812L25.2573 1.53906L25.0698 1.5C24.9122 1.46644 24.7576 1.4178 24.6089 1.35156L24.4331 1.27344L24.269 1.19922L24.2651 1.20312L24.062 1.28516L23.8628 1.36328C23.6745 1.43922 23.4733 1.48304 23.269 1.47656L23.0854 1.46875L22.8979 1.46484C22.7258 1.45934 22.5549 1.42822 22.3901 1.375L22.2104 1.31641L22.0269 1.25781C21.9898 1.2459 21.9561 1.24548 21.9175 1.25391L21.73 1.29297L21.5425 1.33594C21.3801 1.37139 21.215 1.38652 21.0503 1.38281L20.8667 1.37891L20.6792 1.375C20.5541 1.37219 20.4291 1.36692 20.3042 1.36328L20.1167 1.35938L19.9331 1.35547C19.7313 1.34958 19.537 1.29583 19.355 1.21094L19.1597 1.12109L18.9644 1.02734C18.9057 1.00023 18.866 0.997889 18.8394 1L18.6479 1.01562Z" fill="#EDF2F7"/>
</svg>
