<svg width="24" height="24" viewBox="0 0 24 24" fill="none" xmlns="http://www.w3.org/2000/svg">
<path d="M3.75 11.25C4.16421 11.25 4.5 11.5858 4.5 12C4.5 16.1421 7.85786 19.5 12 19.5C14.4515 19.5 16.6268 18.3229 17.9951 16.5039H16.0068C15.5927 16.5038 15.2569 16.168 15.2568 15.7539C15.2569 15.3398 15.5927 15.004 16.0068 15.0039H20.25C20.664 15.0041 20.999 15.3399 20.999 15.7539V19.9961C20.999 20.4102 20.664 20.7459 20.25 20.7461C19.8358 20.7461 19.5 20.4103 19.5 19.9961V16.9727C17.8881 19.3994 15.1317 21 12 21C7.02944 21 3 16.9706 3 12C3 11.5858 3.33579 11.25 3.75 11.25ZM12 3C16.9706 3 21 7.02944 21 12C21 12.4142 20.6642 12.75 20.25 12.75C19.8358 12.75 19.5 12.4142 19.5 12C19.5 7.85786 16.1421 4.5 12 4.5C9.54851 4.5 7.37322 5.67714 6.00488 7.49609H7.99316C8.40728 7.49617 8.7431 7.83198 8.74316 8.24609C8.74314 8.66024 8.4073 8.99602 7.99316 8.99609H3.75C3.336 8.99586 3.001 8.66014 3.00098 8.24609V4.00391C3.00098 3.58984 3.33599 3.25414 3.75 3.25391C4.16419 3.25393 4.5 3.58971 4.5 4.00391V7.02734C6.11191 4.60056 8.86829 3 12 3Z" fill="#010820"/>
</svg>
