<svg width="128" height="128" viewBox="0 0 128 128" fill="none" xmlns="http://www.w3.org/2000/svg">
<path d="M63.3223 31.5796C63.6213 31.3927 63.9703 31.2971 64.3447 31.3569L64.6113 31.396L64.8828 31.4409C65.0249 31.4635 65.1661 31.4739 65.3057 31.4741H65.8389C66.151 31.4747 66.4446 31.5641 66.7109 31.7124L66.9717 31.8569L67.1387 31.9517L67.3389 31.8296L67.6162 31.6626L67.9443 31.5239C68.0634 31.494 68.1924 31.4864 68.3281 31.5015C68.4623 31.5166 68.586 31.5534 68.6943 31.6069L68.9834 31.8013L69.2334 32.0298L69.417 32.2017L69.5723 32.1401L69.8496 32.0405C70.1519 31.9336 70.4732 31.9118 70.7939 31.9907L71.0557 32.0513L71.3164 32.1187C71.4827 32.1597 71.6493 32.1991 71.8164 32.2349L72.3389 32.3462C72.514 32.3837 72.6923 32.4198 72.8662 32.4575L73.1279 32.5132L73.3828 32.5737C73.5524 32.6105 73.7246 32.6448 73.8945 32.6792L74.1553 32.729L74.417 32.7847C74.5366 32.8089 74.6613 32.821 74.7891 32.8179L75.0605 32.8071L75.333 32.8013C75.5573 32.7956 75.7802 32.8104 76 32.8462L76.2607 32.8901L76.5273 32.9351C76.6458 32.9541 76.773 32.9606 76.9053 32.9517L77.1836 32.9292L77.4609 32.9126C77.8184 32.889 78.1542 32.989 78.4385 33.1958L78.9053 33.5405C79.003 33.6113 79.099 33.6569 79.1885 33.6851L79.4385 33.7632L79.6943 33.8462C79.7979 33.8787 79.911 33.8937 80.0273 33.896L80.5723 33.9067C80.8681 33.9125 81.1511 33.9881 81.4111 34.1294L81.6504 34.2632L81.8945 34.3901C82.0206 34.4586 82.1488 34.5185 82.2773 34.563L82.5273 34.646L82.7773 34.7349C82.9032 34.7784 83.036 34.8145 83.1719 34.8354L83.7051 34.9126C83.8398 34.9333 83.9822 34.9437 84.1328 34.9409L84.7051 34.9292L84.9893 34.9575C85.2679 35.0107 85.5156 35.1486 85.7168 35.3569L85.9219 35.5679L86.1113 35.7681L86.3828 35.7632L86.6719 35.7573L86.9775 35.7847C87.2714 35.8449 87.5263 36.0032 87.7217 36.2407L87.917 36.4741L88.0723 36.6685L88.3164 36.6626L88.6113 36.6519L88.917 36.6743C89.2098 36.7312 89.4683 36.8876 89.667 37.1294L89.8555 37.3569L89.9941 37.5239L90.2393 37.5073L90.5498 37.479L90.8662 37.4907C90.9734 37.5078 91.083 37.5405 91.1885 37.5903C91.3993 37.6905 91.5608 37.8443 91.6777 38.0181L91.8496 38.2739L92.0166 38.5239C92.0754 38.6114 92.1298 38.6561 92.1719 38.6792L92.6387 38.9351C92.6862 38.9608 92.7542 38.9807 92.8555 38.9849L93.4551 39.0073C93.8167 39.022 94.1551 39.1572 94.4219 39.4243L94.8164 39.8179C94.9146 39.9161 95.0162 40.0017 95.1221 40.0737L95.5664 40.3735C95.6718 40.4449 95.7874 40.506 95.9111 40.5571L96.4111 40.7681C96.6904 40.8834 96.9323 41.0628 97.1221 41.2964L97.2939 41.5073L97.4668 41.7241C97.5124 41.7801 97.5675 41.82 97.6279 41.8462L97.8779 41.9517L98.1279 42.063C98.3483 42.1585 98.5559 42.2776 98.7441 42.4243L98.9502 42.5903L99.1611 42.7515C99.3069 42.8651 99.452 42.9833 99.5947 43.1021L100.006 43.4458C100.098 43.5221 100.202 43.5847 100.316 43.6401L100.561 43.7632L100.811 43.8853C101.162 44.0572 101.395 44.3504 101.517 44.6958L101.622 44.9849L101.722 45.2739C101.734 45.3096 101.745 45.3293 101.75 45.3354C101.753 45.3395 101.758 45.3389 101.761 45.3403L102.217 45.6294C102.31 45.6874 102.424 45.7374 102.561 45.7798L102.845 45.8687L103.133 45.9575C103.461 46.059 103.748 46.2545 103.95 46.5513L104.105 46.7798L104.256 47.0015C104.342 47.1277 104.435 47.2509 104.533 47.3628L104.889 47.7632C105.049 47.9453 105.181 48.15 105.289 48.3687L105.411 48.6128L105.533 48.8628C105.603 49.0037 105.679 49.1374 105.761 49.2632L105.905 49.4849L106.056 49.7124C106.081 49.7503 106.118 49.7921 106.188 49.8296L106.45 49.9624L106.705 50.0962C106.972 50.2367 107.173 50.4508 107.294 50.7124L107.389 50.9966L107.455 51.2798L107.517 51.563C107.54 51.6668 107.576 51.7418 107.616 51.7964L107.772 52.0132L107.928 52.2241C107.986 52.3038 108.063 52.3798 108.161 52.4517L108.389 52.6187L108.616 52.7905C108.911 53.0073 109.105 53.3098 109.178 53.6685L109.289 54.2241C109.296 54.2603 109.311 54.2768 109.333 54.2964L109.539 54.479L109.75 54.6685C110.032 54.9192 110.188 55.2503 110.217 55.6187L110.239 55.9067L110.25 56.1069L110.483 56.2466L110.761 56.4067C111.116 56.6128 111.371 56.9526 111.411 57.4019L111.438 57.6851L111.461 57.9683C111.47 58.076 111.502 58.1644 111.539 58.2407L111.772 58.7183C111.882 58.9419 111.937 59.1834 111.953 59.4292C112.014 59.429 112.076 59.4323 112.139 59.4399L112.411 59.4731L112.689 59.5063C112.737 59.5118 112.792 59.5039 112.861 59.4731L113.128 59.356L113.4 59.2397C113.736 59.0918 114.1 59.0682 114.456 59.1948L114.723 59.2896L114.983 59.3843C115.232 59.4732 115.465 59.5982 115.673 59.7622L116.117 60.1177C116.231 60.2076 116.34 60.2765 116.444 60.3286L116.673 60.4399L116.9 60.5562C116.963 60.5875 117.051 60.6161 117.173 60.6284L117.762 60.6841C118.08 60.7159 118.381 60.8315 118.639 61.0337L119.072 61.3677C119.348 61.5837 119.523 61.8752 119.611 62.2007L119.767 62.7788C119.803 62.9113 119.848 63.0111 119.895 63.0835L120.033 63.2954L120.173 63.5122C120.205 63.5612 120.261 63.6218 120.355 63.6841L120.601 63.8452L120.851 64.0063C121.099 64.1705 121.305 64.3845 121.456 64.645L121.733 65.1226C121.842 65.3113 121.937 65.508 122.017 65.7114L122.117 65.9731L122.217 66.228C122.322 66.4967 122.362 66.7795 122.345 67.0669L122.328 67.3452L122.312 67.6284C122.301 67.7999 122.298 67.9668 122.3 68.1284L122.306 68.395V68.6675C122.307 68.8448 122.311 68.9675 122.312 69.0337V69.228C122.312 69.2672 122.316 69.3697 122.328 69.5503L122.345 69.8169L122.367 70.0894C122.384 70.3383 122.362 70.5855 122.306 70.8286L122.244 71.0894L122.189 71.356C122.125 71.6349 122.001 71.8913 121.828 72.1177L121.655 72.3394L121.483 72.5669C121.476 72.5772 121.468 72.5817 121.467 72.5835C121.467 72.5841 121.466 72.5935 121.467 72.6118L121.483 72.895L121.494 73.1841C121.506 73.4342 121.49 73.6839 121.439 73.9282L121.384 74.2065L121.322 74.478C121.258 74.7875 121.117 75.068 120.9 75.3003L120.711 75.5063L120.522 75.7065C120.355 75.8859 120.163 76.0459 119.956 76.1782L119.489 76.478C119.375 76.5513 119.273 76.6325 119.189 76.7173L119.006 76.9058L118.822 77.0894C118.629 77.2857 118.4 77.4372 118.145 77.5396L117.9 77.6392L117.65 77.7397C117.52 77.7921 117.401 77.8548 117.289 77.9224L117.066 78.0562L116.851 78.1841C116.754 78.2426 116.647 78.3253 116.539 78.4282L116.333 78.6284L116.122 78.8286C115.848 79.0903 115.496 79.2317 115.105 79.2114L114.828 79.1948L114.55 79.1841C114.429 79.1777 114.311 79.1862 114.2 79.2114L113.939 79.2729L113.673 79.3286C113.478 79.3728 113.279 79.3893 113.081 79.3784C113.043 79.4566 112.997 79.5337 112.938 79.6069L112.756 79.8354L112.578 80.0571C112.505 80.1485 112.458 80.2386 112.428 80.3237L112.339 80.5796L112.25 80.8296C112.175 81.0421 112.077 81.2467 111.961 81.4409L111.822 81.6685L111.688 81.9019C111.627 82.0045 111.577 82.1118 111.544 82.2241L111.472 82.479L111.395 82.7349C111.358 82.8608 111.331 82.9991 111.316 83.146L111.261 83.7124C111.233 83.9945 111.152 84.2661 111.011 84.5132L110.744 84.979C110.585 85.2562 110.356 85.4716 110.089 85.6294L109.822 85.7847L109.578 85.9243L109.55 86.1567L109.506 86.4409C109.453 86.8035 109.279 87.1205 108.989 87.3521L108.767 87.5298L108.55 87.7017C108.53 87.7176 108.518 87.7316 108.511 87.7632L108.444 88.0405L108.383 88.313C108.299 88.6673 108.095 88.9667 107.794 89.1743L107.561 89.3354L107.333 89.4907L107.328 89.5073L107.205 90.0854C107.133 90.4197 106.963 90.7203 106.688 90.9458L106.267 91.2905C106.202 91.3438 106.152 91.4074 106.111 91.4849L105.855 91.9741C105.745 92.1852 105.61 92.3792 105.455 92.5571L105.283 92.7573L105.105 92.9624C104.892 93.2061 104.62 93.3665 104.322 93.4624L103.744 93.6519L103.694 93.6743L103.544 93.9067L103.4 94.1353C103.321 94.2607 103.246 94.3986 103.178 94.5464L102.934 95.0679C102.774 95.4096 102.505 95.6639 102.15 95.7964L101.883 95.896L101.611 95.9966C101.58 96.0083 101.568 96.0199 101.556 96.0405L101.411 96.2798L101.267 96.5239C101.111 96.7809 100.899 96.9921 100.639 97.146L100.405 97.2847L100.178 97.4243C100.108 97.4652 100.044 97.5162 99.9893 97.5903L99.8223 97.8179L99.6611 98.0405C99.5046 98.2538 99.3135 98.4378 99.0947 98.5854L98.6504 98.8853C98.4055 99.0505 98.1278 99.1514 97.8389 99.1958L97.25 99.2847C97.167 99.2975 97.1244 99.3253 97.0996 99.3462L96.8945 99.5181L96.6943 99.6909C96.6156 99.7573 96.5341 99.8405 96.4609 99.9517L96.2998 100.202L96.1387 100.446C95.9748 100.694 95.7635 100.903 95.5 101.051L95.2666 101.179L95.0273 101.313C94.7939 101.444 94.5423 101.531 94.2773 101.574L93.7109 101.663C93.6292 101.676 93.5715 101.702 93.5273 101.735L93.0947 102.057C92.8564 102.236 92.5855 102.353 92.2939 102.402L91.7393 102.491C91.5871 102.516 91.4407 102.553 91.3057 102.596L91.0557 102.679L90.7998 102.763C90.7256 102.787 90.6568 102.826 90.5889 102.885L90.3779 103.063L90.1719 103.247C89.9841 103.411 89.7755 103.548 89.5498 103.652L89.3057 103.763L89.0664 103.874C88.9896 103.909 88.909 103.965 88.8281 104.046L88.4219 104.452C88.1647 104.71 87.8356 104.861 87.4668 104.879L87.1885 104.896L86.9053 104.913C86.8908 104.913 86.8817 104.911 86.8779 104.913C86.8747 104.914 86.865 104.921 86.8496 104.935L86.6387 105.129L86.4219 105.318C86.1701 105.545 85.8655 105.688 85.5225 105.718L85.2441 105.741L84.9717 105.763C84.8567 105.773 84.7479 105.801 84.6504 105.84L84.4053 105.941L84.1553 106.041C83.8593 106.161 83.547 106.192 83.2393 106.146L82.9443 106.102L82.6553 106.057C82.588 106.047 82.5566 106.059 82.5391 106.068L82.2939 106.185L82.0557 106.301C81.95 106.353 81.843 106.427 81.7334 106.518L81.5059 106.708L81.2832 106.89C80.957 107.163 80.5552 107.25 80.1504 107.157L79.5605 107.024C79.4431 106.997 79.3475 106.996 79.2725 107.007L79.0107 107.046L78.75 107.09C78.7421 107.095 78.7194 107.111 78.6885 107.146L78.2559 107.635C78.028 107.892 77.7283 108.088 77.3613 108.152L77.0947 108.196L76.833 108.247C76.5935 108.288 76.3492 108.296 76.1055 108.274L75.8281 108.251L75.5557 108.224C75.3947 108.21 75.2343 108.206 75.0781 108.208H74.5332C74.4224 108.208 74.3152 108.225 74.2109 108.257L73.9551 108.34L73.7002 108.418C73.519 108.474 73.3339 108.526 73.1504 108.574L72.6279 108.708C72.4799 108.746 72.3323 108.796 72.1836 108.852L71.9219 108.946L71.667 109.046C71.3158 109.179 70.9508 109.16 70.6162 109.03L70.3389 108.924L70.0605 108.813C69.9251 108.76 69.7977 108.732 69.6836 108.718L69.417 108.685L69.1445 108.652C69.0275 108.638 68.9149 108.64 68.8057 108.657L68.5391 108.696L68.2773 108.741C68.0464 108.776 67.8116 108.783 67.5781 108.763L67.3105 108.741L67.0439 108.712C66.908 108.701 66.7714 108.706 66.6387 108.718L66.3779 108.741L66.1113 108.763C65.9584 108.777 65.8047 108.801 65.6504 108.83L65.3828 108.879L65.1221 108.929C65.0237 108.948 64.9122 108.987 64.7891 109.051L64.5225 109.191L64.25 109.335C63.9621 109.487 63.6418 109.561 63.3057 109.524L63.0391 109.491L62.7725 109.462C62.5743 109.44 62.3736 109.412 62.1777 109.374L61.9111 109.318L61.6504 109.268C61.4508 109.229 61.2472 109.177 61.0498 109.119L60.7891 109.041L60.5225 108.962C60.4065 108.928 60.2938 108.909 60.1836 108.907L59.6504 108.896C59.4403 108.892 59.2303 108.874 59.0225 108.84L58.7607 108.801L58.4941 108.757C58.3414 108.733 58.1869 108.717 58.0332 108.708L57.7666 108.691L57.5059 108.674C57.3929 108.667 57.2701 108.671 57.1445 108.696L56.8721 108.751L56.5996 108.801C56.2018 108.88 55.8243 108.778 55.5166 108.551L55.2725 108.369L55.0273 108.191C54.9682 108.147 54.9408 108.146 54.9336 108.146H54.667L54.4004 108.14C54.2876 108.14 54.1629 108.157 54.0273 108.191L53.4609 108.335C53.0903 108.428 52.7171 108.373 52.3887 108.168L52.1445 108.018L51.9004 107.863C51.8949 107.859 51.8897 107.857 51.8887 107.857C51.8866 107.857 51.8835 107.862 51.8779 107.863L51.3105 107.962C50.9837 108.02 50.6545 107.981 50.3496 107.835L50.1055 107.718L49.8555 107.596C49.7379 107.54 49.6191 107.501 49.5 107.474L48.9775 107.352C48.7912 107.31 48.6056 107.261 48.4219 107.208L47.9111 107.063C47.8275 107.039 47.7306 107.026 47.6221 107.035L47.3447 107.057L47.0605 107.08C46.8083 107.099 46.5557 107.082 46.3105 107.03L46.0439 106.974L45.7832 106.913C45.5249 106.857 45.2798 106.759 45.0557 106.619L44.8223 106.474L44.5889 106.324C44.4785 106.255 44.3653 106.202 44.25 106.163L43.9941 106.074L43.7441 105.991C43.6127 105.946 43.4732 105.909 43.333 105.885L42.7998 105.796C42.589 105.761 42.3807 105.716 42.1777 105.652L41.667 105.485C41.4579 105.419 41.2507 105.341 41.0557 105.241L40.5781 104.997C40.3637 104.887 40.166 104.747 39.9834 104.585L39.5605 104.208C39.4881 104.143 39.4115 104.104 39.3389 104.08L39.0889 103.997L38.833 103.913C38.6724 103.86 38.5093 103.811 38.3447 103.763L38.083 103.685L37.8281 103.613C37.5991 103.546 37.3772 103.45 37.1719 103.33L36.9385 103.196L36.7109 103.063C36.5184 102.95 36.3372 102.816 36.167 102.668L35.9609 102.491L35.75 102.313C35.7238 102.29 35.6946 102.27 35.6387 102.263L35.3496 102.229L35.0664 102.191C34.7878 102.156 34.5203 102.072 34.2773 101.929L34.0498 101.791L33.8164 101.657C33.641 101.553 33.4697 101.439 33.3057 101.318L33.0947 101.157L32.8779 100.997C32.7891 100.931 32.6869 100.88 32.5781 100.84L32.0664 100.652C31.7039 100.518 31.445 100.252 31.2832 99.9292L31.1445 99.6519L31.0059 99.3794C30.9749 99.3174 30.9536 99.3028 30.9502 99.3013L30.7051 99.1851L30.4668 99.0679C30.3449 99.0079 30.2114 98.9551 30.0664 98.9126L29.7939 98.8354L29.5225 98.7515C29.1806 98.6513 28.8975 98.4438 28.7002 98.146L28.5439 97.9126L28.3887 97.6743C28.3476 97.6126 28.3009 97.5735 28.25 97.5464L27.7725 97.2905C27.5285 97.1608 27.3128 96.9885 27.1387 96.7739L26.9717 96.563L26.7998 96.3521C26.6954 96.2234 26.5874 96.0989 26.4775 95.979L26.2939 95.7798L26.1113 95.5854C26.0211 95.4871 25.9231 95.3975 25.8164 95.3179L25.6055 95.1567L25.3887 94.9966C25.2218 94.8722 25.0663 94.7347 24.917 94.5903L24.7217 94.4067L24.5332 94.2241C24.3934 94.0889 24.2577 93.9461 24.1279 93.8013L23.9502 93.6021L23.7725 93.4067C23.6548 93.2754 23.5347 93.1441 23.417 93.0132L23.0605 92.6128C22.917 92.4529 22.7837 92.2836 22.667 92.1021L22.5225 91.8735L22.3779 91.6519C22.3714 91.6418 22.3565 91.6129 22.2891 91.5854L21.7217 91.3628C21.4069 91.2365 21.1361 91.0192 20.9551 90.7124L20.8164 90.479L20.6836 90.2515C20.5511 90.0269 20.4566 89.7809 20.4004 89.5239L20.3389 89.2349L20.2773 88.9517C20.2756 88.9436 20.2736 88.938 20.2725 88.9351C20.2722 88.9348 20.2656 88.9327 20.2607 88.9292L19.8057 88.5962C19.5466 88.4085 19.3495 88.1594 19.2334 87.8569L19.1328 87.6021L19.0391 87.3462C18.9861 87.208 18.9243 87.0767 18.8555 86.9517L18.5996 86.4849C18.5815 86.4521 18.5449 86.4038 18.4609 86.3521L18.2002 86.1958L17.9385 86.0347C17.6722 85.8705 17.4507 85.6473 17.2998 85.3628L17.0439 84.8853C16.9299 84.6697 16.8478 84.4407 16.7939 84.2017L16.7334 83.9351L16.6719 83.6626C16.6232 83.4464 16.5927 83.2257 16.5781 83.0015L16.5605 82.7183L16.5391 82.4351C16.5325 82.3344 16.5114 82.2534 16.4775 82.1851L16.3613 81.9458L16.2393 81.7075C16.1356 81.4986 16.0574 81.279 16.0059 81.0513L15.9502 80.7905L15.8887 80.5298C15.8643 80.4226 15.8271 80.3175 15.7725 80.2183L15.6387 79.9849L15.5107 79.7466C15.4175 79.5769 15.3431 79.3993 15.2871 79.2153L15.166 79.2563L14.9053 79.3501C14.6638 79.4354 14.411 79.4828 14.1553 79.4946L13.877 79.5112L13.5996 79.5229C13.3416 79.5349 13.0828 79.5105 12.833 79.4448L12.5664 79.3726L12.2939 79.3003C12.0793 79.2438 11.8693 79.1715 11.666 79.0835L11.1553 78.8618C10.9745 78.7835 10.7933 78.6993 10.6162 78.6118L10.1162 78.3677C9.83378 78.2281 9.60125 78.0213 9.42773 77.7612L9.27148 77.5229L9.11035 77.2788C9.07686 77.2289 9.03569 77.1946 8.97754 77.1675L8.71582 77.0454L8.44922 76.9224C8.24611 76.8276 8.06402 76.6757 7.93848 76.4673C7.81729 76.265 7.77292 76.0465 7.7666 75.8452L7.75488 75.5112L7.74414 75.2007L7.56641 75.0835L7.33301 74.9224C7.04542 74.7228 6.8354 74.4385 6.74414 74.0894L6.61035 73.5669C6.58696 73.4776 6.54701 73.3903 6.48828 73.3062L6.32715 73.0786L6.16602 72.8452C5.9884 72.5918 5.87992 72.305 5.85547 71.9946L5.83301 71.7231L5.81641 71.4507C5.80954 71.3628 5.7852 71.2697 5.73828 71.1724L5.61035 70.9116L5.48242 70.6558C5.34358 70.3684 5.28867 70.0546 5.32227 69.7339L5.37695 69.1782C5.40087 68.9515 5.45149 68.7294 5.5166 68.5112L5.67188 67.978C5.73023 67.7829 5.79798 67.5921 5.87207 67.4058L5.97168 67.1509L6.07227 66.9009C6.14968 66.7064 6.23897 66.5149 6.33887 66.3335L6.46582 66.106L6.59375 65.8726C6.62504 65.8157 6.64449 65.7496 6.64941 65.6675L6.68262 65.1118C6.69582 64.8748 6.73512 64.6401 6.7998 64.4116L6.87695 64.145L6.94922 63.8784C7.02937 63.5953 7.17278 63.3398 7.37207 63.1226L7.55469 62.9175L7.74414 62.7173C7.94708 62.4966 8.19428 62.3347 8.47168 62.228L9.0166 62.0171C9.07464 61.9947 9.09469 61.9726 9.10547 61.9565L9.40527 61.5112C9.50459 61.363 9.60698 61.2028 9.71582 61.0396L9.88281 60.7954L10.0439 60.5503L10.2607 60.3003C10.5007 60.088 10.8111 59.9895 11.1436 60.0063L11.4443 60.0171L11.75 60.0337H11.7549L11.9658 59.8286L12.1826 59.6226L12.4385 59.4341C12.6202 59.3302 12.8222 59.2787 13.0332 59.2788L13.3555 59.3169L13.9219 59.4614C13.9484 59.4683 13.9663 59.4721 14 59.4565L14.5439 59.2007C14.8056 59.0791 15.0864 59.0392 15.3662 59.0894L15.6436 59.1675L15.9053 59.2729L15.9951 59.3101L16.0664 59.2075C16.1479 59.086 16.2193 58.9609 16.2773 58.8354L16.3887 58.5903L16.5 58.3521C16.5499 58.244 16.5861 58.1267 16.6113 58.0015L16.667 57.729L16.7168 57.4624C16.7858 57.1187 16.9674 56.8289 17.2275 56.6069L17.4502 56.4185L17.667 56.229C17.6737 56.2235 17.6809 56.2213 17.6836 56.2183L17.6885 56.2124V56.2075C17.6891 56.2055 17.6934 56.2018 17.6943 56.1958L17.7832 55.6401C17.8216 55.4018 17.8839 55.1711 17.9775 54.9517L18.0889 54.7017L18.1943 54.4575C18.2587 54.307 18.3158 54.1495 18.3721 53.9907L18.4668 53.7349L18.5557 53.4741C18.6675 53.1585 18.8708 52.8997 19.1387 52.7075L19.6055 52.3735C19.6355 52.3517 19.6469 52.3341 19.6553 52.3071L19.7334 52.0347L19.8164 51.7681L19.9277 51.5015C20.0626 51.2569 20.2705 51.07 20.5225 50.9409L20.7832 50.8013L21.0498 50.6685C21.1067 50.6393 21.1236 50.6131 21.1328 50.5962L21.3887 50.1187C21.5167 49.875 21.6877 49.6597 21.9004 49.4849L22.1113 49.313L22.3164 49.1401C22.3187 49.1384 22.3354 49.1291 22.3496 49.0679L22.417 48.7681L22.4893 48.4741L22.5889 48.1743C22.7253 47.8953 22.9567 47.6768 23.2666 47.5571L23.8223 47.3462C23.9394 47.301 24.0302 47.247 24.0947 47.1909L24.2939 47.0181L24.4941 46.8403C24.6409 46.713 24.7936 46.5908 24.9502 46.4741L25.167 46.313L25.3779 46.1567C25.3861 46.1506 25.4102 46.1296 25.4336 46.0571L25.5273 45.7681L25.6221 45.4741C25.7243 45.1566 25.9104 44.8738 26.1943 44.6685L26.417 44.5073L26.6328 44.3521C26.8403 44.2026 27.0718 44.0887 27.3164 44.0073L27.583 43.9185L27.8555 43.8237C27.9836 43.781 28.0962 43.73 28.1943 43.6685L28.4219 43.5239L28.6328 43.3901C28.6362 43.385 28.6486 43.3666 28.6611 43.3237L28.7559 43.0015L28.8496 42.6851L28.9893 42.3628C29.0545 42.2592 29.1412 42.163 29.25 42.0796C29.47 41.9117 29.724 41.8532 29.9502 41.8521L30.2773 41.8462H30.6055C30.6328 41.846 30.6506 41.8424 30.6611 41.8403H30.667L30.8555 41.6685L31.0557 41.4907C31.2029 41.3574 31.3578 41.2323 31.5166 41.1128L31.9385 40.7905C32.085 40.6803 32.2344 40.5689 32.3828 40.4624L32.8164 40.1519C32.959 40.0495 33.1007 39.9442 33.2441 39.8403L33.4668 39.6851L33.6836 39.5298C33.8624 39.4003 34.0515 39.2863 34.25 39.1909L34.7275 38.9575C34.847 38.9001 34.9627 38.8323 35.0723 38.7515L35.5059 38.4292C35.681 38.3 35.8681 38.1892 36.0605 38.0903L36.2939 37.9683L36.5332 37.8462C36.8015 37.7083 37.092 37.6408 37.3887 37.6401H37.9834C38.0814 37.64 38.1478 37.6252 38.1943 37.6021L38.4336 37.479L38.667 37.3628C38.8392 37.2756 39.0159 37.193 39.1943 37.1187L39.4443 37.0132L39.6885 36.9126C39.7078 36.9042 39.7496 36.8799 39.8057 36.8013L39.9893 36.5464L40.1719 36.2847C40.3623 36.0168 40.6169 35.7958 40.9443 35.6792L41.2002 35.5903L41.4502 35.5015C41.6601 35.4269 41.8781 35.3707 42.0996 35.3354L42.3721 35.2964L42.6387 35.2515C42.7174 35.239 42.7915 35.2143 42.8613 35.1685L43.0889 35.0132L43.3223 34.8628C43.5914 34.6861 43.8968 34.594 44.2168 34.5903H44.4941L44.7773 34.5854C44.9304 34.5836 45.0769 34.5689 45.2168 34.5464L45.4834 34.5073L45.75 34.4624C45.9343 34.4328 46.1196 34.4076 46.3057 34.3853L46.5781 34.3521L46.8447 34.3179C46.9614 34.3037 47.072 34.2771 47.1777 34.2349L47.4277 34.1353L47.6719 34.0347C47.781 33.9909 47.8971 33.9326 48.0107 33.8521L48.4775 33.5181C48.6642 33.3859 48.8586 33.2709 49.0605 33.1743L49.3105 33.0571L49.5557 32.9409C49.7801 32.8337 50.016 32.758 50.2607 32.7183L50.7939 32.6294C50.9632 32.6019 51.1321 32.5724 51.2998 32.5405L51.5664 32.4907L51.8281 32.4409C52.1258 32.3843 52.4246 32.4072 52.7109 32.4907L52.9941 32.5737L53.2832 32.6567L53.3057 32.6626L53.5557 32.5347L53.8057 32.4126C54.0742 32.2787 54.3649 32.2084 54.667 32.2183L55.2051 32.2407C55.406 32.2473 55.6088 32.2603 55.8105 32.2847L56.083 32.3179L56.3613 32.3521C56.5174 32.3708 56.6725 32.3778 56.8223 32.3794L57.0889 32.3853H57.3496C57.4976 32.3869 57.6475 32.3793 57.7939 32.3628L58.0605 32.3354L58.3223 32.3071C58.4473 32.2929 58.573 32.2603 58.7002 32.2183L58.9609 32.1353L59.2217 32.0464C59.4735 31.963 59.735 31.93 60 31.9409L60.5391 31.9624C60.7355 31.9708 60.9318 31.9888 61.1279 32.0132L61.3945 32.0464L61.6611 32.0737C61.781 32.0886 61.9002 32.0886 62.0166 32.0737L62.2773 32.0405L62.5439 32.0073C62.6011 32 62.6834 31.9787 62.7891 31.9126L63.3223 31.5796Z" fill="#FFF0EE"/>
</svg>
