<svg width="128" height="128" viewBox="0 0 128 128" fill="none" xmlns="http://www.w3.org/2000/svg">
<path d="M63.3228 31.5796C63.6217 31.3927 63.9708 31.2971 64.3452 31.3569L64.6118 31.396L64.8833 31.4409C65.0254 31.4635 65.1666 31.4739 65.3062 31.4741H65.8394C66.1516 31.4747 66.445 31.565 66.7114 31.7134L66.9722 31.8569L67.1392 31.9517L67.3394 31.8296L67.6167 31.6626L67.9448 31.5239C68.0639 31.494 68.1929 31.4864 68.3286 31.5015C68.4628 31.5166 68.5865 31.5535 68.6948 31.6069L68.9839 31.8022L69.2339 32.0298L69.4175 32.2017L69.5728 32.1411L69.8501 32.0405C70.1524 31.9336 70.4737 31.9118 70.7944 31.9907L71.0562 32.0522L71.3169 32.1187C71.4832 32.1597 71.6498 32.1991 71.8169 32.2349L72.3394 32.3462C72.5144 32.3837 72.6928 32.4198 72.8667 32.4575L73.1284 32.5132L73.3833 32.5737C73.5529 32.6105 73.7251 32.6448 73.895 32.6792L74.1558 32.73L74.4175 32.7856C74.5371 32.8098 74.6618 32.8219 74.7896 32.8188L75.061 32.8071L75.3335 32.8022C75.5578 32.7966 75.7807 32.8104 76.0005 32.8462L76.2612 32.8911L76.5278 32.9351C76.6463 32.9541 76.7735 32.9606 76.9058 32.9517L77.1841 32.9292L77.4614 32.9126C77.8188 32.889 78.1547 32.989 78.439 33.1958L78.9058 33.5405C79.0035 33.6113 79.0995 33.6569 79.189 33.6851L79.439 33.7632L79.6948 33.8462C79.7984 33.8787 79.9115 33.8937 80.0278 33.896L80.5728 33.9077C80.8686 33.9135 81.1516 33.9881 81.4116 34.1294L81.6499 34.2632L81.895 34.3911C82.021 34.4595 82.1494 34.5185 82.2778 34.563L82.5278 34.646L82.7778 34.7349C82.9037 34.7784 83.0365 34.8145 83.1724 34.8354L83.7056 34.9126C83.8403 34.9333 83.9827 34.9437 84.1333 34.9409L84.7056 34.9292L84.9897 34.9575C85.2684 35.0107 85.5161 35.1486 85.7173 35.3569L85.9224 35.5688L86.1118 35.7681L86.3833 35.7632L86.6724 35.7573L86.978 35.7856C87.2718 35.8458 87.5268 36.0032 87.7222 36.2407L87.9175 36.4741L88.0728 36.6685L88.3169 36.6626L88.6118 36.6519L88.9175 36.6743C89.2103 36.7312 89.4688 36.8876 89.6675 37.1294L89.856 37.3569L89.9946 37.5239L90.2397 37.5073L90.5503 37.48L90.8667 37.4907C90.9738 37.5078 91.0835 37.5405 91.189 37.5903C91.3998 37.6905 91.5612 37.8444 91.6782 38.0181L91.8501 38.2739L92.0171 38.5239C92.0759 38.6114 92.1303 38.6561 92.1724 38.6792L92.6392 38.9351C92.6867 38.9608 92.7547 38.9807 92.856 38.9849L93.4556 39.0073C93.8172 39.022 94.1556 39.1572 94.4224 39.4243L94.8169 39.8188C94.915 39.917 95.0167 40.0017 95.1226 40.0737L95.5669 40.3745C95.6723 40.4458 95.7879 40.506 95.9116 40.5571L96.4116 40.7681C96.6909 40.8834 96.9328 41.0628 97.1226 41.2964L97.2944 41.5073L97.4673 41.7241C97.5129 41.7802 97.5679 41.82 97.6284 41.8462L97.8784 41.9517L98.1284 42.063C98.3488 42.1585 98.5564 42.2776 98.7446 42.4243L98.9507 42.5903L99.1616 42.7515C99.3074 42.8651 99.4525 42.9833 99.5952 43.1021L100.006 43.4458C100.098 43.5222 100.203 43.5857 100.317 43.6411L100.561 43.7632L100.811 43.8853C101.163 44.0572 101.395 44.3505 101.517 44.6958L101.623 44.9849L101.722 45.2739C101.735 45.3096 101.746 45.3293 101.75 45.3354C101.754 45.3396 101.759 45.339 101.761 45.3403L102.217 45.6294C102.31 45.6874 102.424 45.7374 102.561 45.7798L102.845 45.8687L103.133 45.9575C103.462 46.059 103.749 46.2554 103.951 46.5522L104.106 46.7798L104.256 47.0015C104.342 47.1277 104.435 47.2509 104.534 47.3628L104.889 47.7632C105.049 47.9453 105.181 48.15 105.29 48.3687L105.412 48.6128L105.534 48.8628C105.604 49.0037 105.68 49.1374 105.761 49.2632L105.906 49.4849L106.056 49.7134C106.081 49.7511 106.118 49.7922 106.189 49.8296L106.451 49.9634L106.706 50.0962C106.973 50.2368 107.174 50.4516 107.294 50.7134L107.389 50.9966L107.456 51.2798L107.517 51.563C107.54 51.6668 107.577 51.7418 107.617 51.7964L107.773 52.0132L107.928 52.2241C107.987 52.3038 108.064 52.3798 108.162 52.4517L108.389 52.6187L108.617 52.7905C108.912 53.0073 109.106 53.3098 109.178 53.6685L109.29 54.2241C109.297 54.2603 109.311 54.2768 109.333 54.2964L109.54 54.48L109.75 54.6685C110.033 54.9192 110.188 55.2503 110.217 55.6187L110.24 55.9077L110.25 56.1069L110.484 56.2466L110.761 56.4077C111.117 56.6137 111.372 56.9526 111.412 57.4019L111.439 57.6851L111.461 57.9683C111.471 58.076 111.502 58.1644 111.54 58.2407L111.773 58.7183C111.882 58.9419 111.938 59.1834 111.954 59.4292C112.015 59.429 112.077 59.4323 112.139 59.4399L112.412 59.4731L112.689 59.5063C112.736 59.5119 112.792 59.504 112.862 59.4731L113.128 59.356L113.4 59.2397C113.736 59.0918 114.1 59.0683 114.456 59.1948L114.722 59.2896L114.984 59.3843C115.233 59.4732 115.465 59.5983 115.672 59.7622L116.117 60.1177C116.231 60.2078 116.341 60.2764 116.445 60.3286L116.672 60.4399L116.9 60.5562C116.962 60.5875 117.051 60.616 117.172 60.6284L117.761 60.6841C118.08 60.7158 118.381 60.8313 118.639 61.0337L119.073 61.3677C119.348 61.5837 119.524 61.8753 119.612 62.2007L119.767 62.7788C119.803 62.9116 119.848 63.012 119.895 63.0845L120.034 63.2954L120.172 63.5122C120.204 63.5613 120.261 63.6216 120.356 63.6841L120.6 63.8452L120.85 64.0063C121.099 64.1704 121.305 64.3845 121.456 64.645L121.734 65.1226C121.843 65.3113 121.937 65.508 122.017 65.7114L122.117 65.9731L122.217 66.229C122.322 66.4977 122.362 66.7805 122.345 67.0679L122.328 67.3452L122.311 67.6284C122.301 67.7998 122.299 67.9668 122.3 68.1284L122.306 68.395V68.6675C122.308 68.8447 122.311 68.9675 122.311 69.0337V69.229C122.311 69.2686 122.315 69.3711 122.328 69.5513L122.345 69.8179L122.367 70.0894C122.384 70.3383 122.362 70.5855 122.306 70.8286L122.245 71.0894L122.189 71.356C122.125 71.6349 122.001 71.8913 121.828 72.1177L121.656 72.3394L121.484 72.5679C121.476 72.5787 121.468 72.5829 121.467 72.5845C121.467 72.5863 121.466 72.5951 121.467 72.6118L121.484 72.895L121.495 73.1841C121.507 73.4342 121.49 73.6839 121.439 73.9282L121.383 74.2065L121.323 74.479C121.258 74.7884 121.116 75.069 120.9 75.3013L120.711 75.5063L120.523 75.7065C120.356 75.8861 120.163 76.0458 119.956 76.1782L119.489 76.479C119.374 76.5523 119.272 76.6325 119.189 76.7173L119.006 76.9067L118.823 77.0894C118.63 77.2857 118.4 77.4372 118.145 77.5396L117.9 77.6401L117.65 77.7397C117.52 77.792 117.401 77.8558 117.29 77.9233L117.067 78.0562L116.85 78.1841C116.754 78.2426 116.647 78.3255 116.54 78.4282L116.333 78.6284L116.123 78.8286C115.849 79.0904 115.496 79.2317 115.106 79.2114L114.828 79.1948L114.55 79.1841C114.43 79.1776 114.312 79.1862 114.201 79.2114L113.939 79.2729L113.672 79.3286C113.478 79.3727 113.279 79.3893 113.082 79.3784C113.043 79.4566 112.997 79.5337 112.939 79.6069L112.756 79.8354L112.579 80.0571C112.506 80.1484 112.458 80.2387 112.428 80.3237L112.339 80.5796L112.25 80.8296C112.176 81.0421 112.077 81.2466 111.961 81.4409L111.823 81.6685L111.689 81.9019C111.628 82.0046 111.577 82.1117 111.544 82.2241L111.472 82.48L111.395 82.7349C111.358 82.8608 111.331 82.9992 111.317 83.146L111.261 83.7134C111.233 83.9953 111.153 84.2663 111.011 84.5132L110.745 84.98C110.586 85.2569 110.356 85.4717 110.089 85.6294L109.823 85.7856L109.579 85.9243L109.55 86.1577L109.506 86.4409C109.453 86.8035 109.279 87.1204 108.99 87.3521L108.767 87.5298L108.55 87.7017C108.53 87.7177 108.519 87.7316 108.511 87.7632L108.445 88.0405L108.383 88.313C108.3 88.6673 108.096 88.9667 107.794 89.1743L107.561 89.3354L107.333 89.4907L107.329 89.5073L107.206 90.0854C107.133 90.4198 106.963 90.7203 106.689 90.9458L106.267 91.2905C106.203 91.3438 106.152 91.4075 106.112 91.4849L105.856 91.9741C105.746 92.1852 105.611 92.3792 105.456 92.5571L105.284 92.7573L105.106 92.9634C104.893 93.207 104.621 93.3675 104.323 93.4634L103.745 93.6519L103.695 93.6743L103.544 93.9077L103.4 94.1353C103.321 94.2606 103.247 94.3987 103.178 94.5464L102.934 95.0688C102.775 95.4106 102.504 95.6639 102.15 95.7964L101.883 95.896L101.612 95.9966C101.581 96.0083 101.569 96.02 101.556 96.0405L101.412 96.2798L101.267 96.5239C101.112 96.7809 100.9 96.9921 100.639 97.146L100.406 97.2856L100.178 97.4243C100.109 97.4652 100.044 97.5162 99.9897 97.5903L99.8228 97.8188L99.6616 98.0405C99.5051 98.2538 99.314 98.4378 99.0952 98.5854L98.6499 98.8853C98.4052 99.0503 98.1282 99.1514 97.8394 99.1958L97.2505 99.2856C97.1675 99.2985 97.1249 99.3253 97.1001 99.3462L96.895 99.5181L96.6948 99.6909C96.6161 99.7573 96.5346 99.8405 96.4614 99.9517L96.3003 100.202L96.1392 100.446C95.9753 100.694 95.7641 100.904 95.5005 101.052L95.2671 101.179L95.0278 101.313C94.7944 101.444 94.5429 101.531 94.2778 101.574L93.7114 101.663C93.6297 101.676 93.572 101.702 93.5278 101.735L93.0952 102.057C92.8569 102.236 92.586 102.353 92.2944 102.402L91.7397 102.491C91.5876 102.516 91.4411 102.553 91.3062 102.596L91.0562 102.679L90.8003 102.763C90.7261 102.787 90.6573 102.826 90.5894 102.885L90.3784 103.063L90.1724 103.247C89.9845 103.411 89.776 103.548 89.5503 103.652L89.3062 103.763L89.0669 103.875C88.9902 103.91 88.9094 103.965 88.8286 104.046L88.4224 104.452C88.1652 104.71 87.8361 104.861 87.4673 104.879L87.189 104.896L86.9058 104.913C86.8914 104.913 86.8822 104.911 86.8784 104.913C86.8752 104.914 86.8655 104.921 86.8501 104.935L86.6392 105.129L86.4224 105.319C86.1707 105.546 85.8659 105.688 85.5229 105.718L85.2446 105.741L84.9722 105.763C84.857 105.773 84.7475 105.801 84.6499 105.84L84.4058 105.941L84.1558 106.041C83.8598 106.161 83.5475 106.192 83.2397 106.146L82.9448 106.102L82.6558 106.057C82.5881 106.047 82.557 106.06 82.5396 106.069L82.2944 106.185L82.0562 106.302C81.9505 106.354 81.8434 106.427 81.7339 106.518L81.5063 106.708L81.2837 106.891C80.9574 107.164 80.5548 107.251 80.1499 107.158L79.561 107.024C79.4436 106.997 79.348 106.996 79.2729 107.007L79.0112 107.046L78.7505 107.09C78.7426 107.095 78.7199 107.111 78.689 107.146L78.2563 107.635C78.0285 107.892 77.7288 108.088 77.3618 108.152L77.0952 108.197L76.8335 108.247C76.594 108.288 76.3497 108.296 76.106 108.274L75.8286 108.251L75.5562 108.224C75.3951 108.21 75.2347 108.206 75.0786 108.208H74.5337C74.4228 108.208 74.3157 108.225 74.2114 108.257L73.9556 108.34L73.7007 108.418C73.5194 108.474 73.3336 108.526 73.1499 108.574L72.6284 108.708C72.4804 108.746 72.3328 108.796 72.1841 108.852L71.9224 108.947L71.6675 109.046C71.3163 109.179 70.9513 109.16 70.6167 109.03L70.3394 108.924L70.061 108.813C69.9256 108.76 69.7982 108.732 69.6841 108.718L69.4175 108.685L69.145 108.652C69.028 108.638 68.9154 108.641 68.8062 108.658L68.5396 108.697L68.2778 108.741C68.0468 108.776 67.8121 108.783 67.5786 108.763L67.311 108.741L67.0444 108.713C66.9085 108.702 66.7719 108.706 66.6392 108.718L66.3784 108.741L66.1118 108.763C65.9588 108.777 65.8044 108.801 65.6499 108.83L65.3833 108.879L65.1226 108.929C65.0241 108.948 64.9128 108.987 64.7896 109.052L64.5229 109.191L64.2505 109.335C63.9626 109.487 63.6423 109.561 63.3062 109.524L63.0396 109.491L62.7729 109.463C62.5748 109.441 62.3741 109.413 62.1782 109.375L61.9116 109.319L61.6499 109.268C61.4505 109.229 61.2475 109.177 61.0503 109.119L60.7896 109.041L60.5229 108.963C60.407 108.929 60.2943 108.91 60.1841 108.908L59.6499 108.896C59.44 108.892 59.2307 108.874 59.0229 108.84L58.7612 108.802L58.4946 108.757C58.3418 108.733 58.1874 108.717 58.0337 108.708L57.7671 108.691L57.5063 108.674C57.3933 108.667 57.2706 108.672 57.145 108.697L56.8726 108.751L56.6001 108.802C56.2024 108.881 55.8248 108.779 55.5171 108.552L55.2729 108.369L55.0278 108.191C54.9688 108.147 54.9413 108.146 54.9341 108.146H54.6675L54.3999 108.141C54.2872 108.141 54.1632 108.157 54.0278 108.191L53.4614 108.335C53.0907 108.428 52.7176 108.373 52.3892 108.168L52.145 108.018L51.8999 107.863C51.8946 107.86 51.8902 107.857 51.8892 107.857C51.8871 107.857 51.884 107.862 51.8784 107.863L51.311 107.963C50.9842 108.021 50.6549 107.981 50.3501 107.835L50.106 107.718L49.856 107.596C49.7383 107.54 49.6196 107.501 49.5005 107.474L48.978 107.352C48.7917 107.31 48.6061 107.261 48.4224 107.208L47.9116 107.063C47.828 107.039 47.7311 107.027 47.6226 107.036L47.3452 107.057L47.061 107.08C46.8088 107.099 46.5562 107.082 46.311 107.03L46.0444 106.974L45.7837 106.913C45.5254 106.857 45.2803 106.759 45.0562 106.619L44.8228 106.474L44.5894 106.324C44.479 106.255 44.3658 106.202 44.2505 106.163L43.9946 106.074L43.7446 105.991C43.6132 105.946 43.4737 105.908 43.3335 105.885L42.8003 105.796C42.5895 105.761 42.3812 105.716 42.1782 105.652L41.6675 105.485C41.4583 105.419 41.2512 105.341 41.0562 105.241L40.5786 104.997C40.3642 104.887 40.1665 104.747 39.9839 104.585L39.561 104.208C39.4886 104.143 39.412 104.104 39.3394 104.08L39.0894 103.997L38.8335 103.913C38.6729 103.86 38.5097 103.811 38.3452 103.763L38.0835 103.685L37.8286 103.613C37.5995 103.546 37.3777 103.45 37.1724 103.33L36.939 103.197L36.7114 103.063C36.5189 102.95 36.3377 102.816 36.1675 102.668L35.9614 102.491L35.7505 102.313C35.7243 102.29 35.6951 102.27 35.6392 102.263L35.3501 102.23L35.0669 102.191C34.7883 102.156 34.5208 102.072 34.2778 101.929L34.0503 101.791L33.8169 101.658C33.6415 101.554 33.4702 101.44 33.3062 101.319L33.0952 101.158L32.8784 100.997C32.7896 100.931 32.6874 100.88 32.5786 100.84L32.0669 100.652C31.7044 100.518 31.4454 100.252 31.2837 99.9292L31.145 99.6519L31.0063 99.3794C30.9762 99.3191 30.955 99.3044 30.9507 99.3022L30.7056 99.1851L30.4673 99.0688C30.3454 99.0089 30.2119 98.9551 30.0669 98.9126L29.7944 98.8354L29.5229 98.7515C29.1811 98.6513 28.898 98.4438 28.7007 98.146L28.5444 97.9126L28.3892 97.6743C28.3481 97.6126 28.3014 97.5735 28.2505 97.5464L27.7729 97.2905C27.529 97.1608 27.3133 96.9885 27.1392 96.7739L26.9722 96.563L26.8003 96.3521C26.6959 96.2235 26.5879 96.0999 26.478 95.98L26.2944 95.7798L26.1118 95.5854C26.0217 95.4872 25.9236 95.3984 25.8169 95.3188L25.606 95.1577L25.3892 94.9966C25.2223 94.8722 25.0668 94.7347 24.9175 94.5903L24.7222 94.4077L24.5337 94.2241C24.394 94.089 24.2581 93.947 24.1284 93.8022L23.9507 93.6021L23.7729 93.4077C23.6553 93.2763 23.5352 93.1442 23.4175 93.0132L23.061 92.6128C22.9175 92.4529 22.7842 92.2836 22.6675 92.1021L22.5229 91.8745L22.3784 91.6519C22.3719 91.6418 22.3571 91.6129 22.2896 91.5854L21.7222 91.3628C21.4075 91.2365 21.1366 91.0201 20.9556 90.7134L20.8169 90.48L20.6841 90.2515C20.5516 90.0269 20.4561 89.7809 20.3999 89.5239L20.3394 89.2349L20.2778 88.9517C20.276 88.9435 20.2741 88.938 20.2729 88.9351C20.2727 88.9348 20.2661 88.9327 20.2612 88.9292L19.8062 88.5962C19.5471 88.4085 19.35 88.1594 19.2339 87.8569L19.1333 87.6021L19.0396 87.3462C18.9866 87.208 18.9248 87.0767 18.856 86.9517L18.6001 86.4849C18.582 86.4521 18.5454 86.4038 18.4614 86.3521L18.2007 86.1958L17.939 86.0356C17.6725 85.8715 17.4513 85.6474 17.3003 85.3628L17.0444 84.8853C16.9304 84.6698 16.8483 84.4406 16.7944 84.2017L16.7339 83.9351L16.6724 83.6626C16.6237 83.4464 16.5931 83.2257 16.5786 83.0015L16.561 82.7183L16.5396 82.4351C16.533 82.3344 16.5119 82.2534 16.478 82.1851L16.3618 81.9458L16.2397 81.7075C16.1362 81.4988 16.0578 81.2798 16.0063 81.0522L15.9507 80.7905L15.8892 80.5298C15.8648 80.4225 15.8276 80.3176 15.7729 80.2183L15.6392 79.9849L15.5112 79.7466C15.4179 79.5768 15.3436 79.3993 15.2876 79.2153L15.1665 79.2563L14.9058 79.3501C14.6643 79.4354 14.4115 79.4828 14.1558 79.4946L13.8774 79.5112L13.6001 79.5229C13.3421 79.5349 13.0833 79.5105 12.8335 79.4448L12.5669 79.3726L12.2944 79.3003C12.0798 79.2439 11.8698 79.1715 11.6665 79.0835L11.1558 78.8618C10.975 78.7835 10.7938 78.6993 10.6167 78.6118L10.1167 78.3677C9.83427 78.2281 9.60174 78.0213 9.42822 77.7612L9.27197 77.5229L9.11084 77.2778C9.0774 77.2282 9.03599 77.1945 8.97803 77.1675L8.71631 77.0454L8.44971 76.9224C8.24661 76.8276 8.06451 76.6756 7.93896 76.4673C7.81778 76.265 7.77341 76.0465 7.76709 75.8452L7.75537 75.5112L7.74463 75.2007L7.56689 75.0835L7.3335 74.9224C7.04591 74.7228 6.83589 74.4385 6.74463 74.0894L6.61084 73.5669C6.58745 73.4776 6.5475 73.3903 6.48877 73.3062L6.32764 73.0786L6.1665 72.8452C5.98889 72.5918 5.88041 72.305 5.85596 71.9946L5.8335 71.7231L5.81689 71.4507C5.81003 71.3628 5.78569 71.2697 5.73877 71.1724L5.61084 70.9116L5.48389 70.6558C5.3449 70.3683 5.28914 70.0548 5.32275 69.7339L5.37744 69.1782C5.40135 68.9514 5.45198 68.7294 5.51709 68.5112L5.67236 67.978C5.73072 67.7828 5.79847 67.5921 5.87256 67.4058L5.97217 67.1509L6.07275 66.9009C6.15017 66.7064 6.23946 66.5149 6.33936 66.3335L6.46631 66.106L6.59424 65.8726C6.62554 65.8157 6.64497 65.7496 6.6499 65.6675L6.68311 65.1118C6.69631 64.8748 6.73561 64.6401 6.80029 64.4116L6.87744 64.145L6.94971 63.8784C7.02986 63.5953 7.17326 63.3398 7.37256 63.1226L7.55518 62.9175L7.74463 62.7173C7.94757 62.4966 8.19476 62.3347 8.47217 62.228L9.01709 62.0171C9.07511 61.9947 9.09517 61.9726 9.10596 61.9565L9.40576 61.5112C9.50508 61.363 9.60747 61.2028 9.71631 61.0396L9.8833 60.7954L10.0444 60.5503L10.2612 60.3003C10.5012 60.088 10.8116 59.9895 11.144 60.0063L11.4448 60.0171L11.7505 60.0337H11.7554L11.9663 59.8286L12.1831 59.6226L12.439 59.4341C12.6207 59.3302 12.8227 59.2777 13.0337 59.2778L13.356 59.3169L13.9224 59.4614C13.9489 59.4683 13.9668 59.4721 14.0005 59.4565L14.5444 59.2007C14.8061 59.0791 15.0869 59.0393 15.3667 59.0894L15.644 59.1675L15.9058 59.2729L15.9956 59.3101L16.0669 59.2075C16.1484 59.0859 16.2198 58.961 16.2778 58.8354L16.3892 58.5903L16.5005 58.3521C16.5504 58.244 16.5866 58.1267 16.6118 58.0015L16.6675 57.73L16.7173 57.4634C16.7863 57.1195 16.9678 56.829 17.228 56.6069L17.4507 56.4185L17.6675 56.23C17.6743 56.2242 17.6814 56.2213 17.6841 56.2183L17.689 56.2134V56.2075C17.6896 56.2055 17.6939 56.2018 17.6948 56.1958L17.7837 55.6411C17.8221 55.4026 17.8843 55.1712 17.978 54.9517L18.0894 54.7017L18.1948 54.4575C18.2592 54.307 18.3162 54.1496 18.3726 53.9907L18.4673 53.7349L18.5562 53.4741C18.668 53.1585 18.8713 52.8997 19.1392 52.7075L19.606 52.3745C19.6362 52.3526 19.6474 52.3342 19.6558 52.3071L19.7339 52.0356L19.8169 51.7681L19.9282 51.5015C20.0631 51.257 20.2711 51.07 20.5229 50.9409L20.7837 50.8022L21.0503 50.6685C21.1074 50.6392 21.1241 50.6131 21.1333 50.5962L21.3892 50.1187C21.5172 49.875 21.6873 49.6596 21.8999 49.4849L22.1118 49.313L22.3169 49.1411C22.3188 49.1396 22.3357 49.1306 22.3501 49.0688L22.4175 48.7681L22.4897 48.4741L22.5894 48.1743C22.7258 47.8953 22.9572 47.6768 23.2671 47.5571L23.8228 47.3462C23.9399 47.301 24.0307 47.2469 24.0952 47.1909L24.2944 47.0181L24.4946 46.8403C24.6414 46.713 24.7942 46.5907 24.9507 46.4741L25.1675 46.313L25.3784 46.1577C25.3862 46.1519 25.4103 46.1307 25.4341 46.0571L25.5278 45.7681L25.6226 45.4741C25.7248 45.1566 25.9108 44.8738 26.1948 44.6685L26.4175 44.5073L26.6333 44.3521C26.8408 44.2026 27.0722 44.0887 27.3169 44.0073L27.5835 43.9185L27.856 43.8237C27.9841 43.781 28.0967 43.73 28.1948 43.6685L28.4224 43.5239L28.6333 43.3911C28.6366 43.3861 28.649 43.3668 28.6616 43.3237L28.7563 43.0015L28.8501 42.6851L28.9897 42.3628C29.055 42.2592 29.1417 42.163 29.2505 42.0796C29.4705 41.9118 29.7245 41.8532 29.9507 41.8521L30.2778 41.8462H30.606C30.6333 41.846 30.6511 41.8424 30.6616 41.8403H30.6675L30.856 41.6685L31.0562 41.4907C31.2033 41.3575 31.3583 41.2322 31.5171 41.1128L31.939 40.7905C32.0853 40.6804 32.2351 40.5698 32.3833 40.4634L32.8169 40.1519C32.9595 40.0495 33.1012 39.9443 33.2446 39.8403L33.4673 39.6851L33.6841 39.5298C33.8629 39.4003 34.052 39.2863 34.2505 39.1909L34.728 38.9575C34.8475 38.9001 34.9632 38.8323 35.0728 38.7515L35.5063 38.4292C35.6815 38.3 35.8686 38.1892 36.061 38.0903L36.2944 37.9683L36.5337 37.8462C36.802 37.7083 37.0925 37.6418 37.3892 37.6411H37.9839C38.0819 37.641 38.1483 37.6252 38.1948 37.6021L38.4341 37.48L38.6675 37.3628C38.8397 37.2756 39.0164 37.193 39.1948 37.1187L39.4448 37.0132L39.689 36.9126C39.7083 36.9042 39.7502 36.8807 39.8062 36.8022L39.9897 36.5464L40.1724 36.2856C40.3628 36.0178 40.6174 35.7958 40.9448 35.6792L41.2007 35.5903L41.4507 35.5015C41.6606 35.427 41.8786 35.3707 42.1001 35.3354L42.3726 35.2964L42.6392 35.2515C42.7179 35.239 42.792 35.2143 42.8618 35.1685L43.0894 35.0132L43.3228 34.8628C43.5919 34.6861 43.8973 34.594 44.2173 34.5903H44.4946L44.7778 34.5854C44.9309 34.5836 45.0774 34.5689 45.2173 34.5464L45.4839 34.5073L45.7505 34.4634C45.9348 34.4338 46.1201 34.4077 46.3062 34.3853L46.5786 34.3521L46.8452 34.3188C46.9619 34.3047 47.0725 34.2771 47.1782 34.2349L47.4282 34.1353L47.6724 34.0356C47.7816 33.9919 47.8975 33.9326 48.0112 33.8521L48.478 33.5181C48.6647 33.3859 48.8591 33.2709 49.061 33.1743L49.311 33.0571L49.5562 32.9409C49.7805 32.8337 50.0165 32.758 50.2612 32.7183L50.7944 32.6294C50.9637 32.6019 51.1326 32.5724 51.3003 32.5405L51.5669 32.4907L51.8286 32.4409C52.1263 32.3843 52.4252 32.4073 52.7114 32.4907L52.9946 32.5737L53.2837 32.6577L53.3062 32.6626L53.5562 32.5356L53.8062 32.4126C54.0747 32.2788 54.3655 32.2084 54.6675 32.2183L55.2056 32.2407C55.4065 32.2473 55.6092 32.2613 55.811 32.2856L56.0835 32.3188L56.3618 32.3521C56.5179 32.3708 56.673 32.3778 56.8228 32.3794L57.0894 32.3853H57.3501C57.4981 32.3869 57.648 32.3794 57.7944 32.3628L58.061 32.3354L58.3228 32.3071C58.4478 32.2929 58.5735 32.2603 58.7007 32.2183L58.9614 32.1353L59.2222 32.0464C59.474 31.963 59.7355 31.93 60.0005 31.9409L60.5396 31.9634C60.736 31.9717 60.9323 31.9889 61.1284 32.0132L61.395 32.0464L61.6616 32.0737C61.7815 32.0886 61.9007 32.0886 62.0171 32.0737L62.2778 32.0405L62.5444 32.0073C62.6016 32 62.6839 31.9787 62.7896 31.9126L63.3228 31.5796Z" fill="#FFE2DE"/>
</svg>
