<svg width="24" height="24" viewBox="0 0 24 24" fill="none" xmlns="http://www.w3.org/2000/svg">
<path d="M12.0888 3.98608L12.1025 3.98803L12.2129 4.00561C12.2421 4.01028 12.2711 4.01238 12.2998 4.01244H12.4091C12.4733 4.01255 12.5341 4.03076 12.5888 4.06127L12.6757 4.10912L12.7734 4.05053L12.789 4.04272C12.8263 4.02369 12.8709 4.01186 12.9199 4.01733C12.9684 4.02279 13.0091 4.04379 13.041 4.06908L13.0537 4.07983L13.1435 4.15991L13.2314 4.12866C13.2935 4.10669 13.3599 4.10165 13.4257 4.11791L13.5322 4.14428C13.5662 4.15268 13.6006 4.1604 13.6347 4.16772L13.7422 4.19116C13.7779 4.19881 13.814 4.20591 13.8496 4.21362L13.957 4.23705C13.9918 4.24459 14.0267 4.25247 14.0615 4.25951L14.1679 4.281C14.1926 4.28599 14.2187 4.28752 14.2451 4.28686L14.3564 4.28491C14.4021 4.28377 14.4474 4.28644 14.4922 4.29369L14.6006 4.31127C14.6249 4.31522 14.6505 4.31602 14.6777 4.3142L14.792 4.30737C14.8654 4.30247 14.9338 4.32348 14.9922 4.36596L15.0879 4.4353C15.103 4.44631 15.1177 4.45487 15.1318 4.46069L15.1465 4.46557L15.2509 4.4978C15.2721 4.50441 15.2946 4.50808 15.3183 4.50854L15.4297 4.51147C15.4904 4.51264 15.5491 4.52734 15.6025 4.55639L15.7011 4.6101C15.727 4.62415 15.7529 4.63612 15.7793 4.64526L15.8818 4.68041C15.9077 4.68936 15.9349 4.69662 15.9629 4.70092L16.0722 4.71752C16.0999 4.72178 16.1292 4.72395 16.1601 4.72338L16.2773 4.72143H16.292C16.367 4.72389 16.4338 4.75492 16.4853 4.80834L16.5674 4.8933L16.6806 4.89037C16.7618 4.88816 16.8332 4.91993 16.8857 4.97729L16.8965 4.98998L16.9687 5.0769L17.0781 5.07397H17.0947C17.1685 5.07562 17.2343 5.10549 17.2841 5.15991L17.2949 5.17162L17.3613 5.25268L17.4756 5.24389L17.4922 5.24291C17.5296 5.24195 17.5687 5.2485 17.6064 5.26635C17.6442 5.28426 17.6742 5.31045 17.6972 5.34057L17.707 5.35424L17.7763 5.45776C17.7884 5.47572 17.7999 5.48428 17.8086 5.48901L17.9043 5.54174C17.914 5.54703 17.9284 5.55166 17.9492 5.55248L18.0713 5.55737C18.1409 5.56013 18.2067 5.58423 18.2597 5.63256L18.2695 5.64233L18.3506 5.72241C18.371 5.74288 18.392 5.76117 18.414 5.77612L18.5039 5.83666C18.5254 5.85127 18.5489 5.86427 18.5742 5.87475L18.6777 5.91772C18.735 5.94137 18.7843 5.97822 18.8232 6.02612L18.8945 6.11401C18.9038 6.1255 18.9143 6.13305 18.9267 6.13842L19.0293 6.18334C19.0745 6.20291 19.1166 6.22748 19.1552 6.25756L19.2412 6.32494C19.271 6.34821 19.3008 6.37191 19.33 6.39623L19.415 6.46655C19.4336 6.48203 19.4544 6.4953 19.4775 6.50658L19.5791 6.55639C19.6514 6.59156 19.6995 6.65151 19.7246 6.72241L19.7666 6.84155C19.769 6.8485 19.7714 6.85186 19.7724 6.85326C19.7732 6.85434 19.7738 6.85486 19.7744 6.85522L19.8672 6.91381C19.8863 6.92584 19.9101 6.93727 19.9384 6.94604L20.0556 6.98217C20.123 7.00301 20.1822 7.04324 20.2236 7.10424L20.2861 7.19604C20.3036 7.22189 20.3226 7.24637 20.3427 7.26928L20.415 7.35229C20.4478 7.38958 20.4758 7.43059 20.498 7.47533L20.5478 7.5769C20.5621 7.60573 20.578 7.63319 20.5947 7.65893L20.6543 7.7517C20.6594 7.75956 20.6678 7.76734 20.6826 7.77514L20.7881 7.8308C20.8614 7.86938 20.9108 7.93388 20.9287 8.0144L20.9541 8.13158C20.9588 8.15293 20.9664 8.16824 20.9746 8.17944L21.039 8.26635C21.051 8.28272 21.0668 8.29846 21.0869 8.31323L21.1806 8.38256C21.2409 8.42696 21.2801 8.48891 21.2949 8.56225L21.3183 8.67651C21.3198 8.68391 21.3226 8.68714 21.3271 8.69116L21.4121 8.76733C21.4701 8.8188 21.5029 8.88701 21.5088 8.96264L21.5166 9.0642L21.6201 9.12377C21.6884 9.16342 21.7392 9.22747 21.7519 9.31127L21.7539 9.32787L21.7636 9.44408C21.7656 9.46616 21.7706 9.48507 21.7783 9.50073L21.8261 9.59838C21.8485 9.64411 21.8618 9.69287 21.8652 9.74291C21.8774 9.74292 21.8899 9.74433 21.9023 9.74584L22.0146 9.75951C22.0243 9.7607 22.0354 9.75994 22.0498 9.75366L22.1601 9.70483C22.2291 9.67442 22.3048 9.66894 22.3779 9.69506L22.4863 9.73412C22.5373 9.75239 22.5844 9.77859 22.6269 9.81225L22.7177 9.88451C22.7411 9.90297 22.7638 9.91678 22.7851 9.92748L22.8789 9.97533C22.8917 9.98172 22.9096 9.98749 22.9345 9.98998L23.0556 10.0017C23.1208 10.0083 23.1825 10.0306 23.2353 10.072L23.3232 10.1414C23.3797 10.1856 23.4164 10.2455 23.4345 10.3122L23.4668 10.4304C23.4742 10.4576 23.4826 10.4781 23.4922 10.4929L23.5498 10.5808C23.5563 10.5909 23.5674 10.6031 23.5869 10.616L23.6875 10.6824C23.7385 10.716 23.7816 10.7598 23.8125 10.8132L23.8691 10.9109C23.8914 10.9496 23.9104 10.9902 23.9267 11.032L23.9687 11.1374C23.9902 11.1925 23.9985 11.2505 23.9951 11.3093L23.9882 11.4246C23.9862 11.4596 23.985 11.494 23.9853 11.5271L23.9873 11.6374V11.7527C23.9873 11.7606 23.9886 11.7811 23.9912 11.8181L23.999 11.9294C24.0025 11.9804 23.9987 12.031 23.9873 12.0808L23.9619 12.1892C23.9487 12.2461 23.9239 12.2982 23.8886 12.3445L23.8174 12.4372C23.8156 12.4395 23.8155 12.4409 23.8154 12.4412C23.8154 12.4413 23.8143 12.4426 23.8144 12.446L23.8203 12.5642C23.8228 12.6154 23.819 12.6665 23.8086 12.7165L23.7851 12.8298C23.7719 12.8933 23.7426 12.9502 23.6982 12.9978L23.6201 13.0818C23.5859 13.1184 23.5471 13.1504 23.5049 13.1775L23.4091 13.239C23.3856 13.2541 23.3647 13.2704 23.3476 13.2878L23.2724 13.365C23.2329 13.4052 23.186 13.4358 23.1338 13.4568L23.0322 13.4978C23.0055 13.5085 22.9809 13.5211 22.958 13.5349L22.8681 13.5896C22.8483 13.6016 22.8267 13.6174 22.8047 13.6384L22.7187 13.7214C22.6624 13.7752 22.5899 13.8038 22.5097 13.7996L22.3965 13.7937C22.3717 13.7924 22.348 13.7944 22.3252 13.7996L22.2168 13.824C22.1769 13.833 22.1361 13.8361 22.0957 13.8337C22.0877 13.8499 22.0775 13.8664 22.0654 13.8816L21.9922 13.9734C21.9771 13.9923 21.9671 14.0105 21.9609 14.0281L21.9248 14.1316C21.9095 14.1751 21.8899 14.2168 21.8662 14.2566L21.8095 14.3513C21.797 14.3724 21.787 14.3946 21.7802 14.4177L21.75 14.5222C21.7425 14.5479 21.7373 14.5762 21.7343 14.6062L21.7226 14.7224C21.7169 14.7803 21.6999 14.8357 21.6709 14.8865L21.6162 14.9822C21.5836 15.039 21.5362 15.0826 21.4814 15.115L21.3779 15.1765L21.3632 15.282C21.3524 15.3565 21.3154 15.421 21.2558 15.4685L21.166 15.5408C21.1619 15.544 21.1597 15.5462 21.1582 15.5525L21.1318 15.6667C21.1146 15.7392 21.0733 15.8 21.0117 15.8425L20.917 15.908C20.9168 15.9085 20.9162 15.9097 20.916 15.9109L20.8906 16.029C20.8758 16.0975 20.8411 16.1586 20.7851 16.2048L20.6982 16.2761C20.6849 16.2871 20.6744 16.3002 20.666 16.3162L20.6142 16.4167C20.5917 16.4599 20.564 16.4995 20.5322 16.5359L20.4599 16.6189C20.4162 16.669 20.3601 16.7028 20.2988 16.7224L20.1806 16.7605C20.1743 16.7625 20.1714 16.764 20.1709 16.7644L20.1699 16.7654L20.1103 16.8591C20.0941 16.8847 20.0795 16.9129 20.0654 16.9431L20.0156 17.0505C19.983 17.1207 19.927 17.1727 19.8545 17.1999L19.7441 17.241C19.7376 17.2434 19.735 17.2455 19.7324 17.2497L19.6728 17.3494C19.641 17.402 19.5983 17.4458 19.5449 17.4773L19.4492 17.533C19.4349 17.5414 19.4224 17.5528 19.4111 17.5681L19.3437 17.6609C19.3116 17.7046 19.2724 17.7419 19.2275 17.7722L19.1367 17.8337C19.0865 17.8676 19.0299 17.8881 18.9707 17.8972L18.8496 17.9158C18.8329 17.9183 18.8244 17.9232 18.8193 17.9275L18.7353 17.9988C18.7192 18.0124 18.7034 18.0298 18.6884 18.0525L18.622 18.1531C18.5884 18.2042 18.5444 18.2467 18.4902 18.2771L18.3945 18.3308C18.3465 18.3577 18.2947 18.3758 18.2402 18.3845L18.123 18.4031C18.1063 18.4058 18.0949 18.411 18.0859 18.4177L17.998 18.4841C17.9491 18.5209 17.8928 18.5434 17.833 18.5535L17.7197 18.573C17.6885 18.5782 17.6585 18.5855 17.6308 18.5945L17.5263 18.6277C17.5112 18.6326 17.4972 18.6409 17.4834 18.6531L17.3984 18.7283C17.3598 18.7621 17.3168 18.79 17.2705 18.8113L17.1718 18.8562C17.1561 18.8634 17.1396 18.8747 17.123 18.8914L17.04 18.9753C16.9873 19.0284 16.9193 19.0594 16.8437 19.0632L16.7285 19.0691C16.7251 19.0693 16.7233 19.0698 16.7226 19.0701C16.7218 19.0705 16.7195 19.0715 16.7168 19.074L16.6299 19.1531C16.5782 19.1996 16.5147 19.2279 16.4443 19.2341L16.332 19.2439C16.3083 19.246 16.2866 19.2514 16.2666 19.2595L16.165 19.3005C16.1044 19.3252 16.0405 19.3314 15.9775 19.322L15.8564 19.3035C15.8428 19.3015 15.8365 19.3037 15.833 19.3054L15.7343 19.3542C15.7127 19.3649 15.6904 19.3794 15.6679 19.3982L15.5761 19.4753C15.5093 19.5312 15.4267 19.5491 15.3437 19.53L15.2236 19.5027C15.1992 19.4971 15.1795 19.4964 15.164 19.4988L15.0566 19.5154L15.0439 19.5271L14.955 19.6267C14.9084 19.6792 14.8475 19.72 14.7724 19.7331L14.6631 19.7527C14.6141 19.7612 14.5645 19.7629 14.5146 19.7585L14.4013 19.7488C14.3682 19.7458 14.3349 19.7436 14.3027 19.7439L14.1924 19.7449C14.1695 19.745 14.1474 19.749 14.1259 19.7556L14.0205 19.7878C14.002 19.7935 13.9834 19.7992 13.9648 19.8044L13.9082 19.8201L13.8017 19.8474C13.7714 19.8553 13.7404 19.8652 13.7099 19.8767L13.6045 19.9167C13.5326 19.9439 13.4581 19.9404 13.3896 19.9138L13.2744 19.8689C13.2468 19.8582 13.2215 19.8521 13.1982 19.8494L13.0869 19.8357C13.0629 19.8329 13.0399 19.8333 13.0175 19.8367L12.9101 19.8533C12.8627 19.8606 12.8145 19.8623 12.7666 19.8581L12.6562 19.8484C12.6285 19.846 12.6012 19.8469 12.5742 19.8494L12.4658 19.8591C12.4344 19.862 12.4027 19.8669 12.3711 19.8728L12.2617 19.8933C12.2417 19.8971 12.2193 19.9046 12.1943 19.9177L12.084 19.9753C12.0248 20.0065 11.9587 20.0221 11.8896 20.0144L11.7802 20.0017C11.7397 19.9972 11.6992 19.991 11.6591 19.9831L11.5498 19.9626C11.5089 19.9546 11.4681 19.9444 11.4277 19.9324L11.3193 19.9001C11.2955 19.8931 11.2726 19.8889 11.25 19.8884L11.1406 19.8865C11.0974 19.8856 11.0544 19.8816 11.0117 19.8747L10.9033 19.8572C10.8721 19.8522 10.8409 19.8484 10.8095 19.8464L10.7002 19.8396C10.677 19.8381 10.6526 19.8404 10.6269 19.8455L10.5146 19.8669C10.4331 19.883 10.356 19.8618 10.2929 19.8152L10.1924 19.741C10.181 19.7326 10.1755 19.7322 10.1738 19.7322L10.0644 19.7312C10.0414 19.7311 10.0158 19.734 9.98825 19.741L9.87204 19.7703C9.79585 19.7895 9.71883 19.7791 9.65133 19.7371L9.55173 19.6746C9.55087 19.674 9.55019 19.6738 9.54977 19.6736C9.5494 19.6736 9.54815 19.6734 9.54684 19.6736L9.43063 19.6941C9.36367 19.7059 9.29682 19.6975 9.23434 19.6677L9.13278 19.6199C9.10856 19.6083 9.08407 19.5991 9.05954 19.5935L8.95309 19.5701C8.91487 19.5614 8.87653 19.5508 8.83883 19.5398L8.73337 19.5095C8.71623 19.5045 8.697 19.502 8.67477 19.5037L8.55856 19.5124C8.50678 19.5164 8.45556 19.5135 8.40524 19.5027L8.29684 19.4792C8.24397 19.4678 8.19429 19.4475 8.1484 19.4187L8.0527 19.3591C8.02999 19.3449 8.00613 19.334 7.98239 19.3259L7.87887 19.2898C7.85192 19.2806 7.82363 19.274 7.79489 19.2693L7.68551 19.2507C7.64242 19.2436 7.60007 19.2335 7.55856 19.2205L7.45309 19.1872C7.41021 19.1738 7.36809 19.1569 7.32809 19.1365L7.23044 19.0857C7.18627 19.0631 7.14498 19.035 7.10739 19.0017L7.02145 18.9246C7.0066 18.9114 6.99142 18.9041 6.97653 18.8992L6.87204 18.864C6.83921 18.8532 6.80604 18.8425 6.77243 18.8328L6.66598 18.8025C6.61907 18.7889 6.57425 18.7695 6.53219 18.7449L6.43747 18.6892C6.39795 18.6661 6.36009 18.6394 6.32516 18.6091L6.2402 18.5359C6.23479 18.5312 6.22842 18.5276 6.21676 18.5261L6.10055 18.5115C6.05057 18.5052 6.00254 18.4906 5.95798 18.4675L5.93844 18.4568L5.84372 18.4011C5.80787 18.38 5.77275 18.3576 5.73923 18.3328L5.65133 18.2664C5.63311 18.2528 5.61212 18.2424 5.58981 18.2341L5.48532 18.1951C5.41098 18.1677 5.35735 18.1139 5.32419 18.0476L5.26755 17.9343C5.26077 17.9208 5.25603 17.9188 5.25583 17.9187L5.15719 17.8708C5.1322 17.8586 5.10488 17.8473 5.07516 17.8386L4.96286 17.8064C4.89301 17.7858 4.83528 17.7432 4.79489 17.6824L4.73044 17.5857C4.72206 17.5731 4.71344 17.5649 4.70309 17.5593L4.60446 17.5066C4.5546 17.4801 4.51119 17.4449 4.47555 17.4011L4.40524 17.3142C4.38368 17.2876 4.36153 17.2618 4.33883 17.2371L4.26462 17.156C4.24613 17.1359 4.22594 17.1176 4.20407 17.1013L4.11618 17.0359C4.08193 17.0103 4.04918 16.9825 4.01852 16.9529L3.9404 16.8777C3.91171 16.8499 3.884 16.8205 3.85739 16.7908L3.78415 16.7097C3.75999 16.6827 3.73605 16.6556 3.71188 16.6287L3.63864 16.5476C3.60914 16.5148 3.58253 16.4794 3.55856 16.4421L3.49899 16.3503C3.49765 16.3482 3.49369 16.3424 3.47946 16.3367L3.36423 16.2908C3.29965 16.2649 3.24413 16.2209 3.207 16.158L3.15036 16.0632C3.12314 16.0171 3.10426 15.9666 3.09274 15.9138L3.06735 15.7966C3.06694 15.7948 3.06657 15.7932 3.06637 15.7927L3.06442 15.7917L2.97165 15.7244C2.91842 15.6858 2.87728 15.6342 2.85348 15.572L2.81344 15.4675C2.80258 15.4392 2.79045 15.4121 2.77633 15.3865L2.7236 15.2908C2.71988 15.2841 2.71232 15.2749 2.69528 15.2644L2.58883 15.199C2.53421 15.1653 2.48796 15.1196 2.457 15.0613L2.40524 14.9636C2.3818 14.9194 2.36454 14.8721 2.35348 14.823L2.32907 14.7126C2.31908 14.6683 2.31252 14.6229 2.30954 14.5769L2.30173 14.4607C2.30039 14.44 2.29601 14.423 2.28903 14.4089L2.2402 14.3122C2.21884 14.2693 2.20294 14.2234 2.19235 14.1765L2.16794 14.0701C2.16294 14.0481 2.15473 14.027 2.14352 14.0066L2.09079 13.9099C2.07161 13.875 2.05633 13.8384 2.04489 13.8005L1.96579 13.8289C1.91635 13.8463 1.86482 13.8557 1.81247 13.8581L1.69821 13.864C1.64539 13.8664 1.5931 13.8608 1.54196 13.8474L1.43063 13.8181C1.38676 13.8066 1.34425 13.7912 1.3027 13.7732L1.19821 13.7283C1.16123 13.7123 1.12408 13.6954 1.08786 13.6775L0.984342 13.6267C0.926497 13.5981 0.879267 13.555 0.843717 13.5017L0.778288 13.404C0.771383 13.3937 0.762971 13.3862 0.750944 13.3806L0.642545 13.3298C0.601056 13.3104 0.563715 13.2797 0.538053 13.2371C0.51318 13.1955 0.504174 13.1504 0.502897 13.1091L0.498014 12.9783L0.41403 12.9197C0.355103 12.8788 0.312647 12.8213 0.293913 12.7497L0.265592 12.6423C0.260755 12.6238 0.252437 12.606 0.240202 12.5886L0.174772 12.4949C0.138245 12.4428 0.11631 12.3838 0.111295 12.3201L0.102506 12.2087C0.101092 12.1906 0.096576 12.1712 0.0868813 12.1511L0.0351235 12.0447C0.00674542 11.9858 -0.00495393 11.9219 0.00192037 11.8562L0.0136391 11.7429C0.0185439 11.6963 0.02758 11.6501 0.0409829 11.6052L0.0732094 11.4968C0.0852424 11.4565 0.098925 11.4171 0.114225 11.3787L0.155241 11.2761C0.171114 11.2362 0.189447 11.1971 0.209928 11.1599L0.262663 11.0642C0.269032 11.0525 0.273435 11.0391 0.274381 11.0222L0.280241 10.9089C0.282948 10.8603 0.291393 10.8122 0.304655 10.7654L0.335905 10.656C0.352362 10.5979 0.380904 10.5453 0.421842 10.5007L0.498014 10.4177C0.539613 10.3725 0.590574 10.339 0.647428 10.3171L0.759733 10.2742C0.771407 10.2696 0.775126 10.2647 0.777311 10.2615L0.838834 10.1706C0.859215 10.1402 0.879974 10.1075 0.902311 10.074L0.969694 9.97338L0.980436 9.95971C1.02911 9.89581 1.09925 9.86177 1.1777 9.86108L1.19528 9.86205L1.3193 9.86791L1.40817 9.78393L1.42087 9.77221C1.48428 9.71878 1.56508 9.69904 1.6484 9.72045L1.76462 9.75073C1.77013 9.75214 1.77416 9.75206 1.78122 9.74877L1.89157 9.69701C1.96319 9.66362 2.04241 9.6593 2.11813 9.69018L2.18942 9.71948L2.20407 9.69799C2.22076 9.67311 2.23515 9.64751 2.24704 9.62182L2.29294 9.52319C2.30321 9.50095 2.3112 9.47671 2.31637 9.45092L2.33883 9.34057C2.35304 9.27004 2.38987 9.2103 2.44333 9.16479L2.53317 9.08862C2.53481 9.08722 2.53558 9.08533 2.5361 9.08471L2.53708 9.08373L2.53805 9.0808L2.55661 8.96752C2.56451 8.91841 2.57731 8.87014 2.59665 8.82494L2.64059 8.72436C2.65379 8.6935 2.66616 8.66121 2.6777 8.62866L2.71481 8.52221C2.73773 8.45776 2.77927 8.40527 2.83395 8.36596L2.92965 8.29662C2.9359 8.29211 2.93867 8.28857 2.9404 8.28295L2.9736 8.1726C2.99718 8.096 3.04918 8.03801 3.11813 8.00268L3.22653 7.94701C3.23848 7.94084 3.24229 7.93582 3.24411 7.93237L3.29587 7.83471C3.32212 7.78475 3.35676 7.74066 3.40036 7.70483L3.4863 7.63451C3.48697 7.63401 3.4903 7.63144 3.49313 7.61889L3.52048 7.49682L3.52536 7.48119C3.54795 7.40221 3.60222 7.3409 3.68161 7.3103L3.79489 7.26635C3.81891 7.25709 3.83634 7.24561 3.84958 7.23412L3.93258 7.16283C3.96268 7.13672 3.99423 7.11155 4.02633 7.08764L4.11423 7.02221C4.11608 7.02079 4.12034 7.01609 4.12497 7.0017L4.16403 6.88256C4.18504 6.81733 4.22276 6.75866 4.28122 6.71655L4.37106 6.65209C4.41359 6.62147 4.46057 6.59847 4.51071 6.58178L4.62204 6.54467C4.64844 6.53585 4.67118 6.5242 4.69137 6.51147L4.78219 6.45483C4.78324 6.45302 4.78496 6.44846 4.78708 6.44116L4.82516 6.3103L4.83102 6.29369C4.84499 6.25504 4.86901 6.21615 4.90817 6.18627C4.95324 6.15194 5.00443 6.13965 5.05075 6.1394L5.18551 6.13842C5.19242 6.13837 5.19642 6.13788 5.19821 6.13744L5.27731 6.06616C5.30761 6.0387 5.33935 6.01263 5.37204 5.98803L5.45895 5.9226C5.48898 5.9 5.51936 5.87705 5.54977 5.85522L5.63864 5.79174C5.66786 5.77076 5.69713 5.74956 5.72653 5.72826L5.81637 5.66381C5.85308 5.63722 5.89185 5.61406 5.93258 5.59448L6.03122 5.54662C6.05558 5.53489 6.07918 5.52113 6.10153 5.50463L6.1904 5.43823C6.22631 5.41172 6.26422 5.38819 6.30368 5.36791L6.40133 5.31811C6.45643 5.28987 6.51622 5.27715 6.57712 5.27709H6.69821C6.71827 5.27707 6.73165 5.27304 6.74118 5.2683L6.83883 5.21948C6.8743 5.20151 6.91046 5.18399 6.94723 5.16869L7.04782 5.12768C7.05175 5.126 7.06048 5.12082 7.07223 5.10424L7.14645 4.99877C7.18557 4.94362 7.23824 4.8987 7.30563 4.87475L7.40915 4.83764C7.45211 4.82238 7.49662 4.81167 7.54196 4.80444L7.65329 4.78686C7.66929 4.78426 7.68399 4.77863 7.69821 4.76928L7.79196 4.70678C7.84718 4.67045 7.90987 4.65189 7.97555 4.65112L8.09079 4.65014C8.1223 4.64978 8.15281 4.64695 8.18161 4.64233L8.29001 4.62475C8.32812 4.61862 8.36676 4.61375 8.40524 4.60912L8.51462 4.59545C8.53873 4.59255 8.5621 4.58663 8.58395 4.57787L8.68454 4.53783C8.70695 4.52886 8.73054 4.51628 8.75387 4.49975L8.84958 4.43139C8.88796 4.40419 8.92814 4.38094 8.96969 4.36108L9.07126 4.31225C9.11721 4.29033 9.16568 4.27546 9.21579 4.26733L9.32419 4.24975C9.35907 4.24409 9.39411 4.23777 9.42868 4.23119L9.53708 4.21069C9.59812 4.19907 9.65904 4.20334 9.71774 4.22045L9.83493 4.25463C9.83669 4.25515 9.83803 4.25548 9.83883 4.25561L9.94137 4.20385C9.99641 4.17637 10.0562 4.16282 10.1181 4.16479L10.2295 4.16869C10.2707 4.17005 10.3121 4.17345 10.3535 4.17846L10.4658 4.19213C10.4979 4.19601 10.5297 4.19766 10.5605 4.19799L10.6699 4.19994C10.7 4.20025 10.73 4.19842 10.7597 4.19506L10.8681 4.18237C10.8939 4.17945 10.9201 4.17444 10.9463 4.16576L11.0527 4.12963C11.1045 4.11249 11.1584 4.10487 11.2129 4.10717L11.3222 4.11205C11.3626 4.11376 11.403 4.11682 11.4433 4.12182L11.5527 4.13549C11.5773 4.13854 11.6021 4.13854 11.6259 4.13549L11.7343 4.12182C11.746 4.12025 11.7618 4.11465 11.7832 4.10131L11.8925 4.03393C11.9501 3.99792 12.0174 3.97826 12.0888 3.98608Z" fill="#010820"/>
</svg>
