<svg width="128" height="128" viewBox="0 0 128 128" fill="none" xmlns="http://www.w3.org/2000/svg">
<path d="M63.3223 31.5796C63.6213 31.3927 63.9703 31.2971 64.3447 31.3569L64.6113 31.396L64.8838 31.4409C65.0257 31.4635 65.1662 31.4739 65.3057 31.4741H65.8389C66.1511 31.4747 66.4445 31.565 66.7109 31.7134L66.9727 31.8569L67.1387 31.9517L67.3389 31.8296L67.6172 31.6626L67.9443 31.5239C68.0634 31.494 68.1924 31.4864 68.3281 31.5015C68.4623 31.5166 68.586 31.5535 68.6943 31.6069L68.9834 31.8022L69.2334 32.0298L69.417 32.2017L69.5723 32.1411L69.8506 32.0405C70.1529 31.9337 70.4743 31.9117 70.7949 31.9907L71.0557 32.0522L71.3164 32.1187C71.4826 32.1597 71.6494 32.1991 71.8164 32.2349L72.3389 32.3462C72.5141 32.3837 72.6932 32.4198 72.8672 32.4575L73.1279 32.5132L73.3838 32.5737C73.5532 32.6105 73.7248 32.6448 73.8945 32.6792L74.1553 32.73L74.417 32.7847C74.5367 32.8089 74.6612 32.822 74.7891 32.8188L75.0615 32.8071L75.333 32.8022C75.5573 32.7966 75.7803 32.8104 76 32.8462L76.2617 32.8911L76.5283 32.9351C76.6466 32.9541 76.7732 32.9605 76.9053 32.9517L77.1836 32.9292L77.4609 32.9126C77.8185 32.889 78.1551 32.9888 78.4395 33.1958L78.9053 33.5405C79.0031 33.6114 79.0999 33.6569 79.1895 33.6851L79.4395 33.7632L79.6943 33.8462C79.798 33.8787 79.9119 33.8937 80.0283 33.896L80.5723 33.9077C80.8681 33.9134 81.1511 33.9881 81.4111 34.1294L81.6504 34.2632L81.8945 34.3911C82.0206 34.4596 82.1498 34.5185 82.2783 34.563L82.5283 34.646L82.7783 34.7349C82.904 34.7784 83.0361 34.8145 83.1719 34.8354L83.7061 34.9126C83.8408 34.9333 83.9831 34.9437 84.1338 34.9409L84.7061 34.9292L84.9893 34.9575C85.2679 35.0107 85.5155 35.1486 85.7168 35.3569L85.9219 35.5688L86.1113 35.7681L86.3838 35.7632L86.6719 35.7573L86.9775 35.7847C87.2714 35.8449 87.5273 36.0031 87.7227 36.2407L87.917 36.4741L88.0723 36.6685L88.3164 36.6626L88.6113 36.6519L88.917 36.6743C89.2099 36.7312 89.4683 36.8875 89.667 37.1294L89.8555 37.3569L89.9941 37.5239L90.2393 37.5073L90.5498 37.48L90.8672 37.4907C90.9743 37.5078 91.084 37.5404 91.1895 37.5903C91.4001 37.6905 91.5608 37.8445 91.6777 38.0181L91.8506 38.2739L92.0166 38.5239C92.0754 38.6113 92.1299 38.6561 92.1719 38.6792L92.6387 38.9351C92.6861 38.9608 92.7543 38.9807 92.8555 38.9849L93.4561 39.0073C93.8175 39.022 94.1553 39.1574 94.4219 39.4243L94.8164 39.8188C94.9145 39.917 95.0163 40.0017 95.1221 40.0737L95.5664 40.3735C95.6718 40.4449 95.7874 40.506 95.9111 40.5571L96.4111 40.7681C96.6904 40.8834 96.9323 41.0628 97.1221 41.2964L97.2949 41.5073L97.4668 41.7241C97.5124 41.7802 97.5674 41.82 97.6279 41.8462L97.8779 41.9517L98.1279 42.063C98.3483 42.1585 98.5559 42.2776 98.7441 42.4243L98.9502 42.5903L99.1611 42.7515C99.3069 42.8651 99.452 42.9833 99.5947 43.1021L100.006 43.4458C100.098 43.5222 100.202 43.5857 100.316 43.6411L100.562 43.7632L100.812 43.8853C101.163 44.0572 101.395 44.3506 101.517 44.6958L101.622 44.9849L101.723 45.2739C101.735 45.3096 101.745 45.3293 101.75 45.3354C101.754 45.3398 101.759 45.3387 101.762 45.3403L102.217 45.6294C102.31 45.6875 102.424 45.7374 102.562 45.7798L102.845 45.8687L103.134 45.9575C103.462 46.0591 103.748 46.2555 103.95 46.5522L104.105 46.7798L104.256 47.0015C104.341 47.1277 104.435 47.251 104.533 47.3628L104.889 47.7632C105.049 47.9454 105.181 48.15 105.289 48.3687L105.411 48.6128L105.533 48.8628C105.603 49.0037 105.68 49.1374 105.762 49.2632L105.905 49.4849L106.056 49.7134C106.081 49.7512 106.119 49.7921 106.189 49.8296L106.45 49.9634L106.706 50.0962C106.973 50.2368 107.174 50.4517 107.295 50.7134L107.389 50.9966L107.456 51.2798L107.517 51.563C107.54 51.6669 107.577 51.7418 107.617 51.7964L107.772 52.0132L107.928 52.2241C107.986 52.3038 108.063 52.3798 108.161 52.4517L108.389 52.6187L108.617 52.7905C108.912 53.0073 109.105 53.3099 109.178 53.6685L109.289 54.2241C109.296 54.2603 109.311 54.2768 109.333 54.2964L109.539 54.48L109.75 54.6685C110.032 54.9192 110.188 55.2503 110.217 55.6187L110.239 55.9077L110.25 56.1069L110.483 56.2466L110.762 56.4077C111.117 56.6138 111.371 56.9528 111.411 57.4019L111.439 57.6851L111.461 57.9683C111.47 58.076 111.502 58.1644 111.539 58.2407L111.772 58.7183C111.882 58.9422 111.937 59.1841 111.953 59.4302C112.014 59.43 112.076 59.4333 112.138 59.4409L112.41 59.4741L112.688 59.5073C112.735 59.5129 112.79 59.5049 112.86 59.4741L113.127 59.3569L113.398 59.2407C113.734 59.0928 114.098 59.0693 114.454 59.1958L114.721 59.2905L114.982 59.3853C115.231 59.4741 115.463 59.5993 115.671 59.7632L116.115 60.1187C116.229 60.2087 116.339 60.2774 116.443 60.3296L116.671 60.4409L116.898 60.5571C116.961 60.5885 117.049 60.617 117.171 60.6294L117.76 60.6851C118.079 60.7168 118.38 60.8323 118.638 61.0347L119.071 61.3687C119.347 61.5846 119.522 61.8763 119.61 62.2017L119.766 62.7798C119.802 62.9125 119.847 63.013 119.894 63.0854L120.032 63.2964L120.171 63.5132C120.203 63.5623 120.26 63.6226 120.354 63.6851L120.599 63.8462L120.849 64.0073C121.097 64.1714 121.303 64.3855 121.454 64.646L121.732 65.1235C121.841 65.3123 121.936 65.5089 122.016 65.7124L122.115 65.9741L122.216 66.229C122.321 66.4976 122.361 66.7805 122.344 67.0679L122.326 67.3462L122.31 67.6294C122.299 67.8008 122.297 67.9678 122.299 68.1294L122.305 68.396V68.6685C122.306 68.8457 122.309 68.9685 122.31 69.0347V69.229C122.31 69.2682 122.314 69.3708 122.326 69.5513L122.344 69.8179L122.365 70.0903C122.382 70.3393 122.361 70.5865 122.305 70.8296L122.243 71.0903L122.188 71.3569C122.123 71.6359 121.999 71.8923 121.826 72.1187L121.654 72.3403L121.482 72.5679C121.474 72.5788 121.466 72.5838 121.466 72.5854C121.466 72.5874 121.465 72.5962 121.466 72.6128L121.482 72.896L121.493 73.1851C121.506 73.4352 121.488 73.6848 121.438 73.9292L121.382 74.2075L121.321 74.479C121.257 74.7886 121.115 75.0689 120.898 75.3013L120.71 75.5073L120.521 75.7075C120.354 75.8871 120.161 76.0468 119.954 76.1792L119.487 76.479C119.373 76.5524 119.271 76.6334 119.188 76.7183L119.005 76.9077L118.821 77.0903C118.629 77.2866 118.399 77.4382 118.144 77.5405L117.898 77.6401L117.648 77.7407C117.518 77.793 117.4 77.8567 117.288 77.9243L117.065 78.0571L116.849 78.1851C116.752 78.2435 116.646 78.3264 116.538 78.4292L116.332 78.6294L116.121 78.8296C115.847 79.0914 115.495 79.2327 115.104 79.2124L114.826 79.1958L114.549 79.1851C114.428 79.1786 114.31 79.1872 114.199 79.2124L113.938 79.2739L113.671 79.3296C113.476 79.3737 113.278 79.3903 113.08 79.3794C113.042 79.457 112.997 79.5342 112.939 79.6069L112.756 79.8354L112.578 80.0571C112.505 80.1485 112.458 80.2387 112.428 80.3237L112.339 80.5796L112.25 80.8296C112.175 81.0421 112.077 81.2466 111.961 81.4409L111.822 81.6685L111.689 81.9019C111.628 82.0046 111.578 82.1117 111.545 82.2241L111.473 82.48L111.395 82.7349C111.358 82.8608 111.331 82.9992 111.316 83.146L111.262 83.7134C111.234 83.9953 111.153 84.2663 111.012 84.5132L110.744 84.98C110.585 85.2569 110.356 85.4717 110.089 85.6294L109.822 85.7847L109.578 85.9243L109.55 86.1577L109.506 86.4409C109.453 86.8036 109.279 87.1205 108.989 87.3521L108.767 87.5298L108.55 87.7017C108.53 87.7176 108.519 87.7316 108.512 87.7632L108.444 88.0405L108.384 88.313C108.3 88.6673 108.096 88.9667 107.795 89.1743L107.562 89.3354L107.333 89.4907L107.328 89.5073L107.206 90.0854C107.134 90.4197 106.963 90.7203 106.689 90.9458L106.267 91.2905C106.202 91.3438 106.152 91.4074 106.111 91.4849L105.855 91.9741C105.745 92.1851 105.611 92.3793 105.456 92.5571L105.283 92.7573L105.105 92.9634C104.892 93.2069 104.62 93.3675 104.322 93.4634L103.744 93.6519L103.694 93.6743L103.545 93.9077L103.4 94.1353C103.321 94.2607 103.246 94.3986 103.178 94.5464L102.934 95.0688C102.774 95.4105 102.504 95.6639 102.15 95.7964L101.884 95.896L101.611 95.9966C101.58 96.0083 101.568 96.0199 101.556 96.0405L101.411 96.2798L101.267 96.5239C101.111 96.7809 100.899 96.9921 100.639 97.146L100.405 97.2847L100.178 97.4243C100.108 97.4652 100.044 97.5162 99.9893 97.5903L99.8223 97.8188L99.6611 98.0405C99.5046 98.2538 99.3135 98.4378 99.0947 98.5854L98.6504 98.8853C98.4055 99.0505 98.1279 99.1514 97.8389 99.1958L97.25 99.2847C97.1673 99.2974 97.1254 99.3253 97.1006 99.3462L96.8945 99.5181L96.6943 99.6909C96.6156 99.7573 96.5341 99.8406 96.4609 99.9517L96.2998 100.202L96.1387 100.446C95.9748 100.694 95.7636 100.904 95.5 101.052L95.2666 101.179L95.0283 101.313C94.7949 101.444 94.5433 101.531 94.2783 101.574L93.7109 101.663C93.6296 101.676 93.5724 101.702 93.5283 101.735L93.0947 102.057C92.8565 102.236 92.5864 102.353 92.2949 102.402L91.7393 102.491C91.587 102.516 91.4407 102.553 91.3057 102.596L91.0557 102.679L90.7998 102.763C90.7257 102.787 90.6567 102.826 90.5889 102.885L90.3779 103.063L90.1719 103.247C89.9841 103.411 89.7754 103.548 89.5498 103.652L89.3057 103.763L89.0664 103.874C88.9896 103.909 88.909 103.965 88.8281 104.046L88.4219 104.452C88.1647 104.71 87.8357 104.861 87.4668 104.879L87.1895 104.896L86.9053 104.913C86.8908 104.913 86.8816 104.911 86.8779 104.913C86.8747 104.914 86.8658 104.921 86.8506 104.935L86.6387 105.129L86.4219 105.319C86.1702 105.546 85.8654 105.688 85.5225 105.718L85.2441 105.741L84.9727 105.763C84.8574 105.773 84.7481 105.801 84.6504 105.84L84.4053 105.941L84.1553 106.041C83.8593 106.161 83.5471 106.192 83.2393 106.146L82.9443 106.102L82.6553 106.057C82.5877 106.047 82.5565 106.06 82.5391 106.069L82.2949 106.185L82.0557 106.302C81.95 106.354 81.8429 106.427 81.7334 106.518L81.5059 106.708L81.2832 106.891C80.9571 107.163 80.5551 107.251 80.1504 107.158L79.5615 107.024C79.4438 106.997 79.3477 106.996 79.2725 107.007L79.0117 107.046L78.75 107.09C78.7421 107.095 78.7202 107.111 78.6895 107.146L78.2559 107.635C78.028 107.892 77.7284 108.088 77.3613 108.152L77.0947 108.196L76.833 108.247C76.5936 108.288 76.3492 108.296 76.1055 108.274L75.8281 108.251L75.5557 108.224C75.3946 108.21 75.2343 108.206 75.0781 108.208H74.5332C74.4224 108.209 74.3151 108.225 74.2109 108.257L73.9561 108.34L73.7002 108.418C73.519 108.474 73.334 108.526 73.1504 108.574L72.6279 108.708C72.4799 108.746 72.3324 108.796 72.1836 108.852L71.9219 108.946L71.667 109.046C71.3159 109.179 70.9517 109.16 70.6172 109.03L70.3389 108.924L70.0615 108.813C69.9258 108.76 69.7979 108.732 69.6836 108.718L69.417 108.685L69.1445 108.652C69.0274 108.638 68.915 108.641 68.8057 108.658L68.5391 108.696L68.2783 108.741C68.0471 108.776 67.8118 108.784 67.5781 108.763L67.3115 108.741L67.0449 108.713C66.9088 108.702 66.7715 108.706 66.6387 108.718L66.3779 108.741L66.1113 108.763C65.9584 108.777 65.8048 108.801 65.6504 108.83L65.3838 108.879L65.1221 108.929C65.0236 108.948 64.9122 108.987 64.7891 109.052L64.5225 109.191L64.25 109.335C63.9621 109.487 63.6418 109.561 63.3057 109.524L63.0391 109.491L62.7725 109.463C62.5743 109.441 62.3736 109.412 62.1777 109.374L61.9111 109.319L61.6504 109.268C61.4508 109.229 61.2472 109.177 61.0498 109.119L60.7891 109.041L60.5225 108.963C60.4065 108.929 60.2939 108.91 60.1836 108.908L59.6504 108.896C59.4402 108.892 59.2304 108.874 59.0225 108.84L58.7617 108.802L58.4941 108.757C58.3414 108.733 58.1869 108.717 58.0332 108.708L57.7666 108.691L57.5059 108.674C57.3928 108.667 57.2702 108.671 57.1445 108.696L56.8721 108.751L56.6006 108.802C56.2028 108.881 55.8244 108.779 55.5166 108.552L55.2725 108.369L55.0283 108.191C54.9685 108.147 54.9404 108.146 54.9336 108.146H54.667L54.4004 108.141C54.2877 108.14 54.1637 108.157 54.0283 108.191L53.4609 108.335C53.0903 108.428 52.7171 108.373 52.3887 108.168L52.1445 108.018L51.9004 107.863C51.8949 107.859 51.8897 107.857 51.8887 107.857C51.8866 107.857 51.8834 107.862 51.8779 107.863L51.3115 107.963C50.9847 108.021 50.6554 107.981 50.3506 107.835L50.1055 107.718L49.8555 107.596C49.7379 107.54 49.6191 107.501 49.5 107.474L48.9775 107.352C48.7913 107.31 48.6055 107.261 48.4219 107.208L47.9111 107.063C47.8275 107.039 47.7305 107.026 47.6221 107.035L47.3447 107.057L47.0615 107.08C46.8093 107.099 46.5567 107.082 46.3115 107.03L46.0449 106.974L45.7832 106.913C45.5249 106.857 45.2798 106.759 45.0557 106.619L44.8223 106.474L44.5889 106.324C44.4786 106.255 44.3652 106.202 44.25 106.163L43.9941 106.074L43.7441 105.991C43.6127 105.946 43.4731 105.908 43.333 105.885L42.7998 105.796C42.589 105.761 42.3807 105.716 42.1777 105.652L41.667 105.485C41.4578 105.419 41.2508 105.341 41.0557 105.241L40.5781 104.997C40.3637 104.887 40.1661 104.747 39.9834 104.585L39.5615 104.208C39.489 104.143 39.4116 104.104 39.3389 104.08L39.0889 103.997L38.833 103.913C38.6724 103.86 38.5093 103.811 38.3447 103.763L38.083 103.685L37.8281 103.613C37.5991 103.546 37.3772 103.45 37.1719 103.33L36.9395 103.196L36.7109 103.063C36.5184 102.95 36.3372 102.816 36.167 102.668L35.9609 102.491L35.75 102.313C35.7238 102.29 35.6946 102.27 35.6387 102.263L35.3506 102.23L35.0664 102.191C34.7879 102.156 34.5211 102.072 34.2783 101.929L34.0498 101.791L33.8164 101.658C33.641 101.554 33.4697 101.44 33.3057 101.319L33.0947 101.158L32.8779 100.997C32.789 100.931 32.687 100.88 32.5781 100.84L32.0664 100.652C31.704 100.518 31.4449 100.252 31.2832 99.9292L31.1445 99.6519L31.0059 99.3794C30.9753 99.3183 30.9541 99.3041 30.9502 99.3022L30.7061 99.1851L30.4668 99.0688C30.3449 99.0089 30.2114 98.9551 30.0664 98.9126L29.7949 98.8354L29.5225 98.7515C29.1806 98.6513 28.8975 98.4438 28.7002 98.146L28.5449 97.9126L28.3887 97.6743C28.3475 97.6126 28.3009 97.5735 28.25 97.5464L27.7725 97.2905C27.5285 97.1608 27.3128 96.9885 27.1387 96.7739L26.9727 96.563L26.7998 96.3521C26.6954 96.2235 26.5874 96.0999 26.4775 95.98L26.2949 95.7798L26.1113 95.5854C26.0211 95.4871 25.9231 95.3985 25.8164 95.3188L25.6055 95.1577L25.3887 94.9966C25.2218 94.8722 25.0664 94.7347 24.917 94.5903L24.7227 94.4077L24.5332 94.2241C24.3935 94.089 24.2576 93.947 24.1279 93.8022L23.9502 93.6021L23.7725 93.4077C23.6548 93.2763 23.5347 93.1442 23.417 93.0132L23.0615 92.6128C22.9179 92.4528 22.7838 92.2837 22.667 92.1021L22.5225 91.8735L22.3779 91.6519C22.3714 91.6417 22.3567 91.613 22.2891 91.5854L21.7227 91.3628C21.4079 91.2366 21.1371 91.02 20.9561 90.7134L20.8164 90.48L20.6836 90.2515C20.5511 90.0269 20.4566 89.7809 20.4004 89.5239L20.3389 89.2349L20.2783 88.9517C20.2765 88.9434 20.2736 88.938 20.2725 88.9351C20.2722 88.9348 20.2665 88.9326 20.2617 88.9292L19.8057 88.5962C19.5466 88.4085 19.3495 88.1593 19.2334 87.8569L19.1338 87.6021L19.0391 87.3462C18.9861 87.208 18.9243 87.0767 18.8555 86.9517L18.6006 86.4849C18.5825 86.4521 18.5452 86.404 18.4609 86.3521L18.2002 86.1958L17.9395 86.0347C17.673 85.8705 17.4508 85.6474 17.2998 85.3628L17.0449 84.8853C16.9308 84.6697 16.8488 84.4407 16.7949 84.2017L16.7334 83.9351L16.6719 83.6626C16.6233 83.4464 16.5927 83.2257 16.5781 83.0015L16.5615 82.7183L16.5391 82.4351C16.5325 82.3344 16.5114 82.2534 16.4775 82.1851L16.3613 81.9458L16.2393 81.7075C16.1357 81.4988 16.0574 81.2798 16.0059 81.0522L15.9502 80.7905L15.8887 80.5298C15.8643 80.4225 15.8271 80.3176 15.7725 80.2183L15.6387 79.9849L15.5117 79.7466C15.4184 79.5768 15.3431 79.3993 15.2871 79.2153L15.166 79.2563L14.9053 79.3501C14.6638 79.4354 14.411 79.4828 14.1553 79.4946L13.877 79.5112L13.5996 79.5229C13.3416 79.5349 13.0828 79.5105 12.833 79.4448L12.5664 79.3726L12.2939 79.3003C12.0793 79.2438 11.8693 79.1715 11.666 79.0835L11.1553 78.8618C10.9745 78.7835 10.7933 78.6993 10.6162 78.6118L10.1162 78.3667C9.83388 78.2271 9.60121 78.0213 9.42773 77.7612L9.27148 77.5229L9.11035 77.2778C9.07692 77.2282 9.0355 77.1945 8.97754 77.1675L8.71582 77.0454L8.44922 76.9224C8.24612 76.8277 8.06402 76.6756 7.93848 76.4673C7.81731 76.265 7.77293 76.0465 7.7666 75.8452L7.75488 75.5112L7.74414 75.2007L7.56641 75.0835L7.33301 74.9224C7.0454 74.7228 6.83541 74.4385 6.74414 74.0894L6.61035 73.5669C6.58696 73.4776 6.54702 73.3903 6.48828 73.3062L6.32715 73.0786L6.16602 72.8452C5.9884 72.5918 5.87992 72.305 5.85547 71.9946L5.83301 71.7231L5.81641 71.4507C5.80954 71.3628 5.7852 71.2697 5.73828 71.1724L5.61035 70.9116L5.4834 70.6558C5.3444 70.3683 5.28865 70.0548 5.32227 69.7339L5.37695 69.1782C5.40086 68.9514 5.45148 68.7294 5.5166 68.5112L5.67188 67.978C5.73023 67.7828 5.79797 67.5921 5.87207 67.4058L5.97168 67.1509L6.07227 66.9009C6.14968 66.7064 6.23897 66.5149 6.33887 66.3335L6.46582 66.106L6.59375 65.8726C6.62505 65.8157 6.64448 65.7496 6.64941 65.6675L6.68262 65.1118C6.69582 64.8748 6.73512 64.6401 6.7998 64.4116L6.87695 64.145L6.94922 63.8784C7.02937 63.5953 7.17278 63.3398 7.37207 63.1226L7.55469 62.9175L7.74414 62.7173C7.94708 62.4966 8.19427 62.3347 8.47168 62.228L9.0166 62.0171C9.07481 61.9947 9.0947 61.9716 9.10547 61.9556L9.40527 61.5112C9.50459 61.363 9.60698 61.2028 9.71582 61.0396L9.88281 60.7954L10.0439 60.5503L10.2607 60.3003C10.5007 60.088 10.8111 59.9895 11.1436 60.0063L11.4443 60.0171L11.75 60.0337H11.7549L11.9658 59.8286L12.1826 59.6226L12.4385 59.4341C12.6202 59.3302 12.8222 59.2777 13.0332 59.2778L13.3555 59.3169L13.9219 59.4614C13.9484 59.4683 13.9663 59.4711 14 59.4556L14.5439 59.2007C14.8056 59.0791 15.0864 59.0392 15.3662 59.0894L15.6436 59.1675L15.9053 59.2729L15.9951 59.3101L16.0664 59.2075C16.148 59.0859 16.2203 58.9611 16.2783 58.8354L16.3887 58.5903L16.5 58.3521C16.5499 58.244 16.5861 58.1267 16.6113 58.0015L16.667 57.73L16.7168 57.4634C16.7858 57.1195 16.9673 56.829 17.2275 56.6069L17.4502 56.4185L17.667 56.23C17.6738 56.2242 17.6809 56.2213 17.6836 56.2183L17.6895 56.2134V56.2075C17.6901 56.2055 17.6934 56.2018 17.6943 56.1958L17.7832 55.6411C17.8216 55.4026 17.8838 55.1712 17.9775 54.9517L18.0889 54.7017L18.1943 54.4575C18.2587 54.307 18.3158 54.1495 18.3721 53.9907L18.4668 53.7349L18.5557 53.4741C18.6675 53.1585 18.8708 52.8997 19.1387 52.7075L19.6055 52.3735C19.6356 52.3517 19.6469 52.3342 19.6553 52.3071L19.7334 52.0347L19.8164 51.7681L19.9277 51.5015C20.0626 51.2569 20.2705 51.07 20.5225 50.9409L20.7832 50.8022L21.0498 50.6685C21.107 50.6392 21.1246 50.6131 21.1338 50.5962L21.3887 50.1187C21.5167 49.875 21.6877 49.6597 21.9004 49.4849L22.1113 49.313L22.3164 49.1411C22.3183 49.1396 22.3362 49.1307 22.3506 49.0688L22.417 48.7681L22.4893 48.4741L22.5889 48.1743C22.7253 47.8953 22.9568 47.6769 23.2666 47.5571L23.8223 47.3462C23.9395 47.301 24.0302 47.247 24.0947 47.1909L24.2949 47.0181L24.4941 46.8403C24.6409 46.713 24.7936 46.5908 24.9502 46.4741L25.167 46.313L25.3779 46.1577C25.3857 46.1519 25.4098 46.1307 25.4336 46.0571L25.5283 45.7681L25.6221 45.4741C25.7243 45.1567 25.9104 44.8738 26.1943 44.6685L26.417 44.5073L26.6338 44.3521C26.8412 44.2027 27.0719 44.0887 27.3164 44.0073L27.583 43.9185L27.8555 43.8237C27.9836 43.781 28.0962 43.73 28.1943 43.6685L28.4219 43.5239L28.6338 43.3911C28.6371 43.3861 28.6485 43.3668 28.6611 43.3237L28.7559 43.0015L28.8506 42.6851L28.9893 42.3628C29.0545 42.2592 29.1412 42.163 29.25 42.0796C29.47 41.9117 29.724 41.8532 29.9502 41.8521L30.2783 41.8462H30.6055C30.6328 41.846 30.6506 41.8424 30.6611 41.8403H30.667L30.8555 41.6685L31.0557 41.4907C31.2029 41.3575 31.3578 41.2323 31.5166 41.1128L31.9395 40.7905C32.0859 40.6804 32.2355 40.5698 32.3838 40.4634L32.8164 40.1519C32.9589 40.0495 33.1007 39.9442 33.2441 39.8403L33.4668 39.6851L33.6836 39.5298C33.8624 39.4003 34.0516 39.2863 34.25 39.1909L34.7275 38.9575C34.847 38.9001 34.9627 38.8323 35.0723 38.7515L35.5059 38.4292C35.6811 38.2999 35.869 38.1893 36.0615 38.0903L36.2949 37.9683L36.5332 37.8462C36.8014 37.7084 37.0921 37.6418 37.3887 37.6411H37.9834C38.0814 37.641 38.1478 37.6252 38.1943 37.6021L38.4336 37.48L38.667 37.3628C38.8392 37.2756 39.0159 37.193 39.1943 37.1187L39.4443 37.0132L39.6895 36.9126C39.709 36.904 39.7502 36.88 39.8057 36.8022L39.9893 36.5464L40.1719 36.2847C40.3623 36.0169 40.617 35.7958 40.9443 35.6792L41.2002 35.5903L41.4502 35.5015C41.6602 35.4269 41.8789 35.3707 42.1006 35.3354L42.3721 35.2964L42.6387 35.2515C42.7174 35.239 42.7915 35.2143 42.8613 35.1685L43.0889 35.0132L43.3223 34.8628C43.5914 34.686 43.8967 34.594 44.2168 34.5903H44.4941L44.7783 34.5854C44.9312 34.5836 45.077 34.5688 45.2168 34.5464L45.4834 34.5073L45.75 34.4634C45.9343 34.4338 46.1196 34.4077 46.3057 34.3853L46.5781 34.3521L46.8447 34.3188C46.9615 34.3047 47.0719 34.2771 47.1777 34.2349L47.4277 34.1353L47.6719 34.0347C47.7812 33.9909 47.8979 33.9327 48.0117 33.8521L48.4775 33.5181C48.6644 33.3858 48.8593 33.271 49.0615 33.1743L49.3115 33.0571L49.5557 32.9409C49.7802 32.8336 50.0169 32.758 50.2617 32.7183L50.7949 32.6294C50.964 32.602 51.1323 32.5724 51.2998 32.5405L51.5664 32.4907L51.8281 32.4409C52.1258 32.3843 52.4247 32.4073 52.7109 32.4907L52.9941 32.5737L53.2832 32.6577L53.3057 32.6626L53.5557 32.5347L53.8057 32.4126C54.0743 32.2787 54.3649 32.2084 54.667 32.2183L55.2061 32.2407C55.407 32.2473 55.6097 32.2603 55.8115 32.2847L56.083 32.3188L56.3613 32.3521C56.5175 32.3708 56.6725 32.3778 56.8223 32.3794L57.0889 32.3853H57.3506C57.4986 32.3868 57.6485 32.3794 57.7949 32.3628L58.0615 32.3354L58.3223 32.3071C58.4474 32.293 58.573 32.2604 58.7002 32.2183L58.9609 32.1353L59.2227 32.0464C59.4744 31.9631 59.7352 31.93 60 31.9409L60.5391 31.9634C60.7356 31.9717 60.9317 31.9888 61.1279 32.0132L61.3945 32.0464L61.6611 32.0737C61.781 32.0886 61.9003 32.0886 62.0166 32.0737L62.2783 32.0405L62.5449 32.0073C62.6021 31.9999 62.6837 31.9786 62.7891 31.9126L63.3223 31.5796Z" fill="#FDD7C8"/>
</svg>
