<svg width="128" height="128" viewBox="0 0 128 128" fill="none" xmlns="http://www.w3.org/2000/svg">
<path d="M121.6 69.3289C121.6 74.4345 117.939 78.5734 113.422 78.5734C108.906 78.5734 105.245 74.4345 105.245 69.3289C105.245 64.2234 108.906 60.0845 113.422 60.0845C117.939 60.0845 121.6 64.2234 121.6 69.3289Z" fill="#F3F3F3"/>
<path d="M113.4 59.24C113.736 59.0921 114.1 59.0689 114.456 59.1956L114.723 59.29L114.984 59.3845C115.233 59.4734 115.465 59.5983 115.673 59.7623L116.117 60.1178C116.231 60.2079 116.341 60.2767 116.445 60.3289L116.673 60.44L116.9 60.5567C116.963 60.5881 117.051 60.6166 117.173 60.6289L117.762 60.6845C118.08 60.7162 118.381 60.832 118.639 61.0345L119.073 61.3678C119.348 61.5838 119.523 61.8757 119.612 62.2012L119.767 62.7789C119.803 62.9118 119.848 63.012 119.895 63.0845L120.034 63.2956L120.173 63.5123C120.204 63.5614 120.261 63.6219 120.356 63.6845L120.6 63.8456L120.85 64.0067C121.099 64.1708 121.305 64.385 121.456 64.6456L121.734 65.1234C121.843 65.3123 121.937 65.5087 122.017 65.7123L122.117 65.9734L122.217 66.2289C122.322 66.4977 122.362 66.7803 122.345 67.0678L122.328 67.3456L122.312 67.6289C122.301 67.8004 122.299 67.9673 122.3 68.1289L122.306 68.3956V68.6678C122.308 68.8455 122.311 68.9683 122.312 69.0345V69.2289C122.312 69.2682 122.316 69.3704 122.328 69.5512L122.345 69.8178L122.367 70.09C122.384 70.339 122.362 70.5858 122.306 70.8289L122.245 71.09L122.189 71.3567C122.125 71.6357 122.001 71.8915 121.828 72.1178L121.656 72.34L121.484 72.5678C121.475 72.5788 121.468 72.5829 121.467 72.5845C121.467 72.585 121.466 72.594 121.467 72.6123L121.484 72.8956L121.495 73.1845C121.507 73.4347 121.49 73.6845 121.439 73.9289L121.384 74.2067L121.323 74.4789C121.258 74.7885 121.117 75.0688 120.9 75.3012L120.712 75.5067L120.523 75.7067C120.355 75.8863 120.163 76.0465 119.956 76.1789L119.489 76.4789C119.375 76.5523 119.273 76.6329 119.189 76.7178L119.006 76.9067L118.823 77.09C118.63 77.2864 118.4 77.4377 118.145 77.54L117.9 77.64L117.65 77.74C117.52 77.7924 117.401 77.8557 117.289 77.9234L117.067 78.0567L116.85 78.1845C116.754 78.243 116.647 78.326 116.539 78.4289L116.334 78.6289L116.123 78.8289C115.849 79.0908 115.496 79.2326 115.106 79.2123L114.828 79.1956L114.55 79.1845C114.43 79.178 114.312 79.187 114.2 79.2123L113.939 79.2734L113.673 79.3289C113.408 79.3891 113.135 79.3998 112.867 79.3567L112.6 79.3123L112.334 79.2734C112.182 79.249 112.026 79.2323 111.867 79.2234L111.312 79.19C111.058 79.1759 110.811 79.1265 110.573 79.04L110.05 78.8512C109.715 78.729 109.456 78.4979 109.273 78.2067L108.95 77.6956C108.876 77.5779 108.805 77.4951 108.739 77.44L108.539 77.2789L108.345 77.1123C108.207 76.9967 108.068 76.8772 107.934 76.7567L107.745 76.5845L107.55 76.4123C107.504 76.3709 107.426 76.3207 107.295 76.2734L106.995 76.1623L106.695 76.0567C106.49 75.9828 106.285 75.8526 106.134 75.64C105.982 75.4264 105.929 75.1871 105.928 74.9678L105.923 74.6512V74.34C105.922 74.2264 105.9 74.1647 105.884 74.1345L105.756 73.9012L105.634 73.6734C105.546 73.5136 105.457 73.3499 105.373 73.1845L105.256 72.9456L105.134 72.7123C105.068 72.5828 104.989 72.445 104.895 72.3067L104.734 72.0678L104.567 71.8234C104.33 71.4732 104.279 71.0658 104.412 70.6734L104.512 70.39L104.606 70.1067C104.62 70.0662 104.618 70.0503 104.612 70.0345L104.506 69.7678L104.406 69.5012C104.244 69.0782 104.326 68.655 104.573 68.3123L104.75 68.0623L104.912 67.8456L104.834 67.6123L104.745 67.3289C104.684 67.1327 104.664 66.9104 104.717 66.6845C104.771 66.4578 104.89 66.266 105.034 66.1178L105.245 65.9067L105.45 65.69L105.462 65.6789V65.4012L105.467 65.1123C105.471 64.771 105.579 64.4494 105.8 64.1789L106.145 63.7567C106.265 63.6101 106.388 63.467 106.512 63.3289L106.689 63.1345L106.862 62.94C107.001 62.7851 107.153 62.64 107.312 62.5067L107.506 62.34L107.706 62.1734C107.737 62.1476 107.78 62.0996 107.817 62.0067L108.039 61.4512C108.177 61.1073 108.424 60.8252 108.784 60.6734L109.039 60.5678L109.289 60.4623C109.49 60.3775 109.697 60.3088 109.906 60.2567L110.167 60.19L110.428 60.1289C110.513 60.1078 110.599 60.0657 110.684 60.0067L110.912 59.8512L111.139 59.69C111.434 59.4835 111.78 59.396 112.139 59.44L112.412 59.4734L112.689 59.5067C112.737 59.5123 112.792 59.5042 112.862 59.4734L113.128 59.3567L113.4 59.24ZM113.973 60.54L113.7 60.6567L113.434 60.7789C113.145 60.9061 112.835 60.9564 112.517 60.9178L112.239 60.8845L111.967 60.8512H111.956L111.5 61.1734C111.279 61.3281 111.034 61.4416 110.773 61.5067L110.512 61.5734L110.25 61.6345C110.114 61.6684 109.98 61.7167 109.845 61.7734L109.589 61.8789L109.356 61.9734V61.9789L109.134 62.5345C109.023 62.811 108.857 63.0595 108.623 63.2567L108.423 63.4234L108.228 63.5956C108.121 63.6857 108.018 63.7837 107.923 63.89L107.745 64.0845L107.573 64.2789C107.463 64.4017 107.353 64.5307 107.245 64.6623L107.073 64.8734L106.9 65.0789C106.894 65.0869 106.89 65.094 106.889 65.0956C106.888 65.1003 106.889 65.1115 106.889 65.1289L106.884 65.4123V65.6956C106.88 66.0773 106.731 66.418 106.473 66.6845L106.139 67.0178L106.195 67.19L106.284 67.4789C106.411 67.8901 106.334 68.2995 106.089 68.64L105.906 68.89L105.762 69.0789L105.834 69.2623L105.939 69.5289C106.069 69.8689 106.07 70.2249 105.956 70.5623L105.856 70.8456L105.778 71.0734L105.906 71.2678L106.073 71.5067C106.197 71.6903 106.305 71.88 106.4 72.0678L106.523 72.3067L106.645 72.54C106.722 72.6919 106.798 72.8441 106.878 72.99L107.006 73.2178L107.128 73.4456C107.279 73.721 107.343 74.0252 107.345 74.3289V74.7789L107.478 74.8289L107.778 74.9345C108.044 75.0303 108.291 75.1686 108.5 75.3567L108.695 75.5289L108.884 75.7012C109.006 75.8109 109.131 75.9182 109.256 76.0234L109.456 76.19L109.65 76.3512C109.848 76.5165 110.016 76.7173 110.156 76.94L110.478 77.4512C110.509 77.5008 110.529 77.5084 110.539 77.5123L110.8 77.6067L111.056 77.7012C111.163 77.7401 111.275 77.7612 111.389 77.7678L111.945 77.8012C112.153 77.8128 112.359 77.8352 112.562 77.8678L112.828 77.9123L113.095 77.9512C113.182 77.9652 113.268 77.9655 113.356 77.9456L113.889 77.8234C114.13 77.7689 114.375 77.7493 114.623 77.7623L114.9 77.7789L115.15 77.7845L115.35 77.6012L115.562 77.4012C115.734 77.236 115.915 77.0866 116.112 76.9678L116.334 76.84L116.55 76.7067C116.731 76.5973 116.923 76.4979 117.123 76.4178L117.373 76.3234L117.617 76.2234C117.692 76.1933 117.753 76.1497 117.806 76.0956L117.989 75.9067L118.178 75.7178C118.34 75.5529 118.524 75.4059 118.723 75.2789L119.189 74.9789C119.296 74.9109 119.393 74.8314 119.478 74.74L119.862 74.3345C119.898 74.2955 119.921 74.2495 119.934 74.19L119.989 73.9123L120.045 73.64C120.071 73.5162 120.084 73.387 120.078 73.2567L120.062 72.9678L120.045 72.6845C120.027 72.3274 120.132 71.9865 120.35 71.7012L120.523 71.4789L120.695 71.2512C120.752 71.1771 120.784 71.1056 120.8 71.0345L120.923 70.5123C120.947 70.4057 120.953 70.2943 120.945 70.1845L120.928 69.9178L120.912 69.6456C120.899 69.4694 120.89 69.3247 120.889 69.2345V69.04C120.889 68.9767 120.886 68.8559 120.884 68.6789V68.4123L120.878 68.1456C120.876 67.9497 120.883 67.7481 120.895 67.5456L120.912 67.2623L120.928 66.9845C120.933 66.8979 120.918 66.8192 120.889 66.7456L120.689 66.2345C120.635 66.0966 120.574 65.9616 120.5 65.8345L120.223 65.3567C120.191 65.3023 120.145 65.2472 120.067 65.1956L119.817 65.0345L119.573 64.8678C119.339 64.7135 119.132 64.5221 118.978 64.2845L118.839 64.0678L118.7 63.8567C118.562 63.6424 118.463 63.4028 118.395 63.1512L118.239 62.5734C118.224 62.5166 118.206 62.4991 118.195 62.49L117.978 62.3234L117.762 62.1512C117.733 62.1294 117.695 62.1083 117.623 62.1012L117.034 62.0456C116.765 62.0188 116.502 61.9498 116.262 61.8289L116.034 61.7123L115.806 61.6012C115.606 61.501 115.415 61.3727 115.234 61.2289L115.012 61.0567L114.789 60.8789C114.702 60.8101 114.607 60.7596 114.506 60.7234L114.245 60.6289L113.978 60.5345L113.973 60.54Z" fill="#010820"/>
<path d="M22.755 69.3289C22.755 74.4345 19.0937 78.5734 14.5772 78.5734C10.0607 78.5734 6.39941 74.4345 6.39941 69.3289C6.39941 64.2234 10.0607 60.0845 14.5772 60.0845C19.0937 60.0845 22.755 64.2234 22.755 69.3289Z" fill="#F3F3F3"/>
<path d="M15.3665 59.09L15.6443 59.1678L15.9054 59.2733L16.172 59.3845C16.347 59.4558 16.5169 59.5273 16.6831 59.5956L17.1831 59.7956C17.3303 59.856 17.4804 59.9143 17.6331 59.9622L17.8942 60.04L18.1498 60.1233C18.3772 60.1947 18.5961 60.2939 18.7998 60.4178L19.0331 60.5567L19.2609 60.7011C19.5551 60.8801 19.7655 61.1387 19.8942 61.4456L20.0109 61.7178L20.122 61.99C20.1398 62.0325 20.154 62.0364 20.1609 62.04L20.4054 62.1733L20.6442 62.3011C20.8631 62.4184 21.0659 62.5624 21.2442 62.7345L21.6331 63.1122C21.7783 63.2523 21.9202 63.4018 22.0554 63.5567L22.2387 63.7678L22.4276 63.9789C22.6394 64.2217 22.7729 64.5112 22.822 64.8289L22.8609 65.1067L22.9054 65.39C22.9256 65.5197 22.9588 65.6398 23.0054 65.7511L23.2165 66.2511C23.3237 66.5072 23.3788 66.7792 23.3776 67.0567V67.3345L23.372 67.6067C23.3712 67.7707 23.3764 67.9331 23.3887 68.09L23.4109 68.3567L23.4331 68.6178C23.4468 68.7922 23.4585 68.9322 23.4609 69.0178V69.2122C23.4644 69.3422 23.4412 69.4631 23.422 69.54C23.3998 69.6286 23.3677 69.7257 23.3331 69.8233L23.2442 70.0845L23.1498 70.34V70.3511C23.1499 70.3553 23.1504 70.3719 23.1609 70.4011L23.2665 70.69L23.372 70.9733C23.523 71.386 23.462 71.8237 23.1776 72.1789L22.9942 72.4067L22.8165 72.6289L22.8554 72.9345L22.8942 73.2345C22.9225 73.4546 22.8984 73.6954 22.7776 73.9233C22.6586 74.1478 22.4795 74.3042 22.2942 74.4067L22.0109 74.5622L21.7665 74.69L21.7442 74.9233L21.7054 75.2178C21.6712 75.5108 21.5798 75.7885 21.422 76.04L21.272 76.2789L21.1276 76.5122C20.9937 76.725 20.8317 76.9171 20.6442 77.0845L20.4331 77.2678L20.2276 77.4511C20.0541 77.606 19.8673 77.7452 19.6665 77.8622L19.1887 78.14C18.9416 78.284 18.6722 78.3688 18.3887 78.4011L18.0998 78.4345L17.8165 78.4678C17.6349 78.4883 17.4625 78.5103 17.2998 78.5345L17.0387 78.5733L16.7831 78.6122C16.6818 78.6273 16.5802 78.6552 16.4831 78.7011L16.2443 78.8178L16.0054 78.9289C15.8225 79.0157 15.6305 79.098 15.4331 79.1678L15.1665 79.2567L14.9054 79.3511C14.6639 79.4364 14.4111 79.4837 14.1554 79.4956L13.8776 79.5122L13.5998 79.5233C13.3418 79.5353 13.083 79.5112 12.8331 79.4456L12.5665 79.3733L12.2943 79.3011C12.0795 79.2447 11.8698 79.1725 11.6665 79.0845L11.1554 78.8622C10.9746 78.7839 10.7936 78.6997 10.6165 78.6122L10.1165 78.3678C9.83405 78.2282 9.6011 78.0223 9.42758 77.7622L9.27203 77.5233L9.11092 77.2789C9.07738 77.2289 9.03587 77.1949 8.97758 77.1678L8.71647 77.0456L8.44981 76.9233C8.2465 76.8286 8.06433 76.6763 7.9387 76.4678C7.81747 76.2654 7.77277 76.0469 7.76647 75.8456L7.75536 75.5122L7.74425 75.2011L7.56647 75.0845L7.33314 74.9233C7.04548 74.7238 6.83553 74.4392 6.74425 74.09L6.61092 73.5678C6.58754 73.4784 6.54751 73.391 6.4887 73.3067L6.32758 73.0789L6.16647 72.8456C5.98886 72.5922 5.87982 72.306 5.85536 71.9956L5.83314 71.7233L5.81647 71.4511C5.8096 71.3632 5.78562 71.2707 5.7387 71.1733L5.61092 70.9122L5.48314 70.6567C5.34413 70.3692 5.28841 70.0554 5.32203 69.7345L5.37758 69.1789C5.40149 68.9521 5.45135 68.7304 5.51647 68.5122L5.67203 67.9789C5.7304 67.7836 5.7979 67.5931 5.87203 67.4067L5.97203 67.1511L6.07203 66.9011C6.14945 66.7066 6.2388 66.5159 6.3387 66.3345L6.46647 66.1067L6.59425 65.8733C6.6256 65.8164 6.6449 65.75 6.64981 65.6678L6.68314 65.1122C6.69635 64.8752 6.73512 64.6407 6.79981 64.4122L6.87758 64.1456L6.94981 63.8789C7.02996 63.5958 7.17273 63.3406 7.37203 63.1233L7.55536 62.9178L7.74425 62.7178C7.9472 62.4971 8.19461 62.3355 8.47203 62.2289L9.01647 62.0178C9.07494 61.9953 9.09458 61.9728 9.10536 61.9567L9.40536 61.5122C9.50481 61.3638 9.60747 61.2035 9.71647 61.04L9.88314 60.7956L10.0443 60.5511L10.2609 60.3011C10.501 60.0886 10.8115 59.9897 11.1443 60.0067L11.4443 60.0178L11.7498 60.0345H11.7554L11.9665 59.8289L12.1831 59.6233L12.4387 59.4345C12.6205 59.3306 12.8222 59.2788 13.0331 59.2789L13.3554 59.3178L13.922 59.4622C13.9486 59.4691 13.9661 59.4722 13.9998 59.4567L14.5443 59.2011C14.8059 59.0795 15.0867 59.0399 15.3665 59.09ZM14.872 60.6178L14.5998 60.7456C14.2735 60.8972 13.918 60.9304 13.5665 60.84L13.2831 60.7678L13.0943 60.7178L12.9443 60.8622L12.7276 61.0678C12.4387 61.3418 12.072 61.4768 11.6776 61.4567L11.372 61.44L11.1665 61.4233L11.0665 61.5845L10.8998 61.8289C10.7906 61.9927 10.6885 62.1521 10.5887 62.3011L10.4387 62.5233L10.2887 62.7511C10.1 63.0322 9.83341 63.228 9.52758 63.3456L8.98314 63.5567C8.89578 63.5903 8.83309 63.6306 8.7887 63.6789L8.60536 63.8789L8.42203 64.0845C8.37516 64.1354 8.33706 64.1905 8.31647 64.2622L8.24425 64.5345L8.16647 64.8011C8.13054 64.9285 8.10716 65.058 8.09981 65.19L8.0887 65.4678L8.07203 65.7456C8.05596 66.0314 7.97767 66.3043 7.8387 66.5567L7.58314 67.0233C7.51241 67.1519 7.45014 67.2885 7.39425 67.4289L7.19425 67.9289C7.13571 68.076 7.07997 68.2279 7.03314 68.3845L6.87758 68.9178C6.83752 69.0519 6.809 69.1886 6.79425 69.3289L6.7387 69.8845C6.734 69.9315 6.73864 69.9768 6.76647 70.0345L6.89425 70.2956L7.01647 70.5511C7.13645 70.7993 7.21168 71.0655 7.23314 71.34L7.27758 71.8845C7.28167 71.9346 7.29347 71.9796 7.32758 72.0289L7.4887 72.2567L7.64981 72.49C7.80329 72.7089 7.91552 72.9483 7.98314 73.2067L8.05536 73.4678L8.12203 73.7289V73.7345C8.12479 73.7371 8.1351 73.7448 8.14425 73.7511L8.37758 73.9178L8.61647 74.0789C8.98851 74.3373 9.15327 74.7295 9.16647 75.1345L9.17758 75.4678L9.18314 75.6956L9.31647 75.7567L9.57758 75.8789C9.87032 76.0152 10.1146 76.2209 10.2943 76.49L10.4554 76.7289L10.6109 76.9733C10.6507 77.0328 10.6987 77.0648 10.7498 77.09L10.9998 77.2178L11.2498 77.34C11.4054 77.4168 11.5634 77.488 11.722 77.5567L12.2331 77.7789C12.3697 77.838 12.5105 77.8852 12.6554 77.9233L12.9276 77.9956L13.1943 78.0678C13.3047 78.0968 13.4189 78.1064 13.5331 78.1011L14.0887 78.0789C14.2044 78.0735 14.3178 78.0508 14.4276 78.0122L14.6943 77.9178L14.9554 77.8233C15.1094 77.769 15.2577 77.7104 15.3943 77.6456L15.6331 77.5345L15.872 77.4178C16.0944 77.3123 16.3291 77.2427 16.572 77.2067L16.8276 77.1678L17.0887 77.1289C17.2695 77.1021 17.4585 77.0789 17.6554 77.0567L17.9442 77.0233L18.2276 76.99C18.3221 76.9793 18.4014 76.9532 18.472 76.9122L18.9498 76.6345C19.068 76.5656 19.1807 76.4814 19.2831 76.39L19.6942 76.0233C19.7821 75.9449 19.8591 75.8564 19.922 75.7567L20.072 75.5178L20.2165 75.2845C20.2545 75.224 20.2829 75.1496 20.2942 75.0511L20.3609 74.4622C20.4125 74.0157 20.6749 73.6771 21.0442 73.4733L21.322 73.3178L21.4609 73.2345L21.4498 73.1122L21.4109 72.8122C21.3616 72.4284 21.4572 72.0555 21.7054 71.7456L21.8831 71.5178L21.9998 71.3678L21.9276 71.1789L21.8276 70.89C21.7081 70.5628 21.6889 70.2125 21.8109 69.8678L21.8998 69.6067L21.9942 69.3511C22.019 69.2813 22.0309 69.231 22.0387 69.2011V69.0567C22.0374 69.0125 22.0304 68.9066 22.0165 68.7289L21.9942 68.4678L21.972 68.2011L21.9498 67.6011L21.9554 67.3233V67.0511C21.9558 66.9625 21.9382 66.8796 21.9054 66.8011L21.6942 66.3011C21.6013 66.0791 21.537 65.8469 21.4998 65.6067L21.4554 65.3233L21.4165 65.0456C21.4082 64.9929 21.3877 64.9554 21.3554 64.9178L21.172 64.7067L20.9831 64.4956C20.8743 64.3708 20.7646 64.251 20.6498 64.14L20.2554 63.7567C20.1723 63.6767 20.0762 63.6125 19.972 63.5567L19.7331 63.4233L19.4887 63.2956C19.1721 63.1259 18.9453 62.8602 18.8109 62.54L18.6998 62.2678L18.5831 61.9956C18.5594 61.9389 18.537 61.9214 18.522 61.9122L18.2887 61.7733L18.0609 61.6289C17.9558 61.565 17.8444 61.5157 17.7276 61.4789L17.4665 61.4011L17.2109 61.3178C17.0193 61.2577 16.8294 61.1882 16.6443 61.1122L16.3943 61.0122L16.1443 60.9067C15.9788 60.8388 15.8075 60.7723 15.6331 60.7011L15.372 60.5956L15.1276 60.4956L14.872 60.6178Z" fill="#010820"/>
<path d="M113.423 70.4185C113.423 91.4298 91.2955 108.463 64.0003 108.463C36.7052 108.463 14.5781 91.4298 14.5781 70.4185C14.5781 49.4071 36.7052 32.374 64.0003 32.374C91.2955 32.374 113.423 49.4071 113.423 70.4185Z" fill="#F3F3F3"/>
<path d="M63.3222 31.5799C63.6212 31.393 63.97 31.2978 64.3444 31.3577L64.6111 31.3965L64.8833 31.441C65.0254 31.4636 65.166 31.4741 65.3055 31.4743H65.8389C66.1511 31.4749 66.4446 31.5649 66.7111 31.7132L66.9722 31.8577L67.1389 31.9521L67.3389 31.8299L67.6166 31.6632L67.9444 31.5243C68.0635 31.4944 68.1921 31.4871 68.3278 31.5021C68.4622 31.5172 68.586 31.5541 68.6944 31.6077L68.9833 31.8021L69.2333 32.0299L69.4166 32.2021L69.5722 32.141L69.85 32.041C70.1524 31.934 70.4736 31.9119 70.7944 31.991L71.0555 32.0521L71.3166 32.1188C71.483 32.1598 71.6495 32.1996 71.8166 32.2354L72.3389 32.3465C72.5141 32.3841 72.6926 32.4199 72.8666 32.4577L73.1278 32.5132L73.3833 32.5743C73.5529 32.6111 73.7245 32.6455 73.8944 32.6799L74.1555 32.7299L74.4166 32.7854C74.5364 32.8097 74.661 32.8219 74.7889 32.8188L75.0611 32.8077L75.3333 32.8021C75.5576 32.7964 75.7802 32.8108 76 32.8465L76.2611 32.891L76.5278 32.9354C76.6462 32.9545 76.7732 32.961 76.9055 32.9521L77.1833 32.9299L77.4611 32.9132C77.8187 32.8896 78.1545 32.9896 78.4389 33.1965L78.9055 33.541C79.0033 33.6119 79.0993 33.6573 79.1889 33.6854L79.4389 33.7632L79.6944 33.8465C79.7981 33.8791 79.9113 33.8943 80.0278 33.8965L80.5722 33.9077C80.8681 33.9134 81.151 33.9886 81.4111 34.1299L81.65 34.2632L81.8944 34.391C82.0206 34.4595 82.1491 34.5187 82.2778 34.5632L82.5278 34.6465L82.7778 34.7354C82.9037 34.779 83.0362 34.8145 83.1722 34.8354L83.7055 34.9132C83.8404 34.9339 83.9825 34.9438 84.1333 34.941L84.7055 34.9299L84.9889 34.9577C85.2677 35.0108 85.5153 35.1491 85.7166 35.3577L85.9222 35.5688L86.1111 35.7688L86.3833 35.7632L86.6722 35.7577L86.9778 35.7854C87.2717 35.8456 87.5268 36.0034 87.7222 36.241L87.9166 36.4743L88.0722 36.6688L88.3166 36.6632L88.6111 36.6521L88.9166 36.6743C89.2096 36.7311 89.4679 36.8879 89.6666 37.1299L89.8555 37.3577L89.9944 37.5243L90.2389 37.5077L90.55 37.4799L90.8666 37.491C90.9739 37.5081 91.0833 37.541 91.1889 37.591C91.3998 37.6912 91.5608 37.845 91.6778 38.0188L91.85 38.2743L92.0166 38.5243C92.0756 38.612 92.1301 38.6568 92.1722 38.6799L92.6389 38.9354C92.6864 38.9612 92.7543 38.9813 92.8555 38.9854L93.4555 39.0077C93.8171 39.0223 94.1555 39.1572 94.4222 39.4243L94.8166 39.8188C94.9148 39.917 95.0163 40.0022 95.1222 40.0743L95.5666 40.3743C95.6721 40.4457 95.7873 40.5065 95.9111 40.5577L96.4111 40.7688C96.6904 40.8841 96.9324 41.0629 97.1222 41.2965L97.2944 41.5077L97.4666 41.7243C97.5123 41.7805 97.5672 41.8203 97.6278 41.8465L97.8778 41.9521L98.1278 42.0632C98.3482 42.1587 98.5561 42.2775 98.7444 42.4243L98.95 42.591L99.1611 42.7521C99.3068 42.8657 99.4517 42.9833 99.5944 43.1021L100.006 43.4465C100.097 43.523 100.202 43.5855 100.317 43.641L100.561 43.7632L100.811 43.8854C101.163 44.0574 101.395 44.351 101.517 44.6965L101.622 44.9854L101.722 45.2743C101.735 45.31 101.745 45.3293 101.75 45.3354C101.754 45.34 101.758 45.3393 101.761 45.341L102.217 45.6299C102.31 45.688 102.424 45.7374 102.561 45.7799L102.844 45.8688L103.133 45.9577C103.462 46.0592 103.748 46.2553 103.95 46.5521L104.106 46.7799L104.256 47.0021C104.341 47.1284 104.435 47.2513 104.533 47.3632L104.889 47.7632C105.049 47.9454 105.18 48.1501 105.289 48.3688L105.411 48.6132L105.533 48.8632C105.603 49.0041 105.679 49.1375 105.761 49.2632L105.906 49.4854L106.056 49.7132C106.081 49.7511 106.118 49.7923 106.189 49.8299L106.45 49.9632L106.706 50.0965C106.973 50.2372 107.174 50.4514 107.294 50.7132L107.389 50.9965L107.456 51.2799L107.517 51.5632C107.54 51.6671 107.577 51.742 107.617 51.7965L107.772 52.0132L107.928 52.2243C107.986 52.304 108.063 52.3802 108.161 52.4521L108.389 52.6188L108.617 52.791C108.912 53.0077 109.105 53.3101 109.178 53.6688L109.289 54.2243C109.296 54.2607 109.311 54.2769 109.333 54.2965L109.539 54.4799L109.75 54.6688C110.032 54.9195 110.188 55.2504 110.217 55.6188L110.239 55.9077L110.25 56.1077L110.483 56.2465L110.761 56.4077C111.116 56.6137 111.371 56.9528 111.411 57.4021L111.439 57.6854L111.461 57.9688C111.471 58.0765 111.502 58.1646 111.539 58.241L111.772 58.7188C111.9 58.9795 111.959 59.2641 111.961 59.5521V60.0799L112.183 60.2799L112.411 60.4799C112.626 60.672 112.806 60.9008 112.928 61.1632L113.039 61.4077L113.156 61.6577C113.246 61.8534 113.323 62.0569 113.383 62.2632L113.456 62.5188L113.533 62.7799C113.585 62.9569 113.635 63.1347 113.683 63.3132L113.828 63.8354C113.927 64.2027 113.863 64.5635 113.717 64.8799L113.578 65.1743L113.444 65.4743C113.397 65.5762 113.399 65.6237 113.4 65.6354L113.433 65.8965L113.472 66.1577C113.487 66.2657 113.518 66.3778 113.567 66.491L113.678 66.7465L113.783 66.9965C113.872 67.2035 113.944 67.4179 113.994 67.6354L114.056 67.8965L114.117 68.1632C114.172 68.4018 114.195 68.6468 114.183 68.891L114.167 69.1577L114.156 69.4243C114.153 69.4799 114.158 69.5085 114.161 69.5188L114.261 69.7132L114.361 69.9021C114.396 69.9706 114.492 70.157 114.489 70.3799C114.487 70.5159 114.444 70.7418 114.25 70.9243C114.216 70.956 114.168 70.9682 114.133 70.991V71.2188C114.134 71.3492 114.151 71.4823 114.178 71.6188L114.233 71.891L114.283 72.1632C114.364 72.571 114.246 72.9478 114.017 73.2521L113.828 73.5021L113.717 73.641L113.811 73.8243L113.961 74.1132C114.145 74.4705 114.188 74.8888 113.989 75.291L113.867 75.5465L113.739 75.7965C113.646 75.9827 113.542 76.163 113.433 76.341L113.289 76.5854L113.139 76.8243C113.076 76.9263 113.039 77.0251 113.017 77.1188L112.95 77.3743L112.889 77.6299C112.886 77.6403 112.881 77.6868 112.917 77.791L113.128 78.4021C113.266 78.8017 113.231 79.2411 112.939 79.6077L112.756 79.8354L112.578 80.0577C112.505 80.1491 112.458 80.2392 112.428 80.3243L112.339 80.5799L112.25 80.8299C112.175 81.0424 112.077 81.2467 111.961 81.441L111.822 81.6688L111.689 81.9021C111.628 82.0049 111.577 82.1119 111.544 82.2243L111.472 82.4799L111.394 82.7354C111.358 82.8614 111.331 82.9996 111.317 83.1465L111.261 83.7132C111.233 83.9953 111.153 84.2662 111.011 84.5132L110.744 84.9799C110.585 85.2571 110.356 85.4721 110.089 85.6299L109.822 85.7854L109.578 85.9243L109.55 86.1577L109.506 86.441C109.453 86.8037 109.279 87.1205 108.989 87.3521L108.767 87.5299L108.55 87.7021C108.53 87.7181 108.519 87.7316 108.511 87.7632L108.444 88.041L108.383 88.3132C108.3 88.6676 108.096 88.9667 107.794 89.1743L107.561 89.3354L107.333 89.491L107.328 89.5077L107.206 90.0854C107.133 90.4199 106.963 90.7209 106.689 90.9465L106.267 91.291C106.202 91.3443 106.152 91.4079 106.111 91.4854L105.856 91.9743C105.745 92.1854 105.611 92.3797 105.456 92.5577L105.283 92.7577L105.106 92.9632C104.892 93.207 104.62 93.3673 104.322 93.4632L103.744 93.6521L103.694 93.6743L103.544 93.9077L103.4 94.1354C103.321 94.2609 103.246 94.3987 103.178 94.5465L102.933 95.0688C102.774 95.4106 102.504 95.6641 102.15 95.7965L101.883 95.8965L101.611 95.9965C101.58 96.0083 101.568 96.0203 101.556 96.041L101.411 96.2799L101.267 96.5243C101.112 96.7813 100.9 96.9926 100.639 97.1465L100.406 97.2854L100.178 97.4243C100.108 97.4653 100.044 97.5166 99.9889 97.591L99.8222 97.8188L99.6611 98.041C99.5045 98.2543 99.3132 98.4378 99.0944 98.5854L98.65 98.8854C98.4051 99.0507 98.1279 99.1521 97.8389 99.1965L97.25 99.2854C97.1669 99.2983 97.1247 99.3257 97.1 99.3465L96.8944 99.5188L96.6944 99.691C96.6156 99.7574 96.5343 99.8409 96.4611 99.9521L96.3 100.202L96.1389 100.447C95.975 100.695 95.7635 100.904 95.5 101.052L95.2666 101.18L95.0278 101.313C94.7942 101.444 94.5429 101.532 94.2778 101.574L93.7111 101.663C93.6293 101.676 93.5719 101.703 93.5278 101.735L93.0944 102.058C92.8561 102.237 92.586 102.353 92.2944 102.402L91.7389 102.491C91.5866 102.516 91.4406 102.553 91.3055 102.597L91.0555 102.68L90.8 102.763C90.7257 102.787 90.6568 102.826 90.5889 102.885L90.3778 103.063L90.1722 103.247C89.9843 103.412 89.7758 103.549 89.55 103.652L89.3055 103.763L89.0666 103.874C88.9898 103.91 88.9087 103.965 88.8278 104.047L88.4222 104.452C88.165 104.711 87.8356 104.861 87.4666 104.88L87.1889 104.897L86.9055 104.913C86.8906 104.914 86.8814 104.912 86.8778 104.913C86.8745 104.915 86.8654 104.922 86.85 104.935L86.6389 105.13L86.4222 105.319C86.1704 105.546 85.8654 105.688 85.5222 105.719L85.2444 105.741L84.9722 105.763C84.8568 105.773 84.7477 105.801 84.65 105.841L84.4055 105.941L84.1555 106.041C83.8594 106.162 83.5468 106.193 83.2389 106.147L82.9444 106.102L82.6555 106.058C82.5876 106.047 82.5563 106.06 82.5389 106.069L82.2944 106.185L82.0555 106.302C81.9498 106.354 81.843 106.427 81.7333 106.519L81.5055 106.708L81.2833 106.891C80.957 107.164 80.5549 107.251 80.15 107.158L79.5611 107.024C79.4433 106.997 79.3474 106.996 79.2722 107.008L79.0111 107.047L78.75 107.091C78.742 107.096 78.7198 107.112 78.6889 107.147L78.2555 107.635C78.0276 107.892 77.7282 108.088 77.3611 108.152L77.0944 108.197L76.8333 108.247C76.5937 108.288 76.3494 108.296 76.1055 108.274L75.8278 108.252L75.5555 108.224C75.3944 108.21 75.234 108.207 75.0778 108.208H74.5333C74.4224 108.209 74.3154 108.226 74.2111 108.258L73.9555 108.341L73.7 108.419C73.5187 108.475 73.3336 108.527 73.15 108.574L72.6278 108.708C72.4797 108.746 72.3321 108.796 72.1833 108.852L71.9222 108.947L71.6666 109.047C71.3154 109.179 70.9513 109.16 70.6166 109.03L70.3389 108.924L70.0611 108.813C69.9254 108.76 69.7976 108.732 69.6833 108.719L69.4166 108.685L69.1444 108.652C69.0273 108.638 68.9148 108.641 68.8055 108.658L68.5389 108.697L68.2778 108.741C68.0465 108.776 67.8115 108.784 67.5778 108.763L67.3111 108.741L67.0444 108.713C66.9083 108.701 66.7717 108.706 66.6389 108.719L66.3778 108.741L66.1111 108.763C65.9581 108.778 65.8044 108.801 65.65 108.83L65.3833 108.88L65.1222 108.93C65.0237 108.948 64.9121 108.987 64.7889 109.052L64.5222 109.191L64.25 109.335C63.962 109.487 63.6418 109.562 63.3055 109.524L63.0389 109.491L62.7722 109.463C62.574 109.441 62.3737 109.413 62.1778 109.374L61.9111 109.319L61.65 109.269C61.4504 109.23 61.2474 109.178 61.05 109.119L60.7889 109.041L60.5222 108.963C60.4062 108.929 60.2937 108.91 60.1833 108.908L59.65 108.897C59.4398 108.892 59.2302 108.875 59.0222 108.841L58.7611 108.802L58.4944 108.758C58.3416 108.733 58.1871 108.717 58.0333 108.708L57.7666 108.691L57.5055 108.674C57.3925 108.667 57.2701 108.672 57.1444 108.697L56.8722 108.752L56.6 108.802C56.2021 108.881 55.8244 108.779 55.5166 108.552L55.2722 108.369L55.0278 108.191C54.9676 108.147 54.9399 108.147 54.9333 108.147H54.6666L54.4 108.141C54.2872 108.14 54.1633 108.157 54.0278 108.191L53.4611 108.335C53.0903 108.428 52.7173 108.373 52.3889 108.169L52.1444 108.019L51.9 107.863C51.8945 107.86 51.8899 107.858 51.8889 107.858C51.8868 107.858 51.8835 107.862 51.8778 107.863L51.3111 107.963C50.9841 108.021 50.655 107.981 50.35 107.835L50.1055 107.719L49.8555 107.597C49.7379 107.54 49.6191 107.502 49.5 107.474L48.9778 107.352C48.7914 107.31 48.6059 107.261 48.4222 107.208L47.9111 107.063C47.8274 107.039 47.7307 107.027 47.6222 107.035L47.3444 107.058L47.0611 107.08C46.8087 107.099 46.5564 107.082 46.3111 107.03L46.0444 106.974L45.7833 106.913C45.5249 106.858 45.2797 106.759 45.0555 106.619L44.8222 106.474L44.5889 106.324C44.4785 106.255 44.3653 106.203 44.25 106.163L43.9944 106.074L43.7444 105.991C43.6129 105.946 43.4735 105.909 43.3333 105.885L42.8 105.797C42.5891 105.762 42.3808 105.716 42.1778 105.652L41.6666 105.485C41.4574 105.42 41.2507 105.341 41.0555 105.241L40.5778 104.997C40.3632 104.887 40.166 104.747 39.9833 104.585L39.5611 104.208C39.4886 104.143 39.4116 104.104 39.3389 104.08L39.0889 103.997L38.8333 103.913C38.6724 103.86 38.5092 103.811 38.3444 103.763L38.0833 103.685L37.8278 103.613C37.5987 103.547 37.3775 103.45 37.1722 103.33L36.9389 103.197L36.7111 103.063C36.5184 102.95 36.3369 102.816 36.1666 102.669L35.9611 102.491L35.75 102.313C35.7238 102.291 35.6948 102.271 35.6389 102.263L35.35 102.23L35.0666 102.191C34.788 102.156 34.5207 102.073 34.2778 101.93L34.05 101.791L33.8166 101.658C33.6411 101.554 33.4696 101.44 33.3055 101.319L33.0944 101.158L32.8778 100.997C32.7888 100.931 32.6867 100.881 32.5778 100.841L32.0666 100.652C31.7041 100.518 31.4451 100.253 31.2833 99.9299L31.1444 99.6521L31.0055 99.3799C30.9743 99.3174 30.9531 99.3034 30.95 99.3021L30.7055 99.1854L30.4666 99.0688C30.3447 99.0088 30.2116 98.9557 30.0666 98.9132L29.7944 98.8354L29.5222 98.7521C29.1803 98.652 28.8973 98.4444 28.7 98.1465L28.5444 97.9132L28.3889 97.6743C28.3477 97.6126 28.3009 97.5736 28.25 97.5465L27.7722 97.291C27.5282 97.1613 27.313 96.9889 27.1389 96.7743L26.9722 96.5632L26.8 96.3521C26.6956 96.2235 26.5876 96.0998 26.4778 95.9799L26.2944 95.7799L26.1111 95.5854C26.0209 95.4871 25.9233 95.3984 25.8166 95.3188L25.6055 95.1577L25.3889 94.9965C25.222 94.8721 25.066 94.7354 24.9166 94.591L24.7222 94.4077L24.5333 94.2243C24.3935 94.0891 24.2575 93.947 24.1278 93.8021L23.95 93.6021L23.7722 93.4077C23.6544 93.2761 23.5345 93.1443 23.4166 93.0132L23.0611 92.6132C22.9173 92.4531 22.7834 92.2839 22.6666 92.1021L22.5222 91.8743L22.3778 91.6521C22.3713 91.642 22.3567 91.613 22.2889 91.5854L21.7222 91.3632C21.4072 91.2369 21.1366 91.0201 20.9555 90.7132L20.8166 90.4799L20.6833 90.2521C20.5508 90.0275 20.4562 89.7813 20.4 89.5243L20.3389 89.2354L20.2778 88.9521C20.2759 88.9438 20.2733 88.9384 20.2722 88.9354C20.2719 88.9352 20.2659 88.9334 20.2611 88.9299L19.8055 88.5965C19.5465 88.4089 19.3494 88.1601 19.2333 87.8577L19.1333 87.6021L19.0389 87.3465C18.9859 87.2084 18.9244 87.0771 18.8555 86.9521L18.6 86.4854C18.5819 86.4527 18.5454 86.404 18.4611 86.3521L18.2 86.1965L17.9389 86.0354C17.6724 85.8713 17.4509 85.6478 17.3 85.3632L17.0444 84.8854C16.9303 84.6699 16.8483 84.4411 16.7944 84.2021L16.7333 83.9354L16.6722 83.6632C16.6235 83.4469 16.5923 83.2264 16.5778 83.0021L16.5611 82.7188L16.5389 82.4354C16.5323 82.3347 16.5116 82.2538 16.4778 82.1854L16.3611 81.9465L16.2389 81.7077C16.1352 81.4988 16.057 81.2798 16.0055 81.0521L15.95 80.791L15.8889 80.5299C15.8645 80.4226 15.8268 80.3181 15.7722 80.2188L15.6389 79.9854L15.5111 79.7465C15.3959 79.537 15.3076 79.3167 15.25 79.0854L15.1833 78.8243L15.1222 78.5688C15.0753 78.3799 15.0328 78.1883 15 77.9965L14.9111 77.4743C14.8865 77.3305 14.8542 77.1864 14.8111 77.0465L14.6555 76.5354C14.6032 76.3658 14.5469 76.1951 14.4944 76.0243L14.3389 75.5132C14.2992 75.3841 14.2456 75.2528 14.1778 75.1188L14.05 74.8632L13.9222 74.6132C13.7711 74.3153 13.7157 73.9852 13.7666 73.6521L13.8055 73.3799L13.85 73.1077C13.8735 72.9537 13.8854 72.7993 13.8889 72.6521L13.9 72.1188C13.9052 71.8979 13.9339 71.6758 13.9778 71.4577L14.0278 71.191L14.0833 70.9243C14.1054 70.8144 14.1107 70.7073 14.1 70.6021L14.0444 70.0688C14.0242 69.8689 14.0167 69.6688 14.0166 69.4688V68.9354C14.0166 68.8391 13.9994 68.7325 13.9611 68.6132L13.8722 68.3354L13.7833 68.0632C13.6977 67.7972 13.6606 67.5199 13.6833 67.241L13.7055 66.9743L13.7278 66.7021C13.753 66.396 13.858 66.1112 14.0222 65.8577L14.1833 65.6132L14.3444 65.3632C14.3977 65.2802 14.42 65.2107 14.4278 65.1521L14.4611 64.8854L14.4944 64.6243C14.5204 64.4212 14.556 64.2175 14.6055 64.0188L14.6722 63.7577L14.7389 63.5021C14.7999 63.2572 14.8954 63.024 15.0278 62.8077L15.1722 62.5743L15.3166 62.3354C15.3673 62.2526 15.3969 62.1726 15.4111 62.091L15.5 61.5688C15.5207 61.4476 15.534 61.3118 15.5278 61.1688L15.5111 60.8854L15.5 60.6021C15.4853 60.2677 15.5719 59.946 15.7611 59.6632L15.9111 59.4354L16.0666 59.2077C16.1483 59.086 16.2197 58.9611 16.2778 58.8354L16.3889 58.591L16.5 58.3521C16.5498 58.2441 16.5859 58.1274 16.6111 58.0021L16.6666 57.7299L16.7166 57.4632C16.7856 57.1193 16.9675 56.8297 17.2278 56.6077L17.45 56.4188L17.6666 56.2299C17.6734 56.2241 17.6806 56.2218 17.6833 56.2188L17.6889 56.2132V56.2077C17.6895 56.2056 17.6934 56.2025 17.6944 56.1965L17.7833 55.641C17.8217 55.4025 17.8841 55.1716 17.9778 54.9521L18.0889 54.7021L18.1944 54.4577C18.2588 54.3071 18.3159 54.1498 18.3722 53.991L18.4666 53.7354L18.5555 53.4743C18.6674 53.1586 18.8709 52.8998 19.1389 52.7077L19.6055 52.3743C19.6357 52.3525 19.6471 52.3347 19.6555 52.3077L19.7333 52.0354L19.8166 51.7688L19.9278 51.5021C20.0626 51.2575 20.2702 51.0701 20.5222 50.941L20.7833 50.8021L21.05 50.6688C21.1072 50.6395 21.1241 50.6135 21.1333 50.5965L21.3889 50.1188C21.5169 49.8751 21.6873 49.6602 21.9 49.4854L22.1111 49.3132L22.3166 49.141C22.3185 49.1394 22.3356 49.1308 22.35 49.0688L22.4166 48.7688L22.4889 48.4743L22.5889 48.1743C22.7253 47.8953 22.9568 47.6774 23.2666 47.5577L23.8222 47.3465C23.9394 47.3014 24.0299 47.247 24.0944 47.191L24.2944 47.0188L24.4944 46.841C24.6412 46.7136 24.7934 46.591 24.95 46.4743L25.1666 46.3132L25.3778 46.1577C25.3855 46.1519 25.4095 46.1313 25.4333 46.0577L25.5278 45.7688L25.6222 45.4743C25.7244 45.1568 25.9104 44.8741 26.1944 44.6688L26.4166 44.5077L26.6333 44.3521C26.8408 44.2026 27.072 44.0891 27.3166 44.0077L27.5833 43.9188L27.8555 43.8243C27.9837 43.7816 28.0963 43.7304 28.1944 43.6688L28.4222 43.5243L28.6333 43.391C28.6366 43.386 28.6485 43.3674 28.6611 43.3243L28.7555 43.0021L28.85 42.6854L28.9889 42.3632C29.0541 42.2595 29.1411 42.1634 29.25 42.0799C29.47 41.912 29.7238 41.8533 29.95 41.8521L30.2778 41.8465H30.6055C30.6329 41.8464 30.6505 41.843 30.6611 41.841H30.6666L30.8555 41.6688L31.0555 41.491C31.2028 41.3577 31.3578 41.2327 31.5166 41.1132L31.9389 40.791C32.0854 40.6807 32.2349 40.5698 32.3833 40.4632L32.8166 40.1521C32.9592 40.0497 33.101 39.9449 33.2444 39.841L33.4666 39.6854L33.6833 39.5299C33.8622 39.4003 34.0515 39.2864 34.25 39.191L34.7278 38.9577C34.8472 38.9002 34.9626 38.833 35.0722 38.7521L35.5055 38.4299C35.6808 38.3005 35.8684 38.19 36.0611 38.091L36.2944 37.9688L36.5333 37.8465C36.8016 37.7087 37.0922 37.6417 37.3889 37.641H37.9833C38.0815 37.6409 38.1479 37.6253 38.1944 37.6021L38.4333 37.4799L38.6666 37.3632C38.839 37.2759 39.0158 37.1931 39.1944 37.1188L39.4444 37.0132L39.6889 36.9132C39.7082 36.9048 39.7495 36.8807 39.8055 36.8021L39.9889 36.5465L40.1722 36.2854C40.3627 36.0176 40.617 35.7965 40.9444 35.6799L41.2 35.591L41.45 35.5021C41.6601 35.4275 41.8782 35.3707 42.1 35.3354L42.3722 35.2965L42.6389 35.2521C42.7176 35.2396 42.7912 35.2146 42.8611 35.1688L43.0889 35.0132L43.3222 34.8632C43.5914 34.6865 43.8966 34.5947 44.2166 34.591H44.4944L44.7778 34.5854C44.9308 34.5836 45.0767 34.569 45.2166 34.5465L45.4833 34.5077L45.75 34.4632C45.9343 34.4336 46.1195 34.4078 46.3055 34.3854L46.5778 34.3521L46.8444 34.3188C46.9612 34.3046 47.0719 34.2777 47.1778 34.2354L47.4278 34.1354L47.6722 34.0354C47.7815 33.9916 47.8973 33.9327 48.0111 33.8521L48.4778 33.5188C48.6646 33.3865 48.8589 33.271 49.0611 33.1743L49.3111 33.0577L49.5555 32.941C49.78 32.8337 50.0162 32.7585 50.2611 32.7188L50.7944 32.6299C50.9637 32.6024 51.1322 32.5729 51.3 32.541L51.5666 32.491L51.8278 32.441C52.1256 32.3843 52.4247 32.4075 52.7111 32.491L52.9944 32.5743L53.2833 32.6577L53.3055 32.6632L53.5555 32.5354L53.8055 32.4132C54.0741 32.2793 54.3645 32.2089 54.6666 32.2188L55.2055 32.241C55.4066 32.2476 55.6091 32.261 55.8111 32.2854L56.0833 32.3188L56.3611 32.3521C56.5173 32.3709 56.6723 32.3782 56.8222 32.3799L57.0889 32.3854H57.35C57.4981 32.387 57.6478 32.3798 57.7944 32.3632L58.0611 32.3354L58.3222 32.3077C58.4473 32.2935 58.5727 32.2609 58.7 32.2188L58.9611 32.1354L59.2222 32.0465C59.474 31.9632 59.735 31.93 60 31.941L60.5389 31.9632C60.7354 31.9716 60.9315 31.9889 61.1278 32.0132L61.3944 32.0465L61.6611 32.0743C61.781 32.0892 61.9003 32.0892 62.0166 32.0743L62.2778 32.041L62.5444 32.0077C62.6016 32.0003 62.6832 31.9793 62.7889 31.9132L63.3222 31.5799ZM64.0722 32.7854L63.8055 32.9521L63.5444 33.1188C63.2952 33.2748 63.0171 33.3811 62.7222 33.4188L62.4611 33.4521L62.1944 33.4854C61.9599 33.5152 61.7242 33.52 61.4889 33.491L60.9555 33.4243C60.7968 33.4046 60.636 33.3866 60.4778 33.3799L59.9444 33.3577C59.8544 33.3539 59.7598 33.3656 59.6666 33.3965L59.4111 33.4854L59.15 33.5688C58.9318 33.6411 58.7094 33.6931 58.4833 33.7188L58.2166 33.7465L57.9555 33.7799C57.7509 33.8031 57.5451 33.8098 57.3389 33.8077H57.0722L56.8055 33.8021C56.6016 33.7999 56.3955 33.7882 56.1889 33.7632L55.9166 33.7299L55.6389 33.6965C55.4784 33.6772 55.3191 33.6629 55.1611 33.6577L54.8889 33.6521L54.6166 33.641C54.5592 33.6394 54.5029 33.6534 54.4389 33.6854L54.1889 33.8077L53.9389 33.9354C53.6006 34.1043 53.2337 34.1265 52.8833 34.0243L52.6 33.941L52.3111 33.8577C52.2164 33.8302 52.1476 33.8253 52.0944 33.8354L51.8333 33.8854L51.5666 33.9354C51.3857 33.9699 51.2047 34.0058 51.0222 34.0354L50.7555 34.0799L50.4889 34.1188C50.3798 34.1365 50.2714 34.1743 50.1666 34.2243L49.6778 34.4577C49.5516 34.518 49.4241 34.592 49.3 34.6799L48.8333 35.0132C48.6358 35.1532 48.4254 35.2694 48.2055 35.3577L47.7055 35.5577C47.4833 35.6464 47.2493 35.7012 47.0111 35.7299L46.4778 35.7965C46.3085 35.8169 46.1395 35.8419 45.9722 35.8688L45.7055 35.9077L45.4444 35.9521C45.2322 35.9862 45.0144 36.005 44.7944 36.0077L44.5111 36.0132H44.2333C44.1794 36.0138 44.1374 36.0275 44.1 36.0521L43.6444 36.3521C43.4075 36.508 43.1414 36.6131 42.8611 36.6577L42.5944 36.7021L42.3222 36.741C42.1855 36.7628 42.054 36.7962 41.9278 36.841L41.6778 36.9354L41.4222 37.0243C41.4127 37.0278 41.3771 37.0381 41.3278 37.1077L41.15 37.3688L40.9666 37.6243C40.783 37.8831 40.5403 38.0964 40.2333 38.2243L39.9889 38.3299L39.7444 38.4299C39.5976 38.491 39.4525 38.5582 39.3111 38.6299L39.0722 38.7465L38.8389 38.8688C38.5708 39.0046 38.2788 39.0629 37.9833 39.0632H37.3944C37.2974 39.0633 37.2305 39.0835 37.1833 39.1077L36.9444 39.2299L36.7111 39.3521C36.5874 39.4157 36.4646 39.4897 36.35 39.5743L35.9166 39.8965C35.7364 40.0296 35.5452 40.1445 35.3444 40.241L34.8666 40.4743C34.7452 40.5327 34.6272 40.5998 34.5166 40.6799L34.3 40.8354L34.0833 40.9965C33.9378 41.102 33.7891 41.2038 33.6444 41.3077L33.2111 41.6188C33.0715 41.719 32.9323 41.8205 32.7944 41.9243L32.5833 42.0854L32.3666 42.2465C32.242 42.3404 32.121 42.4419 32.0055 42.5465L31.8111 42.7243L31.6111 42.9021C31.3213 43.1647 30.963 43.2669 30.6111 43.2688H30.1555L30.1222 43.4021L30.0278 43.7188C29.9299 44.0562 29.7369 44.3765 29.4055 44.5854L29.1833 44.7299L28.9555 44.8688C28.7538 44.996 28.536 45.0975 28.3055 45.1743L28.0333 45.2632L27.7611 45.3577C27.6463 45.3961 27.5503 45.4474 27.4666 45.5077L27.2444 45.6632L27.0278 45.8188C27.0214 45.8233 26.9999 45.8402 26.9778 45.9077L26.8833 46.2021L26.7889 46.491C26.6878 46.805 26.506 47.0893 26.2278 47.2965L26.0166 47.4577L25.8 47.6132C25.6711 47.7092 25.5481 47.8143 25.4278 47.9188L25.2222 48.091L25.0222 48.2632C24.8192 48.4395 24.5862 48.5769 24.3333 48.6743L24.0555 48.7799L23.8555 48.8521L23.8055 49.0799L23.7389 49.3799C23.664 49.7113 23.4984 50.0137 23.2222 50.241L23.0111 50.4132L22.8055 50.5854C22.7394 50.6398 22.6841 50.7044 22.6444 50.7799L22.5222 51.0188L22.3944 51.2577C22.2356 51.5594 21.9929 51.7853 21.7 51.9354L21.4333 52.0688L21.1722 52.2021L21.0944 52.4521L21.0111 52.7243C20.9094 53.0547 20.712 53.3298 20.4333 53.5299L19.9666 53.8632C19.9246 53.8933 19.905 53.9173 19.8944 53.9465L19.8055 54.2077L19.7111 54.4688C19.6454 54.6539 19.5759 54.8357 19.5 55.0132L19.3944 55.2632L19.2889 55.5077C19.2422 55.6166 19.2042 55.7387 19.1833 55.8688L19.0944 56.4243C19.0365 56.7801 18.8595 57.0828 18.5889 57.3132L18.3722 57.5021L18.15 57.691C18.1207 57.7163 18.1137 57.7284 18.1111 57.741L18.0611 58.0132L18.0055 58.2799C17.9591 58.5113 17.8869 58.7341 17.7889 58.9465L17.6778 59.191L17.5666 59.4299C17.4761 59.6257 17.3664 59.8146 17.2444 59.9965L16.9444 60.4521C16.9307 60.4726 16.9202 60.496 16.9222 60.541L16.9444 61.1077C16.9548 61.3446 16.9446 61.5796 16.9055 61.8077L16.8166 62.3299C16.7709 62.5968 16.6745 62.849 16.5333 63.0799L16.3889 63.3132L16.2444 63.5521C16.1847 63.6497 16.1414 63.7473 16.1166 63.8465L16.05 64.1021L15.9889 64.3632C15.9528 64.508 15.9245 64.6541 15.9055 64.8021L15.8722 65.0688L15.8389 65.3299C15.8015 65.622 15.6913 65.8911 15.5333 66.1354L15.3778 66.3854L15.2166 66.6299C15.168 66.705 15.1487 66.7675 15.1444 66.8188L15.1222 67.091L15.1 67.3577C15.0936 67.4366 15.1065 67.5234 15.1389 67.6243L15.2278 67.9021L15.3166 68.1743C15.3963 68.4219 15.4388 68.6783 15.4389 68.9354V69.4688C15.4389 69.6202 15.4457 69.772 15.4611 69.9243L15.5166 70.4577C15.5419 70.7065 15.5269 70.9562 15.4778 71.2021L15.4222 71.4743L15.3722 71.741C15.3446 71.8789 15.3254 72.016 15.3222 72.1521L15.3111 72.6854C15.3062 72.895 15.2878 73.1074 15.2555 73.3188L15.2111 73.5965L15.1722 73.8688C15.1672 73.9014 15.1688 73.9292 15.1889 73.9688L15.3166 74.2188L15.4444 74.4743C15.5473 74.6771 15.6349 74.8848 15.7 75.0965L16.0889 76.3743L16.1722 76.6243C16.2334 76.8226 16.2816 77.0255 16.3166 77.2299L16.3611 77.4965L16.4055 77.7577C16.4323 77.9142 16.4617 78.0702 16.5 78.2243L16.5666 78.4799L16.6278 78.741C16.6553 78.8521 16.6983 78.9591 16.7555 79.0632L16.8889 79.2965L17.0166 79.5354C17.135 79.7506 17.2237 79.9796 17.2778 80.2188L17.3333 80.4799L17.3944 80.7354C17.4209 80.8528 17.4583 80.9676 17.5111 81.0743L17.6333 81.3132L17.75 81.5521C17.8732 81.8 17.943 82.0655 17.9611 82.341L17.9944 82.9077C18.0043 83.0603 18.0291 83.2101 18.0611 83.3521L18.1222 83.6188L18.1833 83.891C18.2099 84.0085 18.2467 84.1179 18.3 84.2188L18.5555 84.6965C18.5729 84.7294 18.6047 84.7756 18.6833 84.8243L18.9444 84.9854L19.2055 85.141C19.4672 85.3022 19.6913 85.5194 19.8444 85.7965L20.1 86.2632C20.2017 86.4478 20.2904 86.6418 20.3666 86.841L20.4666 87.091L20.5611 87.3465C20.5745 87.3816 20.5938 87.4139 20.6389 87.4465L20.8666 87.6132L21.0944 87.7743C21.3932 87.9908 21.5895 88.2975 21.6666 88.6521L21.7889 89.2188C21.815 89.339 21.8555 89.4392 21.9055 89.5243L22.1833 89.991C22.1856 89.995 22.191 90.017 22.25 90.041L22.5333 90.1521L22.8166 90.2688C23.1221 90.3916 23.3913 90.5897 23.5778 90.8799L23.7222 91.1077L23.8666 91.3299C23.9424 91.4477 24.0247 91.5606 24.1166 91.6632L24.2944 91.8632L24.4722 92.0577C24.591 92.1898 24.7146 92.3251 24.8333 92.4577L25.0111 92.6577L25.1833 92.8521C25.2903 92.9716 25.4068 93.0906 25.5222 93.2021L25.9 93.5688C26.0058 93.671 26.1202 93.7692 26.2389 93.8577L26.4555 94.0188L26.6666 94.1743C26.8453 94.3075 27.0104 94.46 27.1611 94.6243L27.3444 94.8188L27.5222 95.0188C27.6524 95.1608 27.7827 95.3063 27.9055 95.4577L28.0722 95.6688L28.2444 95.8799C28.2983 95.9462 28.363 95.995 28.4389 96.0354L28.9166 96.291C29.1852 96.4338 29.4055 96.6395 29.5722 96.891L29.7278 97.1243L29.8833 97.3632C29.8921 97.3765 29.8998 97.3798 29.9 97.3799C29.902 97.3812 29.909 97.3816 29.9222 97.3854L30.1944 97.4688L30.4666 97.5465C30.6854 97.6106 30.8951 97.693 31.0944 97.791L31.3333 97.9077L31.5778 98.0299C31.8969 98.1874 32.1274 98.4405 32.2778 98.741L32.5555 99.2965C32.5594 99.304 32.5639 99.309 32.5666 99.3132L32.8166 99.4077L33.0722 99.5021C33.3058 99.5882 33.5228 99.7098 33.7222 99.8577L33.9389 100.019L34.1555 100.174C34.2794 100.266 34.407 100.352 34.5389 100.43L34.7722 100.569L35 100.702C35.0645 100.74 35.1438 100.767 35.2444 100.78L35.5278 100.819L35.8111 100.852C36.1335 100.892 36.4337 101.019 36.6833 101.235L36.8889 101.413L37.0944 101.597C37.2002 101.688 37.3121 101.768 37.4278 101.835L37.6611 101.969L37.8889 102.102C37.9919 102.162 38.1049 102.213 38.2222 102.247L38.4833 102.319L38.7389 102.397C38.9198 102.449 39.1005 102.505 39.2778 102.563L39.7889 102.73C40.0546 102.818 40.2911 102.962 40.5 103.147L40.7111 103.33L40.9222 103.519C41.0204 103.606 41.124 103.677 41.2278 103.73L41.7055 103.974C41.8287 104.037 41.9567 104.088 42.0889 104.13L42.35 104.213L42.6055 104.291C42.7447 104.335 42.8875 104.372 43.0333 104.397L43.5666 104.485C43.7828 104.521 43.9938 104.576 44.2 104.647L44.4555 104.73L44.7111 104.819C44.9323 104.895 45.1445 104.994 45.3444 105.119L45.5778 105.269L45.8111 105.413C45.8985 105.468 45.9903 105.504 46.0833 105.524L46.6055 105.635C46.7108 105.658 46.8264 105.667 46.95 105.658L47.5166 105.613C47.784 105.593 48.0485 105.622 48.3055 105.697L48.5611 105.769L48.8222 105.847C48.9785 105.892 49.136 105.933 49.2944 105.969L49.5555 106.024L49.8166 106.085C50.0418 106.137 50.2619 106.213 50.4722 106.313L50.7166 106.435L50.9666 106.552C50.99 106.563 51.0149 106.571 51.0611 106.563L51.6278 106.463C51.9887 106.399 52.3441 106.464 52.6555 106.658L52.8944 106.808L53.1222 106.952L53.4 106.885L53.6778 106.813C53.9183 106.753 54.1631 106.718 54.4055 106.719L54.6778 106.724H54.9444C55.293 106.727 55.6059 106.85 55.8722 107.047L56.1166 107.224L56.35 107.397L56.5944 107.358L56.8722 107.302C57.1117 107.255 57.3536 107.237 57.5944 107.252L57.8611 107.269L58.1222 107.285C58.3222 107.298 58.5239 107.32 58.7222 107.352L58.9833 107.397L59.25 107.435C59.3923 107.458 59.5345 107.477 59.6778 107.48H59.9444L60.2111 107.485C60.4539 107.49 60.6933 107.532 60.9278 107.602L61.4611 107.758C61.6149 107.803 61.769 107.844 61.9222 107.874L62.1889 107.924L62.45 107.974C62.6077 108.005 62.7684 108.034 62.9278 108.052L63.4611 108.108C63.4814 108.11 63.5202 108.11 63.5889 108.074L63.8555 107.935L64.1222 107.791C64.3555 107.668 64.6017 107.578 64.8555 107.53L65.1222 107.485L65.3889 107.435C65.5862 107.398 65.7855 107.371 65.9833 107.352L66.2444 107.324L66.5111 107.302C66.7289 107.282 66.9476 107.278 67.1666 107.297L67.4333 107.324L67.7055 107.347C67.8261 107.357 67.9445 107.353 68.0611 107.335L68.3278 107.291L68.5889 107.252C68.8281 107.215 69.0695 107.213 69.3111 107.241L69.5833 107.274L69.85 107.302C70.0958 107.331 70.3409 107.399 70.5778 107.491L70.8555 107.597L71.1333 107.708L71.1611 107.713L71.4222 107.619L71.6778 107.519C71.8733 107.445 72.0732 107.381 72.2722 107.33L72.7944 107.197C72.9567 107.155 73.1175 107.107 73.2778 107.058L73.5333 106.98L73.7944 106.902C74.0313 106.829 74.2742 106.787 74.5222 106.785H75.0666C75.269 106.784 75.4728 106.79 75.6778 106.808L75.9555 106.835L76.2333 106.858C76.357 106.869 76.4753 106.866 76.5889 106.847L76.8555 106.797L77.1166 106.752C77.1166 106.752 77.1214 106.75 77.1278 106.747C77.138 106.74 77.1588 106.724 77.1889 106.691L77.4111 106.447L77.6278 106.202C77.8567 105.944 78.1592 105.743 78.5333 105.685L78.7944 105.641L79.0555 105.602C79.3312 105.56 79.6111 105.578 79.8833 105.641L80.1778 105.708L80.4166 105.758L80.5944 105.613L80.8222 105.424C81.0106 105.267 81.2131 105.136 81.4278 105.03L81.6666 104.908L81.9111 104.791C82.215 104.641 82.5435 104.604 82.8666 104.652L83.1555 104.697L83.45 104.741C83.5334 104.753 83.5874 104.738 83.6222 104.724L83.8666 104.624L84.1166 104.524C84.3495 104.43 84.5928 104.369 84.8444 104.347L85.1222 104.324L85.3944 104.302C85.4181 104.3 85.4401 104.292 85.4722 104.263L85.6833 104.074L85.8944 103.88C86.1557 103.644 86.4792 103.509 86.8333 103.491L87.1166 103.474L87.3944 103.463H87.4L87.8222 103.041C88.0123 102.85 88.2281 102.692 88.4722 102.58L88.7166 102.469L88.9555 102.358C89.051 102.314 89.1446 102.258 89.2333 102.18L89.4389 101.997L89.65 101.813C89.8585 101.63 90.0966 101.493 90.3611 101.408L90.8722 101.241C91.076 101.175 91.2889 101.127 91.5055 101.091L91.7833 101.041L92.0555 100.997C92.1333 100.984 92.1908 100.955 92.2389 100.919L92.6722 100.597C92.9136 100.416 93.1891 100.305 93.4833 100.258L94.05 100.169C94.1614 100.151 94.2555 100.118 94.3333 100.074L94.5666 99.941L94.8055 99.8077C94.8525 99.7808 94.9004 99.7382 94.95 99.6632L95.2722 99.1743C95.4137 98.9592 95.5843 98.7652 95.7778 98.6021L95.9778 98.4299L96.1833 98.2577C96.4306 98.0491 96.7233 97.9277 97.0333 97.8799L97.3278 97.8354L97.6278 97.791C97.7313 97.7748 97.8037 97.7426 97.8555 97.7077L98.3 97.4077C98.3777 97.3551 98.4478 97.288 98.5111 97.2021L98.6778 96.9743L98.8444 96.7521C99.0092 96.5277 99.2099 96.3385 99.45 96.1965L99.6833 96.0577L99.9166 95.9243C99.9656 95.8954 100.011 95.8545 100.05 95.791L100.194 95.5465L100.339 95.3077C100.52 95.0066 100.79 94.7853 101.117 94.6632L101.383 94.5632L101.644 94.4632L101.767 94.2077L101.889 93.9465C101.982 93.7463 102.086 93.5546 102.2 93.3743L102.344 93.1465L102.489 92.9132C102.685 92.604 102.975 92.4029 103.306 92.2965L103.6 92.2021L103.889 92.1132C103.975 92.0855 104.012 92.0485 104.033 92.0243L104.211 91.8243L104.383 91.6243C104.462 91.5339 104.535 91.4321 104.594 91.3188L104.85 90.8299C104.978 90.5835 105.152 90.3676 105.367 90.191L105.572 90.0188L105.783 89.8465C105.789 89.8421 105.801 89.8336 105.811 89.7854L105.878 89.4965L105.939 89.2077C106.016 88.8479 106.212 88.5389 106.522 88.3243L106.989 88.0021L106.994 87.9965V87.991L107.128 87.4354C107.207 87.0981 107.388 86.8083 107.661 86.591L107.883 86.4132L108.1 86.241V86.2354L108.144 85.9521L108.183 85.6688L108.261 85.3688C108.371 85.0909 108.574 84.8718 108.833 84.7188L109.1 84.5577L109.367 84.4021C109.453 84.3508 109.492 84.3021 109.511 84.2688L109.778 83.8021C109.813 83.7392 109.841 83.6665 109.85 83.5743L109.906 83.0077C109.928 82.7787 109.971 82.5564 110.033 82.341L110.106 82.0854L110.183 81.8243C110.25 81.5961 110.345 81.379 110.467 81.1743L110.606 80.941L110.739 80.7132C110.807 80.5994 110.863 80.4796 110.906 80.3577L111.083 79.8577C111.171 79.6088 111.301 79.3761 111.467 79.1688L111.644 78.9465L111.761 78.8021L111.678 78.5632L111.572 78.2577C111.467 77.9548 111.431 77.627 111.511 77.2965L111.572 77.041L111.633 76.7799C111.694 76.5333 111.794 76.2982 111.928 76.0799L112.078 75.841L112.222 75.6021C112.31 75.4592 112.393 75.3121 112.467 75.1632L112.589 74.9132L112.678 74.7243L112.55 74.4743L112.4 74.191C112.302 74.0016 112.243 73.7751 112.261 73.5299C112.28 73.2837 112.374 73.0704 112.506 72.8965L112.694 72.6465L112.878 72.3965L112.833 72.1688L112.783 71.8965C112.739 71.6732 112.712 71.4492 112.711 71.2243V70.691C112.711 70.5775 112.721 70.4027 112.783 70.2354C112.801 70.1893 112.822 70.1293 112.861 70.0688C112.763 69.8348 112.722 69.5905 112.733 69.3521L112.75 69.0854L112.761 68.8188C112.767 68.7076 112.759 68.5965 112.733 68.4854L112.672 68.2188L112.611 67.9577C112.58 67.8241 112.534 67.6888 112.478 67.5577L112.367 67.3077L112.261 67.0521C112.164 66.8271 112.094 66.5924 112.061 66.3521L112.028 66.091L111.989 65.8299C111.943 65.492 112.015 65.1658 112.15 64.8743L112.289 64.5799L112.428 64.2799C112.446 64.2404 112.449 64.2166 112.45 64.2077L112.383 63.9465L112.311 63.6854C112.265 63.5163 112.216 63.3476 112.167 63.1799L112.094 62.9188L112.017 62.6632C111.976 62.5247 111.928 62.3846 111.867 62.2521L111.633 61.7632C111.603 61.6969 111.555 61.6199 111.467 61.541L111.239 61.341L111.011 61.1354C110.723 60.8783 110.548 60.5304 110.544 60.1243L110.539 59.841V59.5632C110.538 59.4756 110.522 59.4047 110.494 59.3465L110.378 59.1077L110.256 58.8688C110.137 58.6264 110.068 58.3655 110.044 58.0965L110.022 57.8132L110 57.6077L109.772 57.4799L109.494 57.3188C109.132 57.1082 108.879 56.7591 108.844 56.3077L108.8 55.7299V55.7243L108.594 55.5465L108.389 55.3577C108.132 55.1298 107.967 54.8364 107.9 54.5021L107.839 54.2243L107.783 53.9465V53.941L107.778 53.9354L107.322 53.6021C107.116 53.4511 106.933 53.2723 106.783 53.0688L106.628 52.8521L106.467 52.641C106.298 52.4115 106.189 52.1504 106.128 51.8743L106.067 51.591L106.006 51.3354L105.789 51.2243L105.528 51.0854C105.259 50.9437 105.03 50.7451 104.861 50.4854L104.717 50.2632L104.572 50.0354C104.46 49.8629 104.354 49.6843 104.261 49.4965L104.017 48.9965C103.962 48.8861 103.892 48.7884 103.817 48.7021L103.639 48.5021L103.467 48.3021C103.329 48.1451 103.196 47.9765 103.078 47.8021L102.928 47.5799L102.772 47.3521C102.768 47.3464 102.765 47.3438 102.761 47.341C102.756 47.3373 102.741 47.328 102.711 47.3188L102.428 47.2299L102.139 47.141C101.896 47.0657 101.665 46.9617 101.456 46.8299L101.228 46.691L101 46.5465C100.694 46.3538 100.497 46.0675 100.383 45.7465L100.278 45.4577L100.178 45.1688C100.175 45.1609 100.169 45.1562 100.167 45.1521L99.9389 45.041L99.6944 44.9243C99.4796 44.8199 99.2768 44.6872 99.0944 44.5354L98.8889 44.3688L98.6833 44.1965C98.5524 44.0876 98.4224 43.9784 98.2889 43.8743L98.0778 43.7132L97.8666 43.5465C97.7758 43.4759 97.6739 43.4176 97.5611 43.3688L97.3111 43.2577L97.0611 43.1521C96.7881 43.0339 96.5539 42.8543 96.3666 42.6243L96.1889 42.4077L96.0166 42.191C95.9737 42.1382 95.9277 42.1031 95.8722 42.0799L95.6166 41.9799L95.3666 41.8743C95.1552 41.787 94.9544 41.6793 94.7666 41.5521L94.5444 41.4021L94.3278 41.2521C94.1423 41.1264 93.9663 40.9856 93.8055 40.8243L93.6111 40.6243L93.4222 40.4354V40.4299C93.419 40.4292 93.411 40.4304 93.4 40.4299L92.8 40.4077C92.5052 40.396 92.2185 40.3238 91.9555 40.1799L91.4889 39.9243C91.2207 39.7773 91.0061 39.5671 90.8389 39.3188L90.6666 39.0632L90.5611 38.9021L90.3555 38.9243L90.05 38.9521C89.6255 38.9874 89.2262 38.8333 88.9444 38.491L88.7555 38.2632L88.6 38.0743L88.3611 38.0854L88.0666 38.091C87.6439 38.1049 87.2698 37.9348 87.0055 37.6132L86.8166 37.3799L86.65 37.1799L86.4222 37.1854L86.1333 37.1965C85.7355 37.2074 85.3779 37.0512 85.1055 36.7688L84.7 36.3521L84.4444 36.3577L84.1611 36.3632C83.9335 36.3674 83.7084 36.3525 83.4889 36.3188L82.9555 36.241C82.7362 36.2072 82.5194 36.152 82.3111 36.0799L82.0611 35.991L81.8111 35.9077C81.6059 35.8366 81.4044 35.7462 81.2111 35.641L80.9722 35.5132L80.7333 35.3799C80.6737 35.3474 80.6129 35.3312 80.5444 35.3299L80 35.3188C79.7523 35.314 79.5075 35.2758 79.2722 35.2021L79.0166 35.1243L78.7611 35.041C78.5122 34.9628 78.2794 34.8457 78.0666 34.691L77.6 34.3465C77.5833 34.3344 77.5741 34.3305 77.5722 34.3299C77.5714 34.3296 77.5666 34.3292 77.5555 34.3299L77.2778 34.3521L77 34.3688C76.7632 34.3847 76.5255 34.373 76.2944 34.3354L76.0333 34.2965L75.7722 34.2521C75.6424 34.231 75.5087 34.221 75.3722 34.2243L74.8278 34.2354C74.5946 34.2413 74.3605 34.2258 74.1333 34.1799L73.8778 34.1243L73.6166 34.0743C73.4396 34.0385 73.26 34.0015 73.0833 33.9632L72.8222 33.9077L72.5611 33.8465C72.3895 33.8093 72.2172 33.7724 72.0444 33.7354L71.5222 33.6243C71.3412 33.5856 71.1577 33.5465 70.9778 33.5021L70.4555 33.3688C70.4295 33.3623 70.3925 33.3628 70.3278 33.3854L70.05 33.4799L69.7722 33.5799C69.3021 33.7463 68.8593 33.6055 68.5333 33.3132L68.2833 33.0854L68.1722 32.9854L68.0666 33.0521L67.7889 33.2132C67.4081 33.4402 66.96 33.4774 66.5444 33.2465L66.2833 33.1021L66.0222 32.9521C65.9418 32.9073 65.8823 32.8968 65.8389 32.8965H65.3055C65.0896 32.8962 64.8706 32.8809 64.6555 32.8465L64.1222 32.7577C64.1172 32.759 64.0996 32.7682 64.0722 32.7854Z" fill="#010820"/>
</svg>
