<svg width="24" height="24" viewBox="0 0 24 24" fill="none" xmlns="http://www.w3.org/2000/svg">
<path d="M10.6045 3.87207C11.1042 2.60696 12.8958 2.60696 13.3955 3.87207L15.0605 8.09668C15.1939 8.43471 15.4452 8.71098 15.7646 8.87695L15.9062 8.94141L20.1299 10.6074C21.3951 11.1072 21.3951 12.8978 20.1299 13.3975L15.9062 15.0635C15.5197 15.2159 15.213 15.5216 15.0605 15.9082L13.3955 20.1318C12.9269 21.3182 11.3229 21.3922 10.7129 20.3535L10.6045 20.1318L8.93945 15.9082C8.78699 15.5216 8.48034 15.2159 8.09375 15.0635L3.87012 13.3975L3.64844 13.29C2.67874 12.7206 2.67874 11.2843 3.64844 10.7148L3.87012 10.6074L8.09375 8.94141C8.43203 8.80799 8.70901 8.55696 8.875 8.2373L8.93945 8.09668L10.6045 3.87207ZM10.334 8.64648C10.029 9.41949 9.41661 10.032 8.64355 10.3369L4.42188 12.002L8.64355 13.668C9.41672 13.9729 10.029 14.5852 10.334 15.3584L12 19.5801L13.666 15.3584C13.971 14.5852 14.5833 13.9729 15.3564 13.668L19.5781 12.002L15.3564 10.3369C14.5834 10.032 13.971 9.41949 13.666 8.64648L12 4.4248L10.334 8.64648Z" fill="#010820"/>
</svg>
